<svg id="Layer_1" data-name="Layer 1" xmlns="http://www.w3.org/2000/svg" xmlns:xlink="http://www.w3.org/1999/xlink" viewBox="0 0 23.042 152.7"><defs><style>.cls-1{fill:url(#linear-gradient);}</style><linearGradient id="linear-gradient" x1="86.592" y1="103.74" x2="109.761" y2="103.74" gradientTransform="matrix(1, 0, 0, -1, 0, 201.89)" gradientUnits="userSpaceOnUse"><stop offset="0" stop-color="#0ea660"/><stop offset="1" stop-color="#003b1e"/></linearGradient></defs><title>ICAM3</title><path id="ICAM3" class="cls-1" d="M100.392,174.5c-3.3-1.4-4.9-3-5.1-4.9-.3-3.7,4.9-7.3,10.7-11.1,1.2-.7,1.8-1.4,1.8-2.2.2-1.6-2-3.8-4.2-6-2.9-2.9-6.2-6.2-6.2-10v-51a7.216,7.216,0,0,1-3.2.8,7.6,7.6,0,1,1,0-15.2,6.9,6.9,0,0,1,3.2.8V72.2a7.216,7.216,0,0,1-3.2.8,7.6,7.6,0,1,1,0-15.2,6.9,6.9,0,0,1,3.2.8V55.1a7.216,7.216,0,0,1-3.2.8,7.6,7.6,0,1,1,0-15.2,6.9,6.9,0,0,1,3.2.8V38a7.216,7.216,0,0,1-3.2.8,7.6,7.6,0,0,1,0-15.2,6.9,6.9,0,0,1,3.2.8V21.8h1.9v4.4l-1.6.8a5.426,5.426,0,0,0-3.6-1.4,5.7,5.7,0,0,0-5.7,5.7,5.6,5.6,0,0,0,9.3,4.3l1.6.4v7.1l-1.6.8a5.426,5.426,0,0,0-3.6-1.4,5.7,5.7,0,0,0-5.7,5.7,5.6,5.6,0,0,0,9.3,4.3l1.6.8v7.1l-1.6.8a5.426,5.426,0,0,0-3.6-1.4,5.7,5.7,0,0,0-5.7,5.7,5.6,5.6,0,0,0,9.3,4.3l1.6.8v7.1l-1.6.8a5.426,5.426,0,0,0-3.6-1.4,5.7,5.7,0,0,0-5.7,5.7,5.6,5.6,0,0,0,9.3,4.3l1.6.8v52.7c0,3.1,3,6,5.6,8.6s5.1,5.1,4.7,7.6q-.15,2.1-2.7,3.6c-3.5,2.2-10.1,6.4-9.8,9.2.1,1.5,2.2,2.6,4,3.3Z" transform="translate(-86.592 -21.8)"/></svg>