<svg id="Layer_1" data-name="Layer 1" xmlns="http://www.w3.org/2000/svg" xmlns:xlink="http://www.w3.org/1999/xlink" viewBox="0 0 15.586 159.416"><defs><style>.cls-1{fill:url(#linear-gradient);}.cls-2{fill:url(#radial-gradient);}</style><linearGradient id="linear-gradient" x1="71.89" y1="332.744" x2="84.006" y2="332.744" gradientTransform="translate(20 -198.61)" gradientUnits="userSpaceOnUse"><stop offset="0" stop-color="#c4418b"/><stop offset="0.101" stop-color="#e267ac"/><stop offset="0.189" stop-color="#f780c3"/><stop offset="0.241" stop-color="#ff8acc"/><stop offset="0.446" stop-color="#db5da4"/><stop offset="0.596" stop-color="#c4418b"/><stop offset="1" stop-color="#4d0a30"/></linearGradient><radialGradient id="radial-gradient" cx="-366.206" cy="601.805" r="12.18" gradientTransform="translate(-506.067 -1493.431) rotate(-90) scale(4.265 1)" gradientUnits="userSpaceOnUse"><stop offset="0" stop-color="#ff8acc"/><stop offset="0.041" stop-color="#f57ec1"/><stop offset="0.175" stop-color="#db5da4"/><stop offset="0.285" stop-color="#ca4892"/><stop offset="0.359" stop-color="#c4418b"/><stop offset="1" stop-color="#4d0a30"/></radialGradient></defs><title>NLGN</title><g id="NLGN"><path class="cls-1" d="M98.011,178.885a6,6,0,0,1-6-6l3-77.5c0-3.313-.314-6,3-6s3,2.687,3,6l3,77.5A6,6,0,0,1,98.011,178.885Z" transform="translate(-90.207 -19.468)"/><path class="cls-2" d="M102.854,61.112c0,22.085,5.8,39.984.626,39.984H92.543c-5.177,0,.626-17.9.626-39.984s-6.226-35.242-.626-39.984c2.613-2.213,8.324-2.213,10.937,0C109.028,25.826,102.854,39.027,102.854,61.112Z" transform="translate(-90.207 -19.468)"/></g></svg>