<svg id="Layer_1" data-name="Layer 1" xmlns="http://www.w3.org/2000/svg" xmlns:xlink="http://www.w3.org/1999/xlink" viewBox="0 0 57.311 22.901"><defs><style>.cls-1{fill:url(#linear-gradient);}.cls-2{fill:#3f17d1;}.cls-3{font-size:12px;fill:#fff;font-family:Arial-BoldMT, Arial;font-weight:700;}.cls-4{letter-spacing:-0.074em;}</style><linearGradient id="linear-gradient" x1="28.899" y1="1.293" x2="28.899" y2="21.293" gradientUnits="userSpaceOnUse"><stop offset="0" stop-color="#3f17d1"/><stop offset="1" stop-color="#a327aa"/></linearGradient></defs><title>MBOAT4</title><g id="MBOAT4"><rect class="cls-1" x="1.399" y="1.293" width="55" height="20" rx="10" ry="10"/><path class="cls-2" d="M114.573,112.663c-5.532-.009-11.065.43-16.6.837-5.532.458-11.065.546-16.6.613-.711.009-1.34.016-2.117-.01a11.289,11.289,0,0,1-2.382-.319,11.129,11.129,0,0,1-4.294-2.079,11.4,11.4,0,0,1-4.379-8.161,11.1,11.1,0,0,1,3.111-8.571,10.876,10.876,0,0,1,8.255-3.28c5.532.282,11.065.437,16.6.335,5.532-.084,11.065-.574,16.6-.762.707-.013,1.348-.052,2.109-.043a9.729,9.729,0,0,1,2.329.278,10.746,10.746,0,0,1,4.211,2.012,10.6,10.6,0,0,1,4.063,8.014,10.785,10.785,0,0,1-3.256,7.976A10.975,10.975,0,0,1,114.573,112.663Zm0-.3a9.148,9.148,0,0,0,9-10.666,9.543,9.543,0,0,0-6.994-7.6,10.082,10.082,0,0,0-1.775-.264c-.621-.046-1.363-.046-2.039-.071-5.532-.188-11.065-.678-16.6-.762-5.532-.1-11.065.053-16.6.335A9.111,9.111,0,0,0,73.1,96.6a8.846,8.846,0,0,0-2.064,6.69,8.562,8.562,0,0,0,3.456,5.925,8.925,8.925,0,0,0,3.14,1.462,8.085,8.085,0,0,0,1.721.223c.6.028,1.359,0,2.031.017,5.532.066,11.065.155,16.6.613C103.508,111.933,109.041,112.372,114.573,112.363Z" transform="translate(-68.174 -91.22)"/><text class="cls-3" transform="translate(4.012 14.182)">MBO<tspan class="cls-4" x="27.996" y="0">A</tspan><tspan x="35.771" y="0">T4</tspan></text></g></svg>