<svg id="Layer_1" data-name="Layer 1" xmlns="http://www.w3.org/2000/svg" xmlns:xlink="http://www.w3.org/1999/xlink" viewBox="0 0 43.579 56.739"><defs><style>.cls-1{fill:url(#linear-gradient);}.cls-2{fill:#d7b532;}</style><linearGradient id="linear-gradient" x1="1059.756" y1="-115.976" x2="1059.756" y2="-165.767" gradientTransform="matrix(1, 0.012, 0.012, -1, -958.163, -53.293)" gradientUnits="userSpaceOnUse"><stop offset="0" stop-color="#8a8fd2"/><stop offset="0.031" stop-color="#8186cd"/><stop offset="0.17" stop-color="#5b62ba"/><stop offset="0.299" stop-color="#4048ac"/><stop offset="0.413" stop-color="#3038a4"/><stop offset="0.5" stop-color="#2a32a1"/><stop offset="0.587" stop-color="#3038a4"/><stop offset="0.701" stop-color="#4048ac"/><stop offset="0.83" stop-color="#5b62ba"/><stop offset="0.969" stop-color="#8186cd"/><stop offset="1" stop-color="#8a8fd2"/></linearGradient></defs><title>Uniporter_02</title><g id="Uniporter"><path class="cls-1" d="M80.481,127.921c14.423.17,14.754-27.972,14.754-27.972S95.566,71.8,81.143,71.635c0,0,12.27,3.344,19.014,3.423s19.09-2.975,19.09-2.975c-14.423-.17-14.754,27.976-14.754,27.976s-.331,28.141,14.092,28.311c0,0-12.235-3.344-19.014-3.423S80.481,127.921,80.481,127.921Z" transform="translate(-78.21 -71.631)"/><path class="cls-2" d="M107.781,100.093c-.257,21.86,9.522,19.131,10.911,19.147s2.3,1.517,2.26,5.046c-.033,2.819-.555,4.1-2.367,4.08-14.423-.17-14.092-28.311-14.092-28.311s.331-28.145,14.754-27.976c1.81.021,2.575,1.385,2.542,4.134s-1.261,5.012-2.65,5S108.038,78.233,107.781,100.093Z" transform="translate(-78.21 -71.631)"/><path class="cls-2" d="M91.948,99.907c-.257,21.86-9.97,18.9-11.358,18.885s-2.336,1.462-2.378,4.991c-.033,2.819.459,4.113,2.27,4.134,14.423.17,14.754-27.972,14.754-27.972S95.567,71.8,81.144,71.631c-1.81-.021-2.606,1.324-2.639,4.073s1.143,5.04,2.531,5.056S92.2,78.047,91.948,99.907Z" transform="translate(-78.21 -71.631)"/></g></svg>