<svg id="Layer_1" data-name="Layer 1" xmlns="http://www.w3.org/2000/svg" xmlns:xlink="http://www.w3.org/1999/xlink" viewBox="0 0 51.437 22.769"><defs><style>.cls-1{fill:url(#linear-gradient);}.cls-2{fill:#003004;}.cls-3{font-size:12px;fill:#fff;font-family:Arial-BoldMT, Arial;font-weight:700;}.cls-4{letter-spacing:-0.074em;}</style><linearGradient id="linear-gradient" x1="25.926" y1="21.194" x2="25.926" y2="1.194" gradientUnits="userSpaceOnUse"><stop offset="0" stop-color="#2ea55f"/><stop offset="1" stop-color="#003004"/></linearGradient></defs><title>NPAS2</title><g id="NPAS2"><rect class="cls-1" x="1.426" y="1.194" width="49" height="20" rx="10" ry="10"/><path class="cls-2" d="M114.5,110.15c-5.032-.009-10.065.43-15.1.837-2.516.205-5.032.388-7.548.457-1.258.057-2.516.074-3.774.093-1.289,0-2.416.1-3.962-.027a11.357,11.357,0,0,1-10-12.191,11.073,11.073,0,0,1,3.717-7.459A10.862,10.862,0,0,1,85.5,89.179c5.032.282,10.065.437,15.1.335,2.516-.059,5.032-.178,7.548-.341l3.774-.235a33.868,33.868,0,0,1,3.92-.1,10.663,10.663,0,0,1,7.345,3.908,10.465,10.465,0,0,1,2.239,7.907,10.833,10.833,0,0,1-3.818,6.89A11.171,11.171,0,0,1,114.5,110.15Zm0-.3a9,9,0,0,0,6.578-2.867,9.1,9.1,0,0,0,2.438-6.444,9.58,9.58,0,0,0-7.974-9.221c-1.022-.159-2.391-.171-3.622-.255l-3.774-.235c-2.516-.164-5.032-.282-7.548-.341-5.032-.1-10.065.053-15.1.335a9.158,9.158,0,0,0-6.016,2.791,8.908,8.908,0,0,0-2.539,5.876,8.655,8.655,0,0,0,7.555,8.845c.959.127,2.355.1,3.58.129,1.258.019,2.516.036,3.774.093,2.516.069,5.032.252,7.548.457C104.435,109.42,109.468,109.859,114.5,109.85Z" transform="translate(-74.074 -88.806)"/><text class="cls-3" transform="translate(6.364 14.049)">N<tspan class="cls-4" x="8.666" y="0">P</tspan><tspan x="15.779" y="0">AS2</tspan></text></g></svg>