<svg id="Layer_1" data-name="Layer 1" xmlns="http://www.w3.org/2000/svg" xmlns:xlink="http://www.w3.org/1999/xlink" viewBox="0 0 82.699 97.551"><defs><style>.cls-1{fill:#a17897;}.cls-2{fill:#631e51;}.cls-3{fill:#a99e77;}.cls-4{fill:#63541e;}.cls-5{fill:#77a9a7;}.cls-6{fill:#1e5654;}.cls-7{fill:url(#linear-gradient);}.cls-8{fill:url(#linear-gradient-2);}.cls-9{fill:url(#linear-gradient-3);}.cls-10{fill:url(#linear-gradient-4);}.cls-11{fill:url(#linear-gradient-5);}.cls-12{fill:url(#linear-gradient-6);}.cls-13{fill:url(#linear-gradient-7);}.cls-14{fill:url(#linear-gradient-8);}.cls-15{fill:url(#linear-gradient-9);}.cls-16{fill:url(#linear-gradient-10);}.cls-17{fill:url(#linear-gradient-11);}.cls-18{fill:url(#linear-gradient-12);}.cls-19{fill:url(#linear-gradient-13);}.cls-20{fill:url(#linear-gradient-14);}.cls-21{fill:url(#linear-gradient-15);}.cls-22{fill:url(#linear-gradient-16);}.cls-23{fill:url(#linear-gradient-17);}.cls-24{fill:url(#linear-gradient-18);}.cls-25{fill:url(#linear-gradient-19);}.cls-26{fill:url(#linear-gradient-20);}.cls-27{fill:url(#linear-gradient-21);}</style><linearGradient id="linear-gradient" x1="93.452" y1="124.741" x2="116.001" y2="124.741" gradientUnits="userSpaceOnUse"><stop offset="0" stop-color="#d16a00"/><stop offset="1" stop-color="#ed9942"/></linearGradient><linearGradient id="linear-gradient-2" x1="121.7" y1="115.037" x2="136.55" y2="115.037" gradientUnits="userSpaceOnUse"><stop offset="0" stop-color="#ed9942"/><stop offset="1" stop-color="#d16a00"/></linearGradient><linearGradient id="linear-gradient-3" x1="101.197" y1="111.517" x2="108.255" y2="111.517" xlink:href="#linear-gradient-2"/><linearGradient id="linear-gradient-4" x1="89.335" y1="93.52" x2="100.448" y2="93.52" gradientUnits="userSpaceOnUse"><stop offset="0" stop-color="#5000d1"/><stop offset="0.019" stop-color="#5e17d1"/><stop offset="0.05" stop-color="#7237d1"/><stop offset="0.084" stop-color="#8251d1"/><stop offset="0.122" stop-color="#8f66d1"/><stop offset="0.164" stop-color="#9774d1"/><stop offset="0.215" stop-color="#9c7cd1"/><stop offset="0.3" stop-color="#9e7fd1"/><stop offset="0.398" stop-color="#9977d1"/><stop offset="0.546" stop-color="#8d63d1"/><stop offset="0.726" stop-color="#7841d1"/><stop offset="0.929" stop-color="#5b12d1"/><stop offset="1" stop-color="#5000d1"/></linearGradient><linearGradient id="linear-gradient-5" x1="32.709" y1="18.434" x2="41.163" y2="13.486" gradientUnits="userSpaceOnUse"><stop offset="0" stop-color="#9d77db"/><stop offset="1" stop-color="#4300af"/></linearGradient><linearGradient id="linear-gradient-6" x1="130.432" y1="93.52" x2="141.545" y2="93.52" xlink:href="#linear-gradient-4"/><linearGradient id="linear-gradient-7" x1="73.806" y1="18.434" x2="82.26" y2="13.486" xlink:href="#linear-gradient-5"/><linearGradient id="linear-gradient-8" x1="102.034" y1="84.532" x2="113.147" y2="84.532" xlink:href="#linear-gradient-4"/><linearGradient id="linear-gradient-9" x1="45.408" y1="9.446" x2="53.862" y2="4.497" xlink:href="#linear-gradient-5"/><linearGradient id="linear-gradient-10" x1="117.733" y1="84.532" x2="128.846" y2="84.532" xlink:href="#linear-gradient-4"/><linearGradient id="linear-gradient-11" x1="61.107" y1="9.446" x2="69.561" y2="4.497" xlink:href="#linear-gradient-5"/><linearGradient id="linear-gradient-12" x1="109.883" y1="102.509" x2="120.997" y2="102.509" xlink:href="#linear-gradient-4"/><linearGradient id="linear-gradient-13" x1="53.257" y1="27.423" x2="61.712" y2="22.474" xlink:href="#linear-gradient-5"/><linearGradient id="linear-gradient-14" x1="106.151" y1="55.565" x2="123.851" y2="55.565" xlink:href="#linear-gradient-2"/><linearGradient id="linear-gradient-15" x1="85.603" y1="64.177" x2="95.452" y2="64.177" xlink:href="#linear-gradient-2"/><linearGradient id="linear-gradient-16" x1="114.001" y1="69.884" x2="136.55" y2="69.884" xlink:href="#linear-gradient"/><linearGradient id="linear-gradient-17" x1="74.334" y1="98.521" x2="85.447" y2="98.521" gradientUnits="userSpaceOnUse"><stop offset="0" stop-color="#0050d1"/><stop offset="0.019" stop-color="#175ed1"/><stop offset="0.05" stop-color="#3772d1"/><stop offset="0.084" stop-color="#5182d1"/><stop offset="0.122" stop-color="#668fd1"/><stop offset="0.164" stop-color="#7497d1"/><stop offset="0.215" stop-color="#7c9cd1"/><stop offset="0.3" stop-color="#7f9ed1"/><stop offset="0.398" stop-color="#7799d1"/><stop offset="0.546" stop-color="#638dd1"/><stop offset="0.726" stop-color="#4178d1"/><stop offset="0.929" stop-color="#125bd1"/><stop offset="1" stop-color="#0050d1"/></linearGradient><linearGradient id="linear-gradient-18" x1="17.708" y1="28.435" x2="26.162" y2="23.487" gradientUnits="userSpaceOnUse"><stop offset="0" stop-color="#779ddb"/><stop offset="1" stop-color="#0043af"/></linearGradient><linearGradient id="linear-gradient-19" x1="59.333" y1="98.521" x2="70.446" y2="98.521" xlink:href="#linear-gradient-17"/><linearGradient id="linear-gradient-20" x1="2.707" y1="28.435" x2="11.161" y2="23.487" xlink:href="#linear-gradient-18"/><linearGradient id="linear-gradient-21" x1="63.464" y1="74.301" x2="80.452" y2="74.301" xlink:href="#linear-gradient-2"/></defs><title>NADPH oxidase complex</title><g id="NADPH_oxidase_complex" data-name="NADPH oxidase complex"><g id="p67"><rect class="cls-1" x="49.837" y="77.037" width="25.001" height="20" rx="10" ry="10"/><path class="cls-2" d="M122.688,148.669a43.523,43.523,0,0,0-4.551.259,11.835,11.835,0,0,1-4.835-.327,10.052,10.052,0,0,1-4.33-2.661,10.673,10.673,0,0,1-2.516-4.553,10.837,10.837,0,0,1-.094-5.223,11.365,11.365,0,0,1,2.316-4.644,10.493,10.493,0,0,1,4.087-3.056,10.618,10.618,0,0,1,4.923-.767c1.517.13,3.034.264,4.551.312a13.012,13.012,0,0,1,4.63.9,12.616,12.616,0,0,1,4.059,2.6,10.086,10.086,0,0,1,2.65,4.235,9.707,9.707,0,0,1,.2,5.088,9.506,9.506,0,0,1-2.448,4.408,10.961,10.961,0,0,1-4.083,2.6A13.638,13.638,0,0,1,122.688,148.669Zm0-.3a7.851,7.851,0,0,0,4.223-1.222,8.569,8.569,0,0,0,2.913-3.086,11.461,11.461,0,0,0,1.333-7.706,9.673,9.673,0,0,0-1.49-3.777,8.293,8.293,0,0,0-3.185-2.783,8.53,8.53,0,0,0-4.244-.766c-1.517.048-3.034.182-4.551.312a9.534,9.534,0,0,0-3.862,1.286,9.157,9.157,0,0,0-2.909,2.635,8.953,8.953,0,0,0-1.485,3.538,9.689,9.689,0,0,0,.13,3.8,10.239,10.239,0,0,0,4.538,6.177,8.911,8.911,0,0,0,4.039,1.336A43.518,43.518,0,0,0,122.688,148.369Z" transform="translate(-57.85 -51.481)"/></g><g id="p40"><rect class="cls-3" x="23.765" y="77.037" width="25.001" height="20" rx="10" ry="10"/><path class="cls-4" d="M96.616,148.669a43.523,43.523,0,0,0-4.551.259,11.835,11.835,0,0,1-4.835-.327,10.052,10.052,0,0,1-4.33-2.661,10.673,10.673,0,0,1-2.516-4.553,10.837,10.837,0,0,1-.094-5.223,11.365,11.365,0,0,1,2.316-4.644,10.493,10.493,0,0,1,4.087-3.056,10.618,10.618,0,0,1,4.923-.767c1.517.13,3.034.264,4.551.312a13.012,13.012,0,0,1,4.63.9,12.616,12.616,0,0,1,4.059,2.6,10.086,10.086,0,0,1,2.65,4.235,9.707,9.707,0,0,1,.2,5.088,9.506,9.506,0,0,1-2.448,4.408,10.961,10.961,0,0,1-4.083,2.6A13.638,13.638,0,0,1,96.616,148.669Zm0-.3a7.851,7.851,0,0,0,4.223-1.222,8.569,8.569,0,0,0,2.913-3.086,11.461,11.461,0,0,0,1.333-7.706,9.673,9.673,0,0,0-1.49-3.777,8.293,8.293,0,0,0-3.185-2.783,8.53,8.53,0,0,0-4.244-.766c-1.517.048-3.034.182-4.551.312a9.534,9.534,0,0,0-3.862,1.286,9.157,9.157,0,0,0-2.909,2.635,8.953,8.953,0,0,0-1.485,3.538,9.689,9.689,0,0,0,.13,3.8,10.239,10.239,0,0,0,4.538,6.177,8.911,8.911,0,0,0,4.039,1.336A43.518,43.518,0,0,0,96.616,148.369Z" transform="translate(-57.85 -51.481)"/></g><g id="p47"><rect class="cls-5" x="1.6" y="66.911" width="25.001" height="20" rx="10" ry="10"/><path class="cls-6" d="M74.452,138.542a43.518,43.518,0,0,0-4.551.259,11.835,11.835,0,0,1-4.835-.327,10.052,10.052,0,0,1-4.33-2.661,10.673,10.673,0,0,1-2.516-4.553,10.837,10.837,0,0,1-.094-5.223,11.365,11.365,0,0,1,2.316-4.644,10.493,10.493,0,0,1,4.087-3.056,10.617,10.617,0,0,1,4.923-.767c1.517.13,3.034.264,4.551.312a13.012,13.012,0,0,1,4.63.9,12.616,12.616,0,0,1,4.059,2.6,10.086,10.086,0,0,1,2.65,4.235,9.707,9.707,0,0,1,.2,5.088,9.506,9.506,0,0,1-2.448,4.408,10.961,10.961,0,0,1-4.083,2.6A13.638,13.638,0,0,1,74.452,138.542Zm0-.3a7.851,7.851,0,0,0,4.223-1.222,8.569,8.569,0,0,0,2.913-3.086,11.461,11.461,0,0,0,1.333-7.706,9.673,9.673,0,0,0-1.49-3.777,8.293,8.293,0,0,0-3.185-2.783A8.529,8.529,0,0,0,74,118.9c-1.517.048-3.034.182-4.551.312a9.534,9.534,0,0,0-3.862,1.286,9.157,9.157,0,0,0-2.909,2.635,8.954,8.954,0,0,0-1.485,3.538,9.689,9.689,0,0,0,.13,3.8,10.239,10.239,0,0,0,4.538,6.177,8.911,8.911,0,0,0,4.039,1.336A43.523,43.523,0,0,0,74.452,138.242Z" transform="translate(-57.85 -51.481)"/></g><g id="NOX"><g id="DOWN"><path class="cls-7" d="M110.349,132.482c-6.365,0-16.9-6.77-16.9-14.483a1,1,0,0,1,2,0c0,6.315,9.426,12.483,14.9,12.483a3.96,3.96,0,0,0,2.679-.8,3.416,3.416,0,0,0,.974-2.69,1,1,0,1,1,2,0,5.308,5.308,0,0,1-1.653,4.192A5.861,5.861,0,0,1,110.349,132.482Z" transform="translate(-57.85 -51.481)"/><path class="cls-8" d="M133.091,122.151c-2.129,0-4.937-1.616-7.33-4.217-2.581-2.8-4.061-6.09-4.061-9.011a1,1,0,0,1,2,0c0,5.279,6.126,11.228,9.391,11.228a1.168,1.168,0,0,0,1-.4,3.005,3.005,0,0,0,.457-1.857,1,1,0,0,1,2,0,4.82,4.82,0,0,1-.913,3.128A3.173,3.173,0,0,1,133.091,122.151Z" transform="translate(-57.85 -51.481)"/><path class="cls-9" d="M102.2,115.6a1,1,0,0,1,0-2c3.071,0,4.058-1.256,4.058-5.167a1,1,0,0,1,2,0C108.255,111.977,107.535,115.6,102.2,115.6Z" transform="translate(-57.85 -51.481)"/></g><g id="transmembrane_units" data-name="transmembrane units"><path class="cls-10" d="M89.452,67.637v50c0,.976,2.239,1.767,5,1.767s5-.791,5-1.767v-50Z" transform="translate(-57.85 -51.481)"/><ellipse class="cls-11" cx="36.602" cy="16.156" rx="5" ry="1.767"/><path class="cls-12" d="M130.549,67.637v50c0,.976,2.239,1.767,5,1.767s5-.791,5-1.767v-50Z" transform="translate(-57.85 -51.481)"/><ellipse class="cls-13" cx="77.699" cy="16.156" rx="5" ry="1.767"/><path class="cls-14" d="M102.151,58.648v50c0,.976,2.239,1.767,5,1.767s5-.791,5-1.767v-50Z" transform="translate(-57.85 -51.481)"/><ellipse class="cls-15" cx="49.301" cy="7.167" rx="5" ry="1.767"/><path class="cls-16" d="M117.851,58.648v50c0,.976,2.239,1.767,5,1.767s5-.791,5-1.767v-50Z" transform="translate(-57.85 -51.481)"/><ellipse class="cls-17" cx="65" cy="7.167" rx="5" ry="1.767"/><path class="cls-18" d="M110,76.625v50c0,.976,2.239,1.767,5,1.767s5-.791,5-1.767v-50Z" transform="translate(-57.85 -51.481)"/><ellipse class="cls-19" cx="57.151" cy="25.144" rx="5" ry="1.767"/></g><g id="UP"><path class="cls-20" d="M122.851,59.648a1,1,0,0,1-1-1c0-3.55-3.551-5.167-6.85-5.167s-6.85,1.617-6.85,5.167a1,1,0,0,1-2,0c0-4.705,4.452-7.167,8.85-7.167s8.85,2.462,8.85,7.167A1,1,0,0,1,122.851,59.648Z" transform="translate(-57.85 -51.481)"/><path class="cls-21" d="M94.452,68.261a1,1,0,0,1-1-1,4.435,4.435,0,0,0-2.025-3.806,8.6,8.6,0,0,0-4.821-1.361h0a1,1,0,0,1,0-2h0a10.481,10.481,0,0,1,5.966,1.722,6.415,6.415,0,0,1,2.881,5.445A1,1,0,0,1,94.452,68.261Z" transform="translate(-57.85 -51.481)"/><path class="cls-22" d="M115,77.626a1,1,0,0,1-1-1c0-7.715,10.531-14.484,16.9-14.484a5.865,5.865,0,0,1,4,1.3,5.306,5.306,0,0,1,1.653,4.192,1,1,0,0,1-2,0,3.418,3.418,0,0,0-.974-2.69,3.957,3.957,0,0,0-2.678-.8c-5.472,0-14.9,6.169-14.9,12.484A1,1,0,0,1,115,77.626Z" transform="translate(-57.85 -51.481)"/></g></g><g id="p22"><path class="cls-23" d="M74.452,77.638v40c0,.976,2.239,1.767,5,1.767s5-.791,5-1.767v-40Z" transform="translate(-57.85 -51.481)"/><ellipse class="cls-24" cx="21.601" cy="26.156" rx="5" ry="1.767"/><path class="cls-25" d="M59.451,77.638v40c0,.976,2.239,1.767,5,1.767s5-.791,5-1.767v-40Z" transform="translate(-57.85 -51.481)"/><ellipse class="cls-26" cx="6.6" cy="26.156" rx="5" ry="1.767"/><path class="cls-27" d="M79.452,78.384a1,1,0,0,1-1-1c0-3.55-3.2-5.167-6.494-5.167s-6.493,1.617-6.493,5.167a1,1,0,1,1-2,0c0-4.705,4.1-7.167,8.493-7.167s8.494,2.462,8.494,7.167A1,1,0,0,1,79.452,78.384Z" transform="translate(-57.85 -51.481)"/></g></g></svg>