<svg id="Layer_1" data-name="Layer 1" xmlns="http://www.w3.org/2000/svg" xmlns:xlink="http://www.w3.org/1999/xlink" viewBox="0 0 29.686 156.545"><defs><style>.cls-1{fill:url(#linear-gradient);}.cls-2{fill:url(#linear-gradient-2);}.cls-3{fill:url(#radial-gradient);}.cls-4{fill:url(#radial-gradient-2);}.cls-5{fill:url(#radial-gradient-3);}.cls-6{fill:url(#radial-gradient-4);}.cls-7{fill:url(#radial-gradient-5);}.cls-8{fill:url(#radial-gradient-6);}.cls-9{fill:url(#radial-gradient-7);}</style><linearGradient id="linear-gradient" x1="92.559" y1="131.568" x2="104.675" y2="131.568" gradientUnits="userSpaceOnUse"><stop offset="0" stop-color="#c45aaf"/><stop offset="0.033" stop-color="#cf6bbb"/><stop offset="0.125" stop-color="#e995d8"/><stop offset="0.198" stop-color="#f9aeea"/><stop offset="0.241" stop-color="#ffb8f1"/><stop offset="0.477" stop-color="#d676c3"/><stop offset="0.596" stop-color="#c45aaf"/><stop offset="1" stop-color="#4d0a40"/></linearGradient><linearGradient id="linear-gradient-2" x1="6.843" y1="38.772" x2="22.843" y2="38.772" xlink:href="#linear-gradient"/><radialGradient id="radial-gradient" cx="10.914" cy="619.952" r="17.715" gradientTransform="translate(-526.068 28.152) rotate(-90) scale(0.48 1)" gradientUnits="userSpaceOnUse"><stop offset="0" stop-color="#ffb8f1"/><stop offset="0.092" stop-color="#ea97da"/><stop offset="0.204" stop-color="#d576c3"/><stop offset="0.297" stop-color="#c961b4"/><stop offset="0.359" stop-color="#c45aaf"/><stop offset="1" stop-color="#4d0a40"/></radialGradient><radialGradient id="radial-gradient-2" cx="-12.884" cy="619.952" r="17.715" xlink:href="#radial-gradient"/><radialGradient id="radial-gradient-3" cx="-36.682" cy="619.952" r="17.715" xlink:href="#radial-gradient"/><radialGradient id="radial-gradient-4" cx="-60.48" cy="619.952" r="17.715" xlink:href="#radial-gradient"/><radialGradient id="radial-gradient-5" cx="-84.278" cy="619.952" r="17.715" xlink:href="#radial-gradient"/><radialGradient id="radial-gradient-6" cx="-108.076" cy="619.952" r="17.715" xlink:href="#radial-gradient"/><radialGradient id="radial-gradient-7" cx="-131.875" cy="619.952" r="17.715" xlink:href="#radial-gradient"/></defs><title>SALM1</title><g id="SALM1"><path class="cls-1" d="M98.679,176.319a6,6,0,0,1-6-6v-77.5a6,6,0,0,1,12,0v77.5A6,6,0,0,1,98.679,176.319Z" transform="translate(-83.837 -19.773)"/><rect class="cls-2" x="6.843" y="4.5" width="16" height="68.544"/><path class="cls-3" d="M113.522,24.273c0,2.486-4.2,4.5-9.374,4.5H93.211c-5.177,0-9.374-2.014-9.374-4.5s4.2-4.5,9.374-4.5h10.937C109.325,19.773,113.522,21.788,113.522,24.273Z" transform="translate(-83.837 -19.773)"/><path class="cls-4" d="M113.522,35.7c0,2.486-4.2,4.5-9.374,4.5H93.211c-5.177,0-9.374-2.014-9.374-4.5s4.2-4.5,9.374-4.5h10.937C109.325,31.2,113.522,33.212,113.522,35.7Z" transform="translate(-83.837 -19.773)"/><path class="cls-5" d="M113.522,47.121c0,2.486-4.2,4.5-9.374,4.5H93.211c-5.177,0-9.374-2.014-9.374-4.5s4.2-4.5,9.374-4.5h10.937C109.325,42.621,113.522,44.636,113.522,47.121Z" transform="translate(-83.837 -19.773)"/><path class="cls-6" d="M113.522,58.545c0,2.486-4.2,4.5-9.374,4.5H93.211c-5.177,0-9.374-2.014-9.374-4.5s4.2-4.5,9.374-4.5h10.937C109.325,54.045,113.522,56.06,113.522,58.545Z" transform="translate(-83.837 -19.773)"/><path class="cls-7" d="M113.522,69.969c0,2.486-4.2,4.5-9.374,4.5H93.211c-5.177,0-9.374-2.014-9.374-4.5s4.2-4.5,9.374-4.5h10.937C109.325,65.469,113.522,67.484,113.522,69.969Z" transform="translate(-83.837 -19.773)"/><path class="cls-8" d="M113.522,81.393c0,2.486-4.2,4.5-9.374,4.5H93.211c-5.177,0-9.374-2.014-9.374-4.5s4.2-4.5,9.374-4.5h10.937C109.325,76.893,113.522,78.907,113.522,81.393Z" transform="translate(-83.837 -19.773)"/><path class="cls-9" d="M113.522,92.817c0,2.486-4.2,4.5-9.374,4.5H93.211c-5.177,0-9.374-2.014-9.374-4.5s4.2-4.5,9.374-4.5h10.937C109.325,88.317,113.522,90.331,113.522,92.817Z" transform="translate(-83.837 -19.773)"/></g></svg>