<svg id="Layer_1" data-name="Layer 1" xmlns="http://www.w3.org/2000/svg" xmlns:xlink="http://www.w3.org/1999/xlink" viewBox="0 0 43.208 111.14"><defs><style>.cls-1{fill:url(#linear-gradient);}.cls-2{fill:url(#radial-gradient);}.cls-3{fill:url(#radial-gradient-2);}.cls-4{fill:url(#linear-gradient-2);}.cls-5{fill:url(#radial-gradient-3);}.cls-6{fill:url(#radial-gradient-4);}</style><linearGradient id="linear-gradient" x1="239.662" y1="368.343" x2="249.112" y2="368.343" gradientTransform="translate(-151.852 -247.676)" gradientUnits="userSpaceOnUse"><stop offset="0" stop-color="#65d13b"/><stop offset="0.091" stop-color="#81e65a"/><stop offset="0.185" stop-color="#99f873"/><stop offset="0.241" stop-color="#a2ff7d"/><stop offset="0.432" stop-color="#7fe557"/><stop offset="0.596" stop-color="#65d13b"/><stop offset="1" stop-color="#1c5a07"/></linearGradient><radialGradient id="radial-gradient" cx="-14.821" cy="575.508" r="10.093" gradientTransform="matrix(0.035, 3.654, 1.79, -0.23, -941.556, 251.733)" gradientUnits="userSpaceOnUse"><stop offset="0" stop-color="#a2ff7d"/><stop offset="0.018" stop-color="#9efc78"/><stop offset="0.161" stop-color="#7fe457"/><stop offset="0.28" stop-color="#6cd642"/><stop offset="0.359" stop-color="#65d13b"/><stop offset="1" stop-color="#1c5a07"/></radialGradient><radialGradient id="radial-gradient-2" cx="259.745" cy="767.143" r="13.817" gradientTransform="matrix(0, 0.609, 1, 0, -677.921, -110.283)" xlink:href="#radial-gradient"/><linearGradient id="linear-gradient-2" x1="254.496" y1="368.343" x2="263.946" y2="368.343" xlink:href="#linear-gradient"/><radialGradient id="radial-gradient-3" cx="-14.821" cy="590.341" r="10.093" gradientTransform="matrix(0.035, 3.654, 1.79, -0.23, -953.275, 255.147)" xlink:href="#radial-gradient"/><radialGradient id="radial-gradient-4" cx="259.745" cy="781.976" r="13.817" gradientTransform="matrix(0, 0.609, 1, 0, -677.921, -110.283)" xlink:href="#radial-gradient"/></defs><title>NTRK2</title><g id="NTRK2"><g id="NTRK3"><path class="cls-1" d="M92.583,155.57a4.68,4.68,0,0,1-4.68-4.68V90.442a4.68,4.68,0,1,1,9.359,0V150.89A4.68,4.68,0,0,1,92.583,155.57Z" transform="translate(-78.396 -44.43)"/><path class="cls-2" d="M104.16,80.071c7.55-15.276-3.274-26.731-7.312-26.731h-8.53c-4.038,0-14.861,11.454-7.312,26.731,6.719,13.595,3.274,15.177,7.312,15.177h8.53C100.886,95.247,96.61,95.347,104.16,80.071Z" transform="translate(-78.396 -44.43)"/><path class="cls-3" d="M104.16,48.885c0-2.461-3.274-4.455-7.312-4.455h-8.53c-4.038,0-7.312,1.994-7.312,4.455s3.274,4.455,7.312,4.455h8.53C100.886,53.34,104.16,51.346,104.16,48.885Z" transform="translate(-78.396 -44.43)"/></g><g id="NTRK3-2" data-name="NTRK3"><path class="cls-4" d="M107.417,155.57a4.68,4.68,0,0,1-4.68-4.68V90.442a4.68,4.68,0,0,1,9.359,0V150.89A4.68,4.68,0,0,1,107.417,155.57Z" transform="translate(-78.396 -44.43)"/><path class="cls-5" d="M118.994,80.071c7.55-15.276-3.274-26.731-7.312-26.731h-8.53c-4.038,0-14.861,11.454-7.312,26.731,6.719,13.595,3.274,15.177,7.312,15.177h8.53C115.72,95.247,111.444,95.347,118.994,80.071Z" transform="translate(-78.396 -44.43)"/><path class="cls-6" d="M118.993,48.885c0-2.461-3.274-4.455-7.312-4.455h-8.53c-4.038,0-7.312,1.994-7.312,4.455s3.274,4.455,7.312,4.455h8.53C115.72,53.34,118.993,51.346,118.993,48.885Z" transform="translate(-78.396 -44.43)"/></g></g></svg>