<svg id="Layer_1" data-name="Layer 1" xmlns="http://www.w3.org/2000/svg" xmlns:xlink="http://www.w3.org/1999/xlink" viewBox="0 0 124.29 182.747"><defs><style>.cls-1{fill:#e892de;}.cls-2{fill:url(#linear-gradient);}.cls-3{fill:url(#linear-gradient-2);}.cls-4{fill:url(#linear-gradient-3);}.cls-5{fill:url(#linear-gradient-4);}.cls-6{fill:url(#linear-gradient-5);}.cls-7{fill:url(#linear-gradient-6);}.cls-8{fill:url(#linear-gradient-7);}.cls-9{fill:url(#linear-gradient-8);}</style><linearGradient id="linear-gradient" x1="81.134" y1="147.843" x2="93.134" y2="147.843" gradientUnits="userSpaceOnUse"><stop offset="0" stop-color="#cf72c3"/><stop offset="0.999" stop-color="#700061"/></linearGradient><linearGradient id="linear-gradient-2" x1="81.134" y1="97.544" x2="93.134" y2="97.544" xlink:href="#linear-gradient"/><linearGradient id="linear-gradient-3" x1="73.443" y1="70.482" x2="84.394" y2="66.448" xlink:href="#linear-gradient"/><linearGradient id="linear-gradient-4" x1="52.366" y1="33.299" x2="61.011" y2="25.806" xlink:href="#linear-gradient"/><linearGradient id="linear-gradient-5" x1="108.136" y1="147.843" x2="120.136" y2="147.843" xlink:href="#linear-gradient"/><linearGradient id="linear-gradient-6" x1="108.136" y1="97.544" x2="120.136" y2="97.544" xlink:href="#linear-gradient"/><linearGradient id="linear-gradient-7" x1="116.067" y1="66.615" x2="127.017" y2="69.785" gradientUnits="userSpaceOnUse"><stop offset="0" stop-color="#cf72c3"/><stop offset="1" stop-color="#700061"/></linearGradient><linearGradient id="linear-gradient-8" x1="140.386" y1="25.512" x2="148.743" y2="33.581" xlink:href="#linear-gradient"/></defs><title>prolactin_receptor</title><g id="PRLR"><path class="cls-1" d="M90.654,89.118a7.481,7.481,0,0,0,1.467-7.586L80.59,49.964a7.525,7.525,0,0,0-6-4.858,7.528,7.528,0,0,0-1.224-7.624L51.729,11.763a7.5,7.5,0,0,0-11.479,9.655L61.884,47.137A7.518,7.518,0,0,0,66.6,49.732a7.51,7.51,0,0,0-.1,5.378L78.031,86.678a7.512,7.512,0,0,0,3.536,4.048,7.513,7.513,0,0,0-1.933,5.015v3.606a7.485,7.485,0,0,0,3.019,6,7.485,7.485,0,0,0-3.019,6v72.99a7.5,7.5,0,0,0,15,0v-72.99a7.485,7.485,0,0,0-3.019-6,7.485,7.485,0,0,0,3.019-6V95.741A7.48,7.48,0,0,0,90.654,89.118Zm-3.519,17.729a4.5,4.5,0,0,1,4.5,4.5v72.99a4.5,4.5,0,0,1-9,0v-72.99A4.5,4.5,0,0,1,87.135,106.847ZM70.521,45.753a1.5,1.5,0,0,0-.471.713,1.492,1.492,0,0,0-.861.057,4.512,4.512,0,0,1-5.008-1.316L42.545,19.487a4.5,4.5,0,0,1,6.887-5.794l21.634,25.72a4.5,4.5,0,0,1-.546,6.34Zm.148,3.33a1.493,1.493,0,0,0,.478-.72A1.5,1.5,0,0,0,72,48.31a4.5,4.5,0,0,1,5.771,2.683L89.3,82.561a4.506,4.506,0,0,1-2.682,5.771,1.493,1.493,0,0,0-.689.513,1.5,1.5,0,0,0-.824-.246h-.031a4.511,4.511,0,0,1-4.227-2.95L69.318,54.08A4.506,4.506,0,0,1,70.669,49.082ZM82.635,95.741a4.509,4.509,0,0,1,2.979-4.23,1.5,1.5,0,0,0,.7-.515,1.5,1.5,0,0,0,.823.245,4.5,4.5,0,0,1,4.5,4.5v3.606a4.5,4.5,0,0,1-9,0Z" transform="translate(-38.491 -9.091)"/><path class="cls-1" d="M162.753,15.946a7.5,7.5,0,0,0-13.212-4.183L127.907,37.482a7.482,7.482,0,0,0-1.218,7.627,7.479,7.479,0,0,0-6.008,4.854L109.15,81.532a7.48,7.48,0,0,0,1.467,7.586,7.481,7.481,0,0,0-3.98,6.623v3.606a7.485,7.485,0,0,0,3.019,6,7.485,7.485,0,0,0-3.019,6v72.99a7.5,7.5,0,0,0,15,0v-72.99a7.485,7.485,0,0,0-3.019-6,7.485,7.485,0,0,0,3.019-6V95.741a7.513,7.513,0,0,0-1.933-5.016,7.507,7.507,0,0,0,3.537-4.047L134.771,55.11a7.51,7.51,0,0,0-.1-5.378,7.516,7.516,0,0,0,4.712-2.595L161.02,21.418A7.447,7.447,0,0,0,162.753,15.946Zm-48.617,90.9a4.5,4.5,0,0,1,4.5,4.5v72.99a4.5,4.5,0,0,1-9,0v-72.99A4.5,4.5,0,0,1,114.136,106.847Zm0-15.606a1.5,1.5,0,0,0,.823-.245,1.5,1.5,0,0,0,.7.515,4.509,4.509,0,0,1,2.98,4.23v3.606a4.5,4.5,0,0,1-9,0V95.741A4.5,4.5,0,0,1,114.136,91.241Zm2.027-2.642a1.5,1.5,0,0,0-.824.246,1.493,1.493,0,0,0-.689-.513,4.506,4.506,0,0,1-2.682-5.771L123.5,50.993a4.518,4.518,0,0,1,4.232-2.956,4.468,4.468,0,0,1,1.54.274,1.513,1.513,0,0,0,.852.051,1.5,1.5,0,0,0,.478.72,4.508,4.508,0,0,1,1.351,5L120.421,85.649A4.522,4.522,0,0,1,116.163,88.6Zm15.92-42.076a1.5,1.5,0,0,0-.527-.1,1.486,1.486,0,0,0-.336.039,1.5,1.5,0,0,0-.471-.713,4.506,4.506,0,0,1-.546-6.34l21.635-25.719a4.5,4.5,0,1,1,6.886,5.794L137.09,45.206A4.508,4.508,0,0,1,132.084,46.523Z" transform="translate(-38.491 -9.091)"/><path class="cls-2" d="M87.134,190.338a6,6,0,0,1-6-6v-72.99a6,6,0,0,1,12,0v72.99A6,6,0,0,1,87.134,190.338Z" transform="translate(-38.491 -9.091)"/><path class="cls-3" d="M87.134,105.348a6,6,0,0,1-6-6V95.741a6,6,0,0,1,12,0v3.607A6,6,0,0,1,87.134,105.348Z" transform="translate(-38.491 -9.091)"/><path class="cls-4" d="M87.134,89.741a6,6,0,0,1-7.694-3.577L67.909,54.6A6,6,0,1,1,79.18,50.478L90.712,82.047A6,6,0,0,1,87.134,89.741Z" transform="translate(-38.491 -9.091)"/><path class="cls-5" d="M71.486,46.9a6,6,0,0,1-8.454-.729L41.4,20.452a6,6,0,0,1,9.183-7.725L72.215,38.447A6,6,0,0,1,71.486,46.9Z" transform="translate(-38.491 -9.091)"/><path class="cls-6" d="M114.136,190.338a6,6,0,0,0,6-6v-72.99a6,6,0,1,0-12,0v72.99A6,6,0,0,0,114.136,190.338Z" transform="translate(-38.491 -9.091)"/><path class="cls-7" d="M114.136,105.348a6,6,0,0,0,6-6V95.741a6,6,0,0,0-12,0v3.607A6,6,0,0,0,114.136,105.348Z" transform="translate(-38.491 -9.091)"/><path class="cls-8" d="M114.136,89.741a6,6,0,0,0,7.694-3.577L133.362,54.6a6,6,0,1,0-11.272-4.117L110.559,82.047A6,6,0,0,0,114.136,89.741Z" transform="translate(-38.491 -9.091)"/><path class="cls-9" d="M129.785,46.9a6,6,0,0,0,8.454-.729l21.635-25.719a6,6,0,1,0-9.183-7.725L129.055,38.447A6,6,0,0,0,129.785,46.9Z" transform="translate(-38.491 -9.091)"/></g></svg>