<svg id="Layer_1" data-name="Layer 1" xmlns="http://www.w3.org/2000/svg" xmlns:xlink="http://www.w3.org/1999/xlink" viewBox="0 0 58.29 22.917"><defs><style>.cls-1{fill:url(#linear-gradient);}.cls-2{fill:#344bb0;}.cls-3{font-size:12px;fill:#fff;font-family:Arial-BoldMT, Arial;font-weight:700;}</style><linearGradient id="linear-gradient" x1="29.397" y1="21.309" x2="29.397" y2="1.309" gradientUnits="userSpaceOnUse"><stop offset="0" stop-color="#315900"/><stop offset="1" stop-color="#344bb0"/></linearGradient></defs><title>R-ICO-013676</title><g id="R-ICO-013676"><rect class="cls-1" x="1.397" y="1.309" width="56" height="20" rx="10"/><path class="cls-2" d="M118,110.15c-5.616-.009-11.231.43-16.847.837-5.616.458-11.231.547-16.847.613-.7.015-1.4,0-2.106,0a13.731,13.731,0,0,1-2.4-.22,10.922,10.922,0,0,1-4.442-1.934,11.5,11.5,0,0,1-4.7-8.137,11.048,11.048,0,0,1,2.987-8.75A10.9,10.9,0,0,1,82,89.179c5.616.281,11.231.436,16.847.335,5.616-.085,11.231-.574,16.847-.763l2.106-.057c.344-.01.779.006,1.165.024s.789.1,1.183.157a10.539,10.539,0,0,1,4.355,1.869,10.59,10.59,0,0,1,3.654,12.466A11.042,11.042,0,0,1,118,110.15Zm0-.3a9.159,9.159,0,0,0,8.979-10.89,9.51,9.51,0,0,0-4.009-6.043,9.045,9.045,0,0,0-3.33-1.419,13.1,13.1,0,0,0-1.84-.192l-2.106-.057c-5.616-.189-11.231-.678-16.847-.763-5.616-.1-11.231.054-16.847.335a9.134,9.134,0,0,0-6.552,3.344,8.785,8.785,0,0,0-1.968,6.822,8.672,8.672,0,0,0,6.93,7.256,10.286,10.286,0,0,0,1.79.153c.7,0,1.4-.011,2.106,0,5.616.066,11.231.155,16.847.613C106.769,109.42,112.384,109.859,118,109.85Z" transform="translate(-70.603 -88.691)"/><text class="cls-3" transform="translate(4.697 14.195)">MAPK15</text></g></svg>