<svg id="Layer_1" data-name="Layer 1" xmlns="http://www.w3.org/2000/svg" xmlns:xlink="http://www.w3.org/1999/xlink" viewBox="0 0 46.799 22.699"><defs><style>.cls-1{fill:url(#linear-gradient);}.cls-2{fill:#0d50bc;}.cls-3{font-size:12px;fill:#fff;font-family:Arial-BoldMT, Arial;font-weight:700;}</style><linearGradient id="linear-gradient" x1="98.856" y1="110" x2="98.856" y2="90" gradientTransform="matrix(-1, 0, 0, 1, 198.856, 0)" gradientUnits="userSpaceOnUse"><stop offset="0" stop-color="#0d50bc"/><stop offset="1" stop-color="#4dc7b4"/></linearGradient></defs><title>Hh-Np</title><g id="Hh-Np"><path class="cls-1" d="M88,110h34V90H88a10.029,10.029,0,0,0-10,10h0A10.029,10.029,0,0,0,88,110Z" transform="translate(-76.806 -88.878)"/><path class="cls-2" d="M88,109.85c2.833,0,5.667-.094,8.5-.216s5.667-.335,8.5-.516,5.667-.37,8.5-.488l4.25-.128,4.25-.058L120.443,110c-.055-1.667-.055-3.333-.041-5-.009-1.667.068-3.333.1-5,.112-3.333.167-6.667.42-10l1.08,1.08c-5.449-.228-10.9-.514-16.347-.594s-10.9,0-16.347.281a9.851,9.851,0,0,0-10.05,8.661,9.566,9.566,0,0,0,1.853,7.026A8.712,8.712,0,0,0,88,109.85Zm0,.3a11.473,11.473,0,0,1-7.674-2.962,10.3,10.3,0,0,1,4.643-17.795,15.135,15.135,0,0,1,4.337-.161q8.173.424,16.347.281c5.449-.08,10.9-.366,16.347-.594l1-.042L123.081,90c.253,3.333.307,6.667.42,10,.03,1.667.107,3.333.1,5,.013,1.667.014,3.333-.041,5l-.052,1.577-1.5-.02-4.25-.058-4.25-.128c-2.833-.118-5.667-.3-8.5-.488s-5.667-.38-8.5-.516S90.833,110.146,88,110.15Z" transform="translate(-76.806 -88.878)"/><text class="cls-3" transform="translate(4.739 13.944)">Hh-Np</text></g></svg>