<svg id="Layer_1" data-name="Layer 1" xmlns="http://www.w3.org/2000/svg" xmlns:xlink="http://www.w3.org/1999/xlink" viewBox="0 0 73.878 87.093"><defs><style>.cls-1{fill:url(#linear-gradient);}</style><linearGradient id="linear-gradient" x1="-6.942" y1="689.545" x2="-6.942" y2="602.452" gradientTransform="translate(106.942 -545.999)" gradientUnits="userSpaceOnUse"><stop offset="0" stop-color="#ed3d84"/><stop offset="1" stop-color="#dce11e"/></linearGradient></defs><title>R-ICO-013657</title><path id="HTR2A" class="cls-1" d="M118.031,143.3c18.646-2.213,18.643-14.971,18.881-47.6.239-26.5-.991-39.011-7.615-39.009-6.87,0-8.094,12.269-8.578,38.767,0,7.851-.238,31.65-3.672,34.1-2.945-2.453-3.2-24.289-3.2-32.631v-2.7c-.005-22.082-.5-37.539-7.615-37.537-6.87,0-8.339,12.76-8.578,38.767,0,7.851-.238,31.65-3.672,34.1-3.19-2.453-3.2-26.252-3.2-34.1.239-26.5-.991-39.011-7.615-39.009-5.152,0-6.623,7.853-7.357,15.459s-.732,16.929-.976,23.8c0,7.851-.238,31.65-3.672,34.1-3.19-2.453-3.2-26.252-3.2-34.1V59.4H63.061V95.714c0,6.87,0,16.193.5,23.8.738,7.606,2.212,15.211,7.364,15.21s6.623-7.853,7.357-15.459.732-16.929.976-23.8c0-7.851.238-31.65,3.672-34.1,3.19,2.453,3.2,26.252,3.2,34.1-.239,26.5.991,39.011,7.615,39.009,6.87,0,8.339-12.76,8.578-38.767,0-7.851.238-31.65,3.672-34.1,3.19,2.453,3.2,24.534,3.2,32.876v2.7c.005,21.591.5,37.293,7.615,37.292,6.87,0,8.094-12.269,8.578-38.767,0-7.851.238-31.65,3.672-34.1,3.19,2.453,3.2,26.252,3.2,34.1-.237,36.557-.235,43.182-20.6,42.941v4.907C113.615,143.546,116.068,143.3,118.031,143.3Z" transform="translate(-63.061 -56.454)"/></svg>