<svg id="Layer_1" data-name="Layer 1" xmlns="http://www.w3.org/2000/svg" xmlns:xlink="http://www.w3.org/1999/xlink" viewBox="0 0 74.04 56.739"><defs><style>.cls-1{fill:url(#linear-gradient);}.cls-2{fill:url(#linear-gradient-2);}.cls-3{fill:url(#linear-gradient-3);}.cls-4{fill:url(#linear-gradient-4);}</style><linearGradient id="linear-gradient" x1="1009.177" y1="-53.342" x2="1009.177" y2="-103.836" gradientTransform="translate(1106.784 8.096) rotate(179.326)" gradientUnits="userSpaceOnUse"><stop offset="0" stop-color="#d28ab5"/><stop offset="0.094" stop-color="#c46f93"/><stop offset="0.214" stop-color="#b5516d"/><stop offset="0.326" stop-color="#aa3c52"/><stop offset="0.425" stop-color="#a32f42"/><stop offset="0.5" stop-color="#a12a3c"/><stop offset="0.575" stop-color="#a32f42"/><stop offset="0.674" stop-color="#aa3c52"/><stop offset="0.786" stop-color="#b5516d"/><stop offset="0.906" stop-color="#c46f93"/><stop offset="1" stop-color="#d28ab5"/></linearGradient><linearGradient id="linear-gradient-2" x1="262.729" y1="920.833" x2="242.787" y2="917.388" gradientTransform="translate(-243.506 -779.651) rotate(-7.541)" gradientUnits="userSpaceOnUse"><stop offset="0" stop-color="#d7b532"/><stop offset="1" stop-color="#e086ff"/></linearGradient><linearGradient id="linear-gradient-3" x1="350.094" y1="932.399" x2="330.152" y2="928.954" gradientTransform="matrix(-0.991, -0.131, -0.131, 0.991, 528.173, -779.651)" xlink:href="#linear-gradient-2"/><linearGradient id="linear-gradient-4" x1="102.122" y1="-56.533" x2="102.122" y2="0.099" gradientTransform="translate(-3.758 126.002)" gradientUnits="userSpaceOnUse"><stop offset="0" stop-color="#d7b532"/><stop offset="0.501" stop-color="#e086ff"/><stop offset="0.555" stop-color="#e087f9"/><stop offset="0.626" stop-color="#df8be9"/><stop offset="0.707" stop-color="#de91ce"/><stop offset="0.794" stop-color="#dc9aa8"/><stop offset="0.887" stop-color="#daa577"/><stop offset="0.983" stop-color="#d7b33d"/><stop offset="1" stop-color="#d7b532"/></linearGradient></defs><title>antiporter</title><g id="antiporter"><path class="cls-1" d="M96.049,71.367a73.3,73.3,0,0,1-13.167,1.991c-6.744.079-19.09-2.975-19.09-2.975,14.423-.17,14.754,27.976,14.754,27.976s.331,28.141-14.092,28.311c0,0,12.235-3.344,19.014-3.423,5.459-.064,11.247,1.269,12.341.925l4.787-.069c.615.557,6.727-.924,12.474-.856,6.779.08,19.014,3.423,19.014,3.423-14.423-.17-14.092-28.311-14.092-28.311s.331-28.145,14.754-27.976c0,0-12.345,3.055-19.09,2.975a73.3,73.3,0,0,1-13.167-1.991Z" transform="translate(-61.25 -69.93)"/><path class="cls-2" d="M121.281,98.393c-.257,21.86,9.522,19.131,10.911,19.147s2.3,1.517,2.26,5.046c-.033,2.819-.555,4.1-2.367,4.08-14.423-.17-14.092-28.311-14.092-28.311s.331-28.145,14.754-27.976c1.81.021,2.575,1.385,2.542,4.134s-1.261,5.012-2.65,5S121.539,76.533,121.281,98.393Z" transform="translate(-61.25 -69.93)"/><path class="cls-3" d="M75.258,98.393c.257,21.86-9.522,19.131-10.911,19.147s-2.3,1.517-2.26,5.046c.033,2.819.555,4.1,2.367,4.08,14.423-.17,14.092-28.311,14.092-28.311s-.331-28.145-14.754-27.976c-1.81.021-2.575,1.385-2.542,4.134s1.261,5.012,2.65,5S75,76.533,75.258,98.393Z" transform="translate(-61.25 -69.93)"/><path class="cls-4" d="M102.364,74.45a4.03,4.03,0,1,0-8,0s1,13.895,1,23.568-1,23.568-1,23.568a4.03,4.03,0,1,0,8,0s-1-14.256-1-23.568S102.364,74.45,102.364,74.45Z" transform="translate(-61.25 -69.93)"/></g></svg>