<svg id="Layer_1" data-name="Layer 1" xmlns="http://www.w3.org/2000/svg" viewBox="0 0 98.679 22.949"><defs><style>.cls-1{fill:#db5528;}.cls-2{fill:#71c7c2;}.cls-3{font-size:12px;fill:#fff;font-family:Arial-BoldMT, Arial;font-weight:700;}</style></defs><title>PREPROPOMC</title><g id="PREPROPOMC"><rect class="cls-1" x="1.222" y="1.347" width="97" height="20" rx="10" ry="10"/><path class="cls-2" d="M137.011,113.491c-9.032-.009-18.065.43-27.1.837-9.032.458-18.065.547-27.1.613-4.516,0-9.032.019-13.548-.037l-6.774-.076-1.694-.019-.855-.012-.968-.059a11.623,11.623,0,0,1-3.714-1.037,11.231,11.231,0,0,1-6.18-12.743A10.983,10.983,0,0,1,60.011,92.52c9.032.261,18.065.449,27.1.335,4.516-.049,9.032-.194,13.549-.349l13.548-.413c4.516-.085,9.032-.131,13.549-.071q3.387.022,6.774.128l1.694.045.853.031.937.083a11.2,11.2,0,0,1,3.55,1.1,10.794,10.794,0,0,1,4.968,5.178,10.538,10.538,0,0,1-3.127,12.691A10.376,10.376,0,0,1,137.011,113.491Zm0-.3a9.816,9.816,0,0,0,6.133-2.234,9.607,9.607,0,0,0,3.256-5.57,9.226,9.226,0,0,0-8.584-10.922l-.754,0-.84.025-1.694.045q-3.387.108-6.774.128c-4.516.061-9.032.015-13.549-.071l-13.548-.413c-4.516-.155-9.032-.3-13.549-.349-9.032-.114-18.065.074-27.1.335a9.166,9.166,0,0,0-5.619,2.2,9.267,9.267,0,0,0-2.984,5.106,8.729,8.729,0,0,0,7.831,10.385l.723.028.838-.007,1.694-.019,6.774-.076c4.516-.056,9.032-.036,13.548-.037,9.032.066,18.065.155,27.1.613C118.946,112.761,127.979,113.2,137.011,113.191Z" transform="translate(-48.789 -91.994)"/><text class="cls-3" transform="translate(6.384 14.169)">PREPROPOMC</text></g></svg>