<svg id="Layer_1" data-name="Layer 1" xmlns="http://www.w3.org/2000/svg" xmlns:xlink="http://www.w3.org/1999/xlink" viewBox="0 0 47.42 47.507"><defs><style>.cls-1{fill:url(#radial-gradient);}.cls-2{fill:#b59a20;}.cls-3{fill:url(#radial-gradient-2);}.cls-4{fill:url(#linear-gradient);}.cls-5{fill:url(#linear-gradient-2);}.cls-6{fill:url(#linear-gradient-3);}.cls-7{fill:url(#linear-gradient-4);}</style><radialGradient id="radial-gradient" cx="96.398" cy="115.498" r="22.585" gradientTransform="matrix(1, 0, 0, -1, -76.023, 133.816)" gradientUnits="userSpaceOnUse"><stop offset="0" stop-color="#c09e1d"/><stop offset="1" stop-color="#336646"/></radialGradient><radialGradient id="radial-gradient-2" cx="-890.558" cy="1288.833" r="23.671" gradientTransform="matrix(0, 1, 1, 0, -1189.843, 990.415)" gradientUnits="userSpaceOnUse"><stop offset="0.921" stop-color="#c09e1d"/><stop offset="0.97" stop-color="#ffe4b2"/><stop offset="1" stop-color="#b59a20"/></radialGradient><linearGradient id="linear-gradient" x1="-65.045" y1="945.613" x2="-54.262" y2="934.829" gradientTransform="matrix(0.707, 0.707, 0.707, -0.707, -614.385, 746.167)" gradientUnits="userSpaceOnUse"><stop offset="0" stop-color="#a831a5"/><stop offset="1" stop-color="#a39f00"/></linearGradient><linearGradient id="linear-gradient-2" x1="-87.341" y1="967.909" x2="-76.558" y2="957.125" xlink:href="#linear-gradient"/><linearGradient id="linear-gradient-3" x1="-42.749" y1="967.909" x2="-31.966" y2="957.125" xlink:href="#linear-gradient"/><linearGradient id="linear-gradient-4" x1="-65.045" y1="990.205" x2="-54.262" y2="979.421" xlink:href="#linear-gradient"/></defs><title>microbe_01</title><g id="MICROBE"><circle class="cls-1" cx="24.029" cy="23.477" r="22.585"/><path class="cls-2" d="M99.64,123.844a23.618,23.618,0,1,1,23.617-23.618A23.645,23.645,0,0,1,99.64,123.844Zm0-45.17a21.553,21.553,0,1,0,21.553,21.553A21.577,21.577,0,0,0,99.64,78.674Z" transform="translate(-76.023 -76.337)"/><path class="cls-3" d="M76.229,100.226a23.41,23.41,0,1,1,23.41,23.411A23.437,23.437,0,0,1,76.229,100.226Zm45.17,0a21.76,21.76,0,1,0-21.76,21.759A21.784,21.784,0,0,0,121.4,100.226Z" transform="translate(-76.023 -76.337)"/><polygon class="cls-4" points="8.264 46.781 0.639 39.156 8.264 31.531 15.889 39.156 8.264 46.781"/><polygon class="cls-5" points="8.264 15.25 0.639 7.625 8.264 0 15.889 7.625 8.264 15.25"/><polygon class="cls-6" points="39.795 46.781 32.17 39.156 39.795 31.531 47.42 39.156 39.795 46.781"/><polygon class="cls-7" points="39.795 15.25 32.17 7.625 39.795 0 47.42 7.625 39.795 15.25"/></g></svg>