<svg id="Layer_1" data-name="Layer 1" xmlns="http://www.w3.org/2000/svg" xmlns:xlink="http://www.w3.org/1999/xlink" viewBox="0 0 82.028 103.243"><defs><style>.cls-1{fill:url(#radial-gradient);}.cls-2{fill:url(#radial-gradient-2);}.cls-3{fill:#874e5d;}.cls-4{fill:#874e72;}.cls-5{fill:url(#radial-gradient-3);}.cls-6{fill:url(#radial-gradient-4);}.cls-7{fill:url(#radial-gradient-5);}.cls-8{fill:url(#radial-gradient-6);}.cls-9{fill:url(#radial-gradient-7);}.cls-10{fill:url(#radial-gradient-8);}</style><radialGradient id="radial-gradient" cx="100.387" cy="93.892" fx="86.31250409230573" r="37.091" gradientTransform="translate(0 31.936) scale(1 0.66)" gradientUnits="userSpaceOnUse"><stop offset="0" stop-color="#edd1e3"/><stop offset="0.252" stop-color="#edcde2"/><stop offset="0.487" stop-color="#edc2dd"/><stop offset="0.666" stop-color="#edb4d8"/><stop offset="0.723" stop-color="#edacd5"/><stop offset="0.884" stop-color="#ed9ace"/><stop offset="0.999" stop-color="#ed93cb"/></radialGradient><radialGradient id="radial-gradient-2" cx="97.013" cy="89.166" r="57.715" gradientTransform="matrix(0.622, -0.783, 0.635, 0.504, -19.94, 120.169)" gradientUnits="userSpaceOnUse"><stop offset="0" stop-color="#edb4c3"/><stop offset="0.229" stop-color="#e6a8b8"/><stop offset="0.642" stop-color="#d4889c"/><stop offset="1" stop-color="#c1677f"/></radialGradient><radialGradient id="radial-gradient-3" cx="97.56" cy="122.781" r="6.675" gradientTransform="translate(-2.965 153.831) rotate(-39.15) scale(1 0.321)" gradientUnits="userSpaceOnUse"><stop offset="0" stop-color="#fff"/><stop offset="1" stop-color="#edb4d8" stop-opacity="0"/></radialGradient><radialGradient id="radial-gradient-4" cx="78.386" cy="102.558" r="5.026" gradientTransform="translate(0 71.443) scale(1 0.303)" xlink:href="#radial-gradient-3"/><radialGradient id="radial-gradient-5" cx="78.764" cy="93.635" r="2.658" gradientTransform="translate(9.466 29.836) rotate(9.374) scale(1 0.552)" xlink:href="#radial-gradient-3"/><radialGradient id="radial-gradient-6" cx="77.359" cy="86.481" r="5.026" gradientTransform="translate(-1.625 71.323) rotate(-5.007) scale(1 0.254)" xlink:href="#radial-gradient-3"/><radialGradient id="radial-gradient-7" cx="79.227" cy="78.359" r="6.917" gradientTransform="translate(0 59.697) scale(1 0.238)" xlink:href="#radial-gradient-3"/><radialGradient id="radial-gradient-8" cx="79.734" cy="110.152" r="6.018" gradientTransform="translate(0 84.632) scale(1 0.232)" xlink:href="#radial-gradient-3"/></defs><title>intestine</title><path id="BG" class="cls-1" d="M93.362,149.927c3.792.828,3.739-4.521,5.393-6.794s4.693-9.431,4.006-15.74c0,0,1.776-.754,2.071-2.032s1.426,1.385,3.444.215,1.035-2.744,2.125-2.893,1.2,1.129,3.039.041c2.407-1.426,2.126-3.177,3.229-3.54s2.718,1.466,4.52.282,1.466-2.718,2.138-3.108,1.708.323,3.5-.646,2.555-2.866,3.941-4.292,2.381-.068,4.277-2.758a10.246,10.246,0,0,0,1.855-5.5s3.538-1.292,2.38-6.982c0,0,2.981-4.352.851-7.509,0,0,2.174-2.89-.827-6.75a7.408,7.408,0,0,0-2.342-7.492s.968-5.125-.849-7.183c0,0,1.815-4.857.254-7.547a8.462,8.462,0,0,0,1.853-8.926c-1.518-3.951-3.719-1.345-6.537-2.6-3.254-1.452-6.995,1.293-7.209,4.736,0,0-2.9,1.98-3.334,3.465a13.188,13.188,0,0,0-5.664,2.24s-3.686.2-5.058,1.413c0,0-4.318-.053-5.905,1.145,0,0-6.188-1.25-7.977-.281,0,0-4.291-.483-6.053.055,0,0-4.843-2.03-8.152-.94,0,0-4.372-2.649-7.009-1.949,0,0-1.267-1.766-5.109-1.039-1.005.19-1.467,1.252-3.622,1.662-6.041,1.151-4.1,7.689-2.226,10.31,0,0-.341,3.92.426,5.48a48.486,48.486,0,0,0-.375,6.027,22.666,22.666,0,0,0-1.452,5.96s-2.145,3-2.1,5.864c0,0-1.323,3.214-.383,5.865,0,0-1.791,4.858.82,8.046,0,0-.591,6.013,1.71,7.237,0,0,.217,6.928,5.329,8.111s9.7.388,10.237,2.15,2.3,4.681,3.189,4.3-1.588-2.26-1.507-3.551-1.911-4.008-2.933-4.936.686-.605,2.3-2.233,3.632.658,4,1.761a7.275,7.275,0,0,0,6.9,3.671s-2.716,5.449-2.325,9.578a54.014,54.014,0,0,0,2.114,11.151C91.222,146.121,90.591,149.322,93.362,149.927Z" transform="translate(-59.373 -47.272)"/><path id="BIG" class="cls-2" d="M90.518,122.741c2.4-2.424,6.935-6.277,10.089-7.144a19.788,19.788,0,0,1,4.533-.867l3.351-2.326,4.848-.728,3.626-1.755,3.745-.71,3.035-2.878,2.878-1.734,1.931-2.6,3.824-2.72.158-4.809.67-5.006-.512-2.759,1.38-4.257-1.064-3.429.118-2.68-2.089-3.824-.276-3.784-.2-1.3-.24-3.153-2.2,1.537-3.429.512s-1.34,3-3.351,3.626a11.655,11.655,0,0,1-5.361.079,9.288,9.288,0,0,1-3.469,1.656,29.477,29.477,0,0,1-6.031-.434,16.781,16.781,0,0,1-6.094,1.774,25.29,25.29,0,0,1-6.717-1.143s-2.759,2.247-5.4,1.064-2.326-1.419-2.326-1.419a8.892,8.892,0,0,1-4.572.67,7.849,7.849,0,0,1-3.587-1.1s-2.68,1.025-4.375.434a17.761,17.761,0,0,1-4.218-2.838l1.1,5.913-1.1,6.583-1.419,4.809.394,4.257.67,4.967,2.01,4.178-.788,2.562-1.774,5.6.71,2.157,1.931,1.963,4.257,2.817,1.892,4.533L79.4,121.9l.907,3.114,1.656,2.68-.71.434-3-4.891-6.541-1.1s-4.021.276-5.834-1.813a13.911,13.911,0,0,1-2.917-6.622,7.754,7.754,0,0,1-1.695-3.548,21.564,21.564,0,0,1,.029-3.93,6.332,6.332,0,0,1-1.419-3.441c.01-1.734.522-3.9.561-4.77a13.331,13.331,0,0,1,.421-5.7s-.187-2.212,2.1-5.864c0,0,1.833-3.83,1.452-5.96-.031-.175.047-3.368.245-5.851,0,0-.67-3.94-.3-5.656,0,0-1.955-3.427-1.855-5.705a4.36,4.36,0,0,1,2.723-4.2,11.32,11.32,0,0,0,2.541-.833c1.261-.591,2.247-1.5,3-1.419s3.583-.066,4.551,1.228a10.99,10.99,0,0,1,4.279.664c1.695.788,2.73,1.285,2.73,1.285a11.747,11.747,0,0,1,4.05-.063c1.734.394,4.1,1,4.1,1l5.791-.1,2.562-.355,5.677.678,2.759-.835,2.917-.315,2.6-1.025s2.36-.327,2.523-.355,2.956-1.5,2.956-1.5l2.871-.77,1.5-2.068,1.83-1.4,1.087-2.821,2.129-1.892s2.089-.985,3.272-.315,1.419.749,2.207.67,2.878-.394,3.824.355a3.882,3.882,0,0,1,1.577,2.838,8.785,8.785,0,0,1-.434,5.321,8.533,8.533,0,0,1-1.769,2.635,8.843,8.843,0,0,1,.626,4.066c-.355,1.616-.88,3.48-.88,3.48s1.353,2.157,1.156,3.773-.307,3.411-.307,3.411a5.59,5.59,0,0,1,2.317,3.921,8.647,8.647,0,0,1,.025,3.571,6.773,6.773,0,0,1,1.473,3.642,7.367,7.367,0,0,1-.646,3.107,5.97,5.97,0,0,1,.646,3.436,12.719,12.719,0,0,1-1.5,4.073,6.3,6.3,0,0,1-.04,4.007,7.869,7.869,0,0,1-2.339,2.975s-.3,3.214-1.445,4.83a6.855,6.855,0,0,1-3.745,2.641l-1.774,1.695-2.68,3.193-3.927.84s-1.2,2.944-2.341,3.3-3.942-.985-4.612-.473-.985,2.6-2.6,3.311-3.272-.237-3.587-.039-.272,2.456-1.91,3.12-2.86-.755-3.254-.6-1.093,2.149-2.261,2.415a23.128,23.128,0,0,1-2.942,13.983c-4.1,7.45-3.232,8.759-5.991,8.637s-2.708-3.478-3.114-5.01a58.918,58.918,0,0,1-1.656-6.189c-.315-2.089-1.064-6.228-.907-7.568S89.458,123.814,90.518,122.741Z" transform="translate(-59.373 -47.272)"/><g id="SMALL"><path class="cls-3" d="M136.151,81.68a24.31,24.31,0,0,0-1.14-5.168,4.759,4.759,0,0,0-.387-.623,11.338,11.338,0,0,1-2.129-5.805,35.116,35.116,0,0,1-.321-8.132c1.941-.373,3.793-3.009,4.127-5.235a.5.5,0,1,0-.989-.149c-.325,2.163-2.174,4.446-3.6,4.442-.01,0-.018.008-.028.009a.475.475,0,0,0-.26.084l-.009.005a.5.5,0,0,0-.163.224c0,.01-.014.014-.018.024a8.117,8.117,0,0,1-1.2,2.189l-.011.013a5.471,5.471,0,0,1-5.3,2.241.51.51,0,0,0-.531.3c-.1.23-2.407,5.612-8.086,3.382a.5.5,0,0,0-.513.091,8.9,8.9,0,0,1-8.979,1.165.505.505,0,0,0-.442.028c-.064.037-6.409,3.612-12.242.53a.5.5,0,0,0-.618.123,4.467,4.467,0,0,1-2.825,1.417,5.7,5.7,0,0,1-4.148-1.649.5.5,0,0,0-.528-.077c-.042.019-4.308,1.869-7.839-.479a.5.5,0,0,0-.505-.029c-.187.1-4.607,2.286-8.151-2.647a.5.5,0,0,0-.887.428c.674,2.387,1.437,6.092,1.024,6.858a.5.5,0,0,0-.06.242c0,.054.03,5.407-2.22,7.13a.5.5,0,0,0-.2.416c0,.081.293,8.142-.642,10.621a.5.5,0,0,0-.025.263c.009.05.876,5.1-.006,8.278l-.01.231a45.4,45.4,0,0,1,1,6.7.5.5,0,0,0,.1.327c.023.031,2.279,3.128,2.438,5.126.2,2.45,3.059,4.985,3.629,5.315a.5.5,0,0,0,.5-.865c-.555-.322-2.982-2.634-3.134-4.53a9.337,9.337,0,0,0-1.2-3.357,5.739,5.739,0,0,0,2.764,1.779.461.461,0,0,0,.038.033c2.206,1.231,3.089,2.572,4.113,6.24a.5.5,0,0,0,.481.365.493.493,0,0,0,.135-.019.5.5,0,0,0,.347-.616c-.812-2.908-1.617-4.535-2.989-5.739a16.514,16.514,0,0,0,2.471-.258,9.087,9.087,0,0,1,1.174-.147c.415,0,1.174.014,2.1.036,1.367.032,2.665.058,3.833.066A12.567,12.567,0,0,1,87.572,117a.5.5,0,1,0,.894-.449,12.257,12.257,0,0,0-2.873-3.674,11.79,11.79,0,0,0,3.56-.352l.142-.066c.153-.071.355-.169.575-.281l.23.29c1.778,2.231,4.2,5.277,3.02,7.114a34.59,34.59,0,0,0-2.971,2.822.5.5,0,1,0,.741.671c.064-.07,6.418-7.021,12.322-7.615.305-.031.584-.076.848-.129a21.8,21.8,0,0,1,6.28.075.5.5,0,0,0,.464-.021c.868-.508,3.431-1.812,4.846-1.745a.5.5,0,0,0,.24-.049,11.72,11.72,0,0,1,3.757-1.029.5.5,0,0,0,.3-.121,6.434,6.434,0,0,1,3.518-1.474.5.5,0,0,0,.4-.187,9.5,9.5,0,0,1,2.941-2.669.5.5,0,0,0,.2-.114c.442-.418,1.912-1.6,2.866-1.591a.508.508,0,0,0,.487-.3c.547-1.272,1.786-3.413,2.781-3.734a.5.5,0,0,0,.3-.266,5.394,5.394,0,0,1,2.31-2.563.5.5,0,0,0,.334-.521c0-.038-.362-3.81.339-5.7l.031-.145L136.777,88A31.878,31.878,0,0,0,136.151,81.68Zm-5.259-17.633c.06-.08.118-.16.173-.24a36.316,36.316,0,0,0,.171,4.342A9.008,9.008,0,0,1,130.891,64.047Zm-.556,4.586.013.005c-.646,3.706,1.63,7.093,2.251,7.933a9.052,9.052,0,0,0,1.033,5.678,8.883,8.883,0,0,0-1.152,3.492c-1.633-2.392-5.307-5.395-13.158-4.236a37.942,37.942,0,0,0-2.476-4.367C119.2,76.7,126.414,74.88,130.336,68.633Zm-8.323,18.98c.047.055,1.2,1.371,5.638,3.351,3.846,1.715,3.931,2.431,4.213,4.8l.059.484a14.779,14.779,0,0,0,.109,2.778c-.66.459-2.417,1.685-3.17,2.254a9.986,9.986,0,0,0-1.667,1.876,9.056,9.056,0,0,1-.927,1.12,9.38,9.38,0,0,1-1.516,1.049c.032-.111.078-.214.1-.331.389-1.931-.391-4.6-2.482-8.371.26.04.532.07.81.1,1.1.115,2.231.233,2.672,1.033a.5.5,0,0,0,.875-.483c-.693-1.257-2.218-1.417-3.444-1.545-.706-.074-1.5-.157-1.684-.448q-.87-1.464-1.982-3.139c2.211-2.453,1.658-6.113.133-9.685,9.206-1.26,12.023,3.425,12.816,5.607a7.058,7.058,0,0,0,.34,1.239,8.886,8.886,0,0,0-.631,3.818c-.54-1.109-1.637-1.918-4.219-3.07-4.17-1.86-5.275-3.077-5.283-3.086a.5.5,0,1,0-.762.648Zm-14.86,12.6c-.006-.225-.011-.449-.007-.676.038-2.214-1.867-3.4-3.7-3.833.622-.423,1.213-.831,1.762-1.22a9.3,9.3,0,0,0,2.573,4.53c1.214,1.17,2.877,2.772,3.027,3.878a.5.5,0,0,0,.464.432.489.489,0,0,0,.1,0,.5.5,0,0,0,.428-.563c-.2-1.451-1.931-3.121-3.325-4.463-1.221-1.177-1.672-2.1-2.416-4.428.523-.388.988-.751,1.357-1.073,1.833-1.605,1.8-3.439,1.363-5.39l.252.378c.412.622.82,1.235,1.228,1.823-.1,2.664,1.087,4.937,3.966,7.553,1.871,1.7,4.957,5.477,4.657,8.844a4.92,4.92,0,0,1-2.547,3.777c-.015.009-.031.014-.046.023-.255.116-.5.237-.732.369a4.532,4.532,0,0,1-2.786.235,5.406,5.406,0,0,1-3.3-2.6,9.891,9.891,0,0,0-3.018-4.3A5.329,5.329,0,0,0,107.153,100.21Zm12.728,5.876c.334-3.758-2.974-7.848-4.981-9.672-2.071-1.882-3.187-3.544-3.531-5.3,1.283,1.625,2.618,2.821,4.159,2.992.057.006.114.011.171.015a4.5,4.5,0,0,0,3.192-1.263c3.855,5.848,5.444,9.655,4.982,11.944a3.06,3.06,0,0,1-.681,1.39,11.049,11.049,0,0,0-1.556,1.485,5.622,5.622,0,0,1-1.216,1.129,9.482,9.482,0,0,1-.963.193c-.23.038-.505.085-.853.15A5.4,5.4,0,0,0,119.881,106.087Zm-3.866-35.568c5.5,1.981,8.255-2.395,8.932-3.687a6.117,6.117,0,0,0,4.821-1.557,10.953,10.953,0,0,0,.224,1.993c-3.761,6.971-12.114,8.687-13.753,8.96-1.287-1.887-2.5-3.4-3.171-4.2A9.935,9.935,0,0,0,116.015,70.519Zm-9.562,1.235a9.775,9.775,0,0,0,5.542.546,49.821,49.821,0,0,1,3.57,4.669.5.5,0,0,0,.1.146c3.438,5.134,6.239,11.493,2.978,14.617a3.839,3.839,0,0,1-3,1.376c-2.02-.225-3.843-2.973-5.772-5.883-.612-.922-1.237-1.857-1.89-2.755a.487.487,0,0,0-.029-.039,25.187,25.187,0,0,0-1.653-2.068c-.652-.72-1.23-1.342-1.754-1.895l0,0,0,0a35.617,35.617,0,0,0-3.612-3.454,24.775,24.775,0,0,1,3.161-2.267c2.812,1.9,6.622,5.4,9.349,12.761a.5.5,0,0,0,.938-.348c-3.333-8.995-8.244-12.442-11.169-14.147A16.622,16.622,0,0,0,106.453,71.754ZM89.614,76.239c.006-.014.018-.023.023-.037l0-.014a7.039,7.039,0,0,1,2.6-2.684l.47-.346a5.787,5.787,0,0,0,1.094-.8,12.813,12.813,0,0,0,7.957.982l.068.038c.383.214.832.469,1.321.766a28.083,28.083,0,0,0-3.379,2.544h0a16.919,16.919,0,0,0-3.933,4.458.5.5,0,1,0,.913.407,15.133,15.133,0,0,1,3.405-3.877,28.272,28.272,0,0,1,3.289,3.089c-2.174,1.844-5.254,3.835-8.268,3.647C92.4,84.236,89.1,83.2,89.1,79.24A7.324,7.324,0,0,1,89.614,76.239ZM67.3,102.347c.823-3.13.156-7.628.018-8.471a14.649,14.649,0,0,0,.537-3.193c-.14,1.807-.05,4.576,1.409,6.583a4.062,4.062,0,0,1,.247,4.5,10.943,10.943,0,0,0-1.549,4.176C67.708,104.367,67.39,102.793,67.3,102.347Zm21.574,9.206-.15.07c-.777.37-5.95.25-8.435.192-.946-.022-1.717-.04-2.138-.036a9.627,9.627,0,0,0-1.326.16c-2.144.349-5.386.876-7.321-2.718-2.134-3.961,2.1-8.8,3.017-9.782a19.075,19.075,0,0,0,2.6.307c2.422.151,5.46.117,7.549.093.688-.008,1.266-.014,1.671-.012a.5.5,0,0,0,.5-.5.511.511,0,0,0-.5-.5c-.409,0-.992,0-1.688.012-2.837.031-8.109.092-10.166-.427-5.126-1.7-3.432-9.269-3.414-9.345v-.005c.652-2.943,3.1-4.767,7.481-5.577,3.649-.675,7.262.345,8.991,2.538a.5.5,0,1,0,.785-.619c-1.952-2.475-5.955-3.643-9.958-2.9-4.168.77-6.749,2.431-7.857,5.049-.041-.334-.076-.777-.092-1.36a6.138,6.138,0,0,1,.871-3.177,9.521,9.521,0,0,0,1.212-4.6,6.216,6.216,0,0,1,5.844-6.082,4.39,4.39,0,0,1,3.459.819,2.764,2.764,0,0,1,.826,1.164c-3.316.131-6.125.89-7.232,1.868a.5.5,0,1,0,.662.75c.961-.847,3.805-1.59,7.19-1.644.013,0,.024.006.037.005s.014,0,.021-.006a22.127,22.127,0,0,1,7.193,1.051,9.013,9.013,0,0,0-.41,2.9c0,3.144,1.907,5.245,5.291,5.94a9.552,9.552,0,0,1-2.142,6.866.487.487,0,0,0-.087.1,6.7,6.7,0,0,1-1.734,1.39,7.425,7.425,0,0,0-2.767-.517c-1-.01-2.4-.943-3.77-1.827A12.771,12.771,0,0,0,79.6,89.458a6.165,6.165,0,0,0-5.214.83c-.276.2-.922.733-.956,1.282a.515.515,0,0,0,.465.549.483.483,0,0,0,.527-.449c.111-.338,1.906-1.987,4.938-1.241a12.578,12.578,0,0,1,2.992,1.607c1.49.957,3.052,1.954,4.279,1.985a5.805,5.805,0,0,1,2.523.494h0c3.379,2.212,1.754,6.481,1.612,6.836-2.415,4.436-5.5,4.075-9.067,3.654l-.75-.086c-2.394-.262-4.172.526-4.638,1.4a.5.5,0,1,0,.883.47c.217-.409,1.544-1.112,3.645-.878l.742.085c3.422.4,6.954.808,9.648-3.472,1.27,2.085,1.709,3.912,1.287,5.433C91.918,110.137,89.706,111.166,88.873,111.553Zm15.841,2.567a6.244,6.244,0,0,1-.836.229c-.6.067-1.171.152-1.678.257-.011,0-.019.01-.029.013a19.78,19.78,0,0,0-7.743,3.9c.026-2.18-1.983-4.712-3.548-6.676l-.133-.168a8.134,8.134,0,0,0,.78-.566c.844,1.446,1.624,2.46,3.386,2.569a13.356,13.356,0,0,0,5.06-1.085.5.5,0,1,0-.342-.94c-5.5,2-6.161.842-7.363-1.256l0,0a5.365,5.365,0,0,0,1.219-2.167,5.726,5.726,0,0,0,.116-2.395,3.841,3.841,0,0,0,1.145.311c.07.007.14.014.212.018,2.116.132,4.843-1.109,7.711-3.515a.5.5,0,1,0-.643-.766c-3.717,3.118-6.1,3.385-7.172,3.268a2.365,2.365,0,0,1-1.63-.8,13.15,13.15,0,0,0-1.447-2.842,8.714,8.714,0,0,0,.346-4.277,2.952,2.952,0,0,0,.425.261,1.2,1.2,0,0,0,.423.1c2.551.158,9.568-5.243,10.432-6.138a.5.5,0,0,0-.719-.695c-1.606,1.662-8.6,6.336-9.719,5.825-1.085-.5-1.348-1.644-.909-3.925A10.454,10.454,0,0,0,94.4,85.341c.231.027.464.05.706.065,3.361.209,6.7-1.943,9.019-3.919.434.462.905.973,1.425,1.547.226.25.445.521.664.79-2.8,1.521-9.656,6.007-10.956,7.556a.5.5,0,0,0,.766.643c1.173-1.4,8.077-5.954,10.816-7.4.09.12.181.239.27.362.1.377.2.747.3,1.1.7,2.514,1.2,4.331-.649,5.949a67.073,67.073,0,0,1-5.479,3.921,62.264,62.264,0,0,0-5.823,4.2.5.5,0,1,0,.674.739,61.956,61.956,0,0,1,5.708-4.113l.4-.271c1.626.1,3.938,1.026,3.9,3,0,.24,0,.479.008.717.049,2.017.1,3.922-7.1,7.27a.5.5,0,0,0,.422.907c1.012-.471,1.886-.919,2.65-1.349a5.316,5.316,0,0,1,2.817,2.688A5.178,5.178,0,0,1,104.714,114.119Zm1.313-.654a5.853,5.853,0,0,0-.169-4.119,6.291,6.291,0,0,0-2.7-2.9,12.4,12.4,0,0,0,2.692-2.153c1.646,1.345,3.614,4.276,2.935,7.526a6.641,6.641,0,0,0-2.03,1.125C106.521,113.123,106.283,113.3,106.027,113.465ZM135.779,87.94l-.318,5.107a16.886,16.886,0,0,0-.4,5.711,6.7,6.7,0,0,0-2.434,2.746c-1.431.645-2.651,3.05-3.056,3.923a7.046,7.046,0,0,0-3.169,1.77,10.237,10.237,0,0,0-3.166,2.778,7.4,7.4,0,0,0-3.8,1.6,12.633,12.633,0,0,0-3.862,1.065c-1.743-.011-4.334,1.36-5.073,1.771a16.689,16.689,0,0,0-3.723-.243c.2-.138.393-.278.578-.414a5.134,5.134,0,0,1,1.979-1.056,12.339,12.339,0,0,1,3.069-.269,5.357,5.357,0,0,0,1.354-.087,5.251,5.251,0,0,0,1.3-.7c.282-.182.6-.377.926-.566a6.058,6.058,0,0,0,.736-.375,5.21,5.21,0,0,1,1.02-.358c.927-.2,1.467-.293,1.881-.362a10.27,10.27,0,0,0,1.056-.214,4.6,4.6,0,0,0,1.694-1.417c.187-.2.383-.411.58-.613a5.087,5.087,0,0,0,.879-.768,2.16,2.16,0,0,1,.247-.158,12.417,12.417,0,0,0,2.852-1.785,9.238,9.238,0,0,0,1.064-1.267,9.427,9.427,0,0,1,1.471-1.68c.9-.68,3.366-2.389,3.391-2.406a.5.5,0,0,0,.209-.489c-.142-.9-.377-3.441.225-4.4a.5.5,0,0,0,.073-.33c0-.033-.4-3.265.533-4.88a.5.5,0,0,0,.018-.468,7.276,7.276,0,0,1,.726-6.6.5.5,0,0,0,0-.522,8.188,8.188,0,0,1-1.012-5.426.5.5,0,0,0-.1-.429c-.029-.035-2.772-3.5-2.2-7.2.092.762.174,1.236.182,1.281a12.353,12.353,0,0,0,2.295,6.238,3.9,3.9,0,0,1,.3.468,24.617,24.617,0,0,1,1.066,4.932.49.49,0,0,0,.028.115A31.168,31.168,0,0,1,135.779,87.94Z" transform="translate(-59.373 -47.272)"/><path class="cls-4" d="M72.079,60.723A34.373,34.373,0,0,1,80.33,63.9a.508.508,0,0,0,.375.043c1.483-.414,5.6.747,7.063,1.229a.508.508,0,0,0,.126.024.5.5,0,0,0,.118-.007,22.263,22.263,0,0,1,7.126.451.532.532,0,0,0,.261-.01c2.276-.708,11.194-.214,11.347-.209.432-.031,1.25-.174,2.284-.354a27.585,27.585,0,0,1,5.656-.653.506.506,0,0,0,.36-.076c1.931-1.284,5.436-3.228,6.671-2.955a.508.508,0,0,0,.428-.105c1.471-1.234,4.192-3.209,5.232-3.253a.5.5,0,0,0,.472-.416c.25-1.469,1.036-3.885,2.085-4.117a.5.5,0,1,0-.216-.976c-1.767.39-2.558,3.463-2.787,4.571-1.669.4-4.473,2.638-5.257,3.283-2.038-.153-6.066,2.408-7.025,3.032a30.425,30.425,0,0,0-5.79.679c-.967.169-1.8.314-2.12.341-.368-.021-8.885-.493-11.5.214a22.709,22.709,0,0,0-7.271-.455c-.916-.3-5.279-1.65-7.321-1.252a34.034,34.034,0,0,0-8.378-3.189.493.493,0,0,0-.583.4A.5.5,0,0,0,72.079,60.723Z" transform="translate(-59.373 -47.272)"/></g><path id="OUTLINE" class="cls-3" d="M93.9,150.508a4.3,4.3,0,0,1-.645-.093h0c-2.274-.5-2.593-2.49-2.9-4.419a14.138,14.138,0,0,0-.518-2.363A53.967,53.967,0,0,1,87.7,132.366c-.316-3.341,1.283-7.417,2.022-9.086-3.456-.061-6.148-2.759-6.576-4.053a3.472,3.472,0,0,0-1.99-1.95,1.183,1.183,0,0,0-1.175.384,6.69,6.69,0,0,1-2.1,1.395l-.23.108.01.009c.971.88,3.195,3.758,3.1,5.337-.028.445.517,1.186.914,1.728.5.685.9,1.226.759,1.738a.786.786,0,0,1-.469.515,1.034,1.034,0,0,1-.86-.046c-1.143-.533-2.541-3.064-3-4.573-.222-.728-2.026-.87-4.114-1.036a38.6,38.6,0,0,1-5.757-.774c-4.89-1.131-5.6-6.955-5.7-8.31-2.081-1.464-1.836-6.2-1.741-7.371-2.335-3.052-1.132-7.288-.832-8.2a9.931,9.931,0,0,1,.411-5.957,12,12,0,0,1,2.112-5.942A22.936,22.936,0,0,1,63.913,80.4a49.594,49.594,0,0,1,.362-5.856c-.653-1.54-.482-4.628-.425-5.419-1.167-1.721-2.524-5.243-1.456-7.913a5.06,5.06,0,0,1,4.1-3.027,5.415,5.415,0,0,0,2.325-1.021,3.324,3.324,0,0,1,1.3-.641c3.238-.613,4.82.46,5.373.982,2.5-.447,6.027,1.455,6.9,1.955,3.117-.894,7.238.609,8.119.956a22.649,22.649,0,0,1,5.934-.041c1.884-.832,6.759.031,7.957.262,1.619-1.027,5-1.11,5.837-1.114,1.4-1.071,4.328-1.348,5.05-1.4a13.432,13.432,0,0,1,5.486-2.2,10.839,10.839,0,0,1,3.22-3.292,6.174,6.174,0,0,1,2.946-4.525,5.283,5.283,0,0,1,4.945-.392,5.19,5.19,0,0,0,2.668.291c1.5-.114,3.05-.228,4.132,2.587a8.973,8.973,0,0,1-1.713,9.188c1.182,2.528.056,6.318-.3,7.368,1.492,2.037,1,6,.824,7.094a7.843,7.843,0,0,1,2.349,7.571c2.435,3.293,1.351,5.974.868,6.852,1.761,3.017-.363,6.749-.909,7.616.909,4.846-1.52,6.688-2.419,7.193a10.87,10.87,0,0,1-1.938,5.477,4.3,4.3,0,0,1-2.97,2.135,2.3,2.3,0,0,0-1.357.684,14.78,14.78,0,0,0-1.292,1.611,8.618,8.618,0,0,1-2.769,2.772,4.788,4.788,0,0,1-2.79.587.676.676,0,0,0-.978.65,4.363,4.363,0,0,1-1.831,2.494,3.512,3.512,0,0,1-3.455.039,2.239,2.239,0,0,0-1.183-.264c-.268.088-.421.352-.688.851a6.04,6.04,0,0,1-2.442,2.644,2.261,2.261,0,0,1-2.578.2.976.976,0,0,0-.649-.178c-.116.016-.137.019-.246.48a3.255,3.255,0,0,1-1.7,2.349,2.716,2.716,0,0,1-3.108-.3l-.139-.091a4.168,4.168,0,0,1-1.988,2.072,27.4,27.4,0,0,1-4.133,15.739,10.614,10.614,0,0,0-1.165,2.658C97.289,148.142,96.423,150.665,93.9,150.508Zm-3.351-28.266a.5.5,0,0,1,.416.722c-.026.053-2.648,5.371-2.275,9.308a53.781,53.781,0,0,0,2.089,11.036,14.883,14.883,0,0,1,.56,2.531c.323,2.015.6,3.266,2.129,3.6h0c2.017.44,2.694-1.1,3.579-3.678a11.431,11.431,0,0,1,1.3-2.922c1.642-2.257,4.575-9.313,3.913-15.391a.5.5,0,0,1,.3-.514c.43-.184,1.586-.845,1.781-1.685a.924.924,0,0,1,.505-.693c.4-.16.748.072,1.119.316a1.745,1.745,0,0,0,2.056.271,2.3,2.3,0,0,0,1.224-1.715c.113-.477.267-1.13,1.084-1.241a1.918,1.918,0,0,1,1.25.284c.4.21.689.363,1.6-.178a5.092,5.092,0,0,0,2.071-2.256,2.322,2.322,0,0,1,1.256-1.328,2.78,2.78,0,0,1,1.852.279,2.564,2.564,0,0,0,2.55.06,3.356,3.356,0,0,0,1.434-1.985,1.871,1.871,0,0,1,.727-1.138,2.152,2.152,0,0,1,1.242-.186,3.809,3.809,0,0,0,2.268-.467,7.757,7.757,0,0,0,2.437-2.482,15.472,15.472,0,0,1,1.383-1.719,3.269,3.269,0,0,1,1.853-.962,3.378,3.378,0,0,0,2.374-1.736,9.842,9.842,0,0,0,1.764-5.207.5.5,0,0,1,.328-.476c.125-.048,3.112-1.249,2.061-6.413a.5.5,0,0,1,.077-.382c.028-.041,2.762-4.113.849-6.948a.5.5,0,0,1,.015-.58c.077-.1,1.892-2.651-.822-6.142a.5.5,0,0,1-.082-.457,6.853,6.853,0,0,0-2.2-6.967.5.5,0,0,1-.16-.467c.009-.049.9-4.91-.732-6.76a.5.5,0,0,1-.094-.506c.018-.046,1.713-4.668.29-7.121a.5.5,0,0,1,.088-.614,7.888,7.888,0,0,0,1.731-8.384c-.816-2.122-1.686-2.056-3.124-1.949a6.073,6.073,0,0,1-3.149-.376,4.3,4.3,0,0,0-4.02.335,5.132,5.132,0,0,0-2.487,3.977.5.5,0,0,1-.217.382c-.766.523-2.823,2.117-3.136,3.192a.5.5,0,0,1-.416.356A12.77,12.77,0,0,0,115.783,59a.5.5,0,0,1-.283.108c-.978.054-3.738.391-4.754,1.289a.5.5,0,0,1-.337.125c-1.154-.014-4.409.147-5.6,1.044a.491.491,0,0,1-.4.091c-1.672-.337-6.3-1.054-7.64-.332a.485.485,0,0,1-.294.058c-.043,0-4.209-.466-5.851.037a.5.5,0,0,1-.339-.017c-.048-.02-4.713-1.946-7.8-.926a.5.5,0,0,1-.415-.047c-.042-.026-4.228-2.531-6.621-1.893a.5.5,0,0,1-.535-.192c-.043-.055-1.176-1.486-4.61-.84a2.492,2.492,0,0,0-.914.481,6.438,6.438,0,0,1-2.708,1.182,4.125,4.125,0,0,0-3.358,2.416c-.9,2.254.3,5.515,1.446,7.111a.5.5,0,0,1,.092.334c-.092,1.052-.2,4.041.377,5.217a.5.5,0,0,1,.047.287,48.426,48.426,0,0,0-.371,5.956.493.493,0,0,1-.036.192,22.315,22.315,0,0,0-1.416,5.8.5.5,0,0,1-.092.259c-.021.029-2.049,2.9-2.008,5.566a.5.5,0,0,1-.037.2c-.013.031-1.237,3.074-.375,5.508a.5.5,0,0,1,0,.339c-.017.046-1.657,4.632.737,7.556a.5.5,0,0,1,.111.366c-.154,1.58-.195,5.874,1.447,6.747a.5.5,0,0,1,.265.425c0,.065.269,6.558,4.941,7.639a37.262,37.262,0,0,0,5.612.751c2.653.209,4.57.361,4.992,1.74a10.276,10.276,0,0,0,2.169,3.754c-.114-.17-.25-.355-.359-.5a4.158,4.158,0,0,1-1.106-2.381c.061-.987-1.683-3.549-2.77-4.535a1.088,1.088,0,0,1-.465-.926c.067-.437.471-.624.938-.839a5.728,5.728,0,0,0,1.808-1.191,2.173,2.173,0,0,1,2.115-.654,4.387,4.387,0,0,1,2.711,2.611,6.864,6.864,0,0,0,6.371,3.331A.475.475,0,0,1,90.549,122.242Z" transform="translate(-59.373 -47.272)"/><g id="SHINE"><path class="cls-5" d="M92.124,124.331c1.377-2.6,8.57-6.856,10.773-7.223s2.326,1.224,0,3.612-6.509,9.855-9.07,8.631S91.022,126.412,92.124,124.331Z" transform="translate(-59.373 -47.272)"/><path class="cls-6" d="M84.277,104.88a1.177,1.177,0,0,1-.472-.1c-3.027-1.313-8.376-.788-10.123-.006a1.263,1.263,0,0,1-1.7-.814,1.524,1.524,0,0,1,.727-1.9c2.359-1.056,8.364-1.6,12.036-.006a1.52,1.52,0,0,1,.745,1.89A1.317,1.317,0,0,1,84.277,104.88Z" transform="translate(-59.373 -47.272)"/><path class="cls-7" d="M80.485,95.6a9.8,9.8,0,0,0-3.747-.63,1.263,1.263,0,0,1-1.3-1.361,1.524,1.524,0,0,1,1.351-1.519,8.071,8.071,0,0,1,4.313.647C82.672,93.469,82.109,96.148,80.485,95.6Z" transform="translate(-59.373 -47.272)"/><path class="cls-8" d="M83.59,88.729a1.177,1.177,0,0,1-.472-.1c-3.027-1.313-8.376-.788-10.123-.006a1.263,1.263,0,0,1-1.7-.814,1.524,1.524,0,0,1,.727-1.9c2.359-1.056,8.364-1.6,12.036-.006a1.52,1.52,0,0,1,.745,1.89A1.317,1.317,0,0,1,83.59,88.729Z" transform="translate(-59.373 -47.272)"/><path class="cls-9" d="M86.125,80.779a1.492,1.492,0,0,1-.542-.1c-3.479-1.348-9.625-.809-11.633-.006a1.5,1.5,0,0,1-1.114-2.785c2.711-1.084,9.612-1.641,13.832-.006a1.5,1.5,0,0,1-.542,2.9Z" transform="translate(-59.373 -47.272)"/><path class="cls-10" d="M73.471,107.75a1.644,1.644,0,0,1,.571.1c3.662,1.348,10.132.809,12.246.006a1.607,1.607,0,0,1,2.052.836,1.476,1.476,0,0,1-.879,1.949c-2.854,1.084-10.118,1.641-14.56.006a1.477,1.477,0,0,1-.9-1.94A1.58,1.58,0,0,1,73.471,107.75Z" transform="translate(-59.373 -47.272)"/></g></svg>