<svg id="Layer_1" data-name="Layer 1" xmlns="http://www.w3.org/2000/svg" xmlns:xlink="http://www.w3.org/1999/xlink" viewBox="0 0 91.755 22.949"><defs><style>.cls-1{fill:url(#linear-gradient);}.cls-2{fill:#1a9e9e;}.cls-3{font-size:12px;fill:#fff;font-family:Arial-BoldMT, Arial;font-weight:700;}</style><linearGradient id="linear-gradient" x1="46.249" y1="1.347" x2="46.249" y2="21.347" gradientUnits="userSpaceOnUse"><stop offset="0" stop-color="#1a9e9e"/><stop offset="1" stop-color="#d67d1b"/></linearGradient></defs><title>FOLLITROPIN</title><g id="FOLLITROPIN"><rect class="cls-1" x="1.249" y="1.347" width="90" height="20" rx="9.945" ry="9.945"/><path class="cls-2" d="M133.386,112.848c-8.453-.009-16.906.43-25.359.837-8.453.458-16.906.546-25.359.613-4.226,0-8.453.019-12.679-.037l-6.34-.076a12.067,12.067,0,0,1-3.537-.5,11.827,11.827,0,0,1-3.247-1.579,11.292,11.292,0,0,1-4.229-5.685,11.477,11.477,0,0,1-.011-7.016,10.97,10.97,0,0,1,10.65-7.533c8.453.261,16.906.449,25.359.335,4.226-.049,8.453-.194,12.679-.349l12.679-.413c4.227-.085,8.453-.131,12.679-.071q3.17.022,6.34.128a11.022,11.022,0,0,1,3.434.551,11.4,11.4,0,0,1,3.084,1.613,10.806,10.806,0,0,1,3.865,5.517,10.956,10.956,0,0,1-.13,6.562A10.559,10.559,0,0,1,133.386,112.848Zm0-.3a9.66,9.66,0,0,0,5.787-1.988,9.348,9.348,0,0,0,2.982-10.94,9.278,9.278,0,0,0-3.692-4.4,9.387,9.387,0,0,0-5.451-1.335q-3.17.108-6.34.128c-4.226.061-8.453.015-12.679-.071l-12.679-.413c-4.227-.155-8.453-.3-12.679-.349-8.453-.114-16.906.074-25.359.335a9.02,9.02,0,0,0-5.3,1.973A9.2,9.2,0,0,0,54.9,100.1a8.977,8.977,0,0,0,.235,5.452,8.813,8.813,0,0,0,3.328,4.229,8.664,8.664,0,0,0,5.184,1.425l6.34-.076c4.227-.056,8.453-.036,12.679-.037,8.453.066,16.906.155,25.359.613C116.48,112.118,124.933,112.557,133.386,112.548Z" transform="translate(-52.081 -91.351)"/><text class="cls-3" transform="translate(6.253 14.235)">FOLLITROPIN</text></g></svg>