<svg id="Layer_1" data-name="Layer 1" xmlns="http://www.w3.org/2000/svg" xmlns:xlink="http://www.w3.org/1999/xlink" viewBox="0 0 70.005 118.378"><defs><style>.cls-1,.cls-2{opacity:0.85;}.cls-1{fill:url(#linear-gradient);}.cls-2{fill:url(#linear-gradient-2);}.cls-3{opacity:0.75;fill:url(#linear-gradient-3);}.cls-4{fill:url(#linear-gradient-4);}.cls-5{fill:url(#linear-gradient-5);}.cls-6{opacity:0.6;fill:url(#linear-gradient-6);}</style><linearGradient id="linear-gradient" x1="120.147" y1="70.747" x2="150.147" y2="70.747" gradientTransform="matrix(1, 0, 0, 1, -33.045, 23.523)" gradientUnits="userSpaceOnUse"><stop offset="0" stop-color="#57faff"/><stop offset="0.135" stop-color="#45c8d2"/><stop offset="0.304" stop-color="#328f9f"/><stop offset="0.468" stop-color="#216175"/><stop offset="0.624" stop-color="#153c54"/><stop offset="0.768" stop-color="#0b223c"/><stop offset="0.898" stop-color="#06132e"/><stop offset="1" stop-color="#040d29"/></linearGradient><linearGradient id="linear-gradient-2" x1="138.034" y1="76.675" x2="168.034" y2="76.675" xlink:href="#linear-gradient"/><linearGradient id="linear-gradient-3" x1="98.038" y1="76.675" x2="128.038" y2="76.675" xlink:href="#linear-gradient"/><linearGradient id="linear-gradient-4" x1="95.356" y1="101.57" x2="104.849" y2="101.605" gradientUnits="userSpaceOnUse"><stop offset="0" stop-color="#00122f"/><stop offset="0.004" stop-color="#021534"/><stop offset="0.066" stop-color="#1b407b"/><stop offset="0.122" stop-color="#2f62b4"/><stop offset="0.17" stop-color="#3e7bdd"/><stop offset="0.207" stop-color="#478af6"/><stop offset="0.23" stop-color="#4a90ff"/><stop offset="0.324" stop-color="#488dfa"/><stop offset="0.431" stop-color="#4385ed"/><stop offset="0.544" stop-color="#3b77d6"/><stop offset="0.661" stop-color="#3064b6"/><stop offset="0.782" stop-color="#214b8d"/><stop offset="0.903" stop-color="#102d5c"/><stop offset="1" stop-color="#00122f"/></linearGradient><linearGradient id="linear-gradient-5" x1="30.49" y1="21.176" x2="39.721" y2="21.21" gradientUnits="userSpaceOnUse"><stop offset="0" stop-color="#00122f"/><stop offset="0.012" stop-color="#011434"/><stop offset="0.202" stop-color="#0d387b"/><stop offset="0.373" stop-color="#1754b4"/><stop offset="0.518" stop-color="#1e68dd"/><stop offset="0.633" stop-color="#2274f6"/><stop offset="0.702" stop-color="#2479ff"/><stop offset="0.738" stop-color="#2377fa"/><stop offset="0.78" stop-color="#2170ed"/><stop offset="0.823" stop-color="#1d65d6"/><stop offset="0.869" stop-color="#1755b6"/><stop offset="0.915" stop-color="#10418d"/><stop offset="0.963" stop-color="#08285c"/><stop offset="1" stop-color="#00122f"/></linearGradient><linearGradient id="linear-gradient-6" x1="117.254" y1="82.24" x2="147.254" y2="82.24" xlink:href="#linear-gradient"/></defs><title>Potassium_channel</title><g id="Potassium_channel"><path class="cls-1" d="M102.117,147.7a15,15,0,0,1-15-15l-.009-76.884a15,15,0,0,1,30,0l.009,76.884A15,15,0,0,1,102.117,147.7Z" transform="translate(-64.998 -40.811)"/><path class="cls-2" d="M120,153.622a15,15,0,0,1-15-15l-.009-76.883a15,15,0,0,1,30,0L135,138.62A15,15,0,0,1,120,153.622Z" transform="translate(-64.998 -40.811)"/><path class="cls-3" d="M80.009,153.626a15,15,0,0,1-15-15L65,61.744a15,15,0,0,1,30,0l.009,76.884A15,15,0,0,1,80.009,153.626Z" transform="translate(-64.998 -40.811)"/><path class="cls-4" d="M95.007,62v77.135c0,1.133,2.235,2.052,4.993,2.052s4.993-.919,4.993-2.052V62Z" transform="translate(-64.998 -40.811)"/><ellipse class="cls-5" cx="35.002" cy="21.192" rx="4.993" ry="2.052"/><path class="cls-6" d="M99.225,159.189a15,15,0,0,1-15-15l-.009-76.884a15,15,0,0,1,30,0l.009,76.884A15,15,0,0,1,99.225,159.189Z" transform="translate(-64.998 -40.811)"/></g></svg>