<svg id="Layer_1" data-name="Layer 1" xmlns="http://www.w3.org/2000/svg" xmlns:xlink="http://www.w3.org/1999/xlink" viewBox="0 0 58.29 22.917"><defs><style>.cls-1{fill:url(#linear-gradient);}.cls-2{fill:#075edd;}.cls-3{font-size:12px;fill:#fff;font-family:Arial-BoldMT, Arial;font-weight:700;}.cls-4{letter-spacing:-0.037em;}</style><linearGradient id="linear-gradient" x1="29.397" y1="21.309" x2="29.397" y2="1.309" gradientUnits="userSpaceOnUse"><stop offset="0" stop-color="#c5d015"/><stop offset="1" stop-color="#075edd"/></linearGradient></defs><title>CDKN2A</title><g id="CDKN2A"><rect class="cls-1" x="1.397" y="1.309" width="56" height="20" rx="10" ry="10"/><path class="cls-2" d="M114.987,113.91c-5.616-.009-11.231.43-16.847.837-5.616.458-11.231.546-16.847.613-.7.016-1.4,0-2.106,0a13.611,13.611,0,0,1-2.4-.22,10.921,10.921,0,0,1-4.442-1.933,11.5,11.5,0,0,1-4.7-8.137,11.051,11.051,0,0,1,2.988-8.751,10.9,10.9,0,0,1,8.349-3.384c5.616.282,11.231.437,16.847.335,5.616-.084,11.231-.574,16.847-.762l2.106-.058c.344-.01.78.007,1.165.024s.789.1,1.183.157A10.546,10.546,0,0,1,121.49,94.5a10.591,10.591,0,0,1,3.655,12.467,11.042,11.042,0,0,1-10.157,6.94Zm0-.3a9.158,9.158,0,0,0,8.979-10.89,9.508,9.508,0,0,0-4.009-6.043,9.045,9.045,0,0,0-3.33-1.419,13.207,13.207,0,0,0-1.84-.192l-2.106-.058c-5.616-.188-11.231-.678-16.847-.762-5.616-.1-11.231.053-16.847.335a9.132,9.132,0,0,0-6.552,3.344,8.779,8.779,0,0,0-1.968,6.821A8.673,8.673,0,0,0,77.4,112a10.322,10.322,0,0,0,1.79.153c.7,0,1.4-.012,2.106,0,5.616.066,11.231.155,16.847.613C103.756,113.18,109.372,113.619,114.987,113.61Z" transform="translate(-67.59 -92.451)"/><text class="cls-3" transform="translate(4.618 14.131)">CDKN2<tspan class="cls-4" x="41.338" y="0">A</tspan></text></g></svg>