<svg id="Layer_1" data-name="Layer 1" xmlns="http://www.w3.org/2000/svg" viewBox="0 0 37.017 153.245"><defs><style>.cls-1{fill:#fff;}.cls-2,.cls-3{fill:none;stroke:#0f82bc;stroke-linecap:round;stroke-linejoin:round;}.cls-3{stroke-width:0.5px;}</style></defs><title>boy</title><g id="BOY"><path class="cls-1" d="M116.374,102.018c.085-2.188,1.961-12.732,1.6-16.568s.1-5.509,0-8.378-.615-11.335-.717-17.738-4.047-6.813-5.225-6.916-2.815-1.412-5.2-2.265-2.046-6.366-2.046-6.366c1.421-2.046,1.762-1.762,1.762-3.183a2.278,2.278,0,0,0,1.421-2.274c0-1.819.284-3.069-.739-2.9,0,0,2.465-11.2-6.821-11.2s-6.728,11.2-6.728,11.2c-1.023-.171-.739,1.08-.739,2.9A2.278,2.278,0,0,0,94.357,40.6c0,1.421.341,1.137,1.762,3.183,0,0,1.1,5.664-1.287,6.517s-4.3,2.012-5.479,2.114-5.123.512-5.225,6.916S82.15,74.2,82.047,77.071s.365,4.542,0,8.378,1.511,14.38,1.6,16.568-1.194,4.831-.6,5.854,1.449,2.16,1.449,2.16l1.62.4s.6-1.449.171-1.705,1.085-1.159.884-2.071-1.225-3.584-1.225-4.635.829-11.027.841-13.243-.523-7.759,0-10.572,1.425-11.651,1.425-11.651h0c.087.548.161,1.136.2,1.746.091,1.486.808,13.37.808,14.856s-.511,4.149,0,6.692c.376,1.875-1.025,9.855-.922,14.824s.085,21.976.017,24.282-.683,6.813-.222,7.582-.1,9.989.222,14.292.68,11.207.68,11.207a16.031,16.031,0,0,1-.345,5.444c-.069.551.551,2.274-.551,3.859s-2.236,2.124-2.357,2.975-.264,1.642.588,1.44a.572.572,0,0,0,.872.162s.568.556,1.075.146c0,0,.481.6,1.275-.045,0,0,.145.466,1.179.466a1.386,1.386,0,0,0,1.338-.75s1.561-.345,1.176-2.575c0,0,.852-.162.811-1.419s-.487-1.034-.487-2.23.669-1.784.669-2.433-.814-1.317-.73-3.061,2.358-8.395,2.373-15.183c.011-4.949-.512-9.733-.461-11.629s2.2-12.96,2.92-18.237,1.434-7.633,1.434-12.448h.474c0,4.815.717,7.172,1.434,12.448s2.869,16.342,2.92,18.237-.472,6.68-.461,11.629c.015,6.789,2.289,13.439,2.373,15.183s-.73,2.413-.73,3.061.669,1.237.669,2.433-.446.973-.487,2.23.811,1.419.811,1.419c-.385,2.23,1.176,2.575,1.176,2.575a1.386,1.386,0,0,0,1.338.75c1.034,0,1.179-.466,1.179-.466.793.649,1.275.045,1.275.045.507.41,1.075-.146,1.075-.146a.572.572,0,0,0,.872-.162c.851.2.71-.588.588-1.44s-1.255-1.391-2.357-2.975-.482-3.308-.551-3.859a16.031,16.031,0,0,1-.345-5.444s.357-6.9.68-11.207-.239-13.524.222-14.292-.154-5.276-.222-7.582-.085-19.313.017-24.282S110.313,91.7,110.8,89.846c.591-2.254,0-5.206,0-6.692s.717-13.37.808-14.856c.037-.611.111-1.2.2-1.746h0s.9,8.837,1.425,11.651-.012,8.355,0,10.572.841,12.192.841,13.243-1.023,3.723-1.225,4.635,1.31,1.816.884,2.071.171,1.705.171,1.705l1.62-.4s.853-1.137,1.449-2.16S116.289,104.206,116.374,102.018Z" transform="translate(-81.5 -23.735)"/><path class="cls-2" d="M104.779,43.787s-.341,5.513,2.046,6.366,4.024,2.163,5.2,2.265,5.123.512,5.225,6.916.615,14.869.717,17.738-.365,4.542,0,8.378-1.511,14.38-1.6,16.568,1.194,4.831.6,5.854-1.449,2.16-1.449,2.16l-1.62.4s-.6-1.449-.171-1.705-1.085-1.159-.884-2.071,1.225-3.584,1.225-4.636-.829-11.027-.841-13.243.523-7.759,0-10.572-1.425-11.651-1.425-11.651" transform="translate(-81.5 -23.735)"/><path class="cls-2" d="M105.774,97.243a14.237,14.237,0,0,1-2.956,2.472,2.4,2.4,0,0,0-.938,2.393c.1,1.746.056,4.354-1.942,4.406S98.1,102.3,98.1,102.3c0-1.449-.114-1.449-.824-2.131s-2.529-1.847-3.211-2.643" transform="translate(-81.5 -23.735)"/><path class="cls-2" d="M100.758,101.7s.547,3.591-.694,3.559-.741-3.559-.741-3.559" transform="translate(-81.5 -23.735)"/><path class="cls-2" d="M99.224,87.3c0,.82,1.432.717,1.022,0" transform="translate(-81.5 -23.735)"/><path class="cls-2" d="M112.206,64.49a25.605,25.605,0,0,0-.6,3.808c-.091,1.486-.808,13.37-.808,14.856s.591,4.438,0,6.692c-.485,1.85,1.025,9.855.922,14.824s-.085,21.977-.017,24.282.683,6.813.222,7.582.1,9.989-.222,14.292-.68,11.207-.68,11.207a16.032,16.032,0,0,0,.345,5.444c.069.551-.551,2.274.551,3.859s2.236,2.124,2.357,2.975.264,1.642-.588,1.44a.572.572,0,0,1-.872.162s-.568.556-1.075.146c0,0-.481.6-1.275-.045,0,0-.145.466-1.179.466a1.386,1.386,0,0,1-1.338-.75s-1.561-.345-1.176-2.575c0,0-.852-.162-.811-1.419s.487-1.034.487-2.23-.669-1.784-.669-2.433.814-1.317.73-3.061-2.358-8.395-2.373-15.183c-.011-4.949.512-9.733.461-11.629s-2.2-12.961-2.92-18.237-1.434-7.633-1.434-12.448" transform="translate(-81.5 -23.735)"/><path class="cls-2" d="M96.119,43.787s1.1,5.664-1.287,6.517-4.3,2.012-5.479,2.114-5.123.512-5.225,6.916S82.149,74.2,82.047,77.071s.365,4.542,0,8.378,1.511,14.38,1.6,16.568-1.194,4.831-.6,5.854,1.449,2.16,1.449,2.16l1.62.4s.6-1.449.171-1.705,1.085-1.159.884-2.071-1.225-3.584-1.225-4.636.829-11.027.841-13.243-.523-7.759,0-10.572,1.425-11.651,1.425-11.651" transform="translate(-81.5 -23.735)"/><path class="cls-2" d="M87.812,64.49a25.605,25.605,0,0,1,.6,3.808c.091,1.486.808,13.37.808,14.856s-.511,4.149,0,6.692c.377,1.875-1.025,9.855-.922,14.824s.085,21.977.017,24.282-.683,6.813-.222,7.582-.1,9.989.222,14.292.68,11.207.68,11.207a16.032,16.032,0,0,1-.345,5.444c-.069.551.551,2.274-.551,3.859s-2.236,2.124-2.357,2.975-.264,1.642.588,1.44a.572.572,0,0,0,.872.162s.568.556,1.075.146c0,0,.481.6,1.275-.045,0,0,.145.466,1.179.466a1.386,1.386,0,0,0,1.338-.75s1.561-.345,1.176-2.575c0,0,.852-.162.811-1.419s-.487-1.034-.487-2.23.669-1.784.669-2.433-.814-1.317-.73-3.061,2.358-8.395,2.373-15.183c.011-4.949-.512-9.733-.461-11.629s2.2-12.961,2.92-18.237,1.434-7.633,1.434-12.448" transform="translate(-81.5 -23.735)"/><path class="cls-2" d="M100.5,46.06c-1.987,0-2.956-.227-4.377-2.274s-1.762-1.762-1.762-3.183a2.278,2.278,0,0,1-1.421-2.274c0-1.819-.284-3.069.739-2.9,0,0-2.558-11.2,6.728-11.2s6.821,11.2,6.821,11.2c1.023-.171.739,1.08.739,2.9a2.278,2.278,0,0,1-1.421,2.274c0,1.421-.341,1.137-1.762,3.183S102.483,46.06,100.5,46.06Z" transform="translate(-81.5 -23.735)"/><path class="cls-3" d="M99.567,39.717c.121-.121.333.061.454.212a.852.852,0,0,0,.878,0c.122-.122.345-.384.606-.162" transform="translate(-81.5 -23.735)"/><path class="cls-3" d="M103.973,36.522a1.571,1.571,0,0,1-.812.161c-.782-.057-1.011-.21-1.2-.191" transform="translate(-81.5 -23.735)"/><path class="cls-3" d="M96.925,36.52a1.339,1.339,0,0,0,.767.163c.782-.057,1.011-.21,1.2-.191" transform="translate(-81.5 -23.735)"/><path class="cls-3" d="M102.125,42.038a6.374,6.374,0,0,0-1.015-.013c-.311.062-.133.125-.573.125s-.393-.161-.673-.143c-.2.013-.648.079-.97.117" transform="translate(-81.5 -23.735)"/></g></svg>