<svg id="Layer_1" data-name="Layer 1" xmlns="http://www.w3.org/2000/svg" xmlns:xlink="http://www.w3.org/1999/xlink" viewBox="0 0 46.936 34.832"><defs><style>.cls-1{fill:#ff965e;}.cls-2{fill:url(#linear-gradient);}.cls-3{font-size:12px;fill:#fff;font-family:Arial-BoldMT, Arial;font-weight:700;}</style><linearGradient id="linear-gradient" x1="99.873" y1="117.81" x2="99.873" y2="82.19" gradientUnits="userSpaceOnUse"><stop offset="0" stop-color="#ff965e"/><stop offset="1" stop-color="#8552eb"/></linearGradient></defs><title>PP2A,PPP5C</title><g id="PP2A_PPP5C" data-name="PP2A,PPP5C"><rect class="cls-1" x="1.596" y="0.834" width="44" height="32.619" rx="10" ry="10"/><path class="cls-2" d="M112,116.46c-5.667-.009-11.335.419-17,.823-1.417.092-2.834.216-4.25.277a27.091,27.091,0,0,1-4.459.043,11.316,11.316,0,0,1-9.757-9.629,14.89,14.89,0,0,1-.128-2.349l.02-2.125L76.57,95c.014-.705.015-1.393.089-2.237a11.779,11.779,0,0,1,.493-2.362A10.961,10.961,0,0,1,88,82.869c5.667.29,11.335.455,17,.323,1.417-.053,2.834-.076,4.25-.157a36.9,36.9,0,0,1,4.376-.094,10.73,10.73,0,0,1,9.586,9.122,12.6,12.6,0,0,1,.122,2.312L123.3,96.5c-.077,2.834-.218,5.667-.407,8.5a14.061,14.061,0,0,1-.745,4.385,10.771,10.771,0,0,1-2.375,3.737A10.894,10.894,0,0,1,112,116.46Zm0-.3a9.256,9.256,0,0,0,7.234-3.507,9.051,9.051,0,0,0,1.751-3.62,12.448,12.448,0,0,0,.124-4.031c-.189-2.834-.33-5.667-.407-8.5-.054-1.4,0-2.919-.148-4.051A9.452,9.452,0,0,0,119.327,89a9.292,9.292,0,0,0-5.964-4.314,29.139,29.139,0,0,0-4.111-.345c-1.417-.081-2.834-.1-4.25-.157-5.667-.132-11.335.033-17,.323a9.151,9.151,0,0,0-6.588,3.4,8.9,8.9,0,0,0-1.694,3.267,9.515,9.515,0,0,0-.293,1.806c-.028.569-.01,1.3.006,2.011l.145,8.5c.051,1.393-.042,2.935.124,4.014a8.8,8.8,0,0,0,1.234,3.316,8.7,8.7,0,0,0,5.787,3.937c1.11.206,2.627.194,4.028.293,1.417.061,2.834.186,4.25.277C100.665,115.741,106.333,116.169,112,116.16Z" transform="translate(-76.404 -82.857)"/><text class="cls-3" transform="translate(6.355 13.722)">PP2A,<tspan x="-2.335" y="14.4">PPP5C</tspan></text></g></svg>