<svg id="Layer_1" data-name="Layer 1" xmlns="http://www.w3.org/2000/svg" xmlns:xlink="http://www.w3.org/1999/xlink" viewBox="0 0 100 47.32"><defs><style>.cls-1{fill:url(#radial-gradient);}.cls-2{fill:url(#radial-gradient-2);}.cls-3{fill:url(#radial-gradient-3);}.cls-4{fill:url(#radial-gradient-4);}.cls-5{fill:url(#radial-gradient-5);}.cls-6{fill:url(#radial-gradient-6);}.cls-7{fill:url(#radial-gradient-7);}.cls-8{fill:#750d33;}.cls-9{fill:#e5376e;}.cls-10{opacity:0.5;fill:url(#radial-gradient-8);}.cls-11{fill:#dd1754;}.cls-12{fill:#ffd9e8;}.cls-13{fill:url(#radial-gradient-9);}.cls-14{fill:url(#radial-gradient-10);}.cls-15{fill:url(#radial-gradient-11);}.cls-16{fill:url(#radial-gradient-12);}.cls-17{fill:url(#radial-gradient-13);}.cls-18{fill:url(#radial-gradient-14);}.cls-19{fill:url(#radial-gradient-15);}.cls-20{fill:url(#radial-gradient-16);}.cls-21{fill:url(#radial-gradient-17);}.cls-22{fill:url(#radial-gradient-18);}.cls-23{fill:url(#radial-gradient-19);}.cls-24{fill:url(#radial-gradient-20);}.cls-25{fill:url(#radial-gradient-21);}.cls-26{fill:url(#radial-gradient-22);}.cls-27{fill:url(#radial-gradient-23);}.cls-28{fill:url(#radial-gradient-24);}.cls-29{fill:url(#radial-gradient-25);}.cls-30{fill:url(#radial-gradient-26);}.cls-31{fill:url(#radial-gradient-27);}.cls-32{fill:url(#radial-gradient-28);}.cls-33{fill:url(#radial-gradient-29);}.cls-34{fill:url(#radial-gradient-30);}.cls-35{fill:url(#radial-gradient-31);}.cls-36{fill:url(#radial-gradient-32);}.cls-37{fill:url(#radial-gradient-33);}.cls-38{fill:url(#radial-gradient-34);}.cls-39{fill:url(#radial-gradient-35);}.cls-40{fill:url(#radial-gradient-36);}.cls-41{fill:url(#radial-gradient-37);}.cls-42{fill:url(#radial-gradient-38);}.cls-43{fill:url(#radial-gradient-39);}.cls-44{fill:url(#radial-gradient-40);}.cls-45{fill:url(#radial-gradient-41);}.cls-46{fill:url(#radial-gradient-42);}.cls-47{fill:url(#radial-gradient-43);}.cls-48{fill:url(#radial-gradient-44);}.cls-49{fill:url(#radial-gradient-45);}.cls-50{fill:url(#radial-gradient-46);}.cls-51{fill:url(#radial-gradient-47);}.cls-52{fill:url(#radial-gradient-48);}.cls-53{fill:url(#radial-gradient-49);}.cls-54{fill:url(#radial-gradient-50);}.cls-55{fill:url(#radial-gradient-51);}.cls-56{fill:url(#radial-gradient-52);}.cls-57{fill:url(#radial-gradient-53);}.cls-58{fill:url(#radial-gradient-54);}.cls-59{fill:url(#radial-gradient-55);}.cls-60{fill:url(#radial-gradient-56);}.cls-61{fill:url(#radial-gradient-57);}.cls-62{fill:url(#radial-gradient-58);}.cls-63{fill:url(#radial-gradient-59);}.cls-64{fill:url(#radial-gradient-60);}.cls-65{fill:url(#radial-gradient-61);}.cls-66{fill:url(#radial-gradient-62);}.cls-67{fill:url(#radial-gradient-63);}.cls-68{fill:url(#radial-gradient-64);}.cls-69{fill:url(#radial-gradient-65);}.cls-70{fill:url(#radial-gradient-66);}.cls-71{fill:url(#radial-gradient-67);}.cls-72{fill:url(#radial-gradient-68);}.cls-73{fill:url(#radial-gradient-69);}.cls-74{fill:url(#radial-gradient-70);}.cls-75{fill:url(#radial-gradient-71);}.cls-76{fill:url(#radial-gradient-72);}.cls-77{fill:url(#radial-gradient-73);}.cls-78{fill:url(#radial-gradient-74);}.cls-79{fill:url(#radial-gradient-75);}.cls-80{fill:url(#radial-gradient-76);}.cls-81{fill:url(#radial-gradient-77);}.cls-82{fill:url(#radial-gradient-78);}.cls-83{fill:url(#radial-gradient-79);}.cls-84{fill:url(#radial-gradient-80);}.cls-85{mask:url(#mask);}.cls-86{fill:url(#radial-gradient-81);}.cls-87{fill:url(#radial-gradient-82);}.cls-88{fill:url(#radial-gradient-83);}.cls-89{fill:url(#radial-gradient-84);}.cls-90{fill:url(#radial-gradient-85);}.cls-91{fill:url(#radial-gradient-86);}.cls-92{fill:url(#radial-gradient-87);}.cls-93{fill:url(#linear-gradient);}.cls-94{fill:url(#linear-gradient-2);}.cls-95{fill:url(#linear-gradient-3);}.cls-96{fill:url(#linear-gradient-4);}.cls-97{fill:url(#linear-gradient-5);}.cls-98{fill:url(#linear-gradient-6);}.cls-99{fill:url(#linear-gradient-7);}.cls-100{fill:url(#linear-gradient-8);}</style><radialGradient id="radial-gradient" cx="67.405" cy="98.039" r="2.538" gradientUnits="userSpaceOnUse"><stop offset="0.607"/><stop offset="0.865" stop-color="#fff"/></radialGradient><radialGradient id="radial-gradient-2" cx="112.971" cy="94.353" r="2.538" gradientUnits="userSpaceOnUse"><stop offset="0.613"/><stop offset="0.865" stop-color="#fff"/></radialGradient><radialGradient id="radial-gradient-3" cx="116.538" cy="101.723" r="2.538" gradientUnits="userSpaceOnUse"><stop offset="0.691"/><stop offset="0.782" stop-color="#fff"/></radialGradient><radialGradient id="radial-gradient-4" cx="137.07" cy="98.925" r="2.538" gradientUnits="userSpaceOnUse"><stop offset="0.756"/><stop offset="1" stop-color="#fff"/></radialGradient><radialGradient id="radial-gradient-5" cx="97.753" cy="101.026" r="2.538" gradientUnits="userSpaceOnUse"><stop offset="0.622"/><stop offset="0.847" stop-color="#fff"/></radialGradient><radialGradient id="radial-gradient-6" cx="82.439" cy="98.564" r="2.538" gradientUnits="userSpaceOnUse"><stop offset="0.615"/><stop offset="0.865" stop-color="#fff"/></radialGradient><radialGradient id="radial-gradient-7" cx="78.089" cy="106.271" r="2.538" gradientUnits="userSpaceOnUse"><stop offset="0.618"/><stop offset="0.865" stop-color="#fff"/></radialGradient><radialGradient id="radial-gradient-8" cx="97.531" cy="98.423" r="52.885" gradientTransform="translate(0 65.203) scale(1 0.338)" gradientUnits="userSpaceOnUse"><stop offset="0.067" stop-color="#fff"/><stop offset="0.729" stop-color="#e5376e"/><stop offset="0.833" stop-color="#4d1244"/></radialGradient><radialGradient id="radial-gradient-9" cx="64.868" cy="94.929" r="2.485" gradientTransform="translate(-50 -68.705) scale(1 0.92)" gradientUnits="userSpaceOnUse"><stop offset="0" stop-color="#ff9cbf" stop-opacity="0.8"/><stop offset="0.401" stop-color="#e5376e" stop-opacity="0"/><stop offset="0.511" stop-color="#e0336a" stop-opacity="0.049"/><stop offset="0.688" stop-color="#d3295f" stop-opacity="0.184"/><stop offset="0.911" stop-color="#bd194c" stop-opacity="0.401"/><stop offset="1" stop-color="#b31244" stop-opacity="0.5"/></radialGradient><radialGradient id="radial-gradient-10" cx="62.023" cy="98.167" r="2.205" gradientTransform="translate(-50 -68.445) scale(1 0.92)" xlink:href="#radial-gradient-9"/><radialGradient id="radial-gradient-11" cx="60.739" cy="103.651" r="3.202" gradientTransform="translate(-50 -68.004) scale(1 0.92)" xlink:href="#radial-gradient-9"/><radialGradient id="radial-gradient-12" cx="77.099" cy="92.933" r="3.202" gradientTransform="translate(-50 -68.866) scale(1 0.92)" xlink:href="#radial-gradient-9"/><radialGradient id="radial-gradient-13" cx="87.817" cy="90.677" r="3.202" gradientTransform="translate(-50 -69.047) scale(1 0.92)" xlink:href="#radial-gradient-9"/><radialGradient id="radial-gradient-14" cx="99.099" cy="90.677" r="3.202" gradientTransform="translate(-50 -69.047) scale(1 0.92)" xlink:href="#radial-gradient-9"/><radialGradient id="radial-gradient-15" cx="109.253" cy="90.677" r="3.202" gradientTransform="translate(-50 -69.047) scale(1 0.92)" xlink:href="#radial-gradient-9"/><radialGradient id="radial-gradient-16" cx="71.073" cy="100.006" r="2.485" gradientTransform="translate(-50 -68.297) scale(1 0.92)" xlink:href="#radial-gradient-9"/><radialGradient id="radial-gradient-17" cx="68.228" cy="103.244" r="2.205" gradientTransform="translate(-50 -68.036) scale(1 0.92)" xlink:href="#radial-gradient-9"/><radialGradient id="radial-gradient-18" cx="82.331" cy="101.552" r="2.205" gradientTransform="translate(-50 -68.173) scale(1 0.92)" xlink:href="#radial-gradient-9"/><radialGradient id="radial-gradient-19" cx="84.587" cy="104.372" r="2.205" gradientTransform="translate(-50 -67.946) scale(1 0.92)" xlink:href="#radial-gradient-9"/><radialGradient id="radial-gradient-20" cx="88.536" cy="98.167" r="2.205" gradientTransform="translate(-50 -68.445) scale(1 0.92)" xlink:href="#radial-gradient-9"/><radialGradient id="radial-gradient-21" cx="94.177" cy="98.167" r="2.205" gradientTransform="translate(-50 -68.445) scale(1 0.92)" xlink:href="#radial-gradient-9"/><radialGradient id="radial-gradient-22" cx="111.665" cy="100.424" r="2.205" gradientTransform="translate(-50 -68.263) scale(1 0.92)" xlink:href="#radial-gradient-9"/><radialGradient id="radial-gradient-23" cx="116.178" cy="92.526" r="2.205" gradientTransform="translate(-50 -68.899) scale(1 0.92)" xlink:href="#radial-gradient-9"/><radialGradient id="radial-gradient-24" cx="113.357" cy="90.27" r="2.205" gradientTransform="translate(-50 -69.08) scale(1 0.92)" xlink:href="#radial-gradient-9"/><radialGradient id="radial-gradient-25" cx="79.51" cy="90.27" r="2.205" gradientTransform="translate(-50 -69.08) scale(1 0.92)" xlink:href="#radial-gradient-9"/><radialGradient id="radial-gradient-26" cx="68.228" cy="91.398" r="2.205" gradientTransform="translate(-50 -68.989) scale(1 0.92)" xlink:href="#radial-gradient-9"/><radialGradient id="radial-gradient-27" cx="63.151" cy="104.937" r="2.205" gradientTransform="translate(-50 -67.9) scale(1 0.92)" xlink:href="#radial-gradient-9"/><radialGradient id="radial-gradient-28" cx="64.279" cy="101.552" r="2.205" gradientTransform="translate(-50 -68.173) scale(1 0.92)" xlink:href="#radial-gradient-9"/><radialGradient id="radial-gradient-29" cx="59.767" cy="94.783" r="2.205" gradientTransform="translate(-50 -68.717) scale(1 0.92)" xlink:href="#radial-gradient-9"/><radialGradient id="radial-gradient-30" cx="73.15" cy="103.087" r="3.202" gradientTransform="translate(-50 -68.049) scale(1 0.92)" xlink:href="#radial-gradient-9"/><radialGradient id="radial-gradient-31" cx="81.791" cy="94.365" r="2.485" gradientTransform="translate(-50 -68.751) scale(1 0.92)" xlink:href="#radial-gradient-9"/><radialGradient id="radial-gradient-32" cx="78.946" cy="99.86" r="2.205" gradientTransform="translate(-50 -68.309) scale(1 0.92)" xlink:href="#radial-gradient-9"/><radialGradient id="radial-gradient-33" cx="84.432" cy="98.01" r="3.202" gradientTransform="translate(-50 -68.457) scale(1 0.92)" xlink:href="#radial-gradient-9"/><radialGradient id="radial-gradient-34" cx="91.945" cy="91.544" r="2.485" gradientTransform="translate(-50 -68.977) scale(1 0.92)" xlink:href="#radial-gradient-9"/><radialGradient id="radial-gradient-35" cx="89.1" cy="94.783" r="2.205" gradientTransform="translate(-50 -68.717) scale(1 0.92)" xlink:href="#radial-gradient-9"/><radialGradient id="radial-gradient-36" cx="94.022" cy="94.626" r="3.202" gradientTransform="translate(-50 -68.73) scale(1 0.92)" xlink:href="#radial-gradient-9"/><radialGradient id="radial-gradient-37" cx="120.151" cy="91.544" r="2.485" gradientTransform="translate(-50 -68.977) scale(1 0.92)" xlink:href="#radial-gradient-9"/><radialGradient id="radial-gradient-38" cx="117.306" cy="94.783" r="2.205" gradientTransform="translate(-50 -68.717) scale(1 0.92)" xlink:href="#radial-gradient-9"/><radialGradient id="radial-gradient-39" cx="122.227" cy="94.626" r="3.202" gradientTransform="translate(-50 -68.73) scale(1 0.92)" xlink:href="#radial-gradient-9"/><radialGradient id="radial-gradient-40" cx="129.741" cy="94.929" r="2.485" xlink:href="#radial-gradient-9"/><radialGradient id="radial-gradient-41" cx="126.896" cy="98.167" r="2.205" gradientTransform="translate(-50 -68.445) scale(1 0.92)" xlink:href="#radial-gradient-9"/><radialGradient id="radial-gradient-42" cx="131.817" cy="98.01" r="3.202" gradientTransform="translate(-50 -68.457) scale(1 0.92)" xlink:href="#radial-gradient-9"/><radialGradient id="radial-gradient-43" cx="119.587" cy="98.314" r="2.485" gradientTransform="translate(-50 -68.433) scale(1 0.92)" xlink:href="#radial-gradient-9"/><radialGradient id="radial-gradient-44" cx="113.357" cy="104.372" r="2.205" gradientTransform="translate(-50 -67.946) scale(1 0.92)" xlink:href="#radial-gradient-9"/><radialGradient id="radial-gradient-45" cx="118.279" cy="104.216" r="3.202" gradientTransform="translate(-50 -67.958) scale(1 0.92)" xlink:href="#radial-gradient-9"/><radialGradient id="radial-gradient-46" cx="99.279" cy="101.134" r="2.485" gradientTransform="translate(-50 -68.206) scale(1 0.92)" xlink:href="#radial-gradient-9"/><radialGradient id="radial-gradient-47" cx="96.434" cy="104.372" r="2.205" gradientTransform="translate(-50 -67.946) scale(1 0.92)" xlink:href="#radial-gradient-9"/><radialGradient id="radial-gradient-48" cx="101.355" cy="104.216" r="3.202" gradientTransform="translate(-50 -67.958) scale(1 0.92)" xlink:href="#radial-gradient-9"/><radialGradient id="radial-gradient-49" cx="104.92" cy="91.544" r="2.485" gradientTransform="translate(-50 -68.977) scale(1 0.92)" xlink:href="#radial-gradient-9"/><radialGradient id="radial-gradient-50" cx="102.075" cy="94.783" r="2.205" gradientTransform="translate(-50 -68.717) scale(1 0.92)" xlink:href="#radial-gradient-9"/><radialGradient id="radial-gradient-51" cx="106.996" cy="94.626" r="3.202" gradientTransform="translate(-50 -68.73) scale(1 0.92)" xlink:href="#radial-gradient-9"/><radialGradient id="radial-gradient-52" cx="68.026" cy="94.925" r="1.588" gradientTransform="translate(-50 -68.706) scale(1 0.92)" xlink:href="#radial-gradient-9"/><radialGradient id="radial-gradient-53" cx="84.949" cy="94.925" r="1.588" gradientTransform="translate(-50 -68.706) scale(1 0.92)" xlink:href="#radial-gradient-9"/><radialGradient id="radial-gradient-54" cx="73.667" cy="94.925" r="1.588" gradientTransform="translate(-50 -68.706) scale(1 0.92)" xlink:href="#radial-gradient-9"/><radialGradient id="radial-gradient-55" cx="84.385" cy="91.54" r="1.588" gradientTransform="translate(-50 -68.978) scale(1 0.92)" xlink:href="#radial-gradient-9"/><radialGradient id="radial-gradient-56" cx="107.514" cy="100.002" r="1.588" gradientTransform="translate(-50 -68.297) scale(1 0.92)" xlink:href="#radial-gradient-9"/><radialGradient id="radial-gradient-57" cx="124.437" cy="104.514" r="1.588" gradientTransform="translate(-50 -67.934) scale(1 0.92)" xlink:href="#radial-gradient-9"/><radialGradient id="radial-gradient-58" cx="135.719" cy="104.514" r="1.588" gradientTransform="translate(-50 -67.934) scale(1 0.92)" xlink:href="#radial-gradient-9"/><radialGradient id="radial-gradient-59" cx="137.411" cy="100.002" r="1.588" gradientTransform="translate(-50 -68.297) scale(1 0.92)" xlink:href="#radial-gradient-9"/><radialGradient id="radial-gradient-60" cx="73.667" cy="106.207" r="1.588" gradientTransform="translate(-50 -67.798) scale(1 0.92)" xlink:href="#radial-gradient-9"/><radialGradient id="radial-gradient-61" cx="92.283" cy="103.95" r="1.588" gradientTransform="translate(-50 -67.98) scale(1 0.92)" xlink:href="#radial-gradient-9"/><radialGradient id="radial-gradient-62" cx="103.565" cy="98.309" r="1.588" gradientTransform="translate(-50 -68.433) scale(1 0.92)" xlink:href="#radial-gradient-9"/><radialGradient id="radial-gradient-63" cx="114.847" cy="98.309" r="1.588" gradientTransform="translate(-50 -68.433) scale(1 0.92)" xlink:href="#radial-gradient-9"/><radialGradient id="radial-gradient-64" cx="109.206" cy="103.95" r="1.588" gradientTransform="translate(-50 -67.98) scale(1 0.92)" xlink:href="#radial-gradient-9"/><radialGradient id="radial-gradient-65" cx="120.488" cy="101.694" r="1.588" gradientTransform="translate(-50 -68.161) scale(1 0.92)" xlink:href="#radial-gradient-9"/><radialGradient id="radial-gradient-66" cx="126.129" cy="96.053" r="1.588" gradientTransform="translate(-50 -68.615) scale(1 0.92)" xlink:href="#radial-gradient-9"/><radialGradient id="radial-gradient-67" cx="63.435" cy="91.366" r="2.684" gradientTransform="translate(-50 -68.992) scale(1 0.92)" xlink:href="#radial-gradient-9"/><radialGradient id="radial-gradient-68" cx="74.718" cy="97.007" r="2.684" gradientTransform="translate(-50 -68.538) scale(1 0.92)" xlink:href="#radial-gradient-9"/><radialGradient id="radial-gradient-69" cx="76.41" cy="101.52" r="2.684" gradientTransform="translate(-50 -68.175) scale(1 0.92)" xlink:href="#radial-gradient-9"/><radialGradient id="radial-gradient-70" cx="87.692" cy="102.648" r="2.684" gradientTransform="translate(-50 -68.084) scale(1 0.92)" xlink:href="#radial-gradient-9"/><radialGradient id="radial-gradient-71" cx="98.974" cy="97.007" r="2.684" gradientTransform="translate(-50 -68.538) scale(1 0.92)" xlink:href="#radial-gradient-9"/><radialGradient id="radial-gradient-72" cx="110.257" cy="97.007" r="2.684" gradientTransform="translate(-50 -68.538) scale(1 0.92)" xlink:href="#radial-gradient-9"/><radialGradient id="radial-gradient-73" cx="127.18" cy="102.648" r="2.684" gradientTransform="translate(-50 -68.084) scale(1 0.92)" xlink:href="#radial-gradient-9"/><radialGradient id="radial-gradient-74" cx="17.056" cy="21.073" r="1.769" gradientUnits="userSpaceOnUse"><stop offset="0.448" stop-color="#750d33"/><stop offset="0.53" stop-color="#7c0e35" stop-opacity="0.932"/><stop offset="0.657" stop-color="#90103b" stop-opacity="0.744"/><stop offset="0.815" stop-color="#af1346" stop-opacity="0.438"/><stop offset="0.994" stop-color="#db1753" stop-opacity="0.016"/><stop offset="1" stop-color="#dd1754" stop-opacity="0"/></radialGradient><radialGradient id="radial-gradient-75" cx="62.591" cy="17.511" r="1.769" xlink:href="#radial-gradient-74"/><radialGradient id="radial-gradient-76" cx="66.241" cy="24.988" r="1.769" xlink:href="#radial-gradient-74"/><radialGradient id="radial-gradient-77" cx="86.631" cy="21.94" r="1.769" xlink:href="#radial-gradient-74"/><radialGradient id="radial-gradient-78" cx="47.409" cy="24.212" r="1.769" xlink:href="#radial-gradient-74"/><radialGradient id="radial-gradient-79" cx="31.955" cy="21.593" r="1.769" xlink:href="#radial-gradient-74"/><radialGradient id="radial-gradient-80" cx="27.709" cy="29.405" r="1.769" xlink:href="#radial-gradient-74"/><mask id="mask" x="14.67" y="15.437" width="74.651" height="16.971" maskUnits="userSpaceOnUse"><g transform="translate(-50 -76.34)"><circle class="cls-1" cx="67.209" cy="97.877" r="2.538"/><circle class="cls-2" cx="112.743" cy="94.316" r="2.538"/><circle class="cls-3" cx="116.393" cy="101.793" r="2.538"/><circle class="cls-4" cx="136.783" cy="98.744" r="2.538"/><circle class="cls-5" cx="97.562" cy="101.017" r="2.538"/><circle class="cls-6" cx="82.108" cy="98.398" r="2.538"/><circle class="cls-7" cx="77.861" cy="106.21" r="2.538"/></g></mask><radialGradient id="radial-gradient-81" cx="17.056" cy="21.073" r="1.769" gradientUnits="userSpaceOnUse"><stop offset="0.699" stop-color="#db5887" stop-opacity="0"/><stop offset="0.761" stop-color="#db5887"/><stop offset="0.865" stop-color="#ffd9e8"/><stop offset="0.879" stop-color="#fdd1e2"/><stop offset="0.9" stop-color="#f7bbd2"/><stop offset="0.926" stop-color="#ed97b7"/><stop offset="0.956" stop-color="#df6692"/><stop offset="0.958" stop-color="#de618e"/><stop offset="0.998" stop-color="#de618e" stop-opacity="0"/></radialGradient><radialGradient id="radial-gradient-82" cx="62.591" cy="17.511" r="1.769" xlink:href="#radial-gradient-81"/><radialGradient id="radial-gradient-83" cx="66.241" cy="24.988" r="1.769" xlink:href="#radial-gradient-81"/><radialGradient id="radial-gradient-84" cx="86.631" cy="21.94" r="1.769" xlink:href="#radial-gradient-81"/><radialGradient id="radial-gradient-85" cx="47.409" cy="24.212" r="1.769" xlink:href="#radial-gradient-81"/><radialGradient id="radial-gradient-86" cx="31.955" cy="21.593" r="1.769" xlink:href="#radial-gradient-81"/><radialGradient id="radial-gradient-87" cx="27.709" cy="29.405" r="1.769" xlink:href="#radial-gradient-81"/><linearGradient id="linear-gradient" x1="50" y1="112.677" x2="55.549" y2="112.677" gradientUnits="userSpaceOnUse"><stop offset="0.241" stop-color="#dd1754"/><stop offset="0.436" stop-color="#da1753"/><stop offset="0.577" stop-color="#d11650"/><stop offset="0.702" stop-color="#c1144b"/><stop offset="0.817" stop-color="#aa1244"/><stop offset="0.925" stop-color="#8e0f3b"/><stop offset="1" stop-color="#750d33"/></linearGradient><linearGradient id="linear-gradient-2" x1="117.294" y1="78.649" x2="112.308" y2="93.379" xlink:href="#linear-gradient"/><linearGradient id="linear-gradient-3" x1="126.744" y1="117.348" x2="116.656" y2="102.846" gradientUnits="userSpaceOnUse"><stop offset="0.111" stop-color="#dd1754"/><stop offset="0.339" stop-color="#da1753"/><stop offset="0.505" stop-color="#d11650"/><stop offset="0.651" stop-color="#c1144b"/><stop offset="0.786" stop-color="#aa1244"/><stop offset="0.912" stop-color="#8e0f3b"/><stop offset="1" stop-color="#750d33"/></linearGradient><linearGradient id="linear-gradient-4" x1="82.468" y1="122.051" x2="79.258" y2="105.2" xlink:href="#linear-gradient"/><linearGradient id="linear-gradient-5" x1="53.892" y1="80.202" x2="68.999" y2="94.493" xlink:href="#linear-gradient"/><linearGradient id="linear-gradient-6" x1="147.994" y1="84.794" x2="139.11" y2="100.671" xlink:href="#linear-gradient"/><linearGradient id="linear-gradient-7" x1="85.816" y1="87.551" x2="88.47" y2="92.927" gradientUnits="userSpaceOnUse"><stop offset="0" stop-color="#dd1754"/><stop offset="0.257" stop-color="#da1753"/><stop offset="0.443" stop-color="#d11650"/><stop offset="0.608" stop-color="#c1144b"/><stop offset="0.76" stop-color="#aa1244"/><stop offset="0.901" stop-color="#8e0f3b"/><stop offset="1" stop-color="#750d33"/></linearGradient><linearGradient id="linear-gradient-8" x1="106.676" y1="113.372" x2="98.021" y2="102.94" xlink:href="#linear-gradient"/></defs><title>R-ICO-013947</title><g id="R-ICO-013947"><g id="BODY"><path id="BG" class="cls-8" d="M142.222,99.2c-.5-1.683.553-3.014-.605-4.625-.3-.414-.737-.689-.956-1.164-.325-.707-.128-1.306-.675-1.934-.419-.481-1.073-.743-1.528-1.2-.433-.437-.768-.959-1.218-1.381a5.991,5.991,0,0,0-4.522-1.5,9.348,9.348,0,0,1-2.444.036,8.5,8.5,0,0,0-2.441-.387,26.557,26.557,0,0,1-5.432.139,49.358,49.358,0,0,0-11.062,0,31.564,31.564,0,0,1-4.914.322c-1.927-.091-3.793-.521-5.732-.481-1.716.036-3.41.387-5.118.418-1.912.034-3.761-.589-5.681-.572-1.817.016-3.553.547-5.348.637a10.806,10.806,0,0,1-2.533-.328,10.424,10.424,0,0,0-3.265.008c-3.717.457-7.451-.454-11.208-.191a75.663,75.663,0,0,0-7.905.848,6.744,6.744,0,0,0-3.879,2.222,13.011,13.011,0,0,0-1.208,1.758c-.557.876-1.313,1.617-1.838,2.508a6.16,6.16,0,0,0-.677,4.319c.157.778.526,1.492.716,2.261s.124,1.6.358,2.355c.492,1.589,1.9,2.124,2.99,3.188a11.3,11.3,0,0,0,3.778,2.741c3.23,1.284,7.289.7,10.658.344a30.951,30.951,0,0,1,5.576-.256,57.343,57.343,0,0,0,5.87.441c1.947-.055,3.876-.4,5.823-.411,2.008-.015,4,.374,6.006.488a83.231,83.231,0,0,0,11.016-.5,35.331,35.331,0,0,1,6.123.353,28.319,28.319,0,0,0,5.941-.2c2.258-.26,4.3.408,6.531.432,1.925.02,3.8-.714,5.7-.642.993.038,1.916.484,2.915.445a6.991,6.991,0,0,0,2.812-.987c.752-.366,1.644-.25,2.356-.633.751-.4.715-1.269,1.262-1.778s1.04-.357,1.44-1.075c.382-.684.918-1.075,1.347-1.712.58-.861.138-1.462.27-2.33C141.636,100.4,142.481,100.067,142.222,99.2Z" transform="translate(-50 -76.34)"/><path id="MID" class="cls-9" d="M141.548,99.133c-.488-1.545.54-2.767-.589-4.245-.291-.38-.719-.632-.933-1.068-.317-.649-.124-1.2-.658-1.775-.409-.441-1.046-.682-1.491-1.105-.421-.4-.748-.88-1.188-1.267A6.077,6.077,0,0,0,132.28,88.3a9.707,9.707,0,0,1-2.384.033,8.824,8.824,0,0,0-2.381-.355,27.543,27.543,0,0,1-5.3.128,51.053,51.053,0,0,0-10.788,0,32.673,32.673,0,0,1-4.792.3c-1.88-.083-3.7-.478-5.591-.441-1.673.033-3.326.355-4.991.383-1.864.031-3.668-.54-5.541-.524-1.772.014-3.465.5-5.215.584a11.145,11.145,0,0,1-2.471-.3,10.72,10.72,0,0,0-3.184.008c-3.625.419-7.267-.418-10.931-.176-2.493.165-5.236.358-7.709.779a6.689,6.689,0,0,0-3.783,2.039,11.821,11.821,0,0,0-1.178,1.613c-.543.8-1.281,1.484-1.792,2.3a5.36,5.36,0,0,0-.66,3.963c.153.714.513,1.37.7,2.075s.121,1.466.349,2.161c.479,1.459,1.853,1.95,2.915,2.926a11.02,11.02,0,0,0,3.685,2.515c3.15,1.179,7.109.646,10.4.316a31.989,31.989,0,0,1,5.438-.234c1.925.134,3.784.455,5.725.4,1.9-.05,3.78-.363,5.678-.377,1.959-.013,3.9.344,5.857.448a86.211,86.211,0,0,0,10.744-.459,36.439,36.439,0,0,1,5.971.324,29.4,29.4,0,0,0,5.8-.187c2.2-.239,4.19.374,6.369.4,1.877.018,3.707-.655,5.557-.589.968.035,1.869.444,2.843.408a7.117,7.117,0,0,0,2.742-.905c.734-.336,1.6-.23,2.3-.581.732-.371.7-1.165,1.231-1.632s1.014-.327,1.4-.986c.373-.628.9-.987,1.314-1.572.565-.789.134-1.341.263-2.137C140.977,100.233,141.8,99.932,141.548,99.133Z" transform="translate(-50 -76.34)"/><path id="GRAD" class="cls-10" d="M141.548,99.133c-.488-1.545.54-2.767-.589-4.245-.291-.38-.719-.632-.933-1.068-.317-.649-.124-1.2-.658-1.775-.409-.441-1.046-.682-1.491-1.105-.421-.4-.748-.88-1.188-1.267A6.077,6.077,0,0,0,132.28,88.3a9.707,9.707,0,0,1-2.384.033,8.824,8.824,0,0,0-2.381-.355,27.543,27.543,0,0,1-5.3.128,51.053,51.053,0,0,0-10.788,0,32.673,32.673,0,0,1-4.792.3c-1.88-.083-3.7-.478-5.591-.441-1.673.033-3.326.355-4.991.383-1.864.031-3.668-.54-5.541-.524-1.772.014-3.465.5-5.215.584a11.145,11.145,0,0,1-2.471-.3,10.72,10.72,0,0,0-3.184.008c-3.625.419-7.267-.418-10.931-.176-2.493.165-5.236.358-7.709.779a6.689,6.689,0,0,0-3.783,2.039,11.821,11.821,0,0,0-1.178,1.613c-.543.8-1.281,1.484-1.792,2.3a5.36,5.36,0,0,0-.66,3.963c.153.714.513,1.37.7,2.075s.121,1.466.349,2.161c.479,1.459,1.853,1.95,2.915,2.926a11.02,11.02,0,0,0,3.685,2.515c3.15,1.179,7.109.646,10.4.316a31.989,31.989,0,0,1,5.438-.234c1.925.134,3.784.455,5.725.4,1.9-.05,3.78-.363,5.678-.377,1.959-.013,3.9.344,5.857.448a86.211,86.211,0,0,0,10.744-.459,36.439,36.439,0,0,1,5.971.324,29.4,29.4,0,0,0,5.8-.187c2.2-.239,4.19.374,6.369.4,1.877.018,3.707-.655,5.557-.589.968.035,1.869.444,2.843.408a7.117,7.117,0,0,0,2.742-.905c.734-.336,1.6-.23,2.3-.581.732-.371.7-1.165,1.231-1.632s1.014-.327,1.4-.986c.373-.628.9-.987,1.314-1.572.565-.789.134-1.341.263-2.137C140.977,100.233,141.8,99.932,141.548,99.133Z" transform="translate(-50 -76.34)"/></g><g id="LINES"><g id="DARK_LINES"><path class="cls-11" d="M84.414,89.656a22.14,22.14,0,0,0-7.233-.123,32.924,32.924,0,0,1-3.338-.214c-1.109-.021-2.193.285-3.3.164a14.931,14.931,0,0,0-3.452-.153c-1.187.135-2.229.061-3.4.084a6.022,6.022,0,0,0-2.376.84A8.522,8.522,0,0,0,58.7,91.589a12.662,12.662,0,0,0-2.443,3.991,5.046,5.046,0,0,0-.288,2.573,10.627,10.627,0,0,0,.208,3.2A11.339,11.339,0,0,0,59,105.135c1.257,1.361,3.463,1.965,5.277,2.227,2.622.38,5.259-.057,7.877-.174,1.416-.063,2.8.226,4.21.232.4,0,3.6.02,3.681-.367.115-.524-7.027-.13-7.61-.146-2.729-.071-5.383-.282-8.12-.21-2.031.053-3.2-.844-4.861-1.84a5.565,5.565,0,0,1-2.19-3.14A12.19,12.19,0,0,1,56.3,98.67a9.383,9.383,0,0,1,.5-2.542c.377-1.936,1.288-2.8,2.727-4.067,2.255-1.992,4.958-2.118,7.869-1.962,1.421.076,2.814-.34,4.2-.228a32.211,32.211,0,0,0,4.47-.036c1.572-.081,3.149.318,4.729.314A16.909,16.909,0,0,0,83.023,90,12.054,12.054,0,0,0,84.414,89.656Z" transform="translate(-50 -76.34)"/><path class="cls-11" d="M67.875,103.226c-1.607-.455-3.656.167-5.1-.608a5.482,5.482,0,0,1-2.327-3.986,4.665,4.665,0,0,1,1.3-3.8c.716-.673,2.7-.454,3.2-1.333.183-.323-1.906-.16-2.272.081a19.879,19.879,0,0,0-1.615,1.34,5.593,5.593,0,0,0-1.317,4.741c.415,1.8,1.818,2.716,3.405,3.414a5.754,5.754,0,0,0,2.879.544C66.441,103.588,67.71,103.179,67.875,103.226Z" transform="translate(-50 -76.34)"/><path class="cls-11" d="M138.827,98.345c-.209-1.147-.066-2.434-.578-3.5a14.156,14.156,0,0,0-1.03-1.429,8.944,8.944,0,0,0-.94-1.594,4.631,4.631,0,0,0-1.552-.952c-.574-.26-1.008-.642-1.553-.923a6.578,6.578,0,0,0-1.783-.328,4.229,4.229,0,0,0-1.683-.323,26.3,26.3,0,0,1-3.419.214,41.245,41.245,0,0,0-4.184-.214,23.133,23.133,0,0,1-4.29.122c-.483-.055-3.6-.341-3.784.265-.075.251,2.963.388,3.247.365a20.406,20.406,0,0,1,4.023-.017,63.565,63.565,0,0,0,7.019-.1c.561,0,1.081.148,1.657.2.464.038.917-.178,1.369-.129a8.1,8.1,0,0,1,1.378.55,4.381,4.381,0,0,1,1.591.565,19.78,19.78,0,0,1,2.3,2.147,10.1,10.1,0,0,1,1.437,3.022c.685,1.643.083,3.457-.432,5.093a7.616,7.616,0,0,1-5.133,4.895c-2.439.865-5,.655-7.529.484a68.73,68.73,0,0,0-7.822-.092,29.366,29.366,0,0,1-4.455.233,18,18,0,0,0-4.046-.044,34.3,34.3,0,0,1-4.744-.248c-.5-.016-4.091-.089-4.218.43-.107.445,5.42.393,5.892.346,2.153-.216,4.246.187,6.381-.065a41.937,41.937,0,0,1,6.255.151c2.074.065,4.159.023,6.23-.1,1.621-.1,3.231-.233,4.857-.167a7.566,7.566,0,0,0,7.892-3.9C138.353,101.767,139.214,100.38,138.827,98.345Z" transform="translate(-50 -76.34)"/><path class="cls-11" d="M105.942,93.44c-2.13-.744-4.037.105-6.144-.143-1.77-.208-3.431.012-5.213-.171-2.815-.29-5.594.336-8.416.15a30.35,30.35,0,0,0-4.264-.106,13.277,13.277,0,0,1-2.584-.056c-.866-.1-1.653.2-2.49.135a21.878,21.878,0,0,0-4.117-.166,9.35,9.35,0,0,1-2.447.106c-.41-.046-1.777-.227-2.024.273-.118.241,3.684.3,4.026.359a6.362,6.362,0,0,0,2.047.025,13.8,13.8,0,0,1,2.022-.005c.286-.01.506-.211.783-.222a7.271,7.271,0,0,1,1.158.263,20.3,20.3,0,0,0,2.274-.249,46.678,46.678,0,0,0,5.157.024,38.529,38.529,0,0,1,4.917.235,41.533,41.533,0,0,0,5.124-.224c.894-.072,1.7.188,2.584.191a21.791,21.791,0,0,1,2.926-.145,13.657,13.657,0,0,0,2.633.2C104.189,93.9,105.858,93.411,105.942,93.44Z" transform="translate(-50 -76.34)"/><path class="cls-11" d="M123.259,104.355a10.1,10.1,0,0,0-4.729-.189,13.99,13.99,0,0,1-2.66-.133,11.555,11.555,0,0,0-1.872.255,40.359,40.359,0,0,1-4.658-.333,46.89,46.89,0,0,0-5.056.211,32.172,32.172,0,0,1-4.759-.121c-1.565-.095-3.141.328-4.681.232-.609-.038-1.179-.308-1.8-.331a12.965,12.965,0,0,0-1.934.264c-.637.067-2.837-.638-3.244.166-.214.422,3.014.185,3.244.209a16.6,16.6,0,0,0,1.719.26c.752,0,1.458-.277,2.206-.3,1.6-.054,3.167.309,4.784.182a30.161,30.161,0,0,1,5.056-.037,41.062,41.062,0,0,0,4.758.144,28.943,28.943,0,0,1,4.755-.212c1.606.223,3.113-.095,4.729.117a10.125,10.125,0,0,0,2.66.033C122.008,104.739,123.274,104.361,123.259,104.355Z" transform="translate(-50 -76.34)"/><path class="cls-11" d="M87.1,101.836a4.5,4.5,0,0,0-2.858-.3,13.679,13.679,0,0,1-2.592-.028,16.07,16.07,0,0,1-1.615.143c-.41-.033-.815-.177-1.233-.207a21.053,21.053,0,0,0-2.76.287,9.754,9.754,0,0,1-1.509-.209,9.962,9.962,0,0,0-1.676.182c-.809.043-1.529-.333-2.366-.229a7.608,7.608,0,0,1-1.861.106c-.479-.041-1.781-.127-1.3.448s1.58-.024,2.143-.011a12.755,12.755,0,0,0,2.047.263,21.1,21.1,0,0,1,2.563-.031,13.509,13.509,0,0,1,2.71-.09,11.206,11.206,0,0,0,2.967.007c.976-.081,1.884.077,2.846-.059a12.678,12.678,0,0,1,2.45.209A12.216,12.216,0,0,0,87.1,101.836Z" transform="translate(-50 -76.34)"/><path class="cls-11" d="M120.845,96.064a4.924,4.924,0,0,0-3.253-.189c-1,.16-1.922-.13-2.951-.012-2.6.3-5.346-.251-7.977-.189-2.757.064-5.509.43-8.265.223-.733-.054-7.587-.553-7.71.2-.084.511,7.722.2,8.3.173,2.749-.153,5.513.239,8.265.28,2.616.039,5.3-.5,7.854-.122,1,.147,1.863-.173,2.89.015a5,5,0,0,0,1.763.05C119.716,96.5,121.134,96.209,120.845,96.064Z" transform="translate(-50 -76.34)"/><path class="cls-11" d="M126.368,102.4a7.275,7.275,0,0,0-3.676-.3c-1.249.178-2.334-.114-3.559-.009-1.13.1-2.158.008-3.263.116-.277.027-2.113-.366-2.1.235.009.376.848.332,1.052.35a3.932,3.932,0,0,1,.524-.217,3.116,3.116,0,0,1,.786.18,15.691,15.691,0,0,0,3.672.047,16.317,16.317,0,0,1,1.838-.22c.613.03,1.219.233,1.838.278a6.993,6.993,0,0,0,1.838-.087C125.272,102.786,126.64,102.506,126.368,102.4Z" transform="translate(-50 -76.34)"/><path class="cls-11" d="M93.453,99.213c-1.5-.77-2.861.005-4.365-.192a13.171,13.171,0,0,0-2.128.062c-.931.021-1.883-.229-2.818-.265-1.746-.068-3.473.389-5.2.3-.923-.047-1.79-.268-2.722-.229-.353.015-2.117.044-2.208.353-.15.5,4.544.17,4.93.149,1.894-.1,3.769.408,5.684.274a15.127,15.127,0,0,1,2.711-.2,16.667,16.667,0,0,0,2.351-.068c.665-.011,1.3.306,1.984.307A9.664,9.664,0,0,0,93.453,99.213Z" transform="translate(-50 -76.34)"/><path class="cls-11" d="M135.792,98.644a5.363,5.363,0,0,1-.017-1.206A2.7,2.7,0,0,0,135.3,96.2a5.515,5.515,0,0,0-1.626-2.257c-.651-.429-5.534-1.549-5.979-.489-.166.4,3.559.211,3.865.3a7.427,7.427,0,0,1,2.919,1.952,5.133,5.133,0,0,1,.9,2.756,14.278,14.278,0,0,1-.564,1.675c-.217.792-.422.859-.959,1.461-.325.363-.394.615-.833.85s-1.128.166-1.613.37c-1.643.689.305.91,1.026.567C133.917,102.679,136.369,100.531,135.792,98.644Z" transform="translate(-50 -76.34)"/></g><g id="BRIGHT_LINES"><path class="cls-12" d="M71.594,106.624c-.785.035-1.572.1-2.36.161,1.063.045,2.128.094,3.2.122.212.006,1.3-.043,2.581-.082A31.829,31.829,0,0,0,71.594,106.624Z" transform="translate(-50 -76.34)"/><path class="cls-12" d="M77.181,89.533l1.081-.089a16.94,16.94,0,0,0-2.758-.173c-.453.023-.889.045-1.319.064A20.77,20.77,0,0,0,77.181,89.533Z" transform="translate(-50 -76.34)"/><path class="cls-12" d="M105.8,106.762a13.24,13.24,0,0,0,2.841.09c.121-.013.235-.017.354-.027C107.931,106.8,106.87,106.72,105.8,106.762Z" transform="translate(-50 -76.34)"/><path class="cls-12" d="M116.659,104.1a7.565,7.565,0,0,0,1.849.063A12.25,12.25,0,0,0,116.659,104.1Z" transform="translate(-50 -76.34)"/><path class="cls-12" d="M72.879,89.367c-.6,0-1.2-.008-1.845-.06a8.963,8.963,0,0,0-1.644.051c.38.038.761.081,1.155.125A11.4,11.4,0,0,0,72.879,89.367Z" transform="translate(-50 -76.34)"/><path class="cls-12" d="M71.213,93.224l-1.047-.046.1.011A6.352,6.352,0,0,0,71.213,93.224Z" transform="translate(-50 -76.34)"/><path class="cls-12" d="M133.192,105.991a7.364,7.364,0,0,0,4.432-4.615c.026-.085.053-.172.081-.258a12.757,12.757,0,0,1-1.085,1.616A9.71,9.71,0,0,1,133.192,105.991Z" transform="translate(-50 -76.34)"/><path class="cls-12" d="M111.02,104.107a13.664,13.664,0,0,0,2.978.181c.3-.031.591-.1.881-.156a9.191,9.191,0,0,1-1.051-.077A11.822,11.822,0,0,0,111.02,104.107Z" transform="translate(-50 -76.34)"/><path class="cls-12" d="M81.905,93.17c.184-.014.365-.015.547-.022-.81-.021-1.62-.062-2.464-.079a3.194,3.194,0,0,0-.6.051A13.308,13.308,0,0,0,81.905,93.17Z" transform="translate(-50 -76.34)"/><path class="cls-12" d="M111.386,106.751c-.107.013-.214.017-.321.027.528.02,1.059.057,1.62.118a14.28,14.28,0,0,0,2.992-.109A22.7,22.7,0,0,0,111.386,106.751Z" transform="translate(-50 -76.34)"/><path class="cls-12" d="M77.393,93.244a2.55,2.55,0,0,0-.836-.189,1.292,1.292,0,0,0-.44.131c.244.023.485.045.714.063A3.761,3.761,0,0,0,77.393,93.244Z" transform="translate(-50 -76.34)"/><path class="cls-12" d="M128.728,106.636a37.824,37.824,0,0,0-3.942.109l.176.01a20.6,20.6,0,0,0,6.819-.271A12.114,12.114,0,0,1,128.728,106.636Z" transform="translate(-50 -76.34)"/><path class="cls-12" d="M61.054,94.919c.424-.353.886-.8,1.347-1.144a2.666,2.666,0,0,0-1.223.492,4.658,4.658,0,0,0-1.313,2.8A4.249,4.249,0,0,1,61.054,94.919Z" transform="translate(-50 -76.34)"/><path class="cls-12" d="M64.353,103.016a6.2,6.2,0,0,1-1.7-.478c.041.025.077.057.119.08A3.916,3.916,0,0,0,64.353,103.016Z" transform="translate(-50 -76.34)"/><path class="cls-12" d="M62.27,89.8A7.629,7.629,0,0,0,59.7,90.924c.514-.25,1.059-.425,1.615-.67C61.651,90.108,61.959,89.943,62.27,89.8Z" transform="translate(-50 -76.34)"/><path class="cls-12" d="M100.258,104.094a25.964,25.964,0,0,0,4.026.072c.1-.009.2-.015.3-.024l-.269-.019A28.2,28.2,0,0,0,100.258,104.094Z" transform="translate(-50 -76.34)"/><path class="cls-12" d="M57.985,92.4a5.556,5.556,0,0,0-1.747,3.167c-.01.05-.023.1-.035.152.019-.046.033-.09.055-.136A17.966,17.966,0,0,1,57.985,92.4Z" transform="translate(-50 -76.34)"/><path class="cls-12" d="M94.475,103.978a4.709,4.709,0,0,0-.7.087,6.245,6.245,0,0,0,1.071.212,15.7,15.7,0,0,0,2.553-.138A27.5,27.5,0,0,0,94.475,103.978Z" transform="translate(-50 -76.34)"/><path class="cls-12" d="M55.97,98.153a9.5,9.5,0,0,1,.005-1.6,4.278,4.278,0,0,0-.241,1.556,5.33,5.33,0,0,0,.228,1.078C55.971,98.846,55.982,98.5,55.97,98.153Z" transform="translate(-50 -76.34)"/><path class="cls-12" d="M89.664,104.046a10.185,10.185,0,0,0,1.45.164c.091-.01.179-.027.268-.041-.275-.056-.549-.118-.832-.148C90.479,104.013,90.119,104.031,89.664,104.046Z" transform="translate(-50 -76.34)"/><path class="cls-12" d="M101.775,93.286c-.358-.04-.716-.089-1.078-.136a7.394,7.394,0,0,0-1.891.073c.328.014.657.035.992.074A9.525,9.525,0,0,0,101.775,93.286Z" transform="translate(-50 -76.34)"/><path class="cls-12" d="M135.228,98.08a1.985,1.985,0,0,1,.081.67,2.123,2.123,0,0,0,.068-.287,3.267,3.267,0,0,0-.174-1.191A2.022,2.022,0,0,0,135.228,98.08Z" transform="translate(-50 -76.34)"/><path class="cls-12" d="M130.781,93.171c.1.017.2.032.3.05-.028-.009-.06-.023-.087-.031A1.444,1.444,0,0,0,130.781,93.171Z" transform="translate(-50 -76.34)"/><path class="cls-12" d="M122,102.157a6.374,6.374,0,0,0-.924-.135,3.725,3.725,0,0,0-.81.067C120.844,102.118,121.411,102.172,122,102.157Z" transform="translate(-50 -76.34)"/><path class="cls-12" d="M86.768,98.9a6,6,0,0,0-1.41.047,10.143,10.143,0,0,0,1.6.137,13.171,13.171,0,0,1,2.128-.062,5.137,5.137,0,0,0,1.189,0,4.823,4.823,0,0,0-1.158-.186A16.667,16.667,0,0,1,86.768,98.9Z" transform="translate(-50 -76.34)"/><path class="cls-12" d="M132.193,102.653a2.444,2.444,0,0,0,.828-.2c.439-.235.508-.487.833-.85.5-.56.712-.664.914-1.314A7.732,7.732,0,0,1,132.193,102.653Z" transform="translate(-50 -76.34)"/><path class="cls-12" d="M78.373,98.827c-.125.007-.7.046-1.422.08.663.05,1.31.177,1.986.211a15.269,15.269,0,0,0,2.433-.125A19.539,19.539,0,0,0,78.373,98.827Z" transform="translate(-50 -76.34)"/><path class="cls-12" d="M138.336,98.384a4.529,4.529,0,0,0-.209-1.876,11.945,11.945,0,0,0,.136,1.273A5.29,5.29,0,0,1,138.336,98.384Z" transform="translate(-50 -76.34)"/><path class="cls-12" d="M103.464,95.833a42.008,42.008,0,0,0-5.039-.125c-.166.009-.93.041-1.931.069.945.05,1.69.1,1.905.12A37.394,37.394,0,0,0,103.464,95.833Z" transform="translate(-50 -76.34)"/><path class="cls-12" d="M114.782,102.015c-.079.026-.153.064-.231.095a9.948,9.948,0,0,1,1,.079A3.093,3.093,0,0,0,114.782,102.015Z" transform="translate(-50 -76.34)"/><path class="cls-12" d="M114.569,95.868l-.025,0a20.258,20.258,0,0,0-4.3-.038A24.2,24.2,0,0,0,114.569,95.868Z" transform="translate(-50 -76.34)"/><path class="cls-12" d="M117.478,95.887l-.044-.007a5.758,5.758,0,0,0-1.555-.014A7.762,7.762,0,0,0,117.478,95.887Z" transform="translate(-50 -76.34)"/><path class="cls-12" d="M125.391,89.458c.3.024.595.045.9.055a17.115,17.115,0,0,0,2.124-.089,4.468,4.468,0,0,0-.657-.056C126.989,89.372,126.2,89.415,125.391,89.458Z" transform="translate(-50 -76.34)"/><path class="cls-12" d="M88.969,93.253a22.231,22.231,0,0,0-3.823-.16c-.372.032-.734.045-1.095.055.7.029,1.407.081,2.118.128A22.543,22.543,0,0,0,88.969,93.253Z" transform="translate(-50 -76.34)"/><path class="cls-12" d="M96.742,93.205a7.151,7.151,0,0,0-1.555-.1l-.433.035C95.428,93.2,96.087,93.208,96.742,93.205Z" transform="translate(-50 -76.34)"/><path class="cls-12" d="M130.763,89.436c.159.053.333.111.544.164a1.788,1.788,0,0,0-.525-.165Z" transform="translate(-50 -76.34)"/><path class="cls-12" d="M117.756,89.414l.059.007a13.452,13.452,0,0,0,2.48.016A18.6,18.6,0,0,0,117.756,89.414Z" transform="translate(-50 -76.34)"/><path class="cls-12" d="M55.975,96.55c.082-.28.165-.558.228-.834A3.285,3.285,0,0,0,55.975,96.55Z" transform="translate(-50 -76.34)"/><path class="cls-12" d="M74.185,89.335c-.114-.007-.228-.014-.342-.016a8.376,8.376,0,0,0-.964.048C73.313,89.364,73.747,89.354,74.185,89.335Z" transform="translate(-50 -76.34)"/><path class="cls-12" d="M78.262,89.444a15.034,15.034,0,0,0,4.2-.012c.05-.007.157-.028.286-.056A24.262,24.262,0,0,0,78.262,89.444Z" transform="translate(-50 -76.34)"/><path class="cls-12" d="M58.965,91.5a7.729,7.729,0,0,1,.739-.573,4.141,4.141,0,0,0-1,.665,5.811,5.811,0,0,0-.716.808C58.278,92.107,58.605,91.815,58.965,91.5Z" transform="translate(-50 -76.34)"/><path class="cls-12" d="M75.02,106.825c.261.017.522.03.784.031.241,0,1.475.007,2.45-.07C77.29,106.768,76.087,106.793,75.02,106.825Z" transform="translate(-50 -76.34)"/><path class="cls-12" d="M66.834,89.535a16.149,16.149,0,0,0,2.556-.177,10.6,10.6,0,0,0-2.3-.028c-1.187.135-2.229.061-3.4.084a3.419,3.419,0,0,0-1.425.383A15.878,15.878,0,0,1,66.834,89.535Z" transform="translate(-50 -76.34)"/><path class="cls-12" d="M69.234,106.785c-1.631-.071-3.258-.132-4.915-.088-2.031.053-3.2-.844-4.861-1.839a3.885,3.885,0,0,1-1.007-.875,6.235,6.235,0,0,1-1.748-2.83c-.232-.6-.533-1.288-.741-1.969a6.027,6.027,0,0,0,.216,2.171,9.919,9.919,0,0,0,2.52,3.455,9.64,9.64,0,0,0,5.019,1.988A24.823,24.823,0,0,0,69.234,106.785Z" transform="translate(-50 -76.34)"/><path class="cls-12" d="M62.4,93.775a6.211,6.211,0,0,0,1.546-.443,3.719,3.719,0,0,0-1.278.247C62.58,93.637,62.49,93.708,62.4,93.775Z" transform="translate(-50 -76.34)"/><path class="cls-12" d="M64.353,103.016a5.571,5.571,0,0,0,1.1.038c.027,0,.066-.009.1-.014C65.15,103.043,64.745,103.044,64.353,103.016Z" transform="translate(-50 -76.34)"/><path class="cls-12" d="M108.993,106.825a17.716,17.716,0,0,0,2.072-.047A16.42,16.42,0,0,0,108.993,106.825Z" transform="translate(-50 -76.34)"/><path class="cls-12" d="M138.336,98.384a12.878,12.878,0,0,1-.631,2.734A4.8,4.8,0,0,0,138.336,98.384Z" transform="translate(-50 -76.34)"/><path class="cls-12" d="M117.14,106.663c-.48.023-.97.073-1.463.124.653.047,1.307.094,1.964.115,2.074.065,4.159.023,6.23-.1l.915-.058A68.674,68.674,0,0,0,117.14,106.663Z" transform="translate(-50 -76.34)"/><path class="cls-12" d="M105.005,106.816c.265-.027.529-.044.793-.054-.634-.067-1.268-.138-1.9-.158a22.636,22.636,0,0,0-3.608.149C101.91,106.883,104.677,106.849,105.005,106.816Z" transform="translate(-50 -76.34)"/><path class="cls-12" d="M136.619,93.261a10.1,10.1,0,0,1,1.437,3.022c.03.074.046.15.071.225a6.044,6.044,0,0,0-.443-2.224,13.882,13.882,0,0,0-1.029-1.429c-.289-.452-.446-.933-.756-1.358a6.458,6.458,0,0,0-1.172-.624c-.574-.26-1.008-.642-1.553-.923a6.578,6.578,0,0,0-1.783-.328l-.084-.022a7.943,7.943,0,0,0,.853.385,4.387,4.387,0,0,1,1.591.565,19.262,19.262,0,0,1,1.987,1.81C136.063,92.673,136.37,92.987,136.619,93.261Z" transform="translate(-50 -76.34)"/><path class="cls-12" d="M131.781,106.484a6.081,6.081,0,0,0,1.118-.349c.1-.045.195-.1.293-.144-.23.1-.46.2-.7.28S132.018,106.42,131.781,106.484Z" transform="translate(-50 -76.34)"/><path class="cls-12" d="M129.708,89.3c-.434.041-.864.086-1.295.125.327.048.653.111,1,.14.458.037.9-.17,1.35-.128A2.251,2.251,0,0,0,129.708,89.3Z" transform="translate(-50 -76.34)"/><path class="cls-12" d="M122.105,89.3c-.623.041-1.219.1-1.81.138.147.012.288.017.442.033a29.515,29.515,0,0,0,4.654-.012A21.942,21.942,0,0,0,122.105,89.3Z" transform="translate(-50 -76.34)"/><path class="cls-12" d="M116.714,89.487c.362-.029.706-.054,1.042-.073a14.772,14.772,0,0,0-3.112-.034C115.506,89.461,116.553,89.5,116.714,89.487Z" transform="translate(-50 -76.34)"/><path class="cls-12" d="M84.051,93.148c-.531-.021-1.064-.019-1.6,0C82.981,93.163,83.513,93.163,84.051,93.148Z" transform="translate(-50 -76.34)"/><path class="cls-12" d="M79.387,93.12c-.022,0-.043,0-.066-.006a9.9,9.9,0,0,0-1.928.13,1.849,1.849,0,0,0,.322.074A5.53,5.53,0,0,0,79.387,93.12Z" transform="translate(-50 -76.34)"/><path class="cls-12" d="M98.806,93.223c-.694-.03-1.377-.021-2.064-.018a7.872,7.872,0,0,0,1.029.09A8.421,8.421,0,0,0,98.806,93.223Z" transform="translate(-50 -76.34)"/><path class="cls-12" d="M73.752,93.282a13.8,13.8,0,0,1,2.022,0,.979.979,0,0,0,.343-.091,16.5,16.5,0,0,0-3.4-.1c-.566.069-1.022.127-1.5.141.249.012.429.022.492.033A6.362,6.362,0,0,0,73.752,93.282Z" transform="translate(-50 -76.34)"/><path class="cls-12" d="M94.754,93.139c-.057,0-.113-.007-.169-.013a34.757,34.757,0,0,0-5.616.127c.364.032.729.059,1.094.075A37.79,37.79,0,0,0,94.754,93.139Z" transform="translate(-50 -76.34)"/><path class="cls-12" d="M69.142,93.125c.333.02.687.038,1.024.053A6.749,6.749,0,0,0,69.142,93.125Z" transform="translate(-50 -76.34)"/><path class="cls-12" d="M101.775,93.286a8.938,8.938,0,0,0,1.555.063,8.881,8.881,0,0,0,.944-.213A19.137,19.137,0,0,0,101.775,93.286Z" transform="translate(-50 -76.34)"/><path class="cls-12" d="M118.53,104.166h-.022c.016,0,.032,0,.049,0a10.125,10.125,0,0,0,2.66.033c.093-.012.36-.083.641-.163A13.459,13.459,0,0,0,118.53,104.166Z" transform="translate(-50 -76.34)"/><path class="cls-12" d="M89.664,104.046a3.621,3.621,0,0,0-1.366.014C88.735,104.072,89.24,104.06,89.664,104.046Z" transform="translate(-50 -76.34)"/><path class="cls-12" d="M104.583,104.142a40.54,40.54,0,0,0,4.49.125c.643-.021,1.3-.094,1.947-.16a16.606,16.606,0,0,0-1.68-.152A45.24,45.24,0,0,0,104.583,104.142Z" transform="translate(-50 -76.34)"/><path class="cls-12" d="M114.879,104.132c.6.014,1.187-.013,1.78-.028-.257-.029-.517-.057-.789-.071A3.915,3.915,0,0,0,114.879,104.132Z" transform="translate(-50 -76.34)"/><path class="cls-12" d="M97.4,104.139a12.158,12.158,0,0,0,1.861.02c.339-.026.669-.046,1-.065-.244-.017-.486-.034-.733-.049A13.072,13.072,0,0,0,97.4,104.139Z" transform="translate(-50 -76.34)"/><path class="cls-12" d="M91.382,104.169a4.639,4.639,0,0,0,.886.112,8.285,8.285,0,0,0,1.5-.216,3.622,3.622,0,0,0-.725-.119A8.221,8.221,0,0,0,91.382,104.169Z" transform="translate(-50 -76.34)"/><path class="cls-12" d="M84.477,101.709a7.937,7.937,0,0,0,1.4-.237,5.205,5.205,0,0,0-1.634.068,5.417,5.417,0,0,1-.97.056,4.547,4.547,0,0,0-.955-.065h0c-.189-.013-.454-.023-.667-.019a6.066,6.066,0,0,0-.8.087c-.393-.006-.788-.015-1.188-.006a7.475,7.475,0,0,0-.861-.145,9.1,9.1,0,0,0-2.08.208c-.162-.015-.322-.028-.49-.057a4.857,4.857,0,0,0-1.34-.024c-.109-.02-.253-.039-.359-.049a6.665,6.665,0,0,0-1.538.157l-.692-.015h.006a6.788,6.788,0,0,0-1.818-.189c-.3.036-.587.069-.821.093a3.789,3.789,0,0,0-.758-.114,2.433,2.433,0,0,0-.582.1c-.387-.019-.913,0-1.059.154a3.513,3.513,0,0,0,1.062-.129c.173,0,.211,0,.3,0a5.113,5.113,0,0,0,.813.012,1.468,1.468,0,0,1,.413.029,3.316,3.316,0,0,0,1.1.095c.428-.052.9,0,1.288-.028a3.1,3.1,0,0,0,.61.015c.052,0,.265-.01.313-.017.154,0,.206,0,.352,0,.431,0,.85-.052,1.236-.093a.927.927,0,0,1,.278.014,3.831,3.831,0,0,0,1.006.125c.228-.012.492-.046.676-.055s1.621,0,2.481-.073c.137-.011.463.011.463.011s.247.027.373.037a3.484,3.484,0,0,0,.823-.031,7.823,7.823,0,0,0,1.187-.076c.059-.008.316,0,.388,0,.335.024.437.042.76.055A12.049,12.049,0,0,0,84.477,101.709Z" transform="translate(-50 -76.34)"/><path class="cls-12" d="M96.494,95.777a33.047,33.047,0,0,0-5.059.012C92.794,95.858,94.932,95.822,96.494,95.777Z" transform="translate(-50 -76.34)"/><path class="cls-12" d="M117.592,95.875c-.039.006-.076.007-.114.012a4.934,4.934,0,0,0,1.718.044c-.023,0,.371-.078.7-.178A6.89,6.89,0,0,0,117.592,95.875Z" transform="translate(-50 -76.34)"/><path class="cls-12" d="M110.249,95.828c-1.2-.087-2.405-.182-3.585-.154-1.068.025-2.134.094-3.2.159,1.076.07,2.152.139,3.226.155C107.869,96.006,109.061,95.908,110.249,95.828Z" transform="translate(-50 -76.34)"/><path class="cls-12" d="M115.879,95.866a6.476,6.476,0,0,0-1.238,0c-.024,0-.048,0-.072,0A5.793,5.793,0,0,0,115.879,95.866Z" transform="translate(-50 -76.34)"/><path class="cls-12" d="M122.692,102.1a5.867,5.867,0,0,1-.69.053,7.483,7.483,0,0,0,.914.143,7.036,7.036,0,0,0,1.838-.087c-.02,0,.228-.047.492-.114A8.348,8.348,0,0,0,122.692,102.1Z" transform="translate(-50 -76.34)"/><path class="cls-12" d="M114.551,102.11a1.381,1.381,0,0,0-.635.107c.146.009.277.009.342.014C114.353,102.184,114.453,102.15,114.551,102.11Z" transform="translate(-50 -76.34)"/><path class="cls-12" d="M119.24,102.242a9.286,9.286,0,0,0,1.028-.153,8.282,8.282,0,0,0-1.135.006c-1.13.1-2.158.008-3.263.116a2.27,2.27,0,0,1-.321-.022l.019.005A15.636,15.636,0,0,0,119.24,102.242Z" transform="translate(-50 -76.34)"/><path class="cls-12" d="M90.277,99.017a3.662,3.662,0,0,0,.826.121,11.257,11.257,0,0,0,1.123-.261A11.428,11.428,0,0,0,90.277,99.017Z" transform="translate(-50 -76.34)"/><path class="cls-12" d="M76.951,98.907a6.2,6.2,0,0,0-.736-.018c-.174.007-.691.018-1.182.065C75.651,98.957,76.348,98.935,76.951,98.907Z" transform="translate(-50 -76.34)"/><path class="cls-12" d="M81.37,98.993a15.646,15.646,0,0,0,2.687.108c.434-.031.868-.1,1.3-.155-.406-.056-.813-.113-1.216-.128A18.91,18.91,0,0,0,81.37,98.993Z" transform="translate(-50 -76.34)"/><path class="cls-12" d="M132.193,102.653a3.1,3.1,0,0,0-.785.166,3.165,3.165,0,0,0-.327.159,2.12,2.12,0,0,0,.789-.156C131.973,102.773,132.082,102.715,132.193,102.653Z" transform="translate(-50 -76.34)"/><path class="cls-12" d="M134.768,100.285a3.135,3.135,0,0,0,.541-1.535c-.125.46-.376.951-.5,1.388C134.8,100.193,134.783,100.237,134.768,100.285Z" transform="translate(-50 -76.34)"/><path class="cls-12" d="M128.129,93.135c.9.046,2.143.017,2.652.036A6.658,6.658,0,0,0,128.129,93.135Z" transform="translate(-50 -76.34)"/></g></g><g id="TEXTURE"><circle class="cls-13" cx="15.256" cy="18.98" r="1.497"/><circle class="cls-14" cx="12.367" cy="22.174" r="1.329"/><circle class="cls-15" cx="11.239" cy="27.816" r="1.929"/><circle class="cls-16" cx="27.598" cy="17.097" r="1.929"/><circle class="cls-17" cx="38.316" cy="14.841" r="1.929"/><circle class="cls-18" cx="49.598" cy="14.841" r="1.929"/><circle class="cls-19" cx="59.752" cy="14.841" r="1.929"/><circle class="cls-20" cx="21.461" cy="24.057" r="1.497"/><circle class="cls-21" cx="18.572" cy="27.251" r="1.329"/><circle class="cls-22" cx="32.675" cy="25.559" r="1.329"/><circle class="cls-23" cx="34.932" cy="28.38" r="1.329"/><circle class="cls-24" cx="38.88" cy="22.174" r="1.329"/><circle class="cls-25" cx="44.521" cy="22.174" r="1.329"/><circle class="cls-26" cx="62.009" cy="24.431" r="1.329"/><circle class="cls-27" cx="66.522" cy="16.533" r="1.329"/><circle class="cls-28" cx="63.701" cy="14.277" r="1.329"/><circle class="cls-29" cx="29.855" cy="14.277" r="1.329"/><circle class="cls-30" cx="18.572" cy="15.405" r="1.329"/><circle class="cls-31" cx="13.495" cy="28.944" r="1.329"/><circle class="cls-32" cx="14.624" cy="25.559" r="1.329"/><circle class="cls-33" cx="10.111" cy="18.79" r="1.329"/><circle class="cls-34" cx="23.649" cy="27.251" r="1.929"/><circle class="cls-35" cx="32.179" cy="18.416" r="1.497"/><circle class="cls-36" cx="29.29" cy="23.867" r="1.329"/><circle class="cls-37" cx="34.932" cy="22.174" r="1.929"/><circle class="cls-38" cx="42.333" cy="15.595" r="1.497"/><circle class="cls-39" cx="39.444" cy="18.79" r="1.329"/><circle class="cls-40" cx="44.521" cy="18.79" r="1.929"/><circle class="cls-41" cx="70.538" cy="15.595" r="1.497"/><circle class="cls-42" cx="67.65" cy="18.79" r="1.329"/><circle class="cls-43" cx="72.727" cy="18.79" r="1.929"/><circle class="cls-44" cx="80.128" cy="18.98" r="1.497"/><circle class="cls-45" cx="77.24" cy="22.174" r="1.329"/><circle class="cls-46" cx="82.317" cy="22.174" r="1.929"/><circle class="cls-47" cx="69.974" cy="22.365" r="1.497"/><circle class="cls-48" cx="63.701" cy="28.38" r="1.329"/><circle class="cls-49" cx="68.778" cy="28.38" r="1.929"/><circle class="cls-50" cx="49.666" cy="25.185" r="1.497"/><circle class="cls-51" cx="46.778" cy="28.38" r="1.329"/><circle class="cls-52" cx="51.855" cy="28.38" r="1.929"/><circle class="cls-53" cx="55.307" cy="15.595" r="1.497"/><circle class="cls-54" cx="52.419" cy="18.79" r="1.329"/><circle class="cls-55" cx="57.496" cy="18.79" r="1.929"/><circle class="cls-56" cx="18.274" cy="18.834" r="0.956"/><circle class="cls-57" cx="35.197" cy="18.834" r="0.956"/><circle class="cls-58" cx="23.915" cy="18.834" r="0.956"/><circle class="cls-59" cx="34.633" cy="15.45" r="0.956"/><circle class="cls-60" cx="57.761" cy="23.911" r="0.956"/><circle class="cls-61" cx="74.685" cy="28.424" r="0.956"/><circle class="cls-62" cx="85.967" cy="28.424" r="0.956"/><circle class="cls-63" cx="87.659" cy="23.911" r="0.956"/><circle class="cls-64" cx="23.915" cy="30.117" r="0.956"/><circle class="cls-65" cx="42.53" cy="27.86" r="0.956"/><circle class="cls-66" cx="53.813" cy="22.219" r="0.956"/><circle class="cls-67" cx="65.095" cy="22.219" r="0.956"/><circle class="cls-68" cx="59.454" cy="27.86" r="0.956"/><circle class="cls-69" cx="70.736" cy="25.604" r="0.956"/><circle class="cls-70" cx="76.377" cy="19.963" r="0.956"/><circle class="cls-71" cx="13.854" cy="15.448" r="1.617"/><circle class="cls-72" cx="25.136" cy="21.09" r="1.617"/><circle class="cls-73" cx="26.829" cy="25.602" r="1.617"/><circle class="cls-74" cx="38.111" cy="26.731" r="1.617"/><circle class="cls-75" cx="49.393" cy="21.09" r="1.617"/><circle class="cls-76" cx="60.675" cy="21.09" r="1.617"/><circle class="cls-77" cx="77.599" cy="26.731" r="1.617"/></g><g id="HAIRS"><circle class="cls-78" cx="17.056" cy="21.073" r="1.769"/><circle class="cls-79" cx="62.591" cy="17.511" r="1.769"/><circle class="cls-80" cx="66.241" cy="24.988" r="1.769"/><circle class="cls-81" cx="86.631" cy="21.94" r="1.769"/><circle class="cls-82" cx="47.409" cy="24.212" r="1.769"/><circle class="cls-83" cx="31.955" cy="21.593" r="1.769"/><circle class="cls-84" cx="27.709" cy="29.405" r="1.769"/><g class="cls-85"><circle class="cls-86" cx="17.056" cy="21.073" r="1.769"/><circle class="cls-87" cx="62.591" cy="17.511" r="1.769"/><circle class="cls-88" cx="66.241" cy="24.988" r="1.769"/><circle class="cls-89" cx="86.631" cy="21.94" r="1.769"/><circle class="cls-90" cx="47.409" cy="24.212" r="1.769"/><circle class="cls-91" cx="31.955" cy="21.593" r="1.769"/><circle class="cls-92" cx="27.709" cy="29.405" r="1.769"/></g><path class="cls-93" d="M55.549,105.97a8.819,8.819,0,0,0-1.247,1.2,4.163,4.163,0,0,0-1.051,2.4c.011.216.005.435.019.654l.141.649.225.8c.061.27.1.543.156.813a10.455,10.455,0,0,1-.03,3.261,8.248,8.248,0,0,1-1.136,3.027,4.75,4.75,0,0,1-1.092,1.21,2.72,2.72,0,0,1-1.527.53L50,120.344a2.45,2.45,0,0,0,1.307-.639,4.332,4.332,0,0,0,.868-1.193,7.582,7.582,0,0,0,.748-2.875,9.472,9.472,0,0,0-.211-2.946c-.067-.236-.124-.474-.2-.706l-.253-.683L52,110.445c-.049-.295-.071-.6-.1-.9a5.9,5.9,0,0,1,1.056-3.367,6.734,6.734,0,0,1,1.2-1.338Z" transform="translate(-50 -76.34)"/><path class="cls-94" d="M120.935,78.863a8.8,8.8,0,0,1-3.158,4c-1.4,1.017-3,1.684-4.275,2.641a5.056,5.056,0,0,0-1.536,1.707,6.715,6.715,0,0,0-.747,2.191,3.846,3.846,0,0,0,.31,2.128,3.71,3.71,0,0,0,.58.884,3.305,3.305,0,0,0,.769.637l.028.016a.8.8,0,0,1-.779,1.393.857.857,0,0,1-.081-.052,4.757,4.757,0,0,1-1.072-1.079,5.171,5.171,0,0,1-.7-1.282,5.113,5.113,0,0,1-.2-2.83,7.755,7.755,0,0,1,.991-2.524,6.035,6.035,0,0,1,1.887-1.952c1.475-.994,3.071-1.545,4.462-2.419a8.8,8.8,0,0,0,3.366-3.53.086.086,0,0,1,.114-.036A.084.084,0,0,1,120.935,78.863Z" transform="translate(-50 -76.34)"/><path class="cls-95" d="M116.425,100.621a10.573,10.573,0,0,1,3.554.472c.291.124.582.258.871.391a9.377,9.377,0,0,1,.814.538,7.4,7.4,0,0,1,.706.689,7.321,7.321,0,0,1,.557.807,7.745,7.745,0,0,1,.807,3.568,18.025,18.025,0,0,1-.37,3.432c-.133.549-.252,1.1-.4,1.644s-.3,1.082-.472,1.612l-.508,1.572a4.011,4.011,0,0,0-.216,1.46,1.52,1.52,0,0,0,.568,1.165,2.871,2.871,0,0,0,1.386.509,9.8,9.8,0,0,0,3.221-.231h0a.084.084,0,0,1,.1.064.083.083,0,0,1-.055.1,9.375,9.375,0,0,1-3.314.59,3.45,3.45,0,0,1-1.736-.47,2.2,2.2,0,0,1-.689-.7,2.543,2.543,0,0,1-.326-.918,4.873,4.873,0,0,1,.115-1.812l.388-1.614c.13-.53.224-1.066.337-1.6s.174-1.067.262-1.6a16.693,16.693,0,0,0,.164-3.156,6.207,6.207,0,0,0-.7-2.8,3.7,3.7,0,0,0-2.067-1.668,10.737,10.737,0,0,0-2.976-.416l-.046,0a.811.811,0,0,1,.022-1.621Z" transform="translate(-50 -76.34)"/><path class="cls-96" d="M78.738,105.747a14.208,14.208,0,0,0,1.765,4.426,6.609,6.609,0,0,0,1.611,1.648,3.841,3.841,0,0,1,1.043,1.025,2.783,2.783,0,0,1,.308.734,5.079,5.079,0,0,1,.092.714,8.553,8.553,0,0,1-.077,1.354l-.148.664c-.053.22-.148.43-.222.643a7.66,7.66,0,0,1-1.46,2.177,4.743,4.743,0,0,0-1.247,2.022,4.655,4.655,0,0,0,.22,2.393v0a.085.085,0,0,1-.159.057,4.923,4.923,0,0,1-.447-2.526,5.19,5.19,0,0,1,1.151-2.33,6.982,6.982,0,0,0,1.166-2.081c.045-.189.113-.369.141-.56l.078-.572a7.662,7.662,0,0,0-.032-1.157,1.809,1.809,0,0,0-1.085-1.6,7.9,7.9,0,0,1-2-1.808,11.848,11.848,0,0,1-.788-1.093c-.218-.382-.45-.764-.651-1.152-.406-.779-.753-1.574-1.1-2.372a.976.976,0,0,1,1.789-.782,1,1,0,0,1,.051.148Z" transform="translate(-50 -76.34)"/><path class="cls-97" d="M66.5,97.9a30.556,30.556,0,0,1-2.373-2.362,9.113,9.113,0,0,1-1.882-2.957,3.507,3.507,0,0,1-.082-1.92,9.466,9.466,0,0,1,.635-1.605,5.312,5.312,0,0,0,.429-2.9,4.574,4.574,0,0,0-1.4-2.529c-.186-.177-.386-.343-.58-.517l-.635-.468-1.377-.864a8.835,8.835,0,0,1-2.469-2.226A5.39,5.39,0,0,1,56,78.069a3.722,3.722,0,0,1-.2-1.655.084.084,0,0,1,.168.016v.012a4.271,4.271,0,0,0,1.075,2.9,8.417,8.417,0,0,0,2.474,1.97l1.46.748.72.441c.228.169.462.332.686.511a5.245,5.245,0,0,1,1.9,2.956,6.381,6.381,0,0,1-.536,3.466,8.516,8.516,0,0,0-.491,1.452,2.323,2.323,0,0,0,.16,1.292A8,8,0,0,0,65.151,94.6a28.911,28.911,0,0,0,2.355,2.131l.018.015a.77.77,0,1,1-.993,1.178Z" transform="translate(-50 -76.34)"/><path class="cls-98" d="M137.126,97.688a8.47,8.47,0,0,0,3.081.832,4.963,4.963,0,0,0,2.937-.732,5.22,5.22,0,0,0,2.116-5.495,5.274,5.274,0,0,0-.561-1.487l-.21-.344-.239-.324a5.839,5.839,0,0,1-.535-.8,3.232,3.232,0,0,1-.386-1.933,3.975,3.975,0,0,1,.738-1.756,9.688,9.688,0,0,1,2.677-2.4,19.89,19.89,0,0,1,3.139-1.631.085.085,0,0,1,.07.154l0,0a19.676,19.676,0,0,0-2.986,1.794,9.218,9.218,0,0,0-2.39,2.411,3.3,3.3,0,0,0-.507,1.491,2.41,2.41,0,0,0,.407,1.429,4.949,4.949,0,0,0,.487.628l.307.362.276.389a6.336,6.336,0,0,1,.794,1.738,6.5,6.5,0,0,1-.122,3.8,6.184,6.184,0,0,1-2.318,3.089A6.384,6.384,0,0,1,140.166,100a9.994,9.994,0,0,1-3.7-.845.8.8,0,0,1,.624-1.484l.023.011Z" transform="translate(-50 -76.34)"/><path class="cls-99" d="M82.151,97.372a4.427,4.427,0,0,0,2.609.192,3.477,3.477,0,0,0,1.986-1.595,5.507,5.507,0,0,0,.824-2.624c.016-.234,0-.47,0-.706-.019-.235-.057-.468-.082-.7l-.172-.692a4.9,4.9,0,0,1-.177-.839,5.219,5.219,0,0,1,.666-3.265,4.248,4.248,0,0,1,1.141-1.272,3.766,3.766,0,0,1,1.6-.663,4.592,4.592,0,0,1,3.165.835,9.254,9.254,0,0,1,2.223,2.218.085.085,0,0,1-.128.111,11.259,11.259,0,0,0-2.4-1.825,4,4,0,0,0-2.714-.506,3.737,3.737,0,0,0-2.627,4.236,3.968,3.968,0,0,0,.174.659l.242.792c.047.273.1.546.141.821.014.277.046.555.041.833a6.668,6.668,0,0,1-.847,3.236,4.751,4.751,0,0,1-2.687,2.193,5.38,5.38,0,0,1-3.436-.219.651.651,0,0,1,.444-1.223Z" transform="translate(-50 -76.34)"/><path class="cls-100" d="M97.746,99.857a5.541,5.541,0,0,1,1.98,1.025,2.823,2.823,0,0,1,.751,1.022,2.981,2.981,0,0,1,.245,1.224,6.277,6.277,0,0,1-.447,2.109c-.231.632-.493,1.224-.736,1.808a8.015,8.015,0,0,0-.875,3.392,3.122,3.122,0,0,0,1.859,2.477,11.419,11.419,0,0,0,3.442,1.17,5.342,5.342,0,0,0,3.445-.287,3.022,3.022,0,0,0,1.231-1.154,4.163,4.163,0,0,0,.388-.8,7.523,7.523,0,0,0,.23-.88,10.281,10.281,0,0,0-.118-3.74.085.085,0,0,1,.065-.1.086.086,0,0,1,.1.057,9.737,9.737,0,0,1,.507,3.861,6.579,6.579,0,0,1-.174.993,4.867,4.867,0,0,1-.382.956,4.046,4.046,0,0,1-.6.867,3.214,3.214,0,0,1-.395.359,1.968,1.968,0,0,1-.433.312,6.225,6.225,0,0,1-4.027.572,12.462,12.462,0,0,1-3.828-1.179,5.5,5.5,0,0,1-1.691-1.3,3.726,3.726,0,0,1-.871-2.073,5.989,5.989,0,0,1,.219-2.125,18.261,18.261,0,0,1,.643-1.888c.235-.6.477-1.188.672-1.762a4.939,4.939,0,0,0,.326-1.632A1.438,1.438,0,0,0,98.744,102a4.158,4.158,0,0,0-1.427-.675l-.04-.012a.767.767,0,0,1,.449-1.467Z" transform="translate(-50 -76.34)"/></g></g></svg>