<svg id="layer1" xmlns="http://www.w3.org/2000/svg" xmlns:xlink="http://www.w3.org/1999/xlink" viewBox="0 0 86.453 179.818"><defs><style>.cls-1{fill:url(#linear-gradient);}.cls-2{fill:url(#radial-gradient);}.cls-3{fill:url(#radial-gradient-2);}.cls-4{fill:url(#linear-gradient-2);}.cls-5{fill:url(#radial-gradient-3);}.cls-6{fill:url(#radial-gradient-4);}</style><linearGradient id="linear-gradient" x1="-1093.664" y1="767.271" x2="-1096.87" y2="767.271" gradientTransform="translate(-3585.656 2352.397) rotate(180) scale(3.345 2.944)" gradientUnits="userSpaceOnUse"><stop offset="0" stop-color="#349ca4"/><stop offset="0.263" stop-color="#7cbfc4"/><stop offset="1" stop-color="#28969e"/></linearGradient><radialGradient id="radial-gradient" cx="-1093.94" cy="749.256" r="7.414" gradientTransform="translate(-3585.656 2352.397) rotate(180) scale(3.345 2.944)" gradientUnits="userSpaceOnUse"><stop offset="0" stop-color="#f4e3d7"/><stop offset="1" stop-color="#28969e"/></radialGradient><radialGradient id="radial-gradient-2" cx="-1101.321" cy="805.206" r="11.408" gradientTransform="translate(-3585.656 2943.703) rotate(180) scale(3.345 3.6)" gradientUnits="userSpaceOnUse"><stop offset="0.479" stop-color="#43a3aa"/><stop offset="0.691" stop-color="#7cbfc4"/><stop offset="1" stop-color="#28969e"/></radialGradient><linearGradient id="linear-gradient-2" x1="112.7" y1="767.234" x2="115.907" y2="767.234" gradientTransform="matrix(3.354, 0, 0, -2.944, -260.801, 2352.024)" gradientUnits="userSpaceOnUse"><stop offset="0" stop-color="#d38d5f"/><stop offset="0.263" stop-color="#f4e3d7"/><stop offset="1" stop-color="#d38d5f"/></linearGradient><radialGradient id="radial-gradient-3" cx="106.261" cy="805.279" r="11.281" gradientTransform="matrix(3.354, 0, 0, -3.6, -260.801, 2943.527)" gradientUnits="userSpaceOnUse"><stop offset="0.479" stop-color="#d38d5f"/><stop offset="0.691" stop-color="#f4e3d7"/><stop offset="1" stop-color="#d38d5f"/></radialGradient><radialGradient id="radial-gradient-4" cx="-1079.363" cy="749.191" r="7.414" gradientTransform="translate(-3502.197 2352.024) rotate(180) scale(3.354 2.944)" gradientUnits="userSpaceOnUse"><stop offset="0" stop-color="#f4e3d7"/><stop offset="1" stop-color="#d38d5f"/></radialGradient></defs><title>R-ICO-013683</title><g id="LRP6"><path id="path5779" class="cls-1" d="M77.5,148.344c2.96,0,5.361-2.112,5.362-4.717V43.578c-.052-2.606-2.494-4.682-5.455-4.637-2.888.045-5.217,2.095-5.268,4.637V143.624c0,2.606,2.4,4.719,5.359,4.72Z" transform="translate(-56.773 -10.182)"/><path id="path5781" class="cls-2" d="M56.773,143.624c0-10.078,9.28-18.249,20.729-18.25s20.732,8.168,20.733,18.245v0c0,9.569-4.822,24.865-4.822,32.089.178,7.732-6.8,14.127-15.583,14.284S61.78,184.013,61.6,176.281c0-.19,0-.379,0-.568C61.6,168.489,56.773,153.193,56.773,143.624Z" transform="translate(-56.773 -10.182)"/><path id="path5783" class="cls-3" d="M99.937,10.183a12.014,12.014,0,0,0-3.9.606c-23.8,7.547-30.686,15.888-30.686,37.193,0,22.755,7.2,28.93,30.329,37.076a9.411,9.411,0,0,0,3.53.536,11.71,11.71,0,0,0,1.673-.06c2.487-1.123-13.876,1.426-3.349-7.964,8.28-9.79-10.533-3.53,1.128-10.59.645-.229,1.113-.41,1.7-.623-13.392-4.816-13.57-6-13.57-18.375,0-12.329,1.087-14.334,13.583-18.473-.955-.316-1.821-.615-2.916-.962a10.911,10.911,0,0,1-4.543-2.676l12.525-4.751c-12.22-2.151-7.943-6.453-7.943-6.453,4.73-1.514,1.007-2.748-1.625-3.354a11.857,11.857,0,0,1,4.511-1.108C100.239,10.2,100.088,10.188,99.937,10.183Z" transform="translate(-56.773 -10.182)"/></g><g id="FZD"><path id="path36" class="cls-4" d="M122.572,148.161c-2.969,0-5.376-2.111-5.377-4.717V43.4c-.052-2.606,2.313-4.756,5.283-4.8s5.418,2.031,5.47,4.637q0,.083,0,.165V143.441c0,2.606-2.4,4.719-5.374,4.72Z" transform="translate(-56.773 -10.182)"/><path id="path40" class="cls-5" d="M100.389,10.205a9.987,9.987,0,0,0-4.511,1.108c2.64.606,6.368,1.84,1.625,3.354,0,0-4.311,4.3,7.943,6.453L92.921,25.871c1.984,2.3,6.353,3.268,7.459,3.638,12.033,4.023,12.871,6.135,12.871,18.291,0,12.9.606,13.81-14.589,19.18-11.694,7.06,7.176.8-1.128,10.59-10.547,9.459,5.776,6.843,3.349,7.964a11.992,11.992,0,0,0,3.454-.661c23.192-8.146,30.415-14.324,30.415-37.079,0-21.3-6.9-29.641-30.767-37.188A10.161,10.161,0,0,0,100.389,10.205Z" transform="translate(-56.773 -10.182)"/><path id="path915" class="cls-6" d="M101.647,143.441c0-10.077,9.306-18.248,20.788-18.249s20.79,8.167,20.792,18.245v0c0,9.569-4.836,24.866-4.836,32.09.178,7.732-6.818,14.127-15.628,14.284S106.668,183.83,106.49,176.1q-.007-.284,0-.567C106.483,168.307,101.647,153.01,101.647,143.441Z" transform="translate(-56.773 -10.182)"/></g></svg>