<svg id="Layer_1" data-name="Layer 1" xmlns="http://www.w3.org/2000/svg" xmlns:xlink="http://www.w3.org/1999/xlink" viewBox="0 0 69.508 15.382"><defs><style>.cls-1{fill:#ba1149;}.cls-2{fill:url(#linear-gradient);}.cls-3{fill:url(#linear-gradient-2);}.cls-4{fill:url(#linear-gradient-3);}.cls-5{fill:url(#linear-gradient-4);}</style><linearGradient id="linear-gradient" x1="93.659" y1="95.308" x2="124.239" y2="102.128" gradientUnits="userSpaceOnUse"><stop offset="0" stop-color="#ff9cbd"/><stop offset="1" stop-color="#ba1149"/></linearGradient><linearGradient id="linear-gradient-2" x1="64.514" y1="97.022" x2="93.664" y2="104.612" xlink:href="#linear-gradient"/><linearGradient id="linear-gradient-3" x1="80.344" y1="89.62" x2="108.361" y2="108.968" gradientUnits="userSpaceOnUse"><stop offset="0" stop-color="#ff9cbd"/><stop offset="0.018" stop-color="#fd98ba"/><stop offset="0.252" stop-color="#e56892"/><stop offset="0.475" stop-color="#d24272"/><stop offset="0.68" stop-color="#c5275c"/><stop offset="0.861" stop-color="#bd174e"/><stop offset="1" stop-color="#ba1149"/></linearGradient><linearGradient id="linear-gradient-4" x1="94.46" y1="99.971" x2="66.682" y2="99.096" gradientUnits="userSpaceOnUse"><stop offset="0" stop-color="#ba1149"/><stop offset="1" stop-color="#ff9cbd"/></linearGradient></defs><title>R-ICO-012344</title><g id="R-ICO-012344"><polygon class="cls-1" points="59.608 0 69.508 7.691 59.608 15.382 59.608 0"/><path class="cls-2" d="M125.5,103.679H106.3A18.163,18.163,0,0,1,94.945,100,18.144,18.144,0,0,1,106.3,96.321h19.2Z" transform="translate(-65.246 -92.309)"/><path class="cls-3" d="M94.945,100a18.14,18.14,0,0,0-11.353-3.679H65.576v7.358H83.591A18.159,18.159,0,0,0,94.945,100Z" transform="translate(-65.246 -92.309)"/><path class="cls-4" d="M125.5,104.009H106.3a18.411,18.411,0,0,1-11.546-3.741,17.808,17.808,0,0,0-11.163-3.617H65.246v-.66H83.592A18.416,18.416,0,0,1,95.14,99.732a17.8,17.8,0,0,0,11.161,3.617h19.2Z" transform="translate(-65.246 -92.309)"/><path class="cls-5" d="M125.5,96.651H106.3a17.808,17.808,0,0,0-11.164,3.617,18.411,18.411,0,0,1-11.546,3.741H65.246V95.991h.66v7.358H83.591a17.8,17.8,0,0,0,11.161-3.617A18.419,18.419,0,0,1,106.3,95.991h19.2Z" transform="translate(-65.246 -92.309)"/></g></svg>