<svg id="Layer_1" data-name="Layer 1" xmlns="http://www.w3.org/2000/svg" xmlns:xlink="http://www.w3.org/1999/xlink" viewBox="0 0 150 11.907"><defs><style>.cls-1{fill:url(#linear-gradient);}.cls-2{fill:url(#linear-gradient-2);}.cls-3{fill:url(#linear-gradient-3);}.cls-4{fill:url(#linear-gradient-4);}.cls-5{opacity:0.9;}.cls-6{fill:url(#linear-gradient-5);}.cls-7{mask:url(#mask);}.cls-8{fill:url(#radial-gradient);}.cls-9{mask:url(#mask-2);}.cls-10{fill:url(#radial-gradient-2);}.cls-11{fill:url(#linear-gradient-6);}.cls-12{mask:url(#mask-3);}.cls-13{fill:url(#radial-gradient-3);}.cls-14{mask:url(#mask-4);}.cls-15{fill:url(#radial-gradient-4);}</style><linearGradient id="linear-gradient" x1="91.977" y1="100" x2="100" y2="100" gradientUnits="userSpaceOnUse"><stop offset="0.12"/><stop offset="0.173" stop-color="#343434"/><stop offset="0.235" stop-color="#696969"/><stop offset="0.299" stop-color="#979797"/><stop offset="0.362" stop-color="#bcbcbc"/><stop offset="0.424" stop-color="#dadada"/><stop offset="0.485" stop-color="#eee"/><stop offset="0.546" stop-color="#fbfbfb"/><stop offset="0.604" stop-color="#fff"/></linearGradient><linearGradient id="linear-gradient-2" x1="25" y1="100" x2="33.023" y2="100" gradientUnits="userSpaceOnUse"><stop offset="0.396" stop-color="#fff"/><stop offset="0.454" stop-color="#fbfbfb"/><stop offset="0.515" stop-color="#eee"/><stop offset="0.576" stop-color="#dadada"/><stop offset="0.638" stop-color="#bcbcbc"/><stop offset="0.701" stop-color="#979797"/><stop offset="0.765" stop-color="#696969"/><stop offset="0.827" stop-color="#343434"/><stop offset="0.88"/></linearGradient><linearGradient id="linear-gradient-3" x1="166.977" y1="100" x2="175" y2="100" xlink:href="#linear-gradient"/><linearGradient id="linear-gradient-4" x1="100" y1="100" x2="108.023" y2="100" xlink:href="#linear-gradient-2"/><linearGradient id="linear-gradient-5" x1="62.5" y1="93.969" x2="62.5" y2="105.906" gradientUnits="userSpaceOnUse"><stop offset="0.007" stop-color="#bfbfff"/><stop offset="0.066" stop-color="#aa95ef"/><stop offset="0.14" stop-color="#9468de"/><stop offset="0.214" stop-color="#8242cf"/><stop offset="0.287" stop-color="#7325c4"/><stop offset="0.36" stop-color="#6911bc"/><stop offset="0.431" stop-color="#6304b8"/><stop offset="0.5" stop-color="#6100b6"/><stop offset="0.57" stop-color="#6304b8"/><stop offset="0.642" stop-color="#6911bc"/><stop offset="0.716" stop-color="#7325c4"/><stop offset="0.79" stop-color="#8242cf"/><stop offset="0.866" stop-color="#9468de"/><stop offset="0.94" stop-color="#aa95ef"/><stop offset="1" stop-color="#bfbfff"/></linearGradient><mask id="mask" x="66.977" y="0" width="8.023" height="11.907" maskUnits="userSpaceOnUse"><g transform="translate(-25 -94.047)"><path class="cls-1" d="M91.977,94.047h2.07a5.953,5.953,0,0,1,0,11.906h-2.07Z"/></g></mask><radialGradient id="radial-gradient" cx="93.909" cy="99.981" r="6.059" gradientUnits="userSpaceOnUse"><stop offset="0" stop-color="#6100b6"/><stop offset="0.14" stop-color="#6304b8"/><stop offset="0.285" stop-color="#6911bc"/><stop offset="0.432" stop-color="#7325c4"/><stop offset="0.581" stop-color="#8242cf"/><stop offset="0.731" stop-color="#9468de"/><stop offset="0.88" stop-color="#aa95ef"/><stop offset="1" stop-color="#bfbfff"/></radialGradient><mask id="mask-2" x="0" y="0" width="8.023" height="11.907" maskUnits="userSpaceOnUse"><g transform="translate(-25 -94.047)"><path class="cls-2" d="M33.023,105.953h-2.07a5.953,5.953,0,1,1,0-11.906h2.07Z"/></g></mask><radialGradient id="radial-gradient-2" cx="1277.39" cy="557.772" r="6.059" gradientTransform="translate(1308.481 657.791) rotate(180)" xlink:href="#radial-gradient"/><linearGradient id="linear-gradient-6" x1="137.5" y1="93.969" x2="137.5" y2="105.906" xlink:href="#linear-gradient-5"/><mask id="mask-3" x="141.977" y="0" width="8.023" height="11.907" maskUnits="userSpaceOnUse"><g transform="translate(-25 -94.047)"><path class="cls-3" d="M166.977,94.047h2.07a5.953,5.953,0,1,1,0,11.906h-2.07Z"/></g></mask><radialGradient id="radial-gradient-3" cx="168.909" cy="99.981" r="6.059" xlink:href="#radial-gradient"/><mask id="mask-4" x="75" y="0" width="8.023" height="11.907" maskUnits="userSpaceOnUse"><g transform="translate(-25 -94.047)"><path class="cls-4" d="M108.023,105.953h-2.07a5.953,5.953,0,0,1,0-11.906h2.07Z"/></g></mask><radialGradient id="radial-gradient-4" cx="1202.39" cy="557.772" r="6.059" gradientTransform="translate(1308.481 657.791) rotate(180)" xlink:href="#radial-gradient"/></defs><title>R-ICO-013953</title><g id="R-ICO-013953" class="cls-5"><g id="BACTERIAL_TOXIN"><path class="cls-6" d="M94.047,105.953H30.953a5.953,5.953,0,1,1,0-11.906H94.047a5.953,5.953,0,0,1,0,11.906Z" transform="translate(-25 -94.047)"/><g class="cls-7"><path class="cls-8" d="M91.977,94.047h2.07a5.953,5.953,0,0,1,0,11.906h-2.07Z" transform="translate(-25 -94.047)"/></g><g class="cls-9"><path class="cls-10" d="M33.023,105.953h-2.07a5.953,5.953,0,1,1,0-11.906h2.07Z" transform="translate(-25 -94.047)"/></g></g><g id="BACTERIAL_TOXIN-2" data-name="BACTERIAL_TOXIN"><path class="cls-11" d="M169.047,105.953H105.953a5.953,5.953,0,0,1,0-11.906h63.094a5.953,5.953,0,1,1,0,11.906Z" transform="translate(-25 -94.047)"/><g class="cls-12"><path class="cls-13" d="M166.977,94.047h2.07a5.953,5.953,0,1,1,0,11.906h-2.07Z" transform="translate(-25 -94.047)"/></g><g class="cls-14"><path class="cls-15" d="M108.023,105.953h-2.07a5.953,5.953,0,0,1,0-11.906h2.07Z" transform="translate(-25 -94.047)"/></g></g></g></svg>