<svg id="Layer_1" data-name="Layer 1" xmlns="http://www.w3.org/2000/svg" xmlns:xlink="http://www.w3.org/1999/xlink" viewBox="0 0 50.478 22.74"><defs><style>.cls-1{fill:url(#linear-gradient);}.cls-2{fill:#4a94ff;}.cls-3{font-size:12px;fill:#fff;font-family:Arial-BoldMT, Arial;font-weight:700;}</style><linearGradient id="linear-gradient" x1="25.441" y1="21.171" x2="25.441" y2="1.171" gradientUnits="userSpaceOnUse"><stop offset="0" stop-color="#ba752b"/><stop offset="1" stop-color="#4a94ff"/></linearGradient></defs><title>R-ICO-013672</title><g id="R-ICO-013672"><rect class="cls-1" x="1.441" y="1.171" width="48" height="20" rx="10"/><path class="cls-2" d="M114,110.15c-4.949-.009-9.9.43-14.847.837-2.474.2-4.949.388-7.423.457-1.238.057-2.475.074-3.712.093l-1.856.032a13.051,13.051,0,0,1-2.118-.147A11.37,11.37,0,0,1,74.63,99.034a11.1,11.1,0,0,1,3.806-7.268A10.863,10.863,0,0,1,86,89.179c4.949.281,9.9.436,14.847.335,2.474-.059,4.949-.178,7.423-.342l3.712-.234,1.856-.1a11.188,11.188,0,0,1,2.058.087,10.711,10.711,0,0,1,7.049,4.157,10.4,10.4,0,0,1,1.964,7.846,10.878,10.878,0,0,1-3.9,6.7A11.217,11.217,0,0,1,114,110.15Zm0-.3a8.986,8.986,0,0,0,6.489-2.786,9.126,9.126,0,0,0,2.516-6.3,9.637,9.637,0,0,0-7.532-9.38,11.675,11.675,0,0,0-1.635-.222l-1.856-.1-3.712-.234c-2.474-.164-4.949-.283-7.423-.342-4.949-.1-9.9.054-14.847.335a9.173,9.173,0,0,0-5.934,2.718,8.954,8.954,0,0,0-2.61,5.735,8.493,8.493,0,0,0,1.888,5.869,8.72,8.72,0,0,0,5.242,3.126,9.63,9.63,0,0,0,1.576.162l1.856.032c1.237.019,2.474.036,3.712.093,2.474.069,4.949.252,7.423.457C104.1,109.42,109.051,109.859,114,109.85Z" transform="translate(-74.559 -88.829)"/><text class="cls-3" transform="translate(4.077 14.057)">MAPK7</text></g></svg>