<svg id="Layer_1" data-name="Layer 1" xmlns="http://www.w3.org/2000/svg" xmlns:xlink="http://www.w3.org/1999/xlink" viewBox="0 0 127.128 60.496"><defs><style>.cls-1{fill:url(#linear-gradient);}.cls-2{fill:url(#linear-gradient-2);}.cls-3{fill:url(#linear-gradient-3);}.cls-4{fill:url(#linear-gradient-4);}.cls-5{fill:url(#linear-gradient-5);}.cls-6{fill:url(#linear-gradient-6);}.cls-7{fill:url(#linear-gradient-7);}.cls-8{fill:url(#linear-gradient-8);}.cls-9{fill:url(#linear-gradient-9);}.cls-10{fill:url(#linear-gradient-10);}.cls-11{fill:url(#linear-gradient-11);}.cls-12{fill:url(#linear-gradient-12);}.cls-13{fill:url(#linear-gradient-13);}.cls-14{fill:url(#linear-gradient-14);}.cls-15{fill:url(#linear-gradient-15);}.cls-16{mask:url(#mask);}.cls-17{fill:url(#radial-gradient);}.cls-18{mask:url(#mask-2);}.cls-19{fill:url(#radial-gradient-2);}.cls-20{fill:url(#linear-gradient-16);}.cls-21{fill:url(#linear-gradient-17);}.cls-22{fill:url(#linear-gradient-18);}.cls-23{fill:url(#linear-gradient-19);}.cls-24{fill:url(#linear-gradient-20);}.cls-25{fill:url(#linear-gradient-21);}.cls-26{fill:url(#linear-gradient-22);}.cls-27{mask:url(#mask-3);}.cls-28{fill:url(#radial-gradient-3);}.cls-29{mask:url(#mask-4);}.cls-30{fill:url(#radial-gradient-4);}.cls-31{fill:url(#linear-gradient-23);}.cls-32{fill:url(#linear-gradient-24);}.cls-33{fill:url(#linear-gradient-25);}.cls-34{fill:url(#linear-gradient-26);}.cls-35{fill:url(#linear-gradient-27);}.cls-36{fill:url(#linear-gradient-28);}.cls-37{fill:url(#linear-gradient-29);}.cls-38{fill:url(#linear-gradient-30);}.cls-39{fill:url(#linear-gradient-31);}.cls-40{fill:url(#linear-gradient-32);}</style><linearGradient id="linear-gradient" x1="82.309" y1="88.458" x2="82.309" y2="80.35" gradientUnits="userSpaceOnUse"><stop offset="0"/><stop offset="0.104" stop-color="#2a2a2a"/><stop offset="0.303" stop-color="#757575"/><stop offset="0.481" stop-color="#b0b0b0"/><stop offset="0.631" stop-color="#dbdbdb"/><stop offset="0.749" stop-color="#f5f5f5"/><stop offset="0.818" stop-color="#fff"/></linearGradient><linearGradient id="linear-gradient-2" x1="82.309" y1="222.023" x2="82.309" y2="213.916" gradientTransform="matrix(1, 0, 0, -1, 0, 329.307)" xlink:href="#linear-gradient"/><linearGradient id="linear-gradient-3" x1="113.072" y1="222.023" x2="113.072" y2="213.916" gradientTransform="matrix(1, 0, 0, -1, 0, 329.307)" xlink:href="#linear-gradient"/><linearGradient id="linear-gradient-4" x1="113.072" y1="88.458" x2="113.072" y2="80.35" xlink:href="#linear-gradient"/><linearGradient id="linear-gradient-5" x1="-219.547" y1="220.984" x2="-249.258" y2="241.008" gradientTransform="translate(-169.706 348.395) rotate(180)" gradientUnits="userSpaceOnUse"><stop offset="0" stop-color="#20c7e3"/><stop offset="1" stop-color="#072c33"/></linearGradient><linearGradient id="linear-gradient-6" x1="-207.583" y1="246.624" x2="-249.876" y2="243.877" xlink:href="#linear-gradient-5"/><linearGradient id="linear-gradient-7" x1="-207.614" y1="262.066" x2="-249.682" y2="245.586" xlink:href="#linear-gradient-5"/><linearGradient id="linear-gradient-8" x1="-214.904" y1="240.227" x2="-248.663" y2="256.781" xlink:href="#linear-gradient-5"/><linearGradient id="linear-gradient-9" x1="-212.878" y1="251.594" x2="-248.589" y2="263.955" xlink:href="#linear-gradient-5"/><linearGradient id="linear-gradient-10" x1="-212.825" y1="275.43" x2="-249.547" y2="259.021" xlink:href="#linear-gradient-5"/><linearGradient id="linear-gradient-11" x1="-214.066" y1="225.248" x2="-249.343" y2="251.488" xlink:href="#linear-gradient-5"/><linearGradient id="linear-gradient-12" x1="-204.402" y1="254.331" x2="-249.004" y2="255.198" xlink:href="#linear-gradient-5"/><linearGradient id="linear-gradient-13" x1="-206.236" y1="230.769" x2="-249.319" y2="236.552" xlink:href="#linear-gradient-5"/><linearGradient id="linear-gradient-14" x1="-221.286" y1="237.85" x2="-249.189" y2="240.163" xlink:href="#linear-gradient-5"/><linearGradient id="linear-gradient-15" x1="43.665" y1="30.296" x2="51.989" y2="30.296" gradientUnits="userSpaceOnUse"><stop offset="0" stop-color="#ad3753"/><stop offset="0.037" stop-color="#be4965"/><stop offset="0.093" stop-color="#d05d78"/><stop offset="0.156" stop-color="#dd6b86"/><stop offset="0.234" stop-color="#e5738f"/><stop offset="0.365" stop-color="#e77691"/><stop offset="0.558" stop-color="#e4748f"/><stop offset="0.674" stop-color="#dc6e88"/><stop offset="0.771" stop-color="#ce637c"/><stop offset="0.856" stop-color="#b9546c"/><stop offset="0.933" stop-color="#9f4057"/><stop offset="1" stop-color="#822a3f"/></linearGradient><mask id="mask" x="42.388" y="12.714" width="10.994" height="8.23" maskUnits="userSpaceOnUse"><g transform="translate(-34.424 -67.575)"><rect class="cls-1" x="76.812" y="80.289" width="10.994" height="8.23"/></g></mask><radialGradient id="radial-gradient" cx="82.358" cy="87.467" r="6.705" gradientTransform="translate(142.603 4.789) rotate(89.697) scale(1 0.694)" gradientUnits="userSpaceOnUse"><stop offset="0.365" stop-color="#e77691"/><stop offset="0.558" stop-color="#e4748f"/><stop offset="0.674" stop-color="#dc6e88"/><stop offset="0.771" stop-color="#ce637c"/><stop offset="0.856" stop-color="#b9546c"/><stop offset="0.933" stop-color="#9f4057"/><stop offset="1" stop-color="#822a3f"/></radialGradient><mask id="mask-2" x="42.388" y="39.647" width="10.994" height="8.23" maskUnits="userSpaceOnUse"><g transform="translate(-34.424 -67.575)"><rect class="cls-2" x="76.812" y="107.222" width="10.994" height="8.23"/></g></mask><radialGradient id="radial-gradient-2" cx="82.358" cy="221.032" r="6.705" gradientTransform="matrix(0.005, -1, -0.694, -0.004, 235.266, 191.443)" xlink:href="#radial-gradient"/><linearGradient id="linear-gradient-16" x1="98.71" y1="85.148" x2="98.71" y2="87.461" gradientTransform="matrix(1, 0, 0, 1, 0, 0)" xlink:href="#linear-gradient-5"/><linearGradient id="linear-gradient-17" x1="98.71" y1="89.774" x2="98.71" y2="92.088" gradientTransform="matrix(1, 0, 0, 1, 0, 0)" xlink:href="#linear-gradient-5"/><linearGradient id="linear-gradient-18" x1="98.71" y1="94.401" x2="98.71" y2="96.714" gradientTransform="matrix(1, 0, 0, 1, 0, 0)" xlink:href="#linear-gradient-5"/><linearGradient id="linear-gradient-19" x1="98.71" y1="99.027" x2="98.71" y2="101.341" gradientTransform="matrix(1, 0, 0, 1, 0, 0)" xlink:href="#linear-gradient-5"/><linearGradient id="linear-gradient-20" x1="98.71" y1="103.655" x2="98.71" y2="105.968" gradientTransform="matrix(1, 0, 0, 1, 0, 0)" xlink:href="#linear-gradient-5"/><linearGradient id="linear-gradient-21" x1="98.71" y1="108.281" x2="98.71" y2="110.595" gradientTransform="matrix(1, 0, 0, 1, 0, 0)" xlink:href="#linear-gradient-5"/><linearGradient id="linear-gradient-22" x1="74.427" y1="30.296" x2="82.752" y2="30.296" xlink:href="#linear-gradient-15"/><mask id="mask-3" x="73.15" y="39.647" width="10.994" height="8.23" maskUnits="userSpaceOnUse"><g transform="translate(-34.424 -67.575)"><rect class="cls-3" x="107.574" y="107.222" width="10.994" height="8.23"/></g></mask><radialGradient id="radial-gradient-3" cx="113.12" cy="221.032" r="6.705" gradientTransform="matrix(0.005, -1, -0.694, -0.004, 265.865, 222.205)" xlink:href="#radial-gradient"/><mask id="mask-4" x="73.15" y="12.714" width="10.994" height="8.23" maskUnits="userSpaceOnUse"><g transform="translate(-34.424 -67.575)"><rect class="cls-4" x="107.574" y="80.289" width="10.994" height="8.23"/></g></mask><radialGradient id="radial-gradient-4" cx="113.12" cy="87.467" r="6.705" gradientTransform="translate(173.203 -25.973) rotate(89.697) scale(1 0.694)" xlink:href="#radial-gradient"/><linearGradient id="linear-gradient-23" x1="146.135" y1="68.236" x2="116.425" y2="88.26" gradientTransform="matrix(1, 0, 0, 1, 0, 0)" xlink:href="#linear-gradient-5"/><linearGradient id="linear-gradient-24" x1="158.099" y1="93.876" x2="115.806" y2="91.129" gradientTransform="matrix(1, 0, 0, 1, 0, 0)" xlink:href="#linear-gradient-5"/><linearGradient id="linear-gradient-25" x1="158.069" y1="109.318" x2="116" y2="92.838" gradientTransform="matrix(1, 0, 0, 1, 0, 0)" xlink:href="#linear-gradient-5"/><linearGradient id="linear-gradient-26" x1="150.778" y1="87.479" x2="117.02" y2="104.033" gradientTransform="matrix(1, 0, 0, 1, 0, 0)" xlink:href="#linear-gradient-5"/><linearGradient id="linear-gradient-27" x1="152.804" y1="98.846" x2="117.094" y2="111.207" gradientTransform="matrix(1, 0, 0, 1, 0, 0)" xlink:href="#linear-gradient-5"/><linearGradient id="linear-gradient-28" x1="152.858" y1="122.682" x2="116.135" y2="106.273" gradientTransform="matrix(1, 0, 0, 1, 0, 0)" xlink:href="#linear-gradient-5"/><linearGradient id="linear-gradient-29" x1="151.616" y1="72.5" x2="116.339" y2="98.74" gradientTransform="matrix(1, 0, 0, 1, 0, 0)" xlink:href="#linear-gradient-5"/><linearGradient id="linear-gradient-30" x1="161.281" y1="101.583" x2="116.679" y2="102.45" gradientTransform="matrix(1, 0, 0, 1, 0, 0)" xlink:href="#linear-gradient-5"/><linearGradient id="linear-gradient-31" x1="159.447" y1="78.021" x2="116.363" y2="83.804" gradientTransform="matrix(1, 0, 0, 1, 0, 0)" xlink:href="#linear-gradient-5"/><linearGradient id="linear-gradient-32" x1="144.396" y1="85.102" x2="116.493" y2="87.415" gradientTransform="matrix(1, 0, 0, 1, 0, 0)" xlink:href="#linear-gradient-5"/></defs><title>adherens_juntion</title><g id="ADHERENS_JUNCTION"><path class="cls-5" d="M79.643,107.375a.578.578,0,0,1,.372,1.021,73.039,73.039,0,0,1-9.063,5.614c-6.875,3.892-15.43,8.737-19.991,13.867a.578.578,0,1,1-.864-.768c4.688-5.274,13.336-10.171,20.285-14.105a72.881,72.881,0,0,0,8.89-5.493A.573.573,0,0,1,79.643,107.375Z" transform="translate(-34.424 -67.575)"/><path class="cls-6" d="M47.623,101.611a178.4,178.4,0,0,1,32.138,2.771.579.579,0,0,1-.233,1.134,181.962,181.962,0,0,0-41-2.519.578.578,0,1,1-.059-1.154C41.619,101.679,44.683,101.611,47.623,101.611Z" transform="translate(-34.424 -67.575)"/><path class="cls-7" d="M38.5,85.637a.574.574,0,0,1,.4.158c4.391,4.141,38.069,15.127,40.829,15.5a.578.578,0,1,1-.156,1.145c-2.85-.389-36.792-11.4-41.467-15.81a.578.578,0,0,1,.4-1Z" transform="translate(-34.424 -67.575)"/><path class="cls-8" d="M79,91.981a.577.577,0,0,1,.5.869c-.521.884-2.636,1.613-7.372,3.176-7.769,2.564-19.51,6.439-25.7,13.1a.579.579,0,0,1-.847-.788c6.392-6.876,18.3-10.807,26.184-13.409,3.15-1.039,6.407-2.114,6.737-2.664A.583.583,0,0,1,79,91.981Z" transform="translate(-34.424 -67.575)"/><path class="cls-9" d="M78.686,85.108c.141,0,.261,0,.364.014a.578.578,0,0,1-.105,1.152C75.878,86,52.59,90.514,44.192,98.219a.578.578,0,1,1-.782-.852C51.939,89.542,74.333,85.108,78.686,85.108Z" transform="translate(-34.424 -67.575)"/><path class="cls-10" d="M43.8,72.107a.575.575,0,0,1,.274.07l.184.1C68.219,85.239,76.726,87.96,79.644,87.96a.578.578,0,1,1,0,1.157c-4.438,0-16.529-5.324-35.935-15.824l-.183-.1a.578.578,0,0,1,.276-1.087Z" transform="translate(-34.424 -67.575)"/><path class="cls-11" d="M79,96.378a.578.578,0,0,1,.4,1,229.6,229.6,0,0,1-34.516,25.435.579.579,0,0,1-.6-.989A228.363,228.363,0,0,0,78.6,96.535.577.577,0,0,1,79,96.378Z" transform="translate(-34.424 -67.575)"/><path class="cls-12" d="M79,90.425a.578.578,0,0,1,.219,1.114c-21.208,8.67-36.956,4.178-44.456.726a.578.578,0,0,1,.483-1.05c7.329,3.372,22.731,7.76,43.534-.747A.578.578,0,0,1,79,90.425Z" transform="translate(-34.424 -67.575)"/><path class="cls-13" d="M79,110.716a.578.578,0,0,1,.141,1.139c-16.771,4.229-39.038,6.639-42.457,5.646a.579.579,0,0,1,.324-1.111c2.885.848,24.542-1.292,41.851-5.655A.558.558,0,0,1,79,110.716Z" transform="translate(-34.424 -67.575)"/><path class="cls-14" d="M79,106.467a.579.579,0,0,1,.056,1.154,55.6,55.6,0,0,0-11.848,2.5c-4.794,1.454-8.257,2.505-15.186.06a.579.579,0,0,1,.385-1.091c6.57,2.318,9.711,1.366,14.464-.076a57.451,57.451,0,0,1,12.072-2.546Z" transform="translate(-34.424 -67.575)"/><rect class="cls-15" x="43.706" y="13.192" width="8.701" height="34.208" rx="3.761" ry="3.761"/><g class="cls-16"><path class="cls-17" d="M78.131,88.271V85.117a4.363,4.363,0,0,1,4.35-4.35h0a4.363,4.363,0,0,1,4.35,4.35v3.154" transform="translate(-34.424 -67.575)"/></g><g class="cls-18"><path class="cls-19" d="M78.131,107.471v3.154a4.363,4.363,0,0,0,4.35,4.35h0a4.363,4.363,0,0,0,4.35-4.35v-3.154" transform="translate(-34.424 -67.575)"/></g><path class="cls-20" d="M110.589,87.461H86.831a1.157,1.157,0,1,1,0-2.313h23.758a1.157,1.157,0,1,1,0,2.313Z" transform="translate(-34.424 -67.575)"/><path class="cls-21" d="M110.589,92.088H86.831a1.157,1.157,0,0,1,0-2.313h23.758a1.157,1.157,0,1,1,0,2.313Z" transform="translate(-34.424 -67.575)"/><path class="cls-22" d="M110.589,96.714H86.831a1.157,1.157,0,1,1,0-2.313h23.758a1.157,1.157,0,1,1,0,2.313Z" transform="translate(-34.424 -67.575)"/><path class="cls-23" d="M110.589,101.341H86.831a1.157,1.157,0,0,1,0-2.313h23.758a1.157,1.157,0,1,1,0,2.313Z" transform="translate(-34.424 -67.575)"/><path class="cls-24" d="M110.589,105.968H86.831a1.157,1.157,0,1,1,0-2.313h23.758a1.157,1.157,0,1,1,0,2.313Z" transform="translate(-34.424 -67.575)"/><path class="cls-25" d="M110.589,110.595H86.831a1.157,1.157,0,1,1,0-2.313h23.758a1.157,1.157,0,1,1,0,2.313Z" transform="translate(-34.424 -67.575)"/><rect class="cls-26" x="74.469" y="13.192" width="8.701" height="34.208" rx="3.761" ry="3.761"/><g class="cls-27"><path class="cls-28" d="M108.893,107.471v3.154a4.363,4.363,0,0,0,4.35,4.35h0a4.363,4.363,0,0,0,4.35-4.35v-3.154" transform="translate(-34.424 -67.575)"/></g><g class="cls-29"><path class="cls-30" d="M108.893,88.271V85.117a4.363,4.363,0,0,1,4.35-4.35h0a4.363,4.363,0,0,1,4.35,4.35v3.154" transform="translate(-34.424 -67.575)"/></g><path class="cls-31" d="M116.333,88.271a.578.578,0,0,1-.372-1.021,73.039,73.039,0,0,1,9.063-5.614c6.875-3.892,15.43-8.737,19.991-13.867a.578.578,0,1,1,.864.768c-4.688,5.274-13.336,10.171-20.285,14.105a72.881,72.881,0,0,0-8.89,5.493A.573.573,0,0,1,116.333,88.271Z" transform="translate(-34.424 -67.575)"/><path class="cls-32" d="M148.354,94.036a178.4,178.4,0,0,1-32.138-2.771.579.579,0,0,1,.233-1.134,181.962,181.962,0,0,0,41,2.519.578.578,0,1,1,.059,1.154C154.358,93.967,151.294,94.036,148.354,94.036Z" transform="translate(-34.424 -67.575)"/><path class="cls-33" d="M157.481,110.009a.574.574,0,0,1-.4-.158c-4.391-4.141-38.069-15.127-40.829-15.5a.578.578,0,1,1,.156-1.145c2.85.389,36.792,11.4,41.467,15.81a.578.578,0,0,1-.4,1Z" transform="translate(-34.424 -67.575)"/><path class="cls-34" d="M116.979,103.665a.577.577,0,0,1-.5-.869c.521-.884,2.636-1.613,7.372-3.176,7.769-2.564,19.51-6.439,25.7-13.1a.579.579,0,0,1,.847.788c-6.392,6.876-18.3,10.807-26.184,13.409-3.15,1.039-6.407,2.114-6.737,2.664A.583.583,0,0,1,116.979,103.665Z" transform="translate(-34.424 -67.575)"/><path class="cls-35" d="M117.291,110.538c-.141,0-.261,0-.364-.014a.578.578,0,0,1,.105-1.152c3.067.277,26.355-4.24,34.753-11.944a.578.578,0,1,1,.782.852C144.038,106.1,121.644,110.538,117.291,110.538Z" transform="translate(-34.424 -67.575)"/><path class="cls-36" d="M152.175,123.54a.575.575,0,0,1-.274-.07l-.184-.1c-23.959-12.963-32.466-15.684-35.384-15.684a.578.578,0,0,1,0-1.157c4.438,0,16.529,5.324,35.935,15.824l.183.1a.578.578,0,0,1-.276,1.087Z" transform="translate(-34.424 -67.575)"/><path class="cls-37" d="M116.979,99.269a.578.578,0,0,1-.4-1A229.6,229.6,0,0,1,151.1,72.834a.579.579,0,0,1,.6.989,228.363,228.363,0,0,0-34.323,25.288A.577.577,0,0,1,116.979,99.269Z" transform="translate(-34.424 -67.575)"/><path class="cls-38" d="M116.979,105.221a.578.578,0,0,1-.219-1.114c21.208-8.67,36.956-4.178,44.456-.726a.578.578,0,0,1-.483,1.05c-7.329-3.372-22.731-7.76-43.534.747A.578.578,0,0,1,116.979,105.221Z" transform="translate(-34.424 -67.575)"/><path class="cls-39" d="M116.979,84.93a.578.578,0,0,1-.141-1.139c16.771-4.229,39.038-6.639,42.457-5.646a.579.579,0,0,1-.324,1.111c-2.885-.848-24.542,1.292-41.851,5.655A.558.558,0,0,1,116.979,84.93Z" transform="translate(-34.424 -67.575)"/><path class="cls-40" d="M116.979,89.179a.579.579,0,0,1-.056-1.154,55.6,55.6,0,0,0,11.848-2.5c4.794-1.454,8.257-2.505,15.186-.06a.579.579,0,0,1-.385,1.091c-6.57-2.318-9.711-1.366-14.464.076a57.451,57.451,0,0,1-12.072,2.546Z" transform="translate(-34.424 -67.575)"/></g></svg>