<svg id="Layer_1" data-name="Layer 1" xmlns="http://www.w3.org/2000/svg" xmlns:xlink="http://www.w3.org/1999/xlink" viewBox="0 0 159.151 60"><defs><style>.cls-1{fill:none;stroke:#7522c4;stroke-linecap:round;stroke-linejoin:round;}.cls-2{fill:url(#linear-gradient);}.cls-3{fill:#5eaf1e;}.cls-4{fill:url(#linear-gradient-2);}.cls-5{fill:url(#linear-gradient-3);}.cls-6{fill:url(#linear-gradient-4);}.cls-7{fill:url(#linear-gradient-5);}.cls-8{fill:url(#linear-gradient-6);}.cls-9{fill:url(#linear-gradient-7);}.cls-10{fill:url(#linear-gradient-8);}.cls-11{fill:url(#linear-gradient-9);}.cls-12{fill:url(#linear-gradient-10);}.cls-13{fill:url(#linear-gradient-11);}.cls-14{fill:url(#linear-gradient-12);}</style><linearGradient id="linear-gradient" x1="114.425" y1="82.077" x2="114.425" y2="70.553" gradientUnits="userSpaceOnUse"><stop offset="0" stop-color="#2a4b00"/><stop offset="0.077" stop-color="#2d5102"/><stop offset="0.415" stop-color="#39690a"/><stop offset="0.731" stop-color="#41770f"/><stop offset="1" stop-color="#437c11"/></linearGradient><linearGradient id="linear-gradient-2" x1="165.671" y1="81.842" x2="165.671" y2="69.826" xlink:href="#linear-gradient"/><linearGradient id="linear-gradient-3" x1="63.258" y1="82.077" x2="63.258" y2="69.838" xlink:href="#linear-gradient"/><linearGradient id="linear-gradient-4" x1="88.881" y1="97.364" x2="88.881" y2="85.802" xlink:href="#linear-gradient"/><linearGradient id="linear-gradient-5" x1="37.634" y1="97.834" x2="37.634" y2="86.073" xlink:href="#linear-gradient"/><linearGradient id="linear-gradient-6" x1="140.048" y1="97.834" x2="140.048" y2="86.016" xlink:href="#linear-gradient"/><linearGradient id="linear-gradient-7" x1="88.881" y1="113.827" x2="88.881" y2="101.833" xlink:href="#linear-gradient"/><linearGradient id="linear-gradient-8" x1="37.634" y1="114.062" x2="37.634" y2="101.83" xlink:href="#linear-gradient"/><linearGradient id="linear-gradient-9" x1="140.048" y1="113.827" x2="140.048" y2="101.796" xlink:href="#linear-gradient"/><linearGradient id="linear-gradient-10" x1="88.881" y1="129.585" x2="88.881" y2="117.825" xlink:href="#linear-gradient"/><linearGradient id="linear-gradient-11" x1="37.634" y1="129.585" x2="37.634" y2="118.051" xlink:href="#linear-gradient"/><linearGradient id="linear-gradient-12" x1="140.048" y1="129.585" x2="140.048" y2="117.533" xlink:href="#linear-gradient"/></defs><title>collagen_fibril</title><g id="COLLAGEN_FIBRIL" data-name="COLLAGEN FIBRIL"><line class="cls-1" x1="53.952" y1="12.255" x2="53.952" y2="15.915"/><line class="cls-1" x1="28.329" y1="12.255" x2="28.329" y2="15.915"/><line class="cls-1" x1="79.576" y1="12.255" x2="79.576" y2="15.915"/><line class="cls-1" x1="105.119" y1="15.915" x2="105.119" y2="12.255"/><line class="cls-1" x1="130.743" y1="15.915" x2="130.743" y2="12.255"/><line class="cls-1" x1="53.952" y1="28.17" x2="53.952" y2="31.83"/><line class="cls-1" x1="28.329" y1="28.17" x2="28.329" y2="31.83"/><line class="cls-1" x1="79.576" y1="28.17" x2="79.576" y2="31.83"/><line class="cls-1" x1="105.119" y1="31.83" x2="105.119" y2="28.17"/><line class="cls-1" x1="130.743" y1="31.83" x2="130.743" y2="28.17"/><line class="cls-1" x1="53.952" y1="44.085" x2="53.952" y2="47.745"/><line class="cls-1" x1="28.329" y1="44.085" x2="28.329" y2="47.745"/><line class="cls-1" x1="2.785" y1="28.17" x2="2.785" y2="31.83"/><line class="cls-1" x1="2.785" y1="44.085" x2="2.785" y2="47.745"/><line class="cls-1" x1="79.576" y1="44.085" x2="79.576" y2="47.745"/><line class="cls-1" x1="105.119" y1="47.745" x2="105.119" y2="44.085"/><line class="cls-1" x1="130.743" y1="47.745" x2="130.743" y2="44.085"/><g id="FIBRIL"><path class="cls-2" d="M125.844,82.256c1.592,0,2.785-2.785,2.785-6.127,0-3.422-1.273-6.127-2.785-6.127H100.22c1.592,0,2.785,2.785,2.785,6.127,0,3.422-1.273,6.127-2.785,6.127Z" transform="translate(-20.724 -70.001)"/><ellipse class="cls-3" cx="79.576" cy="6.127" rx="2.785" ry="6.127"/><path class="cls-4" d="M177.09,82.256c1.592,0,2.785-2.785,2.785-6.127,0-3.422-1.273-6.127-2.785-6.127H151.467c1.592,0,2.785,2.785,2.785,6.127,0,3.422-1.273,6.127-2.785,6.127Z" transform="translate(-20.724 -70.001)"/><ellipse class="cls-3" cx="130.743" cy="6.127" rx="2.785" ry="6.127"/><path class="cls-5" d="M74.677,82.256c1.592,0,2.785-2.785,2.785-6.127,0-3.422-1.273-6.127-2.785-6.127H49.053c1.592,0,2.785,2.785,2.785,6.127,0,3.422-1.273,6.127-2.785,6.127Z" transform="translate(-20.724 -70.001)"/><ellipse class="cls-3" cx="28.329" cy="6.127" rx="2.785" ry="6.127"/><path class="cls-6" d="M100.3,98.171c1.592,0,2.785-2.785,2.785-6.127,0-3.422-1.273-6.127-2.785-6.127H74.677c1.592,0,2.785,2.785,2.785,6.127,0,3.422-1.273,6.127-2.785,6.127Z" transform="translate(-20.724 -70.001)"/><ellipse class="cls-3" cx="53.952" cy="22.042" rx="2.785" ry="6.127"/><path class="cls-7" d="M49.053,98.171c1.592,0,2.785-2.785,2.785-6.127,0-3.422-1.273-6.127-2.785-6.127H23.43c1.592,0,2.785,2.785,2.785,6.127,0,3.422-1.273,6.127-2.785,6.127Z" transform="translate(-20.724 -70.001)"/><ellipse class="cls-3" cx="2.785" cy="22.042" rx="2.785" ry="6.127"/><path class="cls-8" d="M151.467,98.171c1.592,0,2.785-2.785,2.785-6.127,0-3.422-1.273-6.127-2.785-6.127H125.844c1.592,0,2.785,2.785,2.785,6.127,0,3.422-1.273,6.127-2.785,6.127Z" transform="translate(-20.724 -70.001)"/><ellipse class="cls-3" cx="105.119" cy="22.042" rx="2.785" ry="6.127"/><path class="cls-9" d="M100.3,114.086c1.592,0,2.785-2.785,2.785-6.127,0-3.422-1.273-6.127-2.785-6.127H74.677c1.592,0,2.785,2.785,2.785,6.127,0,3.422-1.273,6.127-2.785,6.127Z" transform="translate(-20.724 -70.001)"/><ellipse class="cls-3" cx="53.952" cy="37.958" rx="2.785" ry="6.127"/><path class="cls-10" d="M49.053,114.086c1.592,0,2.785-2.785,2.785-6.127,0-3.422-1.273-6.127-2.785-6.127H23.43c1.592,0,2.785,2.785,2.785,6.127,0,3.422-1.273,6.127-2.785,6.127Z" transform="translate(-20.724 -70.001)"/><ellipse class="cls-3" cx="2.785" cy="37.958" rx="2.785" ry="6.127"/><path class="cls-11" d="M151.467,114.086c1.592,0,2.785-2.785,2.785-6.127,0-3.422-1.273-6.127-2.785-6.127H125.844c1.592,0,2.785,2.785,2.785,6.127,0,3.422-1.273,6.127-2.785,6.127Z" transform="translate(-20.724 -70.001)"/><ellipse class="cls-3" cx="105.119" cy="37.958" rx="2.785" ry="6.127"/><path class="cls-12" d="M100.3,130c1.592,0,2.785-2.785,2.785-6.127,0-3.422-1.273-6.127-2.785-6.127H74.677c1.592,0,2.785,2.785,2.785,6.127,0,3.422-1.273,6.127-2.785,6.127Z" transform="translate(-20.724 -70.001)"/><ellipse class="cls-3" cx="53.952" cy="53.873" rx="2.785" ry="6.127"/><path class="cls-13" d="M49.053,130c1.592,0,2.785-2.785,2.785-6.127,0-3.422-1.273-6.127-2.785-6.127H23.43c1.592,0,2.785,2.785,2.785,6.127,0,3.422-1.273,6.127-2.785,6.127Z" transform="translate(-20.724 -70.001)"/><ellipse class="cls-3" cx="2.785" cy="53.873" rx="2.785" ry="6.127"/><path class="cls-14" d="M151.467,130c1.592,0,2.785-2.785,2.785-6.127,0-3.422-1.273-6.127-2.785-6.127H125.844c1.592,0,2.785,2.785,2.785,6.127,0,3.422-1.273,6.127-2.785,6.127Z" transform="translate(-20.724 -70.001)"/><ellipse class="cls-3" cx="105.119" cy="53.873" rx="2.785" ry="6.127"/></g></g></svg>