<svg id="layer1" xmlns="http://www.w3.org/2000/svg" xmlns:xlink="http://www.w3.org/1999/xlink" viewBox="0 0 100 120.486"><defs><style>.cls-1{fill:url(#linear-gradient);}.cls-2{fill:url(#linear-gradient-2);}.cls-3{fill:url(#radial-gradient);}.cls-4{fill:url(#radial-gradient-2);}.cls-5{fill:url(#radial-gradient-3);}.cls-6{fill:url(#radial-gradient-4);}.cls-7{fill:url(#radial-gradient-6);}.cls-8{fill:url(#radial-gradient-7);}.cls-9{fill:url(#linear-gradient-3);}</style><linearGradient id="linear-gradient" x1="-301.854" y1="408.982" x2="-307.105" y2="408.957" gradientTransform="matrix(2.199, 0, 0, -2.753, 768.421, 1245.035)" gradientUnits="userSpaceOnUse"><stop offset="0" stop-color="maroon"/><stop offset="0.506" stop-color="#f55"/><stop offset="1" stop-color="#a00"/></linearGradient><linearGradient id="linear-gradient-2" x1="-23.706" y1="305.678" x2="-41.126" y2="283.285" gradientTransform="matrix(1.745, 0, 0, -1.745, 151.553, 605.29)" gradientUnits="userSpaceOnUse"><stop offset="0" stop-color="#2b0000"/><stop offset="1" stop-color="red"/></linearGradient><radialGradient id="radial-gradient" cx="-519.915" cy="568.974" r="7.58" gradientTransform="matrix(-4.229, 5.04, 5.271, 4.423, -5088.043, 175.953)" xlink:href="#linear-gradient-2"/><radialGradient id="radial-gradient-2" cx="-520.282" cy="568.958" r="7.58" gradientTransform="matrix(-4.133, 4.897, 5.258, 4.438, -5032.401, 94.529)" xlink:href="#linear-gradient-2"/><radialGradient id="radial-gradient-3" cx="-519.889" cy="568.988" r="7.58" gradientTransform="matrix(-4.085, 4.897, 5.283, 4.408, -5020.516, 109.62)" xlink:href="#linear-gradient-2"/><radialGradient id="radial-gradient-4" cx="-519.132" cy="569.035" r="7.58" gradientTransform="matrix(-4.085, 4.992, 5.325, 4.358, -5041.318, 183.892)" xlink:href="#linear-gradient-2"/><radialGradient id="radial-gradient-6" cx="-519.915" cy="568.974" r="7.58" gradientTransform="matrix(-4.229, 5.04, 5.271, 4.423, -5088.043, 175.953)" xlink:href="#linear-gradient-2"/><radialGradient id="radial-gradient-7" cx="-520.284" cy="568.948" r="7.58" gradientTransform="matrix(-4.229, 4.992, 5.25, 4.447, -5077.632, 139.054)" xlink:href="#linear-gradient-2"/><linearGradient id="linear-gradient-3" x1="-301.951" y1="429.168" x2="-307.201" y2="429.142" xlink:href="#linear-gradient"/></defs><title>R-ICO-013685</title><g id="Beta-secretase"><g id="g1437"><path id="path1413" class="cls-1" d="M90.589,78.448c-.376,6.875-.57,14.18-.573,21.552,0,33.271,3.8,60.243,8.5,60.243s8.5-26.97,8.5-60.241v0c0-5.844-.125-11.655-.363-17.249a5.46,5.46,0,0,1-.16.62,5.279,5.279,0,0,1-.239.607,5.221,5.221,0,0,1-.669,1.071,5.872,5.872,0,0,1-.891.885,6.992,6.992,0,0,1-1.075.7,8.454,8.454,0,0,1-1.217.529,10.2,10.2,0,0,1-1.322.359,11.762,11.762,0,0,1-1.386.194,12.554,12.554,0,0,1-1.412.032,12.712,12.712,0,0,1-1.4-.122,11.668,11.668,0,0,1-1.344-.273,10.154,10.154,0,0,1-1.252-.418,8.224,8.224,0,0,1-1.119-.559,6.284,6.284,0,0,1-.948-.693,4.84,4.84,0,0,1-.738-.825,3.857,3.857,0,0,1-.487-.949,3.75,3.75,0,0,1-.138-.52,3.809,3.809,0,0,1-.06-.55,18.309,18.309,0,0,0,.039-1.891c-.02-.635-.071-1.273-.149-1.916-.024-.2-.067-.393-.1-.589Z" transform="translate(-50 -39.757)"/><g id="g1350"><g id="g1201"><path id="path1001" class="cls-2" d="M99.706,68.5C87.86,68.5,76.059,73.809,72.686,81.914c-1.952,4.692-.912,9.827,3.439,14.1,4.842,4.751,12.977,7.679,22.183,7.7s17.614-2.859,22.861-7.6c4.72-4.263,6.178-9.412,4.586-14.128-1.4-4.159-5.1-7.713-10.086-10.1A37.658,37.658,0,0,0,99.706,68.5h0m-.713,8.826c4.036,0,7.439,1.981,7.61,4.585a4.191,4.191,0,0,1-2.169,3.636,10.724,10.724,0,0,1-5.885,1.61,10.027,10.027,0,0,1-5.735-1.629,3.8,3.8,0,0,1-1.836-3.639A4.873,4.873,0,0,1,93.672,78.6a11.16,11.16,0,0,1,5.321-1.27h0" transform="translate(-50 -39.757)"/><path id="path1166" class="cls-3" d="M50,86.429c1.323,2.781,11.987,15.659,34.91,14.542-.164-.083-.321-.168-.481-.251a26.739,26.739,0,0,1-5.748-3.04,16.061,16.061,0,0,1-5.943-7.367,6.583,6.583,0,0,1-.592-2.333,11.272,11.272,0,0,1-.118-1.688c-1.932-.493-14.414,4-22.028.137h0" transform="translate(-50 -39.757)"/><path id="path1162" class="cls-4" d="M73.576,66.354c-1.884,1.825-9.279,11.611-1.548,19.938.023-.113.048-.226.072-.338a11.774,11.774,0,0,1,.873-3.979,16.645,16.645,0,0,1,4.752-6.207,13.209,13.209,0,0,1,1.983-1.5q.757-.512,1.571-.983c-.273-.961-8.591-2.656-7.7-6.935h0" transform="translate(-50 -39.757)"/><path id="path1158" class="cls-5" d="M102.829,61.356c-3.124.631-16.82,4.45-21.647,11.826l.351-.166a30.719,30.719,0,0,1,4.247-1.99,38.086,38.086,0,0,1,8.721-2.1,23.354,23.354,0,0,1,2.7-.241q.993-.057,1.987-.066c.96-.732-1.674-4.7,3.636-7.261h0" transform="translate(-50 -39.757)"/><path id="path1154" class="cls-6" d="M131.295,68.758c-3.9-.883-20.081-3.476-32.093-.154l.391.019a41.344,41.344,0,0,1,4.9.253,36.5,36.5,0,0,1,8.6,2.043,16.8,16.8,0,0,1,2.355,1q.842.4,1.634.844c1.825-.108,5.489-4.314,14.212-4.005h0" transform="translate(-50 -39.757)"/><path id="path1150" class="cls-5" d="M150,92.131c-3.308-3.688-16.957-15.976-32.9-19.34l.281.194a23.177,23.177,0,0,1,3.649,2.524,15.4,15.4,0,0,1,4.471,6.144,6.645,6.645,0,0,1,.587,2.144,11.224,11.224,0,0,1,.165,1.637c1.968,1.063,13.436.124,23.745,6.7h0" transform="translate(-50 -39.757)"/><path id="path1144" class="cls-7" d="M125.322,126.073c3.464-5.869,11.552-27.16.658-40.975-.015.107-.033.212-.05.318a11.584,11.584,0,0,1-.7,4.2,16.9,16.9,0,0,1-5.987,7.472,14.542,14.542,0,0,1-2.954,1.888q-1.176.649-2.464,1.212c0,2.168,12.682,11.188,11.5,25.881h0" transform="translate(-50 -39.757)"/><path id="path1060" class="cls-8" d="M61.39,120.837c7.406.118,39.421-3.479,52.424-20.653-.184.058-.368.112-.552.168a36.163,36.163,0,0,1-7.073,2.125,41.183,41.183,0,0,1-14.4.141,20.726,20.726,0,0,1-4.035-.913q-1.417-.407-2.746-.915c-2.544,1.158-7.105,14.421-23.617,20.047h0" transform="translate(-50 -39.757)"/></g></g><path id="path1352" class="cls-9" d="M90.589,78.448c.029.2.072.394.1.589.078.643.129,1.281.149,1.916a18.309,18.309,0,0,1-.039,1.891,3.809,3.809,0,0,0,.06.55,3.75,3.75,0,0,0,.138.52,3.857,3.857,0,0,0,.487.949,4.84,4.84,0,0,0,.738.825,6.284,6.284,0,0,0,.948.693,8.224,8.224,0,0,0,1.119.559,10.154,10.154,0,0,0,1.252.418,11.668,11.668,0,0,0,1.344.273,12.712,12.712,0,0,0,1.4.122,12.554,12.554,0,0,0,1.412-.032,11.762,11.762,0,0,0,1.386-.194,10.2,10.2,0,0,0,1.322-.359,8.454,8.454,0,0,0,1.217-.529,6.992,6.992,0,0,0,1.075-.7,5.872,5.872,0,0,0,.891-.885,5.221,5.221,0,0,0,.669-1.071,5.279,5.279,0,0,0,.239-.607,5.46,5.46,0,0,0,.16-.62c-1.075-25.5-4.382-42.972-8.136-42.994-3.516.03-6.667,15.411-7.925,38.691Z" transform="translate(-50 -39.757)"/></g></g></svg>