<svg id="Layer_1" data-name="Layer 1" xmlns="http://www.w3.org/2000/svg" xmlns:xlink="http://www.w3.org/1999/xlink" viewBox="0 0 87.798 22.949"><defs><style>.cls-1{fill:url(#linear-gradient);}.cls-2{fill:#1c96a3;}.cls-3{font-size:12px;fill:#fff;font-family:Arial-BoldMT, Arial;font-weight:700;}</style><linearGradient id="linear-gradient" x1="44.261" y1="21.347" x2="44.261" y2="1.347" gradientUnits="userSpaceOnUse"><stop offset="0" stop-color="#765eb6"/><stop offset="1" stop-color="#1c96a3"/></linearGradient></defs><title>DNMT1,3A,3B</title><g id="DNMT1_3A_3B" data-name="DNMT1,3A,3B"><rect class="cls-1" x="1.261" y="1.347" width="86" height="20" rx="10" ry="10"/><path class="cls-2" d="M130.2,108.411c-8.116-.009-16.231.43-24.347.837-8.116.458-16.231.546-24.347.613-4.058,0-8.116.019-12.173-.037l-3.043-.038c-1.039-.024-1.952.007-3.184-.093a11.319,11.319,0,0,1-6.287-2.753,11.249,11.249,0,0,1-3.558-5.8,10.608,10.608,0,0,1-.292-3.41A10.476,10.476,0,0,1,53.71,94.4,10.973,10.973,0,0,1,64.2,87.44c8.116.261,16.231.449,24.347.335,4.058-.049,8.116-.194,12.173-.349l12.173-.413c4.058-.085,8.116-.131,12.174-.071l3.043.039c1.033.04,1.968.028,3.156.144a11.172,11.172,0,0,1,3.25.935,11.766,11.766,0,0,1,2.761,1.881,10.772,10.772,0,0,1,3.218,5.618,9.9,9.9,0,0,1,.189,3.2,9.762,9.762,0,0,1-.75,3.078A10.6,10.6,0,0,1,130.2,108.411Zm0-.3a10.874,10.874,0,0,0,2.945-.478,9.88,9.88,0,0,0,2.649-1.352,9.475,9.475,0,0,0,3.417-4.709,9.179,9.179,0,0,0,.013-5.679,9.248,9.248,0,0,0-3.169-4.52,9.753,9.753,0,0,0-2.388-1.323,10.718,10.718,0,0,0-2.628-.555c-.838-.035-1.934.024-2.929.047l-3.043.039c-4.058.06-8.116.015-12.174-.071L100.719,89.1c-4.058-.155-8.116-.3-12.173-.349-8.116-.114-16.231.074-24.347.335a10.159,10.159,0,0,0-2.719.521,9.65,9.65,0,0,0-2.406,1.307,9.243,9.243,0,0,0-3.132,4.319,8.7,8.7,0,0,0-.124,5.229,8.792,8.792,0,0,0,2.829,4.333,8.42,8.42,0,0,0,4.74,1.94c.793.05,1.911.011,2.9,0l3.043-.038c4.058-.056,8.116-.036,12.173-.037,8.116.066,16.231.155,24.347.613C113.967,107.682,122.083,108.12,130.2,108.111Z" transform="translate(-52.937 -86.915)"/><text class="cls-3" transform="translate(4.922 14.169)">DNMT1,3A,3B</text></g></svg>