<svg id="Layer_1" data-name="Layer 1" xmlns="http://www.w3.org/2000/svg" viewBox="0 0 113.576 22.945"><defs><style>.cls-1{fill:#dba628;}.cls-2{fill:#de4e10;}.cls-3{font-size:12px;fill:#fff;font-family:Arial-BoldMT, Arial;font-weight:700;}</style></defs><title>PREPROGHRELIN</title><g id="PREPROGHRELIN"><rect class="cls-1" x="1.187" y="1.342" width="112" height="20" rx="10" ry="10"/><path class="cls-2" d="M143.079,113.491c-10.282-.009-20.565.43-30.847.837-10.282.458-20.565.547-30.847.613-5.141,0-10.282.019-15.423-.037l-7.712-.076-3.856-.038-1.928-.019c-.665-.015-1.228.01-2-.049A11.26,11.26,0,0,1,39.9,103.039,10.985,10.985,0,0,1,51.079,92.52c10.282.261,20.565.449,30.847.335,5.141-.049,10.282-.194,15.423-.349l15.423-.413c10.3-.169,20.514-.138,30.9.336a10.754,10.754,0,0,1,7.227,3.7,10.632,10.632,0,0,1,2.553,7.488,10.425,10.425,0,0,1-3.265,7.02A10.271,10.271,0,0,1,143.079,113.491Zm0-.3a9.763,9.763,0,0,0,6.819-2.844,9.493,9.493,0,0,0,2.782-6.747,9.318,9.318,0,0,0-2.749-6.577,9.2,9.2,0,0,0-6.363-2.715c-10.179.364-20.536.474-30.8.281L97.35,94.176c-5.141-.155-10.282-.3-15.423-.349-10.282-.114-20.565.074-30.847.335a9.064,9.064,0,0,0-8.8,8.941,8.776,8.776,0,0,0,8.333,8.8c.507.038,1.231.005,1.851.006l1.928-.019,3.856-.038,7.712-.076c5.141-.056,10.282-.036,15.423-.037,10.282.066,20.565.155,30.847.613C122.515,112.761,132.8,113.2,143.079,113.191Z" transform="translate(-39.892 -91.999)"/><text class="cls-3" transform="translate(4.849 14.164)">PREPROGHRELIN</text></g></svg>