<svg id="Layer_1" data-name="Layer 1" xmlns="http://www.w3.org/2000/svg" xmlns:xlink="http://www.w3.org/1999/xlink" viewBox="0 0 22.312 159.757"><defs><style>.cls-1{fill:url(#linear-gradient);}.cls-2{fill:url(#radial-gradient);}.cls-3{fill:url(#linear-gradient-2);}.cls-4{fill:url(#linear-gradient-3);}.cls-5{fill:url(#radial-gradient-2);}</style><linearGradient id="linear-gradient" x1="97.423" y1="231.754" x2="104.73" y2="231.754" gradientTransform="translate(-2.435 -96.048)" gradientUnits="userSpaceOnUse"><stop offset="0" stop-color="#41c4b9"/><stop offset="0.101" stop-color="#67e2d8"/><stop offset="0.189" stop-color="#80f7ed"/><stop offset="0.241" stop-color="#8afff5"/><stop offset="0.446" stop-color="#5ddbd0"/><stop offset="0.596" stop-color="#41c4b9"/><stop offset="1" stop-color="#262047"/></linearGradient><radialGradient id="radial-gradient" cx="-342.985" cy="671.099" r="15.214" gradientTransform="matrix(0, -4.265, 0.975, 0, -558.019, -1390.869)" gradientUnits="userSpaceOnUse"><stop offset="0" stop-color="#8afff5"/><stop offset="0.041" stop-color="#7ef5eb"/><stop offset="0.175" stop-color="#5ddbd0"/><stop offset="0.285" stop-color="#48cabf"/><stop offset="0.359" stop-color="#41c4b9"/><stop offset="1" stop-color="#262047"/></radialGradient><linearGradient id="linear-gradient-2" x1="-349.657" y1="627.182" x2="-330.44" y2="627.182" gradientTransform="translate(-528.503 -1390.869) rotate(-90) scale(4.265 1)" gradientUnits="userSpaceOnUse"><stop offset="0" stop-color="#41c4b9" stop-opacity="0"/><stop offset="0.999" stop-color="#262047"/></linearGradient><linearGradient id="linear-gradient-3" x1="90.383" y1="140.441" x2="112.83" y2="140.822" gradientTransform="matrix(1, 0, 0, -1, -2.434, 200.177)" gradientUnits="userSpaceOnUse"><stop offset="0" stop-color="#262047"/><stop offset="0.056" stop-color="#262047" stop-opacity="0.768"/><stop offset="0.175" stop-color="#262047" stop-opacity="0.348"/><stop offset="0.277" stop-color="#262047" stop-opacity="0.092"/><stop offset="0.35" stop-color="#262047" stop-opacity="0"/><stop offset="0.541" stop-color="#262047" stop-opacity="0.238"/><stop offset="0.918" stop-color="#262047" stop-opacity="0.854"/><stop offset="1" stop-color="#262047"/></linearGradient><radialGradient id="radial-gradient-2" cx="143.237" cy="172.387" r="18.236" gradientTransform="matrix(0.69, -0.096, -0.019, -0.278, -87.827, 71.005)" gradientUnits="userSpaceOnUse"><stop offset="0" stop-color="#262047"/><stop offset="0.154" stop-color="#27244a"/><stop offset="0.311" stop-color="#293052"/><stop offset="0.469" stop-color="#2c4560"/><stop offset="0.627" stop-color="#316174"/><stop offset="0.786" stop-color="#37868e"/><stop offset="0.943" stop-color="#3eb2ac"/><stop offset="1" stop-color="#41c4b9"/></radialGradient></defs><title>PTPRS</title><g id="PTPRS"><path class="cls-1" d="M98.679,178.3a3.618,3.618,0,0,1-3.618-3.618V96.734a3.618,3.618,0,0,1,7.236,0v77.943A3.618,3.618,0,0,1,98.679,178.3Z" transform="translate(-87.523 -18.539)"/><path class="cls-2" d="M106.192,60.523c0,22.085-.137,39.984-3.724,39.984H94.89c-3.587,0-3.724-17.9-3.724-39.984s-6.1-39.984-2.513-39.984a35.575,35.575,0,0,1,10.026-2,35.575,35.575,0,0,1,10.026,2C112.292,20.539,106.192,38.438,106.192,60.523Z" transform="translate(-87.523 -18.539)"/><path class="cls-3" d="M106.192,60.523c0,22.085-.137,39.984-3.724,39.984H94.89c-3.587,0-3.724-17.9-3.724-39.984s-6.1-39.984-2.513-39.984a35.575,35.575,0,0,1,10.026-2,35.575,35.575,0,0,1,10.026,2C112.292,20.539,106.192,38.438,106.192,60.523Z" transform="translate(-87.523 -18.539)"/><path class="cls-4" d="M106.192,60.523c0,22.085-.137,39.984-3.724,39.984H94.89c-3.587,0-3.724-17.9-3.724-39.984s-6.1-39.984-2.513-39.984a35.575,35.575,0,0,1,10.026-2,35.575,35.575,0,0,1,10.026,2C112.292,20.539,106.192,38.438,106.192,60.523Z" transform="translate(-87.523 -18.539)"/><ellipse class="cls-5" cx="11.156" cy="5.901" rx="7.97" ry="2.667"/></g></svg>