<svg id="Layer_1" data-name="Layer 1" xmlns="http://www.w3.org/2000/svg" xmlns:xlink="http://www.w3.org/1999/xlink" viewBox="0 0 43.293 26"><defs><style>.cls-1{fill:url(#linear-gradient);}.cls-2{fill:url(#linear-gradient-2);}.cls-3{fill:url(#linear-gradient-3);}</style><linearGradient id="linear-gradient" x1="100.039" y1="113" x2="100.039" y2="87.002" gradientUnits="userSpaceOnUse"><stop offset="0" stop-color="#dc7619"/><stop offset="0.054" stop-color="#c83"/><stop offset="0.145" stop-color="#b4a358"/><stop offset="0.236" stop-color="#a2b775"/><stop offset="0.326" stop-color="#95c689"/><stop offset="0.414" stop-color="#8dcf96"/><stop offset="0.5" stop-color="#8ad29a"/><stop offset="0.586" stop-color="#8dcf96"/><stop offset="0.674" stop-color="#95c689"/><stop offset="0.764" stop-color="#a2b775"/><stop offset="0.855" stop-color="#b4a358"/><stop offset="0.946" stop-color="#c83"/><stop offset="1" stop-color="#dc7619"/></linearGradient><linearGradient id="linear-gradient-2" x1="104.756" y1="99.993" x2="121.646" y2="99.993" gradientUnits="userSpaceOnUse"><stop offset="0" stop-color="#1d7d32"/><stop offset="1" stop-color="#dc7619"/></linearGradient><linearGradient id="linear-gradient-3" x1="78.354" y1="100.006" x2="95.28" y2="100.006" gradientUnits="userSpaceOnUse"><stop offset="0" stop-color="#dc7619"/><stop offset="1" stop-color="#1d7d32"/></linearGradient></defs><title>VDAC</title><g id="VDAC"><path class="cls-1" d="M100.036,111.546C93.257,111.534,80.751,113,80.751,113c14.424.025,14.528-12.967,14.528-12.967s.1-12.994-14.32-13.018c0,0,12.3,1.5,19.041,1.509C106.744,88.508,119.036,87,119.036,87c-14.424.034-14.279,13.028-14.279,13.028s.145,12.992,14.569,12.957C119.327,112.987,106.816,111.53,100.036,111.546Z" transform="translate(-78.354 -87)"/><path class="cls-2" d="M108.045,100.02c.113,10.092,9.845,8.756,11.233,8.752a2.1,2.1,0,0,1,2.345,2.311c.015,1.3-.486,1.9-2.3,1.9-14.424.034-14.569-12.957-14.569-12.957S104.61,87.034,119.034,87c1.81,0,2.6.619,2.612,1.888a2.476,2.476,0,0,1-2.565,2.326C117.693,91.218,107.932,89.928,108.045,100.02Z" transform="translate(-78.354 -87)"/><path class="cls-3" d="M91.991,100.025c-.081,10.092-9.817,8.762-11.205,8.76a2.092,2.092,0,0,0-2.337,2.313c-.01,1.3.492,1.9,2.3,1.9,14.424.025,14.528-12.967,14.528-12.967s.1-12.994-14.32-13.018c-1.81,0-2.6.621-2.606,1.89a2.483,2.483,0,0,0,2.572,2.325C82.314,91.23,92.071,89.934,91.991,100.025Z" transform="translate(-78.354 -87)"/></g></svg>