<svg id="Layer_1" data-name="Layer 1" xmlns="http://www.w3.org/2000/svg" xmlns:xlink="http://www.w3.org/1999/xlink" viewBox="0 0 50.478 22.74"><defs><style>.cls-1{fill:url(#linear-gradient);}.cls-2{fill:#ff9914;}.cls-3{font-size:12px;fill:#fff;font-family:Arial-BoldMT, Arial;font-weight:700;}</style><linearGradient id="linear-gradient" x1="25.441" y1="21.171" x2="25.441" y2="1.171" gradientUnits="userSpaceOnUse"><stop offset="0" stop-color="#ff9914"/><stop offset="1" stop-color="#e263e2"/></linearGradient></defs><title>G-alpha_generic</title><g id="G-alpha"><rect class="cls-1" x="1.441" y="1.171" width="48" height="20" rx="10" ry="10"/><path class="cls-2" d="M114,110.15c-4.949-.009-9.9.43-14.847.837-2.474.205-4.949.388-7.423.457-1.237.057-2.474.074-3.712.093l-1.856.031a13,13,0,0,1-2.118-.146A11.371,11.371,0,0,1,74.63,99.034a11.1,11.1,0,0,1,3.805-7.268A10.865,10.865,0,0,1,86,89.179c4.949.282,9.9.437,14.847.335,2.474-.059,4.949-.178,7.423-.341l3.712-.235,1.856-.1a11.162,11.162,0,0,1,2.058.086,10.713,10.713,0,0,1,7.049,4.157,10.4,10.4,0,0,1,1.964,7.846,10.877,10.877,0,0,1-3.9,6.7A11.217,11.217,0,0,1,114,110.15Zm0-.3a8.986,8.986,0,0,0,6.489-2.786,9.127,9.127,0,0,0,2.516-6.3,9.637,9.637,0,0,0-7.531-9.38,11.743,11.743,0,0,0-1.635-.222l-1.856-.1-3.712-.235c-2.474-.164-4.949-.282-7.423-.341-4.949-.1-9.9.053-14.847.335a9.173,9.173,0,0,0-5.934,2.717,8.956,8.956,0,0,0-2.61,5.735,8.5,8.5,0,0,0,1.888,5.869,8.721,8.721,0,0,0,5.242,3.126,9.678,9.678,0,0,0,1.576.162l1.856.031c1.237.019,2.474.036,3.712.093,2.474.069,4.949.252,7.423.457C104.1,109.42,109.051,109.859,114,109.85Z" transform="translate(-74.559 -88.829)"/><text class="cls-3" transform="translate(3.105 14.485)">G-alpha</text></g></svg>