<svg id="Layer_1" data-name="Layer 1" xmlns="http://www.w3.org/2000/svg" xmlns:xlink="http://www.w3.org/1999/xlink" viewBox="0 0 45.579 22.541"><defs><style>.cls-1{fill:url(#linear-gradient);}.cls-2{fill:#20bff3;}.cls-3{font-size:12px;fill:#fff;font-family:Arial-BoldMT, Arial;font-weight:700;}</style><linearGradient id="linear-gradient" x1="22.96" y1="1.019" x2="22.96" y2="21.019" gradientUnits="userSpaceOnUse"><stop offset="0" stop-color="#20bff3"/><stop offset="1" stop-color="#a32702"/></linearGradient></defs><title>GLP-1</title><g id="GLP-1"><rect class="cls-1" x="1.46" y="1.019" width="43" height="20" rx="10" ry="10"/><path class="cls-2" d="M108.749,113.472c-4.532-.009-9.065.43-13.6.837-2.266.205-4.532.388-6.8.457-.567.02-1.133.054-1.7.062l-.85.016-.971-.03a11.729,11.729,0,0,1-3.809-.912,11.325,11.325,0,0,1-6.439-12.958,11.182,11.182,0,0,1,4.123-6.318,10.906,10.906,0,0,1,7.04-2.125c4.532.282,9.065.437,13.6.335,2.266-.059,4.532-.178,6.8-.341l1.7-.118.85-.058.933-.015a10.748,10.748,0,0,1,3.7.759,10.622,10.622,0,0,1,5.5,5.128,10.348,10.348,0,0,1,.628,7.413,11.058,11.058,0,0,1-4.188,5.779A11.526,11.526,0,0,1,108.749,113.472Zm0-.3a8.909,8.909,0,0,0,6.039-2.387,9.214,9.214,0,0,0,2.8-5.581,9.823,9.823,0,0,0-5.286-9.864,9.62,9.62,0,0,0-2.848-.918l-.764-.1-.85-.058-1.7-.118c-2.266-.164-4.532-.282-6.8-.341-4.532-.1-9.065.053-13.6.335A9.291,9.291,0,0,0,80.226,96.5a9.159,9.159,0,0,0-2.868,5.042,8.6,8.6,0,0,0,.886,5.6,8.817,8.817,0,0,0,4.092,3.85,8.592,8.592,0,0,0,2.741.765l.727.051.85.016c.567.008,1.133.042,1.7.062,2.266.069,4.532.252,6.8.457C99.684,112.742,104.217,113.181,108.749,113.172Z" transform="translate(-74.289 -92.303)"/><text class="cls-3" transform="translate(5.29 13.907)">GLP-1</text></g></svg>