<svg id="Layer_1" data-name="Layer 1" xmlns="http://www.w3.org/2000/svg" xmlns:xlink="http://www.w3.org/1999/xlink" viewBox="0 0 29.686 157.757"><defs><style>.cls-1{fill:url(#linear-gradient);}.cls-2{fill:url(#radial-gradient);}</style><linearGradient id="linear-gradient" x1="97.28" y1="228.357" x2="109.396" y2="228.357" gradientTransform="matrix(-1, 0, 0, 1, 201.4, -95.793)" gradientUnits="userSpaceOnUse"><stop offset="0" stop-color="#89c441"/><stop offset="0.101" stop-color="#aae267"/><stop offset="0.189" stop-color="#c1f780"/><stop offset="0.241" stop-color="#caff8a"/><stop offset="0.446" stop-color="#a2db5d"/><stop offset="0.596" stop-color="#89c441"/><stop offset="1" stop-color="#0a3a4d"/></linearGradient><radialGradient id="radial-gradient" cx="-341.888" cy="625.159" r="17.715" gradientTransform="matrix(0, -4.265, -1, 0, 727.468, -1390.614)" gradientUnits="userSpaceOnUse"><stop offset="0" stop-color="#caff8a"/><stop offset="0.041" stop-color="#bff57e"/><stop offset="0.175" stop-color="#a2db5d"/><stop offset="0.285" stop-color="#90ca48"/><stop offset="0.359" stop-color="#89c441"/><stop offset="1" stop-color="#0a3a4d"/></radialGradient></defs><title>NRXN</title><g id="NRXN"><path class="cls-1" d="M98,177.314a6,6,0,0,0,6-6v-77.5a6,6,0,0,0-12,0v77.5A6,6,0,0,0,98,177.314Z" transform="translate(-83.157 -19.558)"/><path class="cls-2" d="M83.157,59.541c0,22.085,4.2,39.984,9.374,39.984h10.937c5.177,0,9.374-17.9,9.374-39.984s-4.2-39.984-9.374-39.984H92.531C87.355,19.558,83.157,37.457,83.157,59.541Z" transform="translate(-83.157 -19.558)"/></g></svg>