<svg id="R-ICO-013714" xmlns="http://www.w3.org/2000/svg" xmlns:xlink="http://www.w3.org/1999/xlink" viewBox="0 0 52.411 22.807"><defs><style>.cls-1{fill:url(#linear-gradient);}.cls-2{fill:#1f5e20;}.cls-3{font-size:12px;fill:#fff;font-family:Arial-BoldMT, Arial;font-weight:700;}</style><linearGradient id="linear-gradient" x1="26.419" y1="21.222" x2="26.419" y2="1.222" gradientUnits="userSpaceOnUse"><stop offset="0" stop-color="#3700d0"/><stop offset="1" stop-color="#1f5e20"/></linearGradient></defs><title>R-ICO-013714</title><g id="MYO9B"><rect class="cls-1" x="1.419" y="1.222" width="50" height="20" rx="10"/><path class="cls-2" d="M115,110.15c-5.116-.009-10.231.43-15.347.837-2.558.2-5.116.388-7.673.457-1.279.057-2.558.074-3.837.093l-1.919.032c-.643.008-1.244.034-2.028-.008A11.381,11.381,0,0,1,73.6,99.6a11.057,11.057,0,0,1,3.628-7.649A10.863,10.863,0,0,1,85,89.179c5.116.281,10.231.436,15.347.335,2.558-.059,5.116-.178,7.673-.342l3.837-.234,1.919-.1c.642-.025,1.251-.085,2-.047a10.713,10.713,0,0,1,7.62,3.642,10.506,10.506,0,0,1,2.537,7.948,10.8,10.8,0,0,1-3.735,7.076A11.137,11.137,0,0,1,115,110.15Zm0-.3a9.059,9.059,0,0,0,9.027-9.537,9.574,9.574,0,0,0-8.421-9.032l-7.586-.453c-2.557-.164-5.115-.283-7.673-.342-5.116-.1-10.231.054-15.347.335a9.149,9.149,0,0,0-6.1,2.866A8.869,8.869,0,0,0,76.435,99.7a8.566,8.566,0,0,0,2.316,5.925,8.654,8.654,0,0,0,5.667,2.741c.492.05,1.171.052,1.806.062l1.919.032c1.279.019,2.558.036,3.837.093,2.557.069,5.115.252,7.673.457C104.769,109.42,109.884,109.859,115,109.85Z" transform="translate(-73.581 -88.778)"/><text class="cls-3" transform="translate(5.083 14.383)">MYO9B</text></g></svg>