<svg id="Layer_1" data-name="Layer 1" xmlns="http://www.w3.org/2000/svg" xmlns:xlink="http://www.w3.org/1999/xlink" viewBox="0 0 36.38 157.757"><defs><style>.cls-1{fill:url(#linear-gradient);}.cls-2{fill:url(#radial-gradient);}</style><linearGradient id="linear-gradient" x1="92.291" y1="132.545" x2="104.406" y2="132.545" gradientUnits="userSpaceOnUse"><stop offset="0" stop-color="#c44141"/><stop offset="0.101" stop-color="#e26767"/><stop offset="0.189" stop-color="#f78080"/><stop offset="0.241" stop-color="#ff8a8a"/><stop offset="0.446" stop-color="#db5d5d"/><stop offset="0.596" stop-color="#c44141"/><stop offset="1" stop-color="#4d0a0a"/></linearGradient><radialGradient id="radial-gradient" cx="-65.341" cy="619.198" r="20.756" gradientTransform="translate(-526.068 -211.092) rotate(-90) scale(4.265 1)" gradientUnits="userSpaceOnUse"><stop offset="0" stop-color="#ff8a8a"/><stop offset="0.041" stop-color="#f57e7e"/><stop offset="0.175" stop-color="#db5d5d"/><stop offset="0.285" stop-color="#ca4848"/><stop offset="0.359" stop-color="#c44141"/><stop offset="1" stop-color="#4d0a0a"/></radialGradient></defs><title>SLITRK</title><g id="SLITRK"><path class="cls-1" d="M98.411,177.3a6,6,0,0,1-6-6v-77.5a6,6,0,1,1,12,0v77.5A6,6,0,0,1,98.411,177.3Z" transform="translate(-80.221 -19.539)"/><path class="cls-2" d="M113.253,59.522c9.68,22.85-4.2,39.984-9.374,39.984H92.942c-5.177,0-19.054-17.133-9.374-39.984,8.614-20.335,4.2-39.984,9.374-39.984h10.937C109.056,19.539,104.63,39.187,113.253,59.522Z" transform="translate(-80.221 -19.539)"/></g></svg>