<svg id="Layer_1" data-name="Layer 1" xmlns="http://www.w3.org/2000/svg" xmlns:xlink="http://www.w3.org/1999/xlink" viewBox="0 0 69 176.373"><defs><style>.cls-1{fill:url(#radial-gradient);}.cls-2{fill:url(#linear-gradient);}.cls-3{fill:#0b1f3f;}.cls-4{fill:url(#radial-gradient-2);}.cls-5{fill:url(#linear-gradient-2);}</style><radialGradient id="radial-gradient" cx="175.129" cy="214.289" r="38.82" gradientTransform="translate(-72.054 -180.569)" gradientUnits="userSpaceOnUse"><stop offset="0.744" stop-color="#122548"/><stop offset="1" stop-color="#809393"/></radialGradient><linearGradient id="linear-gradient" x1="167.526" y1="303.337" x2="157.447" y2="303.337" gradientTransform="translate(-72.054 -180.569)" gradientUnits="userSpaceOnUse"><stop offset="0" stop-color="#122548"/><stop offset="1" stop-color="#809393"/></linearGradient><radialGradient id="radial-gradient-2" cx="166.324" cy="214.255" r="38.891" gradientTransform="translate(-72.054 -180.569)" gradientUnits="userSpaceOnUse"><stop offset="0.698" stop-color="#809393"/><stop offset="1" stop-color="#122548"/></radialGradient><linearGradient id="linear-gradient-2" x1="183.526" y1="303.337" x2="173.447" y2="303.337" xlink:href="#linear-gradient"/></defs><title>IL12R</title><g id="IL12R"><path class="cls-1" d="M90.5,186a5,5,0,0,1-5-5V67.677A34.118,34.118,0,0,1,74.459,60.3a34,34,0,0,1,0-48.083,5,5,0,0,1,7.071,7.071A24.01,24.01,0,0,0,91.662,59.266l.26.077A5,5,0,0,1,95.5,64.137V181A5,5,0,0,1,90.5,186Z" transform="translate(-64 -10.253)"/><path class="cls-2" d="M90.5,186a4.938,4.938,0,0,1-5-4.875V64.41a5,5,0,0,1,10,0V181.125A4.938,4.938,0,0,1,90.5,186Z" transform="translate(-64 -10.253)"/><path class="cls-3" d="M90.5,186.626a5.507,5.507,0,0,1-5.5-5.5V68.01a34.505,34.505,0,0,1-10.9-56.15,5.5,5.5,0,0,1,7.778,7.778A23.51,23.51,0,0,0,91.8,58.787l.26.077A5.533,5.533,0,0,1,96,64.137V181.126A5.507,5.507,0,0,1,90.5,186.626ZM77.994,11.252a4.489,4.489,0,0,0-3.182,1.315,33.5,33.5,0,0,0,0,47.375,33.851,33.851,0,0,0,10.879,7.273l.309.128V181.126a4.5,4.5,0,0,0,9,0V64.137a4.526,4.526,0,0,0-3.22-4.314l-.26-.077A24.5,24.5,0,0,1,81.176,18.931a4.5,4.5,0,0,0-3.182-7.679Z" transform="translate(-64 -10.253)"/><path class="cls-4" d="M106.5,186a5,5,0,0,0,5-5V67.677A34.118,34.118,0,0,0,122.542,60.3a34,34,0,0,0,0-48.083,5,5,0,0,0-7.071,7.071,24.01,24.01,0,0,1-10.132,39.981l-.26.077a5,5,0,0,0-3.578,4.793V181A5,5,0,0,0,106.5,186Z" transform="translate(-64 -10.253)"/><path class="cls-5" d="M106.5,186a4.938,4.938,0,0,1-5-4.875V64.41a5,5,0,0,1,10,0V181.125A4.938,4.938,0,0,1,106.5,186Z" transform="translate(-64 -10.253)"/><path class="cls-3" d="M106.5,186.5A5.507,5.507,0,0,1,101,181V64.137a5.533,5.533,0,0,1,3.936-5.273l.259-.077a23.5,23.5,0,0,0,9.921-39.148A5.5,5.5,0,1,1,122.9,11.86,34.513,34.513,0,0,1,112,68.01V181A5.507,5.507,0,0,1,106.5,186.5ZM119.006,11.252a4.5,4.5,0,0,0-3.182,7.679A24.51,24.51,0,0,1,105.48,59.746l-.259.077A4.526,4.526,0,0,0,102,64.137V181a4.5,4.5,0,0,0,9,0V67.344l.309-.128a33.851,33.851,0,0,0,10.879-7.273,33.5,33.5,0,0,0,0-47.375A4.489,4.489,0,0,0,119.006,11.252Z" transform="translate(-64 -10.253)"/></g></svg>