<svg id="Layer_1" data-name="Layer 1" xmlns="http://www.w3.org/2000/svg" xmlns:xlink="http://www.w3.org/1999/xlink" viewBox="0 0 56.318 22.892"><defs><style>.cls-1{fill:#94881d;}.cls-2{fill:url(#linear-gradient);}.cls-3{font-size:12px;fill:#fff;font-family:Arial-BoldMT, Arial;font-weight:700;}</style><linearGradient id="linear-gradient" x1="99.762" y1="88.5" x2="99.762" y2="111.5" gradientUnits="userSpaceOnUse"><stop offset="0" stop-color="#94881d"/><stop offset="1" stop-color="#1c474a"/></linearGradient></defs><title>RHOA,B</title><g id="RHOA_B" data-name="RHOA,B"><rect class="cls-1" x="1.397" y="1.282" width="54" height="20" rx="10" ry="10"/><path class="cls-2" d="M117,110.15c-5.449-.009-10.9.43-16.347.837-5.449.458-10.9.546-16.347.613a14.4,14.4,0,0,1-4.492-.457,11.149,11.149,0,0,1-4.147-2.213,11.443,11.443,0,0,1-4.049-8.186,11.1,11.1,0,0,1,3.221-8.389A10.852,10.852,0,0,1,83,89.179c5.449.282,10.9.437,16.347.335,5.449-.084,10.9-.574,16.347-.762a13.256,13.256,0,0,1,4.419.359,10.761,10.761,0,0,1,4.069,2.143,10.633,10.633,0,0,1,3.739,8.032,10.792,10.792,0,0,1-3.357,7.8A10.977,10.977,0,0,1,117,110.15Zm0-.3a9.124,9.124,0,0,0,9.013-10.44,9.5,9.5,0,0,0-6.639-7.732,13.051,13.051,0,0,0-3.68-.429c-5.449-.188-10.9-.678-16.347-.762-5.449-.1-10.9.053-16.347.335A9.094,9.094,0,0,0,76.6,94a8.854,8.854,0,0,0-2.148,6.557,8.617,8.617,0,0,0,3.211,5.95,8.982,8.982,0,0,0,3.039,1.559,12.055,12.055,0,0,0,3.608.331c5.449.066,10.9.155,16.347.613C106.1,109.42,111.551,109.859,117,109.85Z" transform="translate(-71.603 -88.718)"/><text class="cls-3" transform="translate(4.731 14.171)">RHOA,B</text></g></svg>