<svg id="Layer_1" data-name="Layer 1" xmlns="http://www.w3.org/2000/svg" xmlns:xlink="http://www.w3.org/1999/xlink" viewBox="0 0 87.3 34.739"><defs><style>.cls-1{fill:url(#linear-gradient);}.cls-2{fill:#0052af;}.cls-3{font-size:12px;}.cls-3,.cls-4{fill:#fff;font-family:Arial-BoldMT, Arial;font-weight:700;}.cls-4{font-size:10px;}</style><linearGradient id="linear-gradient" x1="43.898" y1="33.139" x2="43.898" y2="3.139" gradientUnits="userSpaceOnUse"><stop offset="0" stop-color="#06a2b2"/><stop offset="1" stop-color="#823ac9"/></linearGradient></defs><title>Ca_binding_proteins</title><g id="Ca_binding_proteins"><rect class="cls-1" x="1.398" y="3.139" width="85" height="30" rx="10" ry="10"/><path class="cls-2" d="M131.236,114.3c-8.866-.009-17.731.43-26.6.837-8.866.458-17.731.546-26.6.613H71.393l-3.325,0-1.662-.012a12.815,12.815,0,0,1-1.889-.16,11.526,11.526,0,0,1-9.64-10.393l-.038-.947.006-.841.019-1.662.05-3.325.067-3.325L55,94.247l.057-.92a7.064,7.064,0,0,1,.126-.923,6.214,6.214,0,0,1,.2-.909,10.98,10.98,0,0,1,10.858-8.167c8.866.261,17.731.449,26.6.335,4.433-.049,8.866-.194,13.3-.349l13.3-.413c2.216-.033,4.433-.093,6.649-.087L129.4,82.8l1.662.009a12.552,12.552,0,0,1,1.852.158,10.919,10.919,0,0,1,3.544,1.2,11.556,11.556,0,0,1,2.9,2.321,10.773,10.773,0,0,1,2.765,6.675l.011.909-.032.838-.07,1.662-.144,3.325-.149,3.325a13.083,13.083,0,0,1-.432,3.392A10.563,10.563,0,0,1,131.236,114.3Zm0-.3a9.749,9.749,0,0,0,6.035-2.16,9.469,9.469,0,0,0,3.294-5.411,11.994,11.994,0,0,0,.163-3.208l-.149-3.325-.144-3.325-.07-1.662-.039-.825-.074-.752a9.2,9.2,0,0,0-2.622-5.21,9.047,9.047,0,0,0-5.106-2.545,9.766,9.766,0,0,0-1.459-.09L129.4,85.5l-3.325-.012c-2.216.006-4.433-.055-6.649-.087l-13.3-.413c-4.433-.155-8.866-.3-13.3-.349-8.866-.114-17.731.074-26.6.335a9.1,9.1,0,0,0-8.547,7.092,4.346,4.346,0,0,0-.127.719,5.008,5.008,0,0,0-.069.725l-.017.741.017.831L57.56,98.4l.05,3.325.019,1.662.013.821.046.713a8.532,8.532,0,0,0,2.37,5.049,8.4,8.4,0,0,0,4.927,2.507,9.521,9.521,0,0,0,1.422.087l1.662-.012,3.325,0h6.649c8.866.066,17.731.155,26.6.613C113.505,113.569,122.371,114.008,131.236,114Z" transform="translate(-54.839 -81.009)"/><text class="cls-3" transform="translate(5.312 13.625)">Ca</text><text class="cls-4" transform="translate(20.652 10.295) scale(0.583)">2+</text><text class="cls-3" transform="translate(27.299 13.625)"><tspan xml:space="preserve"> BINDING</tspan><tspan x="-14.665" y="14.4">PROTEINS</tspan></text></g></svg>