<svg id="Layer_1" data-name="Layer 1" xmlns="http://www.w3.org/2000/svg" xmlns:xlink="http://www.w3.org/1999/xlink" viewBox="0 0 43.293 56.322"><defs><style>.cls-1{fill:url(#linear-gradient);}.cls-2{fill:#0f4b5b;}</style><linearGradient id="linear-gradient" x1="271.754" y1="652.364" x2="271.754" y2="602.424" gradientTransform="matrix(-1, -0.004, 0.004, -1, 369.581, 728.425)" gradientUnits="userSpaceOnUse"><stop offset="0" stop-color="#d2a78a"/><stop offset="0.098" stop-color="#de9666"/><stop offset="0.217" stop-color="#eb8540"/><stop offset="0.327" stop-color="#f47925"/><stop offset="0.425" stop-color="#fa7215"/><stop offset="0.5" stop-color="#fc6f0f"/><stop offset="0.575" stop-color="#fa7215"/><stop offset="0.673" stop-color="#f47925"/><stop offset="0.783" stop-color="#eb8540"/><stop offset="0.902" stop-color="#de9666"/><stop offset="1" stop-color="#d2a78a"/></linearGradient></defs><title>R-ICO-013837</title><g id="SLC25A1"><path class="cls-1" d="M100.036,125.011c-6.779-.025-19.285,3.15-19.285,3.15,14.424.053,14.527-28.09,14.527-28.09s.1-28.147-14.32-28.2c0,0,12.3,3.245,19.041,3.27,6.745-.035,19.037-3.3,19.037-3.3-14.424.074-14.279,28.221-14.279,28.221s.145,28.143,14.57,28.068C119.327,128.132,106.816,124.976,100.036,125.011Z" transform="translate(-78.354 -71.839)"/><path class="cls-2" d="M108.045,100.043c.113,21.862,9.844,18.967,11.233,18.96s2.326,1.478,2.345,5.007c.014,2.818-.486,4.109-2.3,4.119-14.424.074-14.569-28.069-14.569-28.069s-.146-28.146,14.278-28.221c1.81-.009,2.6,1.341,2.612,4.09s-1.176,5.032-2.564,5.04S107.932,78.182,108.045,100.043Z" transform="translate(-78.354 -71.839)"/><path class="cls-2" d="M91.991,100.055c-.081,21.862-9.817,18.981-11.2,18.976s-2.325,1.482-2.338,5.01c-.01,2.819.492,4.11,2.3,4.116,14.424.054,14.528-28.09,14.528-28.09s.1-28.147-14.32-28.2c-1.81-.006-2.6,1.345-2.606,4.094S79.537,80.992,80.926,81,92.071,78.194,91.991,100.055Z" transform="translate(-78.354 -71.839)"/></g></svg>