<svg id="Layer_1" data-name="Layer 1" xmlns="http://www.w3.org/2000/svg" xmlns:xlink="http://www.w3.org/1999/xlink" viewBox="0 0 70 17.344"><defs><style>.cls-1{fill:url(#linear-gradient);}.cls-2{fill:url(#linear-gradient-2);}.cls-3{fill:url(#linear-gradient-3);}.cls-4{fill:url(#linear-gradient-4);}.cls-5{fill:url(#linear-gradient-5);}.cls-6{fill:url(#linear-gradient-6);}.cls-7{fill:url(#linear-gradient-7);}.cls-8{fill:url(#linear-gradient-8);}.cls-9{fill:url(#linear-gradient-9);}.cls-10{fill:url(#linear-gradient-10);}.cls-11{fill:url(#linear-gradient-11);}.cls-12{opacity:0.5;}.cls-13{fill:url(#linear-gradient-12);}.cls-14{mask:url(#mask);}.cls-15{fill:url(#radial-gradient);}.cls-16{mask:url(#mask-2);}.cls-17{fill:url(#radial-gradient-2);}</style><linearGradient id="linear-gradient" x1="65" y1="100" x2="75.37" y2="100" gradientUnits="userSpaceOnUse"><stop offset="0" stop-color="#fff"/><stop offset="0.12" stop-color="#fbfbfb"/><stop offset="0.245" stop-color="#eee"/><stop offset="0.372" stop-color="#dadada"/><stop offset="0.501" stop-color="#bcbcbc"/><stop offset="0.63" stop-color="#979797"/><stop offset="0.761" stop-color="#696969"/><stop offset="0.89" stop-color="#343434"/><stop offset="1"/></linearGradient><linearGradient id="linear-gradient-2" x1="124.63" y1="100" x2="135" y2="100" gradientUnits="userSpaceOnUse"><stop offset="0"/><stop offset="0.11" stop-color="#343434"/><stop offset="0.239" stop-color="#696969"/><stop offset="0.37" stop-color="#979797"/><stop offset="0.499" stop-color="#bcbcbc"/><stop offset="0.628" stop-color="#dadada"/><stop offset="0.755" stop-color="#eee"/><stop offset="0.88" stop-color="#fbfbfb"/><stop offset="1" stop-color="#fff"/></linearGradient><linearGradient id="linear-gradient-3" x1="2722.863" y1="260.571" x2="2715.377" y2="273.537" gradientTransform="translate(2802.203 373.467) rotate(180)" gradientUnits="userSpaceOnUse"><stop offset="0" stop-color="#ffd9e8"/><stop offset="0.036" stop-color="#fcb5c1"/><stop offset="0.082" stop-color="#f98c96"/><stop offset="0.132" stop-color="#f6686f"/><stop offset="0.185" stop-color="#f44a4f"/><stop offset="0.241" stop-color="#f23135"/><stop offset="0.303" stop-color="#f11f20"/><stop offset="0.373" stop-color="#f01112"/><stop offset="0.459" stop-color="#ef090a"/><stop offset="0.6" stop-color="#ef0707"/><stop offset="1" stop-color="#ef7070"/></linearGradient><linearGradient id="linear-gradient-4" x1="2715.311" y1="258.746" x2="2704.07" y2="278.215" xlink:href="#linear-gradient-3"/><linearGradient id="linear-gradient-5" x1="2710.751" y1="259.424" x2="2697.726" y2="281.984" xlink:href="#linear-gradient-3"/><linearGradient id="linear-gradient-6" x1="2728.691" y1="263.546" x2="2725.888" y2="268.4" xlink:href="#linear-gradient-3"/><linearGradient id="linear-gradient-7" x1="2687.961" y1="273.872" x2="2680.876" y2="286.144" xlink:href="#linear-gradient-3"/><linearGradient id="linear-gradient-8" x1="2677.579" y1="279.084" x2="2675.249" y2="283.121" xlink:href="#linear-gradient-3"/><linearGradient id="linear-gradient-9" x1="2708.756" y1="262.116" x2="2695.476" y2="285.118" xlink:href="#linear-gradient-3"/><linearGradient id="linear-gradient-10" x1="2699.21" y1="269.161" x2="2688.316" y2="288.029" xlink:href="#linear-gradient-3"/><linearGradient id="linear-gradient-11" x1="2706.384" y1="265.266" x2="2693.419" y2="287.722" xlink:href="#linear-gradient-3"/><linearGradient id="linear-gradient-12" x1="100" y1="91.328" x2="100" y2="108.672" gradientUnits="userSpaceOnUse"><stop offset="0" stop-color="#fff"/><stop offset="0.077" stop-color="#fbd7d7"/><stop offset="0.163" stop-color="#f6b2b2"/><stop offset="0.249" stop-color="#f39595"/><stop offset="0.335" stop-color="#f18181"/><stop offset="0.419" stop-color="#ef7474"/><stop offset="0.5" stop-color="#ef7070"/><stop offset="0.581" stop-color="#ef7474"/><stop offset="0.665" stop-color="#f18181"/><stop offset="0.751" stop-color="#f39595"/><stop offset="0.837" stop-color="#f6b2b2"/><stop offset="0.923" stop-color="#fbd7d7"/><stop offset="1" stop-color="#fff"/></linearGradient><mask id="mask" x="0" y="0" width="10.37" height="17.344" maskUnits="userSpaceOnUse"><g transform="translate(-65 -91.328)"><path class="cls-1" d="M75.37,108.672h-1.7a8.672,8.672,0,0,1,0-17.344h1.7Z"/></g></mask><radialGradient id="radial-gradient" cx="63.053" cy="100.91" r="12.386" gradientTransform="translate(29.437 29.426) scale(0.7 0.7)" gradientUnits="userSpaceOnUse"><stop offset="0" stop-color="#ef7070"/><stop offset="0.162" stop-color="#ef7474"/><stop offset="0.33" stop-color="#f18181"/><stop offset="0.501" stop-color="#f39595"/><stop offset="0.674" stop-color="#f6b2b2"/><stop offset="0.846" stop-color="#fbd7d7"/><stop offset="1" stop-color="#fff"/></radialGradient><mask id="mask-2" x="59.63" y="0" width="10.37" height="17.344" maskUnits="userSpaceOnUse"><g transform="translate(-65 -91.328)"><path class="cls-2" d="M124.63,91.328h1.7a8.672,8.672,0,0,1,0,17.344h-1.7"/></g></mask><radialGradient id="radial-gradient-2" cx="2312.594" cy="-387.264" r="12.386" gradientTransform="translate(1745.242 -171.147) rotate(180) scale(0.7 0.7)" xlink:href="#radial-gradient"/></defs><title>R-ICO-013940</title><g id="R-ICO-013940"><path class="cls-3" d="M67.439,106.026l15.118,2.646h19.41L65.3,102.254A8.646,8.646,0,0,0,67.439,106.026Z" transform="translate(-65 -91.328)"/><path class="cls-4" d="M65,100a8.681,8.681,0,0,0,.3,2.254l36.669,6.418h19.409L65.082,98.819A8.838,8.838,0,0,0,65,100Z" transform="translate(-65 -91.328)"/><path class="cls-5" d="M65.082,98.819l56.294,9.853h4.952a8.629,8.629,0,0,0,5.075-1.642L66.191,95.616A8.607,8.607,0,0,0,65.082,98.819Z" transform="translate(-65 -91.328)"/><path class="cls-6" d="M73.672,108.672h8.885l-15.118-2.646A8.644,8.644,0,0,0,73.672,108.672Z" transform="translate(-65 -91.328)"/><path class="cls-7" d="M99.923,91.328,134.6,97.4a8.678,8.678,0,0,0-2.454-3.827l-12.815-2.243Z" transform="translate(-65 -91.328)"/><path class="cls-8" d="M119.333,91.328l12.815,2.243a8.64,8.64,0,0,0-5.82-2.243Z" transform="translate(-65 -91.328)"/><path class="cls-9" d="M66.191,95.616,131.4,107.03a8.717,8.717,0,0,0,2.576-2.947l-65-11.376A8.709,8.709,0,0,0,66.191,95.616Z" transform="translate(-65 -91.328)"/><path class="cls-10" d="M80.514,91.328l54.443,9.529c.028-.282.043-.568.043-.857a8.666,8.666,0,0,0-.4-2.6l-34.679-6.07Z" transform="translate(-65 -91.328)"/><path class="cls-11" d="M73.672,91.328a8.63,8.63,0,0,0-4.689,1.379l65,11.376a8.6,8.6,0,0,0,.978-3.226L80.514,91.328Z" transform="translate(-65 -91.328)"/><g id="_Group_" data-name="&lt;Group&gt;" class="cls-12"><path class="cls-13" d="M73.672,108.672a8.672,8.672,0,0,1,0-17.344h52.656a8.672,8.672,0,0,1,0,17.344Z" transform="translate(-65 -91.328)"/><g class="cls-14"><path class="cls-15" d="M75.37,108.672h-1.7a8.672,8.672,0,0,1,0-17.344h1.7Z" transform="translate(-65 -91.328)"/></g><g class="cls-16"><path class="cls-17" d="M124.63,91.328h1.7a8.672,8.672,0,0,1,0,17.344h-1.7Z" transform="translate(-65 -91.328)"/></g></g></g></svg>