<svg id="Layer_1" data-name="Layer 1" xmlns="http://www.w3.org/2000/svg" xmlns:xlink="http://www.w3.org/1999/xlink" viewBox="0 0 50.623 93.461"><defs><style>.cls-1,.cls-3,.cls-4,.cls-6{opacity:0.7;}.cls-1{fill:url(#linear-gradient);}.cls-2{fill:url(#radial-gradient);}.cls-3{fill:url(#radial-gradient-2);}.cls-4{fill:url(#linear-gradient-2);}.cls-5{fill:url(#radial-gradient-3);}.cls-6{fill:url(#radial-gradient-4);}</style><linearGradient id="linear-gradient" x1="32.929" y1="-92.708" x2="32.929" y2="-43.698" gradientTransform="translate(40.803 45.175) rotate(90)" gradientUnits="userSpaceOnUse"><stop offset="0" stop-color="#998abd"/><stop offset="0.5" stop-color="#70658a"/><stop offset="1" stop-color="#372e4a"/></linearGradient><radialGradient id="radial-gradient" cx="309.954" cy="-77.006" r="35.119" gradientTransform="matrix(0, 0.581, -1, 0, 40.803, -105.6)" gradientUnits="userSpaceOnUse"><stop offset="0.567" stop-color="#cacacc" stop-opacity="0"/><stop offset="0.694" stop-color="#8f8690" stop-opacity="0.335"/><stop offset="1" stop-color="#1a0018"/></radialGradient><radialGradient id="radial-gradient-2" cx="309.301" cy="-75.815" r="35.119" gradientTransform="matrix(0, 0.581, -1, 0, 40.803, -105.6)" gradientUnits="userSpaceOnUse"><stop offset="0" stop-color="#fdfdff"/><stop offset="1" stop-color="#cacacc" stop-opacity="0"/></radialGradient><linearGradient id="linear-gradient-2" x1="-40.72" y1="-57.442" x2="-30.847" y2="-57.442" gradientTransform="translate(91.54 189.993) rotate(30)" xlink:href="#linear-gradient"/><radialGradient id="radial-gradient-3" cx="-52.117" cy="-61.776" r="21.289" gradientTransform="matrix(0.84, 0.543, -1.288, 1.991, 41.487, 261.731)" gradientUnits="userSpaceOnUse"><stop offset="0.461" stop-color="#cacacc" stop-opacity="0"/><stop offset="0.619" stop-color="#8f8690" stop-opacity="0.335"/><stop offset="1" stop-color="#1a0018"/></radialGradient><radialGradient id="radial-gradient-4" cx="-42.117" cy="-64.442" r="21.289" gradientTransform="matrix(0.84, 0.543, -1.288, 1.991, 39.65, 264.299)" xlink:href="#radial-gradient-2"/></defs><title>sperm_cell</title><g id="SPERM_CELL"><ellipse class="cls-1" cx="108.355" cy="78.104" rx="24.854" ry="14.428" transform="translate(-74.696 100.547) rotate(-70.777)"/><ellipse class="cls-2" cx="108.355" cy="78.104" rx="24.854" ry="14.428" transform="translate(-74.696 100.547) rotate(-70.777)"/><ellipse class="cls-3" cx="108.355" cy="78.104" rx="24.854" ry="14.428" transform="translate(-74.696 100.547) rotate(-70.777)"/><path class="cls-4" d="M104.592,101.983a29.624,29.624,0,0,0-3.1,5.428,52.466,52.466,0,0,0-2.133,6.383,13.574,13.574,0,0,1-1.8,4,7.761,7.761,0,0,1-3.925,2.834l-.249.086-.093.027a2.239,2.239,0,0,0-.218.085,3.819,3.819,0,0,0-.517.3,8.959,8.959,0,0,0-1.125.918,23.956,23.956,0,0,0-2.186,2.424A121.459,121.459,0,0,0,81.547,136c-1.225,1.994-2.44,4-3.7,5.983-.633.99-1.275,1.975-1.956,2.936a16.249,16.249,0,0,1-2.262,2.7,16.06,16.06,0,0,0,1.9-2.927c.553-1.025,1.067-2.073,1.571-3.126,1-2.107,1.964-4.24,2.939-6.373a123.429,123.429,0,0,1,6.41-12.7,27.569,27.569,0,0,1,2.162-3.073,13.018,13.018,0,0,1,1.424-1.486,8.132,8.132,0,0,1,.919-.7c.177-.112.355-.222.557-.325l.308-.15.154-.088a3,3,0,0,0,1.439-1.5,9.78,9.78,0,0,0,.555-2.57,57.672,57.672,0,0,1,1.092-7.26,37.009,37.009,0,0,1,2.61-7.356l.022-.046a4.018,4.018,0,1,1,7.264,3.436A4.3,4.3,0,0,1,104.592,101.983Z" transform="translate(-73.627 -54.155)"/><path class="cls-5" d="M104.592,101.983a29.624,29.624,0,0,0-3.1,5.428,52.466,52.466,0,0,0-2.133,6.383,13.574,13.574,0,0,1-1.8,4,7.761,7.761,0,0,1-3.925,2.834l-.249.086-.093.027a2.239,2.239,0,0,0-.218.085,3.819,3.819,0,0,0-.517.3,8.959,8.959,0,0,0-1.125.918,23.956,23.956,0,0,0-2.186,2.424A121.459,121.459,0,0,0,81.547,136c-1.225,1.994-2.44,4-3.7,5.983-.633.99-1.275,1.975-1.956,2.936a16.249,16.249,0,0,1-2.262,2.7,16.06,16.06,0,0,0,1.9-2.927c.553-1.025,1.067-2.073,1.571-3.126,1-2.107,1.964-4.24,2.939-6.373a123.429,123.429,0,0,1,6.41-12.7,27.569,27.569,0,0,1,2.162-3.073,13.018,13.018,0,0,1,1.424-1.486,8.132,8.132,0,0,1,.919-.7c.177-.112.355-.222.557-.325l.308-.15.154-.088a3,3,0,0,0,1.439-1.5,9.78,9.78,0,0,0,.555-2.57,57.672,57.672,0,0,1,1.092-7.26,37.009,37.009,0,0,1,2.61-7.356l.022-.046a4.018,4.018,0,1,1,7.264,3.436A4.3,4.3,0,0,1,104.592,101.983Z" transform="translate(-73.627 -54.155)"/><path class="cls-6" d="M104.592,101.983a29.624,29.624,0,0,0-3.1,5.428,52.466,52.466,0,0,0-2.133,6.383,13.574,13.574,0,0,1-1.8,4,7.761,7.761,0,0,1-3.925,2.834l-.249.086-.093.027a2.239,2.239,0,0,0-.218.085,3.819,3.819,0,0,0-.517.3,8.959,8.959,0,0,0-1.125.918,23.956,23.956,0,0,0-2.186,2.424A121.459,121.459,0,0,0,81.547,136c-1.225,1.994-2.44,4-3.7,5.983-.633.99-1.275,1.975-1.956,2.936a16.249,16.249,0,0,1-2.262,2.7,16.06,16.06,0,0,0,1.9-2.927c.553-1.025,1.067-2.073,1.571-3.126,1-2.107,1.964-4.24,2.939-6.373a123.429,123.429,0,0,1,6.41-12.7,27.569,27.569,0,0,1,2.162-3.073,13.018,13.018,0,0,1,1.424-1.486,8.132,8.132,0,0,1,.919-.7c.177-.112.355-.222.557-.325l.308-.15.154-.088a3,3,0,0,0,1.439-1.5,9.78,9.78,0,0,0,.555-2.57,57.672,57.672,0,0,1,1.092-7.26,37.009,37.009,0,0,1,2.61-7.356l.022-.046a4.018,4.018,0,1,1,7.264,3.436A4.3,4.3,0,0,1,104.592,101.983Z" transform="translate(-73.627 -54.155)"/></g></svg>