<svg id="Layer_1" data-name="Layer 1" xmlns="http://www.w3.org/2000/svg" xmlns:xlink="http://www.w3.org/1999/xlink" viewBox="0 0 177.993 177.993"><defs><style>.cls-1{fill:url(#radial-gradient);}.cls-2{fill:#5656a5;}.cls-3{opacity:0.7;}.cls-4{opacity:0.5;fill:url(#linear-gradient);}.cls-5{fill:url(#linear-gradient-2);}.cls-6{stroke:#000;stroke-miterlimit:10;fill:url(#linear-gradient-3);}.cls-7{fill:url(#radial-gradient-2);}.cls-8{opacity:0.85;fill:url(#radial-gradient-3);}</style><radialGradient id="radial-gradient" cx="73.339" cy="833.901" r="42.899" gradientTransform="translate(-11.255 -748.779)" gradientUnits="userSpaceOnUse"><stop offset="0" stop-color="#afbaf7"/><stop offset="0.311" stop-color="#6d96ce"/><stop offset="0.803" stop-color="#285fcc"/></radialGradient><linearGradient id="linear-gradient" x1="88.997" y1="0.745" x2="88.997" y2="176.241" gradientUnits="userSpaceOnUse"><stop offset="0" stop-color="#998abd"/><stop offset="0.5" stop-color="#70658a"/><stop offset="1" stop-color="#372e4a"/></linearGradient><linearGradient id="linear-gradient-2" x1="11.84" y1="99.886" x2="188.664" y2="99.886" xlink:href="#linear-gradient"/><linearGradient id="linear-gradient-3" x1="88.997" y1="21.538" x2="88.997" y2="155.686" xlink:href="#linear-gradient"/><radialGradient id="radial-gradient-2" cx="66.981" cy="63.563" r="108.095" gradientUnits="userSpaceOnUse"><stop offset="0.567" stop-color="#cacacc" stop-opacity="0"/><stop offset="0.888" stop-color="#4e3b4d" stop-opacity="0.707"/><stop offset="1" stop-color="#1a0018"/></radialGradient><radialGradient id="radial-gradient-3" cx="66.981" cy="63.563" r="108.095" gradientUnits="userSpaceOnUse"><stop offset="0" stop-color="#fdfdff"/><stop offset="1" stop-color="#cacacc" stop-opacity="0"/></radialGradient></defs><title>egg_cell</title><g id="EGG_CELL"><g id="NUCLEUS"><circle class="cls-1" cx="70.571" cy="98.713" r="32.64"/><path class="cls-2" d="M81.826,143.442a33.84,33.84,0,1,1,33.84-33.84A33.878,33.878,0,0,1,81.826,143.442Zm0-65.28a31.44,31.44,0,1,0,31.44,31.44A31.471,31.471,0,0,0,81.826,78.162Z" transform="translate(-11.255 -10.889)"/></g><g id="CELL" class="cls-3"><circle id="BG" class="cls-4" cx="88.997" cy="88.997" r="88.997"/><path id="CORONA_RADIATA" class="cls-5" d="M100.252,188.3h-.126a6,6,0,0,1-6-5.816,5.993,5.993,0,0,1-6.789,4.88L86.3,187.2a6,6,0,0,1-5.016-6.685,6,6,0,0,1-7.47,3.756l-1-.319a6,6,0,0,1-3.9-7.393,6,6,0,0,1-7.958,2.542q-.478-.237-.953-.481a6,6,0,0,1-2.7-7.889,6,6,0,0,1-8.241,1.245q-.437-.31-.869-.625a6,6,0,0,1-1.42-8.226,6,6,0,0,1-8.346-.041q-.382-.374-.761-.753a6,6,0,0,1-.117-8.356,6,6,0,0,1-8.245-1.328q-.322-.432-.639-.868a6,6,0,0,1,1.2-8.281,6,6,0,0,1-7.954-2.6q-.249-.475-.493-.953a6,6,0,0,1,2.491-8,6,6,0,0,1-7.456-3.808q-.174-.513-.34-1.029a6,6,0,0,1,3.689-7.495,6,6,0,0,1-6.73-4.946q-.089-.527-.171-1.055a6,6,0,0,1,4.813-6.822,6,6,0,0,1-5.868-5.931q-.006-.489-.005-.979a6,6,0,0,1,6.067-6.042l-.066-.009a6,6,0,0,1-5.073-6.8q.077-.529.161-1.056a6,6,0,0,1,6.68-5.017,6,6,0,0,1-3.763-7.46q.159-.508.323-1.013a6,6,0,0,1,7.394-3.9,6,6,0,0,1-2.548-7.958q.237-.477.479-.95a6,6,0,0,1,7.888-2.7,6,6,0,0,1-1.246-8.242q.31-.437.625-.869a6,6,0,0,1,8.221-1.423,6,6,0,0,1,.031-8.337q.378-.387.761-.77a6,6,0,0,1,8.357-.116,6,6,0,0,1,1.323-8.251q.43-.321.864-.636A6,6,0,0,1,56.6,29.521a6,6,0,0,1,2.6-7.956q.472-.248.946-.49a6,6,0,0,1,8,2.485A6,6,0,0,1,71.954,16.1q.51-.173,1.023-.339a6,6,0,0,1,7.5,3.682,6,6,0,0,1,4.938-6.73q.53-.09,1.063-.173A6,6,0,0,1,93.3,17.353a6,6,0,0,1,5.934-5.874q.508-.006,1.018-.006a6.018,6.018,0,0,1,6.021,5.921,6,6,0,0,1,6.782-5q.533.077,1.064.161a6,6,0,0,1,5.017,6.678,6,6,0,0,1,7.462-3.766q.508.159,1.013.323a6,6,0,0,1,3.9,7.392,6,6,0,0,1,7.953-2.556q.48.237.957.481a6,6,0,0,1,2.706,7.884,6,6,0,0,1,8.243-1.248q.431.306.859.617a6,6,0,0,1,1.435,8.227,6,6,0,0,1,8.34.028q.387.378.77.761a6,6,0,0,1,.12,8.353,6,6,0,0,1,8.252,1.323q.321.43.636.864a6,6,0,0,1-1.192,8.283,6,6,0,0,1,7.956,2.585q.251.477.5.956a6,6,0,0,1-2.481,8,6,6,0,0,1,7.463,3.812q.171.506.336,1.015a6,6,0,0,1-3.679,7.5,5.993,5.993,0,0,1,6.734,4.946q.088.522.171,1.046a6,6,0,0,1-4.808,6.83,6,6,0,0,1,5.876,5.928q.007.532.006,1.066v.168a6,6,0,0,1-5.82,6,6,6,0,0,1,4.879,6.771q-.078.533-.163,1.064a6,6,0,0,1-6.684,5.007,6,6,0,0,1,3.753,7.466q-.16.507-.324,1.012a6,6,0,0,1-7.4,3.894,6,6,0,0,1,2.539,7.958q-.237.478-.481.953a6,6,0,0,1-7.888,2.7,6,6,0,0,1,1.239,8.239q-.311.436-.625.867a6,6,0,0,1-8.227,1.42,6,6,0,0,1-.053,8.351q-.371.378-.745.751a6,6,0,0,1-8.361.112,6,6,0,0,1-1.337,8.253q-.427.318-.858.631a6,6,0,0,1-8.282-1.2,6,6,0,0,1-2.608,7.953q-.474.248-.95.49a6,6,0,0,1-8-2.494,6,6,0,0,1-3.818,7.453q-.51.173-1.021.337a6,6,0,0,1-7.495-3.689,6,6,0,0,1-4.939,6.725q-.535.091-1.072.174a6,6,0,0,1-6.814-4.819,6,6,0,0,1-5.938,5.867ZM87.23,175.275a6.018,6.018,0,0,1,.943.075l.93.142a6,6,0,0,1,5.116,5.742,6,6,0,0,1,5.906-4.936l.935,0h.062a6,6,0,0,1,5.894,4.881,6,6,0,0,1,5.082-5.788q.448-.07.894-.145a6,6,0,0,1,6.654,3.887,6,6,0,0,1,4.1-6.51q.441-.142.878-.29a6,6,0,0,1,7.189,2.822,6,6,0,0,1,3.02-7.107q.414-.211.824-.426a6,6,0,0,1,7.534,1.652,6,6,0,0,1,1.87-7.484q.376-.272.748-.55a6,6,0,0,1,7.7.448,6,6,0,0,1,.686-7.678l.657-.663a6,6,0,0,1,7.655-.761,6,6,0,0,1-.5-7.68q.271-.371.538-.747a6,6,0,0,1,7.43-1.959,6,6,0,0,1-1.682-7.493q.209-.408.414-.818a6.006,6.006,0,0,1,7.057-3.091,6,6,0,0,1-2.861-7.147q.144-.442.283-.885a6,6,0,0,1,6.473-4.155A6,6,0,0,1,175.71,112q.073-.451.138-.9a6,6,0,0,1,5.748-5.133,6,6,0,0,1-4.933-5.905v-.168q0-.464-.005-.925A6,6,0,0,1,181.53,93a6,6,0,0,1-5.794-5.064l-.15-.92a6,6,0,0,1,3.879-6.643,6,6,0,0,1-6.516-4.094q-.144-.443-.292-.883A6,6,0,0,1,175.47,68.2a6,6,0,0,1-7.112-3.005q-.209-.409-.423-.816a6,6,0,0,1,1.639-7.548,6,6,0,0,1-7.493-1.86q-.27-.372-.546-.741a6,6,0,0,1,.434-7.7,6,6,0,0,1-7.684-.681q-.321-.322-.646-.638a6,6,0,0,1-.783-7.666,6,6,0,0,1-7.677.519l-.755-.543a6,6,0,0,1-1.965-7.423,6,6,0,0,1-7.492,1.692q-.406-.207-.815-.41a6,6,0,0,1-3.1-7.056A6,6,0,0,1,123.9,27.2q-.441-.144-.885-.282a6,6,0,0,1-4.164-6.469,6.006,6.006,0,0,1-6.6,3.957q-.452-.072-.9-.137a6,6,0,0,1-5.144-5.847,5.978,5.978,0,0,1-5.9,5.049l-.931,0H99.3A6,6,0,0,1,93.4,18.6,6,6,0,0,1,88.331,24.4q-.452.07-.9.147a6,6,0,0,1-6.652-3.88,6,6,0,0,1-4.094,6.513q-.439.142-.875.29a6,6,0,0,1-7.2-2.815,6,6,0,0,1-3.006,7.11q-.415.212-.828.428a6,6,0,0,1-7.538-1.644,6,6,0,0,1-1.862,7.488q-.372.27-.741.546a6,6,0,0,1-7.7-.437,6,6,0,0,1-.682,7.684q-.322.321-.638.646a6,6,0,0,1-7.668.782,6,6,0,0,1,.508,7.684q-.27.371-.536.745a6,6,0,0,1-7.427,1.963,6,6,0,0,1,1.691,7.491q-.209.409-.414.822a6,6,0,0,1-7.054,3.1,6,6,0,0,1,2.87,7.143q-.144.441-.282.885a6,6,0,0,1-6.471,4.164,6,6,0,0,1,3.953,6.6q-.072.456-.138.913a6,6,0,0,1-5.93,5.136h-.056a5.956,5.956,0,0,1,5.184,5.9l0,.928a6,6,0,0,1-4.875,5.962,6,6,0,0,1,5.787,5.073q.071.456.148.911a6,6,0,0,1-3.887,6.646,6,6,0,0,1,6.515,4.1q.141.437.288.871a6,6,0,0,1-2.818,7.2,6,6,0,0,1,7.111,3.014q.209.412.424.821a6,6,0,0,1-1.647,7.54,6,6,0,0,1,7.488,1.868q.269.371.543.737a6,6,0,0,1-.437,7.7,6,6,0,0,1,7.677.686q.325.326.654.647a6,6,0,0,1,.77,7.664,6,6,0,0,1,7.684-.507q.371.27.745.537a6,6,0,0,1,1.96,7.433,6,6,0,0,1,7.5-1.687q.408.209.818.413a6,6,0,0,1,3.093,7.052,6,6,0,0,1,7.141-2.866l.9.286a6,6,0,0,1,4.152,6.472A6.005,6.005,0,0,1,87.23,175.275Z" transform="translate(-11.255 -10.889)"/><circle id="CYTOPLASM" class="cls-6" cx="88.997" cy="88.997" r="68.028"/><circle id="ZONA_PELLUCIDA" class="cls-7" cx="88.997" cy="88.997" r="76.5"/><circle id="LIGHT" class="cls-8" cx="88.997" cy="88.997" r="76.5"/></g></g></svg>