<svg id="Layer_1" data-name="Layer 1" xmlns="http://www.w3.org/2000/svg" xmlns:xlink="http://www.w3.org/1999/xlink" viewBox="0 0 48.728 118.986"><defs><style>.cls-1{fill:url(#linear-gradient);}.cls-2{fill:url(#radial-gradient);}.cls-3{fill:url(#radial-gradient-2);}.cls-4{fill:url(#linear-gradient-2);}.cls-5{fill:url(#linear-gradient-3);}.cls-6{fill:url(#linear-gradient-4);}.cls-7{fill:url(#linear-gradient-5);}.cls-8{fill:url(#linear-gradient-6);}.cls-9{fill:url(#linear-gradient-7);}</style><linearGradient id="linear-gradient" x1="-193.364" y1="317.786" x2="-189.364" y2="317.786" gradientTransform="translate(197.921 -261.685)" gradientUnits="userSpaceOnUse"><stop offset="0" stop-color="#40286b"/><stop offset="0.056" stop-color="#442a71"/><stop offset="0.131" stop-color="#4e3182"/><stop offset="0.217" stop-color="#5f3c9f"/><stop offset="0.312" stop-color="#764bc6"/><stop offset="0.351" stop-color="#8152d9"/><stop offset="0.397" stop-color="#7047bd"/><stop offset="0.456" stop-color="#5f3c9f"/><stop offset="0.519" stop-color="#513388"/><stop offset="0.586" stop-color="#482d78"/><stop offset="0.661" stop-color="#42296e"/><stop offset="0.759" stop-color="#40286b"/></linearGradient><radialGradient id="radial-gradient" cx="-192.689" cy="271.467" r="11.882" gradientTransform="translate(272.108 -222.588)" gradientUnits="userSpaceOnUse"><stop offset="0" stop-color="#6f36d9"/><stop offset="0.013" stop-color="#6e35d6"/><stop offset="0.188" stop-color="#5c2eb0"/><stop offset="0.362" stop-color="#4e2992"/><stop offset="0.533" stop-color="#44257c"/><stop offset="0.698" stop-color="#3e236f"/><stop offset="0.852" stop-color="#3c226b"/></radialGradient><radialGradient id="radial-gradient-2" cx="1051.438" cy="519.915" r="11.882" gradientTransform="translate(870.552 -834.477) rotate(105.169)" xlink:href="#radial-gradient"/><linearGradient id="linear-gradient-2" x1="-197.533" y1="359.013" x2="-185.196" y2="359.013" gradientTransform="translate(197.921 -261.685)" gradientUnits="userSpaceOnUse"><stop offset="0" stop-color="#3c226b"/><stop offset="0.056" stop-color="#3f2371"/><stop offset="0.131" stop-color="#472682"/><stop offset="0.217" stop-color="#542b9f"/><stop offset="0.312" stop-color="#6633c6"/><stop offset="0.351" stop-color="#6f36d9"/><stop offset="0.397" stop-color="#6231bd"/><stop offset="0.456" stop-color="#542c9f"/><stop offset="0.519" stop-color="#4a2788"/><stop offset="0.586" stop-color="#422478"/><stop offset="0.661" stop-color="#3d236e"/><stop offset="0.759" stop-color="#3c226b"/></linearGradient><linearGradient id="linear-gradient-3" x1="-197.533" y1="300.929" x2="-185.196" y2="300.929" xlink:href="#linear-gradient-2"/><linearGradient id="linear-gradient-4" x1="-175.363" y1="335.927" x2="-171.363" y2="335.927" xlink:href="#linear-gradient"/><linearGradient id="linear-gradient-5" x1="-179.532" y1="359.013" x2="-167.194" y2="359.013" xlink:href="#linear-gradient-2"/><linearGradient id="linear-gradient-6" x1="-157.362" y1="335.927" x2="-153.362" y2="335.927" xlink:href="#linear-gradient"/><linearGradient id="linear-gradient-7" x1="-161.53" y1="359.013" x2="-149.193" y2="359.013" xlink:href="#linear-gradient-2"/></defs><title>FCgammaR</title><g id="FCGR"><rect class="cls-1" x="4.557" y="21.265" width="4" height="69.671"/><path class="cls-2" d="M80.744,61.528a6.557,6.557,0,0,1-6.557-6.557V48.479a6.557,6.557,0,0,1,13.114,0v6.493A6.557,6.557,0,0,1,80.744,61.528Z" transform="translate(-74.187 -39.097)"/><path class="cls-3" d="M87.1,43.94a6.557,6.557,0,0,1,8.044-4.613l6.267,1.7a6.557,6.557,0,1,1-3.431,12.657l-6.267-1.7A6.557,6.557,0,0,1,87.1,43.94Z" transform="translate(-74.187 -39.097)"/><rect class="cls-4" x="0.388" y="75.669" width="12.337" height="43.317"/><rect class="cls-5" x="0.388" y="30.941" width="12.337" height="16.606"/><rect class="cls-6" x="22.558" y="57.548" width="4" height="33.389"/><rect class="cls-7" x="18.389" y="75.669" width="12.337" height="43.317"/><rect class="cls-8" x="40.559" y="57.548" width="4" height="33.389"/><rect class="cls-9" x="36.391" y="75.669" width="12.337" height="43.317"/></g></svg>