<svg id="Layer_1" data-name="Layer 1" xmlns="http://www.w3.org/2000/svg" xmlns:xlink="http://www.w3.org/1999/xlink" viewBox="0 0 74.973 22.949"><defs><style>.cls-1{fill:url(#linear-gradient);}.cls-2{fill:#ff8100;}.cls-3{font-size:12px;fill:#fff;font-family:Arial-BoldMT, Arial;font-weight:700;}.cls-4{letter-spacing:-0.037em;}</style><linearGradient id="linear-gradient" x1="37.817" y1="21.347" x2="37.817" y2="1.347" gradientUnits="userSpaceOnUse"><stop offset="0" stop-color="#004d00"/><stop offset="1" stop-color="#ff8100"/></linearGradient></defs><title>ZNF385A</title><g id="ZNF385A"><rect class="cls-1" x="1.317" y="1.347" width="73" height="20" rx="10" ry="10"/><path class="cls-2" d="M125,108.15c-7.032-.009-14.065.43-21.1.837-7.032.458-14.065.546-21.1.613-3.516,0-7.032.019-10.548-.037a11.77,11.77,0,0,1-5.784-1.5,11.6,11.6,0,0,1-4.239-4.193,11.11,11.11,0,0,1-1.552-5.72,11.265,11.265,0,0,1,1.592-5.651A10.955,10.955,0,0,1,72,87.179c7.032.261,14.065.449,21.1.335,3.516-.049,7.032-.194,10.549-.349l10.548-.413c3.516-.085,7.032-.131,10.548-.071a10.9,10.9,0,0,1,5.64,1.519A10.72,10.72,0,0,1,125,108.15Zm0-.3a9.684,9.684,0,0,0,4.923-1.4,9.39,9.39,0,0,0,3.434-3.721,9.216,9.216,0,0,0-.606-9.376,9.573,9.573,0,0,0-3.52-3.066,8.832,8.832,0,0,0-2.179-.747,9.581,9.581,0,0,0-1.13-.187c-.4-.012-.73-.039-1.179-.031-3.516.061-7.032.015-10.548-.071l-10.548-.413c-3.516-.155-7.032-.3-10.549-.349-7.032-.114-14.065.074-21.1.335a9.2,9.2,0,0,0-7.657,4.851,8.72,8.72,0,0,0,3.569,11.784,8.675,8.675,0,0,0,4.345.98c3.516-.056,7.032-.036,10.548-.037,7.032.066,14.065.155,21.1.613C110.933,107.42,117.965,107.859,125,107.85Z" transform="translate(-60.681 -86.653)"/><text class="cls-3" transform="translate(12.033 14.169)">ZNF385<tspan class="cls-4" x="43.348" y="0">A</tspan></text></g></svg>