<svg id="Layer_1" data-name="Layer 1" xmlns="http://www.w3.org/2000/svg" xmlns:xlink="http://www.w3.org/1999/xlink" viewBox="0 0 49.487 22.705"><defs><style>.cls-1{fill:url(#linear-gradient);}.cls-2{fill:#cfc629;}.cls-3{font-size:12px;fill:#fff;font-family:Arial-BoldMT, Arial;font-weight:700;}</style><linearGradient id="linear-gradient" x1="24.94" y1="21.145" x2="24.94" y2="1.145" gradientUnits="userSpaceOnUse"><stop offset="0" stop-color="#524818"/><stop offset="0.364" stop-color="#7d731e"/><stop offset="0.999" stop-color="#cfc629"/></linearGradient></defs><title>R-ICO-013762</title><g id="R-ICO-013762"><rect class="cls-1" x="1.44" y="1.145" width="47" height="20" rx="10"/><path class="cls-2" d="M113.5,110.15c-4.866-.009-9.731.43-14.6.837-2.433.2-4.866.388-7.3.457-1.217.057-2.433.074-3.65.093-.634,0-1.159.041-1.882.012a11.337,11.337,0,0,1-10.919-12.8,11.075,11.075,0,0,1,3.885-7.078A10.872,10.872,0,0,1,86.5,89.179c4.866.281,9.731.436,14.6.335,2.433-.059,4.866-.178,7.3-.342l3.65-.234c.627-.034,1.174-.086,1.867-.081a9.975,9.975,0,0,1,2.037.172,10.633,10.633,0,0,1,6.75,4.392,10.489,10.489,0,0,1,1.687,7.778,10.862,10.862,0,0,1-3.972,6.519A11.278,11.278,0,0,1,113.5,110.15Zm0-.3a8.973,8.973,0,0,0,6.4-2.7,9.106,9.106,0,0,0,2.587-6.155,9.686,9.686,0,0,0-7.085-9.525,10.12,10.12,0,0,0-1.576-.284c-.522-.07-1.192-.068-1.781-.119l-3.65-.234c-2.432-.164-4.865-.283-7.3-.342-4.866-.1-9.731.054-14.6.335a9.209,9.209,0,0,0-8.527,8.24,8.705,8.705,0,0,0,6.7,9.131,8.278,8.278,0,0,0,1.514.222c.237.025.546.029.854.033l.912.016c1.217.019,2.433.036,3.65.093,2.432.069,4.865.252,7.3.457C103.769,109.42,108.634,109.859,113.5,109.85Z" transform="translate(-75.06 -88.855)"/><text class="cls-3" transform="translate(5.27 14.389)">ALPK1</text></g></svg>