<svg id="Layer_1" data-name="Layer 1" xmlns="http://www.w3.org/2000/svg" xmlns:xlink="http://www.w3.org/1999/xlink" viewBox="0 0 70.04 22.952"><defs><style>.cls-1{fill:url(#linear-gradient);}.cls-2{fill:#c15436;}.cls-3{font-size:12px;fill:#fff;font-family:Arial-BoldMT, Arial;font-weight:700;}</style><linearGradient id="linear-gradient" x1="35.333" y1="21.353" x2="35.333" y2="1.353" gradientUnits="userSpaceOnUse"><stop offset="0" stop-color="#00b6ff"/><stop offset="1" stop-color="#c15436"/></linearGradient></defs><title>SMARCA5</title><g id="SMARCA5"><rect class="cls-1" x="1.333" y="1.353" width="68" height="20" rx="10" ry="10"/><path class="cls-2" d="M123.233,109.675c-6.616-.009-13.231.43-19.847.837-6.616.458-13.231.546-19.847.613H78.578l-2.481,0c-.426,0-.791.007-1.3-.033a8.95,8.95,0,0,1-1.426-.162,11.546,11.546,0,0,1-8.566-6.795,11.088,11.088,0,0,1,1.067-10.708,10.988,10.988,0,0,1,4.111-3.582,11.228,11.228,0,0,1,5.25-1.136c6.616.261,13.231.449,19.847.335,3.308-.049,6.616-.194,9.923-.349l9.923-.413c1.654-.033,3.308-.093,4.962-.087a32.905,32.905,0,0,1,5.167.177,10.736,10.736,0,0,1-1.822,21.309Zm0-.3a9.935,9.935,0,0,0,4.662-1.244,9.6,9.6,0,0,0,3.382-3.367,9.241,9.241,0,0,0,.235-8.889,9.416,9.416,0,0,0-6.883-4.906,13.939,13.939,0,0,0-2.259-.1l-2.481-.012c-1.654.006-3.308-.055-4.962-.087L105,90.36c-3.308-.155-6.616-.3-9.923-.349-6.616-.114-13.231.074-19.847.335a9.379,9.379,0,0,0-4.27,1.291,9.732,9.732,0,0,0-3.1,3.089,8.831,8.831,0,0,0-.479,8.257,8.569,8.569,0,0,0,6.493,4.856,13.177,13.177,0,0,0,2.22.091l2.481,0h4.962c6.616.066,13.231.155,19.847.613C110,108.945,116.618,109.384,123.233,109.375Z" transform="translate(-63.9 -88.172)"/><text class="cls-3" transform="translate(5.664 14.174)">SMARCA5</text></g></svg>