<svg xmlns="http://www.w3.org/2000/svg" xmlns:xlink="http://www.w3.org/1999/xlink" viewBox="0 0 61.511 101.602"><defs><style>.cls-1{fill:url(#radial-gradient);}.cls-2{fill:url(#radial-gradient-2);}.cls-3{fill:url(#linear-gradient);}.cls-4{isolation:isolate;}.cls-5{fill:#7bb6f2;}.cls-6{fill:#2369b0;}.cls-7{mask:url(#mask);}.cls-10,.cls-8{mix-blend-mode:multiply;}.cls-8{fill:url(#radial-gradient-3);}.cls-9{mask:url(#mask-2);}.cls-10{fill:url(#radial-gradient-4);}.cls-11{mask:url(#mask-3);}.cls-12{opacity:0.7;mix-blend-mode:screen;fill:url(#radial-gradient-5);}</style><radialGradient id="radial-gradient" cx="697.222" cy="76.177" r="54.946" gradientTransform="translate(-976.396 40.43) scale(1.54 1.122)" gradientUnits="userSpaceOnUse"><stop offset="0.255" stop-color="#fff"/><stop offset="0.313" stop-color="#fbfbfb"/><stop offset="0.373" stop-color="#efefef"/><stop offset="0.433" stop-color="#dadada"/><stop offset="0.493" stop-color="#bebebe"/><stop offset="0.554" stop-color="#999"/><stop offset="0.615" stop-color="#6c6c6c"/><stop offset="0.675" stop-color="#373737"/><stop offset="0.73"/></radialGradient><radialGradient id="radial-gradient-2" cx="1004.793" cy="-25.566" r="99.422" gradientTransform="translate(-777.285 95.046) scale(0.874 0.611)" gradientUnits="userSpaceOnUse"><stop offset="0.47" stop-color="#fff"/><stop offset="0.487" stop-color="#e8e8e8"/><stop offset="0.537" stop-color="#ababab"/><stop offset="0.586" stop-color="#777"/><stop offset="0.634" stop-color="#4c4c4c"/><stop offset="0.68" stop-color="#2b2b2b"/><stop offset="0.724" stop-color="#131313"/><stop offset="0.764" stop-color="#050505"/><stop offset="0.799"/></radialGradient><linearGradient id="linear-gradient" x1="351.89" y1="368.104" x2="382.992" y2="466.439" gradientTransform="translate(-268.861 -399.594) scale(1 1.222)" gradientUnits="userSpaceOnUse"><stop offset="0" stop-color="#c8c8c8"/><stop offset="0.15" stop-color="#c4c4c4"/><stop offset="0.292" stop-color="#b9b9b9"/><stop offset="0.431" stop-color="#a6a6a6"/><stop offset="0.568" stop-color="#8b8b8b"/><stop offset="0.704" stop-color="#686868"/><stop offset="0.839" stop-color="#3e3e3e"/><stop offset="0.97" stop-color="#0c0c0c"/><stop offset="1"/></linearGradient><mask id="mask" x="-5.1" y="-1.142" width="68.227" height="103.74" maskUnits="userSpaceOnUse"><g transform="translate(-69.245 -49.199)"><rect class="cls-1" x="46.388" y="65.813" width="103.74" height="68.227" transform="translate(-1.669 198.185) rotate(-90)"/></g></mask><radialGradient id="radial-gradient-3" cx="941.363" cy="61.734" r="54.875" gradientTransform="matrix(0, -1, 0.586, 0, 63.804, 1041.363)" gradientUnits="userSpaceOnUse"><stop offset="0.554" stop-color="#787878" stop-opacity="0"/><stop offset="0.623" stop-color="#787878" stop-opacity="0.124"/><stop offset="0.756" stop-color="#787878" stop-opacity="0.451"/><stop offset="0.939" stop-color="#787878" stop-opacity="0.975"/><stop offset="0.947" stop-color="#787878"/></radialGradient><mask id="mask-2" x="-2.818" y="-2.432" width="67.151" height="106.467" maskUnits="userSpaceOnUse"><g transform="translate(-69.245 -49.199)"><rect class="cls-2" x="46.769" y="66.425" width="106.467" height="67.151" transform="translate(0.002 200.003) rotate(-90)"/></g></mask><radialGradient id="radial-gradient-4" cx="941.863" cy="60.988" r="68.386" gradientTransform="matrix(0.004, -1, 0.479, 0.001, 65.413, 1041.315)" gradientUnits="userSpaceOnUse"><stop offset="0.318" stop-color="#787878"/><stop offset="0.338" stop-color="#787878" stop-opacity="0.94"/><stop offset="0.466" stop-color="#787878" stop-opacity="0.605"/><stop offset="0.593" stop-color="#787878" stop-opacity="0.341"/><stop offset="0.714" stop-color="#787878" stop-opacity="0.152"/><stop offset="0.829" stop-color="#787878" stop-opacity="0.039"/><stop offset="0.931" stop-color="#787878" stop-opacity="0"/></radialGradient><mask id="mask-3" x="-8.07" y="-1.535" width="74.948" height="126.062" maskUnits="userSpaceOnUse"><g transform="translate(-69.245 -49.199)"><rect class="cls-3" x="61.175" y="47.664" width="74.948" height="126.062"/></g></mask><radialGradient id="radial-gradient-5" cx="941.549" cy="57.819" r="68.669" gradientTransform="matrix(0, -1, 0.49, 0, 65.085, 1041.363)" gradientUnits="userSpaceOnUse"><stop offset="0.568" stop-color="#fff" stop-opacity="0"/><stop offset="0.573" stop-color="#fff" stop-opacity="0.133"/><stop offset="0.581" stop-color="#fff" stop-opacity="0.334"/><stop offset="0.591" stop-color="#fff" stop-opacity="0.512"/><stop offset="0.6" stop-color="#fff" stop-opacity="0.663"/><stop offset="0.61" stop-color="#fff" stop-opacity="0.785"/><stop offset="0.62" stop-color="#fff" stop-opacity="0.88"/><stop offset="0.63" stop-color="#fff" stop-opacity="0.947"/><stop offset="0.642" stop-color="#fff" stop-opacity="0.987"/><stop offset="0.656" stop-color="#fff"/><stop offset="0.678" stop-color="#fff" stop-opacity="0.807"/><stop offset="0.705" stop-color="#fff" stop-opacity="0.596"/><stop offset="0.732" stop-color="#fff" stop-opacity="0.413"/><stop offset="0.759" stop-color="#fff" stop-opacity="0.264"/><stop offset="0.786" stop-color="#fff" stop-opacity="0.149"/><stop offset="0.812" stop-color="#fff" stop-opacity="0.066"/><stop offset="0.838" stop-color="#fff" stop-opacity="0.017"/><stop offset="0.863" stop-color="#fff" stop-opacity="0"/></radialGradient></defs><title>Claspin</title><g class="cls-4"><g id="Layer_1" data-name="Layer 1"><g id="Claspin"><path class="cls-5" d="M128.967,118.533c0-.012,0-.025,0-.037a94.339,94.339,0,0,0,1.78-18.5c0-12.529-2.31-24.379-6.506-33.369-5.2-11.144-12.97-16.978-23.092-17.391-.38-.025-.764-.04-1.155-.04s-.775.015-1.155.04c-10.122.413-17.892,6.247-23.092,17.391-4.2,8.99-6.506,20.84-6.506,33.369a94.346,94.346,0,0,0,1.786,18.549,66.248,66.248,0,0,0,4.72,14.82C81.148,144.936,89.306,150.8,100,150.8s18.85-5.865,24.247-17.431a65.942,65.942,0,0,0,4.645-14.471c0-.01.008-.018.01-.028.011-.054.02-.109.031-.162s.026-.116.038-.175ZM100,130.715c-2.788-2.4-6.612-9.23-8.225-20v0l0-.013A72.378,72.378,0,0,1,91,100C91,83,96.376,72.4,100,69.286,103.619,72.4,108.99,83,108.99,100a72.4,72.4,0,0,1-.761,10.673l0,.022h0C106.614,121.477,102.787,128.314,100,130.715Z" transform="translate(-69.245 -49.199)"/><path class="cls-6" d="M107.785,113.241c-.437,2.68,3.038,7.147,9.023,7.839,6.147.711,11.754-.865,12.338-3.478.078-.387.172-.914.273-1.514-.521,2.536-6.211,4.369-12.358,3.658-5.985-.692-9.459-4.829-9.037-7.827Z" transform="translate(-69.245 -49.199)"/><path class="cls-6" d="M71.27,119.693c-.345-2.4,3.144-6.553,9.212-7.393,6.233-.863,11.589.359,12.084,2.7l.323,1.356c-.435-2.27-5.967-3.72-12.2-2.857-6.069.84-9.471,4.691-9.154,7.381C71.435,120.442,71.346,120.049,71.27,119.693Z" transform="translate(-69.245 -49.199)"/><path class="cls-6" d="M98.53,69.355A10.247,10.247,0,0,1,88.176,59.229c0-5.546,4.526-9.755,10.334-9.973.437-.018,1.031-.064,1.487-.056a10.049,10.049,0,1,0,0,20.086l-.107.094Z" transform="translate(-69.245 -49.199)"/><g class="cls-7"><path id="SHADOW_OUT" class="cls-8" d="M130.755,100c0,12.529-2.31,24.379-6.506,33.369C118.852,144.936,110.694,150.8,100,150.8s-18.85-5.865-24.247-17.431c-4.2-8.99-6.506-20.84-6.506-33.369s2.31-24.379,6.506-33.369C81.153,55.065,89.311,49.2,100,49.2s18.85,5.865,24.247,17.431C128.445,75.621,130.755,87.472,130.755,100ZM100,130.715C103.619,127.6,108.99,117,108.99,100S103.619,72.4,100,69.286C96.376,72.4,91,83,91,100S96.376,127.6,100,130.715Z" transform="translate(-69.245 -49.199)"/></g><g class="cls-9"><path id="SHADOW_IN" class="cls-10" d="M130.755,100c0,12.529-2.31,24.379-6.506,33.369C118.852,144.936,110.694,150.8,100,150.8s-18.85-5.865-24.247-17.431c-4.2-8.99-6.506-20.84-6.506-33.369s2.31-24.379,6.506-33.369C81.153,55.065,89.311,49.2,100,49.2s18.85,5.865,24.247,17.431C128.445,75.621,130.755,87.472,130.755,100ZM100,130.715C103.619,127.6,108.99,117,108.99,100S103.619,72.4,100,69.286C96.376,72.4,91,83,91,100S96.376,127.6,100,130.715Z" transform="translate(-69.245 -49.199)"/></g><g class="cls-11"><path id="LIGHT" class="cls-12" d="M130.755,100c0,12.529-2.31,24.379-6.506,33.369C118.852,144.936,110.694,150.8,100,150.8s-18.85-5.865-24.247-17.431c-4.2-8.99-6.506-20.84-6.506-33.369s2.31-24.379,6.506-33.369C81.153,55.065,89.311,49.2,100,49.2s18.85,5.865,24.247,17.431C128.445,75.621,130.755,87.472,130.755,100ZM100,130.715C103.619,127.6,108.99,117,108.99,100S103.619,72.4,100,69.286C96.376,72.4,91,83,91,100S96.376,127.6,100,130.715Z" transform="translate(-69.245 -49.199)"/></g></g></g></g></svg>