<svg id="Layer_1" data-name="Layer 1" xmlns="http://www.w3.org/2000/svg" xmlns:xlink="http://www.w3.org/1999/xlink" viewBox="0 0 39.804 74.834"><defs><style>.cls-1{fill:url(#linear-gradient);}</style><linearGradient id="linear-gradient" x1="1753.929" y1="-221.673" x2="1753.929" y2="-296.507" gradientTransform="translate(-1655.893 357.232)" gradientUnits="userSpaceOnUse"><stop offset="0" stop-color="#70ffa8"/><stop offset="0.094" stop-color="#7af997"/><stop offset="0.721" stop-color="#b7d52b"/><stop offset="1" stop-color="#d0c700"/></linearGradient></defs><title>FZD</title><path id="FZD" class="cls-1" d="M115.437,135.558c-3.387,0-9.119-2.211-9.119-10.5V101.421c0-3.935.01-13.224-.908-17.469-.61,2.529-1.126,7.819-1.126,18.479,0,16.668-.954,25.132-6.171,25.132-5.586,0-5.69-9.676-5.823-21.927-.012-1.1-.023-2.166-.041-3.161v-1.06c0-3.9.01-13.088-.889-17.372-.913,4.089-1.052,12.688-1.119,16.81l-.026,1.623c0,16.623-.954,25.087-6.17,25.087a3.876,3.876,0,0,1-2.814-1.227c-2.458-2.5-3.313-9.217-3.05-23.95.151-8.444.153-38.854.153-39.161a2.5,2.5,0,1,1,5,0c0,.307,0,30.762-.153,39.251-.2,11.04.34,16.145.892,18.5.617-2.5,1.143-7.79,1.143-18.549l.027-1.659c.236-14.605.768-23.474,6.143-23.474,4.485,0,5.131,6.677,5.44,9.886.431,4.464.428,9.882.424,14.234v1.013c.018.962.029,2.037.041,3.151.044,4.031.125,11.534.882,15.271.6-2.552,1.112-7.842,1.112-18.422,0-16.669.954-25.133,6.17-25.133,4.485,0,5.131,6.679,5.44,9.889.431,4.466.428,9.884.424,14.237v23.639c0,4.961,2.881,5.5,4.119,5.5a2.5,2.5,0,1,1,0,5ZM84.8,122.838h0Z" transform="translate(-78.133 -60.724)"/></svg>