<svg id="Layer_1" data-name="Layer 1" xmlns="http://www.w3.org/2000/svg" xmlns:xlink="http://www.w3.org/1999/xlink" viewBox="0 0 97.406 24.232"><defs><style>.cls-1,.cls-3,.cls-4,.cls-5,.cls-6{fill:#73babf;stroke-linecap:round;stroke-linejoin:round;stroke-width:2px;}.cls-1{stroke:url(#linear-gradient);}.cls-2{isolation:isolate;font-size:12px;fill:#fff;font-family:Arial-BoldMT, Arial;font-weight:700;letter-spacing:-0.037em;}.cls-3{stroke:url(#linear-gradient-2);}.cls-4{stroke:url(#linear-gradient-3);}.cls-5{stroke:url(#linear-gradient-4);}.cls-6{stroke:url(#linear-gradient-5);}</style><linearGradient id="linear-gradient" x1="10.541" y1="24.232" x2="10.541" gradientUnits="userSpaceOnUse"><stop offset="0" stop-color="#041330"/><stop offset="1" stop-color="#73babf"/></linearGradient><linearGradient id="linear-gradient-2" x1="29.622" y1="24.232" x2="29.622" y2="0" xlink:href="#linear-gradient"/><linearGradient id="linear-gradient-3" x1="48.703" y1="24.232" x2="48.703" y2="0" xlink:href="#linear-gradient"/><linearGradient id="linear-gradient-4" x1="67.785" y1="24.232" x2="67.785" y2="0" xlink:href="#linear-gradient"/><linearGradient id="linear-gradient-5" x1="86.866" y1="24.232" x2="86.866" y2="0" xlink:href="#linear-gradient"/></defs><title>polyadenylate</title><g id="polyadenylate"><g id="A"><polygon class="cls-1" points="1 6.218 1 18.025 10.555 23.232 20.081 18.025 20.081 6.218 10.577 1 1 6.218"/><text class="cls-2" transform="translate(6.079 16.252)">A</text></g><g id="A-2" data-name="A"><polygon class="cls-3" points="20.081 6.218 20.081 18.025 29.637 23.232 39.163 18.025 39.163 6.218 29.658 1 20.081 6.218"/><text class="cls-2" transform="translate(25.161 16.252)">A</text></g><g id="A-3" data-name="A"><polygon class="cls-4" points="39.163 6.218 39.163 18.025 48.718 23.232 58.244 18.025 58.244 6.218 48.739 1 39.163 6.218"/><text class="cls-2" transform="translate(44.242 16.252)">A</text></g><g id="A-4" data-name="A"><polygon class="cls-5" points="58.244 6.218 58.244 18.025 67.799 23.232 77.325 18.025 77.325 6.218 67.821 1 58.244 6.218"/><text class="cls-2" transform="translate(63.323 16.252)">A</text></g><g id="A-5" data-name="A"><polygon class="cls-6" points="77.325 6.218 77.325 18.025 86.881 23.232 96.406 18.025 96.406 6.218 86.902 1 77.325 6.218"/><text class="cls-2" transform="translate(82.405 16.252)">A</text></g></g></svg>