<svg id="Layer_1" data-name="Layer 1" xmlns="http://www.w3.org/2000/svg" xmlns:xlink="http://www.w3.org/1999/xlink" viewBox="0 0 17.901 171.672"><defs><style>.cls-1{fill:url(#linear-gradient);}.cls-2{fill:url(#radial-gradient);}.cls-3{fill:url(#radial-gradient-2);}.cls-4{fill:url(#radial-gradient-3);}.cls-5{fill:url(#radial-gradient-4);}</style><linearGradient id="linear-gradient" x1="-266.026" y1="667.571" x2="-262.026" y2="667.571" gradientTransform="translate(272.977 -570.846)" gradientUnits="userSpaceOnUse"><stop offset="0" stop-color="#012970"/><stop offset="0.034" stop-color="#072d71"/><stop offset="0.079" stop-color="#183975"/><stop offset="0.131" stop-color="#354c7b"/><stop offset="0.189" stop-color="#5d6684"/><stop offset="0.251" stop-color="#90898f"/><stop offset="0.315" stop-color="#cdb29c"/><stop offset="0.351" stop-color="#f3cba4"/><stop offset="0.372" stop-color="#d5b79e"/><stop offset="0.411" stop-color="#a49693"/><stop offset="0.452" stop-color="#78798a"/><stop offset="0.494" stop-color="#536082"/><stop offset="0.538" stop-color="#354c7b"/><stop offset="0.584" stop-color="#1e3d76"/><stop offset="0.633" stop-color="#0e3273"/><stop offset="0.688" stop-color="#042b71"/><stop offset="0.758" stop-color="#012970"/></linearGradient><radialGradient id="radial-gradient" cx="-148.75" cy="610.063" r="11.882" gradientTransform="translate(301.246 -648.474) scale(1.365 1.168)" gradientUnits="userSpaceOnUse"><stop offset="0" stop-color="#f3cba4"/><stop offset="0.062" stop-color="#d3b59d"/><stop offset="0.179" stop-color="#9c9191"/><stop offset="0.298" stop-color="#6c7187"/><stop offset="0.414" stop-color="#46577f"/><stop offset="0.529" stop-color="#284378"/><stop offset="0.642" stop-color="#123574"/><stop offset="0.75" stop-color="#052c71"/><stop offset="0.852" stop-color="#012970"/></radialGradient><radialGradient id="radial-gradient-2" cx="-148.75" cy="613.411" r="14.159" gradientTransform="matrix(1.365, 0.017, -0.015, 3.007, 310.212, -1708.54)" xlink:href="#radial-gradient"/><radialGradient id="radial-gradient-3" cx="-148.75" cy="592.169" r="11.882" xlink:href="#radial-gradient"/><radialGradient id="radial-gradient-4" cx="-148.75" cy="574.275" r="11.882" xlink:href="#radial-gradient"/></defs><title>NGFR</title><g id="NGFR"><rect class="cls-1" x="6.951" y="61.889" width="4" height="69.671"/><path class="cls-2" d="M100,78.866c-4.944,0-8.951-3.429-8.951-7.659V63.624c0-4.229,4.007-7.659,8.951-7.659s8.951,3.429,8.951,7.659v7.584C108.951,75.437,104.944,78.866,100,78.866Z" transform="translate(-91.049 -14.164)"/><path class="cls-3" d="M100,185.836c-4.944,0-8.951-1.383-8.951-9.256V124.127c0-7.873,4.007-9.256,8.951-9.256s8.951,1.383,8.951,9.256V176.58C108.951,184.453,104.944,185.836,100,185.836Z" transform="translate(-91.049 -14.164)"/><path class="cls-4" d="M100,57.966c-4.944,0-8.951-3.429-8.951-7.659V42.723c0-4.229,4.007-7.659,8.951-7.659s8.951,3.429,8.951,7.659v7.584C108.951,54.536,104.944,57.966,100,57.966Z" transform="translate(-91.049 -14.164)"/><path class="cls-5" d="M100,37.065c-4.944,0-8.951-3.429-8.951-7.659V21.823c0-4.229,4.007-7.659,8.951-7.659s8.951,3.429,8.951,7.659v7.584C108.951,33.636,104.944,37.065,100,37.065Z" transform="translate(-91.049 -14.164)"/></g></svg>