<svg id="Layer_1" data-name="Layer 1" xmlns="http://www.w3.org/2000/svg" xmlns:xlink="http://www.w3.org/1999/xlink" viewBox="0 0 109.7 24"><defs><style>.cls-1{fill:url(#linear-gradient);}.cls-2{fill:url(#linear-gradient-2);}.cls-3{fill:url(#linear-gradient-3);}.cls-4{fill:url(#linear-gradient-4);}.cls-5{fill:url(#linear-gradient-5);}.cls-6{fill:url(#linear-gradient-6);}</style><linearGradient id="linear-gradient" x1="-810.394" y1="37.687" x2="-810.394" y2="13.97" gradientTransform="translate(-737.585 125.258) rotate(180)" gradientUnits="userSpaceOnUse"><stop offset="0" stop-color="#241a04"/><stop offset="0.094" stop-color="#a2760e"/><stop offset="0.119" stop-color="#a27815"/><stop offset="0.154" stop-color="#a27e27"/><stop offset="0.196" stop-color="#a28746"/><stop offset="0.242" stop-color="#a29370"/><stop offset="0.273" stop-color="#a29d90"/><stop offset="0.311" stop-color="#a29c8d"/><stop offset="0.338" stop-color="#a29984"/><stop offset="0.361" stop-color="#a29575"/><stop offset="0.382" stop-color="#a28e5f"/><stop offset="0.401" stop-color="#a28643"/><stop offset="0.419" stop-color="#a27c21"/><stop offset="0.428" stop-color="#a2760e"/><stop offset="1" stop-color="#241a04"/></linearGradient><linearGradient id="linear-gradient-2" x1="273.105" y1="-18.521" x2="273.105" y2="-42.441" gradientTransform="translate(-218.096 130.159)" gradientUnits="userSpaceOnUse"><stop offset="0" stop-color="#71530d"/><stop offset="0.092" stop-color="#a27713"/><stop offset="0.25" stop-color="#a29d90"/><stop offset="0.587" stop-color="#a2760e"/><stop offset="0.653" stop-color="#89640c"/><stop offset="0.814" stop-color="#533c08"/><stop offset="0.935" stop-color="#312305"/><stop offset="1" stop-color="#241a04"/></linearGradient><linearGradient id="linear-gradient-3" x1="-845.994" y1="37.687" x2="-845.994" y2="13.97" xlink:href="#linear-gradient"/><linearGradient id="linear-gradient-4" x1="308.705" y1="-18.521" x2="308.705" y2="-42.441" xlink:href="#linear-gradient-2"/><linearGradient id="linear-gradient-5" x1="-881.594" y1="37.687" x2="-881.594" y2="13.97" xlink:href="#linear-gradient"/><linearGradient id="linear-gradient-6" x1="344.305" y1="-18.521" x2="344.305" y2="-42.441" xlink:href="#linear-gradient-2"/></defs><title>mRNA</title><g id="mRNA"><path class="cls-1" d="M62.459,111.6c10.35,0,2.677-24,18.167-24l2.533.017c-9.828,0-3.3,23.983-17.8,23.983Z" transform="translate(-44.659 -87.605)"/><path class="cls-2" d="M65.359,111.6c-10.35,0-3.576-24-17.8-24h-2.9c9.828,0,2.9,24,17.8,24Z" transform="translate(-44.659 -87.605)"/><path class="cls-3" d="M98.059,111.6c10.35,0,2.677-24,18.167-24l2.533.017c-9.828,0-3.3,23.983-17.8,23.983Z" transform="translate(-44.659 -87.605)"/><path class="cls-4" d="M100.959,111.6c-10.35,0-3.576-24-17.8-24h-2.9c9.828,0,2.9,24,17.8,24Z" transform="translate(-44.659 -87.605)"/><path class="cls-5" d="M133.659,111.6c10.35,0,2.677-24,18.167-24l2.533.017c-9.828,0-3.3,23.983-17.8,23.983Z" transform="translate(-44.659 -87.605)"/><path class="cls-6" d="M136.559,111.6c-10.35,0-3.576-24-17.8-24h-2.9c9.828,0,2.9,24,17.8,24Z" transform="translate(-44.659 -87.605)"/></g></svg>