<svg id="Layer_1" data-name="Layer 1" xmlns="http://www.w3.org/2000/svg" xmlns:xlink="http://www.w3.org/1999/xlink" viewBox="0 0 54.374 22.869"><defs><style>.cls-1{fill:url(#linear-gradient);}.cls-2{fill:#004384;}.cls-3{font-size:12px;fill:#fff;font-family:Arial-BoldMT, Arial;font-weight:700;}</style><linearGradient id="linear-gradient" x1="27.411" y1="21.265" x2="27.411" y2="1.265" gradientUnits="userSpaceOnUse"><stop offset="0" stop-color="#ff9d00"/><stop offset="0.188" stop-color="#d48e16"/><stop offset="0.61" stop-color="#68684e"/><stop offset="1" stop-color="#004384"/></linearGradient></defs><title>PTPN6</title><g id="PTPN6"><rect class="cls-1" x="1.411" y="1.265" width="52" height="20" rx="10" ry="10"/><path class="cls-2" d="M115.03,107.417c-5.282-.009-10.565.43-15.847.837-5.282.458-10.565.546-15.847.613a11.488,11.488,0,0,1-8.282-3.25,11.371,11.371,0,0,1-3.434-8.175,11.111,11.111,0,0,1,3.438-8.025,10.844,10.844,0,0,1,7.972-2.971c5.282.282,10.565.437,15.847.335,5.282-.084,10.565-.574,15.847-.762a10.846,10.846,0,0,1,8.117,3.07,10.537,10.537,0,0,1,3.136,8.011,10.833,10.833,0,0,1-3.56,7.443A11.033,11.033,0,0,1,115.03,107.417Zm0-.3A9.043,9.043,0,0,0,121.87,104a9.135,9.135,0,0,0,2.2-6.874,9.545,9.545,0,0,0-9.343-8.613c-5.282-.188-10.565-.678-15.847-.762-5.282-.1-10.565.053-15.847.335a9.106,9.106,0,0,0-6.256,3.018A8.9,8.9,0,0,0,74.456,97.4a8.551,8.551,0,0,0,2.765,5.953,8.68,8.68,0,0,0,6.116,2.316c5.282.066,10.565.155,15.847.613C104.466,106.687,109.748,107.126,115.03,107.117Z" transform="translate(-71.62 -86.001)"/><text class="cls-3" transform="translate(8.072 14.154)">PTPN6</text></g></svg>