<svg id="Layer_1" data-name="Layer 1" xmlns="http://www.w3.org/2000/svg" xmlns:xlink="http://www.w3.org/1999/xlink" viewBox="0 0 67.107 22.945"><defs><style>.cls-1{fill:url(#linear-gradient);}.cls-2{fill:#6e1643;}.cls-3{font-size:12px;fill:#fff;font-family:Arial-BoldMT, Arial;font-weight:700;}</style><linearGradient id="linear-gradient" x1="33.852" y1="21.345" x2="33.852" y2="1.345" gradientUnits="userSpaceOnUse"><stop offset="0" stop-color="#6e1643"/><stop offset="1" stop-color="#e68561"/></linearGradient></defs><title>R-ICO-013732</title><g id="R-ICO-013732"><rect class="cls-1" x="1.352" y="1.345" width="65" height="20" rx="10"/><path class="cls-2" d="M122.5,110.15c-6.366-.009-12.731.43-19.1.837-6.366.458-12.731.547-19.1.613H79.532c-.821-.01-1.536.016-2.443-.023a8.131,8.131,0,0,1-1.375-.145,9.565,9.565,0,0,1-1.347-.312,11.546,11.546,0,0,1-7.609-7.31,11.079,11.079,0,0,1,1.618-10.257A10.914,10.914,0,0,1,77.5,89.179c6.366.261,12.731.449,19.1.335,3.183-.05,6.366-.194,9.548-.349l9.549-.414c1.591-.032,3.183-.093,4.774-.087.817,0,1.544-.027,2.435.007a7.514,7.514,0,0,1,1.346.139,9.315,9.315,0,0,1,1.317.306,10.71,10.71,0,0,1,5.4,16.865A10.82,10.82,0,0,1,122.5,110.15Zm0-.3a9.785,9.785,0,0,0,4.5-1.164,9.349,9.349,0,0,0,3.343-3.15,9.184,9.184,0,0,0,.687-8.554,9.466,9.466,0,0,0-6.179-5.328,8.956,8.956,0,0,0-2.04-.289c-.7-.039-1.565-.018-2.339-.029-1.591.006-3.183-.055-4.774-.087l-9.549-.414c-3.182-.155-6.365-.3-9.548-.349-6.366-.114-12.731.074-19.1.335a9.25,9.25,0,0,0-4.118,1.218,9.524,9.524,0,0,0-3.064,2.891,8.793,8.793,0,0,0-.9,7.93,8.571,8.571,0,0,0,5.8,5.251,8.347,8.347,0,0,0,1.982.277c.681.033,1.56.007,2.33.013h4.774c6.366.066,12.731.155,19.1.613C109.769,109.42,116.134,109.859,122.5,109.85Z" transform="translate(-66.148 -88.655)"/><text class="cls-3" transform="translate(5.853 14.233)">PROFILIN</text></g></svg>