<svg id="Layer_1" data-name="Layer 1" xmlns="http://www.w3.org/2000/svg" xmlns:xlink="http://www.w3.org/1999/xlink" viewBox="0 0 58.095 19.871"><defs><style>.cls-1{fill:url(#linear-gradient);}.cls-2{fill:#f03eff;}.cls-3{font-size:12px;fill:#fff;font-family:Arial-BoldMT, Arial;font-weight:700;}</style><linearGradient id="linear-gradient" x1="29.351" y1="18.271" x2="29.351" y2="1.348" gradientUnits="userSpaceOnUse"><stop offset="0" stop-color="#64008f"/><stop offset="1" stop-color="#f03eff"/></linearGradient></defs><title>ACTIVIN</title><g id="ACTIVIN"><rect class="cls-1" x="1.351" y="1.348" width="56" height="16.923" rx="8.462" ry="8.462"/><path class="cls-2" d="M119.538,108.612c-5.47-.009-10.939.43-16.409.837-5.47.458-10.939.546-16.409.613h-4.1l-2.051,0a10.066,10.066,0,0,1-2.392-.3,9.953,9.953,0,0,1-6.913-6.183,9.711,9.711,0,0,1-.522-4.7,9.422,9.422,0,0,1,9.72-8.16c5.47.282,10.939.437,16.409.335,5.47-.084,10.939-.574,16.409-.762,1.367-.033,2.735-.093,4.1-.087l2.051-.012a9.673,9.673,0,0,1,2.337.285,9.281,9.281,0,0,1,6.536,6.12,9.18,9.18,0,0,1,.285,4.45,9.269,9.269,0,0,1-9.053,7.566Zm0-.3a7.769,7.769,0,0,0,6.657-3.757,7.637,7.637,0,0,0,.332-7.263,7.781,7.781,0,0,0-5.366-4.228,8.258,8.258,0,0,0-.85-.139l-.878-.039-2.051-.012c-1.367.006-2.735-.055-4.1-.087-5.47-.188-10.939-.678-16.409-.762-5.47-.1-10.939.053-16.409.335A7.726,7.726,0,0,0,77,93.427a7.936,7.936,0,0,0-2.521,2.482,7.257,7.257,0,0,0-.576,6.63,7.08,7.08,0,0,0,4.99,4.165,8.023,8.023,0,0,0,.822.13l.852.032,2.051,0h4.1c5.47.066,10.939.155,16.409.613C108.6,107.882,114.069,108.32,119.538,108.312Z" transform="translate(-70.649 -90.191)"/><text class="cls-3" transform="translate(5.468 12.695)">ACTIVIN</text></g></svg>