<svg id="Layer_1" data-name="Layer 1" xmlns="http://www.w3.org/2000/svg" xmlns:xlink="http://www.w3.org/1999/xlink" viewBox="0 0 43.293 56.294"><defs><style>.cls-1{fill:url(#linear-gradient);}.cls-2{fill:#d7b532;}</style><linearGradient id="linear-gradient" x1="271.793" y1="652.341" x2="271.793" y2="602.401" gradientTransform="translate(369.139 728.601) rotate(-179.746)" gradientUnits="userSpaceOnUse"><stop offset="0" stop-color="#d28ab5"/><stop offset="0.094" stop-color="#c46f93"/><stop offset="0.214" stop-color="#b5516d"/><stop offset="0.326" stop-color="#aa3c52"/><stop offset="0.425" stop-color="#a32f42"/><stop offset="0.5" stop-color="#a12a3c"/><stop offset="0.575" stop-color="#a32f42"/><stop offset="0.674" stop-color="#aa3c52"/><stop offset="0.786" stop-color="#b5516d"/><stop offset="0.906" stop-color="#c46f93"/><stop offset="1" stop-color="#d28ab5"/></linearGradient></defs><title>Uniporter</title><g id="Uniporter"><path class="cls-1" d="M100,125.011c-6.78-.03-19.288,3.136-19.288,3.136,14.424.064,14.549-28.079,14.549-28.079s.125-28.147-14.3-28.211c0,0,12.294,3.254,19.039,3.284,6.744-.03,19.039-3.284,19.039-3.284-14.424.064-14.3,28.211-14.3,28.211s.125,28.143,14.549,28.079C119.288,128.147,106.78,124.981,100,125.011Z" transform="translate(-78.354 -71.853)"/><path class="cls-2" d="M108.027,100.049c.1,21.861,9.831,18.974,11.219,18.968s2.325,1.48,2.341,5.008c.012,2.819-.489,4.11-2.3,4.118-14.424.064-14.549-28.079-14.549-28.079s-.125-28.147,14.3-28.211c1.81-.008,2.6,1.343,2.609,4.092s-1.18,5.031-2.568,5.037S107.93,78.188,108.027,100.049Z" transform="translate(-78.354 -71.853)"/><path class="cls-2" d="M91.973,100.049c-.1,21.861-9.831,18.974-11.219,18.968s-2.325,1.48-2.341,5.008c-.012,2.819.489,4.11,2.3,4.118,14.424.064,14.549-28.079,14.549-28.079s.125-28.147-14.3-28.211c-1.81-.008-2.6,1.343-2.609,4.092s1.18,5.031,2.568,5.037S92.07,78.188,91.973,100.049Z" transform="translate(-78.354 -71.853)"/></g></svg>