<svg id="Layer_1" data-name="Layer 1" xmlns="http://www.w3.org/2000/svg" xmlns:xlink="http://www.w3.org/1999/xlink" viewBox="0 0 18.118 48.692"><defs><style>.cls-1{fill:url(#linear-gradient);}</style><linearGradient id="linear-gradient" x1="74.291" y1="98.12" x2="122.984" y2="98.12" gradientTransform="translate(0.517 196.758) rotate(-90)" gradientUnits="userSpaceOnUse"><stop offset="0" stop-color="#7300d4"/><stop offset="1" stop-color="#22003d"/></linearGradient></defs><title>podocin</title><g id="podocin"><path class="cls-1" d="M107.7,83.572v35.395a3.5,3.5,0,0,1-7,0V83.572a3.257,3.257,0,0,0-.7-2.3,1.743,1.743,0,0,0-1.248-.5c-.362,0-2.172.136-2.172,2.8a3.5,3.5,0,0,1-7,0c0-6.363,4.726-9.8,9.172-9.8a8.668,8.668,0,0,1,6.255,2.608A9.936,9.936,0,0,1,107.7,83.572Z" transform="translate(-89.578 -73.774)"/></g></svg>