<svg id="Layer_1" data-name="Layer 1" xmlns="http://www.w3.org/2000/svg" xmlns:xlink="http://www.w3.org/1999/xlink" viewBox="0 0 37.326 71.819"><defs><style>.cls-1{fill:url(#linear-gradient);}.cls-2{mask:url(#mask);}.cls-3{fill:#0a6029;}.cls-4{fill:url(#radial-gradient);}.cls-5{fill:url(#radial-gradient-2);}</style><linearGradient id="linear-gradient" x1="87.474" y1="133.609" x2="107.795" y2="57.315" gradientTransform="translate(-20.781 27.28) rotate(-14.407)" gradientUnits="userSpaceOnUse"><stop offset="0.759" stop-color="#fff"/><stop offset="0.96"/></linearGradient><mask id="mask" x="-6.15" y="-7.06" width="47.163" height="83.115" maskUnits="userSpaceOnUse"><g transform="translate(-80.1 -61.353)"><rect class="cls-1" x="83.265" y="56.608" width="28.533" height="78.484" transform="translate(26.915 -21.252) rotate(14.407)"/></g></mask><radialGradient id="radial-gradient" cx="92.731" cy="113.8" fx="101.4034013848594" r="17.403" gradientTransform="matrix(1, 0.025, -0.014, 0.575, 2.201, 45.565)" gradientUnits="userSpaceOnUse"><stop offset="0" stop-color="#49bf74"/><stop offset="0.147" stop-color="#48bd72" stop-opacity="0.979"/><stop offset="0.292" stop-color="#44b76e" stop-opacity="0.917"/><stop offset="0.437" stop-color="#3dad66" stop-opacity="0.814"/><stop offset="0.58" stop-color="#349f5b" stop-opacity="0.668"/><stop offset="0.724" stop-color="#288e4d" stop-opacity="0.481"/><stop offset="0.865" stop-color="#1a783c" stop-opacity="0.255"/><stop offset="1" stop-color="#0a6029" stop-opacity="0"/></radialGradient><radialGradient id="radial-gradient-2" cx="66.759" cy="105.438" r="11.549" gradientTransform="matrix(1.427, 0.17, -0.094, 0.51, 14.341, 29.206)" gradientUnits="userSpaceOnUse"><stop offset="0" stop-color="#49bf74"/><stop offset="0.109" stop-color="#47bd72" stop-opacity="0.966"/><stop offset="0.262" stop-color="#41b76c" stop-opacity="0.871"/><stop offset="0.44" stop-color="#38ad63" stop-opacity="0.715"/><stop offset="0.637" stop-color="#2b9f55" stop-opacity="0.498"/><stop offset="0.848" stop-color="#1b8e45" stop-opacity="0.223"/><stop offset="1" stop-color="#0e8037" stop-opacity="0"/></radialGradient></defs><title>GALLBLADDER</title><g class="cls-2"><g id="GALLBLADDER"><path class="cls-3" d="M115.984,61.37h0a1.044,1.044,0,0,0-.857,1.157,15.832,15.832,0,0,1-.571,7.633.938.938,0,0,1-.316.432,11.054,11.054,0,0,1-6.732,1.365,3.6,3.6,0,0,0-2.988.592c-1.176.863-1.685,1.222-2.23,3.818-.085.405-1.29,2.286-2.229,2.462-3.985.75-6.609,8.082-7.976,11.694-.616,1.627-1.532,5.267-2.372,7.029-2.216,4.653-8.026,10.947-9.108,18.5-1.776,12.394,1.164,15.5,8.091,16.934s14.266-5.34,16.8-17.6a37.838,37.838,0,0,0,.792-8.936,22.427,22.427,0,0,1,1.393-8.348,25.464,25.464,0,0,0,.962-3.432c1.5-7.25.728-13.745-3.128-15.231-1.079-.416-1.3-2.09-1.186-2.569.5-2.165.913-2.238,1.433-2.619a1.527,1.527,0,0,1,1.308-.229c2.913.615,8.42-.771,9.314-2.781a17.547,17.547,0,0,0,.824-8.994A1.046,1.046,0,0,0,115.984,61.37Z" transform="translate(-80.1 -61.353)"/><ellipse class="cls-4" cx="93.315" cy="113.946" rx="18.367" ry="11.586" transform="translate(-123.167 108.192) rotate(-72.864)"/><ellipse class="cls-5" cx="100.166" cy="94.417" rx="15.011" ry="7.615" transform="translate(-92.867 111.764) rotate(-78.179)"/></g></g></svg>