<svg id="Layer_1" data-name="Layer 1" xmlns="http://www.w3.org/2000/svg" xmlns:xlink="http://www.w3.org/1999/xlink" viewBox="0 0 147.626 164.354"><defs><style>.cls-1,.cls-117,.cls-118,.cls-3,.cls-37,.cls-38,.cls-41,.cls-43,.cls-82,.cls-84,.cls-85,.cls-87{stroke:#60112e;}.cls-1,.cls-119,.cls-120,.cls-3,.cls-36,.cls-38,.cls-40,.cls-42,.cls-43,.cls-44,.cls-82,.cls-83,.cls-84,.cls-86,.cls-87,.cls-88{stroke-miterlimit:10;}.cls-1{fill:url(#linear-gradient);}.cls-119,.cls-120,.cls-2,.cls-36,.cls-39,.cls-4,.cls-40,.cls-42,.cls-44,.cls-81,.cls-83,.cls-86,.cls-88{stroke:#0f4849;}.cls-117,.cls-118,.cls-2,.cls-37,.cls-39,.cls-4,.cls-41,.cls-81,.cls-85{stroke-linecap:round;stroke-linejoin:round;}.cls-2{fill:url(#linear-gradient-2);}.cls-3{fill:url(#linear-gradient-3);}.cls-4{fill:url(#linear-gradient-4);}.cls-5{opacity:0.75;}.cls-6{fill:url(#linear-gradient-5);}.cls-7{fill:url(#linear-gradient-6);}.cls-8{fill:url(#linear-gradient-7);}.cls-9{fill:url(#linear-gradient-8);}.cls-10{fill:url(#linear-gradient-9);}.cls-11{fill:url(#linear-gradient-10);}.cls-12{fill:url(#linear-gradient-11);}.cls-13{fill:url(#linear-gradient-12);}.cls-14{fill:url(#linear-gradient-13);}.cls-15{fill:url(#linear-gradient-14);}.cls-16{fill:url(#linear-gradient-15);}.cls-17{fill:url(#linear-gradient-16);}.cls-18{fill:url(#linear-gradient-17);}.cls-19{fill:url(#linear-gradient-18);}.cls-20{fill:url(#linear-gradient-19);}.cls-21{fill:url(#linear-gradient-20);}.cls-22{fill:url(#linear-gradient-21);}.cls-23{fill:url(#linear-gradient-22);}.cls-24{fill:url(#linear-gradient-23);}.cls-25{fill:url(#linear-gradient-24);}.cls-26{fill:url(#linear-gradient-25);}.cls-27{fill:url(#linear-gradient-26);}.cls-28{fill:url(#linear-gradient-27);}.cls-29{fill:url(#linear-gradient-28);}.cls-30{fill:url(#linear-gradient-29);}.cls-31{fill:url(#linear-gradient-30);}.cls-32{fill:url(#linear-gradient-31);}.cls-33{fill:url(#linear-gradient-32);}.cls-34{fill:url(#linear-gradient-33);}.cls-35{fill:url(#linear-gradient-34);}.cls-36{fill:url(#linear-gradient-35);}.cls-37{fill:url(#linear-gradient-36);}.cls-38{fill:url(#linear-gradient-37);}.cls-39,.cls-40,.cls-85{fill:none;}.cls-41{fill:url(#linear-gradient-38);}.cls-42{fill:url(#linear-gradient-39);}.cls-43{fill:url(#linear-gradient-40);}.cls-44{fill:url(#linear-gradient-41);}.cls-45{fill:url(#linear-gradient-42);}.cls-46{fill:url(#linear-gradient-43);}.cls-47{fill:url(#linear-gradient-44);}.cls-48{fill:url(#linear-gradient-45);}.cls-49{fill:url(#linear-gradient-46);}.cls-50{fill:url(#linear-gradient-47);}.cls-51{fill:url(#linear-gradient-48);}.cls-52{fill:url(#linear-gradient-49);}.cls-53{fill:url(#linear-gradient-50);}.cls-54{fill:url(#linear-gradient-51);}.cls-55{fill:url(#linear-gradient-52);}.cls-56{fill:url(#linear-gradient-53);}.cls-57{fill:url(#linear-gradient-54);}.cls-58{fill:url(#linear-gradient-55);}.cls-59{fill:url(#linear-gradient-56);}.cls-60{fill:url(#linear-gradient-57);}.cls-61{fill:url(#linear-gradient-58);}.cls-62{fill:url(#linear-gradient-59);}.cls-63{fill:url(#linear-gradient-60);}.cls-64{fill:url(#linear-gradient-61);}.cls-65{fill:url(#linear-gradient-62);}.cls-66{fill:url(#linear-gradient-63);}.cls-67{fill:url(#linear-gradient-64);}.cls-68{fill:url(#linear-gradient-65);}.cls-69{fill:url(#linear-gradient-66);}.cls-70{fill:url(#linear-gradient-67);}.cls-71{fill:url(#linear-gradient-68);}.cls-72{fill:url(#linear-gradient-69);}.cls-73{fill:url(#linear-gradient-70);}.cls-74{fill:url(#linear-gradient-71);}.cls-75{fill:url(#linear-gradient-72);}.cls-76{fill:url(#linear-gradient-73);}.cls-77{fill:url(#linear-gradient-74);}.cls-78{fill:url(#linear-gradient-75);}.cls-79{fill:url(#linear-gradient-76);}.cls-80{fill:url(#linear-gradient-77);}.cls-81{fill:url(#linear-gradient-78);}.cls-82{fill:url(#linear-gradient-79);}.cls-83{fill:url(#linear-gradient-80);}.cls-84{fill:url(#linear-gradient-81);}.cls-86{fill:url(#linear-gradient-82);}.cls-87{fill:url(#linear-gradient-83);}.cls-88{fill:url(#linear-gradient-84);}.cls-89{fill:url(#linear-gradient-85);}.cls-90{fill:url(#linear-gradient-86);}.cls-91{fill:url(#linear-gradient-87);}.cls-92{fill:url(#linear-gradient-88);}.cls-93{fill:url(#linear-gradient-89);}.cls-94{fill:url(#linear-gradient-90);}.cls-95{fill:url(#linear-gradient-91);}.cls-96{fill:url(#linear-gradient-92);}.cls-97{fill:url(#linear-gradient-93);}.cls-98{fill:url(#linear-gradient-94);}.cls-99{fill:url(#linear-gradient-95);}.cls-100{fill:url(#linear-gradient-96);}.cls-101{fill:url(#linear-gradient-97);}.cls-102{fill:url(#linear-gradient-98);}.cls-103{fill:url(#linear-gradient-99);}.cls-104{fill:url(#linear-gradient-100);}.cls-105{fill:url(#linear-gradient-101);}.cls-106{fill:url(#linear-gradient-102);}.cls-107{fill:url(#linear-gradient-103);}.cls-108{fill:url(#linear-gradient-104);}.cls-109{fill:url(#linear-gradient-105);}.cls-110{fill:url(#linear-gradient-106);}.cls-111{fill:url(#linear-gradient-107);}.cls-112{fill:url(#linear-gradient-108);}.cls-113{fill:url(#linear-gradient-109);}.cls-114{fill:url(#linear-gradient-110);}.cls-115{fill:url(#linear-gradient-111);}.cls-116{fill:url(#linear-gradient-112);}.cls-117{fill:url(#linear-gradient-113);}.cls-118{fill:url(#linear-gradient-114);}.cls-119{fill:url(#linear-gradient-115);}.cls-120{fill:url(#linear-gradient-116);}</style><linearGradient id="linear-gradient" x1="168.775" y1="171.186" x2="168.775" y2="141.675" gradientTransform="translate(-140.855 125.412) rotate(-45)" gradientUnits="userSpaceOnUse"><stop offset="0" stop-color="#24040e"/><stop offset="0.113" stop-color="#a20e40"/><stop offset="0.273" stop-color="#a23e60"/><stop offset="0.602" stop-color="#a20e40"/><stop offset="1" stop-color="#24040e"/></linearGradient><linearGradient id="linear-gradient-2" x1="150.878" y1="171.201" x2="150.878" y2="131.072" gradientTransform="translate(-140.855 125.412) rotate(-45)" gradientUnits="userSpaceOnUse"><stop offset="0" stop-color="#042224"/><stop offset="0.094" stop-color="#0e98a2"/><stop offset="0.119" stop-color="#1598a2"/><stop offset="0.154" stop-color="#279aa2"/><stop offset="0.196" stop-color="#469ba2"/><stop offset="0.242" stop-color="#709ea2"/><stop offset="0.273" stop-color="#90a0a2"/><stop offset="0.311" stop-color="#8da0a2"/><stop offset="0.338" stop-color="#849fa2"/><stop offset="0.361" stop-color="#759ea2"/><stop offset="0.382" stop-color="#5f9da2"/><stop offset="0.401" stop-color="#439ba2"/><stop offset="0.419" stop-color="#2199a2"/><stop offset="0.428" stop-color="#0e98a2"/><stop offset="1" stop-color="#042224"/></linearGradient><linearGradient id="linear-gradient-3" x1="127.382" y1="171.183" x2="127.382" y2="143.304" xlink:href="#linear-gradient"/><linearGradient id="linear-gradient-4" x1="106.458" y1="171.183" x2="106.458" y2="143.304" xlink:href="#linear-gradient-2"/><linearGradient id="linear-gradient-5" x1="68.502" y1="-286.018" x2="68.502" y2="-283.141" gradientTransform="translate(-162.589 282.308) rotate(45)" gradientUnits="userSpaceOnUse"><stop offset="0" stop-color="#d89355"/><stop offset="1" stop-color="#541107"/></linearGradient><linearGradient id="linear-gradient-6" x1="68.3" y1="-267.171" x2="68.3" y2="-264.293" gradientTransform="translate(-162.589 282.308) rotate(45)" gradientUnits="userSpaceOnUse"><stop offset="0" stop-color="#5b9b54"/><stop offset="1" stop-color="#042224"/></linearGradient><linearGradient id="linear-gradient-7" x1="54.354" y1="-267.171" x2="54.354" y2="-264.293" xlink:href="#linear-gradient-5"/><linearGradient id="linear-gradient-8" x1="68.288" y1="-243.661" x2="68.288" y2="-240.782" xlink:href="#linear-gradient-6"/><linearGradient id="linear-gradient-9" x1="191.092" y1="-136.418" x2="191.092" y2="-133.54" gradientTransform="translate(-159.369 143.329) rotate(27.022)" xlink:href="#linear-gradient-6"/><linearGradient id="linear-gradient-10" x1="54.354" y1="-243.661" x2="54.354" y2="-240.782" xlink:href="#linear-gradient-5"/><linearGradient id="linear-gradient-11" x1="68.288" y1="-224.877" x2="68.288" y2="-221.999" xlink:href="#linear-gradient-6"/><linearGradient id="linear-gradient-12" x1="54.354" y1="-224.877" x2="54.354" y2="-221.999" xlink:href="#linear-gradient-5"/><linearGradient id="linear-gradient-13" x1="67.086" y1="-281.316" x2="67.086" y2="-278.439" xlink:href="#linear-gradient-6"/><linearGradient id="linear-gradient-14" x1="65.951" y1="-276.508" x2="65.951" y2="-273.631" xlink:href="#linear-gradient-6"/><linearGradient id="linear-gradient-15" x1="55.77" y1="-271.806" x2="55.77" y2="-268.928" xlink:href="#linear-gradient-6"/><linearGradient id="linear-gradient-16" x1="67.258" y1="-271.806" x2="67.258" y2="-268.928" xlink:href="#linear-gradient-5"/><linearGradient id="linear-gradient-17" x1="56.691" y1="-276.508" x2="56.691" y2="-273.631" xlink:href="#linear-gradient-5"/><linearGradient id="linear-gradient-18" x1="107.255" y1="-334.114" x2="107.255" y2="-331.236" gradientTransform="translate(-168.706 357.975) rotate(30)" xlink:href="#linear-gradient-6"/><linearGradient id="linear-gradient-19" x1="388.452" y1="-352.8" x2="388.452" y2="-349.923" gradientTransform="translate(-50.84 622.153) rotate(-30)" xlink:href="#linear-gradient-5"/><linearGradient id="linear-gradient-20" x1="67.3" y1="-262.469" x2="67.3" y2="-259.591" xlink:href="#linear-gradient-5"/><linearGradient id="linear-gradient-21" x1="55.77" y1="-262.469" x2="55.77" y2="-259.591" xlink:href="#linear-gradient-6"/><linearGradient id="linear-gradient-22" x1="376.749" y1="130.227" x2="374.715" y2="132.262" gradientTransform="translate(-310.364 16.677)" xlink:href="#linear-gradient-5"/><linearGradient id="linear-gradient-23" x1="67.086" y1="-248.362" x2="67.086" y2="-245.485" xlink:href="#linear-gradient-6"/><linearGradient id="linear-gradient-24" x1="110.371" y1="-229.761" x2="110.371" y2="-226.884" gradientTransform="matrix(0.785, 0.619, -0.619, 0.785, -156.568, 230.119)" xlink:href="#linear-gradient-5"/><linearGradient id="linear-gradient-25" x1="65.951" y1="-253.064" x2="65.951" y2="-250.187" xlink:href="#linear-gradient-6"/><linearGradient id="linear-gradient-26" x1="56.905" y1="-257.654" x2="56.905" y2="-254.776" xlink:href="#linear-gradient-6"/><linearGradient id="linear-gradient-27" x1="366.806" y1="126.774" x2="364.771" y2="128.809" gradientTransform="translate(-310.364 16.677)" xlink:href="#linear-gradient-5"/><linearGradient id="linear-gradient-28" x1="67.086" y1="-238.959" x2="67.086" y2="-236.08" xlink:href="#linear-gradient-6"/><linearGradient id="linear-gradient-29" x1="55.556" y1="-238.959" x2="55.556" y2="-236.08" xlink:href="#linear-gradient-5"/><linearGradient id="linear-gradient-30" x1="65.951" y1="-234.378" x2="65.951" y2="-231.501" xlink:href="#linear-gradient-6"/><linearGradient id="linear-gradient-31" x1="56.691" y1="-234.378" x2="56.691" y2="-231.501" xlink:href="#linear-gradient-5"/><linearGradient id="linear-gradient-32" x1="55.77" y1="-229.554" x2="55.77" y2="-226.676" xlink:href="#linear-gradient-6"/><linearGradient id="linear-gradient-33" x1="67.3" y1="-229.554" x2="67.3" y2="-226.676" xlink:href="#linear-gradient-5"/><linearGradient id="linear-gradient-34" x1="55.556" y1="-248.362" x2="55.556" y2="-245.485" xlink:href="#linear-gradient-5"/><linearGradient id="linear-gradient-35" x1="-646.871" y1="-147.792" x2="-646.871" y2="-175.912" gradientTransform="translate(-511.655 489.28) rotate(135)" gradientUnits="userSpaceOnUse"><stop offset="0" stop-color="#0d6a71"/><stop offset="0.092" stop-color="#1398a2"/><stop offset="0.25" stop-color="#90a0a2"/><stop offset="0.587" stop-color="#0e98a2"/><stop offset="0.653" stop-color="#0c8189"/><stop offset="0.814" stop-color="#084e53"/><stop offset="0.935" stop-color="#052e31"/><stop offset="1" stop-color="#042224"/></linearGradient><linearGradient id="linear-gradient-36" x1="-625.947" y1="-147.792" x2="-625.947" y2="-175.912" gradientTransform="translate(-511.655 489.28) rotate(135)" gradientUnits="userSpaceOnUse"><stop offset="0" stop-color="#a21343"/><stop offset="0.25" stop-color="#a2687b"/><stop offset="0.769" stop-color="#a20e40"/></linearGradient><linearGradient id="linear-gradient-37" x1="-667.796" y1="-147.792" x2="-667.796" y2="-175.912" xlink:href="#linear-gradient-36"/><linearGradient id="linear-gradient-38" x1="-151.659" y1="567.096" x2="-151.659" y2="539.216" gradientTransform="translate(-453.416 -121.734) rotate(-90)" xlink:href="#linear-gradient"/><linearGradient id="linear-gradient-39" x1="-172.583" y1="567.096" x2="-172.583" y2="539.216" gradientTransform="translate(-453.416 -121.734) rotate(-90)" xlink:href="#linear-gradient-2"/><linearGradient id="linear-gradient-40" x1="-193.507" y1="567.096" x2="-193.507" y2="539.216" gradientTransform="translate(-453.416 -121.734) rotate(-90)" xlink:href="#linear-gradient"/><linearGradient id="linear-gradient-41" x1="-212.905" y1="568.512" x2="-212.905" y2="539.235" gradientTransform="translate(-453.416 -121.734) rotate(-90)" xlink:href="#linear-gradient-2"/><linearGradient id="linear-gradient-42" x1="403.943" y1="39.673" x2="403.943" y2="42.551" gradientTransform="translate(-310.364 16.677)" xlink:href="#linear-gradient-5"/><linearGradient id="linear-gradient-43" x1="416.889" y1="2.017" x2="416.889" y2="4.895" gradientTransform="translate(-310.364 16.677)" xlink:href="#linear-gradient-5"/><linearGradient id="linear-gradient-44" x1="416.686" y1="20.865" x2="416.686" y2="23.743" gradientTransform="translate(-310.364 16.677)" xlink:href="#linear-gradient-6"/><linearGradient id="linear-gradient-45" x1="402.74" y1="20.865" x2="402.74" y2="23.743" gradientTransform="translate(-310.364 16.677)" xlink:href="#linear-gradient-5"/><linearGradient id="linear-gradient-46" x1="416.675" y1="44.375" x2="416.675" y2="47.253" gradientTransform="translate(-310.364 16.677)" xlink:href="#linear-gradient-6"/><linearGradient id="linear-gradient-47" x1="402.943" y1="2.017" x2="402.943" y2="4.895" gradientTransform="translate(-310.364 16.677)" xlink:href="#linear-gradient-6"/><linearGradient id="linear-gradient-48" x1="402.74" y1="44.375" x2="402.74" y2="47.253" gradientTransform="translate(-310.364 16.677)" xlink:href="#linear-gradient-5"/><linearGradient id="linear-gradient-49" x1="416.675" y1="63.158" x2="416.675" y2="66.036" gradientTransform="translate(-310.364 16.677)" xlink:href="#linear-gradient-6"/><linearGradient id="linear-gradient-50" x1="402.74" y1="63.158" x2="402.74" y2="66.036" gradientTransform="translate(-310.364 16.677)" xlink:href="#linear-gradient-5"/><linearGradient id="linear-gradient-51" x1="402.954" y1="67.86" x2="402.954" y2="70.738" gradientTransform="translate(-310.364 16.677)" xlink:href="#linear-gradient-6"/><linearGradient id="linear-gradient-52" x1="416.889" y1="67.86" x2="416.889" y2="70.738" gradientTransform="translate(-310.364 16.677)" xlink:href="#linear-gradient-5"/><linearGradient id="linear-gradient-53" x1="402.943" y1="81.967" x2="402.943" y2="84.845" gradientTransform="translate(-310.364 16.677)" xlink:href="#linear-gradient-6"/><linearGradient id="linear-gradient-54" x1="416.889" y1="81.967" x2="416.889" y2="84.845" gradientTransform="translate(-310.364 16.677)" xlink:href="#linear-gradient-5"/><linearGradient id="linear-gradient-55" x1="415.473" y1="6.719" x2="415.473" y2="9.597" gradientTransform="translate(-310.364 16.677)" xlink:href="#linear-gradient-6"/><linearGradient id="linear-gradient-56" x1="414.338" y1="11.527" x2="414.338" y2="14.405" gradientTransform="translate(-310.364 16.677)" xlink:href="#linear-gradient-6"/><linearGradient id="linear-gradient-57" x1="404.156" y1="16.229" x2="404.156" y2="19.107" gradientTransform="translate(-310.364 16.677)" xlink:href="#linear-gradient-6"/><linearGradient id="linear-gradient-58" x1="415.645" y1="16.229" x2="415.645" y2="19.107" gradientTransform="translate(-310.364 16.677)" xlink:href="#linear-gradient-5"/><linearGradient id="linear-gradient-59" x1="405.078" y1="11.527" x2="405.078" y2="14.405" gradientTransform="translate(-310.364 16.677)" xlink:href="#linear-gradient-5"/><linearGradient id="linear-gradient-60" x1="415.686" y1="25.567" x2="415.686" y2="28.445" gradientTransform="translate(-310.364 16.677)" xlink:href="#linear-gradient-5"/><linearGradient id="linear-gradient-61" x1="404.156" y1="25.567" x2="404.156" y2="28.445" gradientTransform="translate(-310.364 16.677)" xlink:href="#linear-gradient-6"/><linearGradient id="linear-gradient-62" x1="414.551" y1="30.382" x2="414.551" y2="33.259" gradientTransform="translate(-310.364 16.677)" xlink:href="#linear-gradient-5"/><linearGradient id="linear-gradient-63" x1="415.473" y1="39.673" x2="415.473" y2="42.551" gradientTransform="translate(-310.364 16.677)" xlink:href="#linear-gradient-6"/><linearGradient id="linear-gradient-64" x1="403.943" y1="6.719" x2="403.943" y2="9.597" gradientTransform="translate(-310.364 16.677)" xlink:href="#linear-gradient-5"/><linearGradient id="linear-gradient-65" x1="414.338" y1="34.971" x2="414.338" y2="37.849" gradientTransform="translate(-310.364 16.677)" xlink:href="#linear-gradient-6"/><linearGradient id="linear-gradient-66" x1="405.291" y1="30.382" x2="405.291" y2="33.259" gradientTransform="translate(-310.364 16.677)" xlink:href="#linear-gradient-6"/><linearGradient id="linear-gradient-67" x1="405.078" y1="34.971" x2="405.078" y2="37.849" gradientTransform="translate(-310.364 16.677)" xlink:href="#linear-gradient-5"/><linearGradient id="linear-gradient-68" x1="415.473" y1="49.077" x2="415.473" y2="51.955" gradientTransform="translate(-310.364 16.677)" xlink:href="#linear-gradient-6"/><linearGradient id="linear-gradient-69" x1="403.943" y1="49.077" x2="403.943" y2="51.955" gradientTransform="translate(-310.364 16.677)" xlink:href="#linear-gradient-5"/><linearGradient id="linear-gradient-70" x1="414.338" y1="53.657" x2="414.338" y2="56.535" gradientTransform="translate(-310.364 16.677)" xlink:href="#linear-gradient-6"/><linearGradient id="linear-gradient-71" x1="405.078" y1="53.657" x2="405.078" y2="56.535" gradientTransform="translate(-310.364 16.677)" xlink:href="#linear-gradient-5"/><linearGradient id="linear-gradient-72" x1="404.156" y1="58.481" x2="404.156" y2="61.359" gradientTransform="translate(-310.364 16.677)" xlink:href="#linear-gradient-6"/><linearGradient id="linear-gradient-73" x1="415.686" y1="58.481" x2="415.686" y2="61.359" gradientTransform="translate(-310.364 16.677)" xlink:href="#linear-gradient-5"/><linearGradient id="linear-gradient-74" x1="404.156" y1="72.563" x2="404.156" y2="75.44" gradientTransform="translate(-310.364 16.677)" xlink:href="#linear-gradient-6"/><linearGradient id="linear-gradient-75" x1="415.686" y1="72.563" x2="415.686" y2="75.44" gradientTransform="translate(-310.364 16.677)" xlink:href="#linear-gradient-5"/><linearGradient id="linear-gradient-76" x1="405.292" y1="77.221" x2="405.292" y2="80.099" gradientTransform="translate(-310.364 16.677)" xlink:href="#linear-gradient-6"/><linearGradient id="linear-gradient-77" x1="414.551" y1="77.221" x2="414.551" y2="80.099" gradientTransform="translate(-310.364 16.677)" xlink:href="#linear-gradient-5"/><linearGradient id="linear-gradient-78" x1="-367.831" y1="-543.705" x2="-367.831" y2="-571.824" gradientTransform="translate(-458.317 397.755) rotate(90)" xlink:href="#linear-gradient-35"/><linearGradient id="linear-gradient-79" x1="-346.906" y1="-543.705" x2="-346.906" y2="-571.824" gradientTransform="translate(-458.317 397.755) rotate(90)" xlink:href="#linear-gradient-36"/><linearGradient id="linear-gradient-80" x1="-325.982" y1="-543.705" x2="-325.982" y2="-571.824" gradientTransform="translate(-458.317 397.755) rotate(90)" xlink:href="#linear-gradient-35"/><linearGradient id="linear-gradient-81" x1="-306.584" y1="-542.273" x2="-306.584" y2="-571.817" gradientTransform="translate(-458.317 397.755) rotate(90)" xlink:href="#linear-gradient-36"/><linearGradient id="linear-gradient-82" x1="-747.697" y1="407.381" x2="-747.697" y2="379.502" gradientTransform="translate(-681.259 -117.7) rotate(-135)" xlink:href="#linear-gradient-2"/><linearGradient id="linear-gradient-83" x1="-768.621" y1="407.381" x2="-768.621" y2="379.502" gradientTransform="translate(-681.259 -117.7) rotate(-135)" xlink:href="#linear-gradient"/><linearGradient id="linear-gradient-84" x1="-789.545" y1="407.381" x2="-789.545" y2="379.502" gradientTransform="translate(-681.259 -117.7) rotate(-135)" xlink:href="#linear-gradient-2"/><linearGradient id="linear-gradient-85" x1="-950.308" y1="734.146" x2="-950.308" y2="737.023" gradientTransform="matrix(-0.707, 0.707, 0.707, 0.707, -1078.939, 282.308)" xlink:href="#linear-gradient-5"/><linearGradient id="linear-gradient-86" x1="-950.51" y1="752.993" x2="-950.51" y2="755.871" gradientTransform="matrix(-0.707, 0.707, 0.707, 0.707, -1078.939, 282.308)" xlink:href="#linear-gradient-6"/><linearGradient id="linear-gradient-87" x1="-964.456" y1="752.993" x2="-964.456" y2="755.871" gradientTransform="matrix(-0.707, 0.707, 0.707, 0.707, -1078.939, 282.308)" xlink:href="#linear-gradient-5"/><linearGradient id="linear-gradient-88" x1="-950.521" y1="776.504" x2="-950.521" y2="779.382" gradientTransform="matrix(-0.707, 0.707, 0.707, 0.707, -1078.939, 282.308)" xlink:href="#linear-gradient-6"/><linearGradient id="linear-gradient-89" x1="-1092.845" y1="519.487" x2="-1092.845" y2="522.365" gradientTransform="matrix(-0.891, 0.454, 0.454, 0.891, -1082.159, 143.329)" xlink:href="#linear-gradient-6"/><linearGradient id="linear-gradient-90" x1="-964.456" y1="776.504" x2="-964.456" y2="779.382" gradientTransform="matrix(-0.707, 0.707, 0.707, 0.707, -1078.939, 282.308)" xlink:href="#linear-gradient-5"/><linearGradient id="linear-gradient-91" x1="-950.521" y1="795.287" x2="-950.521" y2="798.165" gradientTransform="matrix(-0.707, 0.707, 0.707, 0.707, -1078.939, 282.308)" xlink:href="#linear-gradient-6"/><linearGradient id="linear-gradient-92" x1="-964.456" y1="795.287" x2="-964.456" y2="798.165" gradientTransform="matrix(-0.707, 0.707, 0.707, 0.707, -1078.939, 282.308)" xlink:href="#linear-gradient-5"/><linearGradient id="linear-gradient-93" x1="-951.723" y1="738.848" x2="-951.723" y2="741.726" gradientTransform="matrix(-0.707, 0.707, 0.707, 0.707, -1078.939, 282.308)" xlink:href="#linear-gradient-6"/><linearGradient id="linear-gradient-94" x1="-952.859" y1="743.656" x2="-952.859" y2="746.534" gradientTransform="matrix(-0.707, 0.707, 0.707, 0.707, -1078.939, 282.308)" xlink:href="#linear-gradient-6"/><linearGradient id="linear-gradient-95" x1="-963.04" y1="748.358" x2="-963.04" y2="751.236" gradientTransform="matrix(-0.707, 0.707, 0.707, 0.707, -1078.939, 282.308)" xlink:href="#linear-gradient-6"/><linearGradient id="linear-gradient-96" x1="-951.551" y1="748.358" x2="-951.551" y2="751.236" gradientTransform="matrix(-0.707, 0.707, 0.707, 0.707, -1078.939, 282.308)" xlink:href="#linear-gradient-5"/><linearGradient id="linear-gradient-97" x1="-962.118" y1="743.656" x2="-962.118" y2="746.534" gradientTransform="matrix(-0.707, 0.707, 0.707, 0.707, -1078.939, 282.308)" xlink:href="#linear-gradient-5"/><linearGradient id="linear-gradient-98" x1="-951.51" y1="757.695" x2="-951.51" y2="760.573" gradientTransform="matrix(-0.707, 0.707, 0.707, 0.707, -1078.939, 282.308)" xlink:href="#linear-gradient-5"/><linearGradient id="linear-gradient-99" x1="-963.04" y1="757.695" x2="-963.04" y2="760.573" gradientTransform="matrix(-0.707, 0.707, 0.707, 0.707, -1078.939, 282.308)" xlink:href="#linear-gradient-6"/><linearGradient id="linear-gradient-100" x1="-1065.023" y1="131.185" x2="-1067.058" y2="133.22" gradientTransform="matrix(-1, 0, 0, 1, -931.164, 16.677)" xlink:href="#linear-gradient-5"/><linearGradient id="linear-gradient-101" x1="-951.723" y1="771.802" x2="-951.723" y2="774.68" gradientTransform="matrix(-0.707, 0.707, 0.707, 0.707, -1078.939, 282.308)" xlink:href="#linear-gradient-6"/><linearGradient id="linear-gradient-102" x1="-1021.278" y1="663.591" x2="-1021.278" y2="666.469" gradientTransform="matrix(-0.785, 0.619, 0.619, 0.785, -1084.96, 230.119)" xlink:href="#linear-gradient-5"/><linearGradient id="linear-gradient-103" x1="-952.859" y1="767.1" x2="-952.859" y2="769.978" gradientTransform="matrix(-0.707, 0.707, 0.707, 0.707, -1078.939, 282.308)" xlink:href="#linear-gradient-6"/><linearGradient id="linear-gradient-104" x1="-961.905" y1="762.51" x2="-961.905" y2="765.388" gradientTransform="matrix(-0.707, 0.707, 0.707, 0.707, -1078.939, 282.308)" xlink:href="#linear-gradient-6"/><linearGradient id="linear-gradient-105" x1="-1074.967" y1="127.732" x2="-1077.001" y2="129.767" gradientTransform="matrix(-1, 0, 0, 1, -931.164, 16.677)" xlink:href="#linear-gradient-5"/><linearGradient id="linear-gradient-106" x1="-951.723" y1="781.206" x2="-951.723" y2="784.084" gradientTransform="matrix(-0.707, 0.707, 0.707, 0.707, -1078.939, 282.308)" xlink:href="#linear-gradient-6"/><linearGradient id="linear-gradient-107" x1="-963.253" y1="781.206" x2="-963.253" y2="784.084" gradientTransform="matrix(-0.707, 0.707, 0.707, 0.707, -1078.939, 282.308)" xlink:href="#linear-gradient-5"/><linearGradient id="linear-gradient-108" x1="-952.859" y1="785.786" x2="-952.859" y2="788.664" gradientTransform="matrix(-0.707, 0.707, 0.707, 0.707, -1078.939, 282.308)" xlink:href="#linear-gradient-6"/><linearGradient id="linear-gradient-109" x1="-962.118" y1="785.786" x2="-962.118" y2="788.664" gradientTransform="matrix(-0.707, 0.707, 0.707, 0.707, -1078.939, 282.308)" xlink:href="#linear-gradient-5"/><linearGradient id="linear-gradient-110" x1="-963.04" y1="790.61" x2="-963.04" y2="793.488" gradientTransform="matrix(-0.707, 0.707, 0.707, 0.707, -1078.939, 282.308)" xlink:href="#linear-gradient-6"/><linearGradient id="linear-gradient-111" x1="-951.51" y1="790.61" x2="-951.51" y2="793.488" gradientTransform="matrix(-0.707, 0.707, 0.707, 0.707, -1078.939, 282.308)" xlink:href="#linear-gradient-5"/><linearGradient id="linear-gradient-112" x1="-963.253" y1="771.802" x2="-963.253" y2="774.68" gradientTransform="matrix(-0.707, 0.707, 0.707, 0.707, -1078.939, 282.308)" xlink:href="#linear-gradient-5"/><linearGradient id="linear-gradient-113" x1="270.056" y1="-383.99" x2="270.056" y2="-412.11" gradientTransform="translate(-317.39 253.1) rotate(45)" xlink:href="#linear-gradient-36"/><linearGradient id="linear-gradient-114" x1="225.111" y1="-383.972" x2="225.111" y2="-425.313" gradientTransform="translate(-317.39 253.1) rotate(45)" xlink:href="#linear-gradient-36"/><linearGradient id="linear-gradient-115" x1="249.132" y1="-383.99" x2="249.132" y2="-412.11" gradientTransform="translate(-317.39 253.1) rotate(45)" xlink:href="#linear-gradient-35"/><linearGradient id="linear-gradient-116" x1="206.721" y1="-383.988" x2="206.721" y2="-413.636" gradientTransform="translate(-317.39 253.1) rotate(45)" xlink:href="#linear-gradient-35"/></defs><title>DNA_replication</title><g id="REPLICATION"><g id="DNA"><path class="cls-1" d="M86.669,97.688c-6.8,10.785,19.535,22.7,6.659,35.574l-2.12,2.091c8.17-8.17-15.465-18.832-7.211-33.542Z" transform="translate(-26.386 -17.258)"/><path class="cls-2" d="M68.557,100.606c-8.6,8.6,22.851,34.576,9.975,47.452l-2.12,2.091c8.17-8.17-22.319-35.08-10.266-47.133Z" transform="translate(-26.386 -17.258)"/><path class="cls-3" d="M58.888,127.8c-8.6,8.6,17.724,22.174,4.848,35.05l-2.12,2.091c8.17-8.17-17.192-22.678-5.139-34.73Z" transform="translate(-26.386 -17.258)"/><path class="cls-4" d="M44.092,142.6c-8.6,8.6,17.724,22.174,4.848,35.05l-2.12,2.091c8.17-8.17-17.192-22.678-5.139-34.73Z" transform="translate(-26.386 -17.258)"/><g id="AMINOACIDS" class="cls-5"><path class="cls-6" d="M83.52,123.924l9.152,9.152a.62.62,0,0,1,0,.877l-1.157,1.157a.62.62,0,0,1-.877,0l-9.153-9.153a.62.62,0,0,1,.327-1.049l.136-.025a.62.62,0,0,0,.5-.5l.025-.135A.62.62,0,0,1,83.52,123.924Z" transform="translate(-26.386 -17.258)"/><path class="cls-7" d="M70.289,137.348l9.071,9.072a.62.62,0,0,1,0,.877L78.2,148.455a.62.62,0,0,1-.877,0l-9.071-9.072a.62.62,0,0,1-.172-.551l.179-.979a.62.62,0,0,1,.5-.5l.978-.179A.62.62,0,0,1,70.289,137.348Z" transform="translate(-26.386 -17.258)"/><path class="cls-8" d="M67.188,138.317,58.269,129.4a.62.62,0,0,1,0-.877l1.157-1.157a.62.62,0,0,1,.877,0l8.919,8.919a.62.62,0,0,1-.327,1.049l-.135.025a.62.62,0,0,0-.5.5l-.025.136A.62.62,0,0,1,67.188,138.317Z" transform="translate(-26.386 -17.258)"/><path class="cls-9" d="M53.664,153.972l9.056,9.056a.62.62,0,0,1,0,.877l-1.157,1.157a.62.62,0,0,1-.877,0l-9.056-9.056a.62.62,0,0,1-.172-.551l.18-.979a.62.62,0,0,1,.5-.5l.978-.179A.62.62,0,0,1,53.664,153.972Z" transform="translate(-26.386 -17.258)"/><path class="cls-10" d="M76.871,113.911l-11.167-5.7a.614.614,0,0,1-.259-.829l.744-1.458a.614.614,0,0,1,.823-.277l11.168,5.7a.6.6,0,0,1,.324.466l.121.981a.631.631,0,0,1-.32.628l-.865.478A.6.6,0,0,1,76.871,113.911Z" transform="translate(-26.386 -17.258)"/><path class="cls-11" d="M50.563,154.942l-8.919-8.919a.62.62,0,0,1,0-.877l1.157-1.157a.62.62,0,0,1,.877,0l8.919,8.919a.62.62,0,0,1-.327,1.049l-.136.025a.62.62,0,0,0-.5.5l-.025.137A.62.62,0,0,1,50.563,154.942Z" transform="translate(-26.386 -17.258)"/><path class="cls-12" d="M40.383,167.254l9.056,9.056a.62.62,0,0,1,0,.877l-1.157,1.157a.62.62,0,0,1-.877,0l-9.056-9.056a.62.62,0,0,1-.172-.551l.179-.978a.62.62,0,0,1,.5-.5l.978-.179A.62.62,0,0,1,40.383,167.254Z" transform="translate(-26.386 -17.258)"/><path class="cls-13" d="M37.282,168.223,28.362,159.3a.62.62,0,0,1,0-.877l1.157-1.157a.62.62,0,0,1,.877,0l8.919,8.919a.62.62,0,0,1-.327,1.049l-.136.025a.62.62,0,0,0-.5.5l-.025.136A.62.62,0,0,1,37.282,168.223Z" transform="translate(-26.386 -17.258)"/><path class="cls-14" d="M80.291,127.346l7.356,7.356a.62.62,0,0,1,0,.877l-1.157,1.157a.62.62,0,0,1-.877,0l-7.356-7.356a.62.62,0,0,1-.172-.551l.179-.978a.62.62,0,0,1,.5-.5l.978-.179A.62.62,0,0,1,80.291,127.346Z" transform="translate(-26.386 -17.258)"/><path class="cls-15" d="M76.891,130.746l5.75,5.75a.62.62,0,0,1,0,.877l-1.157,1.157a.62.62,0,0,1-.877,0l-5.75-5.75a.62.62,0,0,1-.172-.551l.179-.978a.62.62,0,0,1,.5-.5l.978-.179A.62.62,0,0,1,76.891,130.746Z" transform="translate(-26.386 -17.258)"/><path class="cls-16" d="M70.369,134.943l-7.122-7.121a.62.62,0,0,1,0-.877l1.157-1.157a.62.62,0,0,1,.877,0l7.122,7.121a.62.62,0,0,1,.172.551l-.179.978a.62.62,0,0,1-.5.5l-.978.179A.62.62,0,0,1,70.369,134.943Z" transform="translate(-26.386 -17.258)"/><path class="cls-17" d="M73.47,133.974l7.393,7.394a.62.62,0,0,1,0,.877L79.706,143.4a.62.62,0,0,1-.877,0l-7.394-7.394a.62.62,0,0,1,.327-1.049l.136-.025a.62.62,0,0,0,.5-.5l.025-.135A.62.62,0,0,1,73.47,133.974Z" transform="translate(-26.386 -17.258)"/><path class="cls-18" d="M73.79,131.714,68.177,126.1a.62.62,0,0,1,0-.877l1.157-1.157a.62.62,0,0,1,.877,0l5.613,5.613a.62.62,0,0,1-.327,1.049l-.136.025a.62.62,0,0,0-.5.5l-.025.136A.62.62,0,0,1,73.79,131.714Z" transform="translate(-26.386 -17.258)"/><path class="cls-19" d="M87.96,120.36,95,124.426a.62.62,0,0,1,.227.848l-.818,1.417a.62.62,0,0,1-.848.227l-7.043-4.066a.62.62,0,0,1-.308-.487l-.08-.991a.62.62,0,0,1,.352-.611l.9-.426A.62.62,0,0,1,87.96,120.36Z" transform="translate(-26.386 -17.258)"/><path class="cls-20" d="M114.045,122.9l-6.874,3.969a.62.62,0,0,1-.848-.227l-.818-1.417a.62.62,0,0,1,.227-.848l6.874-3.969a.62.62,0,0,1,.929.587l-.011.137a.62.62,0,0,0,.352.611l.125.059A.62.62,0,0,1,114.045,122.9Z" transform="translate(-26.386 -17.258)"/><path class="cls-21" d="M66.867,140.576l7.452,7.453a.62.62,0,0,1,0,.877l-1.157,1.157a.62.62,0,0,1-.877,0l-7.452-7.452a.62.62,0,0,1,.327-1.049l.135-.025a.62.62,0,0,0,.5-.5l.025-.136A.62.62,0,0,1,66.867,140.576Z" transform="translate(-26.386 -17.258)"/><path class="cls-22" d="M63.766,141.545l-7.122-7.121a.62.62,0,0,1,0-.877l1.157-1.157a.62.62,0,0,1,.877,0L65.8,139.51a.62.62,0,0,1,.172.551l-.179.979a.62.62,0,0,1-.5.5l-.978.179A.62.62,0,0,1,63.766,141.545Z" transform="translate(-26.386 -17.258)"/><path class="cls-23" d="M63.463,143.981l5.847,5.847a.62.62,0,0,1,0,.877l-1.157,1.157a.62.62,0,0,1-.877,0l-5.847-5.847a.62.62,0,0,1,.327-1.049l.136-.025a.62.62,0,0,0,.5-.5l.025-.135A.62.62,0,0,1,63.463,143.981Z" transform="translate(-26.386 -17.258)"/><path class="cls-24" d="M56.989,150.648,64.345,158a.62.62,0,0,1,0,.877l-1.157,1.157a.62.62,0,0,1-.877,0l-7.356-7.356a.62.62,0,0,1-.172-.551l.179-.978a.62.62,0,0,1,.5-.5l.978-.179A.62.62,0,0,1,56.989,150.648Z" transform="translate(-26.386 -17.258)"/><path class="cls-25" d="M74.579,123.435l-8.017-6.32a.62.62,0,0,1-.1-.871l1.013-1.285a.62.62,0,0,1,.871-.1l8.016,6.32a.62.62,0,0,1-.2,1.08l-.131.04a.62.62,0,0,0-.437.554l-.009.138A.62.62,0,0,1,74.579,123.435Z" transform="translate(-26.386 -17.258)"/><path class="cls-26" d="M60.314,147.323l5.75,5.75a.62.62,0,0,1,0,.877l-1.157,1.157a.62.62,0,0,1-.877,0l-5.75-5.75a.62.62,0,0,1-.172-.551l.179-.978a.62.62,0,0,1,.5-.5l.978-.179A.62.62,0,0,1,60.314,147.323Z" transform="translate(-26.386 -17.258)"/><path class="cls-27" d="M60.362,144.949l-5.516-5.516a.62.62,0,0,1,0-.877L56,137.4a.62.62,0,0,1,.877,0l5.516,5.516a.62.62,0,0,1,.172.55l-.179.978a.62.62,0,0,1-.5.5l-.978.179A.62.62,0,0,1,60.362,144.949Z" transform="translate(-26.386 -17.258)"/><path class="cls-28" d="M57.213,148.292,51.6,142.679a.62.62,0,0,1,0-.877l1.157-1.157a.62.62,0,0,1,.877,0l5.613,5.613a.62.62,0,0,1-.327,1.049l-.136.025a.62.62,0,0,0-.5.5l-.025.136A.62.62,0,0,1,57.213,148.292Z" transform="translate(-26.386 -17.258)"/><path class="cls-29" d="M50.34,157.3l7.355,7.356a.62.62,0,0,1,0,.877l-1.157,1.157a.62.62,0,0,1-.877,0L48.3,159.332a.62.62,0,0,1-.172-.55l.179-.978a.62.62,0,0,1,.5-.5l.978-.179A.62.62,0,0,1,50.34,157.3Z" transform="translate(-26.386 -17.258)"/><path class="cls-30" d="M47.238,158.266l-7.218-7.218a.62.62,0,0,1,0-.877l1.157-1.157a.62.62,0,0,1,.877,0l7.219,7.218a.62.62,0,0,1-.327,1.049l-.136.025a.62.62,0,0,0-.5.5l-.025.136A.62.62,0,0,1,47.238,158.266Z" transform="translate(-26.386 -17.258)"/><path class="cls-31" d="M47.1,160.536l5.75,5.75a.62.62,0,0,1,0,.877l-1.157,1.157a.62.62,0,0,1-.877,0l-5.75-5.75a.62.62,0,0,1-.172-.551l.179-.978a.62.62,0,0,1,.5-.5l.978-.179A.62.62,0,0,1,47.1,160.536Z" transform="translate(-26.386 -17.258)"/><path class="cls-32" d="M44,161.5l-5.613-5.613a.62.62,0,0,1,0-.877l1.157-1.157a.62.62,0,0,1,.877,0l5.613,5.613a.62.62,0,0,1-.327,1.049l-.136.025a.62.62,0,0,0-.5.5l-.025.136A.62.62,0,0,1,44,161.5Z" transform="translate(-26.386 -17.258)"/><path class="cls-33" d="M40.492,164.819,33.37,157.7a.62.62,0,0,1,0-.877l1.157-1.157a.62.62,0,0,1,.877,0l7.122,7.121a.62.62,0,0,1,.172.551l-.179.978a.62.62,0,0,1-.5.5l-.978.179A.62.62,0,0,1,40.492,164.819Z" transform="translate(-26.386 -17.258)"/><path class="cls-34" d="M43.593,163.851l7.452,7.452a.62.62,0,0,1,0,.877l-1.157,1.157a.62.62,0,0,1-.877,0l-7.452-7.452a.62.62,0,0,1,.327-1.049l.136-.025a.62.62,0,0,0,.5-.5l.025-.135A.62.62,0,0,1,43.593,163.851Z" transform="translate(-26.386 -17.258)"/><path class="cls-35" d="M53.888,151.617,46.67,144.4a.62.62,0,0,1,0-.877l1.157-1.157a.62.62,0,0,1,.877,0l7.218,7.218a.62.62,0,0,1-.327,1.049l-.135.025a.62.62,0,0,0-.5.5l-.025.136A.62.62,0,0,1,53.888,151.617Z" transform="translate(-26.386 -17.258)"/></g><path class="cls-36" d="M41.682,145.01c8.6-8.6,22.921,16.977,34.745,5.154l2.411-2.411c-8.17,8.17-22.36-17.539-34.745-5.154Z" transform="translate(-26.386 -17.258)"/><path class="cls-37" d="M26.886,159.805c8.6-8.6,22.921,16.977,34.745,5.154l2.411-2.411c-8.17,8.17-22.36-17.539-34.745-5.154Z" transform="translate(-26.386 -17.258)"/><path class="cls-38" d="M56.478,130.214c8.6-8.6,22.921,16.977,34.745,5.154l2.411-2.411c-8.17,8.17-22.36-17.539-34.745-5.154Z" transform="translate(-26.386 -17.258)"/><g id="OVER"><path class="cls-39" d="M81.651,141.045a10.369,10.369,0,0,1-3.1,7l-2.12,2.091" transform="translate(-26.386 -17.258)"/><path class="cls-39" d="M52.54,170.637a11.173,11.173,0,0,1-3.576,7l-2.12,2.091" transform="translate(-26.386 -17.258)"/><path class="cls-40" d="M38.455,151.684a11.173,11.173,0,0,1,3.576-7l2.12-2.091" transform="translate(-26.386 -17.258)"/></g></g><g id="DNA-2" data-name="DNA"><path class="cls-41" d="M85.427,17.758c0,12.167,28.212,3.146,28.212,21.356l-.02,2.977c0-11.554-28.192-3.879-28.192-20.924Z" transform="translate(-26.386 -17.258)"/><path class="cls-42" d="M85.427,38.682c0,12.167,28.212,3.146,28.212,21.356l-.02,2.977c0-11.554-28.192-3.879-28.192-20.924Z" transform="translate(-26.386 -17.258)"/><path class="cls-43" d="M85.427,59.606c0,12.167,28.212,3.146,28.212,21.356l-.02,2.977c0-11.554-28.192-3.879-28.192-20.924Z" transform="translate(-26.386 -17.258)"/><path class="cls-44" d="M85.427,80.53c0,12.167,17.554,4.9,26.939,17.158l2.687,4.122c-5.816-8.65-29.626-.826-29.626-17.872Z" transform="translate(-26.386 -17.258)"/><g id="AMINOACIDS-2" data-name="AMINOACIDS" class="cls-5"><path class="cls-45" d="M98.682,59.228H88.474a.62.62,0,0,1-.62-.62V56.97a.62.62,0,0,1,.62-.62H98.682a.62.62,0,0,1,.511.973l-.078.113a.62.62,0,0,0,0,.7l.079.114A.62.62,0,0,1,98.682,59.228Z" transform="translate(-26.386 -17.258)"/><path class="cls-46" d="M100.054,18.694H113a.62.62,0,0,1,.62.62v1.637a.62.62,0,0,1-.62.62H100.053a.62.62,0,0,1-.511-.973l.079-.114a.62.62,0,0,0,0-.7l-.078-.113A.62.62,0,0,1,100.054,18.694Z" transform="translate(-26.386 -17.258)"/><path class="cls-47" d="M100.19,37.541h12.829a.62.62,0,0,1,.62.62V39.8a.62.62,0,0,1-.62.62H100.19a.62.62,0,0,1-.511-.268l-.565-.819a.62.62,0,0,1,0-.7l.565-.818A.62.62,0,0,1,100.19,37.541Z" transform="translate(-26.386 -17.258)"/><path class="cls-48" d="M98.683,40.419H86.069a.62.62,0,0,1-.62-.62V38.162a.62.62,0,0,1,.62-.62H98.682a.62.62,0,0,1,.511.973l-.078.113a.62.62,0,0,0,0,.7l.079.114A.62.62,0,0,1,98.683,40.419Z" transform="translate(-26.386 -17.258)"/><path class="cls-49" d="M100.19,61.052H113a.62.62,0,0,1,.62.62v1.637a.62.62,0,0,1-.62.62H100.19a.62.62,0,0,1-.511-.268l-.565-.819a.62.62,0,0,1,0-.7l.565-.818A.62.62,0,0,1,100.19,61.052Z" transform="translate(-26.386 -17.258)"/><path class="cls-50" d="M98.571,21.572H86.035a.614.614,0,0,1-.607-.62V19.314a.614.614,0,0,1,.607-.62H98.571a.6.6,0,0,1,.5.268l.553.819a.631.631,0,0,1,0,.7l-.553.818A.6.6,0,0,1,98.571,21.572Z" transform="translate(-26.386 -17.258)"/><path class="cls-51" d="M98.683,63.93H86.069a.62.62,0,0,1-.62-.62V61.673a.62.62,0,0,1,.62-.62H98.682a.62.62,0,0,1,.511.973l-.078.113a.62.62,0,0,0,0,.7l.079.114A.62.62,0,0,1,98.683,63.93Z" transform="translate(-26.386 -17.258)"/><path class="cls-52" d="M100.19,79.835H113a.62.62,0,0,1,.62.62v1.637a.62.62,0,0,1-.62.62H100.19a.62.62,0,0,1-.511-.268l-.565-.819a.62.62,0,0,1,0-.7l.565-.818A.62.62,0,0,1,100.19,79.835Z" transform="translate(-26.386 -17.258)"/><path class="cls-53" d="M98.682,82.713H86.069a.62.62,0,0,1-.62-.62V80.456a.62.62,0,0,1,.62-.62H98.682a.62.62,0,0,1,.511.973l-.078.113a.62.62,0,0,0,0,.7l.079.114A.62.62,0,0,1,98.682,82.713Z" transform="translate(-26.386 -17.258)"/><path class="cls-54" d="M98.546,87.415H86.069a.62.62,0,0,1-.62-.62V85.158a.62.62,0,0,1,.62-.62H98.546a.62.62,0,0,1,.511.268l.565.818a.62.62,0,0,1,0,.7l-.565.819A.62.62,0,0,1,98.546,87.415Z" transform="translate(-26.386 -17.258)"/><path class="cls-55" d="M100.054,84.537H113a.62.62,0,0,1,.62.62v1.637a.62.62,0,0,1-.62.62H100.053a.62.62,0,0,1-.511-.973l.079-.114a.62.62,0,0,0,0-.7l-.078-.113A.62.62,0,0,1,100.054,84.537Z" transform="translate(-26.386 -17.258)"/><path class="cls-56" d="M98.546,101.521H86.069a.62.62,0,0,1-.62-.62l-.021-1.11c0-.343.618-1.147.961-1.147H98.546a.62.62,0,0,1,.511.268l.565.818a.62.62,0,0,1,0,.7l-.565.819A.62.62,0,0,1,98.546,101.521Z" transform="translate(-26.386 -17.258)"/><path class="cls-57" d="M100.054,98.644h12.554a1.431,1.431,0,0,1,1.01.964V100.9a.62.62,0,0,1-.62.62H100.053a.62.62,0,0,1-.511-.973l.079-.114a.62.62,0,0,0,0-.7l-.078-.113A.62.62,0,0,1,100.054,98.644Z" transform="translate(-26.386 -17.258)"/><path class="cls-58" d="M100.19,23.4h10.4a.62.62,0,0,1,.62.62v1.637a.62.62,0,0,1-.62.62h-10.4a.62.62,0,0,1-.511-.268l-.565-.818a.62.62,0,0,1,0-.7l.565-.818A.62.62,0,0,1,100.19,23.4Z" transform="translate(-26.386 -17.258)"/><path class="cls-59" d="M100.19,28.2h8.132a.62.62,0,0,1,.62.62v1.637a.62.62,0,0,1-.62.62H100.19a.62.62,0,0,1-.511-.268L99.115,30a.62.62,0,0,1,0-.7l.565-.818A.62.62,0,0,1,100.19,28.2Z" transform="translate(-26.386 -17.258)"/><path class="cls-60" d="M98.546,35.784H88.474a.62.62,0,0,1-.62-.62V33.527a.62.62,0,0,1,.62-.62H98.546a.62.62,0,0,1,.511.268l.565.818a.62.62,0,0,1,0,.7l-.565.819A.62.62,0,0,1,98.546,35.784Z" transform="translate(-26.386 -17.258)"/><path class="cls-61" d="M100.054,32.906H110.51a.62.62,0,0,1,.62.62v1.637a.62.62,0,0,1-.62.62H100.053a.62.62,0,0,1-.511-.973l.079-.114a.62.62,0,0,0,0-.7l-.078-.113A.62.62,0,0,1,100.054,32.906Z" transform="translate(-26.386 -17.258)"/><path class="cls-62" d="M98.682,31.082H90.745a.62.62,0,0,1-.62-.62V28.825a.62.62,0,0,1,.62-.62h7.938a.62.62,0,0,1,.511.973l-.078.113a.62.62,0,0,0,0,.7l.078.113A.62.62,0,0,1,98.682,31.082Z" transform="translate(-26.386 -17.258)"/><path class="cls-63" d="M100.053,42.243h10.539a.62.62,0,0,1,.62.62V44.5a.62.62,0,0,1-.62.62H100.054a.62.62,0,0,1-.511-.973l.078-.113a.62.62,0,0,0,0-.7l-.079-.114A.62.62,0,0,1,100.053,42.243Z" transform="translate(-26.386 -17.258)"/><path class="cls-64" d="M98.546,45.121H88.474a.62.62,0,0,1-.62-.62V42.864a.62.62,0,0,1,.62-.62H98.546a.62.62,0,0,1,.511.268l.565.819a.62.62,0,0,1,0,.7l-.565.818A.62.62,0,0,1,98.546,45.121Z" transform="translate(-26.386 -17.258)"/><path class="cls-65" d="M100.054,47.058h8.268a.62.62,0,0,1,.62.62v1.637a.62.62,0,0,1-.62.62h-8.269a.62.62,0,0,1-.511-.973l.078-.113a.62.62,0,0,0,0-.705l-.078-.113A.62.62,0,0,1,100.054,47.058Z" transform="translate(-26.386 -17.258)"/><path class="cls-66" d="M100.19,56.35h10.4a.62.62,0,0,1,.62.62v1.637a.62.62,0,0,1-.62.62h-10.4a.62.62,0,0,1-.511-.268l-.565-.819a.62.62,0,0,1,0-.7l.565-.818A.62.62,0,0,1,100.19,56.35Z" transform="translate(-26.386 -17.258)"/><path class="cls-67" d="M98.682,26.273H88.474a.62.62,0,0,1-.62-.62V24.016a.62.62,0,0,1,.62-.62H98.682a.62.62,0,0,1,.511.973l-.078.113a.62.62,0,0,0,0,.7l.079.114A.62.62,0,0,1,98.682,26.273Z" transform="translate(-26.386 -17.258)"/><path class="cls-68" d="M100.19,51.648h8.132a.62.62,0,0,1,.62.62v1.637a.62.62,0,0,1-.62.62H100.19a.62.62,0,0,1-.511-.268l-.565-.818a.62.62,0,0,1,0-.7l.565-.818A.62.62,0,0,1,100.19,51.648Z" transform="translate(-26.386 -17.258)"/><path class="cls-69" d="M98.546,49.936h-7.8a.62.62,0,0,1-.62-.62V47.679a.62.62,0,0,1,.62-.62h7.8a.62.62,0,0,1,.511.268l.565.818a.62.62,0,0,1,0,.705l-.565.818A.62.62,0,0,1,98.546,49.936Z" transform="translate(-26.386 -17.258)"/><path class="cls-70" d="M98.682,54.525H90.745a.62.62,0,0,1-.62-.62V52.268a.62.62,0,0,1,.62-.62h7.938a.62.62,0,0,1,.511.973l-.078.113a.62.62,0,0,0,0,.7l.078.113A.62.62,0,0,1,98.682,54.525Z" transform="translate(-26.386 -17.258)"/><path class="cls-71" d="M100.19,65.754h10.4a.62.62,0,0,1,.62.62v1.637a.62.62,0,0,1-.62.62h-10.4a.62.62,0,0,1-.511-.268l-.565-.818a.62.62,0,0,1,0-.7l.565-.819A.62.62,0,0,1,100.19,65.754Z" transform="translate(-26.386 -17.258)"/><path class="cls-72" d="M98.682,68.632H88.474a.62.62,0,0,1-.62-.62V66.375a.62.62,0,0,1,.62-.62H98.682a.62.62,0,0,1,.511.973l-.079.114a.62.62,0,0,0,0,.7l.078.113A.62.62,0,0,1,98.682,68.632Z" transform="translate(-26.386 -17.258)"/><path class="cls-73" d="M100.19,70.334h8.132a.62.62,0,0,1,.62.62v1.637a.62.62,0,0,1-.62.62H100.19a.62.62,0,0,1-.511-.268l-.565-.818a.62.62,0,0,1,0-.7l.565-.818A.62.62,0,0,1,100.19,70.334Z" transform="translate(-26.386 -17.258)"/><path class="cls-74" d="M98.682,73.211H90.745a.62.62,0,0,1-.62-.62V70.954a.62.62,0,0,1,.62-.62h7.938a.62.62,0,0,1,.511.973l-.078.113a.62.62,0,0,0,0,.7l.078.113A.62.62,0,0,1,98.682,73.211Z" transform="translate(-26.386 -17.258)"/><path class="cls-75" d="M98.546,78.036H88.474a.62.62,0,0,1-.62-.62V75.779a.62.62,0,0,1,.62-.62H98.546a.62.62,0,0,1,.511.268l.565.818a.62.62,0,0,1,0,.7l-.565.818A.62.62,0,0,1,98.546,78.036Z" transform="translate(-26.386 -17.258)"/><path class="cls-76" d="M100.054,75.158h10.539a.62.62,0,0,1,.62.62v1.637a.62.62,0,0,1-.62.62H100.053a.62.62,0,0,1-.511-.973l.078-.113a.62.62,0,0,0,0-.7l-.078-.113A.62.62,0,0,1,100.054,75.158Z" transform="translate(-26.386 -17.258)"/><path class="cls-77" d="M98.546,92.117H88.474a.62.62,0,0,1-.62-.62V89.86a.62.62,0,0,1,.62-.62H98.546a.62.62,0,0,1,.511.268l.565.818a.62.62,0,0,1,0,.705l-.565.818A.62.62,0,0,1,98.546,92.117Z" transform="translate(-26.386 -17.258)"/><path class="cls-78" d="M100.054,89.239h10.539a.62.62,0,0,1,.62.62v1.281a1.427,1.427,0,0,1-.995.977H100.053a.62.62,0,0,1-.511-.973l.078-.113a.62.62,0,0,0,0-.705l-.078-.113A.62.62,0,0,1,100.054,89.239Z" transform="translate(-26.386 -17.258)"/><path class="cls-79" d="M98.546,96.776h-7.8a.62.62,0,0,1-.62-.62V94.519a.62.62,0,0,1,.62-.62h7.8a.62.62,0,0,1,.511.268l.565.818a.62.62,0,0,1,0,.7l-.565.819A.62.62,0,0,1,98.546,96.776Z" transform="translate(-26.386 -17.258)"/><path class="cls-80" d="M100.054,93.9h8.269a.62.62,0,0,1,.62.62v1.637a.62.62,0,0,1-.62.62h-8.269a.62.62,0,0,1-.511-.973l.079-.114a.62.62,0,0,0,0-.7l-.078-.113A.62.62,0,0,1,100.054,93.9Z" transform="translate(-26.386 -17.258)"/></g><path class="cls-81" d="M85.427,42.091c0-12.167,28.212-4.2,28.212-20.924V17.758c0,11.554-28.212,3.409-28.212,20.924Z" transform="translate(-26.386 -17.258)"/><path class="cls-82" d="M85.427,63.015c0-12.167,28.212-4.2,28.212-20.924V38.682c0,11.554-28.212,3.409-28.212,20.924Z" transform="translate(-26.386 -17.258)"/><path class="cls-83" d="M85.427,83.939c0-12.167,28.212-4.2,28.212-20.924V59.606c0,11.554-28.212,3.409-28.212,20.924Z" transform="translate(-26.386 -17.258)"/><path class="cls-84" d="M84,101.811c4.276-8.431,29.642-1.151,29.642-17.872V80.53c0,11.554-18.67,4.849-26.971,17.158Z" transform="translate(-26.386 -17.258)"/><g id="OVER-2" data-name="OVER"><path class="cls-85" d="M111.216,31.632a11.173,11.173,0,0,1,2.424,7.481l-.02,2.977" transform="translate(-26.386 -17.258)"/><path class="cls-85" d="M111.216,73.481a11.173,11.173,0,0,1,2.424,7.481l-.02,2.977" transform="translate(-26.386 -17.258)"/><path class="cls-85" d="M87.855,70.039a11.173,11.173,0,0,1-2.424-7.481l.02-2.977" transform="translate(-26.386 -17.258)"/><path class="cls-85" d="M87.855,28.216a11.173,11.173,0,0,1-2.424-7.481l.02-2.977" transform="translate(-26.386 -17.258)"/><path class="cls-40" d="M85.427,80.9v3.035a11.155,11.155,0,0,0,2.427,7.474A10.281,10.281,0,0,0,89.644,93" transform="translate(-26.386 -17.258)"/></g></g><g id="DNA-3" data-name="DNA"><path class="cls-86" d="M106.924,134.314c8.6,8.6,22.174-17.724,35.05-4.848l2.091,2.12c-8.17-8.17-22.678,17.192-34.73,5.139Z" transform="translate(-26.386 -17.258)"/><path class="cls-87" d="M121.72,149.11c8.6,8.6,22.174-17.724,35.05-4.848l2.091,2.12c-8.17-8.17-22.678,17.192-34.73,5.139Z" transform="translate(-26.386 -17.258)"/><path class="cls-88" d="M136.515,163.905c8.6,8.6,22.174-17.724,35.05-4.848l2.091,2.12c-8.17-8.17-22.678,17.192-34.73,5.139Z" transform="translate(-26.386 -17.258)"/><g id="AMINOACIDS-3" data-name="AMINOACIDS" class="cls-5"><path class="cls-89" d="M116.725,124.883l-9.152,9.152a.62.62,0,0,0,0,.877l1.157,1.157a.62.62,0,0,0,.877,0l9.153-9.153a.62.62,0,0,0-.327-1.049l-.136-.025a.62.62,0,0,1-.5-.5l-.025-.135A.62.62,0,0,0,116.725,124.883Z" transform="translate(-26.386 -17.258)"/><path class="cls-90" d="M129.956,138.306l-9.071,9.072a.62.62,0,0,0,0,.877l1.157,1.157a.62.62,0,0,0,.877,0l9.071-9.072a.62.62,0,0,0,.172-.551l-.179-.979a.62.62,0,0,0-.5-.5l-.978-.179A.62.62,0,0,0,129.956,138.306Z" transform="translate(-26.386 -17.258)"/><path class="cls-91" d="M133.056,139.275l8.919-8.919a.62.62,0,0,0,0-.877l-1.157-1.157a.62.62,0,0,0-.877,0l-8.919,8.919a.62.62,0,0,0,.327,1.049l.135.025a.62.62,0,0,1,.5.5l.025.136A.62.62,0,0,0,133.056,139.275Z" transform="translate(-26.386 -17.258)"/><path class="cls-92" d="M146.58,154.931l-9.056,9.056a.62.62,0,0,0,0,.877l1.157,1.157a.62.62,0,0,0,.877,0l9.056-9.056a.62.62,0,0,0,.172-.551l-.18-.979a.62.62,0,0,0-.5-.5l-.978-.179A.62.62,0,0,0,146.58,154.931Z" transform="translate(-26.386 -17.258)"/><path class="cls-93" d="M123.373,114.869l11.167-5.7a.614.614,0,0,0,.259-.829l-.744-1.458a.614.614,0,0,0-.823-.277l-11.168,5.7a.6.6,0,0,0-.324.466l-.121.981a.631.631,0,0,0,.32.628l.865.478A.6.6,0,0,0,123.373,114.869Z" transform="translate(-26.386 -17.258)"/><path class="cls-94" d="M149.681,155.9l8.919-8.919a.62.62,0,0,0,0-.877l-1.157-1.157a.62.62,0,0,0-.877,0l-8.919,8.919a.62.62,0,0,0,.327,1.049l.136.025a.62.62,0,0,1,.5.5l.025.137A.62.62,0,0,0,149.681,155.9Z" transform="translate(-26.386 -17.258)"/><path class="cls-95" d="M159.862,168.212l-9.056,9.056a.62.62,0,0,0,0,.877l1.157,1.157a.62.62,0,0,0,.877,0l9.056-9.056a.62.62,0,0,0,.172-.551l-.179-.978a.62.62,0,0,0-.5-.5l-.978-.179A.62.62,0,0,0,159.862,168.212Z" transform="translate(-26.386 -17.258)"/><path class="cls-96" d="M162.963,169.181l8.919-8.919a.62.62,0,0,0,0-.877l-1.157-1.157a.62.62,0,0,0-.877,0l-8.919,8.919a.62.62,0,0,0,.327,1.049l.136.025a.62.62,0,0,1,.5.5l.025.136A.62.62,0,0,0,162.963,169.181Z" transform="translate(-26.386 -17.258)"/><path class="cls-97" d="M119.953,128.3l-7.356,7.356a.62.62,0,0,0,0,.877l1.157,1.157a.62.62,0,0,0,.877,0l7.356-7.356a.62.62,0,0,0,.172-.551l-.179-.978a.62.62,0,0,0-.5-.5l-.978-.179A.62.62,0,0,0,119.953,128.3Z" transform="translate(-26.386 -17.258)"/><path class="cls-98" d="M123.353,131.7l-5.75,5.75a.62.62,0,0,0,0,.877l1.157,1.157a.62.62,0,0,0,.877,0l5.75-5.75a.62.62,0,0,0,.172-.551l-.179-.978a.62.62,0,0,0-.5-.5l-.978-.179A.62.62,0,0,0,123.353,131.7Z" transform="translate(-26.386 -17.258)"/><path class="cls-99" d="M129.876,135.9,137,128.779a.62.62,0,0,0,0-.877l-1.157-1.157a.62.62,0,0,0-.877,0l-7.122,7.121a.62.62,0,0,0-.172.551l.179.978a.62.62,0,0,0,.5.5l.978.179A.62.62,0,0,0,129.876,135.9Z" transform="translate(-26.386 -17.258)"/><path class="cls-100" d="M126.774,134.932l-7.393,7.394a.62.62,0,0,0,0,.877l1.157,1.157a.62.62,0,0,0,.877,0l7.394-7.394a.62.62,0,0,0-.327-1.049l-.136-.025a.62.62,0,0,1-.5-.5l-.025-.135A.62.62,0,0,0,126.774,134.932Z" transform="translate(-26.386 -17.258)"/><path class="cls-101" d="M126.454,132.672l5.613-5.613a.62.62,0,0,0,0-.877l-1.157-1.157a.62.62,0,0,0-.877,0l-5.613,5.613a.62.62,0,0,0,.327,1.049l.136.025a.62.62,0,0,1,.5.5l.025.136A.62.62,0,0,0,126.454,132.672Z" transform="translate(-26.386 -17.258)"/><path class="cls-102" d="M133.377,141.534l-7.452,7.453a.62.62,0,0,0,0,.877l1.157,1.157a.62.62,0,0,0,.877,0l7.452-7.452a.62.62,0,0,0-.327-1.049l-.135-.025a.62.62,0,0,1-.5-.5l-.025-.136A.62.62,0,0,0,133.377,141.534Z" transform="translate(-26.386 -17.258)"/><path class="cls-103" d="M136.478,142.5l7.122-7.121a.62.62,0,0,0,0-.877l-1.157-1.157a.62.62,0,0,0-.877,0l-7.122,7.121a.62.62,0,0,0-.172.551l.179.979a.62.62,0,0,0,.5.5l.978.179A.62.62,0,0,0,136.478,142.5Z" transform="translate(-26.386 -17.258)"/><path class="cls-104" d="M136.782,144.939l-5.847,5.847a.62.62,0,0,0,0,.877l1.157,1.157a.62.62,0,0,0,.877,0l5.847-5.847a.62.62,0,0,0-.327-1.049l-.136-.025a.62.62,0,0,1-.5-.5l-.025-.135A.62.62,0,0,0,136.782,144.939Z" transform="translate(-26.386 -17.258)"/><path class="cls-105" d="M143.255,151.606l-7.356,7.356a.62.62,0,0,0,0,.877L137.057,161a.62.62,0,0,0,.877,0l7.356-7.356a.62.62,0,0,0,.172-.551l-.179-.978a.62.62,0,0,0-.5-.5l-.978-.179A.62.62,0,0,0,143.255,151.606Z" transform="translate(-26.386 -17.258)"/><path class="cls-106" d="M125.665,124.393l8.017-6.32a.62.62,0,0,0,.1-.871l-1.013-1.285a.62.62,0,0,0-.871-.1l-8.016,6.32a.62.62,0,0,0,.2,1.08l.131.04a.62.62,0,0,1,.437.554l.009.138A.62.62,0,0,0,125.665,124.393Z" transform="translate(-26.386 -17.258)"/><path class="cls-107" d="M139.93,148.281l-5.75,5.75a.62.62,0,0,0,0,.877l1.157,1.157a.62.62,0,0,0,.877,0l5.75-5.75a.62.62,0,0,0,.172-.551l-.179-.978a.62.62,0,0,0-.5-.5l-.978-.179A.62.62,0,0,0,139.93,148.281Z" transform="translate(-26.386 -17.258)"/><path class="cls-108" d="M139.882,145.907l5.516-5.516a.62.62,0,0,0,0-.877l-1.157-1.157a.62.62,0,0,0-.877,0l-5.516,5.516a.62.62,0,0,0-.172.55l.179.978a.62.62,0,0,0,.5.5l.978.179A.62.62,0,0,0,139.882,145.907Z" transform="translate(-26.386 -17.258)"/><path class="cls-109" d="M143.031,149.25l5.613-5.613a.62.62,0,0,0,0-.877l-1.157-1.157a.62.62,0,0,0-.877,0L141,147.215a.62.62,0,0,0,.327,1.049l.136.025a.62.62,0,0,1,.5.5l.025.136A.62.62,0,0,0,143.031,149.25Z" transform="translate(-26.386 -17.258)"/><path class="cls-110" d="M149.9,158.255l-7.355,7.356a.62.62,0,0,0,0,.877l1.157,1.157a.62.62,0,0,0,.877,0l7.355-7.356a.62.62,0,0,0,.172-.55l-.179-.978a.62.62,0,0,0-.5-.5l-.978-.179A.62.62,0,0,0,149.9,158.255Z" transform="translate(-26.386 -17.258)"/><path class="cls-111" d="M153.006,159.224l7.218-7.218a.62.62,0,0,0,0-.877l-1.157-1.157a.62.62,0,0,0-.877,0l-7.219,7.218a.62.62,0,0,0,.327,1.049l.136.025a.62.62,0,0,1,.5.5l.025.136A.62.62,0,0,0,153.006,159.224Z" transform="translate(-26.386 -17.258)"/><path class="cls-112" d="M153.143,161.494l-5.75,5.75a.62.62,0,0,0,0,.877l1.157,1.157a.62.62,0,0,0,.877,0l5.75-5.75a.62.62,0,0,0,.172-.551L155.17,162a.62.62,0,0,0-.5-.5l-.978-.179A.62.62,0,0,0,153.143,161.494Z" transform="translate(-26.386 -17.258)"/><path class="cls-113" d="M156.244,162.463l5.613-5.613a.62.62,0,0,0,0-.877l-1.157-1.157a.62.62,0,0,0-.877,0l-5.613,5.613a.62.62,0,0,0,.327,1.049l.136.025a.62.62,0,0,1,.5.5l.025.136A.62.62,0,0,0,156.244,162.463Z" transform="translate(-26.386 -17.258)"/><path class="cls-114" d="M159.752,165.777l7.122-7.121a.62.62,0,0,0,0-.877l-1.157-1.157a.62.62,0,0,0-.877,0l-7.122,7.121a.62.62,0,0,0-.172.551l.179.978a.62.62,0,0,0,.5.5l.978.179A.62.62,0,0,0,159.752,165.777Z" transform="translate(-26.386 -17.258)"/><path class="cls-115" d="M156.651,164.809l-7.452,7.452a.62.62,0,0,0,0,.877l1.157,1.157a.62.62,0,0,0,.877,0l7.452-7.452a.62.62,0,0,0-.327-1.049l-.136-.025a.62.62,0,0,1-.5-.5l-.025-.135A.62.62,0,0,0,156.651,164.809Z" transform="translate(-26.386 -17.258)"/><path class="cls-116" d="M146.356,152.575l7.218-7.218a.62.62,0,0,0,0-.877l-1.157-1.157a.62.62,0,0,0-.877,0l-7.218,7.218a.62.62,0,0,0,.327,1.049l.135.025a.62.62,0,0,1,.5.5l.025.136A.62.62,0,0,0,146.356,152.575Z" transform="translate(-26.386 -17.258)"/></g><path class="cls-117" d="M153.722,181.112c-8.6-8.6,16.977-22.921,5.154-34.745l-2.411-2.411c8.17,8.17-17.539,22.36-5.154,34.745Z" transform="translate(-26.386 -17.258)"/><path class="cls-118" d="M124.13,151.52c-8.6-8.6,21.978-36.681,10.155-48.5l-2.411-2.411c8.17,8.17-22.54,36.119-10.155,48.5Z" transform="translate(-26.386 -17.258)"/><path class="cls-119" d="M138.926,166.316c-8.6-8.6,16.977-22.921,5.154-34.745l-2.411-2.411c8.17,8.17-17.539,22.36-5.154,34.745Z" transform="translate(-26.386 -17.258)"/><path class="cls-120" d="M109.335,136.724c-8.6-8.6,15.731-20.154,5.719-34.914l-2.687-4.122c7.177,10.858-17.828,24.24-5.443,36.626Z" transform="translate(-26.386 -17.258)"/><g id="OVER-3" data-name="OVER"><path class="cls-40" d="M134.97,125.891a11.173,11.173,0,0,1,7,3.576l2.091,2.12" transform="translate(-26.386 -17.258)"/><path class="cls-40" d="M164.562,155.482a11.173,11.173,0,0,1,7,3.576l2.091,2.12" transform="translate(-26.386 -17.258)"/></g></g></g></svg>