<svg id="Layer_1" data-name="Layer 1" xmlns="http://www.w3.org/2000/svg" xmlns:xlink="http://www.w3.org/1999/xlink" viewBox="0 0 74.04 56.739"><defs><style>.cls-1{fill:url(#linear-gradient);}.cls-2{fill:url(#linear-gradient-2);}.cls-3{fill:url(#linear-gradient-3);}.cls-4{fill:url(#linear-gradient-4);}</style><linearGradient id="linear-gradient" x1="687.001" y1="62.024" x2="687.001" y2="11.53" gradientTransform="translate(-587.717 71.056) rotate(-0.674)" gradientUnits="userSpaceOnUse"><stop offset="0" stop-color="#d2b18a"/><stop offset="0.031" stop-color="#cdaa81"/><stop offset="0.17" stop-color="#ba8f5b"/><stop offset="0.299" stop-color="#ac7b40"/><stop offset="0.413" stop-color="#a46f30"/><stop offset="0.5" stop-color="#a16b2a"/><stop offset="0.587" stop-color="#a46f30"/><stop offset="0.701" stop-color="#ac7b40"/><stop offset="0.83" stop-color="#ba8f5b"/><stop offset="0.969" stop-color="#cdaa81"/><stop offset="1" stop-color="#d2b18a"/></linearGradient><linearGradient id="linear-gradient-2" x1="596.389" y1="844.82" x2="576.447" y2="841.374" gradientTransform="translate(762.573 858.803) rotate(172.459)" gradientUnits="userSpaceOnUse"><stop offset="0" stop-color="#d7b532"/><stop offset="1" stop-color="#e086ff"/></linearGradient><linearGradient id="linear-gradient-3" x1="47.709" y1="772.181" x2="27.767" y2="768.735" gradientTransform="matrix(0.991, 0.131, 0.131, -0.991, -9.106, 858.803)" xlink:href="#linear-gradient-2"/><linearGradient id="linear-gradient-4" x1="422.919" y1="-175.68" x2="422.919" y2="-119.048" gradientTransform="translate(522.825 -46.85) rotate(180)" gradientUnits="userSpaceOnUse"><stop offset="0" stop-color="#d7b532"/><stop offset="0.501" stop-color="#e086ff"/><stop offset="0.555" stop-color="#e087f9"/><stop offset="0.626" stop-color="#df8be9"/><stop offset="0.707" stop-color="#de91ce"/><stop offset="0.794" stop-color="#dc9aa8"/><stop offset="0.887" stop-color="#daa577"/><stop offset="0.983" stop-color="#d7b33d"/><stop offset="1" stop-color="#d7b532"/></linearGradient></defs><title>Antiporter_02</title><g id="Antiporter"><path class="cls-1" d="M102.221,126.933a73.3,73.3,0,0,1,13.167-1.991c6.744-.079,19.09,2.975,19.09,2.975-14.423.17-14.754-27.976-14.754-27.976s-.331-28.141,14.092-28.311c0,0-12.235,3.344-19.014,3.423-5.459.064-11.247-1.269-12.341-.925l-4.787.069c-.615-.557-6.727.924-12.474.856-6.779-.08-19.014-3.423-19.014-3.423,14.423.17,14.092,28.311,14.092,28.311s-.331,28.145-14.754,27.976c0,0,12.345-3.055,19.09-2.975a73.3,73.3,0,0,1,13.167,1.991Z" transform="translate(-62.98 -71.631)"/><path class="cls-2" d="M76.988,99.907c.257-21.86-9.522-19.131-10.911-19.147s-2.3-1.517-2.26-5.046c.033-2.819.555-4.1,2.367-4.08,14.423.17,14.092,28.311,14.092,28.311s-.331,28.145-14.754,27.976c-1.81-.021-2.575-1.385-2.542-4.134s1.261-5.012,2.65-5S76.731,121.767,76.988,99.907Z" transform="translate(-62.98 -71.631)"/><path class="cls-3" d="M123.012,99.907c-.257-21.86,9.522-19.131,10.911-19.147s2.3-1.517,2.26-5.046c-.033-2.819-.555-4.1-2.367-4.08-14.423.17-14.092,28.311-14.092,28.311s.331,28.145,14.754,27.976c1.81-.021,2.575-1.385,2.542-4.134s-1.261-5.012-2.65-5S123.269,121.767,123.012,99.907Z" transform="translate(-62.98 -71.631)"/><path class="cls-4" d="M95.906,123.85a4.03,4.03,0,1,0,8,0s-1-13.895-1-23.568,1-23.568,1-23.568a4.03,4.03,0,1,0-8,0s1,14.256,1,23.568S95.906,123.85,95.906,123.85Z" transform="translate(-62.98 -71.631)"/></g></svg>