<svg id="Layer_1" data-name="Layer 1" xmlns="http://www.w3.org/2000/svg" xmlns:xlink="http://www.w3.org/1999/xlink" viewBox="0 0 126.032 50.12"><defs><style>.cls-1,.cls-7{fill:#5eaf1e;}.cls-1{opacity:0.3;}.cls-1,.cls-6,.cls-7{isolation:isolate;}.cls-2{fill:none;stroke:#5eaf1e;stroke-linecap:round;stroke-linejoin:round;stroke-dasharray:0.998 2.993;}.cls-3{fill:#a20e40;}.cls-4{fill:#0b6770;}.cls-5{fill:#b89310;}.cls-6{opacity:0.51;fill:url(#linear-gradient);}.cls-7{opacity:0.3;}.cls-8{fill:url(#linear-gradient-2);}</style><linearGradient id="linear-gradient" x1="48.963" y1="100.3" x2="163.332" y2="100.3" gradientUnits="userSpaceOnUse"><stop offset="0" stop-color="#84e51e"/><stop offset="0.482" stop-color="#3e910e"/><stop offset="0.831" stop-color="#115a04"/><stop offset="1" stop-color="#004500"/></linearGradient><linearGradient id="linear-gradient-2" x1="95.043" y1="77.122" x2="91.16" y2="83.853" gradientTransform="translate(-13.851 64.798) rotate(-30.088)" gradientUnits="userSpaceOnUse"><stop offset="0" stop-color="#baf8c3" stop-opacity="0"/><stop offset="0.488" stop-color="#baf8c3" stop-opacity="0.8"/><stop offset="0.547" stop-color="#b3f3b7" stop-opacity="0.741"/><stop offset="0.659" stop-color="#a1e597" stop-opacity="0.587"/><stop offset="0.813" stop-color="#85ce63" stop-opacity="0.337"/><stop offset="1" stop-color="#5eaf1e" stop-opacity="0"/></linearGradient></defs><title>tropocollagen</title><ellipse id="RIGHT" class="cls-1" cx="114.369" cy="25.06" rx="11.164" ry="24.56"/><ellipse id="LINE_RIGHT" class="cls-2" cx="114.369" cy="25.06" rx="11.164" ry="24.56"/><path class="cls-3" d="M49.9,112.3h2.4a4.94,4.94,0,0,1-2.4-.5Z" transform="translate(-37.3 -75.24)"/><path class="cls-4" d="M50,94.6c1.7-3.6,3.9-6.3,7-6.3h2.9c-5,0-7.8,7.6-10.2,13.4V95.4Z" transform="translate(-37.3 -75.24)"/><path class="cls-5" d="M49.7,90.1c4.9,5.8,6.7,22.2,14.4,22.2H67c-9,0-9.6-22.4-17-24h-.3Z" transform="translate(-37.3 -75.24)"/><path class="cls-3" d="M50,112.3c7.9-.7,8.3-23.9,17.5-24h2.9c-9.3,0-9.5,24-17.7,24Z" transform="translate(-37.3 -75.24)"/><path class="cls-4" d="M77.5,112.3c-9.3,0-9.4-24-17.6-24H57c8.2,0,8.2,24,17.6,24Z" transform="translate(-37.3 -75.24)"/><path class="cls-5" d="M84.6,88.3c-9.3,0-9.5,24-17.6,24H64.1c8.2,0,8.3-24,17.6-24Z" transform="translate(-37.3 -75.24)"/><path class="cls-3" d="M87.994,112.3c-9.3,0-9.394-24-17.594-24H67.5c8.2,0,8.194,24,17.594,24Z" transform="translate(-37.3 -75.24)"/><path class="cls-4" d="M95.1,88.3c-9.3,0-9.5,24-17.6,24H74.6c8.2,0,8.294-24,17.594-24Z" transform="translate(-37.3 -75.24)"/><path class="cls-5" d="M102.194,112.3c-9.3,0-9.394-24-17.594-24H81.7c8.2,0,8.194,24,17.594,24Z" transform="translate(-37.3 -75.24)"/><path class="cls-3" d="M105.588,88.3c-9.3,0-9.494,24-17.594,24h-2.9c8.2,0,8.294-24,17.594-24Z" transform="translate(-37.3 -75.24)"/><path class="cls-4" d="M112.687,112.3c-9.3,0-9.387-24-17.587-24H92.194c8.2,0,8.194,24,17.594,24Z" transform="translate(-37.3 -75.24)"/><path class="cls-5" d="M119.761,88.3c-9.3,0-9.467,24-17.567,24h-2.9c8.2,0,8.294-24,17.594-24Z" transform="translate(-37.3 -75.24)"/><path class="cls-3" d="M123.154,112.3c-9.3,0-9.367-24-17.567-24h-2.9c8.2,0,8.167,24,17.567,24Z" transform="translate(-37.3 -75.24)"/><path class="cls-4" d="M130.254,88.3c-9.3,0-9.467,24-17.567,24h-2.9c8.2,0,8.267-24,17.567-24Z" transform="translate(-37.3 -75.24)"/><path class="cls-5" d="M137.354,112.3c-9.3,0-9.494-24-17.594-24h-2.873c8.2,0,8.167,24,17.567,24Z" transform="translate(-37.3 -75.24)"/><path class="cls-3" d="M140.748,88.3c-9.3,0-9.494,24-17.594,24h-2.9c8.2,0,8.294-24,17.594-24Z" transform="translate(-37.3 -75.24)"/><path class="cls-4" d="M147.848,112.3c-9.3,0-9.494-24-17.594-24h-2.9c8.2,0,8.194,24,17.594,24Z" transform="translate(-37.3 -75.24)"/><path class="cls-5" d="M154.948,88.3c-9.3,0-9.394,24-17.594,24h-2.9c8.2,0,8.294-24,17.594-24Z" transform="translate(-37.3 -75.24)"/><path class="cls-3" d="M156.3,111.5c-7.2-3.5-8.052-23.2-15.552-23.2h-2.9c8.2,0,8.352,24,17.752,24h.6v-.8Z" transform="translate(-37.3 -75.24)"/><path class="cls-4" d="M156.5,101.7c-2.1,5.5-4.852,10.6-8.652,10.6h-2.9c5.5,0,7.552-10.1,11.452-17v6.4Z" transform="translate(-37.3 -75.24)"/><path class="cls-5" d="M156.3,88.6a2.462,2.462,0,0,0-1.352-.3h-2.9a5.663,5.663,0,0,1,4.252,2.1Z" transform="translate(-37.3 -75.24)"/><path id="LINE_TUBE" class="cls-2" d="M151.668,124.86c6.379,0,11.164-11.164,11.164-24.56,0-13.715-5.1-24.56-11.164-24.56H48.963c6.379,0,11.164,11.164,11.164,24.56,0,13.715-5.1,24.56-11.164,24.56Z" transform="translate(-37.3 -75.24)"/><path class="cls-6" d="M151.668,75.24H48.963v1c5.88,0,10.664,10.793,10.664,24.06,0,13.042-4.883,24.06-10.664,24.06v1H151.668c6.541,0,11.664-11.007,11.664-25.06C163.332,86.482,158.1,75.24,151.668,75.24Z" transform="translate(-37.3 -75.24)"/><ellipse id="LEFT" class="cls-7" cx="11.664" cy="25.06" rx="11.164" ry="24.56"/><ellipse id="LINE_LEFT" class="cls-2" cx="11.664" cy="25.06" rx="11.164" ry="24.56"/><path id="LIGHT" class="cls-8" d="M149.552,91.008a4.97,4.97,0,0,1-2.529.67l-79.984-.656c-2.761-.015-4.988-1.265-4.973-4.027s2.262-3.987,5.026-3.973l79.985.657c2.761.014,4.988,1.264,4.973,4.026C152.038,89.545,151.036,90.148,149.552,91.008Z" transform="translate(-37.3 -75.24)"/></svg>