<svg id="Layer_1" data-name="Layer 1" xmlns="http://www.w3.org/2000/svg" xmlns:xlink="http://www.w3.org/1999/xlink" viewBox="0 0 186.927 16.203"><defs><style>.cls-1{fill:#afa51e;}.cls-2{fill:url(#linear-gradient);}.cls-3{fill:url(#linear-gradient-2);}.cls-4{fill:url(#linear-gradient-3);}.cls-5{fill:url(#linear-gradient-4);}.cls-6{fill:url(#linear-gradient-5);}.cls-7{fill:url(#linear-gradient-6);}.cls-8{fill:url(#linear-gradient-7);}.cls-9{fill:url(#linear-gradient-8);}.cls-10{fill:url(#linear-gradient-9);}.cls-11{fill:url(#linear-gradient-10);}.cls-12{fill:url(#linear-gradient-11);}.cls-13{fill:url(#linear-gradient-12);}.cls-14{fill:url(#linear-gradient-13);}.cls-15{fill:url(#linear-gradient-14);}.cls-16{fill:url(#linear-gradient-15);}.cls-17{fill:url(#linear-gradient-16);}.cls-18{fill:url(#linear-gradient-17);}.cls-19{fill:url(#linear-gradient-18);}.cls-20{fill:url(#linear-gradient-19);}.cls-21{fill:url(#linear-gradient-20);}.cls-22{fill:url(#linear-gradient-21);}.cls-23{fill:url(#linear-gradient-22);}.cls-24{opacity:0.51;isolation:isolate;fill:url(#linear-gradient-23);}.cls-25{fill:url(#linear-gradient-24);}</style><linearGradient id="linear-gradient" x1="-775.488" y1="231.344" x2="-775.488" y2="245.353" gradientTransform="translate(-737.585 336.484) rotate(180)" gradientUnits="userSpaceOnUse"><stop offset="0" stop-color="#190424"/><stop offset="0.094" stop-color="#710ea2"/><stop offset="0.116" stop-color="#7415a3"/><stop offset="0.148" stop-color="#7c27a7"/><stop offset="0.184" stop-color="#8a46ac"/><stop offset="0.225" stop-color="#9e70b4"/><stop offset="0.269" stop-color="#b6a6be"/><stop offset="0.273" stop-color="#b8aabf"/><stop offset="0.309" stop-color="#b7a7be"/><stop offset="0.334" stop-color="#b39ebd"/><stop offset="0.355" stop-color="#ac8fba"/><stop offset="0.375" stop-color="#a279b6"/><stop offset="0.393" stop-color="#955db1"/><stop offset="0.41" stop-color="#853baa"/><stop offset="0.426" stop-color="#7313a3"/><stop offset="0.428" stop-color="#710ea2"/><stop offset="1" stop-color="#190424"/></linearGradient><linearGradient id="linear-gradient-2" x1="-833.745" y1="231.344" x2="-833.745" y2="245.353" xlink:href="#linear-gradient"/><linearGradient id="linear-gradient-3" x1="-892.003" y1="231.344" x2="-892.003" y2="245.353" xlink:href="#linear-gradient"/><linearGradient id="linear-gradient-4" x1="241.26" y1="-156.24" x2="241.26" y2="-170.369" gradientTransform="translate(-218.096 261.38)" gradientUnits="userSpaceOnUse"><stop offset="0" stop-color="#0d7125"/><stop offset="0.092" stop-color="#13a235"/><stop offset="0.25" stop-color="#aabfaf"/><stop offset="0.587" stop-color="#0ea231"/><stop offset="0.653" stop-color="#0c892a"/><stop offset="0.814" stop-color="#08531a"/><stop offset="0.935" stop-color="#053110"/><stop offset="1" stop-color="#04240c"/></linearGradient><linearGradient id="linear-gradient-5" x1="299.517" y1="-156.24" x2="299.517" y2="-170.369" xlink:href="#linear-gradient-4"/><linearGradient id="linear-gradient-6" x1="357.775" y1="-156.24" x2="357.775" y2="-170.369" xlink:href="#linear-gradient-4"/><linearGradient id="linear-gradient-7" x1="-789.878" y1="-501.617" x2="-789.878" y2="-515.626" gradientTransform="matrix(-1, 0, 0, 1, -737.585, 606.757)" gradientUnits="userSpaceOnUse"><stop offset="0" stop-color="#241704"/><stop offset="0.094" stop-color="#a2670e"/><stop offset="0.116" stop-color="#a36a15"/><stop offset="0.148" stop-color="#a77427"/><stop offset="0.184" stop-color="#ac8446"/><stop offset="0.225" stop-color="#b49970"/><stop offset="0.269" stop-color="#beb5a6"/><stop offset="0.273" stop-color="#bfb7aa"/><stop offset="0.309" stop-color="#beb6a7"/><stop offset="0.334" stop-color="#bdb19e"/><stop offset="0.355" stop-color="#baa98f"/><stop offset="0.375" stop-color="#b69e79"/><stop offset="0.393" stop-color="#b1905d"/><stop offset="0.41" stop-color="#aa7e3b"/><stop offset="0.426" stop-color="#a36913"/><stop offset="0.428" stop-color="#a2670e"/><stop offset="1" stop-color="#241704"/></linearGradient><linearGradient id="linear-gradient-8" x1="-848.135" y1="-501.617" x2="-848.135" y2="-515.626" xlink:href="#linear-gradient-7"/><linearGradient id="linear-gradient-9" x1="-906.393" y1="-501.617" x2="-906.393" y2="-515.626" xlink:href="#linear-gradient-7"/><linearGradient id="linear-gradient-10" x1="-803.642" y1="308.692" x2="-803.642" y2="322.7" gradientTransform="translate(-737.585 413.832) rotate(180)" gradientUnits="userSpaceOnUse"><stop offset="0" stop-color="#041024"/><stop offset="0.094" stop-color="#0e47a2"/><stop offset="0.116" stop-color="#154ca3"/><stop offset="0.148" stop-color="#2758a7"/><stop offset="0.184" stop-color="#466dac"/><stop offset="0.225" stop-color="#708ab4"/><stop offset="0.269" stop-color="#a6afbe"/><stop offset="0.273" stop-color="#aab2bf"/><stop offset="0.309" stop-color="#a7b0be"/><stop offset="0.334" stop-color="#9eaabd"/><stop offset="0.355" stop-color="#8f9fba"/><stop offset="0.375" stop-color="#7991b6"/><stop offset="0.393" stop-color="#5d7db1"/><stop offset="0.41" stop-color="#3b66aa"/><stop offset="0.426" stop-color="#134aa3"/><stop offset="0.428" stop-color="#0e47a2"/><stop offset="1" stop-color="#041024"/></linearGradient><linearGradient id="linear-gradient-11" x1="-861.9" y1="308.692" x2="-861.9" y2="322.7" xlink:href="#linear-gradient-10"/><linearGradient id="linear-gradient-12" x1="255.024" y1="-327.809" x2="255.024" y2="-313.68" gradientTransform="translate(-218.096 418.733)" gradientUnits="userSpaceOnUse"><stop offset="0" stop-color="#0d3371"/><stop offset="0.092" stop-color="#134aa2"/><stop offset="0.25" stop-color="#aab2bf"/><stop offset="0.586" stop-color="#0e47a2"/><stop offset="0.653" stop-color="#0c3c89"/><stop offset="0.814" stop-color="#082453"/><stop offset="0.935" stop-color="#051631"/><stop offset="1" stop-color="#041024"/></linearGradient><linearGradient id="linear-gradient-13" x1="313.282" y1="-327.809" x2="313.282" y2="-313.68" xlink:href="#linear-gradient-12"/><linearGradient id="linear-gradient-14" x1="371.539" y1="-327.809" x2="371.539" y2="-313.68" xlink:href="#linear-gradient-12"/><linearGradient id="linear-gradient-15" x1="285.127" y1="-250.461" x2="285.127" y2="-236.332" gradientTransform="translate(-218.096 341.385)" gradientUnits="userSpaceOnUse"><stop offset="0" stop-color="#500d71"/><stop offset="0.092" stop-color="#7313a2"/><stop offset="0.25" stop-color="#b8aabf"/><stop offset="0.587" stop-color="#710ea2"/><stop offset="0.653" stop-color="#600c89"/><stop offset="0.814" stop-color="#3a0853"/><stop offset="0.935" stop-color="#220531"/><stop offset="1" stop-color="#190424"/></linearGradient><linearGradient id="linear-gradient-16" x1="343.385" y1="-250.461" x2="343.385" y2="-236.332" xlink:href="#linear-gradient-15"/><linearGradient id="linear-gradient-17" x1="-789.878" y1="165.555" x2="-789.878" y2="151.546" gradientTransform="translate(-737.585 256.479) rotate(180)" gradientUnits="userSpaceOnUse"><stop offset="0" stop-color="#04240c"/><stop offset="0.094" stop-color="#0ea231"/><stop offset="0.116" stop-color="#15a336"/><stop offset="0.148" stop-color="#27a745"/><stop offset="0.184" stop-color="#46ac5e"/><stop offset="0.225" stop-color="#70b480"/><stop offset="0.269" stop-color="#a6beac"/><stop offset="0.273" stop-color="#aabfaf"/><stop offset="0.309" stop-color="#a7bead"/><stop offset="0.334" stop-color="#9ebda5"/><stop offset="0.355" stop-color="#8fba99"/><stop offset="0.375" stop-color="#79b688"/><stop offset="0.393" stop-color="#5db171"/><stop offset="0.41" stop-color="#3baa55"/><stop offset="0.426" stop-color="#13a335"/><stop offset="0.428" stop-color="#0ea231"/><stop offset="1" stop-color="#04240c"/></linearGradient><linearGradient id="linear-gradient-18" x1="-848.135" y1="165.555" x2="-848.135" y2="151.546" xlink:href="#linear-gradient-17"/><linearGradient id="linear-gradient-19" x1="-906.393" y1="165.555" x2="-906.393" y2="151.546" xlink:href="#linear-gradient-17"/><linearGradient id="linear-gradient-20" x1="241.26" y1="510.932" x2="241.26" y2="496.803" gradientTransform="matrix(1, 0, 0, -1, -218.096, 601.856)" gradientUnits="userSpaceOnUse"><stop offset="0" stop-color="#71490d"/><stop offset="0.092" stop-color="#a26913"/><stop offset="0.25" stop-color="#bfb7aa"/><stop offset="0.586" stop-color="#a2670e"/><stop offset="0.653" stop-color="#89570c"/><stop offset="0.814" stop-color="#533508"/><stop offset="0.935" stop-color="#311f05"/><stop offset="1" stop-color="#241704"/></linearGradient><linearGradient id="linear-gradient-21" x1="299.517" y1="510.932" x2="299.517" y2="496.803" xlink:href="#linear-gradient-20"/><linearGradient id="linear-gradient-22" x1="357.775" y1="510.932" x2="357.775" y2="496.803" xlink:href="#linear-gradient-20"/><linearGradient id="linear-gradient-23" x1="5.996" y1="-33.189" x2="189.24" y2="-33.189" gradientTransform="translate(0 131.221)" gradientUnits="userSpaceOnUse"><stop offset="0" stop-color="#e5d71e"/><stop offset="0.482" stop-color="#91870e"/><stop offset="0.831" stop-color="#5a5404"/><stop offset="1" stop-color="#454000"/></linearGradient><linearGradient id="linear-gradient-24" x1="150.77" y1="-32.133" x2="149.416" y2="-29.786" gradientTransform="translate(-13.851 196.019) rotate(-30.088)" gradientUnits="userSpaceOnUse"><stop offset="0" stop-color="#f8f4ba" stop-opacity="0"/><stop offset="0.488" stop-color="#f8f4ba" stop-opacity="0.8"/><stop offset="0.547" stop-color="#f3eeaf" stop-opacity="0.741"/><stop offset="0.659" stop-color="#e5df90" stop-opacity="0.587"/><stop offset="0.813" stop-color="#cec660" stop-opacity="0.337"/><stop offset="1" stop-color="#afa51e" stop-opacity="0"/></linearGradient></defs><title>keratin_filament</title><g id="FILAMENT"><ellipse id="LEFT" class="cls-1" cx="183.244" cy="8.102" rx="3.683" ry="8.102"/><g id="CONTENT"><path class="cls-2" d="M20.965,105.12c16.937,0,4.38-14.175,29.73-14.175l4.145.01c-16.084,0-5.4,14.165-29.129,14.165Z" transform="translate(-2.313 -89.93)"/><path class="cls-3" d="M79.223,105.12c16.937,0,4.38-14.175,29.73-14.175l4.145.01c-16.084,0-5.4,14.165-29.129,14.165Z" transform="translate(-2.313 -89.93)"/><path class="cls-4" d="M137.48,105.12c16.937,0,4.38-14.175,29.73-14.175l4.145.01c-16.084,0-5.4,14.165-29.129,14.165Z" transform="translate(-2.313 -89.93)"/><path class="cls-5" d="M40.1,105.12c-16.937,0-5.852-14.175-29.129-14.175H6.226c16.084,0,4.746,14.175,29.129,14.175Z" transform="translate(-2.313 -89.93)"/><path class="cls-6" d="M98.358,105.12c-16.937,0-5.852-14.175-29.129-14.175H64.484c16.084,0,4.746,14.175,29.129,14.175Z" transform="translate(-2.313 -89.93)"/><path class="cls-7" d="M156.616,105.12c-16.937,0-5.852-14.175-29.129-14.175h-4.746c16.084,0,4.746,14.175,29.129,14.175Z" transform="translate(-2.313 -89.93)"/><path class="cls-8" d="M35.355,90.944c16.937,0,4.38,14.175,29.73,14.175l4.145-.01c-16.084,0-5.4-14.165-29.129-14.165Z" transform="translate(-2.313 -89.93)"/><path class="cls-9" d="M93.613,90.944c16.937,0,4.38,14.175,29.73,14.175l4.145-.01c-16.084,0-5.4-14.165-29.129-14.165Z" transform="translate(-2.313 -89.93)"/><path class="cls-10" d="M151.87,90.944c16.937,0,4.38,14.175,29.73,14.175l4.145-.01c-16.084,0-5.4-14.165-29.129-14.165Z" transform="translate(-2.313 -89.93)"/><path class="cls-11" d="M49.119,105.12c16.937,0,4.38-14.175,29.73-14.175l4.145.01c-16.084,0-5.4,14.165-29.129,14.165Z" transform="translate(-2.313 -89.93)"/><path class="cls-12" d="M107.377,105.12c16.937,0,4.38-14.175,29.73-14.175l4.145.01c-16.084,0-5.4,14.165-29.129,14.165Z" transform="translate(-2.313 -89.93)"/><path class="cls-13" d="M53.865,105.12c-16.937,0-5.852-14.175-29.129-14.175H19.991c16.084,0,4.746,14.175,29.129,14.175Z" transform="translate(-2.313 -89.93)"/><path class="cls-14" d="M112.123,105.12c-16.937,0-5.852-14.175-29.129-14.175H78.248c16.084,0,4.746,14.175,29.129,14.175Z" transform="translate(-2.313 -89.93)"/><path class="cls-15" d="M170.38,105.12c-16.937,0-5.852-14.175-29.129-14.175h-4.746c16.084,0,4.746,14.175,29.129,14.175Z" transform="translate(-2.313 -89.93)"/><path class="cls-16" d="M83.969,105.12c-16.937,0-5.852-14.175-29.129-14.175H50.094c16.084,0,4.746,14.175,29.129,14.175Z" transform="translate(-2.313 -89.93)"/><path class="cls-17" d="M142.226,105.12c-16.937,0-5.852-14.175-29.129-14.175h-4.746c16.084,0,4.746,14.175,29.129,14.175Z" transform="translate(-2.313 -89.93)"/><path class="cls-18" d="M35.355,105.12c16.937,0,4.38-14.175,29.73-14.175l4.145.01c-16.084,0-5.4,14.165-29.129,14.165Z" transform="translate(-2.313 -89.93)"/><path class="cls-19" d="M93.613,105.12c16.937,0,4.38-14.175,29.73-14.175l4.145.01c-16.084,0-5.4,14.165-29.129,14.165Z" transform="translate(-2.313 -89.93)"/><path class="cls-20" d="M151.87,105.12c16.937,0,4.38-14.175,29.73-14.175l4.145.01c-16.084,0-5.4,14.165-29.129,14.165Z" transform="translate(-2.313 -89.93)"/><path class="cls-21" d="M40.1,90.944c-16.937,0-5.852,14.175-29.129,14.175H6.226c16.084,0,4.746-14.175,29.129-14.175Z" transform="translate(-2.313 -89.93)"/><path class="cls-22" d="M98.358,90.944c-16.937,0-5.852,14.175-29.129,14.175H64.484c16.084,0,4.746-14.175,29.129-14.175Z" transform="translate(-2.313 -89.93)"/><path class="cls-23" d="M156.616,90.944c-16.937,0-5.852,14.175-29.129,14.175h-4.746c16.084,0,4.746-14.175,29.129-14.175Z" transform="translate(-2.313 -89.93)"/></g><path id="CILINDER" class="cls-24" d="M185.369,89.93H6c2.821,0,3.682,6.086,3.682,7.613,0,2.554-.833,8.59-3.682,8.59H185.369c2.462,0,3.871-3.559,3.871-8.1C189.24,93.565,187.761,89.93,185.369,89.93Z" transform="translate(-2.313 -89.93)"/><ellipse id="RIGHT" class="cls-1" cx="3.683" cy="8.102" rx="3.683" ry="8.102"/><path id="LIGHT" class="cls-25" d="M185.892,95a5.431,5.431,0,0,1-1.56.213l-167.7-.209c-1.7,0-3.076-.4-3.066-1.283s1.395-1.27,3.1-1.266l167.7.209c1.7,0,3.075.4,3.066,1.283C187.425,94.539,186.808,94.731,185.892,95Z" transform="translate(-2.313 -89.93)"/></g></svg>