<svg id="Layer_1" data-name="Layer 1" xmlns="http://www.w3.org/2000/svg" xmlns:xlink="http://www.w3.org/1999/xlink" viewBox="0 0 46.629 22.651"><defs><style>.cls-1{fill:url(#linear-gradient);}.cls-2{fill:#d8d369;}.cls-3{font-size:12px;fill:#fff;font-family:Arial-BoldMT, Arial;font-weight:700;}</style><linearGradient id="linear-gradient" x1="98.011" y1="108.67" x2="98.011" y2="88.67" gradientTransform="translate(-74.514 -87.583)" gradientUnits="userSpaceOnUse"><stop offset="0" stop-color="#4d7417"/><stop offset="1" stop-color="#d8d369"/></linearGradient></defs><title>MYLK</title><g id="MYLK"><rect class="cls-1" x="1.496" y="1.087" width="44" height="20" rx="10" ry="10"/><path class="cls-2" d="M112,110.154c-4.616-.009-9.231.441-13.847.858-2.308.21-4.616.4-6.923.469-1.17.052-2.272.088-3.5.083a11.123,11.123,0,0,1-3.935-.724A11.347,11.347,0,0,1,76.749,97.9a11.186,11.186,0,0,1,4.082-6.528A10.965,10.965,0,0,1,88,89.158c4.616.289,9.231.448,13.847.343,2.308-.06,4.616-.182,6.923-.35,1.165-.076,2.283-.173,3.487-.229a10.2,10.2,0,0,1,3.816.573,10.689,10.689,0,0,1,5.843,4.98,10.414,10.414,0,0,1,.87,7.541,11.036,11.036,0,0,1-4.154,5.97A11.556,11.556,0,0,1,112,110.154Zm0-.308a8.94,8.94,0,0,0,6.127-2.466,9.166,9.166,0,0,0,2.733-5.725,9.76,9.76,0,0,0-5.718-9.775,8.851,8.851,0,0,0-2.935-.779c-1.1-.1-2.294-.166-3.436-.252-2.308-.168-4.616-.29-6.923-.35-4.616-.1-9.231.055-13.847.343a9.3,9.3,0,0,0-5.59,2.423,9.083,9.083,0,0,0-2.8,5.167,8.6,8.6,0,0,0,1.069,5.64,8.8,8.8,0,0,0,4.314,3.712,7.907,7.907,0,0,0,2.816.628c1.08.042,2.287.044,3.425.107,2.308.071,4.616.259,6.923.469C102.769,109.406,107.384,109.855,112,109.846Z" transform="translate(-76.504 -88.913)"/><text class="cls-3" transform="translate(6.499 14.521)">MYLK</text></g></svg>