<svg id="Layer_1" data-name="Layer 1" xmlns="http://www.w3.org/2000/svg" xmlns:xlink="http://www.w3.org/1999/xlink" viewBox="0 0 45.579 22.541"><defs><style>.cls-1{fill:url(#linear-gradient);}.cls-2{fill:#2e8ccc;}.cls-3{font-size:12px;fill:#fff;font-family:Arial-BoldMT, Arial;font-weight:700;}</style><linearGradient id="linear-gradient" x1="22.96" y1="1.019" x2="22.96" y2="21.019" gradientUnits="userSpaceOnUse"><stop offset="0" stop-color="#2e8ccc"/><stop offset="0.227" stop-color="#59a3b3"/><stop offset="0.736" stop-color="#c5dd75"/><stop offset="1" stop-color="#fffd54"/></linearGradient></defs><title>R-ICO-013810</title><g id="LIPE"><rect class="cls-1" x="1.46" y="1.019" width="43" height="20" rx="10"/><path class="cls-2" d="M111.49,110.15c-4.532-.009-9.064.43-13.6.837-2.266.2-4.532.388-6.8.457-.567.02-1.133.054-1.7.062l-.85.016-.971-.03a11.716,11.716,0,0,1-3.808-.912,11.323,11.323,0,0,1-6.439-12.958A11.18,11.18,0,0,1,81.45,91.3a10.907,10.907,0,0,1,7.04-2.125c4.533.281,9.065.436,13.6.335,2.266-.059,4.532-.178,6.8-.342l1.7-.118.85-.058.933-.015a10.761,10.761,0,0,1,3.7.759,10.624,10.624,0,0,1,5.5,5.128,10.352,10.352,0,0,1,.628,7.414,11.056,11.056,0,0,1-4.188,5.778A11.523,11.523,0,0,1,111.49,110.15Zm0-.3a8.907,8.907,0,0,0,6.039-2.387,9.216,9.216,0,0,0,2.8-5.581,9.823,9.823,0,0,0-5.286-9.864A9.583,9.583,0,0,0,112.2,91.1l-.765-.1-.85-.058-1.7-.118c-2.267-.164-4.533-.283-6.8-.342-4.532-.1-9.064.054-13.6.335a9.3,9.3,0,0,0-5.523,2.352A9.16,9.16,0,0,0,80.1,98.215a8.6,8.6,0,0,0,.885,5.6,8.822,8.822,0,0,0,4.092,3.851,8.592,8.592,0,0,0,2.742.765l.726.051.85.016c.567.008,1.133.042,1.7.062,2.266.069,4.532.252,6.8.457C102.426,109.42,106.958,109.859,111.49,109.85Z" transform="translate(-77.03 -88.981)"/><text id="LIPE-2" data-name="LIPE" class="cls-3" transform="translate(9.624 13.904)">LIPE</text></g></svg>