<svg id="Layer_1" data-name="Layer 1" xmlns="http://www.w3.org/2000/svg" xmlns:xlink="http://www.w3.org/1999/xlink" viewBox="0 0 65.726 22.634"><defs><style>.cls-1{fill:url(#linear-gradient);}.cls-2{fill:#d761e9;}.cls-3{font-size:12px;fill:#fff;font-family:Arial-BoldMT, Arial;font-weight:700;}</style><linearGradient id="linear-gradient" x1="32.894" y1="21.028" x2="32.894" y2="1.028" gradientUnits="userSpaceOnUse"><stop offset="0" stop-color="#9e9b38"/><stop offset="0.999" stop-color="#d761e9"/></linearGradient></defs><title>IRAK_1_2_4</title><g id="IRAK_1_2_4" data-name="IRAK 1, 2, 4"><rect class="cls-1" x="1.394" y="1.028" width="63" height="20" rx="10" ry="10"/><path class="cls-2" d="M121.5,110.15c-6.2-.01-12.4.4-18.6.793-6.2.448-12.4.588-18.6.639-1.55.029-3.1.027-4.649.021l-1.163,0c-.448-.027-.9-.03-1.345-.087a11.248,11.248,0,0,1-2.616-.637,11.565,11.565,0,0,1-7-7.595,11.314,11.314,0,0,1,1.93-10.014A11.016,11.016,0,0,1,78.5,88.98c12.4.515,24.8.846,37.194.241l4.649-.2,1.163-.049c.426.01.857-.006,1.284.032a10.707,10.707,0,0,1,2.528.525,11,11,0,0,1,7.04,7.223,10.364,10.364,0,0,1,.249,5.21,10.608,10.608,0,0,1-.9,2.446,10.4,10.4,0,0,1-1.5,2.076,11.111,11.111,0,0,1-4.067,2.753A12.8,12.8,0,0,1,121.5,110.15Zm0-.3a8.215,8.215,0,0,0,4.32-1.241,8.644,8.644,0,0,0,2.982-3.175,10.654,10.654,0,0,0,.99-7.91,9.2,9.2,0,0,0-5.274-5.816,8.887,8.887,0,0,0-1.979-.563c-.34-.061-.688-.073-1.034-.116l-1.162-.05-4.649-.2c-12.4-.605-24.8-.275-37.194.241a9.073,9.073,0,0,0-6.968,3.8,8.54,8.54,0,0,0,4.1,13.073,8.353,8.353,0,0,0,1.891.451c.322.042.65.035.974.061l1.161,0c1.55-.006,3.1-.008,4.649.021,6.2.05,12.4.191,18.6.639C109.1,109.454,115.3,109.86,121.5,109.85Z" transform="translate(-67.106 -88.972)"/><text class="cls-3" transform="translate(4.884 13.917)">IRAK1,2,4</text></g></svg>