<svg id="Layer_1" data-name="Layer 1" xmlns="http://www.w3.org/2000/svg" xmlns:xlink="http://www.w3.org/1999/xlink" viewBox="0 0 69 156.371"><defs><style>.cls-1{fill:url(#linear-gradient);}.cls-2{fill:url(#linear-gradient-2);}.cls-3{fill:url(#linear-gradient-3);}.cls-4{fill:url(#linear-gradient-4);}.cls-5{fill:url(#radial-gradient);}.cls-6{fill:url(#linear-gradient-5);}.cls-7{mask:url(#mask);}.cls-8{fill:url(#radial-gradient-2);}.cls-9{mask:url(#mask-2);}.cls-10{fill:url(#radial-gradient-3);}.cls-11{fill:#821c67;}.cls-12{fill:url(#radial-gradient-4);}.cls-13{fill:url(#linear-gradient-6);}.cls-14{mask:url(#mask-3);}.cls-15{fill:url(#radial-gradient-5);}.cls-16{mask:url(#mask-4);}.cls-17{fill:url(#radial-gradient-6);}</style><linearGradient id="linear-gradient" x1="-38" y1="262.95" x2="-38" y2="271.751" gradientTransform="translate(54 342.755) rotate(180)" gradientUnits="userSpaceOnUse"><stop offset="0"/><stop offset="0.217" stop-color="#4a4a4a"/><stop offset="0.427" stop-color="#8b8b8b"/><stop offset="0.617" stop-color="#bdbdbd"/><stop offset="0.781" stop-color="#e1e1e1"/><stop offset="0.914" stop-color="#f7f7f7"/><stop offset="1" stop-color="#fff"/></linearGradient><linearGradient id="linear-gradient-2" x1="124" y1="364.314" x2="124" y2="373.115" gradientTransform="translate(-32 -195.462)" xlink:href="#linear-gradient"/><linearGradient id="linear-gradient-3" x1="108" y1="168.851" x2="108" y2="177.653" gradientTransform="matrix(1, 0, 0, 1, 0, 0)" xlink:href="#linear-gradient"/><linearGradient id="linear-gradient-4" x1="-54.093" y1="262.95" x2="-54.093" y2="271.903" gradientTransform="translate(54 342.755) rotate(180)" gradientUnits="userSpaceOnUse"><stop offset="0"/><stop offset="0.332" stop-color="#636363"/><stop offset="0.722" stop-color="#d2d2d2"/><stop offset="0.895" stop-color="#fff"/></linearGradient><radialGradient id="radial-gradient" cx="100.125" cy="48.124" r="34.42" gradientUnits="userSpaceOnUse"><stop offset="0.713" stop-color="#284985"/><stop offset="1" stop-color="#c593db"/></radialGradient><linearGradient id="linear-gradient-5" x1="96.973" y1="124.329" x2="86.894" y2="124.329" gradientUnits="userSpaceOnUse"><stop offset="0" stop-color="#284985"/><stop offset="1" stop-color="#c593db"/></linearGradient><mask id="mask" x="21.399" y="49.157" width="10.101" height="8.858" maskUnits="userSpaceOnUse"><g transform="translate(-65.5 -21.814)"><path class="cls-1" d="M87,79.83V75.972a5,5,0,0,1,10,0V79.83"/></g></mask><radialGradient id="radial-gradient-2" cx="-34.798" cy="265.552" r="6.944" gradientTransform="translate(54 346.351) rotate(180) scale(1 1.014)" gradientUnits="userSpaceOnUse"><stop offset="0" stop-color="#c593db"/><stop offset="0.198" stop-color="#a182c7"/><stop offset="0.579" stop-color="#6063a4"/><stop offset="0.857" stop-color="#37508d"/><stop offset="1" stop-color="#284985"/></radialGradient><mask id="mask-2" x="21.5" y="147.013" width="10" height="8.733" maskUnits="userSpaceOnUse"><g transform="translate(-65.5 -21.814)"><path class="cls-2" d="M97,168.828v3.858a5,5,0,0,1-10,0v-3.858"/></g></mask><radialGradient id="radial-gradient-3" cx="123.741" cy="358.315" r="6.848" gradientTransform="translate(-32 -649.266) scale(1 2.266)" xlink:href="#radial-gradient-2"/><radialGradient id="radial-gradient-4" cx="100.144" cy="48.469" r="34.693" gradientUnits="userSpaceOnUse"><stop offset="0.698" stop-color="#c593db"/><stop offset="1" stop-color="#284985"/></radialGradient><linearGradient id="linear-gradient-6" x1="112.973" y1="124.329" x2="102.894" y2="124.329" xlink:href="#linear-gradient-5"/><mask id="mask-3" x="37.5" y="147.013" width="10" height="8.733" maskUnits="userSpaceOnUse"><g transform="translate(-65.5 -21.814)"><path class="cls-3" d="M113,168.828v3.858a5,5,0,0,1-10,0v-3.858"/></g></mask><radialGradient id="radial-gradient-5" cx="107.741" cy="162.853" r="6.848" gradientTransform="translate(0 -206.252) scale(1 2.266)" xlink:href="#radial-gradient-2"/><mask id="mask-4" x="37.5" y="49.133" width="10.186" height="8.882" maskUnits="userSpaceOnUse"><g transform="translate(-65.5 -21.814)"><path class="cls-4" d="M103,79.83V75.972a5.066,5.066,0,0,1,5-5.025,5.173,5.173,0,0,1,5.186,4.958L113,79.83"/></g></mask><radialGradient id="radial-gradient-6" cx="-54.543" cy="257.524" r="6.848" gradientTransform="translate(54 668.907) rotate(180) scale(1 2.266)" gradientUnits="userSpaceOnUse"><stop offset="0" stop-color="#284985"/><stop offset="0.32" stop-color="#6465a6"/><stop offset="0.635" stop-color="#997ec3"/><stop offset="0.87" stop-color="#b98dd4"/><stop offset="1" stop-color="#c593db"/></radialGradient></defs><title>IFNAR</title><g id="IFNAR"><g id="IFNAR1"><path class="cls-5" d="M92,177.686a5,5,0,0,1-5-5V79.239a34.118,34.118,0,0,1-11.042-7.381,34,34,0,0,1,0-48.083,5,5,0,0,1,7.071,7.071A24.01,24.01,0,0,0,93.162,70.828l.26.077A5,5,0,0,1,97,75.7v96.987A5,5,0,0,1,92,177.686Z" transform="translate(-65.5 -21.814)"/><path class="cls-6" d="M92,177.561a4.938,4.938,0,0,1-5-4.875V75.972a5,5,0,0,1,10,0v96.714A4.938,4.938,0,0,1,92,177.561Z" transform="translate(-65.5 -21.814)"/><g class="cls-7"><path class="cls-8" d="M87,79.83l-.1-3.972A5.037,5.037,0,0,1,92,70.971a4.766,4.766,0,0,1,5,5V79.83" transform="translate(-65.5 -21.814)"/></g><g class="cls-9"><path class="cls-10" d="M97,168.828v3.858a5,5,0,0,1-10,0v-3.858" transform="translate(-65.5 -21.814)"/></g><path class="cls-11" d="M92,178.186a5.507,5.507,0,0,1-5.5-5.5V79.571a34.505,34.505,0,0,1-10.9-56.15A5.5,5.5,0,0,1,83.383,31.2,23.51,23.51,0,0,0,93.3,70.348l.26.077A5.533,5.533,0,0,1,97.5,75.7v96.987A5.507,5.507,0,0,1,92,178.186ZM79.494,22.814a4.489,4.489,0,0,0-3.182,1.315,33.5,33.5,0,0,0,0,47.375,33.851,33.851,0,0,0,10.879,7.273l.309.128v93.781a4.5,4.5,0,1,0,9,0V75.7a4.526,4.526,0,0,0-3.22-4.314l-.26-.077A24.5,24.5,0,0,1,82.676,30.493a4.5,4.5,0,0,0-3.182-7.679Z" transform="translate(-65.5 -21.814)"/></g><g id="IFNAR2"><path class="cls-12" d="M108,177.561a5,5,0,0,0,5-5V79.239a34.118,34.118,0,0,0,11.042-7.381,34,34,0,0,0,0-48.083,5,5,0,1,0-7.071,7.071,24.01,24.01,0,0,1-10.132,39.981l-.26.077A5,5,0,0,0,103,75.7v96.862A5,5,0,0,0,108,177.561Z" transform="translate(-65.5 -21.814)"/><path class="cls-13" d="M108,177.561a4.938,4.938,0,0,1-5-4.875V75.972a5,5,0,0,1,10,0v96.714A4.938,4.938,0,0,1,108,177.561Z" transform="translate(-65.5 -21.814)"/><g class="cls-14"><path class="cls-15" d="M113,168.828v3.858a5,5,0,0,1-10,0v-3.858" transform="translate(-65.5 -21.814)"/></g><g class="cls-16"><path class="cls-17" d="M103,79.83V75.972a5,5,0,0,1,10,0v3.267" transform="translate(-65.5 -21.814)"/></g><path class="cls-11" d="M108,178.061a5.507,5.507,0,0,1-5.5-5.5V75.7a5.533,5.533,0,0,1,3.936-5.273l.259-.077A23.5,23.5,0,0,0,116.617,31.2a5.5,5.5,0,1,1,7.778-7.778,34.513,34.513,0,0,1-10.9,56.15v92.989A5.507,5.507,0,0,1,108,178.061ZM120.506,22.814a4.5,4.5,0,0,0-3.182,7.679A24.51,24.51,0,0,1,106.98,71.307l-.259.077A4.526,4.526,0,0,0,103.5,75.7v96.862a4.5,4.5,0,0,0,9,0V78.9l.309-.128A33.851,33.851,0,0,0,123.688,71.5a33.5,33.5,0,0,0,0-47.375A4.489,4.489,0,0,0,120.506,22.814Z" transform="translate(-65.5 -21.814)"/></g></g></svg>