<svg id="Layer_1" data-name="Layer 1" xmlns="http://www.w3.org/2000/svg" xmlns:xlink="http://www.w3.org/1999/xlink" viewBox="0 0 87.478 96.333"><defs><style>.cls-1{fill:url(#radial-gradient);}.cls-2{fill:#272e87;}.cls-3{fill:url(#radial-gradient-2);}.cls-4{fill:#935491;}</style><radialGradient id="radial-gradient" cx="45.234" cy="259.715" r="46.215" gradientTransform="matrix(0.924, 0.771, -0.572, 1.084, 195.543, -224.789)" gradientUnits="userSpaceOnUse"><stop offset="0.001" stop-color="#c6cce0"/><stop offset="1" stop-color="#4482bb"/></radialGradient><radialGradient id="radial-gradient-2" cx="94.892" cy="4.029" r="15.483" gradientTransform="translate(-56.261 15.871) scale(1 1.386)" gradientUnits="userSpaceOnUse"><stop offset="0.001" stop-color="#c6cce0"/><stop offset="1" stop-color="#6b76aa"/></radialGradient></defs><title>Cytotoxic_T_Lymphocyte</title><g id="Cytotoxic_T_Lymphocyte"><g id="BG"><path class="cls-1" d="M59.856,82.979c2.118-5.512,7.868-13.094,11.434-17.289,6.334-7.48,11.754-6.2,21-10.678,7.977-3.854,17.067-1.957,25.416,1.251,9.076,3.487,14.5,10.255,19.171,18.314a43.649,43.649,0,0,1,5.843,25.8c-.335,4.92.543,10.7-1.336,15.589-3,7.817-8.419,14.494-15.167,16.478-4.654,1.359-10.021,8.527-15,10.506-9.591,3.811-18.1,7.005-27.384,1.506-4.8-2.849-11.089-3.592-15.3-8.25a53.63,53.63,0,0,1-10.775-19.178c-1.378-4.8.047-11.523.241-16.724C58.194,94.884,57.784,88.371,59.856,82.979Z" transform="translate(-56.261 -51.834)"/><path id="MEMBRANE" class="cls-2" d="M59.433,82.816c-.153.4-.273.807-.4,1.213l-.015.04c-.015.04-.025.1-.04.137-.045.15-.1.282-.13.436A32.078,32.078,0,0,0,57.5,91.593c-.242,2.507-.258,4.979-.356,7.4-.055,2.411-.31,4.792-.574,7.291a46.692,46.692,0,0,0-.241,7.525A17.58,17.58,0,0,0,57,117.521a32,32,0,0,0,1.216,3.28,45.089,45.089,0,0,0,3.012,5.764,53.781,53.781,0,0,0,6.96,10.064c.05.065.121.107.17.172a16.338,16.338,0,0,0,4.005,3.47c3.041,1.9,6.423,2.878,9.445,4.374a49.684,49.684,0,0,0,4.7,2.308,18.78,18.78,0,0,0,5.241,1.162,19.7,19.7,0,0,0,4.962-.283,42.055,42.055,0,0,0,10.218-2.658c1.331-.355,2.65-.776,3.958-1.232a15.308,15.308,0,0,0,4.153-2.16c1.3-.916,2.5-1.943,3.689-2.962,1.171-1.04,2.332-2.054,3.495-3.006a16.761,16.761,0,0,1,3.573-2.368l.463-.2.523-.194c.352-.138.709-.29,1.049-.464a18.118,18.118,0,0,0,1.917-1.1,27.158,27.158,0,0,0,10.234-11.349,40.715,40.715,0,0,0,1.977-4.045,20.11,20.11,0,0,0,1.229-5.078c.411-3.4.184-6.665.357-9.837a52.4,52.4,0,0,0-.084-9.885,42.627,42.627,0,0,0-2.158-9.314,43.855,43.855,0,0,0-3.967-8.169,54.965,54.965,0,0,0-4.813-6.745A33.717,33.717,0,0,0,118.8,56.133l-.032-.013a52.2,52.2,0,0,0-8.152-3.01,33.528,33.528,0,0,0-8.743-1.276A22.977,22.977,0,0,0,92.723,53.7c-.778.34-1.448.66-2.146.985-.7.308-1.417.611-2.121.888-1.423.563-2.871,1.026-4.328,1.515-2.894.956-5.987,1.881-8.8,3.9a20.17,20.17,0,0,0-3.833,3.53c-1.091,1.253-2.052,2.556-3.03,3.869C65.636,72.017,61.281,78.007,59.433,82.816ZM75.967,62.393a31.562,31.562,0,0,1,8.444-3.354c1.475-.437,2.954-.918,4.436-1.473.741-.278,1.482-.586,2.212-.9.724-.33,1.48-.678,2.146-.954a21.909,21.909,0,0,1,8.493-1.83,36.241,36.241,0,0,1,8.487.874,68.206,68.206,0,0,1,7.866,2.232,32.845,32.845,0,0,1,13.685,10.732,80.114,80.114,0,0,1,4.391,7.131,45.363,45.363,0,0,1,5.512,16.973,53.582,53.582,0,0,1,.168,9.507c-.067,3.35.184,6.518-.038,9.686a18.644,18.644,0,0,1-.9,4.628,36.167,36.167,0,0,1-1.846,4.384,25.7,25.7,0,0,1-9.661,10.505,14.458,14.458,0,0,1-1.786.7l-.994.287c-.316.076-.679.18-1.063.306-3.02,1.059-5.412,3.333-7.773,5.3-1.166,1.027-2.327,2.04-3.507,2.94a17.3,17.3,0,0,1-3.656,2.26l-3.955,1.841a41.594,41.594,0,0,1-9.511,2.5,24.239,24.239,0,0,1-5.038-.263,21.1,21.1,0,0,1-4.8-1.421c-1.562-.631-2.931-1.537-4.562-2.376-3.216-1.54-6.553-2.411-9.585-3.911a18.227,18.227,0,0,1-4.086-2.741c-.05-.065-.121-.107-.17-.172a51.723,51.723,0,0,1-6.81-9.839,64.812,64.812,0,0,1-2.506-6.011c-.373-1.071-.708-2.142-1-3.228A14.845,14.845,0,0,1,58.1,113.4a49.171,49.171,0,0,1,.34-7.168c.222-2.424.484-4.984.49-7.46s-.019-4.873.036-7.284a32.7,32.7,0,0,1,.881-6.99c.135-.45.276-.913.444-1.35,1.568-4.081,5.258-9.505,8.832-14.047C71.26,66.545,73.4,63.991,75.967,62.393Z" transform="translate(-56.261 -51.834)"/></g><g id="Nucleus"><circle id="NUCLEUS-2" data-name="NUCLEUS" class="cls-3" cx="43.739" cy="25.223" r="15.638"/><path class="cls-4" d="M100,93.208a16.151,16.151,0,1,1,16.151-16.151A16.165,16.165,0,0,1,100,93.208Zm0-31.292a15.141,15.141,0,1,0,15.141,15.141A15.16,15.16,0,0,0,100,61.916Z" transform="translate(-56.261 -51.834)"/></g></g></svg>