<svg id="Layer_1" data-name="Layer 1" xmlns="http://www.w3.org/2000/svg" xmlns:xlink="http://www.w3.org/1999/xlink" viewBox="0 0 53.4 22.83"><defs><style>.cls-1{fill:url(#linear-gradient);}.cls-2{fill:#090;}.cls-3{font-size:12px;fill:#fff;font-family:Arial-BoldMT, Arial;font-weight:700;}.cls-4{letter-spacing:-0.037em;}</style><linearGradient id="linear-gradient" x1="26.919" y1="1.24" x2="26.919" y2="21.24" gradientUnits="userSpaceOnUse"><stop offset="0.001" stop-color="#090"/><stop offset="1" stop-color="#4200a8"/></linearGradient></defs><title>DIP13A</title><g id="DIP13A"><rect class="cls-1" x="1.419" y="1.24" width="51" height="20" rx="10" ry="10"/><path class="cls-2" d="M115.4,109.926c-5.2-.009-10.4.43-15.6.837-5.213.453-10.367.557-15.628.6a11.389,11.389,0,0,1-11.188-11.7,11.05,11.05,0,0,1,3.539-7.84A10.875,10.875,0,0,1,84.4,88.955c5.2.282,10.4.437,15.6.335,5.21-.08,10.374-.584,15.621-.752a10.693,10.693,0,0,1,7.9,3.357,10.558,10.558,0,0,1,2.837,7.988,10.78,10.78,0,0,1-3.653,7.262A11.107,11.107,0,0,1,115.4,109.926Zm0-.3a9.078,9.078,0,0,0,9.039-9.762,9.549,9.549,0,0,0-8.87-8.829c-5.15-.208-10.384-.683-15.573-.772s-10.4.053-15.6.335a9.149,9.149,0,0,0-6.179,2.939,8.848,8.848,0,0,0-2.4,6.157,8.662,8.662,0,0,0,8.415,8.474c2.537.074,5.182.058,7.767.165,2.6.069,5.2.252,7.8.457C105,109.2,110.2,109.635,115.4,109.626Z" transform="translate(-72.982 -88.536)"/><text class="cls-3" transform="translate(6.765 14.133)">DIP13<tspan class="cls-4" x="33.352" y="0">A</tspan></text></g></svg>