<svg id="Layer_1" data-name="Layer 1" xmlns="http://www.w3.org/2000/svg" xmlns:xlink="http://www.w3.org/1999/xlink" viewBox="0 0 125.683 124.108"><defs><style>.cls-1{fill:url(#radial-gradient);}.cls-2{fill:#821026;}.cls-3{fill:url(#radial-gradient-2);}.cls-4{fill:#2d8391;}</style><radialGradient id="radial-gradient" cx="79.868" cy="54.644" r="60.505" gradientTransform="matrix(1, 0, 0, -1.386, 0, 161.072)" gradientUnits="userSpaceOnUse"><stop offset="0.001" stop-color="#ffd1dc"/><stop offset="0.019" stop-color="#fecdd6"/><stop offset="0.132" stop-color="#f6b7b6"/><stop offset="0.256" stop-color="#f0a59b"/><stop offset="0.389" stop-color="#eb9786"/><stop offset="0.539" stop-color="#e88e77"/><stop offset="0.718" stop-color="#e6886f"/><stop offset="1" stop-color="#e5866c"/></radialGradient><radialGradient id="radial-gradient-2" cx="92.238" cy="-0.946" r="9.506" gradientTransform="matrix(1, 0, 0, -1.386, -37.052, 98.445)" gradientUnits="userSpaceOnUse"><stop offset="0.001" stop-color="#ffd1dc"/><stop offset="0.016" stop-color="#f8ceda"/><stop offset="0.113" stop-color="#d2bed2"/><stop offset="0.217" stop-color="#b1b0ca"/><stop offset="0.328" stop-color="#96a5c4"/><stop offset="0.449" stop-color="#819cc0"/><stop offset="0.584" stop-color="#7296bd"/><stop offset="0.745" stop-color="#6a92bb"/><stop offset="1" stop-color="#6791ba"/></radialGradient></defs><title>plasma_cell</title><g id="PLASMA_CELL"><path class="cls-1" d="M159.851,99.987c3.877,17.89,2.233,26.209-20.916,45.849a61.335,61.335,0,0,1-39.78,14.855c-15.9,0-27.673-8.246-38.5-18.25-11.992-11.092-22.2-24.827-22.2-42.447,0-12.033,5.08-19.321,11.125-28.761C60.373,54.391,68.971,39.3,99.163,39.3c12.09,0,22.52,5.08,32.81,9.628C155.859,59.454,153.086,68.8,159.851,99.987Z" transform="translate(-37.052 -37.941)"/><path class="cls-2" d="M162.723,112.052a51.286,51.286,0,0,0-1.276-9.293l-.474-1.939c-.556-2.274-1.129-4.622-1.759-6.929l-.4-2.814c-.663-4.671-1.35-9.505-2.25-14.258q-.147-.663-.27-1.325c-.2-.965-.393-1.971-.663-2.945l-.556-2.143L154.4,68.3a29.61,29.61,0,0,0-4.008-8,11.109,11.109,0,0,0-1.1-1.391c-.123-.139-.237-.27-.36-.417l-.254-.294a12.14,12.14,0,0,0-1.309-1.366L145.7,55.291l-2.7-2-2.822-1.734c-1.292-.712-2.634-1.391-3.918-2.029l-1.4-.622c-.859-.384-1.718-.761-2.585-1.137l-4-1.628-1.031-.4c-2.3-.892-4.671-1.824-7.076-2.585a55.312,55.312,0,0,0-16.434-4.9,39.4,39.4,0,0,0-4.368-.311l-4.3.041a67.632,67.632,0,0,0-8.589.924,48.78,48.78,0,0,0-8.417,2.274,40.566,40.566,0,0,0-7.787,3.959,43.609,43.609,0,0,0-12.09,12.237,117.951,117.951,0,0,0-7.019,9.538l-.434.63q-1.018,1.534-2.045,3.043c-1.636,2.421-3.321,4.924-4.883,7.477A46.489,46.489,0,0,0,38.418,89.77a38.7,38.7,0,0,0-1.284,12.9,45.97,45.97,0,0,0,2.593,12.646,52.576,52.576,0,0,0,5.808,11.452c4.164,6.307,9.677,12.164,17.334,18.438a68.5,68.5,0,0,0,14.1,10.92,46.569,46.569,0,0,0,8.278,3.706A45.072,45.072,0,0,0,94.14,161.8a50.3,50.3,0,0,0,5.1.254,56.044,56.044,0,0,0,12.859-1.538,55.233,55.233,0,0,0,16.5-6.847,59.284,59.284,0,0,0,7.976-4.679c2.02-1.407,3.926-2.994,5.759-4.532.491-.409.982-.818,1.489-1.235a81.546,81.546,0,0,0,12.916-13.35,31.736,31.736,0,0,0,4.532-8.385A26.451,26.451,0,0,0,162.723,112.052ZM127.99,152.625a68.891,68.891,0,0,1-16.426,5.481,58.8,58.8,0,0,1-17.137.883,46.552,46.552,0,0,1-16.278-5.023,91.793,91.793,0,0,1-14.487-9.644c-7.19-6.855-12.287-12.851-16.041-18.863a48.5,48.5,0,0,1-7.64-22.929,36.852,36.852,0,0,1,1.1-11.992,46.4,46.4,0,0,1,4.851-11.158c1.268-2.2,2.626-4.417,3.951-6.56q1.276-2.074,2.544-4.164c2.552-4.286,4.622-7.526,6.716-10.5a65.508,65.508,0,0,1,5.832-5.963,41.779,41.779,0,0,1,6.61-4.908,44.4,44.4,0,0,1,15.395-5.546c.973-.213,1.988-.335,2.978-.466.368-.049.744-.1,1.1-.147.81-.1,1.652-.164,2.47-.221.564-.041,1.129-.082,1.652-.131l4.18-.147c1.276-.008,2.626.033,4.115.139a70.442,70.442,0,0,1,16.237,3.558c2.634,1.227,5.211,2.429,7.747,3.7l3.877,1.873,3.812,1.9c1.235.7,2.479,1.382,3.673,2.078l2.626,1.71,2.454,1.9,1.546,1.456a9.948,9.948,0,0,1,1.1,1.162l.254.294c.115.139.237.278.352.409a8.5,8.5,0,0,1,.924,1.2,27.456,27.456,0,0,1,3.73,7.28,57.625,57.625,0,0,1,1.922,6.536c.131.532.27,1.063.4,1.571l1.89,8.409.466,2c.483,2.094.99,4.262,1.546,6.38.237,1.611.507,3.239.769,4.818a77.311,77.311,0,0,1,1.44,13.121,26.868,26.868,0,0,1-5.816,16.164,27.669,27.669,0,0,1-1.816,2.348c-.319.384-.638.769-.924,1.129-.728.834-1.489,1.652-2.241,2.47l-.785.851c-.384.384-.769.777-1.153,1.162-.679.687-1.358,1.382-2.045,2.053l-3.288,3.125c-.736.654-1.456,1.317-2.184,1.98-1.489,1.366-3.027,2.773-4.63,4.049A79.018,79.018,0,0,1,127.99,152.625Z" transform="translate(-37.052 -37.941)"/><circle class="cls-3" cx="58.324" cy="102.055" r="9.603"/><path class="cls-4" d="M95.376,150.008A10.012,10.012,0,1,1,105.388,140,10.023,10.023,0,0,1,95.376,150.008Zm0-19.207A9.194,9.194,0,1,0,104.57,140,9.2,9.2,0,0,0,95.376,130.8Z" transform="translate(-37.052 -37.941)"/></g></svg>