<svg id="Layer_1" data-name="Layer 1" xmlns="http://www.w3.org/2000/svg" xmlns:xlink="http://www.w3.org/1999/xlink" viewBox="0 0 23.193 50.738"><defs><style>.cls-1{fill:#78217a;}.cls-2{fill:url(#radial-gradient);}.cls-3{fill:url(#radial-gradient-2);}.cls-4{fill:url(#radial-gradient-3);}.cls-5{fill:url(#radial-gradient-4);}</style><radialGradient id="radial-gradient" cx="-64.434" cy="-1308.439" r="5.515" gradientTransform="matrix(-0.223, -0.975, -0.623, 0.143, -736.674, 217.276)" gradientUnits="userSpaceOnUse"><stop offset="0" stop-color="#e7aed2"/><stop offset="1" stop-color="#78217a"/></radialGradient><radialGradient id="radial-gradient-2" cx="-89.205" cy="-1124.167" r="5.515" gradientTransform="matrix(-0.245, -0.97, -0.693, 0.175, -711.759, 193.597)" xlink:href="#radial-gradient"/><radialGradient id="radial-gradient-3" cx="-76.079" cy="-1221.118" r="5.515" gradientTransform="matrix(-0.224, -0.975, -0.654, 0.15, -710.413, 203.205)" xlink:href="#radial-gradient"/><radialGradient id="radial-gradient-4" cx="35.979" cy="-1478.976" r="6.206" gradientTransform="matrix(-0.126, -0.992, -0.588, 0.075, -762.52, 229.67)" xlink:href="#radial-gradient"/></defs><title>GPVI</title><g id="GPVI"><path class="cls-1" d="M91.3,125.2h0a1.473,1.473,0,0,1-1.5-1.5l.9-29.4a1.5,1.5,0,0,1,3,0l-.9,29.4A1.612,1.612,0,0,1,91.3,125.2Z" transform="translate(-84.654 -74.862)"/><path class="cls-2" d="M95.5,91.9c.6,3.7-.7,6.9-2.9,7.3s-4.5-2.3-5.1-6,.7-6.9,2.9-7.3C92.5,85.6,94.9,88.2,95.5,91.9Z" transform="translate(-84.654 -74.862)"/><path class="cls-3" d="M92.8,80.9c.6,3.7-.7,6.9-2.9,7.3s-4.5-2.3-5.1-6,.7-6.9,2.9-7.3C90,74.5,92.2,77.3,92.8,80.9Z" transform="translate(-84.654 -74.862)"/><path class="cls-1" d="M103.4,125.6h0a1.5,1.5,0,0,1-1.5-1.6l1-29.4a1.451,1.451,0,0,1,2.9.1l-1,29.4A1.391,1.391,0,0,1,103.4,125.6Z" transform="translate(-84.654 -74.862)"/><path class="cls-4" d="M107.7,92.3c.6,3.7-.7,6.9-2.9,7.3s-4.5-2.3-5.1-6,.7-6.9,2.9-7.3C104.9,85.9,107.1,88.6,107.7,92.3Z" transform="translate(-84.654 -74.862)"/><path class="cls-5" d="M105.1,81.3c.6,3.7-.7,6.9-2.9,7.3s-4.5-2.3-5.1-6,.7-6.9,2.9-7.3C102.2,75,104.5,77.7,105.1,81.3Z" transform="translate(-84.654 -74.862)"/></g></svg>