<svg id="Layer_1" data-name="Layer 1" xmlns="http://www.w3.org/2000/svg" xmlns:xlink="http://www.w3.org/1999/xlink" viewBox="0 0 82.275 17"><defs><style>.cls-1{fill:url(#linear-gradient);}.cls-2{fill:url(#linear-gradient-2);}.cls-3{fill:url(#linear-gradient-3);}.cls-4{fill:url(#linear-gradient-4);}.cls-5{fill:url(#linear-gradient-5);}.cls-6{fill:url(#linear-gradient-6);}.cls-7{fill:url(#linear-gradient-7);}.cls-8{fill:url(#linear-gradient-8);}.cls-9{fill:url(#linear-gradient-9);}.cls-10{fill:url(#linear-gradient-10);}.cls-11{fill:url(#linear-gradient-11);}.cls-12{fill:url(#linear-gradient-12);}</style><linearGradient id="linear-gradient" x1="-804.21" y1="33.782" x2="-804.21" y2="16.982" gradientTransform="translate(-737.585 125.258) rotate(180)" gradientUnits="userSpaceOnUse"><stop offset="0" stop-color="#240413"/><stop offset="0.398" stop-color="#a20e52"/><stop offset="0.727" stop-color="#f9c0da"/><stop offset="0.887" stop-color="#a20e52"/><stop offset="1" stop-color="#240413"/></linearGradient><linearGradient id="linear-gradient-2" x1="-817.56" y1="33.782" x2="-817.56" y2="16.982" gradientTransform="translate(-737.585 125.258) rotate(180)" gradientUnits="userSpaceOnUse"><stop offset="0" stop-color="#240410"/><stop offset="0.572" stop-color="#db0e5d"/><stop offset="0.581" stop-color="#e02970"/><stop offset="0.596" stop-color="#e6518c"/><stop offset="0.613" stop-color="#ec73a4"/><stop offset="0.63" stop-color="#f18fb8"/><stop offset="0.649" stop-color="#f4a5c7"/><stop offset="0.669" stop-color="#f7b4d2"/><stop offset="0.693" stop-color="#f9bdd8"/><stop offset="0.727" stop-color="#f9c0da"/><stop offset="0.745" stop-color="#f5a6c8"/><stop offset="0.786" stop-color="#ec70a2"/><stop offset="0.823" stop-color="#e44684"/><stop offset="0.857" stop-color="#df276f"/><stop offset="0.886" stop-color="#dc1562"/><stop offset="0.906" stop-color="#db0e5d"/><stop offset="1" stop-color="#240410"/></linearGradient><linearGradient id="linear-gradient-3" x1="284.721" y1="-21.635" x2="284.721" y2="-38.579" gradientTransform="translate(-218.096 130.159)" xlink:href="#linear-gradient-2"/><linearGradient id="linear-gradient-4" x1="-830.91" y1="33.782" x2="-830.91" y2="16.982" xlink:href="#linear-gradient"/><linearGradient id="linear-gradient-5" x1="298.071" y1="-21.635" x2="298.071" y2="-38.579" gradientTransform="translate(-218.096 130.159)" gradientUnits="userSpaceOnUse"><stop offset="0.231" stop-color="#a20e52"/><stop offset="0.75" stop-color="#f9c0da"/><stop offset="1" stop-color="#a21354"/></linearGradient><linearGradient id="linear-gradient-6" x1="-844.26" y1="33.782" x2="-844.26" y2="16.982" xlink:href="#linear-gradient-2"/><linearGradient id="linear-gradient-7" x1="311.421" y1="-21.635" x2="311.421" y2="-38.579" gradientTransform="translate(-218.096 130.159)" xlink:href="#linear-gradient-2"/><linearGradient id="linear-gradient-8" x1="-857.61" y1="33.782" x2="-857.61" y2="16.982" xlink:href="#linear-gradient"/><linearGradient id="linear-gradient-9" x1="324.771" y1="-21.635" x2="324.771" y2="-38.579" xlink:href="#linear-gradient-5"/><linearGradient id="linear-gradient-10" x1="-870.96" y1="33.782" x2="-870.96" y2="16.982" xlink:href="#linear-gradient-2"/><linearGradient id="linear-gradient-11" x1="338.121" y1="-21.635" x2="338.121" y2="-38.579" gradientTransform="translate(-218.096 130.159)" xlink:href="#linear-gradient-2"/><linearGradient id="linear-gradient-12" x1="351.471" y1="-21.635" x2="351.471" y2="-38.579" xlink:href="#linear-gradient-5"/></defs><title>Viral_dsRNA</title><g id="Viral_dsRNA"><path class="cls-1" d="M58.862,108.5c7.762,0,2.175-17,13.35-17h2.175c-7.763,0-2.175,17-13.35,17Z" transform="translate(-58.862 -91.5)"/><path class="cls-2" d="M72.212,108.5c7.763,0,2.175-17,13.35-17h2.175c-7.763,0-2.475,17-13.35,17Z" transform="translate(-58.862 -91.5)"/><path class="cls-3" d="M74.387,108.5c-7.763,0-2.175-17-13.35-17H58.862c7.762,0,2.175,17,13.35,17Z" transform="translate(-58.862 -91.5)"/><path class="cls-4" d="M85.562,108.5c7.763,0,2.175-17,13.35-17h2.175c-7.763,0-2.175,17-13.35,17Z" transform="translate(-58.862 -91.5)"/><path class="cls-5" d="M87.737,108.5c-7.763,0-2.175-17-13.35-17H72.212c7.762,0,2.175,17,13.35,17Z" transform="translate(-58.862 -91.5)"/><path class="cls-6" d="M98.912,108.5c7.763,0,2.175-17,13.35-17h2.175c-7.763,0-2.475,17-13.35,17Z" transform="translate(-58.862 -91.5)"/><path class="cls-7" d="M101.088,108.5c-7.763,0-2.175-17-13.35-17H85.562c7.762,0,2.175,17,13.35,17Z" transform="translate(-58.862 -91.5)"/><path class="cls-8" d="M112.263,108.5c7.763,0,2.175-17,13.35-17h2.175c-7.763,0-2.175,17-13.35,17Z" transform="translate(-58.862 -91.5)"/><path class="cls-9" d="M114.438,108.5c-7.763,0-2.175-17-13.35-17H98.912c7.762,0,2.175,17,13.35,17Z" transform="translate(-58.862 -91.5)"/><path class="cls-10" d="M125.613,108.5c7.763,0,2.175-17,13.35-17h2.175c-7.763,0-2.475,17-13.35,17Z" transform="translate(-58.862 -91.5)"/><path class="cls-11" d="M127.788,108.5c-7.763,0-2.175-17-13.35-17h-2.175c7.762,0,2.175,17,13.35,17Z" transform="translate(-58.862 -91.5)"/><path class="cls-12" d="M141.138,108.5c-7.763,0-2.175-17-13.35-17h-2.175c7.762,0,2.175,17,13.35,17Z" transform="translate(-58.862 -91.5)"/></g></svg>