<svg id="Layer_1" data-name="Layer 1" xmlns="http://www.w3.org/2000/svg" xmlns:xlink="http://www.w3.org/1999/xlink" viewBox="0 0 49.487 22.705"><defs><style>.cls-1{fill:url(#linear-gradient);}.cls-2{fill:#af4100;}.cls-3{font-size:12px;fill:#fff;font-family:Arial-BoldMT, Arial;font-weight:700;}</style><linearGradient id="linear-gradient" x1="24.94" y1="1.145" x2="24.94" y2="21.145" gradientUnits="userSpaceOnUse"><stop offset="0" stop-color="#af7351"/><stop offset="0.161" stop-color="#ab7857"/><stop offset="0.372" stop-color="#9f8567"/><stop offset="0.61" stop-color="#8a9a82"/><stop offset="0.867" stop-color="#6fb7a8"/><stop offset="1" stop-color="#5ec9be"/></linearGradient></defs><title>HMOX</title><g id="HMOX"><rect class="cls-1" x="1.44" y="1.145" width="47" height="20" rx="10" ry="10"/><path class="cls-2" d="M112.311,107.9c-4.866-.009-9.731.43-14.6.837-2.433.205-4.866.388-7.3.457-1.216.057-2.433.074-3.649.093-.634,0-1.159.041-1.882.011a11.462,11.462,0,0,1-2.1-.235A11.376,11.376,0,0,1,73.965,96.5a11.072,11.072,0,0,1,3.885-7.078,10.873,10.873,0,0,1,7.461-2.494c4.866.282,9.731.437,14.6.335,2.433-.059,4.866-.178,7.3-.341l3.649-.235c.627-.034,1.174-.086,1.867-.081a9.985,9.985,0,0,1,2.037.172,10.635,10.635,0,0,1,6.751,4.392,10.5,10.5,0,0,1,1.687,7.779,10.863,10.863,0,0,1-3.973,6.518A11.273,11.273,0,0,1,112.311,107.9Zm0-.3a8.973,8.973,0,0,0,6.4-2.7,9.1,9.1,0,0,0,2.587-6.155,9.685,9.685,0,0,0-7.084-9.525,10.058,10.058,0,0,0-1.576-.285c-.521-.07-1.192-.068-1.781-.118l-3.649-.235c-2.433-.164-4.866-.282-7.3-.341-4.866-.1-9.731.053-14.6.335a9.208,9.208,0,0,0-8.527,8.239,8.705,8.705,0,0,0,6.7,9.131,8.293,8.293,0,0,0,1.515.222c.237.025.546.03.854.033l.912.016c1.216.019,2.433.036,3.649.093,2.433.069,4.866.252,7.3.457C102.58,107.174,107.445,107.613,112.311,107.6Z" transform="translate(-73.871 -86.609)"/><text class="cls-3" transform="translate(6.94 14.034)">HMOX</text></g></svg>