<svg id="Layer_1" data-name="Layer 1" xmlns="http://www.w3.org/2000/svg" xmlns:xlink="http://www.w3.org/1999/xlink" viewBox="0 0 131.396 97.533"><defs><style>.cls-1{fill:url(#radial-gradient);}.cls-2{opacity:0.5;}.cls-3{isolation:isolate;}.cls-4{fill:url(#radial-gradient-2);}.cls-5{fill:#5656a5;}.cls-6{fill:#ad253c;}</style><radialGradient id="radial-gradient" cx="67.878" cy="63.895" r="76.014" gradientTransform="matrix(0.939, 0, 0, -0.771, 15.115, 128.412)" gradientUnits="userSpaceOnUse"><stop offset="0" stop-color="#ffdcac"/><stop offset="0.012" stop-color="#fed8aa"/><stop offset="0.127" stop-color="#f6b89b"/><stop offset="0.251" stop-color="#f09d8e"/><stop offset="0.385" stop-color="#eb8884"/><stop offset="0.536" stop-color="#e8797d"/><stop offset="0.716" stop-color="#e67179"/><stop offset="1" stop-color="#e56e78"/></radialGradient><radialGradient id="radial-gradient-2" cx="104.849" cy="833.833" r="26.536" gradientTransform="translate(-34.302 -789.123)" gradientUnits="userSpaceOnUse"><stop offset="0" stop-color="#afbaf7"/><stop offset="0.311" stop-color="#6d96ce"/><stop offset="0.803" stop-color="#285fcc"/></radialGradient></defs><title>Antigen-presenting_Cell</title><g id="Antigen-presenting_Cell"><path class="cls-1" d="M109.862,147.625c12.44.21,5.55,2.51,20.47-4.41,12.31-5.71,15.14-5.37,17.05-11.38,2.86-9,4.69-5.61,8.39-9.99,6.2-7.34,12.3-9.58,7.16-17.62-.94-1.47-2-7.77-.8-12.56.58-2.32-1.04-11.09-4.77-10.12-5.14,1.35-8.96-10.73-11.33-10.28-3.46.65-8.37-1.37-8.15-4.18.35-4.51-6.55-3.74-9.14-6.75-2.01-2.34-7.41-6.47-11.53-6.2-2.51.16-12.37-2.56-15.11-2.16-2.97.43-7.72-.72-10.73-.04-4.52,1.03-8.95.98-12.89,2.52-6.57,2.56-9.35,2.06-11.36,5.72-1.29,2.34-7.15,3.96-8.75,6.04-4.32,5.62-7.81,9.57-11.13,10.56-5.13,1.53-5.57,9.56-6.36,12.94-.87,3.71-4.76,6.98-4.77,9.46-.01,3.18-3.62,6.95,3.27,9.95,2.76,1.2,1.89,5.36,1.7,8.49s5.09,8.09,8.97,7.21,6.03,1.6,6.73,5.68c.89,5.17,4.79,5.21,7.55,5.06,5.16-.29,7.72,1.72,9.54,5.22,2.79,5.37,4.81,2.82,12.13,4.73s7.68-.25,13.32,1.79S104,147.525,109.862,147.625Z" transform="translate(-34.302 -51.233)"/><g id="Nucleus" class="cls-2"><g id="NUCLEUS-2" data-name="NUCLEUS" class="cls-3"><circle class="cls-4" cx="75.797" cy="53.116" r="20.19"/><path class="cls-5" d="M110.1,125.283a20.933,20.933,0,1,1,20.933-20.933A20.956,20.956,0,0,1,110.1,125.283Zm0-40.381a19.448,19.448,0,1,0,19.448,19.448A19.467,19.467,0,0,0,110.1,84.9Z" transform="translate(-34.302 -51.233)"/></g></g><path id="MEMBRANE" class="cls-6" d="M164.932,106.5l-.5-.99c-.19-.32-.39-.63-.6-.94s-.43-.61-.57-.87a8.353,8.353,0,0,1-.38-.85,24.857,24.857,0,0,1-.79-7.39,27.44,27.44,0,0,1,.64-3.15c.07-.27.16-.49.24-.83a7.347,7.347,0,0,0,.11-.9,14.186,14.186,0,0,0-.03-1.73,18.033,18.033,0,0,0-.66-3.38,9.956,9.956,0,0,0-1.67-3.27,3.94,3.94,0,0,0-1.96-1.31,2.926,2.926,0,0,0-1.44-.01l-.43.1c-.12.03-.23.03-.35.05a4.8,4.8,0,0,1-2.92-1.33,29.41,29.41,0,0,1-3.61-4.82c-.33-.51-.64-.99-.94-1.43a14.893,14.893,0,0,0-1.03-1.6,3.8,3.8,0,0,0-.88-.86,1.792,1.792,0,0,0-.9-.31c-.11,0-.21,0-.32.01l-.15.01-.25.02a8.9,8.9,0,0,1-4.05-.7,4.218,4.218,0,0,1-2.56-2.27,2.726,2.726,0,0,1-.09-.74,3.98,3.98,0,0,0-.11-1.13,3.457,3.457,0,0,0-1.34-2.05,8.038,8.038,0,0,0-2.2-1.16c-.75-.29-1.5-.5-2.22-.72a9.723,9.723,0,0,1-3.73-1.77.763.763,0,0,1-.09-.09,23.352,23.352,0,0,0-7.06-5.24,10.614,10.614,0,0,0-4.09-1.34c-.41-.04-.9-.02-1.14-.05-.31-.03-.66-.06-1.01-.12-.7-.1-1.42-.25-2.13-.39l-4.34-.88c-1.47-.27-2.93-.54-4.46-.72a15.6,15.6,0,0,0-2.41-.11c-.51.04-.79.09-1.13.13s-.69.06-1.04.07c-1.39.03-2.84-.04-4.3-.05a16.852,16.852,0,0,0-4.76.15c-1.61.37-3.24.6-4.82.81-1.55.12-3.11.26-4.69.52a18.731,18.731,0,0,0-2.42.54c-.4.11-.79.25-1.18.38l-1.09.38c-1.45.51-2.93.95-4.45,1.39a12.7,12.7,0,0,0-4.5,2.09,6.626,6.626,0,0,0-1.48,1.83l-.26.46c-.08.11-.13.23-.23.35a5.133,5.133,0,0,1-.65.68,28.516,28.516,0,0,1-3.56,2.35A12.524,12.524,0,0,0,58.011,66c-.9,1.18-1.76,2.26-2.58,3.26-.92.96-1.84,1.9-2.79,2.82a26.529,26.529,0,0,1-3.1,2.62,10.651,10.651,0,0,1-1.71,1.01,9.021,9.021,0,0,1-.91.35,8.129,8.129,0,0,0-1.21.51,7.73,7.73,0,0,0-3.05,3.31,15.07,15.07,0,0,0-1.26,3.77,31.236,31.236,0,0,0-.5,3.68c-.02.1-.04.2-.05.29-.13.76-.26,1.45-.39,2.01a13.109,13.109,0,0,1-2,4.1c-.64.77-1.28,1.55-1.88,2.38a6.113,6.113,0,0,0-1.31,3.01,12.618,12.618,0,0,1-.59,2.71,8.2,8.2,0,0,0-.33,3.12,4.718,4.718,0,0,0,1.81,2.92,10.714,10.714,0,0,0,3.05,1.59c1.7.75,1.82,2.96,1.67,5.21-.17.94-.37,1.88-.49,2.84a5.211,5.211,0,0,0,.86,3.21,10.96,10.96,0,0,0,2.24,2.59,10.585,10.585,0,0,0,3.22,1.86,7.457,7.457,0,0,0,2.04.39,4.464,4.464,0,0,0,1.09-.06c.17-.03.38-.07.51-.1l.38-.1a4.463,4.463,0,0,1,2.93.28c1.26.77,2.16,2.34,2.61,4.57a9.456,9.456,0,0,0,.32,2.24,5.448,5.448,0,0,0,1.39,2.29,5.86,5.86,0,0,0,2.75,1.43,11.015,11.015,0,0,0,3.06.19c.5-.04.94-.08,1.37-.11s.87-.03,1.3-.03a10.6,10.6,0,0,1,2.51.33,8.52,8.52,0,0,1,4.51,4.42l.03.06a7.162,7.162,0,0,0,2.43,3.29,6.076,6.076,0,0,0,2.41.86c.82.13,1.58.18,2.33.26a27.915,27.915,0,0,1,4.33.68,34.585,34.585,0,0,0,4.57.88,28.318,28.318,0,0,0,4.7-.01,13.711,13.711,0,0,1,4.21.49l.66.22a13.014,13.014,0,0,0,4.37,1.01,9.63,9.63,0,0,0,1.94-.25,17.808,17.808,0,0,1,4.4-.4c.2,0,.39.01.58.01,2.38.12,4.64.41,7.06.7a7.46,7.46,0,0,0,2.05-.04,6.694,6.694,0,0,0,.98-.24c.32-.09.61-.2.9-.31,1.15-.44,2.21-.93,3.28-1.41l6.35-2.93c2.1-.98,4.23-1.92,6.37-2.86,1.07-.48,2.14-.95,3.21-1.45a24.313,24.313,0,0,0,3.14-1.68,8.888,8.888,0,0,0,2.56-2.39,9.15,9.15,0,0,0,1.2-2.56c.11-.28.21-.58.31-.9,1.77-5.57,3.08-6.24,4.74-7.09a15.172,15.172,0,0,0,1.4-.8,9.378,9.378,0,0,0,1.56-1.12c.31-.26.57-.55.84-.82l.77-.8c2.03-2.14,4.34-4.07,6.34-6.4a9.287,9.287,0,0,0,2.1-4.04A7.353,7.353,0,0,0,164.932,106.5Zm-12.84,17.68c-1.76.91-3.29,1.69-5.15,7.55-.06.2-.13.39-.2.58a8.312,8.312,0,0,1-3.84,4.5,62.756,62.756,0,0,1-6.29,2.8q-3.255,1.35-6.47,2.81c-2.11.99-4.23,2-6.31,3.01-1.04.51-2.08,1.03-3.11,1.46-.26.11-.52.22-.77.3a5.729,5.729,0,0,1-.75.22,5.33,5.33,0,0,1-1.57.1c-1.16-.06-2.41-.19-3.63-.23-1.08-.04-2.17-.05-3.24-.04-.28-.01-.56-.02-.87-.02a19.53,19.53,0,0,0-4.64.42c-1.55.31-2.4.48-5.71-.72-.32-.12-.63-.22-.92-.31a14.327,14.327,0,0,0-1.92-.6,13.019,13.019,0,0,0-2.41-.3c-.8-.03-1.56-.02-2.29-.04a19.253,19.253,0,0,1-2.16-.19c-.71-.1-1.43-.23-2.14-.39l-2.18-.53a28.489,28.489,0,0,0-4.68-.65,10.208,10.208,0,0,1-4.04-.63,7.565,7.565,0,0,1-2.46-2.67c0-.01-.01-.01-.01-.02a9.339,9.339,0,0,0-5.13-4.88,8.488,8.488,0,0,0-2.6-.76,18.1,18.1,0,0,0-2.9-.13,10.906,10.906,0,0,1-2.48-.22,4.557,4.557,0,0,1-1.94-.93,5.441,5.441,0,0,1-1.31-1.68,18.369,18.369,0,0,1-.81-2.1c-.49-2.35-1.45-3.99-2.86-4.89l-.01-.01a4.733,4.733,0,0,0-1.79-.81,6.8,6.8,0,0,0-2.06-.09l-.5.07c-.16.02-.25.02-.38.03a2.419,2.419,0,0,1-.71-.01,5.362,5.362,0,0,1-1.44-.37,9.248,9.248,0,0,1-2.61-1.61,10.613,10.613,0,0,1-2.01-2.19,4.88,4.88,0,0,1-.97-2.47c-.01-.94.02-1.92-.03-2.9.15-2.44,0-4.85-2.06-5.84a11.257,11.257,0,0,1-2.52-1.78,3.618,3.618,0,0,1-1.12-2.26,7.425,7.425,0,0,1,.39-2.64,12.369,12.369,0,0,0,.53-3.02,5.623,5.623,0,0,1,.84-2.48c.45-.83.95-1.68,1.4-2.55a14.117,14.117,0,0,0,2.1-4.33c.13-.57.26-1.27.39-2.04.02-.09.03-.18.05-.27.32-1.2.64-2.39,1.01-3.56a18.017,18.017,0,0,1,1.45-3.44,6.454,6.454,0,0,1,2.46-2.61,6.919,6.919,0,0,1,.83-.36,9.849,9.849,0,0,0,1.17-.47,11.153,11.153,0,0,0,1.99-1.23,21.157,21.157,0,0,0,3.07-2.97,38.844,38.844,0,0,0,2.41-3.12c.83-1.01,1.69-2.1,2.6-3.28a12.233,12.233,0,0,1,3.66-2.44,23.517,23.517,0,0,0,4.06-2.13,7.815,7.815,0,0,0,.93-.81,3.749,3.749,0,0,0,.38-.51l.28-.42a5.354,5.354,0,0,1,1.27-1.41A11.508,11.508,0,0,1,73.252,57c1.49-.46,3.04-.93,4.52-1.5l1.1-.44c.34-.13.68-.27,1.04-.39q1.065-.36,2.19-.63c1.45-.35,2.96-.62,4.48-.92,1.61-.22,3.26-.45,4.93-.83a16.134,16.134,0,0,1,4.4-.12c1.43.18,2.87.41,4.39.49a11.782,11.782,0,0,0,1.19.01c.41-.02.86-.07,1.1-.07a12.554,12.554,0,0,1,2.04.2c1.42.21,2.87.49,4.31.78,1.45.26,2.9.56,4.39.8.74.11,1.49.23,2.27.3a11.631,11.631,0,0,0,1.22.07c.51,0,.76-.05,1.09-.04a11.139,11.139,0,0,1,3.8.87,22.347,22.347,0,0,1,6.67,4.96c.07.08.15.15.22.23a7.187,7.187,0,0,0,1.65,1.33,16.863,16.863,0,0,0,2.13.97c.71.29,1.42.54,2.07.82a6.021,6.021,0,0,1,1.67.97,2.1,2.1,0,0,1,.79,1.29,2.846,2.846,0,0,1,.05.78,3.7,3.7,0,0,0,.12,1.17,4.282,4.282,0,0,0,1.43,1.98,7.619,7.619,0,0,0,2.17,1.23,10.02,10.02,0,0,0,5.05.58l.32-.06a.688.688,0,0,1,.13-.02c0-.01.06,0,.15.05a3.609,3.609,0,0,1,.69.56,16.588,16.588,0,0,1,1.21,1.41c.33.48.65.97.92,1.4a28.859,28.859,0,0,0,3.79,5.02,7.511,7.511,0,0,0,1.34,1.21,4.341,4.341,0,0,0,2.19.77,4.707,4.707,0,0,0,.65-.02l.32-.05.16-.03.08-.01a1.079,1.079,0,0,1,.54.04,2.275,2.275,0,0,1,1.01.84,9.035,9.035,0,0,1,1.33,2.84,18.906,18.906,0,0,1,.72,3.13,14.391,14.391,0,0,1,.16,1.57,6.568,6.568,0,0,1-.14,1.55,16.262,16.262,0,0,0-.13,3.19,24.785,24.785,0,0,0,.82,7.81,7.622,7.622,0,0,0,.26.9,5.238,5.238,0,0,0,.25.53l.23.47.46.92.36.94a6.684,6.684,0,0,1,.31,3.73,8.3,8.3,0,0,1-1.9,3.42c-.88,1.1-1.95,2.14-2.98,3.22s-2.07,2.18-2.99,3.34c-.47.59-.92,1.16-1.37,1.69a8.588,8.588,0,0,1-1.55,1.38A9.887,9.887,0,0,1,152.092,124.185Z" transform="translate(-34.302 -51.233)"/></g></svg>