<svg id="Layer_1" data-name="Layer 1" xmlns="http://www.w3.org/2000/svg" xmlns:xlink="http://www.w3.org/1999/xlink" viewBox="0 0 30.63 42.155"><defs><style>.cls-1{fill:url(#radial-gradient);}.cls-2{fill:url(#radial-gradient-2);}.cls-3{fill:url(#radial-gradient-3);}.cls-4{fill:url(#radial-gradient-4);}.cls-5{fill:url(#radial-gradient-5);}.cls-6{fill:url(#radial-gradient-6);}</style><radialGradient id="radial-gradient" cx="91.816" cy="84.444" r="7.146" gradientUnits="userSpaceOnUse"><stop offset="0" stop-color="#cf84af"/><stop offset="1" stop-color="#323e6e"/></radialGradient><radialGradient id="radial-gradient-2" cx="91.816" cy="105.264" r="5.444" gradientTransform="translate(0 -123.874) scale(1 2.177)" xlink:href="#radial-gradient"/><radialGradient id="radial-gradient-3" cx="107.222" cy="84.444" r="7.146" xlink:href="#radial-gradient"/><radialGradient id="radial-gradient-4" cx="107.222" cy="105.264" r="5.444" gradientTransform="translate(0 -123.874) scale(1 2.177)" xlink:href="#radial-gradient"/><radialGradient id="radial-gradient-5" cx="101.753" cy="79.668" r="4.974" gradientTransform="translate(-82.637 -84.956) scale(1 1.108)" gradientUnits="userSpaceOnUse"><stop offset="0" stop-color="#cf84af"/><stop offset="1" stop-color="#6e3254"/></radialGradient><radialGradient id="radial-gradient-6" cx="86.347" cy="79.668" r="4.974" xlink:href="#radial-gradient-5"/></defs><title>nuclear_receptors</title><path class="cls-1" d="M97.861,82.39c0,3.339-2.707,10.154-6.045,10.154s-6.045-6.815-6.045-10.154a6.045,6.045,0,0,1,12.09,0Z" transform="translate(-82.637 -76.344)"/><path class="cls-2" d="M85.771,112.454c0-3.339,2.707-20.424,6.045-20.424s6.045,17.086,6.045,20.424a6.045,6.045,0,0,1-12.09,0Z" transform="translate(-82.637 -76.344)"/><path class="cls-3" d="M113.267,82.39c0,3.339-2.707,10.154-6.045,10.154s-6.045-6.815-6.045-10.154a6.045,6.045,0,1,1,12.09,0Z" transform="translate(-82.637 -76.344)"/><path class="cls-4" d="M101.177,112.454c0-3.339,2.707-20.424,6.045-20.424s6.045,17.086,6.045,20.424a6.045,6.045,0,0,1-12.09,0Z" transform="translate(-82.637 -76.344)"/><circle class="cls-5" cx="20.272" cy="4.866" r="4.866"/><circle class="cls-6" cx="4.866" cy="4.866" r="4.866"/></svg>