<svg id="Layer_1" data-name="Layer 1" xmlns="http://www.w3.org/2000/svg" xmlns:xlink="http://www.w3.org/1999/xlink" viewBox="0 0 159.184 125.291"><defs><style>.cls-1{fill:url(#linear-gradient);}.cls-2{fill:url(#linear-gradient-2);}.cls-3{opacity:0.8;}.cls-4{fill:url(#radial-gradient);}.cls-5{fill:url(#radial-gradient-2);}.cls-6{fill:url(#radial-gradient-3);}.cls-7{fill:url(#radial-gradient-4);}.cls-8{fill:url(#radial-gradient-5);}.cls-9{fill:url(#radial-gradient-6);}.cls-10{fill:#28687c;}.cls-11{isolation:isolate;}.cls-12{fill:url(#radial-gradient-7);}.cls-13{fill:url(#radial-gradient-8);}.cls-14{fill:url(#radial-gradient-9);}.cls-15{fill:url(#radial-gradient-10);}.cls-16{fill:#554082;}.cls-17{fill:url(#linear-gradient-3);}.cls-18{fill:#ad342d;}.cls-19{fill:url(#linear-gradient-4);}.cls-20{mask:url(#mask);}.cls-21{fill:url(#radial-gradient-11);}.cls-22{mask:url(#mask-2);}.cls-23{fill:url(#radial-gradient-12);}.cls-24{fill:url(#radial-gradient-13);}.cls-25{fill:url(#radial-gradient-14);}.cls-26{fill:url(#radial-gradient-15);}.cls-27{fill:url(#radial-gradient-16);}.cls-28{fill:url(#radial-gradient-17);}.cls-29{fill:url(#radial-gradient-18);}.cls-30{fill:url(#radial-gradient-19);}.cls-31{fill:url(#radial-gradient-20);}.cls-32{fill:url(#radial-gradient-21);}</style><linearGradient id="linear-gradient" x1="63.657" y1="-0.427" x2="57.482" y2="-20.78" gradientTransform="matrix(0.871, -0.492, -0.492, -0.871, -24.598, 134.237)" gradientUnits="userSpaceOnUse"><stop offset="0.036"/><stop offset="0.406" stop-color="#fff"/><stop offset="0.462" stop-color="#cacaca"/><stop offset="0.526" stop-color="#959595"/><stop offset="0.59" stop-color="#676767"/><stop offset="0.654" stop-color="#424242"/><stop offset="0.718" stop-color="#252525"/><stop offset="0.781" stop-color="#101010"/><stop offset="0.843" stop-color="#040404"/><stop offset="0.903"/></linearGradient><linearGradient id="linear-gradient-2" x1="69.861" y1="211.459" x2="75.263" y2="219.165" gradientTransform="translate(110.62 -69.576) rotate(34.21)" gradientUnits="userSpaceOnUse"><stop offset="0.139"/><stop offset="0.432" stop-color="#fff"/><stop offset="0.535" stop-color="#a7a7a7"/><stop offset="0.678" stop-color="#303030"/><stop offset="0.742"/></linearGradient><radialGradient id="radial-gradient" cx="187.304" cy="170.245" r="16.008" gradientTransform="matrix(0.997, 0.082, -0.082, 0.987, -29.56, -135.877)" gradientUnits="userSpaceOnUse"><stop offset="0" stop-color="#fff"/><stop offset="0.998" stop-color="#6ea1b6"/></radialGradient><radialGradient id="radial-gradient-2" cx="134.936" cy="97.905" r="34.214" gradientTransform="translate(4.665 46.954) rotate(6.081) scale(1 0.377)" xlink:href="#radial-gradient"/><radialGradient id="radial-gradient-3" cx="78.959" cy="131.279" r="8.575" gradientTransform="translate(5.681 73.764) rotate(6.081) scale(1 0.377)" xlink:href="#radial-gradient"/><radialGradient id="radial-gradient-4" cx="50.676" cy="141.842" r="18.816" gradientTransform="translate(-11.192 58.664) rotate(-7.377) scale(1 0.638)" xlink:href="#radial-gradient"/><radialGradient id="radial-gradient-5" cx="42.987" cy="103.338" r="37.806" gradientTransform="translate(4.364 60.095) rotate(6.081) scale(1 0.377)" xlink:href="#radial-gradient"/><radialGradient id="radial-gradient-6" cx="148.489" cy="170.664" r="18.185" gradientTransform="matrix(0.972, -0.237, 0.155, 0.638, -63.95, -12.725)" xlink:href="#radial-gradient"/><radialGradient id="radial-gradient-7" cx="131.484" cy="110.375" r="7.278" gradientTransform="translate(0 14.946) scale(1 0.865)" gradientUnits="userSpaceOnUse"><stop offset="0" stop-color="#fff"/><stop offset="1" stop-color="#655782"/></radialGradient><radialGradient id="radial-gradient-8" cx="47.016" cy="94.166" r="5.419" gradientTransform="translate(0 12.751) scale(1 0.865)" xlink:href="#radial-gradient-7"/><radialGradient id="radial-gradient-9" cx="74.9" cy="89.754" r="3.724" gradientTransform="translate(0 12.153) scale(1 0.865)" xlink:href="#radial-gradient-7"/><radialGradient id="radial-gradient-10" cx="111.572" cy="62.947" r="3.317" gradientTransform="translate(0 8.524) scale(1 0.865)" xlink:href="#radial-gradient-7"/><linearGradient id="linear-gradient-3" x1="83.412" y1="292.881" x2="76.295" y2="294.292" gradientTransform="translate(-146.439 -82.85) rotate(-24.985)" gradientUnits="userSpaceOnUse"><stop offset="0" stop-color="#d86e66"/><stop offset="1" stop-color="#a33029"/></linearGradient><linearGradient id="linear-gradient-4" x1="35.525" y1="109.672" x2="27.727" y2="111.218" gradientTransform="matrix(1, 0, 0, 1, 0, 0)" xlink:href="#linear-gradient-3"/><mask id="mask" x="8.355" y="65.724" width="15.614" height="24.741" maskUnits="userSpaceOnUse"><g transform="translate(-17.837 -35.313)"><g id="SVGID"><path class="cls-1" d="M26.192,111.262c1.049-5.316,2.786-9.039,5.617-10.225,3.291,7.357,6.278,14.937,10,20.848-1.778,2.537-4.027,4.16-7.134,3.856C31.917,118.957,29.408,113.588,26.192,111.262Z"/></g></g></mask><radialGradient id="radial-gradient-11" cx="38.076" cy="114.704" r="7.811" gradientTransform="translate(158.944 384.874) rotate(163.289) scale(1 2.559)" gradientUnits="userSpaceOnUse"><stop offset="0.782" stop-color="#fff" stop-opacity="0"/><stop offset="0.841" stop-color="#ffba94"/><stop offset="0.886" stop-color="#fff" stop-opacity="0"/></radialGradient><mask id="mask-2" x="27.532" y="109.759" width="8.407" height="8.424" maskUnits="userSpaceOnUse"><g transform="translate(-17.837 -35.313)"><rect class="cls-2" x="48.338" y="144.568" width="2.469" height="9.432" transform="translate(-90.919 78.535) rotate(-44.901)"/></g></mask><radialGradient id="radial-gradient-12" cx="82.399" cy="302.825" r="7.324" gradientTransform="matrix(-0.686, 0.728, -1.881, -1.773, 677.496, 621.362)" gradientUnits="userSpaceOnUse"><stop offset="0.587" stop-color="#fff" stop-opacity="0"/><stop offset="0.59" stop-color="#fffcfb" stop-opacity="0.026"/><stop offset="0.594" stop-color="#fff5f0" stop-opacity="0.097"/><stop offset="0.599" stop-color="#ffeade" stop-opacity="0.215"/><stop offset="0.604" stop-color="#ffdac5" stop-opacity="0.379"/><stop offset="0.61" stop-color="#ffc5a5" stop-opacity="0.587"/><stop offset="0.613" stop-color="#ffba94" stop-opacity="0.7"/><stop offset="0.622" stop-color="#ffc5a4" stop-opacity="0.592"/><stop offset="0.676" stop-color="#fff" stop-opacity="0"/></radialGradient><radialGradient id="radial-gradient-13" cx="-89.114" cy="1124.561" r="3.129" gradientTransform="translate(-239.113 -950.098) rotate(-19.764)" gradientUnits="userSpaceOnUse"><stop offset="0" stop-color="#d8ba5d"/><stop offset="1" stop-color="#1da075"/></radialGradient><radialGradient id="radial-gradient-14" cx="-23.333" cy="1077.333" r="1.624" xlink:href="#radial-gradient-13"/><radialGradient id="radial-gradient-15" cx="-67.977" cy="1127.846" r="1.859" xlink:href="#radial-gradient-13"/><radialGradient id="radial-gradient-16" cx="27.435" cy="1076.008" r="2.828" xlink:href="#radial-gradient-13"/><radialGradient id="radial-gradient-17" cx="19.936" cy="1063.723" r="2.157" xlink:href="#radial-gradient-13"/><radialGradient id="radial-gradient-18" cx="-90.415" cy="1095.892" r="2.278" xlink:href="#radial-gradient-13"/><radialGradient id="radial-gradient-19" cx="26.763" cy="1125.317" r="2.851" xlink:href="#radial-gradient-13"/><radialGradient id="radial-gradient-20" cx="25.927" cy="1108.366" r="2.264" xlink:href="#radial-gradient-13"/><radialGradient id="radial-gradient-21" cx="16.488" cy="1138.563" r="2.194" xlink:href="#radial-gradient-13"/></defs><title>apoptotic_cell</title><g id="CELL" class="cls-3"><path id="CELL-2" data-name="CELL" class="cls-4" d="M152.558,61.691c5.368,0,15.531-13.433,7.826-18.309-11.944-7.559-22.605-10.662-31-.241-2.227,2.763,1.415,13.415,9.874,17.274S147.191,61.691,152.558,61.691Z" transform="translate(-17.837 -35.313)"/><path class="cls-5" d="M119.278,120.694a35.313,35.313,0,0,0,7.193,4.094,44.47,44.47,0,0,0,12.422,3.428c5.5.682,5.551-13.489,9.9-16.365,6.865-4.541,3.766,12.841,14.442,11.357,6.232-.866,9.262-8.658,11.086-15.612,1.937-7.381,3.175-25.557-9.293-30.569s-10.2,16.206-17.537,22.5-15.667-7.907-23.167-2.241c-3.947,2.982-9.257,7.748-10.188,13.013C113.539,113.671,114.758,117.248,119.278,120.694Z" transform="translate(-17.837 -35.313)"/><path class="cls-6" d="M83.865,128.216c-4.122.032-9.977,1.711-11.674,3.678-2.7,3.131,2.072,6.859,6.043,6.038,3.555-.735,9.9-3.942,9.9-7.758C88.139,128.755,86.305,128.2,83.865,128.216Z" transform="translate(-17.837 -35.313)"/><path class="cls-7" d="M52.829,131.358c-9.562,3.9-22.3,10.9-18.252,16.658,8.168,11.609,20.02,15.888,31.251,4.28C70.4,147.567,66.262,127.633,52.829,131.358Z" transform="translate(-17.837 -35.313)"/><path class="cls-8" d="M68.57,100.6c7.283,4.3,24.341-13.114,19.569-15.672-20.52-11-15.213,2.364-27.648,0-20.257-3.852-42.911-10.784-41.116,16.074.769,11.5.953,18.561,5.548,27.931,3.682,7.506,5.225,7.16,10.313,5.124s9.777-9.813,14.619-14.672S54.127,92.082,68.57,100.6Z" transform="translate(-17.837 -35.313)"/><path id="CELL-3" data-name="CELL" class="cls-9" d="M118.824,70.093c4.532-5.829,7.092-13.822,3.523-16.444C112.228,46.215,97.808,63.065,93.11,75.14c-.64,1.644,4.074,8.263,10.38,4.384S114.291,75.922,118.824,70.093Z" transform="translate(-17.837 -35.313)"/><path class="cls-10" d="M129.155,50.62a21.156,21.156,0,0,0,4.461,6.7,13.991,13.991,0,0,0,5.078,4.4l1.484.715c.516.212,1.022.43,1.553.625a14.056,14.056,0,0,0,3.414.813,8.339,8.339,0,0,0,3.613-.48,27.781,27.781,0,0,1,2.858-.916c.3-.019.6-.035.944-.035,1.927,0,4.284-1.427,6.352-3.543a17.12,17.12,0,0,0,2.862-2.93,15.393,15.393,0,0,0,2.214-3.982,9.8,9.8,0,0,0,.573-4.838,6.832,6.832,0,0,0-.9-2.489,7.224,7.224,0,0,0-1.769-1.946,17.375,17.375,0,0,0-1.963-1.172q-.943-.513-1.917-.973a37.2,37.2,0,0,0-3.721-1.528,32,32,0,0,0-9.165-3.131,16.609,16.609,0,0,0-3.893-.591A14.4,14.4,0,0,0,132.35,38.2a19.939,19.939,0,0,0-1.8,1.508,22.512,22.512,0,0,0-1.559,1.715c-.245.312-.466.573-.729.927a3.892,3.892,0,0,0-.634,1.48,7.059,7.059,0,0,0-.018,2.613A13.309,13.309,0,0,0,129.155,50.62Zm24.5-10.16c1.069.71,2.126,1.423,3.176,2.152l1.713,1.185c.562.4,1.187.81,1.568,1.139a4.366,4.366,0,0,1,1.483,2.688c.343,2.159-.564,4.759-1.8,7.064a23.714,23.714,0,0,1-2.166,3.359c-1.774,1.754-3.686,2.893-5.075,2.893-.38,0-.727.014-1.055.036a14.709,14.709,0,0,0-3.267.114,7.849,7.849,0,0,1-2.729-.042,18.684,18.684,0,0,1-2.761-.812c-.949-.336-1.906-.726-2.876-1.1a22.493,22.493,0,0,1-2.67-1.266,26.738,26.738,0,0,1-2.51-1.586,19.522,19.522,0,0,1-4.1-6.1,15.758,15.758,0,0,1-.64-3.977,5.461,5.461,0,0,1,.226-1.706,1.426,1.426,0,0,1,.264-.482l.681-.728a20.589,20.589,0,0,1,3-2.682,15.338,15.338,0,0,1,7.234-2.95,23.1,23.1,0,0,1,3.709-.15A31.71,31.71,0,0,1,153.658,40.46Z" transform="translate(-17.837 -35.313)"/><path class="cls-10" d="M176.968,94.945a31.243,31.243,0,0,0-1.663-8.437,18.2,18.2,0,0,0-4.8-7.313,14.28,14.28,0,0,0-3.686-2.419,13.916,13.916,0,0,0-3.744-1.108,6.582,6.582,0,0,0-4.169.44c-2.643,1.267-4.133,4.328-5.374,7.956-.606,1.227-1.124,2.492-1.623,3.726-1.027,2.6-1.915,5.21-3.1,7.5a11.412,11.412,0,0,1-2.089,3.006,5.7,5.7,0,0,1-2.884,1.661,8.671,8.671,0,0,1-3.622-.161,34.8,34.8,0,0,1-4.052-1.9c-.815-.426-1.636-.852-2.46-1.24a13.582,13.582,0,0,0-2.568-1.46,8.356,8.356,0,0,0-3.259-.68,7.046,7.046,0,0,0-3.412.909,15.6,15.6,0,0,0-2.5,1.911,24.389,24.389,0,0,0-2.1,2.128,19.645,19.645,0,0,0-1.749,2.346,18.694,18.694,0,0,0-4.4,7.1,9.228,9.228,0,0,0-.593,5.262,10.874,10.874,0,0,0,2.417,4.981,19.251,19.251,0,0,0,3.977,3.555A33.218,33.218,0,0,0,128.839,127a32.429,32.429,0,0,0,4.861,1.028,44.961,44.961,0,0,0,5.1.937,3.915,3.915,0,0,0,.494.031c1.913,0,3.2-1.461,4.2-3.522a29.222,29.222,0,0,0,2.167-4.619c.647-1.606,1.207-3.216,1.873-4.691a12.523,12.523,0,0,1,1.094-2.014,4.709,4.709,0,0,1,.622-.746,2.193,2.193,0,0,1,.314-.261c.1-.081.277-.162.41-.246a2.907,2.907,0,0,1,.715-.3c.163,0,.229-.017.322.031a3.217,3.217,0,0,1,1.017,1.3c.723,1.36,1.319,3.042,2.193,4.622a14.664,14.664,0,0,0,1.5,2.329,8.562,8.562,0,0,0,1.988,1.777,7.16,7.16,0,0,0,5.622,1.3c3.241-.451,5.628-2.6,7.434-5.41a28.914,28.914,0,0,0,3.591-6.948c.5-1.317.926-2.634,1.308-3.995a37.885,37.885,0,0,0,.886-4.171A43.233,43.233,0,0,0,176.968,94.945Zm-13.837,27.52a5.861,5.861,0,0,1-4.337-.861c-.015-.014-.035-.023-.05-.037a10.051,10.051,0,0,1-2.389-4c-.574-1.543-1-3.161-1.769-4.905a8.1,8.1,0,0,0-.767-1.345,4.363,4.363,0,0,0-1.41-1.309,3.567,3.567,0,0,0-2.181-.362,5.536,5.536,0,0,0-1.687.61c-.232.143-.449.252-.688.43a5.142,5.142,0,0,0-.672.568,7.125,7.125,0,0,0-1.008,1.246,13.782,13.782,0,0,0-1.256,2.57,42.385,42.385,0,0,0-1.472,5.069c-.413,1.594-.762,3.186-1.3,4.673-.83,1.69-1.824,2.816-3.161,2.656a43.485,43.485,0,0,1-4.917-.9c-1.506-.552-2.984-1.137-4.433-1.775a57.529,57.529,0,0,1-8.438-4.564c-2.566-1.763-4.9-3.878-5.82-6.615a8.657,8.657,0,0,1-.237-4.271,17.1,17.1,0,0,1,4.043-6.5l2.274-1.652,2.289-1.651c.755-.538,1.565-1.164,2.169-1.5a6.519,6.519,0,0,1,4.55-.595c.848.135,1.724.353,2.628.58.78.367,1.569.777,2.369,1.194a35.876,35.876,0,0,0,4.172,1.95,12.787,12.787,0,0,0,2.066.837,8.02,8.02,0,0,0,2.391.293,7.466,7.466,0,0,0,4.539-1.9,12,12,0,0,0,2.833-3.721,33.632,33.632,0,0,0,2.694-8.2c.292-1.336.545-2.657.813-3.977,1.127-3.283,2.441-6.01,4.584-7.037a4.99,4.99,0,0,1,2.925-.376,11.829,11.829,0,0,1,3.432,1.436,13.348,13.348,0,0,1,2.97,2.361,17.137,17.137,0,0,1,3.743,6.56,29.9,29.9,0,0,1,1.352,7.681,43.677,43.677,0,0,1-.226,7.93,35.2,35.2,0,0,1-.622,3.909c-.309,1.291-.616,2.619-.98,3.9a32.2,32.2,0,0,1-2.905,7.288C167.684,120.425,165.7,122.107,163.131,122.464Z" transform="translate(-17.837 -35.313)"/><path class="cls-10" d="M89.1,128.619a3.361,3.361,0,0,0-1.869-1.258,6.243,6.243,0,0,0-1.692-.237,11.441,11.441,0,0,0-2.975.4,27.115,27.115,0,0,0-5.428,1.017,12.942,12.942,0,0,0-2.454.413,9.445,9.445,0,0,0-2.5,1.067,5.087,5.087,0,0,0-1.215,1.047c-.174.223-.338.455-.5.691-.132.273-.256.553-.37.835a7.157,7.157,0,0,0-.173.932,6.927,6.927,0,0,0,.046.945,9.046,9.046,0,0,0,.26.873q.186.391.406.758a5.635,5.635,0,0,0,2.331,1.934,6.224,6.224,0,0,0,2.708.6,7.285,7.285,0,0,0,1.432.157,6.318,6.318,0,0,0,1.277-.127,17.145,17.145,0,0,0,2.862-.906,14.354,14.354,0,0,0,2.813-.887,10.056,10.056,0,0,0,4.864-4.07,5.866,5.866,0,0,0,.615-1.789l.04-.5a2.858,2.858,0,0,0-.482-1.9Zm-13.181,8.542a7.878,7.878,0,0,1-1.71-1.13,4.543,4.543,0,0,1-1.128-1.389,1.476,1.476,0,0,1-.12-1.142,1.407,1.407,0,0,0,.109-.277,2.78,2.78,0,0,0,.2-.3,2.711,2.711,0,0,1,.556-.589,15.02,15.02,0,0,1,1.763-1.211c.633-.387,1.294-.76,1.973-1.147a25.2,25.2,0,0,1,5.142-.959,21.557,21.557,0,0,1,2.548.446,5.517,5.517,0,0,1,1.062.378c.29.146.453.324.405.339-.02.013-.026-.034-.041-.013.007-.025-.018.087-.029.145l-.032.2a3.114,3.114,0,0,1-.333.86,12.493,12.493,0,0,1-3.4,3.457c-.689.52-1.4,1.022-2.146,1.517a15.8,15.8,0,0,1-2.658.845A5.3,5.3,0,0,1,75.916,137.161Z" transform="translate(-17.837 -35.313)"/><path class="cls-10" d="M66.891,136.845a12.275,12.275,0,0,0-5.98-5.96,9.126,9.126,0,0,0-3.956-.7,12.338,12.338,0,0,0-4.326.446l-.083.028c-.9.369-2.022.843-3.259,1.4-1.075.293-2.132.643-3.173,1.036a33.3,33.3,0,0,0-6.205,3.14,19.332,19.332,0,0,0-5.284,4.834,7.885,7.885,0,0,0-1.379,3.307,4.631,4.631,0,0,0,.719,4.064,37.344,37.344,0,0,0,3.168,3.922,23.408,23.408,0,0,0,3.032,3.392,17.96,17.96,0,0,0,8.761,4.593,15.113,15.113,0,0,0,9.859-1.556,18,18,0,0,0,3.7-2.6,29.3,29.3,0,0,0,3.888-3.383,7.665,7.665,0,0,0,1.792-4.07,14.03,14.03,0,0,0,.582-3.881A17.722,17.722,0,0,0,66.891,136.845Zm-4.87,17.844a26.171,26.171,0,0,1-4.181,1.966,16.226,16.226,0,0,1-8.362.752,21.205,21.205,0,0,1-7.865-3.471,41.16,41.16,0,0,1-3.513-2.724,36.122,36.122,0,0,1-2.911-3.628,3.151,3.151,0,0,1-.516-2.706,8.022,8.022,0,0,1,1.757-2.286,36.98,36.98,0,0,1,5.117-3.839c1.83-1.194,3.718-2.355,5.615-3.548.914-.587,1.835-1.171,2.753-1.78,1.014-.456,2.06-.91,3.155-1.357a10.622,10.622,0,0,1,3.637-.379,9.161,9.161,0,0,1,3.122,1.292,13.007,13.007,0,0,1,4.384,5.215,24.129,24.129,0,0,1,2.182,6.834,18.51,18.51,0,0,1,.271,3.577,6.2,6.2,0,0,1-1.378,3.167A28.515,28.515,0,0,1,62.022,154.69Z" transform="translate(-17.837 -35.313)"/><path class="cls-10" d="M88.783,83.643l-.561-.273a39.663,39.663,0,0,0-4.62-1.941,23.916,23.916,0,0,0-4.925-1.221L78.6,80.2c-4.6-1.054-6.834.178-8.819,1.594a24.467,24.467,0,0,1-3.05,1.489,11.509,11.509,0,0,1-6.455.083q-3.649-.7-7.354-1.073-1.56-.144-3.13-.224A70.1,70.1,0,0,0,34.1,80.5l-.082,0a22.164,22.164,0,0,0-5.887.767A12.921,12.921,0,0,0,19.3,89.413a22.565,22.565,0,0,0-1.324,5.921,39.405,39.405,0,0,0-.049,5.927l.346,5.717a80.573,80.573,0,0,0,1.52,11.532A44.356,44.356,0,0,0,23.9,129.5a23.648,23.648,0,0,0,3.29,5.014l.609.558c.221.176.471.335.706.5a4.367,4.367,0,0,0,1.7.555,6.788,6.788,0,0,0,3.033-.532c.695-.221,1.439-.5,2.276-.834,3.2-1.279,6.194-4.651,9.093-8.15.689-.552,1.341-1.136,1.973-1.726,1.3-1.232,2.506-2.513,3.686-3.761l.439-.469.226-.239.29-.327a7.818,7.818,0,0,0,.867-1.353,12.622,12.622,0,0,0,.981-2.722,20.878,20.878,0,0,0,.461-2.663q.277-.865.554-1.757c.425-1.368.868-2.784,1.361-4.149.537-.958,1.062-1.9,1.621-2.788a9.8,9.8,0,0,1,3.979-4.095c.2-.068.392-.145.587-.226.206-.046.421-.061.63-.1l.317-.063.338.009c.226,0,.451.008.681,0,.471.088.948.133,1.438.247.484.161.987.26,1.484.44.494.2.994.391,1.51.571a5.669,5.669,0,0,0,1.918.466c2.218.442,5-.264,8.191-2.122.116-.068.231-.144.346-.213a25.307,25.307,0,0,0,4.2-2.511,27.122,27.122,0,0,0,3.826-3.366,18.883,18.883,0,0,0,3.1-4.259,6.8,6.8,0,0,0,.825-3.011,3.109,3.109,0,0,0-.766-2.077A3.189,3.189,0,0,0,88.783,83.643Zm-11.4,14.835c-2.9,1.687-5.409,2.329-7.267,1.911a4.143,4.143,0,0,1-1.092-.655c-.488-.347-.993-.681-1.5-1.011a18.039,18.039,0,0,0-1.674-.821,15.575,15.575,0,0,0-1.866-.549,7.5,7.5,0,0,0-4.118.45,7.881,7.881,0,0,0-3.149,2.55,12.54,12.54,0,0,0-1.76,3.268,21.584,21.584,0,0,0-.9,3.259c-.511,1.408-.966,2.862-1.4,4.266q-.278.9-.554,1.758c-.434.764-.834,1.528-1.234,2.269-.411.758-.808,1.5-1.241,2.139a10.044,10.044,0,0,1-1.537,1.749,28.973,28.973,0,0,0-3.32,4.325c-.464.74-.9,1.49-1.315,2.265-2.777,3.351-5.63,6.567-8.494,7.713-.791.316-1.475.586-2.093.794a5.567,5.567,0,0,1-2.419.259,3.068,3.068,0,0,1-1.8-1.224A23.943,23.943,0,0,1,26,128.466c-.755-1.708-1.441-3.435-2.036-5.186a42.88,42.88,0,0,1-1.392-5.364,83.561,83.561,0,0,1-1.307-11.152l-.415-5.7a42.712,42.712,0,0,1-.049-5.5c.209-3.6,1.173-7.188,3.56-9.662,2.253-2.354,5.661-3.465,9.141-3.868.762-.056,1.539-.093,2.343-.093A74.283,74.283,0,0,1,48.712,83.4c1.262.451,2.532.849,3.805,1.221q3.573,1.016,7.2,1.7c.578.115,1.3.2,1.944.292a13.786,13.786,0,0,0,2.064.014,9.108,9.108,0,0,0,4.03-1.22,15.853,15.853,0,0,0,2.926-2.4c1.782-1.263,3.735-2.276,7.817-1.291a39.367,39.367,0,0,1,4.187,1.88c1.412.743,2.82,1.5,4.214,2.306l.525.3c.063.067.076.047.059.062-.022,0,.016-.021,0,.187a4.306,4.306,0,0,1-.544,1.649,20.768,20.768,0,0,1-2.549,3.72c-.985,1.206-2.081,2.341-3.2,3.461-1.106,1.04-2.243,2.057-3.452,3C77.618,98.333,77.5,98.409,77.384,98.478Z" transform="translate(-17.837 -35.313)"/><path class="cls-10" d="M94.277,75.574v-.007C94.269,75.586,94.265,75.6,94.277,75.574Z" transform="translate(-17.837 -35.313)"/><path class="cls-10" d="M117.555,72.636a19.755,19.755,0,0,0,1.861-2.083,30.357,30.357,0,0,0,2.265-3.362,19.91,19.91,0,0,0,2.009-3.084,16.228,16.228,0,0,0,1.443-3.725,10.376,10.376,0,0,0,.251-4.274,6.208,6.208,0,0,0-.891-2.27,4.159,4.159,0,0,0-.855-.977c-.161-.139-.336-.3-.491-.41l-.451-.285a9.432,9.432,0,0,0-4.025-1.366,9.536,9.536,0,0,0-3.892.47c-.413.078-.83.177-1.253.3a21.325,21.325,0,0,0-7.047,3.888,29.253,29.253,0,0,0-3.962,3.063,38.938,38.938,0,0,0-6.556,7.845,41.186,41.186,0,0,0-2.475,4.491c-.375.769-.7,1.569-1.012,2.366l-.436,1.216-.052.153a1.652,1.652,0,0,0-.064.223,2.579,2.579,0,0,0-.081.684c.016.175.039.349.068.521.036.153.085.281.129.421a6.5,6.5,0,0,0,1.649,2.448,8.829,8.829,0,0,0,1.878,1.334,7.387,7.387,0,0,0,4.04,1.253,8.092,8.092,0,0,0,4.275-1.312c.039-.024.076-.042.115-.066.789-.266,1.558-.543,2.324-.813,1.59-.565,3.177-1.1,4.8-1.794a16.535,16.535,0,0,0,4.665-2.84A11.354,11.354,0,0,0,117.555,72.636Zm-3.131.086c-1.437.746-2.918,1.342-4.492,2.013a28.008,28.008,0,0,0-4.677,2.454,18.091,18.091,0,0,0-2.048,1.633c-.037.023-.072.04-.11.063a5.894,5.894,0,0,1-6.428.257,7.319,7.319,0,0,1-1.5-1.554,4.952,4.952,0,0,1-.878-1.8c-.007-.061-.026-.131-.028-.181a.292.292,0,0,0,.012-.1c0-.031.022.039.006.063l.032-.065.068-.135.521-1.086c.382-.71.717-1.44,1.126-2.137.76-1.42,1.612-2.8,2.466-4.165a78.741,78.741,0,0,1,5.707-7.84c.976-1.176,2.015-2.294,3.092-3.392a19.89,19.89,0,0,1,6.656-3.736c.374-.109.738-.177,1.1-.245a10.212,10.212,0,0,1,3.214.357,8.921,8.921,0,0,1,2.868,1.419l.323.241c.1.078.134.145.207.212a1.446,1.446,0,0,1,.342.448,3.375,3.375,0,0,1,.43,1.2,9.586,9.586,0,0,1-.079,3.159,22.794,22.794,0,0,1-.832,3.4c-.336,1.116-.746,2.218-1.193,3.327a28.678,28.678,0,0,1-2.1,3.107,18.368,18.368,0,0,1-1.687,1.895C115.835,71.962,115.136,72.365,114.424,72.723Z" transform="translate(-17.837 -35.313)"/><g id="NUCLEUS" class="cls-3"><g id="NUCLEUS-2" data-name="NUCLEUS" class="cls-11"><path class="cls-12" d="M134.244,120.225c3.068-1.387,8.421-5.307,6.567-10.749-3.038-4.945-10.648-4.563-16.078-3.314-1.893.448-3.338,4.516,1.316,9C129.213,118.211,131.175,121.613,134.244,120.225Z" transform="translate(-17.837 -35.313)"/><path class="cls-13" d="M52.143,96.668c.849-3.549-.269-5.774-3.5-5.841s-4.817.62-5.7,4.077-1.56,5.2,2.341,5.945S51.875,97.79,52.143,96.668Z" transform="translate(-17.837 -35.313)"/><path class="cls-14" d="M78.521,91.859c.633-2.645-.2-4.3-2.606-4.353s-5.005.488-4.251,3.038c.646,2.182.369,3.132,3.276,3.683S78.321,92.694,78.521,91.859Z" transform="translate(-17.837 -35.313)"/><path class="cls-15" d="M115.2,64.213c-.534-2.549-.928-3.094-3.333-3.144s-3.443.124-3.524,1.829c-.107,2.273.4,2.985,3.276,3.683C115.225,67.456,115.379,65.054,115.2,64.213Z" transform="translate(-17.837 -35.313)"/><path class="cls-16" d="M52.113,91.782a3.4,3.4,0,0,0-.664-.65,4.119,4.119,0,0,0-2.011-1.069,9.755,9.755,0,0,0-2.273-.191,5.747,5.747,0,0,0-2.409.556A4.447,4.447,0,0,0,42.9,92.289a7.051,7.051,0,0,0-.7,2.225,20.379,20.379,0,0,0-.216,2.066,4.119,4.119,0,0,0,.141,3.206,2.827,2.827,0,0,0,1.224,1.019,6.329,6.329,0,0,0,1.906.867,5.68,5.68,0,0,0,2.309.13,6.489,6.489,0,0,0,2.164-.81,7.3,7.3,0,0,0,2.9-3.333,3.346,3.346,0,0,0,.271-1.174,7.66,7.66,0,0,0-.006-1.019A4.955,4.955,0,0,0,52.113,91.782Zm-9.106,7.443A3.35,3.35,0,0,1,43,96.818c.271-.608.541-1.252.787-1.869a8.637,8.637,0,0,1,.826-1.646,3,3,0,0,1,1.1-1.005,5.1,5.1,0,0,1,1.615-.444,18.3,18.3,0,0,1,1.9-.158,3.791,3.791,0,0,1,1.639.319,2.327,2.327,0,0,1,.42.41,4.029,4.029,0,0,1,.559,2.942c-.093.283-.194.561-.3.837a2.282,2.282,0,0,1-.379.684A9.389,9.389,0,0,1,48.637,99.2a6.679,6.679,0,0,1-1.488.663,5.95,5.95,0,0,1-1.624.192,9.552,9.552,0,0,1-1.752-.2A1.817,1.817,0,0,1,43.007,99.225Z" transform="translate(-17.837 -35.313)"/><path class="cls-16" d="M141.414,109.271l-.06-.128a6.113,6.113,0,0,0-.562-.612,8.732,8.732,0,0,0-4.225-2.919,10.557,10.557,0,0,0-2.282-.854,15.754,15.754,0,0,0-5.051-.362,20.6,20.6,0,0,0-2.483.359c-.409.084-.814.18-1.216.29-.2.051-.4.114-.6.172s-.363.1-.69.235a3.059,3.059,0,0,0-1.642,2.382c-.008.026-.018.05-.026.077a6.212,6.212,0,0,0,.723,4.571,7.659,7.659,0,0,0,.747,1.684,9.868,9.868,0,0,0,1.152,1.552l1.208,1.3a20.8,20.8,0,0,0,2.7,2.484,6.891,6.891,0,0,0,1.651.919,3.952,3.952,0,0,0,2.089.655,3.886,3.886,0,0,0,1.613-.373c.3-.134.6-.287.922-.458a14.026,14.026,0,0,0,1.308-.54,11.318,11.318,0,0,0,3.265-2.448,8.181,8.181,0,0,0,2.012-3.759A6.535,6.535,0,0,0,141.414,109.271Zm-7.387,10.476a2.672,2.672,0,0,1-2.708-.213c-.387-.381-.725-.807-1.087-1.238-.723-.89-1.456-1.837-2.3-2.723-.415-.437-.89-.887-1.332-1.267s-.841-.75-1.246-1.144-.771-.784-1.137-1.212a5.227,5.227,0,0,1-.624-3.762l.007-.02a1.992,1.992,0,0,1,1.229-1.17l2.244-.276c.779-.094,1.557-.169,2.332-.233a34.6,34.6,0,0,1,4.629-.1,17.4,17.4,0,0,1,2.277.246,7.707,7.707,0,0,1,3.647,2.528c.089.174.173.348.251.524a7.26,7.26,0,0,1-.176,3.331,9.044,9.044,0,0,1-1.628,2.913,19.61,19.61,0,0,1-2.519,2.549l-.71.6-.379.291C134.532,119.505,134.273,119.636,134.027,119.747Z" transform="translate(-17.837 -35.313)"/><path class="cls-16" d="M76.878,86.785a5.842,5.842,0,0,0-2.035.223,5.162,5.162,0,0,0-3.024.941,1.97,1.97,0,0,0-.984.928,2.643,2.643,0,0,0-.25,1.388,4.416,4.416,0,0,0,.1.619l.111.455a5.142,5.142,0,0,0,.928,2.042,2.114,2.114,0,0,0,1.124.691,6,6,0,0,0,2,.671,5.491,5.491,0,0,0,1.014.1c.039,0,.074,0,.112-.006a2.876,2.876,0,0,0,2.154-.5,3.8,3.8,0,0,0,1.292-1.961A7.028,7.028,0,0,0,79.77,90.3a3.8,3.8,0,0,0-.71-2.328A3.105,3.105,0,0,0,76.878,86.785Zm-1.841,6.926a4.91,4.91,0,0,1-1.649-.53,1.642,1.642,0,0,1-.258-.663,16.987,16.987,0,0,0-.305-1.714l-.153-.5-.124-.347a3.175,3.175,0,0,1-.147-.573,1.212,1.212,0,0,1,.1-.638,4.323,4.323,0,0,1,2.443-.7,8.689,8.689,0,0,1,1.6.353,1.6,1.6,0,0,1,.89.712,2.4,2.4,0,0,1,.242,1.189,8.4,8.4,0,0,1-.178,1.572,2.933,2.933,0,0,1-.464,1.238,1.97,1.97,0,0,1-1.136.681A4.3,4.3,0,0,1,75.038,93.711Z" transform="translate(-17.837 -35.313)"/><path class="cls-16" d="M116.055,65.05a2.632,2.632,0,0,0-.134-.694,1.96,1.96,0,0,0-.265-.527,7.217,7.217,0,0,0-.647-1.944,1.782,1.782,0,0,0-.454-.991,2.858,2.858,0,0,0-1.861-.832,4.376,4.376,0,0,0-1.655.176,4.072,4.072,0,0,0-.785.333,2.955,2.955,0,0,0-1.744.613,1.7,1.7,0,0,0-.83.75,2.769,2.769,0,0,0-.327.94,4,4,0,0,0-.063.828,2.764,2.764,0,0,0,.7,1.822,1.826,1.826,0,0,0,.863.509,5.722,5.722,0,0,0,1.878.852,4.8,4.8,0,0,0,1,.557,3.7,3.7,0,0,0,2.658.149,2.6,2.6,0,0,0,1.3-1.044A2.541,2.541,0,0,0,116.055,65.05Zm-6.659-.394c-.006-.305.009-.608-.008-1.033-.014-.2-.02-.43-.05-.66-.03-.2-.059-.369-.092-.525a1.509,1.509,0,0,1-.052-.47,1.955,1.955,0,0,1,1.151-.349,6.134,6.134,0,0,0,.713.268,7.094,7.094,0,0,0,1.445.264c.449.042.795.042,1.069.062a1.193,1.193,0,0,1,.532.175,5.958,5.958,0,0,1,.519,1.626v0a2.261,2.261,0,0,1-.075.481,2.891,2.891,0,0,1-.136.382,1.409,1.409,0,0,1-.348.513,1.318,1.318,0,0,1-.4.228,5.617,5.617,0,0,1-1.6.207c-.33.011-.671.028-1.025.054a4.587,4.587,0,0,1-1.529-.666A1.639,1.639,0,0,1,109.4,64.657Z" transform="translate(-17.837 -35.313)"/></g></g><g class="cls-3"><path class="cls-17" d="M51.363,143.953c-1.377-.784-2.908-2.371-3.4-2.441-.56-.079-1.192,1.522-1.816,3.02a10.229,10.229,0,0,0-.932,2.336,58.745,58.745,0,0,0,4.673,4.482c3.373,2.893,5.83,3.532,6.649,2.94a1.31,1.31,0,0,0,.574-.671c.354-.844.066-2.3-.636-3.825A12.866,12.866,0,0,0,51.363,143.953Z" transform="translate(-17.837 -35.313)"/><path class="cls-18" d="M54.475,147.528c-.021-.043-.044-.031-.044-.031-.185.125-.229,2-.47,2.7-.374,1.365-.93,1.806-1.524,1.336a1.179,1.179,0,0,1-.365-.487c-.226-.591.267-1.111.624-2.487a5.586,5.586,0,0,0,0-2.959,8.793,8.793,0,0,0-1.3-.922A14.067,14.067,0,0,1,48.14,142.1a.35.35,0,0,0-.169-.112c-.058-.012-.061.018-.119.037-.737,1.473-1.348,3.054-2.025,4.615-.063.171.291.428.646.788.34.024,1.038-.732,1.329-1.3.723-1.226,1.024-2.3,1.846-1.635a1.225,1.225,0,0,1,.369.494c.229.533.064,1.1-.482,1.958-.175.244-.395.517-.607.773-.4.49-.8.9-.729,1.278a.729.729,0,0,0,.241.348c.638.577,1.253,1.134,1.877,1.641,2.613,2.186,5.1,3.306,5.9,2.257C57.026,152.268,56,149.561,54.475,147.528Z" transform="translate(-17.837 -35.313)"/></g><g class="cls-3"><path class="cls-19" d="M36.8,108.387c-.158-1.173-.253-2.343-.376-3.588a5.176,5.176,0,0,0-2.092-4.049c-2.557-2.021-5.2,1.528-5.417,6.009A33.222,33.222,0,0,0,32.1,120.3c.229.493,1.943-1.077,3.661-2.367,1.522-1.142,3.137-1.939,2.908-2.309A30.162,30.162,0,0,1,36.8,108.387Z" transform="translate(-17.837 -35.313)"/><path class="cls-18" d="M35.309,117.123c-1.077.762-1.7,1.079-2.134.811a.935.935,0,0,1-.353-.466c-.383-1.027.627-1.78,2.041-2.726.61-.453,2.28-1.361,2.157-1.823a39.413,39.413,0,0,1-1.013-4.774c-.052-.422-.109-.8-.151-1.22-.507-.309-2.094.1-2.822.652-1.374.936-1.717,1.493-2.108,1.293a.814.814,0,0,1-.306-.4c-.209-.73.285-1.773,2.089-2.8a16.788,16.788,0,0,1,2.823-.886,1.231,1.231,0,0,1-.034-.371,3.864,3.864,0,0,0-1.4-2.873c-1.717-1.3-4.2,1.125-4.509,5.386a16.437,16.437,0,0,0,.593,5.6c.347-.274,1.247-1.366,1.919-2,1.516-1.411,2.392-1.534,2.9-1.128a1.142,1.142,0,0,1,.367.595c.278,1.008-.642,1.233-1.894,1.978-1.217.641-2.868,2.278-2.487,3.3.47,1.437,1.484,4.112,1.615,4.382a17.9,17.9,0,0,0,2.915-1.986c1.256-.906,2.451-1.674,2.291-1.777C37.472,115.673,36.08,116.572,35.309,117.123Z" transform="translate(-17.837 -35.313)"/><g class="cls-20"><path class="cls-21" d="M31.6,101.833c-.906.051-3.438,5.694-1.512,11.371a65.846,65.846,0,0,0,2.077,6.459c.2-.144.82-.289,1.016-.435-1.123-3.53-2.352-7.933-2.454-10.948C30.865,102.511,31.651,101.85,31.6,101.833Z" transform="translate(-17.837 -35.313)"/></g></g><g class="cls-22"><path class="cls-23" d="M53.492,152.439c-.041-.222-2.805-2.744-6.132-6.093q-.233.47-.47.939C48.607,148.758,50.629,150.342,53.492,152.439Z" transform="translate(-17.837 -35.313)"/></g><g id="LYSOSOME"><path id="LYSOSOME-2" data-name="LYSOSOME" class="cls-24" d="M59.211,136.4c1.326-.079,1.939.878,1.488,2.126a4.494,4.494,0,0,1-3.305,2.638c-1.418.217-2.231-.712-1.681-2.1A4.547,4.547,0,0,1,59.211,136.4Z" transform="translate(-17.837 -35.313)"/><path id="LYSOSOME-3" data-name="LYSOSOME" class="cls-25" d="M102.72,70.929a2.415,2.415,0,0,1,2.632.133c.575.557.2,1.431-.8,1.919a2.232,2.232,0,0,1-2.605-.182C101.509,72.221,101.851,71.4,102.72,70.929Z" transform="translate(-17.837 -35.313)"/><path id="LYSOSOME-4" data-name="LYSOSOME" class="cls-26" d="M79.022,133.026c1.135-.247,1.944.2,1.855,1.005a3.063,3.063,0,0,1-2.35,2.036c-1.226.319-2.12-.131-1.938-1.008A3.25,3.25,0,0,1,79.022,133.026Z" transform="translate(-17.837 -35.313)"/><path id="LYSOSOME-5" data-name="LYSOSOME" class="cls-27" d="M150.418,52.239c1.389-.621,3.01-.548,3.559.2s-.26,1.865-1.741,2.458-3.017.472-3.476-.251S149.027,52.86,150.418,52.239Z" transform="translate(-17.837 -35.313)"/><path id="LYSOSOME-6" data-name="LYSOSOME" class="cls-28" d="M137.814,43.59a3.822,3.822,0,0,1,3.778-.22c1.208.608,1.313,1.693.32,2.372a3.78,3.78,0,0,1-3.661.14C137.2,45.3,136.968,44.3,137.814,43.59Z" transform="translate(-17.837 -35.313)"/><path id="LYSOSOME-7" data-name="LYSOSOME" class="cls-29" d="M45.838,110.579c1.32-.576,2.935-.3,3.5.65s-.181,2.164-1.559,2.662-2.834.165-3.343-.711S44.515,111.156,45.838,110.579Z" transform="translate(-17.837 -35.313)"/><path id="LYSOSOME-8" data-name="LYSOSOME" class="cls-30" d="M167.228,98.579c1.541-.451,2.9-.069,2.952.866s-1.177,2-2.672,2.364-2.743-.021-2.846-.873S165.685,99.03,167.228,98.579Z" transform="translate(-17.837 -35.313)"/><path id="LYSOSOME-9" data-name="LYSOSOME" class="cls-31" d="M160.714,82.581c1.37-.3,2.519.4,2.452,1.607a3.089,3.089,0,0,1-2.655,2.549c-1.353.195-2.33-.551-2.287-1.645A3.047,3.047,0,0,1,160.714,82.581Z" transform="translate(-17.837 -35.313)"/><path id="LYSOSOME-10" data-name="LYSOSOME" class="cls-32" d="M162.6,114.13a1.374,1.374,0,0,1,1.5,2.022,3.583,3.583,0,0,1-3.087,2.129,1.4,1.4,0,0,1-1.352-2.025A3.559,3.559,0,0,1,162.6,114.13Z" transform="translate(-17.837 -35.313)"/></g></g></svg>