<svg id="Layer_1" data-name="Layer 1" xmlns="http://www.w3.org/2000/svg" xmlns:xlink="http://www.w3.org/1999/xlink" viewBox="0 0 80 38.733"><defs><style>.cls-1{fill:url(#linear-gradient);}.cls-2{fill:#ff7759;}</style><linearGradient id="linear-gradient" x1="61.013" y1="99.992" x2="138.986" y2="99.992" gradientUnits="userSpaceOnUse"><stop offset="0" stop-color="#ff705d"/><stop offset="1" stop-color="#daaa68"/></linearGradient></defs><title>ERGIC</title><g id="ERGIC"><path class="cls-1" d="M126.381,84.543c-.157.116-2.772,1.756-2.887,1.914-3.024,4.194-2.85,6.759-.723,9.916a2.471,2.471,0,0,1,.082,2.6l-.206.361c-.368.645-1.655.71-2.39.668q-.248-.014-.5-.014t-.5.014c-.735.042-1.728.573-2.1-.072l-1.139-1.858a3.2,3.2,0,0,1,.061-2.636c.7-1.1,2.051-1.759,2.225-3.112a10.544,10.544,0,0,0-2.141-7.561c-.115-.159-1.432-1.195-1.59-1.311-4.085-3.012-8.072-1.83-11.051.24-2.344,1.629-2.41,4.36-2.41,7.456a9.618,9.618,0,0,0,.814,4.842,3.112,3.112,0,0,1,.036,3.089h0a1.937,1.937,0,0,1-1.9.957,8.819,8.819,0,0,0-.915-.048h-.069a1.936,1.936,0,0,1-1.708-.97l-.5-.87a3.1,3.1,0,0,1-.055-2.931c1.443-2.89,1.4-6.67-1.161-10.312a2.782,2.782,0,0,0-.651-.658c-4.01-2.882-8.194-2.605-11.136-.6a9.113,9.113,0,0,0-2.839,11.879,3.2,3.2,0,0,1,.008,3.129l-.219.384a1.935,1.935,0,0,1-1.8.966q-.237-.013-.478-.013-.263,0-.523.016a1.93,1.93,0,0,1-1.8-.965L76,98.653a3.1,3.1,0,0,1,.027-3.073c1.608-2.845,1.259-5.687-1.51-9.526-.115-.159-5.166-4.361-10.253-.6-2.531,1.869-3.254,4.06-3.254,7.456a7.473,7.473,0,0,0,2.458,5.743c1.616,1.635,5.051,1.534,5.187,1.527a1.935,1.935,0,0,1,1.787.963l.354.62a6.409,6.409,0,0,1,.209,5.148c-.9,2.016-.92,3.947,1.041,6.8a11.486,11.486,0,0,0,2.937,2.816c3.063,1.842,5.435,1.194,8.03-.041,3.034-1.444,3.578-3.84,3.578-7.458,0-1.789-1.1-3.456-1.989-4.859-.393-.623,1.082-1.421,1.447-2.061l.55-.965a1.523,1.523,0,0,1,1.5-.966,18.531,18.531,0,0,1,3.323.507,1.094,1.094,0,0,1,.76,1.047,4.646,4.646,0,0,1-.318,2.069,9.047,9.047,0,0,0-1.528,3.753,10.467,10.467,0,0,0,2.1,7.858,14.989,14.989,0,0,0,1.3,1.014c1.7,1.252,4.312,1.636,5.969,1.857,3.807.508,5.461-1.713,7.189-4.748a9.08,9.08,0,0,0,1.187-4.506c0-1.619-1.01-3.137-1.746-4.451a4.411,4.411,0,0,1-.349-2.734.837.837,0,0,1,.124-.2l1.069-1.39c.3-.523,1.482.036,2.242.2a1.1,1.1,0,0,0,.509-.013c.485-.127,1.749-.4,2.044.115l1.154.806a1.068,1.068,0,0,1,.464.787,3.939,3.939,0,0,1-.5,2.056c-1.879,3-1.917,4.971.546,9.265,1.2,2.085,7.543,5.02,10.531,2.72a9.134,9.134,0,0,0,3.9-7.053c0-1.782-2.038-4.142-2.918-5.542-.35-.557-.019-1.385.315-2.01a1.116,1.116,0,0,1,.281-.342l.829-.671c.367-.643,2.318-.425,3.05-.388q.213.011.428.011c2.207,0,4.816-.513,6.374-1.856,1.923-1.658,2.554-4.424,2.554-7.181,0-2.94-.8-4.251-2.95-5.9C133.049,82.953,130.627,81.412,126.381,84.543Z" transform="translate(-60 -80.633)"/><path class="cls-2" d="M100.761,119.367a8.991,8.991,0,0,1-1.189-.082c-1.563-.208-4.471-.6-6.437-2.046l-.078-.057A6.535,6.535,0,0,1,91.618,116a11.448,11.448,0,0,1-2.274-8.613,10.13,10.13,0,0,1,1.7-4.173,5.134,5.134,0,0,0,.134-1.483.085.085,0,0,0-.047-.082,17.49,17.49,0,0,0-3.076-.463c-.194-.009-.3-.016-.57.456l-.55.965a4.349,4.349,0,0,1-.881.981c-.11.1-.266.243-.384.364a9.827,9.827,0,0,1,1.938,5.073c0,3.236-.321,6.548-4.156,8.373-2.425,1.154-5.32,2.2-8.988-.005a12.462,12.462,0,0,1-3.249-3.11c-1.957-2.847-2.3-5.176-1.132-7.787a5.451,5.451,0,0,0-.163-4.234l-.354-.62a.926.926,0,0,0-.859-.453c-.162.008-3.988.165-5.956-1.827A8.511,8.511,0,0,1,60,92.906c0-3.34.623-6.025,3.666-8.271a8.407,8.407,0,0,1,6.492-1.648,9.994,9.994,0,0,1,5.185,2.475c2.935,4.071,3.419,7.346,1.57,10.618a2.082,2.082,0,0,0-.029,2.072l.22.386a.917.917,0,0,0,.861.455,9.873,9.873,0,0,1,1.118,0,.917.917,0,0,0,.864-.456l.219-.384a2.179,2.179,0,0,0-.017-2.139,10.127,10.127,0,0,1,3.157-13.2c3.623-2.466,8.335-2.229,12.3.618a3.772,3.772,0,0,1,.889.9c2.565,3.651,3.016,7.787,1.238,11.348a2.093,2.093,0,0,0,.028,1.976l.5.87a.917.917,0,0,0,.819.459h.078a9.89,9.89,0,0,1,1.02.053.92.92,0,0,0,.912-.451,2.09,2.09,0,0,0-.036-2.086,10.589,10.589,0,0,1-.946-5.343c0-2.958,0-6.311,2.845-8.288,4.161-2.892,8.5-2.971,12.231-.223a17.425,17.425,0,0,1,1.81,1.533,11.547,11.547,0,0,1,2.325,8.283,4.521,4.521,0,0,1-1.568,2.609,5.811,5.811,0,0,0-.806.917,2.362,2.362,0,0,0-.036,1.59l1.013,1.653c.127-.019.3-.058.422-.087a5.223,5.223,0,0,1,.86-.145,9.644,9.644,0,0,1,1.118,0,2.946,2.946,0,0,0,1.469-.19l.188-.33a1.463,1.463,0,0,0-.043-1.532c-2.55-3.786-2.349-6.788.742-11.075.148-.206.193-.268,2.5-1.749.3-.195.539-.345.611-.394,4.7-3.458,7.581-1.8,10.867.723,2.533,1.947,3.346,3.576,3.346,6.7,0,3.561-1,6.31-2.906,7.949-2.2,1.9-5.653,2.1-7.036,2.1-.16,0-.32,0-.479-.012l-.323-.02a6.448,6.448,0,0,0-1.892.037,1,1,0,0,1-.147.146l-.829.671a.108.108,0,0,0-.025.032c-.405.757-.342,1.011-.341,1.013.176.275.432.637.7,1.02,1.052,1.489,2.361,3.342,2.361,5.041a10.13,10.13,0,0,1-4.3,7.856,6.5,6.5,0,0,1-5.347.852c-2.825-.564-5.759-2.264-6.681-3.871-2.557-4.459-2.68-6.867-.526-10.307a2.986,2.986,0,0,0,.346-1.444h0a.325.325,0,0,0-.034-.031l-1.154-.806a1.008,1.008,0,0,1-.141-.118,3.731,3.731,0,0,0-1.066.153,2.1,2.1,0,0,1-.977.024c-.23-.048-.474-.122-.709-.192-.19-.057-.474-.142-.671-.181l-.912,1.186a3.907,3.907,0,0,0,.3,1.831c.091.163.187.33.285.5a9.083,9.083,0,0,1,1.59,4.447,10.134,10.134,0,0,1-1.32,5.007C106.17,116.851,104.41,119.366,100.761,119.367Zm-7.539-4.607c.082.073.323.269,1.03.785l.086.063c1.546,1.141,4.119,1.483,5.5,1.668,2.987.4,4.319-.987,6.173-4.245a8.1,8.1,0,0,0,1.054-4,7.489,7.489,0,0,0-1.32-3.436c-.1-.177-.2-.35-.3-.52a5.332,5.332,0,0,1-.41-3.6,1.822,1.822,0,0,1,.266-.455l1.035-1.347c.641-1,1.952-.608,2.742-.371.2.062.4.119.545.151a.09.09,0,0,0,.043,0c1.474-.387,2.488-.265,3.02.361l1.017.711a2.07,2.07,0,0,1,.9,1.543,4.923,4.923,0,0,1-.65,2.668c-1.626,2.6-1.771,4.148.566,8.223.495.863,2.758,2.381,5.319,2.892a4.666,4.666,0,0,0,3.714-.47c1.31-1.008,3.507-3.16,3.507-6.25,0-1.055-1.15-2.682-1.99-3.871-.287-.406-.558-.79-.773-1.131-.724-1.153.031-2.564.28-3.028a2.117,2.117,0,0,1,.536-.65l.719-.582c.66-.835,2.06-.819,3.559-.72l.29.018c.125.006.251.009.378.009,1.858,0,4.335-.423,5.712-1.61,1.82-1.569,2.2-4.354,2.2-6.413,0-2.661-.669-3.649-2.555-5.1-2.933-2.254-4.77-3.4-8.436-.693-.066.049-.194.132-.713.464s-1.694,1.085-2.025,1.328c-2.807,3.938-2.414,6.012-.632,8.657a3.5,3.5,0,0,1,.122,3.669l-.206.362c-.658,1.153-2.371,1.232-3.328,1.177a7.613,7.613,0,0,0-.885,0,3.769,3.769,0,0,0-.524.1c-.61.14-1.878.43-2.511-.679L115.158,98.6a4.181,4.181,0,0,1,.07-3.71,7.523,7.523,0,0,1,1.085-1.264c.573-.571.927-.946.989-1.433a9.54,9.54,0,0,0-1.921-6.787c-.234-.219-1.235-1.013-1.406-1.14-3.059-2.256-6.381-2.169-9.871.256-1.837,1.276-1.974,3.451-1.974,6.623a8.839,8.839,0,0,0,.681,4.341,4.1,4.1,0,0,1,.035,4.092,2.953,2.953,0,0,1-2.883,1.462,7.9,7.9,0,0,0-.81-.042h-.087a2.957,2.957,0,0,1-2.571-1.482l-.5-.87a4.116,4.116,0,0,1-.081-3.885c1.435-2.873,1.04-6.255-1.083-9.277a1.752,1.752,0,0,0-.413-.418c-3.3-2.372-7.03-2.592-9.974-.589a8.1,8.1,0,0,0-2.52,10.554,4.192,4.192,0,0,1,0,4.118l-.219.384a2.94,2.94,0,0,1-2.736,1.476,7.756,7.756,0,0,0-.885,0,2.938,2.938,0,0,1-2.744-1.475l-.22-.386a4.092,4.092,0,0,1,.025-4.073c1.434-2.538,1.032-4.963-1.391-8.354-.449-.371-4.627-3.608-8.886-.463-2.1,1.55-2.843,3.288-2.843,6.641a6.489,6.489,0,0,0,2.165,5.031c1.092,1.106,3.618,1.262,4.419,1.227a2.947,2.947,0,0,1,2.714,1.474l.354.62a7.449,7.449,0,0,1,.254,6.063c-.74,1.66-.839,3.211.95,5.813a10.609,10.609,0,0,0,2.624,2.522c2.557,1.537,4.459,1.155,7.072-.088,2.536-1.207,3-3.15,3-6.542,0-1.423-.915-2.869-1.723-4.146l-.109-.172c-.705-1.117.363-2.092.937-2.617a4.12,4.12,0,0,0,.487-.489l.549-.964a2.525,2.525,0,0,1,2.437-1.476,19.255,19.255,0,0,1,3.571.551,2.1,2.1,0,0,1,1.473,2.011,4.435,4.435,0,0,1-.5,2.656,7.974,7.974,0,0,0-1.357,3.332A9.446,9.446,0,0,0,93.222,114.759Zm.034.048.005.008Zm34.2-13.742h0Zm-16.367-.017h0Zm6.925-1.658.007.012ZM73.7,86.647l.022.03Zm52.683-2.1h0Z" transform="translate(-60 -80.633)"/></g></svg>