<svg id="Layer_1" data-name="Layer 1" xmlns="http://www.w3.org/2000/svg" xmlns:xlink="http://www.w3.org/1999/xlink" viewBox="0 0 26.64 178.333"><defs><style>.cls-1{fill:url(#linear-gradient);}.cls-2{fill:url(#linear-gradient-2);}</style><linearGradient id="linear-gradient" x1="99.68" y1="10.981" x2="99.68" y2="113.295" gradientUnits="userSpaceOnUse"><stop offset="0" stop-color="#0f82bc"/><stop offset="1" stop-color="#e57a91"/></linearGradient><linearGradient id="linear-gradient-2" x1="86.36" y1="138.157" x2="113" y2="138.157" gradientUnits="userSpaceOnUse"><stop offset="0" stop-color="#0f82bc"/><stop offset="0.097" stop-color="#1882ba"/><stop offset="0.253" stop-color="#3081b5"/><stop offset="0.451" stop-color="#577fad"/><stop offset="0.681" stop-color="#8e7da3"/><stop offset="0.936" stop-color="#d37b95"/><stop offset="1" stop-color="#e57a91"/></linearGradient></defs><title>NCAM_trans</title><path class="cls-1" d="M109.91,113.3a3.092,3.092,0,0,1-2.732-1.64L96.95,92.43a3.092,3.092,0,0,1-.362-1.452V72.525L86.722,53.982a3.092,3.092,0,0,1-.362-1.452V14.073a3.092,3.092,0,1,1,6.184,0V51.758L102.409,70.3a3.092,3.092,0,0,1,.362,1.452V90.207l9.866,18.543a3.093,3.093,0,0,1-2.727,4.545Z" transform="translate(-86.36 -10.981)"/><path class="cls-2" d="M89.452,189.314a3.092,3.092,0,0,1-3.092-3.092V147.766a3.092,3.092,0,0,1,.362-1.452l9.866-18.543V109.317a3.092,3.092,0,0,1,.362-1.452L107.178,88.64a3.092,3.092,0,1,1,5.459,2.9l-9.866,18.543v18.453a3.092,3.092,0,0,1-.362,1.452l-9.866,18.543v37.685A3.092,3.092,0,0,1,89.452,189.314Z" transform="translate(-86.36 -10.981)"/></svg>