<svg id="Layer_1" data-name="Layer 1" xmlns="http://www.w3.org/2000/svg" xmlns:xlink="http://www.w3.org/1999/xlink" viewBox="0 0 120.94 32.949"><defs><style>.cls-1{fill:url(#linear-gradient);}.cls-2{fill:#0052af;}.cls-3{font-size:12px;fill:#fff;font-family:Arial-BoldMT, Arial;font-weight:700;}.cls-4{letter-spacing:-0.037em;}.cls-5{letter-spacing:-0.074em;}.cls-6{letter-spacing:-0.02em;}</style><linearGradient id="linear-gradient" x1="60.811" y1="31.347" x2="60.811" y2="1.347" gradientUnits="userSpaceOnUse"><stop offset="0" stop-color="#06a2b2"/><stop offset="1" stop-color="#a20e40"/></linearGradient></defs><title>R-ICO-013636</title><g id="DNA_REPLICATION_PROTEIN" data-name="DNA REPLICATION PROTEIN"><rect class="cls-1" x="1.311" y="1.347" width="119" height="30" rx="10" ry="10"/><path class="cls-2" d="M149.5,115.15c-11.7-.011-23.4.447-35.1.837-11.7.458-23.4.546-35.1.613-5.849,0-11.7.019-17.548-.037l-8.774-.076-2.194-.019a13.669,13.669,0,0,1-2.457-.232,11.425,11.425,0,0,1-9.121-10.525c-.049-.873,0-1.522,0-2.276l.033-2.194.067-4.387c.019-.748,0-1.424.051-2.232a8.646,8.646,0,0,1,.126-1.215,7.831,7.831,0,0,1,.258-1.193A10.992,10.992,0,0,1,50.5,84.179c11.7.261,23.4.449,35.1.335,5.849-.049,11.7-.194,17.548-.349l17.548-.413c5.849-.085,11.7-.131,17.548-.071q4.387.022,8.774.128l2.194.045a12.493,12.493,0,0,1,2.388.269,10.941,10.941,0,0,1,8.531,10.207c-.024,3.006-.162,5.872-.237,8.815a17.979,17.979,0,0,1-.451,4.429,10.378,10.378,0,0,1-9.941,7.575Zm0-.3a9.648,9.648,0,0,0,9.395-7.418,14.894,14.894,0,0,0,.213-4.287c-.1-2.906-.149-5.892-.3-8.732a9.14,9.14,0,0,0-3.988-6.72,8.78,8.78,0,0,0-3.633-1.445,12.142,12.142,0,0,0-1.976-.1l-2.194.045q-4.387.108-8.774.128c-5.85.061-11.7.015-17.548-.071l-17.548-.413c-5.849-.155-11.7-.3-17.548-.349-11.7-.114-23.4.074-35.1.335a9.183,9.183,0,0,0-6.9,3.457,9.005,9.005,0,0,0-1.681,3.5,5.791,5.791,0,0,0-.176.954,6.487,6.487,0,0,0-.07.967c-.022.652.013,1.44.017,2.154l.067,4.387.033,2.194c.019.708,0,1.523.063,2.11a8.758,8.758,0,0,0,1.091,3.6,8.867,8.867,0,0,0,2.514,2.785,8.368,8.368,0,0,0,3.425,1.464,10.642,10.642,0,0,0,1.907.141l2.194-.019,8.774-.076c5.849-.056,11.7-.036,17.548-.037,11.7.066,23.4.155,35.1.613C126.1,114.4,137.8,114.861,149.5,114.85Z" transform="translate(-39.189 -83.653)"/><text class="cls-3" transform="translate(5.554 11.832)">DN<tspan class="cls-4" x="17.332" y="0">A</tspan><tspan x="25.553" y="0" xml:space="preserve"> REPLIC</tspan><tspan class="cls-5" x="72.891" y="0">A</tspan><tspan x="80.666" y="0">TION</tspan><tspan x="28.116" y="14.4">PROTEI</tspan><tspan class="cls-6" x="72.788" y="14.4">N</tspan></text></g></svg>