<svg id="Layer_1" data-name="Layer 1" xmlns="http://www.w3.org/2000/svg" xmlns:xlink="http://www.w3.org/1999/xlink" viewBox="0 0 63.43 100"><defs><style>.cls-1{fill:url(#linear-gradient);}.cls-2{fill:url(#linear-gradient-2);}.cls-3{fill:url(#linear-gradient-3);}.cls-4{fill:url(#linear-gradient-4);}.cls-5{fill:url(#linear-gradient-5);}.cls-6{fill:url(#linear-gradient-6);}.cls-7{fill:url(#linear-gradient-7);}.cls-8{fill:url(#linear-gradient-8);}.cls-9{fill:url(#linear-gradient-9);}.cls-10{fill:url(#linear-gradient-10);}.cls-11{fill:url(#linear-gradient-11);}.cls-12{fill:url(#linear-gradient-12);}.cls-13{fill:url(#linear-gradient-13);}.cls-14{fill:url(#linear-gradient-14);}.cls-15{fill:url(#linear-gradient-15);}.cls-16{fill:url(#linear-gradient-16);}</style><linearGradient id="linear-gradient" x1="1442.91" y1="-1650.625" x2="1474.086" y2="-1645.065" gradientTransform="matrix(0.17, 0.838, -0.717, 0.146, -1323.499, -863.822)" gradientUnits="userSpaceOnUse"><stop offset="0" stop-color="#231d0f"/><stop offset="0.094" stop-color="#907330"/><stop offset="0.117" stop-color="#937737"/><stop offset="0.15" stop-color="#9c8349"/><stop offset="0.189" stop-color="#aa9668"/><stop offset="0.231" stop-color="#bdb092"/><stop offset="0.273" stop-color="#d3cec1"/><stop offset="0.31" stop-color="#d2ccbe"/><stop offset="0.335" stop-color="#cec7b5"/><stop offset="0.357" stop-color="#c6bda6"/><stop offset="0.377" stop-color="#bcaf90"/><stop offset="0.396" stop-color="#b09e74"/><stop offset="0.413" stop-color="#a08952"/><stop offset="0.428" stop-color="#907330"/><stop offset="0.506" stop-color="#796129"/><stop offset="0.652" stop-color="#54431e"/><stop offset="0.787" stop-color="#392e16"/><stop offset="0.908" stop-color="#292211"/><stop offset="1" stop-color="#231d0f"/></linearGradient><linearGradient id="linear-gradient-2" x1="1528.105" y1="949.016" x2="1514.027" y2="947.966" gradientTransform="matrix(0.917, 0.4, 0.4, -0.917, -1683.667, 390.985)" xlink:href="#linear-gradient"/><linearGradient id="linear-gradient-3" x1="2367.546" y1="-754.688" x2="2384.063" y2="-751.743" gradientTransform="translate(-648.982 -2233.977) rotate(90)" xlink:href="#linear-gradient"/><linearGradient id="linear-gradient-4" x1="2384.87" y1="-744.047" x2="2366.859" y2="-745.391" gradientTransform="translate(-648.982 -2233.977) rotate(90)" xlink:href="#linear-gradient"/><linearGradient id="linear-gradient-5" x1="758.802" y1="1406.123" x2="741.218" y2="1404.811" gradientTransform="matrix(-0.142, -0.99, 0.99, -0.142, -1191.931, 1039.629)" gradientUnits="userSpaceOnUse"><stop offset="0" stop-color="#0f231b"/><stop offset="0.094" stop-color="#30906b"/><stop offset="0.117" stop-color="#37936f"/><stop offset="0.15" stop-color="#499c7c"/><stop offset="0.189" stop-color="#68aa90"/><stop offset="0.231" stop-color="#92bdac"/><stop offset="0.273" stop-color="#c1d3cc"/><stop offset="0.31" stop-color="#bed2ca"/><stop offset="0.335" stop-color="#b5cec4"/><stop offset="0.357" stop-color="#a6c6ba"/><stop offset="0.377" stop-color="#90bcab"/><stop offset="0.396" stop-color="#74b099"/><stop offset="0.413" stop-color="#52a082"/><stop offset="0.428" stop-color="#30906b"/><stop offset="0.506" stop-color="#29795a"/><stop offset="0.652" stop-color="#1e543f"/><stop offset="0.787" stop-color="#16392b"/><stop offset="0.908" stop-color="#11291f"/><stop offset="1" stop-color="#0f231b"/></linearGradient><linearGradient id="linear-gradient-6" x1="917.206" y1="265.84" x2="904.547" y2="264.896" gradientTransform="matrix(0.142, -0.99, -0.99, -0.142, 237.577, 1039.629)" xlink:href="#linear-gradient-5"/><linearGradient id="linear-gradient-7" x1="946.029" y1="1432.549" x2="931.34" y2="1431.453" gradientTransform="matrix(-0.142, 0.99, 0.99, 0.142, -1191.931, -1059.144)" xlink:href="#linear-gradient-5"/><linearGradient id="linear-gradient-8" x1="1350.031" y1="-1389.684" x2="1321.532" y2="-1391.81" gradientTransform="translate(-1460.128 -1059.144) rotate(81.862)" xlink:href="#linear-gradient-5"/><linearGradient id="linear-gradient-9" x1="1711.552" y1="-685.65" x2="1710.001" y2="-679.816" gradientTransform="translate(-1489.848 1011.709) rotate(-8.138)" xlink:href="#linear-gradient-5"/><linearGradient id="linear-gradient-10" x1="2648.098" y1="-55.763" x2="2668.108" y2="-52.195" gradientTransform="translate(-2540.857 132.77)" xlink:href="#linear-gradient-5"/><linearGradient id="linear-gradient-11" x1="2669.088" y1="-42.93" x2="2647.374" y2="-44.55" gradientTransform="translate(-2540.857 132.77)" xlink:href="#linear-gradient-5"/><linearGradient id="linear-gradient-12" x1="-185.939" y1="-152.883" x2="-165.93" y2="-149.314" gradientTransform="translate(-94.849 -60.429) rotate(180)" xlink:href="#linear-gradient-5"/><linearGradient id="linear-gradient-13" x1="-164.95" y1="-140.049" x2="-186.664" y2="-141.669" gradientTransform="translate(-94.849 -60.429) rotate(180)" xlink:href="#linear-gradient-5"/><linearGradient id="linear-gradient-14" x1="875.596" y1="-1475.293" x2="850.212" y2="-1477.187" gradientTransform="translate(-322.004 -1543.393) rotate(135.857)" xlink:href="#linear-gradient-5"/><linearGradient id="linear-gradient-15" x1="903.592" y1="-1243.554" x2="876.366" y2="-1254.185" gradientTransform="translate(659.431 -1353.111) rotate(166.623)" xlink:href="#linear-gradient-5"/><linearGradient id="linear-gradient-16" x1="1854.618" y1="-1026.985" x2="1883.197" y2="-1027.048" gradientTransform="matrix(0.98, 0.2, 0.2, -0.98, -1504.285, -1325.021)" xlink:href="#linear-gradient-5"/></defs><title>pre-tRNA</title><g id="pre-tRNA"><g id="intron"><path class="cls-1" d="M104.536,133.869a3.216,3.216,0,0,1-.111-.387,15.887,15.887,0,0,1,.517-9.594c6.988-12.9.515-17.739.515-17.739l.089.093s9.91,3.01.478,17.029C105.17,124.314,103.758,129.268,104.536,133.869Z" transform="translate(-67.654 -50.062)"/><path class="cls-2" d="M94.132,133.837c4.39-3.9-4.637-9.953-9.833-8.216l-.147.058c3.873-.179,12.632,5.286,9.862,8.25Z" transform="translate(-67.654 -50.062)"/><path class="cls-3" d="M97.935,150.062c11.767,0,6.547-16.371,6.547-16.371l.091.116s11.679,16.256-4.917,16.256Z" transform="translate(-67.654 -50.062)"/><path class="cls-4" d="M100.676,150.062c-10.615,0-7.4-13.326-6.666-15.934a1.019,1.019,0,0,1,.244-.4c.165-.148-.008-.105-.008-.105a5.368,5.368,0,0,0-.419.512c-1.568,2.335-10.043,15.93,5.128,15.93Z" transform="translate(-67.654 -50.062)"/></g><path class="cls-5" d="M90.946,90.952c4.923-3.2,5.052,10.582,2,15.13l-.095.127c1.2-3.686,1.571-17.049-2.023-15.167Z" transform="translate(-67.654 -50.062)"/><path class="cls-6" d="M104.856,95.353c-4.923-3.2-2.522,6.182.533,10.729l.095.127c-1.2-3.686-4.095-12.644-.5-10.761Z" transform="translate(-67.654 -50.062)"/><path class="cls-7" d="M90.946,78.507c6.214,3.1,2.282-10.793-1.7-12.6l2.792,1.6c3.915,2.4,8.2,15.578-1.219,10.911Z" transform="translate(-67.654 -50.062)"/><path class="cls-8" d="M107.386,78.507c-6.214,3.1-2.291-23.527,1.691-25.336l-2.792,1.6c-3.915,2.4-8.2,28.311,1.228,23.645Z" transform="translate(-67.654 -50.062)"/><path class="cls-9" d="M107.513,91.047c3.882,5.211-1.063,5.54-2.53,4.4l-.127-.095c.984.756,4.195-.217,2.53-4.4Z" transform="translate(-67.654 -50.062)"/><path class="cls-10" d="M127.229,86.381c0-14.174-19.843-7.873-19.843-7.873l.127-.095s19.717-14.1,19.717,5.9Z" transform="translate(-67.654 -50.062)"/><path class="cls-11" d="M127.229,83.079c0,14.174-19.843,7.873-19.843,7.873l.127.095s19.717,14.1,19.717-5.9Z" transform="translate(-67.654 -50.062)"/><path class="cls-12" d="M71.1,83.079c0,14.174,19.843,7.873,19.843,7.873l-.127.095s-19.717,14.1-19.717-5.9Z" transform="translate(-67.654 -50.062)"/><path class="cls-13" d="M71.1,86.381c0-14.174,19.843-7.873,19.843-7.873l-.127-.095S71.1,64.317,71.1,84.308Z" transform="translate(-67.654 -50.062)"/><path class="cls-14" d="M84.3,125.621c-5.328-.409-3.6-5.958-.147-10.682a48.89,48.89,0,0,1,8.756-8.731l-.157.02a47.612,47.612,0,0,0-9.83,8.018c-5.1,5.82-7.757,12.837,1.231,11.431Z" transform="translate(-67.654 -50.062)"/><path class="cls-15" d="M68.307,69.8c-3.655-5.9,23.219-4.429,25.385-.629l-1.845-2.635C89.1,62.857,62.906,60.96,68.413,69.918Z" transform="translate(-67.654 -50.062)"/><path class="cls-16" d="M130.5,56.088c3.462-6.02-23.35-3.675-25.392.193l1.759-2.693c2.629-3.766,28.746-6.51,23.531,2.621Z" transform="translate(-67.654 -50.062)"/></g></svg>