<svg id="Layer_1" data-name="Layer 1" xmlns="http://www.w3.org/2000/svg" xmlns:xlink="http://www.w3.org/1999/xlink" viewBox="0 0 18.304 154.4"><defs><style>.cls-1{fill:url(#linear-gradient);}</style><linearGradient id="linear-gradient" x1="88.683" y1="103.9" x2="107.015" y2="103.9" gradientTransform="matrix(1, 0, 0, -1, 0, 202)" gradientUnits="userSpaceOnUse"><stop offset="0" stop-color="#d1941c"/><stop offset="1" stop-color="#4a3600"/></linearGradient></defs><title>P-selectin</title><path id="P-SELECTIN" class="cls-1" d="M101.979,147.8c-3.3-1.7-7.1-3.6-7.1-6.9V86.6a4.508,4.508,0,0,0,3.5-4.4V78.7a4.618,4.618,0,0,0-3.4-4.4V72a4.528,4.528,0,0,0,3.4-4.4V64.1a4.618,4.618,0,0,0-3.4-4.4V57.4a4.422,4.422,0,0,0,3.4-4.4V49.5a4.618,4.618,0,0,0-3.4-4.4V42.8a4.422,4.422,0,0,0,3.4-4.4V34.9a4.618,4.618,0,0,0-3.4-4.4v-.8a6.051,6.051,0,0,0,2.7-1.5,5.191,5.191,0,0,0,0-7.3l-1.4,1.4a3.2,3.2,0,0,1,0,4.6,3.255,3.255,0,0,1-2.3,1,2.9,2.9,0,0,1-2.3-1,3.445,3.445,0,0,1-1-2.3,3.038,3.038,0,0,1,1-2.3l-1.4-1.4a5.313,5.313,0,0,0,0,7.4,5.05,5.05,0,0,0,2.7,1.4v.8a5.2,5.2,0,0,0-3.4,4.7v3.5a4.618,4.618,0,0,0,3.4,4.4v2.3a4.528,4.528,0,0,0-3.4,4.4v3.5a4.618,4.618,0,0,0,3.4,4.4V60a4.139,4.139,0,0,0-3.4,4.2v3.5a4.618,4.618,0,0,0,3.4,4.4v2.3a4.528,4.528,0,0,0-3.4,4.4v3.5a4.618,4.618,0,0,0,3.4,4.4V141c0,4.4,4.5,6.7,8.1,8.6,1.8.9,4,2.1,4,2.8,0,.3-.4.9-1.7,1.7-6.2,3.9-12.6,10.5-12.2,15.8.1,1.7,1.1,4,4.7,5.4l.7-1.8c-2.2-.9-3.3-2.1-3.4-3.8-.4-4.2,5.5-10.3,11.3-14,1.1-.7,2.7-1.9,2.6-3.4C106.879,150.3,104.679,149.2,101.979,147.8Zm-10.5-109V35.3a2.5,2.5,0,1,1,5,0v3.5a2.476,2.476,0,0,1-2.5,2.5A2.61,2.61,0,0,1,91.479,38.8Zm0,14.4V49.7a2.5,2.5,0,0,1,5,0v3.5a2.5,2.5,0,1,1-5,0Zm0,14.4V64.1a2.5,2.5,0,0,1,5,0v3.5a2.5,2.5,0,0,1-5,0Zm0,14.5V78.6a2.5,2.5,0,0,1,5,0v3.5a2.476,2.476,0,0,1-2.5,2.5A2.54,2.54,0,0,1,91.479,82.1Z" transform="translate(-88.779 -20.9)"/></svg>