<svg id="Layer_1" data-name="Layer 1" xmlns="http://www.w3.org/2000/svg" xmlns:xlink="http://www.w3.org/1999/xlink" viewBox="0 0 93.418 94.101"><defs><style>.cls-1{fill:url(#linear-gradient);}.cls-2{fill:url(#radial-gradient);}.cls-3{fill:url(#linear-gradient-2);}.cls-4{fill:url(#radial-gradient-2);}.cls-5{fill:url(#linear-gradient-3);}.cls-6{fill:url(#linear-gradient-4);}.cls-7{fill:url(#linear-gradient-5);}.cls-8{fill:url(#linear-gradient-6);}.cls-9{fill:url(#radial-gradient-3);}.cls-10{fill:url(#radial-gradient-4);}.cls-11{fill:url(#radial-gradient-5);}.cls-12{fill:url(#radial-gradient-6);}.cls-13{fill:url(#linear-gradient-7);}.cls-14{fill:url(#radial-gradient-7);}.cls-15{fill:url(#radial-gradient-8);}</style><linearGradient id="linear-gradient" x1="24.114" y1="58.608" x2="28.114" y2="58.608" gradientUnits="userSpaceOnUse"><stop offset="0" stop-color="#226b48"/><stop offset="0.056" stop-color="#23714c"/><stop offset="0.131" stop-color="#268256"/><stop offset="0.217" stop-color="#2b9f67"/><stop offset="0.312" stop-color="#33c67f"/><stop offset="0.351" stop-color="#36d98a"/><stop offset="0.397" stop-color="#31bd79"/><stop offset="0.456" stop-color="#2c9f67"/><stop offset="0.519" stop-color="#27885a"/><stop offset="0.586" stop-color="#247850"/><stop offset="0.661" stop-color="#236e4a"/><stop offset="0.759" stop-color="#226b48"/></linearGradient><radialGradient id="radial-gradient" cx="78.11" cy="131.416" r="10.604" gradientUnits="userSpaceOnUse"><stop offset="0" stop-color="#36d98a"/><stop offset="0.013" stop-color="#35d688"/><stop offset="0.188" stop-color="#2eb071"/><stop offset="0.362" stop-color="#29925f"/><stop offset="0.533" stop-color="#257c52"/><stop offset="0.698" stop-color="#236f4b"/><stop offset="0.852" stop-color="#226b48"/></radialGradient><linearGradient id="linear-gradient-2" x1="38.115" y1="58.608" x2="42.115" y2="58.608" xlink:href="#linear-gradient"/><radialGradient id="radial-gradient-2" cx="92.111" cy="131.416" r="10.604" xlink:href="#radial-gradient"/><linearGradient id="linear-gradient-3" x1="54.881" y1="62.427" x2="58.881" y2="62.427" gradientUnits="userSpaceOnUse"><stop offset="0" stop-color="#225c6b"/><stop offset="0.055" stop-color="#236171"/><stop offset="0.131" stop-color="#267082"/><stop offset="0.217" stop-color="#2b879f"/><stop offset="0.312" stop-color="#33a8c6"/><stop offset="0.351" stop-color="#36b8d9"/><stop offset="0.396" stop-color="#31a1bd"/><stop offset="0.456" stop-color="#2c889f"/><stop offset="0.519" stop-color="#277488"/><stop offset="0.586" stop-color="#246778"/><stop offset="0.661" stop-color="#235f6e"/><stop offset="0.759" stop-color="#225c6b"/></linearGradient><linearGradient id="linear-gradient-4" x1="88.849" y1="62.427" x2="84.849" y2="62.427" gradientUnits="userSpaceOnUse"><stop offset="0" stop-color="#225c6b"/><stop offset="0.056" stop-color="#236171"/><stop offset="0.131" stop-color="#267082"/><stop offset="0.217" stop-color="#2b879f"/><stop offset="0.312" stop-color="#33a8c6"/><stop offset="0.351" stop-color="#36b8d9"/><stop offset="0.397" stop-color="#31a1bd"/><stop offset="0.456" stop-color="#2c889f"/><stop offset="0.519" stop-color="#277488"/><stop offset="0.586" stop-color="#246778"/><stop offset="0.661" stop-color="#235f6e"/><stop offset="0.759" stop-color="#225c6b"/></linearGradient><linearGradient id="linear-gradient-5" x1="74.86" y1="47.981" x2="78.871" y2="47.981" xlink:href="#linear-gradient-4"/><linearGradient id="linear-gradient-6" x1="68.871" y1="47.981" x2="64.871" y2="47.981" xlink:href="#linear-gradient-4"/><radialGradient id="radial-gradient-3" cx="115.197" cy="85.348" r="7.138" gradientTransform="translate(230.394 184.717) rotate(180) scale(1 1.184)" gradientUnits="userSpaceOnUse"><stop offset="0.5" stop-color="#225c6b"/><stop offset="0.564" stop-color="#235f6e"/><stop offset="0.616" stop-color="#246778"/><stop offset="0.663" stop-color="#277589"/><stop offset="0.707" stop-color="#2c89a1"/><stop offset="0.749" stop-color="#31a2bf"/><stop offset="0.779" stop-color="#36b8d9"/><stop offset="0.781" stop-color="#36b6d7"/><stop offset="0.827" stop-color="#2f96b0"/><stop offset="0.872" stop-color="#297d92"/><stop offset="0.916" stop-color="#256b7c"/><stop offset="0.958" stop-color="#23606f"/><stop offset="0.998" stop-color="#225c6b"/></radialGradient><radialGradient id="radial-gradient-4" cx="135.175" cy="85.348" r="7.138" gradientTransform="translate(270.351 184.717) rotate(180) scale(1 1.184)" xlink:href="#radial-gradient-3"/><radialGradient id="radial-gradient-5" cx="91.188" cy="18.845" r="7.138" gradientTransform="translate(33.998 95.275) scale(1 1.184)" gradientUnits="userSpaceOnUse"><stop offset="0.409" stop-color="#225c6b"/><stop offset="0.443" stop-color="#236070"/><stop offset="0.484" stop-color="#256c7e"/><stop offset="0.528" stop-color="#2a8096"/><stop offset="0.574" stop-color="#309bb7"/><stop offset="0.613" stop-color="#36b8d9"/><stop offset="0.616" stop-color="#36b6d7"/><stop offset="0.659" stop-color="#2f96b0"/><stop offset="0.701" stop-color="#297d92"/><stop offset="0.743" stop-color="#256b7c"/><stop offset="0.783" stop-color="#23606f"/><stop offset="0.82" stop-color="#225c6b"/></radialGradient><radialGradient id="radial-gradient-6" cx="881.232" cy="131.416" r="10.604" gradientTransform="matrix(-1, 0, 0, 1, 1022.739, 0)" gradientUnits="userSpaceOnUse"><stop offset="0" stop-color="#36b8d9"/><stop offset="0.013" stop-color="#35b5d6"/><stop offset="0.188" stop-color="#2e95b0"/><stop offset="0.362" stop-color="#297c92"/><stop offset="0.533" stop-color="#256a7c"/><stop offset="0.698" stop-color="#23606f"/><stop offset="0.852" stop-color="#225c6b"/></radialGradient><linearGradient id="linear-gradient-7" x1="4.557" y1="40.707" x2="8.557" y2="40.707" gradientUnits="userSpaceOnUse"><stop offset="0" stop-color="#6b2238"/><stop offset="0.056" stop-color="#71233b"/><stop offset="0.131" stop-color="#822642"/><stop offset="0.217" stop-color="#9f2b4e"/><stop offset="0.312" stop-color="#c6335f"/><stop offset="0.351" stop-color="#d93667"/><stop offset="0.397" stop-color="#bd315b"/><stop offset="0.456" stop-color="#9f2c4e"/><stop offset="0.519" stop-color="#882744"/><stop offset="0.586" stop-color="#78243d"/><stop offset="0.661" stop-color="#6e2339"/><stop offset="0.759" stop-color="#6b2238"/></linearGradient><radialGradient id="radial-gradient-7" cx="58.553" cy="58.55" r="10.604" gradientUnits="userSpaceOnUse"><stop offset="0" stop-color="#d93667"/><stop offset="0.013" stop-color="#d63566"/><stop offset="0.188" stop-color="#b02e55"/><stop offset="0.362" stop-color="#922949"/><stop offset="0.533" stop-color="#7c253f"/><stop offset="0.698" stop-color="#6f233a"/><stop offset="0.852" stop-color="#6b2238"/></radialGradient><radialGradient id="radial-gradient-8" cx="58.553" cy="81.666" r="10.604" xlink:href="#radial-gradient-7"/></defs><title>FCER1</title><g id="FCER1"><g id="GAMMA"><rect class="cls-1" x="24.114" y="23.116" width="4" height="70.985"/><path class="cls-2" d="M79.435,142.13a6.557,6.557,0,0,1-6.557-6.557V132.08a6.557,6.557,0,0,1,13.114,0v3.493A6.557,6.557,0,0,1,79.435,142.13Z" transform="translate(-53.321 -52.658)"/><rect class="cls-3" x="38.115" y="23.116" width="4" height="70.985"/><path class="cls-4" d="M93.436,142.13a6.557,6.557,0,0,1-6.557-6.557V132.08a6.557,6.557,0,0,1,13.114,0v3.493A6.557,6.557,0,0,1,93.436,142.13Z" transform="translate(-53.321 -52.658)"/></g><g id="BETA"><rect class="cls-5" x="54.881" y="31.069" width="4" height="62.716"/><rect class="cls-6" x="84.849" y="31.07" width="4" height="62.715"/><rect class="cls-7" x="74.865" y="31.069" width="4" height="33.825"/><rect class="cls-8" x="64.871" y="31.069" width="4" height="33.825"/><path class="cls-9" d="M122.192,83.727h-4c0-3.687-.924-4.31-2.995-4.31-1.7,0-2.995.318-2.995,4.31h-4c0-3.772,1.213-8.269,6.995-8.269C119.838,75.458,122.192,78.24,122.192,83.727Z" transform="translate(-53.321 -52.658)"/><path class="cls-10" d="M142.17,83.727h-4c0-3.687-.924-4.31-2.995-4.31-1.7,0-2.995.318-2.995,4.31h-4c0-3.772,1.213-8.269,6.995-8.269C139.817,75.458,142.17,78.24,142.17,83.727Z" transform="translate(-53.321 -52.658)"/><path class="cls-11" d="M118.192,117.551h4c0,3.687.924,4.31,2.995,4.31,1.7,0,2.995-.318,2.995-4.31h4c0,3.772-1.213,8.269-6.995,8.269C120.545,125.82,118.192,123.038,118.192,117.551Z" transform="translate(-53.321 -52.658)"/><path class="cls-12" d="M140.182,142.13a6.557,6.557,0,0,0,6.557-6.557V132.08a6.557,6.557,0,0,0-13.114,0v3.493A6.557,6.557,0,0,0,140.182,142.13Z" transform="translate(-53.321 -52.658)"/></g><g id="ALPHA"><rect class="cls-13" x="4.557" y="8.303" width="4" height="64.807"/><path class="cls-14" d="M59.878,69.264a6.557,6.557,0,0,1-6.557-6.557V59.215a6.557,6.557,0,1,1,13.114,0v3.493A6.557,6.557,0,0,1,59.878,69.264Z" transform="translate(-53.321 -52.658)"/><path class="cls-15" d="M59.878,92.38a6.557,6.557,0,0,1-6.557-6.557V82.33a6.557,6.557,0,1,1,13.114,0v3.493A6.557,6.557,0,0,1,59.878,92.38Z" transform="translate(-53.321 -52.658)"/></g></g></svg>