<svg id="Layer_1" data-name="Layer 1" xmlns="http://www.w3.org/2000/svg" xmlns:xlink="http://www.w3.org/1999/xlink" viewBox="0 0 58.29 22.917"><defs><style>.cls-1{fill:url(#linear-gradient);}.cls-2{fill:#0053cc;}.cls-3{font-size:12px;fill:#fff;font-family:Arial-BoldMT, Arial;font-weight:700;}</style><linearGradient id="linear-gradient" x1="1.397" y1="11.309" x2="57.397" y2="11.309" gradientUnits="userSpaceOnUse"><stop offset="0" stop-color="#ff8500"/><stop offset="1" stop-color="#0053cc"/></linearGradient></defs><title>MAP3K8</title><g id="MAP3K8"><rect class="cls-1" x="1.397" y="1.309" width="56" height="20" rx="10" ry="10"/><path class="cls-2" d="M118,110.15c-5.616-.009-11.231.43-16.847.837-5.616.458-11.231.546-16.847.613-.7.016-1.4,0-2.106,0a13.614,13.614,0,0,1-2.4-.22,10.92,10.92,0,0,1-4.441-1.933,11.5,11.5,0,0,1-4.7-8.137,11.051,11.051,0,0,1,2.988-8.751A10.9,10.9,0,0,1,82,89.179c5.616.282,11.231.437,16.847.335,5.616-.084,11.231-.574,16.847-.762l2.106-.058c.344-.01.779.007,1.165.024s.789.1,1.183.157a10.547,10.547,0,0,1,4.355,1.869,10.592,10.592,0,0,1,3.655,12.467A11.042,11.042,0,0,1,118,110.15Zm0-.3a9.158,9.158,0,0,0,8.979-10.89,9.508,9.508,0,0,0-4.009-6.043,9.045,9.045,0,0,0-3.33-1.419,13.206,13.206,0,0,0-1.84-.192l-2.106-.058c-5.616-.188-11.231-.678-16.847-.762-5.616-.1-11.231.053-16.847.335a9.132,9.132,0,0,0-6.552,3.344,8.779,8.779,0,0,0-1.967,6.821,8.672,8.672,0,0,0,6.93,7.257,10.321,10.321,0,0,0,1.79.153c.7,0,1.4-.012,2.106,0,5.616.066,11.231.155,16.847.613C106.769,109.42,112.384,109.859,118,109.85Z" transform="translate(-70.603 -88.691)"/><text class="cls-3" transform="translate(4.697 14.195)">MAP3K8</text></g></svg>