<svg id="Layer_1" data-name="Layer 1" xmlns="http://www.w3.org/2000/svg" xmlns:xlink="http://www.w3.org/1999/xlink" viewBox="0 0 30.92 154.3"><defs><style>.cls-1{fill:url(#linear-gradient);}</style><linearGradient id="linear-gradient" x1="82.462" y1="664.05" x2="113.291" y2="664.05" gradientTransform="translate(0 -566)" gradientUnits="userSpaceOnUse"><stop offset="0" stop-color="#900ea6"/><stop offset="1" stop-color="#2d052e"/></linearGradient></defs><title>JAM3</title><path id="JAM3" class="cls-1" d="M104.462,175.2a4.331,4.331,0,0,0-.5-.1c-2.5-1.4-5.5-3.6-5.5-7,0-3.3,3.2-6.7,9.4-9.9,2.8-1.5,3.3-2.2,3.4-2.4-.5-.5-3.1-1.1-4.7-1.4-4.7-1-11.3-2.5-11.3-7.4V89.2a7.98,7.98,0,0,1-4.9,1.8,7.9,7.9,0,0,1,0-15.8,7.763,7.763,0,0,1,4.9,1.8V72.3a7.98,7.98,0,0,1-4.9,1.8,7.9,7.9,0,0,1,0-15.8,7.763,7.763,0,0,1,4.9,1.8V55.4a7.98,7.98,0,0,1-4.9,1.8,7.9,7.9,0,1,1,0-15.8,7.237,7.237,0,0,1,4.9,1.8V38.5a7.98,7.98,0,0,1-4.9,1.8,7.9,7.9,0,1,1,0-15.8,7.237,7.237,0,0,1,4.9,1.8V21.9a1,1,0,0,1,2,0V29a.876.876,0,0,1-.7.9,1,1,0,0,1-1.1-.5,5.837,5.837,0,0,0-5.1-2.9,5.9,5.9,0,1,0,5.1,8.9,1,1,0,0,1,1.1-.5.856.856,0,0,1,.7.9v10a.876.876,0,0,1-.7.9,1,1,0,0,1-1.1-.5,5.837,5.837,0,0,0-5.1-2.9,5.9,5.9,0,1,0,5.1,8.9,1,1,0,0,1,1.1-.5.856.856,0,0,1,.7.9v10a.876.876,0,0,1-.7.9,1,1,0,0,1-1.1-.5,5.837,5.837,0,0,0-5.1-2.9,5.9,5.9,0,1,0,5.1,8.9,1,1,0,0,1,1.1-.5.856.856,0,0,1,.7.9v10a.876.876,0,0,1-.7.9,1,1,0,0,1-1.1-.5,5.837,5.837,0,0,0-5.1-2.9,5.9,5.9,0,1,0,5.1,8.9,1,1,0,0,1,1.1-.5.856.856,0,0,1,.7.9v60.3c0,3.3,5.4,4.6,9.8,5.5,3.5.8,6,1.4,6.3,3.1.2,1.4-1.1,2.6-4.5,4.4-5.4,2.9-8.3,5.7-8.3,8.3,0,2.5,2.8,4.4,4.4,5.3a.9.9,0,0,1,.4,1.3C105.062,175,104.762,175.2,104.462,175.2Z" transform="translate(-82.462 -20.9)"/></svg>