<svg id="Layer_1" data-name="Layer 1" xmlns="http://www.w3.org/2000/svg" xmlns:xlink="http://www.w3.org/1999/xlink" viewBox="0 0 69 176.373"><defs><style>.cls-1{fill:url(#radial-gradient);}.cls-2{fill:url(#linear-gradient);}.cls-3{fill:#591159;}.cls-4{fill:url(#radial-gradient-2);}.cls-5{fill:url(#linear-gradient-2);}</style><radialGradient id="radial-gradient" cx="94.995" cy="236.651" r="38.82" gradientTransform="translate(7.711 -202.752)" gradientUnits="userSpaceOnUse"><stop offset="0.744" stop-color="#882885"/><stop offset="1" stop-color="#319393"/></radialGradient><linearGradient id="linear-gradient" x1="87.392" y1="325.699" x2="77.313" y2="325.699" gradientTransform="translate(7.711 -202.752)" gradientUnits="userSpaceOnUse"><stop offset="0" stop-color="#882885"/><stop offset="1" stop-color="#319393"/></linearGradient><radialGradient id="radial-gradient-2" cx="86.19" cy="236.618" r="38.891" gradientTransform="translate(7.711 -202.752)" gradientUnits="userSpaceOnUse"><stop offset="0.699" stop-color="#319393"/><stop offset="1" stop-color="#882885"/></radialGradient><linearGradient id="linear-gradient-2" x1="103.392" y1="325.699" x2="93.313" y2="325.699" xlink:href="#linear-gradient"/></defs><title>IL17R</title><g id="IL17R"><path class="cls-1" d="M90.13,186.18a5,5,0,0,1-5-5V67.857a34.118,34.118,0,0,1-11.042-7.381,34,34,0,0,1,0-48.083,5,5,0,0,1,7.071,7.071A24.01,24.01,0,0,0,91.292,59.446l.26.077a5,5,0,0,1,3.578,4.793V181.18A5,5,0,0,1,90.13,186.18Z" transform="translate(-63.63 -10.432)"/><path class="cls-2" d="M90.13,186.18a4.938,4.938,0,0,1-5-4.875V64.59a5,5,0,0,1,10,0V181.3A4.938,4.938,0,0,1,90.13,186.18Z" transform="translate(-63.63 -10.432)"/><path class="cls-3" d="M90.13,186.8a5.507,5.507,0,0,1-5.5-5.5V68.189a34.505,34.505,0,0,1-10.9-56.15,5.5,5.5,0,0,1,7.778,7.778,23.51,23.51,0,0,0,9.921,39.148l.26.077a5.533,5.533,0,0,1,3.936,5.273V181.3A5.507,5.507,0,0,1,90.13,186.8ZM77.624,11.432a4.489,4.489,0,0,0-3.182,1.315,33.5,33.5,0,0,0,0,47.375A33.851,33.851,0,0,0,85.322,67.4l.309.128V181.3a4.5,4.5,0,0,0,9,0V64.316A4.526,4.526,0,0,0,91.41,60l-.26-.077A24.5,24.5,0,0,1,80.806,19.111a4.5,4.5,0,0,0-3.182-7.679Z" transform="translate(-63.63 -10.432)"/><path class="cls-4" d="M106.13,186.18a5,5,0,0,0,5-5V67.857a34.118,34.118,0,0,0,11.042-7.381,34,34,0,0,0,0-48.083,5,5,0,0,0-7.071,7.071,24.01,24.01,0,0,1-10.132,39.981l-.26.077a5,5,0,0,0-3.578,4.793V181.18A5,5,0,0,0,106.13,186.18Z" transform="translate(-63.63 -10.432)"/><path class="cls-5" d="M106.13,186.18a4.938,4.938,0,0,1-5-4.875V64.59a5,5,0,0,1,10,0V181.3A4.938,4.938,0,0,1,106.13,186.18Z" transform="translate(-63.63 -10.432)"/><path class="cls-3" d="M106.13,186.68a5.507,5.507,0,0,1-5.5-5.5V64.316a5.533,5.533,0,0,1,3.936-5.273l.259-.077a23.5,23.5,0,0,0,9.921-39.148,5.5,5.5,0,0,1,7.778-7.778,34.513,34.513,0,0,1-10.9,56.15V181.18A5.507,5.507,0,0,1,106.13,186.68ZM118.636,11.432a4.5,4.5,0,0,0-3.182,7.679A24.51,24.51,0,0,1,105.11,59.925l-.259.077a4.526,4.526,0,0,0-3.221,4.314V181.18a4.5,4.5,0,1,0,9,0V67.523l.309-.128a33.851,33.851,0,0,0,10.879-7.273,33.5,33.5,0,0,0,0-47.375A4.489,4.489,0,0,0,118.636,11.432Z" transform="translate(-63.63 -10.432)"/></g></svg>