<svg id="Layer_1" data-name="Layer 1" xmlns="http://www.w3.org/2000/svg" viewBox="0 0 48.734 23.944"><defs><style>.cls-1{fill:#8e0e3f;}.cls-2{fill:#ba1149;}</style></defs><title>R-ICO-013957</title><g id="R-ICO-013957"><path class="cls-1" d="M124.336,99.74a4.418,4.418,0,0,0-1.86-2.759,1.192,1.192,0,0,1-.445-1.274,7.473,7.473,0,0,0,.431-1.975c-.273-1.688-1.557-1.948-3-2.073-1.18-.1-1.043.176-1.734-.683-.873-1.085-.729-2.653-2.621-2.56-1.228.06-1.843,1.465-2.957,1.64-1.468.23-2.58-1.443-3.955-1.719-2.222-.445-2.77,1.11-4.523,1.781-2.116.809-3.021-1.019-4.827-1.587-2-.629-2.779.577-4.386,1.273-2.384,1.034-2.924-.662-4.827-1.478s-2.4.177-3.807,1.255c-1.225.941-.8.54-2.513.241-1.361-.238-2.393-.165-3.064,1.214-.378.777.042,2.159-.445,2.754-.962,1.172-2.784.31-3.41,2.227a2.4,2.4,0,0,0,.387,2.136A1.222,1.222,0,0,0,75.65,99.56c.26,1.512,1.029,2.143,2.372,3.562-.028,1.459-1.118,2.773-.021,4.167,1.131,1.436,2.992.343,3.918,1.057.741.732.691,2.821,2.33,3.359,1.529.5,2.253-.743,3.2-1.26a1.2,1.2,0,0,1,1.111-.014c1.593.8,3.4,1.9,5.253,1.427,2.248-.575,2.969-2.989,5.491-1.825,1.344.619,1.973,1.45,3.609,1.215,1.281-.185,1.854-1.1,2.889-1.691,2.658-1.51,3.85,1.415,6.337,1.415,1.69-.062,1.794-2.423,3.671-2.377,1.023.025,2.086,1.108,3.09.254.679-.577.423-1.54.622-2.278.591-2.195,2.862-1.139,3.724-3.018a4.681,4.681,0,0,0-.522-2.282c.16,0,.323-.011.482-.02A1.236,1.236,0,0,0,124.336,99.74Zm-5.511,5.586c-.312.753.272,2.357-.281,2.978-.66.743-1.871-.108-2.652-.116-1.969-.02-2.164,2.431-3.755,2.484-1.623-.029-2.292-1.384-3.693-1.886s-2.411,0-3.592.678c-3.481,1.993-3.9-1.284-7.158-1.438-3.014-.143-3.62,2.612-6.506.636a4.68,4.68,0,0,0-3.534-1.178,16.555,16.555,0,0,0-1.738.7.857.857,0,0,1-1.17-.514,3.843,3.843,0,0,0-.895-1.774,5.509,5.509,0,0,0-1.844-.488,1.161,1.161,0,0,1-.933-1.467,2.953,2.953,0,0,0,.126-1.161,2.694,2.694,0,0,0-1.108-1.939,1.2,1.2,0,0,0,.286-1.166,11.818,11.818,0,0,0-.859-1.979.945.945,0,0,1,.491-1.3,3.3,3.3,0,0,0,2.121-1.567,7.333,7.333,0,0,0,.286-1.714,1.225,1.225,0,0,1,1.527-1.1,2.481,2.481,0,0,0,2.426-.258c.687-.507,1.042-1.89,1.855-2.115,1.316-.364,2.876,1.63,4.239,1.756,2.077.194,2.813-1.477,4.556-1.961,2.214-.615,3.37,1.842,5.541,1.838,1.924,0,2.955-2.011,4.832-1.9,1.781.107,2.624,2.1,4.476,2.178a3.65,3.65,0,0,0,2.031-.777,1.224,1.224,0,0,1,1.765.565,9.219,9.219,0,0,0,1.114,2.133,7.332,7.332,0,0,0,2.194.408.9.9,0,0,1,.731,1.193,3.882,3.882,0,0,0-.382,1.856,6.742,6.742,0,0,0,1.183,1.656.617.617,0,0,1,.072.683,1.547,1.547,0,0,0,.132,1.414,5.567,5.567,0,0,1,.935,1.847C121.918,103.968,119.441,103.84,118.825,105.326Z" transform="translate(-75.633 -88.028)"/><path class="cls-2" d="M118.825,105.326c-.312.753.272,2.357-.281,2.978-.66.743-1.871-.108-2.652-.116-1.969-.02-2.164,2.431-3.755,2.484-1.623-.029-2.292-1.384-3.693-1.886s-2.411,0-3.592.678c-3.481,1.993-3.9-1.284-7.158-1.438-3.014-.143-3.62,2.612-6.506.636a4.68,4.68,0,0,0-3.534-1.178,16.555,16.555,0,0,0-1.738.7.857.857,0,0,1-1.17-.514,3.843,3.843,0,0,0-.895-1.774,5.509,5.509,0,0,0-1.844-.488,1.161,1.161,0,0,1-.933-1.467,2.953,2.953,0,0,0,.126-1.161,2.694,2.694,0,0,0-1.108-1.939,1.2,1.2,0,0,0,.286-1.166,11.818,11.818,0,0,0-.859-1.979.945.945,0,0,1,.491-1.3,3.3,3.3,0,0,0,2.121-1.567,7.333,7.333,0,0,0,.286-1.714,1.225,1.225,0,0,1,1.527-1.1,2.481,2.481,0,0,0,2.426-.258c.687-.507,1.042-1.89,1.855-2.115,1.316-.364,2.876,1.63,4.239,1.756,2.077.194,2.813-1.477,4.556-1.961,2.214-.615,3.37,1.842,5.541,1.838,1.924,0,2.955-2.011,4.832-1.9,1.781.107,2.624,2.1,4.476,2.178a3.65,3.65,0,0,0,2.031-.777,1.224,1.224,0,0,1,1.765.565,9.219,9.219,0,0,0,1.114,2.133,7.332,7.332,0,0,0,2.194.408.9.9,0,0,1,.731,1.193,3.882,3.882,0,0,0-.382,1.856,6.742,6.742,0,0,0,1.183,1.656.617.617,0,0,1,.072.683,1.547,1.547,0,0,0,.132,1.414,5.567,5.567,0,0,1,.935,1.847C121.918,103.968,119.441,103.84,118.825,105.326Z" transform="translate(-75.633 -88.028)"/></g></svg>