<svg id="Layer_1" data-name="Layer 1" xmlns="http://www.w3.org/2000/svg" xmlns:xlink="http://www.w3.org/1999/xlink" viewBox="0 0 109.7 24"><defs><style>.cls-1{fill:url(#linear-gradient);}.cls-2{fill:url(#linear-gradient-2);}.cls-3{fill:url(#linear-gradient-3);}.cls-4{fill:url(#linear-gradient-4);}.cls-5{fill:url(#linear-gradient-5);}.cls-6{fill:url(#linear-gradient-6);}.cls-7{opacity:0.75;}.cls-8{fill:url(#linear-gradient-7);}.cls-9{fill:url(#linear-gradient-8);}.cls-10{fill:url(#linear-gradient-9);}.cls-11{fill:url(#linear-gradient-10);}.cls-12{fill:url(#linear-gradient-11);}.cls-13{fill:url(#linear-gradient-12);}.cls-14{fill:url(#linear-gradient-13);}.cls-15{fill:url(#linear-gradient-14);}.cls-16{fill:url(#linear-gradient-15);}.cls-17{fill:url(#linear-gradient-16);}.cls-18{fill:url(#linear-gradient-17);}.cls-19{fill:url(#linear-gradient-18);}.cls-20{fill:url(#linear-gradient-19);}.cls-21{fill:url(#linear-gradient-20);}.cls-22{fill:url(#linear-gradient-21);}.cls-23{fill:url(#linear-gradient-22);}.cls-24{fill:url(#linear-gradient-23);}.cls-25{fill:url(#linear-gradient-24);}.cls-26{fill:url(#linear-gradient-25);}.cls-27{fill:url(#linear-gradient-26);}.cls-28{fill:url(#linear-gradient-27);}.cls-29{fill:url(#linear-gradient-28);}.cls-30{fill:url(#linear-gradient-29);}.cls-31{fill:url(#linear-gradient-30);}.cls-32{fill:url(#linear-gradient-31);}.cls-33{fill:url(#linear-gradient-32);}.cls-34{fill:url(#linear-gradient-33);}.cls-35{fill:url(#linear-gradient-34);}.cls-36{fill:url(#linear-gradient-35);}.cls-37{fill:url(#linear-gradient-36);}.cls-38{fill:url(#linear-gradient-37);}.cls-39{fill:url(#linear-gradient-38);}.cls-40{fill:url(#linear-gradient-39);}.cls-41{fill:url(#linear-gradient-40);}.cls-42{fill:url(#linear-gradient-41);}.cls-43{fill:url(#linear-gradient-42);}.cls-44{fill:url(#linear-gradient-43);}.cls-45{fill:url(#linear-gradient-44);}.cls-46{fill:url(#linear-gradient-45);}.cls-47{fill:url(#linear-gradient-46);}.cls-48{fill:url(#linear-gradient-47);}.cls-49{fill:url(#linear-gradient-48);}.cls-50{fill:url(#linear-gradient-49);}.cls-51{fill:url(#linear-gradient-50);}.cls-52{fill:url(#linear-gradient-51);}.cls-53{fill:url(#linear-gradient-52);}.cls-54{fill:url(#linear-gradient-53);}.cls-55{fill:url(#linear-gradient-54);}.cls-56{fill:url(#linear-gradient-55);}.cls-57{fill:url(#linear-gradient-56);}.cls-58{fill:url(#linear-gradient-57);}.cls-59{fill:url(#linear-gradient-58);}.cls-60{fill:url(#linear-gradient-59);}.cls-61{fill:url(#linear-gradient-60);}.cls-62{fill:url(#linear-gradient-61);}.cls-63{fill:url(#linear-gradient-62);}</style><linearGradient id="linear-gradient" x1="-793.727" y1="37.897" x2="-793.727" y2="14.18" gradientTransform="translate(-737.585 125.258) rotate(180)" gradientUnits="userSpaceOnUse"><stop offset="0" stop-color="#24040e"/><stop offset="0.113" stop-color="#a20e40"/><stop offset="0.273" stop-color="#a23e60"/><stop offset="0.602" stop-color="#a20e40"/><stop offset="1" stop-color="#24040e"/></linearGradient><linearGradient id="linear-gradient-2" x1="-811.527" y1="37.897" x2="-811.527" y2="14.18" gradientTransform="translate(-737.585 125.258) rotate(180)" gradientUnits="userSpaceOnUse"><stop offset="0" stop-color="#042224"/><stop offset="0.094" stop-color="#0e98a2"/><stop offset="0.119" stop-color="#1598a2"/><stop offset="0.154" stop-color="#279aa2"/><stop offset="0.196" stop-color="#469ba2"/><stop offset="0.242" stop-color="#709ea2"/><stop offset="0.273" stop-color="#90a0a2"/><stop offset="0.311" stop-color="#8da0a2"/><stop offset="0.338" stop-color="#849fa2"/><stop offset="0.361" stop-color="#759ea2"/><stop offset="0.382" stop-color="#5f9da2"/><stop offset="0.401" stop-color="#439ba2"/><stop offset="0.419" stop-color="#2199a2"/><stop offset="0.428" stop-color="#0e98a2"/><stop offset="1" stop-color="#042224"/></linearGradient><linearGradient id="linear-gradient-3" x1="-829.327" y1="37.897" x2="-829.327" y2="14.18" xlink:href="#linear-gradient"/><linearGradient id="linear-gradient-4" x1="-847.127" y1="37.897" x2="-847.127" y2="14.18" xlink:href="#linear-gradient-2"/><linearGradient id="linear-gradient-5" x1="-864.927" y1="37.897" x2="-864.927" y2="14.18" xlink:href="#linear-gradient"/><linearGradient id="linear-gradient-6" x1="-882.727" y1="37.897" x2="-882.727" y2="14.18" xlink:href="#linear-gradient-2"/><linearGradient id="linear-gradient-7" x1="350.681" y1="56.749" x2="350.681" y2="59.27" gradientTransform="translate(39.674 455.114) rotate(-90)" gradientUnits="userSpaceOnUse"><stop offset="0" stop-color="#d89355"/><stop offset="1" stop-color="#541107"/></linearGradient><linearGradient id="linear-gradient-8" x1="361.676" y1="23.757" x2="361.676" y2="26.278" xlink:href="#linear-gradient-7"/><linearGradient id="linear-gradient-9" x1="361.504" y1="40.27" x2="361.504" y2="42.792" gradientTransform="translate(39.674 455.114) rotate(-90)" gradientUnits="userSpaceOnUse"><stop offset="0" stop-color="#5b9b54"/><stop offset="1" stop-color="#042224"/></linearGradient><linearGradient id="linear-gradient-10" x1="349.659" y1="40.27" x2="349.659" y2="42.792" xlink:href="#linear-gradient-7"/><linearGradient id="linear-gradient-11" x1="361.495" y1="60.868" x2="361.495" y2="63.39" xlink:href="#linear-gradient-9"/><linearGradient id="linear-gradient-12" x1="349.832" y1="23.757" x2="349.832" y2="26.279" xlink:href="#linear-gradient-9"/><linearGradient id="linear-gradient-13" x1="349.659" y1="60.869" x2="349.659" y2="63.39" xlink:href="#linear-gradient-7"/><linearGradient id="linear-gradient-14" x1="361.495" y1="77.325" x2="361.495" y2="79.847" xlink:href="#linear-gradient-9"/><linearGradient id="linear-gradient-15" x1="349.659" y1="77.325" x2="349.659" y2="79.847" xlink:href="#linear-gradient-7"/><linearGradient id="linear-gradient-16" x1="350.341" y1="81.445" x2="350.341" y2="83.967" xlink:href="#linear-gradient-9"/><linearGradient id="linear-gradient-17" x1="361.176" y1="81.445" x2="361.176" y2="83.967" xlink:href="#linear-gradient-7"/><linearGradient id="linear-gradient-18" x1="349.832" y1="93.804" x2="349.832" y2="96.326" xlink:href="#linear-gradient-9"/><linearGradient id="linear-gradient-19" x1="361.676" y1="93.804" x2="361.676" y2="96.326" xlink:href="#linear-gradient-7"/><linearGradient id="linear-gradient-20" x1="360.474" y1="27.877" x2="360.474" y2="30.398" xlink:href="#linear-gradient-9"/><linearGradient id="linear-gradient-21" x1="359.509" y1="32.09" x2="359.509" y2="34.611" xlink:href="#linear-gradient-9"/><linearGradient id="linear-gradient-22" x1="350.862" y1="36.209" x2="350.862" y2="38.731" xlink:href="#linear-gradient-9"/><linearGradient id="linear-gradient-23" x1="360.62" y1="36.209" x2="360.62" y2="38.731" xlink:href="#linear-gradient-7"/><linearGradient id="linear-gradient-24" x1="350.862" y1="11.398" x2="350.862" y2="13.92" xlink:href="#linear-gradient-9"/><linearGradient id="linear-gradient-25" x1="360.62" y1="11.399" x2="360.62" y2="13.92" xlink:href="#linear-gradient-7"/><linearGradient id="linear-gradient-26" x1="351.645" y1="32.09" x2="351.645" y2="34.611" xlink:href="#linear-gradient-7"/><linearGradient id="linear-gradient-27" x1="359.509" y1="15.518" x2="359.509" y2="18.039" xlink:href="#linear-gradient-9"/><linearGradient id="linear-gradient-28" x1="351.645" y1="15.518" x2="351.645" y2="18.039" xlink:href="#linear-gradient-7"/><linearGradient id="linear-gradient-29" x1="360.655" y1="44.39" x2="360.655" y2="46.911" xlink:href="#linear-gradient-7"/><linearGradient id="linear-gradient-30" x1="350.862" y1="44.39" x2="350.862" y2="46.911" xlink:href="#linear-gradient-9"/><linearGradient id="linear-gradient-31" x1="359.691" y1="48.608" x2="359.691" y2="51.13" xlink:href="#linear-gradient-7"/><linearGradient id="linear-gradient-32" x1="360.474" y1="56.749" x2="360.474" y2="59.27" xlink:href="#linear-gradient-9"/><linearGradient id="linear-gradient-33" x1="350.681" y1="27.877" x2="350.681" y2="30.398" xlink:href="#linear-gradient-7"/><linearGradient id="linear-gradient-34" x1="360.474" y1="19.638" x2="360.474" y2="22.159" xlink:href="#linear-gradient-9"/><linearGradient id="linear-gradient-35" x1="350.681" y1="19.637" x2="350.681" y2="22.159" xlink:href="#linear-gradient-7"/><linearGradient id="linear-gradient-36" x1="359.509" y1="52.629" x2="359.509" y2="55.151" xlink:href="#linear-gradient-9"/><linearGradient id="linear-gradient-37" x1="351.826" y1="48.608" x2="351.826" y2="51.13" xlink:href="#linear-gradient-9"/><linearGradient id="linear-gradient-38" x1="351.645" y1="52.629" x2="351.645" y2="55.151" xlink:href="#linear-gradient-7"/><linearGradient id="linear-gradient-39" x1="360.474" y1="64.988" x2="360.474" y2="67.51" xlink:href="#linear-gradient-9"/><linearGradient id="linear-gradient-40" x1="350.681" y1="64.988" x2="350.681" y2="67.51" xlink:href="#linear-gradient-7"/><linearGradient id="linear-gradient-41" x1="359.509" y1="69.001" x2="359.509" y2="71.522" xlink:href="#linear-gradient-9"/><linearGradient id="linear-gradient-42" x1="351.645" y1="69.001" x2="351.645" y2="71.522" xlink:href="#linear-gradient-7"/><linearGradient id="linear-gradient-43" x1="350.862" y1="73.228" x2="350.862" y2="75.749" xlink:href="#linear-gradient-9"/><linearGradient id="linear-gradient-44" x1="360.655" y1="73.228" x2="360.655" y2="75.749" xlink:href="#linear-gradient-7"/><linearGradient id="linear-gradient-45" x1="350.862" y1="97.924" x2="350.862" y2="100.445" gradientTransform="translate(238.043 -256.362) rotate(90)" xlink:href="#linear-gradient-9"/><linearGradient id="linear-gradient-46" x1="360.655" y1="97.924" x2="360.655" y2="100.445" gradientTransform="translate(238.043 -256.362) rotate(90)" xlink:href="#linear-gradient-7"/><linearGradient id="linear-gradient-47" x1="350.862" y1="110.283" x2="350.862" y2="112.804" xlink:href="#linear-gradient-9"/><linearGradient id="linear-gradient-48" x1="360.655" y1="110.283" x2="360.655" y2="112.804" xlink:href="#linear-gradient-7"/><linearGradient id="linear-gradient-49" x1="351.826" y1="89.647" x2="351.826" y2="92.168" gradientTransform="translate(221.489 -256.362) rotate(90)" xlink:href="#linear-gradient-9"/><linearGradient id="linear-gradient-50" x1="359.691" y1="89.647" x2="359.691" y2="92.168" gradientTransform="translate(221.489 -256.362) rotate(90)" xlink:href="#linear-gradient-7"/><linearGradient id="linear-gradient-51" x1="351.826" y1="93.728" x2="351.826" y2="96.25" gradientTransform="translate(31.511 455.114) rotate(-90)" xlink:href="#linear-gradient-9"/><linearGradient id="linear-gradient-52" x1="359.691" y1="93.728" x2="359.691" y2="96.25" gradientTransform="translate(31.511 455.114) rotate(-90)" xlink:href="#linear-gradient-7"/><linearGradient id="linear-gradient-53" x1="351.826" y1="102.043" x2="351.826" y2="104.565" xlink:href="#linear-gradient-9"/><linearGradient id="linear-gradient-54" x1="359.691" y1="102.043" x2="359.691" y2="104.565" xlink:href="#linear-gradient-7"/><linearGradient id="linear-gradient-55" x1="351.826" y1="106.163" x2="351.826" y2="108.684" gradientTransform="translate(254.522 -256.362) rotate(90)" xlink:href="#linear-gradient-9"/><linearGradient id="linear-gradient-56" x1="359.691" y1="106.163" x2="359.691" y2="108.684" gradientTransform="translate(254.522 -256.362) rotate(90)" xlink:href="#linear-gradient-7"/><linearGradient id="linear-gradient-57" x1="274.238" y1="-18.73" x2="274.238" y2="-42.651" gradientTransform="translate(-218.096 130.159)" gradientUnits="userSpaceOnUse"><stop offset="0" stop-color="#0d6a71"/><stop offset="0.092" stop-color="#1398a2"/><stop offset="0.25" stop-color="#90a0a2"/><stop offset="0.587" stop-color="#0e98a2"/><stop offset="0.653" stop-color="#0c8189"/><stop offset="0.814" stop-color="#084e53"/><stop offset="0.935" stop-color="#052e31"/><stop offset="1" stop-color="#042224"/></linearGradient><linearGradient id="linear-gradient-58" x1="309.838" y1="-18.73" x2="309.838" y2="-42.651" xlink:href="#linear-gradient-57"/><linearGradient id="linear-gradient-59" x1="345.438" y1="-18.73" x2="345.438" y2="-42.651" xlink:href="#linear-gradient-57"/><linearGradient id="linear-gradient-60" x1="292.038" y1="-18.73" x2="292.038" y2="-42.651" gradientTransform="translate(-218.096 130.159)" gradientUnits="userSpaceOnUse"><stop offset="0" stop-color="#a21343"/><stop offset="0.25" stop-color="#a2687b"/><stop offset="0.769" stop-color="#a20e40"/></linearGradient><linearGradient id="linear-gradient-61" x1="327.638" y1="-18.73" x2="327.638" y2="-42.651" xlink:href="#linear-gradient-60"/><linearGradient id="linear-gradient-62" x1="363.238" y1="-18.73" x2="363.238" y2="-42.651" xlink:href="#linear-gradient-60"/></defs><title>DNA</title><g id="DNA"><path class="cls-1" d="M45.791,111.4c10.35,0,2.677-24,18.167-24l2.533.017c-9.828,0-3.3,23.983-17.8,23.983Z" transform="translate(-45.791 -87.395)"/><path class="cls-2" d="M63.591,111.4c10.35,0,2.677-24,18.167-24l2.533.017c-9.828,0-3.3,23.983-17.8,23.983Z" transform="translate(-45.791 -87.395)"/><path class="cls-3" d="M81.391,111.4c10.35,0,2.677-24,18.167-24l2.533.017c-9.828,0-3.3,23.983-17.8,23.983Z" transform="translate(-45.791 -87.395)"/><path class="cls-4" d="M99.191,111.4c10.35,0,2.677-24,18.167-24l2.533.017c-9.828,0-3.3,23.983-17.8,23.983Z" transform="translate(-45.791 -87.395)"/><path class="cls-5" d="M116.991,111.4c10.35,0,2.677-24,18.167-24l2.533.017c-9.828,0-3.3,23.983-17.8,23.983Z" transform="translate(-45.791 -87.395)"/><path class="cls-6" d="M134.791,111.4c10.35,0,2.677-24,18.167-24l2.533.017c-9.828,0-3.3,23.983-17.8,23.983Z" transform="translate(-45.791 -87.395)"/><g id="AMINOACIDS" class="cls-7"><path class="cls-8" d="M98.945,100.1v8.67a.535.535,0,0,1-.544.527H96.967a.535.535,0,0,1-.544-.527V100.1a.545.545,0,0,1,.852-.434l.1.066a.558.558,0,0,0,.618,0l.1-.067A.545.545,0,0,1,98.945,100.1Z" transform="translate(-45.791 -87.395)"/><path class="cls-9" d="M63.432,98.934V87.941a.535.535,0,0,1,.544-.527h1.434a.535.535,0,0,1,.544.527V98.934a.545.545,0,0,1-.852.434L65,99.3a.558.558,0,0,0-.618,0l-.1.066A.545.545,0,0,1,63.432,98.934Z" transform="translate(-45.791 -87.395)"/><path class="cls-10" d="M79.945,98.818v-10.9a.535.535,0,0,1,.544-.527h1.434a.535.535,0,0,1,.544.527v10.9a.523.523,0,0,1-.235.434l-.717.48a.558.558,0,0,1-.618,0l-.717-.48A.523.523,0,0,1,79.945,98.818Z" transform="translate(-45.791 -87.395)"/><path class="cls-11" d="M82.466,100.1v10.713a.535.535,0,0,1-.544.527H80.489a.535.535,0,0,1-.544-.527V100.1a.545.545,0,0,1,.852-.434l.1.066a.558.558,0,0,0,.618,0l.1-.067A.545.545,0,0,1,82.466,100.1Z" transform="translate(-45.791 -87.395)"/><path class="cls-12" d="M100.543,98.818V87.941a.535.535,0,0,1,.544-.527h1.434a.535.535,0,0,1,.544.527V98.818a.523.523,0,0,1-.235.434l-.718.48a.558.558,0,0,1-.618,0l-.717-.48A.523.523,0,0,1,100.543,98.818Z" transform="translate(-45.791 -87.395)"/><path class="cls-13" d="M65.953,100.194v10.647a.53.53,0,0,1-.544.516H63.975a.53.53,0,0,1-.544-.516V100.194a.509.509,0,0,1,.235-.425l.718-.47a.568.568,0,0,1,.618,0l.717.47A.509.509,0,0,1,65.953,100.194Z" transform="translate(-45.791 -87.395)"/><path class="cls-14" d="M103.065,100.1v10.713a.535.535,0,0,1-.544.527h-1.434a.535.535,0,0,1-.544-.527V100.1a.545.545,0,0,1,.852-.434l.1.067a.558.558,0,0,0,.618,0l.1-.067A.545.545,0,0,1,103.065,100.1Z" transform="translate(-45.791 -87.395)"/><path class="cls-15" d="M117,98.818V87.941a.535.535,0,0,1,.544-.527h1.434a.535.535,0,0,1,.544.527V98.818a.523.523,0,0,1-.235.434l-.717.48a.558.558,0,0,1-.618,0l-.717-.48A.523.523,0,0,1,117,98.818Z" transform="translate(-45.791 -87.395)"/><path class="cls-16" d="M119.521,100.1v10.713a.535.535,0,0,1-.544.527h-1.434a.535.535,0,0,1-.544-.527V100.1a.545.545,0,0,1,.852-.434l.1.066a.558.558,0,0,0,.618,0l.1-.067A.545.545,0,0,1,119.521,100.1Z" transform="translate(-45.791 -87.395)"/><path class="cls-17" d="M123.641,100.215v9.6a.535.535,0,0,1-.544.527h-1.434a.535.535,0,0,1-.544-.527v-9.6a.523.523,0,0,1,.235-.434l.717-.48a.558.558,0,0,1,.618,0l.717.48A.523.523,0,0,1,123.641,100.215Z" transform="translate(-45.791 -87.395)"/><path class="cls-18" d="M121.119,98.934V88.941a.535.535,0,0,1,.544-.527H123.1a.535.535,0,0,1,.544.527v9.993a.545.545,0,0,1-.852.434l-.1-.067a.558.558,0,0,0-.618,0l-.1.066A.545.545,0,0,1,121.119,98.934Z" transform="translate(-45.791 -87.395)"/><path class="cls-19" d="M136,100.215v10.6a.535.535,0,0,1-.544.527l-.972.018c-.3,0-1.005-.525-1.005-.816V100.215a.523.523,0,0,1,.235-.434l.717-.48a.558.558,0,0,1,.618,0l.717.48A.523.523,0,0,1,136,100.215Z" transform="translate(-45.791 -87.395)"/><path class="cls-20" d="M133.479,98.934V88.271a1.233,1.233,0,0,1,.845-.857h1.133a.535.535,0,0,1,.544.527V98.934a.545.545,0,0,1-.852.434l-.1-.067a.558.558,0,0,0-.618,0l-.1.066A.545.545,0,0,1,133.479,98.934Z" transform="translate(-45.791 -87.395)"/><path class="cls-21" d="M67.551,98.818V89.983a.535.535,0,0,1,.544-.527h1.434a.535.535,0,0,1,.544.527v8.835a.523.523,0,0,1-.235.434l-.717.48a.558.558,0,0,1-.618,0l-.717-.48A.523.523,0,0,1,67.551,98.818Z" transform="translate(-45.791 -87.395)"/><path class="cls-22" d="M71.764,98.818V91.911a.535.535,0,0,1,.544-.527h1.434a.535.535,0,0,1,.544.527v6.907a.523.523,0,0,1-.235.434l-.717.48a.558.558,0,0,1-.618,0L72,99.252A.523.523,0,0,1,71.764,98.818Z" transform="translate(-45.791 -87.395)"/><path class="cls-23" d="M78.4,100.215v8.554a.535.535,0,0,1-.544.527H76.427a.535.535,0,0,1-.544-.527v-8.554a.523.523,0,0,1,.235-.434l.717-.48a.558.558,0,0,1,.618,0l.717.48A.523.523,0,0,1,78.4,100.215Z" transform="translate(-45.791 -87.395)"/><path class="cls-24" d="M75.884,98.934V90.053a.535.535,0,0,1,.544-.527h1.434a.535.535,0,0,1,.544.527v8.881a.545.545,0,0,1-.852.434l-.1-.067a.558.558,0,0,0-.618,0l-.1.066A.545.545,0,0,1,75.884,98.934Z" transform="translate(-45.791 -87.395)"/><path class="cls-25" d="M53.594,100.215v8.554a.535.535,0,0,1-.544.527H51.617a.535.535,0,0,1-.544-.527v-8.554a.523.523,0,0,1,.235-.434l.717-.48a.558.558,0,0,1,.618,0l.717.48A.523.523,0,0,1,53.594,100.215Z" transform="translate(-45.791 -87.395)"/><path class="cls-26" d="M51.073,98.934V90.053a.535.535,0,0,1,.544-.527h1.434a.535.535,0,0,1,.544.527v8.881a.545.545,0,0,1-.852.434l-.1-.067a.558.558,0,0,0-.618,0l-.1.066A.545.545,0,0,1,51.073,98.934Z" transform="translate(-45.791 -87.395)"/><path class="cls-27" d="M74.285,100.1v6.742a.535.535,0,0,1-.544.527H72.308a.535.535,0,0,1-.544-.527V100.1a.545.545,0,0,1,.852-.434l.1.067a.558.558,0,0,0,.618,0l.1-.067A.545.545,0,0,1,74.285,100.1Z" transform="translate(-45.791 -87.395)"/><path class="cls-28" d="M55.193,98.818V91.911a.535.535,0,0,1,.544-.527H57.17a.535.535,0,0,1,.544.527v6.907a.523.523,0,0,1-.235.434l-.717.48a.558.558,0,0,1-.618,0l-.717-.48A.523.523,0,0,1,55.193,98.818Z" transform="translate(-45.791 -87.395)"/><path class="cls-29" d="M57.714,100.1v6.742a.535.535,0,0,1-.544.527H55.736a.535.535,0,0,1-.544-.527V100.1a.545.545,0,0,1,.852-.434l.1.067a.558.558,0,0,0,.618,0l.1-.067A.545.545,0,0,1,57.714,100.1Z" transform="translate(-45.791 -87.395)"/><path class="cls-30" d="M84.064,98.934V89.983a.535.535,0,0,1,.544-.527h1.434a.535.535,0,0,1,.544.527v8.951a.545.545,0,0,1-.852.434l-.1-.066a.558.558,0,0,0-.618,0l-.1.067A.545.545,0,0,1,84.064,98.934Z" transform="translate(-45.791 -87.395)"/><path class="cls-31" d="M86.586,100.215v8.554a.535.535,0,0,1-.544.527H84.608a.535.535,0,0,1-.544-.527v-8.554a.523.523,0,0,1,.235-.434l.717-.48a.558.558,0,0,1,.618,0l.717.48A.523.523,0,0,1,86.586,100.215Z" transform="translate(-45.791 -87.395)"/><path class="cls-32" d="M88.283,98.934V91.911a.535.535,0,0,1,.544-.527h1.434a.535.535,0,0,1,.544.527v7.023a.545.545,0,0,1-.852.434l-.1-.066a.558.558,0,0,0-.618,0l-.1.066A.545.545,0,0,1,88.283,98.934Z" transform="translate(-45.791 -87.395)"/><path class="cls-33" d="M96.424,98.818V89.983a.535.535,0,0,1,.544-.527H98.4a.535.535,0,0,1,.544.527v8.835a.523.523,0,0,1-.235.434l-.717.48a.558.558,0,0,1-.618,0l-.717-.48A.523.523,0,0,1,96.424,98.818Z" transform="translate(-45.791 -87.395)"/><path class="cls-34" d="M70.072,100.1v8.67a.535.535,0,0,1-.544.527H68.095a.535.535,0,0,1-.544-.527V100.1a.545.545,0,0,1,.852-.434l.1.066a.558.558,0,0,0,.618,0l.1-.067A.545.545,0,0,1,70.072,100.1Z" transform="translate(-45.791 -87.395)"/><path class="cls-35" d="M59.312,98.818V89.983a.535.535,0,0,1,.544-.527H61.29a.535.535,0,0,1,.544.527v8.835a.523.523,0,0,1-.235.434l-.717.48a.558.558,0,0,1-.618,0l-.717-.48A.523.523,0,0,1,59.312,98.818Z" transform="translate(-45.791 -87.395)"/><path class="cls-36" d="M61.833,100.1v8.67a.535.535,0,0,1-.544.527H59.856a.535.535,0,0,1-.544-.527V100.1a.545.545,0,0,1,.852-.434l.1.066a.558.558,0,0,0,.618,0l.1-.067A.545.545,0,0,1,61.833,100.1Z" transform="translate(-45.791 -87.395)"/><path class="cls-37" d="M92.3,98.818V91.911a.535.535,0,0,1,.544-.527h1.434a.535.535,0,0,1,.544.527v6.907a.523.523,0,0,1-.235.434l-.717.48a.558.558,0,0,1-.618,0l-.717-.48A.523.523,0,0,1,92.3,98.818Z" transform="translate(-45.791 -87.395)"/><path class="cls-38" d="M90.8,100.215v6.626a.535.535,0,0,1-.544.527H88.827a.535.535,0,0,1-.544-.527v-6.626a.523.523,0,0,1,.235-.434l.717-.48a.558.558,0,0,1,.618,0l.717.48A.523.523,0,0,1,90.8,100.215Z" transform="translate(-45.791 -87.395)"/><path class="cls-39" d="M94.825,100.1v6.742a.535.535,0,0,1-.544.527H92.847a.535.535,0,0,1-.544-.527V100.1a.545.545,0,0,1,.852-.434l.1.067a.558.558,0,0,0,.618,0l.1-.067A.545.545,0,0,1,94.825,100.1Z" transform="translate(-45.791 -87.395)"/><path class="cls-40" d="M104.663,98.818V89.983a.535.535,0,0,1,.544-.527h1.434a.535.535,0,0,1,.544.527v8.835a.523.523,0,0,1-.235.434l-.717.48a.558.558,0,0,1-.618,0l-.717-.48A.523.523,0,0,1,104.663,98.818Z" transform="translate(-45.791 -87.395)"/><path class="cls-41" d="M107.184,100.1v8.67a.535.535,0,0,1-.544.527h-1.434a.535.535,0,0,1-.544-.527V100.1a.545.545,0,0,1,.852-.434l.1.067a.558.558,0,0,0,.618,0l.1-.067A.545.545,0,0,1,107.184,100.1Z" transform="translate(-45.791 -87.395)"/><path class="cls-42" d="M108.675,98.818V91.911a.535.535,0,0,1,.544-.527h1.434a.535.535,0,0,1,.544.527v6.907a.523.523,0,0,1-.235.434l-.717.48a.558.558,0,0,1-.618,0l-.717-.48A.523.523,0,0,1,108.675,98.818Z" transform="translate(-45.791 -87.395)"/><path class="cls-43" d="M111.2,100.1v6.742a.535.535,0,0,1-.544.527h-1.434a.535.535,0,0,1-.544-.527V100.1a.545.545,0,0,1,.852-.434l.1.067a.558.558,0,0,0,.618,0l.1-.067A.545.545,0,0,1,111.2,100.1Z" transform="translate(-45.791 -87.395)"/><path class="cls-44" d="M115.423,100.215v8.554a.535.535,0,0,1-.544.527h-1.434a.535.535,0,0,1-.544-.527v-8.554a.523.523,0,0,1,.235-.434l.717-.48a.558.558,0,0,1,.618,0l.717.48A.523.523,0,0,1,115.423,100.215Z" transform="translate(-45.791 -87.395)"/><path class="cls-45" d="M112.9,98.934V89.983a.535.535,0,0,1,.544-.527h1.434a.535.535,0,0,1,.544.527v8.951a.545.545,0,0,1-.852.434l-.1-.066a.558.558,0,0,0-.618,0l-.1.066A.545.545,0,0,1,112.9,98.934Z" transform="translate(-45.791 -87.395)"/><path class="cls-46" d="M137.6,98.537V89.983a.535.535,0,0,1,.544-.527h1.434a.535.535,0,0,1,.544.527v8.554a.523.523,0,0,1-.235.434l-.717.48a.558.558,0,0,1-.618,0l-.717-.48A.523.523,0,0,1,137.6,98.537Z" transform="translate(-45.791 -87.395)"/><path class="cls-47" d="M140.119,99.818V109a.3.3,0,0,1-.3.3H137.9a.3.3,0,0,1-.3-.3v-9.18a.545.545,0,0,1,.852-.434l.1.066a.558.558,0,0,0,.618,0l.1-.066A.545.545,0,0,1,140.119,99.818Z" transform="translate(-45.791 -87.395)"/><path class="cls-48" d="M152.478,100.215v8.554a.535.535,0,0,1-.544.527H150.5a.535.535,0,0,1-.544-.527v-8.554a.523.523,0,0,1,.235-.434l.717-.48a.558.558,0,0,1,.618,0l.717.48A.523.523,0,0,1,152.478,100.215Z" transform="translate(-45.791 -87.395)"/><path class="cls-49" d="M149.957,98.934v-9.18a.3.3,0,0,1,.3-.3h1.925a.3.3,0,0,1,.3.3v9.18a.545.545,0,0,1-.852.434l-.1-.066a.558.558,0,0,0-.618,0l-.1.066A.545.545,0,0,1,149.957,98.934Z" transform="translate(-45.791 -87.395)"/><path class="cls-50" d="M129.321,98.537V91.911a.535.535,0,0,1,.544-.527H131.3a.535.535,0,0,1,.544.527v6.626a.523.523,0,0,1-.235.434l-.717.48a.558.558,0,0,1-.618,0l-.717-.48A.523.523,0,0,1,129.321,98.537Z" transform="translate(-45.791 -87.395)"/><path class="cls-51" d="M131.842,99.818v7.023a.535.535,0,0,1-.544.527h-1.434a.535.535,0,0,1-.544-.527V99.818a.545.545,0,0,1,.852-.434l.1.067a.558.558,0,0,0,.618,0l.1-.066A.545.545,0,0,1,131.842,99.818Z" transform="translate(-45.791 -87.395)"/><path class="cls-52" d="M127.761,100.215v6.626a.535.535,0,0,1-.544.527h-1.434a.535.535,0,0,1-.544-.527v-6.626a.523.523,0,0,1,.235-.434l.717-.48a.558.558,0,0,1,.618,0l.717.48A.523.523,0,0,1,127.761,100.215Z" transform="translate(-45.791 -87.395)"/><path class="cls-53" d="M125.239,98.934V91.911a.535.535,0,0,1,.544-.527h1.434a.535.535,0,0,1,.544.527v7.023a.545.545,0,0,1-.852.434l-.1-.067a.558.558,0,0,0-.618,0l-.1.066A.545.545,0,0,1,125.239,98.934Z" transform="translate(-45.791 -87.395)"/><path class="cls-54" d="M144.239,100.215v6.626a.535.535,0,0,1-.544.527h-1.434a.535.535,0,0,1-.544-.527v-6.626a.523.523,0,0,1,.235-.434l.717-.48a.558.558,0,0,1,.618,0l.717.48A.523.523,0,0,1,144.239,100.215Z" transform="translate(-45.791 -87.395)"/><path class="cls-55" d="M141.718,98.934V91.911a.535.535,0,0,1,.544-.527H143.7a.535.535,0,0,1,.544.527v7.023a.545.545,0,0,1-.852.434l-.1-.067a.558.558,0,0,0-.618,0l-.1.066A.545.545,0,0,1,141.718,98.934Z" transform="translate(-45.791 -87.395)"/><path class="cls-56" d="M145.837,98.537V91.911a.535.535,0,0,1,.544-.527h1.434a.535.535,0,0,1,.544.527v6.626a.523.523,0,0,1-.235.434l-.717.48a.558.558,0,0,1-.618,0l-.717-.48A.523.523,0,0,1,145.837,98.537Z" transform="translate(-45.791 -87.395)"/><path class="cls-57" d="M148.359,99.818v7.023a.535.535,0,0,1-.544.527h-1.434a.535.535,0,0,1-.544-.527V99.818a.545.545,0,0,1,.852-.434l.1.067a.558.558,0,0,0,.618,0l.1-.066A.545.545,0,0,1,148.359,99.818Z" transform="translate(-45.791 -87.395)"/></g><path class="cls-58" d="M66.491,111.4c-10.35,0-3.576-24-17.8-24h-2.9c9.828,0,2.9,24,17.8,24Z" transform="translate(-45.791 -87.395)"/><path class="cls-59" d="M102.091,111.4c-10.35,0-3.576-24-17.8-24h-2.9c9.828,0,2.9,24,17.8,24Z" transform="translate(-45.791 -87.395)"/><path class="cls-60" d="M137.691,111.4c-10.35,0-3.576-24-17.8-24h-2.9c9.828,0,2.9,24,17.8,24Z" transform="translate(-45.791 -87.395)"/><path class="cls-61" d="M84.291,111.4c-10.35,0-3.576-24-17.8-24h-2.9c9.828,0,2.9,24,17.8,24Z" transform="translate(-45.791 -87.395)"/><path class="cls-62" d="M119.891,111.4c-10.35,0-3.576-24-17.8-24h-2.9c9.828,0,2.9,24,17.8,24Z" transform="translate(-45.791 -87.395)"/><path class="cls-63" d="M155.492,111.4c-10.35,0-3.576-24-17.8-24h-2.9c9.828,0,2.9,24,17.8,24Z" transform="translate(-45.791 -87.395)"/></g></svg>