<svg id="Layer_1" data-name="Layer 1" xmlns="http://www.w3.org/2000/svg" xmlns:xlink="http://www.w3.org/1999/xlink" viewBox="0 0 91.337 90.68"><defs><style>.cls-1{fill:url(#linear-gradient);}.cls-2{fill:url(#radial-gradient);}.cls-3{fill:url(#linear-gradient-2);}.cls-4{fill:url(#radial-gradient-2);}.cls-5{fill:url(#radial-gradient-3);}.cls-6{fill:url(#radial-gradient-4);}.cls-7{opacity:0.7;}.cls-8{fill:url(#radial-gradient-5);}.cls-9{fill:url(#radial-gradient-6);}.cls-10{fill:url(#radial-gradient-7);}.cls-11{fill:url(#radial-gradient-8);}.cls-12{fill:url(#radial-gradient-9);}</style><linearGradient id="linear-gradient" x1="104.265" y1="56.935" x2="147.959" y2="166.169" gradientUnits="userSpaceOnUse"><stop offset="0" stop-color="#ff769a"/><stop offset="1" stop-color="#a34b62"/></linearGradient><radialGradient id="radial-gradient" cx="133.291" cy="98.956" r="32.843" gradientTransform="matrix(0.979, -0.22, 0.276, 1.413, -24.497, -0.044)" gradientUnits="userSpaceOnUse"><stop offset="0.458" stop-color="#a34b62"/><stop offset="0.815" stop-color="#ff769a" stop-opacity="0"/></radialGradient><linearGradient id="linear-gradient-2" x1="83.116" y1="51.332" x2="67.998" y2="167.568" xlink:href="#linear-gradient"/><radialGradient id="radial-gradient-2" cx="73.136" cy="88.385" r="32.46" gradientTransform="translate(0 -80.186) scale(1 2.03)" xlink:href="#radial-gradient"/><radialGradient id="radial-gradient-3" cx="124.768" cy="83.138" r="37.191" gradientTransform="matrix(0.987, -0.17, 0.325, 2.164, -25.414, -65.054)" gradientUnits="userSpaceOnUse"><stop offset="0.095" stop-color="#ff769a"/><stop offset="0.898" stop-color="#a34b62"/></radialGradient><radialGradient id="radial-gradient-4" cx="79.384" cy="83.87" r="47.674" gradientTransform="matrix(0.971, 0.255, -0.638, 2.783, 55.765, -159.273)" xlink:href="#linear-gradient"/><radialGradient id="radial-gradient-5" cx="19.506" cy="40.051" r="1.557" gradientUnits="userSpaceOnUse"><stop offset="0.175" stop-color="#241015"/><stop offset="0.537" stop-color="#a34b62"/><stop offset="1" stop-color="#ff769a" stop-opacity="0"/></radialGradient><radialGradient id="radial-gradient-6" cx="15.502" cy="34.234" r="2.202" xlink:href="#radial-gradient-5"/><radialGradient id="radial-gradient-7" cx="16.662" cy="41.98" r="2.202" xlink:href="#radial-gradient-5"/><radialGradient id="radial-gradient-8" cx="18.073" cy="36.898" r="3.427" xlink:href="#radial-gradient-5"/><radialGradient id="radial-gradient-9" cx="11.957" cy="38.022" r="5.991" xlink:href="#radial-gradient-5"/></defs><title>R-ICO-013971</title><g id="R-ICO-013971"><g id="BOTTOM"><path id="RIGHT_BG" class="cls-1" d="M114.417,54.674c-9.6.505-8.574,13.109-7.868,20.572s-1.5,10.084-2.183,16.941-.084,14.637.444,20.572-1.532,17.059,2.527,19.218,24.018,6.617,28.626,12.052,10.061-6.665,9.687-24.615-1.612-32.874-4.475-39.731S125.908,54.069,114.417,54.674Z" transform="translate(-54.332 -54.66)"/><path id="RIGHT_MID" class="cls-2" d="M135.963,135.832c-4.608-5.435-6.319-5.191-10.378-7.351s-6.235-2.233-6.764-8.167-1.761-12.354-1.073-19.211-3.589-16.465-4.3-23.928-8.634-22,.964-22.5c-9.6.505-8.575,13.109-7.868,20.572s-1.5,10.084-2.183,16.941-.084,14.637.444,20.572-1.532,17.059,2.527,19.218,24.018,6.617,28.626,12.052c2.192,2.586,4.575,1.2,6.431-2.9C140.538,145.086,138.155,138.418,135.963,135.832Z" transform="translate(-54.332 -54.66)"/><path id="LEFT_BG" class="cls-3" d="M85.583,54.674c9.6.505,8.574,13.109,7.868,20.572s1.5,10.084,2.183,16.941.084,14.637-.444,20.572,1.532,17.059-2.527,19.218-24.018,6.617-28.626,12.052-10.061-6.665-9.687-24.615,1.612-32.874,4.475-39.731S74.092,54.069,85.583,54.674Z" transform="translate(-54.332 -54.66)"/><path id="LEFT_MID" class="cls-4" d="M95.19,112.759c.528-5.935,1.132-13.715.444-20.572s-2.889-9.479-2.183-16.941,1.73-20.067-7.868-20.572c9.6.505,5.162,13.314,4.456,20.776s-2.855,13.734-2.168,20.591-1.393,15.808-1.922,21.742-3.242,7.734-7.3,9.893-8.091,3.746-12.7,9.181c-1.23,1.45-4.405,8.724-5.652,7.991,1.222.823,2.51.631,3.739-.819,4.608-5.435,24.567-9.892,28.626-12.052S94.661,118.693,95.19,112.759Z" transform="translate(-54.332 -54.66)"/></g><g id="TOP"><path id="RIGHT" class="cls-5" d="M114.417,54.674c-9.6.505-1.67,15.039-.964,22.5s4.982,17.071,4.294,23.928.546,13.276,1.074,19.211,2.7,6.008,6.764,8.167,5.77,1.916,10.378,7.351c2.211,2.608,4.616,9.376,6.48,5.2,2.019-4.527,3.4-12.281,3.207-21.618-.374-17.95-1.612-32.874-4.475-39.731S125.908,54.069,114.417,54.674Z" transform="translate(-54.332 -54.66)"/><path id="LEFT" class="cls-6" d="M85.583,54.674c9.6.505,5.162,13.314,4.456,20.776s-2.855,13.734-2.168,20.591-1.393,15.808-1.922,21.742-3.242,7.734-7.3,9.893-8.091,3.746-12.7,9.181c-1.238,1.459-4.448,8.827-5.678,7.984-3.351-2.3-6.2-12.3-5.922-25.427.374-17.95,1.612-32.874,4.475-39.731S74.092,54.069,85.583,54.674Z" transform="translate(-54.332 -54.66)"/></g><g id="CANCER_SPOTS" class="cls-7"><circle class="cls-8" cx="19.506" cy="40.051" r="1.557"/><circle class="cls-9" cx="15.502" cy="34.234" r="2.202"/><circle class="cls-10" cx="16.662" cy="41.98" r="2.202"/><circle class="cls-11" cx="18.073" cy="36.898" r="3.427"/><circle class="cls-12" cx="11.957" cy="38.022" r="5.991"/></g></g></svg>