<svg id="Layer_1" data-name="Layer 1" xmlns="http://www.w3.org/2000/svg" xmlns:xlink="http://www.w3.org/1999/xlink" viewBox="0 0 41.653 41.866"><defs><style>.cls-1{fill:url(#radial-gradient);}.cls-2{fill:#82297c;}.cls-3{isolation:isolate;font-size:12.061px;fill:#fff;font-family:Arial-BoldMT, Arial;font-weight:700;}.cls-4{letter-spacing:-0.018em;}</style><radialGradient id="radial-gradient" cx="94.13" cy="112.46" r="19.535" gradientTransform="matrix(1, 0, 0, -1.005, 0, 203.275)" gradientUnits="userSpaceOnUse"><stop offset="0" stop-color="#ffb9f6"/><stop offset="1" stop-color="#c782be"/></radialGradient></defs><title>prolactin</title><g id="PRL"><path id="CENTER" class="cls-1" d="M98.634,78.079a20.5,20.5,0,1,0,20.4,20.5A20.473,20.473,0,0,0,98.634,78.079Z" transform="translate(-77.809 -77.647)"/><path class="cls-2" d="M98.634,119.513a20.933,20.933,0,1,1,20.827-20.932A20.9,20.9,0,0,1,98.634,119.513Zm0-41A20.071,20.071,0,1,0,118.6,98.581,20.042,20.042,0,0,0,98.634,78.51Z" transform="translate(-77.809 -77.647)"/><text class="cls-3" transform="translate(8.935 23.836) scale(0.995 1)">PR<tspan class="cls-4" x="16.755" y="0">L</tspan></text></g></svg>