<svg id="Layer_1" data-name="Layer 1" xmlns="http://www.w3.org/2000/svg" xmlns:xlink="http://www.w3.org/1999/xlink" viewBox="0 0 43.293 56.294"><defs><style>.cls-1{fill:url(#linear-gradient);}.cls-2{fill:url(#linear-gradient-2);}.cls-3{fill:url(#linear-gradient-3);}</style><linearGradient id="linear-gradient" x1="271.793" y1="652.341" x2="271.793" y2="602.401" gradientTransform="translate(369.139 728.601) rotate(-179.746)" gradientUnits="userSpaceOnUse"><stop offset="0" stop-color="#9b9b9b"/><stop offset="0.116" stop-color="#818181"/><stop offset="0.265" stop-color="#666"/><stop offset="0.398" stop-color="#565656"/><stop offset="0.499" stop-color="#505050"/><stop offset="0.601" stop-color="#565656"/><stop offset="0.734" stop-color="#666"/><stop offset="0.884" stop-color="#818181"/><stop offset="1" stop-color="#9b9b9b"/></linearGradient><linearGradient id="linear-gradient-2" x1="104.654" y1="99.998" x2="119.953" y2="99.998" gradientUnits="userSpaceOnUse"><stop offset="0" stop-color="#0099e0"/><stop offset="0.028" stop-color="#0d99da"/><stop offset="0.12" stop-color="#339ac9"/><stop offset="0.219" stop-color="#539abb"/><stop offset="0.326" stop-color="#6d9aaf"/><stop offset="0.443" stop-color="#829ba6"/><stop offset="0.574" stop-color="#909ba0"/><stop offset="0.734" stop-color="#989b9c"/><stop offset="1" stop-color="#9b9b9b"/></linearGradient><linearGradient id="linear-gradient-3" x1="-22.972" y1="99.998" x2="-7.673" y2="99.998" gradientTransform="matrix(-1, 0, 0, 1, 72.375, 0)" xlink:href="#linear-gradient-2"/></defs><title>Zinc_channel</title><g id="Zinc_channel"><path class="cls-1" d="M100,125.011c-6.78-.03-19.288,3.136-19.288,3.136,14.424.064,14.549-28.079,14.549-28.079s.125-28.147-14.3-28.211c0,0,12.294,3.254,19.039,3.284,6.744-.03,19.039-3.284,19.039-3.284-14.424.064-14.3,28.211-14.3,28.211s.125,28.143,14.549,28.079C119.288,128.147,106.78,124.981,100,125.011Z" transform="translate(-78.354 -71.853)"/><path class="cls-2" d="M108.027,100.049c.1,21.861,9.831,18.974,11.219,18.968s2.325,1.48,2.341,5.008c.012,2.819-.489,4.11-2.3,4.118-14.424.064-14.549-28.079-14.549-28.079s-.125-28.147,14.3-28.211c1.81-.008,2.6,1.343,2.609,4.092s-1.18,5.031-2.568,5.037S107.93,78.188,108.027,100.049Z" transform="translate(-78.354 -71.853)"/><path class="cls-3" d="M91.973,100.049c-.1,21.861-9.831,18.974-11.219,18.968s-2.325,1.48-2.341,5.008c-.012,2.819.489,4.11,2.3,4.118,14.424.064,14.549-28.079,14.549-28.079s.125-28.147-14.3-28.211c-1.81-.008-2.6,1.343-2.609,4.092s1.18,5.031,2.568,5.037S92.07,78.188,91.973,100.049Z" transform="translate(-78.354 -71.853)"/></g></svg>