<svg id="Layer_1" data-name="Layer 1" xmlns="http://www.w3.org/2000/svg" xmlns:xlink="http://www.w3.org/1999/xlink" viewBox="0 0 92.751 45.686"><defs><style>.cls-1{fill:url(#radial-gradient);}.cls-2{fill:url(#linear-gradient);}.cls-3{fill:url(#linear-gradient-2);}.cls-4{fill:url(#linear-gradient-3);}.cls-5{fill:url(#linear-gradient-4);}.cls-6{fill:url(#linear-gradient-5);}.cls-7{fill:url(#linear-gradient-6);}</style><radialGradient id="radial-gradient" cx="35.671" cy="15.811" r="28.474" gradientUnits="userSpaceOnUse"><stop offset="0" stop-color="#d3c3c3"/><stop offset="0.031" stop-color="#cdb1b1"/><stop offset="0.113" stop-color="#bd8686"/><stop offset="0.193" stop-color="#b16464"/><stop offset="0.269" stop-color="#a84c4c"/><stop offset="0.339" stop-color="#a33d3d"/><stop offset="0.397" stop-color="#a13838"/><stop offset="1" stop-color="#261313"/></radialGradient><linearGradient id="linear-gradient" x1="1122.331" y1="253.298" x2="1119.876" y2="253.114" gradientTransform="matrix(0.142, 0.99, -0.99, 0.142, 218.715, -1029.89)" gradientUnits="userSpaceOnUse"><stop offset="0" stop-color="#252613"/><stop offset="0.094" stop-color="#9ba138"/><stop offset="0.118" stop-color="#9ea33f"/><stop offset="0.152" stop-color="#a5aa51"/><stop offset="0.192" stop-color="#b1b570"/><stop offset="0.235" stop-color="#c2c49a"/><stop offset="0.273" stop-color="#d3d3c3"/><stop offset="0.31" stop-color="#d2d2c0"/><stop offset="0.336" stop-color="#cecfb7"/><stop offset="0.359" stop-color="#c8c9a8"/><stop offset="0.379" stop-color="#bfc192"/><stop offset="0.398" stop-color="#b4b776"/><stop offset="0.416" stop-color="#a6ab54"/><stop offset="0.428" stop-color="#9ba138"/><stop offset="0.542" stop-color="#777c2d"/><stop offset="0.677" stop-color="#545722"/><stop offset="0.803" stop-color="#3a3c1a"/><stop offset="0.914" stop-color="#2a2c15"/><stop offset="1" stop-color="#252613"/></linearGradient><linearGradient id="linear-gradient-2" x1="1188.175" y1="-206.766" x2="1185.659" y2="-206.954" gradientTransform="matrix(-0.142, 0.99, 0.99, 0.142, 488.911, -1029.89)" xlink:href="#linear-gradient"/><linearGradient id="linear-gradient-3" x1="1081.682" y1="-325.844" x2="1097.396" y2="-323.042" gradientTransform="translate(441.236 1196.572) rotate(-90)" xlink:href="#linear-gradient"/><linearGradient id="linear-gradient-4" x1="1098.166" y1="-315.765" x2="1081.113" y2="-317.038" gradientTransform="translate(441.236 1196.572) rotate(-90)" xlink:href="#linear-gradient"/><linearGradient id="linear-gradient-5" x1="1517.674" y1="-239.519" x2="1449.644" y2="-244.595" gradientTransform="translate(1567.64 -123.031) rotate(180)" xlink:href="#linear-gradient"/><linearGradient id="linear-gradient-6" x1="1006.144" y1="45.148" x2="1024.429" y2="48.409" gradientTransform="translate(-878.367 70.168)" xlink:href="#linear-gradient"/></defs><title>R-ICO-013608</title><circle id="R-ICO-013608" class="cls-1" cx="40.289" cy="21.788" r="21.788"/><g id="R-ICO-012827"><path class="cls-2" d="M127.913,116.659c-4.022.983-1.569-1.882-1.569-1.882l.074-.1s-1.382,2.579,1.589,1.911Z" transform="translate(-53.625 -77.157)"/><path class="cls-3" d="M115.006,116.659c3.809,1.16,1.569-1.882,1.569-1.882l-.074-.1s1.382,2.579-1.589,1.911Z" transform="translate(-53.625 -77.157)"/><path class="cls-4" d="M122.754,99.193c-11.132,0-6.183,15.584-6.183,15.584l-.074-.1s-11.07-15.485,4.63-15.485Z" transform="translate(-53.625 -77.157)"/><path class="cls-5" d="M120.161,99.193c11.132,0,6.183,15.584,6.183,15.584l.074-.1s11.07-15.485-4.63-15.485Z" transform="translate(-53.625 -77.157)"/><path class="cls-6" d="M53.625,122.843c0-11.132,61.377-6.183,61.377-6.183l-.1-.074s-61.277-11.07-61.277,4.63Z" transform="translate(-53.625 -77.157)"/><path class="cls-7" d="M146.375,122.011c0-11.132-18.462-5.351-18.462-5.351l.1-.074s18.363-7.427,18.363,3.8Z" transform="translate(-53.625 -77.157)"/></g></svg>