<svg id="Layer_1" data-name="Layer 1" xmlns="http://www.w3.org/2000/svg" xmlns:xlink="http://www.w3.org/1999/xlink" viewBox="0 0 44.875 61"><defs><style>.cls-1{fill:url(#linear-gradient);}.cls-2{fill:none;stroke:#851852;stroke-linecap:round;stroke-linejoin:round;stroke-width:4px;}.cls-3{mask:url(#mask);}.cls-4{fill:url(#linear-gradient-2);}.cls-5{fill:url(#linear-gradient-3);}.cls-6{fill:url(#linear-gradient-4);}.cls-7{fill:url(#linear-gradient-5);}.cls-8{fill:url(#linear-gradient-6);}.cls-9{fill:url(#linear-gradient-7);}.cls-10{fill:url(#linear-gradient-8);}</style><linearGradient id="linear-gradient" x1="100" y1="118.153" x2="100" y2="76.985" gradientUnits="userSpaceOnUse"><stop offset="0"/><stop offset="0.5" stop-color="#fff"/><stop offset="0.63" stop-color="#fdfdfd"/><stop offset="0.699" stop-color="#f5f5f5"/><stop offset="0.753" stop-color="#e7e7e7"/><stop offset="0.8" stop-color="#d4d4d4"/><stop offset="0.842" stop-color="#bbb"/><stop offset="0.881" stop-color="#9c9c9c"/><stop offset="0.917" stop-color="#787878"/><stop offset="0.951" stop-color="#4e4e4e"/><stop offset="0.982" stop-color="#1f1f1f"/><stop offset="1"/></linearGradient><mask id="mask" x="-0.714" y="7.485" width="45.676" height="41.168" maskUnits="userSpaceOnUse"><g transform="translate(-77.876 -69.5)"><rect class="cls-1" x="77.162" y="76.985" width="45.676" height="41.168"/></g></mask><linearGradient id="linear-gradient-2" x1="0.549" y1="28" x2="2.824" y2="28" gradientUnits="userSpaceOnUse"><stop offset="0" stop-color="#e899c3" stop-opacity="0"/><stop offset="0.5" stop-color="#e899c3"/><stop offset="1" stop-color="#e899c3" stop-opacity="0"/></linearGradient><linearGradient id="linear-gradient-3" x1="41.424" y1="28" x2="43.698" y2="28" xlink:href="#linear-gradient-2"/><linearGradient id="linear-gradient-4" x1="34.612" y1="28" x2="36.886" y2="28" xlink:href="#linear-gradient-2"/><linearGradient id="linear-gradient-5" x1="27.799" y1="28" x2="30.073" y2="28" xlink:href="#linear-gradient-2"/><linearGradient id="linear-gradient-6" x1="20.987" y1="28" x2="23.261" y2="28" xlink:href="#linear-gradient-2"/><linearGradient id="linear-gradient-7" x1="14.174" y1="28" x2="16.449" y2="28" xlink:href="#linear-gradient-2"/><linearGradient id="linear-gradient-8" x1="7.362" y1="28" x2="9.636" y2="28" xlink:href="#linear-gradient-2"/></defs><title>SMO</title><g id="SMO"><path class="cls-2" d="M79.876,71.5v45s0,5,3.406,5,3.406-5,3.406-5v-40s0-5,3.406-5,3.406,5,3.406,5v40s0,5,3.406,5,3.406-5,3.406-5v-40s0-5,3.406-5,3.406,5,3.406,5v40s0,5,3.406,5,3.406-5,3.406-5v-40s0-5,3.406-5,3.406,5,3.406,5v45c0,5-3.406,6.963-6.812,6.963l-3.406.037" transform="translate(-77.876 -69.5)"/><g class="cls-3"><rect class="cls-4" x="0.549" y="8" width="2.274" height="40"/><rect class="cls-5" x="41.424" y="8" width="2.274" height="40"/><rect class="cls-6" x="34.612" y="8" width="2.274" height="40"/><rect class="cls-7" x="27.799" y="8" width="2.274" height="40"/><rect class="cls-8" x="20.987" y="8" width="2.274" height="40"/><rect class="cls-9" x="14.174" y="8" width="2.274" height="40"/><rect class="cls-10" x="7.362" y="8" width="2.274" height="40"/></g></g></svg>