<svg id="Layer_1" data-name="Layer 1" xmlns="http://www.w3.org/2000/svg" xmlns:xlink="http://www.w3.org/1999/xlink" viewBox="0 0 46.159 90.645"><defs><style>.cls-1{fill:url(#linear-gradient);}.cls-2{fill:#ad342d;}.cls-3{fill:url(#radial-gradient);}</style><linearGradient id="linear-gradient" x1="118.555" y1="835.202" x2="66.366" y2="845.553" gradientTransform="translate(0 -736)" gradientUnits="userSpaceOnUse"><stop offset="0" stop-color="#d86e66"/><stop offset="1" stop-color="#a33029"/></linearGradient><radialGradient id="radial-gradient" cx="-1115.28" cy="444.923" r="23.55" gradientTransform="matrix(-0.959, -0.282, -0.55, 1.867, -720.283, -1050.596)" gradientUnits="userSpaceOnUse"><stop offset="0.782" stop-color="#fff" stop-opacity="0"/><stop offset="0.852" stop-color="#ffba94"/><stop offset="0.9" stop-color="#fff" stop-opacity="0"/></radialGradient></defs><title>mitochondrion</title><g id="MITOCHONDRION"><path class="cls-1" d="M121.7,58.4c-5.8-4.3-18.8-.5-27.6,5.4-13.2,8.9-18.3,40.8-14,63.2,2.6,13.6,8.2,18.2,12.4,19.6a12.089,12.089,0,0,0,3.8.6c3.7,0,7.6-1.7,11.1-4.8,5.6-5,10.2-14.4,8-23.9-3.7-15.5.2-25.6,4.6-37.4,1.3-3.5,2.7-7.1,3.9-11C126,63.2,123.9,59.9,121.7,58.4Z" transform="translate(-78.609 -56.555)"/><path class="cls-2" d="M118.6,76.5c-1.5-.9-8.3-1.1-12-1.2-6.8-.2-9-.3-10-1.6a2.318,2.318,0,0,1-.3-1.6c.7-2.2,4.1-2.1,12.4-1.7,4,.2,10.5.5,11.9-.2a3.582,3.582,0,0,1,.4-1.1c1.2-4.1.9-6.9-1.1-8.4-4.1-3-15.4-.5-24.1,5.5-3.4,2.3-6.4,6.7-8.8,12.7,1.7.6,7,.9,10.7,1,8.3.3,12,.7,13.3,2.4a2.116,2.116,0,0,1,.4,1.9c-.7,2.8-4.9,2.3-11.2,1.6-6-.7-15.2-1.8-15.9,1.8a94.145,94.145,0,0,0-2.6,20.9c1.3.8,7.3.7,10.9.6,8.1-.1,14-.2,14.3,3.3a2.086,2.086,0,0,1-.7,1.8c-1.4,1.4-4.4,1.3-10.1,1.1-1.7-.1-3.7-.2-5.6-.2-3.6,0-6.9.3-8.1,1.6a1.929,1.929,0,0,0-.4,1.5c.3,2.9.6,5.6,1.1,8.1,2,10.6,6.3,16.9,12,17.7,5.5.8,11.8-3.6,15.4-10.6a.139.139,0,0,0,0-.2c-.9-1-8-.4-11.4-.1-6.3.5-9.8.8-10.2-1.6a2.506,2.506,0,0,1,.5-1.9c1.4-1.8,5.2-2.1,11.8-2.5,3.6-.2,11-.7,11.7-2a20.245,20.245,0,0,0-.4-6,52.5,52.5,0,0,1-1.4-16.1.844.844,0,0,0-.2-.7c-1.6-1.7-8.6-1.8-13.3-1.8-5.8,0-8.9-.1-10.1-1.5a2.273,2.273,0,0,1-.5-1.8c.5-3.4,5.9-3.1,13.4-2.8,3.3.1,11.9.5,12.3-.9,1.2-4.6,2.8-8.9,4.5-13.5C117.7,78.8,118.1,77.7,118.6,76.5Z" transform="translate(-78.609 -56.555)"/><path id="LIGHT" class="cls-3" d="M111,59.8C108,60.4,92.3,62,87,79c-4.7,15.1-6.4,23.8-4.7,41.9C82.3,120.9,86,83,97,72S111,59.8,111,59.8Z" transform="translate(-78.609 -56.555)"/></g></svg>