<svg id="Layer_1" data-name="Layer 1" xmlns="http://www.w3.org/2000/svg" xmlns:xlink="http://www.w3.org/1999/xlink" viewBox="0 0 52.411 22.807"><defs><style>.cls-1{fill:url(#linear-gradient);}.cls-2{fill:#091a14;}.cls-3{font-size:12px;fill:#fff;font-family:Arial-BoldMT, Arial;font-weight:700;}</style><linearGradient id="linear-gradient" x1="-113.185" y1="31.784" x2="-113.185" y2="11.784" gradientTransform="translate(139.604 -10.562)" gradientUnits="userSpaceOnUse"><stop offset="0" stop-color="#3ead85"/><stop offset="0.442" stop-color="#24664e"/><stop offset="0.818" stop-color="#112f24"/><stop offset="1" stop-color="#091a14"/></linearGradient></defs><title>SMAD4</title><g id="SMAD4"><rect class="cls-1" x="1.419" y="1.222" width="50" height="20" rx="10" ry="10"/><path class="cls-2" d="M113.075,108.1c-5.116-.009-10.231.43-15.347.837-2.558.205-5.116.388-7.673.457-1.279.057-2.558.074-3.837.093l-1.918.031c-.643.008-1.244.035-2.028-.008a11.38,11.38,0,0,1-10.6-11.956A11.057,11.057,0,0,1,75.3,89.9a10.866,10.866,0,0,1,7.771-2.776c5.116.282,10.231.437,15.347.335,2.558-.059,5.116-.178,7.674-.341l3.837-.235,1.918-.1c.643-.026,1.251-.086,2-.048a10.712,10.712,0,0,1,7.62,3.642,10.505,10.505,0,0,1,2.537,7.948,10.8,10.8,0,0,1-3.736,7.076A11.134,11.134,0,0,1,113.075,108.1Zm0-.3A9.061,9.061,0,0,0,122.1,98.26a9.574,9.574,0,0,0-8.421-9.033l-7.586-.453c-2.558-.164-5.116-.282-7.674-.341-5.116-.1-10.231.053-15.347.335a9.151,9.151,0,0,0-6.1,2.865,8.872,8.872,0,0,0-2.468,6.016,8.666,8.666,0,0,0,7.983,8.666c.492.05,1.171.052,1.807.063l1.918.031c1.279.019,2.558.036,3.837.093,2.558.069,5.116.252,7.673.457C102.843,107.367,107.959,107.805,113.075,107.8Z" transform="translate(-71.656 -86.724)"/><text class="cls-3" transform="translate(5.408 14.11)">SMAD4</text></g></svg>