<svg id="Layer_1" data-name="Layer 1" xmlns="http://www.w3.org/2000/svg" xmlns:xlink="http://www.w3.org/1999/xlink" viewBox="0 0 62.377 164.846"><defs><style>.cls-1{fill:url(#radial-gradient);}.cls-2{fill:url(#linear-gradient);}.cls-3{fill:#312ba5;}.cls-4{fill:url(#radial-gradient-2);}.cls-5{fill:url(#linear-gradient-2);}</style><radialGradient id="radial-gradient" cx="584.326" cy="169.876" r="32.658" gradientTransform="translate(682.252 202) rotate(180)" gradientUnits="userSpaceOnUse"><stop offset="0.698" stop-color="#7168da"/><stop offset="0.999" stop-color="#4b3eda"/></radialGradient><linearGradient id="linear-gradient" x1="-399.365" y1="116.662" x2="-410.449" y2="116.662" gradientTransform="translate(510.965)" gradientUnits="userSpaceOnUse"><stop offset="0" stop-color="#4b3eda"/><stop offset="1" stop-color="#7468f5"/></linearGradient><radialGradient id="radial-gradient-2" cx="-454.667" cy="168.759" r="27.178" gradientTransform="matrix(1, 0, 0, -1, 550.819, 202)" gradientUnits="userSpaceOnUse"><stop offset="0.683" stop-color="#3e6ada"/><stop offset="1" stop-color="#68dad4"/></radialGradient><linearGradient id="linear-gradient-2" x1="638.215" y1="96.661" x2="627.13" y2="96.661" gradientTransform="matrix(-1, 0, 0, 1, 722.106, 0)" gradientUnits="userSpaceOnUse"><stop offset="0" stop-color="#68dad4"/><stop offset="1" stop-color="#3e6ada"/></linearGradient></defs><title>IL4R</title><g id="ILR4"><g id="LEFT"><path class="cls-1" d="M106.131,180.24a5.155,5.155,0,0,0,5.155-5.155V61.828a27.362,27.362,0,0,0,15.09-15.111,33.643,33.643,0,0,0-1.842-27.986,5.155,5.155,0,1,0-9.009,5.016c2.606,4.681,4.018,12.4,1.3,19.088-2.087,5.136-6.183,8.648-12.172,10.438a5.155,5.155,0,0,0-3.678,4.94V175.084A5.155,5.155,0,0,0,106.131,180.24Z" transform="translate(-66.557 -15.738)"/><path class="cls-2" d="M106.131,180.24a5.433,5.433,0,0,1-5.5-5.365V58.449a5.5,5.5,0,0,1,11,0V174.876A5.433,5.433,0,0,1,106.131,180.24Z" transform="translate(-66.557 -15.738)"/><path class="cls-3" d="M100.632,175.085V58.213a5.533,5.533,0,0,1,3.923-5.268c5.884-1.76,9.9-5.2,11.951-10.239,2.676-6.584,1.285-14.181-1.282-18.792a5.5,5.5,0,0,1,9.609-5.35A33.992,33.992,0,0,1,126.7,46.847,27.744,27.744,0,0,1,111.63,62.054V175.085a5.5,5.5,0,0,1-11,0ZM117.69,17.036a4.81,4.81,0,0,0-1.863,6.544c2.646,4.753,4.08,12.591,1.318,19.385-2.129,5.237-6.3,8.816-12.392,10.638a4.841,4.841,0,0,0-3.433,4.61V175.085a4.812,4.812,0,0,0,9.623,0V61.828a.344.344,0,0,1,.209-.316,27.09,27.09,0,0,0,14.906-14.924A33.278,33.278,0,0,0,124.234,18.9a4.8,4.8,0,0,0-6.545-1.862Z" transform="translate(-66.557 -15.738)"/></g><g id="LEFT-2" data-name="LEFT"><path class="cls-4" d="M89.36,140.238a5.155,5.155,0,0,1-5.155-5.155V61.828a27.362,27.362,0,0,1-15.09-15.111A33.643,33.643,0,0,1,70.957,18.73a5.155,5.155,0,1,1,9.009,5.016c-2.606,4.681-4.018,12.4-1.3,19.088,2.087,5.136,6.183,8.648,12.172,10.438a5.155,5.155,0,0,1,3.678,4.94v76.87A5.155,5.155,0,0,1,89.36,140.238Z" transform="translate(-66.557 -15.738)"/><path class="cls-5" d="M89.36,140.238a5.433,5.433,0,0,0,5.5-5.365V58.449a5.5,5.5,0,0,0-11,0v76.424A5.433,5.433,0,0,0,89.36,140.238Z" transform="translate(-66.557 -15.738)"/><path class="cls-3" d="M89.36,140.582a5.506,5.506,0,0,1-5.5-5.5V62.054A27.744,27.744,0,0,1,68.8,46.847a33.992,33.992,0,0,1,1.861-28.282,5.5,5.5,0,0,1,9.609,5.35c-2.567,4.611-3.958,12.208-1.282,18.792,2.046,5.035,6.067,8.479,11.951,10.239a5.533,5.533,0,0,1,3.923,5.268v76.87A5.5,5.5,0,0,1,89.36,140.582ZM75.467,16.425a4.825,4.825,0,0,0-4.21,2.473,33.278,33.278,0,0,0-1.824,27.689A27.09,27.09,0,0,0,84.339,61.512a.344.344,0,0,1,.209.316v73.255a4.812,4.812,0,1,0,9.623,0V58.213a4.841,4.841,0,0,0-3.433-4.61c-6.093-1.822-10.263-5.4-12.392-10.638-2.762-6.793-1.328-14.631,1.318-19.385a4.817,4.817,0,0,0-4.2-7.155Z" transform="translate(-66.557 -15.738)"/></g></g></svg>