<svg id="Layer_1" data-name="Layer 1" xmlns="http://www.w3.org/2000/svg" xmlns:xlink="http://www.w3.org/1999/xlink" viewBox="0 0 36.38 142.495"><defs><style>.cls-1{fill:url(#linear-gradient);}.cls-2{fill:url(#radial-gradient);}.cls-3{fill:url(#radial-gradient-2);}</style><linearGradient id="linear-gradient" x1="92.559" y1="124.545" x2="104.675" y2="124.545" gradientUnits="userSpaceOnUse"><stop offset="0" stop-color="#c46d41"/><stop offset="0.101" stop-color="#e29067"/><stop offset="0.189" stop-color="#f7a880"/><stop offset="0.241" stop-color="#ffb18a"/><stop offset="0.446" stop-color="#db875d"/><stop offset="0.596" stop-color="#c46d41"/><stop offset="1" stop-color="#4d0a0a"/></linearGradient><radialGradient id="radial-gradient" cx="-85.792" cy="428.494" r="12.94" gradientTransform="matrix(0.035, 3.654, 1.79, -0.23, -671.057, 465.416)" gradientUnits="userSpaceOnUse"><stop offset="0" stop-color="#ffb18a"/><stop offset="0.041" stop-color="#f5a67e"/><stop offset="0.175" stop-color="#db875d"/><stop offset="0.285" stop-color="#ca7448"/><stop offset="0.359" stop-color="#c46d41"/><stop offset="1" stop-color="#4d0a0a"/></radialGradient><radialGradient id="radial-gradient-2" cx="-174.021" cy="620.439" r="17.715" gradientTransform="matrix(0, 0.609, 1, 0, -526.068, 137.394)" xlink:href="#radial-gradient"/></defs><title>NTRK3</title><g id="NTRK3"><path class="cls-1" d="M98.68,169.3a6,6,0,0,1-6-6v-77.5a6,6,0,0,1,12,0v77.5A6,6,0,0,1,98.68,169.3Z" transform="translate(-80.49 -26.801)"/><path class="cls-2" d="M113.522,72.5c9.68-19.586-4.2-34.272-9.374-34.272H93.211c-5.177,0-19.054,14.686-9.374,34.272,8.614,17.43,4.2,19.458,9.374,19.458h10.937C109.325,91.955,103.843,92.083,113.522,72.5Z" transform="translate(-80.49 -26.801)"/><path class="cls-3" d="M113.522,32.513c0-3.155-4.2-5.712-9.374-5.712H93.211c-5.177,0-9.374,2.557-9.374,5.712s4.2,5.712,9.374,5.712h10.937C109.325,38.225,113.522,35.668,113.522,32.513Z" transform="translate(-80.49 -26.801)"/></g></svg>