<svg id="Layer_1" data-name="Layer 1" xmlns="http://www.w3.org/2000/svg" xmlns:xlink="http://www.w3.org/1999/xlink" viewBox="0 0 112.369 92.474"><defs><style>.cls-1{fill:url(#linear-gradient);}.cls-2{fill:url(#linear-gradient-2);}.cls-3{fill:#cc9f2f;}.cls-4{fill:url(#linear-gradient-3);}.cls-5{fill:url(#linear-gradient-4);}.cls-6{fill:url(#linear-gradient-5);}.cls-7{fill:url(#radial-gradient);}.cls-8{fill:url(#linear-gradient-6);}.cls-9{fill:url(#radial-gradient-2);}.cls-10{fill:url(#linear-gradient-7);}.cls-11{fill:url(#radial-gradient-3);}.cls-12{fill:url(#linear-gradient-8);}.cls-13{fill:url(#radial-gradient-4);}</style><linearGradient id="linear-gradient" x1="-333.483" y1="327.639" x2="-380.356" y2="327.639" gradientTransform="translate(461.977 -235.296)" gradientUnits="userSpaceOnUse"><stop offset="0.069" stop-color="#7d471d"/><stop offset="0.539" stop-color="#cc742f"/><stop offset="0.816" stop-color="#ffb276"/><stop offset="0.855" stop-color="#faac6f"/><stop offset="0.913" stop-color="#eb9a5b"/><stop offset="0.982" stop-color="#d47e3b"/><stop offset="1" stop-color="#cd7531"/></linearGradient><linearGradient id="linear-gradient-2" x1="-364.008" y1="335.811" x2="-420.22" y2="335.811" xlink:href="#linear-gradient"/><linearGradient id="linear-gradient-3" x1="-307.851" y1="338.927" x2="-364.008" y2="338.927" xlink:href="#linear-gradient"/><linearGradient id="linear-gradient-4" x1="-347.72" y1="349.483" x2="-394.588" y2="349.483" xlink:href="#linear-gradient"/><linearGradient id="linear-gradient-5" x1="-402.021" y1="300.74" x2="-344.094" y2="339.481" gradientTransform="translate(461.977 -235.296)" gradientUnits="userSpaceOnUse"><stop offset="0.258" stop-color="#cd7531"/><stop offset="0.404" stop-color="#c77230"/><stop offset="0.59" stop-color="#b8692c"/><stop offset="0.796" stop-color="#9e5a25"/><stop offset="1" stop-color="#7d471d"/></linearGradient><radialGradient id="radial-gradient" cx="-396.077" cy="415.645" r="25.815" gradientTransform="translate(461.977 -191.858) scale(1 0.65)" gradientUnits="userSpaceOnUse"><stop offset="0.3" stop-color="#7d471d"/><stop offset="0.7" stop-color="#ffb276"/></radialGradient><linearGradient id="linear-gradient-6" x1="-384.588" y1="274.681" x2="-326.662" y2="313.422" xlink:href="#linear-gradient-5"/><radialGradient id="radial-gradient-2" cx="-330.831" cy="421.08" r="25.815" gradientTransform="translate(461.977 -191.118) scale(1 0.65)" xlink:href="#radial-gradient"/><linearGradient id="linear-gradient-7" x1="-402.334" y1="298.158" x2="-344.467" y2="336.858" xlink:href="#linear-gradient-5"/><radialGradient id="radial-gradient-3" cx="-370.445" cy="433.06" r="25.815" gradientTransform="translate(461.977 -189.489) scale(1 0.65)" xlink:href="#radial-gradient"/><linearGradient id="linear-gradient-8" x1="-384.229" y1="277.325" x2="-326.362" y2="316.026" xlink:href="#linear-gradient-5"/><radialGradient id="radial-gradient-4" cx="-356.462" cy="403.709" r="25.815" gradientTransform="translate(461.977 -193.482) scale(1 0.65)" xlink:href="#radial-gradient"/></defs><title>AQP4</title><g id="AQP4"><g id="cylinders"><path class="cls-1" d="M81.621,112.739c-.12,4.623,15.932,11.9,16.347,12.121,0,0,27.288-5.541,30-10.039a3.36,3.36,0,0,0,.523-1.708V60.2l-46.873-.371Z" transform="translate(-41.757 -52.186)"/><path class="cls-2" d="M97.969,124.86S73.128,131.7,60.4,130.874c-11.133-.727-18.738-4.126-18.647-7.978V70.086l56.211,1.928Z" transform="translate(-41.757 -52.186)"/><path class="cls-3" d="M154.121,126.555" transform="translate(-41.757 -52.186)"/><path class="cls-4" d="M97.984,124.836s14.943,9.442,27.667,10.273,25.238-2.142,27.952-6.641a3.286,3.286,0,0,0,.518-1.913v-52.7L97.969,72.015V124.86" transform="translate(-41.757 -52.186)"/><path class="cls-5" d="M67.389,136.573c-.051,3.84,7.543,7.223,18.647,7.948,12.724.831,25.238-2.142,27.952-6.641a1.827,1.827,0,0,0,.268-.967V84.1l-46.868-.389Z" transform="translate(-41.757 -52.186)"/></g><g id="tops"><path class="cls-6" d="M97.969,72.015S73.128,78.859,60.4,78.028s-20.838-5.151-18.124-9.65,15.228-7.472,27.952-6.641S97.969,72.015,97.969,72.015Z" transform="translate(-41.757 -52.186)"/><path class="cls-7" d="M74.763,70.464C73.65,72.309,68.52,73.527,63.3,73.187s-8.543-2.112-7.43-3.956,6.243-3.063,11.459-2.722S75.875,68.62,74.763,70.464Z" transform="translate(-41.757 -52.186)"/><path class="cls-8" d="M153.6,75.622c-2.714,4.5-15.228,7.472-27.952,6.641S97.984,71.99,97.984,71.99s24.771-6.849,37.495-6.018S156.317,71.124,153.6,75.622Z" transform="translate(-41.757 -52.186)"/><path class="cls-9" d="M140.009,74.734c-1.113,1.844-6.243,3.063-11.459,2.722s-8.543-2.112-7.43-3.956,6.243-3.063,11.459-2.722S141.122,72.89,140.009,74.734Z" transform="translate(-41.757 -52.186)"/><path class="cls-10" d="M113.988,85.034c-2.714,4.5-15.228,7.472-27.952,6.641S65.2,86.523,67.912,82.025s30-10.039,30-10.039S116.7,80.535,113.988,85.034Z" transform="translate(-41.757 -52.186)"/><path class="cls-11" d="M100.395,84.146c-1.113,1.844-6.243,3.063-11.459,2.722s-8.543-2.112-7.43-3.956,6.243-3.063,11.459-2.722S101.507,82.3,100.395,84.146Z" transform="translate(-41.757 -52.186)"/><path class="cls-12" d="M109.847,52.325c12.724.831,20.838,5.151,18.124,9.65s-30,10.039-30,10.039c-.444-.237-18.788-8.55-16.074-13.048S97.123,51.494,109.847,52.325Z" transform="translate(-41.757 -52.186)"/><path class="cls-13" d="M114.377,61.087c-1.113,1.844-6.243,3.063-11.459,2.722s-8.543-2.112-7.43-3.956,6.243-3.063,11.459-2.722S115.49,59.243,114.377,61.087Z" transform="translate(-41.757 -52.186)"/></g></g></svg>