<svg id="Layer_1" data-name="Layer 1" xmlns="http://www.w3.org/2000/svg" xmlns:xlink="http://www.w3.org/1999/xlink" viewBox="0 0 46.379 19.792"><defs><style>.cls-1{fill:url(#linear-gradient);}.cls-2{fill:#95a551;}.cls-3{font-size:12px;fill:#fff;font-family:Arial-BoldMT, Arial;font-weight:700;}</style><linearGradient id="linear-gradient" x1="23.412" y1="18.189" x2="23.412" y2="1.266" gradientUnits="userSpaceOnUse"><stop offset="0" stop-color="#8d2106"/><stop offset="1" stop-color="#95a551"/></linearGradient></defs><title>ACTB</title><g id="ACTB"><rect class="cls-1" x="1.412" y="1.266" width="44" height="16.923" rx="8.462" ry="8.462"/><path class="cls-2" d="M113.544,108.612c-4.47-.009-8.939.43-13.409.837-4.47.458-8.939.546-13.409.613a9.871,9.871,0,0,1-10.132-9.91,9.572,9.572,0,0,1,3-6.924,9.307,9.307,0,0,1,6.877-2.51c4.47.282,8.939.437,13.409.335,4.47-.084,8.939-.574,13.409-.762a9.3,9.3,0,0,1,7.01,2.642,9.009,9.009,0,0,1,2.66,6.924,9.289,9.289,0,0,1-3.117,6.342A9.508,9.508,0,0,1,113.544,108.612Zm0-.3a7.517,7.517,0,0,0,5.745-2.653,7.593,7.593,0,0,0,1.754-5.773,8.013,8.013,0,0,0-7.758-7.1c-4.47-.188-8.939-.678-13.409-.762-4.47-.1-8.939.053-13.409.335a7.568,7.568,0,0,0-5.162,2.557,7.36,7.36,0,0,0-1.875,5.191,7.018,7.018,0,0,0,2.288,4.866,7.169,7.169,0,0,0,5.008,1.888c4.47.066,8.939.155,13.409.613C104.6,107.882,109.074,108.32,113.544,108.312Z" transform="translate(-76.593 -90.273)"/><text class="cls-3" transform="translate(6.865 12.612)">ACTB</text></g></svg>