<svg id="Layer_1" data-name="Layer 1" xmlns="http://www.w3.org/2000/svg" xmlns:xlink="http://www.w3.org/1999/xlink" viewBox="0 0 122.576 170.735"><defs><style>.cls-1{fill:url(#linear-gradient);}.cls-2{fill:url(#linear-gradient-2);}.cls-3{fill:url(#linear-gradient-3);}.cls-4{fill:url(#linear-gradient-4);}.cls-5{fill:url(#linear-gradient-5);}.cls-6{fill:url(#linear-gradient-6);}.cls-7{fill:url(#linear-gradient-7);}.cls-8{fill:url(#linear-gradient-8);}</style><linearGradient id="linear-gradient" x1="38.712" y1="112.337" x2="59.141" y2="112.337" gradientTransform="matrix(1, 0, 0, -1, 0, 202)" gradientUnits="userSpaceOnUse"><stop offset="0" stop-color="#ff91ff"/><stop offset="1" stop-color="#0a6bda"/></linearGradient><linearGradient id="linear-gradient-2" x1="59.143" y1="112.337" x2="79.572" y2="112.337" gradientTransform="matrix(1, 0, 0, -1, 0, 202)" gradientUnits="userSpaceOnUse"><stop offset="0" stop-color="#09bf6d"/><stop offset="1" stop-color="#09586d"/></linearGradient><linearGradient id="linear-gradient-3" x1="120.43" y1="112.337" x2="140.859" y2="112.337" gradientTransform="matrix(1, 0, 0, -1, 0, 202)" gradientUnits="userSpaceOnUse"><stop offset="0" stop-color="#ff9191"/><stop offset="1" stop-color="#0a6bda"/></linearGradient><linearGradient id="linear-gradient-4" x1="140.859" y1="112.337" x2="161.288" y2="112.337" xlink:href="#linear-gradient-2"/><linearGradient id="linear-gradient-5" x1="79.572" y1="63.536" x2="100.001" y2="63.536" gradientTransform="matrix(1, 0, 0, -1, 0, 202)" gradientUnits="userSpaceOnUse"><stop offset="0" stop-color="#91a9ff"/><stop offset="1" stop-color="#0a6bda"/></linearGradient><linearGradient id="linear-gradient-6" x1="100.001" y1="63.536" x2="120.43" y2="63.536" xlink:href="#linear-gradient-5"/><linearGradient id="linear-gradient-7" x1="814.555" y1="-89.664" x2="814.555" y2="-166.593" gradientTransform="matrix(1, 0, 0, -1, -725.436, -74.663)" gradientUnits="userSpaceOnUse"><stop offset="0.002" stop-color="#7000bf"/><stop offset="0.206" stop-color="#95219f"/><stop offset="0.427" stop-color="#b73e84"/><stop offset="0.639" stop-color="#cf536f"/><stop offset="0.835" stop-color="#dd6063"/><stop offset="1" stop-color="#e2645f"/></linearGradient><linearGradient id="linear-gradient-8" x1="836.32" y1="-89.664" x2="836.32" y2="-166.592" xlink:href="#linear-gradient-7"/></defs><title>R-ICO-013969</title><g id="R-ICO-013969"><g id="R-ICO-013959"><path id="CD3_Gamma_chain" class="cls-1" d="M48.927,136.566c-5.642,0-10.215-3.53-10.215-9.478V52.238c0-5.931,4.573-9.478,10.215-9.478s10.213,3.547,10.214,9.478v74.85C59.141,133.036,54.568,136.566,48.927,136.566Z" transform="translate(-38.712 -14.633)"/><path id="CD3_Epsilon_chain" class="cls-2" d="M69.357,136.566c-5.641,0-10.214-3.53-10.214-9.478V52.238c0-5.931,4.573-9.478,10.214-9.478s10.215,3.547,10.215,9.478v74.85C79.572,133.036,75,136.566,69.357,136.566Z" transform="translate(-38.712 -14.633)"/><path id="CD3_Delta_chain" class="cls-3" d="M130.644,136.566c-5.641,0-10.214-3.53-10.214-9.478V52.238c0-5.931,4.573-9.478,10.214-9.478s10.215,3.547,10.215,9.478v74.85C140.859,133.036,136.286,136.566,130.644,136.566Z" transform="translate(-38.712 -14.633)"/><path id="CD3_Epsilon_chain-2" data-name="CD3_Epsilon_chain" class="cls-4" d="M151.073,136.566c-5.641,0-10.214-3.53-10.214-9.478V52.238c0-5.931,4.573-9.478,10.214-9.478s10.215,3.547,10.215,9.478v74.85C161.288,133.036,156.716,136.566,151.073,136.566Z" transform="translate(-38.712 -14.633)"/><path id="CD3_Zeta_chain" class="cls-5" d="M89.786,185.367c-5.641,0-10.214-3.529-10.214-9.478V101.04c0-5.932,4.573-9.479,10.214-9.479S100,95.108,100,101.04v74.849C100,181.838,95.428,185.367,89.786,185.367Z" transform="translate(-38.712 -14.633)"/><path id="CD3_Zeta_chain-2" data-name="CD3_Zeta_chain" class="cls-6" d="M110.215,185.367c-5.641,0-10.214-3.529-10.214-9.478V101.04c0-5.932,4.573-9.479,10.214-9.479s10.215,3.547,10.215,9.479v74.849C120.43,181.838,115.857,185.367,110.215,185.367Z" transform="translate(-38.712 -14.633)"/></g><g id="R-ICO-013967"><path id="Beta" class="cls-7" d="M81.15,14.633h0a1.577,1.577,0,0,0-1.578,1.578V89.978a1.578,1.578,0,0,0,1.577,1.578l15.939.005a1.577,1.577,0,0,0,1.578-1.578V30.37a1.582,1.582,0,0,0-1.376-1.562c-7.4-1.036-13.273-6.241-14.59-12.879A1.587,1.587,0,0,0,81.15,14.633Z" transform="translate(-38.712 -14.633)"/><path id="Alpha" class="cls-8" d="M101.338,30.369V89.982a1.578,1.578,0,0,0,1.579,1.578l15.935,0a1.578,1.578,0,0,0,1.578-1.578V16.211a1.578,1.578,0,0,0-1.578-1.578h0a1.589,1.589,0,0,0-1.551,1.3c-1.317,6.637-7.189,11.842-14.587,12.878A1.582,1.582,0,0,0,101.338,30.369Z" transform="translate(-38.712 -14.633)"/></g></g></svg>