<svg id="Layer_1" data-name="Layer 1" xmlns="http://www.w3.org/2000/svg" xmlns:xlink="http://www.w3.org/1999/xlink" viewBox="0 0 125.907 32.949"><defs><style>.cls-1{fill:url(#linear-gradient);}.cls-2{fill:#0052af;}.cls-3{font-size:12px;fill:#fff;font-family:Arial-BoldMT, Arial;font-weight:700;}.cls-4{letter-spacing:-0.037em;}.cls-5{letter-spacing:-0.074em;}.cls-6{letter-spacing:-0.02em;}</style><linearGradient id="linear-gradient" x1="63.298" y1="31.347" x2="63.298" y2="1.347" gradientUnits="userSpaceOnUse"><stop offset="0" stop-color="#06a2b2"/><stop offset="1" stop-color="#ff7267"/></linearGradient></defs><title>R-ICO-013630</title><g id="DNA_METHYLATION_PROTEIN" data-name="DNA METHYLATION PROTEIN"><rect class="cls-1" x="1.298" y="1.347" width="124" height="30" rx="10" ry="10"/><path class="cls-2" d="M152,115.15c-12.116-.011-24.231.447-36.347.837-12.116.458-24.231.546-36.347.613-6.058,0-12.116.019-18.173-.037l-9.087-.076-2.272-.019-1.136-.01c-.369,0-.754,0-1.207-.037a11.357,11.357,0,0,1-10.6-9.656,8.036,8.036,0,0,1-.111-1.28c-.024-.448-.012-.813-.006-1.192l.033-2.272.067-4.543.033-2.272c0-.374.045-.83.069-1.24.05-.418.127-.835.2-1.248a11.21,11.21,0,0,1,2.2-4.477A10.976,10.976,0,0,1,48,84.179c12.116.261,24.231.449,36.347.335,6.058-.049,12.116-.194,18.173-.349l18.173-.413c6.058-.085,12.116-.131,18.173-.071q4.543.022,9.087.128c1.538.043,2.976.028,4.6.135a10.871,10.871,0,0,1,9.968,9.393,35.51,35.51,0,0,1,.008,4.639l-.135,4.543-.068,2.272c-.011.378-.048.777-.071,1.163-.048.387-.121.771-.192,1.153a10.413,10.413,0,0,1-2.024,4.147A10.284,10.284,0,0,1,152,115.15Zm0-.3A9.821,9.821,0,0,0,159.714,111a9.925,9.925,0,0,0,1.795-4.011,21.2,21.2,0,0,0,.1-4.471l-.135-4.543a35.248,35.248,0,0,0-.262-4.432,9.243,9.243,0,0,0-4.841-6.467,8.893,8.893,0,0,0-3.927-.971c-.648-.027-1.484.039-2.217.039l-2.272.045q-4.543.108-9.087.128c-6.058.061-12.116.015-18.173-.071l-18.173-.413c-6.058-.155-12.116-.3-18.173-.349-12.116-.114-24.231.074-36.347.335a9.088,9.088,0,0,0-8.686,7.361c-.047.332-.1.664-.132,1,0,.347-.033.646-.026,1.029l.033,2.272.067,4.543a35.117,35.117,0,0,0,.185,4.329,8.752,8.752,0,0,0,4.416,6.16,8.48,8.48,0,0,0,3.717,1.016c.3.02.675.021,1.063.014l1.136-.01,2.272-.019,9.087-.076c6.058-.056,12.116-.036,18.173-.037,12.116.066,24.231.155,36.347.613C127.769,114.4,139.884,114.861,152,114.85Z" transform="translate(-36.702 -83.653)"/><text class="cls-3" transform="translate(5.378 11.832)">DN<tspan class="cls-4" x="17.332" y="0">A</tspan><tspan x="25.553" y="0" xml:space="preserve"> METHYL</tspan><tspan class="cls-5" x="78.217" y="0">A</tspan><tspan x="85.992" y="0">TION</tspan><tspan x="30.779" y="14.4">PROTEI</tspan><tspan class="cls-6" x="75.451" y="14.4">N</tspan></text></g></svg>