<svg id="Layer_1" data-name="Layer 1" xmlns="http://www.w3.org/2000/svg" viewBox="0 0 22.945 168.275"><defs><style>.cls-1{fill:none;stroke:#a53a2f;stroke-miterlimit:10;stroke-width:2px;}.cls-2{fill:#a53a2f;}.cls-3{fill:#748c33;}</style></defs><title>scavenger_receptor_class_D</title><g id="CLASS_D" data-name="CLASS D"><line class="cls-1" x1="11.342" y1="81.388" x2="11.342" y2="168.275"/><rect id="BOTTOM" class="cls-2" x="43.945" y="62.538" width="112" height="20" rx="10" ry="10" transform="translate(-61.196 156.334) rotate(-90)"/><rect id="EGF" class="cls-3" x="85.945" y="104.538" width="28" height="20" rx="10" ry="10" transform="translate(-103.196 198.333) rotate(-90)"/><rect id="EGF-2" data-name="EGF" class="cls-3" x="85.945" y="76.538" width="28" height="20" rx="10" ry="10" transform="translate(-75.196 170.333) rotate(-90)"/><rect id="EGF-3" data-name="EGF" class="cls-3" x="85.945" y="48.538" width="28" height="20" rx="10" ry="10" transform="translate(-47.196 142.333) rotate(-90)"/><rect id="EGF-4" data-name="EGF" class="cls-3" x="85.945" y="20.538" width="28" height="20" rx="10" ry="10" transform="translate(-19.196 114.333) rotate(-90)"/><g id="TOP"><path class="cls-2" d="M110.1,26.538c-.009,10.282.43,20.565.837,30.847.458,10.282.546,20.565.613,30.847,0,5.141.019,10.282-.037,15.423l-.076,7.712-.038,3.856-.019,1.928c-.015.665.01,1.228-.049,2a11.26,11.26,0,0,1-11.684,10.559,10.985,10.985,0,0,1-10.519-11.176c.261-10.282.449-20.565.335-30.847-.049-5.141-.194-10.282-.349-15.423L88.7,56.844c-.169-10.3-.138-20.515.336-30.9a10.754,10.754,0,0,1,3.7-7.227,10.632,10.632,0,0,1,7.488-2.553,10.424,10.424,0,0,1,7.02,3.265A10.271,10.271,0,0,1,110.1,26.538Zm-.3,0a9.763,9.763,0,0,0-2.844-6.819,9.493,9.493,0,0,0-6.747-2.782,9.319,9.319,0,0,0-6.577,2.749,9.2,9.2,0,0,0-2.715,6.363c.364,10.179.474,20.536.281,30.8L90.78,72.268c-.155,5.141-.3,10.282-.349,15.423-.114,10.282.074,20.565.335,30.847a9.065,9.065,0,0,0,8.941,8.8,8.776,8.776,0,0,0,8.8-8.333c.038-.507.005-1.231.006-1.851l-.019-1.928-.038-3.856-.076-7.712c-.056-5.141-.036-10.282-.037-15.423.066-10.282.155-20.565.613-30.847C109.365,47.1,109.8,36.82,109.8,26.538Z" transform="translate(-88.603 -16.15)"/></g></g></svg>