<svg id="Layer_1" data-name="Layer 1" xmlns="http://www.w3.org/2000/svg" viewBox="0 0 68.431 88.31"><defs><style>.cls-1{fill:#ae202c;}.cls-2{fill:#f18477;}.cls-3{fill:#ed655d;}.cls-4{fill:#e9948f;}.cls-5{fill:#d4606d;}.cls-6{fill:#fbd6d0;}.cls-7{fill:#f2918f;}.cls-8{fill:#d6680d;}.cls-9{fill:#fbada1;}</style></defs><title>male_reproductive_system</title><g id="MALE_REPRODUCTIVE_SYSTEM"><path id="PENIS" class="cls-1" d="M95.835,143.66c-1.693-.868-3.082-2.477-4.949-5.152-3.157-4.525,0-6.524,0-8.945s-.21-19.047-.21-21.047-.526-3.052-.526-4.841c0-1.24,1.417-2.886,4.6-3.778a19.469,19.469,0,0,1,9.917,0c3.184.892,4.6,2.537,4.6,3.778,0,1.789-.526,2.841-.526,4.841s-.21,18.626-.21,21.047,3.157,4.42,0,8.945c-1.867,2.676-3.255,4.284-4.949,5.152A10.5,10.5,0,0,1,95.835,143.66Z" transform="translate(-65.569 -56.091)"/><path id="CRUS_OF_PENIS" class="cls-2" d="M109.11,90.127c1.736,0,2.052,5.525-3.157,14.364s-3.948-5.84-2.368-5.84C107.768,98.651,107.452,90.127,109.11,90.127Z" transform="translate(-65.569 -56.091)"/><path id="CRUS_OF_PENIS-2" data-name="CRUS_OF_PENIS" class="cls-2" d="M90.842,90.127c-1.736,0-2.052,5.525,3.157,14.364s3.948-5.84,2.368-5.84C92.183,98.651,92.5,90.127,90.842,90.127Z" transform="translate(-65.569 -56.091)"/><path class="cls-3" d="M102.765,142.8c1.38,0,5.766-4.083,5.45-10.4s.631-26.2-1.894-29.781-3.262-6.209-3.157-8.84,1.894-1.368,1.052-3.262-2.058-2.724-2.848-.093-.2,11.142-.2,17.877c0,6.314,0,29.571,0,32.412C101.165,141.684,101.384,142.8,102.765,142.8Z" transform="translate(-65.569 -56.091)"/><path class="cls-3" d="M96.55,142.8c-1.38,0-5.766-4.083-5.45-10.4s-.631-26.2,1.894-29.781,3.262-6.209,3.157-8.84-1.894-1.368-1.052-3.262,2.166-2.763,2.955-.132.1,11.182.1,17.917c0,6.314,0,29.571,0,32.412C98.15,141.684,97.93,142.8,96.55,142.8Z" transform="translate(-65.569 -56.091)"/><path class="cls-4" d="M105.442,134.162c2.3,0,1.679-9.218,1.679-16.193,0-7.336-1.085-12.506-.609-14.823s2.124-4.754.616-5.467-3.291,2.971-3.291,9.449S102.352,134.162,105.442,134.162Z" transform="translate(-65.569 -56.091)"/><path class="cls-4" d="M94.319,134.162c-2.3,0-1.679-9.218-1.679-16.193,0-7.336,1.085-12.506.609-14.823s-2.124-4.754-.616-5.467,3.291,2.971,3.291,9.449S97.409,134.162,94.319,134.162Z" transform="translate(-65.569 -56.091)"/><path id="SEMINAL_VESICLE" class="cls-5" d="M92.259,74.914c-3.734-2.537-7.889-4.547-7.925-8.379-.045-4.715,5.023-3.21,10.313-1.211,1.72.65,7.626.764,9.108.174,5.521-2.2,11.12-3.894,11.073,1.037-.034,3.521-3.537,5.572-6.913,7.953C105.061,76.5,94.843,76.67,92.259,74.914Z" transform="translate(-65.569 -56.091)"/><path id="PROSTATE_GLAND" class="cls-6" d="M99.866,86.59c3.749,0,21.306-13.331,0-13.331S96.117,86.59,99.866,86.59Z" transform="translate(-65.569 -56.091)"/><path id="URETHRA" class="cls-7" d="M97.814,74.813V144.22a10.2,10.2,0,0,0,3.788,0V74.845c0-.479-.574-.479-.574-.479H98.306S97.814,74.367,97.814,74.813Z" transform="translate(-65.569 -56.091)"/><path id="TESTIS" class="cls-8" d="M115.17,126.139c.114,4,.014,12.881,10.769,13.137s.574-23.653-6.231-21.118C115.552,119.706,115.063,122.371,115.17,126.139Z" transform="translate(-65.569 -56.091)"/><path id="TESTIS-2" data-name="TESTIS" class="cls-8" d="M84.631,126.139c-.114,4-.014,12.881-10.769,13.137s-.574-23.653,6.231-21.118C84.25,119.706,84.739,122.371,84.631,126.139Z" transform="translate(-65.569 -56.091)"/><path id="VAS_DEFERENS" class="cls-9" d="M133.865,130.472c.439-3.179-1.6-7.68-4.452-13.9l-.461-1.006c-3.966-8.652-5.49-16.071-4.8-23.347a67.9,67.9,0,0,1,1.532-7.789c2.212-9.53,5.241-22.587-3.192-26.469-5.466-2.516-11.106-2.491-15.482.064-3.4,1.993-7.616,6.4-8.4,16.135a1.262,1.262,0,0,0,1.157,1.361,1.237,1.237,0,0,0,1.359-1.154c.555-6.847,3.031-11.745,7.162-14.162,3.65-2.126,8.445-2.116,13.151.054,6.563,3.019,3.914,14.428,1.786,23.6a68.583,68.583,0,0,0-1.586,8.124c-.733,7.735.861,15.563,5.022,24.639l.459,1c.853,1.856,1.654,3.619,2.345,5.256-7.339-8.219-11.657-9.275-13.969-2.049-1.263,3.946,5.331-6.09,9.909,3.224s-.815,10.2,4.14,13.351C130.8,138.2,134.778,135.5,133.865,130.472Z" transform="translate(-65.569 -56.091)"/><path id="VAS_DEFERENS-2" data-name="VAS_DEFERENS" class="cls-9" d="M65.7,130.472c-.439-3.179,1.6-7.68,4.452-13.9l.461-1.006c3.966-8.652,5.49-16.071,4.8-23.347a67.9,67.9,0,0,0-1.532-7.789c-2.212-9.53-5.241-22.587,3.192-26.469,5.466-2.516,11.106-2.491,15.482.064,3.4,1.993,7.616,6.4,8.4,16.135A1.262,1.262,0,0,1,99.8,75.521a1.237,1.237,0,0,1-1.359-1.154C97.89,67.52,95.414,62.622,91.283,60.2c-3.65-2.126-8.445-2.116-13.151.054-6.563,3.019-3.914,14.428-1.786,23.6a68.583,68.583,0,0,1,1.586,8.124c.733,7.735-.861,15.563-5.022,24.639l-.459,1c-.853,1.856-1.654,3.619-2.345,5.256,7.339-8.219,11.657-9.275,13.969-2.049,1.263,3.946-5.331-6.09-9.909,3.224s.815,10.2-4.14,13.351C68.767,138.2,64.792,135.5,65.7,130.472Z" transform="translate(-65.569 -56.091)"/></g></svg>