<svg id="Layer_1" data-name="Layer 1" xmlns="http://www.w3.org/2000/svg" xmlns:xlink="http://www.w3.org/1999/xlink" viewBox="0 0 66.92 116.248"><defs><style>.cls-1{fill:none;stroke-linecap:round;stroke-linejoin:round;stroke-width:7px;stroke:url(#linear-gradient);}.cls-2{fill:url(#linear-gradient-2);}.cls-3{fill:url(#linear-gradient-3);}.cls-4{fill:url(#linear-gradient-4);}.cls-5{fill:url(#linear-gradient-5);}</style><linearGradient id="linear-gradient" x1="101.988" y1="97.048" x2="128.495" y2="97.048" gradientUnits="userSpaceOnUse"><stop offset="0" stop-color="#52874a"/><stop offset="1" stop-color="#222f3d"/></linearGradient><linearGradient id="linear-gradient-2" x1="58.411" y1="87.322" x2="58.411" y2="116.248" xlink:href="#linear-gradient"/><linearGradient id="linear-gradient-3" x1="58.411" y1="58.395" x2="58.411" y2="87.322" xlink:href="#linear-gradient"/><linearGradient id="linear-gradient-4" x1="99.924" y1="62.33" x2="99.924" y2="88.191" gradientTransform="translate(82.484 -48.614) rotate(45)" xlink:href="#linear-gradient"/><linearGradient id="linear-gradient-5" x1="79.47" y1="41.876" x2="79.47" y2="67.737" gradientTransform="translate(62.03 -40.142) rotate(45)" xlink:href="#linear-gradient"/></defs><title>R-ICO-013946</title><g id="R-ICO-013946"><path class="cls-1" d="M105.488,79.362l13.854,13.854A19.306,19.306,0,0,1,125,106.974l-.044,7.761" transform="translate(-66.54 -41.876)"/><rect class="cls-2" x="49.902" y="87.322" width="17.019" height="28.926" rx="8"/><rect class="cls-3" x="49.902" y="58.395" width="17.019" height="28.926" rx="8"/><rect class="cls-4" x="91.415" y="60.797" width="17.019" height="28.926" rx="8" transform="translate(-90.49 50.825) rotate(-45)"/><rect class="cls-5" x="70.961" y="40.343" width="17.019" height="28.926" rx="8" transform="translate(-82.017 30.37) rotate(-45)"/></g></svg>