<svg id="Layer_1" data-name="Layer 1" xmlns="http://www.w3.org/2000/svg" xmlns:xlink="http://www.w3.org/1999/xlink" viewBox="0 0 29.686 157.757"><defs><style>.cls-1{fill:url(#linear-gradient);}.cls-2{fill:url(#radial-gradient);}.cls-3{fill:url(#radial-gradient-2);}.cls-4{fill:url(#radial-gradient-3);}.cls-5{fill:url(#radial-gradient-4);}.cls-6{fill:url(#radial-gradient-5);}.cls-7{fill:url(#radial-gradient-6);}.cls-8{fill:url(#radial-gradient-7);}</style><linearGradient id="linear-gradient" x1="91.891" y1="132.134" x2="104.006" y2="132.134" gradientUnits="userSpaceOnUse"><stop offset="0" stop-color="#41a0c4"/><stop offset="0.101" stop-color="#67c0e2"/><stop offset="0.189" stop-color="#80d7f7"/><stop offset="0.241" stop-color="#8adfff"/><stop offset="0.446" stop-color="#5db8db"/><stop offset="0.596" stop-color="#41a0c4"/><stop offset="1" stop-color="#0a3a4d"/></linearGradient><radialGradient id="radial-gradient" cx="-11.789" cy="619.77" r="17.715" gradientTransform="translate(-526.068 18.81) rotate(-90) scale(0.609 1)" gradientUnits="userSpaceOnUse"><stop offset="0" stop-color="#8adfff"/><stop offset="0.041" stop-color="#7ed5f5"/><stop offset="0.175" stop-color="#5db8db"/><stop offset="0.285" stop-color="#48a6ca"/><stop offset="0.359" stop-color="#41a0c4"/><stop offset="1" stop-color="#0a3a4d"/></radialGradient><radialGradient id="radial-gradient-2" cx="-30.538" cy="619.77" r="17.715" xlink:href="#radial-gradient"/><radialGradient id="radial-gradient-3" cx="-49.286" cy="619.77" r="17.715" xlink:href="#radial-gradient"/><radialGradient id="radial-gradient-4" cx="-68.035" cy="619.77" r="17.715" xlink:href="#radial-gradient"/><radialGradient id="radial-gradient-5" cx="-86.784" cy="619.77" r="17.715" xlink:href="#radial-gradient"/><radialGradient id="radial-gradient-6" cx="-105.532" cy="619.77" r="17.715" xlink:href="#radial-gradient"/><radialGradient id="radial-gradient-7" cx="-124.281" cy="619.77" r="17.715" xlink:href="#radial-gradient"/></defs><title>LRRTM</title><g id="LRRTM"><path class="cls-1" d="M98.011,176.885a6,6,0,0,1-6-6v-77.5a6,6,0,1,1,12,0v77.5A6,6,0,0,1,98.011,176.885Z" transform="translate(-83.168 -19.127)"/><path class="cls-2" d="M112.853,24.839c0,3.155-4.2,5.712-9.374,5.712H92.542c-5.177,0-9.374-2.557-9.374-5.712s4.2-5.712,9.374-5.712h10.937C108.656,19.127,112.853,21.684,112.853,24.839Z" transform="translate(-83.168 -19.127)"/><path class="cls-3" d="M112.853,36.263c0,3.155-4.2,5.712-9.374,5.712H92.542c-5.177,0-9.374-2.557-9.374-5.712s4.2-5.712,9.374-5.712h10.937C108.656,30.551,112.853,33.108,112.853,36.263Z" transform="translate(-83.168 -19.127)"/><path class="cls-4" d="M112.853,47.687c0,3.155-4.2,5.712-9.374,5.712H92.542c-5.177,0-9.374-2.557-9.374-5.712s4.2-5.712,9.374-5.712h10.937C108.656,41.975,112.853,44.532,112.853,47.687Z" transform="translate(-83.168 -19.127)"/><path class="cls-5" d="M112.853,59.111c0,3.155-4.2,5.712-9.374,5.712H92.542c-5.177,0-9.374-2.557-9.374-5.712s4.2-5.712,9.374-5.712h10.937C108.656,53.4,112.853,55.956,112.853,59.111Z" transform="translate(-83.168 -19.127)"/><path class="cls-6" d="M112.853,70.535c0,3.155-4.2,5.712-9.374,5.712H92.542c-5.177,0-9.374-2.557-9.374-5.712s4.2-5.712,9.374-5.712h10.937C108.656,64.823,112.853,67.38,112.853,70.535Z" transform="translate(-83.168 -19.127)"/><path class="cls-7" d="M112.853,81.959c0,3.155-4.2,5.712-9.374,5.712H92.542c-5.177,0-9.374-2.557-9.374-5.712s4.2-5.712,9.374-5.712h10.937C108.656,76.247,112.853,78.8,112.853,81.959Z" transform="translate(-83.168 -19.127)"/><path class="cls-8" d="M112.853,93.383c0,3.155-4.2,5.712-9.374,5.712H92.542c-5.177,0-9.374-2.557-9.374-5.712s4.2-5.712,9.374-5.712h10.937C108.656,87.671,112.853,90.228,112.853,93.383Z" transform="translate(-83.168 -19.127)"/></g></svg>