<svg id="Layer_1" data-name="Layer 1" xmlns="http://www.w3.org/2000/svg" xmlns:xlink="http://www.w3.org/1999/xlink" viewBox="0 0 31.46 31.46"><defs><style>.cls-1{fill:url(#radial-gradient);}.cls-2{fill:url(#radial-gradient-2);}.cls-3{fill:url(#radial-gradient-3);}.cls-4{fill:url(#radial-gradient-4);}.cls-5{fill:url(#radial-gradient-5);}.cls-6{fill:url(#radial-gradient-6);}.cls-7{fill:url(#radial-gradient-7);}.cls-8{fill:url(#radial-gradient-8);}.cls-9{fill:url(#radial-gradient-9);}.cls-10{fill:url(#radial-gradient-10);}.cls-11{fill:url(#radial-gradient-11);}.cls-12{fill:url(#radial-gradient-12);}.cls-13{fill:url(#radial-gradient-13);}.cls-14{fill:url(#radial-gradient-14);}.cls-15{fill:url(#radial-gradient-15);}.cls-16{fill:url(#radial-gradient-16);}.cls-17{fill:url(#radial-gradient-17);}.cls-18{fill:url(#radial-gradient-18);}.cls-19{fill:url(#radial-gradient-19);}.cls-20{fill:url(#radial-gradient-20);}.cls-21{fill:url(#radial-gradient-21);}.cls-22{fill:url(#radial-gradient-22);}.cls-23{fill:url(#radial-gradient-23);}.cls-24{fill:url(#radial-gradient-24);}.cls-25{fill:url(#radial-gradient-25);}.cls-26{fill:url(#radial-gradient-26);}.cls-27{fill:url(#radial-gradient-27);}.cls-28{fill:url(#radial-gradient-28);}.cls-29{fill:url(#radial-gradient-29);}.cls-30{fill:url(#radial-gradient-30);}.cls-31{fill:url(#radial-gradient-31);}.cls-32{fill:url(#radial-gradient-32);}.cls-33{fill:url(#radial-gradient-33);}.cls-34{fill:url(#radial-gradient-34);}.cls-35{fill:url(#radial-gradient-35);}.cls-36{fill:url(#radial-gradient-36);}.cls-37{fill:url(#radial-gradient-37);}.cls-38{fill:url(#radial-gradient-38);}.cls-39{fill:url(#radial-gradient-39);}</style><radialGradient id="radial-gradient" cx="12.827" cy="8.957" r="15.73" gradientUnits="userSpaceOnUse"><stop offset="0" stop-color="#ffe7c4"/><stop offset="1" stop-color="#cc924a"/></radialGradient><radialGradient id="radial-gradient-2" cx="176.736" cy="226.336" r="2.467" gradientTransform="translate(-212.208 -356.982) scale(1.817 1.97)" gradientUnits="userSpaceOnUse"><stop offset="0" stop-color="#9affa6"/><stop offset="1" stop-color="#20802b"/></radialGradient><radialGradient id="radial-gradient-3" cx="20.389" cy="24.49" r="2.824" xlink:href="#radial-gradient"/><radialGradient id="radial-gradient-4" cx="16.031" cy="25.64" r="2.824" gradientUnits="userSpaceOnUse"><stop offset="0" stop-color="#deb8ff"/><stop offset="1" stop-color="#8f35d9"/></radialGradient><radialGradient id="radial-gradient-5" cx="11.936" cy="25.124" r="2.824" xlink:href="#radial-gradient"/><radialGradient id="radial-gradient-6" cx="8.715" cy="23.498" r="2.824" xlink:href="#radial-gradient"/><radialGradient id="radial-gradient-7" cx="6.317" cy="21.369" r="2.824" xlink:href="#radial-gradient-4"/><radialGradient id="radial-gradient-8" cx="4.345" cy="18.298" r="2.824" xlink:href="#radial-gradient"/><radialGradient id="radial-gradient-9" cx="3.493" cy="13.847" r="2.824" xlink:href="#radial-gradient"/><radialGradient id="radial-gradient-10" cx="4.345" cy="9.585" r="2.824" xlink:href="#radial-gradient-4"/><radialGradient id="radial-gradient-11" cx="6.738" cy="5.785" r="2.824" xlink:href="#radial-gradient"/><radialGradient id="radial-gradient-12" cx="9.561" cy="3.395" r="2.824" xlink:href="#radial-gradient"/><radialGradient id="radial-gradient-13" cx="13.362" cy="2.054" r="2.824" xlink:href="#radial-gradient"/><radialGradient id="radial-gradient-14" cx="17.211" cy="2.261" r="2.824" xlink:href="#radial-gradient-4"/><radialGradient id="radial-gradient-15" cx="20.954" cy="3.699" r="2.824" xlink:href="#radial-gradient"/><radialGradient id="radial-gradient-16" cx="24.178" cy="6.219" r="2.824" xlink:href="#radial-gradient-4"/><radialGradient id="radial-gradient-17" cx="26.259" cy="9.843" r="2.824" xlink:href="#radial-gradient"/><radialGradient id="radial-gradient-18" cx="27.002" cy="13.847" r="2.824" xlink:href="#radial-gradient-4"/><radialGradient id="radial-gradient-19" cx="26.259" cy="17.851" r="2.824" xlink:href="#radial-gradient"/><radialGradient id="radial-gradient-20" cx="23.777" cy="21.997" r="2.824" xlink:href="#radial-gradient-4"/><radialGradient id="radial-gradient-21" cx="18.855" cy="21.122" r="2.824" xlink:href="#radial-gradient"/><radialGradient id="radial-gradient-22" cx="14.76" cy="21.997" r="2.824" xlink:href="#radial-gradient"/><radialGradient id="radial-gradient-23" cx="10.557" cy="21.369" r="2.824" xlink:href="#radial-gradient"/><radialGradient id="radial-gradient-24" cx="93.307" cy="100.423" r="4.035" gradientUnits="userSpaceOnUse"><stop offset="0" stop-color="#9affec"/><stop offset="1" stop-color="#358ad9"/></radialGradient><radialGradient id="radial-gradient-25" cx="6.317" cy="13.847" r="2.824" xlink:href="#radial-gradient"/><radialGradient id="radial-gradient-26" cx="8.151" cy="9.843" r="2.824" xlink:href="#radial-gradient"/><radialGradient id="radial-gradient-27" cx="11.32" cy="6.523" r="2.824" xlink:href="#radial-gradient-4"/><radialGradient id="radial-gradient-28" cx="15.761" cy="5.557" r="2.824" xlink:href="#radial-gradient"/><radialGradient id="radial-gradient-29" cx="20.389" cy="6.761" r="2.824" xlink:href="#radial-gradient"/><radialGradient id="radial-gradient-30" cx="22.704" cy="10.182" r="2.824" xlink:href="#radial-gradient"/><radialGradient id="radial-gradient-31" cx="23.777" cy="14.517" r="2.824" xlink:href="#radial-gradient-4"/><radialGradient id="radial-gradient-32" cx="21.882" cy="18.298" r="2.824" xlink:href="#radial-gradient"/><radialGradient id="radial-gradient-33" cx="17.211" cy="17.851" r="2.824" xlink:href="#radial-gradient-4"/><radialGradient id="radial-gradient-34" cx="12.54" cy="17.851" r="2.824" xlink:href="#radial-gradient"/><radialGradient id="radial-gradient-35" cx="10.538" cy="13.847" r="2.824" xlink:href="#radial-gradient-4"/><radialGradient id="radial-gradient-36" cx="13.207" cy="9.843" r="2.824" xlink:href="#radial-gradient"/><radialGradient id="radial-gradient-37" cx="17.878" cy="9.843" r="2.824" xlink:href="#radial-gradient-4"/><radialGradient id="radial-gradient-38" cx="19.88" cy="13.847" r="2.824" xlink:href="#radial-gradient"/><radialGradient id="radial-gradient-39" cx="15.209" cy="13.847" r="2.824" xlink:href="#radial-gradient"/></defs><title>VLDL_remanent</title><g id="VLDL_remanent"><circle class="cls-1" cx="15.73" cy="15.73" r="15.73"/><path class="cls-2" d="M113.859,91.235c0-1.536-3.7-5.455-6.16-5.161-1.406.168-2.311,3.076-2.311,4.612s3.556,5.443,4.973,5.443S113.859,92.771,113.859,91.235Z" transform="translate(-84.986 -83.891)"/><circle class="cls-3" cx="20.91" cy="25.706" r="2.824"/><circle class="cls-4" cx="16.552" cy="26.856" r="2.824"/><circle class="cls-5" cx="12.457" cy="26.34" r="2.824"/><circle class="cls-6" cx="9.236" cy="24.714" r="2.824"/><circle class="cls-7" cx="6.838" cy="22.585" r="2.824"/><circle class="cls-8" cx="4.867" cy="19.514" r="2.824"/><circle class="cls-9" cx="4.014" cy="15.063" r="2.824"/><circle class="cls-10" cx="4.867" cy="10.801" r="2.824"/><circle class="cls-11" cx="7.259" cy="7.001" r="2.824"/><circle class="cls-12" cx="10.083" cy="4.611" r="2.824"/><circle class="cls-13" cx="13.883" cy="3.27" r="2.824"/><circle class="cls-14" cx="17.732" cy="3.477" r="2.824"/><circle class="cls-15" cx="21.475" cy="4.915" r="2.824"/><circle class="cls-16" cx="24.699" cy="7.435" r="2.824"/><circle class="cls-17" cx="26.78" cy="11.059" r="2.824"/><circle class="cls-18" cx="27.523" cy="15.063" r="2.824"/><circle class="cls-19" cx="26.78" cy="19.067" r="2.824"/><circle class="cls-20" cx="24.298" cy="23.213" r="2.824"/><circle class="cls-21" cx="19.376" cy="22.338" r="2.824"/><circle class="cls-22" cx="15.281" cy="23.213" r="2.824"/><circle class="cls-23" cx="11.078" cy="22.585" r="2.824"/><path class="cls-24" d="M98.047,102.6c0-1.443-3.926-4.483-5.369-4.483s-2.831,3.056-2.613,4.483a4.436,4.436,0,0,0,4.81,3.605A4.39,4.39,0,0,0,98.047,102.6Z" transform="translate(-84.986 -83.891)"/><circle class="cls-25" cx="6.838" cy="15.063" r="2.824"/><circle class="cls-26" cx="8.672" cy="11.059" r="2.824"/><circle class="cls-27" cx="11.841" cy="7.739" r="2.824"/><circle class="cls-28" cx="16.282" cy="6.773" r="2.824"/><circle class="cls-29" cx="20.91" cy="7.977" r="2.824"/><circle class="cls-30" cx="23.225" cy="11.398" r="2.824"/><circle class="cls-31" cx="24.298" cy="15.733" r="2.824"/><circle class="cls-32" cx="22.403" cy="19.514" r="2.824"/><circle class="cls-33" cx="17.732" cy="19.067" r="2.824"/><circle class="cls-34" cx="13.061" cy="19.067" r="2.824"/><circle class="cls-35" cx="11.059" cy="15.063" r="2.824"/><circle class="cls-36" cx="13.728" cy="11.059" r="2.824"/><circle class="cls-37" cx="18.399" cy="11.059" r="2.824"/><circle class="cls-38" cx="20.401" cy="15.063" r="2.824"/><circle class="cls-39" cx="15.73" cy="15.063" r="2.824"/></g></svg>