<svg id="Layer_1" data-name="Layer 1" xmlns="http://www.w3.org/2000/svg" viewBox="0 0 98.128 100.586"><defs><style>.cls-1{fill:#ce5a36;}</style></defs><title>SFTPA1</title><path class="cls-1" d="M93.874,143.247a5,5,0,0,1-5-5V76.991c0-10.761-6.506-19.635-6.572-19.722a5,5,0,1,1,7.966-6.045c.352.463,8.606,11.5,8.606,25.767v61.256A5,5,0,0,1,93.874,143.247Z" transform="translate(-50.908 -42.661)"/><path class="cls-1" d="M81.677,143.247a5,5,0,0,1-5-5V92.98c0-11.5-8.966-15.541-9.057-15.58a5,5,0,0,1,3.991-9.17A26.919,26.919,0,0,1,86.677,92.98v45.268A5,5,0,0,1,81.677,143.247Z" transform="translate(-50.908 -42.661)"/><path class="cls-1" d="M69.479,143.247a5,5,0,0,1-5-5V108.968a2.574,2.574,0,0,0-.514-1.874,4.375,4.375,0,0,0-2.539-.723,5,5,0,0,1-.7-9.977c.612-.041,6.092-.312,10.057,3.386a12.072,12.072,0,0,1,3.694,9.187v29.279A5,5,0,0,1,69.479,143.247Z" transform="translate(-50.908 -42.661)"/><path class="cls-1" d="M86.841,60.289a4.98,4.98,0,0,1-1.294-.171l-7.473-2a5,5,0,0,1-3.046-2.343,5.456,5.456,0,0,1,.093-5.51c1.822-3.135,9.619-7.607,13.257-7.607h.014a5.457,5.457,0,0,1,4.8,2.7,5,5,0,0,1,.488,3.8L91.664,56.6A5,5,0,0,1,86.841,60.289Z" transform="translate(-50.908 -42.661)"/><path class="cls-1" d="M63.184,80.059a5,5,0,0,1-2.686-.782,5.459,5.459,0,0,1-2.478-4.923c.158-3.629,5-11.226,8.216-12.9a5.461,5.461,0,0,1,5.508.163,5,5,0,0,1,2.2,3.134l1.67,7.521a5,5,0,0,1-3.779,5.961l-7.545,1.706A5.024,5.024,0,0,1,63.184,80.059Z" transform="translate(-50.908 -42.661)"/><path class="cls-1" d="M56.987,111.844H56.97c-6.1-.021-6.07-7.9-6.061-10.49a27.685,27.685,0,0,1,.367-4.636c.952-5.239,4.321-5.813,5.747-5.813h.018a5,5,0,0,1,3.531,1.477L66,97.848a5,5,0,0,1-.01,7.058l-5.467,5.473A5,5,0,0,1,56.987,111.844Z" transform="translate(-50.908 -42.661)"/><path class="cls-1" d="M106.071,143.247a5,5,0,0,0,5-5V76.991c0-10.761,6.506-19.635,6.572-19.722a5,5,0,1,0-7.966-6.045c-.352.463-8.606,11.5-8.606,25.767v61.256A5,5,0,0,0,106.071,143.247Z" transform="translate(-50.908 -42.661)"/><path class="cls-1" d="M118.268,143.247a5,5,0,0,0,5-5V92.98c0-11.5,8.966-15.541,9.057-15.58a5,5,0,0,0-3.991-9.17,26.919,26.919,0,0,0-15.065,24.75v45.268A5,5,0,0,0,118.268,143.247Z" transform="translate(-50.908 -42.661)"/><path class="cls-1" d="M130.466,143.247a5,5,0,0,0,5-5V108.968a2.574,2.574,0,0,1,.514-1.874,4.375,4.375,0,0,1,2.539-.723,5,5,0,0,0,.7-9.977c-.612-.041-6.092-.312-10.057,3.386a12.072,12.072,0,0,0-3.694,9.187v29.279A5,5,0,0,0,130.466,143.247Z" transform="translate(-50.908 -42.661)"/><path class="cls-1" d="M113.1,60.289a4.98,4.98,0,0,0,1.294-.171l7.473-2a5,5,0,0,0,3.046-2.343,5.456,5.456,0,0,0-.093-5.51c-1.822-3.135-9.619-7.607-13.257-7.607h-.014a5.457,5.457,0,0,0-4.8,2.7,5,5,0,0,0-.488,3.8l2.018,7.437A5,5,0,0,0,113.1,60.289Z" transform="translate(-50.908 -42.661)"/><path class="cls-1" d="M136.761,80.059a5,5,0,0,0,2.686-.782,5.459,5.459,0,0,0,2.478-4.923c-.158-3.629-5-11.226-8.216-12.9a5.461,5.461,0,0,0-5.508.163,5,5,0,0,0-2.2,3.134l-1.67,7.521a5,5,0,0,0,3.779,5.961l7.545,1.706A5.024,5.024,0,0,0,136.761,80.059Z" transform="translate(-50.908 -42.661)"/><path class="cls-1" d="M142.958,111.844h.017c6.1-.021,6.07-7.9,6.061-10.49a27.685,27.685,0,0,0-.367-4.636c-.952-5.239-4.321-5.813-5.747-5.813h-.018a5,5,0,0,0-3.531,1.477l-5.431,5.467a5,5,0,0,0,.01,7.058l5.467,5.473A5,5,0,0,0,142.958,111.844Z" transform="translate(-50.908 -42.661)"/></svg>