<svg id="Layer_1" data-name="Layer 1" xmlns="http://www.w3.org/2000/svg" viewBox="0 0 38.643 44.466"><defs><style>.cls-1{opacity:0.5;}.cls-2,.cls-4,.cls-5,.cls-6,.cls-7{fill:none;stroke:#db0e5d;stroke-linecap:round;stroke-linejoin:round;}.cls-2{stroke-dasharray:2 3;}.cls-3{opacity:0.4;}.cls-5{stroke-dasharray:1.82 1.82;}.cls-6{stroke-dasharray:1.879 1.879;}.cls-7{stroke-dasharray:2.339 2.339;}</style></defs><title>viral_protein_dissolved</title><g id="VIRAL_PROTEIN" data-name="VIRAL PROTEIN" class="cls-1"><polygon class="cls-2" points="38.143 33.1 38.143 11.367 19.322 0.5 0.5 11.367 0.5 33.1 19.322 43.966 38.143 33.1"/><g id="BACK" class="cls-3"><polyline class="cls-4" points="19.822 10.384 19.322 9.518 18.822 10.384"/><line class="cls-5" x1="17.911" y1="11.961" x2="9.265" y2="26.936"/><polyline class="cls-4" points="8.81 27.725 8.31 28.591 9.31 28.591"/><line class="cls-5" x1="11.13" y1="28.591" x2="28.423" y2="28.591"/><polyline class="cls-4" points="29.333 28.591 30.333 28.591 29.833 27.725"/><line class="cls-5" x1="28.923" y1="26.148" x2="20.277" y2="11.172"/><line class="cls-4" x1="19.322" y1="43.966" x2="18.739" y2="43.153"/><line class="cls-6" x1="17.645" y1="41.626" x2="9.439" y2="30.168"/><line class="cls-4" x1="8.892" y1="29.404" x2="8.31" y2="28.591"/><line class="cls-4" x1="30.333" y1="28.591" x2="29.751" y2="29.404"/><line class="cls-6" x1="28.657" y1="30.931" x2="20.451" y2="42.39"/><line class="cls-4" x1="19.904" y1="43.153" x2="19.322" y2="43.966"/><line class="cls-4" x1="19.322" y1="9.518" x2="19.322" y2="8.518"/><line class="cls-7" x1="19.322" y1="6.179" x2="19.322" y2="2.67"/><line class="cls-4" x1="19.322" y1="1.5" x2="19.322" y2="0.5"/><line class="cls-4" x1="0.5" y1="11.367" x2="1.495" y2="11.269"/><line class="cls-6" x1="3.365" y1="11.085" x2="17.391" y2="9.708"/><line class="cls-4" x1="18.326" y1="9.616" x2="19.322" y2="9.518"/><line class="cls-4" x1="38.143" y1="11.367" x2="37.148" y2="11.269"/><line class="cls-6" x1="35.278" y1="11.085" x2="21.252" y2="9.708"/><line class="cls-4" x1="20.317" y1="9.616" x2="19.322" y2="9.518"/><line class="cls-4" x1="8.31" y1="28.591" x2="7.897" y2="27.68"/><line class="cls-6" x1="7.121" y1="25.969" x2="1.301" y2="13.133"/><line class="cls-4" x1="0.913" y1="12.277" x2="0.5" y2="11.367"/><line class="cls-4" x1="0.5" y1="33.1" x2="1.366" y2="32.6"/><line class="cls-7" x1="3.392" y1="31.43" x2="6.431" y2="29.676"/><line class="cls-4" x1="7.444" y1="29.091" x2="8.31" y2="28.591"/><line class="cls-4" x1="30.333" y1="28.591" x2="31.199" y2="29.091"/><line class="cls-7" x1="33.225" y1="30.26" x2="36.264" y2="32.015"/><line class="cls-4" x1="37.277" y1="32.6" x2="38.143" y2="33.1"/><line class="cls-4" x1="38.143" y1="11.367" x2="37.73" y2="12.277"/><line class="cls-6" x1="36.954" y1="13.989" x2="31.134" y2="26.824"/><line class="cls-4" x1="30.746" y1="27.68" x2="30.333" y2="28.591"/></g><g id="FRONT"><polyline class="cls-4" points="18.822 34.082 19.322 34.948 19.822 34.082"/><line class="cls-5" x1="20.732" y1="32.506" x2="29.378" y2="17.53"/><polyline class="cls-4" points="29.833 16.742 30.333 15.876 29.333 15.876"/><line class="cls-5" x1="27.513" y1="15.876" x2="10.22" y2="15.876"/><polyline class="cls-4" points="9.31 15.876 8.31 15.876 8.81 16.742"/><line class="cls-5" x1="9.72" y1="18.318" x2="18.366" y2="33.294"/><line class="cls-4" x1="19.322" y1="0.5" x2="19.904" y2="1.313"/><line class="cls-6" x1="20.998" y1="2.841" x2="29.204" y2="14.299"/><line class="cls-4" x1="29.751" y1="15.063" x2="30.333" y2="15.876"/><line class="cls-4" x1="8.31" y1="15.876" x2="8.892" y2="15.063"/><line class="cls-6" x1="9.986" y1="13.535" x2="18.192" y2="2.077"/><line class="cls-4" x1="18.739" y1="1.313" x2="19.322" y2="0.5"/><line class="cls-4" x1="19.322" y1="34.948" x2="19.322" y2="35.948"/><line class="cls-7" x1="19.322" y1="38.288" x2="19.322" y2="41.797"/><line class="cls-4" x1="19.322" y1="42.966" x2="19.322" y2="43.966"/><line class="cls-4" x1="38.143" y1="33.1" x2="37.148" y2="33.198"/><line class="cls-6" x1="35.278" y1="33.381" x2="21.252" y2="34.759"/><line class="cls-4" x1="20.317" y1="34.85" x2="19.322" y2="34.948"/><line class="cls-4" x1="0.5" y1="33.1" x2="1.495" y2="33.198"/><line class="cls-6" x1="3.365" y1="33.381" x2="17.391" y2="34.759"/><line class="cls-4" x1="18.326" y1="34.85" x2="19.322" y2="34.948"/><line class="cls-4" x1="30.333" y1="15.876" x2="30.746" y2="16.786"/><line class="cls-6" x1="31.522" y1="18.498" x2="37.342" y2="31.333"/><line class="cls-4" x1="37.73" y1="32.189" x2="38.143" y2="33.1"/><line class="cls-4" x1="38.143" y1="11.367" x2="37.277" y2="11.867"/><line class="cls-7" x1="35.251" y1="13.036" x2="32.212" y2="14.791"/><line class="cls-4" x1="31.199" y1="15.376" x2="30.333" y2="15.876"/><line class="cls-4" x1="8.31" y1="15.876" x2="7.444" y2="15.376"/><line class="cls-7" x1="5.418" y1="14.206" x2="2.379" y2="12.451"/><line class="cls-4" x1="1.366" y1="11.867" x2="0.5" y2="11.367"/><line class="cls-4" x1="0.5" y1="33.1" x2="0.913" y2="32.189"/><line class="cls-6" x1="1.689" y1="30.478" x2="7.509" y2="17.642"/><line class="cls-4" x1="7.897" y1="16.786" x2="8.31" y2="15.876"/></g></g></svg>