<svg id="Layer_1" data-name="Layer 1" xmlns="http://www.w3.org/2000/svg" xmlns:xlink="http://www.w3.org/1999/xlink" viewBox="0 0 49.056 82.273"><defs><style>.cls-1{fill:url(#linear-gradient);}.cls-2{fill:url(#linear-gradient-2);}.cls-3{fill:url(#linear-gradient-3);}.cls-4{fill:url(#linear-gradient-4);}.cls-5{fill:url(#linear-gradient-5);}.cls-6{fill:url(#radial-gradient);}.cls-7{mask:url(#mask);}.cls-8{fill:url(#radial-gradient-2);}.cls-9{fill:url(#linear-gradient-6);}.cls-10{fill:url(#linear-gradient-7);}.cls-11{fill:url(#linear-gradient-8);}.cls-12{fill:url(#radial-gradient-3);}.cls-13{mask:url(#mask-2);}.cls-14{fill:url(#radial-gradient-4);}</style><linearGradient id="linear-gradient" x1="-938.583" y1="548.676" x2="-934.108" y2="542.6" gradientTransform="translate(512.33 -932.744) rotate(-36.509)" gradientUnits="userSpaceOnUse"><stop offset="0.07"/><stop offset="0.085" stop-color="#0b0b0b"/><stop offset="0.155" stop-color="#3e3e3e"/><stop offset="0.229" stop-color="#6c6c6c"/><stop offset="0.307" stop-color="#949494"/><stop offset="0.389" stop-color="#b5b5b5"/><stop offset="0.477" stop-color="#d0d0d0"/><stop offset="0.572" stop-color="#e5e5e5"/><stop offset="0.678" stop-color="#f4f4f4"/><stop offset="0.804" stop-color="#fcfcfc"/><stop offset="1" stop-color="#fff"/></linearGradient><linearGradient id="linear-gradient-2" x1="-83.902" y1="548.676" x2="-79.427" y2="542.6" gradientTransform="matrix(0.804, 0.595, 0.595, -0.804, -143.333, 549.99)" xlink:href="#linear-gradient"/><linearGradient id="linear-gradient-3" x1="-937.61" y1="610.704" x2="-925.573" y2="610.704" gradientTransform="translate(945.205 -541.613)" gradientUnits="userSpaceOnUse"><stop offset="0" stop-color="#763452"/><stop offset="0.032" stop-color="#966169"/><stop offset="0.065" stop-color="#b3897d"/><stop offset="0.098" stop-color="#caa88d"/><stop offset="0.13" stop-color="#dabf99"/><stop offset="0.161" stop-color="#e4cca0"/><stop offset="0.188" stop-color="#e7d1a2"/><stop offset="0.699" stop-color="#e7d1a2"/><stop offset="0.746" stop-color="#e4cda0"/><stop offset="0.794" stop-color="#dbc19a"/><stop offset="0.843" stop-color="#cdac8f"/><stop offset="0.892" stop-color="#b89081"/><stop offset="0.941" stop-color="#9d6b6e"/><stop offset="0.99" stop-color="#7d3e57"/><stop offset="1" stop-color="#763452"/></linearGradient><linearGradient id="linear-gradient-4" x1="-931.592" y1="623.886" x2="-931.592" y2="597.522" gradientTransform="translate(945.205 -541.613)" gradientUnits="userSpaceOnUse"><stop offset="0" stop-color="#763452"/><stop offset="0.008" stop-color="#7c3c56" stop-opacity="0.947"/><stop offset="0.065" stop-color="#a27171" stop-opacity="0.609"/><stop offset="0.122" stop-color="#c09b87" stop-opacity="0.343"/><stop offset="0.176" stop-color="#d6b996" stop-opacity="0.153"/><stop offset="0.228" stop-color="#e3cb9f" stop-opacity="0.039"/><stop offset="0.274" stop-color="#e7d1a2" stop-opacity="0"/><stop offset="0.316" stop-color="#e7d1a2" stop-opacity="0"/><stop offset="0.562" stop-color="#e7d1a2" stop-opacity="0"/><stop offset="0.683" stop-color="#ccac8f" stop-opacity="0.188"/><stop offset="0.936" stop-color="#894e5f" stop-opacity="0.669"/><stop offset="1" stop-color="#763452" stop-opacity="0.8"/></linearGradient><linearGradient id="linear-gradient-5" x1="-934.092" y1="581.892" x2="-929.092" y2="581.892" gradientTransform="translate(1020.677 -482.75)" gradientUnits="userSpaceOnUse"><stop offset="0" stop-color="#763452"/><stop offset="0.101" stop-color="#9e6b6e"/><stop offset="0.196" stop-color="#bd9784"/><stop offset="0.28" stop-color="#d4b795"/><stop offset="0.351" stop-color="#e2ca9e"/><stop offset="0.4" stop-color="#e7d1a2"/><stop offset="0.486" stop-color="#e4cca0"/><stop offset="0.583" stop-color="#dabf99"/><stop offset="0.686" stop-color="#c9a88d"/><stop offset="0.792" stop-color="#b3887d"/><stop offset="0.901" stop-color="#956068"/><stop offset="1" stop-color="#763452"/></linearGradient><radialGradient id="radial-gradient" cx="294.642" cy="297.606" r="16.101" gradientTransform="matrix(0.823, -0.568, -0.568, -0.823, 17.562, 482.109)" gradientUnits="userSpaceOnUse"><stop offset="0.306" stop-color="#763452"/><stop offset="0.384" stop-color="#9e6b6e"/><stop offset="0.457" stop-color="#bd9784"/><stop offset="0.521" stop-color="#d4b795"/><stop offset="0.576" stop-color="#e2ca9e"/><stop offset="0.613" stop-color="#e7d1a2"/><stop offset="0.668" stop-color="#e4cca0"/><stop offset="0.729" stop-color="#dabf99"/><stop offset="0.794" stop-color="#c9a88d"/><stop offset="0.861" stop-color="#b3887d"/><stop offset="0.93" stop-color="#956068"/><stop offset="0.992" stop-color="#763452"/></radialGradient><mask id="mask" x="1.914" y="-2.528" width="13.925" height="13.06" maskUnits="userSpaceOnUse"><g transform="translate(-75.472 -58.864)"><rect class="cls-1" x="78.49" y="59.079" width="11.719" height="7.574" transform="translate(53.954 -37.846) rotate(36.509)"/></g></mask><radialGradient id="radial-gradient-2" cx="290.018" cy="306.034" r="6.906" gradientTransform="matrix(-0.652, 0.759, 0.585, 0.502, 92.475, -308.245)" gradientUnits="userSpaceOnUse"><stop offset="0.2" stop-color="#e7d1a2"/><stop offset="0.407" stop-color="#cdac8f"/><stop offset="0.868" stop-color="#8a5060"/><stop offset="1" stop-color="#763452"/></radialGradient><linearGradient id="linear-gradient-6" x1="-82.93" y1="610.704" x2="-70.893" y2="610.704" gradientTransform="matrix(1, 0, 0, -1, 187.826, 738.658)" xlink:href="#linear-gradient-3"/><linearGradient id="linear-gradient-7" x1="-76.912" y1="623.886" x2="-76.912" y2="597.522" gradientTransform="matrix(1, 0, 0, -1, 187.826, 738.658)" xlink:href="#linear-gradient-4"/><linearGradient id="linear-gradient-8" x1="-79.412" y1="581.892" x2="-74.412" y2="581.892" gradientTransform="matrix(-1, 0, 0, 1, 34.003, -482.75)" xlink:href="#linear-gradient-5"/><radialGradient id="radial-gradient-3" cx="998.224" cy="-187.627" r="16.101" gradientTransform="translate(1037.118 482.109) rotate(-145.407)" xlink:href="#radial-gradient"/><mask id="mask-2" x="33.216" y="-2.528" width="13.925" height="13.06" maskUnits="userSpaceOnUse"><g transform="translate(-75.472 -58.864)"><rect class="cls-2" x="109.792" y="59.079" width="11.719" height="7.574" transform="translate(246.009 44.59) rotate(143.491)"/></g></mask><radialGradient id="radial-gradient-4" cx="993.599" cy="-179.199" r="6.906" gradientTransform="matrix(0.652, 0.759, -0.585, 0.502, -634.726, -598.24)" xlink:href="#radial-gradient-2"/></defs><title>PDGF</title><g id="PDGF"><rect class="cls-3" x="7.595" y="55.909" width="12.037" height="26.364" rx="3.064" ry="3.064"/><rect class="cls-4" x="7.595" y="55.909" width="12.037" height="26.364" rx="3.064" ry="3.064"/><path class="cls-5" d="M89.086,118.354a2.5,2.5,0,0,1-2.5-2.5V82.43a2.5,2.5,0,0,1,5,0v33.424A2.5,2.5,0,0,1,89.086,118.354Z" transform="translate(-75.472 -58.864)"/><path class="cls-6" d="M80.5,59.686C74.441,63.861,73.814,71,78.86,78.316s11.941,9.266,18,5.091q2.823-1.947.877-4.774c-.564-.818-1.469-.777-2.406-.81a8.041,8.041,0,0,1-7.684-3.845c-2.627-4.189-1.664-5.393-.766-6.012,1.923-1.326,2.33-4.3.538-6.895A5.026,5.026,0,0,0,80.5,59.686Z" transform="translate(-75.472 -58.864)"/><g class="cls-7"><path class="cls-8" d="M80.5,59.686a12.555,12.555,0,0,0-2.832,2.643L86.19,68.67a2.2,2.2,0,0,1,.686-.7c1.923-1.326,2.33-4.3.538-6.895A5.026,5.026,0,0,0,80.5,59.686Z" transform="translate(-75.472 -58.864)"/></g><rect class="cls-9" x="104.896" y="114.772" width="12.037" height="26.364" rx="3.064" ry="3.064" transform="translate(146.357 197.045) rotate(-180)"/><rect class="cls-10" x="104.896" y="114.772" width="12.037" height="26.364" rx="3.064" ry="3.064" transform="translate(146.357 197.045) rotate(-180)"/><path class="cls-11" d="M110.914,118.354a2.5,2.5,0,0,0,2.5-2.5V82.43a2.5,2.5,0,0,0-5,0v33.424A2.5,2.5,0,0,0,110.914,118.354Z" transform="translate(-75.472 -58.864)"/><path class="cls-12" d="M119.5,59.686c6.055,4.176,6.682,11.314,1.636,18.63s-11.941,9.266-18,5.091q-2.823-1.947-.877-4.774c.564-.818,1.469-.777,2.406-.81a8.041,8.041,0,0,0,7.684-3.845c2.627-4.189,1.664-5.393.766-6.012-1.923-1.326-2.33-4.3-.538-6.895A5.026,5.026,0,0,1,119.5,59.686Z" transform="translate(-75.472 -58.864)"/><g class="cls-13"><path class="cls-14" d="M119.5,59.686a12.555,12.555,0,0,1,2.832,2.643L113.81,68.67a2.2,2.2,0,0,0-.686-.7c-1.923-1.326-2.33-4.3-.538-6.895A5.026,5.026,0,0,1,119.5,59.686Z" transform="translate(-75.472 -58.864)"/></g></g></svg>