<svg id="Layer_1" data-name="Layer 1" xmlns="http://www.w3.org/2000/svg" xmlns:xlink="http://www.w3.org/1999/xlink" viewBox="0 0 22.934 78.809"><defs><style>.cls-1{fill:url(#linear-gradient);}.cls-2{fill:url(#linear-gradient-2);}</style><linearGradient id="linear-gradient" x1="88.533" y1="100" x2="111.467" y2="100" gradientUnits="userSpaceOnUse"><stop offset="0.15" stop-color="#223664"/><stop offset="0.5" stop-color="#5e88bf"/><stop offset="0.85" stop-color="#223664"/></linearGradient><linearGradient id="linear-gradient-2" x1="100" y1="60.595" x2="100" y2="139.405" gradientUnits="userSpaceOnUse"><stop offset="0" stop-color="#223664"/><stop offset="0.061" stop-color="#324c7d" stop-opacity="0.757"/><stop offset="0.144" stop-color="#426295" stop-opacity="0.516"/><stop offset="0.241" stop-color="#4f73a8" stop-opacity="0.328"/><stop offset="0.362" stop-color="#587fb5" stop-opacity="0.196"/><stop offset="0.531" stop-color="#5d86bd" stop-opacity="0.121"/><stop offset="1" stop-color="#5e88bf" stop-opacity="0.1"/></linearGradient></defs><title>PLXNB1</title><g id="Plexin-B1"><path class="cls-1" d="M111.467,66.314c0-4.378-5.134-5.719-11.467-5.719s-11.467,1.341-11.467,5.719c0,2.6,1.809,5.681,4.6,7.758a11.526,11.526,0,0,1,4.436,9.265V136.5a2.761,2.761,0,0,0,2.209,2.892,2.574,2.574,0,0,0,2.644-2.749V83.337a11.526,11.526,0,0,1,4.437-9.265C109.658,72,111.467,68.912,111.467,66.314Z" transform="translate(-88.533 -60.595)"/><path class="cls-2" d="M111.467,66.314c0-4.378-5.134-5.719-11.467-5.719s-11.467,1.341-11.467,5.719c0,2.6,1.809,5.681,4.6,7.758a11.526,11.526,0,0,1,4.436,9.265V136.5a2.761,2.761,0,0,0,2.209,2.892,2.574,2.574,0,0,0,2.644-2.749V83.337a11.526,11.526,0,0,1,4.437-9.265C109.658,72,111.467,68.912,111.467,66.314Z" transform="translate(-88.533 -60.595)"/></g></svg>