<svg id="Layer_1" data-name="Layer 1" xmlns="http://www.w3.org/2000/svg" viewBox="0 0 128 34.1"><defs><style>.cls-1{fill:#a20e40;}.cls-2{fill:#0b6770;}.cls-3{fill:#b89310;}.cls-4{fill:#fff;}.cls-5{isolation:isolate;font-size:5.833px;font-family:Arial-BoldMT, Arial;font-weight:700;}</style></defs><title>procollagen</title><path class="cls-1" d="M46.9,113.3h2.4a4.94,4.94,0,0,1-2.4-.5Z" transform="translate(-36 -82.9)"/><path class="cls-2" d="M47,95.6c1.7-3.6,3.9-6.3,7-6.3h2.9c-5,0-7.8,7.6-10.2,13.4V96.4Z" transform="translate(-36 -82.9)"/><path class="cls-3" d="M46.7,91.1c4.9,5.8,6.7,22.2,14.4,22.2H64c-9,0-9.6-22.4-17-24h-.3Z" transform="translate(-36 -82.9)"/><path class="cls-1" d="M47,113.3c7.9-.7,8.3-23.9,17.5-24h2.9c-9.3,0-9.5,24-17.7,24Z" transform="translate(-36 -82.9)"/><path class="cls-2" d="M74.5,113.3c-9.3,0-9.4-24-17.6-24H54c8.2,0,8.2,24,17.6,24Z" transform="translate(-36 -82.9)"/><path class="cls-3" d="M81.6,89.3c-9.3,0-9.5,24-17.6,24H61.1c8.2,0,8.3-24,17.6-24Z" transform="translate(-36 -82.9)"/><path class="cls-1" d="M84.994,113.3c-9.3,0-9.394-24-17.594-24H64.5c8.2,0,8.194,24,17.594,24Z" transform="translate(-36 -82.9)"/><path class="cls-2" d="M92.1,89.3c-9.3,0-9.5,24-17.6,24H71.6c8.2,0,8.294-24,17.594-24Z" transform="translate(-36 -82.9)"/><path class="cls-3" d="M99.194,113.3c-9.3,0-9.394-24-17.594-24H78.7c8.2,0,8.194,24,17.594,24Z" transform="translate(-36 -82.9)"/><path class="cls-1" d="M102.588,89.3c-9.3,0-9.494,24-17.594,24h-2.9c8.2,0,8.294-24,17.594-24Z" transform="translate(-36 -82.9)"/><path class="cls-2" d="M109.687,113.3c-9.3,0-9.387-24-17.587-24H89.194c8.2,0,8.194,24,17.594,24Z" transform="translate(-36 -82.9)"/><path class="cls-3" d="M116.761,89.3c-9.3,0-9.467,24-17.567,24h-2.9c8.2,0,8.294-24,17.594-24Z" transform="translate(-36 -82.9)"/><path class="cls-1" d="M120.154,113.3c-9.3,0-9.367-24-17.567-24h-2.9c8.2,0,8.167,24,17.567,24Z" transform="translate(-36 -82.9)"/><path class="cls-2" d="M127.254,89.3c-9.3,0-9.467,24-17.567,24h-2.9c8.2,0,8.267-24,17.567-24Z" transform="translate(-36 -82.9)"/><path class="cls-3" d="M134.354,113.3c-9.3,0-9.494-24-17.594-24h-2.873c8.2,0,8.167,24,17.567,24Z" transform="translate(-36 -82.9)"/><path class="cls-1" d="M137.748,89.3c-9.3,0-9.494,24-17.594,24h-2.9c8.2,0,8.294-24,17.594-24Z" transform="translate(-36 -82.9)"/><path class="cls-2" d="M144.848,113.3c-9.3,0-9.494-24-17.594-24h-2.9c8.2,0,8.194,24,17.594,24Z" transform="translate(-36 -82.9)"/><path class="cls-3" d="M151.948,89.3c-9.3,0-9.394,24-17.594,24h-2.9c8.2,0,8.294-24,17.594-24Z" transform="translate(-36 -82.9)"/><path class="cls-1" d="M153.3,112.5c-7.2-3.5-8.052-23.2-15.552-23.2h-2.9c8.2,0,8.352,24,17.752,24h.6v-.8Z" transform="translate(-36 -82.9)"/><path class="cls-2" d="M153.5,102.7c-2.1,5.5-4.852,10.6-8.652,10.6h-2.9c5.5,0,7.552-10.1,11.452-17v6.4Z" transform="translate(-36 -82.9)"/><path class="cls-3" d="M153.3,89.6a2.462,2.462,0,0,0-1.352-.3h-2.9a5.663,5.663,0,0,1,4.252,2.1Z" transform="translate(-36 -82.9)"/><rect class="cls-4" x="0.726" y="0.726" width="9.648" height="9.648" rx="1" ry="1"/><path class="cls-3" d="M44.6,94H38.5A2.476,2.476,0,0,1,36,91.5V85.4a2.476,2.476,0,0,1,2.5-2.5h6.1a2.476,2.476,0,0,1,2.5,2.5v6.1A2.61,2.61,0,0,1,44.6,94ZM38.5,83.8a1.58,1.58,0,0,0-1.6,1.6v6.1a1.58,1.58,0,0,0,1.6,1.6h6.1a1.58,1.58,0,0,0,1.6-1.6V85.4a1.58,1.58,0,0,0-1.6-1.6Z" transform="translate(-36 -82.9)"/><text class="cls-5" transform="translate(3.21 7.454)">N</text><rect class="cls-4" x="0.726" y="12.226" width="9.648" height="9.648" rx="1" ry="1"/><path class="cls-2" d="M44.6,105.5H38.5A2.476,2.476,0,0,1,36,103V96.9a2.476,2.476,0,0,1,2.5-2.5h6.1a2.476,2.476,0,0,1,2.5,2.5V103A2.61,2.61,0,0,1,44.6,105.5ZM38.5,95.3a1.58,1.58,0,0,0-1.6,1.6V103a1.58,1.58,0,0,0,1.6,1.6h6.1a1.58,1.58,0,0,0,1.6-1.6V96.9a1.58,1.58,0,0,0-1.6-1.6Z" transform="translate(-36 -82.9)"/><text class="cls-5" transform="translate(3.21 18.957)">N</text><rect class="cls-4" x="0.726" y="23.726" width="9.648" height="9.648" rx="1" ry="1"/><path class="cls-1" d="M44.6,117H38.5a2.476,2.476,0,0,1-2.5-2.5v-6.1a2.476,2.476,0,0,1,2.5-2.5h6.1a2.476,2.476,0,0,1,2.5,2.5v6.1A2.61,2.61,0,0,1,44.6,117Zm-6.1-10.2a1.58,1.58,0,0,0-1.6,1.6v6.1a1.58,1.58,0,0,0,1.6,1.6h6.1a1.58,1.58,0,0,0,1.6-1.6v-6.1a1.58,1.58,0,0,0-1.6-1.6Z" transform="translate(-36 -82.9)"/><text class="cls-5" transform="translate(3.21 30.461)">N</text><rect class="cls-4" x="117.626" y="0.902" width="9.648" height="9.648" rx="1" ry="1"/><path class="cls-3" d="M161.5,94h-6.1a2.476,2.476,0,0,1-2.5-2.5V85.4a2.476,2.476,0,0,1,2.5-2.5h6.1a2.476,2.476,0,0,1,2.5,2.5v6.1A2.476,2.476,0,0,1,161.5,94Zm-6.1-10.2a1.58,1.58,0,0,0-1.6,1.6v6.1a1.58,1.58,0,0,0,1.6,1.6h6.1a1.58,1.58,0,0,0,1.6-1.6V85.4a1.58,1.58,0,0,0-1.6-1.6Z" transform="translate(-36 -82.9)"/><text class="cls-5" transform="translate(120.192 7.454)">C</text><rect class="cls-4" x="117.626" y="12.276" width="9.648" height="9.648" rx="1" ry="1"/><path class="cls-2" d="M161.5,105.5h-6.1a2.476,2.476,0,0,1-2.5-2.5V96.9a2.476,2.476,0,0,1,2.5-2.5h6.1a2.476,2.476,0,0,1,2.5,2.5V103A2.476,2.476,0,0,1,161.5,105.5Zm-6.1-10.2a1.58,1.58,0,0,0-1.6,1.6V103a1.58,1.58,0,0,0,1.6,1.6h6.1a1.58,1.58,0,0,0,1.6-1.6V96.9a1.58,1.58,0,0,0-1.6-1.6Z" transform="translate(-36 -82.9)"/><text class="cls-5" transform="translate(120.192 18.957)">C</text><rect class="cls-4" x="117.626" y="23.726" width="9.648" height="9.648" rx="1" ry="1"/><path class="cls-1" d="M161.5,117h-6.1a2.476,2.476,0,0,1-2.5-2.5v-6.1a2.476,2.476,0,0,1,2.5-2.5h6.1a2.476,2.476,0,0,1,2.5,2.5v6.1A2.476,2.476,0,0,1,161.5,117Zm-6.1-10.2a1.58,1.58,0,0,0-1.6,1.6v6.1a1.58,1.58,0,0,0,1.6,1.6h6.1a1.58,1.58,0,0,0,1.6-1.6v-6.1a1.58,1.58,0,0,0-1.6-1.6Z" transform="translate(-36 -82.9)"/><text class="cls-5" transform="translate(120.192 30.461)">C</text></svg>