<svg id="Layer_1" data-name="Layer 1" xmlns="http://www.w3.org/2000/svg" xmlns:xlink="http://www.w3.org/1999/xlink" viewBox="0 0 80.402 32.942"><defs><style>.cls-1{fill:url(#linear-gradient);}.cls-2{fill:#cf7200;}.cls-3{font-size:12px;fill:#fff;font-family:Arial-BoldMT, Arial;font-weight:700;}.cls-4{letter-spacing:-0.018em;}.cls-5{letter-spacing:-0.02em;}</style><linearGradient id="linear-gradient" x1="40.42" y1="31.342" x2="40.42" y2="1.342" gradientUnits="userSpaceOnUse"><stop offset="0" stop-color="#cf7200"/><stop offset="1" stop-color="#b049c7"/></linearGradient></defs><title>R-ICO-013655</title><g id="R-ICO-013655"><rect class="cls-1" x="1.42" y="1.342" width="78" height="30" rx="10" ry="10"/><path class="cls-2" d="M129,115.15c-8.282-.009-16.565.43-24.847.837-8.282.458-16.565.546-24.847.613H73.094c-1.057-.012-1.993.029-3.266-.064a11.926,11.926,0,0,1-3.459-.95,11.6,11.6,0,0,1-5.223-4.717,11.074,11.074,0,0,1-1.3-3.3,10.715,10.715,0,0,1-.242-1.759l-.03-.876.01-.776.088-6.212.075-3.126a11.219,11.219,0,0,1,.664-3.41A11,11,0,0,1,71,84.179c8.282.261,16.565.449,24.847.335,4.141-.049,8.282-.194,12.423-.349l12.423-.413c2.071-.033,4.141-.093,6.212-.087,1.053.006,2.005-.039,3.241.046a11.51,11.51,0,0,1,3.385.928,10.919,10.919,0,0,1,5.067,4.646,10.112,10.112,0,0,1,1.193,3.234,13.388,13.388,0,0,1,.151,3.329l-.285,6.212-.157,3.114a10.5,10.5,0,0,1-.677,3.162A10.608,10.608,0,0,1,129,115.15Zm0-.3a9.721,9.721,0,0,0,5.692-1.9,9.407,9.407,0,0,0,3.792-7.791l-.14-3.1-.285-6.212a11.241,11.241,0,0,0-.376-2.842,9.179,9.179,0,0,0-1.127-2.5,8.322,8.322,0,0,0-1.8-2.03,8.751,8.751,0,0,0-2.285-1.424,9.985,9.985,0,0,0-2.594-.661c-.831-.067-1.952-.048-2.968-.056-2.071.006-4.141-.055-6.212-.087l-12.423-.413c-4.141-.155-8.282-.3-12.423-.349-8.282-.114-16.565.074-24.847.335a9.969,9.969,0,0,0-2.772.541,9.2,9.2,0,0,0-2.442,1.355,8.625,8.625,0,0,0-1.9,2.01,8.444,8.444,0,0,0-1.219,2.448,8.771,8.771,0,0,0-.4,2.681l.058,3.085.088,6.212.01.776.042.675a7.846,7.846,0,0,0,.213,1.308A8.14,8.14,0,0,0,63.7,109.34a8.555,8.555,0,0,0,3.931,3.384,9.531,9.531,0,0,0,2.521.638c.795.059,1.93.036,2.944.039h6.212c8.282.066,16.565.155,24.847.613C112.435,114.42,120.718,114.859,129,114.85Z" transform="translate(-59.58 -83.658)"/><text class="cls-3" transform="translate(4.936 11.828)">CY<tspan class="cls-4" x="16.67" y="0">T</tspan><tspan x="23.783" y="0">OSOLIC</tspan><tspan x="8.344" y="14.4">PROTEI</tspan><tspan class="cls-5" x="53.016" y="14.4">N</tspan></text></g></svg>