<svg id="Layer_1" data-name="Layer 1" xmlns="http://www.w3.org/2000/svg" xmlns:xlink="http://www.w3.org/1999/xlink" viewBox="0 0 158.801 64.83"><defs><style>.cls-1{fill:url(#linear-gradient);}.cls-2{fill:url(#linear-gradient-2);}.cls-3{fill:url(#linear-gradient-3);}.cls-4{fill:url(#linear-gradient-4);}.cls-5{fill:url(#linear-gradient-5);}.cls-6{fill:url(#linear-gradient-6);}.cls-7{fill:url(#linear-gradient-7);}.cls-8{fill:url(#linear-gradient-8);}.cls-9{fill:#993d61;}.cls-10{fill:#3d9799;}.cls-11{fill:url(#linear-gradient-9);}.cls-12{fill:url(#linear-gradient-10);}.cls-13{fill:url(#linear-gradient-11);}.cls-14{fill:url(#linear-gradient-12);}.cls-15{fill:url(#linear-gradient-13);}.cls-16{fill:url(#linear-gradient-14);}.cls-17{fill:url(#linear-gradient-15);}.cls-18{fill:url(#linear-gradient-16);}.cls-19{fill:#99763d;}.cls-20{fill:#3d4f99;}.cls-21{opacity:0.7;}.cls-22{fill:url(#linear-gradient-17);}.cls-23{fill:url(#linear-gradient-18);}.cls-24{fill:url(#linear-gradient-19);}.cls-25{fill:url(#linear-gradient-20);}.cls-26{fill:url(#linear-gradient-21);}.cls-27{fill:url(#linear-gradient-22);}.cls-28{fill:url(#linear-gradient-23);}.cls-29{fill:url(#linear-gradient-24);}.cls-30{fill:url(#linear-gradient-25);}.cls-31{fill:url(#linear-gradient-26);}.cls-32{fill:url(#linear-gradient-27);}.cls-33{fill:url(#linear-gradient-28);}.cls-34{fill:url(#linear-gradient-29);}.cls-35{fill:url(#linear-gradient-30);}.cls-36{fill:url(#linear-gradient-31);}.cls-37{fill:url(#linear-gradient-32);}</style><linearGradient id="linear-gradient" x1="-885.736" y1="19.55" x2="-885.736" y2="56.39" gradientTransform="translate(-737.585 125.258) rotate(180)" gradientUnits="userSpaceOnUse"><stop offset="0" stop-color="#042224"/><stop offset="0.1" stop-color="#139ba2"/><stop offset="0.25" stop-color="#90a1a2"/><stop offset="0.6" stop-color="#0e9ba2"/><stop offset="1" stop-color="#042224"/></linearGradient><linearGradient id="linear-gradient-2" x1="-904.998" y1="30.874" x2="-904.998" y2="56.539" gradientTransform="translate(-737.585 125.258) rotate(180)" gradientUnits="userSpaceOnUse"><stop offset="0" stop-color="#240410"/><stop offset="0.1" stop-color="#a20e44"/><stop offset="0.25" stop-color="#a29097"/><stop offset="0.6" stop-color="#a20e44"/><stop offset="1" stop-color="#240410"/></linearGradient><linearGradient id="linear-gradient-3" x1="-770.165" y1="30.874" x2="-770.165" y2="56.539" xlink:href="#linear-gradient"/><linearGradient id="linear-gradient-4" x1="-789.427" y1="30.874" x2="-789.427" y2="56.539" xlink:href="#linear-gradient-2"/><linearGradient id="linear-gradient-5" x1="-827.952" y1="30.874" x2="-827.952" y2="56.539" xlink:href="#linear-gradient-2"/><linearGradient id="linear-gradient-6" x1="-866.474" y1="30.874" x2="-866.474" y2="56.539" xlink:href="#linear-gradient-2"/><linearGradient id="linear-gradient-7" x1="-808.69" y1="119.644" x2="-808.69" y2="145.309" gradientTransform="matrix(-1, 0, 0, 1, -737.585, -14.025)" gradientUnits="userSpaceOnUse"><stop offset="0" stop-color="#042224"/><stop offset="0.4" stop-color="#0e9ba2"/><stop offset="0.75" stop-color="#90a1a2"/><stop offset="0.9" stop-color="#139ba2"/><stop offset="1" stop-color="#042224"/></linearGradient><linearGradient id="linear-gradient-8" x1="-847.212" y1="119.644" x2="-847.212" y2="145.309" xlink:href="#linear-gradient-7"/><linearGradient id="linear-gradient-9" x1="-885.736" y1="81.139" x2="-885.736" y2="117.979" gradientTransform="matrix(-1, 0, 0, 1, -737.585, 13.153)" gradientUnits="userSpaceOnUse"><stop offset="0" stop-color="#040924"/><stop offset="0.1" stop-color="#0e27a2"/><stop offset="0.124" stop-color="#172ea2"/><stop offset="0.162" stop-color="#2f43a2"/><stop offset="0.211" stop-color="#5764a2"/><stop offset="0.268" stop-color="#8e91a2"/><stop offset="0.27" stop-color="#9093a2"/><stop offset="0.315" stop-color="#8d91a2"/><stop offset="0.342" stop-color="#858aa2"/><stop offset="0.364" stop-color="#777ea2"/><stop offset="0.384" stop-color="#626da2"/><stop offset="0.402" stop-color="#4857a2"/><stop offset="0.419" stop-color="#283da2"/><stop offset="0.43" stop-color="#0e27a2"/><stop offset="1" stop-color="#040924"/></linearGradient><linearGradient id="linear-gradient-10" x1="-904.998" y1="92.463" x2="-904.998" y2="118.128" gradientTransform="matrix(-1, 0, 0, 1, -737.585, 13.153)" gradientUnits="userSpaceOnUse"><stop offset="0" stop-color="#241804"/><stop offset="0.57" stop-color="#a26c0e"/><stop offset="0.581" stop-color="#a27628"/><stop offset="0.598" stop-color="#a28148"/><stop offset="0.616" stop-color="#a28b62"/><stop offset="0.636" stop-color="#a29277"/><stop offset="0.658" stop-color="#a29785"/><stop offset="0.685" stop-color="#a29a8d"/><stop offset="0.73" stop-color="#a29b90"/><stop offset="0.732" stop-color="#a29a8e"/><stop offset="0.789" stop-color="#a28657"/><stop offset="0.838" stop-color="#a2782f"/><stop offset="0.876" stop-color="#a26f17"/><stop offset="0.9" stop-color="#a26c0e"/><stop offset="1" stop-color="#241804"/></linearGradient><linearGradient id="linear-gradient-11" x1="-770.165" y1="92.463" x2="-770.165" y2="118.128" gradientTransform="matrix(-1, 0, 0, 1, -737.585, 13.153)" gradientUnits="userSpaceOnUse"><stop offset="0" stop-color="#040924"/><stop offset="0.57" stop-color="#0e27a2"/><stop offset="0.581" stop-color="#283da2"/><stop offset="0.598" stop-color="#4857a2"/><stop offset="0.616" stop-color="#626da2"/><stop offset="0.636" stop-color="#777ea2"/><stop offset="0.658" stop-color="#858aa2"/><stop offset="0.685" stop-color="#8d91a2"/><stop offset="0.73" stop-color="#9093a2"/><stop offset="0.732" stop-color="#8e91a2"/><stop offset="0.789" stop-color="#5764a2"/><stop offset="0.838" stop-color="#2f43a2"/><stop offset="0.876" stop-color="#172ea2"/><stop offset="0.9" stop-color="#0e27a2"/><stop offset="1" stop-color="#040924"/></linearGradient><linearGradient id="linear-gradient-12" x1="-789.427" y1="92.463" x2="-789.427" y2="118.128" xlink:href="#linear-gradient-10"/><linearGradient id="linear-gradient-13" x1="-827.952" y1="92.463" x2="-827.952" y2="118.128" xlink:href="#linear-gradient-10"/><linearGradient id="linear-gradient-14" x1="-866.474" y1="92.463" x2="-866.474" y2="118.128" xlink:href="#linear-gradient-10"/><linearGradient id="linear-gradient-15" x1="-808.69" y1="58.055" x2="-808.69" y2="83.72" gradientTransform="translate(-737.585 152.436) rotate(180)" xlink:href="#linear-gradient-9"/><linearGradient id="linear-gradient-16" x1="-847.212" y1="58.055" x2="-847.212" y2="83.72" gradientTransform="translate(-737.585 152.436) rotate(180)" xlink:href="#linear-gradient-9"/><linearGradient id="linear-gradient-17" x1="250.676" y1="-123.409" x2="250.676" y2="-97.524" gradientTransform="matrix(1, 0, 0, -1, -218.096, 8.252)" gradientUnits="userSpaceOnUse"><stop offset="0" stop-color="#241804"/><stop offset="0.4" stop-color="#a26c0e"/><stop offset="0.75" stop-color="#a29b90"/><stop offset="0.9" stop-color="#a26e13"/><stop offset="1" stop-color="#241804"/></linearGradient><linearGradient id="linear-gradient-18" x1="289.2" y1="-123.409" x2="289.2" y2="-97.524" xlink:href="#linear-gradient-17"/><linearGradient id="linear-gradient-19" x1="327.723" y1="-123.409" x2="327.723" y2="-97.524" xlink:href="#linear-gradient-17"/><linearGradient id="linear-gradient-20" x1="269.938" y1="-123.425" x2="269.938" y2="-86.269" gradientTransform="matrix(1, 0, 0, -1, -218.096, 8.252)" gradientUnits="userSpaceOnUse"><stop offset="0" stop-color="#040924"/><stop offset="0.1" stop-color="#132ba2"/><stop offset="0.25" stop-color="#9093a2"/><stop offset="0.6" stop-color="#0e27a2"/><stop offset="1" stop-color="#040924"/></linearGradient><linearGradient id="linear-gradient-21" x1="366.247" y1="-123.409" x2="366.247" y2="-97.524" xlink:href="#linear-gradient-17"/><linearGradient id="linear-gradient-22" x1="385.509" y1="-123.409" x2="385.509" y2="-97.524" gradientTransform="matrix(1, 0, 0, -1, -218.096, 8.252)" gradientUnits="userSpaceOnUse"><stop offset="0" stop-color="#040924"/><stop offset="0.4" stop-color="#0e27a2"/><stop offset="0.75" stop-color="#9093a2"/><stop offset="0.9" stop-color="#132ba2"/><stop offset="1" stop-color="#040924"/></linearGradient><linearGradient id="linear-gradient-23" x1="308.463" y1="-51.998" x2="308.463" y2="-26.113" gradientTransform="translate(-218.096 120.335)" xlink:href="#linear-gradient-20"/><linearGradient id="linear-gradient-24" x1="346.985" y1="-51.998" x2="346.985" y2="-26.113" gradientTransform="translate(-218.096 120.335)" xlink:href="#linear-gradient-20"/><linearGradient id="linear-gradient-25" x1="250.676" y1="-61.82" x2="250.676" y2="-35.935" gradientTransform="translate(-218.096 130.159)" xlink:href="#linear-gradient-2"/><linearGradient id="linear-gradient-26" x1="289.2" y1="-61.82" x2="289.2" y2="-35.935" gradientTransform="translate(-218.096 130.159)" xlink:href="#linear-gradient-2"/><linearGradient id="linear-gradient-27" x1="327.723" y1="-61.82" x2="327.723" y2="-35.935" gradientTransform="translate(-218.096 130.159)" xlink:href="#linear-gradient-2"/><linearGradient id="linear-gradient-28" x1="269.938" y1="-61.836" x2="269.938" y2="-24.68" gradientTransform="translate(-218.096 130.159)" gradientUnits="userSpaceOnUse"><stop offset="0" stop-color="#042224"/><stop offset="0.1" stop-color="#0e9ba2"/><stop offset="0.124" stop-color="#179ba2"/><stop offset="0.162" stop-color="#2f9da2"/><stop offset="0.211" stop-color="#579ea2"/><stop offset="0.268" stop-color="#8ea1a2"/><stop offset="0.27" stop-color="#90a1a2"/><stop offset="0.315" stop-color="#8da1a2"/><stop offset="0.342" stop-color="#85a0a2"/><stop offset="0.364" stop-color="#77a0a2"/><stop offset="0.384" stop-color="#629fa2"/><stop offset="0.402" stop-color="#489ea2"/><stop offset="0.419" stop-color="#289ca2"/><stop offset="0.43" stop-color="#0e9ba2"/><stop offset="1" stop-color="#042224"/></linearGradient><linearGradient id="linear-gradient-29" x1="366.247" y1="-61.82" x2="366.247" y2="-35.935" gradientTransform="translate(-218.096 130.159)" xlink:href="#linear-gradient-2"/><linearGradient id="linear-gradient-30" x1="385.509" y1="-61.82" x2="385.509" y2="-35.935" xlink:href="#linear-gradient-28"/><linearGradient id="linear-gradient-31" x1="308.463" y1="-113.587" x2="308.463" y2="-87.702" gradientTransform="matrix(1, 0, 0, -1, -218.096, 18.076)" gradientUnits="userSpaceOnUse"><stop offset="0" stop-color="#042224"/><stop offset="0.57" stop-color="#0e9ba2"/><stop offset="0.581" stop-color="#289ca2"/><stop offset="0.598" stop-color="#489ea2"/><stop offset="0.616" stop-color="#629fa2"/><stop offset="0.636" stop-color="#77a0a2"/><stop offset="0.658" stop-color="#85a0a2"/><stop offset="0.685" stop-color="#8da1a2"/><stop offset="0.73" stop-color="#90a1a2"/><stop offset="0.732" stop-color="#8ea1a2"/><stop offset="0.789" stop-color="#579ea2"/><stop offset="0.838" stop-color="#2f9da2"/><stop offset="0.876" stop-color="#179ba2"/><stop offset="0.9" stop-color="#0e9ba2"/><stop offset="1" stop-color="#042224"/></linearGradient><linearGradient id="linear-gradient-32" x1="346.985" y1="-113.587" x2="346.985" y2="-87.702" xlink:href="#linear-gradient-31"/></defs><title>Homologous_Recombination_Repair</title><g id="Homologous_Recombination_Repair"><g id="BOTTOM"><path class="cls-1" d="M136.951,105.655c11.2,0,3.138-37.279,19.262-37.279h3.138c-11.2,0-3.138,37.279-19.262,37.279Z" transform="translate(-20.599 -67.593)"/><path class="cls-2" d="M156.213,94.347c11.2,0,3.138-25.971,19.262-25.971l3.138.019c-11.2-.019-3.138,25.952-19.262,25.952Z" transform="translate(-20.599 -67.593)"/><path class="cls-3" d="M21.38,94.347c11.2,0,3.138-25.971,19.262-25.971H43.78c-11.2,0-3.138,25.971-19.262,25.971Z" transform="translate(-20.599 -67.593)"/><path class="cls-4" d="M40.642,94.347c11.2,0,3.138-25.971,19.262-25.971l3.138.019c-11.2-.019-3.138,25.952-19.262,25.952Z" transform="translate(-20.599 -67.593)"/><path class="cls-5" d="M79.167,94.347c11.2,0,3.138-25.971,19.262-25.971l3.138.019c-11.2-.019-3.138,25.952-19.262,25.952Z" transform="translate(-20.599 -67.593)"/><path class="cls-6" d="M117.689,94.347c11.2,0,3.138-25.971,19.262-25.971l3.138.019c-11.2-.019-3.138,25.952-19.262,25.952Z" transform="translate(-20.599 -67.593)"/><path class="cls-7" d="M59.9,105.655c11.2,0,3.138,25.971,19.262,25.971H82.3c-11.2,0-3.138-25.971-19.262-25.971Z" transform="translate(-20.599 -67.593)"/><path class="cls-8" d="M98.427,105.655c11.2,0,3.138,25.971,19.262,25.971h3.138c-11.2,0-3.138-25.971-19.262-25.971Z" transform="translate(-20.599 -67.593)"/></g><g id="BOTTOM_LINE"><path class="cls-9" d="M159.354,95.127h-3.138a.78.78,0,0,1,0-1.56c4.685,0,5.721-4.081,6.872-10.8.61-3.565,1.241-7.251,2.927-10.134,1.982-3.389,5.077-5.036,9.463-5.036l3.143.019a.78.78,0,0,1,0,1.56H178.6c-4.147,0-5.275,4-6.638,10.585-.746,3.6-1.517,7.326-3.266,10.248A10.078,10.078,0,0,1,159.354,95.127Zm15.059-25.934a8.217,8.217,0,0,0-7.051,4.227c-1.543,2.638-2.149,6.182-2.736,9.609-.7,4.068-1.409,8.23-3.818,10.455,6.89-.815,8.281-7.532,9.629-14.041C171.265,75.449,172.112,71.362,174.413,69.193Z" transform="translate(-20.599 -67.593)"/><path class="cls-10" d="M24.518,95.127H21.38a.78.78,0,1,1,0-1.56c4.156,0,5.285-4,6.65-10.6.746-3.6,1.517-7.329,3.266-10.252A10.078,10.078,0,0,1,40.642,67.6H43.78a.78.78,0,1,1,0,1.56c-4.156,0-5.285,4-6.65,10.6-.746,3.6-1.517,7.329-3.266,10.252A10.078,10.078,0,0,1,24.518,95.127ZM39.555,69.2c-7.21.616-8.626,7.457-10,14.083-.825,3.984-1.669,8.06-3.954,10.238,7.21-.616,8.626-7.457,10-14.083C36.426,75.455,37.27,71.379,39.555,69.2Z" transform="translate(-20.599 -67.593)"/><path class="cls-9" d="M43.78,95.127H40.642a.78.78,0,1,1,0-1.56c4.685,0,5.721-4.081,6.872-10.8.61-3.565,1.241-7.251,2.927-10.134C52.423,69.243,55.518,67.6,59.9,67.6l3.143.019a.78.78,0,0,1,0,1.56h-.012c-4.147,0-5.275,4-6.638,10.585-.746,3.6-1.517,7.326-3.266,10.248A10.078,10.078,0,0,1,43.78,95.127ZM58.838,69.193a8.217,8.217,0,0,0-7.051,4.227c-1.543,2.638-2.149,6.182-2.736,9.609-.7,4.068-1.409,8.23-3.818,10.455,6.89-.815,8.281-7.532,9.629-14.041C55.69,75.449,56.537,71.362,58.838,69.193Z" transform="translate(-20.599 -67.593)"/><path class="cls-9" d="M82.3,95.127H79.167a.78.78,0,0,1,0-1.56c4.685,0,5.721-4.081,6.872-10.8.61-3.565,1.241-7.251,2.927-10.134,1.982-3.389,5.077-5.036,9.463-5.036l3.143.019a.78.78,0,0,1,0,1.56h-.012c-4.147,0-5.275,4-6.638,10.585-.746,3.6-1.517,7.326-3.266,10.248A10.078,10.078,0,0,1,82.3,95.127ZM97.363,69.193a8.217,8.217,0,0,0-7.051,4.227c-1.543,2.638-2.149,6.182-2.736,9.609-.7,4.068-1.409,8.23-3.818,10.455,6.89-.815,8.281-7.532,9.629-14.041C94.215,75.449,95.062,71.362,97.363,69.193Z" transform="translate(-20.599 -67.593)"/><path class="cls-9" d="M120.827,95.127h-3.138a.78.78,0,1,1,0-1.56c4.685,0,5.721-4.081,6.872-10.8.61-3.565,1.241-7.251,2.927-10.134,1.982-3.389,5.077-5.036,9.463-5.036l3.143.019a.78.78,0,0,1,0,1.56h-.012c-4.147,0-5.275,4-6.638,10.585-.746,3.6-1.517,7.326-3.266,10.248A10.078,10.078,0,0,1,120.827,95.127Zm15.059-25.934a8.217,8.217,0,0,0-7.051,4.227c-1.543,2.638-2.149,6.182-2.736,9.609-.7,4.068-1.409,8.23-3.818,10.455,6.89-.815,8.281-7.532,9.629-14.041C132.738,75.449,133.585,71.362,135.886,69.193Z" transform="translate(-20.599 -67.593)"/><path class="cls-10" d="M72.387,110c1.749,2.923,2.52,6.649,3.266,10.252,1.365,6.595,2.494,10.6,6.65,10.6a.78.78,0,0,1,0,1.56H79.165a10.078,10.078,0,0,1-9.346-5.121c-1.749-2.923-2.52-6.648-3.266-10.252-1.365-6.595-2.494-10.6-6.65-10.6a.78.78,0,1,1,0-1.56h3.138A10.078,10.078,0,0,1,72.387,110Zm1.738,10.568c-1.372-6.626-2.787-13.467-10-14.083,2.285,2.177,3.129,6.254,3.954,10.238,1.372,6.626,2.787,13.467,10,14.083C75.794,128.624,74.95,124.547,74.125,120.564Z" transform="translate(-20.599 -67.593)"/><path class="cls-10" d="M110.914,110c1.749,2.923,2.52,6.649,3.266,10.252,1.365,6.595,2.494,10.6,6.65,10.6a.78.78,0,0,1,0,1.56h-3.138a10.078,10.078,0,0,1-9.346-5.121c-1.749-2.923-2.52-6.648-3.266-10.252-1.365-6.595-2.494-10.6-6.65-10.6a.78.78,0,1,1,0-1.56h3.138A10.078,10.078,0,0,1,110.914,110Zm1.738,10.568c-1.372-6.626-2.787-13.467-10-14.083,2.285,2.177,3.129,6.254,3.954,10.238,1.372,6.626,2.787,13.467,10,14.083C114.32,128.624,113.476,124.547,112.652,120.564Z" transform="translate(-20.599 -67.593)"/><path class="cls-10" d="M140.089,106.438h-3.138a.783.783,0,0,1,0-1.565c4.414,0,5.5-7.5,6.64-15.436,1.477-10.239,3.15-21.843,12.622-21.843h3.138a.783.783,0,1,1,0,1.565c-4.413,0-5.495,7.5-6.64,15.436C151.234,94.833,149.561,106.438,140.089,106.438Zm15.548-37.261c-7.614.484-9.079,10.647-10.5,20.484-.914,6.335-1.79,12.412-4.475,15.195,7.613-.484,9.079-10.648,10.5-20.484C152.076,78.036,152.952,71.959,155.637,69.176Z" transform="translate(-20.599 -67.593)"/></g><g id="BOTTOM-2" data-name="BOTTOM"><path class="cls-11" d="M136.951,94.345c11.2,0,3.138,37.279,19.262,37.279h3.138c-11.2,0-3.138-37.279-19.262-37.279Z" transform="translate(-20.599 -67.593)"/><path class="cls-12" d="M156.213,105.653c11.2,0,3.138,25.971,19.262,25.971l3.138-.019c-11.2.019-3.138-25.952-19.262-25.952Z" transform="translate(-20.599 -67.593)"/><path class="cls-13" d="M21.38,105.653c11.2,0,3.138,25.971,19.262,25.971H43.78c-11.2,0-3.138-25.971-19.262-25.971Z" transform="translate(-20.599 -67.593)"/><path class="cls-14" d="M40.642,105.653c11.2,0,3.138,25.971,19.262,25.971l3.138-.019c-11.2.019-3.138-25.952-19.262-25.952Z" transform="translate(-20.599 -67.593)"/><path class="cls-15" d="M79.167,105.653c11.2,0,3.138,25.971,19.262,25.971l3.138-.019c-11.2.019-3.138-25.952-19.262-25.952Z" transform="translate(-20.599 -67.593)"/><path class="cls-16" d="M117.689,105.653c11.2,0,3.138,25.971,19.262,25.971l3.138-.019c-11.2.019-3.138-25.952-19.262-25.952Z" transform="translate(-20.599 -67.593)"/><path class="cls-17" d="M59.9,94.345c11.2,0,3.138-25.971,19.262-25.971H82.3c-11.2,0-3.138,25.971-19.262,25.971Z" transform="translate(-20.599 -67.593)"/><path class="cls-18" d="M98.427,94.345c11.2,0,3.138-25.971,19.262-25.971h3.138c-11.2,0-3.138,25.971-19.262,25.971Z" transform="translate(-20.599 -67.593)"/></g><g id="BOTTOM_LINE-2" data-name="BOTTOM_LINE"><path class="cls-19" d="M168.7,109.992c1.749,2.922,2.52,6.646,3.266,10.248,1.364,6.585,2.491,10.585,6.638,10.585h.012a.78.78,0,0,1,0,1.56l-3.143.019c-4.385,0-7.481-1.647-9.463-5.036-1.686-2.882-2.317-6.569-2.927-10.134-1.15-6.721-2.187-10.8-6.872-10.8a.78.78,0,0,1,0-1.56h3.138A10.078,10.078,0,0,1,168.7,109.992Zm1.738,10.564c-1.348-6.509-2.74-13.226-9.629-14.041,2.408,2.225,3.121,6.388,3.818,10.455.587,3.427,1.193,6.972,2.736,9.609a8.217,8.217,0,0,0,7.051,4.227C172.112,128.638,171.265,124.551,170.437,120.557Z" transform="translate(-20.599 -67.593)"/><path class="cls-20" d="M33.864,109.993c1.749,2.923,2.52,6.649,3.266,10.252,1.365,6.595,2.494,10.6,6.65,10.6a.78.78,0,1,1,0,1.56H40.642a10.078,10.078,0,0,1-9.346-5.121c-1.749-2.923-2.52-6.648-3.266-10.252-1.365-6.595-2.494-10.6-6.65-10.6a.78.78,0,0,1,0-1.56h3.138A10.078,10.078,0,0,1,33.864,109.993ZM35.6,120.561c-1.372-6.626-2.787-13.467-10-14.083,2.285,2.177,3.129,6.254,3.954,10.238,1.372,6.626,2.787,13.467,10,14.083C37.27,128.621,36.426,124.545,35.6,120.561Z" transform="translate(-20.599 -67.593)"/><path class="cls-19" d="M53.125,109.992c1.749,2.922,2.52,6.646,3.266,10.248,1.364,6.585,2.491,10.585,6.638,10.585h.012a.78.78,0,0,1,0,1.56L59.9,132.4c-4.385,0-7.481-1.647-9.463-5.036-1.686-2.882-2.317-6.569-2.927-10.134-1.15-6.721-2.187-10.8-6.872-10.8a.78.78,0,0,1,0-1.56H43.78A10.078,10.078,0,0,1,53.125,109.992Zm1.738,10.564c-1.348-6.509-2.74-13.226-9.629-14.041,2.408,2.225,3.121,6.388,3.818,10.455.587,3.427,1.193,6.972,2.736,9.609a8.217,8.217,0,0,0,7.051,4.227C56.537,128.638,55.69,124.551,54.863,120.557Z" transform="translate(-20.599 -67.593)"/><path class="cls-19" d="M91.65,109.992c1.749,2.922,2.52,6.646,3.266,10.248,1.364,6.585,2.491,10.585,6.638,10.585h.012a.78.78,0,0,1,0,1.56l-3.143.019c-4.385,0-7.481-1.647-9.463-5.036-1.686-2.882-2.317-6.569-2.927-10.134-1.15-6.721-2.187-10.8-6.872-10.8a.78.78,0,0,1,0-1.56H82.3A10.078,10.078,0,0,1,91.65,109.992Zm1.738,10.564c-1.348-6.509-2.74-13.226-9.629-14.041,2.408,2.225,3.121,6.388,3.818,10.455.587,3.427,1.193,6.972,2.736,9.609a8.217,8.217,0,0,0,7.051,4.227C95.062,128.638,94.215,124.551,93.388,120.557Z" transform="translate(-20.599 -67.593)"/><path class="cls-19" d="M130.172,109.992c1.749,2.922,2.52,6.646,3.266,10.248,1.364,6.585,2.491,10.585,6.638,10.585h.012a.78.78,0,0,1,0,1.56l-3.143.019c-4.385,0-7.481-1.647-9.463-5.036-1.686-2.882-2.317-6.569-2.927-10.134-1.15-6.721-2.187-10.8-6.872-10.8a.78.78,0,1,1,0-1.56h3.138A10.078,10.078,0,0,1,130.172,109.992Zm1.738,10.564c-1.348-6.509-2.74-13.226-9.629-14.041,2.408,2.225,3.121,6.388,3.818,10.455.587,3.427,1.193,6.972,2.736,9.609a8.217,8.217,0,0,0,7.051,4.227C133.585,128.638,132.738,124.551,131.91,120.557Z" transform="translate(-20.599 -67.593)"/><path class="cls-20" d="M159.351,132.407h-3.138c-9.472,0-11.145-11.6-12.622-21.843-1.145-7.938-2.226-15.436-6.64-15.436a.783.783,0,0,1,0-1.565h3.138c9.472,0,11.145,11.6,12.622,21.843,1.145,7.938,2.226,15.436,6.64,15.436a.783.783,0,1,1,0,1.565ZM140.665,95.145c2.685,2.783,3.561,8.859,4.475,15.195,1.419,9.836,2.884,20,10.5,20.484-2.685-2.782-3.561-8.859-4.475-15.195C149.744,105.793,148.278,95.63,140.665,95.145Z" transform="translate(-20.599 -67.593)"/><path class="cls-20" d="M63.042,95.125H59.9a.78.78,0,0,1,0-1.56c4.156,0,5.285-4,6.65-10.6.746-3.6,1.517-7.329,3.266-10.252a10.078,10.078,0,0,1,9.346-5.121H82.3a.78.78,0,1,1,0,1.56c-4.156,0-5.285,4-6.65,10.6-.746,3.6-1.517,7.329-3.266,10.252A10.078,10.078,0,0,1,63.042,95.125ZM78.079,69.2c-7.21.616-8.626,7.457-10,14.083-.825,3.984-1.669,8.06-3.954,10.238,7.21-.616,8.626-7.457,10-14.083C74.95,75.453,75.794,71.376,78.079,69.2Z" transform="translate(-20.599 -67.593)"/><path class="cls-20" d="M101.568,95.125H98.43a.78.78,0,1,1,0-1.56c4.156,0,5.285-4,6.65-10.6.746-3.6,1.517-7.329,3.266-10.252a10.078,10.078,0,0,1,9.346-5.121h3.138a.78.78,0,0,1,0,1.56c-4.156,0-5.285,4-6.65,10.6-.746,3.6-1.517,7.329-3.266,10.252A10.078,10.078,0,0,1,101.568,95.125ZM116.6,69.2c-7.21.616-8.626,7.457-10,14.083-.825,3.984-1.669,8.06-3.954,10.238,7.21-.616,8.626-7.457,10-14.083C113.476,75.453,114.32,71.376,116.6,69.2Z" transform="translate(-20.599 -67.593)"/></g><g id="TOP" class="cls-21"><path class="cls-22" d="M43.78,105.653c-11.2,0-3.138,25.971-19.262,25.971H21.38c11.2,0,3.138-25.971,19.262-25.971Z" transform="translate(-20.599 -67.593)"/><path class="cls-23" d="M82.3,105.653c-11.2,0-3.138,25.971-19.262,25.971H59.9c11.2,0,3.138-25.971,19.262-25.971Z" transform="translate(-20.599 -67.593)"/><path class="cls-24" d="M120.827,105.653c-11.2,0-3.138,25.971-19.262,25.971H98.427c11.2,0,3.138-25.971,19.262-25.971Z" transform="translate(-20.599 -67.593)"/><path class="cls-25" d="M63.042,94.345c-11.2,0-3.138,37.279-19.262,37.279H40.642c11.2,0,3.138-37.279,19.262-37.279Z" transform="translate(-20.599 -67.593)"/><path class="cls-26" d="M159.351,105.653c-11.2,0-3.138,25.971-19.262,25.971h-3.138c11.2,0,3.138-25.971,19.262-25.971Z" transform="translate(-20.599 -67.593)"/><path class="cls-27" d="M178.613,105.653c-11.2,0-3.138,25.971-19.262,25.971h-3.138c11.2,0,3.138-25.971,19.262-25.971Z" transform="translate(-20.599 -67.593)"/><path class="cls-28" d="M101.567,94.345c-11.2,0-3.138-25.971-19.262-25.971H79.167c11.2,0,3.138,25.971,19.262,25.971Z" transform="translate(-20.599 -67.593)"/><path class="cls-29" d="M140.089,94.345c-11.2,0-3.138-25.971-19.262-25.971h-3.138c11.2,0,3.138,25.971,19.262,25.971Z" transform="translate(-20.599 -67.593)"/></g><g id="TOP_LINE"><path class="cls-19" d="M44.56,105.653a.78.78,0,0,1-.78.78c-4.156,0-5.285,4-6.65,10.6-.746,3.6-1.517,7.329-3.266,10.252a10.078,10.078,0,0,1-9.346,5.121H21.38a.78.78,0,0,1,0-1.56c4.156,0,5.285-4,6.65-10.6.746-3.6,1.517-7.329,3.266-10.252a10.078,10.078,0,0,1,9.346-5.121H43.78A.78.78,0,0,1,44.56,105.653ZM35.6,116.716c.825-3.984,1.669-8.06,3.953-10.238-7.21.616-8.626,7.457-10,14.083-.825,3.984-1.669,8.06-3.954,10.238C32.814,130.182,34.23,123.341,35.6,116.716Z" transform="translate(-20.599 -67.593)"/><path class="cls-20" d="M43.78,132.424H40.642a.8.8,0,1,1,0-1.6c4.4,0,5.479-7.49,6.622-15.421,1.478-10.246,3.153-21.858,12.64-21.858h3.138a.8.8,0,0,1,0,1.6c-4.4,0-5.479,7.491-6.623,15.421C54.941,120.812,53.267,132.424,43.78,132.424Zm15.5-37.258c-7.56.522-9.021,10.657-10.436,20.466C47.937,121.944,47.063,128,44.4,130.8c7.56-.521,9.021-10.656,10.436-20.465C55.746,104.024,56.619,97.967,59.283,95.166Z" transform="translate(-20.599 -67.593)"/><path class="cls-19" d="M160.139,105.653a.78.78,0,0,1-.78.78c-4.156,0-5.285,4-6.65,10.6-.746,3.6-1.517,7.329-3.266,10.252A10.078,10.078,0,0,1,140.1,132.4h-3.138a.78.78,0,0,1,0-1.56c4.156,0,5.285-4,6.65-10.6.746-3.6,1.517-7.329,3.266-10.252a10.078,10.078,0,0,1,9.346-5.121h3.138A.78.78,0,0,1,160.139,105.653Zm-8.958,11.063c.825-3.984,1.669-8.06,3.953-10.238-7.21.616-8.626,7.457-10,14.083-.825,3.984-1.669,8.06-3.954,10.238C148.393,130.182,149.809,123.341,151.18,116.716Z" transform="translate(-20.599 -67.593)"/><path class="cls-20" d="M179.4,105.653a.78.78,0,0,1-.78.78c-4.156,0-5.285,4-6.65,10.6-.746,3.6-1.517,7.329-3.266,10.252a10.078,10.078,0,0,1-9.346,5.121H156.22a.78.78,0,1,1,0-1.56c4.156,0,5.285-4,6.65-10.6.746-3.6,1.517-7.329,3.266-10.252a10.078,10.078,0,0,1,9.346-5.121h3.138A.78.78,0,0,1,179.4,105.653Zm-8.958,11.063c.825-3.984,1.669-8.06,3.954-10.238-7.21.616-8.626,7.457-10,14.083-.825,3.984-1.669,8.06-3.953,10.238C167.655,130.182,169.07,123.341,170.442,116.716Z" transform="translate(-20.599 -67.593)"/><path class="cls-19" d="M83.084,105.653a.78.78,0,0,1-.78.78c-4.156,0-5.285,4-6.65,10.6-.746,3.6-1.517,7.329-3.266,10.252a10.078,10.078,0,0,1-9.346,5.121H59.9a.78.78,0,0,1,0-1.56c4.156,0,5.285-4,6.65-10.6.746-3.6,1.517-7.329,3.266-10.252a10.078,10.078,0,0,1,9.346-5.121H82.3A.78.78,0,0,1,83.084,105.653Zm-8.958,11.063c.825-3.984,1.669-8.06,3.953-10.238-7.21.616-8.626,7.457-10,14.083-.825,3.984-1.669,8.06-3.954,10.238C71.339,130.182,72.755,123.341,74.126,116.716Z" transform="translate(-20.599 -67.593)"/><path class="cls-19" d="M121.61,105.653a.78.78,0,0,1-.78.78c-4.156,0-5.285,4-6.65,10.6-.746,3.6-1.517,7.329-3.266,10.252a10.078,10.078,0,0,1-9.346,5.121H98.43a.78.78,0,0,1,0-1.56c4.156,0,5.285-4,6.65-10.6.746-3.6,1.517-7.329,3.266-10.252a10.078,10.078,0,0,1,9.346-5.121h3.138A.78.78,0,0,1,121.61,105.653Zm-8.958,11.063c.825-3.984,1.669-8.06,3.953-10.238-7.21.616-8.626,7.457-10,14.083-.825,3.984-1.669,8.06-3.954,10.238C109.864,130.182,111.28,123.341,112.652,116.716Z" transform="translate(-20.599 -67.593)"/><path class="cls-20" d="M140.089,95.125h-3.138A10.078,10.078,0,0,1,127.6,90c-1.749-2.923-2.52-6.648-3.266-10.252-1.365-6.595-2.494-10.6-6.65-10.6a.78.78,0,0,1,0-1.56h3.138a10.078,10.078,0,0,1,9.346,5.121c1.749,2.923,2.52,6.648,3.266,10.252,1.365,6.595,2.494,10.6,6.65,10.6a.78.78,0,0,1,0,1.56ZM121.914,69.2c2.285,2.177,3.129,6.254,3.953,10.238,1.372,6.626,2.787,13.467,10,14.083-2.285-2.177-3.129-6.254-3.954-10.238C130.539,76.656,129.123,69.815,121.914,69.2Z" transform="translate(-20.599 -67.593)"/><path class="cls-20" d="M101.567,95.125H98.428A10.078,10.078,0,0,1,89.082,90c-1.749-2.923-2.52-6.648-3.266-10.252-1.365-6.595-2.494-10.6-6.65-10.6a.78.78,0,1,1,0-1.56H82.3a10.078,10.078,0,0,1,9.346,5.121c1.749,2.923,2.52,6.648,3.266,10.252,1.365,6.595,2.494,10.6,6.65,10.6a.78.78,0,0,1,0,1.56ZM83.391,69.2c2.285,2.177,3.129,6.254,3.953,10.238,1.372,6.626,2.787,13.467,10,14.083-2.285-2.177-3.129-6.254-3.954-10.238C92.017,76.656,90.6,69.815,83.391,69.2Z" transform="translate(-20.599 -67.593)"/></g><g id="TOP-2" data-name="TOP" class="cls-21"><path class="cls-30" d="M43.78,94.347c-11.2,0-3.138-25.971-19.262-25.971H21.38c11.2,0,3.138,25.971,19.262,25.971Z" transform="translate(-20.599 -67.593)"/><path class="cls-31" d="M82.3,94.347c-11.2,0-3.138-25.971-19.262-25.971H59.9c11.2,0,3.138,25.971,19.262,25.971Z" transform="translate(-20.599 -67.593)"/><path class="cls-32" d="M120.827,94.347c-11.2,0-3.138-25.971-19.262-25.971H98.427c11.2,0,3.138,25.971,19.262,25.971Z" transform="translate(-20.599 -67.593)"/><path class="cls-33" d="M63.042,105.655c-11.2,0-3.138-37.279-19.262-37.279H40.642c11.2,0,3.138,37.279,19.262,37.279Z" transform="translate(-20.599 -67.593)"/><path class="cls-34" d="M159.351,94.347c-11.2,0-3.138-25.971-19.262-25.971h-3.138c11.2,0,3.138,25.971,19.262,25.971Z" transform="translate(-20.599 -67.593)"/><path class="cls-35" d="M178.613,94.347c-11.2,0-3.138-25.971-19.262-25.971h-3.138c11.2,0,3.138,25.971,19.262,25.971Z" transform="translate(-20.599 -67.593)"/><path class="cls-36" d="M101.567,105.655c-11.2,0-3.138,25.971-19.262,25.971H79.167c11.2,0,3.138-25.971,19.262-25.971Z" transform="translate(-20.599 -67.593)"/><path class="cls-37" d="M140.089,105.655c-11.2,0-3.138,25.971-19.262,25.971h-3.138c11.2,0,3.138-25.971,19.262-25.971Z" transform="translate(-20.599 -67.593)"/></g><g id="TOP_LINE-2" data-name="TOP_LINE"><path class="cls-9" d="M43.78,95.127H40.641A10.078,10.078,0,0,1,31.3,90.007c-1.749-2.923-2.52-6.648-3.266-10.252-1.365-6.595-2.494-10.6-6.65-10.6a.78.78,0,1,1,0-1.56h3.138a10.078,10.078,0,0,1,9.346,5.121c1.749,2.923,2.52,6.648,3.266,10.252,1.365,6.595,2.494,10.6,6.65,10.6a.78.78,0,1,1,0,1.56ZM25.6,69.2c2.285,2.177,3.129,6.254,3.954,10.238,1.372,6.626,2.787,13.467,10,14.083-2.285-2.177-3.129-6.254-3.953-10.238C34.23,76.658,32.814,69.818,25.6,69.2Z" transform="translate(-20.599 -67.593)"/><path class="cls-10" d="M63.042,106.438H59.9c-9.472,0-11.145-11.6-12.622-21.843-1.145-7.938-2.226-15.436-6.64-15.436a.783.783,0,1,1,0-1.565H43.78c9.472,0,11.145,11.6,12.622,21.843,1.145,7.938,2.226,15.436,6.64,15.436a.783.783,0,0,1,0,1.565ZM44.355,69.176c2.685,2.783,3.561,8.859,4.475,15.195,1.419,9.836,2.884,20,10.5,20.484C56.643,102.072,55.767,96,54.853,89.66,53.434,79.824,51.969,69.661,44.355,69.176Z" transform="translate(-20.599 -67.593)"/><path class="cls-9" d="M159.358,95.127H156.22a10.078,10.078,0,0,1-9.346-5.121c-1.749-2.923-2.52-6.648-3.266-10.252-1.365-6.595-2.494-10.6-6.65-10.6a.78.78,0,0,1,0-1.56H140.1a10.078,10.078,0,0,1,9.346,5.121c1.749,2.923,2.52,6.648,3.266,10.252,1.365,6.595,2.494,10.6,6.65,10.6a.78.78,0,0,1,0,1.56ZM141.183,69.2c2.285,2.177,3.129,6.254,3.954,10.238,1.372,6.626,2.787,13.467,10,14.083-2.285-2.177-3.129-6.254-3.953-10.238C149.809,76.658,148.393,69.818,141.183,69.2Z" transform="translate(-20.599 -67.593)"/><path class="cls-10" d="M178.62,95.127h-3.138a10.078,10.078,0,0,1-9.346-5.121c-1.749-2.923-2.52-6.648-3.266-10.252-1.365-6.595-2.494-10.6-6.65-10.6a.78.78,0,1,1,0-1.56h3.138a10.078,10.078,0,0,1,9.346,5.121c1.749,2.923,2.52,6.648,3.266,10.252,1.365,6.595,2.494,10.6,6.65,10.6a.78.78,0,0,1,0,1.56ZM160.445,69.2c2.285,2.177,3.129,6.254,3.953,10.238,1.372,6.626,2.787,13.467,10,14.083-2.285-2.177-3.129-6.254-3.954-10.238C169.07,76.658,167.655,69.818,160.445,69.2Z" transform="translate(-20.599 -67.593)"/><path class="cls-9" d="M82.3,95.127H79.166a10.078,10.078,0,0,1-9.346-5.121c-1.749-2.923-2.52-6.648-3.266-10.252-1.365-6.595-2.494-10.6-6.65-10.6a.78.78,0,0,1,0-1.56h3.138a10.078,10.078,0,0,1,9.346,5.121c1.749,2.923,2.52,6.648,3.266,10.252,1.365,6.595,2.494,10.6,6.65,10.6a.78.78,0,0,1,0,1.56ZM64.129,69.2c2.285,2.177,3.129,6.254,3.954,10.238,1.372,6.626,2.787,13.467,10,14.083-2.285-2.177-3.129-6.254-3.953-10.238C72.755,76.658,71.339,69.818,64.129,69.2Z" transform="translate(-20.599 -67.593)"/><path class="cls-9" d="M120.83,95.127h-3.138a10.078,10.078,0,0,1-9.346-5.121c-1.749-2.923-2.52-6.648-3.266-10.252-1.365-6.595-2.494-10.6-6.65-10.6a.78.78,0,1,1,0-1.56h3.138a10.078,10.078,0,0,1,9.346,5.121c1.749,2.923,2.52,6.648,3.266,10.252,1.365,6.595,2.494,10.6,6.65,10.6a.78.78,0,0,1,0,1.56ZM102.654,69.2c2.285,2.177,3.129,6.254,3.954,10.238,1.372,6.626,2.787,13.467,10,14.083-2.285-2.177-3.129-6.254-3.953-10.238C111.28,76.658,109.864,69.818,102.654,69.2Z" transform="translate(-20.599 -67.593)"/><path class="cls-10" d="M140.869,105.655a.78.78,0,0,1-.78.78c-4.156,0-5.285,4-6.65,10.6-.746,3.6-1.517,7.329-3.266,10.252a10.078,10.078,0,0,1-9.346,5.121h-3.138a.78.78,0,0,1,0-1.56c4.156,0,5.285-4,6.65-10.6.746-3.6,1.517-7.329,3.266-10.252a10.078,10.078,0,0,1,9.346-5.121h3.138A.78.78,0,0,1,140.869,105.655Zm-8.958,11.063c.825-3.984,1.669-8.06,3.954-10.238-7.21.616-8.626,7.457-10,14.083-.825,3.984-1.669,8.06-3.953,10.238C129.123,130.185,130.539,123.344,131.911,116.718Z" transform="translate(-20.599 -67.593)"/><path class="cls-10" d="M102.347,105.655a.78.78,0,0,1-.78.78c-4.156,0-5.285,4-6.65,10.6-.746,3.6-1.517,7.329-3.266,10.252a10.078,10.078,0,0,1-9.346,5.121H79.167a.78.78,0,0,1,0-1.56c4.156,0,5.285-4,6.65-10.6.746-3.6,1.517-7.329,3.266-10.252a10.078,10.078,0,0,1,9.346-5.121h3.138A.78.78,0,0,1,102.347,105.655Zm-8.958,11.063c.825-3.984,1.669-8.06,3.954-10.238-7.21.616-8.626,7.457-10,14.083-.825,3.984-1.669,8.06-3.953,10.238C90.6,130.185,92.017,123.344,93.388,116.718Z" transform="translate(-20.599 -67.593)"/></g></g></svg>