<svg id="Layer_1" data-name="Layer 1" xmlns="http://www.w3.org/2000/svg" xmlns:xlink="http://www.w3.org/1999/xlink" viewBox="0 0 47.421 47.507"><defs><style>.cls-1{fill:url(#radial-gradient);}.cls-2{fill:#b59a20;}.cls-3{fill:url(#radial-gradient-2);}.cls-4{fill:url(#linear-gradient);}.cls-5{fill:url(#linear-gradient-2);}.cls-6{fill:url(#linear-gradient-3);}.cls-7{fill:url(#linear-gradient-4);}</style><radialGradient id="radial-gradient" cx="97.166" cy="115.604" r="22.585" gradientTransform="matrix(1, 0, 0, -1, -76.79, 133.922)" gradientUnits="userSpaceOnUse"><stop offset="0" stop-color="#c09e1d"/><stop offset="1" stop-color="#336646"/></radialGradient><radialGradient id="radial-gradient-2" cx="-591.664" cy="422.6" r="23.671" gradientTransform="matrix(0, 1, 1, 0, -322.843, 691.415)" gradientUnits="userSpaceOnUse"><stop offset="0.921" stop-color="#c09e1d"/><stop offset="0.97" stop-color="#ffe4b2"/><stop offset="1" stop-color="#b59a20"/></radialGradient><linearGradient id="linear-gradient" x1="-83.862" y1="450.807" x2="-94.646" y2="440.023" gradientTransform="matrix(0.707, 0.707, 0.707, -0.707, -243.577, 417.211)" gradientUnits="userSpaceOnUse"><stop offset="0" stop-color="#286de7"/><stop offset="0.4" stop-color="#4553f0"/><stop offset="1" stop-color="#7825ff"/></linearGradient><linearGradient id="linear-gradient-2" x1="-106.144" y1="473.091" x2="-116.929" y2="462.307" xlink:href="#linear-gradient"/><linearGradient id="linear-gradient-3" x1="-61.559" y1="473.097" x2="-72.343" y2="462.313" xlink:href="#linear-gradient"/><linearGradient id="linear-gradient-4" x1="-83.862" y1="495.399" x2="-94.646" y2="484.615" xlink:href="#linear-gradient"/></defs><title>microbe_03</title><g id="MICROBE"><g id="MICROBE-2" data-name="MICROBE"><circle class="cls-1" cx="24.03" cy="23.477" r="22.585"/><path class="cls-2" d="M100.407,123.738a23.618,23.618,0,1,1,23.617-23.618A23.645,23.645,0,0,1,100.407,123.738Zm0-45.17a21.553,21.553,0,1,0,21.553,21.553A21.577,21.577,0,0,0,100.407,78.568Z" transform="translate(-76.79 -76.231)"/><path class="cls-3" d="M77,100.121a23.411,23.411,0,1,1,23.41,23.411A23.437,23.437,0,0,1,77,100.121Zm45.17,0a21.76,21.76,0,1,0-21.76,21.759A21.784,21.784,0,0,0,122.167,100.121Z" transform="translate(-76.79 -76.231)"/><polygon class="cls-4" points="8.265 46.781 0.639 39.156 8.265 31.531 15.89 39.156 8.265 46.781"/><polygon class="cls-5" points="8.265 15.25 0.639 7.625 8.265 0 15.89 7.625 8.265 15.25"/><polygon class="cls-6" points="39.796 46.781 32.17 39.156 39.796 31.531 47.421 39.156 39.796 46.781"/><polygon class="cls-7" points="39.796 15.25 32.17 7.625 39.796 0 47.421 7.625 39.796 15.25"/></g></g></svg>