<svg id="Layer_1" data-name="Layer 1" xmlns="http://www.w3.org/2000/svg" xmlns:xlink="http://www.w3.org/1999/xlink" viewBox="0 0 72.01 22.948"><defs><style>.cls-1{fill:url(#linear-gradient);}.cls-2{fill:#d32976;}.cls-3{font-size:12px;fill:#fff;font-family:Arial-BoldMT, Arial;font-weight:700;}.cls-4{letter-spacing:-0.074em;}.cls-5{letter-spacing:-0.037em;}</style><linearGradient id="linear-gradient" x1="119.686" y1="97.74" x2="189.686" y2="97.74" gradientTransform="translate(-118.363 -86.392)" gradientUnits="userSpaceOnUse"><stop offset="0" stop-color="#d32976"/><stop offset="1" stop-color="#53b278"/></linearGradient></defs><title>RABGGTA</title><g id="RABGGTA"><rect class="cls-1" x="1.323" y="1.348" width="70" height="20" rx="10" ry="10"/><path class="cls-2" d="M123.322,108.076c-6.782-.009-13.565.43-20.347.837-6.782.458-13.565.546-20.347.613H77.541l-2.543,0c-.859-.005-1.641,0-2.678-.081a11.472,11.472,0,0,1-9.178-6.394,11.088,11.088,0,0,1,.673-10.983A10.919,10.919,0,0,1,73.322,87.1c6.782.261,13.565.449,20.347.335,3.391-.049,6.782-.194,10.173-.349l10.173-.413c1.7-.033,3.391-.094,5.087-.087l2.543-.012c.857,0,1.65,0,2.657.078a10.714,10.714,0,0,1,8.781,6.363,10.732,10.732,0,0,1-9.761,15.057Zm0-.3a9.816,9.816,0,0,0,4.766-1.308,9.393,9.393,0,0,0,3.4-3.508,9.661,9.661,0,0,0,.9-2.251,9.487,9.487,0,0,0,.251-2.379,9.006,9.006,0,0,0-1.241-4.462,9.631,9.631,0,0,0-3.146-3.227,8.992,8.992,0,0,0-2.025-.921,8.475,8.475,0,0,0-2.158-.437c-.686-.045-1.59,0-2.428-.011l-2.543-.012c-1.7.006-3.391-.055-5.087-.087l-10.173-.413c-3.391-.155-6.782-.3-10.173-.349-6.782-.114-13.565.074-20.347.335a9.246,9.246,0,0,0-4.365,1.35,9.434,9.434,0,0,0-3.119,3.219,8.464,8.464,0,0,0-1.172,4.234,8.592,8.592,0,0,0,.994,4.221,8.717,8.717,0,0,0,2.894,3.194,8.589,8.589,0,0,0,4.037,1.36l10.037,0c6.782.066,13.565.155,20.347.613C109.757,107.346,116.54,107.785,123.322,107.776Z" transform="translate(-61.999 -86.578)"/><text class="cls-3" transform="translate(7.064 14.662)">RABGG<tspan class="cls-4" x="44.666" y="0">T</tspan><tspan class="cls-5" x="51.105" y="0">A</tspan></text></g></svg>