<svg id="Layer_1" data-name="Layer 1" xmlns="http://www.w3.org/2000/svg" xmlns:xlink="http://www.w3.org/1999/xlink" viewBox="0 0 9.189 90.243"><defs><style>.cls-1{fill:url(#linear-gradient);}.cls-2{fill:url(#linear-gradient-2);}.cls-3{fill:url(#linear-gradient-3);}.cls-4{fill:url(#linear-gradient-4);}.cls-5{fill:#e52e70;}.cls-6{fill:#11ba31;}</style><linearGradient id="linear-gradient" x1="113.966" y1="150.073" x2="115.174" y2="150.073" gradientTransform="translate(-113.929 -73.753)" gradientUnits="userSpaceOnUse"><stop offset="0"/><stop offset="0.055" stop-color="#2c2c2c"/><stop offset="0.112" stop-color="#525252"/><stop offset="0.158" stop-color="#6a6a6a"/><stop offset="0.187" stop-color="#737373"/><stop offset="0.313" stop-color="#6d6d6d"/><stop offset="0.48" stop-color="#5c5c5c"/><stop offset="0.671" stop-color="#414141"/><stop offset="0.878" stop-color="#1a1a1a"/><stop offset="1"/></linearGradient><linearGradient id="linear-gradient-2" x1="113.966" y1="119.215" x2="115.174" y2="119.215" xlink:href="#linear-gradient"/><linearGradient id="linear-gradient-3" x1="113.966" y1="99.878" x2="115.174" y2="99.878" xlink:href="#linear-gradient"/><linearGradient id="linear-gradient-4" x1="113.966" y1="78.347" x2="115.174" y2="78.347" xlink:href="#linear-gradient"/></defs><title>AGER</title><g id="AGER"><rect class="cls-1" x="0.036" y="62.435" width="1.209" height="27.772"/><rect class="cls-2" x="0.036" y="43.097" width="1.209" height="4.731"/><rect class="cls-3" x="0.036" y="23.76" width="1.209" height="4.73"/><rect class="cls-4" x="0.036" y="0.036" width="1.209" height="9.116"/><path d="M97.1,145.222H95.814V117.378H97.1Zm-1.209-.073h1.136v-27.7H95.887Z" transform="translate(-95.814 -54.98)"/><path d="M97.1,102.844H95.814v-4.8H97.1Zm-1.209-.073h1.136V98.113H95.887Z" transform="translate(-95.814 -54.98)"/><path d="M97.1,83.506H95.814V78.7H97.1Zm-1.209-.073h1.136V78.776H95.887Z" transform="translate(-95.814 -54.98)"/><path d="M97.1,64.169H95.814V54.98H97.1ZM95.887,64.1h1.136V55.052H95.887Z" transform="translate(-95.814 -54.98)"/><path class="cls-5" d="M96.454,62.887h-.641v1.281h.641a7.267,7.267,0,1,1,0,14.534h-.641v1.281h.641a8.548,8.548,0,1,0,0-17.1Z" transform="translate(-95.814 -54.98)"/><path class="cls-6" d="M105,90.773a8.558,8.558,0,0,0-8.548-8.548h-.641v1.281h.641a7.267,7.267,0,1,1,0,14.534h-.641v1.281h.641A8.558,8.558,0,0,0,105,90.773Z" transform="translate(-95.814 -54.98)"/><path class="cls-6" d="M96.454,101.562h-.641v1.281h.641a7.267,7.267,0,1,1,0,14.534h-.641v1.281h.641a8.548,8.548,0,1,0,0-17.1Z" transform="translate(-95.814 -54.98)"/></g></svg>