<svg id="Layer_1" data-name="Layer 1" xmlns="http://www.w3.org/2000/svg" xmlns:xlink="http://www.w3.org/1999/xlink" viewBox="0 0 65.133 22.941"><defs><style>.cls-1{fill:url(#linear-gradient);}.cls-2{fill:#8aa541;}.cls-3{font-size:12px;fill:#fff;font-family:Arial-BoldMT, Arial;font-weight:700;}</style><linearGradient id="linear-gradient" x1="32.854" y1="1.341" x2="32.854" y2="21.341" gradientUnits="userSpaceOnUse"><stop offset="0" stop-color="#c7f756"/><stop offset="1" stop-color="#2c3b0c"/></linearGradient></defs><title>ONECUT1</title><g id="ONECUT1"><rect class="cls-1" x="1.354" y="1.341" width="63" height="20" rx="10" ry="10"/><path class="cls-2" d="M119.148,108.178c-6.2-.009-12.4.43-18.6.837-6.2.458-12.4.546-18.6.613H77.3l-1.163,0c-.448-.027-.9-.03-1.344-.087a10.929,10.929,0,0,1-2.608-.656,11.515,11.515,0,0,1-6.974-7.582,11.135,11.135,0,0,1,1.965-9.95,10.949,10.949,0,0,1,8.967-4.142c6.2.282,12.4.437,18.6.335,6.2-.084,12.4-.574,18.6-.762,1.55-.033,3.1-.093,4.649-.087l1.163-.006c.438.024.88.024,1.316.077a10.556,10.556,0,0,1,2.555.634,10.757,10.757,0,0,1-3.876,20.78Zm0-.3a9.285,9.285,0,0,0,7.695-4.121,9.158,9.158,0,0,0,.965-8.315,9.391,9.391,0,0,0-5.7-5.547,9.118,9.118,0,0,0-1.953-.454c-.332-.045-.669-.042-1-.071l-1.162-.006c-1.55.006-3.1-.055-4.649-.087-6.2-.188-12.4-.678-18.6-.762-6.2-.1-12.4.053-18.6.335a9.127,9.127,0,0,0-7.039,3.941,8.8,8.8,0,0,0-1.179,7.691,8.606,8.606,0,0,0,7.239,5.888c.322.042.65.035.974.061l1.161,0h4.649c6.2.066,12.4.155,18.6.613C106.75,107.449,112.949,107.887,119.148,107.878Z" transform="translate(-64.794 -86.687)"/><text class="cls-3" transform="translate(4.184 14.23)">ONECUT1</text></g></svg>