<svg id="Layer_1" data-name="Layer 1" xmlns="http://www.w3.org/2000/svg" xmlns:xlink="http://www.w3.org/1999/xlink" viewBox="0 0 62.443 72.584"><defs><style>.cls-1{fill:url(#linear-gradient);}.cls-2{fill:url(#linear-gradient-2);}.cls-3{fill:url(#linear-gradient-3);}.cls-4{fill:url(#linear-gradient-4);}.cls-5{fill:url(#linear-gradient-5);}.cls-6{fill:url(#linear-gradient-6);}.cls-7{fill:url(#linear-gradient-7);}.cls-8{fill:url(#linear-gradient-8);}.cls-9{fill:url(#linear-gradient-9);}.cls-10{fill:url(#linear-gradient-10);}.cls-11{fill:url(#linear-gradient-11);}.cls-12{fill:url(#linear-gradient-12);}.cls-13{fill:url(#linear-gradient-13);}.cls-14{fill:url(#linear-gradient-14);}</style><linearGradient id="linear-gradient" x1="741.341" y1="1417.1" x2="726.023" y2="1415.957" gradientTransform="matrix(-0.142, -0.99, 0.99, -0.142, -1191.931, 1039.629)" gradientUnits="userSpaceOnUse"><stop offset="0" stop-color="#230f0f"/><stop offset="0.094" stop-color="#903030"/><stop offset="0.117" stop-color="#933737"/><stop offset="0.15" stop-color="#9c4949"/><stop offset="0.189" stop-color="#aa6868"/><stop offset="0.231" stop-color="#bd9292"/><stop offset="0.273" stop-color="#d3c1c1"/><stop offset="0.31" stop-color="#d2bebe"/><stop offset="0.335" stop-color="#ceb5b5"/><stop offset="0.357" stop-color="#c6a6a6"/><stop offset="0.377" stop-color="#bc9090"/><stop offset="0.396" stop-color="#b07474"/><stop offset="0.413" stop-color="#a05252"/><stop offset="0.428" stop-color="#903030"/><stop offset="0.506" stop-color="#792929"/><stop offset="0.652" stop-color="#541e1e"/><stop offset="0.787" stop-color="#391616"/><stop offset="0.908" stop-color="#291111"/><stop offset="1" stop-color="#230f0f"/></linearGradient><linearGradient id="linear-gradient-2" x1="1346.458" y1="-1423.546" x2="1318.52" y2="-1422.285" gradientTransform="matrix(-0.428, 0.904, -0.904, -0.428, -589.507, -1739.046)" xlink:href="#linear-gradient"/><linearGradient id="linear-gradient-3" x1="1306.365" y1="-1533.187" x2="1324.235" y2="-1530.001" gradientTransform="translate(-1414.452 -1186.834) rotate(90)" xlink:href="#linear-gradient"/><linearGradient id="linear-gradient-4" x1="1325.111" y1="-1521.727" x2="1305.718" y2="-1523.173" gradientTransform="translate(-1414.452 -1186.834) rotate(90)" xlink:href="#linear-gradient"/><linearGradient id="linear-gradient-5" x1="1291.662" y1="-1516.616" x2="1274" y2="-1517.934" gradientTransform="translate(-1226.182 -1379.769) rotate(97.828)" xlink:href="#linear-gradient"/><linearGradient id="linear-gradient-6" x1="769.241" y1="1419.087" x2="753.769" y2="1417.933" gradientTransform="matrix(-0.106, -0.744, 0.99, -0.142, -1218.823, 851.577)" xlink:href="#linear-gradient"/><linearGradient id="linear-gradient-7" x1="1276.536" y1="-1471.76" x2="1261.863" y2="-1472.855" gradientTransform="matrix(0.996, -0.09, -0.09, -0.996, -1299.203, -1273.584)" xlink:href="#linear-gradient"/><linearGradient id="linear-gradient-8" x1="748.356" y1="1368.038" x2="733.039" y2="1366.895" gradientTransform="matrix(0.142, -0.99, -0.99, -0.142, 1365.99, 1039.629)" xlink:href="#linear-gradient"/><linearGradient id="linear-gradient-9" x1="771.831" y1="1392.042" x2="756.514" y2="1390.9" xlink:href="#linear-gradient"/><linearGradient id="linear-gradient-10" x1="1279.729" y1="-1504.066" x2="1297.598" y2="-1500.879" gradientTransform="translate(-1414.452 -1186.834) rotate(90)" xlink:href="#linear-gradient"/><linearGradient id="linear-gradient-11" x1="1298.474" y1="-1492.605" x2="1279.082" y2="-1494.052" gradientTransform="translate(-1414.452 -1186.834) rotate(90)" xlink:href="#linear-gradient"/><linearGradient id="linear-gradient-12" x1="770.603" y1="1400.636" x2="755.285" y2="1399.494" gradientTransform="matrix(0.142, -0.99, -0.99, -0.142, 1365.99, 1039.629)" xlink:href="#linear-gradient"/><linearGradient id="linear-gradient-13" x1="1298.413" y1="-1467.517" x2="1280.751" y2="-1468.835" gradientTransform="matrix(0.136, 0.991, 0.991, -0.136, 1400.241, -1379.769)" xlink:href="#linear-gradient"/><linearGradient id="linear-gradient-14" x1="775.495" y1="1369.974" x2="763.855" y2="1369.105" gradientTransform="matrix(0.106, -0.744, -0.99, -0.142, 1392.882, 851.577)" xlink:href="#linear-gradient"/></defs><title>rRNA</title><g id="rRNA"><path class="cls-1" d="M104.5,106.149c4.337,1.018,4.512,9.45,1.784,13.512l-.085.113c1.073-3.292,1.893-11.774-1.806-13.545Z" transform="translate(-72.765 -64.798)"/><path class="cls-2" d="M118.9,82.321c1.243-5.017,13.245-17.823,16.3-17.336l-2.866-.186c-3.155-.107-12.341,11.072-14.507,17.08Z" transform="translate(-72.765 -64.798)"/><path class="cls-3" d="M110.363,137.382c12.658,0,7.031-17.721,7.031-17.721l.085.113s12.588,17.608-5.265,17.608Z" transform="translate(-72.765 -64.798)"/><path class="cls-4" d="M113.312,137.382c-12.658,0-7.031-17.721-7.031-17.721l-.085.113s-12.588,17.608,5.265,17.608Z" transform="translate(-72.765 -64.798)"/><path class="cls-5" d="M104.5,106.149c-9.116-3.325-3.876-12.13-.776-16.229l-.454-.024c-3.821,3.971-10.411,12.69,1.123,16.333Z" transform="translate(-72.765 -64.798)"/><path class="cls-6" d="M103.313,79.512c2.734.407,4.562,5.769.407,10.408l-.454-.024c1.859-2.458,2.82-9.109-.8-10.319Z" transform="translate(-72.765 -64.798)"/><path class="cls-7" d="M102.467,79.576a33.643,33.643,0,0,0-12.358.016L90,79.512s4.048-2.954,13.311,0Z" transform="translate(-72.765 -64.798)"/><path class="cls-8" d="M119.123,106.149c-4.337,1.018-4.512,9.45-1.784,13.512l.085.113c-1.073-3.292-1.893-11.774,1.806-13.545Z" transform="translate(-72.765 -64.798)"/><path class="cls-9" d="M75.376,79.512c4.337,1.018,4.512,9.45,1.784,13.512l-.085.113c1.073-3.292,1.893-11.774-1.806-13.545Z" transform="translate(-72.765 -64.798)"/><path class="cls-10" d="M81.242,110.745c12.658,0,7.031-17.721,7.031-17.721l.085.113s12.588,17.608-5.265,17.608Z" transform="translate(-72.765 -64.798)"/><path class="cls-11" d="M84.191,110.745c-12.658,0-7.031-17.721-7.031-17.721l-.085.113s-12.588,17.608,5.265,17.608Z" transform="translate(-72.765 -64.798)"/><path class="cls-12" d="M90,79.512c-4.337,1.018-4.512,9.45-1.784,13.512l.085.113c-1.073-3.292-1.893-11.774,1.806-13.545Z" transform="translate(-72.765 -64.798)"/><path class="cls-13" d="M119.123,106.149c9.116-3.325,3.876-12.13.776-16.229l.454-.024c3.821,3.971,10.411,12.69-1.123,16.333Z" transform="translate(-72.765 -64.798)"/><path class="cls-14" d="M117.835,81.879c-.781,2.079-.483,5.2,2.065,8.041l.454-.024a10.4,10.4,0,0,1-1.449-7.574Z" transform="translate(-72.765 -64.798)"/></g></svg>