<svg id="Layer_1" data-name="Layer 1" xmlns="http://www.w3.org/2000/svg" xmlns:xlink="http://www.w3.org/1999/xlink" viewBox="0 0 109.7 24"><defs><style>.cls-1{fill:url(#linear-gradient);}.cls-2{fill:url(#linear-gradient-2);}.cls-3{fill:url(#linear-gradient-3);}.cls-4{fill:url(#linear-gradient-4);}.cls-5{fill:url(#linear-gradient-5);}.cls-6{fill:url(#linear-gradient-6);}</style><linearGradient id="linear-gradient" x1="-1347.683" y1="93.687" x2="-1347.683" y2="69.97" gradientTransform="translate(1472.437 17.142)" gradientUnits="userSpaceOnUse"><stop offset="0" stop-color="#200424"/><stop offset="0.094" stop-color="#8f0ea2"/><stop offset="0.119" stop-color="#9015a2"/><stop offset="0.154" stop-color="#9227a2"/><stop offset="0.196" stop-color="#9646a2"/><stop offset="0.242" stop-color="#9c70a2"/><stop offset="0.273" stop-color="#a090a2"/><stop offset="0.311" stop-color="#a08da2"/><stop offset="0.338" stop-color="#9e84a2"/><stop offset="0.361" stop-color="#9c75a2"/><stop offset="0.382" stop-color="#9a5fa2"/><stop offset="0.401" stop-color="#9643a2"/><stop offset="0.419" stop-color="#9221a2"/><stop offset="0.428" stop-color="#8f0ea2"/><stop offset="1" stop-color="#200424"/></linearGradient><linearGradient id="linear-gradient-2" x1="810.394" y1="-74.521" x2="810.394" y2="-98.441" gradientTransform="translate(952.948 12.241) rotate(180)" gradientUnits="userSpaceOnUse"><stop offset="0" stop-color="#640d71"/><stop offset="0.092" stop-color="#9013a2"/><stop offset="0.25" stop-color="#a090a2"/><stop offset="0.587" stop-color="#8f0ea2"/><stop offset="0.653" stop-color="#790c89"/><stop offset="0.814" stop-color="#490853"/><stop offset="0.935" stop-color="#2b0531"/><stop offset="1" stop-color="#200424"/></linearGradient><linearGradient id="linear-gradient-3" x1="-1383.283" y1="93.687" x2="-1383.283" y2="69.97" xlink:href="#linear-gradient"/><linearGradient id="linear-gradient-4" x1="845.994" y1="-74.521" x2="845.994" y2="-98.441" xlink:href="#linear-gradient-2"/><linearGradient id="linear-gradient-5" x1="-1418.883" y1="93.687" x2="-1418.883" y2="69.97" xlink:href="#linear-gradient"/><linearGradient id="linear-gradient-6" x1="881.594" y1="-74.521" x2="881.594" y2="-98.441" xlink:href="#linear-gradient-2"/></defs><title>pRNA</title><g id="pRNA"><path class="cls-1" d="M135.1,86.8c-10.35,0-2.677,24-18.167,24l-2.533-.017c9.828,0,3.3-23.983,17.8-23.983Z" transform="translate(-43.204 -86.795)"/><path class="cls-2" d="M132.2,86.8c10.35,0,3.576,24,17.8,24h2.9c-9.828,0-2.9-24-17.8-24Z" transform="translate(-43.204 -86.795)"/><path class="cls-3" d="M99.5,86.8c-10.35,0-2.677,24-18.167,24l-2.533-.017c9.828,0,3.3-23.983,17.8-23.983Z" transform="translate(-43.204 -86.795)"/><path class="cls-4" d="M96.6,86.8c10.35,0,3.576,24,17.8,24h2.9c-9.828,0-2.9-24-17.8-24Z" transform="translate(-43.204 -86.795)"/><path class="cls-5" d="M63.9,86.8c-10.35,0-2.677,24-18.167,24l-2.533-.017c9.828,0,3.3-23.983,17.8-23.983Z" transform="translate(-43.204 -86.795)"/><path class="cls-6" d="M61,86.8c10.35,0,3.576,24,17.8,24h2.9c-9.828,0-2.9-24-17.8-24Z" transform="translate(-43.204 -86.795)"/></g></svg>