<svg id="Layer_1" data-name="Layer 1" xmlns="http://www.w3.org/2000/svg" xmlns:xlink="http://www.w3.org/1999/xlink" viewBox="0 0 61.659 64.019"><defs><style>.cls-1{fill:#5971ec;}.cls-1,.cls-2,.cls-3{stroke:#ff9045;stroke-miterlimit:10;}.cls-2{fill:url(#linear-gradient);}.cls-3{fill:url(#linear-gradient-2);}.cls-4{fill:url(#radial-gradient);}.cls-5{fill:url(#radial-gradient-2);}</style><linearGradient id="linear-gradient" x1="-353.507" y1="597.921" x2="-353.507" y2="563.335" gradientTransform="translate(469.44 -495.218)" gradientUnits="userSpaceOnUse"><stop offset="0" stop-color="#568cff"/><stop offset="1" stop-color="#ff9343"/></linearGradient><linearGradient id="linear-gradient-2" x1="146.262" y1="597.921" x2="146.262" y2="563.335" gradientTransform="matrix(-1, 0, 0, 1, 231.866, -495.218)" xlink:href="#linear-gradient"/><radialGradient id="radial-gradient" cx="-351.082" cy="596.211" r="4.652" gradientTransform="translate(399.501 -562.835)" gradientUnits="userSpaceOnUse"><stop offset="0" stop-color="#fff4a9"/><stop offset="1" stop-color="#ff9343"/></radialGradient><radialGradient id="radial-gradient-2" cx="-389.682" cy="596.211" r="4.652" xlink:href="#radial-gradient"/></defs><title>ABC_transporter</title><g id="ABC_transporter"><path class="cls-1" d="M98.768,106.7a4,4,0,0,0-4-4H77.494c-8.4,0-8.4,28.432,0,28.432H94.768a4,4,0,0,0,4-4Z" transform="translate(-69.939 -67.616)"/><path class="cls-1" d="M102.769,106.7a4,4,0,0,1,4-4h17.274c8.4,0,8.4,28.432,0,28.432H106.769a4,4,0,0,1-4-4Z" transform="translate(-69.939 -67.616)"/><path class="cls-2" d="M105.97,68.215,128.3,71.9c2.188.361,3.349,1.6,2.545,2.729-2.383,3.331-6.428,11.131-6.775,26-.027,1.148-1.806,2.075-4,2.075h-13.3c-2.209,0-4-.937-4-2.094l-2-30.4C100.768,68.8,103.393,67.79,105.97,68.215Z" transform="translate(-69.939 -67.616)"/><path class="cls-3" d="M95.567,68.215,73.239,71.9c-2.188.361-3.349,1.6-2.545,2.729,2.383,3.331,6.428,11.131,6.775,26,.027,1.148,1.806,2.075,4,2.075h13.3c2.209,0,4-.937,4-2.094l2-30.4C100.768,68.8,98.144,67.79,95.567,68.215Z" transform="translate(-69.939 -67.616)"/><circle class="cls-4" cx="50.129" cy="35.087" r="4.652"/><circle class="cls-5" cx="11.529" cy="35.087" r="4.652"/></g></svg>