<svg id="Layer_1" data-name="Layer 1" xmlns="http://www.w3.org/2000/svg" xmlns:xlink="http://www.w3.org/1999/xlink" viewBox="0 0 40.858 76.934"><defs><style>.cls-1{fill:url(#linear-gradient);}.cls-2{fill:url(#linear-gradient-2);}</style><linearGradient id="linear-gradient" x1="93.325" y1="-299.492" x2="93.325" y2="-376.426" gradientTransform="matrix(1, 0, 0, -1, -4.207, -237.59)" gradientUnits="userSpaceOnUse"><stop offset="0.002" stop-color="#c6ba00"/><stop offset="1" stop-color="#003a3c"/></linearGradient><linearGradient id="linear-gradient-2" x1="115.09" y1="137.037" x2="115.09" y2="60.103" gradientTransform="matrix(1, 0, 0, -1, -4.207, 198.939)" xlink:href="#linear-gradient"/></defs><title>R-ICO-013960</title><g id="R-ICO-013960"><path class="cls-1" d="M81.15,138.467l15.938,0a1.58,1.58,0,0,0,1.578-1.579V77.27a1.583,1.583,0,0,0-1.376-1.562c-7.4-1.036-13.273-6.24-14.59-12.878a1.59,1.59,0,0,0-1.551-1.3h0a1.577,1.577,0,0,0-1.578,1.578v73.778A1.578,1.578,0,0,0,81.15,138.467Z" transform="translate(-79.571 -61.533)"/><path class="cls-2" d="M101.337,77.27v59.613a1.58,1.58,0,0,0,1.578,1.579l15.935.005a1.578,1.578,0,0,0,1.579-1.578V63.111a1.577,1.577,0,0,0-1.578-1.578h0a1.59,1.59,0,0,0-1.551,1.3c-1.317,6.637-7.189,11.841-14.587,12.878A1.583,1.583,0,0,0,101.337,77.27Z" transform="translate(-79.571 -61.533)"/></g></svg>