<svg id="R-ICO-013689" xmlns="http://www.w3.org/2000/svg" xmlns:xlink="http://www.w3.org/1999/xlink" viewBox="0 0 74.973 22.949"><defs><style>.cls-1{fill:url(#linear-gradient);}.cls-2{fill:#9f9cff;}.cls-3{font-size:12px;fill:#fff;font-family:Arial-BoldMT, Arial;font-weight:700;}</style><linearGradient id="linear-gradient" x1="37.817" y1="21.347" x2="37.817" y2="1.347" gradientUnits="userSpaceOnUse"><stop offset="0" stop-color="#163d43"/><stop offset="1" stop-color="#9f9cff"/></linearGradient></defs><title>R-ICO-013689</title><g id="ARHGAP35"><rect class="cls-1" x="1.317" y="1.347" width="73" height="20" rx="10"/><path class="cls-2" d="M126.5,110.15c-7.032-.009-14.065.43-21.1.837-7.032.458-14.065.547-21.1.613-3.516,0-7.032.019-10.548-.037a11.764,11.764,0,0,1-5.784-1.5,11.6,11.6,0,0,1-4.239-4.193,11.121,11.121,0,0,1-1.552-5.72,11.262,11.262,0,0,1,1.592-5.652A10.955,10.955,0,0,1,73.5,89.179c7.032.261,14.065.449,21.1.335,3.516-.05,7.032-.194,10.548-.349l10.549-.414c3.516-.085,7.032-.131,10.548-.07a10.907,10.907,0,0,1,5.641,1.519,10.72,10.72,0,0,1-5.383,19.95Zm0-.3a9.687,9.687,0,0,0,4.923-1.4,9.387,9.387,0,0,0,3.434-3.721,9.216,9.216,0,0,0-.606-9.376,9.578,9.578,0,0,0-3.52-3.066,8.833,8.833,0,0,0-2.179-.746,9.391,9.391,0,0,0-1.131-.187c-.4-.013-.729-.04-1.179-.032-3.516.061-7.032.015-10.548-.07l-10.549-.414c-3.516-.155-7.032-.3-10.548-.349-7.032-.114-14.065.074-21.1.335a9.2,9.2,0,0,0-7.657,4.851,8.72,8.72,0,0,0,3.57,11.784,8.677,8.677,0,0,0,4.345.981c3.516-.056,7.032-.036,10.548-.037,7.032.066,14.065.155,21.1.613C112.435,109.42,119.468,109.859,126.5,109.85Z" transform="translate(-62.183 -88.653)"/><text class="cls-3" transform="translate(5.142 14.235)">ARHGAP35</text></g></svg>