<svg id="Layer_1" data-name="Layer 1" xmlns="http://www.w3.org/2000/svg" xmlns:xlink="http://www.w3.org/1999/xlink" viewBox="0 0 59.248 146.919"><defs><style>.cls-1{fill:url(#radial-gradient);}.cls-2{fill:url(#linear-gradient);}.cls-3{fill:url(#linear-gradient-2);}.cls-4{fill:#417799;}</style><radialGradient id="radial-gradient" cx="98.054" cy="146.647" r="30.451" gradientTransform="matrix(1, 0, 0, -1, 0, 202)" gradientUnits="userSpaceOnUse"><stop offset="0.709" stop-color="#944678"/><stop offset="0.888" stop-color="#c6a1b9"/><stop offset="0.911" stop-color="#c49db6"/><stop offset="0.935" stop-color="#bd90ad"/><stop offset="0.959" stop-color="#b17b9e"/><stop offset="0.984" stop-color="#a15d89"/><stop offset="1" stop-color="#944678"/></radialGradient><linearGradient id="linear-gradient" x1="100.816" y1="100.26" x2="79.704" y2="96.537" gradientTransform="matrix(1, 0, 0, -1, 0, 202)" gradientUnits="userSpaceOnUse"><stop offset="0" stop-color="#dabf68"/><stop offset="0.178" stop-color="#dabc67"/><stop offset="0.302" stop-color="#dab363"/><stop offset="0.408" stop-color="#daa45c"/><stop offset="0.447" stop-color="#da9c59"/><stop offset="0.628" stop-color="#da8a51"/><stop offset="0.991" stop-color="#da5a3e"/><stop offset="1" stop-color="#da593d"/></linearGradient><linearGradient id="linear-gradient-2" x1="96.982" y1="117.649" x2="125.091" y2="112.538" gradientTransform="matrix(1, 0, 0, -1, 0, 202)" gradientUnits="userSpaceOnUse"><stop offset="0" stop-color="#284a85"/><stop offset="0.126" stop-color="#2f558d"/><stop offset="0.349" stop-color="#4273a4"/><stop offset="0.641" stop-color="#60a3c8"/><stop offset="0.989" stop-color="#8ae5fa"/><stop offset="1" stop-color="#8be7fc"/></linearGradient></defs><title>cytokine</title><g id="CYTOKINE"><g id="UP"><path class="cls-1" d="M84.959,38.9a4.875,4.875,0,0,1-2.58-9.015,29.482,29.482,0,0,1,31.089,0,4.875,4.875,0,1,1-5.151,8.279,19.733,19.733,0,0,0-20.787,0A4.858,4.858,0,0,1,84.959,38.9Z" transform="translate(-68.302 -25.125)"/></g><g id="LEFT"><path class="cls-2" d="M89.865,171.719a4.875,4.875,0,0,1-4.875-4.875V81.2A25.875,25.875,0,0,1,70.72,66.91a31.814,31.814,0,0,1,1.742-26.465,4.875,4.875,0,1,1,8.519,4.743,22.062,22.062,0,0,0-1.229,18.05c1.974,4.857,5.847,8.178,11.51,9.871A4.875,4.875,0,0,1,94.74,77.78v89.063A4.875,4.875,0,0,1,89.865,171.719Z" transform="translate(-68.302 -25.125)"/></g><g id="RIGHT"><path class="cls-3" d="M105.986,136.424a4.875,4.875,0,0,1-4.875-4.875V77.781a4.875,4.875,0,0,1,3.478-4.671c5.663-1.694,9.535-5.015,11.51-9.871a22.061,22.061,0,0,0-1.229-18.051,4.875,4.875,0,0,1,8.519-4.742,31.806,31.806,0,0,1,1.742,26.465A25.874,25.874,0,0,1,110.861,81.2v50.349A4.875,4.875,0,0,1,105.986,136.424Z" transform="translate(-68.302 -25.125)"/></g><g id="OUTLINE"><path class="cls-4" d="M110.884,39.223a5.163,5.163,0,0,1-2.738-.787,19.408,19.408,0,0,0-20.444,0,5.2,5.2,0,1,1-5.5-8.831,29.806,29.806,0,0,1,31.432,0,5.2,5.2,0,0,1-2.755,9.618ZM97.923,34.876a19.978,19.978,0,0,1,10.566,3.008,4.549,4.549,0,1,0,4.806-7.726,29.155,29.155,0,0,0-30.745,0,4.55,4.55,0,1,0,4.807,7.727A19.975,19.975,0,0,1,97.923,34.876Z" transform="translate(-68.302 -25.125)"/><path class="cls-4" d="M89.865,172.044a5.206,5.206,0,0,1-5.2-5.2V81.414A26.236,26.236,0,0,1,70.419,67.033a32.144,32.144,0,0,1,1.76-26.745,5.2,5.2,0,0,1,9.087,5.059,21.716,21.716,0,0,0-1.212,17.77c1.935,4.761,5.737,8.018,11.3,9.682a5.232,5.232,0,0,1,3.71,4.982v89.063A5.206,5.206,0,0,1,89.865,172.044ZM76.727,38.265A4.562,4.562,0,0,0,72.746,40.6a31.469,31.469,0,0,0-1.725,26.184A25.617,25.617,0,0,0,85.117,80.9a.325.325,0,0,1,.2.3v85.644a4.55,4.55,0,1,0,9.1,0V77.781a4.578,4.578,0,0,0-3.246-4.359c-5.762-1.723-9.705-5.108-11.718-10.06A22.4,22.4,0,0,1,80.7,45.031a4.555,4.555,0,0,0-3.97-6.766Z" transform="translate(-68.302 -25.125)"/><path class="cls-4" d="M105.986,136.749a5.206,5.206,0,0,1-5.2-5.2V77.781A5.233,5.233,0,0,1,104.5,72.8c5.564-1.664,9.366-4.921,11.3-9.682a21.719,21.719,0,0,0-1.212-17.771,5.2,5.2,0,0,1,9.087-5.058,32.143,32.143,0,0,1,1.759,26.746,26.235,26.235,0,0,1-14.246,14.381V131.55A5.2,5.2,0,0,1,105.986,136.749Zm13.135-98.481a4.547,4.547,0,0,0-3.967,6.761A22.405,22.405,0,0,1,116.4,63.361c-2.013,4.952-5.955,8.337-11.718,10.06a4.578,4.578,0,0,0-3.246,4.359v53.768a4.55,4.55,0,0,0,9.1,0V81.2a.325.325,0,0,1,.2-.3,25.614,25.614,0,0,0,14.1-14.113A31.471,31.471,0,0,0,123.105,40.6,4.557,4.557,0,0,0,119.121,38.268Z" transform="translate(-68.302 -25.125)"/></g></g></svg>