<svg id="Layer_1" data-name="Layer 1" xmlns="http://www.w3.org/2000/svg" xmlns:xlink="http://www.w3.org/1999/xlink" viewBox="0 0 59.739 32.736"><defs><style>.cls-1{fill:url(#linear-gradient);}.cls-2{fill:#117a93;}.cls-3{font-size:12px;fill:#fff;font-family:Arial-BoldMT, Arial;font-weight:700;}</style><linearGradient id="linear-gradient" x1="30.005" y1="31.165" x2="30.005" y2="1.165" gradientUnits="userSpaceOnUse"><stop offset="0.001" stop-color="#a3ebff"/><stop offset="1" stop-color="#094151"/></linearGradient></defs><title>TIMM23_complex</title><g id="TIMM23_complex" data-name="TIMM23 complex"><rect class="cls-1" x="1.505" y="1.165" width="57" height="30" rx="10" ry="10"/><path class="cls-2" d="M118.5,115.15c-6.532-.009-13.065.43-19.6.837-3.266.205-6.532.388-9.8.457-1.633.057-3.266.074-4.9.093l-2.45.031c-.392.011-.922-.025-1.377-.041-.468-.06-.942-.111-1.4-.214a11.51,11.51,0,0,1-8.24-7.13,11.246,11.246,0,0,1-.661-2.745c-.069-.466-.054-.939-.079-1.408l.018-1.229.076-4.9.038-2.45.019-1.225c0-.4.057-.909.088-1.355a11.536,11.536,0,0,1,1.978-5.1,11.045,11.045,0,0,1,4.1-3.494A11.189,11.189,0,0,1,81.5,84.179c6.532.261,13.065.449,19.6.335,3.266-.049,6.532-.194,9.8-.349l4.9-.214,2.45-.105c.4-.023.895,0,1.34,0a11.655,11.655,0,0,1,1.364.181,10.982,10.982,0,0,1,8.735,9.563c.06.457.035.92.051,1.378l-.044,1.228c-.045,1.633-.16,3.266-.249,4.9l-.141,2.45c-.044.81-.084,1.627-.2,2.514a11.167,11.167,0,0,1-1.983,4.712A10.819,10.819,0,0,1,118.5,115.15Zm0-.3a9.893,9.893,0,0,0,4.607-1.217,9.654,9.654,0,0,0,3.375-3.291,9.388,9.388,0,0,0,1.314-4.413c0-.743-.045-1.56-.1-2.383l-.141-2.45c-.089-1.633-.2-3.266-.249-4.9l-.046-1.221c-.046-.356-.045-.715-.12-1.064a8.4,8.4,0,0,0-.561-2.046,9.234,9.234,0,0,0-6.179-5.4c-.345-.089-.7-.14-1.051-.215-.37-.028-.686-.084-1.107-.1l-2.45-.105-4.9-.214c-3.266-.155-6.532-.3-9.8-.349-6.532-.114-13.065.074-19.6.335a9.34,9.34,0,0,0-4.219,1.266,9.832,9.832,0,0,0-3.094,3.02,9.02,9.02,0,0,0-1.319,4.029c0,.369-.021.677-.014,1.092l.019,1.225.038,2.45.076,4.9.02,1.221c.037.345.027.694.093,1.034a8.156,8.156,0,0,0,.546,1.988,8.851,8.851,0,0,0,2.393,3.313,8.6,8.6,0,0,0,3.636,1.834c.331.084.673.124,1.011.182.361.014.646.057,1.07.057l2.45.031c1.633.019,3.266.036,4.9.093,3.266.069,6.532.252,9.8.457C105.435,114.42,111.968,114.859,118.5,114.85Z" transform="translate(-69.995 -83.835)"/><text class="cls-3" transform="translate(8.003 11.854)">TIMM23<tspan x="-2.341" y="14.4">complex</tspan></text></g></svg>