<svg id="Layer_1" data-name="Layer 1" xmlns="http://www.w3.org/2000/svg" xmlns:xlink="http://www.w3.org/1999/xlink" viewBox="0 0 73.666 7.888"><defs><style>.cls-1{fill:#a20e52;}.cls-2{fill:url(#radial-gradient);}.cls-3{fill:url(#radial-gradient-2);}.cls-4{fill:url(#radial-gradient-3);}</style><radialGradient id="radial-gradient" cx="82.372" cy="100.002" r="3.943" gradientTransform="translate(53.429 -26.283) rotate(26.57)" gradientUnits="userSpaceOnUse"><stop offset="0" stop-color="#73babf"/><stop offset="0.08" stop-color="#72a5af"/><stop offset="0.313" stop-color="#706e85"/><stop offset="0.53" stop-color="#6e4263"/><stop offset="0.724" stop-color="#6c234b"/><stop offset="0.887" stop-color="#6b103c"/><stop offset="1" stop-color="#6b0937"/></radialGradient><radialGradient id="radial-gradient-2" cx="100" cy="100" r="3.943" gradientTransform="translate(55.29 -34.168) rotate(26.57)" xlink:href="#radial-gradient"/><radialGradient id="radial-gradient-3" cx="117.628" cy="99.998" r="3.943" gradientTransform="translate(57.151 -42.053) rotate(26.57)" xlink:href="#radial-gradient"/></defs><title>2&amp;apos;,5&amp;apos;-OLIGOADENYLATE</title><g id="_2_5_-OLIGOADENYLATE" data-name="2&apos;,5&apos;-OLIGOADENYLATE"><path id="BG" class="cls-1" d="M78.313,102.6a16.311,16.311,0,0,1-5.253-1.1c-2.506-.835-4.671-1.557-7.611-.085a1.577,1.577,0,1,1-1.41-2.821c4.11-2.056,7.249-1.009,10.017-.086,2.505.833,4.668,1.554,7.611.085,4.111-2.057,7.25-1.007,10.017-.086,2.505.833,4.668,1.554,7.611.085,4.11-2.057,7.249-1.009,10.017-.086,2.506.835,4.67,1.557,7.61.085,4.11-2.056,7.248-1.009,10.017-.086,2.506.835,4.669,1.555,7.611.085a1.577,1.577,0,1,1,1.41,2.821c-4.11,2.056-7.249,1.009-10.017.086-2.507-.836-4.67-1.557-7.611-.085-4.111,2.057-7.248,1.009-10.017.086-2.5-.833-4.668-1.555-7.61-.085-4.11,2.057-7.249,1.009-10.017.086-2.5-.833-4.668-1.555-7.61-.085A10.456,10.456,0,0,1,78.313,102.6Z" transform="translate(-63.167 -96.056)"/><circle class="cls-2" cx="82.372" cy="100.002" r="3.942" transform="translate(-99.197 -48.65) rotate(-26.57)"/><circle class="cls-3" cx="100" cy="100" r="3.942" transform="translate(-97.335 -40.766) rotate(-26.57)"/><circle class="cls-4" cx="117.628" cy="99.998" r="3.942" transform="translate(-95.473 -32.881) rotate(-26.57)"/></g></svg>