<svg id="Layer_1" data-name="Layer 1" xmlns="http://www.w3.org/2000/svg" xmlns:xlink="http://www.w3.org/1999/xlink" viewBox="0 0 108.623 22.949"><defs><style>.cls-1{fill:url(#linear-gradient);}.cls-2{fill:#62ae02;}.cls-3{font-size:12px;fill:#fff;font-family:Arial-BoldMT, Arial;font-weight:700;}</style><linearGradient id="linear-gradient" x1="54.706" y1="21.347" x2="54.706" y2="1.347" gradientUnits="userSpaceOnUse"><stop offset="0" stop-color="#1a509e"/><stop offset="1" stop-color="#c1df4f"/></linearGradient></defs><title>GONADOTROPIN</title><g id="GONADOTROPIN"><rect class="cls-1" x="1.206" y="1.347" width="107" height="20" rx="10" ry="10"/><path class="cls-2" d="M140.75,113.574c-9.866-.009-19.731.43-29.6.837-9.866.458-19.731.546-29.6.613-4.933,0-9.866.019-14.8-.037l-7.4-.076-3.7-.038-1.85-.019a12.973,12.973,0,0,1-2.092-.211,11.335,11.335,0,0,1-6.956-4.37,11.193,11.193,0,0,1-2.15-7.85A11.008,11.008,0,0,1,53.75,92.6c9.866.261,19.731.449,29.6.335,4.933-.049,9.866-.194,14.8-.349l14.8-.413c4.933-.085,9.866-.131,14.8-.071q3.7.022,7.4.128l3.7.108,1.85.07a12.54,12.54,0,0,1,2.008.255,10.826,10.826,0,0,1,6.511,4.313,10.487,10.487,0,0,1-1.59,13.96A10.291,10.291,0,0,1,140.75,113.574Zm0-.3a9.768,9.768,0,0,0,6.593-2.638,9.551,9.551,0,0,0,2.979-6.353,9.346,9.346,0,0,0-7.959-9.765,10.593,10.593,0,0,0-1.671-.083l-1.85.07-3.7.108q-3.7.108-7.4.128c-4.933.061-9.866.015-14.8-.071l-14.8-.413c-4.933-.155-9.866-.3-14.8-.349-9.866-.114-19.731.074-29.6.335a9.1,9.1,0,0,0-8.769,8.391,8.672,8.672,0,0,0,1.882,6.03,8.783,8.783,0,0,0,5.359,3.2,10.131,10.131,0,0,0,1.587.127l1.85-.019,3.7-.038,7.4-.076c4.933-.056,9.866-.036,14.8-.037,9.866.066,19.731.155,29.6.613C121.019,112.844,130.885,113.283,140.75,113.274Z" transform="translate(-42.544 -92.077)"/><text class="cls-3" transform="translate(5.039 14.235)">GONADOTROPIN</text></g></svg>