<svg id="Layer_1" data-name="Layer 1" xmlns="http://www.w3.org/2000/svg" xmlns:xlink="http://www.w3.org/1999/xlink" viewBox="0 0 112.8 112.8"><defs><style>.cls-1{isolation:isolate;}.cls-2{fill:url(#radial-gradient);}.cls-3{fill:#5656a5;}.cls-4{fill:url(#radial-gradient-2);}.cls-5{fill:#4b4b96;}</style><radialGradient id="radial-gradient" cx="85.855" cy="816.139" r="71.498" gradientTransform="translate(-43.6 -782.39)" gradientUnits="userSpaceOnUse"><stop offset="0" stop-color="#afbaf7"/><stop offset="0.311" stop-color="#6d96ce"/><stop offset="0.803" stop-color="#285fcc"/></radialGradient><radialGradient id="radial-gradient-2" cx="72.356" cy="838.524" r="13.799" gradientTransform="translate(-43.6 -782.39)" gradientUnits="userSpaceOnUse"><stop offset="0" stop-color="#afbaf7"/><stop offset="0.312" stop-color="#b898ce"/><stop offset="0.803" stop-color="#515181"/></radialGradient></defs><title>nucleus</title><g id="NUCLEUS"><g id="NUCLEUS-2" data-name="NUCLEUS" class="cls-1"><circle class="cls-2" cx="56.4" cy="56.4" r="54.4"/><path class="cls-3" d="M100,157.3a56.4,56.4,0,1,1,56.4-56.4A56.463,56.463,0,0,1,100,157.3Zm0-108.8a52.4,52.4,0,1,0,52.4,52.4A52.451,52.451,0,0,0,100,48.5Z" transform="translate(-43.6 -44.5)"/></g><g id="NUCLEOLUS"><circle class="cls-4" cx="28.8" cy="56.1" r="11.1"/><path class="cls-5" d="M72.4,112.3A11.65,11.65,0,1,1,84,100.6,11.608,11.608,0,0,1,72.4,112.3Zm0-22.3A10.6,10.6,0,1,0,83,100.6,10.605,10.605,0,0,0,72.4,90Z" transform="translate(-43.6 -44.5)"/></g></g></svg>