<svg id="Layer_1" data-name="Layer 1" xmlns="http://www.w3.org/2000/svg" xmlns:xlink="http://www.w3.org/1999/xlink" viewBox="0 0 114.062 32.949"><defs><style>.cls-1{fill:url(#linear-gradient);}.cls-2{fill:#0052af;}.cls-3{font-size:12px;fill:#fff;font-family:Arial-BoldMT, Arial;font-weight:700;}.cls-4{letter-spacing:-0.018em;}</style><linearGradient id="linear-gradient" x1="57.348" y1="31.347" x2="57.348" y2="1.347" gradientUnits="userSpaceOnUse"><stop offset="0" stop-color="#06a2b2"/><stop offset="1" stop-color="#d58cc9"/></linearGradient></defs><title>R-ICO-013628</title><g id="INTRACELLULAR_RECEPTOR" data-name="INTRACELLULAR RECEPTOR"><rect class="cls-1" x="1.348" y="1.347" width="112" height="30" rx="6" ry="6"/><path class="cls-2" d="M150,115.15c-11.4-.011-22.805.447-34.208.837-11.4.458-22.805.546-34.208.613-5.7,0-11.4.019-17.1-.037l-8.552-.076-4.276-.038-1.069-.01-.535,0-.65-.034a7.426,7.426,0,0,1-6.123-4.4,7.364,7.364,0,0,1-.607-2.541c-.029-.471-.012-.793-.008-1.154l.017-1.069.133-8.552.067-4.276.049-2.138.025-1.069a8.064,8.064,0,0,1,.105-1.213A6.944,6.944,0,0,1,50,84.179c11.4.261,22.805.449,34.208.335,5.7-.049,11.4-.194,17.1-.349l17.1-.413c5.7-.085,11.4-.131,17.1-.071q4.276.022,8.552.128l4.276.108,1.069.035.535.018.616.046a6.991,6.991,0,0,1,2.372.707,6.878,6.878,0,0,1,3.263,3.508,6.763,6.763,0,0,1,.506,2.346c.018.8-.034,1.451-.047,2.183l-.27,8.552c-.14,2.862-.054,5.676-.258,8.578A6.217,6.217,0,0,1,150,115.15Zm0-.3a5.885,5.885,0,0,0,3.8-1.452,5.671,5.671,0,0,0,1.923-3.567,16.306,16.306,0,0,0,.029-2.1l-.039-2.138c-.019-1.425-.061-2.851-.11-4.276l-.27-8.552c-.031-.692-.027-1.472-.086-2.092a5.229,5.229,0,0,0-.509-1.781,5.135,5.135,0,0,0-2.605-2.461,5.035,5.035,0,0,0-1.733-.393l-.452,0-.535.018-1.069.035-4.276.108q-4.276.108-8.552.128c-5.7.061-11.4.015-17.1-.071l-17.1-.413c-5.7-.155-11.4-.3-17.1-.349-11.4-.114-22.805.074-34.208.335a5.171,5.171,0,0,0-3.314,1.347,4.97,4.97,0,0,0-1.6,3.118,5.87,5.87,0,0,0-.034.918l.025,1.069.049,2.138.067,4.276.133,8.552.017,1.069c.006.352.007.743.03.983a4.614,4.614,0,0,0,4.26,4.258l.418.015.535,0,1.069-.01,4.276-.038,8.552-.076c5.7-.056,11.4-.036,17.1-.037,11.4.066,22.805.155,34.208.613C127.195,114.4,138.6,114.861,150,114.85Z" transform="translate(-42.652 -83.653)"/><text class="cls-3" transform="translate(6.096 11.832)">INTRACELLULAR<tspan x="17.432" y="14.4">RECEP</tspan><tspan class="cls-4" x="58.775" y="14.4">T</tspan><tspan x="65.889" y="14.4">OR</tspan></text></g></svg>