<svg id="Layer_1" data-name="Layer 1" xmlns="http://www.w3.org/2000/svg" xmlns:xlink="http://www.w3.org/1999/xlink" viewBox="0 0 162.598 42.251"><defs><style>.cls-1{fill:url(#linear-gradient);}.cls-2{fill:url(#linear-gradient-2);}.cls-3{fill:url(#linear-gradient-3);}.cls-4{fill:url(#linear-gradient-4);}.cls-5{fill:url(#linear-gradient-5);}.cls-6{fill:url(#linear-gradient-6);}.cls-7{fill:url(#linear-gradient-7);}.cls-8{fill:url(#linear-gradient-8);}.cls-9{fill:url(#linear-gradient-9);}.cls-10{fill:url(#linear-gradient-10);}.cls-11{fill:url(#linear-gradient-11);}.cls-12{fill:url(#linear-gradient-12);}</style><linearGradient id="linear-gradient" x1="-175.493" y1="-919.76" x2="-175.493" y2="-942.835" gradientTransform="translate(-115.678 -833.517) rotate(180)" gradientUnits="userSpaceOnUse"><stop offset="0" stop-color="#24040e"/><stop offset="0.113" stop-color="#a20e40"/><stop offset="0.273" stop-color="#a23e60"/><stop offset="0.602" stop-color="#a20e40"/><stop offset="1" stop-color="#24040e"/></linearGradient><linearGradient id="linear-gradient-2" x1="-227.74" y1="-919.758" x2="-227.74" y2="-944.275" xlink:href="#linear-gradient"/><linearGradient id="linear-gradient-3" x1="-280.056" y1="-919.76" x2="-280.056" y2="-942.835" xlink:href="#linear-gradient"/><linearGradient id="linear-gradient-4" x1="-199.419" y1="-908.851" x2="-199.419" y2="-942.692" gradientTransform="translate(-115.678 -833.517) rotate(180)" gradientUnits="userSpaceOnUse"><stop offset="0" stop-color="#042224"/><stop offset="0.094" stop-color="#0e98a2"/><stop offset="0.119" stop-color="#1598a2"/><stop offset="0.154" stop-color="#279aa2"/><stop offset="0.196" stop-color="#469ba2"/><stop offset="0.242" stop-color="#709ea2"/><stop offset="0.273" stop-color="#90a0a2"/><stop offset="0.311" stop-color="#8da0a2"/><stop offset="0.338" stop-color="#849fa2"/><stop offset="0.361" stop-color="#759ea2"/><stop offset="0.382" stop-color="#5f9da2"/><stop offset="0.401" stop-color="#439ba2"/><stop offset="0.419" stop-color="#2199a2"/><stop offset="0.428" stop-color="#0e98a2"/><stop offset="1" stop-color="#042224"/></linearGradient><linearGradient id="linear-gradient-5" x1="-147.857" y1="-919.76" x2="-147.857" y2="-942.835" xlink:href="#linear-gradient-4"/><linearGradient id="linear-gradient-6" x1="-343.996" y1="938.276" x2="-343.996" y2="915.002" gradientTransform="translate(403.812 -828.616)" gradientUnits="userSpaceOnUse"><stop offset="0" stop-color="#0d6a71"/><stop offset="0.092" stop-color="#1398a2"/><stop offset="0.25" stop-color="#90a0a2"/><stop offset="0.587" stop-color="#0e98a2"/><stop offset="0.653" stop-color="#0c8189"/><stop offset="0.814" stop-color="#084e53"/><stop offset="0.935" stop-color="#052e31"/><stop offset="1" stop-color="#042224"/></linearGradient><linearGradient id="linear-gradient-7" x1="-287.042" y1="938.287" x2="-287.042" y2="906.845" xlink:href="#linear-gradient-6"/><linearGradient id="linear-gradient-8" x1="-239.434" y1="938.276" x2="-239.434" y2="915.002" xlink:href="#linear-gradient-6"/><linearGradient id="linear-gradient-9" x1="-316.919" y1="946.293" x2="-316.919" y2="915.04" gradientTransform="translate(403.812 -828.616)" gradientUnits="userSpaceOnUse"><stop offset="0" stop-color="#a21343"/><stop offset="0.25" stop-color="#a2687b"/><stop offset="0.769" stop-color="#a20e40"/></linearGradient><linearGradient id="linear-gradient-10" x1="-371.632" y1="938.276" x2="-371.632" y2="915.002" xlink:href="#linear-gradient-9"/><linearGradient id="linear-gradient-11" x1="-254.551" y1="-919.76" x2="-254.551" y2="-942.835" xlink:href="#linear-gradient-4"/><linearGradient id="linear-gradient-12" x1="-264.938" y1="938.276" x2="-264.938" y2="915.002" xlink:href="#linear-gradient-9"/></defs><title>DNA_damaged</title><g id="DNA"><path class="cls-1" d="M44.615,109.626c15.2,0,3.931-23.351,26.68-23.351l3.72.017c-14.434,0-4.846,23.334-26.141,23.334Z" transform="translate(-16.979 -75.382)"/><path class="cls-2" d="M96.828,107.959c16.094,3.96,4-21.684,26.748-21.684l3.72.017c-14.434,0-13.263,28.17-22.933,24.455Z" transform="translate(-16.979 -75.382)"/><path class="cls-3" d="M149.178,109.626c15.2,0,3.931-23.351,26.68-23.351l3.72.017c-14.434,0-4.846,23.334-26.141,23.334Z" transform="translate(-16.979 -75.382)"/><path class="cls-4" d="M70.756,109.626c15.2,0-.037-22.943,20.821-31.785l5.149-2.46C83.9,81.4,96.309,109.626,75.015,109.626Z" transform="translate(-16.979 -75.382)"/><path class="cls-5" d="M16.979,109.626c15.2,0,3.931-23.351,26.68-23.351l3.72.017c-14.434,0-4.846,23.334-26.141,23.334Z" transform="translate(-16.979 -75.382)"/><path class="cls-6" d="M75.015,109.626c-15.2,0-5.251-23.351-26.141-23.351H44.615c14.434,0,4.259,23.351,26.141,23.351Z" transform="translate(-16.979 -75.382)"/><path class="cls-7" d="M127.3,109.626c-15.2,0,.191-24.558-14.877-30.048l-6.176-1.5c14.963,3.8-5.088,31.546,16.794,31.546Z" transform="translate(-16.979 -75.382)"/><path class="cls-8" d="M179.578,109.626c-15.2,0-5.251-23.351-26.141-23.351h-4.259c14.434,0,4.259,23.351,26.141,23.351Z" transform="translate(-16.979 -75.382)"/><path class="cls-9" d="M103.029,117.633c-13.752-3.81-7.125-31.357-28.014-31.357H70.756c14.434,0,12.39,25.1,26.185,29.569Z" transform="translate(-16.979 -75.382)"/><path class="cls-10" d="M47.379,109.626c-15.2,0-5.251-23.351-26.141-23.351H16.979c14.434,0,4.259,23.351,26.141,23.351Z" transform="translate(-16.979 -75.382)"/><path class="cls-11" d="M123.673,109.626c15.2,0,3.931-23.351,26.68-23.351l3.72.017c-14.434,0-4.846,23.334-26.141,23.334Z" transform="translate(-16.979 -75.382)"/><path class="cls-12" d="M154.073,109.626c-15.2,0-5.251-23.351-26.141-23.351h-4.259c14.434,0,4.259,23.351,26.141,23.351Z" transform="translate(-16.979 -75.382)"/></g></svg>