<svg id="Layer_1" data-name="Layer 1" xmlns="http://www.w3.org/2000/svg" xmlns:xlink="http://www.w3.org/1999/xlink" viewBox="0 0 176.537 118.013"><defs><style>.cls-1{stroke:#d15a79;stroke-linecap:round;stroke-linejoin:round;stroke-width:6px;fill:url(#radial-gradient);}.cls-2{opacity:0.75;}.cls-3{isolation:isolate;}.cls-4{fill:url(#radial-gradient-2);}.cls-5{fill:#5656a5;}.cls-6{fill:url(#radial-gradient-3);}.cls-7{fill:#4b4b96;}</style><radialGradient id="radial-gradient" cx="89.177" cy="101.654" r="91.619" gradientTransform="matrix(0.993, -0.129, 0.066, 0.623, -6.085, 59.819)" gradientUnits="userSpaceOnUse"><stop offset="0.006" stop-color="#ffdbe1"/><stop offset="1" stop-color="#ff6680"/></radialGradient><radialGradient id="radial-gradient-2" cx="147.433" cy="829.454" r="19.934" gradientTransform="translate(-11.731 -778.884)" gradientUnits="userSpaceOnUse"><stop offset="0" stop-color="#afbaf7"/><stop offset="0.311" stop-color="#6d96ce"/><stop offset="0.803" stop-color="#285fcc"/></radialGradient><radialGradient id="radial-gradient-3" cx="143.67" cy="835.695" r="3.847" gradientTransform="translate(-11.731 -778.884)" gradientUnits="userSpaceOnUse"><stop offset="0" stop-color="#afbaf7"/><stop offset="0.312" stop-color="#b898ce"/><stop offset="0.803" stop-color="#515181"/></radialGradient></defs><title>hepatocyte</title><g id="hepatocyte"><path id="hepatocyte-2" data-name="hepatocyte" class="cls-1" d="M32.134,144.43,15.718,97.647A17.438,17.438,0,0,1,18.4,81.132L36.9,58.071a14,14,0,0,1,9.7-5.332l102.646-8.7A14.07,14.07,0,0,1,162.547,51.4l20.439,35.44a17.55,17.55,0,0,1-.235,17.714l-27.322,44.444c-3.253,5.292-9.025,7.935-14.692,6.719-10.9-2.34-29.836-5.883-47.954-6.758-16.424-.793-33.071,2.491-43.883,5.288C41.888,156.059,34.747,151.876,32.134,144.43Z" transform="translate(-11.731 -40.994)"/><g id="NUCLEUS" class="cls-2"><g id="NUCLEUS-2" data-name="NUCLEUS" class="cls-3"><circle class="cls-4" cx="139.646" cy="56.885" r="15.167"/><path class="cls-5" d="M151.377,113.6A15.724,15.724,0,1,1,167.1,97.879,15.742,15.742,0,0,1,151.377,113.6Zm0-30.334a14.609,14.609,0,1,0,14.609,14.609A14.623,14.623,0,0,0,151.377,83.27Z" transform="translate(-11.731 -40.994)"/></g><g id="NUCLEOLUS"><circle class="cls-6" cx="131.951" cy="56.802" r="3.095"/><path class="cls-7" d="M143.682,101.057a3.248,3.248,0,1,1,3.234-3.262A3.236,3.236,0,0,1,143.682,101.057Zm0-6.217a2.955,2.955,0,1,0,2.955,2.955A2.957,2.957,0,0,0,143.682,94.84Z" transform="translate(-11.731 -40.994)"/></g></g></g></svg>