<svg id="Layer_1" data-name="Layer 1" xmlns="http://www.w3.org/2000/svg" xmlns:xlink="http://www.w3.org/1999/xlink" viewBox="0 0 23.213 111.544"><defs><style>.cls-1{fill:url(#linear-gradient);}.cls-2{fill:url(#linear-gradient-2);}.cls-3{fill:url(#radial-gradient);}.cls-4{fill:url(#radial-gradient-2);}.cls-5{fill:url(#radial-gradient-3);}.cls-6{fill:url(#radial-gradient-4);}</style><linearGradient id="linear-gradient" x1="88.394" y1="100" x2="111.606" y2="100" gradientUnits="userSpaceOnUse"><stop offset="0" stop-color="#174a43"/><stop offset="0.045" stop-color="#195f48"/><stop offset="0.137" stop-color="#1c8452"/><stop offset="0.23" stop-color="#1fa15a"/><stop offset="0.322" stop-color="#21b560"/><stop offset="0.413" stop-color="#22c263"/><stop offset="0.5" stop-color="#22c664"/><stop offset="0.587" stop-color="#22c263"/><stop offset="0.678" stop-color="#21b560"/><stop offset="0.77" stop-color="#1fa15a"/><stop offset="0.863" stop-color="#1c8452"/><stop offset="0.955" stop-color="#195f48"/><stop offset="1" stop-color="#174a43"/></linearGradient><linearGradient id="linear-gradient-2" x1="100" y1="44.228" x2="100" y2="155.772" gradientUnits="userSpaceOnUse"><stop offset="0" stop-color="#11635a"/><stop offset="0" stop-color="#11645a" stop-opacity="0.994"/><stop offset="0.009" stop-color="#16825d" stop-opacity="0.702"/><stop offset="0.018" stop-color="#1b9b60" stop-opacity="0.463"/><stop offset="0.029" stop-color="#1eae62" stop-opacity="0.277"/><stop offset="0.042" stop-color="#20bc63" stop-opacity="0.146"/><stop offset="0.06" stop-color="#22c464" stop-opacity="0.071"/><stop offset="0.105" stop-color="#22c664" stop-opacity="0.05"/><stop offset="0.204" stop-color="#11635a"/><stop offset="0.24" stop-color="#11635a"/><stop offset="0.31" stop-color="#22c664" stop-opacity="0.05"/><stop offset="0.377" stop-color="#11635a"/><stop offset="0.405" stop-color="#11635a"/><stop offset="0.497" stop-color="#22c664" stop-opacity="0.05"/><stop offset="0.612" stop-color="#11635a"/><stop offset="0.644" stop-color="#11635a"/><stop offset="0.679" stop-color="#22c664" stop-opacity="0.05"/><stop offset="0.779" stop-color="#11635a"/><stop offset="0.795" stop-color="#11635a"/><stop offset="0.913" stop-color="#22c664" stop-opacity="0.05"/><stop offset="0.933" stop-color="#21c264" stop-opacity="0.087"/><stop offset="0.951" stop-color="#1fb662" stop-opacity="0.202"/><stop offset="0.968" stop-color="#1ca260" stop-opacity="0.394"/><stop offset="0.984" stop-color="#17865e" stop-opacity="0.662"/><stop offset="1" stop-color="#11635a"/></linearGradient><radialGradient id="radial-gradient" cx="11.606" cy="11.607" r="11.606" gradientUnits="userSpaceOnUse"><stop offset="0" stop-color="#22c664" stop-opacity="0.05"/><stop offset="0.318" stop-color="#22c364" stop-opacity="0.077"/><stop offset="0.509" stop-color="#20ba63" stop-opacity="0.166"/><stop offset="0.666" stop-color="#1daa61" stop-opacity="0.319"/><stop offset="0.805" stop-color="#19935f" stop-opacity="0.535"/><stop offset="0.931" stop-color="#14775c" stop-opacity="0.812"/><stop offset="1" stop-color="#11635a"/></radialGradient><radialGradient id="radial-gradient-2" cx="11.606" cy="34.483" r="8.33" xlink:href="#radial-gradient"/><radialGradient id="radial-gradient-3" cx="100" cy="101.149" r="8.456" gradientTransform="translate(0 -38.685) scale(1 1.382)" xlink:href="#radial-gradient"/><radialGradient id="radial-gradient-4" cx="11.606" cy="79.359" r="8.33" xlink:href="#radial-gradient"/></defs><title>R-ICO-013735</title><g id="R-ICO-013735"><path id="BG" class="cls-1" d="M108.33,78.711a8.328,8.328,0,0,0-5-7.632V66.95a11.606,11.606,0,1,0-6.664,0v4.129a8.326,8.326,0,0,0,0,15.264v3.664a8.292,8.292,0,0,0-2.558,1.738c-1.627,1.627-2.44,7.272-2.44,9.4s.813,7.778,2.44,9.4a8.275,8.275,0,0,0,2.558,1.738v3.664a8.326,8.326,0,0,0,0,15.264V152.44a3.332,3.332,0,0,0,6.664,0V131.219a8.326,8.326,0,0,0,0-15.264v-3.663a8.3,8.3,0,0,0,2.558-1.739c1.627-1.626,2.44-7.272,2.44-9.4s-.813-7.777-2.44-9.4a8.292,8.292,0,0,0-2.558-1.738V86.344A8.33,8.33,0,0,0,108.33,78.711Z" transform="translate(-88.394 -44.228)"/><path id="GRADIENT" class="cls-2" d="M108.33,78.711a8.328,8.328,0,0,0-5-7.632V66.95a11.606,11.606,0,1,0-6.664,0v4.129a8.326,8.326,0,0,0,0,15.264v3.664a8.292,8.292,0,0,0-2.558,1.738c-1.627,1.627-2.44,7.272-2.44,9.4s.813,7.778,2.44,9.4a8.275,8.275,0,0,0,2.558,1.738v3.664a8.326,8.326,0,0,0,0,15.264V152.44a3.332,3.332,0,0,0,6.664,0V131.219a8.326,8.326,0,0,0,0-15.264v-3.663a8.3,8.3,0,0,0,2.558-1.739c1.627-1.626,2.44-7.272,2.44-9.4s-.813-7.777-2.44-9.4a8.292,8.292,0,0,0-2.558-1.738V86.344A8.33,8.33,0,0,0,108.33,78.711Z" transform="translate(-88.394 -44.228)"/><circle id="NTSP1" class="cls-3" cx="11.606" cy="11.607" r="11.606"/><circle id="vWc" class="cls-4" cx="11.606" cy="34.483" r="8.33"/><path id="EGF-like" class="cls-5" d="M105.89,110.553c1.627-1.626,2.44-7.272,2.44-9.4s-.813-7.777-2.44-9.4a8.33,8.33,0,0,0-11.78,0c-1.627,1.627-2.44,7.272-2.44,9.4s.813,7.778,2.44,9.4A8.33,8.33,0,0,0,105.89,110.553Z" transform="translate(-88.394 -44.228)"/><circle id="vWc-2" data-name="vWc" class="cls-6" cx="11.606" cy="79.359" r="8.33"/></g></svg>