<svg id="Layer_1" data-name="Layer 1" xmlns="http://www.w3.org/2000/svg" xmlns:xlink="http://www.w3.org/1999/xlink" viewBox="0 0 72.535 32.934"><defs><style>.cls-1{fill:url(#linear-gradient);}.cls-2{fill:#21004a;}.cls-3{font-size:12px;fill:#fff;font-family:Arial-BoldMT, Arial;font-weight:700;}</style><linearGradient id="linear-gradient" x1="36.449" y1="31.33" x2="36.449" y2="1.33" gradientUnits="userSpaceOnUse"><stop offset="0" stop-color="#951c00"/><stop offset="1" stop-color="#21004a"/></linearGradient></defs><title>oncogenic_RAS</title><g id="oncogenic_RAS"><rect class="cls-1" x="1.449" y="1.33" width="70" height="30" rx="10" ry="10"/><path class="cls-2" d="M125.135,115.534c-7.616-.009-15.231.43-22.847.837-7.616.458-15.231.547-22.847.613l-2.856,0-1.428,0a12.9,12.9,0,0,1-1.647-.129,11.233,11.233,0,0,1-5.921-2.737,11.621,11.621,0,0,1-3.465-5.487,12.185,12.185,0,0,1-.438-3.238l.038-2.857.088-5.712.033-1.428A12.592,12.592,0,0,1,64,93.8a10.77,10.77,0,0,1,.963-3.048,10.969,10.969,0,0,1,10.169-6.187c7.616.261,15.231.449,22.847.335,3.808-.049,7.616-.194,11.423-.349l11.423-.413,2.856-.058,1.428-.024a12.628,12.628,0,0,1,1.61.118,10.843,10.843,0,0,1,5.8,2.661,10.732,10.732,0,0,1,3.34,5.387,10.954,10.954,0,0,1,.356,3.154l-.14,2.857-.285,5.712-.074,1.428a11.852,11.852,0,0,1-.191,1.494,10.056,10.056,0,0,1-.954,2.818A10.655,10.655,0,0,1,125.135,115.534Zm0-.3a9.748,9.748,0,0,0,5.289-1.626,9.477,9.477,0,0,0,3.449-4.247,9.026,9.026,0,0,0,.647-2.64,10.794,10.794,0,0,0,.032-1.35l-.074-1.428-.285-5.712-.141-2.855a10.69,10.69,0,0,0-.474-2.478,9.387,9.387,0,0,0-2.784-4.07,9.055,9.055,0,0,0-4.447-2.011,9.971,9.971,0,0,0-1.234-.1l-1.428-.024-2.856-.058-11.423-.413c-3.808-.155-7.616-.3-11.423-.349-7.616-.114-15.231.074-22.847.335a9.139,9.139,0,0,0-4.844,1.642,9.336,9.336,0,0,0-3.162,3.9,8.325,8.325,0,0,0-.638,2.41,10.085,10.085,0,0,0-.066,1.244l.033,1.428.088,5.712.039,2.855a9.262,9.262,0,0,0,.391,2.394,8.611,8.611,0,0,0,6.984,5.9,9.711,9.711,0,0,0,1.2.092l1.428,0,2.856,0c7.616.066,15.231.155,22.847.613C109.9,114.8,117.519,115.243,125.135,115.234Z" transform="translate(-63.686 -84.054)"/><text class="cls-3" transform="translate(5.853 11.815)">oncogenic<tspan x="17.335" y="14.4">RAS</tspan></text></g></svg>