<svg id="Layer_1" data-name="Layer 1" xmlns="http://www.w3.org/2000/svg" xmlns:xlink="http://www.w3.org/1999/xlink" viewBox="0 0 57.311 22.901"><defs><style>.cls-1{fill:url(#linear-gradient);}.cls-2{fill:#c9ae15;}.cls-3{font-size:12px;fill:#fff;font-family:Arial-BoldMT, Arial;font-weight:700;}</style><linearGradient id="linear-gradient" x1="28.899" y1="21.293" x2="28.899" y2="1.293" gradientUnits="userSpaceOnUse"><stop offset="0" stop-color="#9b609b"/><stop offset="1" stop-color="#c9ae15"/></linearGradient></defs><title>R-ICO-013767</title><g id="R-ICO-013767"><rect class="cls-1" x="1.399" y="1.293" width="55" height="20" rx="10"/><path class="cls-2" d="M117.5,110.15c-5.532-.009-11.065.43-16.6.837-5.532.458-11.065.547-16.6.613-.711.009-1.34.016-2.117-.01a11.256,11.256,0,0,1-2.382-.32,11.118,11.118,0,0,1-4.294-2.079,11.394,11.394,0,0,1-4.379-8.161,11.1,11.1,0,0,1,3.111-8.571,10.875,10.875,0,0,1,8.255-3.28c5.532.281,11.065.436,16.6.335,5.532-.085,11.065-.574,16.6-.763.707-.012,1.348-.052,2.109-.043a9.736,9.736,0,0,1,2.329.278A10.745,10.745,0,0,1,124.343,91a10.6,10.6,0,0,1,4.063,8.014,10.783,10.783,0,0,1-3.256,7.976A10.976,10.976,0,0,1,117.5,110.15Zm0-.3a9.148,9.148,0,0,0,9-10.666,9.543,9.543,0,0,0-6.994-7.6,10.151,10.151,0,0,0-1.775-.264c-.621-.045-1.363-.045-2.039-.07-5.532-.189-11.065-.678-16.6-.763-5.532-.1-11.065.054-16.6.335a9.112,9.112,0,0,0-6.478,3.263,8.848,8.848,0,0,0-2.064,6.69,8.562,8.562,0,0,0,3.456,5.925,8.931,8.931,0,0,0,3.139,1.461,8.053,8.053,0,0,0,1.722.223c.6.029,1.359,0,2.031.017,5.532.066,11.065.155,16.6.613C106.435,109.42,111.968,109.859,117.5,109.85Z" transform="translate(-71.101 -88.707)"/><text class="cls-3" transform="translate(4.22 14.607)">SESN1,2</text></g></svg>