<svg id="Layer_1" data-name="Layer 1" xmlns="http://www.w3.org/2000/svg" xmlns:xlink="http://www.w3.org/1999/xlink" viewBox="0 0 122.936 32.949"><defs><style>.cls-1{fill:url(#linear-gradient);}.cls-2{fill:#0052af;}.cls-3{font-size:12px;fill:#fff;font-family:Arial-BoldMT, Arial;font-weight:700;}.cls-4{letter-spacing:-0.074em;}.cls-5{letter-spacing:-0.02em;}</style><linearGradient id="linear-gradient" x1="61.807" y1="31.347" x2="61.807" y2="1.347" gradientUnits="userSpaceOnUse"><stop offset="0" stop-color="#06a2b2"/><stop offset="1" stop-color="#ae486a"/></linearGradient></defs><title>R-ICO-013639</title><g id="UBIQUITINYLATION_PROTEIN" data-name="UBIQUITINYLATION PROTEIN"><rect class="cls-1" x="1.307" y="1.347" width="121" height="30" rx="10" ry="10"/><path class="cls-2" d="M150.5,115.15c-11.866-.011-23.731.447-35.6.837-11.866.458-23.731.546-35.6.613-5.933,0-11.866.019-17.8-.037l-8.9-.076-2.225-.019c-.386-.009-.709.006-1.145-.022a10.232,10.232,0,0,1-1.269-.111,11.4,11.4,0,0,1-9.735-10.2c-.016-.413-.039-.853-.041-1.244l.017-1.112.033-2.225.067-4.45.04-2.239a11.326,11.326,0,0,1,.343-2.45,11.18,11.18,0,0,1,2.248-4.339,11.017,11.017,0,0,1,8.559-3.9c11.866.261,23.731.449,35.6.335,5.933-.049,11.866-.194,17.8-.349l17.8-.413c5.933-.085,11.866-.131,17.8-.071q4.45.022,8.9.128l2.225.045a15.7,15.7,0,0,1,2.365.174,11.079,11.079,0,0,1,4.5,1.83,10.923,10.923,0,0,1,4.622,8.073c.008.393.024.8.021,1.177l-.034,1.112-.068,2.225-.135,4.45-.074,2.229a10.836,10.836,0,0,1-.329,2.264,10.388,10.388,0,0,1-9.99,7.762Zm0-.3a9.667,9.667,0,0,0,9.44-7.594,16.608,16.608,0,0,0,.168-4.36l-.135-4.45-.068-2.225-.034-1.112-.081-1.045a9.292,9.292,0,0,0-4.34-6.632,9.051,9.051,0,0,0-3.759-1.258,16.85,16.85,0,0,0-2.075-.028l-2.225.045q-4.45.108-8.9.128c-5.933.061-11.866.015-17.8-.071l-17.8-.413c-5.933-.155-11.866-.3-17.8-.349-11.866-.114-23.731.074-35.6.335a9.039,9.039,0,0,0-8.623,7.119,9.048,9.048,0,0,0-.215,1.953L40.69,97.1l.067,4.45.033,2.225.017,1.112.061.978a8.805,8.805,0,0,0,3.94,6.307,8.639,8.639,0,0,0,3.55,1.287,14.349,14.349,0,0,0,2.026.069l2.225-.019,8.9-.076c5.933-.056,11.866-.036,17.8-.037,11.866.066,23.731.155,35.6.613C126.769,114.4,138.634,114.861,150.5,114.85Z" transform="translate(-38.193 -83.653)"/><text class="cls-3" transform="translate(4.663 11.832)">UBIQUITINYL<tspan class="cls-4" x="76.664" y="0">A</tspan><tspan x="84.439" y="0">TION</tspan><tspan x="30.003" y="14.4">PROTEI</tspan><tspan class="cls-5" x="74.675" y="14.4">N</tspan></text></g></svg>