<svg id="Layer_1" data-name="Layer 1" xmlns="http://www.w3.org/2000/svg" xmlns:xlink="http://www.w3.org/1999/xlink" viewBox="0 0 53.492 70.504"><defs><style>.cls-1{fill:#893f12;}.cls-2{fill:none;stroke:#dd9a72;stroke-linecap:round;stroke-miterlimit:1;}.cls-3{fill:url(#radial-gradient);}</style><radialGradient id="radial-gradient" cx="1416" cy="-534.966" r="10.604" gradientTransform="translate(-1299.397 607.359)" gradientUnits="userSpaceOnUse"><stop offset="0" stop-color="#de9b71"/><stop offset="0.141" stop-color="#c68155"/><stop offset="0.326" stop-color="#ad6538"/><stop offset="0.508" stop-color="#9b5022"/><stop offset="0.686" stop-color="#904415"/><stop offset="0.852" stop-color="#8c4011"/></radialGradient></defs><title>CD47</title><g id="CD47"><g id="CD47-2" data-name="CD47"><path class="cls-1" d="M114.04,132.936c-5.528,0-6.994-5.316-7-8.128V90.983c-.04-4.014-2.692-4.13-3-4.13s-2.947.116-2.973,4.132v33.822c0,2.812-1.462,8.13-7,8.13a6.437,6.437,0,0,1-6.222-4.311,11.028,11.028,0,0,1-.772-3.819V90.983c-.04-4.014-2.691-4.13-2.993-4.13s-2.953.116-2.991,4.139v33.815c0,2.813-1.469,8.13-7,8.13a2,2,0,1,1,0-4c.123,0,3-.047,3-4.132V90.982a11.039,11.039,0,0,1,.771-3.819,6.433,6.433,0,0,1,6.22-4.311c5.532,0,6.993,5.318,6.993,8.13v33.824c.04,4.014,2.691,4.13,2.994,4.13.122,0,3-.047,3-4.13V90.982a9.612,9.612,0,0,1,2.357-6.3,6.353,6.353,0,0,1,4.615-1.832c5.533,0,7,5.318,7,8.13v33.824c.044,4.014,2.7,4.13,3,4.13s2.952-.116,2.992-4.14l0-52.95a2,2,0,0,1,4,0l0,52.959C121.032,127.618,119.571,132.936,114.04,132.936Z" transform="translate(-72.102 -62.433)"/><path class="cls-2" d="M73.756,130.334c4.995,0,5-6.13,5-6.13V90.38s0-6.13,4.991-6.13,4.993,6.131,4.993,6.131V124.2s0,6.13,4.995,6.13,4.995-6.13,4.995-6.13V90.38s-.022-6.13,4.973-6.13,4.995,6.131,4.995,6.131V124.2s.006,6.13,5,6.13,4.992-6.13,4.992-6.13.005-51.96.005-52.96" transform="translate(-72.102 -62.433)"/><path class="cls-3" d="M119.037,79.039a6.557,6.557,0,0,1-6.557-6.557V68.99a6.557,6.557,0,0,1,13.114,0v3.493A6.557,6.557,0,0,1,119.037,79.039Z" transform="translate(-72.102 -62.433)"/></g></g></svg>