<svg id="Layer_1" data-name="Layer 1" xmlns="http://www.w3.org/2000/svg" xmlns:xlink="http://www.w3.org/1999/xlink" viewBox="0 0 23.376 157.137"><defs><style>.cls-1{fill:url(#linear-gradient);}.cls-2{fill:url(#linear-gradient-2);}.cls-3{fill:url(#linear-gradient-3);}.cls-4{mask:url(#mask);}.cls-5{fill:url(#linear-gradient-4);}.cls-6{fill:url(#linear-gradient-5);}.cls-7{fill:url(#linear-gradient-6);}</style><linearGradient id="linear-gradient" x1="98.688" y1="47.779" x2="98.688" y2="29.496" gradientUnits="userSpaceOnUse"><stop offset="0"/><stop offset="0.383" stop-color="#fff"/><stop offset="1"/></linearGradient><linearGradient id="linear-gradient-2" x1="95.768" y1="107.357" x2="101.821" y2="107.357" gradientUnits="userSpaceOnUse"><stop offset="0" stop-color="#22002a"/><stop offset="0.383" stop-color="#b00f3f"/><stop offset="1" stop-color="#22002a"/></linearGradient><linearGradient id="linear-gradient-3" x1="113.3" y1="178.157" x2="113.3" y2="178.157" xlink:href="#linear-gradient-2"/><mask id="mask" x="0" y="0" width="23.376" height="19.695" maskUnits="userSpaceOnUse"><g transform="translate(-87 -28.788)"><path class="cls-1" d="M95.766,46.754a2.97,2.97,0,0,0-1.809-2.7A11.691,11.691,0,0,1,87,33.348c0-12.679,3.144,5.108,11.688,5.108s11.688-17.787,11.688-5.08a11.672,11.672,0,0,1-6.957,10.676,2.971,2.971,0,0,0-1.809,2.7v1.729H95.766Z"/></g></mask><linearGradient id="linear-gradient-4" x1="87.798" y1="38.54" x2="109.5" y2="38.687" xlink:href="#linear-gradient-2"/><linearGradient id="linear-gradient-5" x1="11.688" y1="31.528" x2="11.688" y2="22.762" gradientUnits="userSpaceOnUse"><stop offset="0" stop-color="#22002a"/><stop offset="0.999" stop-color="#b00f3f"/></linearGradient><linearGradient id="linear-gradient-6" x1="11.688" y1="43.244" x2="11.688" y2="34.478" xlink:href="#linear-gradient-5"/></defs><title>EFHA</title><g id="EPHRIN"><path class="cls-2" d="M110.376,33.377c0-12.708-3.144,5.08-11.688,5.08S87,20.669,87,33.348a11.691,11.691,0,0,0,6.958,10.7,2.97,2.97,0,0,1,1.809,2.7V182.878a3.007,3.007,0,0,0,2.635,3.034A2.922,2.922,0,0,0,101.61,183V46.754a2.971,2.971,0,0,1,1.809-2.7A11.672,11.672,0,0,0,110.376,33.377Z" transform="translate(-87 -28.788)"/><path class="cls-3" d="M113.3,178.157" transform="translate(-87 -28.788)"/><g class="cls-4"><path class="cls-5" d="M95.766,46.754a2.97,2.97,0,0,0-1.809-2.7A11.691,11.691,0,0,1,87,33.348c0-12.679,3.144,5.108,11.688,5.108s11.688-17.787,11.688-5.08a11.672,11.672,0,0,1-6.957,10.676,2.971,2.971,0,0,0-1.809,2.7v1.729H95.766Z" transform="translate(-87 -28.788)"/></g><rect class="cls-6" x="2.922" y="22.762" width="17.532" height="8.766" rx="1.808" ry="1.808"/><rect class="cls-7" x="2.922" y="34.478" width="17.532" height="8.766" rx="1.808" ry="1.808"/></g></svg>