<svg id="Layer_1" data-name="Layer 1" xmlns="http://www.w3.org/2000/svg" viewBox="0 0 36.555 72.633"><defs><style>.cls-1{fill:#cca22b;stroke:#af7e05;stroke-miterlimit:10;stroke-width:2px;}</style></defs><title>R-ICO-013651</title><path id="Isolation_membrane" data-name="Isolation membrane" class="cls-1" d="M87.272,135.293a4.022,4.022,0,0,1-4.254-3.056,7.066,7.066,0,0,1,2.816-7.86c8.545-5.246,15.03-14.472,18.652-23.579a45.311,45.311,0,0,0,1.295-30.765c-.874-2.942.48-5.524,3.1-5.342s5.425,2.934,6.2,5.67c3.61,13.119,2.672,22.147-2.109,33.783-4.445,10.371-12.438,22.918-23.581,30.357A4.808,4.808,0,0,1,87.272,135.293Z" transform="translate(-81.723 -63.684)"/></svg>