<svg id="Layer_1" data-name="Layer 1" xmlns="http://www.w3.org/2000/svg" xmlns:xlink="http://www.w3.org/1999/xlink" viewBox="0 0 63.541 50.084"><defs><style>.cls-1{fill:#6b2222;}.cls-2{fill:none;stroke:#d93636;stroke-linecap:round;stroke-miterlimit:1;}.cls-3{fill:url(#linear-gradient);}</style><linearGradient id="linear-gradient" x1="131.879" y1="76.94" x2="129.026" y2="78.864" gradientUnits="userSpaceOnUse"><stop offset="0" stop-color="#d93636"/><stop offset="0.998" stop-color="#6b2222"/></linearGradient></defs><title>INSIG</title><g id="NSIG"><path class="cls-1" d="M130.446,79.9c-2.864,0-2.97,3.709-2.973,4.132v33.822c0,2.812-1.462,8.13-7,8.13s-7-5.318-7-8.13V84.028c0-.414-.124-4.13-2.994-4.13s-2.987,3.715-2.991,4.139v33.816c0,2.813-1.469,8.13-7,8.13s-6.995-5.318-6.995-8.13V84.028c0-.414-.124-4.13-2.995-4.13a2.479,2.479,0,0,0-2.516,1.819,7.212,7.212,0,0,0-.476,2.31v33.826c0,2.812-1.462,8.13-7,8.13a6.438,6.438,0,0,1-6.224-4.311,11.036,11.036,0,0,1-.771-3.82V84.028c0-.414-.125-4.13-3-4.13a2,2,0,1,1,0-4c5.534,0,7,5.318,7,8.13v33.825c0,.415.123,4.13,3,4.13s2.993-3.716,3-4.14V84.028a11.028,11.028,0,0,1,.771-3.819A6.434,6.434,0,0,1,90.51,75.9c5.533,0,6.995,5.318,6.995,8.13v33.825c0,.414.124,4.13,2.995,4.13,2.962,0,3-3.963,3-4.132V84.028a11.039,11.039,0,0,1,.771-3.819,6.434,6.434,0,0,1,6.22-4.311c5.532,0,6.994,5.318,6.994,8.13v33.824c0,.414.124,4.13,3,4.13,2.961,0,3-3.961,3-4.13V84.028a9.6,9.6,0,0,1,2.357-6.3,6.35,6.35,0,0,1,4.615-1.832Z" transform="translate(-68.53 -75.898)"/><path class="cls-2" d="M70.183,77.407c5,0,5,6.13,5,6.13v33.825s0,6.13,4.995,6.13,5-6.13,5-6.13V83.537s0-6.13,4.991-6.13,4.995,6.13,4.995,6.13v33.825s0,6.13,4.995,6.13,5-6.13,5-6.13V83.537s0-6.13,4.991-6.13,4.993,6.131,4.993,6.131v33.824s0,6.13,4.995,6.13,4.995-6.13,4.995-6.13V83.537s-.022-6.13,4.973-6.13" transform="translate(-68.53 -75.898)"/><path class="cls-3" d="M132.07,77.871c0,1.09-.554,2.027-1.625,2.027s-1.625-.938-1.625-2.027a1.655,1.655,0,1,1,3.249,0Z" transform="translate(-68.53 -75.898)"/></g></svg>