<svg id="Layer_1" data-name="Layer 1" xmlns="http://www.w3.org/2000/svg" xmlns:xlink="http://www.w3.org/1999/xlink" viewBox="0 0 114.749 114.953"><defs><style>.cls-1{fill:url(#linear-gradient);}.cls-2{fill:#fae39b;}.cls-3{opacity:0.6;}.cls-4{isolation:isolate;}.cls-5{fill:url(#radial-gradient);}.cls-6{fill:#5656a5;}.cls-7{fill:url(#radial-gradient-2);}.cls-8{fill:#4b4b96;}.cls-9{fill:url(#linear-gradient-2);}</style><linearGradient id="linear-gradient" x1="99.286" y1="153.728" x2="99.286" y2="40.371" gradientUnits="userSpaceOnUse"><stop offset="0.044" stop-color="#ad9037"/><stop offset="0.759" stop-color="#e7c049"/><stop offset="0.807" stop-color="#e3bd48"/><stop offset="0.855" stop-color="#d7b344"/><stop offset="0.903" stop-color="#c2a23e"/><stop offset="0.952" stop-color="#a68b35"/><stop offset="1" stop-color="#826d2a"/></linearGradient><radialGradient id="radial-gradient" cx="-358.776" cy="1163.321" r="21.816" gradientTransform="translate(111.526 -1124.777) rotate(-15.515)" gradientUnits="userSpaceOnUse"><stop offset="0" stop-color="#afbaf7"/><stop offset="0.311" stop-color="#6d96ce"/><stop offset="0.803" stop-color="#285fcc"/></radialGradient><radialGradient id="radial-gradient-2" cx="-362.89" cy="1170.151" r="4.208" gradientTransform="translate(115.445 -1119.656) rotate(-15.515)" gradientUnits="userSpaceOnUse"><stop offset="0" stop-color="#afbaf7"/><stop offset="0.312" stop-color="#b898ce"/><stop offset="0.803" stop-color="#515181"/></radialGradient><linearGradient id="linear-gradient-2" x1="92.803" y1="155.199" x2="92.803" y2="52.879" gradientUnits="userSpaceOnUse"><stop offset="0.044" stop-color="#ad9037"/><stop offset="0.376" stop-color="#c4a33e"/><stop offset="0.805" stop-color="#e7c049"/><stop offset="0.855" stop-color="#e4be48"/><stop offset="0.892" stop-color="#dbb645"/><stop offset="0.925" stop-color="#cba940"/><stop offset="0.955" stop-color="#b49639"/><stop offset="0.983" stop-color="#987f31"/><stop offset="1" stop-color="#826d2a"/></linearGradient></defs><title>epithelial_cell</title><g id="EPITHELIAL_CELL"><path id="BG" class="cls-1" d="M156.154,77.188c.007-.861.014-1.723.024-2.609q-.015-1.238-.022-2.476c-.012-1.609-.024-3.219-.063-4.828-.058-2.3-.127-4.761-.284-7.244.156-1.425.228-2.857.282-4.086.067-1.351.079-2.683.088-4.172a10.3,10.3,0,0,0-1.073-4.546,10.164,10.164,0,0,0-1.472-2.181,8.5,8.5,0,0,0-2.075-2.2l.031.038-.041-.038h-.033a9.436,9.436,0,0,0-1.2-.871,9.891,9.891,0,0,0-1.815-.864l-.08-.033H148.4a10.479,10.479,0,0,0-3.907-.637c-1.991.062-3.981.1-5.972.184-2.375-.155-4.75-.227-7.124-.287s-4.75-.056-7.124-.087c-2.375.029-4.75.026-7.124.086s-4.75.133-7.124.288c-1.537-.155-3.074-.227-4.612-.287s-3.074-.078-4.611-.088c-1.537.008-3.074.018-4.612.086s-3.074.133-4.611.288c-2.44-.155-4.88-.227-7.319-.287s-4.88-.056-7.319-.087c-2.44.029-4.88.026-7.319.086l-3.66.1a12.061,12.061,0,0,0-3.632.5c.039-.007.078-.01.116-.017l-.193.05c.026-.01.05-.023.076-.033a9.522,9.522,0,0,0-4.981,2.639c-.215.215-.41.45-.6.685-.7.695-1.716,2.071-2.26,2.568-.269.246-1.027,1.284-1.463,1.67a15.013,15.013,0,0,1-1.6,1.558,11.912,11.912,0,0,0-2.3,2.058,5.626,5.626,0,0,1-1.8,1.58c-1.038.727-5.353,5.919-4.888,7.993v73.486c.074,13.673,3.787,18.2,16.655,18.645l69.872.261,4.462-.184c2.718,0,7.881-.257,11.151-4.127,3.135-3.711,4.688-5.908,5.689-6.911a60.516,60.516,0,0,0,4.356-4.753c1.566-1.942,1.564-4.577,1.545-7.191l-.018-.93c-.011-.634-.021-1.269-.051-1.89-.057-1.782-.127-3.681-.285-5.6.158-2.876.23-5.79.285-8.3.039-1.8.052-3.593.063-5.39q.01-1.477.024-2.955v-.022q-.015-1.415-.022-2.831c-.012-1.838-.024-3.675-.063-5.514-.058-2.643-.128-5.461-.286-8.308.158-2.521.23-5.073.285-7.27C156.13,80.335,156.142,78.761,156.154,77.188Z" transform="translate(-41.429 -40.246)"/><path id="CYTOPLASM" class="cls-2" d="M143.178,86.591c-.029-2.431-.026-4.861-.086-7.292,0-.158-.01-.316-.014-.474,0-.233.009-.466.013-.7l.088-11.943c0-.507,0-1.013-.01-1.523,0-.293.007-.586.009-.88a9.29,9.29,0,0,0-.968-4.109,8.771,8.771,0,0,0-2.651-3.2l.031.038-.041-.038h-.033a9.436,9.436,0,0,0-1.2-.871,10.358,10.358,0,0,0-5.819-1.535c-1.991.062-3.981.1-5.972.184-2.375-.155-4.75-.227-7.124-.287s-4.75-.056-7.124-.087c-2.375.029-4.75.026-7.124.086s-4.75.133-7.124.288c-1.537-.155-3.074-.227-4.612-.287s-3.074-.078-4.611-.088c-1.537.008-3.074.018-4.612.086s-3.074.133-4.611.288c-2.44-.155-4.88-.227-7.319-.287s-4.88-.056-7.319-.087c-2.44.029-4.88.026-7.319.086l-3.66.1a12.061,12.061,0,0,0-3.632.5c.039-.007.078-.01.116-.017l-.193.05c.026-.01.05-.023.076-.033a9.522,9.522,0,0,0-4.981,2.639,10.005,10.005,0,0,0-1.49,1.913l-.08,0a9.86,9.86,0,0,0-.662,1.5,9.388,9.388,0,0,0-.48,1.632,13.131,13.131,0,0,0-.188,2.872c.013.54.021,1.081.032,1.621-.019,2.017-.029,4.032-.051,6.049.029,3.061.026,6.123.086,9.184v0c-.06,2.748-.055,5.5-.086,8.245.028,2.667.029,5.333.082,8-.052,2.118-.052,4.236-.082,6.354.029,2.236.026,4.472.086,6.708.013.468.031.936.045,1.4-.014.5-.032.994-.044,1.491-.062,2.431-.056,4.861-.087,7.292.029,2.431.026,4.861.086,7.292,0,.158.01.316.014.474,0,.233-.009.466-.013.7l-.088,11.943c0,.507,0,1.013.01,1.524,0,.293-.007.586-.009.88a9.29,9.29,0,0,0,.968,4.109,8.771,8.771,0,0,0,2.651,3.2l-.031-.038.042.039H46.1a9.427,9.427,0,0,0,1.2.869,10.358,10.358,0,0,0,5.819,1.535c1.991-.062,3.981-.1,5.972-.184,2.375.155,4.75.227,7.124.287s4.75.056,7.124.087c2.375-.029,4.75-.026,7.124-.086s4.75-.133,7.124-.288c1.537.155,3.074.227,4.612.287s3.074.078,4.611.088c1.537-.008,3.074-.018,4.612-.086s3.074-.133,4.611-.288c2.44.155,4.88.227,7.319.287s4.88.056,7.319.087c2.44-.029,4.88-.026,7.319-.086l3.66-.1a12.061,12.061,0,0,0,3.632-.5c-.039.007-.078.01-.116.017l.193-.05c-.026.01-.05.023-.076.033.2-.036.389-.105.585-.155l1.247.024a8.955,8.955,0,0,0,1.584-1.059h0a9.379,9.379,0,0,0,3.8-4.865,9.388,9.388,0,0,0,.48-1.632,13.131,13.131,0,0,0,.188-2.872c-.013-.54-.021-1.081-.032-1.621.019-2.017.029-4.032.051-6.049-.029-3.061-.026-6.123-.086-9.184h0c.06-2.749.055-5.5.086-8.245-.028-2.667-.029-5.333-.082-8,.052-2.118.052-4.236.082-6.354-.029-2.236-.026-4.472-.086-6.708-.013-.468-.031-.937-.045-1.405.014-.5.032-.994.044-1.49C143.152,91.453,143.147,89.022,143.178,86.591Z" transform="translate(-41.429 -40.246)"/><g id="NUCLEUS" class="cls-3"><g id="NUCLEUS-2" data-name="NUCLEUS" class="cls-4"><circle class="cls-5" cx="82.998" cy="97.676" r="16.6" transform="translate(-86.186 47.052) rotate(-45)"/><path class="cls-6" d="M97.982,106.14A17.212,17.212,0,1,1,91.47,82.685,17.238,17.238,0,0,1,97.982,106.14ZM69.083,89.8a15.987,15.987,0,1,0,21.786-6.046A16,16,0,0,0,69.083,89.8Z" transform="translate(-41.429 -40.246)"/></g><g id="NUCLEOLUS"><circle class="cls-7" cx="78.777" cy="104.966" r="3.39" transform="translate(-92.578 46.202) rotate(-45)"/><path class="cls-8" d="M81.888,106.72a3.554,3.554,0,1,1-1.365-4.844A3.55,3.55,0,0,1,81.888,106.72Zm-5.926-3.352a3.233,3.233,0,1,0,4.405-1.223A3.241,3.241,0,0,0,75.963,103.368Z" transform="translate(-41.429 -40.246)"/></g></g><path id="MEMBRANE" class="cls-9" d="M96.81,155.2c-1.52-.009-3.08-.018-4.661-.089-1.374-.054-2.977-.124-4.584-.283-2.451.159-4.939.231-7.082.286-1.573.039-3.146.052-4.718.063q-1.21.009-2.419.022c-.859-.011-1.693-.018-2.527-.023-1.545-.013-3.091-.024-4.636-.064-2.138-.054-4.626-.125-7.109-.286-1.289.056-2.578.09-3.867.125l-2.062.058a11.378,11.378,0,0,1-6.381-1.687,10.289,10.289,0,0,1-1.151-.819.909.909,0,0,1-.15-.09,9.772,9.772,0,0,1-2.958-3.56,10.3,10.3,0,0,1-1.073-4.547l.009-.9c0-.287-.006-.6-.007-.9l0-.6.1-12.665-.014-.435c-.04-1.609-.052-3.219-.064-4.828-.006-.825-.012-1.65-.022-2.477.011-.883.018-1.741.024-2.6.012-1.577.024-3.153.064-4.73l.044-1.493-.045-1.351c-.04-1.485-.052-2.971-.064-4.456q-.01-1.132-.022-2.266c.011-.8.018-1.57.025-2.343.012-1.35.024-2.7.057-4.049-.035-1.7-.047-3.442-.059-5.187l-.023-2.778c.011-1,.018-1.984.024-2.965.012-1.771.023-3.541.062-5.312-.04-1.99-.052-4.02-.064-6.05q-.01-1.553-.022-3.1c.013-1.186.022-2.349.03-3.513l.021-2.556-.031-1.589a13.806,13.806,0,0,1,.207-3.09,13.933,13.933,0,0,1,1.25-3.428,1,1,0,0,1,.271-.31,10.9,10.9,0,0,1,1.466-1.825,10.543,10.543,0,0,1,5.429-2.9,13.129,13.129,0,0,1,3.819-.534l3.7-.106c1.62-.04,3.235-.052,4.851-.064.829-.006,1.657-.012,2.485-.022.886.011,1.748.018,2.609.024,1.583.012,3.165.024,4.748.064,2.194.054,4.743.125,7.275.284,1.594-.159,3.2-.23,4.59-.285,1.59-.07,3.213-.079,4.646-.087,1.526.009,3.092.019,4.661.088,1.377.054,2.982.125,4.584.283,2.453-.159,4.939-.23,7.082-.285,1.573-.04,3.146-.052,4.718-.064.807-.006,1.613-.012,2.419-.022.864.011,1.7.018,2.541.024,1.541.012,3.082.024,4.623.064,2.143.054,4.634.125,7.109.285,1.292-.055,2.584-.089,3.876-.124l2.053-.058a11.349,11.349,0,0,1,6.381,1.687,10.247,10.247,0,0,1,1.152.819.94.94,0,0,1,.149.09,9.765,9.765,0,0,1,2.959,3.561,10.283,10.283,0,0,1,1.072,4.546l-.009.9c0,.3.006.619.007.94l0,.566-.1,12.663.014.437c.039,1.609.052,3.219.063,4.828q.009,1.238.022,2.476c-.011.887-.018,1.748-.024,2.609-.012,1.573-.023,3.147-.062,4.72l-.045,1.494.046,1.349c.039,1.482.052,2.964.063,4.445q.009,1.138.022,2.277c-.011.781-.018,1.536-.024,2.291-.012,1.367-.023,2.734-.058,4.1.034,1.705.047,3.454.06,5.2l.022,2.762c-.012,1.008-.018,1.993-.024,2.979-.012,1.767-.023,3.532-.062,5.3.039,1.984.052,4.01.063,6.034q.009,1.56.022,3.121c-.013,1.16-.021,2.3-.03,3.437l-.021,2.632.032,1.589a13.868,13.868,0,0,1-.207,3.09,10.4,10.4,0,0,1-.529,1.8,10.564,10.564,0,0,1-.721,1.625,10.9,10.9,0,0,1-3.442,3.7,9.2,9.2,0,0,1-1.349.918l-.281.171c-1.275.776-3.981.856-6.019.78a25.43,25.43,0,0,0-3.506.1c-1.71.046-3.325.059-4.94.07q-1.244.009-2.486.022c-.881-.011-1.737-.018-2.595-.023-1.587-.013-3.174-.024-4.762-.064-2.189-.054-4.735-.124-7.275-.284-1.593.159-3.2.23-4.591.285C99.951,155.178,98.461,155.19,96.81,155.2Zm-37.726-2.375.065,0c2.464.161,4.949.231,7.084.285,1.534.041,3.067.053,4.6.064q1.256.009,2.512.023c.784-.01,1.593-.017,2.4-.022,1.561-.012,3.122-.024,4.683-.063,2.147-.055,4.643-.126,7.084-.287a1.184,1.184,0,0,1,.166,0c1.578.159,3.176.229,4.55.283,1.549.069,3.089.078,4.579.087,1.619-.008,3.088-.021,4.562-.085,1.386-.055,2.991-.126,4.555-.285a1.025,1.025,0,0,1,.165,0c2.531.161,5.084.231,7.28.285,1.577.041,3.152.053,4.728.064q1.289.009,2.58.023c.807-.01,1.639-.017,2.47-.022,1.6-.012,3.208-.024,4.813-.063a25.056,25.056,0,0,1,3.721-.1c2.86.1,4.433-.2,4.907-.491h0l.283-.172a7.3,7.3,0,0,0,1.18-.8.981.981,0,0,1,.112-.08,8.879,8.879,0,0,0,2.8-3.014,8.736,8.736,0,0,0,.587-1.34,8.586,8.586,0,0,0,.441-1.487,11.951,11.951,0,0,0,.169-2.654l-.032-1.627.021-2.659q.013-1.711.03-3.422c-.01-1.022-.017-2.065-.022-3.108-.012-2.015-.024-4.03-.063-6.046.038-1.8.05-3.555.062-5.311q.01-1.482.024-2.967l-.022-2.746c-.013-1.741-.025-3.481-.06-5.223.034-1.4.046-2.757.059-4.113q.009-1.138.023-2.274c-.01-.735-.017-1.5-.022-2.26-.012-1.47-.024-2.938-.063-4.408l-.045-1.4.044-1.547c.04-1.562.052-3.123.063-4.685q.009-1.3.023-2.595c-.01-.8-.017-1.632-.022-2.46-.012-1.6-.024-3.2-.063-4.794l-.014-.474.013-.74.087-11.934,0-.56c0-.313,0-.626-.007-.941l.009-.9a8.276,8.276,0,0,0-.86-3.654,7.824,7.824,0,0,0-2.2-2.728l-.051-.029a.912.912,0,0,1-.2-.127,8.6,8.6,0,0,0-1.074-.779,9.4,9.4,0,0,0-5.266-1.39l-2.065.058c-1.3.035-2.6.07-3.9.125-.037,0-.071,0-.108,0-2.456-.16-4.944-.231-7.084-.286-1.529-.04-3.058-.051-4.587-.063-.842-.006-1.684-.013-2.525-.024-.784.01-1.594.016-2.4.022-1.561.012-3.122.024-4.683.063-2.146.055-4.642.127-7.084.287a1.036,1.036,0,0,1-.166,0c-1.573-.159-3.173-.229-4.55-.283-1.536-.068-3.083-.078-4.578-.086-1.4.008-3.006.016-4.562.085-1.386.055-2.99.126-4.555.285a1.02,1.02,0,0,1-.164,0c-2.523-.16-5.081-.231-7.28-.286-1.572-.04-3.143-.051-4.713-.063-.865-.006-1.73-.013-2.595-.024-.807.01-1.638.016-2.47.022-1.6.012-3.208.024-4.812.063l-3.655.1a12.613,12.613,0,0,0-3.053.358.974.974,0,0,1-.249.1l-.177.046a1.006,1.006,0,0,1-.25.034,8.549,8.549,0,0,0-4.206,2.313,9.008,9.008,0,0,0-1.341,1.724,1.013,1.013,0,0,1-.205.242,9.551,9.551,0,0,0-.451,1.081,8.592,8.592,0,0,0-.44,1.487,11.921,11.921,0,0,0-.17,2.655l.032,1.628-.021,2.581q-.013,1.75-.03,3.5c.01,1.017.016,2.054.022,3.091.012,2.021.024,4.042.064,6.062-.039,1.8-.05,3.565-.062,5.326-.007.984-.013,1.968-.024,2.952l.023,2.764c.012,1.735.024,3.47.059,5.205-.033,1.383-.045,2.723-.057,4.062q-.01,1.163-.024,2.326c.01.731.016,1.49.022,2.248.012,1.474.024,2.946.063,4.42l.045,1.4-.044,1.546c-.04,1.565-.051,3.131-.063,4.7-.006.861-.013,1.724-.024,2.585.01.8.016,1.632.022,2.461.012,1.6.024,3.2.063,4.794l.014.474-.012.737L43.429,141.9l0,.6c0,.3,0,.6.007.9l-.009.9a8.269,8.269,0,0,0,.861,3.652,7.819,7.819,0,0,0,2.2,2.727l.058.033a.89.89,0,0,1,.2.126,8.556,8.556,0,0,0,1.07.777,9.378,9.378,0,0,0,5.265,1.391l2.075-.06c1.3-.034,2.592-.069,3.889-.125Z" transform="translate(-41.429 -40.246)"/></g></svg>