<svg id="Layer_1" data-name="Layer 1" xmlns="http://www.w3.org/2000/svg" xmlns:xlink="http://www.w3.org/1999/xlink" viewBox="0 0 68.093 22.947"><defs><style>.cls-1{fill:url(#linear-gradient);}.cls-2{fill:#79c194;}.cls-3{font-size:12px;fill:#fff;font-family:Arial-BoldMT, Arial;font-weight:700;}</style><linearGradient id="linear-gradient" x1="34.352" y1="1.348" x2="34.352" y2="21.348" gradientUnits="userSpaceOnUse"><stop offset="0" stop-color="#79c194"/><stop offset="1" stop-color="#5f3a81"/></linearGradient></defs><title>WBSCR22</title><g id="WBSCR22"><rect class="cls-1" x="1.352" y="1.348" width="66" height="20" rx="10" ry="10"/><path class="cls-2" d="M123,110.15c-6.449-.009-12.9.43-19.347.837-6.449.458-12.9.546-19.347.613H79.469l-2.418,0a11.541,11.541,0,0,1-10.694-7.518,11.043,11.043,0,0,1-.594-5.414,11.365,11.365,0,0,1,2.03-5,10.921,10.921,0,0,1,4.08-3.41A11.145,11.145,0,0,1,77,89.179c6.449.261,12.9.449,19.347.335,3.224-.049,6.449-.194,9.673-.349l9.673-.413c1.612-.033,3.224-.093,4.837-.087l2.418-.012a11.039,11.039,0,0,1,2.706.356,10.75,10.75,0,0,1,7.921,12.249,10.994,10.994,0,0,1-2.031,4.619A10.825,10.825,0,0,1,123,110.15Zm0-.3a9.845,9.845,0,0,0,4.551-1.19,9.532,9.532,0,0,0,3.36-3.22,9.219,9.219,0,0,0,.536-8.67,9.441,9.441,0,0,0-6.416-5.2,10.16,10.16,0,0,0-2.083-.225l-2.418-.012c-1.612.006-3.224-.055-4.837-.087l-9.673-.413c-3.224-.155-6.449-.3-9.673-.349-6.449-.114-12.9.074-19.347.335a9.3,9.3,0,0,0-4.169,1.242,9.71,9.71,0,0,0-3.08,2.954,8.822,8.822,0,0,0-.761,8.044,8.564,8.564,0,0,0,6.035,5.129,9.562,9.562,0,0,0,2.026.215l2.418,0h4.837c6.449.066,12.9.155,19.347.613C110.1,109.42,116.551,109.859,123,109.85Z" transform="translate(-65.648 -88.652)"/><text class="cls-3" transform="translate(5.014 14.661)">WBSCR22</text></g></svg>