<svg id="Layer_1" data-name="Layer 1" xmlns="http://www.w3.org/2000/svg" xmlns:xlink="http://www.w3.org/1999/xlink" viewBox="0 0 45.579 22.541"><defs><style>.cls-1{fill:url(#linear-gradient);}.cls-2{fill:#4195a3;}.cls-3{font-size:12px;fill:#fff;font-family:Arial-BoldMT, Arial;font-weight:700;}</style><linearGradient id="linear-gradient" x1="22.96" y1="1.019" x2="22.96" y2="21.019" gradientUnits="userSpaceOnUse"><stop offset="0" stop-color="#4195a3"/><stop offset="1" stop-color="#0c343b"/></linearGradient></defs><title>R-ICO-013699</title><g id="R-ICO-013128"><rect class="cls-1" x="1.46" y="1.019" width="43" height="20" rx="10"/><path class="cls-2" d="M111.5,110.15c-4.532-.009-9.065.43-13.6.837-2.266.2-4.532.388-6.8.457-.567.02-1.134.054-1.7.062l-.85.016-.971-.03a11.728,11.728,0,0,1-3.809-.912,11.324,11.324,0,0,1-6.438-12.958A11.18,11.18,0,0,1,81.46,91.3a10.907,10.907,0,0,1,7.04-2.125c4.532.281,9.065.436,13.6.335,2.266-.059,4.532-.178,6.8-.342l1.7-.118.85-.058.933-.015a10.765,10.765,0,0,1,3.7.759,10.622,10.622,0,0,1,5.5,5.128,10.347,10.347,0,0,1,.629,7.414,11.056,11.056,0,0,1-4.188,5.778A11.523,11.523,0,0,1,111.5,110.15Zm0-.3a8.907,8.907,0,0,0,6.039-2.387,9.216,9.216,0,0,0,2.8-5.581,9.823,9.823,0,0,0-5.286-9.864,9.6,9.6,0,0,0-2.848-.918l-.764-.1-.85-.058-1.7-.118c-2.266-.164-4.532-.283-6.8-.342-4.532-.1-9.065.054-13.6.335a9.3,9.3,0,0,0-5.523,2.352,9.161,9.161,0,0,0-2.868,5.042,8.605,8.605,0,0,0,.886,5.6,8.822,8.822,0,0,0,4.092,3.851,8.593,8.593,0,0,0,2.741.765l.727.051.85.016c.566.008,1.133.042,1.7.062,2.266.069,4.532.252,6.8.457C102.435,109.42,106.968,109.859,111.5,109.85Z" transform="translate(-77.04 -88.981)"/><text class="cls-3" transform="translate(7.623 13.907)">CSF3</text></g></svg>