<svg id="Layer_1" data-name="Layer 1" xmlns="http://www.w3.org/2000/svg" xmlns:xlink="http://www.w3.org/1999/xlink" viewBox="0 0 65.133 22.941"><defs><style>.cls-1{fill:url(#linear-gradient);}.cls-2{fill:#ba198d;}.cls-3{font-size:12px;fill:#fff;font-family:Arial-BoldMT, Arial;font-weight:700;}.cls-4{letter-spacing:-0.074em;}</style><linearGradient id="linear-gradient" x1="32.854" y1="21.341" x2="32.854" y2="1.341" gradientUnits="userSpaceOnUse"><stop offset="0" stop-color="#00d8ff"/><stop offset="1" stop-color="#ba198d"/></linearGradient></defs><title>B4GALT1</title><g id="B4GALT1"><rect class="cls-1" x="1.354" y="1.341" width="63" height="20" rx="10" ry="10"/><path class="cls-2" d="M119.342,107.806c-6.2-.009-12.4.43-18.6.837-6.2.458-12.4.547-18.6.613H77.5l-1.163,0c-.448-.027-.9-.03-1.344-.087a10.928,10.928,0,0,1-2.608-.656,11.515,11.515,0,0,1-6.974-7.582,11.135,11.135,0,0,1,1.965-9.95,10.949,10.949,0,0,1,8.967-4.142c6.2.282,12.4.437,18.6.335,6.2-.084,12.4-.574,18.6-.762,1.55-.033,3.1-.093,4.649-.087l1.163-.006c.438.024.879.024,1.316.077a10.555,10.555,0,0,1,2.555.634,10.757,10.757,0,0,1-3.876,20.78Zm0-.3a9.285,9.285,0,0,0,7.695-4.121A9.158,9.158,0,0,0,128,95.069a9.391,9.391,0,0,0-5.7-5.547,9.118,9.118,0,0,0-1.953-.454c-.331-.045-.669-.042-1-.071l-1.162-.006c-1.55.006-3.1-.055-4.649-.087-6.2-.188-12.4-.678-18.6-.762-6.2-.1-12.4.053-18.6.335A9.127,9.127,0,0,0,69.3,92.418a8.8,8.8,0,0,0-1.179,7.691A8.606,8.606,0,0,0,75.364,106c.322.042.65.035.974.061l1.161,0h4.649c6.2.066,12.4.155,18.6.613C106.944,107.076,113.143,107.515,119.342,107.506Z" transform="translate(-64.988 -86.315)"/><text class="cls-3" transform="translate(5.963 14.163)">B4GA<tspan class="cls-4" x="33.34" y="0">L</tspan><tspan x="39.779" y="0">T1</tspan></text></g></svg>