<svg id="Layer_1" data-name="Layer 1" xmlns="http://www.w3.org/2000/svg" xmlns:xlink="http://www.w3.org/1999/xlink" viewBox="0 0 119.019 21.948"><defs><style>.cls-1{fill:#1b8979;}.cls-2{fill:url(#linear-gradient);}.cls-3{isolation:isolate;font-size:12px;fill:#fff;font-family:Arial-BoldMT, Arial;font-weight:700;}</style><linearGradient id="linear-gradient" x1="40" y1="100.08" x2="160" y2="100.08" gradientUnits="userSpaceOnUse"><stop offset="0" stop-color="#ff7265"/><stop offset="0.148" stop-color="#e37567"/><stop offset="0.467" stop-color="#9d7c6e"/><stop offset="0.929" stop-color="#2d8777"/><stop offset="1" stop-color="#1b8979"/></linearGradient></defs><title>SELENOTPROTEINS</title><g id="SELENOTPROTEINS"><rect class="cls-1" x="0.778" y="0.893" width="118" height="20" rx="10"/><path class="cls-2" d="M149,110.1c-10.782-.007-21.565.3-32.347.558-10.782.279-21.565.376-32.347.373-10.782.064-21.565-.016-32.347-.09l-1.016-.009-1.1-.068c-.364-.059-.729-.109-1.091-.179-.355-.1-.714-.181-1.065-.291a10.877,10.877,0,0,1-7.453-9.877A10.668,10.668,0,0,1,51,89.452c10.782.162,21.565.3,32.347.2l8.087-.065,8.086-.146,16.174-.271c5.391-.013,10.782-.1,16.173-.051,5.392.015,10.783.121,16.174.251l1.014.026,1.067.083,1.052.191c.342.1.688.186,1.024.3a10.54,10.54,0,0,1,3.622,2.151,10.313,10.313,0,0,1,.5,14.86A10.134,10.134,0,0,1,149,110.1Zm0-.2a9.806,9.806,0,0,0,7.125-3.109,9.611,9.611,0,0,0-.884-14,9.485,9.485,0,0,0-3.369-1.8c-.307-.086-.62-.148-.928-.224L150,90.636l-.95-.029-1.008.021c-5.391.13-10.782.236-16.174.251-5.391.048-10.782-.038-16.173-.051L99.52,90.557l-8.086-.146-8.087-.065c-10.782-.1-21.565.04-32.347.2a9.38,9.38,0,0,0-9.183,9.893,9.168,9.168,0,0,0,3.231,6.439,9.272,9.272,0,0,0,3.2,1.771c.292.087.592.151.887.23l.906.138.915.044,1.006,0c10.782-.074,21.565-.154,32.347-.09,10.782,0,21.565.094,32.347.373C127.435,109.6,138.218,109.907,149,109.9Z" transform="translate(-40.222 -89.107)"/><text id="SELENOTPROTEINS-2" data-name="SELENOTPROTEINS" class="cls-3" transform="translate(4.437 13.748)">SELENOPROTEINS</text></g></svg>