<svg id="Layer_1" data-name="Layer 1" xmlns="http://www.w3.org/2000/svg" xmlns:xlink="http://www.w3.org/1999/xlink" viewBox="0 0 81.109 36.159"><defs><style>.cls-1{fill:url(#linear-gradient);}.cls-2{fill:url(#linear-gradient-2);}.cls-3{fill:url(#linear-gradient-3);}.cls-4{fill:url(#linear-gradient-4);}.cls-5{fill:url(#linear-gradient-5);}.cls-6{fill:url(#linear-gradient-6);}.cls-7{fill:url(#linear-gradient-7);}.cls-8{fill:url(#linear-gradient-8);}</style><linearGradient id="linear-gradient" x1="650.813" y1="674.121" x2="655.145" y2="699.655" gradientTransform="matrix(0.149, -0.668, 2.008, 0.449, -1388.738, 219.857)" gradientUnits="userSpaceOnUse"><stop offset="0" stop-color="#241404"/><stop offset="0.094" stop-color="#a25a0e"/><stop offset="0.114" stop-color="#a45e15"/><stop offset="0.143" stop-color="#a96a27"/><stop offset="0.176" stop-color="#b17d46"/><stop offset="0.213" stop-color="#bd9870"/><stop offset="0.253" stop-color="#ccbaa6"/><stop offset="0.273" stop-color="#d4ccc3"/><stop offset="0.307" stop-color="#d3cac0"/><stop offset="0.331" stop-color="#d1c5b7"/><stop offset="0.351" stop-color="#cdbba8"/><stop offset="0.369" stop-color="#c7ad92"/><stop offset="0.387" stop-color="#bf9c76"/><stop offset="0.403" stop-color="#b58654"/><stop offset="0.418" stop-color="#aa6d2c"/><stop offset="0.428" stop-color="#a25a0e"/><stop offset="0.549" stop-color="#7a440b"/><stop offset="0.682" stop-color="#552f08"/><stop offset="0.806" stop-color="#3a2006"/><stop offset="0.915" stop-color="#2a1704"/><stop offset="1" stop-color="#241404"/></linearGradient><linearGradient id="linear-gradient-2" x1="831.232" y1="89.345" x2="859.226" y2="94.338" gradientTransform="translate(-719.186)" xlink:href="#linear-gradient"/><linearGradient id="linear-gradient-3" x1="829.276" y1="115.563" x2="781.058" y2="111.903" gradientTransform="translate(-719.186)" xlink:href="#linear-gradient"/><linearGradient id="linear-gradient-4" x1="860.598" y1="107.299" x2="830.219" y2="105.033" gradientTransform="translate(-719.186)" xlink:href="#linear-gradient"/><linearGradient id="linear-gradient-5" x1="-781.954" y1="91.352" x2="-781.954" y2="108.18" gradientTransform="matrix(-1, 0, 0, 1, -681.98, 0)" gradientUnits="userSpaceOnUse"><stop offset="0" stop-color="#5b9b54"/><stop offset="0.433" stop-color="#5a9953"/><stop offset="0.589" stop-color="#559251"/><stop offset="0.7" stop-color="#4c874c"/><stop offset="0.79" stop-color="#407645"/><stop offset="0.867" stop-color="#30603c"/><stop offset="0.934" stop-color="#1d4532"/><stop offset="0.994" stop-color="#072625"/><stop offset="1" stop-color="#042224"/></linearGradient><linearGradient id="linear-gradient-6" x1="-776.953" y1="91.352" x2="-776.953" y2="108.18" xlink:href="#linear-gradient-5"/><linearGradient id="linear-gradient-7" x1="-766.953" y1="91.352" x2="-766.953" y2="108.18" xlink:href="#linear-gradient-5"/><linearGradient id="linear-gradient-8" x1="-760.952" y1="91.352" x2="-760.952" y2="108.18" xlink:href="#linear-gradient-5"/></defs><title>microRNA</title><g id="microRNA"><path class="cls-1" d="M116.015,90.17c-12.907,3.822-53.29-6.74-55.416,2.758l-.433,1.936c1.469-6.563,36.556,3.763,51.258-3.141Z" transform="translate(-58.901 -84.561)"/><path class="cls-2" d="M140.01,102.46c0-19.829-27.762-11.015-27.762-11.015l.177-.132s27.584-19.72,27.584,8.247Z" transform="translate(-58.901 -84.561)"/><path class="cls-3" d="M116.281,110.131c-7.889-2.336-26.259-1.015-39.66-.3-13.156.7-17.72,5.245-17.72,10.886h0c0-7.887.735-13.93,12.142-14.639,11.921-.741,30.885-2.088,40.647,2.5Z" transform="translate(-58.901 -84.561)"/><path class="cls-4" d="M140.01,97.841c0,19.829-27.762,11.015-27.762,11.015l.177.132s27.584,19.72,27.584-8.247Z" transform="translate(-58.901 -84.561)"/><path class="cls-5" d="M98.712,91.8a.5.5,0,0,1,.544-.447h1.434a.5.5,0,0,1,.544.447v6.014h0v9.765a.575.575,0,0,1-.544.6H99.256a.575.575,0,0,1-.544-.6V99.392h0Z" transform="translate(-58.901 -84.561)"/><path class="cls-6" d="M93.712,91.8a.5.5,0,0,1,.544-.447H95.69a.5.5,0,0,1,.544.447v6.014h0v9.765a.575.575,0,0,1-.544.6H94.256a.575.575,0,0,1-.544-.6V99.392h0Z" transform="translate(-58.901 -84.561)"/><path class="cls-7" d="M83.711,91.8a.5.5,0,0,1,.544-.447h1.434a.5.5,0,0,1,.544.447v6.014h0v9.765a.575.575,0,0,1-.544.6H84.255a.575.575,0,0,1-.544-.6V99.392h0Z" transform="translate(-58.901 -84.561)"/><path class="cls-8" d="M77.711,99.391V91.8a.5.5,0,0,1,.544-.447h1.434a.5.5,0,0,1,.544.447v6.014h0v9.765a.575.575,0,0,1-.544.6H78.255a.575.575,0,0,1-.544-.6V99.392Z" transform="translate(-58.901 -84.561)"/></g></svg>