<svg id="Layer_1" data-name="Layer 1" xmlns="http://www.w3.org/2000/svg" xmlns:xlink="http://www.w3.org/1999/xlink" viewBox="0 0 114.43 152.919"><defs><style>.cls-1{fill:#245d69;}.cls-2{fill:url(#linear-gradient);}.cls-3{fill:url(#linear-gradient-2);}.cls-4{fill:url(#linear-gradient-3);}.cls-5{fill:url(#linear-gradient-4);}.cls-6{fill:url(#linear-gradient-5);}.cls-7{fill:url(#linear-gradient-6);}.cls-8{fill:url(#linear-gradient-7);}.cls-9{fill:url(#linear-gradient-8);}.cls-10{fill:url(#linear-gradient-9);}.cls-11{fill:url(#linear-gradient-10);}.cls-12{fill:url(#linear-gradient-11);}.cls-13{fill:url(#linear-gradient-12);}.cls-14{fill:url(#linear-gradient-13);}.cls-15{fill:url(#linear-gradient-14);}</style><linearGradient id="linear-gradient" x1="61.737" y1="104.217" x2="72.246" y2="104.217" gradientUnits="userSpaceOnUse"><stop offset="0" stop-color="#245d69"/><stop offset="0.037" stop-color="#3d7976"/><stop offset="0.085" stop-color="#579584"/><stop offset="0.133" stop-color="#69aa8e"/><stop offset="0.181" stop-color="#74b694"/><stop offset="0.227" stop-color="#78ba96"/><stop offset="1" stop-color="#155169"/></linearGradient><linearGradient id="linear-gradient-2" x1="20.824" y1="29.285" x2="26.794" y2="37.933" xlink:href="#linear-gradient"/><linearGradient id="linear-gradient-3" x1="146.469" y1="104.217" x2="156.978" y2="104.217" xlink:href="#linear-gradient"/><linearGradient id="linear-gradient-4" x1="105.555" y1="29.285" x2="111.525" y2="37.933" xlink:href="#linear-gradient"/><linearGradient id="linear-gradient-5" x1="104.103" y1="86.975" x2="114.612" y2="86.975" xlink:href="#linear-gradient"/><linearGradient id="linear-gradient-6" x1="63.189" y1="12.043" x2="69.159" y2="20.691" xlink:href="#linear-gradient"/><linearGradient id="linear-gradient-7" x1="82.92" y1="93.379" x2="93.429" y2="93.379" xlink:href="#linear-gradient"/><linearGradient id="linear-gradient-8" x1="42.007" y1="18.447" x2="47.977" y2="27.095" xlink:href="#linear-gradient"/><linearGradient id="linear-gradient-9" x1="125.286" y1="93.379" x2="135.795" y2="93.379" xlink:href="#linear-gradient"/><linearGradient id="linear-gradient-10" x1="84.372" y1="18.447" x2="90.342" y2="27.095" xlink:href="#linear-gradient"/><linearGradient id="linear-gradient-11" x1="89.981" y1="120.473" x2="100.49" y2="120.473" xlink:href="#linear-gradient"/><linearGradient id="linear-gradient-12" x1="49.068" y1="45.542" x2="55.038" y2="54.19" xlink:href="#linear-gradient"/><linearGradient id="linear-gradient-13" x1="118.225" y1="120.473" x2="128.734" y2="120.473" xlink:href="#linear-gradient"/><linearGradient id="linear-gradient-14" x1="77.311" y1="45.542" x2="83.281" y2="54.19" xlink:href="#linear-gradient"/></defs><title>GPCR_CLASS_A_1</title><g id="GPCR_CLASS_A_1" data-name="GPCR CLASS A/1"><path class="cls-1" d="M131.386,137.357c.065,3.8-.077,7.748-2,11.593a10.646,10.646,0,0,1-.873,1.389,9.786,9.786,0,0,1-1.165,1.258,7.9,7.9,0,0,1-3.16,1.7,8.644,8.644,0,0,1-3.589.068,10.5,10.5,0,0,1-3.163-1.226,14.32,14.32,0,0,1-4.578-4.336,22.322,22.322,0,0,1-2.68-5.386,33.858,33.858,0,0,1-1.423-5.688,40.024,40.024,0,0,1-.363-5.776.966.966,0,0,1,1.931-.032v.032a25.059,25.059,0,0,0,2.385,10.4,16.812,16.812,0,0,0,6.663,7.321c2.718,1.505,5.472,1.306,7.513-1.318a12.356,12.356,0,0,0,2.1-4.633,27.959,27.959,0,0,0,.711-5.368v-.027a.845.845,0,0,1,1.689.027Z" transform="translate(-42.548 -23.554)"/><path class="cls-1" d="M110.01,147.807c1.424,3.611,1.089,7.39.268,10.97a37.574,37.574,0,0,1-4.215,10.209,25.676,25.676,0,0,1-3.2,4.541,8.088,8.088,0,0,1-2.329,1.766,6.767,6.767,0,0,1-.754.259,3.591,3.591,0,0,1-.835.073,2.779,2.779,0,0,1-1.574-.585,5.423,5.423,0,0,1-1.678-2.469,14.537,14.537,0,0,1-.719-2.7,26.527,26.527,0,0,1-.292-2.716c-.034-.452-.061-.9-.061-1.355a5.918,5.918,0,0,1,.045-1.353l.01-.037a.581.581,0,0,1,1.132.037c.171.874.054,1.755.168,2.622.046.873.162,1.732.29,2.583a13.291,13.291,0,0,0,.621,2.456,4,4,0,0,0,1.24,1.9,1.7,1.7,0,0,0,1.866.1,6.393,6.393,0,0,0,1.817-1.533,15.9,15.9,0,0,0,2.484-4.445,49.514,49.514,0,0,0,2.176-10.087c.5-3.408.78-6.746,2.236-10.245l.005-.012a.7.7,0,0,1,1.3.012Z" transform="translate(-42.548 -23.554)"/><path class="cls-1" d="M152.568,147.807a37.041,37.041,0,0,1-.485,6.661,38.151,38.151,0,0,1-1.8,6.5,25.835,25.835,0,0,1-7.812,11.15,20.528,20.528,0,0,1-6.1,3.488,12.354,12.354,0,0,1-7.283.53,8.766,8.766,0,0,1-1.8-.7,8.125,8.125,0,0,1-1.552-1.155,8.876,8.876,0,0,1-2.116-3.044,17.7,17.7,0,0,1-1.106-6.791.966.966,0,0,1,1.931-.024v.024a14.2,14.2,0,0,0,1.216,5.853,5.335,5.335,0,0,0,4.04,3.141,9.124,9.124,0,0,0,5.355-1.068,22.444,22.444,0,0,0,4.866-3.3,35.445,35.445,0,0,0,4.175-4.328,32.792,32.792,0,0,0,3.5-5.021A27.166,27.166,0,0,0,149.951,154a29.593,29.593,0,0,0,.927-6.188v-.024a.845.845,0,0,1,1.689.024Z" transform="translate(-42.548 -23.554)"/><path class="cls-1" d="M89.02,137.357a41.4,41.4,0,0,1-1.233,11.622,24.023,24.023,0,0,1-2.183,5.637,17.142,17.142,0,0,1-3.964,4.821,11.562,11.562,0,0,1-6.022,2.717,7.452,7.452,0,0,1-6.426-2.383,12.3,12.3,0,0,1-2.677-5.689,28.987,28.987,0,0,1-.49-5.888.966.966,0,0,1,1.931-.029v.029a21.95,21.95,0,0,0,.739,5.348,8.647,8.647,0,0,0,2.433,4.261,4.262,4.262,0,0,0,3.954.9,6.751,6.751,0,0,0,2.057-.872,12.152,12.152,0,0,0,1.923-1.414,20.709,20.709,0,0,0,3.3-3.817,29.483,29.483,0,0,0,2.626-4.6,28.868,28.868,0,0,0,2.342-10.65v-.016a.845.845,0,0,1,1.69.016Z" transform="translate(-42.548 -23.554)"/><path class="cls-2" d="M61.737,58.084V148.2c0,1.19,2.352,2.155,5.254,2.155s5.254-.965,5.254-2.155V58.084Z" transform="translate(-42.548 -23.554)"/><ellipse class="cls-3" cx="24.444" cy="34.529" rx="5.254" ry="2.155"/><path class="cls-4" d="M146.469,58.084V148.2c0,1.19,2.352,2.155,5.254,2.155s5.254-.965,5.254-2.155V58.084Z" transform="translate(-42.548 -23.554)"/><ellipse class="cls-5" cx="109.175" cy="34.529" rx="5.254" ry="2.155"/><path class="cls-6" d="M104.1,40.842v90.112c0,1.19,2.352,2.155,5.254,2.155s5.254-.965,5.254-2.155V40.842Z" transform="translate(-42.548 -23.554)"/><ellipse class="cls-7" cx="66.809" cy="17.287" rx="5.254" ry="2.155"/><path class="cls-8" d="M82.92,47.246v90.112c0,1.19,2.352,2.155,5.254,2.155s5.254-.965,5.254-2.155V47.246Z" transform="translate(-42.548 -23.554)"/><ellipse class="cls-9" cx="45.627" cy="23.691" rx="5.254" ry="2.155"/><path class="cls-10" d="M125.286,47.246v90.112c0,1.19,2.352,2.155,5.254,2.155s5.254-.965,5.254-2.155V47.246Z" transform="translate(-42.548 -23.554)"/><ellipse class="cls-11" cx="87.992" cy="23.691" rx="5.254" ry="2.155"/><path class="cls-12" d="M89.981,74.34v90.112c0,1.19,2.352,2.155,5.254,2.155s5.254-.965,5.254-2.155V74.34Z" transform="translate(-42.548 -23.554)"/><ellipse class="cls-13" cx="52.688" cy="50.786" rx="5.254" ry="2.155"/><path class="cls-14" d="M118.225,74.34v90.112c0,1.19,2.352,2.155,5.254,2.155s5.254-.965,5.254-2.155V74.34Z" transform="translate(-42.548 -23.554)"/><ellipse class="cls-15" cx="80.931" cy="50.786" rx="5.254" ry="2.155"/><path class="cls-1" d="M108.512,40.842a27.96,27.96,0,0,0-.711-5.368,12.356,12.356,0,0,0-2.1-4.633c-2.041-2.624-4.8-2.823-7.513-1.318a16.812,16.812,0,0,0-6.663,7.321,25.059,25.059,0,0,0-2.385,10.4v.03a.966.966,0,0,1-1.931-.03,40.024,40.024,0,0,1,.363-5.776,33.858,33.858,0,0,1,1.423-5.688,22.323,22.323,0,0,1,2.68-5.386,14.32,14.32,0,0,1,4.578-4.336,10.5,10.5,0,0,1,3.163-1.226A8.644,8.644,0,0,1,103,24.9a7.9,7.9,0,0,1,3.16,1.7,9.786,9.786,0,0,1,1.165,1.258,10.647,10.647,0,0,1,.873,1.389c1.925,3.845,2.067,7.793,2,11.593a.845.845,0,0,1-1.689.03Z" transform="translate(-42.548 -23.554)"/><path class="cls-1" d="M150.878,58.084a28.868,28.868,0,0,0-2.342-10.65,29.484,29.484,0,0,0-2.626-4.6,20.709,20.709,0,0,0-3.3-3.817,12.152,12.152,0,0,0-1.923-1.415,6.751,6.751,0,0,0-2.057-.872,4.262,4.262,0,0,0-3.954.9,8.647,8.647,0,0,0-2.433,4.261,21.95,21.95,0,0,0-.739,5.348v.028a.966.966,0,0,1-1.931-.028,28.988,28.988,0,0,1,.49-5.888,12.3,12.3,0,0,1,2.677-5.689,7.452,7.452,0,0,1,6.426-2.383A11.562,11.562,0,0,1,145.188,36a17.142,17.142,0,0,1,3.964,4.821,24.023,24.023,0,0,1,2.183,5.637,41.4,41.4,0,0,1,1.233,11.622.845.845,0,0,1-1.689.019Z" transform="translate(-42.548 -23.554)"/><path class="cls-1" d="M122.634,74.34a23.757,23.757,0,0,0-.95-5.836,13.974,13.974,0,0,0-2.716-4.971,11.751,11.751,0,0,0-4.306-3.133,12.746,12.746,0,0,0-5.071-1.046,13,13,0,0,0-9.607,4.3c-2.542,2.8-3.683,6.764-3.784,10.69v.027a.966.966,0,0,1-1.931-.027,24.912,24.912,0,0,1,.759-6.413,18.809,18.809,0,0,1,2.79-5.99,16.238,16.238,0,0,1,5.008-4.594,14.225,14.225,0,0,1,6.678-1.956,13.18,13.18,0,0,1,11.856,6.4,18.9,18.9,0,0,1,2.438,6.167,29.565,29.565,0,0,1,.526,6.389.845.845,0,0,1-1.689.031Z" transform="translate(-42.548 -23.554)"/><path class="cls-1" d="M65.645,58.084a83.868,83.868,0,0,0-.326-11.769c-.486-3.838-1.255-7.706-3.157-10.912a15.884,15.884,0,0,0-8.219-6.593c-3.354-1.322-7.024-1.785-10.919-3.156l-.016-.006a.686.686,0,0,1,.016-1.3,17.787,17.787,0,0,1,12.443.747,16.561,16.561,0,0,1,5.447,3.675,19.706,19.706,0,0,1,3.681,5.335A36.467,36.467,0,0,1,67.66,46.053c.452,4.028.532,8.041.679,12.03a1.348,1.348,0,0,1-2.694.1C65.644,58.152,65.644,58.114,65.645,58.084Z" transform="translate(-42.548 -23.554)"/></g></svg>