<svg id="Layer_1" data-name="Layer 1" xmlns="http://www.w3.org/2000/svg" xmlns:xlink="http://www.w3.org/1999/xlink" viewBox="0 0 69.064 22.951"><defs><style>.cls-1{fill:url(#linear-gradient);}.cls-2{fill:#2764e0;}.cls-3{font-size:12px;fill:#fff;font-family:Arial-BoldMT, Arial;font-weight:700;}</style><linearGradient id="linear-gradient" x1="34.842" y1="21.351" x2="34.842" y2="1.351" gradientUnits="userSpaceOnUse"><stop offset="0" stop-color="#48ffb9"/><stop offset="1" stop-color="#2764e0"/></linearGradient></defs><title>R-ICO-013677</title><g id="R-ICO-013677"><rect class="cls-1" x="1.342" y="1.351" width="67" height="20" rx="10"/><path class="cls-2" d="M123.5,110.15c-6.532-.009-13.065.43-19.6.837-6.532.458-13.065.547-19.6.613h-4.9l-2.45,0c-.381.01-.874-.024-1.345-.056s-.936-.137-1.4-.207a11.53,11.53,0,0,1-8.252-6.988,11.405,11.405,0,0,1-.723-5.471,11.539,11.539,0,0,1,1.978-5.095,11.05,11.05,0,0,1,4.1-3.494A11.185,11.185,0,0,1,76.5,89.179c6.532.261,13.065.449,19.6.335,3.266-.05,6.532-.194,9.8-.349l9.8-.414c1.633-.032,3.266-.093,4.9-.087l2.45-.012c.385-.014.865.02,1.326.053a13.519,13.519,0,0,1,1.373.2A10.767,10.767,0,0,1,134.1,101.06a11.175,11.175,0,0,1-1.983,4.712A10.82,10.82,0,0,1,123.5,110.15Zm0-.3a9.9,9.9,0,0,0,4.607-1.217,9.652,9.652,0,0,0,3.374-3.291,9.386,9.386,0,0,0,1.315-4.412,9.511,9.511,0,0,0-.926-4.373,9.392,9.392,0,0,0-6.653-5.065c-.352-.033-.7-.118-1.053-.119s-.69-.029-1.121-.025l-2.45-.012c-1.633.006-3.266-.055-4.9-.087l-9.8-.414c-3.266-.155-6.532-.3-9.8-.349-6.532-.114-13.065.074-19.6.335a9.334,9.334,0,0,0-4.219,1.267,9.826,9.826,0,0,0-3.094,3.019,9.016,9.016,0,0,0-1.32,4.03,9.153,9.153,0,0,0,.7,4.126,8.942,8.942,0,0,0,2.529,3.3,8.812,8.812,0,0,0,3.739,1.709c.343.032.679.115,1.024.115s.666.029,1.1.022l2.45,0h4.9c6.532.066,13.065.155,19.6.613C110.435,109.42,116.968,109.859,123.5,109.85Z" transform="translate(-65.158 -88.649)"/><text class="cls-3" transform="translate(5.138 14.236)">MAP2K3,6</text></g></svg>