<svg id="Layer_1" data-name="Layer 1" xmlns="http://www.w3.org/2000/svg" xmlns:xlink="http://www.w3.org/1999/xlink" viewBox="0 0 56.523 21.933"><defs><style>.cls-1{fill:url(#linear-gradient);}.cls-2{fill:#2c56ce;}.cls-3{font-size:12px;fill:#fff;font-family:Arial-BoldMT, Arial;font-weight:700;}</style><linearGradient id="linear-gradient" x1="28.43" y1="0.861" x2="28.43" y2="20.861" gradientUnits="userSpaceOnUse"><stop offset="0" stop-color="#2c56ce"/><stop offset="1" stop-color="#649039"/></linearGradient></defs><title>R-ICO-013554</title><g id="TRMT44"><rect class="cls-1" x="0.93" y="0.861" width="55" height="20" rx="10" ry="10"/><path class="cls-2" d="M117.5,110.1c-5.532-.007-11.065.3-16.6.558-5.532.305-11.065.364-16.6.408-.7,0-1.355.015-2.1-.011a10.856,10.856,0,0,1-6.372-2.282,10.971,10.971,0,0,1-4.222-7.787,10.7,10.7,0,0,1,2.939-8.251A10.526,10.526,0,0,1,82.5,89.452c5.532.174,11.065.3,16.6.223s11.065-.365,16.6-.508c.7-.007,1.36-.04,2.1-.024a9.685,9.685,0,0,1,2.236.275,10.409,10.409,0,0,1,5.031,17.486A10.645,10.645,0,0,1,117.5,110.1Zm0-.2a9.466,9.466,0,0,0,9.329-10.745,9.681,9.681,0,0,0-7.217-8,9.874,9.874,0,0,0-1.867-.266c-.644-.039-1.37-.033-2.051-.052-5.532-.143-11.065-.435-16.6-.508s-11.065.049-16.6.223a9.472,9.472,0,0,0-6.781,3.259,9.253,9.253,0,0,0-2.236,7.01,8.985,8.985,0,0,0,3.613,6.3,9.339,9.339,0,0,0,3.334,1.562,8.619,8.619,0,0,0,1.832.239c.633.028,1.367,0,2.046.016,5.532.044,11.065.1,16.6.408C106.435,109.6,111.968,109.907,117.5,109.9Z" transform="translate(-71.57 -89.139)"/><text class="cls-3" transform="translate(5.095 14.174)">TRMT44</text></g></svg>