<svg id="Layer_1" data-name="Layer 1" xmlns="http://www.w3.org/2000/svg" xmlns:xlink="http://www.w3.org/1999/xlink" viewBox="0 0 126.149 103.365"><defs><style>.cls-1{fill:url(#radial-gradient);}.cls-2{fill:#ab5911;}.cls-3{isolation:isolate;}.cls-4{fill:url(#radial-gradient-2);}.cls-5{fill:#5656a5;}.cls-6{fill:url(#radial-gradient-3);}.cls-7{fill:#4b4b96;}.cls-8{fill:url(#radial-gradient-4);}.cls-9{fill:url(#radial-gradient-5);}.cls-10{fill:url(#radial-gradient-6);}.cls-11{fill:url(#linear-gradient);}.cls-12{fill:#ad342d;}</style><radialGradient id="radial-gradient" cx="90.178" cy="92.504" r="63.253" gradientTransform="matrix(0.905, -0.425, 0.275, 0.587, -16.931, 76.503)" gradientUnits="userSpaceOnUse"><stop offset="0.068" stop-color="#ffeee0"/><stop offset="0.318" stop-color="#fde4cf"/><stop offset="0.702" stop-color="#f9d1ae"/><stop offset="1" stop-color="#ebbc94"/></radialGradient><radialGradient id="radial-gradient-2" cx="-6.457" cy="967.165" r="21.816" gradientTransform="translate(-199.313 -896.511) rotate(-15.515)" gradientUnits="userSpaceOnUse"><stop offset="0" stop-color="#afbaf7"/><stop offset="0.311" stop-color="#6d96ce"/><stop offset="0.803" stop-color="#285fcc"/></radialGradient><radialGradient id="radial-gradient-3" cx="-10.571" cy="973.995" r="4.208" gradientTransform="translate(-199.313 -896.511) rotate(-15.515)" gradientUnits="userSpaceOnUse"><stop offset="0" stop-color="#afbaf7"/><stop offset="0.312" stop-color="#b898ce"/><stop offset="0.803" stop-color="#515181"/></radialGradient><radialGradient id="radial-gradient-4" cx="-141.683" cy="1128.497" r="2.803" gradientTransform="translate(-83.281 -1094.77) rotate(-15.515)" gradientUnits="userSpaceOnUse"><stop offset="0" stop-color="#d8ba5d"/><stop offset="1" stop-color="#1da075"/></radialGradient><radialGradient id="radial-gradient-5" cx="-123.145" cy="1130.637" r="1.917" xlink:href="#radial-gradient-4"/><radialGradient id="radial-gradient-6" cx="-129.612" cy="1140.682" r="2" xlink:href="#radial-gradient-4"/><linearGradient id="linear-gradient" x1="80.737" y1="838.48" x2="61.843" y2="842.228" gradientTransform="translate(-271.495 -654.296) rotate(-18.623)" gradientUnits="userSpaceOnUse"><stop offset="0" stop-color="#d86e66"/><stop offset="1" stop-color="#a33029"/></linearGradient></defs><title>Cell_generic_03</title><g id="Cell_generic"><path id="CYTOPLASM" class="cls-1" d="M150.058,64.617c-27-31-85-8-99.98,6.72-14.28,14.03-15.76,47.03-4.53,63.55,17.68,23.75,44.21,16.74,69.78,7.04C153.058,127.617,177.058,95.617,150.058,64.617Z" transform="translate(-36.925 -48.317)"/><path class="cls-2" d="M163.025,90.456a33.164,33.164,0,0,0-3.489-13.275,37.624,37.624,0,0,0-3.4-5.589,56.134,56.134,0,0,0-5.509-7.466,43.383,43.383,0,0,0-3.385-3.476,33.262,33.262,0,0,0-4.321-3.936l-1.306-.991c-.439-.326-.919-.588-1.378-.886l-1.394-.868-1.446-.774a27.283,27.283,0,0,0-2.975-1.383c-1-.453-2.033-.8-3.064-1.165a46.906,46.906,0,0,0-12.8-2.284,50.855,50.855,0,0,0-6.184.114,89.458,89.458,0,0,0-17.417,1.709A90.294,90.294,0,0,0,85.8,51.954a99.447,99.447,0,0,0-9.675,2.9c-3.164,1.16-6.285,2.447-9.334,3.9-6.047,2.978-11.98,6.377-16.938,11.205a30.113,30.113,0,0,0-5.915,8.375c-.01.02-.017.041-.027.062a55.487,55.487,0,0,0-6.054,19.7,63.461,63.461,0,0,0-.9,8.771,62.727,62.727,0,0,0,.515,9.776,54.229,54.229,0,0,0,2.238,9.593,37.555,37.555,0,0,0,4.363,8.96,37.365,37.365,0,0,0,3.167,3.842,36.226,36.226,0,0,0,3.594,3.4,33.765,33.765,0,0,0,8.473,5.24,40.48,40.48,0,0,0,18.255,4.007c1.051,0,2.11-.042,3.172-.1A67.6,67.6,0,0,0,92.4,150.34a139.9,139.9,0,0,0,22.947-6.819,109.049,109.049,0,0,0,10.993-4.891,87.5,87.5,0,0,0,10.278-6.268,71.891,71.891,0,0,0,8.47-7.034,57.334,57.334,0,0,0,12.552-15.477,34.7,34.7,0,0,0,3.033-5.859,33.856,33.856,0,0,0,1.9-6.621,25.29,25.29,0,0,0,.4-3.444l.089-1.735C163.1,91.613,163.035,91.035,163.025,90.456Zm-17.9,32.826a90.263,90.263,0,0,1-9.811,7.137,107.1,107.1,0,0,1-10.252,5.675,116.064,116.064,0,0,1-10.774,4.623q-5.521,2.132-11.109,4.006C99.46,146,95.694,147.093,91.9,148.061a85.541,85.541,0,0,1-10.672,1.961c-7.757.5-15.237-.537-22.027-4.109a38.513,38.513,0,0,1-6.811-5.224,42.992,42.992,0,0,1-5.969-7.086c-.369-.664-.8-1.28-1.153-1.958l-1.041-2.058-.9-2.135c-.308-.707-.517-1.46-.785-2.185a66.022,66.022,0,0,1-3.258-18.413c-.074-2.5-.073-5.018.054-7.535a54.369,54.369,0,0,1,6.4-21.03,32.2,32.2,0,0,1,5.715-6.621,55.568,55.568,0,0,1,7.959-5.591,95.861,95.861,0,0,1,8.676-4.62A138.084,138.084,0,0,1,86.433,54.2q4.714-1.5,9.534-2.678a88.063,88.063,0,0,1,15.959-1.545c.107,0,.214.006.322.006,2.047.19,4.076.416,6.09.712a72.333,72.333,0,0,1,12.076,2.8c.977.319,1.96.625,2.9,1.031l1.431.571,1.4.643,1.406.634,1.358.727c.918.468,1.8,1,2.682,1.533a50.4,50.4,0,0,1,5.1,3.576c.971.919,1.909,1.879,2.8,2.9a54.651,54.651,0,0,1,5.276,7.129,58.411,58.411,0,0,1,2.619,5.874,40.582,40.582,0,0,1,2.641,12.474,38.552,38.552,0,0,1-1.561,12.637,50.547,50.547,0,0,1-2.168,5.954A54.885,54.885,0,0,1,145.123,123.282Z" transform="translate(-36.925 -48.317)"/><g id="NUCLEUS"><g id="NUCLEUS-2" data-name="NUCLEUS" class="cls-3"><circle class="cls-4" cx="59.182" cy="42.68" r="16.6"/><path class="cls-5" d="M100.718,107.577a17.212,17.212,0,1,1,11.98-21.19A17.238,17.238,0,0,1,100.718,107.577Zm-8.88-31.99a15.987,15.987,0,1,0,19.68,11.13A16,16,0,0,0,91.838,75.587Z" transform="translate(-36.925 -48.317)"/></g><g id="NUCLEOLUS"><circle class="cls-6" cx="51.042" cy="44.85" r="3.39"/><path class="cls-7" d="M88.928,96.607a3.554,3.554,0,1,1,2.46-4.39A3.55,3.55,0,0,1,88.928,96.607Zm-1.82-6.56a3.233,3.233,0,1,0,3.98,2.25A3.241,3.241,0,0,0,87.108,90.047Z" transform="translate(-36.925 -48.317)"/></g></g><g id="LYSOSOME"><circle id="LYSOSOME-2" data-name="LYSOSOME" class="cls-8" cx="82.782" cy="31.16" r="2.23"/><circle id="LYSOSOME-3" data-name="LYSOSOME" class="cls-9" cx="100.972" cy="28.14" r="1.92"/><circle id="LYSOSOME-4" data-name="LYSOSOME" class="cls-10" cx="97.362" cy="39.53" r="1.98"/></g><g id="MITOCHONDRION"><path class="cls-11" d="M69.13,100.14c-2.487-.8-6.508,2-8.845,5.043-3.5,4.579-1.561,16.113,2.5,23.3,2.464,4.365,4.917,5.3,6.52,5.291a4.376,4.376,0,0,0,1.373-.233,6.209,6.209,0,0,0,3.253-2.93,9.264,9.264,0,0,0-.018-9.124c-3.061-4.89-2.891-8.806-2.746-13.363.041-1.351.105-2.748.066-4.225C71.161,101.289,70.059,100.4,69.13,100.14Z" transform="translate(-36.925 -48.317)"/><path class="cls-12" d="M70.159,106.708c-.619-.135-2.975.582-4.256.976-2.356.718-3.122.938-3.616.607a.839.839,0,0,1-.288-.514c-.014-.836,1.164-1.194,4.058-2.017a17.7,17.7,0,0,0,4.059-1.444,1.3,1.3,0,0,1,.01-.424c-.062-1.545-.489-2.471-1.348-2.755-1.753-.555-5.341,1.609-7.632,4.673a9.9,9.9,0,0,0-1.551,5.374,20.05,20.05,0,0,0,3.787-.894c2.882-.857,4.2-1.147,4.84-.714a.766.766,0,0,1,.357.606c.084,1.042-1.415,1.356-3.657,1.844-2.139.453-5.423,1.14-5.247,2.456a34.084,34.084,0,0,0,1.524,7.471c.538.124,2.585-.6,3.809-1.054,2.767-.971,4.78-1.687,5.288-.521a.755.755,0,0,1-.032.7c-.318.642-1.359.955-3.338,1.545-.595.162-1.293.359-1.944.579-1.235.416-2.333.9-2.594,1.485a.7.7,0,0,0,.036.561c.438.96.853,1.852,1.314,2.652,1.912,3.405,4.115,5.07,6.163,4.685,1.979-.361,3.632-2.6,4.058-5.417a.05.05,0,0,0-.023-.069c-.424-.239-2.791.788-3.923,1.284-2.1.9-3.27,1.407-3.684.63a.907.907,0,0,1-.048-.71c.272-.779,1.541-1.322,3.759-2.222,1.212-.485,3.693-1.512,3.783-2.039a7.329,7.329,0,0,0-.831-2.012,19,19,0,0,1-2.342-5.362c-.035-.1-.058-.172-.15-.217-.745-.4-3.159.377-4.771.92-1.99.671-3.065.995-3.638.653a.823.823,0,0,1-.38-.56c-.222-1.224,1.666-1.746,4.274-2.51,1.144-.347,4.14-1.2,4.116-1.731-.12-1.717-.068-3.377-.017-5.152C70.117,107.6,70.127,107.177,70.159,106.708Z" transform="translate(-36.925 -48.317)"/></g></g></svg>