<svg id="Layer_1" data-name="Layer 1" xmlns="http://www.w3.org/2000/svg" xmlns:xlink="http://www.w3.org/1999/xlink" viewBox="0 0 48.515 22.681"><defs><style>.cls-1{fill:url(#linear-gradient);}.cls-2{fill:#2cc3f2;}.cls-3{font-size:12px;fill:#fff;font-family:Arial-BoldMT, Arial;font-weight:700;}</style><linearGradient id="linear-gradient" x1="24.45" y1="21.127" x2="24.45" y2="1.127" gradientUnits="userSpaceOnUse"><stop offset="0" stop-color="#a8a800"/><stop offset="1" stop-color="#2cc3f2"/></linearGradient></defs><title>DUSPs</title><g id="DUSPs"><rect class="cls-1" x="1.45" y="1.127" width="46" height="20" rx="9.893" ry="9.893"/><path class="cls-2" d="M113.107,110.15c-4.79-.009-9.58.43-14.37.837-2.395.205-4.79.388-7.185.457-1.2.057-2.395.074-3.592.093l-.9.016c-.293.007-.678-.016-1.013-.026a10.575,10.575,0,0,1-2.059-.314,11.218,11.218,0,0,1-8.2-8.568,10.654,10.654,0,0,1-.232-2.05l-.012-.511c0-.141.011-.312.024-.486.03-.342.034-.685.091-1.023a10.917,10.917,0,0,1,3.867-6.956,10.77,10.77,0,0,1,7.36-2.439c4.79.282,9.58.437,14.37.335,2.395-.059,4.79-.178,7.185-.341l3.592-.235a12.662,12.662,0,0,1,3.88.189,10.544,10.544,0,0,1,4,18.644A11.185,11.185,0,0,1,113.107,110.15Zm0-.3a8.918,8.918,0,0,0,8.87-8.7,9.617,9.617,0,0,0-6.691-9.607,11.791,11.791,0,0,0-3.246-.479l-3.592-.235c-2.4-.164-4.79-.282-7.185-.341-4.79-.1-9.58.053-14.37.335a9.1,9.1,0,0,0-8.411,8.084,8.613,8.613,0,0,0,6.321,9.214,7.427,7.427,0,0,0,1.477.279c.263.013.476.045.782.048l.9.016c1.2.019,2.395.036,3.592.093,2.4.069,4.79.252,7.185.457C103.527,109.42,108.317,109.859,113.107,109.85Z" transform="translate(-75.55 -88.873)"/><text class="cls-3" transform="translate(4.443 14.015)">DUSPs</text></g></svg>