<svg id="Layer_1" data-name="Layer 1" xmlns="http://www.w3.org/2000/svg" xmlns:xlink="http://www.w3.org/1999/xlink" viewBox="0 0 50.732 50.732"><defs><style>.cls-1{fill:url(#radial-gradient);}.cls-2{fill:url(#radial-gradient-2);}.cls-3{fill:url(#radial-gradient-3);}.cls-4{fill:url(#radial-gradient-4);}.cls-5{fill:url(#radial-gradient-5);}.cls-6{fill:url(#radial-gradient-6);}.cls-7{fill:url(#radial-gradient-7);}.cls-8{fill:url(#radial-gradient-8);}.cls-9{fill:url(#radial-gradient-9);}.cls-10{fill:url(#radial-gradient-10);}.cls-11{fill:url(#radial-gradient-11);}.cls-12{fill:url(#radial-gradient-12);}.cls-13{fill:url(#radial-gradient-13);}.cls-14{fill:url(#radial-gradient-14);}.cls-15{fill:url(#radial-gradient-15);}.cls-16{fill:url(#radial-gradient-16);}.cls-17{fill:url(#radial-gradient-17);}.cls-18{fill:url(#radial-gradient-18);}.cls-19{fill:url(#radial-gradient-19);}.cls-20{fill:url(#radial-gradient-20);}.cls-21{fill:url(#radial-gradient-21);}.cls-22{fill:url(#radial-gradient-22);}.cls-23{fill:url(#radial-gradient-23);}.cls-24{fill:url(#radial-gradient-24);}.cls-25{fill:url(#radial-gradient-25);}.cls-26{fill:url(#radial-gradient-26);}.cls-27{fill:url(#radial-gradient-27);}.cls-28{fill:url(#radial-gradient-28);}.cls-29{fill:url(#radial-gradient-29);}.cls-30{fill:url(#radial-gradient-30);}.cls-31{fill:url(#radial-gradient-31);}.cls-32{fill:url(#radial-gradient-32);}.cls-33{fill:url(#radial-gradient-33);}.cls-34{fill:url(#radial-gradient-34);}.cls-35{fill:url(#radial-gradient-35);}.cls-36{fill:url(#radial-gradient-36);}.cls-37{fill:url(#radial-gradient-37);}.cls-38{fill:url(#radial-gradient-38);}.cls-39{fill:url(#radial-gradient-39);}.cls-40{fill:url(#radial-gradient-40);}.cls-41{fill:url(#radial-gradient-41);}.cls-42{fill:url(#radial-gradient-42);}.cls-43{fill:url(#radial-gradient-43);}.cls-44{fill:url(#radial-gradient-44);}.cls-45{fill:url(#radial-gradient-45);}.cls-46{fill:url(#radial-gradient-46);}.cls-47{fill:url(#radial-gradient-47);}.cls-48{fill:url(#radial-gradient-48);}.cls-49{fill:url(#radial-gradient-49);}.cls-50{fill:url(#radial-gradient-50);}.cls-51{fill:url(#radial-gradient-51);}.cls-52{fill:url(#radial-gradient-52);}.cls-53{fill:url(#radial-gradient-53);}.cls-54{fill:url(#radial-gradient-54);}.cls-55{fill:url(#radial-gradient-55);}.cls-56{fill:url(#radial-gradient-56);}.cls-57{fill:url(#radial-gradient-57);}.cls-58{fill:url(#radial-gradient-58);}.cls-59{fill:url(#radial-gradient-59);}.cls-60{fill:url(#radial-gradient-60);}.cls-61{fill:url(#radial-gradient-61);}.cls-62{fill:url(#radial-gradient-62);}.cls-63{fill:url(#radial-gradient-63);}.cls-64{fill:url(#radial-gradient-64);}.cls-65{fill:url(#radial-gradient-65);}.cls-66{fill:url(#radial-gradient-66);}.cls-67{fill:url(#radial-gradient-67);}.cls-68{fill:url(#radial-gradient-68);}.cls-69{fill:url(#radial-gradient-69);}.cls-70{fill:url(#radial-gradient-70);}.cls-71{fill:url(#radial-gradient-71);}.cls-72{fill:url(#radial-gradient-72);}.cls-73{fill:url(#radial-gradient-73);}.cls-74{fill:url(#radial-gradient-74);}.cls-75{fill:url(#radial-gradient-75);}.cls-76{fill:url(#radial-gradient-76);}.cls-77{fill:url(#radial-gradient-77);}.cls-78{fill:url(#radial-gradient-78);}.cls-79{fill:url(#radial-gradient-79);}.cls-80{fill:url(#radial-gradient-80);}.cls-81{fill:url(#radial-gradient-81);}.cls-82{fill:url(#radial-gradient-82);}.cls-83{fill:url(#radial-gradient-83);}.cls-84{fill:url(#radial-gradient-84);}.cls-85{fill:url(#radial-gradient-85);}.cls-86{fill:url(#radial-gradient-86);}.cls-87{fill:url(#radial-gradient-87);}.cls-88{fill:url(#radial-gradient-88);}.cls-89{fill:url(#radial-gradient-89);}.cls-90{fill:url(#radial-gradient-90);}.cls-91{fill:url(#radial-gradient-91);}.cls-92{fill:url(#radial-gradient-92);}.cls-93{fill:url(#radial-gradient-93);}.cls-94{fill:url(#radial-gradient-94);}.cls-95{fill:url(#radial-gradient-95);}.cls-96{fill:url(#radial-gradient-96);}.cls-97{fill:url(#radial-gradient-97);}.cls-98{fill:url(#radial-gradient-98);}.cls-99{fill:url(#radial-gradient-99);}.cls-100{fill:url(#radial-gradient-100);}.cls-101{fill:url(#radial-gradient-101);}.cls-102{fill:url(#radial-gradient-102);}.cls-103{fill:url(#radial-gradient-103);}.cls-104{fill:url(#radial-gradient-104);}.cls-105{fill:url(#radial-gradient-105);}.cls-106{fill:url(#radial-gradient-106);}.cls-107{fill:url(#radial-gradient-107);}.cls-108{fill:url(#radial-gradient-108);}.cls-109{fill:url(#radial-gradient-109);}.cls-110{fill:url(#radial-gradient-110);}.cls-111{fill:url(#radial-gradient-111);}.cls-112{fill:url(#radial-gradient-112);}.cls-113{fill:url(#radial-gradient-113);}.cls-114{fill:url(#radial-gradient-114);}</style><radialGradient id="radial-gradient" cx="20.685" cy="14.443" r="25.366" gradientUnits="userSpaceOnUse"><stop offset="0" stop-color="#ffe7c4"/><stop offset="1" stop-color="#cc924a"/></radialGradient><radialGradient id="radial-gradient-2" cx="39.061" cy="40.408" r="2.824" xlink:href="#radial-gradient"/><radialGradient id="radial-gradient-3" cx="36.237" cy="42.598" r="2.824" xlink:href="#radial-gradient"/><radialGradient id="radial-gradient-4" cx="31.898" cy="44.643" r="2.824" gradientUnits="userSpaceOnUse"><stop offset="0" stop-color="#deb8ff"/><stop offset="1" stop-color="#8f35d9"/></radialGradient><radialGradient id="radial-gradient-5" cx="27.201" cy="45.506" r="2.824" xlink:href="#radial-gradient"/><radialGradient id="radial-gradient-6" cx="22.118" cy="45.092" r="2.824" xlink:href="#radial-gradient"/><radialGradient id="radial-gradient-7" cx="17.787" cy="44.002" r="2.824" xlink:href="#radial-gradient-4"/><radialGradient id="radial-gradient-8" cx="13.55" cy="42.269" r="2.824" xlink:href="#radial-gradient"/><radialGradient id="radial-gradient-9" cx="9.575" cy="38.995" r="2.824" xlink:href="#radial-gradient"/><radialGradient id="radial-gradient-10" cx="6.296" cy="35.276" r="2.824" xlink:href="#radial-gradient"/><radialGradient id="radial-gradient-11" cx="4.31" cy="31.005" r="2.824" xlink:href="#radial-gradient-4"/><radialGradient id="radial-gradient-12" cx="3.236" cy="25.986" r="2.824" xlink:href="#radial-gradient"/><radialGradient id="radial-gradient-13" cx="3.236" cy="20.659" r="2.824" xlink:href="#radial-gradient-4"/><radialGradient id="radial-gradient-14" cx="4.657" cy="15.855" r="2.824" xlink:href="#radial-gradient"/><radialGradient id="radial-gradient-15" cx="6.751" cy="11.346" r="2.824" xlink:href="#radial-gradient"/><radialGradient id="radial-gradient-16" cx="9.575" cy="7.911" r="2.824" xlink:href="#radial-gradient"/><radialGradient id="radial-gradient-17" cx="13.129" cy="5.087" r="2.824" xlink:href="#radial-gradient"/><radialGradient id="radial-gradient-18" cx="17.369" cy="2.784" r="2.824" xlink:href="#radial-gradient"/><radialGradient id="radial-gradient-19" cx="22.021" cy="1.874" r="2.824" xlink:href="#radial-gradient-4"/><radialGradient id="radial-gradient-20" cx="26.692" cy="1.874" r="2.824" xlink:href="#radial-gradient"/><radialGradient id="radial-gradient-21" cx="31.518" cy="2.784" r="2.824" xlink:href="#radial-gradient"/><radialGradient id="radial-gradient-22" cx="35.895" cy="4.697" r="2.824" xlink:href="#radial-gradient-4"/><radialGradient id="radial-gradient-23" cx="39.462" cy="7.521" r="2.824" xlink:href="#radial-gradient"/><radialGradient id="radial-gradient-24" cx="42.906" cy="11.008" r="2.824" xlink:href="#radial-gradient-4"/><radialGradient id="radial-gradient-25" cx="45.3" cy="15.682" r="2.824" xlink:href="#radial-gradient"/><radialGradient id="radial-gradient-26" cx="46.459" cy="20.659" r="2.824" xlink:href="#radial-gradient"/><radialGradient id="radial-gradient-27" cx="46.868" cy="25.465" r="2.824" xlink:href="#radial-gradient-4"/><radialGradient id="radial-gradient-28" cx="45.729" cy="30.31" r="2.824" xlink:href="#radial-gradient"/><radialGradient id="radial-gradient-29" cx="43.635" cy="34.76" r="2.824" xlink:href="#radial-gradient-4"/><radialGradient id="radial-gradient-30" cx="41.152" cy="38.354" r="2.824" xlink:href="#radial-gradient"/><radialGradient id="radial-gradient-31" cx="37.546" cy="37.584" r="2.824" xlink:href="#radial-gradient"/><radialGradient id="radial-gradient-32" cx="184.602" cy="256.982" r="2.565" gradientTransform="translate(-257.063 -377.873) scale(1.988 1.908)" gradientUnits="userSpaceOnUse"><stop offset="0" stop-color="#9affec"/><stop offset="1" stop-color="#358ad9"/></radialGradient><radialGradient id="radial-gradient-33" cx="29.671" cy="41.819" r="2.824" xlink:href="#radial-gradient"/><radialGradient id="radial-gradient-34" cx="24.942" cy="42.269" r="2.824" xlink:href="#radial-gradient-4"/><radialGradient id="radial-gradient-35" cx="20.019" cy="41.819" r="2.824" xlink:href="#radial-gradient"/><radialGradient id="radial-gradient-36" cx="15.527" cy="39.774" r="2.824" xlink:href="#radial-gradient"/><radialGradient id="radial-gradient-37" cx="11.944" cy="36.95" r="2.824" xlink:href="#radial-gradient-4"/><radialGradient id="radial-gradient-38" cx="8.642" cy="33.134" r="2.824" xlink:href="#radial-gradient"/><radialGradient id="radial-gradient-39" cx="6.751" cy="28.181" r="2.824" xlink:href="#radial-gradient"/><radialGradient id="radial-gradient-40" cx="6.059" cy="23.483" r="2.824" xlink:href="#radial-gradient"/><radialGradient id="radial-gradient-41" cx="6.751" cy="18.506" r="2.824" xlink:href="#radial-gradient"/><radialGradient id="radial-gradient-42" cx="142.616" cy="229.11" r="2.824" gradientTransform="translate(-242.468 -430.413) scale(1.764 1.939)" xlink:href="#radial-gradient-32"/><radialGradient id="radial-gradient-43" cx="11.466" cy="10.345" r="2.824" xlink:href="#radial-gradient-4"/><radialGradient id="radial-gradient-44" cx="14.963" cy="7.521" r="2.824" xlink:href="#radial-gradient"/><radialGradient id="radial-gradient-45" cx="19.352" cy="5.608" r="2.824" xlink:href="#radial-gradient"/><radialGradient id="radial-gradient-46" cx="24.023" cy="4.697" r="2.824" xlink:href="#radial-gradient"/><radialGradient id="radial-gradient-47" cx="28.694" cy="5.087" r="2.824" xlink:href="#radial-gradient-4"/><radialGradient id="radial-gradient-48" cx="33.413" cy="6.675" r="2.824" xlink:href="#radial-gradient"/><radialGradient id="radial-gradient-49" cx="37.546" cy="9.773" r="2.824" xlink:href="#radial-gradient"/><radialGradient id="radial-gradient-50" cx="40.811" cy="13.832" r="2.824" xlink:href="#radial-gradient"/><radialGradient id="radial-gradient-51" cx="42.906" cy="18.983" r="2.824" xlink:href="#radial-gradient-4"/><radialGradient id="radial-gradient-52" cx="43.521" cy="23.483" r="2.824" xlink:href="#radial-gradient"/><radialGradient id="radial-gradient-53" cx="43.172" cy="27.934" r="2.824" xlink:href="#radial-gradient"/><radialGradient id="radial-gradient-54" cx="41.543" cy="32.232" r="2.824" xlink:href="#radial-gradient"/><radialGradient id="radial-gradient-55" cx="38.719" cy="35.958" r="2.824" xlink:href="#radial-gradient"/><radialGradient id="radial-gradient-56" cx="34.722" cy="35.531" r="2.824" xlink:href="#radial-gradient"/><radialGradient id="radial-gradient-57" cx="23.434" cy="7.911" r="2.824" xlink:href="#radial-gradient"/><radialGradient id="radial-gradient-58" cx="19.352" cy="8.866" r="2.824" xlink:href="#radial-gradient-4"/><radialGradient id="radial-gradient-59" cx="15.953" cy="10.735" r="2.824" xlink:href="#radial-gradient"/><radialGradient id="radial-gradient-60" cx="31.315" cy="37.584" r="2.824" xlink:href="#radial-gradient-4"/><radialGradient id="radial-gradient-61" cx="27.669" cy="38.995" r="2.824" xlink:href="#radial-gradient"/><radialGradient id="radial-gradient-62" cx="23.017" cy="38.995" r="2.824" xlink:href="#radial-gradient"/><radialGradient id="radial-gradient-63" cx="19.197" cy="38.1" r="2.824" xlink:href="#radial-gradient-4"/><radialGradient id="radial-gradient-64" cx="15.953" cy="36.172" r="2.824" xlink:href="#radial-gradient"/><radialGradient id="radial-gradient-65" cx="13.129" cy="33.581" r="2.824" xlink:href="#radial-gradient"/><radialGradient id="radial-gradient-66" cx="10.726" cy="29.883" r="2.824" xlink:href="#radial-gradient"/><radialGradient id="radial-gradient-67" cx="9.575" cy="25.465" r="2.824" xlink:href="#radial-gradient-4"/><radialGradient id="radial-gradient-68" cx="9.575" cy="21.329" r="2.824" xlink:href="#radial-gradient"/><radialGradient id="radial-gradient-69" cx="10.305" cy="17.835" r="2.824" xlink:href="#radial-gradient"/><radialGradient id="radial-gradient-70" cx="12.704" cy="14.17" r="2.824" xlink:href="#radial-gradient"/><radialGradient id="radial-gradient-71" cx="28.22" cy="8.432" r="2.824" xlink:href="#radial-gradient"/><radialGradient id="radial-gradient-72" cx="32.34" cy="9.773" r="2.824" xlink:href="#radial-gradient"/><radialGradient id="radial-gradient-73" cx="178.229" cy="222.638" r="4.934" gradientTransform="translate(-212.208 -356.982) scale(1.817 1.97)" gradientUnits="userSpaceOnUse"><stop offset="0" stop-color="#9affa6"/><stop offset="1" stop-color="#20802b"/></radialGradient><radialGradient id="radial-gradient-74" cx="38.719" cy="16.656" r="2.824" xlink:href="#radial-gradient"/><radialGradient id="radial-gradient-75" cx="40.082" cy="22.044" r="2.824" xlink:href="#radial-gradient"/><radialGradient id="radial-gradient-76" cx="40.082" cy="27.263" r="2.824" xlink:href="#radial-gradient-4"/><radialGradient id="radial-gradient-77" cx="37.987" cy="31.936" r="2.824" xlink:href="#radial-gradient"/><radialGradient id="radial-gradient-78" cx="30.025" cy="34.126" r="2.824" xlink:href="#radial-gradient"/><radialGradient id="radial-gradient-79" cx="25.667" cy="35.276" r="2.824" xlink:href="#radial-gradient-4"/><radialGradient id="radial-gradient-80" cx="21.572" cy="34.76" r="2.824" xlink:href="#radial-gradient"/><radialGradient id="radial-gradient-81" cx="18.351" cy="33.134" r="2.824" xlink:href="#radial-gradient"/><radialGradient id="radial-gradient-82" cx="15.953" cy="31.005" r="2.824" xlink:href="#radial-gradient-4"/><radialGradient id="radial-gradient-83" cx="13.981" cy="27.934" r="2.824" xlink:href="#radial-gradient"/><radialGradient id="radial-gradient-84" cx="13.129" cy="23.483" r="2.824" xlink:href="#radial-gradient"/><radialGradient id="radial-gradient-85" cx="13.981" cy="19.221" r="2.824" xlink:href="#radial-gradient-4"/><radialGradient id="radial-gradient-86" cx="16.374" cy="15.421" r="2.824" xlink:href="#radial-gradient"/><radialGradient id="radial-gradient-87" cx="19.197" cy="13.031" r="2.824" xlink:href="#radial-gradient"/><radialGradient id="radial-gradient-88" cx="22.998" cy="11.69" r="2.824" xlink:href="#radial-gradient"/><radialGradient id="radial-gradient-89" cx="26.847" cy="11.897" r="2.824" xlink:href="#radial-gradient-4"/><radialGradient id="radial-gradient-90" cx="30.59" cy="13.335" r="2.824" xlink:href="#radial-gradient"/><radialGradient id="radial-gradient-91" cx="33.814" cy="15.855" r="2.824" xlink:href="#radial-gradient-4"/><radialGradient id="radial-gradient-92" cx="35.895" cy="19.479" r="2.824" xlink:href="#radial-gradient"/><radialGradient id="radial-gradient-93" cx="36.638" cy="23.483" r="2.824" xlink:href="#radial-gradient-4"/><radialGradient id="radial-gradient-94" cx="35.895" cy="27.487" r="2.824" xlink:href="#radial-gradient"/><radialGradient id="radial-gradient-95" cx="33.413" cy="31.633" r="2.824" xlink:href="#radial-gradient-4"/><radialGradient id="radial-gradient-96" cx="28.491" cy="30.758" r="2.824" xlink:href="#radial-gradient"/><radialGradient id="radial-gradient-97" cx="24.396" cy="31.633" r="2.824" xlink:href="#radial-gradient"/><radialGradient id="radial-gradient-98" cx="20.193" cy="31.005" r="2.824" xlink:href="#radial-gradient"/><radialGradient id="radial-gradient-99" cx="92.181" cy="100.528" r="4.361" gradientTransform="matrix(1, 0, 0, 1, 0, 0)" xlink:href="#radial-gradient-32"/><radialGradient id="radial-gradient-100" cx="15.953" cy="23.483" r="2.824" xlink:href="#radial-gradient"/><radialGradient id="radial-gradient-101" cx="17.787" cy="19.479" r="2.824" xlink:href="#radial-gradient"/><radialGradient id="radial-gradient-102" cx="20.956" cy="16.159" r="2.824" xlink:href="#radial-gradient-4"/><radialGradient id="radial-gradient-103" cx="25.397" cy="15.193" r="2.824" xlink:href="#radial-gradient"/><radialGradient id="radial-gradient-104" cx="30.025" cy="16.397" r="2.824" xlink:href="#radial-gradient"/><radialGradient id="radial-gradient-105" cx="32.34" cy="19.818" r="2.824" xlink:href="#radial-gradient"/><radialGradient id="radial-gradient-106" cx="33.413" cy="24.153" r="2.824" xlink:href="#radial-gradient-4"/><radialGradient id="radial-gradient-107" cx="31.518" cy="27.934" r="2.824" xlink:href="#radial-gradient"/><radialGradient id="radial-gradient-108" cx="26.847" cy="27.487" r="2.824" xlink:href="#radial-gradient-4"/><radialGradient id="radial-gradient-109" cx="22.176" cy="27.487" r="2.824" xlink:href="#radial-gradient"/><radialGradient id="radial-gradient-110" cx="20.174" cy="23.483" r="2.824" xlink:href="#radial-gradient-4"/><radialGradient id="radial-gradient-111" cx="22.843" cy="19.479" r="2.824" xlink:href="#radial-gradient"/><radialGradient id="radial-gradient-112" cx="27.514" cy="19.479" r="2.824" xlink:href="#radial-gradient-4"/><radialGradient id="radial-gradient-113" cx="29.516" cy="23.483" r="2.824" xlink:href="#radial-gradient"/><radialGradient id="radial-gradient-114" cx="24.845" cy="23.483" r="2.824" xlink:href="#radial-gradient"/></defs><title>VLDL</title><g id="VLDL"><circle class="cls-1" cx="25.366" cy="25.366" r="25.366"/><circle class="cls-2" cx="39.582" cy="41.624" r="2.824"/><circle class="cls-3" cx="36.758" cy="43.814" r="2.824"/><circle class="cls-4" cx="32.419" cy="45.859" r="2.824"/><circle class="cls-5" cx="27.722" cy="46.722" r="2.824"/><circle class="cls-6" cx="22.639" cy="46.308" r="2.824"/><circle class="cls-7" cx="18.308" cy="45.218" r="2.824"/><circle class="cls-8" cx="14.071" cy="43.484" r="2.824"/><circle class="cls-9" cx="10.096" cy="40.211" r="2.824"/><circle class="cls-10" cx="6.817" cy="36.492" r="2.824"/><circle class="cls-11" cx="4.831" cy="32.221" r="2.824"/><circle class="cls-12" cx="3.757" cy="27.202" r="2.824"/><circle class="cls-13" cx="3.757" cy="21.875" r="2.824"/><circle class="cls-14" cx="5.179" cy="17.07" r="2.824"/><circle class="cls-15" cx="7.272" cy="12.562" r="2.824"/><circle class="cls-16" cx="10.096" cy="9.127" r="2.824"/><circle class="cls-17" cx="13.65" cy="6.303" r="2.824"/><circle class="cls-18" cx="17.89" cy="4" r="2.824"/><circle class="cls-19" cx="22.542" cy="3.09" r="2.824"/><circle class="cls-20" cx="27.213" cy="3.09" r="2.824"/><circle class="cls-21" cx="32.039" cy="4" r="2.824"/><circle class="cls-22" cx="36.416" cy="5.913" r="2.824"/><circle class="cls-23" cx="39.983" cy="8.737" r="2.824"/><circle class="cls-24" cx="43.427" cy="12.224" r="2.824"/><circle class="cls-25" cx="45.821" cy="16.898" r="2.824"/><circle class="cls-26" cx="46.98" cy="21.875" r="2.824"/><circle class="cls-27" cx="47.389" cy="26.681" r="2.824"/><circle class="cls-28" cx="46.251" cy="31.526" r="2.824"/><circle class="cls-29" cx="44.156" cy="35.976" r="2.824"/><circle class="cls-30" cx="41.673" cy="39.57" r="2.824"/><circle class="cls-31" cx="38.067" cy="38.8" r="2.824"/><path class="cls-32" d="M116.139,113.91c0-2.975-1.689-4.265-4.79-4.265a5.5,5.5,0,0,0-5.614,5.387c0,2.975,1.689,4.265,4.79,4.265A5.5,5.5,0,0,0,116.139,113.91Z" transform="translate(-74.608 -74.173)"/><circle class="cls-33" cx="30.192" cy="43.035" r="2.824"/><circle class="cls-34" cx="25.463" cy="43.484" r="2.824"/><circle class="cls-35" cx="20.541" cy="43.035" r="2.824"/><circle class="cls-36" cx="16.048" cy="40.99" r="2.824"/><circle class="cls-37" cx="12.465" cy="38.166" r="2.824"/><circle class="cls-38" cx="9.163" cy="34.35" r="2.824"/><circle class="cls-39" cx="7.272" cy="29.397" r="2.824"/><circle class="cls-40" cx="6.581" cy="24.699" r="2.824"/><circle class="cls-41" cx="7.272" cy="19.722" r="2.824"/><ellipse class="cls-42" cx="10.096" cy="16.228" rx="4.983" ry="5.476"/><circle class="cls-43" cx="11.987" cy="11.561" r="2.824"/><circle class="cls-44" cx="15.484" cy="8.737" r="2.824"/><circle class="cls-45" cx="19.873" cy="6.824" r="2.824"/><circle class="cls-46" cx="24.544" cy="5.913" r="2.824"/><circle class="cls-47" cx="29.215" cy="6.303" r="2.824"/><circle class="cls-48" cx="33.934" cy="7.891" r="2.824"/><circle class="cls-49" cx="38.067" cy="10.989" r="2.824"/><circle class="cls-50" cx="41.332" cy="15.048" r="2.824"/><circle class="cls-51" cx="43.427" cy="20.199" r="2.824"/><circle class="cls-52" cx="44.042" cy="24.699" r="2.824"/><circle class="cls-53" cx="43.694" cy="29.15" r="2.824"/><circle class="cls-54" cx="42.064" cy="33.448" r="2.824"/><circle class="cls-55" cx="39.24" cy="37.174" r="2.824"/><circle class="cls-56" cx="35.243" cy="36.747" r="2.824"/><circle class="cls-57" cx="23.955" cy="9.127" r="2.824"/><circle class="cls-58" cx="19.873" cy="10.082" r="2.824"/><circle class="cls-59" cx="16.474" cy="11.951" r="2.824"/><circle class="cls-60" cx="31.836" cy="38.8" r="2.824"/><circle class="cls-61" cx="28.19" cy="40.211" r="2.824"/><circle class="cls-62" cx="23.538" cy="40.211" r="2.824"/><circle class="cls-63" cx="19.719" cy="39.316" r="2.824"/><circle class="cls-64" cx="16.474" cy="37.387" r="2.824"/><circle class="cls-65" cx="13.65" cy="34.797" r="2.824"/><circle class="cls-66" cx="11.247" cy="31.099" r="2.824"/><circle class="cls-67" cx="10.096" cy="26.681" r="2.824"/><circle class="cls-68" cx="10.096" cy="22.545" r="2.824"/><circle class="cls-69" cx="10.826" cy="19.051" r="2.824"/><circle class="cls-70" cx="13.225" cy="15.386" r="2.824"/><circle class="cls-71" cx="28.741" cy="9.648" r="2.824"/><circle class="cls-72" cx="32.861" cy="10.989" r="2.824"/><path class="cls-73" d="M121.587,86.259c0-3.072-7.4-10.909-12.32-10.321-2.813.336-4.623,6.152-4.623,9.224s7.113,10.886,9.946,10.886S121.587,89.331,121.587,86.259Z" transform="translate(-74.608 -74.173)"/><circle class="cls-74" cx="39.24" cy="17.872" r="2.824"/><circle class="cls-75" cx="40.603" cy="23.26" r="2.824"/><circle class="cls-76" cx="40.603" cy="28.479" r="2.824"/><circle class="cls-77" cx="38.508" cy="33.152" r="2.824"/><circle class="cls-78" cx="30.546" cy="35.342" r="2.824"/><circle class="cls-79" cx="26.188" cy="36.492" r="2.824"/><circle class="cls-80" cx="22.093" cy="35.976" r="2.824"/><circle class="cls-81" cx="18.872" cy="34.35" r="2.824"/><circle class="cls-82" cx="16.474" cy="32.221" r="2.824"/><circle class="cls-83" cx="14.503" cy="29.15" r="2.824"/><circle class="cls-84" cx="13.65" cy="24.699" r="2.824"/><circle class="cls-85" cx="14.503" cy="20.437" r="2.824"/><circle class="cls-86" cx="16.895" cy="16.636" r="2.824"/><circle class="cls-87" cx="19.719" cy="14.247" r="2.824"/><circle class="cls-88" cx="23.519" cy="12.906" r="2.824"/><circle class="cls-89" cx="27.368" cy="13.113" r="2.824"/><circle class="cls-90" cx="31.111" cy="14.551" r="2.824"/><circle class="cls-91" cx="34.335" cy="17.07" r="2.824"/><circle class="cls-92" cx="36.416" cy="20.695" r="2.824"/><circle class="cls-93" cx="37.159" cy="24.699" r="2.824"/><circle class="cls-94" cx="36.416" cy="28.702" r="2.824"/><circle class="cls-95" cx="33.934" cy="32.849" r="2.824"/><circle class="cls-96" cx="29.012" cy="31.974" r="2.824"/><circle class="cls-97" cx="24.917" cy="32.849" r="2.824"/><circle class="cls-98" cx="20.714" cy="32.221" r="2.824"/><path class="cls-99" d="M97.3,102.875c0-1.56-4.243-4.845-5.8-4.845s-3.059,3.3-2.824,4.845a4.794,4.794,0,0,0,5.2,3.9A4.745,4.745,0,0,0,97.3,102.875Z" transform="translate(-74.608 -74.173)"/><circle class="cls-100" cx="16.474" cy="24.699" r="2.824"/><circle class="cls-101" cx="18.308" cy="20.695" r="2.824"/><circle class="cls-102" cx="21.477" cy="17.375" r="2.824"/><circle class="cls-103" cx="25.918" cy="16.409" r="2.824"/><circle class="cls-104" cx="30.546" cy="17.613" r="2.824"/><circle class="cls-105" cx="32.861" cy="21.034" r="2.824"/><circle class="cls-106" cx="33.934" cy="25.369" r="2.824"/><circle class="cls-107" cx="32.039" cy="29.15" r="2.824"/><circle class="cls-108" cx="27.368" cy="28.702" r="2.824"/><circle class="cls-109" cx="22.697" cy="28.702" r="2.824"/><circle class="cls-110" cx="20.695" cy="24.699" r="2.824"/><circle class="cls-111" cx="23.364" cy="20.695" r="2.824"/><circle class="cls-112" cx="28.035" cy="20.695" r="2.824"/><circle class="cls-113" cx="30.037" cy="24.699" r="2.824"/><circle class="cls-114" cx="25.366" cy="24.699" r="2.824"/></g></svg>