<svg id="mRNA-Red" xmlns="http://www.w3.org/2000/svg" xmlns:xlink="http://www.w3.org/1999/xlink" viewBox="0 0 180 90.152"><defs><style>.cls-1{fill:url(#radial-gradient);}.cls-2{fill:url(#linear-gradient);}.cls-3{fill:url(#linear-gradient-2);}.cls-4{fill:url(#linear-gradient-3);}.cls-5{fill:url(#linear-gradient-4);}.cls-6{fill:url(#linear-gradient-5);}.cls-7{fill:url(#linear-gradient-6);}.cls-8{fill:url(#linear-gradient-7);}.cls-9{fill:#c8ab37;}.cls-10{fill:#a0892c;opacity:0.6;isolation:isolate;}.cls-11{fill:url(#linear-gradient-8);}.cls-12{fill:url(#linear-gradient-9);}.cls-13{fill:url(#linear-gradient-10);}.cls-14{fill:url(#linear-gradient-11);}.cls-15{fill:url(#linear-gradient-12);}.cls-16{fill:url(#linear-gradient-13);}.cls-17{fill:url(#linear-gradient-14);}.cls-18{fill:url(#linear-gradient-15);}.cls-19{fill:url(#linear-gradient-16);}.cls-20{fill:url(#linear-gradient-17);}.cls-21{fill:url(#linear-gradient-18);}.cls-22{fill:url(#linear-gradient-19);}.cls-23{fill:url(#linear-gradient-20);}.cls-24{fill:url(#linear-gradient-21);}.cls-25{fill:url(#linear-gradient-22);}.cls-26{fill:url(#linear-gradient-23);}.cls-27{fill:url(#linear-gradient-24);}.cls-28{fill:url(#linear-gradient-25);}.cls-29{fill:url(#linear-gradient-26);}.cls-30{fill:#f55;}.cls-31{fill:url(#linear-gradient-27);}.cls-32{fill:url(#linear-gradient-28);}.cls-33{fill:url(#linear-gradient-29);}</style><radialGradient id="radial-gradient" cx="-212.023" cy="729.082" r="8.334" gradientTransform="matrix(0.033, 1.151, 1.276, -0.044, -761.161, 281.582)" gradientUnits="userSpaceOnUse"><stop offset="0" stop-color="#e9ddaf"/><stop offset="1" stop-color="#786721"/></radialGradient><linearGradient id="linear-gradient" x1="2.57" y1="796.632" x2="19.998" y2="796.632" gradientTransform="matrix(0.427, 0.734, 1.123, -0.654, -862.865, 646.559)" gradientUnits="userSpaceOnUse"><stop offset="0" stop-color="#decd87"/><stop offset="1" stop-color="#a0892c"/></linearGradient><linearGradient id="linear-gradient-2" x1="-145.905" y1="700.017" x2="-122.359" y2="700.017" gradientTransform="matrix(0.654, 1.123, 1.123, -0.654, -646.863, 732.146)" gradientUnits="userSpaceOnUse"><stop offset="0" stop-color="#e9ddaf"/><stop offset="0.506" stop-color="#786721"/><stop offset="1" stop-color="#e9ddaf"/></linearGradient><linearGradient id="linear-gradient-3" x1="91.636" y1="800.092" x2="113.452" y2="800.092" gradientTransform="matrix(0.341, 0.586, 1.123, -0.654, -889.066, 598.699)" xlink:href="#linear-gradient"/><linearGradient id="linear-gradient-4" x1="14.66" y1="712.192" x2="32.088" y2="712.192" gradientTransform="matrix(0.427, 0.734, 1.123, -0.654, -745.041, 560.067)" gradientUnits="userSpaceOnUse"><stop offset="0" stop-color="maroon"/><stop offset="1" stop-color="#f55"/></linearGradient><linearGradient id="linear-gradient-5" x1="131.026" y1="708.732" x2="152.842" y2="708.732" gradientTransform="matrix(0.341, 0.586, 1.123, -0.654, -786.195, 492.277)" xlink:href="#linear-gradient-4"/><linearGradient id="linear-gradient-6" x1="8.941" y1="705.271" x2="26.369" y2="705.271" gradientTransform="matrix(0.427, 0.734, 1.123, -0.654, -743.862, 567.834)" gradientUnits="userSpaceOnUse"><stop offset="0" stop-color="#a0892c"/><stop offset="1" stop-color="#c8ab37"/></linearGradient><linearGradient id="linear-gradient-7" x1="1.157" y1="692.853" x2="18.585" y2="692.853" gradientTransform="matrix(0.427, 0.734, 1.123, -0.654, -735.186, 574.286)" xlink:href="#linear-gradient"/><linearGradient id="linear-gradient-8" x1="90.854" y1="691.843" x2="112.67" y2="691.843" gradientTransform="matrix(0.341, 0.586, 1.123, -0.654, -644.264, 457.049)" gradientUnits="userSpaceOnUse"><stop offset="0" stop-color="#ff8080"/><stop offset="1" stop-color="#a00"/></linearGradient><linearGradient id="linear-gradient-9" x1="-145.774" y1="628.006" x2="-122.227" y2="628.006" gradientTransform="matrix(0.654, 1.123, 1.123, -0.654, -525.414, 661.115)" gradientUnits="userSpaceOnUse"><stop offset="0" stop-color="#a00"/><stop offset="0.506" stop-color="#500"/><stop offset="1" stop-color="#a00"/></linearGradient><linearGradient id="linear-gradient-10" x1="-145.774" y1="664.553" x2="-122.227" y2="664.553" xlink:href="#linear-gradient-9"/><linearGradient id="linear-gradient-11" x1="14.863" y1="677.302" x2="32.291" y2="677.302" gradientTransform="matrix(0.427, 0.734, 1.123, -0.654, -624.196, 489.387)" xlink:href="#linear-gradient-4"/><linearGradient id="linear-gradient-12" x1="131.279" y1="673.842" x2="153.096" y2="673.842" gradientTransform="matrix(0.341, 0.586, 1.123, -0.654, -665.35, 421.596)" xlink:href="#linear-gradient-4"/><linearGradient id="linear-gradient-13" x1="11.297" y1="670.381" x2="28.725" y2="670.381" gradientTransform="matrix(0.427, 0.734, 1.123, -0.654, -624.401, 494.778)" xlink:href="#linear-gradient-4"/><linearGradient id="linear-gradient-14" x1="-0.006" y1="658.949" x2="17.422" y2="658.949" gradientTransform="matrix(0.427, 0.734, 1.123, -0.654, -614.569, 505.758)" xlink:href="#linear-gradient-8"/><linearGradient id="linear-gradient-15" x1="90.18" y1="655.488" x2="111.996" y2="655.488" gradientTransform="matrix(0.341, 0.586, 1.123, -0.654, -644.176, 457.793)" xlink:href="#linear-gradient-8"/><linearGradient id="linear-gradient-16" x1="1.407" y1="652.028" x2="18.835" y2="652.028" gradientTransform="matrix(0.427, 0.734, 1.123, -0.654, -617.975, 505.653)" xlink:href="#linear-gradient-8"/><linearGradient id="linear-gradient-17" x1="14.863" y1="640.183" x2="32.291" y2="640.183" gradientTransform="matrix(0.427, 0.734, 1.123, -0.654, -623.595, 489.037)" xlink:href="#linear-gradient-4"/><linearGradient id="linear-gradient-18" x1="131.279" y1="636.722" x2="153.096" y2="636.722" gradientTransform="matrix(0.341, 0.586, 1.123, -0.654, -664.749, 421.246)" xlink:href="#linear-gradient-4"/><linearGradient id="linear-gradient-19" x1="9.144" y1="633.262" x2="26.572" y2="633.262" gradientTransform="matrix(0.427, 0.734, 1.123, -0.654, -622.416, 496.804)" xlink:href="#linear-gradient-4"/><linearGradient id="linear-gradient-20" x1="1.36" y1="620.844" x2="18.788" y2="620.844" gradientTransform="matrix(0.427, 0.734, 1.123, -0.654, -613.74, 503.256)" xlink:href="#linear-gradient-8"/><linearGradient id="linear-gradient-21" x1="92.875" y1="617.384" x2="114.691" y2="617.384" gradientTransform="matrix(0.341, 0.586, 1.123, -0.654, -643.853, 454.423)" xlink:href="#linear-gradient-8"/><linearGradient id="linear-gradient-22" x1="103.828" y1="613.923" x2="121.256" y2="613.923" gradientTransform="matrix(0.341, 0.586, 1.123, -0.654, -649.6, 447.427)" xlink:href="#linear-gradient-8"/><linearGradient id="linear-gradient-23" x1="-0.746" y1="688.382" x2="16.682" y2="688.382" gradientTransform="matrix(0.427, 0.734, 1.123, -0.654, -616.333, 507.879)" xlink:href="#linear-gradient-8"/><linearGradient id="linear-gradient-24" x1="-145.774" y1="609.895" x2="-122.227" y2="609.895" gradientTransform="matrix(0.654, 1.123, 1.123, -0.654, -525.414, 661.115)" gradientUnits="userSpaceOnUse"><stop offset="0" stop-color="maroon"/><stop offset="0.487" stop-color="red"/><stop offset="1" stop-color="maroon"/></linearGradient><linearGradient id="linear-gradient-25" x1="-145.774" y1="646.279" x2="-122.227" y2="646.279" xlink:href="#linear-gradient-24"/><linearGradient id="linear-gradient-26" x1="-145.774" y1="682.826" x2="-122.227" y2="682.826" xlink:href="#linear-gradient-24"/><linearGradient id="linear-gradient-27" x1="1957.893" y1="611.801" x2="1975.32" y2="611.801" gradientTransform="matrix(0.077, 0.132, 1.122, -0.654, -746.281, 240.312)" gradientUnits="userSpaceOnUse"><stop offset="0" stop-color="maroon"/><stop offset="1" stop-color="maroon"/></linearGradient><linearGradient id="linear-gradient-28" x1="1951.913" y1="539.241" x2="2020.064" y2="538.886" gradientTransform="matrix(0.077, 0.132, 1.122, -0.654, -623.023, 170.117)" xlink:href="#linear-gradient-27"/><linearGradient id="linear-gradient-29" x1="-145.824" y1="682.068" x2="-122.278" y2="682.068" gradientTransform="matrix(0.654, 1.123, 1.123, -0.654, -647.216, 732.168)" gradientUnits="userSpaceOnUse"><stop offset="0" stop-color="#786721"/><stop offset="0.506" stop-color="#e9ddaf"/><stop offset="1" stop-color="#786721"/></linearGradient></defs><title>R-ICO-013687</title><circle id="path1081" class="cls-1" cx="166.938" cy="13.135" r="13.059"/><g id="g1366"><path id="rect1242" class="cls-2" d="M33.253,127.522,40.4,139.8c.082.141-.087.393-.379.563l-.07.041c-.292.17-.595.193-.677.052l-7.151-12.279c-.082-.141.087-.393.379-.563l.07-.041C32.868,127.405,33.171,127.381,33.253,127.522Z" transform="translate(-10 -54.924)"/><path id="path1124" class="cls-3" d="M46,144.355a16.631,16.631,0,0,0,1.554-4.715c.407-2.177.384-1.068.273-13.588-.054-6.106-.083-11.227-.063-11.38s.075-.6.125-1a14.259,14.259,0,0,1,2.207-6.5l.38-.51,3.141-1.827,3.141-1.828-.329.621a18.207,18.207,0,0,0-1.565,5.035c-.3,1.862-.291.938-.182,13.152.089,9.923.092,11.166.026,11.711-.4,3.308-1.182,5.729-2.334,7.18l-.372.467-3.1,1.777-3.1,1.777Z" transform="translate(-10 -54.924)"/><path id="rect1240" class="cls-4" d="M41.126,129.235l7.151,12.279c.082.141-.088.393-.379.563l-.071.041c-.291.17-.594.193-.676.052L40,129.891c-.082-.141.088-.393.38-.563l.07-.041C40.74,129.118,41.043,129.094,41.126,129.235Z" transform="translate(-10 -54.924)"/><path id="rect1126" class="cls-5" d="M61.451,105.112,68.6,117.39c.082.142-.087.394-.379.563l-.07.041c-.292.17-.595.193-.677.052l-7.151-12.278c-.082-.142.088-.394.379-.563l.07-.041C61.066,104.994,61.369,104.971,61.451,105.112Z" transform="translate(-10 -54.924)"/><path id="rect1128" class="cls-6" d="M54.883,105.639l7.151,12.278c.082.141-.088.393-.379.563l-.07.041c-.292.17-.595.193-.677.052l-7.151-12.279c-.082-.141.087-.393.379-.563l.07-.041C54.5,105.521,54.8,105.5,54.883,105.639Z" transform="translate(-10 -54.924)"/><path id="rect1130" class="cls-7" d="M52.416,113.207l7.151,12.278c.082.142-.088.394-.379.563l-.071.041c-.291.17-.594.193-.676.052l-7.152-12.278c-.082-.142.088-.394.38-.563l.07-.041C52.03,113.089,52.333,113.066,52.416,113.207Z" transform="translate(-10 -54.924)"/><path id="rect1132" class="cls-8" d="M43.825,122.065l7.151,12.279c.082.141-.088.393-.379.563l-.071.041c-.291.17-.594.193-.676.052L42.7,122.721c-.083-.141.087-.393.379-.563l.07-.041C43.44,121.947,43.742,121.924,43.825,122.065Z" transform="translate(-10 -54.924)"/><path id="path1136" class="cls-9" d="M47.8,117.949c-.378-3.251.422-7.97,2.013-10.549,1.782-2.888,6.585-.533,11.623,2.61-3.984-2.411-7.91-3.836-10.149-2.575s-3.052,5.407-3.487,10.514Z" transform="translate(-10 -54.924)"/><path id="rect1140" class="cls-10" d="M50.984,122.554l1.288,2.211a1.843,1.843,0,0,1-.5.353l-.071.041a1.762,1.762,0,0,1-.554.261l-1.288-2.21a1.809,1.809,0,0,1,.5-.354l.071-.041A1.817,1.817,0,0,1,50.984,122.554Z" transform="translate(-10 -54.924)"/><path id="rect2527" class="cls-11" d="M164.138,57.9l7.151,12.278c.082.142-.088.394-.379.563l-.071.041c-.291.17-.594.193-.676.052l-7.151-12.278c-.083-.142.087-.394.379-.563l.07-.041C163.752,57.784,164.055,57.761,164.138,57.9Z" transform="translate(-10 -54.924)"/><path id="path19733" class="cls-12" d="M86.69,120.554a16.6,16.6,0,0,0,1.554-4.716c.407-2.176.385-1.067.274-13.587-.054-6.106-.083-11.227-.064-11.38s.076-.6.126-1a14.256,14.256,0,0,1,2.207-6.5l.38-.509,3.14-1.828L97.448,79.2l-.328.621a18.206,18.206,0,0,0-1.566,5.035c-.3,1.862-.291.938-.182,13.152.089,9.923.092,11.166.027,11.711-.395,3.308-1.183,5.729-2.335,7.179l-.371.468-3.1,1.777-3.1,1.776Z" transform="translate(-10 -54.924)"/><path id="path19729" class="cls-13" d="M127.719,96.659a16.64,16.64,0,0,0,1.553-4.716c.407-2.176.385-1.067.274-13.587-.054-6.106-.083-11.227-.064-11.38s.076-.6.126-1a14.251,14.251,0,0,1,2.207-6.5l.38-.509,3.141-1.828,3.14-1.827-.328.621a18.206,18.206,0,0,0-1.566,5.035c-.3,1.862-.291.938-.181,13.152.088,9.922.091,11.166.026,11.711-.395,3.307-1.182,5.729-2.335,7.179l-.371.468-3.1,1.777-3.1,1.776Z" transform="translate(-10 -54.924)"/><path id="rect2501" class="cls-14" d="M143.215,57.391l7.151,12.279c.083.141-.087.393-.379.563l-.07.041c-.292.17-.595.193-.677.052l-7.151-12.279c-.082-.141.088-.393.379-.563l.071-.041C142.83,57.273,143.133,57.25,143.215,57.391Z" transform="translate(-10 -54.924)"/><path id="rect2505" class="cls-15" d="M136.647,57.918,143.8,70.2c.082.141-.087.393-.379.563l-.07.041c-.292.169-.595.193-.677.052l-7.151-12.279c-.082-.141.087-.393.379-.563l.07-.041C136.262,57.8,136.565,57.777,136.647,57.918Z" transform="translate(-10 -54.924)"/><path id="rect2507" class="cls-16" d="M133.716,64.69l7.151,12.279c.082.141-.088.393-.379.563l-.07.041c-.292.169-.595.193-.677.052L132.59,65.346c-.082-.141.087-.393.379-.563l.07-.041C133.331,64.572,133.634,64.549,133.716,64.69Z" transform="translate(-10 -54.924)"/><path id="rect2509" class="cls-17" d="M125.883,74.85l7.151,12.279c.082.141-.087.393-.379.563l-.07.041c-.292.169-.595.193-.677.052l-7.151-12.279c-.082-.141.087-.393.379-.563l.07-.041C125.5,74.732,125.8,74.709,125.883,74.85Z" transform="translate(-10 -54.924)"/><path id="rect2511" class="cls-18" d="M123.184,82.02,130.335,94.3c.082.141-.088.393-.379.563l-.07.041c-.292.169-.595.193-.677.052l-7.151-12.279c-.082-.141.087-.393.379-.563l.07-.041C122.8,81.9,123.1,81.879,123.184,82.02Z" transform="translate(-10 -54.924)"/><path id="rect2513" class="cls-19" d="M115.311,80.307l7.151,12.279c.082.141-.087.393-.379.563l-.07.041c-.292.17-.595.193-.677.052l-7.151-12.279c-.082-.141.088-.393.379-.563l.07-.041C114.926,80.189,115.229,80.166,115.311,80.307Z" transform="translate(-10 -54.924)"/><path id="rect2515" class="cls-20" d="M102.145,81.311,109.3,93.589c.082.141-.088.393-.379.563l-.071.041c-.291.17-.594.193-.676.052l-7.152-12.279c-.082-.141.088-.393.379-.562l.071-.041C101.76,81.193,102.063,81.17,102.145,81.311Z" transform="translate(-10 -54.924)"/><path id="rect2517" class="cls-21" d="M95.577,81.837l7.151,12.279c.082.141-.087.393-.379.563l-.07.041c-.292.17-.595.193-.677.052L94.451,82.493c-.082-.141.088-.393.379-.563l.07-.041C95.192,81.72,95.5,81.7,95.577,81.837Z" transform="translate(-10 -54.924)"/><path id="rect2519" class="cls-22" d="M93.11,89.406l7.151,12.278c.082.141-.088.393-.379.563l-.07.041c-.292.17-.595.193-.677.052L91.984,90.061c-.082-.141.087-.393.379-.563l.07-.041C92.725,89.288,93.028,89.264,93.11,89.406Z" transform="translate(-10 -54.924)"/><path id="rect2521" class="cls-23" d="M84.519,98.264l7.151,12.279c.082.141-.087.393-.379.563l-.07.041c-.292.17-.595.193-.677.052L83.393,98.92c-.082-.141.087-.393.379-.563l.07-.041C84.134,98.146,84.437,98.123,84.519,98.264Z" transform="translate(-10 -54.924)"/><path id="rect2523" class="cls-24" d="M81.65,105.143,88.8,117.422c.083.141-.087.393-.379.563l-.07.041c-.291.17-.594.193-.677.052L80.524,105.8c-.082-.141.088-.393.379-.563l.071-.041C81.265,105.025,81.568,105,81.65,105.143Z" transform="translate(-10 -54.924)"/><path id="rect2525" class="cls-25" d="M75.729,106.78l5.712,9.809c.066.113-.117.342-.409.512l-.07.041c-.291.169-.581.216-.647.1L74.6,107.436c-.066-.113.117-.342.409-.511l.07-.041C75.373,106.714,75.663,106.668,75.729,106.78Z" transform="translate(-10 -54.924)"/><path id="rect2529" class="cls-26" d="M156.845,57.184,164,69.463c.082.141-.088.393-.379.563l-.071.041c-.291.17-.594.193-.676.052L155.719,57.84c-.083-.141.087-.393.379-.563l.07-.041C156.459,57.066,156.762,57.043,156.845,57.184Z" transform="translate(-10 -54.924)"/><path id="path19735" class="cls-27" d="M51.235,106.427a16.589,16.589,0,0,1,4.868.976c2.094.719,1.119.192,11.954,6.466,5.284,3.06,9.724,5.612,9.866,5.671s.563.232.933.385a14.261,14.261,0,0,0,6.744,1.288l.63-.079,3.14-1.83,3.139-1.83-.7-.021a18.212,18.212,0,0,1-5.152-1.123c-1.769-.654-.96-.21-11.53-6.332-8.586-4.973-9.666-5.589-10.173-5.8-3.071-1.288-5.566-1.8-7.4-1.512l-.59.092L53.89,104.6l-3.076,1.822Z" transform="translate(-10 -54.924)"/><path id="path19731" class="cls-28" d="M92.081,82.638a16.628,16.628,0,0,1,4.868.976c2.093.72,1.118.192,11.953,6.466,5.284,3.06,9.724,5.612,9.867,5.671l.933.385a14.259,14.259,0,0,0,6.743,1.288l.631-.079,3.139-1.83,3.14-1.83-.7-.021a18.211,18.211,0,0,1-5.153-1.123c-1.769-.654-.959-.209-11.529-6.331-8.586-4.974-9.667-5.59-10.173-5.8-3.072-1.288-5.566-1.8-7.4-1.512l-.59.093L94.736,80.81l-3.077,1.822Z" transform="translate(-10 -54.924)"/><path id="path19737" class="cls-29" d="M133.109,58.743a16.589,16.589,0,0,1,4.868.976c2.094.72,1.118.192,11.953,6.466,5.284,3.06,9.724,5.612,9.867,5.671l.933.385a14.259,14.259,0,0,0,6.743,1.288l.631-.079,3.139-1.83,3.14-1.83-.7-.021a18.2,18.2,0,0,1-5.152-1.123c-1.77-.654-.96-.209-11.53-6.331-8.586-4.974-9.666-5.59-10.173-5.8-3.071-1.288-5.566-1.8-7.4-1.512l-.59.093-3.076,1.821-3.077,1.822Z" transform="translate(-10 -54.924)"/><path id="path2572" class="cls-30" d="M129.5,70.266c-.378-3.251.312-8.041,2.013-10.549,1.863-2.747,6.585-.533,11.623,2.61-3.984-2.411-7.91-3.836-10.149-2.575S129.935,65.159,129.5,70.266Z" transform="translate(-10 -54.924)"/><path id="path2578" class="cls-30" d="M88.5,94.148c-.378-3.251.312-8.041,2.013-10.549,1.863-2.747,6.584-.533,11.622,2.61-3.983-2.412-7.909-3.836-10.148-2.575S88.93,89.041,88.5,94.148Z" transform="translate(-10 -54.924)"/><path id="path2582" class="cls-30" d="M136.427,82.208c.378,3.251-.312,8.041-2.013,10.549-1.863,2.747-6.584.533-11.622-2.61,3.983,2.411,7.909,3.836,10.148,2.575s3.052-5.407,3.487-10.514Z" transform="translate(-10 -54.924)"/><path id="path2586" class="cls-30" d="M95.463,105.932c.378,3.251-.312,8.041-2.013,10.549-1.863,2.747-6.584.533-11.622-2.61,3.983,2.412,7.909,3.837,10.148,2.575s3.052-5.407,3.487-10.514Z" transform="translate(-10 -54.924)"/><path id="path2588" class="cls-30" d="M61.353,110.025c-4.234-2.642-8.245-4.627-10.523-3.562l.529.907c2.262-1.116,6.1.3,9.994,2.655Z" transform="translate(-10 -54.924)"/><path id="path2592" class="cls-30" d="M173.936,68.842c-2.248,1.2-6.14-.215-10.089-2.606,4.294,2.679,8.358,4.682,10.618,3.514Z" transform="translate(-10 -54.924)"/><path id="rect1153" class="cls-31" d="M91.679,98.753l1.287,2.21a1.79,1.79,0,0,1-.5.354l-.07.041a1.828,1.828,0,0,1-.555.261l-1.287-2.21a1.771,1.771,0,0,1,.5-.354l.07-.041A1.761,1.761,0,0,1,91.679,98.753Z" transform="translate(-10 -54.924)"/><path id="rect1157" class="cls-32" d="M132.98,75.232l1.288,2.21a1.809,1.809,0,0,1-.5.354l-.071.041a1.829,1.829,0,0,1-.554.261l-1.288-2.211a1.823,1.823,0,0,1,.5-.353l.071-.041A1.762,1.762,0,0,1,132.98,75.232Z" transform="translate(-10 -54.924)"/><path id="path1226" class="cls-33" d="M10.421,130.236a16.623,16.623,0,0,1,4.869.975c2.093.72,1.118.192,11.953,6.467,5.284,3.06,9.724,5.611,9.867,5.67l.933.385a14.247,14.247,0,0,0,6.743,1.288l.631-.079,3.139-1.83,3.139-1.83-.7-.021a18.173,18.173,0,0,1-5.152-1.122c-1.769-.655-.96-.21-11.529-6.332-8.587-4.973-9.667-5.589-10.173-5.8-3.072-1.288-5.566-1.8-7.4-1.511l-.589.092-3.077,1.822L10,130.229Z" transform="translate(-10 -54.924)"/><path id="path1138" class="cls-9" d="M54.769,129.734c.378,3.25-.312,8.04-2.013,10.548-1.863,2.748-6.585.533-11.623-2.61,3.984,2.412,7.91,3.837,10.149,2.576s3.052-5.408,3.487-10.514Z" transform="translate(-10 -54.924)"/></g></svg>