<svg id="Layer_1" data-name="Layer 1" xmlns="http://www.w3.org/2000/svg" xmlns:xlink="http://www.w3.org/1999/xlink" viewBox="0 0 55.339 22.875"><defs><style>.cls-1{fill:url(#linear-gradient);}.cls-2{fill:#63a56a;}.cls-3{font-size:12px;fill:#fff;font-family:Arial-BoldMT, Arial;font-weight:700;}</style><linearGradient id="linear-gradient" x1="27.9" y1="21.267" x2="27.9" y2="1.267" gradientUnits="userSpaceOnUse"><stop offset="0" stop-color="#00439b"/><stop offset="1" stop-color="#63a56a"/></linearGradient></defs><title>UBE2E2</title><g id="UBE2E2"><rect class="cls-1" x="1.4" y="1.267" width="53" height="20" rx="10" ry="10"/><path class="cls-2" d="M116.5,110.15c-5.366-.009-10.731.43-16.1.837-5.366.458-10.731.546-16.1.613-.35,0-.639.019-1.038,0s-.779-.022-1.164-.084a11.821,11.821,0,0,1-2.274-.52,11.12,11.12,0,0,1-3.985-2.351A11.407,11.407,0,0,1,72.1,100.46a11.1,11.1,0,0,1,3.33-8.207A10.834,10.834,0,0,1,83.5,89.179c5.366.282,10.731.437,16.1.335,5.366-.084,10.731-.574,16.1-.762a17.539,17.539,0,0,1,2.166.032,10.068,10.068,0,0,1,2.226.474A10.729,10.729,0,0,1,124,91.536a10.585,10.585,0,0,1,3.437,8.023,10.808,10.808,0,0,1-3.459,7.621A10.988,10.988,0,0,1,116.5,110.15Zm0-.3a9.105,9.105,0,0,0,9.025-10.214,9.592,9.592,0,0,0-6.289-7.846,11.032,11.032,0,0,0-1.69-.413,14.913,14.913,0,0,0-1.851-.128c-5.366-.188-10.731-.678-16.1-.762-5.366-.1-10.731.053-16.1.335a9.086,9.086,0,0,0-6.33,3.1,8.872,8.872,0,0,0-2.233,6.425,8.584,8.584,0,0,0,2.988,5.951,8.984,8.984,0,0,0,2.924,1.664,8.621,8.621,0,0,0,1.642.367c.277.047.562.033.842.056s.653,0,.974.016c5.366.066,10.731.155,16.1.613C105.769,109.42,111.134,109.859,116.5,109.85Z" transform="translate(-72.1 -88.733)"/><text class="cls-3" transform="translate(4.557 14.58)">UBE2E2</text></g></svg>