<svg id="Layer_1" data-name="Layer 1" xmlns="http://www.w3.org/2000/svg" xmlns:xlink="http://www.w3.org/1999/xlink" viewBox="0 0 61.221 22.94"><defs><style>.cls-1{fill:url(#linear-gradient);}.cls-2{fill:#2e5400;}.cls-3{font-size:12px;fill:#fff;font-family:Arial-BoldMT, Arial;font-weight:700;}</style><linearGradient id="linear-gradient" x1="30.877" y1="1.333" x2="30.877" y2="21.333" gradientUnits="userSpaceOnUse"><stop offset="0" stop-color="#2e5400"/><stop offset="1" stop-color="#ffa000"/></linearGradient></defs><title>PEPSINS</title><g id="PEPSINS"><rect class="cls-1" x="1.377" y="1.333" width="59" height="20" rx="10" ry="10"/><path class="cls-2" d="M119.5,110.15c-5.866-.009-11.731.43-17.6.837-5.866.458-11.731.546-17.6.613-.733.016-1.466,0-2.2,0l-1.1,0-.557,0-.637-.032a11.132,11.132,0,0,1-4.854-1.422,11.556,11.556,0,0,1-5.665-7.983,11.2,11.2,0,0,1,2.576-9.287,11.005,11.005,0,0,1,8.63-3.7c5.866.282,11.731.437,17.6.335,5.866-.084,11.731-.574,17.6-.762l2.2-.058c.761-.014,1.4-.054,2.278,0A10.663,10.663,0,0,1,127.5,106.6,11.017,11.017,0,0,1,119.5,110.15Zm0-.3a9.174,9.174,0,0,0,8.876-11.56,9.51,9.51,0,0,0-4.73-5.9,9.2,9.2,0,0,0-3.632-1.031l-4.319-.115c-5.866-.188-11.731-.678-17.6-.762-5.866-.1-11.731.053-17.6.335a9.215,9.215,0,0,0-6.775,3.588,8.911,8.911,0,0,0-1.647,7.213,8.713,8.713,0,0,0,4.391,5.775,8.806,8.806,0,0,0,3.534.976l.461.024h.543l1.1,0c.733,0,1.466-.012,2.2,0,5.866.066,11.731.155,17.6.613C107.769,109.42,113.634,109.859,119.5,109.85Z" transform="translate(-69.123 -88.667)"/><text class="cls-3" transform="translate(4.867 14.646)">PEPSINS</text></g></svg>