<svg id="Layer_1" data-name="Layer 1" xmlns="http://www.w3.org/2000/svg" xmlns:xlink="http://www.w3.org/1999/xlink" viewBox="0 0 189.372 129.223"><defs><style>.cls-1{stroke:#0f6848;stroke-linecap:round;stroke-linejoin:round;stroke-width:4px;fill:url(#radial-gradient);}.cls-2{fill:url(#radial-gradient-2);}.cls-3{fill:url(#radial-gradient-3);}.cls-4{fill:#cca22b;stroke:#af7e05;stroke-miterlimit:10;stroke-width:2px;}</style><radialGradient id="radial-gradient" cx="189.573" cy="82.538" r="162" gradientUnits="userSpaceOnUse"><stop offset="0" stop-color="#1da075"/><stop offset="0.137" stop-color="#3ba471"/><stop offset="0.432" stop-color="#88af67"/><stop offset="0.718" stop-color="#d8ba5d"/></radialGradient><radialGradient id="radial-gradient-2" cx="-44.851" cy="978.184" r="62.445" gradientTransform="translate(159.021 -933.277)" gradientUnits="userSpaceOnUse"><stop offset="0" stop-color="#d8ba5d"/><stop offset="0.409" stop-color="#d8ba5d" stop-opacity="0"/></radialGradient><radialGradient id="radial-gradient-3" cx="142.866" cy="78.735" r="30.43" gradientTransform="translate(190.642 180.304) rotate(180)" gradientUnits="userSpaceOnUse"><stop offset="0" stop-color="#fff7e0"/><stop offset="0.003" stop-color="#fff7df"/><stop offset="0.234" stop-color="#eddeb2"/><stop offset="1" stop-color="#ccb060" stop-opacity="0"/></radialGradient></defs><title>R-ICO-013653</title><g id="Autolysosome"><path id="BG" class="cls-1" d="M130.575,37.389A62.611,62.611,0,0,0,67.964,100q0,.787.02,1.57a30.363,30.363,0,1,0,2.823,17.135,62.618,62.618,0,1,0,59.768-81.316Z" transform="translate(-5.814 -35.389)"/><circle id="R-ICO-012966" class="cls-2" cx="124.761" cy="64.611" r="62.611"/><g id="Autophagosome"><circle class="cls-3" cx="40.616" cy="114.866" r="30.429" transform="translate(-86.599 69.196) rotate(-65.686)"/><path class="cls-4" d="M40.6,148.687a33.813,33.813,0,1,1,30.418-48.6,3.374,3.374,0,1,1-6.071,2.946,26.973,26.973,0,1,0,2.506,15.306,3.374,3.374,0,1,1,6.692.869A33.881,33.881,0,0,1,40.6,148.687Z" transform="translate(-5.814 -35.389)"/></g></g></svg>