<svg id="Layer_1" data-name="Layer 1" xmlns="http://www.w3.org/2000/svg" xmlns:xlink="http://www.w3.org/1999/xlink" viewBox="0 0 54.434 22.941"><defs><style>.cls-1{fill:url(#linear-gradient);}.cls-2{fill:#4d74ff;}.cls-3{font-size:12px;fill:#fff;font-family:Arial-BoldMT, Arial;font-weight:700;}</style><linearGradient id="linear-gradient" x1="98.011" y1="108.67" x2="98.011" y2="88.67" gradientTransform="translate(-70.564 -87.373)" gradientUnits="userSpaceOnUse"><stop offset="0" stop-color="#d8d369"/><stop offset="0.691" stop-color="#758fd4"/><stop offset="1" stop-color="#4d74ff"/></linearGradient></defs><title>CALM1</title><g id="CALM1"><rect class="cls-1" x="1.446" y="1.297" width="52" height="20" rx="10" ry="10"/><path class="cls-2" d="M116,110.154c-5.282-.009-10.565.441-15.847.858-5.282.469-10.565.56-15.847.628A11.523,11.523,0,0,1,76,108.378a11.406,11.406,0,0,1-3.443-8.2,11.139,11.139,0,0,1,3.452-8.047A10.866,10.866,0,0,1,84,89.158c5.282.289,10.565.448,15.847.343,5.282-.086,10.565-.588,15.847-.781a10.865,10.865,0,0,1,8.141,3.078,10.552,10.552,0,0,1,3.137,8.035,10.853,10.853,0,0,1-3.577,7.45A11.061,11.061,0,0,1,116,110.154Zm0-.308a9.021,9.021,0,0,0,6.833-3.117,9.113,9.113,0,0,0,2.18-6.867,9.534,9.534,0,0,0-9.319-8.582c-5.282-.193-10.565-.695-15.847-.781-5.282-.1-10.565.055-15.847.343a9.083,9.083,0,0,0-6.235,3.018,8.872,8.872,0,0,0-2.3,6.27,8.515,8.515,0,0,0,2.756,5.925,8.645,8.645,0,0,0,6.089,2.3c5.282.068,10.565.159,15.847.628C105.435,109.406,110.718,109.855,116,109.846Z" transform="translate(-72.554 -88.703)"/><text class="cls-3" transform="translate(6.78 14.731)">CALM1</text></g></svg>