<svg id="Layer_1" data-name="Layer 1" xmlns="http://www.w3.org/2000/svg" xmlns:xlink="http://www.w3.org/1999/xlink" viewBox="0 0 29.686 163.326"><defs><style>.cls-1{fill:url(#linear-gradient);}.cls-2{fill:url(#radial-gradient);}.cls-3{fill:url(#radial-gradient-2);}.cls-4{fill:url(#radial-gradient-3);}.cls-5{fill:url(#radial-gradient-4);}.cls-6{fill:url(#radial-gradient-5);}</style><linearGradient id="linear-gradient" x1="92.021" y1="135.545" x2="104.137" y2="135.545" gradientUnits="userSpaceOnUse"><stop offset="0" stop-color="#c4ac41"/><stop offset="0.101" stop-color="#e2cc67"/><stop offset="0.189" stop-color="#f7e280"/><stop offset="0.241" stop-color="#ffea8a"/><stop offset="0.446" stop-color="#dbc45d"/><stop offset="0.596" stop-color="#c4ac41"/><stop offset="1" stop-color="#4d410a"/></linearGradient><radialGradient id="radial-gradient" cx="-97.452" cy="618.852" r="17.715" gradientTransform="translate(-526.068 18.81) rotate(-90) scale(0.609 1)" gradientUnits="userSpaceOnUse"><stop offset="0" stop-color="#ffea8a"/><stop offset="0.041" stop-color="#f5e07e"/><stop offset="0.175" stop-color="#dbc45d"/><stop offset="0.285" stop-color="#cab248"/><stop offset="0.359" stop-color="#c4ac41"/><stop offset="1" stop-color="#4d410a"/></radialGradient><radialGradient id="radial-gradient-2" cx="-153.528" cy="619.114" r="17.715" gradientTransform="translate(-526.068 -93.762) rotate(-90) scale(1.219 1)" xlink:href="#radial-gradient"/><radialGradient id="radial-gradient-3" cx="-41.206" cy="618.852" r="17.715" xlink:href="#radial-gradient"/><radialGradient id="radial-gradient-4" cx="-125.405" cy="619.114" r="17.715" gradientTransform="translate(-526.068 -93.762) rotate(-90) scale(1.219 1)" xlink:href="#radial-gradient"/><radialGradient id="radial-gradient-5" cx="-97.4" cy="619.114" r="17.715" gradientTransform="translate(-526.068 -93.762) rotate(-90) scale(1.219 1)" xlink:href="#radial-gradient"/></defs><title>IL1RAPL1</title><g id="IL1RAPL1"><path class="cls-1" d="M98.142,180.3a6,6,0,0,1-6-6v-77.5a6,6,0,1,1,12,0v77.5A6,6,0,0,1,98.142,180.3Z" transform="translate(-83.299 -16.97)"/><path class="cls-2" d="M112.984,79.658c0,3.155-4.2,5.712-9.374,5.712H92.673c-5.177,0-9.374-2.557-9.374-5.712s4.2-5.712,9.374-5.712H103.61C108.787,73.946,112.984,76.5,112.984,79.658Z" transform="translate(-83.299 -16.97)"/><path class="cls-3" d="M112.984,96.794c0,6.31-4.2,11.424-9.374,11.424H92.673c-5.177,0-9.374-5.114-9.374-11.424S87.5,85.37,92.673,85.37H103.61C108.787,85.37,112.984,90.484,112.984,96.794Z" transform="translate(-83.299 -16.97)"/><path class="cls-4" d="M112.984,45.386c0,3.155-4.2,5.712-9.374,5.712H92.673c-5.177,0-9.374-2.557-9.374-5.712s4.2-5.712,9.374-5.712H103.61C108.787,39.674,112.984,42.231,112.984,45.386Z" transform="translate(-83.299 -16.97)"/><path class="cls-5" d="M112.984,62.522c0,6.31-4.2,11.424-9.374,11.424H92.673c-5.177,0-9.374-5.114-9.374-11.424S87.5,51.1,92.673,51.1H103.61C108.787,51.1,112.984,56.212,112.984,62.522Z" transform="translate(-83.299 -16.97)"/><path class="cls-6" d="M112.984,28.394c0,6.31-4.2,11.424-9.374,11.424H92.673C87.5,39.818,83.3,34.7,83.3,28.394S87.5,16.97,92.673,16.97H103.61C108.787,16.97,112.984,22.084,112.984,28.394Z" transform="translate(-83.299 -16.97)"/></g></svg>