<svg id="Layer_1" data-name="Layer 1" xmlns="http://www.w3.org/2000/svg" xmlns:xlink="http://www.w3.org/1999/xlink" viewBox="0 0 69 176.373"><defs><style>.cls-1{fill:url(#radial-gradient);}.cls-2{fill:url(#linear-gradient);}.cls-3{fill:#211c82;}.cls-4{fill:url(#radial-gradient-2);}.cls-5{fill:url(#linear-gradient-2);}</style><radialGradient id="radial-gradient" cx="96.569" cy="280.064" r="38.82" gradientTransform="translate(6.295 -245.677)" gradientUnits="userSpaceOnUse"><stop offset="0.744" stop-color="#2d2885"/><stop offset="1" stop-color="#db9393"/></radialGradient><linearGradient id="linear-gradient" x1="88.966" y1="369.112" x2="78.887" y2="369.112" gradientTransform="translate(6.295 -245.677)" gradientUnits="userSpaceOnUse"><stop offset="0" stop-color="#2d2885"/><stop offset="1" stop-color="#db9393"/></linearGradient><radialGradient id="radial-gradient-2" cx="87.763" cy="280.031" r="38.891" gradientTransform="translate(6.295 -245.677)" gradientUnits="userSpaceOnUse"><stop offset="0.698" stop-color="#db9393"/><stop offset="1" stop-color="#2d2885"/></radialGradient><linearGradient id="linear-gradient-2" x1="104.966" y1="369.112" x2="94.887" y2="369.112" xlink:href="#linear-gradient"/></defs><title>IL7R</title><g id="IL7R"><path class="cls-1" d="M90.288,186.668a5,5,0,0,1-5-5V68.345a34.118,34.118,0,0,1-11.042-7.381,34,34,0,0,1,0-48.083,5,5,0,0,1,7.071,7.071A24.01,24.01,0,0,0,91.45,59.934l.26.077A5,5,0,0,1,95.288,64.8V181.668A5,5,0,0,1,90.288,186.668Z" transform="translate(-63.788 -10.92)"/><path class="cls-2" d="M90.288,186.668a4.938,4.938,0,0,1-5-4.875V65.078a5,5,0,0,1,10,0V181.793A4.938,4.938,0,0,1,90.288,186.668Z" transform="translate(-63.788 -10.92)"/><path class="cls-3" d="M90.288,187.293a5.507,5.507,0,0,1-5.5-5.5V68.677a34.505,34.505,0,0,1-10.9-56.15,5.5,5.5,0,0,1,7.778,7.778,23.51,23.51,0,0,0,9.921,39.148l.26.077A5.533,5.533,0,0,1,95.788,64.8V181.793A5.507,5.507,0,0,1,90.288,187.293ZM77.782,11.92A4.489,4.489,0,0,0,74.6,13.234a33.5,33.5,0,0,0,0,47.375A33.851,33.851,0,0,0,85.48,67.883l.309.128V181.793a4.5,4.5,0,0,0,9,0V64.8a4.526,4.526,0,0,0-3.22-4.314l-.26-.077A24.5,24.5,0,0,1,80.964,19.6a4.5,4.5,0,0,0-3.182-7.679Z" transform="translate(-63.788 -10.92)"/><path class="cls-4" d="M106.288,186.668a5,5,0,0,0,5-5V68.345a34.118,34.118,0,0,0,11.042-7.381,34,34,0,0,0,0-48.083,5,5,0,0,0-7.071,7.071,24.01,24.01,0,0,1-10.132,39.981l-.26.077a5,5,0,0,0-3.578,4.793V181.668A5,5,0,0,0,106.288,186.668Z" transform="translate(-63.788 -10.92)"/><path class="cls-5" d="M106.288,186.668a4.938,4.938,0,0,1-5-4.875V65.078a5,5,0,0,1,10,0V181.793A4.938,4.938,0,0,1,106.288,186.668Z" transform="translate(-63.788 -10.92)"/><path class="cls-3" d="M106.288,187.168a5.507,5.507,0,0,1-5.5-5.5V64.8a5.533,5.533,0,0,1,3.936-5.273l.259-.077A23.5,23.5,0,0,0,114.9,20.306a5.5,5.5,0,1,1,7.778-7.778,34.513,34.513,0,0,1-10.9,56.15V181.668A5.507,5.507,0,0,1,106.288,187.168ZM118.794,11.92a4.5,4.5,0,0,0-3.182,7.679,24.51,24.51,0,0,1-10.344,40.814l-.259.077a4.526,4.526,0,0,0-3.221,4.314V181.668a4.5,4.5,0,0,0,9,0V68.011l.309-.128a33.851,33.851,0,0,0,10.879-7.273,33.5,33.5,0,0,0,0-47.375A4.489,4.489,0,0,0,118.794,11.92Z" transform="translate(-63.788 -10.92)"/></g></svg>