<svg id="Layer_1" data-name="Layer 1" xmlns="http://www.w3.org/2000/svg" xmlns:xlink="http://www.w3.org/1999/xlink" viewBox="0 0 73.332 150"><defs><style>.cls-1{fill:url(#linear-gradient);}.cls-2{fill:url(#linear-gradient-2);}.cls-3{fill:url(#linear-gradient-3);}.cls-4{fill:url(#linear-gradient-4);}.cls-5{fill:url(#linear-gradient-5);}.cls-6{fill:url(#linear-gradient-6);}.cls-7{fill:url(#linear-gradient-7);}.cls-8{fill:url(#linear-gradient-8);}.cls-9{fill:url(#linear-gradient-9);}.cls-10{fill:url(#linear-gradient-10);}</style><linearGradient id="linear-gradient" x1="63.334" y1="84.256" x2="75.556" y2="84.256" gradientTransform="matrix(1, 0, 0, -1, 0, 202)" gradientUnits="userSpaceOnUse"><stop offset="0" stop-color="#ff91ff"/><stop offset="1" stop-color="#0a6bda"/></linearGradient><linearGradient id="linear-gradient-2" x1="75.557" y1="84.256" x2="87.779" y2="84.256" gradientTransform="matrix(1, 0, 0, -1, 0, 202)" gradientUnits="userSpaceOnUse"><stop offset="0" stop-color="#09bf6d"/><stop offset="1" stop-color="#09586d"/></linearGradient><linearGradient id="linear-gradient-3" x1="112.222" y1="84.256" x2="124.444" y2="84.256" gradientTransform="matrix(1, 0, 0, -1, 0, 202)" gradientUnits="userSpaceOnUse"><stop offset="0" stop-color="#ff9191"/><stop offset="1" stop-color="#0a6bda"/></linearGradient><linearGradient id="linear-gradient-4" x1="124.444" y1="84.256" x2="136.666" y2="84.256" xlink:href="#linear-gradient-2"/><linearGradient id="linear-gradient-5" x1="87.779" y1="55.06" x2="100" y2="55.06" gradientTransform="matrix(1, 0, 0, -1, 0, 202)" gradientUnits="userSpaceOnUse"><stop offset="0" stop-color="#91a9ff"/><stop offset="1" stop-color="#0a6bda"/></linearGradient><linearGradient id="linear-gradient-6" x1="100" y1="55.06" x2="112.222" y2="55.06" xlink:href="#linear-gradient-5"/><linearGradient id="linear-gradient-7" x1="818.927" y1="-147.739" x2="818.927" y2="-193.763" gradientTransform="matrix(1, 0, 0, -1, -725.436, -74.663)" gradientUnits="userSpaceOnUse"><stop offset="0.002" stop-color="#7000bf"/><stop offset="0.206" stop-color="#95219f"/><stop offset="0.427" stop-color="#b73e84"/><stop offset="0.639" stop-color="#cf536f"/><stop offset="0.835" stop-color="#dd6063"/><stop offset="1" stop-color="#e2645f"/></linearGradient><linearGradient id="linear-gradient-8" x1="831.948" y1="-147.739" x2="831.948" y2="-193.762" xlink:href="#linear-gradient-7"/><linearGradient id="linear-gradient-9" x1="93.489" y1="-363.723" x2="93.489" y2="-409.75" gradientTransform="matrix(-1, 0, 0, 1, 200, 434.529)" gradientUnits="userSpaceOnUse"><stop offset="0.002" stop-color="#c6ba00"/><stop offset="1" stop-color="#003a3c"/></linearGradient><linearGradient id="linear-gradient-10" x1="106.511" y1="72.806" x2="106.511" y2="26.779" gradientTransform="matrix(-1, 0, 0, 1, 200, -2)" xlink:href="#linear-gradient-9"/></defs><title>R-ICO-013961</title><g id="R-ICO-013961"><g id="R-ICO-013959"><path id="CD3_Gamma_chain" class="cls-1" d="M69.445,145.8c-3.375,0-6.111-2.112-6.111-5.67V95.354c0-3.548,2.736-5.67,6.111-5.67s6.11,2.122,6.111,5.67v44.78C75.556,143.692,72.82,145.8,69.445,145.8Z" transform="translate(-63.334 -25)"/><path id="CD3_Epsilon_chain" class="cls-2" d="M81.668,145.8c-3.375,0-6.111-2.112-6.111-5.67V95.354c0-3.548,2.736-5.67,6.111-5.67s6.111,2.122,6.111,5.67v44.78C87.779,143.692,85.043,145.8,81.668,145.8Z" transform="translate(-63.334 -25)"/><path id="CD3_Delta_chain" class="cls-3" d="M118.333,145.8c-3.375,0-6.111-2.112-6.111-5.67V95.354c0-3.548,2.736-5.67,6.111-5.67s6.111,2.122,6.111,5.67v44.78C124.444,143.692,121.708,145.8,118.333,145.8Z" transform="translate(-63.334 -25)"/><path id="CD3_Epsilon_chain-2" data-name="CD3_Epsilon_chain" class="cls-4" d="M130.555,145.8c-3.375,0-6.111-2.112-6.111-5.67V95.354c0-3.548,2.736-5.67,6.111-5.67s6.111,2.122,6.111,5.67v44.78C136.666,143.692,133.931,145.8,130.555,145.8Z" transform="translate(-63.334 -25)"/><path id="CD3_Zeta_chain" class="cls-5" d="M93.889,175c-3.375,0-6.11-2.112-6.11-5.671V124.55c0-3.549,2.736-5.671,6.11-5.671S100,121,100,124.55v44.779C100,172.888,97.264,175,93.889,175Z" transform="translate(-63.334 -25)"/><path id="CD3_Zeta_chain-2" data-name="CD3_Zeta_chain" class="cls-6" d="M106.111,175c-3.375,0-6.111-2.112-6.111-5.671V124.55c0-3.549,2.736-5.671,6.111-5.671s6.111,2.122,6.111,5.671v44.779C112.222,172.888,109.486,175,106.111,175Z" transform="translate(-63.334 -25)"/></g><g id="R-ICO-013967"><path id="Beta" class="cls-7" d="M88.723,72.856h0a.945.945,0,0,0-.945.944v44.132a.944.944,0,0,0,.944.944l9.536,0a.943.943,0,0,0,.944-.944V82.271a.947.947,0,0,0-.823-.935,10.1,10.1,0,0,1-8.729-7.7A.95.95,0,0,0,88.723,72.856Z" transform="translate(-63.334 -25)"/><path id="Alpha" class="cls-8" d="M100.8,82.271v35.664a.945.945,0,0,0,.945.944l9.533,0a.944.944,0,0,0,.944-.944V73.8a.944.944,0,0,0-.944-.944h0a.949.949,0,0,0-.927.776,10.1,10.1,0,0,1-8.727,7.7A.948.948,0,0,0,100.8,82.271Z" transform="translate(-63.334 -25)"/></g><g id="R-ICO-013960"><path class="cls-9" d="M111.278,25l-9.535,0a.944.944,0,0,0-.944.944V61.612a.946.946,0,0,0,.823.934,10.1,10.1,0,0,1,8.729,7.705.949.949,0,0,0,.927.776h0a.944.944,0,0,0,.944-.944V25.944A.944.944,0,0,0,111.278,25Z" transform="translate(-63.334 -25)"/><path class="cls-10" d="M99.2,61.612V25.947A.944.944,0,0,0,98.257,25l-9.534,0a.945.945,0,0,0-.945.944V70.083a.945.945,0,0,0,.945.944h0a.95.95,0,0,0,.927-.776,10.1,10.1,0,0,1,8.727-7.7A.948.948,0,0,0,99.2,61.612Z" transform="translate(-63.334 -25)"/></g></g></svg>