<svg id="Layer_1" data-name="Layer 1" xmlns="http://www.w3.org/2000/svg" viewBox="0 0 61.502 26.575"><defs><style>.cls-1{fill:#e0a734;}.cls-2{fill:#997d0b;}</style></defs><title>aggregated_protein</title><g id="AGGREGATED_PROTEIN"><path class="cls-1" d="M117.076,107.586c-1.166,0-1.166,5-2.332,5s-1.165-2.1-2.329-2.1-1.166.613-2.332.613-1.165-1.034-2.331-1.034-1.167-1.5-2.333-1.5-1.166,2.957-2.332,2.957-1.166.715-2.333.715-1.166-.6-2.333-.6-1.164-.563-2.329-.563-1.166.944-2.332.944-1.167-3.727-2.335-3.727-1.168.465-2.335.465-1.168,1.22-2.336,1.22-1.17-.909-2.339-.909-1.17-1.52-2.339-1.52c-.764,0-1.732,3.283-2.447,3.119-.737-.169-.3-3.285-.97-3.608a6.377,6.377,0,0,1-1.539-.892c-.584-.467-2.434.629-2.9.045a10.5,10.5,0,0,1-1.4-1.808,10.753,10.753,0,0,1-.977-2.122c-.164-.716-.8-1.572-.8-2.336h1.2c0-.764-1.692-1.879-1.528-2.595.169-.737,1.168-1.495,1.491-2.161s2.745.029,3.211-.553S73.82,90.8,74.4,90.333a15.172,15.172,0,0,1,2.339-1.445c.666-.323,2.916,3.859,3.654,3.69.716-.164.915-2.262,1.679-2.262,1.166,0,1.166-1.9,2.332-1.9s1.165-.561,2.329-.561,1.166,4.065,2.332,4.065S90.235,87.26,91.4,87.26s1.167,4.447,2.333,4.447,1.166-1.28,2.332-1.28,1.166-2.918,2.333-2.918,1.166,5.038,2.333,5.038,1.164-.572,2.329-.572,1.166-3.01,2.332-3.01,1.167-.44,2.335-.44,1.168,2.108,2.335,2.108,1.168,1.577,2.336,1.577,1.17-.164,2.339-.164,1.17-1.945,2.339-1.945a9.492,9.492,0,0,1,2.167.351c.737.169,2.648-2.192,3.314-1.869s.073,3.206.655,3.672,1.792.416,2.26,1-.332,1.982,0,2.658,3.923.449,4.092,1.186c.164.716-2.913,2.088-2.913,2.851h1.96c0,.764.722,2.045.558,2.761-.169.737-2.388,1.088-2.711,1.755a11.057,11.057,0,0,1-1.162,2.036c-.467.584-3.065-1.286-3.649-.819s1.52,5.159.844,5.487-2.746-2.942-3.484-2.773C118.285,108.56,117.84,107.586,117.076,107.586Z" transform="translate(-69.249 -86.713)"/><path class="cls-2" d="M130.671,96.669a1.826,1.826,0,0,0-.258-.46,1.552,1.552,0,0,0-.242-.231,2.107,2.107,0,0,0-.244-.172l-.173-.086a2.128,2.128,0,0,0-.319-.129,11.274,11.274,0,0,0-1.8-.375c-.3-.049-.617-.1-.882-.148.046-.229.112-.5.159-.857a3.39,3.39,0,0,0,.022-.672,2.09,2.09,0,0,0-.363-1.029,2.664,2.664,0,0,0-1.284-.923c-.354-.129-.639-.2-.868-.264-.048-.013-.092-.026-.134-.039-.029-.332-.025-.8-.037-1.278a8.6,8.6,0,0,0-.069-.967,3.249,3.249,0,0,0-.188-.705,2.283,2.283,0,0,0-.321-.532,1.708,1.708,0,0,0-1.306-.575,2.76,2.76,0,0,0-.328.041,2.064,2.064,0,0,0-.456.146,3.3,3.3,0,0,0-.545.307,9.216,9.216,0,0,0-.739.565c-.409.34-.817.695-1.086.867l-.676-.139a8.042,8.042,0,0,0-.935-.122c-.164-.008-.331-.013-.5-.009a2.32,2.32,0,0,0-.88.192,2.524,2.524,0,0,0-1.068.982c-.189.3-.307.539-.408.7s-.093.167-.1.182l-.343.018a8.224,8.224,0,0,0-.9.114,6.016,6.016,0,0,1-.688.091l-.346.027c0,.014-.089-.03-.229-.2a7.19,7.19,0,0,0-.615-.706,2.075,2.075,0,0,0-1.306-.572l-.149-.008h-.021a1.838,1.838,0,0,1-.326-.434,8.57,8.57,0,0,0-.493-.759,1.937,1.937,0,0,0-1.135-.761,3.2,3.2,0,0,0-.378-.034l-.24.013a3.938,3.938,0,0,0-.5.074,4.92,4.92,0,0,0-.86.3,1.918,1.918,0,0,1-.576.131l-.2.015a1.881,1.881,0,0,0-.417.089,2.237,2.237,0,0,0-.349.2c-.086.076-.169.155-.248.237a5.5,5.5,0,0,0-.778,1.666,2.334,2.334,0,0,1-.476.942c-.012-.007.007,0-.027.009l-.238.013a2.959,2.959,0,0,0-.495.086,4.156,4.156,0,0,0-.829.354A1.607,1.607,0,0,1,100.9,92l-.128.007a.214.214,0,0,1-.073-.09,4.962,4.962,0,0,1-.5-1.331l-.387-1.563c-.074-.267-.151-.536-.253-.811a2.436,2.436,0,0,0-.5-.865,1.171,1.171,0,0,0-.278-.208,1.356,1.356,0,0,0-.409-.094,1.223,1.223,0,0,0-.632.212,2.151,2.151,0,0,0-.617.809c-.254.532-.417,1.041-.638,1.462a1.028,1.028,0,0,1-.329.4c-.02.012-.039.027-.059.02a.488.488,0,0,1-.136.016,1.607,1.607,0,0,0-.535.11c-.732.308-.991.919-1.294,1.048a.622.622,0,0,1-.225.084.516.516,0,0,1-.167.006.74.74,0,0,1-.22-.328c-.374-.863-.488-1.958-.9-3.053a2.015,2.015,0,0,0-.6-.9.973.973,0,0,0-.795-.206,1.144,1.144,0,0,0-.662.39,4.941,4.941,0,0,0-.758,1.685c-.158.528-.291,1.046-.447,1.528a4.95,4.95,0,0,1-.256.657c-.007.018-.016.03-.024.046a2.958,2.958,0,0,1-.172-.433c-.147-.456-.263-.975-.414-1.516a7,7,0,0,0-.287-.855,2.062,2.062,0,0,0-.789-1.025A1.608,1.608,0,0,0,86.576,87a3.308,3.308,0,0,0-.535.047,4.012,4.012,0,0,0-.956.325,1.223,1.223,0,0,1-.478.108,1.29,1.29,0,0,1-.137,0h-.088l-.2.013a1.76,1.76,0,0,0-.76.249,2.8,2.8,0,0,0-.859.865c-.175.257-.307.471-.415.595a.672.672,0,0,1-.074.076h0c-.049.042-.057.027-.019.009.01,0,.009-.009.013-.009l-.023,0-.176.017a1.393,1.393,0,0,0-.335.083,1.8,1.8,0,0,0-.758.594,4.908,4.908,0,0,0-.52.907l-.034.071c-.19-.245-.384-.506-.579-.777-.311-.432-.621-.876-.992-1.341a5.46,5.46,0,0,0-.714-.758,2.3,2.3,0,0,0-.359-.245,1.591,1.591,0,0,0-.852-.2,1.746,1.746,0,0,0-.561.153l-.1.049-.2.1c-.524.266-1.011.543-1.5.853-.247.157-.492.319-.756.52a1.777,1.777,0,0,0-.551.865,1.988,1.988,0,0,0-.057.586,3.459,3.459,0,0,0,.1.666,15.224,15.224,0,0,0,.576,1.68c.049.125.1.253.146.38a8.119,8.119,0,0,0-1.189.017c-.1.01-.238.038-.354.061a3.067,3.067,0,0,0-.46.155,2.538,2.538,0,0,0-.314.188,1.382,1.382,0,0,0-.314.284,2.309,2.309,0,0,0-.265.387l-.01.014a3.8,3.8,0,0,1-.33.412,5.714,5.714,0,0,0-1.207,1.755,2.039,2.039,0,0,0-.121.564,2,2,0,0,0,.067.694,2.884,2.884,0,0,0,.348.761c.062.1.118.167.177.247a1.471,1.471,0,0,0-.317.929,4.139,4.139,0,0,0,.364,1.586c.16.383.311.69.392.911l.044.133.046.19a5.413,5.413,0,0,0,.23.689,11.885,11.885,0,0,0,.517,1.072c.19.337.215.463.523,1a7.95,7.95,0,0,0,.773,1.029l.335.389.142.171.064.079c-.013-.014.061.074.143.156a2.486,2.486,0,0,0,.244.214,2.33,2.33,0,0,0,1.529.416,5.222,5.222,0,0,0,.752-.109c.36-.077.646-.151.854-.19a6.587,6.587,0,0,0,.963.573c.014.11.029.233.038.353l.091,1.057c.024.2.047.407.1.659a3.177,3.177,0,0,0,.365,1,2.731,2.731,0,0,0,.347.43,2.009,2.009,0,0,0,.666.411,1.793,1.793,0,0,0,.9.091,1.67,1.67,0,0,0,.65-.217,2.645,2.645,0,0,0,.9-.843,14.173,14.173,0,0,0,.864-1.522,3.055,3.055,0,0,0,.7.579,2.626,2.626,0,0,0,1.178.35l.183.01h.03a.148.148,0,0,0,.028,0,4.806,4.806,0,0,0,1.187.7,3.164,3.164,0,0,0,.969.171,2.886,2.886,0,0,0,1.051-.158,3.4,3.4,0,0,0,1.382-1,1.362,1.362,0,0,0,.1-.106c.111,0,.221-.008.342-.022a3.912,3.912,0,0,0,.793-.156,6.05,6.05,0,0,0,.587-.225c.047-.02.079-.032.109-.043.013.032.028.062.039.1l.334.912a9.144,9.144,0,0,0,.465,1.127,2.882,2.882,0,0,0,.2.343l.119.178.184.211a2.009,2.009,0,0,0,.208.2,2.94,2.94,0,0,0,.317.21,1.861,1.861,0,0,0,.811.228,2.748,2.748,0,0,0,.929-.136,2.778,2.778,0,0,0,.812-.425l.525-.433a.377.377,0,0,1,.137-.041,1.8,1.8,0,0,1,.291,0,2.552,2.552,0,0,1,.768.26,3.542,3.542,0,0,0,1.367.181,1.082,1.082,0,0,1,.583.114,3.424,3.424,0,0,0,1.347.365,3.09,3.09,0,0,0,1.44-.255c.493-.247.689-.45.83-.5a.906.906,0,0,1,.283-.074l.087-.01a2.743,2.743,0,0,0,.276-.04,1.389,1.389,0,0,0,.515-.216,2.471,2.471,0,0,0,.839-1.2l.349-.985a3.025,3.025,0,0,1,.322-.657c.029-.038.043-.058.08-.067a.388.388,0,0,1,.2.037,1.721,1.721,0,0,1,.572.525,2.1,2.1,0,0,0,1.092.765,1.505,1.505,0,0,0,.364.044l.219,0a1.032,1.032,0,0,1,.331.082c.212.09.439.34.8.575a1.93,1.93,0,0,0,1.234.257,2.586,2.586,0,0,0,1.113-.367,1.922,1.922,0,0,1,.842-.3.7.7,0,0,1,.693.228c.421.418.57,1.2,1.313,1.658a.922.922,0,0,0,.648.086.554.554,0,0,0,.309-.173.81.81,0,0,0,.2-.239,3.819,3.819,0,0,0,.4-1.009c.188-.675.316-1.352.479-2.014a7.693,7.693,0,0,1,.291-.965c.111-.3.3-.613.516-.631.448,0,.787.425,1.272.7a1.047,1.047,0,0,0,.43.135.874.874,0,0,0,.236-.013.7.7,0,0,1,.113.01,1.91,1.91,0,0,1,.564.4c.741.695,1.337,1.528,2.189,2.226a1.173,1.173,0,0,0,.441.2c.12-.015.238.009.357-.106a.54.54,0,0,0,.151-.291,2.625,2.625,0,0,0-.04-.856c-.091-.526-.224-1.028-.353-1.53s-.269-1-.375-1.492c-.052-.247-.1-.495-.129-.732a2.338,2.338,0,0,1-.02-.335.21.21,0,0,1,0-.05,1.058,1.058,0,0,1,.336.08c.216.078.44.173.669.282.461.212.914.454,1.466.65a2.1,2.1,0,0,0,.485.115.953.953,0,0,0,.345-.01.822.822,0,0,0,.45-.23,5.137,5.137,0,0,0,.551-.709c.307-.461.562-.934.809-1.386a1.138,1.138,0,0,1,.3-.176c.193-.088.424-.174.661-.264s.493-.182.761-.3a2.586,2.586,0,0,0,.909-.609,1.47,1.47,0,0,0,.345-.795,2.621,2.621,0,0,0-.007-.583,6.47,6.47,0,0,0-.181-.886,5.385,5.385,0,0,1-.261-1.238l.008-.08a.812.812,0,0,0-.358-.7c.184-.126.368-.253.569-.409a4.147,4.147,0,0,0,.407-.361,2.087,2.087,0,0,0,.5-.771A1.526,1.526,0,0,0,130.671,96.669Zm-3.26,6.338c-.236.115-.481.23-.744.384a3.4,3.4,0,0,0-.418.291,2.372,2.372,0,0,0-.23.232,1.676,1.676,0,0,0-.185.309c-.2.476-.4.934-.623,1.357a5.521,5.521,0,0,1-.3.494,1.211,1.211,0,0,1-.24-.037,14.132,14.132,0,0,1-1.408-.495,8.163,8.163,0,0,0-.781-.256,2.536,2.536,0,0,0-.466-.076.868.868,0,0,0-.672.221.857.857,0,0,0-.18.645,3.053,3.053,0,0,0,.06.434c.055.272.127.527.2.78l.462,1.488c.153.49.308.98.418,1.467a2.335,2.335,0,0,1,.077.68.316.316,0,0,0-.011.047l0,0a.86.86,0,0,1-.257-.116c-.786-.568-1.411-1.44-2.189-2.141a2.117,2.117,0,0,0-.7-.467.891.891,0,0,0-.27-.014.545.545,0,0,1-.148.01.722.722,0,0,1-.3-.092c-.405-.2-.783-.7-1.423-.719a.763.763,0,0,0-.544.322,2.26,2.26,0,0,0-.268.486,8,8,0,0,0-.326,1c-.18.67-.322,1.344-.516,1.991-.2.621-.467,1.4-.977,1.05-.466-.293-.621-1.027-1.108-1.634a1.293,1.293,0,0,0-.52-.386,1.5,1.5,0,0,0-.632-.082,2.581,2.581,0,0,0-1.108.319,1.565,1.565,0,0,1-1.582.012,7.633,7.633,0,0,0-.826-.687,1.958,1.958,0,0,0-.648-.226l-.3-.03a.53.53,0,0,1-.145-.032c-.168-.05-.312-.206-.5-.478a2.732,2.732,0,0,0-.886-.908,1.751,1.751,0,0,0-.76-.207,1.362,1.362,0,0,0-.89.322,3.169,3.169,0,0,0-.754,1.082l-.433.925a2.93,2.93,0,0,1-.284.432H102.9a2.6,2.6,0,0,0-.729.108c-.521.162-.857.429-1,.451a1.35,1.35,0,0,1-.585.017,1.5,1.5,0,0,1-.6-.258A3.215,3.215,0,0,0,98.6,110.6a1.367,1.367,0,0,1-.659-.133,4.258,4.258,0,0,0-1.153-.475,3.921,3.921,0,0,0-.735-.085,2.781,2.781,0,0,0-.878.12,3.408,3.408,0,0,0-1.035.582c-.064-.181-.131-.4-.2-.64-.088-.313-.177-.669-.31-1.049a3.682,3.682,0,0,0-.8-1.418,2.3,2.3,0,0,0-.612-.44,2.424,2.424,0,0,0-.844-.182,4.721,4.721,0,0,0-.746.051,4.159,4.159,0,0,0-.764.2,3.56,3.56,0,0,1-.381.131,1.071,1.071,0,0,1-.221.026h-.152l-.193.006-.256.019a2.834,2.834,0,0,0-1.061.375,3.88,3.88,0,0,0-.673.545c-.115.121-.182.183-.228.223,0,0-.048-.042-.555-.409a3,3,0,0,0-.926-.415,3.292,3.292,0,0,0-.491-.086l-.122-.007a5.411,5.411,0,0,0-.846-.952,2.676,2.676,0,0,0-1.1-.538,3.04,3.04,0,0,0-.6-.069,2.3,2.3,0,0,0-.724.151,1.974,1.974,0,0,0-.413.234,2.751,2.751,0,0,0-.527.5l-.069-.186a2.477,2.477,0,0,0-.2-.359l-.126-.18a2.213,2.213,0,0,0-.256-.252,2.271,2.271,0,0,0-.441-.289l-.463-.221a3.1,3.1,0,0,1-.616-.367l-.079-.061-.044-.034a2.68,2.68,0,0,0-.237-.156,1.841,1.841,0,0,0-.467-.2,2.351,2.351,0,0,0-.394-.084,3.431,3.431,0,0,0-.969.038c-.436.076-.746.164-1.005.221l-.239-.264a5.041,5.041,0,0,1-.939-1.424c-.165-.3-.309-.557-.4-.774a2.451,2.451,0,0,1-.106-.286l-.087-.308c-.042-.13-.085-.246-.128-.353-.02-.048-.037-.081-.057-.127a1.444,1.444,0,0,0,.651-1.248,2.354,2.354,0,0,0-.281-1.056,3.549,3.549,0,0,0-.352-.546c-.221-.288-.418-.5-.59-.7-.075-.084-.142-.161-.2-.233.118-.157.279-.359.456-.559.135-.167.282-.337.442-.573.3-.012.74.007,1.224,0a3.543,3.543,0,0,0,1.307-.226,1.79,1.79,0,0,0,1.08-1.255,2.737,2.737,0,0,0,.037-.589l-.053-.357a10.308,10.308,0,0,0-.619-1.769c-.17-.4-.336-.8-.453-1.123l.048-.034c.3-.211.632-.406.955-.6.02.022.039.041.059.064.313.358.636.778.969,1.2s.67.86,1.118,1.327a4.1,4.1,0,0,0,.417.378,2.3,2.3,0,0,0,.337.221,1.481,1.481,0,0,0,.773.184,1.577,1.577,0,0,0,1.12-.581,2.57,2.57,0,0,0,.362-.554c.161-.321.256-.587.351-.824.07-.182.145-.353.194-.448a1.039,1.039,0,0,0,.142-.023,2.17,2.17,0,0,0,1.166-.857c.217-.3.344-.559.46-.75a1.981,1.981,0,0,1,.193-.283.231.231,0,0,1,.144-.045,3.28,3.28,0,0,0,1.306-.348,2.55,2.55,0,0,1,.54-.244,1.691,1.691,0,0,1,.229-.036.981.981,0,0,1,.11.189,5.445,5.445,0,0,1,.259.654c.166.481.311,1,.524,1.554a3.914,3.914,0,0,0,.459.888l.21.246a2.321,2.321,0,0,0,.339.24,1.192,1.192,0,0,0,.969.045,1.71,1.71,0,0,0,.857-.974,6.224,6.224,0,0,0,.281-.854c.142-.546.245-1.073.366-1.578a4.581,4.581,0,0,1,.433-1.259,1.636,1.636,0,0,1,.214.384c.383.9.516,1.97,1.02,3.067a1.454,1.454,0,0,0,.824.82,1.209,1.209,0,0,0,.624.009,1.569,1.569,0,0,0,.52-.2c.625-.417.841-.918,1.148-1a.685.685,0,0,1,.246-.052c.017,0,.147-.013.262-.034a.836.836,0,0,0,.314-.112,1.85,1.85,0,0,0,.7-.791c.269-.532.423-1.053.645-1.48a1.367,1.367,0,0,1,.335-.465.32.32,0,0,1,.1-.033c.005,0,.018.028.03.032a3.646,3.646,0,0,1,.482,1.254l.362,1.559a5.828,5.828,0,0,0,.581,1.677,1.356,1.356,0,0,0,.463.463,1.641,1.641,0,0,0,.44.117l.235,0a2.734,2.734,0,0,0,.967-.222,3.272,3.272,0,0,1,.652-.256,1.825,1.825,0,0,1,.3-.037h.163a2.432,2.432,0,0,0,.37-.053,1.721,1.721,0,0,0,.922-.8,6.115,6.115,0,0,0,.4-.8,4.819,4.819,0,0,1,.626-1.205.634.634,0,0,1,.229-.017,3.448,3.448,0,0,0,1-.153,3.667,3.667,0,0,1,.668-.187,2.4,2.4,0,0,1,.293-.02l.161,0c.018.008.013.013.021.01-.012,0,.028.018.129.17s.2.365.333.617a3.532,3.532,0,0,0,.6.873,1.777,1.777,0,0,0,.631.424,1.365,1.365,0,0,0,.4.107l.2.023c.056.005.027.008.045.01.055.02.024.007.113.093s.207.282.393.541a2.533,2.533,0,0,0,.967.843,2.083,2.083,0,0,0,.753.186c.223.014.313.011.481.012a8.173,8.173,0,0,0,.91-.055,5.938,5.938,0,0,1,.694-.04l.372.006a2.118,2.118,0,0,0,.862-.187,2.689,2.689,0,0,0,1.033-.926c.2-.281.333-.513.444-.658a.692.692,0,0,1,.047-.057l.247.022c.206.026.421.062.652.115l.741.182.1.025a1.051,1.051,0,0,0,.187.036,1.757,1.757,0,0,0,.7-.035l.247-.071.166-.072a2.558,2.558,0,0,0,.292-.148,9.5,9.5,0,0,0,1.107-.779,9.562,9.562,0,0,0,.061,1.225,2.908,2.908,0,0,0,.173.7,1.768,1.768,0,0,0,.332.557,1.844,1.844,0,0,0,.441.38,4.138,4.138,0,0,0,1.1.459c.234.067.421.113.568.157-.023.148-.054.32-.091.529a4.038,4.038,0,0,0-.07,1.192,2.146,2.146,0,0,0,.116.481,1.319,1.319,0,0,0,.138.3,2.055,2.055,0,0,0,.307.38,2.1,2.1,0,0,0,.488.325c.132.061.223.089.338.131a9.106,9.106,0,0,0,1.832.306h.008c-.085.065-.167.125-.252.194-.22.173-.451.362-.693.589a3.775,3.775,0,0,0-.393.43,1.711,1.711,0,0,0-.385,1.018,1.015,1.015,0,0,0,0,.1.983.983,0,0,0,1.027.937h.013l1.211-.055c.095.286.2.523.28.773a5.193,5.193,0,0,1,.192.614,1.228,1.228,0,0,1,.027.163,1.884,1.884,0,0,1-.294.194C127.869,102.787,127.647,102.894,127.411,103.007Z" transform="translate(-69.249 -86.713)"/></g></svg>