<svg id="Layer_1" data-name="Layer 1" xmlns="http://www.w3.org/2000/svg" xmlns:xlink="http://www.w3.org/1999/xlink" viewBox="0 0 125 128.266"><defs><style>.cls-1{fill:url(#radial-gradient);}.cls-2{fill:url(#radial-gradient-2);}.cls-3{fill:url(#radial-gradient-3);}.cls-4{fill:url(#radial-gradient-4);}.cls-5{fill:url(#radial-gradient-5);}.cls-6{fill:url(#radial-gradient-6);}.cls-7{fill:url(#radial-gradient-7);}.cls-8{fill:url(#radial-gradient-8);}.cls-9{fill:url(#radial-gradient-9);}.cls-10{fill:url(#radial-gradient-10);}.cls-11{fill:url(#radial-gradient-11);}.cls-12{fill:url(#radial-gradient-12);}.cls-13{fill:url(#radial-gradient-13);}.cls-14{fill:url(#radial-gradient-14);}.cls-15{fill:url(#radial-gradient-15);}.cls-16{fill:url(#radial-gradient-16);}.cls-17{fill:url(#radial-gradient-17);}.cls-18{fill:url(#radial-gradient-18);}.cls-19{fill:url(#radial-gradient-19);}.cls-20{fill:url(#radial-gradient-20);}.cls-21{fill:url(#radial-gradient-21);}.cls-22{fill:url(#radial-gradient-22);}.cls-23{fill:url(#radial-gradient-23);}.cls-24{fill:url(#radial-gradient-24);}.cls-25{fill:url(#radial-gradient-25);}.cls-26{fill:url(#radial-gradient-26);}.cls-27{fill:url(#linear-gradient);}.cls-28{fill:url(#linear-gradient-2);}.cls-29{fill:url(#linear-gradient-3);}.cls-30{fill:url(#linear-gradient-4);}.cls-31{fill:url(#linear-gradient-5);}.cls-32{fill:url(#linear-gradient-6);}.cls-33{fill:url(#linear-gradient-7);}.cls-34{fill:url(#linear-gradient-8);}.cls-35{fill:url(#linear-gradient-9);}.cls-36{fill:url(#linear-gradient-10);}.cls-37{fill:url(#linear-gradient-11);}.cls-38{fill:url(#linear-gradient-12);}.cls-39{fill:url(#linear-gradient-13);}.cls-40{fill:url(#linear-gradient-14);}.cls-41{fill:url(#linear-gradient-15);}.cls-42{fill:url(#linear-gradient-16);}.cls-43{fill:url(#linear-gradient-17);}.cls-44{fill:url(#linear-gradient-18);}.cls-45{fill:url(#linear-gradient-19);}.cls-46{fill:url(#linear-gradient-20);}.cls-47{fill:#8b83e5;}.cls-48{mask:url(#mask);}.cls-49{fill:url(#radial-gradient-27);}.cls-50{mask:url(#mask-2);}.cls-51{fill:url(#radial-gradient-28);}.cls-52{fill:url(#radial-gradient-29);}.cls-53{mask:url(#mask-3);}.cls-54{fill:url(#radial-gradient-30);}.cls-55{mask:url(#mask-4);}.cls-56{fill:url(#radial-gradient-31);}.cls-57{fill:url(#radial-gradient-32);}.cls-58{mask:url(#mask-5);}.cls-59{fill:url(#radial-gradient-33);}.cls-60{mask:url(#mask-6);}.cls-61{fill:url(#radial-gradient-34);}.cls-62{fill:url(#radial-gradient-35);}.cls-63{fill:url(#radial-gradient-36);}.cls-64{fill:url(#radial-gradient-37);}.cls-65{fill:url(#radial-gradient-38);}.cls-66{fill:url(#radial-gradient-39);}.cls-67{fill:url(#radial-gradient-40);}</style><radialGradient id="radial-gradient" cx="149.38" cy="124.511" r="67.601" gradientTransform="translate(-133.218 41.321) scale(1.54 0.668)" gradientUnits="userSpaceOnUse"><stop offset="0.408" stop-color="#fff"/><stop offset="0.441" stop-color="#cacaca"/><stop offset="0.479" stop-color="#959595"/><stop offset="0.518" stop-color="#686868"/><stop offset="0.556" stop-color="#424242"/><stop offset="0.594" stop-color="#252525"/><stop offset="0.631" stop-color="#111"/><stop offset="0.669" stop-color="#040404"/><stop offset="0.704"/></radialGradient><radialGradient id="radial-gradient-2" cx="39.431" cy="54.187" r="122.225" gradientTransform="translate(64.076 73.192) scale(0.874 0.364)" gradientUnits="userSpaceOnUse"><stop offset="0.526" stop-color="#fff"/><stop offset="0.533" stop-color="#f3f3f3"/><stop offset="0.547" stop-color="#d2d2d2"/><stop offset="0.565" stop-color="#9c9c9c"/><stop offset="0.588" stop-color="#525252"/><stop offset="0.611"/></radialGradient><radialGradient id="radial-gradient-3" cx="149.651" cy="93.406" r="44.405" gradientTransform="translate(-133.218 30.998) scale(1.54 0.668)" xlink:href="#radial-gradient"/><radialGradient id="radial-gradient-4" cx="39.226" cy="16.973" r="80.285" gradientTransform="translate(64.076 66.469) scale(0.874 0.364)" xlink:href="#radial-gradient-2"/><radialGradient id="radial-gradient-5" cx="149.38" cy="74.496" r="67.601" gradientTransform="translate(-133.218 24.723) scale(1.54 0.668)" xlink:href="#radial-gradient"/><radialGradient id="radial-gradient-6" cx="39.431" cy="-37.691" r="122.225" gradientTransform="translate(64.076 56.594) scale(0.874 0.364)" xlink:href="#radial-gradient-2"/><radialGradient id="radial-gradient-7" cx="97.517" cy="141.184" r="4.152" gradientTransform="translate(-35.517 -34.899)" gradientUnits="userSpaceOnUse"><stop offset="0" stop-color="#e5c7c7"/><stop offset="0.143" stop-color="#e5c1c1"/><stop offset="0.329" stop-color="#e5b1b1"/><stop offset="0.537" stop-color="#e59797"/><stop offset="0.762" stop-color="#e57171"/><stop offset="1" stop-color="#e54242"/></radialGradient><radialGradient id="radial-gradient-8" cx="91.086" cy="141.899" r="4.152" gradientTransform="translate(-35.517 -34.902)" xlink:href="#radial-gradient-7"/><radialGradient id="radial-gradient-9" cx="84.656" cy="142.613" r="4.152" gradientTransform="translate(-35.517 -34.906)" xlink:href="#radial-gradient-7"/><radialGradient id="radial-gradient-10" cx="78.226" cy="144.042" r="4.152" gradientTransform="translate(-35.517 -34.913)" xlink:href="#radial-gradient-7"/><radialGradient id="radial-gradient-11" cx="73.224" cy="146.186" r="4.152" gradientTransform="translate(-35.517 -34.924)" xlink:href="#radial-gradient-7"/><radialGradient id="radial-gradient-12" cx="103.947" cy="141.899" r="4.152" gradientTransform="translate(-35.517 -34.902)" xlink:href="#radial-gradient-7"/><radialGradient id="radial-gradient-13" cx="110.378" cy="142.613" r="4.152" gradientTransform="translate(-35.517 -34.906)" xlink:href="#radial-gradient-7"/><radialGradient id="radial-gradient-14" cx="116.808" cy="144.042" r="4.152" gradientTransform="translate(-35.517 -34.913)" xlink:href="#radial-gradient-7"/><radialGradient id="radial-gradient-15" cx="121.809" cy="146.186" r="4.152" gradientTransform="translate(-35.517 -34.924)" xlink:href="#radial-gradient-7"/><radialGradient id="radial-gradient-16" cx="123.238" cy="148.329" r="4.152" gradientTransform="translate(-35.517 -34.934)" xlink:href="#radial-gradient-7"/><radialGradient id="radial-gradient-17" cx="121.809" cy="151.187" r="4.152" gradientTransform="translate(-35.517 -34.948)" xlink:href="#radial-gradient-7"/><radialGradient id="radial-gradient-18" cx="71.795" cy="148.329" r="4.152" gradientTransform="translate(-35.517 -34.934)" xlink:href="#radial-gradient-7"/><radialGradient id="radial-gradient-19" cx="116.808" cy="154.045" r="4.152" gradientTransform="translate(-35.517 -34.962)" xlink:href="#radial-gradient-7"/><radialGradient id="radial-gradient-20" cx="110.378" cy="155.474" r="4.152" gradientTransform="translate(-35.517 -34.969)" xlink:href="#radial-gradient-7"/><radialGradient id="radial-gradient-21" cx="103.947" cy="156.189" r="4.152" gradientTransform="translate(-35.517 -34.973)" xlink:href="#radial-gradient-7"/><radialGradient id="radial-gradient-22" cx="73.224" cy="151.187" r="4.152" gradientTransform="translate(-35.517 -34.948)" xlink:href="#radial-gradient-7"/><radialGradient id="radial-gradient-23" cx="78.226" cy="154.045" r="4.152" gradientTransform="translate(-35.517 -34.962)" xlink:href="#radial-gradient-7"/><radialGradient id="radial-gradient-24" cx="84.656" cy="155.474" r="4.152" gradientTransform="translate(-35.517 -34.969)" xlink:href="#radial-gradient-7"/><radialGradient id="radial-gradient-25" cx="91.086" cy="156.189" r="4.152" gradientTransform="translate(-35.517 -34.973)" xlink:href="#radial-gradient-7"/><radialGradient id="radial-gradient-26" cx="97.517" cy="156.903" r="4.152" gradientTransform="translate(-35.517 -34.976)" xlink:href="#radial-gradient-7"/><linearGradient id="linear-gradient" x1="106.963" y1="139.044" x2="108.347" y2="139.275" gradientUnits="userSpaceOnUse"><stop offset="0" stop-color="#449145"/><stop offset="0.004" stop-color="#479348"/><stop offset="0.063" stop-color="#6ab26b"/><stop offset="0.122" stop-color="#86ca86"/><stop offset="0.182" stop-color="#99da99"/><stop offset="0.242" stop-color="#a5e5a5"/><stop offset="0.304" stop-color="#a9e8a9"/><stop offset="0.385" stop-color="#a2e2a2"/><stop offset="0.502" stop-color="#90d290"/><stop offset="0.638" stop-color="#71b871"/><stop offset="0.791" stop-color="#469347"/><stop offset="0.955" stop-color="#106511"/><stop offset="1" stop-color="#005701"/></linearGradient><linearGradient id="linear-gradient-2" x1="116.651" y1="137.847" x2="118.005" y2="138.327" xlink:href="#linear-gradient"/><linearGradient id="linear-gradient-3" x1="126.31" y1="135.594" x2="127.541" y2="136.221" xlink:href="#linear-gradient"/><linearGradient id="linear-gradient-4" x1="136.003" y1="126.963" x2="137.34" y2="127.735" xlink:href="#linear-gradient"/><linearGradient id="linear-gradient-5" x1="133.837" y1="130.993" x2="135.067" y2="131.732" xlink:href="#linear-gradient"/><linearGradient id="linear-gradient-6" x1="133.895" y1="123.818" x2="134.945" y2="124.365" xlink:href="#linear-gradient"/><linearGradient id="linear-gradient-7" x1="126.234" y1="120.61" x2="127.716" y2="121.209" xlink:href="#linear-gradient"/><linearGradient id="linear-gradient-8" x1="116.604" y1="118.582" x2="117.962" y2="118.933" xlink:href="#linear-gradient"/><linearGradient id="linear-gradient-9" x1="106.941" y1="117.601" x2="108.256" y2="117.774" xlink:href="#linear-gradient"/><linearGradient id="linear-gradient-10" x1="97.302" y1="116.879" x2="98.731" y2="116.879" xlink:href="#linear-gradient"/><linearGradient id="linear-gradient-11" x1="87.63" y1="117.789" x2="89.044" y2="117.612" xlink:href="#linear-gradient"/><linearGradient id="linear-gradient-12" x1="77.956" y1="118.965" x2="79.311" y2="118.611" xlink:href="#linear-gradient"/><linearGradient id="linear-gradient-13" x1="68.415" y1="121.162" x2="69.77" y2="120.631" xlink:href="#linear-gradient"/><linearGradient id="linear-gradient-14" x1="60.975" y1="124.43" x2="61.98" y2="123.895" xlink:href="#linear-gradient"/><linearGradient id="linear-gradient-15" x1="58.686" y1="127.757" x2="59.918" y2="127.046" xlink:href="#linear-gradient"/><linearGradient id="linear-gradient-16" x1="60.889" y1="131.778" x2="62.163" y2="131.012" xlink:href="#linear-gradient"/><linearGradient id="linear-gradient-17" x1="68.595" y1="136.169" x2="69.633" y2="135.64" xlink:href="#linear-gradient"/><linearGradient id="linear-gradient-18" x1="78.155" y1="138.282" x2="79.231" y2="137.901" xlink:href="#linear-gradient"/><linearGradient id="linear-gradient-19" x1="87.759" y1="139.271" x2="89.056" y2="139.036" xlink:href="#linear-gradient"/><linearGradient id="linear-gradient-20" x1="97.302" y1="140.236" x2="98.731" y2="140.236" xlink:href="#linear-gradient"/><mask id="mask" x="-1.226" y="46.276" width="127.632" height="49.964" maskUnits="userSpaceOnUse"><g transform="translate(-35.517 -34.206)"><rect class="cls-1" x="34.291" y="80.481" width="127.632" height="49.964"/></g></mask><radialGradient id="radial-gradient-27" cx="98.017" cy="106.741" r="63.315" gradientTransform="translate(0 67.725) scale(1 0.366)" gradientUnits="userSpaceOnUse"><stop offset="0.567" stop-color="#8b83e5" stop-opacity="0"/><stop offset="0.62" stop-color="#8880df" stop-opacity="0.057"/><stop offset="0.698" stop-color="#7e77d0" stop-opacity="0.215"/><stop offset="0.794" stop-color="#6f68b6" stop-opacity="0.474"/><stop offset="0.901" stop-color="#595493" stop-opacity="0.83"/><stop offset="0.947" stop-color="#4f4a82"/></radialGradient><mask id="mask-2" x="-2.993" y="47.947" width="130.987" height="49.176" maskUnits="userSpaceOnUse"><g transform="translate(-35.517 -34.206)"><rect class="cls-2" x="32.523" y="82.153" width="130.987" height="49.176"/></g></mask><radialGradient id="radial-gradient-28" cx="98.017" cy="106.741" r="78.825" gradientTransform="translate(0 73.702) scale(1 0.31)" gradientUnits="userSpaceOnUse"><stop offset="0.532" stop-color="#4f4a82"/><stop offset="0.586" stop-color="#4f4a82" stop-opacity="0.74"/><stop offset="0.653" stop-color="#4f4a82" stop-opacity="0.475"/><stop offset="0.72" stop-color="#4f4a82" stop-opacity="0.266"/><stop offset="0.789" stop-color="#4f4a82" stop-opacity="0.118"/><stop offset="0.858" stop-color="#4f4a82" stop-opacity="0.029"/><stop offset="0.931" stop-color="#4f4a82" stop-opacity="0"/></radialGradient><radialGradient id="radial-gradient-29" cx="97.54" cy="101.663" r="80.263" gradientTransform="translate(0 71.571) scale(1 0.296)" gradientUnits="userSpaceOnUse"><stop offset="0.568" stop-color="#8b83e5" stop-opacity="0"/><stop offset="0.596" stop-color="#9b95e5" stop-opacity="0.27"/><stop offset="0.631" stop-color="#aeaae5" stop-opacity="0.58"/><stop offset="0.661" stop-color="#bcbae5" stop-opacity="0.807"/><stop offset="0.683" stop-color="#c5c3e5" stop-opacity="0.947"/><stop offset="0.695" stop-color="#c8c7e5"/><stop offset="0.712" stop-color="#c6c5e5" stop-opacity="0.975"/><stop offset="0.735" stop-color="#c2c1e5" stop-opacity="0.905"/><stop offset="0.761" stop-color="#bbb9e5" stop-opacity="0.788"/><stop offset="0.788" stop-color="#b1aee5" stop-opacity="0.625"/><stop offset="0.817" stop-color="#a49fe5" stop-opacity="0.417"/><stop offset="0.848" stop-color="#958ee5" stop-opacity="0.166"/><stop offset="0.866" stop-color="#8b83e5" stop-opacity="0"/></radialGradient><mask id="mask-3" x="20.641" y="30.279" width="83.837" height="32.82" maskUnits="userSpaceOnUse"><g transform="translate(-35.517 -34.206)"><rect class="cls-3" x="56.157" y="64.485" width="83.837" height="32.82"/></g></mask><radialGradient id="radial-gradient-30" cx="98.017" cy="81.734" r="41.589" gradientTransform="translate(0 51.859) scale(1 0.366)" xlink:href="#radial-gradient-27"/><mask id="mask-4" x="19.48" y="31.377" width="86.041" height="32.302" maskUnits="userSpaceOnUse"><g transform="translate(-35.517 -34.206)"><rect class="cls-4" x="54.996" y="65.583" width="86.041" height="32.302"/></g></mask><radialGradient id="radial-gradient-31" cx="98.017" cy="81.734" r="51.777" gradientTransform="translate(0 56.435) scale(1 0.31)" xlink:href="#radial-gradient-28"/><radialGradient id="radial-gradient-32" cx="97.704" cy="78.398" r="52.722" gradientTransform="translate(0 55.192) scale(1 0.296)" xlink:href="#radial-gradient-29"/><mask id="mask-5" x="-1.226" y="-3.739" width="127.632" height="49.964" maskUnits="userSpaceOnUse"><g transform="translate(-35.517 -34.206)"><rect class="cls-5" x="34.291" y="30.467" width="127.632" height="49.964"/></g></mask><radialGradient id="radial-gradient-33" cx="98.017" cy="56.727" r="63.315" gradientTransform="translate(0 35.992) scale(1 0.366)" xlink:href="#radial-gradient-27"/><mask id="mask-6" x="-2.993" y="-2.067" width="130.987" height="49.176" maskUnits="userSpaceOnUse"><g transform="translate(-35.517 -34.206)"><rect class="cls-6" x="32.523" y="32.139" width="130.987" height="49.176"/></g></mask><radialGradient id="radial-gradient-34" cx="98.017" cy="56.727" r="78.825" gradientTransform="translate(0 39.168) scale(1 0.31)" xlink:href="#radial-gradient-28"/><radialGradient id="radial-gradient-35" cx="97.54" cy="51.648" r="80.263" gradientTransform="translate(0 36.36) scale(1 0.296)" xlink:href="#radial-gradient-29"/><radialGradient id="radial-gradient-36" cx="97.55" cy="66.624" r="104.315" gradientTransform="translate(0 16.148) scale(1 0.758)" gradientUnits="userSpaceOnUse"><stop offset="0" stop-color="#f7d33e"/><stop offset="0.057" stop-color="#e3c033"/><stop offset="0.187" stop-color="#bb9b1c"/><stop offset="0.29" stop-color="#a2840e"/><stop offset="0.353" stop-color="#997c09"/><stop offset="0.398" stop-color="#ab8b0c"/><stop offset="0.488" stop-color="#dab312"/><stop offset="0.521" stop-color="#ecc215"/><stop offset="0.523" stop-color="#ecc215"/><stop offset="0.827" stop-color="#f4ce33"/><stop offset="1" stop-color="#f7d33e"/></radialGradient><radialGradient id="radial-gradient-37" cx="98.622" cy="66.624" r="112.526" gradientTransform="translate(0 34.259) scale(1 0.486)" gradientUnits="userSpaceOnUse"><stop offset="0" stop-color="#f7d33e"/><stop offset="0.038" stop-color="#e3c033"/><stop offset="0.125" stop-color="#bb9b1c"/><stop offset="0.193" stop-color="#a2840e"/><stop offset="0.235" stop-color="#997c09"/><stop offset="0.26" stop-color="#9e800a"/><stop offset="0.29" stop-color="#ad8d0c"/><stop offset="0.324" stop-color="#c6a20f"/><stop offset="0.359" stop-color="#e8bf14"/><stop offset="0.362" stop-color="#ecc215"/><stop offset="0.365" stop-color="#ecc215"/><stop offset="0.77" stop-color="#f4ce33"/><stop offset="1" stop-color="#f7d33e"/></radialGradient><radialGradient id="radial-gradient-38" cx="10.291" cy="43.863" r="104.315" gradientTransform="translate(78.947 64.623) scale(0.689 0.456)" gradientUnits="userSpaceOnUse"><stop offset="0" stop-color="#f7d33e"/><stop offset="0.097" stop-color="#efc722"/><stop offset="0.203" stop-color="#e9bd09"/><stop offset="0.268" stop-color="#e6b900"/><stop offset="0.473" stop-color="#ecc215"/><stop offset="0.809" stop-color="#f4ce33"/><stop offset="1" stop-color="#f7d33e"/></radialGradient><radialGradient id="radial-gradient-39" cx="27.267" cy="-6.372" r="45.066" gradientTransform="translate(78.947 53.057) scale(0.689 0.247)" gradientUnits="userSpaceOnUse"><stop offset="0.474" stop-color="#ded6b4" stop-opacity="0"/><stop offset="0.505" stop-color="#dfd7b4" stop-opacity="0.027"/><stop offset="0.55" stop-color="#e1d8b5" stop-opacity="0.103"/><stop offset="0.604" stop-color="#e4dbb7" stop-opacity="0.228"/><stop offset="0.663" stop-color="#e8dfb9" stop-opacity="0.401"/><stop offset="0.728" stop-color="#eee4bc" stop-opacity="0.624"/><stop offset="0.796" stop-color="#f4eac0" stop-opacity="0.891"/><stop offset="0.821" stop-color="#f7edc1"/><stop offset="0.837" stop-color="#f6ecc1" stop-opacity="0.969"/><stop offset="0.861" stop-color="#f4eabf" stop-opacity="0.884"/><stop offset="0.89" stop-color="#f1e7be" stop-opacity="0.744"/><stop offset="0.924" stop-color="#ece3bb" stop-opacity="0.55"/><stop offset="0.961" stop-color="#e6ddb8" stop-opacity="0.301"/><stop offset="1" stop-color="#ded6b4" stop-opacity="0"/></radialGradient><radialGradient id="radial-gradient-40" cx="27.23" cy="-0.295" r="45.599" gradientTransform="translate(78.947 58.127) scale(0.689 0.293)" gradientUnits="userSpaceOnUse"><stop offset="0.027" stop-color="#968126"/><stop offset="0.166" stop-color="#998427" stop-opacity="0.968"/><stop offset="0.329" stop-color="#a28b29" stop-opacity="0.873"/><stop offset="0.503" stop-color="#b2982d" stop-opacity="0.716"/><stop offset="0.686" stop-color="#c7aa32" stop-opacity="0.497"/><stop offset="0.873" stop-color="#e2c139" stop-opacity="0.219"/><stop offset="1" stop-color="#f7d33e" stop-opacity="0"/></radialGradient></defs><title>nuclear_pore_complex</title><g id="nuclear_pore_complex"><g id="nuclear_basket"><circle class="cls-7" cx="62.5" cy="108.054" r="4.493"/><circle class="cls-8" cx="56.07" cy="108.769" r="4.493"/><circle class="cls-9" cx="49.639" cy="109.483" r="4.493"/><circle class="cls-10" cx="43.209" cy="110.912" r="4.493"/><circle class="cls-11" cx="38.207" cy="113.056" r="4.493"/><circle class="cls-12" cx="68.93" cy="108.769" r="4.493"/><circle class="cls-13" cx="75.361" cy="109.483" r="4.493"/><circle class="cls-14" cx="81.791" cy="110.912" r="4.493"/><circle class="cls-15" cx="86.793" cy="113.056" r="4.493"/><circle class="cls-16" cx="88.222" cy="115.199" r="4.493"/><circle class="cls-17" cx="86.793" cy="118.057" r="4.493"/><circle class="cls-18" cx="36.778" cy="115.199" r="4.493"/><circle class="cls-19" cx="81.791" cy="120.915" r="4.493"/><circle class="cls-20" cx="75.361" cy="122.344" r="4.493"/><circle class="cls-21" cx="68.93" cy="123.059" r="4.493"/><circle class="cls-22" cx="38.207" cy="118.057" r="4.493"/><circle class="cls-23" cx="43.209" cy="120.915" r="4.493"/><circle class="cls-24" cx="49.639" cy="122.344" r="4.493"/><circle class="cls-25" cx="56.07" cy="123.059" r="4.493"/><circle class="cls-26" cx="62.5" cy="123.773" r="4.493"/></g><g id="nuclear_cage"><path class="cls-27" d="M104.447,157.979a.715.715,0,0,1-.7-.84l6.458-36.2a.714.714,0,1,1,1.407.251l-6.458,36.2A.714.714,0,0,1,104.447,157.979Z" transform="translate(-35.517 -34.206)"/><path class="cls-28" d="M110.877,157.264a.714.714,0,0,1-.675-.95l12.916-36.921a.715.715,0,1,1,1.349.472l-12.916,36.921A.715.715,0,0,1,110.877,157.264Z" transform="translate(-35.517 -34.206)"/><path class="cls-29" d="M117.307,155.835a.714.714,0,0,1-.637-1.037l19.373-38.356a.715.715,0,0,1,1.275.645l-19.373,38.356A.715.715,0,0,1,117.307,155.835Z" transform="translate(-35.517 -34.206)"/><path class="cls-30" d="M123.737,150.083a.715.715,0,0,1-.615-1.076l25.832-44.06a.714.714,0,0,1,1.232.723l-25.832,44.06A.713.713,0,0,1,123.737,150.083Z" transform="translate(-35.517 -34.206)"/><path class="cls-31" d="M122.309,152.468a.715.715,0,0,1-.612-1.081l24.4-40.717a.714.714,0,0,1,1.225.734l-24.4,40.717A.713.713,0,0,1,122.309,152.468Z" transform="translate(-35.517 -34.206)"/><path class="cls-32" d="M122.309,147.976a.714.714,0,0,1-.631-1.048l24.4-46.248a.715.715,0,1,1,1.264.667l-24.4,46.248A.714.714,0,0,1,122.309,147.976Z" transform="translate(-35.517 -34.206)"/><path class="cls-33" d="M117.308,145.832a.714.714,0,0,1-.664-.98l19.373-48.4a.715.715,0,1,1,1.327.532l-19.373,48.4A.715.715,0,0,1,117.308,145.832Z" transform="translate(-35.517 -34.206)"/><path class="cls-34" d="M110.878,144.4a.7.7,0,0,1-.18-.023.714.714,0,0,1-.512-.871L123.1,93.674a.714.714,0,1,1,1.383.359l-12.916,49.836A.714.714,0,0,1,110.878,144.4Z" transform="translate(-35.517 -34.206)"/><path class="cls-35" d="M104.447,143.689a.813.813,0,0,1-.091-.006.715.715,0,0,1-.618-.8L110.2,92.33a.715.715,0,0,1,1.418.181l-6.458,50.554A.715.715,0,0,1,104.447,143.689Z" transform="translate(-35.517 -34.206)"/><path class="cls-36" d="M98.017,143.483a.714.714,0,0,1-.714-.714V90.989a.714.714,0,0,1,1.429,0v51.78A.714.714,0,0,1,98.017,143.483Z" transform="translate(-35.517 -34.206)"/><path class="cls-37" d="M91.585,143.689a.715.715,0,0,1-.708-.624L84.419,92.511a.715.715,0,1,1,1.418-.181l6.458,50.554a.715.715,0,0,1-.618.8A.813.813,0,0,1,91.585,143.689Z" transform="translate(-35.517 -34.206)"/><path class="cls-38" d="M85.155,144.4a.714.714,0,0,1-.691-.535L71.549,94.032a.714.714,0,1,1,1.383-.359L85.847,143.51a.714.714,0,0,1-.512.871A.7.7,0,0,1,85.155,144.4Z" transform="translate(-35.517 -34.206)"/><path class="cls-39" d="M78.725,145.832a.715.715,0,0,1-.664-.449l-19.373-48.4a.715.715,0,1,1,1.327-.532l19.373,48.4a.714.714,0,0,1-.664.98Z" transform="translate(-35.517 -34.206)"/><path class="cls-40" d="M73.725,147.976a.714.714,0,0,1-.633-.381L48.7,101.346a.715.715,0,1,1,1.264-.667l24.4,46.248a.714.714,0,0,1-.631,1.048Z" transform="translate(-35.517 -34.206)"/><path class="cls-41" d="M72.3,150.119a.715.715,0,0,1-.617-.353l-25.832-44.1a.715.715,0,0,1,1.234-.723l25.832,44.1a.714.714,0,0,1-.616,1.076Z" transform="translate(-35.517 -34.206)"/><path class="cls-42" d="M73.725,152.468a.713.713,0,0,1-.613-.347L48.715,111.4a.714.714,0,0,1,1.225-.734l24.4,40.717a.715.715,0,0,1-.612,1.081Z" transform="translate(-35.517 -34.206)"/><path class="cls-43" d="M78.726,155.835a.715.715,0,0,1-.638-.392L58.715,117.087a.715.715,0,1,1,1.275-.645L79.363,154.8a.714.714,0,0,1-.637,1.037Z" transform="translate(-35.517 -34.206)"/><path class="cls-44" d="M85.156,157.264a.715.715,0,0,1-.675-.479L71.565,119.865a.715.715,0,1,1,1.349-.472l12.916,36.921a.714.714,0,0,1-.675.95Z" transform="translate(-35.517 -34.206)"/><path class="cls-45" d="M91.585,157.979a.714.714,0,0,1-.7-.589l-6.458-36.2a.714.714,0,1,1,1.407-.251l6.458,36.2a.715.715,0,0,1-.7.84Z" transform="translate(-35.517 -34.206)"/><path class="cls-46" d="M98.017,158.693a.714.714,0,0,1-.714-.714V122.493a.714.714,0,1,1,1.429,0v35.486A.714.714,0,0,1,98.017,158.693Z" transform="translate(-35.517 -34.206)"/></g><g id="nuclear_rings"><path id="BG" class="cls-47" d="M98.017,129.262c-15.414,0-29.994-1.692-41.054-4.765-14.23-3.952-21.446-9.927-21.446-17.756s7.216-13.8,21.446-17.756c11.06-3.073,25.64-4.765,41.054-4.765s29.994,1.692,41.054,4.765c14.23,3.952,21.446,9.927,21.446,17.756s-7.216,13.8-21.446,17.756C128.011,127.57,113.431,129.262,98.017,129.262ZM50.782,106.741c4.795,3.315,21.089,8.232,47.235,8.232s42.44-4.917,47.235-8.232c-4.795-3.315-21.089-8.232-47.235-8.232S55.576,103.425,50.782,106.741Z" transform="translate(-35.517 -34.206)"/><g class="cls-48"><path id="SHADOW_DOWN" class="cls-49" d="M98.017,129.262c-15.414,0-29.994-1.692-41.054-4.765-14.23-3.952-21.446-9.927-21.446-17.756s7.216-13.8,21.446-17.756c11.06-3.073,25.64-4.765,41.054-4.765s29.994,1.692,41.054,4.765c14.23,3.952,21.446,9.927,21.446,17.756s-7.216,13.8-21.446,17.756C128.011,127.57,113.431,129.262,98.017,129.262ZM50.782,106.741c4.795,3.315,21.089,8.232,47.235,8.232s42.44-4.917,47.235-8.232c-4.795-3.315-21.089-8.232-47.235-8.232S55.576,103.425,50.782,106.741Z" transform="translate(-35.517 -34.206)"/></g><g class="cls-50"><path id="SHADOW_UP" class="cls-51" d="M98.017,129.262c-15.414,0-29.994-1.692-41.054-4.765-14.23-3.952-21.446-9.927-21.446-17.756s7.216-13.8,21.446-17.756c11.06-3.073,25.64-4.765,41.054-4.765s29.994,1.692,41.054,4.765c14.23,3.952,21.446,9.927,21.446,17.756s-7.216,13.8-21.446,17.756C128.011,127.57,113.431,129.262,98.017,129.262ZM50.782,106.741c4.795,3.315,21.089,8.232,47.235,8.232s42.44-4.917,47.235-8.232c-4.795-3.315-21.089-8.232-47.235-8.232S55.576,103.425,50.782,106.741Z" transform="translate(-35.517 -34.206)"/></g><path id="LIGHT" class="cls-52" d="M98.017,129.262c-15.414,0-29.994-1.692-41.054-4.765-14.23-3.952-21.446-9.927-21.446-17.756s7.216-13.8,21.446-17.756c11.06-3.073,25.64-4.765,41.054-4.765s29.994,1.692,41.054,4.765c14.23,3.952,21.446,9.927,21.446,17.756s-7.216,13.8-21.446,17.756C128.011,127.57,113.431,129.262,98.017,129.262ZM50.782,106.741c4.795,3.315,21.089,8.232,47.235,8.232s42.44-4.917,47.235-8.232c-4.795-3.315-21.089-8.232-47.235-8.232S55.576,103.425,50.782,106.741Z" transform="translate(-35.517 -34.206)"/></g><g id="nuclear_rings-2" data-name="nuclear_rings"><path id="BG-2" data-name="BG" class="cls-47" d="M98.017,96.527c-10.125,0-19.7-1.111-26.967-3.13C61.7,90.8,56.963,86.877,56.963,81.734S61.7,72.666,71.05,70.07c7.265-2.018,16.842-3.13,26.967-3.13s19.7,1.111,26.967,3.13c9.347,2.6,14.087,6.521,14.087,11.664S134.331,90.8,124.984,93.4C117.719,95.416,108.142,96.527,98.017,96.527ZM66.99,81.734c3.149,2.178,13.853,5.407,31.027,5.407s27.878-3.23,31.027-5.407c-3.149-2.178-13.853-5.407-31.027-5.407S70.139,79.556,66.99,81.734Z" transform="translate(-35.517 -34.206)"/><g class="cls-53"><path id="SHADOW_DOWN-2" data-name="SHADOW_DOWN" class="cls-54" d="M98.017,96.527c-10.125,0-19.7-1.111-26.967-3.13C61.7,90.8,56.963,86.877,56.963,81.734S61.7,72.666,71.05,70.07c7.265-2.018,16.842-3.13,26.967-3.13s19.7,1.111,26.967,3.13c9.347,2.6,14.087,6.521,14.087,11.664S134.331,90.8,124.984,93.4C117.719,95.416,108.142,96.527,98.017,96.527ZM66.99,81.734c3.149,2.178,13.853,5.407,31.027,5.407s27.878-3.23,31.027-5.407c-3.149-2.178-13.853-5.407-31.027-5.407S70.139,79.556,66.99,81.734Z" transform="translate(-35.517 -34.206)"/></g><g class="cls-55"><path id="SHADOW_UP-2" data-name="SHADOW_UP" class="cls-56" d="M98.017,96.527c-10.125,0-19.7-1.111-26.967-3.13C61.7,90.8,56.963,86.877,56.963,81.734S61.7,72.666,71.05,70.07c7.265-2.018,16.842-3.13,26.967-3.13s19.7,1.111,26.967,3.13c9.347,2.6,14.087,6.521,14.087,11.664S134.331,90.8,124.984,93.4C117.719,95.416,108.142,96.527,98.017,96.527ZM66.99,81.734c3.149,2.178,13.853,5.407,31.027,5.407s27.878-3.23,31.027-5.407c-3.149-2.178-13.853-5.407-31.027-5.407S70.139,79.556,66.99,81.734Z" transform="translate(-35.517 -34.206)"/></g><path id="LIGHT-2" data-name="LIGHT" class="cls-57" d="M98.017,96.527c-10.125,0-19.7-1.111-26.967-3.13C61.7,90.8,56.963,86.877,56.963,81.734S61.7,72.666,71.05,70.07c7.265-2.018,16.842-3.13,26.967-3.13s19.7,1.111,26.967,3.13c9.347,2.6,14.087,6.521,14.087,11.664S134.331,90.8,124.984,93.4C117.719,95.416,108.142,96.527,98.017,96.527ZM66.99,81.734c3.149,2.178,13.853,5.407,31.027,5.407s27.878-3.23,31.027-5.407c-3.149-2.178-13.853-5.407-31.027-5.407S70.139,79.556,66.99,81.734Z" transform="translate(-35.517 -34.206)"/></g><g id="nuclear_rings-3" data-name="nuclear_rings"><path id="BG-3" data-name="BG" class="cls-47" d="M98.017,79.248c-15.414,0-29.994-1.692-41.054-4.765-14.23-3.952-21.446-9.927-21.446-17.756s7.216-13.8,21.446-17.756c11.06-3.073,25.64-4.765,41.054-4.765s29.994,1.692,41.054,4.765c14.23,3.952,21.446,9.927,21.446,17.756s-7.216,13.8-21.446,17.756C128.011,77.556,113.431,79.248,98.017,79.248ZM50.782,56.727c4.795,3.315,21.089,8.232,47.235,8.232s42.44-4.917,47.235-8.232c-4.795-3.315-21.089-8.232-47.235-8.232S55.576,53.411,50.782,56.727Z" transform="translate(-35.517 -34.206)"/><g class="cls-58"><path id="SHADOW_DOWN-3" data-name="SHADOW_DOWN" class="cls-59" d="M98.017,79.248c-15.414,0-29.994-1.692-41.054-4.765-14.23-3.952-21.446-9.927-21.446-17.756s7.216-13.8,21.446-17.756c11.06-3.073,25.64-4.765,41.054-4.765s29.994,1.692,41.054,4.765c14.23,3.952,21.446,9.927,21.446,17.756s-7.216,13.8-21.446,17.756C128.011,77.556,113.431,79.248,98.017,79.248ZM50.782,56.727c4.795,3.315,21.089,8.232,47.235,8.232s42.44-4.917,47.235-8.232c-4.795-3.315-21.089-8.232-47.235-8.232S55.576,53.411,50.782,56.727Z" transform="translate(-35.517 -34.206)"/></g><g class="cls-60"><path id="SHADOW_UP-3" data-name="SHADOW_UP" class="cls-61" d="M98.017,79.248c-15.414,0-29.994-1.692-41.054-4.765-14.23-3.952-21.446-9.927-21.446-17.756s7.216-13.8,21.446-17.756c11.06-3.073,25.64-4.765,41.054-4.765s29.994,1.692,41.054,4.765c14.23,3.952,21.446,9.927,21.446,17.756s-7.216,13.8-21.446,17.756C128.011,77.556,113.431,79.248,98.017,79.248ZM50.782,56.727c4.795,3.315,21.089,8.232,47.235,8.232s42.44-4.917,47.235-8.232c-4.795-3.315-21.089-8.232-47.235-8.232S55.576,53.411,50.782,56.727Z" transform="translate(-35.517 -34.206)"/></g><path id="LIGHT-3" data-name="LIGHT" class="cls-62" d="M98.017,79.248c-15.414,0-29.994-1.692-41.054-4.765-14.23-3.952-21.446-9.927-21.446-17.756s7.216-13.8,21.446-17.756c11.06-3.073,25.64-4.765,41.054-4.765s29.994,1.692,41.054,4.765c14.23,3.952,21.446,9.927,21.446,17.756s-7.216,13.8-21.446,17.756C128.011,77.556,113.431,79.248,98.017,79.248ZM50.782,56.727c4.795,3.315,21.089,8.232,47.235,8.232s42.44-4.917,47.235-8.232c-4.795-3.315-21.089-8.232-47.235-8.232S55.576,53.411,50.782,56.727Z" transform="translate(-35.517 -34.206)"/></g><g id="central_transporter"><path class="cls-63" d="M98.017,96.527a109.678,109.678,0,0,1-24.96-2.613c-1.595,6.6-3.958,13.6-4.872,18.54a161.969,161.969,0,0,0,29.832,2.519,161.945,161.945,0,0,0,29.819-2.517c-.924-4.879-3.274-11.931-4.861-18.542A109.683,109.683,0,0,1,98.017,96.527Z" transform="translate(-35.517 -34.206)"/><path class="cls-64" d="M122,77.792a191.307,191.307,0,0,1-23.979,1.456,191.313,191.313,0,0,1-23.97-1.455,34.238,34.238,0,0,1,.576,5.732c0,.361-.021.741-.039,1.118a97.506,97.506,0,0,0,23.433,2.5,97.505,97.505,0,0,0,23.434-2.5c-.018-.378-.039-.758-.039-1.118A33.755,33.755,0,0,1,122,77.792Z" transform="translate(-35.517 -34.206)"/><path class="cls-65" d="M70.275,62.814a166.156,166.156,0,0,0,27.742,2.145A166.077,166.077,0,0,0,125.8,62.807l.536-1.926c1.072-3.907,1.9-7.358,1.9-9.693,0-6.731-13.527-10.346-30.214-10.346S67.8,44.711,67.8,51.188c0,2.374.917,6.044,2.078,10.219Z" transform="translate(-35.517 -34.206)"/><path class="cls-66" d="M128.231,51.648c0-7.8-13.527-10.806-30.214-10.806S67.8,43.844,67.8,51.648,81.33,62.535,98.017,62.535,128.231,59.452,128.231,51.648Z" transform="translate(-35.517 -34.206)"/><path class="cls-67" d="M118.119,50.785c0-4.752-9-7.236-20.1-7.236s-20.1,2.484-20.1,7.236,9,7.236,20.1,7.236S118.119,55.537,118.119,50.785Z" transform="translate(-35.517 -34.206)"/></g></g></svg>