<svg id="Layer_1" data-name="Layer 1" xmlns="http://www.w3.org/2000/svg" xmlns:xlink="http://www.w3.org/1999/xlink" viewBox="0 0 166.557 173.67"><defs><style>.cls-1{fill:url(#radial-gradient);}.cls-2{fill:url(#radial-gradient-2);}.cls-3{fill:url(#linear-gradient);}.cls-4{mask:url(#mask);}.cls-5{fill:url(#radial-gradient-3);}.cls-6{mask:url(#mask-2);}.cls-7{fill:#8ec8ce;}.cls-13,.cls-14,.cls-21,.cls-22,.cls-8,.cls-9{fill:none;}.cls-8{stroke:#aadde2;}.cls-13,.cls-14,.cls-22,.cls-8,.cls-9{stroke-linecap:round;stroke-linejoin:round;}.cls-9{stroke:#78b7ba;}.cls-14,.cls-22,.cls-9{stroke-dasharray:0.5 5;}.cls-10{opacity:0.8;}.cls-11{isolation:isolate;}.cls-12{stroke:#8679a8;fill:url(#radial-gradient-4);}.cls-12,.cls-21{stroke-miterlimit:10;}.cls-13{stroke:#c5bbea;}.cls-13,.cls-14{stroke-width:3px;}.cls-14{stroke:#9a87cc;}.cls-15{fill:url(#radial-gradient-5);}.cls-16{fill:#4b4b96;}.cls-17{fill:url(#linear-gradient-2);}.cls-18{fill:#c15c59;}.cls-19{mask:url(#mask-3);}.cls-20{fill:url(#radial-gradient-6);}.cls-21{stroke:#d8867f;}.cls-21,.cls-22{stroke-width:2px;}.cls-22{stroke:#6e3836;}.cls-23{fill:url(#radial-gradient-7);}.cls-24{fill:url(#radial-gradient-8);}.cls-25{fill:url(#radial-gradient-9);}.cls-26{fill:url(#radial-gradient-10);}.cls-27{fill:url(#radial-gradient-11);}.cls-28{fill:url(#radial-gradient-12);}.cls-29{fill:url(#radial-gradient-13);}.cls-30{fill:url(#radial-gradient-14);}.cls-31{fill:url(#radial-gradient-15);}</style><radialGradient id="radial-gradient" cx="62.074" cy="103.623" r="165.685" gradientTransform="translate(-2.114 50.485) rotate(-2.227) scale(1 0.536)" gradientUnits="userSpaceOnUse"><stop offset="0.755" stop-color="#fff"/><stop offset="0.76" stop-color="#e8e8e8"/><stop offset="0.771" stop-color="#b8b8b8"/><stop offset="0.782" stop-color="#8c8c8c"/><stop offset="0.794" stop-color="#666"/><stop offset="0.807" stop-color="#474747"/><stop offset="0.821" stop-color="#2d2d2d"/><stop offset="0.837" stop-color="#191919"/><stop offset="0.854" stop-color="#0b0b0b"/><stop offset="0.876" stop-color="#020202"/><stop offset="0.913"/></radialGradient><radialGradient id="radial-gradient-2" cx="44.012" cy="215.397" r="175.762" gradientTransform="matrix(0.36, 0.959, -0.485, 0.22, 158.287, -10.829)" gradientUnits="userSpaceOnUse"><stop offset="0.687" stop-color="#fff"/><stop offset="0.725" stop-color="#adadad"/><stop offset="0.763" stop-color="#636363"/><stop offset="0.794" stop-color="#2d2d2d"/><stop offset="0.817" stop-color="#0c0c0c"/><stop offset="0.83"/></radialGradient><linearGradient id="linear-gradient" x1="58.858" y1="173.591" x2="50.447" y2="145.869" gradientTransform="matrix(1.066, 0, 0, -0.956, -24.803, 260.263)" gradientUnits="userSpaceOnUse"><stop offset="0.036"/><stop offset="0.406" stop-color="#fff"/><stop offset="0.462" stop-color="#cacaca"/><stop offset="0.526" stop-color="#959595"/><stop offset="0.59" stop-color="#676767"/><stop offset="0.654" stop-color="#424242"/><stop offset="0.718" stop-color="#252525"/><stop offset="0.781" stop-color="#101010"/><stop offset="0.843" stop-color="#040404"/><stop offset="0.903"/></linearGradient><mask id="mask" x="-8.43" y="-4.64" width="182.442" height="182.442" maskUnits="userSpaceOnUse"><g transform="translate(-13.412 -11.307)"><rect class="cls-1" x="4.983" y="6.667" width="182.442" height="182.442"/></g></mask><radialGradient id="radial-gradient-3" cx="80.162" cy="75.586" r="95.831" gradientTransform="translate(-5.713 25.395) rotate(-5.997) scale(1 0.779)" gradientUnits="userSpaceOnUse"><stop offset="0" stop-color="#fff"/><stop offset="0.998" stop-color="#7e929e"/></radialGradient><mask id="mask-2" x="-50.595" y="-3.387" width="239.87" height="181.776" maskUnits="userSpaceOnUse"><g transform="translate(-13.412 -11.307)"><ellipse class="cls-2" cx="82.752" cy="98.808" rx="87.597" ry="122.317" transform="translate(-35.425 150.237) rotate(-73.571)"/></g></mask><radialGradient id="radial-gradient-4" cx="108.05" cy="841.801" r="32.126" gradientTransform="translate(-56.704 -749.197) scale(1.102 1)" gradientUnits="userSpaceOnUse"><stop offset="0" stop-color="#fff"/><stop offset="1" stop-color="#655782"/></radialGradient><radialGradient id="radial-gradient-5" cx="101.985" cy="851.86" r="6.2" gradientTransform="translate(-56.704 -749.197) scale(1.102 1)" gradientUnits="userSpaceOnUse"><stop offset="0" stop-color="#afbaf7"/><stop offset="0.312" stop-color="#b898ce"/><stop offset="0.803" stop-color="#515181"/></radialGradient><linearGradient id="linear-gradient-2" x1="65.241" y1="782.135" x2="40.51" y2="787.04" gradientTransform="matrix(0.999, -0.372, 0.334, 0.895, -280.891, -568.943)" gradientUnits="userSpaceOnUse"><stop offset="0" stop-color="#d8867f"/><stop offset="1" stop-color="#6e3836"/></linearGradient><mask id="mask-3" x="7.075" y="79.389" width="26.047" height="33.569" maskUnits="userSpaceOnUse"><g transform="translate(-13.412 -11.307)"><g id="SVGID"><rect class="cls-3" x="25.124" y="92.694" width="16.774" height="29.572" transform="translate(-35.433 18.476) rotate(-20.445)"/></g></g></mask><radialGradient id="radial-gradient-6" cx="-1056.627" cy="426.53" r="11.16" gradientTransform="matrix(-1.053, 0.104, 0.074, 1.877, -1105.472, -582.405)" gradientUnits="userSpaceOnUse"><stop offset="0.782" stop-color="#fff" stop-opacity="0"/><stop offset="0.852" stop-color="#ffba94"/><stop offset="0.9" stop-color="#fff" stop-opacity="0"/></radialGradient><radialGradient id="radial-gradient-7" cx="-94.861" cy="912.06" r="4.43" gradientTransform="translate(175.863 -844.756)" gradientUnits="userSpaceOnUse"><stop offset="0" stop-color="#e9d74d"/><stop offset="1" stop-color="#7aa375"/></radialGradient><radialGradient id="radial-gradient-8" cx="-67.711" cy="910.586" r="4.09" gradientTransform="translate(175.388 -848.567)" xlink:href="#radial-gradient-7"/><radialGradient id="radial-gradient-9" cx="-67.353" cy="927.59" r="3.161" gradientTransform="translate(177.739 -848.746)" xlink:href="#radial-gradient-7"/><radialGradient id="radial-gradient-10" cx="-70.016" cy="940.49" r="5.98" gradientTransform="translate(179.698 -848.606)" xlink:href="#radial-gradient-7"/><radialGradient id="radial-gradient-11" cx="-40.686" cy="941.96" r="3.272" gradientTransform="translate(179.523 -852.688)" xlink:href="#radial-gradient-7"/><radialGradient id="radial-gradient-12" cx="-53.5" cy="954.655" r="3.414" gradientTransform="translate(181.442 -850.985)" xlink:href="#radial-gradient-7"/><radialGradient id="radial-gradient-13" cx="-66.205" cy="980.469" r="4.784" gradientTransform="translate(185.275 -849.514)" xlink:href="#radial-gradient-7"/><radialGradient id="radial-gradient-14" cx="-29.144" cy="970.028" r="3.272" gradientTransform="translate(183.381 -854.605)" xlink:href="#radial-gradient-7"/><radialGradient id="radial-gradient-15" cx="-38.672" cy="989.475" r="4.609" gradientTransform="translate(186.27 -853.462)" xlink:href="#radial-gradient-7"/></defs><title>necrotic_cell</title><g id="CELL"><g class="cls-4"><path id="CELL-2" data-name="CELL" class="cls-5" d="M86.9,166.862A130.162,130.162,0,0,0,126.3,160.9c2.379-.734,7.921,7.222-.375,12.622-1.461.951-.445,13.839,13.89,11.059s9.992-15.647,8.248-15.377c-10.109,1.562-7.346-13.085-5.85-13.581,9.56-3.17,13.974-6.65,18.691-11.956,8.15-9.168,26.367-41.5,8.505-64.44C157.8,64.32,134.833,51.2,114.937,44.949c-5.185-1.628,2.762-18.974,10.051-15.794,4.861,2.121,11.87-13.375-8.72-17.458C102.809,9.028,100.911,20.822,104.989,24c9.085,7.087-.694,18.782-1.922,18.66-6.169-.612-11.729-.129-16.164,1.719C66.49,52.889,29.066,59.837,18.86,85.707S16.308,166.011,86.9,166.862Z" transform="translate(-13.412 -11.307)"/></g><g class="cls-6"><g id="MEMBRANE"><path id="MEMBRANE-2" data-name="MEMBRANE" class="cls-7" d="M101.881,27.113c7.638,2.646,3.786,13.446,1.892,13.208a43.685,43.685,0,0,0-11.537.047,27.731,27.731,0,0,0-5.8,1.506c-.506.178-.888.338-1.306.5l-1.24.491c-.839.312-1.667.639-2.516.94-13.5,4.916-27.791,9.135-40.673,16.71a69.1,69.1,0,0,0-9.188,6.407A50.735,50.735,0,0,0,24.649,73.9a39.049,39.049,0,0,0-6.976,11.342c-3.791,9.609-5.163,22.9-2.014,36.057A55.376,55.376,0,0,0,24.27,141.99a55.962,55.962,0,0,0,17.953,16.618c1.739,1.1,3.6,1.963,5.433,2.888l2.82,1.213c.472.2.939.409,1.415.594l1.441.518a87.4,87.4,0,0,0,11.739,3.368,111.885,111.885,0,0,0,24.146,2.057,118.237,118.237,0,0,0,12.044-1.142c1.991-.249,3.958-.618,5.934-.934,1.961-.4,3.927-.76,5.877-1.2a90.324,90.324,0,0,0,13.4-3.509c1.334-.456,4.453,8.708-3.781,8.107l3.228,2.955c10.364-4.5,2.157-14.741.785-14.4h0c-.949.239-1.912.434-2.866.653-3.816.879-7.662,1.632-11.52,2.287a158.708,158.708,0,0,1-23.2,2.353c-1.895.027-3.84-.064-5.779-.149-1.942-.041-3.865-.251-5.794-.411l-1.446-.119-1.436-.182-2.871-.371c-1.91-.264-3.795-.658-5.69-.989a82.386,82.386,0,0,1-11.074-3.057l-1.355-.47c-.446-.168-.882-.362-1.324-.541l-2.639-1.1c-1.7-.844-3.442-1.631-5.081-2.59a54.641,54.641,0,0,1-17.138-14.758,53.379,53.379,0,0,1-5.9-9.808,58.517,58.517,0,0,1-3.847-10.9c-.007-.027-.012-.055-.019-.082-2.486-12-1.134-23.957,2.322-32.716a36.11,36.11,0,0,1,5.8-9.734,47.575,47.575,0,0,1,7.719-6.88A73.381,73.381,0,0,1,42.634,64a151.434,151.434,0,0,1,19.831-8.3c6.813-2.4,13.747-4.565,20.679-7.11.864-.317,1.728-.668,2.592-1l1.294-.529c.427-.174.884-.369,1.238-.492a22.76,22.76,0,0,1,4.738-1.279,27.847,27.847,0,0,1,10.255-.177c3.061.677,10.216-14.434,1.729-21.108Zm23.107,2.042c-13.83-2.634-14.749,17.633-10.87,17.885,3.388.22,6.556,1.86,9.782,2.983a136.586,136.586,0,0,1,19.384,8.758c10.265,6.2,19.09,13.579,24.941,21.017a39.231,39.231,0,0,1,4.4,9.124,44.645,44.645,0,0,1,1.262,20.3,81.954,81.954,0,0,1-6.04,20.048,97.884,97.884,0,0,1-4.4,8.894,45.3,45.3,0,0,1-3.5,4.656c-4.467,5.025-8.9,7.184-17.849,11.295-4.448,2.044-5.9,15.657,5.962,15.09l1.727-3.637c-9.273,2.818-8.4-8.4-7.035-8.914,9.609-3.6,14.243-6.673,19.1-12.139a50.838,50.838,0,0,0,3.9-5.066,63.361,63.361,0,0,0,5.667-8.388,62.64,62.64,0,0,0,7.508-21.075,46.158,46.158,0,0,0,.32-11.408,36.675,36.675,0,0,0-2.883-11.1,34.141,34.141,0,0,0-6.116-9.224c-6.157-7.838-15.5-15.594-26.325-22.047a114.92,114.92,0,0,0-18.6-9.881,89.094,89.094,0,0,0-10.52-3.709c-1.787-.505,2.064-12.976,8.971-9.609Z" transform="translate(-13.412 -11.307)"/><path id="MEMBRANE-3" data-name="MEMBRANE" class="cls-8" d="M101.881,27.113c7.7,2.413,3.709,13.436,1.892,13.208a43.685,43.685,0,0,0-11.537.047,27.731,27.731,0,0,0-5.8,1.506c-.506.178-.888.338-1.306.5l-1.24.491c-.839.312-1.667.639-2.516.94-13.5,4.916-27.791,9.135-40.673,16.71a69.1,69.1,0,0,0-9.188,6.407A50.735,50.735,0,0,0,24.649,73.9a39.049,39.049,0,0,0-6.976,11.342c-3.791,9.609-5.163,22.9-2.014,36.057A55.376,55.376,0,0,0,24.27,141.99a55.962,55.962,0,0,0,17.953,16.618c1.739,1.1,3.6,1.963,5.433,2.888l2.82,1.213c.472.2.939.409,1.415.594l1.441.518a87.4,87.4,0,0,0,11.739,3.368,111.885,111.885,0,0,0,24.146,2.057,118.237,118.237,0,0,0,12.044-1.142c1.991-.249,3.958-.618,5.934-.934,1.961-.4,3.927-.76,5.877-1.2a90.241,90.241,0,0,0,13.4-3.509c1.331-.455,4.5,8.777-3.781,8.107m27.093-5c-9.382,2.681-8.478-8.37-7.035-8.914,9.512-3.586,14.282-6.717,19.1-12.139a50.838,50.838,0,0,0,3.9-5.066,63.361,63.361,0,0,0,5.667-8.388,62.64,62.64,0,0,0,7.508-21.075,46.158,46.158,0,0,0,.32-11.408,36.675,36.675,0,0,0-2.883-11.1,34.141,34.141,0,0,0-6.116-9.224c-6.157-7.838-15.5-15.594-26.325-22.047a114.92,114.92,0,0,0-18.6-9.881,89.094,89.094,0,0,0-10.52-3.709c-1.86-.526,1.779-12.764,8.971-9.609m1.206-3.851c-13.363-2.32-15.2,16.909-10.386,18.01a88.6,88.6,0,0,1,9.3,2.859,136.586,136.586,0,0,1,19.384,8.758c10.265,6.2,19.09,13.579,24.941,21.017a39.231,39.231,0,0,1,4.4,9.124,44.645,44.645,0,0,1,1.262,20.3,81.954,81.954,0,0,1-6.04,20.048,97.884,97.884,0,0,1-4.4,8.894,45.3,45.3,0,0,1-3.5,4.656c-4.485,5.045-8.8,7.3-17.849,11.295-4.63,2.044-5.736,15.7,5.962,15.09m-22.138,4.319c10.476-4.487,2.1-14.734.785-14.4-.155.039.155-.037,0,0h0c-.949.239-1.912.434-2.866.653-3.816.879-7.662,1.632-11.52,2.287a158.708,158.708,0,0,1-23.2,2.353c-1.895.027-3.84-.064-5.779-.149-1.942-.041-3.865-.251-5.794-.411l-1.446-.119-1.436-.182-2.871-.371c-1.91-.264-3.795-.658-5.69-.989a82.386,82.386,0,0,1-11.074-3.057l-1.355-.47c-.446-.168-.882-.362-1.324-.541l-2.639-1.1c-1.7-.844-3.442-1.631-5.081-2.59a54.641,54.641,0,0,1-17.138-14.758,53.379,53.379,0,0,1-5.9-9.808,58.517,58.517,0,0,1-3.847-10.9c-.007-.027-.012-.055-.019-.082-2.486-12-1.134-23.957,2.322-32.716a36.11,36.11,0,0,1,5.8-9.734,47.575,47.575,0,0,1,7.719-6.88A73.381,73.381,0,0,1,42.634,64a151.434,151.434,0,0,1,19.831-8.3c6.813-2.4,13.747-4.565,20.679-7.11.864-.317,1.728-.668,2.592-1l1.294-.529c.427-.174.884-.369,1.238-.492a22.76,22.76,0,0,1,4.738-1.279,36.86,36.86,0,0,1,10.255-.177c4.1.518,9.1-15.8,1.729-21.108" transform="translate(-13.412 -11.307)"/><path id="MEMBRANE-4" data-name="MEMBRANE" class="cls-9" d="M101.881,27.113c7.656,2.088,3.8,13.448,1.892,13.208a43.685,43.685,0,0,0-11.537.047,27.731,27.731,0,0,0-5.8,1.506c-.506.178-.888.338-1.306.5l-1.24.491c-.839.312-1.667.639-2.516.94-13.5,4.916-27.791,9.135-40.673,16.71a69.1,69.1,0,0,0-9.188,6.407A50.735,50.735,0,0,0,24.649,73.9a39.049,39.049,0,0,0-6.976,11.342c-3.791,9.609-5.163,22.9-2.014,36.057A55.376,55.376,0,0,0,24.27,141.99a55.962,55.962,0,0,0,17.953,16.618c1.739,1.1,3.6,1.963,5.433,2.888l2.82,1.213c.472.2.939.409,1.415.594l1.441.518a87.4,87.4,0,0,0,11.739,3.368,111.885,111.885,0,0,0,24.146,2.057,118.237,118.237,0,0,0,12.044-1.142c1.991-.249,3.958-.618,5.934-.934,1.961-.4,3.927-.76,5.877-1.2a90.241,90.241,0,0,0,13.4-3.509c1.331-.455,4.528,8.777-3.781,8.107m27.093-5c-9.382,2.681-8.478-8.37-7.035-8.914,9.512-3.586,14.282-6.717,19.1-12.139a50.838,50.838,0,0,0,3.9-5.066,63.361,63.361,0,0,0,5.667-8.388,62.64,62.64,0,0,0,7.508-21.075,46.158,46.158,0,0,0,.32-11.408,36.675,36.675,0,0,0-2.883-11.1,34.141,34.141,0,0,0-6.116-9.224c-6.157-7.838-15.5-15.594-26.325-22.047a114.92,114.92,0,0,0-18.6-9.881,89.094,89.094,0,0,0-10.52-3.709c-1.769-.5,1.64-12.811,8.971-9.609m1.206-3.851c-13.224-2.413-15.166,16.915-10.536,17.971a89.47,89.47,0,0,1,9.448,2.9,136.586,136.586,0,0,1,19.384,8.758c10.265,6.2,19.09,13.579,24.941,21.017a39.231,39.231,0,0,1,4.4,9.124,44.645,44.645,0,0,1,1.262,20.3,81.954,81.954,0,0,1-6.04,20.048,97.884,97.884,0,0,1-4.4,8.894,45.3,45.3,0,0,1-3.5,4.656c-4.476,5.035-8.813,7.327-17.849,11.295-4.448,1.953-5.909,15.617,5.962,15.09m-22.138,4.319c10.435-4.452,2.087-14.731.785-14.4-.171.043.172-.041,0,0h0c-.949.239-1.912.434-2.866.653-3.816.879-7.662,1.632-11.52,2.287a158.708,158.708,0,0,1-23.2,2.353c-1.895.027-3.84-.064-5.779-.149-1.942-.041-3.865-.251-5.794-.411l-1.446-.119-1.436-.182-2.871-.371c-1.91-.264-3.795-.658-5.69-.989a82.386,82.386,0,0,1-11.074-3.057l-1.355-.47c-.446-.168-.882-.362-1.324-.541l-2.639-1.1c-1.7-.844-3.442-1.631-5.081-2.59a54.641,54.641,0,0,1-17.138-14.758,53.379,53.379,0,0,1-5.9-9.808,58.517,58.517,0,0,1-3.847-10.9c-.007-.027-.012-.055-.019-.082-2.486-12-1.134-23.957,2.322-32.716a36.11,36.11,0,0,1,5.8-9.734,47.575,47.575,0,0,1,7.719-6.88A73.381,73.381,0,0,1,42.634,64a151.434,151.434,0,0,1,19.831-8.3c6.813-2.4,13.747-4.565,20.679-7.11.864-.317,1.728-.668,2.592-1l1.294-.529c.427-.174.884-.369,1.238-.492a22.76,22.76,0,0,1,4.738-1.279,36.376,36.376,0,0,1,10.255-.177c4.569.6,8.689-16.978,1.729-21.108" transform="translate(-13.412 -11.307)"/></g></g><g id="NUCLEUS" class="cls-10"><g id="NUCLEUS-2" data-name="NUCLEUS" class="cls-11"><ellipse class="cls-12" cx="69.336" cy="102.782" rx="26.929" ry="24.443"/><path class="cls-13" d="M109.677,113.954c0-13.425-12.467-24.308-27.846-24.308-13.4,0-26.011,11.018-26.011,24.443s12.442,24.443,27.821,24.443S109.677,127.379,109.677,113.954Z" transform="translate(-13.412 -11.307)"/><path class="cls-14" d="M109.677,113.954c0-13.425-12.467-24.308-27.846-24.308-13.4,0-26.011,11.018-26.011,24.443s12.442,24.443,27.821,24.443S109.677,127.379,109.677,113.954Z" transform="translate(-13.412 -11.307)"/></g><g id="NUCLEOLUS"><ellipse class="cls-15" cx="55.674" cy="102.647" rx="5.495" ry="4.987"/><path class="cls-16" d="M69.086,119.211a5.257,5.257,0,1,1,5.742-5.257A5.5,5.5,0,0,1,69.086,119.211Zm0-10.02a4.785,4.785,0,1,0,5.247,4.763A5.024,5.024,0,0,0,69.086,109.191Z" transform="translate(-13.412 -11.307)"/></g></g><g id="MITOCHONDRION" class="cls-10"><path class="cls-17" d="M40.418,89.27c-3.426-.8-8.979,3.106-12.212,7.162-4.841,6.106-2.209,20.543,3.37,29.289,3.382,5.312,6.761,6.276,8.971,6.129a6.756,6.756,0,0,0,1.894-.416,9.192,9.192,0,0,0,4.5-4c1.86-3.11,2.551-7.911.006-11.554-4.2-5.924-3.955-10.9-3.739-16.682.062-1.715.155-3.489.106-5.356C43.213,90.548,41.7,89.518,40.418,89.27Z" transform="translate(-13.412 -11.307)"/><path class="cls-18" d="M41.814,97.5c-.852-.117-4.1,1-5.871,1.609-3.251,1.115-4.308,1.461-4.987,1.086a.959.959,0,0,1-.4-.626c-.017-1.057,1.609-1.615,5.6-2.91,1.925-.621,5.05-1.641,5.6-2.185a1.519,1.519,0,0,1,.015-.537c-.081-1.952-.665-3.087-1.85-3.37-2.416-.549-7.369,2.506-10.539,6.587a12.5,12.5,0,0,0-2.157,6.942,31.114,31.114,0,0,0,5.224-1.464c3.977-1.337,5.792-1.821,6.676-1.329a.884.884,0,0,1,.49.736c.112,1.312-1.956,1.841-5.049,2.656-2.951.762-7.48,1.919-7.242,3.57a38.462,38.462,0,0,0,2.075,9.328c.742.11,3.567-.991,5.255-1.669,3.819-1.472,6.6-2.556,7.292-1.123a.9.9,0,0,1-.047.887c-.441.841-1.877,1.328-4.607,2.249-.821.258-1.783.568-2.683.9-1.7.635-3.219,1.345-3.581,2.108a.813.813,0,0,0,.048.707,36.1,36.1,0,0,0,1.8,3.243c2.624,4.145,5.656,6.06,8.481,5.393,2.73-.631,5.017-3.61,5.614-7.216a.059.059,0,0,0-.032-.085c-.584-.266-3.85,1.242-5.413,1.969-2.9,1.324-4.513,2.069-5.082,1.121a1.051,1.051,0,0,1-.064-.894c.378-1.011,2.129-1.809,5.191-3.143,1.673-.72,5.1-2.238,5.222-2.914a8.243,8.243,0,0,0-1.139-2.475,21.4,21.4,0,0,1-3.21-6.585c-.047-.127-.079-.212-.205-.262-1.026-.439-4.356.754-6.581,1.583-2.746,1.024-4.229,1.528-5.019,1.146a.956.956,0,0,1-.521-.676c-.3-1.531,2.3-2.357,5.9-3.553,1.578-.54,5.713-1.888,5.68-2.553A59.937,59.937,0,0,1,41.7,99.23C41.751,98.633,41.767,98.1,41.814,97.5Z" transform="translate(-13.412 -11.307)"/><g class="cls-19"><path id="LIGHT" class="cls-20" d="M35.574,91.753c-1.325.784-8.5,4.234-8.324,12.383.164,7.237.735,11.229,4.4,18.609,0,0-4.244-16.736-.777-23.345S35.574,91.753,35.574,91.753Z" transform="translate(-13.412 -11.307)"/></g><path class="cls-21" d="M40.418,89.27c-3.426-.8-8.979,3.106-12.212,7.162-4.841,6.106-2.209,20.543,3.37,29.289,3.382,5.312,6.761,6.276,8.971,6.129a6.756,6.756,0,0,0,1.894-.416,9.192,9.192,0,0,0,4.5-4c1.86-3.11,2.551-7.911.006-11.554-4.2-5.924-3.955-10.9-3.739-16.682.062-1.715.155-3.489.106-5.356C43.213,90.548,41.7,89.518,40.418,89.27Z" transform="translate(-13.412 -11.307)"/><path class="cls-22" d="M40.418,89.27c-3.426-.8-8.979,3.106-12.212,7.162-4.841,6.106-2.209,20.543,3.37,29.289,3.382,5.312,6.761,6.276,8.971,6.129a6.756,6.756,0,0,0,1.894-.416,9.192,9.192,0,0,0,4.5-4c1.86-3.11,2.551-7.911.006-11.554-4.2-5.924-3.955-10.9-3.739-16.682.062-1.715.155-3.489.106-5.356C43.213,90.548,41.7,89.518,40.418,89.27Z" transform="translate(-13.412 -11.307)"/></g><g id="LYSOSOME" class="cls-10"><circle id="LYSOSOME-2" data-name="LYSOSOME" class="cls-23" cx="81.831" cy="68.557" r="3.52" transform="translate(-22.296 0.972) rotate(-8.141)"/><circle id="LYSOSOME-3" data-name="LYSOSOME" class="cls-24" cx="108.371" cy="63.31" r="4.101" transform="translate(-21.286 4.678) rotate(-8.141)"/><circle id="LYSOSOME-4" data-name="LYSOSOME" class="cls-25" cx="110.801" cy="79.743" r="3.134" transform="translate(-23.588 5.187) rotate(-8.141)"/><circle id="LYSOSOME-5" data-name="LYSOSOME" class="cls-26" cx="110.801" cy="93.574" r="4.752" transform="translate(-25.547 5.327) rotate(-8.141)"/><circle id="LYSOSOME-6" data-name="LYSOSOME" class="cls-27" cx="139.392" cy="90.305" r="3.281" transform="translate(-24.796 9.343) rotate(-8.141)"/><circle id="LYSOSOME-7" data-name="LYSOSOME" class="cls-28" cx="128.389" cy="104.64" r="3.385" transform="translate(-26.937 7.929) rotate(-8.141)"/><circle id="LYSOSOME-8" data-name="LYSOSOME" class="cls-29" cx="119.965" cy="132.308" r="3.801" transform="translate(-30.94 7.015) rotate(-8.141)"/><circle id="LYSOSOME-9" data-name="LYSOSOME" class="cls-30" cx="154.793" cy="116.455" r="3.281" transform="translate(-28.344 11.787) rotate(-8.141)"/><circle id="LYSOSOME-10" data-name="LYSOSOME" class="cls-31" cx="148.202" cy="137.323" r="4.57" transform="translate(-31.365 11.064) rotate(-8.141)"/></g></g></svg>