<svg id="Layer_1" data-name="Layer 1" xmlns="http://www.w3.org/2000/svg" xmlns:xlink="http://www.w3.org/1999/xlink" viewBox="0 0 22.312 159.757"><defs><style>.cls-1{fill:url(#linear-gradient);}.cls-2{fill:url(#radial-gradient);}.cls-3{fill:url(#linear-gradient-2);}.cls-4{fill:url(#linear-gradient-3);}.cls-5{fill:url(#radial-gradient-2);}</style><linearGradient id="linear-gradient" x1="96.99" y1="232.754" x2="104.296" y2="232.754" gradientTransform="translate(-0.001 -96.048)" gradientUnits="userSpaceOnUse"><stop offset="0" stop-color="#41c4b9"/><stop offset="0.101" stop-color="#67e2d8"/><stop offset="0.189" stop-color="#80f7ed"/><stop offset="0.241" stop-color="#8afff5"/><stop offset="0.446" stop-color="#5ddbd0"/><stop offset="0.596" stop-color="#41c4b9"/><stop offset="1" stop-color="#0a4d47"/></linearGradient><radialGradient id="radial-gradient" cx="-343.219" cy="670.473" r="15.214" gradientTransform="matrix(0, -4.265, 0.975, 0, -555.409, -1390.869)" gradientUnits="userSpaceOnUse"><stop offset="0" stop-color="#8afff5"/><stop offset="0.041" stop-color="#7ef5eb"/><stop offset="0.175" stop-color="#5ddbd0"/><stop offset="0.285" stop-color="#48cabf"/><stop offset="0.359" stop-color="#41c4b9"/><stop offset="1" stop-color="#0a4d47"/></radialGradient><linearGradient id="linear-gradient-2" x1="-349.892" y1="626.748" x2="-330.674" y2="626.748" gradientTransform="translate(-526.069 -1390.869) rotate(-90) scale(4.265 1)" gradientUnits="userSpaceOnUse"><stop offset="0" stop-color="#41c4b9" stop-opacity="0"/><stop offset="1" stop-color="#0a4d47"/></linearGradient><linearGradient id="linear-gradient-3" x1="89.949" y1="139.441" x2="112.396" y2="139.822" gradientTransform="matrix(1, 0, 0, -1, 0, 200.177)" gradientUnits="userSpaceOnUse"><stop offset="0" stop-color="#0a4d47"/><stop offset="0.071" stop-color="#0a4d47" stop-opacity="0.708"/><stop offset="0.184" stop-color="#0a4d47" stop-opacity="0.321"/><stop offset="0.28" stop-color="#0a4d47" stop-opacity="0.085"/><stop offset="0.35" stop-color="#0a4d47" stop-opacity="0"/><stop offset="0.528" stop-color="#0a4d47" stop-opacity="0.219"/><stop offset="0.88" stop-color="#0a4d47" stop-opacity="0.788"/><stop offset="1" stop-color="#0a4d47"/></linearGradient><radialGradient id="radial-gradient-2" cx="142.611" cy="171.387" r="18.236" gradientTransform="matrix(0.69, -0.096, -0.019, -0.278, -87.414, 70.667)" gradientUnits="userSpaceOnUse"><stop offset="0" stop-color="#0a4d47"/><stop offset="0.182" stop-color="#0c514b"/><stop offset="0.366" stop-color="#115d57"/><stop offset="0.551" stop-color="#1b726a"/><stop offset="0.737" stop-color="#288e85"/><stop offset="0.921" stop-color="#39b2a8"/><stop offset="1" stop-color="#41c4b9"/></radialGradient></defs><title>PTPRD</title><g id="PTPRD"><path class="cls-1" d="M100.679,179.3a3.618,3.618,0,0,1-3.618-3.618V97.734a3.618,3.618,0,0,1,7.236,0v77.943A3.618,3.618,0,0,1,100.679,179.3Z" transform="translate(-89.524 -19.539)"/><path class="cls-2" d="M108.193,61.523c0,22.085-.137,39.984-3.724,39.984H96.89c-3.587,0-3.724-17.9-3.724-39.984s-6.1-39.984-2.513-39.984a35.575,35.575,0,0,1,10.026-2,35.575,35.575,0,0,1,10.026,2C114.293,21.539,108.193,39.438,108.193,61.523Z" transform="translate(-89.524 -19.539)"/><path class="cls-3" d="M108.193,61.523c0,22.085-.137,39.984-3.724,39.984H96.89c-3.587,0-3.724-17.9-3.724-39.984s-6.1-39.984-2.513-39.984a35.575,35.575,0,0,1,10.026-2,35.575,35.575,0,0,1,10.026,2C114.293,21.539,108.193,39.438,108.193,61.523Z" transform="translate(-89.524 -19.539)"/><path class="cls-4" d="M108.193,61.523c0,22.085-.137,39.984-3.724,39.984H96.89c-3.587,0-3.724-17.9-3.724-39.984s-6.1-39.984-2.513-39.984a35.575,35.575,0,0,1,10.026-2,35.575,35.575,0,0,1,10.026,2C114.293,21.539,108.193,39.438,108.193,61.523Z" transform="translate(-89.524 -19.539)"/><ellipse class="cls-5" cx="11.156" cy="5.901" rx="7.97" ry="2.667"/></g></svg>