<svg id="Layer_1" data-name="Layer 1" xmlns="http://www.w3.org/2000/svg" xmlns:xlink="http://www.w3.org/1999/xlink" viewBox="0 0 66.857 166.975"><defs><style>.cls-1{fill:url(#radial-gradient);}.cls-2{fill:#ff8c7a;stroke:#ff8c7a;stroke-miterlimit:10;stroke-width:0.25px;}.cls-3{fill:url(#radial-gradient-2);}.cls-4{fill:url(#radial-gradient-3);}</style><radialGradient id="radial-gradient" cx="201.736" cy="219.264" r="121.882" gradientTransform="matrix(-0.086, -0.83, -0.992, 0.021, 345.727, 240.745)" gradientUnits="userSpaceOnUse"><stop offset="0" stop-color="#ff8c7a"/><stop offset="0.254" stop-color="#fc8978"/><stop offset="0.425" stop-color="#f38072"/><stop offset="0.572" stop-color="#e47167"/><stop offset="0.705" stop-color="#cf5c57"/><stop offset="0.829" stop-color="#b34043"/><stop offset="0.944" stop-color="#911e2b"/><stop offset="1" stop-color="#7e0b1d"/></radialGradient><radialGradient id="radial-gradient-2" cx="287.262" cy="239.475" r="21.139" gradientTransform="matrix(0, -0.844, -0.825, 0, 274.328, 413.752)" gradientUnits="userSpaceOnUse"><stop offset="0" stop-color="#400611"/><stop offset="1" stop-color="#e37c6d"/></radialGradient><radialGradient id="radial-gradient-3" cx="54.875" cy="110.018" r="62.802" gradientUnits="userSpaceOnUse"><stop offset="0.926" stop-color="#ffcec9" stop-opacity="0"/><stop offset="0.935" stop-color="#ffcec9" stop-opacity="0.353"/><stop offset="0.946" stop-color="#ffcec9" stop-opacity="0.698"/><stop offset="0.953" stop-color="#ffcec9" stop-opacity="0.916"/><stop offset="0.956" stop-color="#ffcec9"/><stop offset="0.982" stop-color="#ffcec9" stop-opacity="0"/></radialGradient></defs><title>blood_vessel_1</title><g id="BLOOD_VESSEL"><path class="cls-1" d="M127.8,123.207c-8.545,33.15-31.813,47.328-47.132,55.656l-3.062,1.8c-3.879,2.113-7.435,1.084-10.211-2.282a10.077,10.077,0,0,1-1.946-4.425c-.254-2.457.689-6.451,3.262-7.852l2.188-1.31c19.494-10.6,48.951-26.612,42.353-90.516-3.111-30.132-.141-52.185.327-53.913,1.034-3.82,5.647-6.03,10.3-4.936s7.587,5.076,6.56,8.9c-.109.4-2.867,21.633.019,49.58a166.9,166.9,0,0,1,.7,28.033A148.421,148.421,0,0,1,127.8,123.207Z" transform="translate(-64.604 -15.15)"/><g id="HOLE"><ellipse class="cls-2" cx="73.128" cy="173.416" rx="8.398" ry="8.584" transform="translate(-74.642 -10.566) rotate(-3.36)"/><ellipse class="cls-3" cx="73.128" cy="173.416" rx="6.785" ry="6.935" transform="translate(-74.642 -10.566) rotate(-3.36)"/></g><path id="SHINE" class="cls-4" d="M79.232,164.274a1.927,1.927,0,0,0,.521.995,2.731,2.731,0,0,0,3.317.418l.825-.527c6.464-4.123,19.914-12.7,28.918-31.112a1.959,1.959,0,0,0-1.322-2.61,2.436,2.436,0,0,0-3.058.944c-8.557,17.5-21.379,25.678-27.542,29.608l-.837.535A1.711,1.711,0,0,0,79.232,164.274Z" transform="translate(-64.604 -15.15)"/></g></svg>