<svg id="Layer_1" data-name="Layer 1" xmlns="http://www.w3.org/2000/svg" xmlns:xlink="http://www.w3.org/1999/xlink" viewBox="0 0 168.687 74.699"><defs><style>.cls-1{fill:url(#linear-gradient);}.cls-2{fill:url(#linear-gradient-2);}.cls-3{fill:url(#linear-gradient-3);}.cls-4{fill:url(#linear-gradient-4);}.cls-5{fill:url(#linear-gradient-5);}.cls-6{fill:url(#linear-gradient-6);}.cls-7{fill:url(#linear-gradient-7);}.cls-8{mask:url(#mask);}.cls-9{opacity:0.8;fill:url(#radial-gradient);}.cls-10{fill:url(#radial-gradient-2);}.cls-11{fill:#d39d26;}</style><linearGradient id="linear-gradient" x1="-39.865" y1="146.6" x2="72.621" y2="146.6" gradientTransform="matrix(1.286, -0.473, 0.358, 1.071, 46.494, -39.108)" gradientUnits="userSpaceOnUse"><stop offset="0.273"/><stop offset="0.31" stop-color="#343434"/><stop offset="0.352" stop-color="#696969"/><stop offset="0.395" stop-color="#979797"/><stop offset="0.438" stop-color="#bdbdbd"/><stop offset="0.48" stop-color="#dadada"/><stop offset="0.522" stop-color="#eee"/><stop offset="0.563" stop-color="#fbfbfb"/><stop offset="0.602" stop-color="#fff"/><stop offset="0.625" stop-color="#f7f7f7"/><stop offset="0.66" stop-color="#e2e2e2"/><stop offset="0.703" stop-color="#bfbfbf"/><stop offset="0.753" stop-color="#8e8e8e"/><stop offset="0.807" stop-color="#505050"/><stop offset="0.865" stop-color="#050505"/><stop offset="0.869"/></linearGradient><linearGradient id="linear-gradient-2" x1="59.987" y1="96.888" x2="122.642" y2="96.888" gradientTransform="matrix(0.998, -0.034, 0, 1.002, -0.386, -5.646)" gradientUnits="userSpaceOnUse"><stop offset="0" stop-color="#593e02"/><stop offset="0.093" stop-color="#805903"/><stop offset="0.197" stop-color="#956a0d"/><stop offset="0.347" stop-color="#ac7e19"/><stop offset="0.487" stop-color="#ba8a20"/><stop offset="0.607" stop-color="#bf8e22"/><stop offset="0.724" stop-color="#af801a"/><stop offset="0.871" stop-color="#a17413"/><stop offset="1" stop-color="#9c7011"/></linearGradient><linearGradient id="linear-gradient-3" x1="31.281" y1="115.641" x2="120.423" y2="115.641" gradientTransform="matrix(0.998, -0.034, 0, 1.002, -0.386, -5.646)" gradientUnits="userSpaceOnUse"><stop offset="0" stop-color="#593e02"/><stop offset="0.093" stop-color="#805903"/><stop offset="0.253" stop-color="#92680c"/><stop offset="0.576" stop-color="#b3841c"/><stop offset="0.754" stop-color="#bf8e22"/><stop offset="1" stop-color="#9c7011"/></linearGradient><linearGradient id="linear-gradient-4" x1="16.061" y1="125.563" x2="85.194" y2="125.563" gradientTransform="matrix(0.998, -0.034, 0, 1.002, -0.386, -5.646)" gradientUnits="userSpaceOnUse"><stop offset="0" stop-color="#593e02"/><stop offset="0.093" stop-color="#805903"/><stop offset="0.227" stop-color="#956a0d"/><stop offset="0.419" stop-color="#ac7e19"/><stop offset="0.6" stop-color="#ba8a20"/><stop offset="0.754" stop-color="#bf8e22"/><stop offset="0.845" stop-color="#bc8b20"/><stop offset="0.918" stop-color="#b2831c"/><stop offset="0.985" stop-color="#a17413"/><stop offset="1" stop-color="#9c7011"/></linearGradient><linearGradient id="linear-gradient-5" x1="94.123" y1="105.743" x2="161.311" y2="105.743" gradientTransform="matrix(0.998, -0.034, 0, 1.002, -0.386, -5.646)" gradientUnits="userSpaceOnUse"><stop offset="0" stop-color="#593e02"/><stop offset="0.093" stop-color="#805903"/><stop offset="0.191" stop-color="#9d7111"/><stop offset="0.298" stop-color="#b6861d"/><stop offset="0.363" stop-color="#bf8e22"/><stop offset="0.5" stop-color="#b4851d"/><stop offset="0.79" stop-color="#a27514"/><stop offset="1" stop-color="#9c7011"/></linearGradient><linearGradient id="linear-gradient-6" x1="120.87" y1="88.216" x2="142.249" y2="88.216" gradientTransform="matrix(0.998, -0.034, 0, 1.002, -0.386, -5.646)" gradientUnits="userSpaceOnUse"><stop offset="0" stop-color="#593e02"/><stop offset="0.171" stop-color="#805903"/><stop offset="0.351" stop-color="#9d7211"/><stop offset="0.54" stop-color="#b6861e"/><stop offset="0.656" stop-color="#bf8e22"/><stop offset="1" stop-color="#9c7011"/></linearGradient><linearGradient id="linear-gradient-7" x1="48.221" y1="116.283" x2="185.149" y2="116.283" gradientTransform="matrix(0.998, -0.034, 0, 1.002, -0.386, -5.646)" gradientUnits="userSpaceOnUse"><stop offset="0" stop-color="#593e02"/><stop offset="0.093" stop-color="#805903"/><stop offset="0.206" stop-color="#91680b"/><stop offset="0.43" stop-color="#be8d22"/><stop offset="0.435" stop-color="#bf8e22"/><stop offset="0.71" stop-color="#bd8c21"/><stop offset="0.84" stop-color="#b5861d"/><stop offset="0.939" stop-color="#a97b17"/><stop offset="1" stop-color="#9c7011"/></linearGradient><mask id="mask" x="25.219" y="7.561" width="158.404" height="79.972" maskUnits="userSpaceOnUse"><g transform="translate(-15.657 -62.651)"><polygon class="cls-1" points="199.279 104.077 54.225 150.184 40.875 116.318 185.929 70.212 199.279 104.077"/></g></mask><radialGradient id="radial-gradient" cx="122.142" cy="104.421" r="37.122" gradientTransform="matrix(0.996, -0.233, 0.304, 1.103, -26.905, -5.802)" gradientUnits="userSpaceOnUse"><stop offset="0.307" stop-color="#805903" stop-opacity="0"/><stop offset="0.448" stop-color="#7e5803" stop-opacity="0.048"/><stop offset="0.598" stop-color="#795403" stop-opacity="0.191"/><stop offset="0.752" stop-color="#6f4d03" stop-opacity="0.43"/><stop offset="0.908" stop-color="#624402" stop-opacity="0.761"/><stop offset="1" stop-color="#593e02"/></radialGradient><radialGradient id="radial-gradient-2" cx="-3.991" cy="49.336" r="70.529" gradientTransform="matrix(0.259, 0.836, -1.501, 0.387, 155.265, 43.21)" gradientUnits="userSpaceOnUse"><stop offset="0.322" stop-color="#4c6100"/><stop offset="1" stop-color="#ff8600"/></radialGradient></defs><title>Endoplasmic_Reticulum_3D</title><g id="R-ICO-012673"><g id="_3D" data-name="3D"><path class="cls-2" d="M59.519,90.807s-2.149,22.862,24.125,11.755c13.581-5.741,24.063-14.532,32.089-17.41,7.042-2.525,6.219-14.5,6.219-14.5C106.123,83.524,95.263,88.365,59.519,90.807Z" transform="translate(-15.657 -62.651)"/><path class="cls-3" d="M31,102.688s-4.432,39.939,33.471,19.619c11.862-6.359,28.2-14.4,36.077-13.534,23.15,2.542,18.921-22.048,18.921-22.048C97.944,96.248,66.743,100.246,31,102.688Z" transform="translate(-15.657 -62.651)"/><path class="cls-4" d="M15.7,112.207s-1.54,20.679,13.291,14.989c12.521-4.8,25.872-.644,33.242,1.739C90,137.911,84.1,104.591,84.1,104.591,59.509,109.175,51.446,109.765,15.7,112.207Z" transform="translate(-15.657 -62.651)"/><path class="cls-5" d="M93.645,100.084c0,6.917-3.023,27.469,22.568,22.391,14.934-2.963,20.933-19.035,27.9-22.464,18.272-8.99,16.39-31.9,16.39-31.9C140.742,82.471,129.389,97.641,93.645,100.084Z" transform="translate(-15.657 -62.651)"/><path class="cls-6" d="M120.3,78.765s-1.986,21.646,13.192,9.079c3.952-3.272,5.737-2.087,6.776-6.514,1.341-5.715,1.273-16.76,1.273-16.76C136.407,72.018,129.74,75.1,120.3,78.765Z" transform="translate(-15.657 -62.651)"/><path class="cls-7" d="M48.1,115.516S44.6,139.4,59.514,136.989c13.317-2.157,29.257-32.964,53.316-18.334,10.384,6.314,36.037,6.434,44.169-14.909,5.331-13.994,10.443-16.436,14.754-16.271,14.149.541,12.536-11.089,12.536-11.089-4.451-1.188-32.5,16.552-64.473,26.23C92.056,111.019,65.5,114.092,48.1,115.516Z" transform="translate(-15.657 -62.651)"/><g class="cls-8"><path class="cls-9" d="M48.1,115.516s-3.476,25.11,11.415,21.474c13.105-3.2,29.257-32.964,53.316-18.334,10.384,6.314,36.037,6.434,44.169-14.909,5.331-13.994,10.443-16.436,14.754-16.271,14.149.541,12.536-11.089,12.536-11.089-4.451-1.188-32.5,16.552-64.473,26.23C92.056,111.019,65.5,114.092,48.1,115.516Z" transform="translate(-15.657 -62.651)"/></g></g><path id="FILL" class="cls-10" d="M155.971,89.852a164.168,164.168,0,0,1,16.339-9.083,7.2,7.2,0,0,1,3-.458c1.489.051,4.186.321,6.094-1.249,3.022-2.485,1.73-4.346-.145-5.944-1.848-1.575-11.669-6.1-15.705.725-1.427,2.413-11.383,9.711-18.825,14.271a118.367,118.367,0,0,1-17.912,8.879,7.164,7.164,0,0,1-4.552.061l-.357-.152c-.944-.4-.838-1.023.25-1.448,25.017-9.766,35.728-23.346,34.957-27.586-.054-.294-.446-.555-1.075-.726-4.5-1.225-9.7.062-9.765,1.63a6.76,6.76,0,0,1-1.059,2.813c-.376.646-2.2,1.087-3.913.946l-2.625-.217c-1.454-.12-2.326-.621-2.035-1.169a21.559,21.559,0,0,0,2.131-6.128c.206-1.082-2.055-1.935-5.052-1.906s-5.593.929-5.8,2.011c-.942,4.935-3.362,8.858-7.847,12.72-.915.788-.389,1.62,1.144,2.117a14.951,14.951,0,0,0,6.458.216,3.94,3.94,0,0,0,1.808-.644c.582-.482,1.129-.963,1.648-1.446a5.8,5.8,0,0,1,3.76-.764l2.046.169c1.7.14,2.547.787,1.849,1.4-1.357,1.191-2.921,2.439-4.715,3.722-7.058,5.05-19.637,12-39.238,16.132a2.708,2.708,0,0,0-1.639.782c-.615.977.1,1.7,1.423,2.133a13.385,13.385,0,0,0,6.34.135q3.082-.676,5.98-1.436a7.182,7.182,0,0,1,4.023.108l.74.314c1.064.452.781,1.172-.628,1.579q-4.558,1.319-9.462,2.5c-8.384,2.02-17.135,3.653-25.925,5.048-1.575.25-3.3.013-3.856-.531l-.257-.25c-.54-.525.2-1.151,1.684-1.426,2.146-.4,4.121-.8,5.869-1.2a2.544,2.544,0,0,0,1.513-.759c1.38-2.141-3.807-3.111-7.722-2.264-.948.205-1.968.412-3.049.618-1.751.334-3.767.036-4.18-.619l-.569-.9c-.335-.532.525-1.11,2-1.335,18.959-2.9,35.274-7.27,48.037-12.934,1.979-.878,1.753-2.1-.507-2.735a13.205,13.205,0,0,0-7.674.446q-2.476,1.1-5.156,2.124a7.169,7.169,0,0,1-4.494.039l-1.1-.466c-.984-.418-.816-1.069.373-1.494q2.093-.747,4.1-1.563c11.148-4.547,17.854-9.814,17.938-14.09.031-1.59-5.243-2.568-9.881-.972-.7.24-1.058.576-1.017.9.422,3.358-5.224,7.785-14.885,11.726-9.469,3.862-21.1,6.469-29.994,6.692a6.486,6.486,0,0,0-2.435.47c-2.51,1.186-1.993,2.335-.114,2.944a11.853,11.853,0,0,0,4.022.432,106.751,106.751,0,0,0,16.23-2.094,7.1,7.1,0,0,1,3.713.181l1.929.819c1.109.471.751,1.228-.781,1.621-14,3.584-33.2,6.285-51.55,7.494a5.745,5.745,0,0,0-2.21.524c-2.153,1.171-1.583,2.242.2,2.821a12.181,12.181,0,0,0,4.377.412l.529-.037c1.535-.109,5.636-.026,5.969.5l1.1,1.737c.364.577-.679,1.2-2.325,1.38-8.309.924-16.467,1.654-22.782,2.028a5.824,5.824,0,0,0-2.225.513c-2.227,1.174-1.665,2.26.138,2.845a12.112,12.112,0,0,0,4.3.417c9.305-.6,21.862-1.837,33.564-3.358,1.526-.2,3.106.046,3.636.561l.066.064c.6.58-.369,1.268-2.088,1.49q-3.159.409-6.276.8a4.4,4.4,0,0,0-1.951.619c-1.491,1.124-.843,2.053.759,2.572a12.822,12.822,0,0,0,5.186.334C91.336,112.562,128.313,106.8,155.971,89.852Z" transform="translate(-15.657 -62.651)"/><path id="STROKE" class="cls-11" d="M147.494,95.117c3.56-1.9,6.9-3.83,10.111-5.807,3.292-2.03,6.762-4.029,10.458-5.976a34.063,34.063,0,0,1,4.954-2.439,7.888,7.888,0,0,1,2.938-.244,13.923,13.923,0,0,0,3.774-.288,6.35,6.35,0,0,0,3.949-2.622,2.71,2.71,0,0,0,.37-2.81c-.845-1.86-3.466-3.765-7.831-4.776a15.16,15.16,0,0,0-7.247.015,7.288,7.288,0,0,0-4.092,2.7,21.634,21.634,0,0,1-1.545,2.042,40.378,40.378,0,0,1-3.45,3.085,121.057,121.057,0,0,1-17.76,12.269A117.079,117.079,0,0,1,130.833,95.8a20.585,20.585,0,0,1-2.858,1.154c-1.93.52-4.6-.163-3.936-.963a9.192,9.192,0,0,1,2.551-1.147c1.073-.421,2.109-.853,3.149-1.284,2.751-1.139,5.356-2.332,7.764-3.563a59.48,59.48,0,0,0,16.24-11.979c1.369-1.42,2.527-2.857,3.693-4.294,1.333-1.642,2.824-3.339,3.042-5.022.1-.748.1-1.491-1.641-1.947a17.722,17.722,0,0,0-5.274-.459c-2.57.15-4.8.831-5.664,1.732-.427.447-.334.89-.411,1.343a4.4,4.4,0,0,1-.615,1.533c-.514.847-1.221,1.381-3.733,1.127-1.585-.16-3.375-.193-3.312-.936a14.978,14.978,0,0,1,.661-2.48c.314-1.16.712-2.319,1.06-3.478.568-1.889-4.806-3.213-9.627-2.052-1.952.47-3.114,1.233-3.3,2.033-.223.978-.2,1.955-.435,2.934a13.376,13.376,0,0,1-3.508,6.376,39.59,39.59,0,0,1-3.55,3.056c-.89.72-1.181,1.453-.3,2.139,1.153.9,3.881,1.331,6.691,1.162,2.73-.164,4.242-.655,5.2-1.583a5.853,5.853,0,0,1,1.372-1.238c1.108-.6,2.859-.41,4.315-.269,3.011.29,1.5,1.3.473,2.078-1.36,1.039-2.863,2.056-4.428,3.061a102.929,102.929,0,0,1-22.665,11.527A113.119,113.119,0,0,1,98.167,97.92a13.286,13.286,0,0,0-3.811,1.1c-1.133.746-.821,1.783.278,2.426,1.322.774,4,1.143,6.609.906a44.691,44.691,0,0,0,6.85-1.5,6.993,6.993,0,0,1,4.167-.2c.469.179.974.422,1.012.684.073.5-1.173.733-2.182,1-5.2,1.4-10.142,2.9-15.708,4.1-3.562.766-7.33,1.307-11.1,1.88-1.709.259-3.389.55-5.058.847a11.906,11.906,0,0,1-3.636.393c-1.409-.213-1.784-1.043-.671-1.466a15.156,15.156,0,0,1,2.058-.459c1.2-.24,2.4-.475,3.631-.683,1.653-.279,2.873-.609,3.36-1.276.586-.8.115-1.676-1.491-2.21a15.944,15.944,0,0,0-6.662-.4c-1.552.218-2.911.666-4.48.853-1.833.218-2.669-.287-2.92-.831-.182-.394-.657-.885.3-1.241a22.284,22.284,0,0,1,3.334-.559c1.4-.219,2.788-.456,4.153-.708,2.836-.525,5.575-1.125,8.271-1.748,5.284-1.221,10.406-2.546,15.4-3.929A126.6,126.6,0,0,0,114.339,90.2c3.125-1.3,7.494-3.092,3.652-4.6a14.265,14.265,0,0,0-6.546-.5,21.416,21.416,0,0,0-5.284,1.721,18.393,18.393,0,0,1-3.672,1.169c-1.615.238-4.052-.563-3.788-1.16.18-.406,1.561-.836,2.311-1.146,2.053-.848,4.134-1.683,6.063-2.568a50.514,50.514,0,0,0,10.793-6.386c2.166-1.783,3.762-3.686,4.046-5.579a1.591,1.591,0,0,0-1.045-1.923,13.726,13.726,0,0,0-6.682-.835,13.324,13.324,0,0,0-5.1,1.326c-.861.591-.425,1.281-.532,1.9-.293,1.7-1.869,3.405-3.971,4.987-5.342,4.02-14.354,7.66-25.1,9.93a88.564,88.564,0,0,1-12.628,1.8c-2.165.137-4.137.124-5.633.872-1.59.8-2.244,1.806-1.271,2.66,2.3,2.023,9.6,1.123,14.245.5,2.871-.385,5.562-.886,8.282-1.409a6.905,6.905,0,0,1,5.131.857c1.574.835-1.084,1.349-2.96,1.749-2.63.56-5.335,1.069-8.017,1.59-5.544,1.078-11.133,2.152-16.956,2.979-5.683.808-11.435,1.428-17.356,1.8-2.184.137-4.4.212-6.579.38-2.378.185-3.753.885-4.425,1.685-.763.908-.159,1.88,1.766,2.447a18.909,18.909,0,0,0,6.284.343,23.933,23.933,0,0,1,3.571.076c1.011.109,1.122.238,1.358.58.334.484,1.378,1.376.746,1.9s-2.273.6-3.582.736c-2.009.206-4.021.405-6.043.585q-4.62.411-9.277.719a66.556,66.556,0,0,0-6.967.5c-2.218.415-3.43,1.5-3.47,2.32-.044.916,1.419,1.731,3.7,2.065a33.448,33.448,0,0,0,7.3-.15q4.69-.385,9.332-.872c6.171-.641,12.312-1.349,18.383-2.142,1.9-.248,4.88-.693,5.279.349.282.738-1.576.983-3.136,1.172-2.212.268-5.746.46-7.172,1.2-3.308,1.717.017,4.015,5.638,3.709,2.488-.135,5.061-.564,7.453-.874q4.465-.579,8.871-1.228,8.785-1.3,17.312-2.869c11.592-2.1,22.989-4.564,33.293-7.486A135.642,135.642,0,0,0,147.494,95.117Zm-15.013,5.274c-6.583,2.388-13.352,4.707-20.874,6.7a290.153,290.153,0,0,1-32.676,6.353c-7.254,1.041-14.61,1.97-21.929,2.933a23.769,23.769,0,0,1-3,.3c-2.528.011-4.195-.766-3.967-1.652.205-.8,1.217-1.174,3.214-1.441l3.08-.411a18.049,18.049,0,0,0,3.55-.636c1.753-.662,1.408-1.729-.608-2.132-1.837-.367-4.149.082-6.059.31q-4.412.528-8.867.988c-6.023.616-12.105,1.136-18.21,1.545a30.7,30.7,0,0,1-5.323.151c-2.352-.3-2.895-1.282-1.861-2.1,1-.8,2.755-.76,4.839-.925,3.022-.24,6.025-.531,9.02-.832,2.349-.236,4.691-.49,7.029-.746,2.8-.307,7.053-.593,6.7-1.974a5.366,5.366,0,0,0-1.06-1.812c-.632-.777-3.576-.858-5.588-.851-2.287.009-4.439.209-5.772-.6-.941-.571-.607-1.436.645-2,.974-.442,3.449-.476,4.805-.6,2.946-.279,5.87-.61,8.79-.936,11.4-1.27,23.441-2.492,33.662-4.951,1.308-.315,2.586-.645,3.847-.985a15,15,0,0,0,3.107-.99c1.419-.842.049-1.465-1.322-2.038a9.065,9.065,0,0,0-5.681-.539c-2.591.48-5.187.932-7.923,1.267-3.67.449-13.066,1.438-12.036-1.02.3-.71,1.449-1.3,3.436-1.381,1.671-.065,3.333-.186,4.967-.371a94.091,94.091,0,0,0,26.378-7.251c6.755-2.9,12.977-6.5,13.976-10.21.133-.495-.267-1.222.748-1.634a12.408,12.408,0,0,1,5.58-.541c3.824.591,1.834,3.173,1.134,4.33a20.161,20.161,0,0,1-6.379,5.931,51.788,51.788,0,0,1-10.752,5.288c-2.436.868-6.183,1.848-3.877,3.1a8.356,8.356,0,0,0,4.885.948,8.468,8.468,0,0,0,3.331-.949,21.4,21.4,0,0,1,5.719-2.353c2.275-.412,5.012-.137,5.994.647.838.669.129,1.337-1.238,1.9-1.944.8-3.97,1.581-6,2.356-4.456,1.7-8.917,3.4-14.047,4.838-4.851,1.363-10.176,2.492-15.64,3.459-3.393.6-6.828,1.164-10.251,1.738-1.515.254-2.974.509-3.66,1.111-.591.52-.216.95.167,1.422.508.627,1.14,1.232,3.185,1.343a13.678,13.678,0,0,0,3.816-.451c2.27-.473,4.816-.9,6.8-.171,1.232.456,2.006,1.707.533,2.3-2.283.92-7.871,1.146-8.208,2.556-.127.533.592,1.165,1.737,1.455a12.049,12.049,0,0,0,4.495.027c5.139-.716,9.7-1.789,14.474-2.8,2.181-.463,4.4-.9,6.59-1.354,3.739-.783,7.531-1.541,11.009-2.486,2.089-.568,4.862-1.229,4.482-2.264-.223-.61-1.92-1.278-3.618-1.4a13.7,13.7,0,0,0-4.6.637,30.944,30.944,0,0,1-6.969,1.26c-2.746-.013-4.195-.873-3.9-1.809.223-.712,1.493-.882,3.059-1.254a145.078,145.078,0,0,0,14.385-4.41,127.6,127.6,0,0,0,12.783-5.207,57.164,57.164,0,0,0,9.718-5.685c1.344-1.01,2.556-2.038,3.715-3.072.92-.821,2.695-1.873,1.121-2.641a14.149,14.149,0,0,0-4.413-.648,6.773,6.773,0,0,0-4.456,1.126c-.437.349-.83.7-1.3,1.05-.976.721-3.388.912-5.291.678-2.392-.295-3.066-1.183-2.23-2.04a27.925,27.925,0,0,0,2.414-2.828,40.783,40.783,0,0,0,4-6.368,22.848,22.848,0,0,0,1.287-3.153c.249-.794.945-1.563,3.359-1.868,2.317-.293,4.754.134,5.349.945.339.463.056,1.032-.032,1.518A15.552,15.552,0,0,1,137.5,71.1c-.484.808.681,1.48,2.77,1.695a20.249,20.249,0,0,0,5.181.034c2.727-.484,2.614-1.559,3.031-2.45.348-.743.1-1.691,1.125-2.379,1.207-.808,3.8-1.126,5.952-.826,2.342.327,2.3.836,2.207,1.67-.456,4.229-4.09,8.273-9.17,12.221A114.743,114.743,0,0,1,131.747,91.59c-2.4,1.256-5.058,2.427-7.793,3.591-1.463.623-1.808,1.335-.448,1.933a8.784,8.784,0,0,0,5.6.1,69.915,69.915,0,0,0,7.728-3.315,118.618,118.618,0,0,0,10.88-5.782c6.407-3.849,12.527-7.893,17.1-12.027A13.252,13.252,0,0,0,166.783,74a7.764,7.764,0,0,1,2.026-2.245,7.1,7.1,0,0,1,5.713-.812,14.9,14.9,0,0,1,5.427,2.245c2.32,1.686,2.864,3.594.879,5.5a4.248,4.248,0,0,1-2.162,1.192,13.22,13.22,0,0,1-3.186.132,9.776,9.776,0,0,0-5.263,1.316c-7.434,3.693-13.264,7.727-20.34,11.5A147.9,147.9,0,0,1,132.481,100.391Z" transform="translate(-15.657 -62.651)"/></g></svg>