<svg id="Layer_1" data-name="Layer 1" xmlns="http://www.w3.org/2000/svg" xmlns:xlink="http://www.w3.org/1999/xlink" viewBox="0 0 88.225 44.577"><defs><style>.cls-1{fill:url(#radial-gradient);}.cls-2{font-size:12px;fill:#fff;font-family:Arial-BoldMT, Arial;font-weight:700;}</style><radialGradient id="radial-gradient" cx="99.758" cy="-46.954" r="170.212" gradientTransform="matrix(0.008, 1, -0.924, 0.007, 55.561, -146.364)" gradientUnits="userSpaceOnUse"><stop offset="0.752" stop-color="#3f0b45"/><stop offset="0.87" stop-color="#cc5486"/><stop offset="0.887" stop-color="#c45082"/><stop offset="0.913" stop-color="#af4578"/><stop offset="0.945" stop-color="#8c3368"/><stop offset="0.981" stop-color="#5b1a52"/><stop offset="1" stop-color="#3f0b45"/></radialGradient></defs><title>MB21D1</title><g id="MB21D1"><path class="cls-1" d="M126.524,82.109v5.916a3.478,3.478,0,0,1-3.478,3.478H77.991a3.478,3.478,0,0,1-3.478-3.478V82.109a3.486,3.486,0,0,0-5.4-2.9c-7.854,5.091-12.7,12.081-12.7,19.8,0,15.577,19.75,24.205,44.113,24.205s44.113-8.628,44.113-24.205c0-7.717-4.85-14.706-12.7-19.8A3.486,3.486,0,0,0,126.524,82.109Z" transform="translate(-56.406 -78.633)"/><text class="cls-2" transform="translate(19.561 31.044)">MB21D1</text></g></svg>