<svg id="Layer_1" data-name="Layer 1" xmlns="http://www.w3.org/2000/svg" xmlns:xlink="http://www.w3.org/1999/xlink" viewBox="0 0 24.012 62.484"><defs><style>.cls-1{fill:url(#linear-gradient);}.cls-2{fill:url(#radial-gradient);}</style><linearGradient id="linear-gradient" x1="95.596" y1="109.319" x2="95.596" y2="73.691" gradientTransform="matrix(1, 0, 0, -1, 0, 202)" gradientUnits="userSpaceOnUse"><stop offset="0" stop-color="#272e87"/><stop offset="0.219" stop-color="#25328a"/><stop offset="0.45" stop-color="#1f3f95"/><stop offset="0.687" stop-color="#1454a6"/><stop offset="0.925" stop-color="#0571be"/><stop offset="1" stop-color="#007cc7"/></linearGradient><radialGradient id="radial-gradient" cx="93.54" cy="109.677" r="10.184" gradientTransform="matrix(1, 0, 0, -1, 0, 202)" gradientUnits="userSpaceOnUse"><stop offset="0.002" stop-color="#d47cc7"/><stop offset="1" stop-color="#ad253c"/></radialGradient></defs><title>B7-CD28</title><path id="CD28" class="cls-1" d="M105.775,91.818a1.826,1.826,0,0,0-1.824,1.825,8.356,8.356,0,1,1-16.712,0,1.824,1.824,0,1,0-3.649,0A12,12,0,0,0,93.771,105.5v20.45a1.824,1.824,0,1,0,3.649,0V105.5A12,12,0,0,0,107.6,93.643,1.829,1.829,0,0,0,105.775,91.818Z" transform="translate(-83.59 -65.294)"/><path id="B7" class="cls-2" d="M97.331,84.47V67.119a1.824,1.824,0,1,0-3.649,0V84.471A9.06,9.06,0,0,0,85.92,93.78a9.272,9.272,0,0,0,9.586,9.587,9.552,9.552,0,0,0,9.766-9.765C105.272,88.864,102.171,85.321,97.331,84.47Z" transform="translate(-83.59 -65.294)"/></svg>