<svg id="Layer_1" data-name="Layer 1" xmlns="http://www.w3.org/2000/svg" xmlns:xlink="http://www.w3.org/1999/xlink" viewBox="0 0 46.788 49.28"><defs><style>.cls-1{fill:#a18536;}.cls-2{fill:url(#linear-gradient);}.cls-3{font-size:12px;fill:#fff;font-family:Arial-BoldMT, Arial;font-weight:700;}.cls-4{letter-spacing:-0.111em;}</style><linearGradient id="linear-gradient" x1="99.944" y1="125.001" x2="99.944" y2="74.999" gradientUnits="userSpaceOnUse"><stop offset="0" stop-color="#a18536"/><stop offset="1" stop-color="#002b4c"/></linearGradient></defs><title>ARAF,BRAF,RAF1</title><g id="ARAF_BRAF_RAF1" data-name="ARAF,BRAF,RAF1"><rect class="cls-1" x="1.451" y="1.032" width="44" height="47.002" rx="10" ry="10"/><path class="cls-2" d="M112,123.651c-6.866-.008-13.732.468-20.6.887a44.514,44.514,0,0,1-5.382.167,10.745,10.745,0,0,1-5.391-2.281,10.6,10.6,0,0,1-2.035-2.166,9.921,9.921,0,0,1-1.387-2.629,11.579,11.579,0,0,1-.626-2.9c-.024-.479-.033-1.016-.033-1.445L76.556,112l.1-20.6c.022-1.73.013-3.4.06-5.181a11.074,11.074,0,0,1,1.717-5.457A10.952,10.952,0,0,1,88,75.678a145.61,145.61,0,0,0,20.6,0l2.575-.16a12.325,12.325,0,0,1,2.757.063,10.842,10.842,0,0,1,5.238,2.243,10.981,10.981,0,0,1,3.409,4.633,11.4,11.4,0,0,1,.7,2.829c.039.472.055,1,.057,1.43L123.331,88l-.051,10.3-.118,10.3c-.029,1.728-.013,3.407-.1,5.175a10.618,10.618,0,0,1-1.942,5.193A11.311,11.311,0,0,1,112,123.651Zm0-.3a9.092,9.092,0,0,0,4.781-1.4A8.874,8.874,0,0,0,120,118.3a9.006,9.006,0,0,0,.911-4.575l-.079-5.123-.118-10.3L120.669,88l-.006-1.287c0-.429-.046-.758-.063-1.141a8.711,8.711,0,0,0-.519-2.157,9.1,9.1,0,0,0-6.534-5.67,48.152,48.152,0,0,0-4.948-.422,145.61,145.61,0,0,0-20.6,0,9.2,9.2,0,0,0-4.421,1.366,9.311,9.311,0,0,0-3.138,3.287A8.608,8.608,0,0,0,79.3,86.285L79.34,91.4l.1,20.6.006,1.287c.005.429.055.75.087,1.126a8.517,8.517,0,0,0,.6,2.089,9.3,9.3,0,0,0,6.369,5.47,8.923,8.923,0,0,0,2.323.335l2.575.156C98.268,122.883,105.134,123.359,112,123.351Z" transform="translate(-76.549 -75.467)"/><text class="cls-3" transform="translate(5.785 13.921)">ARA<tspan class="cls-4" x="25.998" y="0">F</tspan><tspan x="31.998" y="0">,</tspan><tspan x="0" y="14.4">BRA</tspan><tspan class="cls-4" x="25.998" y="14.4">F</tspan><tspan x="31.998" y="14.4">,</tspan><tspan x="1.998" y="28.8">RAF1</tspan></text></g></svg>