<svg id="Layer_1" data-name="Layer 1" xmlns="http://www.w3.org/2000/svg" xmlns:xlink="http://www.w3.org/1999/xlink" viewBox="0 0 49.681 45"><defs><style>.cls-1{fill:#891f6e;}.cls-2,.cls-3,.cls-4,.cls-5,.cls-6,.cls-7,.cls-8,.cls-9{fill:none;stroke-linecap:round;stroke-linejoin:round;stroke-width:2px;}.cls-2{stroke:url(#linear-gradient);}.cls-3{stroke:url(#linear-gradient-2);}.cls-4{stroke:url(#linear-gradient-3);}.cls-5{stroke:url(#linear-gradient-4);}.cls-6{stroke:url(#linear-gradient-5);}.cls-7{stroke:url(#linear-gradient-6);}.cls-8{stroke:url(#linear-gradient-7);}.cls-9{stroke:url(#linear-gradient-8);}</style><linearGradient id="linear-gradient" x1="2.181" y1="38.53" x2="2.181" y2="5.694" gradientUnits="userSpaceOnUse"><stop offset="0" stop-color="#fff" stop-opacity="0"/><stop offset="0.8" stop-color="#ffd1f3"/><stop offset="1" stop-color="#fff" stop-opacity="0"/></linearGradient><linearGradient id="linear-gradient-2" x1="8.564" y1="38.53" x2="8.564" y2="5.694" xlink:href="#linear-gradient"/><linearGradient id="linear-gradient-3" x1="14.947" y1="38.53" x2="14.947" y2="5.694" xlink:href="#linear-gradient"/><linearGradient id="linear-gradient-4" x1="21.331" y1="38.53" x2="21.331" y2="5.694" xlink:href="#linear-gradient"/><linearGradient id="linear-gradient-5" x1="27.714" y1="38.53" x2="27.714" y2="5.694" xlink:href="#linear-gradient"/><linearGradient id="linear-gradient-6" x1="34.098" y1="38.53" x2="34.098" y2="5.694" xlink:href="#linear-gradient"/><linearGradient id="linear-gradient-7" x1="40.481" y1="38.53" x2="40.481" y2="5.694" xlink:href="#linear-gradient"/><linearGradient id="linear-gradient-8" x1="46.864" y1="38.53" x2="46.864" y2="5.694" xlink:href="#linear-gradient"/></defs><title>PORCN</title><g id="PORCN"><g id="BG"><path class="cls-1" d="M119.309,122.5a5.455,5.455,0,0,1-5.691-5.426V82.926c-.026-.347-.137-.426-.691-.426s-.665.079-.692.5v34.079a5.7,5.7,0,0,1-11.384,0V82.926c-.026-.347-.136-.426-.691-.426s-.665.079-.693.5v34.079a5.7,5.7,0,0,1-11.383,0V82.926c-.026-.347-.137-.426-.691-.426s-.665.079-.693.5v34.079a5.7,5.7,0,0,1-11.383,0V80a2.5,2.5,0,0,1,5,0v37.074c.026.347.137.426.691.426s.665-.079.693-.5V82.926a5.7,5.7,0,0,1,11.383,0v34.148c.026.347.137.426.691.426.324,0,.692,0,.692-.426V82.926a5.7,5.7,0,0,1,11.382,0v34.148c.026.347.137.426.692.426s.665-.079.692-.5V82.926a5.7,5.7,0,0,1,11.383,0v34.148c.026.347.137.426.691.426s.665-.079.692-.5V80a2.5,2.5,0,0,1,5,0v37.074A5.455,5.455,0,0,1,119.309,122.5Z" transform="translate(-75.319 -77.5)"/></g><g id="GRADIENTS"><line class="cls-2" x1="2.181" y1="6.694" x2="2.181" y2="37.53"/><line class="cls-3" x1="8.564" y1="6.694" x2="8.564" y2="37.53"/><line class="cls-4" x1="14.947" y1="6.694" x2="14.947" y2="37.53"/><line class="cls-5" x1="21.331" y1="6.694" x2="21.331" y2="37.53"/><line class="cls-6" x1="27.714" y1="6.694" x2="27.714" y2="37.53"/><line class="cls-7" x1="34.098" y1="6.694" x2="34.098" y2="37.53"/><line class="cls-8" x1="40.481" y1="6.694" x2="40.481" y2="37.53"/><line class="cls-9" x1="46.864" y1="6.694" x2="46.864" y2="37.53"/></g></g></svg>