<svg id="Layer_1" data-name="Layer 1" xmlns="http://www.w3.org/2000/svg" xmlns:xlink="http://www.w3.org/1999/xlink" viewBox="0 0 59.305 24.511"><defs><style>.cls-1,.cls-3{stroke:#7377bf;}.cls-1,.cls-3,.cls-4{stroke-miterlimit:10;stroke-width:2px;}.cls-1{fill:url(#linear-gradient);}.cls-2,.cls-5{isolation:isolate;font-size:12px;fill:#fff;font-family:Arial-BoldMT, Arial;font-weight:700;}.cls-3{fill:url(#linear-gradient-2);}.cls-4{stroke:#73babf;fill:url(#linear-gradient-3);}.cls-5{letter-spacing:-0.037em;}</style><linearGradient id="linear-gradient" x1="-365.192" y1="124.495" x2="-342.96" y2="124.495" gradientTransform="translate(-94.873 -341.82) rotate(-90)" gradientUnits="userSpaceOnUse"><stop offset="0" stop-color="#001447"/><stop offset="1" stop-color="#7377bf"/></linearGradient><linearGradient id="linear-gradient-2" x1="-365.192" y1="105.414" x2="-342.96" y2="105.414" xlink:href="#linear-gradient"/><linearGradient id="linear-gradient-3" x1="-365.192" y1="143.637" x2="-342.96" y2="143.637" gradientTransform="translate(-94.873 -341.82) rotate(-90)" gradientUnits="userSpaceOnUse"><stop offset="0" stop-color="#001447"/><stop offset="1" stop-color="#73babf"/></linearGradient></defs><title>CCA_ending</title><g id="CCA_ending"><g id="C"><polygon class="cls-1" points="20.081 6.358 20.081 18.165 29.637 23.372 39.163 18.165 39.163 6.358 29.658 1.14 20.081 6.358"/><text class="cls-2" transform="translate(24.938 16.392)">C</text></g><g id="C-2" data-name="C"><polygon class="cls-3" points="1 6.358 1 18.165 10.555 23.372 20.081 18.165 20.081 6.358 10.577 1.14 1 6.358"/><text class="cls-2" transform="translate(5.857 16.392)">C</text></g><g id="A"><polygon class="cls-4" points="39.223 6.358 39.223 18.165 48.779 23.372 58.305 18.165 58.305 6.358 48.8 1.14 39.223 6.358"/><text class="cls-5" transform="translate(44.303 16.392)">A</text></g></g></svg>