<svg id="Layer_1" data-name="Layer 1" xmlns="http://www.w3.org/2000/svg" xmlns:xlink="http://www.w3.org/1999/xlink" viewBox="0 0 100.141 32.949"><defs><style>.cls-1{fill:url(#linear-gradient);}.cls-2{fill:#0052af;}.cls-3{font-size:12px;fill:#fff;font-family:Arial-BoldMT, Arial;font-weight:700;}.cls-4{letter-spacing:-0.037em;}</style><linearGradient id="linear-gradient" x1="50.362" y1="31.347" x2="50.362" y2="1.347" gradientUnits="userSpaceOnUse"><stop offset="0" stop-color="#06a2b2"/><stop offset="1" stop-color="#a68510"/></linearGradient></defs><title>R-ICO-013637</title><g id="RNA_SPLICING_PROTEIN" data-name="RNA SPLICING PROTEIN"><rect class="cls-1" x="1.362" y="1.347" width="98" height="30" rx="10" ry="10"/><path class="cls-2" d="M139,115.15c-9.949-.009-19.9.43-29.847.837-9.949.458-19.9.546-29.847.613-4.974,0-9.949.019-14.923-.037-1.267-.021-2.435-.007-3.784-.057A11.422,11.422,0,0,1,49.65,105.48c-.033-1.358.011-2.519.027-3.788l.067-3.731.033-1.865c.009-.614.015-1.233.076-1.956A11,11,0,0,1,61,84.179c9.949.261,19.9.449,29.847.335,4.974-.049,9.949-.194,14.923-.349l14.923-.413c4.974-.085,9.949-.131,14.923-.071,1.263.021,2.443.007,3.775.057a11.111,11.111,0,0,1,4.049,1A10.9,10.9,0,0,1,149,90.586a10.765,10.765,0,0,1,.779,3.959c0,1.31-.081,2.506-.122,3.764l-.149,3.731c-.061,1.256-.042,2.459-.164,3.759a10.5,10.5,0,0,1-3.427,6.673A10.284,10.284,0,0,1,139,115.15Zm0-.3a9.764,9.764,0,0,0,6.638-2.679,9.535,9.535,0,0,0,2.939-6.431c0-2.426-.147-4.958-.234-7.431-.06-1.228-.076-2.522-.165-3.7a9.021,9.021,0,0,0-.9-3.262,9.211,9.211,0,0,0-4.789-4.43A8.669,8.669,0,0,0,139.3,86.3c-1.154-.021-2.462.016-3.686.022-4.975.061-9.949.015-14.923-.071l-14.923-.413c-4.974-.155-9.949-.3-14.923-.349-9.949-.114-19.9.074-29.847.335a9.088,9.088,0,0,0-8.774,8.5c-.027.518-.018,1.143,0,1.773l.033,1.865.067,3.731.03,1.865.01.933c0,.32.007.622.03.874a8.507,8.507,0,0,0,.757,3.1,8.6,8.6,0,0,0,4.478,4.349,8.384,8.384,0,0,0,3.077.65c1.137.021,2.458-.016,3.677-.021,4.974-.056,9.949-.036,14.923-.037,9.949.066,19.9.155,29.847.613C119.1,114.42,129.051,114.859,139,114.85Z" transform="translate(-49.638 -83.653)"/><text class="cls-3" transform="translate(6.991 11.832)">RN<tspan class="cls-4" x="17.332" y="0">A</tspan><tspan x="25.553" y="0" xml:space="preserve"> SPLICING</tspan><tspan x="16.11" y="14.4">PROTEIN</tspan></text></g></svg>