<svg id="Layer_1" data-name="Layer 1" xmlns="http://www.w3.org/2000/svg" xmlns:xlink="http://www.w3.org/1999/xlink" viewBox="0 0 92.104 88.642"><defs><style>.cls-1{fill:url(#linear-gradient);}.cls-2{fill:url(#linear-gradient-2);}.cls-3{fill:url(#linear-gradient-3);}.cls-4{fill:url(#linear-gradient-4);}.cls-5{fill:url(#linear-gradient-5);}.cls-6{fill:url(#linear-gradient-6);}.cls-7{fill:url(#linear-gradient-7);}.cls-8{fill:url(#linear-gradient-8);}.cls-9{fill:url(#linear-gradient-9);}.cls-10{fill:#d14a20;}.cls-11{mask:url(#mask);}.cls-12{fill:url(#radial-gradient);}.cls-13{mask:url(#mask-2);}.cls-14{fill:url(#radial-gradient-2);}.cls-15{mask:url(#mask-3);}.cls-16{fill:url(#radial-gradient-3);}.cls-17{mask:url(#mask-4);}.cls-18{fill:url(#radial-gradient-4);}.cls-19{mask:url(#mask-5);}.cls-20{fill:url(#radial-gradient-5);}.cls-21{mask:url(#mask-6);}.cls-22{fill:url(#radial-gradient-6);}.cls-23{mask:url(#mask-7);}.cls-24{fill:url(#radial-gradient-7);}.cls-25{mask:url(#mask-8);}.cls-26{fill:url(#radial-gradient-8);}.cls-27{mask:url(#mask-9);}.cls-28{fill:url(#radial-gradient-9);}</style><linearGradient id="linear-gradient" x1="400.494" y1="393.847" x2="408.381" y2="393.847" gradientTransform="translate(-392.04 -309.24) scale(1.129 1)" gradientUnits="userSpaceOnUse"><stop offset="0.117"/><stop offset="0.164" stop-color="#3b3b3b"/><stop offset="0.212" stop-color="#6f6f6f"/><stop offset="0.259" stop-color="#9b9b9b"/><stop offset="0.307" stop-color="#bfbfbf"/><stop offset="0.355" stop-color="#dbdbdb"/><stop offset="0.403" stop-color="#efefef"/><stop offset="0.452" stop-color="#fbfbfb"/><stop offset="0.5" stop-color="#fff"/><stop offset="0.555" stop-color="#fbfbfb"/><stop offset="0.605" stop-color="#f0f0f0"/><stop offset="0.653" stop-color="#dedede"/><stop offset="0.701" stop-color="#c4c4c4"/><stop offset="0.747" stop-color="#a2a2a2"/><stop offset="0.793" stop-color="#797979"/><stop offset="0.838" stop-color="#484848"/><stop offset="0.882" stop-color="#101010"/><stop offset="0.894"/></linearGradient><linearGradient id="linear-gradient-2" x1="102.937" y1="-56.936" x2="113.146" y2="-56.936" gradientTransform="translate(-46.326 114.136) scale(1.129 1)" xlink:href="#linear-gradient"/><linearGradient id="linear-gradient-3" x1="817.91" y1="-655.438" x2="825.797" y2="-655.438" gradientTransform="translate(-871.191 746.621) scale(1.129 1)" xlink:href="#linear-gradient"/><linearGradient id="linear-gradient-4" x1="1080.759" y1="-13.068" x2="1088.646" y2="-13.068" gradientTransform="translate(-1159.611 106.381) scale(1.129 1)" xlink:href="#linear-gradient"/><linearGradient id="linear-gradient-5" x1="156.885" y1="-347.475" x2="164.772" y2="-347.475" gradientTransform="translate(-99.251 458.73) scale(1.129 1)" xlink:href="#linear-gradient"/><linearGradient id="linear-gradient-6" x1="484.411" y1="415.185" x2="492.298" y2="415.185" gradientTransform="translate(-460.591 -301.547) scale(1.129 1)" xlink:href="#linear-gradient"/><linearGradient id="linear-gradient-7" x1="708.032" y1="-693.563" x2="715.919" y2="-693.563" gradientTransform="translate(-721.516 813.716) scale(1.129 1)" xlink:href="#linear-gradient"/><linearGradient id="linear-gradient-8" x1="1102.547" y1="-202.32" x2="1110.433" y2="-202.32" gradientTransform="translate(-1108.942 344.731) scale(1.129 1)" xlink:href="#linear-gradient"/><linearGradient id="linear-gradient-9" x1="306.617" y1="-550.139" x2="314.503" y2="-550.139" gradientTransform="translate(-217.107 646.332) scale(1.129 1)" xlink:href="#linear-gradient"/><mask id="mask" x="7.362" y="25.405" width="7.44" height="7.564" maskUnits="userSpaceOnUse"><g transform="translate(-53.509 -55.42)"><rect class="cls-1" x="60.138" y="83.754" width="8.905" height="1.705" transform="translate(80.028 -20.711) rotate(45.698)"/></g></mask><radialGradient id="radial-gradient" cx="495.948" cy="432.557" r="5.174" gradientTransform="matrix(0.672, 0.74, -0.463, 0.421, -70.185, -462.771)" gradientUnits="userSpaceOnUse"><stop offset="0.922" stop-color="#f4a089" stop-opacity="0"/><stop offset="0.927" stop-color="#f4a089" stop-opacity="0.017"/><stop offset="0.933" stop-color="#f4a089" stop-opacity="0.067"/><stop offset="0.938" stop-color="#f4a089" stop-opacity="0.151"/><stop offset="0.944" stop-color="#f4a089" stop-opacity="0.269"/><stop offset="0.949" stop-color="#f4a089" stop-opacity="0.421"/><stop offset="0.955" stop-color="#f4a089" stop-opacity="0.608"/><stop offset="0.96" stop-color="#f4a089" stop-opacity="0.823"/><stop offset="0.964" stop-color="#f4a089"/><stop offset="0.969" stop-color="#f4a089" stop-opacity="0.901"/><stop offset="0.978" stop-color="#f4a089" stop-opacity="0.648"/><stop offset="0.992" stop-color="#f4a089" stop-opacity="0.246"/><stop offset="1" stop-color="#f4a089" stop-opacity="0"/></radialGradient><mask id="mask-2" x="16.283" y="-0.478" width="11.735" height="4.516" maskUnits="userSpaceOnUse"><g transform="translate(-53.509 -55.42)"><rect class="cls-2" x="69.895" y="56.096" width="11.527" height="2.207" transform="translate(-10.089 16.662) rotate(-11.788)"/></g></mask><radialGradient id="radial-gradient-2" cx="76.453" cy="60.362" r="6.697" gradientTransform="translate(-5.294 36.049) rotate(-9.744) scale(1 0.626)" xlink:href="#radial-gradient"/><mask id="mask-3" x="-0.753" y="32.26" width="7.935" height="7.008" maskUnits="userSpaceOnUse"><g transform="translate(-53.509 -55.42)"><rect class="cls-3" x="52.271" y="90.331" width="8.905" height="1.705" transform="translate(41.978 197.554) rotate(-140.223)"/></g></mask><radialGradient id="radial-gradient-3" cx="742.944" cy="-690.875" r="5.174" gradientTransform="matrix(-0.745, -0.667, 0.418, -0.467, 900.395, 262.172)" xlink:href="#radial-gradient"/><mask id="mask-4" x="7.473" y="34.568" width="8.184" height="6.65" maskUnits="userSpaceOnUse"><g transform="translate(-53.509 -55.42)"><rect class="cls-4" x="60.621" y="92.46" width="8.905" height="1.705" transform="translate(172.782 129.931) rotate(143.668)"/></g></mask><radialGradient id="radial-gradient-4" cx="1164.68" cy="-122.676" r="5.174" gradientTransform="translate(982.49 -628.266) rotate(145.711) scale(1 0.626)" xlink:href="#radial-gradient"/><mask id="mask-5" x="25.042" y="52.114" width="7.564" height="7.44" maskUnits="userSpaceOnUse"><g transform="translate(-53.509 -55.42)"><rect class="cls-5" x="77.88" y="110.402" width="8.905" height="1.705" transform="translate(-54.295 89.138) rotate(-44.302)"/></g></mask><radialGradient id="radial-gradient-5" cx="75.263" cy="-236.945" r="5.174" gradientTransform="matrix(0.74, -0.672, 0.421, 0.463, 128.237, 273.41)" xlink:href="#radial-gradient"/><mask id="mask-6" x="33.844" y="54.199" width="6.867" height="8.038" maskUnits="userSpaceOnUse"><g transform="translate(-53.509 -55.42)"><rect class="cls-6" x="86.334" y="112.785" width="8.905" height="1.705" transform="translate(123.461 -28.095) rotate(51.604)"/></g></mask><radialGradient id="radial-gradient-6" cx="593.056" cy="434.09" r="5.174" gradientTransform="matrix(0.593, 0.805, -0.504, 0.371, -43.742, -523.48)" xlink:href="#radial-gradient"/><mask id="mask-7" x="25.75" y="60.505" width="6.164" height="8.456" maskUnits="userSpaceOnUse"><g transform="translate(-53.509 -55.42)"><rect class="cls-7" x="77.888" y="119.301" width="8.905" height="1.705" transform="matrix(-0.53, -0.848, 0.848, -0.53, 24.057, 253.644)"/></g></mask><radialGradient id="radial-gradient-7" cx="613.713" cy="-702.853" r="5.174" gradientTransform="matrix(-0.499, -0.866, 0.543, -0.313, 772.144, 430.801)" xlink:href="#radial-gradient"/><mask id="mask-8" x="82.308" y="85.068" width="9.05" height="3.846" maskUnits="userSpaceOnUse"><g transform="translate(-53.509 -55.42)"><rect class="cls-8" x="135.89" y="141.558" width="8.905" height="1.705" transform="translate(311.438 245.865) rotate(165.74)"/></g></mask><radialGradient id="radial-gradient-8" cx="1150.099" cy="-312.963" r="5.174" gradientTransform="matrix(-0.977, 0.212, -0.133, -0.612, 1222.211, -294.905)" xlink:href="#radial-gradient"/><mask id="mask-9" x="78.351" y="36.24" width="3.343" height="9.067" maskUnits="userSpaceOnUse"><g transform="translate(-53.509 -55.42)"><rect class="cls-9" x="129.079" y="95.341" width="8.905" height="1.705" transform="translate(14.029 209.343) rotate(-79.204)"/></g></mask><radialGradient id="radial-gradient-9" cx="199.351" cy="-469.87" r="5.174" gradientTransform="translate(378.593 356.314) rotate(-77.161) scale(1 0.626)" xlink:href="#radial-gradient"/></defs><title>peptides</title><g id="PEPTIDES"><path class="cls-10" d="M61.239,81.432a7.568,7.568,0,0,1,6.328,6.56s.112.719-.949.754-.875-.693-.875-.693a5.514,5.514,0,0,0-1.649-3.037,5.355,5.355,0,0,0-3.2-1.795s-.778.117-.771-.848C60.129,81.3,61.239,81.432,61.239,81.432Z" transform="translate(-53.509 -55.42)"/><g class="cls-11"><path class="cls-12" d="M60.9,82.056a6.538,6.538,0,0,1,2.291.569,6.068,6.068,0,0,1,1.932,1.4,7.145,7.145,0,0,1,1.312,1.987,10.467,10.467,0,0,1,.427,1.1c.107.379.193.764.272,1.146a18.063,18.063,0,0,0-.964-2.117,8.917,8.917,0,0,0-1.328-1.857,7.147,7.147,0,0,0-1.783-1.4A9.71,9.71,0,0,0,60.9,82.056Z" transform="translate(-53.509 -55.42)"/></g><path class="cls-10" d="M69.683,58.732a11.58,11.58,0,0,1,5.6-3.18,11.582,11.582,0,0,1,6.371.831s.889.4.159,1.615-1.415.48-1.415.48a7.379,7.379,0,0,0-4.611-.353,7.167,7.167,0,0,0-4.342,2.3s-.434.96-1.513.251A1.272,1.272,0,0,1,69.683,58.732Z" transform="translate(-53.509 -55.42)"/><g class="cls-13"><path class="cls-14" d="M70.3,59.457a8.463,8.463,0,0,1,2.215-2.105,7.855,7.855,0,0,1,2.876-1.132,9.249,9.249,0,0,1,3.082-.049,13.549,13.549,0,0,1,1.5.3c.488.147.968.321,1.441.5a23.382,23.382,0,0,0-2.982-.42,11.542,11.542,0,0,0-2.951.157,9.251,9.251,0,0,0-2.772.97A12.569,12.569,0,0,0,70.3,59.457Z" transform="translate(-53.509 -55.42)"/></g><path class="cls-10" d="M59.857,94.223a7.568,7.568,0,0,1-6.345-6.543s-.114-.719.947-.757.877.691.877.691a5.514,5.514,0,0,0,1.657,3.033A5.355,5.355,0,0,0,60.2,92.434s.778-.119.773.846C60.968,94.353,59.857,94.223,59.857,94.223Z" transform="translate(-53.509 -55.42)"/><g class="cls-15"><path class="cls-16" d="M60.661,93.34a6.538,6.538,0,0,1-2.337-.329,6.068,6.068,0,0,1-2.066-1.2,7.145,7.145,0,0,1-1.51-1.841,10.467,10.467,0,0,1-.539-1.055c-.145-.366-.271-.74-.389-1.112A18.063,18.063,0,0,0,55,89.813a8.917,8.917,0,0,0,1.513,1.71,7.147,7.147,0,0,0,1.919,1.212A9.71,9.71,0,0,0,60.661,93.34Z" transform="translate(-53.509 -55.42)"/></g><path class="cls-10" d="M60.711,96.314a8.266,8.266,0,0,0,6.15-2.2A8.653,8.653,0,0,0,69,89.806a.8.8,0,0,0-.825-.825.9.9,0,0,0-.994.707,5.49,5.49,0,0,1-1.71,3.039,4.987,4.987,0,0,1-3.885,1.745s-.692-.446-1.216.652S60.711,96.314,60.711,96.314Z" transform="translate(-53.509 -55.42)"/><g class="cls-17"><path class="cls-18" d="M68.112,90.008a6.538,6.538,0,0,1-.881,2.19,6.068,6.068,0,0,1-1.657,1.718,7.145,7.145,0,0,1-2.15,1.023,10.467,10.467,0,0,1-1.153.27c-.39.053-.783.085-1.173.111a18.063,18.063,0,0,0,2.23-.661A8.917,8.917,0,0,0,65.352,93.6a7.147,7.147,0,0,0,1.637-1.572A9.71,9.71,0,0,0,68.112,90.008Z" transform="translate(-53.509 -55.42)"/></g><path class="cls-10" d="M79.048,114.149a7.568,7.568,0,0,1,7.011-5.824s.725-.058.682,1-.756.821-.756.821a5.514,5.514,0,0,0-3.151,1.419,5.355,5.355,0,0,0-2.027,3.06s.059.785-.9.706A.95.95,0,0,1,79.048,114.149Z" transform="translate(-53.509 -55.42)"/><g class="cls-19"><path class="cls-20" d="M79.781,114.949a6.538,6.538,0,0,1,.569-2.291,6.068,6.068,0,0,1,1.4-1.932,7.145,7.145,0,0,1,1.987-1.312,10.467,10.467,0,0,1,1.1-.427c.379-.107.764-.193,1.146-.272a18.063,18.063,0,0,0-2.117.964,8.917,8.917,0,0,0-1.857,1.328,7.147,7.147,0,0,0-1.4,1.783A9.71,9.71,0,0,0,79.781,114.949Z" transform="translate(-53.509 -55.42)"/></g><path class="cls-10" d="M87.951,110.368a7.568,7.568,0,0,1,5.339,7.387s.01.728-1.046.613-.769-.81-.769-.81a5.514,5.514,0,0,0-1.2-3.239,5.355,5.355,0,0,0-2.917-2.228s-.787.006-.644-.948A.95.95,0,0,1,87.951,110.368Z" transform="translate(-53.509 -55.42)"/><g class="cls-21"><path class="cls-22" d="M87.374,110.72a6.538,6.538,0,0,1,2.22.8,6.068,6.068,0,0,1,1.777,1.594,7.145,7.145,0,0,1,1.1,2.112,10.467,10.467,0,0,1,.311,1.143c.067.388.113.78.153,1.168a18.063,18.063,0,0,0-.741-2.2,8.917,8.917,0,0,0-1.13-1.984,7.147,7.147,0,0,0-1.63-1.579A9.71,9.71,0,0,0,87.374,110.72Z" transform="translate(-53.509 -55.42)"/></g><path class="cls-10" d="M85.417,124.073a7.568,7.568,0,0,1-5.3-7.416s-.006-.728,1.049-.607.764.814.764.814a5.514,5.514,0,0,0,1.186,3.246,5.355,5.355,0,0,0,2.9,2.244s.787,0,.639.951A.95.95,0,0,1,85.417,124.073Z" transform="translate(-53.509 -55.42)"/><g class="cls-23"><path class="cls-24" d="M85.406,123.433a6.538,6.538,0,0,1-2.117-1.044,6.068,6.068,0,0,1-1.588-1.783,7.145,7.145,0,0,1-.858-2.221,10.467,10.467,0,0,1-.182-1.17c-.023-.393-.026-.788-.021-1.178a18.063,18.063,0,0,0,.491,2.274,8.917,8.917,0,0,0,.9,2.1,7.147,7.147,0,0,0,1.443,1.751A9.71,9.71,0,0,0,85.406,123.433Z" transform="translate(-53.509 -55.42)"/></g><path class="cls-10" d="M145.182,141.256a10.128,10.128,0,0,1-12.107,1.477s-.858-.459-.041-1.622,1.446-.376,1.446-.376a7.379,7.379,0,0,0,4.574.685,7.167,7.167,0,0,0,4.5-1.976s.5-.926,1.527-.141A1.272,1.272,0,0,1,145.182,141.256Z" transform="translate(-53.509 -55.42)"/><g class="cls-25"><path class="cls-26" d="M144.4,140.49a6.538,6.538,0,0,1-1.639,1.7,6.068,6.068,0,0,1-2.182.97,7.145,7.145,0,0,1-2.377.141,10.467,10.467,0,0,1-1.17-.183c-.382-.1-.758-.215-1.129-.338a18.063,18.063,0,0,0,2.315.225,8.917,8.917,0,0,0,2.273-.22,7.147,7.147,0,0,0,2.107-.841A9.71,9.71,0,0,0,144.4,140.49Z" transform="translate(-53.509 -55.42)"/></g><path class="cls-10" d="M132.422,102.4a10.128,10.128,0,0,1,2.967-11.831s.737-.636,1.529.543-.168,1.485-.168,1.485a7.379,7.379,0,0,0-2.281,4.023,7.167,7.167,0,0,0,.23,4.907s.684.8-.416,1.476A1.272,1.272,0,0,1,132.422,102.4Z" transform="translate(-53.509 -55.42)"/><g class="cls-27"><path class="cls-28" d="M133.553,100.683a6.538,6.538,0,0,1-.844-2.2,6.068,6.068,0,0,1,.046-2.387,7.145,7.145,0,0,1,.879-2.213,10.467,10.467,0,0,1,.662-.982c.25-.3.516-.6.785-.879a18.063,18.063,0,0,0-1.184,2,8.917,8.917,0,0,0-.763,2.152,7.147,7.147,0,0,0-.13,2.265A9.71,9.71,0,0,0,133.553,100.683Z" transform="translate(-53.509 -55.42)"/></g></g></svg>