<svg id="Layer_1" data-name="Layer 1" xmlns="http://www.w3.org/2000/svg" xmlns:xlink="http://www.w3.org/1999/xlink" viewBox="0 0 177.269 54.944"><defs><style>.cls-1{fill:#db7272;}.cls-2{fill:url(#linear-gradient);}.cls-3{fill:url(#linear-gradient-2);}.cls-4{fill:url(#linear-gradient-3);}.cls-5{fill:url(#linear-gradient-4);}.cls-6{fill:url(#linear-gradient-5);}.cls-7{fill:url(#linear-gradient-6);}.cls-8{fill:url(#linear-gradient-7);}.cls-9{fill:url(#linear-gradient-8);}.cls-10{fill:url(#linear-gradient-9);}.cls-11{fill:url(#linear-gradient-10);}.cls-12{fill:url(#linear-gradient-11);}.cls-13{fill:url(#linear-gradient-12);}.cls-14{fill:url(#linear-gradient-13);}.cls-15{fill:url(#linear-gradient-14);}.cls-16{fill:url(#linear-gradient-15);}.cls-17{fill:url(#linear-gradient-16);}.cls-18{fill:#6ca438;}.cls-19{fill:url(#linear-gradient-17);}.cls-20{fill:url(#linear-gradient-18);}.cls-21{fill:#052160;opacity:0.3;}.cls-22{fill:url(#linear-gradient-19);}.cls-23{fill:url(#linear-gradient-20);}.cls-24{fill:url(#linear-gradient-21);}</style><linearGradient id="linear-gradient" x1="34.12" y1="11.464" x2="36.856" y2="16.13" gradientUnits="userSpaceOnUse"><stop offset="0" stop-color="#db7272"/><stop offset="1" stop-color="#944343"/></linearGradient><linearGradient id="linear-gradient-2" x1="42.484" y1="12.32" x2="44.876" y2="16.4" xlink:href="#linear-gradient"/><linearGradient id="linear-gradient-3" x1="50.906" y1="13.275" x2="53.12" y2="17.052" xlink:href="#linear-gradient"/><linearGradient id="linear-gradient-4" x1="59.075" y1="13.797" x2="61.289" y2="17.575" xlink:href="#linear-gradient"/><linearGradient id="linear-gradient-5" x1="67.335" y1="14.475" x2="69.549" y2="18.253" xlink:href="#linear-gradient"/><linearGradient id="linear-gradient-6" x1="75.481" y1="14.96" x2="77.884" y2="19.059" xlink:href="#linear-gradient"/><linearGradient id="linear-gradient-7" x1="91.691" y1="15.787" x2="94.338" y2="20.303" xlink:href="#linear-gradient"/><linearGradient id="linear-gradient-8" x1="83.679" y1="15.531" x2="86.225" y2="19.874" xlink:href="#linear-gradient"/><linearGradient id="linear-gradient-9" x1="99.799" y1="16.208" x2="102.669" y2="21.104" xlink:href="#linear-gradient"/><linearGradient id="linear-gradient-10" x1="107.944" y1="16.69" x2="110.858" y2="21.66" xlink:href="#linear-gradient"/><linearGradient id="linear-gradient-11" x1="116.216" y1="17.388" x2="119.079" y2="22.271" xlink:href="#linear-gradient"/><linearGradient id="linear-gradient-12" x1="124.239" y1="17.66" x2="127.321" y2="22.918" xlink:href="#linear-gradient"/><linearGradient id="linear-gradient-13" x1="132.263" y1="17.933" x2="135.694" y2="23.786" xlink:href="#linear-gradient"/><linearGradient id="linear-gradient-14" x1="140.287" y1="18.206" x2="143.958" y2="24.469" xlink:href="#linear-gradient"/><linearGradient id="linear-gradient-15" x1="148.311" y1="18.478" x2="152.159" y2="25.042" xlink:href="#linear-gradient"/><linearGradient id="linear-gradient-16" x1="156.336" y1="18.75" x2="162.172" y2="28.706" xlink:href="#linear-gradient"/><linearGradient id="linear-gradient-17" x1="139.751" y1="72.264" x2="141.923" y2="86.95" gradientTransform="matrix(1.049, 0.072, -0.033, 0.951, 6.013, -47.127)" gradientUnits="userSpaceOnUse"><stop offset="0" stop-color="#ad4b52"/><stop offset="0.137" stop-color="#b0464b"/><stop offset="0.653" stop-color="#bb3637"/><stop offset="1" stop-color="#bf3030"/></linearGradient><linearGradient id="linear-gradient-18" x1="153.022" y1="63.213" x2="157.924" y2="66.258" gradientTransform="matrix(1.049, 0.072, -0.033, 0.951, 6.013, -47.127)" gradientUnits="userSpaceOnUse"><stop offset="0" stop-color="#ad4b52"/><stop offset="0.049" stop-color="#af474e"/><stop offset="0.206" stop-color="#b44145"/><stop offset="0.483" stop-color="#b53f43"/><stop offset="1" stop-color="#bf3030"/></linearGradient><linearGradient id="linear-gradient-19" x1="4.677" y1="75.981" x2="5.935" y2="84.483" xlink:href="#linear-gradient-17"/><linearGradient id="linear-gradient-20" x1="84.129" y1="75.136" x2="75.491" y2="33.936" gradientTransform="matrix(1.049, 0.072, -0.033, 0.951, 6.013, -47.127)" gradientUnits="userSpaceOnUse"><stop offset="0" stop-color="#ad4b52"/><stop offset="0.289" stop-color="#af494f"/><stop offset="0.499" stop-color="#b44146"/><stop offset="0.538" stop-color="#b53f43"/><stop offset="1" stop-color="#bf3030"/></linearGradient><linearGradient id="linear-gradient-21" x1="26.098" y1="96.107" x2="164.096" y2="96.107" gradientUnits="userSpaceOnUse"><stop offset="0" stop-color="#bf3030"/><stop offset="0.5" stop-color="#b53f43"/><stop offset="1" stop-color="#bf3030"/></linearGradient></defs><title>blood_vessel_section_surface</title><g id="BLOOD_VESSEL_SECTION_SURFACE"><polygon id="BG" class="cls-1" points="0.71 23.472 52.036 0 177.269 8.626 176.803 22.122 158.603 54.944 0 44.019 0.71 23.472"/><g id="GRADIENTS"><polygon class="cls-2" points="6.217 25.624 57.577 1.46 64.75 1.954 15.429 26.259 10.625 31.655 6.217 25.624"/><polygon class="cls-3" points="15.429 26.259 64.75 1.954 71.924 2.449 24.641 26.893 19.837 32.29 15.429 26.259"/><polygon class="cls-4" points="24.641 26.893 71.924 2.449 79.098 2.943 33.854 27.528 29.05 32.925 24.641 26.893"/><polygon class="cls-5" points="33.854 27.528 79.098 2.943 86.271 3.437 43.066 28.162 38.263 33.559 33.854 27.528"/><polygon class="cls-6" points="43.066 28.162 86.271 3.437 93.445 3.931 52.279 28.797 47.475 34.194 43.066 28.162"/><polygon class="cls-7" points="52.279 28.797 93.445 3.931 100.619 4.425 61.493 29.432 56.688 34.828 52.279 28.797"/><polygon class="cls-8" points="70.706 30.066 107.793 4.919 114.966 5.413 79.917 30.701 75.115 36.098 70.706 30.066"/><polygon class="cls-9" points="61.493 29.432 100.619 4.425 107.793 4.919 70.706 30.066 65.902 35.463 61.493 29.432"/><polygon class="cls-10" points="79.917 30.701 114.966 5.413 122.139 5.908 89.129 31.335 84.326 36.732 79.917 30.701"/><polygon class="cls-11" points="89.129 31.335 122.139 5.908 129.314 6.402 98.342 31.97 93.538 37.367 89.129 31.335"/><polygon class="cls-12" points="98.342 31.97 129.314 6.402 136.488 6.896 107.555 32.604 102.751 38.001 98.342 31.97"/><polygon class="cls-13" points="107.555 32.604 136.488 6.896 143.663 7.39 116.77 33.239 111.965 38.636 107.555 32.604"/><polygon class="cls-14" points="116.77 33.239 143.663 7.39 150.838 7.884 125.985 33.874 121.18 39.271 116.77 33.239"/><polygon class="cls-15" points="125.985 33.874 150.838 7.884 158.013 8.379 135.198 34.509 130.395 39.905 125.985 33.874"/><polygon class="cls-16" points="135.198 34.509 158.013 8.379 165.19 8.873 144.415 35.143 139.608 40.54 135.198 34.509"/><polygon class="cls-17" points="144.415 35.143 165.19 8.873 172.368 9.367 153.633 35.778 148.825 41.175 144.415 35.143"/></g><g id="ELEMENTS"><g id="COLLAGEN"><path class="cls-18" d="M169.046,114.8a.643.643,0,0,1-.52-.264l-3.943-5.389-4.278,4.8a.65.65,0,0,1-.512.215.643.643,0,0,1-.489-.263l-3.94-5.388-4.276,4.8a.653.653,0,0,1-.512.215.644.644,0,0,1-.489-.263l-3.939-5.388-4.274,4.8a.644.644,0,0,1-1-.048l-3.939-5.388-4.275,4.8a.653.653,0,0,1-.512.215.644.644,0,0,1-.489-.263l-3.939-5.388-4.275,4.8a.644.644,0,0,1-1-.048l-3.939-5.388-4.274,4.8a.655.655,0,0,1-.512.215.644.644,0,0,1-.489-.263l-3.939-5.388-4.275,4.8a.655.655,0,0,1-.512.215.643.643,0,0,1-.489-.263l-3.939-5.388-4.273,4.8a.644.644,0,0,1-1-.048l-3.938-5.387-4.273,4.8a.644.644,0,0,1-1-.048l-3.939-5.388-4.274,4.8a.632.632,0,0,1-.512.215.643.643,0,0,1-.489-.263L72.443,102.8l-4.274,4.8a.644.644,0,0,1-1-.048l-3.939-5.388-4.273,4.8a.655.655,0,0,1-.512.215.643.643,0,0,1-.489-.263l-3.939-5.388-4.274,4.8a.644.644,0,0,1-1-.048L44.8,100.9l-4.274,4.8a.644.644,0,0,1-1-.048l-3.938-5.388-4.274,4.8a.634.634,0,0,1-.512.215.643.643,0,0,1-.489-.263L26.38,99.631l-4.274,4.8a.633.633,0,0,1-.512.215.643.643,0,0,1-.489-.263L17.168,99l-4.273,4.8a.644.644,0,0,1-.962-.856l4.8-5.4a.635.635,0,0,1,.512-.215.643.643,0,0,1,.489.263l3.938,5.388,4.274-4.8a.632.632,0,0,1,.512-.215.643.643,0,0,1,.489.263l3.938,5.388,4.274-4.8a.634.634,0,0,1,.512-.215.643.643,0,0,1,.489.263L40.1,104.25l4.274-4.8a.644.644,0,0,1,1,.048l3.938,5.388,4.274-4.8a.644.644,0,0,1,1,.048l3.939,5.388,4.273-4.8a.662.662,0,0,1,.512-.215.643.643,0,0,1,.489.263l3.939,5.388,4.275-4.8a.657.657,0,0,1,.512-.215.644.644,0,0,1,.489.263l3.939,5.388,4.274-4.8a.644.644,0,0,1,1,.048l3.939,5.388,4.272-4.8a.654.654,0,0,1,.512-.215.643.643,0,0,1,.489.263l3.939,5.387,4.273-4.8a.644.644,0,0,1,1,.048l3.939,5.388,4.275-4.8a.644.644,0,0,1,1,.048l3.939,5.388,4.274-4.8a.634.634,0,0,1,.512-.215.644.644,0,0,1,.489.263l3.939,5.388,4.275-4.8a.644.644,0,0,1,1,.048l3.939,5.388,4.275-4.8a.644.644,0,0,1,1,.048l3.939,5.388,4.274-4.8a.629.629,0,0,1,.512-.215.644.644,0,0,1,.489.263l3.94,5.388,4.276-4.8a.644.644,0,0,1,1,.048l3.94,5.389,4.278-4.8a.644.644,0,0,1,1,.048l4.413,6.032a.644.644,0,0,1-.519,1.024Z" transform="translate(-11 -72.349)"/><path class="cls-18" d="M168.905,118.884a.643.643,0,0,1-.52-.264l-3.943-5.389-4.278,4.8a.656.656,0,0,1-.512.215.643.643,0,0,1-.489-.263l-3.94-5.388-4.276,4.8a.651.651,0,0,1-.512.215.644.644,0,0,1-.489-.263l-3.939-5.388-4.274,4.8a.644.644,0,0,1-1-.048l-3.94-5.388-4.275,4.8a.654.654,0,0,1-.512.215.644.644,0,0,1-.489-.263l-3.939-5.388-4.275,4.8a.644.644,0,0,1-1-.048l-3.939-5.388-4.275,4.8a.643.643,0,0,1-1-.048l-3.939-5.388-4.275,4.8a.655.655,0,0,1-.512.215.643.643,0,0,1-.489-.263l-3.939-5.387-4.273,4.8a.644.644,0,0,1-1-.048l-3.938-5.388-4.273,4.8a.654.654,0,0,1-.512.215.643.643,0,0,1-.489-.263l-3.939-5.388-4.274,4.8a.644.644,0,0,1-1-.048L72.3,106.885l-4.274,4.8a.636.636,0,0,1-.512.215.644.644,0,0,1-.489-.263l-3.939-5.388-4.274,4.8a.644.644,0,0,1-1-.048l-3.939-5.388-4.274,4.8a.644.644,0,0,1-1-.048l-3.938-5.387-4.274,4.8a.634.634,0,0,1-.512.215.643.643,0,0,1-.489-.263l-3.938-5.388-4.274,4.8a.644.644,0,0,1-1-.048l-3.938-5.387-4.274,4.8a.644.644,0,0,1-1-.048l-3.938-5.388-4.273,4.8a.644.644,0,0,1-.962-.856l4.8-5.4a.644.644,0,0,1,1,.048l3.938,5.388,4.274-4.8a.652.652,0,0,1,.512-.215.643.643,0,0,1,.489.263l3.938,5.387,4.274-4.8a.658.658,0,0,1,.512-.215.643.643,0,0,1,.489.263l3.938,5.388,4.274-4.8a.644.644,0,0,1,1,.048l3.938,5.387,4.274-4.8a.644.644,0,0,1,1,.048l3.939,5.388,4.274-4.8a.655.655,0,0,1,.512-.215.644.644,0,0,1,.489.263l3.939,5.388,4.275-4.8a.653.653,0,0,1,.512-.215.643.643,0,0,1,.489.263l3.939,5.388,4.274-4.8a.644.644,0,0,1,1,.048l3.939,5.388,4.273-4.8a.651.651,0,0,1,.512-.215.643.643,0,0,1,.489.263l3.939,5.388,4.273-4.8a.644.644,0,0,1,1,.048l3.938,5.387,4.275-4.8a.643.643,0,0,1,1,.048l3.939,5.388,4.275-4.8a.636.636,0,0,1,.512-.215.644.644,0,0,1,.489.263l3.939,5.388,4.275-4.8a.632.632,0,0,1,.512-.215.644.644,0,0,1,.489.263l3.939,5.388,4.275-4.8a.635.635,0,0,1,.512-.215.644.644,0,0,1,.489.263l3.94,5.388,4.274-4.8a.626.626,0,0,1,.512-.215.644.644,0,0,1,.489.263l3.94,5.388,4.276-4.8a.632.632,0,0,1,.512-.215.644.644,0,0,1,.489.263l3.94,5.389,4.278-4.8a.644.644,0,0,1,1,.048l4.413,6.031a.644.644,0,0,1-.519,1.024Z" transform="translate(-11 -72.349)"/><path class="cls-18" d="M168.765,122.966a.643.643,0,0,1-.52-.264l-3.943-5.389-4.278,4.8a.657.657,0,0,1-.512.215.643.643,0,0,1-.489-.263l-3.94-5.389-4.277,4.8a.644.644,0,0,1-1-.048l-3.939-5.388-4.274,4.8a.644.644,0,0,1-1-.048l-3.939-5.388-4.275,4.8a.659.659,0,0,1-.512.215.644.644,0,0,1-.489-.263l-3.939-5.388-4.275,4.8a.644.644,0,0,1-1-.048l-3.939-5.388-4.274,4.8a.643.643,0,0,1-1-.048l-3.939-5.388-4.275,4.8a.65.65,0,0,1-.512.215.643.643,0,0,1-.489-.263L99.8,112.871l-4.273,4.8a.653.653,0,0,1-.512.215.643.643,0,0,1-.489-.263l-3.939-5.388-4.272,4.8a.644.644,0,0,1-1-.048L81.375,111.6,77.1,116.4a.644.644,0,0,1-1-.048l-3.939-5.388-4.275,4.8a.643.643,0,0,1-1-.048l-3.939-5.388-4.274,4.8a.644.644,0,0,1-1-.048L53.735,109.7l-4.274,4.8a.634.634,0,0,1-.512.215.643.643,0,0,1-.489-.263l-3.938-5.388-4.274,4.8a.644.644,0,0,1-1-.048l-3.938-5.387-4.274,4.8a.644.644,0,0,1-1-.048L26.1,107.794l-4.274,4.8a.644.644,0,0,1-1-.048l-3.938-5.387-4.273,4.8a.644.644,0,0,1-.962-.856l4.8-5.4a.644.644,0,0,1,1,.048l3.938,5.387,4.274-4.8a.644.644,0,0,1,1,.048l3.938,5.388,4.275-4.8a.65.65,0,0,1,.512-.215.643.643,0,0,1,.489.263l3.938,5.387,4.274-4.8a.652.652,0,0,1,.512-.215.643.643,0,0,1,.489.263l3.938,5.388,4.274-4.8a.636.636,0,0,1,.512-.215.643.643,0,0,1,.489.263l3.939,5.388,4.274-4.8a.651.651,0,0,1,.512-.215.643.643,0,0,1,.489.263l3.939,5.388,4.275-4.8a.643.643,0,0,1,1,.048l3.939,5.388,4.274-4.8a.644.644,0,0,1,1,.048l3.939,5.388,4.273-4.8a.644.644,0,0,1,1,.048l3.939,5.388,4.273-4.8a.662.662,0,0,1,.512-.215.643.643,0,0,1,.489.263l3.939,5.388,4.275-4.8a.643.643,0,0,1,1,.048l3.939,5.388,4.274-4.8a.644.644,0,0,1,1,.048l3.939,5.388,4.275-4.8a.644.644,0,0,1,1,.048l3.939,5.388,4.275-4.8a.637.637,0,0,1,.512-.215.644.644,0,0,1,.489.263l3.939,5.388,4.274-4.8a.644.644,0,0,1,1,.048l3.939,5.388,4.277-4.8a.644.644,0,0,1,1,.048l3.94,5.389,4.278-4.8a.644.644,0,0,1,1,.048l4.413,6.031a.644.644,0,0,1-.519,1.024Z" transform="translate(-11 -72.349)"/><path class="cls-18" d="M170.058,126.148a.215.215,0,0,1-.187-.319l17.5-31.454a.214.214,0,1,1,.375.209l-17.5,31.454A.214.214,0,0,1,170.058,126.148Z" transform="translate(-11 -72.349)"/><path class="cls-18" d="M170.311,122.537a.215.215,0,0,1-.186-.321l17.263-30.029a.215.215,0,0,1,.372.214L170.5,122.429A.214.214,0,0,1,170.311,122.537Z" transform="translate(-11 -72.349)"/><path class="cls-18" d="M170.614,118.455a.211.211,0,0,1-.11-.031.214.214,0,0,1-.074-.294l17-28.4a.214.214,0,1,1,.368.22l-17,28.4A.214.214,0,0,1,170.614,118.455Z" transform="translate(-11 -72.349)"/><path class="cls-18" d="M168.623,127.048a.643.643,0,0,1-.52-.264l-3.943-5.389-4.278,4.8a.651.651,0,0,1-.512.215.643.643,0,0,1-.489-.263l-3.94-5.388-4.276,4.8a.644.644,0,0,1-1-.048l-3.939-5.388-4.274,4.8a.644.644,0,0,1-1-.048l-3.94-5.388-4.275,4.8a.644.644,0,0,1-1-.048l-3.939-5.388-4.275,4.8a.644.644,0,0,1-1-.048l-3.939-5.388-4.274,4.8a.643.643,0,0,1-1-.048l-3.939-5.387-4.275,4.8a.652.652,0,0,1-.512.215.643.643,0,0,1-.489-.263l-3.939-5.388-4.273,4.8a.656.656,0,0,1-.512.215.644.644,0,0,1-.489-.263l-3.938-5.388-4.273,4.8a.644.644,0,0,1-1-.048l-3.939-5.388-4.274,4.8a.636.636,0,0,1-.512.215.644.644,0,0,1-.489-.263l-3.939-5.388-4.275,4.8a.636.636,0,0,1-.512.215.643.643,0,0,1-.489-.263l-3.939-5.388-4.274,4.8a.636.636,0,0,1-.512.215.643.643,0,0,1-.489-.263l-3.939-5.388-4.274,4.8a.644.644,0,0,1-1-.048l-3.938-5.388-4.274,4.8a.644.644,0,0,1-1-.048l-3.938-5.388-4.274,4.8a.633.633,0,0,1-.512.215.643.643,0,0,1-.489-.263l-3.938-5.388-4.274,4.8a.632.632,0,0,1-.512.215.643.643,0,0,1-.489-.263l-3.938-5.388-4.273,4.8a.644.644,0,0,1-.962-.856l4.8-5.4a.644.644,0,0,1,1,.048l3.938,5.388,4.274-4.8a.644.644,0,0,1,1,.048l3.938,5.388,4.274-4.8a.644.644,0,0,1,1,.048l3.938,5.388,4.274-4.8a.651.651,0,0,1,.512-.215.643.643,0,0,1,.489.263l3.938,5.388,4.274-4.8a.654.654,0,0,1,.512-.215.643.643,0,0,1,.489.263l3.939,5.388,4.274-4.8a.644.644,0,0,1,1,.048l3.939,5.388,4.275-4.8a.653.653,0,0,1,.512-.215.644.644,0,0,1,.489.263l3.939,5.388,4.274-4.8a.644.644,0,0,1,1,.048l3.939,5.388,4.273-4.8a.644.644,0,0,1,1,.048l3.939,5.387,4.273-4.8a.644.644,0,0,1,1,.048l3.939,5.388,4.275-4.8a.626.626,0,0,1,.512-.215.644.644,0,0,1,.489.263l3.939,5.388,4.274-4.8a.635.635,0,0,1,.512-.215.644.644,0,0,1,.489.263l3.939,5.388,4.275-4.8a.644.644,0,0,1,1,.048l3.939,5.388,4.275-4.8a.63.63,0,0,1,.512-.215.644.644,0,0,1,.489.263l3.94,5.388,4.274-4.8a.63.63,0,0,1,.512-.215.644.644,0,0,1,.489.263l3.94,5.388,4.276-4.8a.644.644,0,0,1,1,.048l3.94,5.389,4.278-4.8a.644.644,0,0,1,1,.048l4.413,6.032a.644.644,0,0,1-.519,1.024Z" transform="translate(-11 -72.349)"/><path class="cls-18" d="M164.632,108.771a.644.644,0,0,1-.525-1.016l18.735-26.411a.644.644,0,1,1,1.05.745L165.158,108.5A.643.643,0,0,1,164.632,108.771Z" transform="translate(-11 -72.349)"/><path class="cls-18" d="M155.414,108.136a.644.644,0,0,1-.5-1.043l20.775-26.27a.644.644,0,0,1,1.01.8l-20.775,26.27A.643.643,0,0,1,155.414,108.136Z" transform="translate(-11 -72.349)"/><path class="cls-18" d="M146.2,107.5a.644.644,0,0,1-.484-1.067L168.528,80.3a.644.644,0,0,1,.97.846l-22.814,26.13A.642.642,0,0,1,146.2,107.5Z" transform="translate(-11 -72.349)"/><path class="cls-18" d="M136.985,106.866a.644.644,0,0,1-.465-1.089l24.854-25.989a.644.644,0,1,1,.93.89l-24.854,25.99A.643.643,0,0,1,136.985,106.866Z" transform="translate(-11 -72.349)"/><path class="cls-18" d="M127.77,106.232a.644.644,0,0,1-.446-1.107l26.893-25.849a.643.643,0,0,1,.892.928l-26.893,25.849A.639.639,0,0,1,127.77,106.232Z" transform="translate(-11 -72.349)"/><path class="cls-18" d="M118.556,105.6a.644.644,0,0,1-.428-1.125L147.06,78.764a.643.643,0,1,1,.855.962l-28.933,25.708A.641.641,0,0,1,118.556,105.6Z" transform="translate(-11 -72.349)"/><path class="cls-18" d="M109.343,104.962a.644.644,0,0,1-.41-1.14L139.9,78.254a.644.644,0,1,1,.82.993l-30.971,25.568A.642.642,0,0,1,109.343,104.962Z" transform="translate(-11 -72.349)"/><path class="cls-18" d="M100.129,104.328a.644.644,0,0,1-.393-1.153l33.011-25.428a.644.644,0,1,1,.785,1.02l-33.011,25.428A.641.641,0,0,1,100.129,104.328Z" transform="translate(-11 -72.349)"/><path class="cls-18" d="M90.918,103.693a.644.644,0,0,1-.377-1.166L125.59,77.241a.644.644,0,1,1,.753,1.044l-35.05,25.288A.64.64,0,0,1,90.918,103.693Z" transform="translate(-11 -72.349)"/><path class="cls-18" d="M81.706,103.059a.643.643,0,0,1-.362-1.176l37.088-25.147a.644.644,0,0,1,.722,1.066L82.067,102.947A.641.641,0,0,1,81.706,103.059Z" transform="translate(-11 -72.349)"/><path class="cls-18" d="M72.493,102.424a.643.643,0,0,1-.347-1.186l39.127-25.007a.643.643,0,1,1,.693,1.084L72.839,102.323A.639.639,0,0,1,72.493,102.424Z" transform="translate(-11 -72.349)"/><path class="cls-18" d="M63.28,101.789a.644.644,0,0,1-.333-1.195l41.166-24.866a.644.644,0,0,1,.665,1.1L63.612,101.7A.64.64,0,0,1,63.28,101.789Z" transform="translate(-11 -72.349)"/><path class="cls-18" d="M54.067,101.155a.644.644,0,0,1-.32-1.2l43.2-24.725a.644.644,0,0,1,.639,1.117l-43.2,24.725A.639.639,0,0,1,54.067,101.155Z" transform="translate(-11 -72.349)"/><path class="cls-18" d="M44.855,100.52a.644.644,0,0,1-.308-1.209L89.79,74.726a.644.644,0,0,1,.615,1.131L45.161,100.442A.644.644,0,0,1,44.855,100.52Z" transform="translate(-11 -72.349)"/><path class="cls-18" d="M35.642,99.886a.644.644,0,0,1-.3-1.216L82.628,74.226a.644.644,0,0,1,.591,1.143L35.937,99.814A.642.642,0,0,1,35.642,99.886Z" transform="translate(-11 -72.349)"/><path class="cls-18" d="M26.429,99.251a.644.644,0,0,1-.285-1.221l49.321-24.3a.644.644,0,0,1,.569,1.155l-49.321,24.3A.642.642,0,0,1,26.429,99.251Z" transform="translate(-11 -72.349)"/><path class="cls-18" d="M17.217,98.617a.644.644,0,0,1-.274-1.226L68.3,73.227a.644.644,0,1,1,.548,1.165L17.491,98.555A.641.641,0,0,1,17.217,98.617Z" transform="translate(-11 -72.349)"/></g><polygon id="RIGHT" class="cls-19" points="143.234 33.392 159.312 34.444 158.972 44.274 158.969 44.274 142.895 43.222 144.65 42.486 142.952 41.559 144.707 40.834 143.01 39.893 144.764 39.181 143.067 38.242 144.822 37.529 143.124 36.59 144.879 35.877 143.181 34.938 144.936 34.224 143.234 33.392"/><polygon id="RIGHT_PERSPECTIVE" class="cls-20" points="159.312 34.444 158.969 44.274 177.051 14.931 177.269 8.626 159.312 34.444"/><polygon id="SHADOW" class="cls-21" points="18.64 25.047 17.391 23.936 20.618 23.176 18.57 22.203 21.976 21.523 20.218 20.495 23.779 19.9 22.322 18.825 26.013 18.318 24.868 17.203 28.663 16.788 27.839 15.641 31.711 15.322 31.213 14.15 35.136 13.929 34.966 12.741 38.912 12.619 39.073 11.424 43.014 11.402 43.505 10.207 47.413 10.285 48.23 9.1 52.078 9.278 53.215 8.11 56.976 8.386 58.426 7.243 62.074 7.616 63.825 6.507 67.334 6.974 69.375 5.906 72.721 6.463 75.038 5.445 78.196 6.088 80.772 5.126 83.722 5.852 86.539 4.952 89.259 5.755 92.297 4.925 94.768 5.799 98.007 5.043 100.211 5.983 103.628 5.308 105.55 6.306 109.12 5.715 110.748 6.765 114.446 6.264 115.767 7.358 119.567 6.95 120.572 8.08 124.449 7.768 125.131 8.927 129.056 8.712 129.411 9.892 133.357 9.776 133.381 10.968 137.32 10.952 137.014 12.148 140.92 12.232 140.285 13.424 144.129 13.608 143.171 14.787 146.926 15.069 145.651 16.227 149.291 16.605 147.708 17.734 151.208 18.206 149.327 19.297 152.662 19.859 150.498 20.906 153.645 21.555 151.212 22.549 154.148 23.28 156.676 7.208 52.036 0 0.71 23.472 0.358 33.646 18.31 34.849 16.609 34.01 18.363 33.32 16.666 32.357 18.42 31.655 16.723 30.705 18.477 30.003 16.78 29.052 18.534 28.351 16.839 27.352 18.593 26.652 16.896 25.7 18.64 25.047"/><polygon id="LEFT" class="cls-22" points="17.353 24.618 0.71 23.472 0.37 33.301 17.014 34.417 15.313 33.577 17.067 32.888 15.37 31.925 17.125 31.222 15.427 30.272 17.182 29.57 15.484 28.62 17.239 27.919 15.543 26.92 17.297 26.219 15.6 25.268 17.353 24.618"/><polygon id="TOP" class="cls-23" points="52.036 0 0.71 23.472 17.353 24.618 17.353 24.618 16.104 23.507 19.331 22.747 17.283 21.774 20.689 21.094 18.93 20.066 22.492 19.471 21.035 18.395 24.726 17.889 23.581 16.773 27.376 16.359 26.552 15.212 30.424 14.893 29.925 13.721 33.848 13.5 33.679 12.312 37.625 12.19 37.786 10.995 41.727 10.973 42.217 9.778 46.126 9.856 46.942 8.671 50.791 8.849 51.928 7.681 55.689 7.957 57.138 6.814 60.786 7.187 62.538 6.078 66.047 6.544 68.088 5.477 71.434 6.034 73.75 5.016 76.909 5.659 79.485 4.697 82.435 5.423 85.252 4.523 87.971 5.326 91.01 4.496 93.481 5.37 96.72 4.614 98.924 5.554 102.34 4.878 104.263 5.876 107.833 5.286 109.46 6.336 113.159 5.835 114.48 6.929 118.28 6.521 119.285 7.651 123.162 7.338 123.844 8.498 127.769 8.283 128.123 9.463 132.069 9.347 132.094 10.539 136.033 10.523 135.727 11.719 139.632 11.803 138.998 12.995 142.842 13.179 141.884 14.358 145.639 14.64 144.364 15.798 148.004 16.176 146.421 17.304 149.921 17.776 148.04 18.868 151.375 19.43 149.211 20.477 152.357 21.126 149.925 22.12 152.861 22.851 150.176 23.786 152.881 24.593 149.964 25.463 152.419 26.341 149.29 27.139 151.478 28.082 148.158 28.803 150.063 29.804 146.576 30.443 148.186 31.495 144.556 32.047 145.858 33.143 143.234 33.392 159.312 34.444 177.269 8.626 52.036 0"/></g><path id="OUTLINE" class="cls-24" d="M153.966,115.584a.215.215,0,0,1-.071-.417l1.23-.375-1.276-.7a.214.214,0,0,1,.021-.386l1.344-.555-1.308-.725a.214.214,0,0,1,.023-.386l1.339-.543-1.3-.722a.214.214,0,0,1,.023-.386l1.338-.544-1.3-.722a.214.214,0,0,1,.023-.386l1.339-.544-1.3-.721a.214.214,0,0,1,.023-.386l1.311-.533-1.271-.621a.215.215,0,0,1,.074-.406l2.115-.2-.911-.767a.215.215,0,0,1,.106-.376l3.074-.467-1.139-.745a.215.215,0,0,1,.079-.391l2.875-.526-1.355-.712a.214.214,0,0,1,.054-.4l2.666-.579-1.574-.678a.214.214,0,0,1,.032-.4l2.449-.625-1.794-.642a.215.215,0,0,1,.011-.408l2.228-.664-2.016-.6a.214.214,0,0,1-.009-.408l2-.7-2.237-.556a.215.215,0,0,1-.03-.407l1.781-.728-2.457-.507a.214.214,0,0,1-.05-.4l1.559-.754L159,91.428a.215.215,0,0,1-.072-.4l1.339-.777-2.879-.389a.214.214,0,0,1-.1-.387l1.121-.8-3.076-.32a.214.214,0,0,1-.122-.372l.906-.822-3.258-.244a.215.215,0,0,1-.15-.349l.691-.85-3.42-.164a.214.214,0,0,1-.179-.315l.471-.884-3.557-.077a.214.214,0,0,1-.2-.268l.237-.927-3.662.015h0a.215.215,0,0,1-.215-.21l-.02-.975-3.73.11a.211.211,0,0,1-.212-.153l-.306-1.018-3.757.206a.211.211,0,0,1-.2-.105l-.614-1.044-3.742.3a.216.216,0,0,1-.177-.071l-.932-1.048-3.691.4a.215.215,0,0,1-.16-.048l-1.249-1.034-3.605.488a.215.215,0,0,1-.145-.032l-1.558-1-3.488.577a.215.215,0,0,1-.134-.021l-1.856-.963-3.343.66a.211.211,0,0,1-.126-.013l-2.14-.912-3.171.74a.211.211,0,0,1-.12-.007L102,77.069l-2.974.813a.211.211,0,0,1-.117,0L96.254,77.1l-2.755.879a.212.212,0,0,1-.116,0L90.5,77.27l-2.514.939a.217.217,0,0,1-.118.009l-3.092-.63-2.254.991a.212.212,0,0,1-.122.015l-3.275-.545-1.977,1.034a.217.217,0,0,1-.128.023l-3.432-.456L71.9,79.717a.215.215,0,0,1-.137.032L68.2,79.385l-1.381,1.089a.21.21,0,0,1-.149.046l-3.662-.269-1.067,1.1a.207.207,0,0,1-.164.065l-3.729-.172L57.3,82.327a.227.227,0,0,1-.181.093l-3.761-.075L52.925,83.4a.214.214,0,0,1-.2.133l-3.754.021-.136,1.01a.215.215,0,0,1-.206.186l-3.706.115.136.95a.215.215,0,0,1-.2.244l-3.618.2.379.891a.214.214,0,0,1-.18.3l-3.495.288.6.84a.215.215,0,0,1-.151.339l-3.343.365.819.8a.215.215,0,0,1-.121.366l-3.168.435,1.032.762a.215.215,0,0,1-.092.384l-2.977.5,1.247.729a.214.214,0,0,1-.066.4l-2.772.553,1.464.7a.214.214,0,0,1-.043.4l-2.826.665.941.837a.215.215,0,0,1-.068.362l-1.317.488,1.292.725a.214.214,0,0,1-.025.386l-1.349.538,1.319.777a.214.214,0,0,1-.029.384L26.981,101l1.305.731a.214.214,0,0,1-.025.386l-1.337.535,1.305.73a.214.214,0,0,1-.025.386l-1.341.537,1.309.743a.214.214,0,0,1-.027.386l-1.3.512,1.254.41a.214.214,0,1,1-.19.385l-1.689-.625a.214.214,0,0,1,.016-.392l1.336-.525-1.306-.741a.214.214,0,0,1,.026-.385l1.338-.536-1.305-.73a.214.214,0,0,1,.025-.386l1.337-.535-1.305-.731a.214.214,0,0,1,.025-.386l1.349-.539-1.319-.777a.214.214,0,0,1,.029-.384l1.337-.534L26.5,97.8a.215.215,0,0,1,.03-.388l1.418-.525-.982-.874a.214.214,0,0,1,.093-.369l2.632-.62-1.5-.711a.214.214,0,0,1,.05-.4l2.852-.569L29.822,92.6a.215.215,0,0,1,.073-.4l3.062-.512-1.05-.775a.214.214,0,0,1,.1-.385l3.256-.447-.83-.809a.215.215,0,0,1,.127-.367l3.429-.374-.61-.849a.214.214,0,0,1,.157-.339l3.577-.295-.382-.9a.214.214,0,0,1,.185-.3l3.69-.208-.137-.956a.215.215,0,0,1,.206-.245l3.764-.116.137-1.015a.215.215,0,0,1,.211-.186l3.8-.021.436-1.063a.254.254,0,0,1,.2-.133l3.793.076.751-1.09a.206.206,0,0,1,.186-.093l3.752.173,1.07-1.1a.21.21,0,0,1,.169-.065l3.678.271,1.384-1.091a.207.207,0,0,1,.155-.045l3.574.365,1.689-1.069a.221.221,0,0,1,.143-.031l3.442.458,1.981-1.036a.211.211,0,0,1,.134-.021l3.283.546,2.258-.993a.22.22,0,0,1,.129-.014l3.1.631,2.519-.941a.22.22,0,0,1,.126-.007l2.89.711,2.76-.881a.215.215,0,0,1,.126,0l2.661.786,2.98-.815a.219.219,0,0,1,.128,0l2.412.853,3.178-.741a.215.215,0,0,1,.133.012l2.144.913,3.351-.662a.212.212,0,0,1,.141.02L115.3,78l3.5-.579a.207.207,0,0,1,.151.031l1.561,1.006,3.62-.49a.22.22,0,0,1,.166.047l1.251,1.036,3.711-.4a.212.212,0,0,1,.183.071l.934,1.051,3.77-.3a.219.219,0,0,1,.2.1l.616,1.047,3.795-.208a.2.2,0,0,1,.217.153l.307,1.022,3.782-.111a.215.215,0,0,1,.221.21l.02.981,3.729-.015h0a.214.214,0,0,1,.208.268l-.239.934,3.635.078a.215.215,0,0,1,.185.316l-.475.892,3.506.168a.214.214,0,0,1,.156.349l-.7.861,3.346.251a.215.215,0,0,1,.128.373l-.92.835,3.163.329a.214.214,0,0,1,.1.388l-1.142.814,2.962.4a.214.214,0,0,1,.079.4l-1.366.793,2.749.463a.215.215,0,0,1,.058.4l-1.594.771,2.527.521a.214.214,0,0,1,.038.409l-1.825.746,2.3.572a.214.214,0,0,1,.019.411l-2.058.717,2.069.617a.215.215,0,0,1,0,.411l-2.29.683,1.839.658a.214.214,0,0,1-.019.41l-2.519.643,1.61.694a.214.214,0,0,1-.039.406l-2.743.6,1.383.727a.215.215,0,0,1-.061.4l-2.959.542,1.16.759a.214.214,0,0,1-.085.391l-3.161.48.94.791a.215.215,0,0,1-.118.378l-1.866.177,1.018.5a.215.215,0,0,1-.013.391l-1.339.545,1.3.722a.214.214,0,0,1-.023.386l-1.339.544,1.3.722a.214.214,0,0,1-.023.386l-1.339.544,1.3.722a.214.214,0,0,1-.023.386l-1.339.543,1.3.723a.215.215,0,0,1-.022.386l-1.34.553,1.3.713a.214.214,0,0,1-.032.391l-1.684.534A.212.212,0,0,1,153.966,115.584Z" transform="translate(-11 -72.349)"/></g></svg>