<svg id="Layer_1" data-name="Layer 1" xmlns="http://www.w3.org/2000/svg" xmlns:xlink="http://www.w3.org/1999/xlink" viewBox="0 0 94.721 22.949"><defs><style>.cls-1{fill:url(#linear-gradient);}.cls-2{fill:#6300c2;}.cls-3{font-size:12px;fill:#fff;font-family:Arial-BoldMT, Arial;font-weight:700;}</style><linearGradient id="linear-gradient" x1="47.74" y1="21.347" x2="47.74" y2="1.347" gradientUnits="userSpaceOnUse"><stop offset="0" stop-color="#dba628"/><stop offset="1" stop-color="#6300c2"/></linearGradient></defs><title>ANGIOTENSIN</title><g id="ANGIOTENSIN"><rect class="cls-1" x="1.24" y="1.347" width="93" height="20" rx="10" ry="10"/><path class="cls-2" d="M134.222,113.292c-8.7-.009-17.4.43-26.1.837-8.7.458-17.4.546-26.1.613-4.349,0-8.7.019-13.048-.037l-6.524-.076-.816-.01c-.26,0-.548-.007-.873-.031a12.5,12.5,0,0,1-1.853-.234,11.76,11.76,0,0,1-3.448-1.382,11.345,11.345,0,0,1-4.715-5.546,11.2,11.2,0,0,1-.316-7.211,11,11,0,0,1,10.788-7.9c8.7.261,17.4.449,26.1.335,4.349-.049,8.7-.194,13.049-.349l13.048-.413c4.349-.085,8.7-.131,13.048-.071q3.262.022,6.524.128a15.855,15.855,0,0,1,3.468.337,11.328,11.328,0,0,1,3.284,1.428,10.857,10.857,0,0,1,4.337,5.4,10.412,10.412,0,0,1,.62,3.384,9.847,9.847,0,0,1-.465,3.361A10.568,10.568,0,0,1,134.222,113.292Zm0-.3a9.72,9.72,0,0,0,5.937-2.087,9.414,9.414,0,0,0,3.331-5.252,9.247,9.247,0,0,0-7.472-11.246,17.437,17.437,0,0,0-3.03-.075q-3.262.108-6.524.128c-4.349.061-8.7.015-13.048-.071l-13.048-.413c-4.349-.155-8.7-.3-13.049-.349-8.7-.114-17.4.074-26.1.335a9.115,9.115,0,0,0-8.492,6.879,8.689,8.689,0,0,0,.467,5.576,8.766,8.766,0,0,0,6.3,5.1,9.614,9.614,0,0,0,1.383.138c.218.014.473.017.757.01l.816-.01,6.524-.076c4.349-.056,8.7-.036,13.048-.037,8.7.066,17.4.155,26.1.613C116.824,112.562,125.523,113,134.222,112.992Z" transform="translate(-49.982 -91.795)"/><text class="cls-3" transform="translate(6.071 14.169)">ANGIOTENSIN</text></g></svg>