<svg id="Layer_1" data-name="Layer 1" xmlns="http://www.w3.org/2000/svg" xmlns:xlink="http://www.w3.org/1999/xlink" viewBox="0 0 78.911 22.949"><defs><style>.cls-1{fill:url(#linear-gradient);}.cls-2{fill:#724bbe;}.cls-3{font-size:12px;fill:#fff;font-family:Arial-BoldMT, Arial;font-weight:700;}</style><linearGradient id="linear-gradient" x1="39.796" y1="1.347" x2="39.796" y2="21.347" gradientUnits="userSpaceOnUse"><stop offset="0" stop-color="#724bbe"/><stop offset="1" stop-color="#c4734e"/></linearGradient></defs><title>HNF4A-5,6,7</title><g id="HNF4A-5_6_7" data-name="HNF4A-5,6,7"><rect class="cls-1" x="1.296" y="1.347" width="77" height="20" rx="10" ry="10"/><path class="cls-2" d="M128.5,110.15c-7.366-.009-14.731.43-22.1.837-7.366.458-14.731.546-22.1.613-3.683,0-7.366.019-11.048-.037-.924-.017-1.8,0-2.914-.1a11.944,11.944,0,0,1-3.07-.8,11.462,11.462,0,0,1-4.9-3.858,11.079,11.079,0,0,1-.859-11.822A10.974,10.974,0,0,1,71.5,89.179c7.366.261,14.731.449,22.1.335,3.683-.049,7.366-.194,11.048-.349l11.048-.413c3.683-.085,7.366-.131,11.048-.071.924.016,1.8.005,2.889.1a11.635,11.635,0,0,1,2.985.83A10.7,10.7,0,0,1,128.5,110.15Zm0-.3a9.7,9.7,0,0,0,5.132-1.531,9.2,9.2,0,0,0,2.018-1.773,8.514,8.514,0,0,0,1.431-2.245,9.211,9.211,0,0,0-1.336-9.7,9.374,9.374,0,0,0-4.01-2.78,9.24,9.24,0,0,0-2.36-.494c-.752-.042-1.715-.019-2.632-.006-3.683.061-7.366.015-11.048-.071l-11.048-.413c-3.683-.155-7.366-.3-11.048-.349-7.366-.114-14.731.074-22.1.335a9.094,9.094,0,0,0-4.7,1.555,9.457,9.457,0,0,0-3.162,3.685,8.748,8.748,0,0,0,.993,9.058,8.563,8.563,0,0,0,3.744,2.786,8.941,8.941,0,0,0,2.275.526c.72.04,1.691.019,2.608.005,3.683-.056,7.366-.036,11.048-.037,7.366.066,14.731.155,22.1.613C113.769,109.42,121.134,109.859,128.5,109.85Z" transform="translate(-60.204 -88.653)"/><text class="cls-3" transform="translate(4.452 14.236)">HNF4A-5,6,7</text></g></svg>