<svg id="Layer_1" data-name="Layer 1" xmlns="http://www.w3.org/2000/svg" xmlns:xlink="http://www.w3.org/1999/xlink" viewBox="0 0 43.782 41.401"><defs><style>.cls-1{fill:url(#linear-gradient);}.cls-2{fill:url(#linear-gradient-2);}.cls-3{fill:url(#linear-gradient-3);}.cls-4{fill:url(#linear-gradient-4);}.cls-5{fill:url(#linear-gradient-5);}.cls-6{fill:url(#linear-gradient-6);}.cls-7{fill:url(#linear-gradient-7);}</style><linearGradient id="linear-gradient" x1="909.117" y1="163.173" x2="909.117" y2="133.568" gradientTransform="matrix(1, 0, 0, -1, -814.069, 242.614)" gradientUnits="userSpaceOnUse"><stop offset="0.002" stop-color="#7000bf"/><stop offset="0.206" stop-color="#95219f"/><stop offset="0.427" stop-color="#b73e84"/><stop offset="0.639" stop-color="#cf536f"/><stop offset="0.835" stop-color="#dd6063"/><stop offset="1" stop-color="#e2645f"/></linearGradient><linearGradient id="linear-gradient-2" x1="78.109" y1="92.667" x2="83.06" y2="92.667" gradientTransform="matrix(1, 0, 0, -1, 0, 202)" gradientUnits="userSpaceOnUse"><stop offset="0" stop-color="#09bf6d"/><stop offset="1" stop-color="#09586d"/></linearGradient><linearGradient id="linear-gradient-3" x1="83.061" y1="92.667" x2="88.012" y2="92.667" xlink:href="#linear-gradient-2"/><linearGradient id="linear-gradient-4" x1="102.085" y1="92.667" x2="107.037" y2="92.667" gradientTransform="matrix(1, 0, 0, -1, 0, 202)" gradientUnits="userSpaceOnUse"><stop offset="0" stop-color="#ff91ff"/><stop offset="1" stop-color="#0a6bda"/></linearGradient><linearGradient id="linear-gradient-5" x1="107.037" y1="92.667" x2="111.988" y2="92.667" xlink:href="#linear-gradient-4"/><linearGradient id="linear-gradient-6" x1="111.988" y1="92.667" x2="116.94" y2="92.667" xlink:href="#linear-gradient-4"/><linearGradient id="linear-gradient-7" x1="116.94" y1="92.667" x2="121.891" y2="92.667" xlink:href="#linear-gradient-4"/></defs><title>OLD_n_NEW</title><g id="TCR-CD3"><path id="TCR" class="cls-1" d="M90.036,100.024V108.9H88.012v-24.7h2.025a5.013,5.013,0,0,1,10.024.037v-.037h2.025v24.7H100.06v-8.885Z" transform="translate(-78.109 -79.299)"/><g id="CD3"><path id="CD3_Gamma_chain" class="cls-2" d="M80.584,120.7a2.286,2.286,0,0,1-2.476-2.3V100.262a2.483,2.483,0,0,1,4.951,0V118.4A2.286,2.286,0,0,1,80.584,120.7Z" transform="translate(-78.109 -79.299)"/><path id="CD3_Epsilon_chain" class="cls-3" d="M85.536,120.7a2.286,2.286,0,0,1-2.476-2.3V100.262a2.483,2.483,0,0,1,4.951,0V118.4A2.286,2.286,0,0,1,85.536,120.7Z" transform="translate(-78.109 -79.299)"/><path id="CD3_Epsilon_chain-2" data-name="CD3_Epsilon_chain" class="cls-4" d="M104.561,120.7a2.286,2.286,0,0,1-2.476-2.3V100.262a2.483,2.483,0,0,1,4.951,0V118.4A2.286,2.286,0,0,1,104.561,120.7Z" transform="translate(-78.109 -79.299)"/><path id="CD3_Delta_chain" class="cls-5" d="M109.512,120.7a2.286,2.286,0,0,1-2.476-2.3V100.262a2.483,2.483,0,0,1,4.951,0V118.4A2.286,2.286,0,0,1,109.512,120.7Z" transform="translate(-78.109 -79.299)"/></g><path id="CD3_Zeta_chain" class="cls-6" d="M114.464,120.7a2.286,2.286,0,0,1-2.476-2.3V100.262a2.483,2.483,0,0,1,4.951,0V118.4A2.286,2.286,0,0,1,114.464,120.7Z" transform="translate(-78.109 -79.299)"/><path id="CD3_Zeta_chain-2" data-name="CD3_Zeta_chain" class="cls-7" d="M119.416,120.7a2.286,2.286,0,0,1-2.476-2.3V100.262a2.483,2.483,0,0,1,4.951,0V118.4A2.286,2.286,0,0,1,119.416,120.7Z" transform="translate(-78.109 -79.299)"/></g></svg>