<svg id="Layer_1" data-name="Layer 1" xmlns="http://www.w3.org/2000/svg" xmlns:xlink="http://www.w3.org/1999/xlink" viewBox="0 0 63.291 63.29"><defs><style>.cls-1{fill:url(#radial-gradient);}.cls-2{fill:#b59a20;}.cls-3{fill:url(#radial-gradient-2);}.cls-4{fill:url(#linear-gradient);}.cls-5{fill:url(#linear-gradient-2);}.cls-6{fill:url(#linear-gradient-3);}.cls-7{fill:url(#linear-gradient-4);}</style><radialGradient id="radial-gradient" cx="96.626" cy="116.74" r="23.39" gradientTransform="matrix(1, 0, 0, -1, -68.765, 142.615)" gradientUnits="userSpaceOnUse"><stop offset="0" stop-color="#c09e1d"/><stop offset="1" stop-color="#336646"/></radialGradient><radialGradient id="radial-gradient-2" cx="-592.615" cy="422.153" r="24.514" gradientTransform="matrix(0, 1, 1, 0, -322.843, 691.415)" gradientUnits="userSpaceOnUse"><stop offset="0.921" stop-color="#c09e1d"/><stop offset="0.97" stop-color="#ffe4b2"/><stop offset="1" stop-color="#b59a20"/></radialGradient><linearGradient id="linear-gradient" x1="98.151" y1="67.258" x2="107.189" y2="82.913" gradientTransform="matrix(1, 0, 0, -1, -68.765, 134.462)" gradientUnits="userSpaceOnUse"><stop offset="0" stop-color="#560004"/><stop offset="1" stop-color="#336646"/></linearGradient><linearGradient id="linear-gradient-2" x1="93.632" y1="122.721" x2="102.67" y2="138.376" xlink:href="#linear-gradient"/><linearGradient id="linear-gradient-3" x1="68.765" y1="93.779" x2="76.593" y2="107.337" xlink:href="#linear-gradient"/><linearGradient id="linear-gradient-4" x1="124.228" y1="98.298" x2="132.056" y2="111.855" xlink:href="#linear-gradient"/></defs><title>microbe_02</title><g id="MICROBE"><circle class="cls-1" cx="31.645" cy="31.217" r="23.39"/><path class="cls-2" d="M99.983,123.642a24.46,24.46,0,1,1,24.459-24.46A24.487,24.487,0,0,1,99.983,123.642Zm0-46.78A22.322,22.322,0,1,0,122.3,99.183,22.346,22.346,0,0,0,99.983,76.862Z" transform="translate(-68.765 -67.538)"/><path class="cls-3" d="M75.737,99.183a24.245,24.245,0,1,1,24.245,24.245A24.273,24.273,0,0,1,75.737,99.183Zm46.781,0a22.535,22.535,0,1,0-22.536,22.535A22.56,22.56,0,0,0,122.518,99.183Z" transform="translate(-68.765 -67.538)"/><polygon class="cls-4" points="31.645 47.635 22.607 63.29 40.684 63.29 31.645 47.635"/><polygon class="cls-5" points="31.646 15.655 40.684 0 22.607 0 31.646 15.655"/><polygon class="cls-6" points="15.655 31.645 0 22.606 0 40.683 15.655 31.645"/><polygon class="cls-7" points="47.636 31.645 63.291 40.683 63.291 22.607 47.636 31.645"/></g></svg>