<svg id="Layer_1" data-name="Layer 1" xmlns="http://www.w3.org/2000/svg" xmlns:xlink="http://www.w3.org/1999/xlink" viewBox="0 0 42.84 23.302"><defs><style>.cls-1{fill:url(#linear-gradient);}.cls-2{fill:#333;}.cls-3{fill:#fff;}.cls-4{fill:url(#linear-gradient-2);}</style><linearGradient id="linear-gradient" x1="75.68" y1="108.361" x2="75.607" y2="95.251" gradientTransform="matrix(1, 0, 0, -1, -40.314, 113.653)" gradientUnits="userSpaceOnUse"><stop offset="0" stop-color="#8b0068"/><stop offset="0.02" stop-color="#8f0466"/><stop offset="0.187" stop-color="#aa2357"/><stop offset="0.363" stop-color="#bf3b4c"/><stop offset="0.548" stop-color="#ce4c43"/><stop offset="0.751" stop-color="#d7563f"/><stop offset="1" stop-color="#da593d"/></linearGradient><linearGradient id="linear-gradient-2" x1="3.695" y1="5.206" x2="20.806" y2="22.317" gradientUnits="userSpaceOnUse"><stop offset="0" stop-color="#ccc"/><stop offset="1" stop-color="#333"/></linearGradient></defs><title>R-ICO-013912</title><g id="Pentose_phosphate" data-name="Pentose phosphate"><g id="R-ICO-013177_" data-name="R-ICO-013177
"><circle class="cls-1" cx="35.331" cy="11.651" r="6.849"/><rect class="cls-2" x="20.501" y="10.991" width="7.981" height="1.32"/><path id="P" class="cls-3" d="M111.027,104.085V95.5h2.783a10.087,10.087,0,0,1,2.063.129,2.251,2.251,0,0,1,1.236.841,2.667,2.667,0,0,1,.5,1.673,2.8,2.8,0,0,1-.287,1.33,2.362,2.362,0,0,1-.729.847,2.525,2.525,0,0,1-.9.407,9.9,9.9,0,0,1-1.8.123h-1.13v3.24Zm1.735-7.137v2.438h.949a4.482,4.482,0,0,0,1.371-.135,1.139,1.139,0,0,0,.542-.422,1.152,1.152,0,0,0,.2-.668,1.112,1.112,0,0,0-.275-.773,1.2,1.2,0,0,0-.7-.381,8.325,8.325,0,0,0-1.248-.059Z" transform="translate(-78.58 -88.347)"/><path class="cls-2" d="M113.91,107.508a7.51,7.51,0,1,1,7.51-7.51A7.518,7.518,0,0,1,113.91,107.508Zm0-13.7A6.19,6.19,0,1,0,120.1,100,6.2,6.2,0,0,0,113.91,93.809Z" transform="translate(-78.58 -88.347)"/></g><polygon id="Pentose" class="cls-4" points="12.251 0 0 8.901 4.679 23.302 19.822 23.302 24.501 8.901 12.251 0"/></g></svg>