<svg id="Layer_1" data-name="Layer 1" xmlns="http://www.w3.org/2000/svg" xmlns:xlink="http://www.w3.org/1999/xlink" viewBox="0 0 43.579 56.739"><defs><style>.cls-1{fill:url(#linear-gradient);}.cls-2{fill:url(#linear-gradient-2);}.cls-3{fill:url(#linear-gradient-3);}</style><linearGradient id="linear-gradient" x1="1470.018" y1="696.687" x2="1470.018" y2="646.896" gradientTransform="matrix(1, 0.012, 0.012, -1, -1377.954, 754.489)" gradientUnits="userSpaceOnUse"><stop offset="0" stop-color="#8ad2bc"/><stop offset="0.031" stop-color="#81cdb6"/><stop offset="0.17" stop-color="#5bba9d"/><stop offset="0.299" stop-color="#40ac8c"/><stop offset="0.413" stop-color="#30a481"/><stop offset="0.5" stop-color="#2aa17d"/><stop offset="0.587" stop-color="#30a481"/><stop offset="0.701" stop-color="#40ac8c"/><stop offset="0.83" stop-color="#5bba9d"/><stop offset="0.969" stop-color="#81cdb6"/><stop offset="1" stop-color="#8ad2bc"/></linearGradient><linearGradient id="linear-gradient-2" x1="898.11" y1="253.76" x2="878.168" y2="250.315" gradientTransform="translate(-799.343 -33.258) rotate(-7.541)" gradientUnits="userSpaceOnUse"><stop offset="0" stop-color="#d7b532"/><stop offset="1" stop-color="#e086ff"/></linearGradient><linearGradient id="linear-gradient-3" x1="853.558" y1="247.115" x2="870.009" y2="250.12" xlink:href="#linear-gradient-2"/></defs><title>Symporter_04</title><g id="Symporter"><path class="cls-1" d="M80.481,127.921c14.423.17,14.754-27.972,14.754-27.972S95.566,71.8,81.143,71.635c0,0,12.27,3.344,19.014,3.423s19.09-2.975,19.09-2.975c-14.423-.17-14.754,27.976-14.754,27.976s-.331,28.141,14.092,28.311c0,0-12.235-3.344-19.014-3.423S80.481,127.921,80.481,127.921Z" transform="translate(-78.21 -71.631)"/><path class="cls-2" d="M107.781,100.093c-.257,21.86,9.522,19.131,10.911,19.147s2.3,1.517,2.26,5.046c-.033,2.819-.555,4.1-2.367,4.08-14.423-.17-14.092-28.311-14.092-28.311s.331-28.145,14.754-27.976c1.81.021,2.575,1.385,2.542,4.134s-1.261,5.012-2.65,5S108.038,78.233,107.781,100.093Z" transform="translate(-78.21 -71.631)"/><path class="cls-3" d="M91.948,99.907c-.257,21.86-9.97,18.9-11.358,18.885s-2.336,1.462-2.378,4.991c-.033,2.819.459,4.113,2.27,4.134,14.423.17,14.754-27.972,14.754-27.972S95.567,71.8,81.144,71.631c-1.81-.021-2.606,1.324-2.639,4.073s1.143,5.04,2.531,5.056S92.2,78.047,91.948,99.907Z" transform="translate(-78.21 -71.631)"/></g></svg>