<svg id="Layer_1" data-name="Layer 1" xmlns="http://www.w3.org/2000/svg" xmlns:xlink="http://www.w3.org/1999/xlink" viewBox="0 0 51.437 22.769"><defs><style>.cls-1{fill:url(#linear-gradient);}.cls-2{fill:#4195a3;}.cls-3{font-size:12px;fill:#fff;font-family:Arial-BoldMT, Arial;font-weight:700;}</style><linearGradient id="linear-gradient" x1="25.926" y1="1.194" x2="25.926" y2="21.194" gradientUnits="userSpaceOnUse"><stop offset="0" stop-color="#4195a3"/><stop offset="1" stop-color="#380064"/></linearGradient></defs><title>R-ICO-013694</title><g id="R-ICO-013128"><rect class="cls-1" x="1.426" y="1.194" width="49" height="20" rx="10"/><path class="cls-2" d="M114.5,110.15c-5.032-.009-10.065.43-15.1.837-2.516.2-5.032.388-7.548.457-1.259.057-2.517.074-3.775.093-1.289,0-2.416.1-3.961-.027a11.357,11.357,0,0,1-10-12.191,11.072,11.072,0,0,1,3.717-7.458A10.864,10.864,0,0,1,85.5,89.179c5.032.281,10.065.436,15.1.335,2.516-.059,5.032-.178,7.548-.342l3.775-.234a33.7,33.7,0,0,1,3.92-.1,10.664,10.664,0,0,1,7.345,3.907,10.474,10.474,0,0,1,2.239,7.907,10.835,10.835,0,0,1-3.818,6.89A11.176,11.176,0,0,1,114.5,110.15Zm0-.3a9,9,0,0,0,6.578-2.867,9.1,9.1,0,0,0,2.438-6.444,9.581,9.581,0,0,0-7.974-9.221c-1.022-.159-2.391-.171-3.622-.256l-3.775-.234c-2.516-.164-5.032-.283-7.548-.342-5.032-.1-10.065.054-15.1.335a9.158,9.158,0,0,0-6.016,2.792,8.9,8.9,0,0,0-2.538,5.875,8.654,8.654,0,0,0,7.554,8.845c.959.128,2.355.095,3.58.13,1.258.019,2.516.036,3.775.093,2.516.069,5.032.252,7.548.457C104.435,109.42,109.468,109.859,114.5,109.85Z" transform="translate(-74.074 -88.806)"/><text class="cls-3" transform="translate(6.256 14.083)">CSF3R</text></g></svg>