<svg id="Layer_1" data-name="Layer 1" xmlns="http://www.w3.org/2000/svg" xmlns:xlink="http://www.w3.org/1999/xlink" viewBox="0 0 16.77 99.769"><defs><style>.cls-1{fill:url(#linear-gradient);}.cls-2{fill:url(#radial-gradient);}.cls-3{fill:url(#radial-gradient-2);}.cls-4{fill:url(#radial-gradient-3);}.cls-5{fill:url(#radial-gradient-4);}.cls-6{fill:url(#radial-gradient-5);}.cls-7{fill:url(#radial-gradient-6);}</style><linearGradient id="linear-gradient" x1="54.369" y1="127.867" x2="64.369" y2="127.867" gradientTransform="translate(38.402)" gradientUnits="userSpaceOnUse"><stop offset="0" stop-color="#626622"/><stop offset="0.035" stop-color="#7a7e32"/><stop offset="0.084" stop-color="#969b45"/><stop offset="0.134" stop-color="#aaaf53"/><stop offset="0.183" stop-color="#b6bb5b"/><stop offset="0.232" stop-color="#babf5e"/><stop offset="1" stop-color="#626622"/></linearGradient><radialGradient id="radial-gradient" cx="56.703" cy="103.843" r="8.385" gradientTransform="translate(-50.984 -48.788)" gradientUnits="userSpaceOnUse"><stop offset="0" stop-color="#babf5e"/><stop offset="1" stop-color="#626622"/></radialGradient><radialGradient id="radial-gradient-2" cx="56.703" cy="93.842" r="8.385" xlink:href="#radial-gradient"/><radialGradient id="radial-gradient-3" cx="56.703" cy="83.841" r="8.385" xlink:href="#radial-gradient"/><radialGradient id="radial-gradient-4" cx="56.703" cy="73.841" r="8.385" xlink:href="#radial-gradient"/><radialGradient id="radial-gradient-5" cx="56.703" cy="63.84" r="8.385" xlink:href="#radial-gradient"/><radialGradient id="radial-gradient-6" cx="56.703" cy="53.84" r="8.385" xlink:href="#radial-gradient"/></defs><title>CDON</title><g id="CDON"><path class="cls-1" d="M97.771,148.557a5,5,0,0,1-5-5V112.176a5,5,0,1,1,10,0v31.381A5,5,0,0,1,97.771,148.557Z" transform="translate(-89.386 -48.788)"/><circle class="cls-2" cx="8.385" cy="58.388" r="8.385"/><circle class="cls-3" cx="8.385" cy="48.388" r="8.385"/><circle class="cls-4" cx="8.385" cy="38.387" r="8.385"/><circle class="cls-5" cx="8.385" cy="28.386" r="8.385"/><circle class="cls-6" cx="8.385" cy="18.386" r="8.385"/><circle class="cls-7" cx="8.385" cy="8.385" r="8.385"/></g></svg>