<svg id="Layer_1" data-name="Layer 1" xmlns="http://www.w3.org/2000/svg" xmlns:xlink="http://www.w3.org/1999/xlink" viewBox="0 0 76.036 76.036"><defs><style>.cls-1{fill:url(#radial-gradient);}.cls-2{fill:url(#radial-gradient-2);}.cls-3{fill:url(#radial-gradient-3);}.cls-4{fill:url(#radial-gradient-4);}.cls-5{fill:url(#radial-gradient-5);}.cls-6{fill:url(#radial-gradient-6);}.cls-7{fill:url(#radial-gradient-7);}.cls-8{fill:url(#radial-gradient-8);}.cls-9{fill:url(#radial-gradient-9);}.cls-10{fill:url(#radial-gradient-10);}.cls-11{fill:url(#radial-gradient-11);}.cls-12{fill:url(#radial-gradient-12);}.cls-13{fill:url(#radial-gradient-13);}.cls-14{fill:url(#radial-gradient-14);}.cls-15{fill:url(#radial-gradient-15);}.cls-16{fill:url(#radial-gradient-16);}.cls-17{fill:url(#radial-gradient-17);}.cls-18{fill:url(#radial-gradient-18);}.cls-19{fill:url(#radial-gradient-19);}.cls-20{fill:url(#radial-gradient-20);}.cls-21{fill:url(#radial-gradient-21);}.cls-22{fill:url(#radial-gradient-22);}.cls-23{fill:url(#radial-gradient-23);}.cls-24{fill:url(#radial-gradient-24);}.cls-25{fill:url(#radial-gradient-25);}.cls-26{fill:url(#radial-gradient-26);}.cls-27{fill:url(#radial-gradient-27);}.cls-28{fill:url(#radial-gradient-28);}.cls-29{fill:url(#radial-gradient-29);}.cls-30{fill:url(#radial-gradient-30);}.cls-31{fill:url(#radial-gradient-31);}.cls-32{fill:url(#radial-gradient-32);}.cls-33{fill:url(#radial-gradient-33);}.cls-34{fill:url(#radial-gradient-34);}.cls-35{fill:url(#radial-gradient-35);}.cls-36{fill:url(#radial-gradient-36);}.cls-37{fill:url(#radial-gradient-37);}.cls-38{fill:url(#radial-gradient-38);}.cls-39{fill:url(#radial-gradient-39);}.cls-40{fill:url(#radial-gradient-40);}.cls-41{fill:url(#radial-gradient-41);}.cls-42{fill:url(#radial-gradient-42);}.cls-43{fill:url(#radial-gradient-43);}.cls-44{fill:url(#radial-gradient-44);}.cls-45{fill:url(#radial-gradient-45);}.cls-46{fill:url(#radial-gradient-46);}.cls-47{fill:url(#radial-gradient-47);}.cls-48{fill:url(#radial-gradient-48);}.cls-49{fill:url(#radial-gradient-49);}.cls-50{fill:url(#radial-gradient-50);}.cls-51{fill:url(#radial-gradient-51);}.cls-52{fill:url(#radial-gradient-52);}.cls-53{fill:url(#radial-gradient-53);}.cls-54{fill:url(#radial-gradient-54);}.cls-55{fill:url(#radial-gradient-55);}.cls-56{fill:url(#radial-gradient-56);}.cls-57{fill:url(#radial-gradient-57);}.cls-58{fill:url(#radial-gradient-58);}.cls-59{fill:url(#radial-gradient-59);}.cls-60{fill:url(#radial-gradient-60);}.cls-61{fill:url(#radial-gradient-61);}.cls-62{fill:url(#radial-gradient-62);}.cls-63{fill:url(#radial-gradient-63);}.cls-64{fill:url(#radial-gradient-64);}.cls-65{fill:url(#radial-gradient-65);}.cls-66{fill:url(#radial-gradient-66);}.cls-67{fill:url(#radial-gradient-67);}.cls-68{fill:url(#radial-gradient-68);}.cls-69{fill:url(#radial-gradient-69);}.cls-70{fill:url(#radial-gradient-70);}.cls-71{fill:url(#radial-gradient-71);}.cls-72{fill:url(#radial-gradient-72);}.cls-73{fill:url(#radial-gradient-73);}.cls-74{fill:url(#radial-gradient-74);}.cls-75{fill:url(#radial-gradient-75);}.cls-76{fill:url(#radial-gradient-76);}.cls-77{fill:url(#radial-gradient-77);}.cls-78{fill:url(#radial-gradient-78);}.cls-79{fill:url(#radial-gradient-79);}.cls-80{fill:url(#radial-gradient-80);}.cls-81{fill:url(#radial-gradient-81);}.cls-82{fill:url(#radial-gradient-82);}.cls-83{fill:url(#radial-gradient-83);}.cls-84{fill:url(#radial-gradient-84);}.cls-85{fill:url(#radial-gradient-85);}.cls-86{fill:url(#radial-gradient-86);}.cls-87{fill:url(#radial-gradient-87);}.cls-88{fill:url(#radial-gradient-88);}.cls-89{fill:url(#radial-gradient-89);}.cls-90{fill:url(#radial-gradient-90);}.cls-91{fill:url(#radial-gradient-91);}.cls-92{fill:url(#radial-gradient-92);}.cls-93{fill:url(#radial-gradient-93);}.cls-94{fill:url(#radial-gradient-94);}.cls-95{fill:url(#radial-gradient-95);}.cls-96{fill:url(#radial-gradient-96);}.cls-97{fill:url(#radial-gradient-97);}.cls-98{fill:url(#radial-gradient-98);}.cls-99{fill:url(#radial-gradient-99);}.cls-100{fill:url(#radial-gradient-100);}.cls-101{fill:url(#radial-gradient-101);}.cls-102{fill:url(#radial-gradient-102);}.cls-103{fill:url(#radial-gradient-103);}.cls-104{fill:url(#radial-gradient-104);}.cls-105{fill:url(#radial-gradient-105);}.cls-106{fill:url(#radial-gradient-106);}.cls-107{fill:url(#radial-gradient-107);}.cls-108{fill:url(#radial-gradient-108);}.cls-109{fill:url(#radial-gradient-109);}.cls-110{fill:url(#radial-gradient-110);}.cls-111{fill:url(#radial-gradient-111);}.cls-112{fill:url(#radial-gradient-112);}.cls-113{fill:url(#radial-gradient-113);}.cls-114{fill:url(#radial-gradient-114);}</style><radialGradient id="radial-gradient" cx="31.002" cy="21.647" r="38.018" gradientUnits="userSpaceOnUse"><stop offset="0" stop-color="#ffff9a"/><stop offset="1" stop-color="#d9a435"/></radialGradient><radialGradient id="radial-gradient-2" cx="58.543" cy="60.562" r="4.232" gradientUnits="userSpaceOnUse"><stop offset="0" stop-color="#ffff5c"/><stop offset="1" stop-color="#d9a435"/></radialGradient><radialGradient id="radial-gradient-3" cx="54.311" cy="63.844" r="4.232" xlink:href="#radial-gradient-2"/><radialGradient id="radial-gradient-4" cx="47.808" cy="66.909" r="4.232" xlink:href="#radial-gradient-2"/><radialGradient id="radial-gradient-5" cx="40.768" cy="68.203" r="4.232" xlink:href="#radial-gradient-2"/><radialGradient id="radial-gradient-6" cx="33.15" cy="67.583" r="4.232" xlink:href="#radial-gradient-2"/><radialGradient id="radial-gradient-7" cx="26.658" cy="65.948" r="4.232" xlink:href="#radial-gradient-2"/><radialGradient id="radial-gradient-8" cx="20.308" cy="63.35" r="4.232" xlink:href="#radial-gradient-2"/><radialGradient id="radial-gradient-9" cx="14.35" cy="58.445" r="4.232" xlink:href="#radial-gradient-2"/><radialGradient id="radial-gradient-10" cx="9.436" cy="52.87" r="4.232" xlink:href="#radial-gradient-2"/><radialGradient id="radial-gradient-11" cx="6.46" cy="46.469" r="4.232" xlink:href="#radial-gradient-2"/><radialGradient id="radial-gradient-12" cx="4.85" cy="38.946" r="4.232" xlink:href="#radial-gradient-2"/><radialGradient id="radial-gradient-13" cx="4.85" cy="30.963" r="4.232" xlink:href="#radial-gradient-2"/><radialGradient id="radial-gradient-14" cx="6.98" cy="23.762" r="4.232" xlink:href="#radial-gradient-2"/><radialGradient id="radial-gradient-15" cx="10.118" cy="17.006" r="4.232" xlink:href="#radial-gradient-2"/><radialGradient id="radial-gradient-16" cx="14.35" cy="11.856" r="4.232" xlink:href="#radial-gradient-2"/><radialGradient id="radial-gradient-17" cx="19.677" cy="7.624" r="4.232" xlink:href="#radial-gradient-2"/><radialGradient id="radial-gradient-18" cx="26.032" cy="4.173" r="4.232" xlink:href="#radial-gradient-2"/><radialGradient id="radial-gradient-19" cx="33.005" cy="2.808" r="4.232" xlink:href="#radial-gradient-2"/><radialGradient id="radial-gradient-20" cx="40.005" cy="2.808" r="4.232" xlink:href="#radial-gradient-2"/><radialGradient id="radial-gradient-21" cx="47.237" cy="4.173" r="4.232" xlink:href="#radial-gradient-2"/><radialGradient id="radial-gradient-22" cx="53.798" cy="7.04" r="4.232" xlink:href="#radial-gradient-2"/><radialGradient id="radial-gradient-23" cx="59.144" cy="11.272" r="4.232" xlink:href="#radial-gradient-2"/><radialGradient id="radial-gradient-24" cx="64.305" cy="16.498" r="4.232" xlink:href="#radial-gradient-2"/><radialGradient id="radial-gradient-25" cx="67.894" cy="23.503" r="4.232" xlink:href="#radial-gradient-2"/><radialGradient id="radial-gradient-26" cx="69.63" cy="30.963" r="4.232" xlink:href="#radial-gradient-2"/><radialGradient id="radial-gradient-27" cx="70.244" cy="38.167" r="4.232" xlink:href="#radial-gradient-2"/><radialGradient id="radial-gradient-28" cx="68.538" cy="45.428" r="4.232" xlink:href="#radial-gradient-2"/><radialGradient id="radial-gradient-29" cx="65.398" cy="52.097" r="4.232" xlink:href="#radial-gradient-2"/><radialGradient id="radial-gradient-30" cx="61.677" cy="57.484" r="4.232" xlink:href="#radial-gradient-2"/><radialGradient id="radial-gradient-31" cx="56.272" cy="56.329" r="4.232" xlink:href="#radial-gradient-2"/><radialGradient id="radial-gradient-32" cx="187.065" cy="260.339" r="3.845" gradientTransform="translate(-257.063 -377.873) scale(1.988 1.908)" gradientUnits="userSpaceOnUse"><stop offset="0" stop-color="#9affec"/><stop offset="1" stop-color="#358ad9"/></radialGradient><radialGradient id="radial-gradient-33" cx="44.469" cy="62.677" r="4.232" xlink:href="#radial-gradient-2"/><radialGradient id="radial-gradient-34" cx="37.382" cy="63.35" r="4.232" xlink:href="#radial-gradient-2"/><radialGradient id="radial-gradient-35" cx="30.004" cy="62.677" r="4.232" xlink:href="#radial-gradient-2"/><radialGradient id="radial-gradient-36" cx="23.272" cy="59.612" r="4.232" xlink:href="#radial-gradient-2"/><radialGradient id="radial-gradient-37" cx="17.901" cy="55.38" r="4.232" xlink:href="#radial-gradient-2"/><radialGradient id="radial-gradient-38" cx="12.952" cy="49.66" r="4.232" xlink:href="#radial-gradient-2"/><radialGradient id="radial-gradient-39" cx="10.118" cy="42.236" r="4.232" xlink:href="#radial-gradient-2"/><radialGradient id="radial-gradient-40" cx="9.082" cy="35.195" r="4.232" xlink:href="#radial-gradient-2"/><radialGradient id="radial-gradient-41" cx="10.118" cy="27.735" r="4.232" xlink:href="#radial-gradient-2"/><radialGradient id="radial-gradient-42" cx="137.988" cy="226.15" r="4.232" gradientTransform="translate(-229.724 -417.755) scale(1.764 1.939)" xlink:href="#radial-gradient-32"/><radialGradient id="radial-gradient-43" cx="17.185" cy="15.505" r="4.232" xlink:href="#radial-gradient-2"/><radialGradient id="radial-gradient-44" cx="22.426" cy="11.272" r="4.232" xlink:href="#radial-gradient-2"/><radialGradient id="radial-gradient-45" cx="29.004" cy="8.405" r="4.232" xlink:href="#radial-gradient-2"/><radialGradient id="radial-gradient-46" cx="36.005" cy="7.04" r="4.232" xlink:href="#radial-gradient-2"/><radialGradient id="radial-gradient-47" cx="43.005" cy="7.624" r="4.232" xlink:href="#radial-gradient-2"/><radialGradient id="radial-gradient-48" cx="50.079" cy="10.004" r="4.232" xlink:href="#radial-gradient-2"/><radialGradient id="radial-gradient-49" cx="56.272" cy="14.647" r="4.232" xlink:href="#radial-gradient-2"/><radialGradient id="radial-gradient-50" cx="61.166" cy="20.731" r="4.232" xlink:href="#radial-gradient-2"/><radialGradient id="radial-gradient-51" cx="64.305" cy="28.45" r="4.232" xlink:href="#radial-gradient-2"/><radialGradient id="radial-gradient-52" cx="65.228" cy="35.195" r="4.232" xlink:href="#radial-gradient-2"/><radialGradient id="radial-gradient-53" cx="64.705" cy="41.866" r="4.232" xlink:href="#radial-gradient-2"/><radialGradient id="radial-gradient-54" cx="62.263" cy="48.308" r="4.232" xlink:href="#radial-gradient-2"/><radialGradient id="radial-gradient-55" cx="58.03" cy="53.892" r="4.232" xlink:href="#radial-gradient-2"/><radialGradient id="radial-gradient-56" cx="52.04" cy="53.252" r="4.232" xlink:href="#radial-gradient-2"/><radialGradient id="radial-gradient-57" cx="35.122" cy="11.856" r="4.232" xlink:href="#radial-gradient-2"/><radialGradient id="radial-gradient-58" cx="29.004" cy="13.288" r="4.232" xlink:href="#radial-gradient-2"/><radialGradient id="radial-gradient-59" cx="23.909" cy="16.089" r="4.232" xlink:href="#radial-gradient-2"/><radialGradient id="radial-gradient-60" cx="46.933" cy="56.329" r="4.232" xlink:href="#radial-gradient-2"/><radialGradient id="radial-gradient-61" cx="41.469" cy="58.445" r="4.232" xlink:href="#radial-gradient-2"/><radialGradient id="radial-gradient-62" cx="34.497" cy="58.445" r="4.232" xlink:href="#radial-gradient-2"/><radialGradient id="radial-gradient-63" cx="28.772" cy="57.102" r="4.232" xlink:href="#radial-gradient-2"/><radialGradient id="radial-gradient-64" cx="23.909" cy="54.212" r="4.232" xlink:href="#radial-gradient-2"/><radialGradient id="radial-gradient-65" cx="19.677" cy="50.331" r="4.232" xlink:href="#radial-gradient-2"/><radialGradient id="radial-gradient-66" cx="16.076" cy="44.787" r="4.232" xlink:href="#radial-gradient-2"/><radialGradient id="radial-gradient-67" cx="14.35" cy="38.167" r="4.232" xlink:href="#radial-gradient-2"/><radialGradient id="radial-gradient-68" cx="14.35" cy="31.968" r="4.232" xlink:href="#radial-gradient-2"/><radialGradient id="radial-gradient-69" cx="15.445" cy="26.731" r="4.232" xlink:href="#radial-gradient-2"/><radialGradient id="radial-gradient-70" cx="19.04" cy="21.238" r="4.232" xlink:href="#radial-gradient-2"/><radialGradient id="radial-gradient-71" cx="42.295" cy="12.638" r="4.232" xlink:href="#radial-gradient-2"/><radialGradient id="radial-gradient-72" cx="48.469" cy="14.647" r="4.232" xlink:href="#radial-gradient-2"/><radialGradient id="radial-gradient-73" cx="179.465" cy="221.402" r="3.818" gradientTransform="translate(-212.208 -356.982) scale(1.817 1.97)" xlink:href="#radial-gradient-32"/><radialGradient id="radial-gradient-74" cx="58.03" cy="24.963" r="4.232" xlink:href="#radial-gradient-2"/><radialGradient id="radial-gradient-75" cx="60.073" cy="33.039" r="4.232" xlink:href="#radial-gradient-2"/><radialGradient id="radial-gradient-76" cx="60.073" cy="40.86" r="4.232" xlink:href="#radial-gradient-2"/><radialGradient id="radial-gradient-77" cx="56.934" cy="47.865" r="4.232" xlink:href="#radial-gradient-2"/><radialGradient id="radial-gradient-78" cx="45" cy="51.147" r="4.232" xlink:href="#radial-gradient-2"/><radialGradient id="radial-gradient-79" cx="38.469" cy="52.87" r="4.232" xlink:href="#radial-gradient-2"/><radialGradient id="radial-gradient-80" cx="32.331" cy="52.097" r="4.232" xlink:href="#radial-gradient-2"/><radialGradient id="radial-gradient-81" cx="27.504" cy="49.66" r="4.232" xlink:href="#radial-gradient-2"/><radialGradient id="radial-gradient-82" cx="23.909" cy="46.469" r="4.232" xlink:href="#radial-gradient-2"/><radialGradient id="radial-gradient-83" cx="20.955" cy="41.866" r="4.232" xlink:href="#radial-gradient-2"/><radialGradient id="radial-gradient-84" cx="19.677" cy="35.195" r="4.232" xlink:href="#radial-gradient-2"/><radialGradient id="radial-gradient-85" cx="20.955" cy="28.807" r="4.232" xlink:href="#radial-gradient-2"/><radialGradient id="radial-gradient-86" cx="24.54" cy="23.112" r="4.232" xlink:href="#radial-gradient-2"/><radialGradient id="radial-gradient-87" cx="28.772" cy="19.53" r="4.232" xlink:href="#radial-gradient-2"/><radialGradient id="radial-gradient-88" cx="34.469" cy="17.521" r="4.232" xlink:href="#radial-gradient-2"/><radialGradient id="radial-gradient-89" cx="40.237" cy="17.831" r="4.232" xlink:href="#radial-gradient-2"/><radialGradient id="radial-gradient-90" cx="45.846" cy="19.986" r="4.232" xlink:href="#radial-gradient-2"/><radialGradient id="radial-gradient-91" cx="50.679" cy="23.762" r="4.232" xlink:href="#radial-gradient-2"/><radialGradient id="radial-gradient-92" cx="53.798" cy="29.195" r="4.232" xlink:href="#radial-gradient-2"/><radialGradient id="radial-gradient-93" cx="54.912" cy="35.195" r="4.232" xlink:href="#radial-gradient-2"/><radialGradient id="radial-gradient-94" cx="53.798" cy="41.196" r="4.232" xlink:href="#radial-gradient-2"/><radialGradient id="radial-gradient-95" cx="50.079" cy="47.411" r="4.232" xlink:href="#radial-gradient-2"/><radialGradient id="radial-gradient-96" cx="42.701" cy="46.098" r="4.232" xlink:href="#radial-gradient-2"/><radialGradient id="radial-gradient-97" cx="36.563" cy="47.411" r="4.232" xlink:href="#radial-gradient-2"/><radialGradient id="radial-gradient-98" cx="30.265" cy="46.469" r="4.232" xlink:href="#radial-gradient-2"/><radialGradient id="radial-gradient-99" cx="88.203" cy="101.014" r="6.536" gradientTransform="matrix(1, 0, 0, 1, 0, 0)" xlink:href="#radial-gradient-32"/><radialGradient id="radial-gradient-100" cx="23.909" cy="35.195" r="4.232" xlink:href="#radial-gradient-2"/><radialGradient id="radial-gradient-101" cx="26.658" cy="29.195" r="4.232" xlink:href="#radial-gradient-2"/><radialGradient id="radial-gradient-102" cx="31.408" cy="24.218" r="4.232" xlink:href="#radial-gradient-2"/><radialGradient id="radial-gradient-103" cx="38.063" cy="22.771" r="4.232" xlink:href="#radial-gradient-2"/><radialGradient id="radial-gradient-104" cx="45" cy="24.575" r="4.232" xlink:href="#radial-gradient-2"/><radialGradient id="radial-gradient-105" cx="48.469" cy="29.702" r="4.232" xlink:href="#radial-gradient-2"/><radialGradient id="radial-gradient-106" cx="50.079" cy="36.2" r="4.232" xlink:href="#radial-gradient-2"/><radialGradient id="radial-gradient-107" cx="47.237" cy="41.866" r="4.232" xlink:href="#radial-gradient-2"/><radialGradient id="radial-gradient-108" cx="40.237" cy="41.196" r="4.232" xlink:href="#radial-gradient-2"/><radialGradient id="radial-gradient-109" cx="33.237" cy="41.196" r="4.232" xlink:href="#radial-gradient-2"/><radialGradient id="radial-gradient-110" cx="30.236" cy="35.195" r="4.232" xlink:href="#radial-gradient-2"/><radialGradient id="radial-gradient-111" cx="34.237" cy="29.195" r="4.232" xlink:href="#radial-gradient-2"/><radialGradient id="radial-gradient-112" cx="41.237" cy="29.195" r="4.232" xlink:href="#radial-gradient-2"/><radialGradient id="radial-gradient-113" cx="44.237" cy="35.195" r="4.232" xlink:href="#radial-gradient-2"/><radialGradient id="radial-gradient-114" cx="37.237" cy="35.195" r="4.232" xlink:href="#radial-gradient-2"/></defs><title>chylomicron</title><g id="chylomicron"><circle class="cls-1" cx="38.018" cy="38.018" r="38.018"/><circle class="cls-2" cx="59.324" cy="62.384" r="4.232"/><circle class="cls-3" cx="55.092" cy="65.666" r="4.232"/><circle class="cls-4" cx="48.589" cy="68.732" r="4.232"/><circle class="cls-5" cx="41.549" cy="70.025" r="4.232"/><circle class="cls-6" cx="33.931" cy="69.405" r="4.232"/><circle class="cls-7" cx="27.439" cy="67.771" r="4.232"/><circle class="cls-8" cx="21.089" cy="65.173" r="4.232"/><circle class="cls-9" cx="15.131" cy="60.267" r="4.232"/><circle class="cls-10" cx="10.217" cy="54.693" r="4.232"/><circle class="cls-11" cx="7.241" cy="48.291" r="4.232"/><circle class="cls-12" cx="5.631" cy="40.769" r="4.232"/><circle class="cls-13" cx="5.631" cy="32.786" r="4.232"/><circle class="cls-14" cx="7.762" cy="25.585" r="4.232"/><circle class="cls-15" cx="10.899" cy="18.828" r="4.232"/><circle class="cls-16" cx="15.131" cy="13.679" r="4.232"/><circle class="cls-17" cx="20.458" cy="9.447" r="4.232"/><circle class="cls-18" cx="26.813" cy="5.996" r="4.232"/><circle class="cls-19" cx="33.786" cy="4.631" r="4.232"/><circle class="cls-20" cx="40.786" cy="4.631" r="4.232"/><circle class="cls-21" cx="48.018" cy="5.996" r="4.232"/><circle class="cls-22" cx="54.579" cy="8.863" r="4.232"/><circle class="cls-23" cx="59.925" cy="13.095" r="4.232"/><circle class="cls-24" cx="65.086" cy="18.321" r="4.232"/><circle class="cls-25" cx="68.675" cy="25.326" r="4.232"/><circle class="cls-26" cx="70.411" cy="32.786" r="4.232"/><circle class="cls-27" cx="71.025" cy="39.989" r="4.232"/><circle class="cls-28" cx="69.319" cy="47.25" r="4.232"/><circle class="cls-29" cx="66.179" cy="53.92" r="4.232"/><circle class="cls-30" cx="62.458" cy="59.307" r="4.232"/><circle class="cls-31" cx="57.053" cy="58.152" r="4.232"/><path class="cls-32" d="M124.11,121.072c0-4.459-2.532-6.392-7.179-6.392a8.25,8.25,0,0,0-8.415,8.074c0,4.459,2.532,6.392,7.179,6.392A8.25,8.25,0,0,0,124.11,121.072Z" transform="translate(-61.864 -61.515)"/><circle class="cls-33" cx="45.25" cy="64.499" r="4.232"/><circle class="cls-34" cx="38.163" cy="65.173" r="4.232"/><circle class="cls-35" cx="30.785" cy="64.499" r="4.232"/><circle class="cls-36" cx="24.053" cy="61.434" r="4.232"/><circle class="cls-37" cx="18.682" cy="57.202" r="4.232"/><circle class="cls-38" cx="13.733" cy="51.483" r="4.232"/><circle class="cls-39" cx="10.899" cy="44.059" r="4.232"/><circle class="cls-40" cx="9.863" cy="37.018" r="4.232"/><circle class="cls-41" cx="10.899" cy="29.558" r="4.232"/><ellipse class="cls-42" cx="15.131" cy="24.321" rx="7.468" ry="8.207"/><circle class="cls-43" cx="17.966" cy="17.327" r="4.232"/><circle class="cls-44" cx="23.207" cy="13.095" r="4.232"/><circle class="cls-45" cx="29.785" cy="10.228" r="4.232"/><circle class="cls-46" cx="36.786" cy="8.863" r="4.232"/><circle class="cls-47" cx="43.786" cy="9.447" r="4.232"/><circle class="cls-48" cx="50.86" cy="11.826" r="4.232"/><circle class="cls-49" cx="57.053" cy="16.47" r="4.232"/><circle class="cls-50" cx="61.947" cy="22.553" r="4.232"/><circle class="cls-51" cx="65.086" cy="30.273" r="4.232"/><circle class="cls-52" cx="66.009" cy="37.018" r="4.232"/><circle class="cls-53" cx="65.486" cy="43.689" r="4.232"/><circle class="cls-54" cx="63.044" cy="50.13" r="4.232"/><circle class="cls-55" cx="58.811" cy="55.715" r="4.232"/><circle class="cls-56" cx="52.821" cy="55.074" r="4.232"/><circle class="cls-57" cx="35.903" cy="13.679" r="4.232"/><circle class="cls-58" cx="29.785" cy="15.111" r="4.232"/><circle class="cls-59" cx="24.69" cy="17.911" r="4.232"/><circle class="cls-60" cx="47.714" cy="58.152" r="4.232"/><circle class="cls-61" cx="42.25" cy="60.267" r="4.232"/><circle class="cls-62" cx="35.278" cy="60.267" r="4.232"/><circle class="cls-63" cx="29.553" cy="58.925" r="4.232"/><circle class="cls-64" cx="24.69" cy="56.035" r="4.232"/><circle class="cls-65" cx="20.458" cy="52.153" r="4.232"/><circle class="cls-66" cx="16.857" cy="46.61" r="4.232"/><circle class="cls-67" cx="15.131" cy="39.989" r="4.232"/><circle class="cls-68" cx="15.131" cy="33.79" r="4.232"/><circle class="cls-69" cx="16.226" cy="28.553" r="4.232"/><circle class="cls-70" cx="19.821" cy="23.06" r="4.232"/><circle class="cls-71" cx="43.077" cy="14.46" r="4.232"/><circle class="cls-72" cx="49.25" cy="16.47" r="4.232"/><path class="cls-73" d="M122.718,82.217c0-4.6-3.787-7.023-8.033-7.023s-7.026,2.418-7.026,7.023,4.539,7.072,8.785,7.072S122.718,86.822,122.718,82.217Z" transform="translate(-61.864 -61.515)"/><circle class="cls-74" cx="58.811" cy="26.785" r="4.232"/><circle class="cls-75" cx="60.854" cy="34.862" r="4.232"/><circle class="cls-76" cx="60.854" cy="42.683" r="4.232"/><circle class="cls-77" cx="57.715" cy="49.687" r="4.232"/><circle class="cls-78" cx="45.781" cy="52.97" r="4.232"/><circle class="cls-79" cx="39.25" cy="54.693" r="4.232"/><circle class="cls-80" cx="33.112" cy="53.92" r="4.232"/><circle class="cls-81" cx="28.285" cy="51.483" r="4.232"/><circle class="cls-82" cx="24.69" cy="48.291" r="4.232"/><circle class="cls-83" cx="21.736" cy="43.689" r="4.232"/><circle class="cls-84" cx="20.458" cy="37.018" r="4.232"/><circle class="cls-85" cx="21.736" cy="30.63" r="4.232"/><circle class="cls-86" cx="25.321" cy="24.934" r="4.232"/><circle class="cls-87" cx="29.553" cy="21.352" r="4.232"/><circle class="cls-88" cx="35.25" cy="19.343" r="4.232"/><circle class="cls-89" cx="41.018" cy="19.653" r="4.232"/><circle class="cls-90" cx="46.627" cy="21.809" r="4.232"/><circle class="cls-91" cx="51.46" cy="25.585" r="4.232"/><circle class="cls-92" cx="54.579" cy="31.017" r="4.232"/><circle class="cls-93" cx="55.693" cy="37.018" r="4.232"/><circle class="cls-94" cx="54.579" cy="43.018" r="4.232"/><circle class="cls-95" cx="50.86" cy="49.233" r="4.232"/><circle class="cls-96" cx="43.482" cy="47.921" r="4.232"/><circle class="cls-97" cx="37.345" cy="49.233" r="4.232"/><circle class="cls-98" cx="31.046" cy="48.291" r="4.232"/><path class="cls-99" d="M95.882,104.533c0-2.337-6.359-7.261-8.7-7.261s-4.585,4.951-4.232,7.261a7.185,7.185,0,0,0,7.791,5.84C93.063,110.074,95.882,106.871,95.882,104.533Z" transform="translate(-61.864 -61.515)"/><circle class="cls-100" cx="24.69" cy="37.018" r="4.232"/><circle class="cls-101" cx="27.439" cy="31.017" r="4.232"/><circle class="cls-102" cx="32.189" cy="26.041" r="4.232"/><circle class="cls-103" cx="38.844" cy="24.593" r="4.232"/><circle class="cls-104" cx="45.781" cy="26.397" r="4.232"/><circle class="cls-105" cx="49.25" cy="31.525" r="4.232"/><circle class="cls-106" cx="50.86" cy="38.022" r="4.232"/><circle class="cls-107" cx="48.018" cy="43.689" r="4.232"/><circle class="cls-108" cx="41.018" cy="43.018" r="4.232"/><circle class="cls-109" cx="34.018" cy="43.018" r="4.232"/><circle class="cls-110" cx="31.017" cy="37.018" r="4.232"/><circle class="cls-111" cx="35.018" cy="31.017" r="4.232"/><circle class="cls-112" cx="42.018" cy="31.017" r="4.232"/><circle class="cls-113" cx="45.018" cy="37.018" r="4.232"/><circle class="cls-114" cx="38.018" cy="37.018" r="4.232"/></g></svg>