<svg id="Layer_1" data-name="Layer 1" xmlns="http://www.w3.org/2000/svg" xmlns:xlink="http://www.w3.org/1999/xlink" viewBox="0 0 63.183 22.939"><defs><style>.cls-1{fill:url(#linear-gradient);}.cls-2{fill:url(#linear-gradient-2);}.cls-3{font-size:12px;fill:#fff;font-family:Arial-BoldMT, Arial;font-weight:700;}</style><linearGradient id="linear-gradient" x1="31.872" y1="21.366" x2="31.872" y2="1.432" gradientUnits="userSpaceOnUse"><stop offset="0" stop-color="#da4852"/><stop offset="1" stop-color="#430024"/></linearGradient><linearGradient id="linear-gradient-2" x1="99.72" y1="111.5" x2="99.72" y2="88.5" gradientUnits="userSpaceOnUse"><stop offset="0" stop-color="#a2427b"/><stop offset="1" stop-color="#b78520"/></linearGradient></defs><title>R-ICO-013726</title><g id="R-ICO-013726"><rect class="cls-1" x="1.372" y="1.338" width="61" height="20" rx="10"/><path class="cls-2" d="M120.5,110.15c-6.032-.009-12.065.43-18.1.837-6.032.458-12.065.547-18.1.613H79.782c-.348.009-.849-.032-1.266-.051-.436-.029-.866-.12-1.3-.183a11.425,11.425,0,0,1-2.479-.839,11.85,11.85,0,0,1-4.073-3.183,11.535,11.535,0,0,1-2.242-4.626A11.084,11.084,0,0,1,70.7,93.1a10.957,10.957,0,0,1,8.8-3.918c6.032.281,12.065.436,18.1.335,6.032-.085,12.065-.574,18.1-.763,1.508-.032,3.016-.093,4.524-.087.352-.012.833.027,1.244.042.427.025.848.113,1.272.171a11.067,11.067,0,0,1,2.429.813,10.743,10.743,0,0,1,5.965,7.7,10.61,10.61,0,0,1-.215,4.851,11.108,11.108,0,0,1-2.257,4.153A10.915,10.915,0,0,1,120.5,110.15Zm0-.3a9.272,9.272,0,0,0,7.551-3.929,9.111,9.111,0,0,0,1.222-8.07,9.573,9.573,0,0,0-2.007-3.471,9.835,9.835,0,0,0-3.2-2.27,9.179,9.179,0,0,0-3.843-.774c-1.508.006-3.016-.055-4.524-.087-6.032-.189-12.065-.678-18.1-.763-6.032-.1-12.065.054-18.1.335a9.15,9.15,0,0,0-6.907,3.764,8.765,8.765,0,0,0-1.417,7.454,8.617,8.617,0,0,0,4.861,5.635,8.819,8.819,0,0,0,3.745.727h4.524c6.032.066,12.065.155,18.1.613C108.435,109.42,114.468,109.859,120.5,109.85Z" transform="translate(-68.128 -88.662)"/><text id="MTERF1" class="cls-3" transform="translate(7.872 14.227)">MTERF1</text></g></svg>