<svg id="LRP6" xmlns="http://www.w3.org/2000/svg" xmlns:xlink="http://www.w3.org/1999/xlink" viewBox="0 0 48.672 179.818"><defs><style>.cls-1{fill:url(#linear-gradient);}.cls-2{fill:url(#radial-gradient);}.cls-3{fill:url(#radial-gradient-2);}</style><linearGradient id="linear-gradient" x1="-1099.313" y1="767.302" x2="-1102.519" y2="767.302" gradientTransform="translate(-3585.656 2352.397) rotate(180) scale(3.345 2.944)" gradientUnits="userSpaceOnUse"><stop offset="0" stop-color="#349ca4"/><stop offset="0.263" stop-color="#7cbfc4"/><stop offset="1" stop-color="#28969e"/></linearGradient><radialGradient id="radial-gradient" cx="-1099.588" cy="749.287" r="7.414" gradientTransform="translate(-3585.656 2352.397) rotate(180) scale(3.345 2.944)" gradientUnits="userSpaceOnUse"><stop offset="0" stop-color="#f4e3d7"/><stop offset="1" stop-color="#28969e"/></radialGradient><radialGradient id="radial-gradient-2" cx="-1106.969" cy="805.231" r="11.408" gradientTransform="translate(-3585.656 2943.703) rotate(180) scale(3.345 3.6)" gradientUnits="userSpaceOnUse"><stop offset="0.479" stop-color="#43a3aa"/><stop offset="0.691" stop-color="#7cbfc4"/><stop offset="1" stop-color="#28969e"/></radialGradient></defs><title>R-ICO-013688</title><g id="LRP6-2" data-name="LRP6"><path id="path5779" class="cls-1" d="M96.393,148.252c2.961,0,5.361-2.111,5.362-4.717V43.487c-.051-2.606-2.494-4.682-5.455-4.637-2.888.045-5.217,2.095-5.267,4.637V143.533c0,2.605,2.4,4.719,5.359,4.719Z" transform="translate(-75.664 -10.091)"/><path id="path5781" class="cls-2" d="M75.664,143.533c0-10.078,9.279-18.249,20.728-18.25s20.732,8.167,20.734,18.245v0c0,9.568-4.822,24.865-4.822,32.089.177,7.732-6.8,14.127-15.584,14.284s-16.049-5.985-16.227-13.717q-.007-.283,0-.567C80.486,168.4,75.664,153.1,75.664,143.533Z" transform="translate(-75.664 -10.091)"/><path id="path5783" class="cls-3" d="M118.827,10.092a12.045,12.045,0,0,0-3.9.6c-23.8,7.548-30.686,15.889-30.686,37.194,0,22.755,7.2,28.93,30.329,37.076a9.416,9.416,0,0,0,3.531.536,11.7,11.7,0,0,0,1.672-.06c2.488-1.123-13.876,1.426-3.349-7.965,8.281-9.789-10.533-3.529,1.129-10.589.645-.229,1.113-.41,1.7-.623-13.392-4.817-13.57-6-13.57-18.375,0-12.33,1.088-14.334,13.583-18.473-.954-.317-1.821-.615-2.915-.962a10.915,10.915,0,0,1-4.544-2.676l12.525-4.751c-12.219-2.151-7.943-6.453-7.943-6.453,4.73-1.514,1.008-2.748-1.625-3.354a11.862,11.862,0,0,1,4.512-1.108C119.129,10.1,118.978,10.1,118.827,10.092Z" transform="translate(-75.664 -10.091)"/></g></svg>