<svg id="Layer_1" data-name="Layer 1" xmlns="http://www.w3.org/2000/svg" xmlns:xlink="http://www.w3.org/1999/xlink" viewBox="0 0 124.29 182.747"><defs><style>.cls-1{fill:#9292ea;}.cls-2{fill:url(#linear-gradient);}.cls-3{fill:url(#linear-gradient-2);}.cls-4{fill:url(#linear-gradient-3);}.cls-5{fill:url(#linear-gradient-4);}.cls-6{fill:url(#linear-gradient-5);}.cls-7{fill:url(#linear-gradient-6);}.cls-8{fill:url(#linear-gradient-7);}.cls-9{fill:url(#linear-gradient-8);}</style><linearGradient id="linear-gradient" x1="80.985" y1="147.878" x2="92.985" y2="147.878" gradientUnits="userSpaceOnUse"><stop offset="0" stop-color="#7272cf"/><stop offset="1" stop-color="#000070"/></linearGradient><linearGradient id="linear-gradient-2" x1="80.985" y1="97.58" x2="92.985" y2="97.58" xlink:href="#linear-gradient"/><linearGradient id="linear-gradient-3" x1="73.293" y1="70.518" x2="84.244" y2="66.483" xlink:href="#linear-gradient"/><linearGradient id="linear-gradient-4" x1="52.216" y1="33.334" x2="60.861" y2="25.841" xlink:href="#linear-gradient"/><linearGradient id="linear-gradient-5" x1="107.986" y1="147.878" x2="119.986" y2="147.878" xlink:href="#linear-gradient"/><linearGradient id="linear-gradient-6" x1="107.986" y1="97.58" x2="119.986" y2="97.58" xlink:href="#linear-gradient"/><linearGradient id="linear-gradient-7" x1="115.917" y1="66.65" x2="126.867" y2="69.82" xlink:href="#linear-gradient"/><linearGradient id="linear-gradient-8" x1="140.236" y1="25.547" x2="148.593" y2="33.616" xlink:href="#linear-gradient"/></defs><title>growth_hormone_receptor</title><g id="GHR"><path class="cls-1" d="M90.5,89.153a7.481,7.481,0,0,0,1.467-7.586L80.44,50a7.525,7.525,0,0,0-6-4.858,7.528,7.528,0,0,0-1.224-7.624L51.579,11.8A7.5,7.5,0,0,0,40.1,21.453L61.734,47.172a7.518,7.518,0,0,0,4.712,2.595,7.51,7.51,0,0,0-.1,5.378L77.881,86.713a7.512,7.512,0,0,0,3.536,4.048,7.513,7.513,0,0,0-1.933,5.015v3.606a7.485,7.485,0,0,0,3.019,6,7.485,7.485,0,0,0-3.019,6v72.99a7.5,7.5,0,0,0,15,0v-72.99a7.485,7.485,0,0,0-3.019-6,7.485,7.485,0,0,0,3.019-6V95.776A7.48,7.48,0,0,0,90.5,89.153Zm-3.519,17.729a4.5,4.5,0,0,1,4.5,4.5v72.99a4.5,4.5,0,0,1-9,0v-72.99A4.5,4.5,0,0,1,86.985,106.883ZM70.371,45.788a1.5,1.5,0,0,0-.471.713,1.492,1.492,0,0,0-.861.057,4.512,4.512,0,0,1-5.008-1.316L42.4,19.522a4.5,4.5,0,0,1,6.887-5.794l21.634,25.72a4.5,4.5,0,0,1-.546,6.34Zm.148,3.33A1.493,1.493,0,0,0,71,48.4a1.5,1.5,0,0,0,.854-.053,4.5,4.5,0,0,1,5.771,2.683L89.153,82.6a4.506,4.506,0,0,1-2.682,5.771,1.493,1.493,0,0,0-.689.513,1.5,1.5,0,0,0-.824-.246h-.031a4.511,4.511,0,0,1-4.227-2.95L69.168,54.116A4.506,4.506,0,0,1,70.519,49.118ZM82.485,95.776a4.509,4.509,0,0,1,2.979-4.23,1.5,1.5,0,0,0,.7-.515,1.5,1.5,0,0,0,.823.245,4.5,4.5,0,0,1,4.5,4.5v3.606a4.5,4.5,0,0,1-9,0Z" transform="translate(-38.342 -9.126)"/><path class="cls-1" d="M162.6,15.981A7.5,7.5,0,0,0,149.391,11.8L127.757,37.517a7.482,7.482,0,0,0-1.218,7.627A7.479,7.479,0,0,0,120.531,50L109,81.567a7.48,7.48,0,0,0,1.467,7.586,7.481,7.481,0,0,0-3.98,6.623v3.606a7.485,7.485,0,0,0,3.019,6,7.485,7.485,0,0,0-3.019,6v72.99a7.5,7.5,0,0,0,15,0v-72.99a7.485,7.485,0,0,0-3.019-6,7.485,7.485,0,0,0,3.019-6V95.776a7.513,7.513,0,0,0-1.933-5.016,7.507,7.507,0,0,0,3.537-4.047l11.531-31.568a7.51,7.51,0,0,0-.1-5.378,7.516,7.516,0,0,0,4.712-2.595L160.87,21.454A7.447,7.447,0,0,0,162.6,15.981Zm-48.617,90.9a4.5,4.5,0,0,1,4.5,4.5v72.99a4.5,4.5,0,0,1-9,0v-72.99A4.5,4.5,0,0,1,113.986,106.883Zm0-15.606a1.5,1.5,0,0,0,.823-.245,1.5,1.5,0,0,0,.7.515,4.509,4.509,0,0,1,2.98,4.23v3.606a4.5,4.5,0,0,1-9,0V95.776A4.5,4.5,0,0,1,113.986,91.276Zm2.027-2.642a1.5,1.5,0,0,0-.824.246,1.493,1.493,0,0,0-.689-.513,4.506,4.506,0,0,1-2.682-5.771l11.531-31.569a4.518,4.518,0,0,1,4.232-2.956,4.468,4.468,0,0,1,1.54.274,1.513,1.513,0,0,0,.852.051,1.5,1.5,0,0,0,.478.72,4.508,4.508,0,0,1,1.351,5L120.271,85.684A4.522,4.522,0,0,1,116.014,88.635Zm15.92-42.076a1.5,1.5,0,0,0-.527-.1,1.486,1.486,0,0,0-.336.039,1.5,1.5,0,0,0-.471-.713,4.506,4.506,0,0,1-.546-6.34l21.635-25.719a4.5,4.5,0,1,1,6.886,5.794L136.94,45.242A4.508,4.508,0,0,1,131.934,46.559Z" transform="translate(-38.342 -9.126)"/><path class="cls-2" d="M86.985,190.373a6,6,0,0,1-6-6v-72.99a6,6,0,0,1,12,0v72.99A6,6,0,0,1,86.985,190.373Z" transform="translate(-38.342 -9.126)"/><path class="cls-3" d="M86.985,105.383a6,6,0,0,1-6-6V95.776a6,6,0,0,1,12,0v3.607A6,6,0,0,1,86.985,105.383Z" transform="translate(-38.342 -9.126)"/><path class="cls-4" d="M86.985,89.776A6,6,0,0,1,79.29,86.2L67.759,54.631a6,6,0,0,1,11.272-4.117L90.562,82.082A6,6,0,0,1,86.985,89.776Z" transform="translate(-38.342 -9.126)"/><path class="cls-5" d="M71.336,46.936a6,6,0,0,1-8.454-.729L41.248,20.488a6,6,0,1,1,9.183-7.725L72.065,38.482A6,6,0,0,1,71.336,46.936Z" transform="translate(-38.342 -9.126)"/><path class="cls-6" d="M113.986,190.373a6,6,0,0,0,6-6v-72.99a6,6,0,0,0-12,0v72.99A6,6,0,0,0,113.986,190.373Z" transform="translate(-38.342 -9.126)"/><path class="cls-7" d="M113.986,105.383a6,6,0,0,0,6-6V95.776a6,6,0,0,0-12,0v3.607A6,6,0,0,0,113.986,105.383Z" transform="translate(-38.342 -9.126)"/><path class="cls-8" d="M113.986,89.776a6,6,0,0,0,7.694-3.577l11.531-31.568a6,6,0,1,0-11.272-4.117L110.409,82.082A6,6,0,0,0,113.986,89.776Z" transform="translate(-38.342 -9.126)"/><path class="cls-9" d="M129.635,46.936a6,6,0,0,0,8.454-.729l21.635-25.719a6,6,0,1,0-9.183-7.725L128.905,38.482A6,6,0,0,0,129.635,46.936Z" transform="translate(-38.342 -9.126)"/></g></svg>