<svg id="Layer_1" data-name="Layer 1" xmlns="http://www.w3.org/2000/svg" xmlns:xlink="http://www.w3.org/1999/xlink" viewBox="0 0 168.37 44.286"><defs><style>.cls-1{fill:url(#linear-gradient);}.cls-2{fill:url(#linear-gradient-2);}.cls-3{fill:url(#linear-gradient-3);}.cls-4{fill:url(#linear-gradient-4);}.cls-5{fill:url(#linear-gradient-5);}.cls-6{fill:url(#linear-gradient-6);}.cls-7{fill:url(#linear-gradient-7);}.cls-8{fill:url(#linear-gradient-8);}.cls-9{fill:url(#linear-gradient-9);}.cls-10{fill:url(#linear-gradient-10);}.cls-11{fill:url(#linear-gradient-11);}.cls-12{fill:url(#linear-gradient-12);}.cls-13{fill:#e6735c;}.cls-14{fill:url(#linear-gradient-13);}.cls-15{mask:url(#mask);}.cls-16{fill:url(#radial-gradient);}.cls-17{fill:url(#linear-gradient-14);}.cls-18{mask:url(#mask-2);}.cls-19{fill:url(#radial-gradient-2);}.cls-20{fill:url(#linear-gradient-15);}.cls-21{mask:url(#mask-3);}.cls-22{fill:url(#radial-gradient-3);}.cls-23{fill:url(#linear-gradient-16);}.cls-24{mask:url(#mask-4);}.cls-25{fill:url(#radial-gradient-4);}.cls-26{fill:url(#radial-gradient-5);}.cls-27{fill:url(#linear-gradient-17);}.cls-28{mask:url(#mask-6);}.cls-29{fill:url(#radial-gradient-6);}</style><linearGradient id="linear-gradient" x1="155.546" y1="534.861" x2="177.501" y2="526.687" gradientTransform="matrix(1, 0, 0, -1, 0, 641.274)" gradientUnits="userSpaceOnUse"><stop offset="0.037"/><stop offset="0.063" stop-color="#363636"/><stop offset="0.095" stop-color="#727272"/><stop offset="0.126" stop-color="#a5a5a5"/><stop offset="0.156" stop-color="#ccc"/><stop offset="0.182" stop-color="#e8e8e8"/><stop offset="0.205" stop-color="#f9f9f9"/><stop offset="0.223" stop-color="#fff"/></linearGradient><linearGradient id="linear-gradient-2" x1="98.226" y1="534.861" x2="120.181" y2="526.687" xlink:href="#linear-gradient"/><linearGradient id="linear-gradient-3" x1="33.778" y1="534.861" x2="55.733" y2="526.687" xlink:href="#linear-gradient"/><linearGradient id="linear-gradient-4" x1="151.174" y1="73.811" x2="129.18" y2="100.522" gradientUnits="userSpaceOnUse"><stop offset="0.663" stop-color="#fff"/><stop offset="0.686" stop-color="#e3e3e3"/><stop offset="0.736" stop-color="#9d9d9d"/><stop offset="0.809" stop-color="#2d2d2d"/><stop offset="0.837"/></linearGradient><linearGradient id="linear-gradient-5" x1="151.174" y1="73.811" x2="129.18" y2="100.522" gradientUnits="userSpaceOnUse"><stop offset="0.589" stop-color="#fff"/><stop offset="0.617" stop-color="#f9f9f9"/><stop offset="0.652" stop-color="#e9e9e9"/><stop offset="0.691" stop-color="#cfcfcf"/><stop offset="0.734" stop-color="#aaa"/><stop offset="0.779" stop-color="#7a7a7a"/><stop offset="0.826" stop-color="#414141"/><stop offset="0.873"/></linearGradient><linearGradient id="linear-gradient-6" x1="72.4" y1="-24.08" x2="94.355" y2="-32.254" gradientTransform="translate(0 120.981)" xlink:href="#linear-gradient"/><linearGradient id="linear-gradient-7" x1="99.018" y1="107.692" x2="99.018" y2="95.598" gradientUnits="userSpaceOnUse"><stop offset="0" stop-color="#633228"/><stop offset="0.016" stop-color="#67342a"/><stop offset="0.251" stop-color="#9d4f3f"/><stop offset="0.454" stop-color="#c5634f"/><stop offset="0.615" stop-color="#dd6f58"/><stop offset="0.714" stop-color="#e6735c"/><stop offset="0.764" stop-color="#e2715a"/><stop offset="0.814" stop-color="#d66b56"/><stop offset="0.864" stop-color="#c2614e"/><stop offset="0.915" stop-color="#a55342"/><stop offset="0.964" stop-color="#814134"/><stop offset="1" stop-color="#633228"/></linearGradient><linearGradient id="linear-gradient-8" x1="99.803" y1="101.765" x2="99.803" y2="98.754" xlink:href="#linear-gradient-7"/><linearGradient id="linear-gradient-9" x1="98.97" y1="98.991" x2="98.97" y2="95.713" xlink:href="#linear-gradient-7"/><linearGradient id="linear-gradient-10" x1="99.81" y1="104.549" x2="99.81" y2="101.539" xlink:href="#linear-gradient-7"/><linearGradient id="linear-gradient-11" x1="98.931" y1="107.599" x2="98.931" y2="104.241" xlink:href="#linear-gradient-7"/><linearGradient id="linear-gradient-12" x1="15.841" y1="107.391" x2="15.841" y2="95.782" gradientUnits="userSpaceOnUse"><stop offset="0" stop-color="#633228"/><stop offset="0.149" stop-color="#753b2f"/><stop offset="0.521" stop-color="#9c4e3e"/><stop offset="0.818" stop-color="#b45a48"/><stop offset="1" stop-color="#bd5e4b"/></linearGradient><linearGradient id="linear-gradient-13" x1="96.049" y1="537.134" x2="96.049" y2="533.496" gradientTransform="matrix(1, 0, 0, -1, 0, 641.274)" xlink:href="#linear-gradient-7"/><mask id="mask" x="139.888" y="28.208" width="24.981" height="18.042" maskUnits="userSpaceOnUse"><g transform="translate(-14 -73.874)"><polygon class="cls-1" points="178.868 108.138 156.265 102.082 153.888 112.753 176.197 120.124 178.868 108.138"/></g></mask><radialGradient id="radial-gradient" cx="167.552" cy="530.542" r="9.119" gradientTransform="matrix(0.832, 0.555, 0.339, -0.508, -151.606, 287.184)" gradientUnits="userSpaceOnUse"><stop offset="0" stop-color="#e6735c"/><stop offset="0.174" stop-color="#e2715a"/><stop offset="0.349" stop-color="#d66b56"/><stop offset="0.525" stop-color="#c2614e"/><stop offset="0.701" stop-color="#a55342"/><stop offset="0.876" stop-color="#814134"/><stop offset="1" stop-color="#633228"/></radialGradient><linearGradient id="linear-gradient-14" x1="67.389" y1="537.125" x2="67.389" y2="533.489" gradientTransform="matrix(1, 0, 0, -1, 0, 641.274)" xlink:href="#linear-gradient-7"/><mask id="mask-2" x="82.567" y="28.208" width="24.981" height="18.042" maskUnits="userSpaceOnUse"><g transform="translate(-14 -73.874)"><polygon class="cls-2" points="121.548 108.138 98.945 102.082 96.567 112.753 118.877 120.124 121.548 108.138"/></g></mask><radialGradient id="radial-gradient-2" cx="110.232" cy="530.542" r="9.119" gradientTransform="matrix(0.832, 0.555, 0.339, -0.508, -161.245, 318.998)" xlink:href="#radial-gradient"/><linearGradient id="linear-gradient-15" x1="35.203" y1="537.125" x2="35.203" y2="533.489" gradientTransform="matrix(1, 0, 0, -1, 0, 641.274)" xlink:href="#linear-gradient-7"/><mask id="mask-3" x="18.12" y="28.208" width="24.981" height="18.042" maskUnits="userSpaceOnUse"><g transform="translate(-14 -73.874)"><polygon class="cls-3" points="57.1 108.138 34.498 102.082 32.12 112.753 54.429 120.124 57.1 108.138"/></g></mask><radialGradient id="radial-gradient-3" cx="45.784" cy="530.542" r="9.119" gradientTransform="matrix(0.832, 0.555, 0.339, -0.508, -172.082, 354.768)" xlink:href="#radial-gradient"/><linearGradient id="linear-gradient-16" x1="83.103" y1="99.361" x2="83.103" y2="92.738" xlink:href="#linear-gradient-7"/><mask id="mask-4" x="115.072" y="-0.183" width="22.289" height="26.854" maskUnits="userSpaceOnUse"><g transform="translate(-14 -73.874)"><rect class="cls-4" x="129.072" y="73.691" width="22.289" height="26.854"/></g></mask><radialGradient id="radial-gradient-4" cx="127.595" cy="80.64" r="21.42" gradientTransform="translate(0 12.085) scale(1 0.85)" gradientUnits="userSpaceOnUse"><stop offset="0.791" stop-color="#633228"/><stop offset="0.8" stop-color="#793d31"/><stop offset="0.818" stop-color="#a05040"/><stop offset="0.836" stop-color="#be5f4c"/><stop offset="0.853" stop-color="#d46a55"/><stop offset="0.87" stop-color="#e2715a"/><stop offset="0.885" stop-color="#e6735c"/><stop offset="0.914" stop-color="#e3725b"/><stop offset="0.934" stop-color="#da6d57"/><stop offset="0.951" stop-color="#cb6651"/><stop offset="0.966" stop-color="#b65b49"/><stop offset="0.98" stop-color="#9a4d3e"/><stop offset="0.993" stop-color="#793d31"/><stop offset="1" stop-color="#633228"/></radialGradient><radialGradient id="radial-gradient-5" cx="143.352" cy="80.596" r="11.448" gradientTransform="matrix(0.281, -0.96, 0.542, 0.158, 59.463, 205.423)" xlink:href="#radial-gradient"/><linearGradient id="linear-gradient-17" x1="54.476" y1="-21.83" x2="54.476" y2="-25.462" gradientTransform="translate(0 120.981)" xlink:href="#linear-gradient-7"/><mask id="mask-6" x="56.742" y="9.315" width="24.981" height="18.042" maskUnits="userSpaceOnUse"><g transform="translate(-14 -73.874)"><polygon class="cls-6" points="95.723 95.177 73.12 101.232 70.742 90.561 93.052 83.19 95.723 95.177"/></g></mask><radialGradient id="radial-gradient-6" cx="84.406" cy="-28.399" r="9.119" gradientTransform="translate(23.818 153.853) rotate(-33.712) scale(1 0.611)" xlink:href="#radial-gradient"/></defs><title>myosin_filament</title><g id="myosin_filament"><g id="BG"><path class="cls-7" d="M15.841,107.466,180.5,107.08c2.261,0,2.261-11.251,0-11.251H15.842C17.813,95.829,17.812,107.466,15.841,107.466Z" transform="translate(-14 -73.874)"/><path class="cls-8" d="M17.273,98.861c.512,0,.468,2.784,0,2.784,53.034-.035,147.148,0,164.937,0a4.9,4.9,0,0,0-.187-2.784C170.855,98.861,73.482,98.859,17.273,98.861Z" transform="translate(-14 -73.874)"/><path class="cls-9" d="M15.842,95.829c.6,0,2,3.032,1.431,3.032,53.034-.035,146.961,0,164.75,0,.348-.76-.569-3.032-1.524-3.032C169.33,95.829,72.051,95.827,15.842,95.829Z" transform="translate(-14 -73.874)"/><path class="cls-10" d="M17.273,101.645c.367,0,.344,2.784-.024,2.784,53-.035,146.95-.07,164.725-.07a3.409,3.409,0,0,0,.235-2.714C171.046,101.645,73.466,101.643,17.273,101.645Z" transform="translate(-14 -73.874)"/><path class="cls-11" d="M17.158,104.43c.566,0,.353,3.036-1.317,3.036,53-.035,146.882-.386,164.656-.386.851,0,1.738-1.8,1.476-2.721C170.811,104.359,73.351,104.428,17.158,104.43Z" transform="translate(-14 -73.874)"/><path class="cls-12" d="M17.659,103.037c0-.769-.181-1.392-.4-1.392a.07.07,0,0,1-.047-.025.155.155,0,0,0,.071.025c.223,0,.4-.623.4-1.392s-.181-1.392-.4-1.392c.34,0,.147-.891-.236-1.734s-1.066-1.319-1.243-1.3a.624.624,0,0,0-.492.389c-.079-.1-.557.572-.748,1.266s-.192,1.316-.009,1.429c-.277.129-.3.908-.355,1.505a1.546,1.546,0,0,0,.2,1l-.026-.04c-.114-.192-.432.712-.365,1.477a2.517,2.517,0,0,0,.516,1.4,2.54,2.54,0,0,0,.058,1.678c.242.894.913,1.586,1.081,1.527.045-.016.074-.079.088-.176-.007.121.016.194.078.2.576.012.911-.45,1.293-1.292.374-.827.311-1.624.1-1.748a.074.074,0,0,1,.032-.01C17.478,104.43,17.659,103.806,17.659,103.037Z" transform="translate(-14 -73.874)"/><path class="cls-13" d="M17.659,103.037c0,.769-.181,1.392-.4,1.392s-.581-1.234-.581-2,.358-.782.581-.782S17.659,102.269,17.659,103.037Z" transform="translate(-14 -73.874)"/><path class="cls-13" d="M16.459,102.916c.1.825.488,1.35.315,1.492a1,1,0,0,1-1.023-.288c-.407-.652-.371-1.179-.2-1.321S16.366,102.153,16.459,102.916Z" transform="translate(-14 -73.874)"/><path class="cls-13" d="M16.674,101.482c-.191.772-.527.77-.751.77s-.85.725-.578-.277c.123-.455.159-1.741.652-1.073C16.129,101.081,16.872,100.677,16.674,101.482Z" transform="translate(-14 -73.874)"/><path class="cls-13" d="M16.381,104.782c.119.345-.418,1.06-.539,1.3-.1.2-.084-1.37-.831-1.9-.524-.374.162-1.112.53.063C15.608,104.458,16.328,104.627,16.381,104.782Z" transform="translate(-14 -73.874)"/><path class="cls-13" d="M15.088,102.665c.183,1.071-.527.271-.555,1.543,0,.223-.457-.586-.524-1.352s.25-1.669.365-1.477C14.873,102.217,14.922,101.69,15.088,102.665Z" transform="translate(-14 -73.874)"/><path class="cls-13" d="M15.256,100.369c0,.769-.181,1.392-.4,1.392s-.742-.422-.655-1.341c.072-.765.085-1.835.655-1.443A1.88,1.88,0,0,1,15.256,100.369Z" transform="translate(-14 -73.874)"/><path class="cls-13" d="M15.2,97.841c.038,1.161-.4,1.153-.618,1.094s-.224-.708-.021-1.449.735-1.457.758-1.235C15.424,97.231,15.18,97.261,15.2,97.841Z" transform="translate(-14 -73.874)"/><path class="cls-13" d="M17.683,100.253c0,.769-.181,1.392-.4,1.392s-.547-.7-.346-1.3c.249-.752.123-1.482.346-1.482S17.683,99.484,17.683,100.253Z" transform="translate(-14 -73.874)"/><path class="cls-13" d="M17.124,106.188c-.381.842-.717,1.3-1.293,1.292-.243,0,.115-1.093.5-1.936s.663-1.215.884-1.115S17.5,105.346,17.124,106.188Z" transform="translate(-14 -73.874)"/><path class="cls-13" d="M16.776,98.956c.161.934-.1,1.757-.489,1.711-.516-.061-.691-.437-.835-1.35s-.083-1.607.158-1.645A1.572,1.572,0,0,1,16.776,98.956Z" transform="translate(-14 -73.874)"/><path class="cls-13" d="M17.043,97.127c.383.843.575,1.733.236,1.734-.269,0-.61-1.1-1.122-1.331-1.306-.578-.982-1.618-.357-1.7C15.977,95.807,16.66,96.284,17.043,97.127Z" transform="translate(-14 -73.874)"/><path class="cls-13" d="M14.584,105.934c-.242-.894-.227-1.676.032-1.746s.487.554.729,1.448.5,1.761.32,1.825S14.826,106.828,14.584,105.934Z" transform="translate(-14 -73.874)"/></g><g id="myosin_head"><path class="cls-14" d="M15.841,107.466l140.218,0c2.571,0,5.012,5.2,8.8,7.781,4.169,2.843,9.464,4.863,11.062-.286,2.841-9.156-12.886-10.535-19.808-10.535-3.565,0-87.588-.049-138.952,0C17.789,104.43,17.093,107.466,15.841,107.466Z" transform="translate(-14 -73.874)"/><g class="cls-15"><path class="cls-16" d="M155.883,107.462c3.007,0,3.861,4.172,8.972,7.789,4.1,2.9,9.462,4.867,11.062-.286,2.841-9.156-12.886-10.535-19.808-10.535" transform="translate(-14 -73.874)"/></g></g><g id="myosin_head-2" data-name="myosin_head"><path class="cls-17" d="M15.842,107.467l82.9,0c2.571,0,5.012,5.2,8.8,7.781,4.169,2.843,9.464,4.863,11.062-.286,2.841-9.156-12.886-10.535-19.808-10.535-2.443,0-59.693-.031-81.631,0C17.692,104.43,17.239,107.467,15.842,107.467Z" transform="translate(-14 -73.874)"/><g class="cls-18"><path class="cls-19" d="M98.563,107.462c3.007,0,3.861,4.172,8.972,7.789,4.1,2.9,9.462,4.867,11.062-.286,2.841-9.156-12.886-10.535-19.808-10.535" transform="translate(-14 -73.874)"/></g></g><g id="myosin_head-3" data-name="myosin_head"><path class="cls-20" d="M15.917,107.467c22.395,0,16.866,0,18.375,0,2.571,0,5.012,5.2,8.8,7.781,4.169,2.843,9.464,4.863,11.062-.286,2.841-9.156-12.886-10.535-19.808-10.535-2.443,0,4.846-.031-17.093,0C17.783,104.43,17.273,107.467,15.917,107.467Z" transform="translate(-14 -73.874)"/><g class="cls-21"><path class="cls-22" d="M34.115,107.462c3.007,0,3.861,4.172,8.972,7.789,4.1,2.9,9.462,4.867,11.062-.286,2.841-9.156-12.886-10.535-19.808-10.535" transform="translate(-14 -73.874)"/></g></g><g id="myosin_head-4" data-name="myosin_head"><path class="cls-23" d="M147.989,75.7c-2.829-2.069-5.918-2.636-8.588-.366-5.868,4.989,3.789,20.492-10.018,20.485-1.9,0-76.621.005-113.541.007,1.077,0,2.176,3.032,1.431,3.032,36.26-.016,109.026-.253,112.11-.325C145.989,98.146,154.947,80.791,147.989,75.7Z" transform="translate(-14 -73.874)"/><g class="cls-24"><path class="cls-25" d="M129.383,95.822c13.807.007,4.15-15.5,10.018-20.485,2.67-2.27,5.759-1.7,8.588.366,6.958,5.088-2,22.443-18.606,22.833" transform="translate(-14 -73.874)"/></g><g class="cls-24"><path class="cls-26" d="M129.383,95.822c13.807.007,4.15-15.5,10.018-20.485,2.67-2.27,5.759-1.7,8.588.366,6.958,5.088-2,22.443-18.606,22.833" transform="translate(-14 -73.874)"/></g></g><g id="myosin_head-5" data-name="myosin_head"><path class="cls-27" d="M92.771,88.349c-1.6-5.148-6.893-3.129-11.062-.286-3.784,2.58-6.225,7.781-8.8,7.781-.964,0-47.9-.017-57.073-.016.682,0,2.077,3.032,1.431,3.032l55.691.024C79.885,98.885,95.613,97.505,92.771,88.349Z" transform="translate(-14 -73.874)"/><g class="cls-28"><path class="cls-29" d="M72.738,95.852c3.007,0,3.861-4.172,8.972-7.789,4.1-2.9,9.462-4.867,11.062.286,2.841,9.156-12.886,10.535-19.808,10.535" transform="translate(-14 -73.874)"/></g></g></g></svg>