<svg id="Layer_1" data-name="Layer 1" xmlns="http://www.w3.org/2000/svg" xmlns:xlink="http://www.w3.org/1999/xlink" viewBox="0 0 44.5 141.898"><defs><style>.cls-1{fill:url(#linear-gradient);}.cls-2{fill:url(#radial-gradient);}.cls-3{fill:url(#radial-gradient-2);}</style><linearGradient id="linear-gradient" x1="125.905" y1="196.321" x2="186.1" y2="180.192" gradientTransform="translate(-59.848 -82.052)" gradientUnits="userSpaceOnUse"><stop offset="0" stop-color="#006b57"/><stop offset="1" stop-color="#51e8cc"/></linearGradient><radialGradient id="radial-gradient" cx="-49.095" cy="-537.593" r="16.089" gradientTransform="translate(169.532 581.052)" gradientUnits="userSpaceOnUse"><stop offset="0" stop-color="#82e8ff"/><stop offset="1" stop-color="#005791"/></radialGradient><radialGradient id="radial-gradient-2" cx="-702.658" cy="-455.547" r="16.089" gradientTransform="translate(794.769 600.277) rotate(-0.014)" xlink:href="#radial-gradient"/></defs><title>ERBB2</title><g id="ERBB2"><path class="cls-1" d="M82.78,170.949a2,2,0,0,1-2-2V133.7c0-8.208,4.754-12.729,9.352-17.1,4.447-4.228,8.648-8.222,8.648-15.651V73.131c0-9.217,2.612-13.422,4.916-17.132,2.058-3.312,3.834-6.171,3.834-12.541a2,2,0,1,1,4,0c0,7.511-2.255,11.141-4.436,14.651-2.219,3.571-4.314,6.945-4.314,15.021v27.817c0,9.146-5.255,14.142-9.892,18.55-4.351,4.137-8.108,7.708-8.108,14.2v35.25A2,2,0,0,1,82.78,170.949Z" transform="translate(-77.75 -29.051)"/><path class="cls-2" d="M118.11,57.867c-7.355,0-11.924-5.521-11.924-14.408s4.569-14.408,11.924-14.408a4.139,4.139,0,0,1,0,8.279c-1.091,0-3.645,0-3.645,6.129s2.554,6.129,3.645,6.129a4.139,4.139,0,0,1,0,8.279Z" transform="translate(-77.75 -29.051)"/><path class="cls-3" d="M89.678,159.309c-7.355,0-11.925-5.518-11.927-14.405s4.566-14.409,11.92-14.41a4.139,4.139,0,0,1,0,8.279c-1.091,0-3.645,0-3.644,6.13s2.556,6.128,3.647,6.128a4.139,4.139,0,0,1,0,8.279Z" transform="translate(-77.75 -29.051)"/></g></svg>