<svg id="layer1" xmlns="http://www.w3.org/2000/svg" xmlns:xlink="http://www.w3.org/1999/xlink" viewBox="0 0 100 153.571"><defs><style>.cls-1{fill:url(#radial-gradient);}.cls-2{fill:url(#radial-gradient-2);}.cls-3{fill:url(#radial-gradient-3);}.cls-4{fill:url(#radial-gradient-4);}.cls-5{fill:url(#radial-gradient-5);}.cls-6{fill:url(#radial-gradient-6);}.cls-7{fill:url(#radial-gradient-7);}.cls-8{fill:url(#radial-gradient-8);}.cls-9{fill:url(#radial-gradient-9);}.cls-10{fill:url(#radial-gradient-10);}.cls-11{fill:url(#radial-gradient-11);}.cls-12{fill:url(#radial-gradient-12);}.cls-13{fill:url(#radial-gradient-13);}.cls-14{fill:url(#radial-gradient-14);}.cls-15{fill:url(#radial-gradient-15);}.cls-16{fill:url(#radial-gradient-16);}.cls-17{fill:url(#radial-gradient-17);}.cls-18{fill:url(#radial-gradient-18);}.cls-19{fill:url(#radial-gradient-19);}.cls-20{fill:url(#radial-gradient-20);}.cls-21{fill:url(#radial-gradient-21);}.cls-22{fill:url(#radial-gradient-22);}.cls-23{fill:url(#radial-gradient-23);}.cls-24{fill:url(#radial-gradient-24);}.cls-25{fill:url(#radial-gradient-25);}.cls-26{fill:url(#radial-gradient-26);}</style><radialGradient id="radial-gradient" cx="-555.593" cy="452.109" r="1.681" gradientTransform="matrix(0.748, -7.446, -10.639, -0.928, 5300.323, -3671.366)" gradientUnits="userSpaceOnUse"><stop offset="0" stop-color="#dc9800"/><stop offset="1" stop-color="#ecbb51"/></radialGradient><radialGradient id="radial-gradient-2" cx="-569.655" cy="449.49" r="1.939" gradientTransform="matrix(0.626, -4.522, -11.113, -1.27, 5442.888, -1928.417)" xlink:href="#radial-gradient"/><radialGradient id="radial-gradient-3" cx="-566.565" cy="449.701" r="1.939" gradientTransform="matrix(0.626, -4.522, -11.113, -1.27, 5443.47, -1908.355)" xlink:href="#radial-gradient"/><radialGradient id="radial-gradient-4" cx="-563.466" cy="449.876" r="1.939" gradientTransform="matrix(0.626, -4.522, -11.113, -1.27, 5443.47, -1888.293)" xlink:href="#radial-gradient"/><radialGradient id="radial-gradient-5" cx="-560.325" cy="450.053" r="1.939" gradientTransform="matrix(0.626, -4.522, -11.113, -1.27, 5443.47, -1867.96)" xlink:href="#radial-gradient"/><radialGradient id="radial-gradient-6" cx="-557.183" cy="450.23" r="1.939" gradientTransform="matrix(0.626, -4.522, -11.113, -1.27, 5443.47, -1847.627)" xlink:href="#radial-gradient"/><radialGradient id="radial-gradient-7" cx="-554.047" cy="450.425" r="1.939" gradientTransform="matrix(0.626, -4.522, -11.113, -1.27, 5443.761, -1827.294)" xlink:href="#radial-gradient"/><radialGradient id="radial-gradient-8" cx="-528.602" cy="495.458" r="1.298" gradientTransform="matrix(-5.564, 11.151, 13.924, 6.034, -9753.758, 3021.207)" xlink:href="#radial-gradient"/><radialGradient id="radial-gradient-9" cx="-550.854" cy="450.567" r="1.939" gradientTransform="matrix(0.626, -4.522, -11.113, -1.27, 5443.179, -1806.689)" xlink:href="#radial-gradient"/><radialGradient id="radial-gradient-10" cx="-487.923" cy="463.24" r="0.466" gradientTransform="matrix(11.76, -1.859, -6.307, -34.648, 8751.626, 15290.748)" xlink:href="#radial-gradient"/><radialGradient id="radial-gradient-11" cx="-565.302" cy="530.175" r="1.681" gradientTransform="matrix(-0.748, -7.446, 10.639, -0.928, -5938.155, -3671.196)" xlink:href="#radial-gradient"/><radialGradient id="radial-gradient-12" cx="-572.182" cy="454.419" r="1.939" gradientTransform="matrix(0.626, -4.522, -11.113, -1.27, 5522.292, -1935.702)" xlink:href="#radial-gradient"/><radialGradient id="radial-gradient-13" cx="-569.093" cy="454.63" r="1.939" gradientTransform="matrix(0.626, -4.522, -11.113, -1.27, 5522.874, -1915.64)" xlink:href="#radial-gradient"/><radialGradient id="radial-gradient-14" cx="-565.994" cy="454.804" r="1.939" gradientTransform="matrix(0.626, -4.522, -11.113, -1.27, 5522.874, -1895.578)" xlink:href="#radial-gradient"/><radialGradient id="radial-gradient-15" cx="-562.852" cy="454.981" r="1.939" gradientTransform="matrix(0.626, -4.522, -11.113, -1.27, 5522.874, -1875.245)" xlink:href="#radial-gradient"/><radialGradient id="radial-gradient-16" cx="-559.711" cy="455.158" r="1.939" gradientTransform="matrix(0.626, -4.522, -11.113, -1.27, 5522.874, -1854.912)" xlink:href="#radial-gradient"/><radialGradient id="radial-gradient-17" cx="-556.575" cy="455.353" r="1.939" gradientTransform="matrix(0.626, -4.522, -11.113, -1.27, 5523.165, -1834.578)" xlink:href="#radial-gradient"/><radialGradient id="radial-gradient-18" cx="-501.403" cy="445.19" r="1.298" gradientTransform="matrix(5.564, 11.151, -13.924, 6.034, 9096.975, 3021.207)" xlink:href="#radial-gradient"/><radialGradient id="radial-gradient-19" cx="-553.381" cy="455.496" r="1.939" gradientTransform="matrix(0.626, -4.522, -11.113, -1.27, 5522.583, -1813.974)" xlink:href="#radial-gradient"/><radialGradient id="radial-gradient-20" cx="-524.67" cy="499.126" r="0.466" gradientTransform="matrix(-16.612, 38.24, 12.351, 4.66, -14779.047, 17900.023)" xlink:href="#radial-gradient"/><radialGradient id="radial-gradient-21" cx="-452.81" cy="464.128" r="1.193" gradientTransform="matrix(6.157, 0, 0, -3.891, 2826.299, 1926.325)" xlink:href="#radial-gradient"/><radialGradient id="radial-gradient-22" cx="-452.81" cy="471.266" r="1.193" gradientTransform="matrix(6.157, 0, 0, -3.891, 2826.299, 1965.465)" xlink:href="#radial-gradient"/><radialGradient id="radial-gradient-23" cx="-591.095" cy="456.912" r="1.193" gradientTransform="translate(-3583.359 1886.76) rotate(180) scale(6.157 3.891)" xlink:href="#radial-gradient"/><radialGradient id="radial-gradient-24" cx="-591.148" cy="464.08" r="1.193" gradientTransform="translate(-3583.816 1926.061) rotate(180) scale(6.157 3.891)" xlink:href="#radial-gradient"/><radialGradient id="radial-gradient-25" cx="-591.069" cy="471.227" r="1.193" gradientTransform="translate(-3583.131 1965.253) rotate(180) scale(6.157 3.891)" xlink:href="#radial-gradient"/><radialGradient id="radial-gradient-26" cx="-452.705" cy="456.912" r="1.193" gradientTransform="matrix(6.157, 0, 0, -3.891, 2825.386, 1886.76)" xlink:href="#radial-gradient"/></defs><title>R-ICO-013686</title><g id="INSR"><path id="path931" class="cls-1" d="M79.033,76.985c-.426.268-3.975-5.023.758-7.047a58.4,58.4,0,0,0,7.856-3.227c1.4-1.342,3.461-2.72-.22-7.219a13.369,13.369,0,0,0-7.02-4.185c-6.843-.231-13.507-.161-20.35-.582-4.921.136-8.4-2.3-9.974-8.1L50,36.6c1.15-9.4,9.656-9.43,18.61-9.154,7.727-.683,7.168-4.269,21.938-4.094,3.293-.075,5.057-.747,6.917,1.694.376.494.109,1.029-.579,1.193A12.794,12.794,0,0,0,92.3,28.9c-.915.84-2.952,3.7-2.533,6.644.607,4.257,2.111,5.184,3.289,6.389a7.4,7.4,0,0,0,3.818,1.941c1.263.142,1.331.463,1.3.605-.985,3.96-4.4,3.209-8.549,3.073-4.438-.145-6.762-.4-11.016-.854-12.861-1.376-12-1.452-10.783-2.3,1.985,1.5,4.488,1.708,6.949,2.019,4.626,1.024,9.3,1.916,13.308,4.664a20.408,20.408,0,0,1,6.771,7.835c2.331,4.026,4.18,9.047,4.083,12.728l-19.9,5.344" transform="translate(-50 -23.215)"/><path id="path826" class="cls-2" d="M78.854,75.76c-4.942,1.863-2.057,6.847,1.682,5.6,5.779-1.671,11.544-3.3,17.339-5.015,4.368-1.33,2.42-6.893-2.565-5.213Z" transform="translate(-50 -23.215)"/><path id="path897" class="cls-3" d="M79.022,81.584c-4.941,1.863-2.056,6.847,1.682,5.6,5.78-1.671,11.545-3.3,17.34-5.015,4.368-1.33,2.42-6.893-2.565-5.213Z" transform="translate(-50 -23.215)"/><path id="path901" class="cls-4" d="M79.022,87.408c-4.941,1.863-2.056,6.847,1.682,5.6,5.78-1.672,11.545-3.3,17.34-5.015,4.368-1.33,2.42-6.893-2.565-5.213Z" transform="translate(-50 -23.215)"/><path id="path905" class="cls-5" d="M79.022,93.311c-4.941,1.862-2.056,6.846,1.682,5.6,5.78-1.672,11.545-3.3,17.34-5.015,4.368-1.33,2.42-6.894-2.565-5.214Z" transform="translate(-50 -23.215)"/><path id="path909" class="cls-6" d="M79.022,99.214c-4.941,1.862-2.056,6.846,1.682,5.595,5.78-1.671,11.545-3.3,17.34-5.015,4.368-1.33,2.42-6.893-2.565-5.213Z" transform="translate(-50 -23.215)"/><path id="path913" class="cls-7" d="M79.107,105.116c-4.942,1.863-2.056,6.847,1.682,5.6,5.78-1.672,11.545-3.3,17.34-5.015,4.368-1.33,2.419-6.893-2.566-5.213Z" transform="translate(-50 -23.215)"/><path id="path921" class="cls-8" d="M87.6,120.865c-2.949-2.565-5.963-3.675-8.023-4.8l8.361-2.046c4.347,1.441,8.093,4.216,8.037,9.176a20.622,20.622,0,0,1-.07,3.726c-.081,3.461.339,9.058-1.748,9.092l-2.474.121c-2.693-.5-1.694-7.384-1.5-8.3C90.4,124.5,89.642,122.637,87.6,120.865Z" transform="translate(-50 -23.215)"/><path id="path917" class="cls-9" d="M78.938,111.1c-4.941,1.862-2.056,6.846,1.682,5.595,5.78-1.671,11.545-3.3,17.34-5.015,4.368-1.33,2.42-6.893-2.566-5.213Z" transform="translate(-50 -23.215)"/><path id="path1002" class="cls-10" d="M89.887,131.405l5.972-.056-.239,32.445c.728,7.816,7.549,12.55,17.2,8.275.66-.292-.489-2.24,2.2-5.656a7.953,7.953,0,0,1,4.912-2.475c1.722-.46,6.549,1.614,4.625,6.339-2.251,5.529-10.726,4.642-10.065,3.722-2.15,2.873-23.784,4.912-24.423-10.261Z" transform="translate(-50 -23.215)"/><path id="path2535" class="cls-11" d="M122.039,69.206a3.169,3.169,0,0,0-2.991-3.889c-1.871-.3-4.206.846-6.486.374-1.268-.385-3.224-1.578-.012-5.946a13.745,13.745,0,0,1,7.043-4.389c6.843-.231,13.507-.161,20.35-.581,4.922.135,8.395-2.3,9.974-8.1L150,36.653c-1.15-9.4-9.656-9.43-18.61-9.154-7.727-.684-7.168-4.269-21.938-4.094-3.293-.075-5.057-.747-6.917,1.693-.376.494-.109,1.03.579,1.193a12.8,12.8,0,0,1,4.587,2.658c.915.839,2.952,3.705,2.533,6.643-.607,4.257-2.111,5.184-3.289,6.389a7.4,7.4,0,0,1-3.818,1.941c-1.263.142-1.331.464-1.3.606.985,3.959,4.4,3.208,8.549,3.072,4.438-.145,6.762-.4,11.016-.854,12.861-1.376,12-1.452,10.783-2.3-1.985,1.5-4.488,1.708-6.949,2.02-4.626,1.024-6.308-.18-13.487,4.4a24.575,24.575,0,0,0-6.636,8.269c-2.331,4.026-6.066,11.5-4.166,14.968l20.32-2.972" transform="translate(-50 -23.215)"/><path id="path943" class="cls-12" d="M101.9,73.646c-4.941,1.862-2.056,6.846,1.682,5.6,5.78-1.672,11.545-3.3,17.34-5.016,4.368-1.33,2.42-6.893-2.566-5.213Z" transform="translate(-50 -23.215)"/><path id="path945" class="cls-13" d="M102.073,79.47c-4.941,1.862-2.056,6.846,1.682,5.595,5.78-1.671,11.545-3.3,17.34-5.015,4.368-1.33,2.42-6.893-2.566-5.213Z" transform="translate(-50 -23.215)"/><path id="path947" class="cls-14" d="M102.073,85.294c-4.941,1.862-2.056,6.846,1.682,5.595,5.78-1.671,11.545-3.3,17.34-5.015,4.368-1.33,2.42-6.893-2.566-5.213Z" transform="translate(-50 -23.215)"/><path id="path949" class="cls-15" d="M102.073,91.2c-4.941,1.863-2.056,6.847,1.682,5.6,5.78-1.672,11.545-3.3,17.34-5.015,4.368-1.33,2.42-6.893-2.566-5.213Z" transform="translate(-50 -23.215)"/><path id="path951" class="cls-16" d="M102.073,97.1c-4.941,1.862-2.056,6.846,1.682,5.6,5.78-1.672,11.545-3.3,17.34-5.015,4.368-1.33,2.42-6.894-2.566-5.214Z" transform="translate(-50 -23.215)"/><path id="path953" class="cls-17" d="M102.158,103c-4.942,1.862-2.057,6.846,1.682,5.595,5.78-1.671,11.544-3.3,17.339-5.015,4.369-1.33,2.42-6.893-2.565-5.213Z" transform="translate(-50 -23.215)"/><path id="path998" class="cls-18" d="M121.048,108.4c2.949-2.565-10.4.165-6.309-.293l2.687,2.183c-2.69-.595-9.75.643-14.347,3.952a10.429,10.429,0,0,0-4.2,6.615,54.7,54.7,0,0,0-.289,6.064c.022,2.849-.816,8.836,1.749,9.092l2.473.121c2.455-.919,1.575-4.811,1.5-8.3.565-12.07,7.175-13.544,10.826-14.926,3.281-1.387,7.531-4.458,5.912-4.508Z" transform="translate(-50 -23.215)"/><path id="path957" class="cls-19" d="M101.989,108.983c-4.942,1.862-2.056,6.846,1.682,5.6,5.78-1.672,11.544-3.3,17.339-5.015,4.369-1.33,2.42-6.894-2.565-5.214Z" transform="translate(-50 -23.215)"/><path id="path1012" class="cls-20" d="M98.606,131.182l5.852.167-.5,32.111c-.318,13.741-17.933,16.3-24.347,10.211-3.034,1.741-12.377.093-10.425-6.329.138-.455,2.033-4.979,7.347-2.715,4.264,1.816,4.7,6.633,5.223,7.039,7.992,6.159,17.627-.36,16.919-8.151Z" transform="translate(-50 -23.215)"/><ellipse id="ellipse2550" class="cls-21" cx="39.489" cy="121.095" rx="7.347" ry="4.643"/><ellipse id="ellipse2554" class="cls-22" cx="39.489" cy="132.457" rx="7.347" ry="4.643"/><ellipse id="ellipse2570" class="cls-23" cx="54.929" cy="109.609" rx="7.347" ry="4.643"/><ellipse id="ellipse2574" class="cls-24" cx="54.796" cy="121.018" rx="7.347" ry="4.643"/><ellipse id="ellipse2578" class="cls-25" cx="54.995" cy="132.395" rx="7.347" ry="4.643"/><ellipse id="path1016" class="cls-26" cx="39.224" cy="109.609" rx="7.347" ry="4.643"/></g></svg>