<svg id="Layer_1" data-name="Layer 1" xmlns="http://www.w3.org/2000/svg" xmlns:xlink="http://www.w3.org/1999/xlink" viewBox="0 0 36.35 14.189"><defs><style>.cls-1{fill:url(#linear-gradient);}.cls-2{fill:#b87125;}.cls-3{fill:url(#linear-gradient-2);}.cls-4{fill:#1c8c1c;}.cls-5{fill:url(#linear-gradient-3);}.cls-6{fill:#2294a6;}.cls-7{fill:url(#linear-gradient-4);}.cls-8{fill:#2558b8;}.cls-9{fill:url(#linear-gradient-5);}.cls-10{fill:#4c25b8;}</style><linearGradient id="linear-gradient" x1="86.218" y1="107.094" x2="86.218" y2="92.906" gradientUnits="userSpaceOnUse"><stop offset="0" stop-color="#b87125"/><stop offset="1" stop-color="#dfb486"/></linearGradient><linearGradient id="linear-gradient-2" x1="91.933" y1="107.094" x2="91.933" y2="92.906" gradientUnits="userSpaceOnUse"><stop offset="0" stop-color="#1c8c1c"/><stop offset="1" stop-color="#86df86"/></linearGradient><linearGradient id="linear-gradient-3" x1="97.649" y1="107.094" x2="97.649" y2="92.906" gradientUnits="userSpaceOnUse"><stop offset="0" stop-color="#2194a6"/><stop offset="1" stop-color="#86d3df"/></linearGradient><linearGradient id="linear-gradient-4" x1="103.364" y1="107.094" x2="103.364" y2="92.906" gradientUnits="userSpaceOnUse"><stop offset="0" stop-color="#255bb8"/><stop offset="1" stop-color="#86a7df"/></linearGradient><linearGradient id="linear-gradient-5" x1="109.079" y1="107.094" x2="109.079" y2="92.906" gradientUnits="userSpaceOnUse"><stop offset="0" stop-color="#4c25b8"/><stop offset="1" stop-color="#9e86df"/></linearGradient></defs><title>retromer_complex</title><g id="retromer_complex"><g id="SNX5_6" data-name="SNX5,6"><path class="cls-1" d="M86.528,107.094c-2.6,0-4.7-3.176-4.7-7.094s2.106-7.094,4.7-7.094h4.082v14.189Z" transform="translate(-81.825 -92.906)"/><ellipse class="cls-2" cx="8.785" cy="7.094" rx="4.703" ry="7.094"/></g><g id="VPS29"><path class="cls-3" d="M92.243,107.094c-2.6,0-4.7-3.176-4.7-7.094s2.106-7.094,4.7-7.094h4.082v14.189Z" transform="translate(-81.825 -92.906)"/><ellipse class="cls-4" cx="14.501" cy="7.094" rx="4.703" ry="7.094"/></g><g id="VPS26"><path class="cls-5" d="M97.959,107.094c-2.6,0-4.7-3.176-4.7-7.094s2.106-7.094,4.7-7.094h4.082v14.189Z" transform="translate(-81.825 -92.906)"/><ellipse class="cls-6" cx="20.216" cy="7.094" rx="4.703" ry="7.094"/></g><g id="VPS35"><path class="cls-7" d="M103.674,107.094c-2.6,0-4.7-3.176-4.7-7.094s2.106-7.094,4.7-7.094h4.082v14.189Z" transform="translate(-81.825 -92.906)"/><ellipse class="cls-8" cx="25.931" cy="7.094" rx="4.703" ry="7.094"/></g><g id="SNX1_2" data-name="SNX1,2"><path class="cls-9" d="M109.389,107.094c-2.6,0-4.7-3.176-4.7-7.094s2.106-7.094,4.7-7.094h4.082v14.189Z" transform="translate(-81.825 -92.906)"/><ellipse class="cls-10" cx="31.647" cy="7.094" rx="4.703" ry="7.094"/></g></g></svg>