<svg id="Layer_1" data-name="Layer 1" xmlns="http://www.w3.org/2000/svg" xmlns:xlink="http://www.w3.org/1999/xlink" viewBox="0 0 45.724 22.366"><defs><style>.cls-1{fill:url(#linear-gradient);}.cls-2{fill:#d761e9;}.cls-3{font-size:12px;fill:#fff;font-family:Arial-BoldMT, Arial;font-weight:700;}</style><linearGradient id="linear-gradient" x1="22.896" y1="20.816" x2="22.896" y2="0.816" gradientUnits="userSpaceOnUse"><stop offset="0" stop-color="#9e9b38"/><stop offset="0.999" stop-color="#d761e9"/></linearGradient></defs><title>IRAK</title><g id="IRAK"><rect class="cls-1" x="1.396" y="0.816" width="43" height="20" rx="10" ry="10"/><path class="cls-2" d="M111.5,110.15c-4.532-.008-9.065.493-13.6.919-2.266.231-4.532.343-6.8.431l-1.7.033-.85.017-.973-.029a10.842,10.842,0,0,1-3.808-.938,11.24,11.24,0,0,1-5.529-5.364,11.449,11.449,0,0,1-.852-7.586A10.916,10.916,0,0,1,88.5,89.192c4.532.238,9.065.377,13.6.346q3.4-.019,6.8-.184l1.7-.085.85-.047.914-.007a11.026,11.026,0,0,1,3.63.727,10.771,10.771,0,0,1,5.577,4.934,10.428,10.428,0,0,1,.954,7.471,10.214,10.214,0,0,1-4.377,5.86A12.517,12.517,0,0,1,111.5,110.15Zm0-.3a8.3,8.3,0,0,0,5.919-2.535,10.184,10.184,0,0,0,2.614-5.5,9.73,9.73,0,0,0-.8-5.744,9.433,9.433,0,0,0-4.085-4.256,9.261,9.261,0,0,0-2.92-.95l-.783-.088-.85-.047-1.7-.085q-3.4-.161-6.8-.184c-4.532-.032-9.065.108-13.6.346a9.172,9.172,0,0,0-8.447,7.4,8.506,8.506,0,0,0,.9,5.629,8.7,8.7,0,0,0,1.768,2.247,8.1,8.1,0,0,0,2.366,1.579,9.709,9.709,0,0,0,2.742.739l.724.052.85.017,1.7.033c2.266.089,4.532.2,6.8.431C102.435,109.357,106.968,109.858,111.5,109.85Z" transform="translate(-77.104 -89.184)"/><text class="cls-3" transform="translate(8.229 13.705)">IRAK</text></g></svg>