<svg id="Layer_1" data-name="Layer 1" xmlns="http://www.w3.org/2000/svg" xmlns:xlink="http://www.w3.org/1999/xlink" viewBox="0 0 34 41.403"><defs><style>.cls-1{fill:#2e6b44;}.cls-2{fill:url(#radial-gradient);}.cls-3{fill:url(#radial-gradient-2);}</style><radialGradient id="radial-gradient" cx="-1116.258" cy="280.186" r="5.352" gradientTransform="matrix(-0.882, -0.47, -0.47, 0.882, -763.962, -686.447)" gradientUnits="userSpaceOnUse"><stop offset="0" stop-color="#e7e0d2"/><stop offset="1" stop-color="#2e6b44"/></radialGradient><radialGradient id="radial-gradient-2" cx="-1130.47" cy="271.974" r="5.353" xlink:href="#radial-gradient"/></defs><title>GPIb-IX-V</title><g id="GPIb-IX-V"><path class="cls-1" d="M81.2,116.7a.945.945,0,0,1-1-1V93.5a.945.945,0,0,1,1-1h0a.945.945,0,0,1,1,1v22.2a1,1,0,0,1-1,1Z" transform="translate(-80.2 -77.897)"/><path class="cls-1" d="M89.1,119.3h0a.945.945,0,0,1-1-1V83.2a.945.945,0,0,1,1-1h0a.945.945,0,0,1,1,1v35.1A1,1,0,0,1,89.1,119.3Z" transform="translate(-80.2 -77.897)"/><path class="cls-1" d="M105.1,119.3h0a1,1,0,0,1-1-1l.1-35.1a.945.945,0,0,1,1-1h0a1,1,0,0,1,1,1l-.1,35.1A1,1,0,0,1,105.1,119.3Z" transform="translate(-80.2 -77.897)"/><path class="cls-1" d="M97.1,116.8a.945.945,0,0,1-1-1V93.5a1,1,0,0,1,2,0v22.3A.945.945,0,0,1,97.1,116.8Z" transform="translate(-80.2 -77.897)"/><path class="cls-1" d="M113.1,116.8h0a1,1,0,0,1-1-1l.1-22.3a.945.945,0,0,1,1-1h0a1,1,0,0,1,1,1l-.1,22.3A1,1,0,0,1,113.1,116.8Z" transform="translate(-80.2 -77.897)"/><path class="cls-2" d="M83.7,83.3a5.651,5.651,0,0,0,1.6,3.8,5.288,5.288,0,0,0,3.8,1.6,5.387,5.387,0,0,0,3.8-1.6,5.288,5.288,0,0,0,1.6-3.8,5.237,5.237,0,0,0-5.3-5.4A5.6,5.6,0,0,0,83.7,83.3Z" transform="translate(-80.2 -77.897)"/><path class="cls-3" d="M105.2,88.6A5.651,5.651,0,0,0,109,87a5.288,5.288,0,0,0,1.6-3.8,5.422,5.422,0,0,0-2.8-4.7,5.135,5.135,0,0,0-2.5-.6,5.421,5.421,0,0,0-5.4,5.3A5.065,5.065,0,0,0,105.2,88.6Z" transform="translate(-80.2 -77.897)"/></g></svg>