<svg id="Layer_1" data-name="Layer 1" xmlns="http://www.w3.org/2000/svg" xmlns:xlink="http://www.w3.org/1999/xlink" viewBox="0 0 69 176.373"><defs><style>.cls-1{fill:url(#radial-gradient);}.cls-2{fill:url(#linear-gradient);}.cls-3{fill:#38448e;}.cls-4{fill:url(#radial-gradient-2);}.cls-5{fill:url(#linear-gradient-2);}</style><radialGradient id="radial-gradient" cx="128.667" cy="215.904" r="38.82" gradientTransform="translate(-26.164 -182.276)" gradientUnits="userSpaceOnUse"><stop offset="0.744" stop-color="#3d1229"/><stop offset="1" stop-color="#3798d6"/></radialGradient><linearGradient id="linear-gradient" x1="121.064" y1="304.952" x2="110.985" y2="304.952" gradientTransform="translate(-26.164 -182.276)" gradientUnits="userSpaceOnUse"><stop offset="0" stop-color="#3d1229"/><stop offset="0.999" stop-color="#3698d6"/></linearGradient><radialGradient id="radial-gradient-2" cx="119.861" cy="215.87" r="38.891" gradientTransform="translate(-26.164 -182.276)" gradientUnits="userSpaceOnUse"><stop offset="0.698" stop-color="#3798d6"/><stop offset="1" stop-color="#3d1229"/></radialGradient><linearGradient id="linear-gradient-2" x1="137.064" y1="304.952" x2="126.985" y2="304.952" gradientTransform="translate(-26.164 -182.276)" gradientUnits="userSpaceOnUse"><stop offset="0" stop-color="#3d1229"/><stop offset="1" stop-color="#3798d6"/></linearGradient></defs><title>IL19R</title><g id="IL119R"><path class="cls-1" d="M89.927,185.909a5,5,0,0,1-5-5V67.585A34.118,34.118,0,0,1,73.885,60.2a34,34,0,0,1,0-48.083,5,5,0,0,1,7.071,7.071A24.01,24.01,0,0,0,91.089,59.174l.26.077a5,5,0,0,1,3.578,4.793V180.909A5,5,0,0,1,89.927,185.909Z" transform="translate(-63.427 -10.161)"/><path class="cls-2" d="M89.927,185.909a4.938,4.938,0,0,1-5-4.875V64.318a5,5,0,0,1,10,0V181.034A4.938,4.938,0,0,1,89.927,185.909Z" transform="translate(-63.427 -10.161)"/><path class="cls-3" d="M89.927,186.534a5.507,5.507,0,0,1-5.5-5.5V67.918a34.505,34.505,0,0,1-10.9-56.15,5.5,5.5,0,0,1,7.778,7.778,23.51,23.51,0,0,0,9.921,39.148l.26.077a5.533,5.533,0,0,1,3.936,5.273V181.034A5.507,5.507,0,0,1,89.927,186.534ZM77.421,11.16a4.489,4.489,0,0,0-3.182,1.315,33.5,33.5,0,0,0,0,47.375,33.851,33.851,0,0,0,10.879,7.273l.309.128V181.034a4.5,4.5,0,0,0,9,0V64.045a4.526,4.526,0,0,0-3.22-4.314l-.26-.077A24.5,24.5,0,0,1,80.6,18.839a4.5,4.5,0,0,0-3.182-7.679Z" transform="translate(-63.427 -10.161)"/><path class="cls-4" d="M105.927,185.909a5,5,0,0,0,5-5V67.585A34.118,34.118,0,0,0,121.968,60.2a34,34,0,0,0,0-48.083,5,5,0,1,0-7.071,7.071,24.01,24.01,0,0,1-10.132,39.981l-.26.077a5,5,0,0,0-3.578,4.793V180.909A5,5,0,0,0,105.927,185.909Z" transform="translate(-63.427 -10.161)"/><path class="cls-5" d="M105.927,185.909a4.938,4.938,0,0,1-5-4.875V64.318a5,5,0,0,1,10,0V181.034A4.938,4.938,0,0,1,105.927,185.909Z" transform="translate(-63.427 -10.161)"/><path class="cls-3" d="M105.927,186.409a5.507,5.507,0,0,1-5.5-5.5V64.045a5.533,5.533,0,0,1,3.936-5.273l.259-.077a23.5,23.5,0,0,0,9.921-39.148,5.5,5.5,0,0,1,7.778-7.778,34.513,34.513,0,0,1-10.9,56.15V180.909A5.507,5.507,0,0,1,105.927,186.409ZM118.433,11.16a4.5,4.5,0,0,0-3.182,7.679,24.51,24.51,0,0,1-10.344,40.814l-.259.077a4.526,4.526,0,0,0-3.221,4.314V180.909a4.5,4.5,0,0,0,9,0V67.252l.309-.128a33.851,33.851,0,0,0,10.879-7.273,33.5,33.5,0,0,0,0-47.375A4.489,4.489,0,0,0,118.433,11.16Z" transform="translate(-63.427 -10.161)"/></g></svg>