<svg id="Layer_1" data-name="Layer 1" xmlns="http://www.w3.org/2000/svg" xmlns:xlink="http://www.w3.org/1999/xlink" viewBox="0 0 148.81 57.381"><defs><style>.cls-1{fill:url(#radial-gradient);}.cls-2{fill:#ff8c7a;stroke:#ff8c7a;stroke-miterlimit:10;stroke-width:0.25px;}.cls-3{fill:url(#radial-gradient-2);}.cls-4{fill:url(#radial-gradient-3);}.cls-5,.cls-6{opacity:0.75;}.cls-5{fill:url(#radial-gradient-4);}.cls-7{fill:url(#radial-gradient-5);}</style><radialGradient id="radial-gradient" cx="101.828" cy="85.691" r="80.031" gradientUnits="userSpaceOnUse"><stop offset="0" stop-color="#ff8c7a"/><stop offset="0.254" stop-color="#fc8978"/><stop offset="0.425" stop-color="#f38072"/><stop offset="0.572" stop-color="#e47167"/><stop offset="0.705" stop-color="#cf5c57"/><stop offset="0.829" stop-color="#b34043"/><stop offset="0.944" stop-color="#911e2b"/><stop offset="1" stop-color="#7e0b1d"/></radialGradient><radialGradient id="radial-gradient-2" cx="116.596" cy="93.949" r="13.408" gradientTransform="translate(-81.389 -27.87) scale(0.844 0.825)" gradientUnits="userSpaceOnUse"><stop offset="0" stop-color="#400611"/><stop offset="1" stop-color="#e37c6d"/></radialGradient><radialGradient id="radial-gradient-3" cx="103.505" cy="77.783" r="10.358" gradientTransform="translate(-81.389 -72.304) scale(0.844 1)" xlink:href="#radial-gradient-2"/><radialGradient id="radial-gradient-4" cx="49.225" cy="167.587" r="152.812" gradientTransform="translate(27.456 52.756) rotate(9.04)" gradientUnits="userSpaceOnUse"><stop offset="0.98" stop-color="#ffcec9" stop-opacity="0"/><stop offset="0.981" stop-color="#ffcec9" stop-opacity="0.053"/><stop offset="0.982" stop-color="#ffcec9" stop-opacity="0.193"/><stop offset="0.985" stop-color="#ffcec9" stop-opacity="0.42"/><stop offset="0.988" stop-color="#ffcec9" stop-opacity="0.728"/><stop offset="0.99" stop-color="#ffcec9"/><stop offset="0.991" stop-color="#ffcec9" stop-opacity="0.952"/><stop offset="0.992" stop-color="#ffcec9" stop-opacity="0.823"/><stop offset="0.994" stop-color="#ffcec9" stop-opacity="0.615"/><stop offset="0.996" stop-color="#ffcec9" stop-opacity="0.326"/><stop offset="0.998" stop-color="#ffcec9" stop-opacity="0"/></radialGradient><radialGradient id="radial-gradient-5" cx="98.057" cy="149.732" r="65.506" gradientUnits="userSpaceOnUse"><stop offset="0.962" stop-color="#ffcec9" stop-opacity="0"/><stop offset="0.963" stop-color="#ffcec9" stop-opacity="0.053"/><stop offset="0.966" stop-color="#ffcec9" stop-opacity="0.193"/><stop offset="0.969" stop-color="#ffcec9" stop-opacity="0.42"/><stop offset="0.973" stop-color="#ffcec9" stop-opacity="0.728"/><stop offset="0.976" stop-color="#ffcec9"/><stop offset="0.977" stop-color="#ffcec9" stop-opacity="0.952"/><stop offset="0.98" stop-color="#ffcec9" stop-opacity="0.823"/><stop offset="0.983" stop-color="#ffcec9" stop-opacity="0.615"/><stop offset="0.987" stop-color="#ffcec9" stop-opacity="0.326"/><stop offset="0.992" stop-color="#ffcec9" stop-opacity="0"/></radialGradient></defs><title>blood_vessel_2</title><g id="BLOOD_VESSEL"><path class="cls-1" d="M174.792,76.155a5.5,5.5,0,0,0-6.9-3.6c-.3.1-30.725,9.584-52.094,9.584a153.011,153.011,0,0,0-21.4,1.4C77.854,69.106,37.6,71.571,29.8,74.729a5.5,5.5,0,0,0,4.127,10.2c1.782-.718,12.346-2.188,25.575-1.251a76.268,76.268,0,0,1,18.737,3.41c-25.1,7.794-34.161,23.111-40.264,33.43l-.437.739A5.5,5.5,0,1,0,47,126.864l.443-.749C55.2,112.984,66.94,93.141,115.8,93.141c23.04,0,54.083-9.678,55.394-10.09A5.5,5.5,0,0,0,174.792,76.155Z" transform="translate(-26.237 -72.304)"/><ellipse class="cls-2" cx="15.993" cy="51.929" rx="5.445" ry="5.327"/><ellipse class="cls-3" cx="15.71" cy="51.929" rx="4.399" ry="4.304"/><ellipse class="cls-2" cx="4.836" cy="7.859" rx="4.711" ry="5.585"/><ellipse class="cls-4" cx="4.836" cy="7.859" rx="3.806" ry="4.512"/><path class="cls-5" d="M36.083,76.992a1.5,1.5,0,0,1,.08-2.973c5.759-.607,20.8-1.723,35.913.865a1.5,1.5,0,0,1-.508,2.957C56.817,75.317,42.112,76.41,36.477,77A1.5,1.5,0,0,1,36.083,76.992Z" transform="translate(-26.237 -72.304)"/><g class="cls-6"><path class="cls-7" d="M43.447,118.431a1.5,1.5,0,0,1-1.278-2.283l.355-.583A58.6,58.6,0,0,1,64.532,93.73a1.5,1.5,0,0,1,1.5,2.6,55.8,55.8,0,0,0-20.943,20.793l-.36.592A1.5,1.5,0,0,1,43.447,118.431Z" transform="translate(-26.237 -72.304)"/></g></g></svg>