<svg id="Layer_1" data-name="Layer 1" xmlns="http://www.w3.org/2000/svg" xmlns:xlink="http://www.w3.org/1999/xlink" viewBox="0 0 46.563 22.585"><defs><style>.cls-1{fill:url(#linear-gradient);}.cls-2{fill:#53411f;}.cls-3{font-size:12px;fill:#fff;font-family:Arial-BoldMT, Arial;font-weight:700;}</style><linearGradient id="linear-gradient" x1="23.46" y1="1.059" x2="23.46" y2="21.059" gradientUnits="userSpaceOnUse"><stop offset="0" stop-color="#53411f"/><stop offset="0.969" stop-color="#d00050"/><stop offset="0.999" stop-color="#d4a752"/></linearGradient></defs><title>P23</title><g id="P23"><rect class="cls-1" x="1.46" y="1.059" width="44" height="20" rx="10" ry="10"/><path class="cls-2" d="M112.427,110.241c-4.616-.009-9.231.43-13.847.837-2.308.205-4.616.388-6.923.457-1.17.051-2.273.086-3.5.081a11.084,11.084,0,0,1-3.922-.723,11.314,11.314,0,0,1-7.027-12.9,11.16,11.16,0,0,1,4.066-6.511,10.945,10.945,0,0,1,7.15-2.212c4.616.282,9.231.437,13.847.335,2.308-.059,4.616-.177,6.923-.341,1.165-.074,2.284-.169,3.486-.223a10.184,10.184,0,0,1,3.8.575,10.673,10.673,0,0,1,5.825,4.967,10.4,10.4,0,0,1,.875,7.52,11.015,11.015,0,0,1-4.136,5.967A11.519,11.519,0,0,1,112.427,110.241Zm0-.3a8.967,8.967,0,0,0,6.133-2.462,9.19,9.19,0,0,0,2.75-5.728,9.764,9.764,0,0,0-5.73-9.809,8.868,8.868,0,0,0-2.946-.777c-1.1-.1-2.294-.162-3.437-.246-2.308-.164-4.616-.282-6.923-.341-4.616-.1-9.231.053-13.847.335a9.318,9.318,0,0,0-5.609,2.42A9.109,9.109,0,0,0,80,98.517a8.635,8.635,0,0,0,1.069,5.666,8.834,8.834,0,0,0,4.334,3.73,7.947,7.947,0,0,0,2.829.629c1.082.042,2.288.043,3.426.1,2.308.069,4.616.252,6.923.457C103.2,109.511,107.811,109.95,112.427,109.941Z" transform="translate(-76.967 -89.032)"/><text class="cls-3" transform="translate(13.526 14.373)">p23</text></g></svg>