<svg id="FZD" xmlns="http://www.w3.org/2000/svg" xmlns:xlink="http://www.w3.org/1999/xlink" viewBox="0 0 50.306 179.616"><defs><style>.cls-1{fill:url(#linear-gradient);}.cls-2{fill:url(#radial-gradient);}.cls-3{fill:url(#radial-gradient-2);}</style><linearGradient id="linear-gradient" x1="107.311" y1="767.234" x2="110.518" y2="767.234" gradientTransform="matrix(3.354, 0, 0, -2.944, -260.801, 2352.024)" gradientUnits="userSpaceOnUse"><stop offset="0" stop-color="#d38d5f"/><stop offset="0.263" stop-color="#f4e3d7"/><stop offset="1" stop-color="#d38d5f"/></linearGradient><radialGradient id="radial-gradient" cx="100.872" cy="805.279" r="11.281" gradientTransform="matrix(3.354, 0, 0, -3.6, -260.801, 2943.527)" gradientUnits="userSpaceOnUse"><stop offset="0.479" stop-color="#d38d5f"/><stop offset="0.691" stop-color="#f4e3d7"/><stop offset="1" stop-color="#d38d5f"/></radialGradient><radialGradient id="radial-gradient-2" cx="-1073.975" cy="749.191" r="7.414" gradientTransform="translate(-3502.197 2352.024) rotate(180) scale(3.354 2.944)" gradientUnits="userSpaceOnUse"><stop offset="0" stop-color="#f4e3d7"/><stop offset="1" stop-color="#d38d5f"/></radialGradient></defs><title>R-ICO-013684</title><g id="FZD-2" data-name="FZD"><path id="path36" class="cls-1" d="M104.5,148.161c-2.969,0-5.377-2.111-5.378-4.717V43.4c-.051-2.606,2.314-4.756,5.283-4.8s5.419,2.031,5.47,4.637q0,.083,0,.165V143.441c0,2.606-2.405,4.719-5.374,4.72Z" transform="translate(-74.847 -10.202)"/><path id="path40" class="cls-2" d="M82.316,10.205A9.988,9.988,0,0,0,77.8,11.313c2.64.606,6.368,1.84,1.625,3.354,0,0-4.311,4.3,7.943,6.453L74.847,25.871c1.984,2.3,6.354,3.268,7.459,3.638C94.339,33.532,95.178,35.644,95.178,47.8c0,12.9.605,13.81-14.589,19.18-11.695,7.06,7.175.8-1.129,10.59-10.546,9.459,5.776,6.843,3.349,7.964a11.992,11.992,0,0,0,3.454-.661c23.193-8.146,30.415-14.324,30.415-37.079,0-21.3-6.9-29.641-30.767-37.188A10.156,10.156,0,0,0,82.316,10.205Z" transform="translate(-74.847 -10.202)"/><path id="path915" class="cls-3" d="M83.574,143.441c0-10.077,9.305-18.248,20.787-18.249s20.791,8.167,20.792,18.245v0c0,9.569-4.836,24.866-4.836,32.09.178,7.732-6.818,14.127-15.627,14.284S88.6,183.83,88.416,176.1q-.006-.284,0-.567C88.41,168.307,83.574,153.01,83.574,143.441Z" transform="translate(-74.847 -10.202)"/></g></svg>