<svg id="Layer_1" data-name="Layer 1" xmlns="http://www.w3.org/2000/svg" xmlns:xlink="http://www.w3.org/1999/xlink" viewBox="0 0 151.97 12"><defs><style>.cls-1{fill:url(#linear-gradient);}.cls-2{fill:url(#linear-gradient-2);}.cls-3{fill:url(#linear-gradient-3);}.cls-4{fill:url(#linear-gradient-4);}.cls-5{fill:url(#linear-gradient-5);}.cls-6{fill:url(#linear-gradient-6);}</style><linearGradient id="linear-gradient" x1="-800.597" y1="-111.878" x2="-800.597" y2="-123.737" gradientTransform="translate(-737.585 -19.863) rotate(180)" gradientUnits="userSpaceOnUse"><stop offset="0" stop-color="#04240c"/><stop offset="0.094" stop-color="#0ea231"/><stop offset="0.116" stop-color="#15a336"/><stop offset="0.148" stop-color="#27a745"/><stop offset="0.184" stop-color="#46ac5e"/><stop offset="0.225" stop-color="#70b480"/><stop offset="0.269" stop-color="#a6beac"/><stop offset="0.273" stop-color="#aabfaf"/><stop offset="0.309" stop-color="#a7bead"/><stop offset="0.334" stop-color="#9ebda5"/><stop offset="0.355" stop-color="#8fba99"/><stop offset="0.375" stop-color="#79b688"/><stop offset="0.393" stop-color="#5db171"/><stop offset="0.41" stop-color="#3baa55"/><stop offset="0.426" stop-color="#13a335"/><stop offset="0.428" stop-color="#0ea231"/><stop offset="1" stop-color="#04240c"/></linearGradient><linearGradient id="linear-gradient-2" x1="256.449" y1="119.011" x2="256.449" y2="107.051" gradientTransform="translate(-218.096 -14.962)" gradientUnits="userSpaceOnUse"><stop offset="0" stop-color="#0d7125"/><stop offset="0.092" stop-color="#13a235"/><stop offset="0.25" stop-color="#aabfaf"/><stop offset="0.587" stop-color="#0ea231"/><stop offset="0.653" stop-color="#0c892a"/><stop offset="0.814" stop-color="#08531a"/><stop offset="0.935" stop-color="#053110"/><stop offset="1" stop-color="#04240c"/></linearGradient><linearGradient id="linear-gradient-3" x1="-849.914" y1="-111.878" x2="-849.914" y2="-123.737" xlink:href="#linear-gradient"/><linearGradient id="linear-gradient-4" x1="305.766" y1="119.011" x2="305.766" y2="107.051" xlink:href="#linear-gradient-2"/><linearGradient id="linear-gradient-5" x1="-899.232" y1="-111.878" x2="-899.232" y2="-123.737" xlink:href="#linear-gradient"/><linearGradient id="linear-gradient-6" x1="355.084" y1="119.011" x2="355.084" y2="107.051" xlink:href="#linear-gradient-2"/></defs><title>keratin_monomer</title><g id="MONOMER"><path class="cls-1" d="M48.673,104.032c14.338,0,3.708-12,25.167-12l3.509.009c-13.616,0-4.572,11.991-24.659,11.991Z" transform="translate(-24.015 -92.032)"/><path class="cls-2" d="M52.691,104.032c-14.338,0-4.954-12-24.659-12H24.015c13.616,0,4.017,12,24.659,12Z" transform="translate(-24.015 -92.032)"/><path class="cls-3" d="M97.991,104.032c14.338,0,3.708-12,25.168-12l3.509.009c-13.616,0-4.572,11.991-24.659,11.991Z" transform="translate(-24.015 -92.032)"/><path class="cls-4" d="M102.008,104.032c-14.338,0-4.954-12-24.659-12H73.332c13.616,0,4.017,12,24.659,12Z" transform="translate(-24.015 -92.032)"/><path class="cls-5" d="M147.308,104.032c14.338,0,3.708-12,25.168-12l3.509.009c-13.616,0-4.572,11.991-24.659,11.991Z" transform="translate(-24.015 -92.032)"/><path class="cls-6" d="M151.326,104.032c-14.338,0-4.954-12-24.659-12H122.65c13.616,0,4.017,12,24.659,12Z" transform="translate(-24.015 -92.032)"/></g></svg>