<svg id="Layer_1" data-name="Layer 1" xmlns="http://www.w3.org/2000/svg" xmlns:xlink="http://www.w3.org/1999/xlink" viewBox="0 0 105.098 32.949"><defs><style>.cls-1{fill:url(#linear-gradient);}.cls-2{fill:#d18f1c;}.cls-3{font-size:12px;fill:#fff;font-family:Arial-BoldMT, Arial;font-weight:700;}</style><linearGradient id="linear-gradient" x1="52.857" y1="1.347" x2="52.857" y2="31.347" gradientUnits="userSpaceOnUse"><stop offset="0" stop-color="#d18f1c"/><stop offset="1" stop-color="#4a2f00"/></linearGradient></defs><title>GPI_TRANSAMIDASE</title><g id="GPI_TRANSAMIDASE"><rect class="cls-1" x="1.357" y="1.347" width="103" height="30" rx="10" ry="10"/><path class="cls-2" d="M139.441,113.453c-10.366-.009-20.731.43-31.1.837-10.366.458-20.731.547-31.1.613-5.183,0-10.366.019-15.549-.037l-3.887-.038a15.664,15.664,0,0,1-4.231-.414,11.513,11.513,0,0,1-6.9-5.245,11.305,11.305,0,0,1-1.465-4.149,6.925,6.925,0,0,1-.1-1.1c-.019-.375-.029-.738-.02-1.045l.03-1.944.141-7.791A10.986,10.986,0,0,1,56.441,82.482c10.366.261,20.731.449,31.1.335,5.183-.049,10.366-.194,15.548-.349l15.549-.413c5.183-.085,10.366-.131,15.548-.071l3.887.039a15.458,15.458,0,0,1,4.157.456,10.925,10.925,0,0,1,6.576,5.2,10.779,10.779,0,0,1,1.3,3.993,27.994,27.994,0,0,1-.007,4l-.279,7.78a10.414,10.414,0,0,1-3.225,7.107A10.271,10.271,0,0,1,139.441,113.453Zm0-.3a9.766,9.766,0,0,0,6.865-2.885,9.489,9.489,0,0,0,2.743-6.826c-.06-2.58-.164-5.18-.265-7.768a28.338,28.338,0,0,0-.262-3.759,9.035,9.035,0,0,0-1.33-3.262,9.2,9.2,0,0,0-5.561-3.869,13.143,13.143,0,0,0-3.56-.2l-3.887.039c-5.183.061-10.366.015-15.548-.071l-15.549-.413c-5.183-.155-10.366-.3-15.548-.349-10.366-.114-20.731.074-31.1.335a9.064,9.064,0,0,0-8.8,9.051l.126,7.757.03,1.944c0,.341.015.626.035.9a4.683,4.683,0,0,0,.1.832,8.519,8.519,0,0,0,1.167,3.106,8.614,8.614,0,0,0,5.234,3.825,12.744,12.744,0,0,0,3.486.243l3.887-.038c5.183-.056,10.366-.036,15.549-.037,10.366.066,20.731.155,31.1.613C118.71,112.723,129.076,113.162,139.441,113.153Z" transform="translate(-45.084 -81.957)"/><text class="cls-3" transform="translate(41.929 11.832)">GPI<tspan x="-37.998" y="14.4">TRANSAMIDASE</tspan></text></g></svg>