<svg id="Layer_1" data-name="Layer 1" xmlns="http://www.w3.org/2000/svg" xmlns:xlink="http://www.w3.org/1999/xlink" viewBox="0 0 73.338 34.153"><defs><style>.cls-1{opacity:0.7;}.cls-2{fill:url(#linear-gradient);}.cls-3{fill:#690042;}.cls-4{opacity:0.3;}.cls-5{fill:url(#linear-gradient-2);}.cls-6{opacity:0.5;}.cls-7{fill:url(#linear-gradient-3);}.cls-8{opacity:0.8;}.cls-9{fill:url(#linear-gradient-4);}.cls-10{opacity:0.2;}.cls-11{fill:url(#linear-gradient-5);}.cls-12{opacity:0.6;}.cls-13{fill:url(#linear-gradient-6);}.cls-14{opacity:0.4;}.cls-15{fill:url(#linear-gradient-7);}</style><linearGradient id="linear-gradient" x1="71.307" y1="110.621" x2="71.307" y2="91.902" gradientUnits="userSpaceOnUse"><stop offset="0" stop-color="#690042"/><stop offset="1" stop-color="#6bcdff"/></linearGradient><linearGradient id="linear-gradient-2" x1="46.587" y1="192.567" x2="46.587" y2="173.847" gradientTransform="translate(154.026 -81.205) rotate(21.658)" xlink:href="#linear-gradient"/><linearGradient id="linear-gradient-3" x1="120.61" y1="103.621" x2="120.61" y2="83.621" xlink:href="#linear-gradient"/><linearGradient id="linear-gradient-4" x1="-0.538" y1="221.921" x2="-0.538" y2="210.836" gradientTransform="translate(144.726 -163.525) rotate(28.702)" xlink:href="#linear-gradient"/><linearGradient id="linear-gradient-5" x1="148.794" y1="74.82" x2="148.794" y2="63.086" gradientTransform="translate(-116.618 -34.396) rotate(-9.368)" xlink:href="#linear-gradient"/><linearGradient id="linear-gradient-6" x1="41.517" y1="145.211" x2="41.517" y2="130.914" gradientTransform="translate(5.398 -119.851) rotate(10.273)" xlink:href="#linear-gradient"/><linearGradient id="linear-gradient-7" x1="83.77" y1="94.885" x2="83.77" y2="83.621" xlink:href="#linear-gradient"/></defs><title>Dissolved_protein</title><g id="dissolved_CTNNB1"><g class="cls-1"><path class="cls-2" d="M77.907,110.621h-3.2a10.029,10.029,0,0,1-10-10h0A10.024,10.024,0,0,1,69.826,91.9Z" transform="translate(-63.298 -82.07)"/><path class="cls-3" d="M78.033,110.7l-1.749.419a14.6,14.6,0,0,1-2.1.33,9.718,9.718,0,0,1-4.052-.515,10.188,10.188,0,0,1-6.022-5.639,10.87,10.87,0,0,1-.807-4.148,9.678,9.678,0,0,1,.817-4.07A12.556,12.556,0,0,1,69.6,91.5l.459-.258.188.476a32.505,32.505,0,0,0,2.458,4.709,31.056,31.056,0,0,1,2.506,4.95c.646,1.679,1.2,3.348,1.667,4.925C77.355,107.885,77.759,109.393,78.033,110.7Zm-.251-.165c-1.073-1.809-2.017-3.421-2.886-4.96-.885-1.543-1.674-2.994-2.374-4.435a21.757,21.757,0,0,1-1.535-4.409A26.368,26.368,0,0,0,69.4,92.084l.647.218a7.279,7.279,0,0,0-2.487,2.409,9.254,9.254,0,0,0-1.224,3.118A9.352,9.352,0,0,0,67.026,104a10.255,10.255,0,0,0,7.237,5.739c.6.136,1,.21,1.581.379A15.642,15.642,0,0,0,77.782,110.539Z" transform="translate(-63.298 -82.07)"/></g><g class="cls-4"><path class="cls-5" d="M133.05,97.518a10.089,10.089,0,0,1,2.228,6.873,9.915,9.915,0,0,1-.688,3.121h0a10.029,10.029,0,0,1-12.985,5.6Z" transform="translate(-63.298 -82.07)"/><path class="cls-3" d="M133.047,97.368a2.655,2.655,0,0,1,.447.3l.341.305a6.942,6.942,0,0,1,.605.633,8.694,8.694,0,0,1,1.015,1.462,9.532,9.532,0,0,1,1.11,3.469,9.832,9.832,0,0,1-1.924,7.138A10.675,10.675,0,0,1,128.4,114.6a11.921,11.921,0,0,1-6.964-1.038l-.593-.251.385-.473a24.967,24.967,0,0,0,2.725-4.209,31.334,31.334,0,0,1,2.757-4.506c1.054-1.345,2.149-2.615,3.23-3.748A36.527,36.527,0,0,1,133.047,97.368Zm.007.3c-.932,1.784-1.777,3.343-2.609,4.8s-1.639,2.8-2.492,4.05a22.035,22.035,0,0,1-2.965,3.293,21.082,21.082,0,0,0-3,3.59l-.208-.723a8.212,8.212,0,0,0,5.929-.445,9.337,9.337,0,0,0,4.347-3.452,10.5,10.5,0,0,0,1.952-5.167,11.09,11.09,0,0,0-.133-2.955,12.972,12.972,0,0,0-.372-1.514c-.08-.252-.167-.507-.262-.761a3.43,3.43,0,0,1-.134-.365A1.407,1.407,0,0,0,133.054,97.668Z" transform="translate(-63.298 -82.07)"/></g><g class="cls-6"><path class="cls-7" d="M124.708,103.621H111.632l7.08-20h6a9.914,9.914,0,0,1,4.88,1.28Z" transform="translate(-63.298 -82.07)"/><path class="cls-3" d="M124.8,103.74c-1.937.339-4.07.63-6.293.866s-4.542.41-6.874.52l-2.061.1.642-2.1c.516-1.693,1.067-3.373,1.673-5.034s1.268-3.3,1.926-4.945,1.3-3.29,2.045-4.9l2.248-4.831.215-.463.392.034a53.518,53.518,0,0,0,5.548.181,13.9,13.9,0,0,1,2.9.122,11.825,11.825,0,0,1,2.886.809l.558.237-.114.809c-.232,1.653-.5,3.338-.9,4.983s-.893,3.253-1.4,4.833-1.049,3.12-1.616,4.6S125.425,102.449,124.8,103.74Zm-.183-.237c.188-1.83.418-3.524.662-5.17s.523-3.218.824-4.762.63-3.052,1.044-4.527a44.963,44.963,0,0,1,1.541-4.377l.444,1.046a8.311,8.311,0,0,0-2.263-1.209,8.172,8.172,0,0,0-2.607-.419,53.518,53.518,0,0,0-5.548.181l.607-.429-1.292,5.169c-.438,1.72-.981,3.4-1.5,5.1s-1.046,3.381-1.614,5.055-1.2,3.325-1.867,4.966l-1.419-2.007c2.027.11,4.065.272,6.2.52S122.195,103.163,124.616,103.5Z" transform="translate(-63.298 -82.07)"/></g><g class="cls-8"><polygon class="cls-9" points="46.839 26.464 40.303 32.309 32.482 28.027 37.806 18.303 46.839 26.464"/><path class="cls-3" d="M110.288,108.535c-.65.993-1.474,2.156-2.433,3.364a42.583,42.583,0,0,1-3.23,3.625l-.7.7-1.061-.5a35.044,35.044,0,0,1-3.915-2.133c-1.265-.784-2.527-1.573-3.76-2.415l-1.128-.77.638-.9c1.073-1.519,2.328-2.938,3.31-4.507a17.809,17.809,0,0,0,1.312-2.441c.376-.848.661-1.745.956-2.636l.318-.958,1.141.711a20.636,20.636,0,0,1,2.7,1.946,30.577,30.577,0,0,1,2.329,2.327c.731.793,1.377,1.6,1.983,2.373A23.623,23.623,0,0,1,110.288,108.535Zm-.3,0-2.979-1.866c-.9-.587-1.758-1.14-2.533-1.707a23.149,23.149,0,0,1-2.188-1.753,15.609,15.609,0,0,1-1.815-2.135l1.458-.247c-.592.729-1.194,1.453-1.706,2.226a17.808,17.808,0,0,0-1.35,2.421c-.793,1.672-1.313,3.494-2.014,5.216l-.489-1.673c1.374.586,2.719,1.223,4.06,1.867a35.044,35.044,0,0,1,3.906,2.149l-1.761.2a34.92,34.92,0,0,1,3.306-2.22C107.1,110.275,108.459,109.489,109.988,108.534Z" transform="translate(-63.298 -82.07)"/></g><g class="cls-10"><polygon class="cls-11" points="34.019 13.726 32.568 4.931 48.351 2.327 46.163 14.581 34.019 13.726"/><path class="cls-3" d="M97.217,95.908c-.5-1.2-1-2.58-1.476-4.046s-.915-3.035-1.281-4.628l-.291-1.267,1.466-.372c1.3-.329,2.6-.594,3.916-.832s2.638-.39,3.962-.549,2.652-.305,3.984-.42,2.679-.139,4.022-.188l1.235-.045-.314.979a32.906,32.906,0,0,0-1.4,6.072c-.252,2.063-.135,4.191-.329,6.264l-.1,1.033-1.242.01a38.561,38.561,0,0,1-6.439-.628A39.465,39.465,0,0,1,97.217,95.908Zm.2-.222c2.392-.291,4.444-.438,6.427-.527a30.367,30.367,0,0,1,5.7.227l-1.339,1.043c.535-2.012,1.382-3.968,1.86-5.99a32.906,32.906,0,0,0,.788-6.182l.921.933c-1.288.385-2.571.8-3.869,1.114s-2.6.592-3.908.881-2.61.561-3.929.753-2.642.365-3.976.47l1.175-1.639c.118,1.338.163,2.7.17,4.167S97.44,93.955,97.419,95.686Z" transform="translate(-63.298 -82.07)"/></g><g class="cls-12"><polygon class="cls-13" points="29.582 17.58 27.033 31.648 17.383 29.899 15.23 20.63 29.582 17.58"/><path class="cls-3" d="M92.985,99.542A72.443,72.443,0,0,1,91.9,114l-.337,1.615-1.52-.329c-1.6-.346-3.191-.725-4.782-1.111-.795-.2-1.588-.4-2.375-.642l-2.355-.754-.618-.2-.04-.429c-.074-.8-.16-1.591-.273-2.379s-.268-1.566-.439-2.34a27.267,27.267,0,0,0-1.506-4.535l-.293-.709.977-.367a31.419,31.419,0,0,1,3.8-1.218,39.061,39.061,0,0,1,3.911-.648c1.289-.164,2.526-.242,3.7-.32C90.922,99.58,92.027,99.535,92.985,99.542Zm-.209.215-3.947,1.426c-1.216.43-2.371.861-3.474,1.205a29.558,29.558,0,0,1-3.265.877,24.757,24.757,0,0,1-3.376.307L79.4,102.5a27.267,27.267,0,0,0,.647,4.734c.187.771.4,1.536.637,2.294s.519,1.508.8,2.255l-.658-.626,2.47.121c.821.051,1.636.14,2.45.232,1.625.2,3.25.4,4.868.638l-1.856,1.287C89.391,109.18,91.08,105.3,92.776,99.757Z" transform="translate(-63.298 -82.07)"/></g><g class="cls-14"><path class="cls-15" d="M79.136,94.885,74.826,84.9a9.914,9.914,0,0,1,4.881-1.28H92.715v5.7Z" transform="translate(-63.298 -82.07)"/><path class="cls-3" d="M79.079,95.024A65.587,65.587,0,0,1,73.4,85.516l-.578-1.2,1.24-.768a9.87,9.87,0,0,1,4.978-1.478c.218-.005.436,0,.654,0l.567.024,1.132.055,2.264.127c3.018.144,6.037.86,9.055.873l.482,0-.019.462a28.4,28.4,0,0,0,.479,5.7l.078.477-.663.4a29.365,29.365,0,0,1-3.483,1.827c-1.211.519-2.447.936-3.662,1.333s-2.417.714-3.573,1.007S80.089,94.883,79.079,95.024Zm.113-.278c1.253-.786,2.4-1.474,3.515-2.121s2.172-1.244,3.217-1.773S88,89.813,89.052,89.4a23.611,23.611,0,0,1,3.306-.953l-.585.872a28.4,28.4,0,0,0,.479-5.7l.464.464c-3.018.013-6.037.729-9.055.873l-4.437.246a10.879,10.879,0,0,0-3.635,1.049l.662-1.966A106.738,106.738,0,0,1,79.193,94.746Z" transform="translate(-63.298 -82.07)"/></g></g></svg>