<svg id="Layer_1" data-name="Layer 1" xmlns="http://www.w3.org/2000/svg" xmlns:xlink="http://www.w3.org/1999/xlink" viewBox="0 0 36.532 38.95"><defs><style>.cls-1{fill:#70aee0;}.cls-2{isolation:isolate;}.cls-3{fill:url(#radial-gradient);}.cls-4{fill:#5656a5;}.cls-5{fill:#69b2ed;opacity:0.6;}</style><radialGradient id="radial-gradient" cx="99.373" cy="829.897" r="7.398" gradientTransform="translate(-81.734 -818.415)" gradientUnits="userSpaceOnUse"><stop offset="0" stop-color="#afbaf7"/><stop offset="0.311" stop-color="#6d96ce"/><stop offset="0.803" stop-color="#285fcc"/></radialGradient></defs><title>R-ICO-013928</title><g id="R-ICO-013928"><path id="BG" class="cls-1" d="M92.458,82.346c12.086-3.654,22.772-2.263,24.894,8.345s1.414,28.158-11.6,28.719S82.84,117.1,81.85,104.46,86.376,84.185,92.458,82.346Z" transform="translate(-81.734 -80.525)"/><g id="Nucleus"><g id="NUCLEUS-2" data-name="NUCLEUS" class="cls-2"><circle class="cls-3" cx="19.103" cy="13.826" r="5.628"/><path class="cls-4" d="M100.836,100.186a5.836,5.836,0,1,1,5.836-5.835A5.842,5.842,0,0,1,100.836,100.186Zm0-11.257a5.422,5.422,0,1,0,5.422,5.422A5.427,5.427,0,0,0,100.836,88.929Z" transform="translate(-81.734 -80.525)"/></g></g><path id="FG" class="cls-5" d="M92.458,82.346c12.086-3.654,22.772-2.263,24.894,8.345s1.414,28.158-11.6,28.719S82.84,117.1,81.85,104.46,86.376,84.185,92.458,82.346Z" transform="translate(-81.734 -80.525)"/></g></svg>