<svg id="Layer_1" data-name="Layer 1" xmlns="http://www.w3.org/2000/svg" xmlns:xlink="http://www.w3.org/1999/xlink" viewBox="0 0 79.41 32.942"><defs><style>.cls-1{fill:url(#linear-gradient);}.cls-2{fill:#00493b;}.cls-3{font-size:12px;fill:#fff;font-family:Arial-BoldMT, Arial;font-weight:700;}</style><linearGradient id="linear-gradient" x1="39.92" y1="31.342" x2="39.92" y2="1.342" gradientUnits="userSpaceOnUse"><stop offset="0" stop-color="#c5d11c"/><stop offset="1" stop-color="#00493b"/></linearGradient></defs><title>SIN3_corepressor</title><g id="SIN3_corepressor"><rect class="cls-1" x="1.42" y="1.342" width="77" height="30" rx="10" ry="10"/><path class="cls-2" d="M126.642,113.15c-8.2-.009-16.4.43-24.6.837-8.2.458-16.4.546-24.6.613H71.3l-1.537,0A12.757,12.757,0,0,1,68,114.466a10.629,10.629,0,0,1-3.383-1.069,11.636,11.636,0,0,1-5.018-4.836,12.181,12.181,0,0,1-1.185-3.31,16.477,16.477,0,0,1-.188-3.348l.088-6.149c.03-1.043.027-2.01.084-3.115a10.74,10.74,0,0,1,.7-3.366,10.985,10.985,0,0,1,10.536-7.095c8.2.261,16.4.449,24.6.335,4.1-.049,8.2-.194,12.3-.349l12.3-.413c2.05-.033,4.1-.094,6.149-.087l1.537-.006a12.473,12.473,0,0,1,1.722.12,10.247,10.247,0,0,1,3.311,1.044,10.94,10.94,0,0,1,4.865,4.761,11.071,11.071,0,0,1,1.084,3.238,15.786,15.786,0,0,1,.078,3.276l-.285,6.149c-.057,1.032-.083,2.034-.165,3.09a10.018,10.018,0,0,1-.714,3.12A10.6,10.6,0,0,1,126.642,113.15Zm0-.3a10.776,10.776,0,0,0,2.974-.488,9.682,9.682,0,0,0,2.669-1.378,9.528,9.528,0,0,0,2.09-2.136,8.468,8.468,0,0,0,1.319-2.65,9.009,9.009,0,0,0,.423-2.894c-.017-.991-.09-2.04-.133-3.058L135.7,94.1a13.781,13.781,0,0,0-.317-2.849,10.529,10.529,0,0,0-1.042-2.506,9.083,9.083,0,0,0-1.724-2.063A8.323,8.323,0,0,0,130.4,85.2a8.45,8.45,0,0,0-2.54-.749,9.661,9.661,0,0,0-1.34-.1l-1.537-.006c-2.05.006-4.1-.055-6.149-.087l-12.3-.413c-4.1-.155-8.2-.3-12.3-.349-8.2-.114-16.4.074-24.6.335a10.06,10.06,0,0,0-2.745.531,9.417,9.417,0,0,0-2.424,1.331,8.762,8.762,0,0,0-1.894,1.977,8.739,8.739,0,0,0-1.664,5.059c-.009.944.036,2.027.051,3.034l.088,6.149a13.7,13.7,0,0,0,.207,2.776,9.265,9.265,0,0,0,.942,2.434,8.586,8.586,0,0,0,3.786,3.472,8.048,8.048,0,0,0,2.468.724,9.425,9.425,0,0,0,1.305.094l1.537,0h6.149c8.2.066,16.4.155,24.6.613C110.244,112.42,118.443,112.859,126.642,112.85Z" transform="translate(-58.222 -81.658)"/><text class="cls-3" transform="translate(25.989 11.827)">SIN3<tspan x="-21.346" y="14.4">corepressor</tspan></text></g></svg>