<svg id="Layer_1" data-name="Layer 1" xmlns="http://www.w3.org/2000/svg" xmlns:xlink="http://www.w3.org/1999/xlink" viewBox="0 0 79.968 29.686"><defs><style>.cls-1{fill:url(#radial-gradient);}.cls-2{fill:url(#radial-gradient-2);}.cls-3{fill:url(#radial-gradient-3);}.cls-4{fill:url(#radial-gradient-4);}.cls-5{fill:url(#radial-gradient-5);}.cls-6{fill:url(#radial-gradient-6);}.cls-7{fill:url(#radial-gradient-7);}.cls-8{font-size:12px;fill:#fff;font-family:Arial-BoldMT, Arial;font-weight:700;}</style><radialGradient id="radial-gradient" cx="-100.239" cy="95.425" r="17.715" gradientTransform="translate(194.593) scale(0.609 1)" gradientUnits="userSpaceOnUse"><stop offset="0" stop-color="#8adfff"/><stop offset="0.041" stop-color="#7ed5f5"/><stop offset="0.175" stop-color="#5db8db"/><stop offset="0.285" stop-color="#48a6ca"/><stop offset="0.359" stop-color="#41a0c4"/><stop offset="1" stop-color="#0a3a4d"/></radialGradient><radialGradient id="radial-gradient-2" cx="-118.988" cy="95.425" r="17.715" xlink:href="#radial-gradient"/><radialGradient id="radial-gradient-3" cx="-137.737" cy="95.425" r="17.715" xlink:href="#radial-gradient"/><radialGradient id="radial-gradient-4" cx="-156.485" cy="95.425" r="17.715" xlink:href="#radial-gradient"/><radialGradient id="radial-gradient-5" cx="-175.234" cy="95.425" r="17.715" xlink:href="#radial-gradient"/><radialGradient id="radial-gradient-6" cx="-193.982" cy="95.425" r="17.715" xlink:href="#radial-gradient"/><radialGradient id="radial-gradient-7" cx="-212.731" cy="95.425" r="17.715" xlink:href="#radial-gradient"/></defs><title>LRR</title><g id="LRR"><path class="cls-1" d="M134.669,114.577c-3.155,0-5.712-4.2-5.712-9.374V94.265c0-5.177,2.557-9.374,5.712-9.374s5.712,4.2,5.712,9.374V105.2C140.381,110.379,137.824,114.577,134.669,114.577Z" transform="translate(-60.414 -84.891)"/><path class="cls-2" d="M123.245,114.577c-3.155,0-5.712-4.2-5.712-9.374V94.265c0-5.177,2.557-9.374,5.712-9.374s5.712,4.2,5.712,9.374V105.2C128.957,110.379,126.4,114.577,123.245,114.577Z" transform="translate(-60.414 -84.891)"/><path class="cls-3" d="M111.821,114.577c-3.155,0-5.712-4.2-5.712-9.374V94.265c0-5.177,2.557-9.374,5.712-9.374s5.712,4.2,5.712,9.374V105.2C117.533,110.379,114.976,114.577,111.821,114.577Z" transform="translate(-60.414 -84.891)"/><path class="cls-4" d="M100.4,114.577c-3.155,0-5.712-4.2-5.712-9.374V94.265c0-5.177,2.557-9.374,5.712-9.374s5.712,4.2,5.712,9.374V105.2C106.109,110.379,103.552,114.577,100.4,114.577Z" transform="translate(-60.414 -84.891)"/><path class="cls-5" d="M88.974,114.577c-3.155,0-5.712-4.2-5.712-9.374V94.265c0-5.177,2.557-9.374,5.712-9.374s5.712,4.2,5.712,9.374V105.2C94.686,110.379,92.129,114.577,88.974,114.577Z" transform="translate(-60.414 -84.891)"/><path class="cls-6" d="M77.55,114.577c-3.155,0-5.712-4.2-5.712-9.374V94.265c0-5.177,2.557-9.374,5.712-9.374s5.712,4.2,5.712,9.374V105.2C83.262,110.379,80.7,114.577,77.55,114.577Z" transform="translate(-60.414 -84.891)"/><path class="cls-7" d="M66.126,114.577c-3.155,0-5.712-4.2-5.712-9.374V94.265c0-5.177,2.557-9.374,5.712-9.374s5.712,4.2,5.712,9.374V105.2C71.838,110.379,69.281,114.577,66.126,114.577Z" transform="translate(-60.414 -84.891)"/><text class="cls-8" transform="translate(27.204 18.303)">LRR</text></g></svg>