<svg id="Layer_1" data-name="Layer 1" xmlns="http://www.w3.org/2000/svg" xmlns:xlink="http://www.w3.org/1999/xlink" viewBox="0 0 88.782 22.949"><defs><style>.cls-1{fill:url(#linear-gradient);}.cls-2{fill:#d7411f;}.cls-3{font-size:12px;fill:#fff;font-family:Arial-BoldMT, Arial;font-weight:700;}</style><linearGradient id="linear-gradient" x1="156.364" y1="109.814" x2="156.364" y2="89.814" gradientTransform="translate(-111.608 -88.467)" gradientUnits="userSpaceOnUse"><stop offset="0" stop-color="#d7411f"/><stop offset="1" stop-color="#45abff"/></linearGradient></defs><title>RHO_GTPases</title><g id="RHO_GTPases"><rect class="cls-1" x="1.257" y="1.347" width="87" height="20" rx="10" ry="10"/><path class="cls-2" d="M133.5,110.15c-8.2-.009-16.4.43-24.6.837-8.2.458-16.4.546-24.6.613-4.1,0-8.2.019-12.3-.037l-3.075-.038-1.537-.019c-.5,0-1.015-.007-1.632-.055a11.385,11.385,0,0,1-10.149-8.372,11.174,11.174,0,0,1,.349-6.806A10.985,10.985,0,0,1,66.5,89.179c8.2.261,16.4.449,24.6.335,4.1-.049,8.2-.194,12.3-.349l12.3-.413c4.1-.085,8.2-.131,12.3-.071l3.075.039,1.537.045c.505.013,1.017.025,1.613.08a10.71,10.71,0,0,1,6.151,2.658,10.837,10.837,0,0,1,3.376,5.6A10.612,10.612,0,0,1,133.5,110.15Zm0-.3a10.775,10.775,0,0,0,2.974-.488,9.683,9.683,0,0,0,2.669-1.378,9.529,9.529,0,0,0,2.09-2.136,8.47,8.47,0,0,0,1.319-2.65,9.181,9.181,0,0,0-.072-5.736,9.152,9.152,0,0,0-8.416-6.241l-6.072.1c-4.1.061-8.2.015-12.3-.071l-12.3-.413c-4.1-.155-8.2-.3-12.3-.349-8.2-.114-16.4.074-24.6.335a10.061,10.061,0,0,0-2.745.531,9.417,9.417,0,0,0-2.424,1.331,8.763,8.763,0,0,0-1.894,1.977,8.244,8.244,0,0,0-1.231,2.411,8.787,8.787,0,0,0,2.907,9.6,8.517,8.517,0,0,0,4.842,1.813c.227,0,.417.023.672.02l.769-.01,1.537-.019,3.075-.038c4.1-.056,8.2-.036,12.3-.037,8.2.066,16.4.155,24.6.613C117.1,109.42,125.3,109.859,133.5,109.85Z" transform="translate(-55.243 -88.653)"/><text class="cls-3" transform="translate(4.479 14.66)">RHO GTPases</text></g></svg>