<svg id="Layer_1" data-name="Layer 1" xmlns="http://www.w3.org/2000/svg" xmlns:xlink="http://www.w3.org/1999/xlink" viewBox="0 0 63.675 32.829"><defs><style>.cls-1{fill:url(#linear-gradient);}.cls-2{fill:#092851;}.cls-3{font-size:12px;fill:#fff;font-family:Arial-BoldMT, Arial;font-weight:700;}.cls-4{letter-spacing:-0.018em;}</style><linearGradient id="linear-gradient" x1="31.984" y1="31.239" x2="31.984" y2="1.239" gradientUnits="userSpaceOnUse"><stop offset="0.001" stop-color="#a3c8ff"/><stop offset="1" stop-color="#092754"/></linearGradient></defs><title>TOMM40_complex</title><g id="TOMM40_complex" data-name="TOMM40 complex"><rect class="cls-1" x="1.484" y="1.239" width="61" height="30" rx="10" ry="10"/><path class="cls-2" d="M120.5,115.15c-6.866-.009-13.731.43-20.6.837-6.879.453-13.7.557-20.628.6a11.459,11.459,0,0,1-11.26-11.53l.073-5.157c.036-1.731.026-3.4.1-5.181a11.1,11.1,0,0,1,1.731-5.466,10.924,10.924,0,0,1,9.58-5.077c6.866.261,13.731.449,20.6.335,3.433-.049,6.866-.194,10.3-.349,3.444-.137,6.842-.3,10.322-.4a10.975,10.975,0,0,1,9.586,5.615,10.7,10.7,0,0,1,1.384,5.565c-.04,1.729-.159,3.436-.247,5.155s-.172,3.417-.3,5.165A10.765,10.765,0,0,1,120.5,115.15Zm0-.3a9.766,9.766,0,0,0,4.818-1.339,9.359,9.359,0,0,0,3.413-3.579,9.016,9.016,0,0,0,1.1-4.7l-.272-5.133c-.09-1.714-.2-3.439-.252-5.143a8.9,8.9,0,0,0-.4-2.214,8.256,8.256,0,0,0-.889-2.045,9.136,9.136,0,0,0-7.35-4.436L110.4,85.835c-3.433-.155-6.866-.3-10.3-.349-6.866-.114-13.731.074-20.6.335A9.19,9.19,0,0,0,75.087,87.2a9.371,9.371,0,0,0-3.129,3.284,8.581,8.581,0,0,0-1.123,4.3l.075,5.116.079,5.141a8.6,8.6,0,0,0,8.348,8.346c3.37.074,6.848.058,10.267.165,3.433.069,6.866.252,10.3.457C106.769,114.42,113.634,114.859,120.5,114.85Z" transform="translate(-68.016 -83.761)"/><text class="cls-3" transform="translate(7.091 11.929)"><tspan class="cls-4">T</tspan><tspan x="7.113" y="0">OMM40</tspan><tspan x="0.551" y="14.4">complex</tspan></text></g></svg>