<svg id="Layer_1" data-name="Layer 1" xmlns="http://www.w3.org/2000/svg" xmlns:xlink="http://www.w3.org/1999/xlink" viewBox="0 0 57.462 165.451"><defs><style>.cls-1{fill:url(#linear-gradient);}.cls-2{fill:url(#linear-gradient-2);}</style><linearGradient id="linear-gradient" x1="70.789" y1="100.683" x2="113.869" y2="100.683" gradientUnits="userSpaceOnUse"><stop offset="0" stop-color="#0f82bc"/><stop offset="0.107" stop-color="#1582bb"/><stop offset="0.246" stop-color="#2581b8"/><stop offset="0.401" stop-color="#3f80b2"/><stop offset="0.569" stop-color="#647fab"/><stop offset="0.747" stop-color="#947da1"/><stop offset="0.93" stop-color="#cd7b96"/><stop offset="1" stop-color="#e57a91"/></linearGradient><linearGradient id="linear-gradient-2" x1="106.711" y1="17.957" x2="106.711" y2="183.408" gradientUnits="userSpaceOnUse"><stop offset="0" stop-color="#0f82bc"/><stop offset="1" stop-color="#e57a91"/></linearGradient></defs><title>NCAM_cis</title><path class="cls-1" d="M108.873,183.408a5,5,0,0,1-4.418-2.652l-16.54-31.088a5,5,0,0,1-.586-2.349V117.48L71.375,87.493a5,5,0,0,1-.586-2.349V22.957a5,5,0,0,1,10,0V83.9l15.954,29.986a5,5,0,0,1,.586,2.349v29.84l15.954,29.986a5,5,0,0,1-4.41,7.35Z" transform="translate(-70.789 -17.957)"/><path class="cls-2" d="M90.168,183.408a5,5,0,0,1-4.41-7.35l15.954-29.986v-29.84a5,5,0,0,1,.586-2.349L118.251,83.9V22.957a5,5,0,1,1,10,0V85.145a5,5,0,0,1-.586,2.349l-15.953,29.986v29.84a5,5,0,0,1-.586,2.349l-16.54,31.088A5,5,0,0,1,90.168,183.408Z" transform="translate(-70.789 -17.957)"/></svg>