<svg id="Layer_1" data-name="Layer 1" xmlns="http://www.w3.org/2000/svg" xmlns:xlink="http://www.w3.org/1999/xlink" viewBox="0 0 76.928 22.949"><defs><style>.cls-1{fill:url(#linear-gradient);}.cls-2{fill:#86376b;}.cls-3{font-size:12px;fill:#fff;font-family:Arial-BoldMT, Arial;font-weight:700;}.cls-4{letter-spacing:-0.074em;}</style><linearGradient id="linear-gradient" x1="38.797" y1="21.347" x2="38.797" y2="1.347" gradientUnits="userSpaceOnUse"><stop offset="0.001" stop-color="#ffe000"/><stop offset="1" stop-color="#86376b"/></linearGradient></defs><title>CASPASE10</title><g id="CASPASE10"><rect class="cls-1" x="1.297" y="1.347" width="75" height="20" rx="10" ry="10"/><path class="cls-2" d="M127.5,110.15c-7.2-.009-14.4.43-21.6.837-7.2.458-14.4.546-21.6.613-3.6,0-7.2.019-10.8-.037-.472-.014-.849.005-1.4-.037l-.777-.051-.769-.126a10.838,10.838,0,0,1-2.942-.97,11.623,11.623,0,0,1-4.583-4.027,11.2,11.2,0,0,1-.4-11.616A10.994,10.994,0,0,1,72.5,89.179c7.2.261,14.4.449,21.6.335,3.6-.049,7.2-.194,10.8-.349l10.8-.413c3.6-.085,7.2-.131,10.8-.071.469.014.857,0,1.394.038l.761.05.753.124a10.536,10.536,0,0,1,2.857,1A10.7,10.7,0,0,1,127.5,110.15Zm0-.3a9.672,9.672,0,0,0,5.027-1.467,9.489,9.489,0,0,0,3.449-3.865,9.289,9.289,0,0,0-.961-9.556,9.571,9.571,0,0,0-3.779-2.921,8.128,8.128,0,0,0-2.271-.625l-.582-.081-.587-.019c-.362-.026-.874,0-1.3,0-3.6.061-7.2.015-10.8-.071l-10.8-.413c-3.6-.155-7.2-.3-10.8-.349-7.2-.114-14.4.074-21.6.335a9.076,9.076,0,0,0-4.6,1.5,9.44,9.44,0,0,0-3.163,3.545,8.84,8.84,0,0,0,.64,8.912,8.724,8.724,0,0,0,3.516,2.916,7.834,7.834,0,0,0,2.185.652l.565.079.571.018c.345.026.869,0,1.3,0,3.6-.056,7.2-.036,10.8-.037,7.2.066,14.4.155,21.6.613C113.1,109.42,120.3,109.859,127.5,109.85Z" transform="translate(-61.203 -88.653)"/><text class="cls-3" transform="translate(3.562 14.239)">CAS<tspan class="cls-4" x="25.336" y="0">P</tspan><tspan x="32.449" y="0">ASE10</tspan></text></g></svg>