<svg id="Layer_1" data-name="Layer 1" xmlns="http://www.w3.org/2000/svg" xmlns:xlink="http://www.w3.org/1999/xlink" viewBox="0 0 123.144 146.644"><defs><style>.cls-1{fill:url(#linear-gradient);}.cls-2{fill:#d39d26;}</style><linearGradient id="linear-gradient" x1="988.903" y1="-97.841" x2="1216.13" y2="-286.296" gradientTransform="matrix(0.917, -0.373, -0.377, -0.926, -923.9, 353.287)" gradientUnits="userSpaceOnUse"><stop offset="0" stop-color="#4c6100"/><stop offset="1" stop-color="#ff8600"/></linearGradient></defs><title>ER</title><g id="ER"><path class="cls-1" d="M160.349,115.935a6.8,6.8,0,0,0-7.639-5.955c-9.625,1.283-11.6-32.568-11.653-36.274S140.842,64.373,140,55s-3.472-14.616-8.675-14.11c-16.279,1.582-3.218,33.712-13.484,35.675S116.052,23.378,104.8,25.087s2.332,89.078-5.244,92.232S98.97,64.8,86.5,66.823s4.686,46.42-8.678,48.587S69.113,16.663,62.1,18.309s2.4,72.257-4.708,73.5S51.113,26.783,42.65,29.88c-5.848,2.14-1.12,34.257-1.059,44.3s2.621,31.382,2.8,35.7c.642,15.592-1.4,27.194-1.276,35.87.114,8.229,1.9,16.005,9.408,16.862,13.8,1.575,5.287-57.407,11.924-56.737s2.415,37.349,13.528,41.275,2.158-33.4,10.295-34.2,1,44.39,11.9,48.367,1.111-80.631,9.08-81.023-1.924,33.995,8.94,31.444c14.307-3.36.645-33.936,8.211-32.043s2.926,46.057,14.784,62.093c5.74,7.762,12.77.111,16.794-9.842S160.7,118.87,160.349,115.935Z" transform="translate(-38.506 -17.141)"/><path class="cls-2" d="M161.359,117.865l-.494-2.564a7.809,7.809,0,0,0-.944-2.157,7.724,7.724,0,0,0-1.95-2.282,6.992,6.992,0,0,0-5.327-1.378,3.625,3.625,0,0,1-2.955-.994,8.208,8.208,0,0,1-1.291-1.466,13.743,13.743,0,0,1-.744-1.429,35.979,35.979,0,0,1-2.2-6.857c-.528-2.363-1-4.748-1.348-7.159-.375-2.406-.708-4.823-.965-7.251-.3-2.423-.531-4.857-.732-7.29-.109-1.215-.212-2.434-.261-3.627-.043-1.236-.117-2.472-.212-3.707q-.319-4.458-.96-8.876c-.128-1.783-.284-3.729-.477-5.874-.107-1.191-.243-2.3-.4-3.34a21.54,21.54,0,0,0-.765-5.2,11.934,11.934,0,0,0-1.979-4.137,5.47,5.47,0,0,0-.834-.91,6.752,6.752,0,0,0-1.006-.779,8.051,8.051,0,0,0-1.165-.572,7.106,7.106,0,0,0-1.255-.314,9.5,9.5,0,0,0-4.749.674,8.235,8.235,0,0,0-3.7,2.957,11.541,11.541,0,0,0-1.867,5.124,41.49,41.49,0,0,0-.938,9.413c-.251,3.194-.3,6.4-.551,9.511a32.2,32.2,0,0,1-.525,3.721,7.7,7.7,0,0,1-1.276,3.114,3.243,3.243,0,0,1-1.06.9,2.592,2.592,0,0,1-1.218.266,1.409,1.409,0,0,1-.887-.518,5.731,5.731,0,0,1-.794-1.336,28.458,28.458,0,0,1-1.671-7.232c-.37-2.537-.57-5.119-.83-7.7-.283-3.122-.557-6.261-.907-9.4-.166-3.746-.354-7.365-.664-10.629a43.122,43.122,0,0,0-.53-6.872,18.268,18.268,0,0,0-.658-2.856A10.906,10.906,0,0,0,108.974,26a4.5,4.5,0,0,0-2.979-2.091,3.322,3.322,0,0,0-.974-.052,3.036,3.036,0,0,0-1.024.171,4.047,4.047,0,0,0-1.66,1.135,8.672,8.672,0,0,0-1.53,2.885,19.5,19.5,0,0,0-.728,2.88,41.722,41.722,0,0,0-.549,5.712,65.825,65.825,0,0,0,.136,6.771c-.088,4.33-.019,9.318.153,14.889-.045,5.814.09,11.629.249,17.432L100.5,89.6c.141,4.617.287,9.233.242,13.826-.01,2.294-.051,4.587-.228,6.841a31.512,31.512,0,0,1-.414,3.31,11.537,11.537,0,0,1-.385,1.518,3.458,3.458,0,0,1-.532,1.068.316.316,0,0,1-.242.1,1.679,1.679,0,0,1-.558-.753,13.055,13.055,0,0,1-.893-3.045c-.418-2.2-.665-4.485-.9-6.769-.529-5.632-.851-11.337-1.467-17.01a86.6,86.6,0,0,0-2-14.809c-.067-.414-.141-.828-.226-1.242a11.816,11.816,0,0,0-2.323-5.273,4.663,4.663,0,0,0-2.917-1.638,5.505,5.505,0,0,0-3.315.641,5.94,5.94,0,0,0-2.283,2.393A11.418,11.418,0,0,0,81,71.591a35.43,35.43,0,0,0-.166,11.122c.244,2.193.585,4.361.994,6.519q.058.636.116,1.274c.351,3.841.7,7.723.785,11.232-.022.813-.054,1.624-.109,2.432a29.141,29.141,0,0,1-.715,5.189,7.617,7.617,0,0,1-2.236,4.146,3.96,3.96,0,0,1-1.942.853,1.714,1.714,0,0,1-1.532-.587,6.561,6.561,0,0,1-1.279-1.89,10.256,10.256,0,0,1-.5-1.144c-.164-.386-.3-.792-.434-1.2a63.681,63.681,0,0,1-2.267-10.282c-.575-3.5-.986-7.052-1.376-10.6-.419-3.549-.727-7.114-1.1-10.678-.417-4.336-.823-8.679-1.272-13.022-.177-3.264-.342-6.5-.5-9.63-.083-1.643-.165-3.232-.246-4.779q.078-4.6-.033-9.192c-.117-5.068-.387-10.127-1.007-15.213-.174-1.271-.374-2.542-.644-3.824-.141-.643-.285-1.284-.488-1.94a7.744,7.744,0,0,0-.875-2.042,4.488,4.488,0,0,0-.452-.566,2.237,2.237,0,0,0-.87-.53,1.873,1.873,0,0,0-1.161,0,2.347,2.347,0,0,0-.781.43,3.4,3.4,0,0,0-.853,1.083,6.793,6.793,0,0,0-.442,1.043,17.566,17.566,0,0,0-.72,3.948,67.262,67.262,0,0,0-.034,9.588c-.044,4.345.056,9.525.227,15.451-.062,4.97-.035,9.939-.011,14.9,0,4.1.057,8.2-.035,12.288A73.339,73.339,0,0,1,58.148,88a7.321,7.321,0,0,1-.821,2.412.809.809,0,0,1-.133.155,1.81,1.81,0,0,1-.343-.361,10.1,10.1,0,0,1-1.082-2.475c-.288-.933-.538-1.9-.764-2.876-.916-3.922-1.462-7.992-2.08-12.038-.7-4.882-1.363-9.785-2.112-14.679-.711-6.473-1.441-12.6-2.347-17.531-.082-.631-.164-1.262-.26-1.893a43.671,43.671,0,0,0-1.027-4.844,15.708,15.708,0,0,0-.874-2.41,5.274,5.274,0,0,0-1.832-2.3,2.531,2.531,0,0,0-1.9-.3,3.259,3.259,0,0,0-1.52.911A6.6,6.6,0,0,0,39.668,32.3a23.513,23.513,0,0,0-.938,5.023,85.185,85.185,0,0,0-.156,9.869c.273,6.532.916,13.006,1.619,19.449l.483,4.824c.17,1.6.217,3.2.344,4.841.051.589.126,1.173.185,1.761.277,5.962,1.007,13.788,1.643,20.333q.108,1.686.218,3.372c.174,2.618.393,5.26.492,7.841.031,2.6.063,5.225-.025,7.835-.152,5.227-.505,10.443-.965,15.678a107.678,107.678,0,0,0-.556,15.938A26.044,26.044,0,0,0,43.8,157.12a12.9,12.9,0,0,0,2.34,3.666,9.707,9.707,0,0,0,3.749,2.414c.355.109.708.229,1.065.323l1.081.184a5.9,5.9,0,0,0,2.426-.112,6.57,6.57,0,0,0,3.579-2.979,22.55,22.55,0,0,0,2.557-7.832,102.545,102.545,0,0,0,1.115-15.856c0-.946-.017-1.89-.022-2.836.068-2.437.113-4.885.156-7.279.065-3.57.129-7.064.273-10.13.317-2.31.631-4.6,1.1-6.8a11.184,11.184,0,0,1,.8-2.432c.156-.321.407-.514.355-.442-.143.022.139.05.28.191a4.394,4.394,0,0,1,1.072,1.834,19.162,19.162,0,0,1,.7,2.59c.412,1.793.685,3.664.963,5.536.309,1.871.54,3.764.871,5.65.366,2.254.788,4.516,1.32,6.753a63.448,63.448,0,0,0,1.958,9.46c.085.384.169.768.27,1.15a15.106,15.106,0,0,0,2.78,5.8,7.354,7.354,0,0,0,2.8,2.116,5.99,5.99,0,0,0,1.819.467,4.207,4.207,0,0,0,2.07-.335,5.508,5.508,0,0,0,2.518-2.891,15.337,15.337,0,0,0,.947-3.2,64.073,64.073,0,0,0,.508-12.445l-.2-6.118c-.019-.5-.018-1.006-.028-1.509.222-3.3.675-6.067,1.674-7.518a2.777,2.777,0,0,1,.632-.551,1.588,1.588,0,0,1,1.454-.182,2.222,2.222,0,0,1,.953,1.148,15.584,15.584,0,0,1,.981,3.935c.214,1.4.374,2.838.489,4.284.157,1.443.269,2.9.394,4.357.159,1.457.256,2.922.445,4.385.2,1.771.437,3.545.746,5.314.188,3.407.425,6.823.816,9.987.036.6.075,1.195.125,1.792a31.54,31.54,0,0,0,1.713,8.3,9.923,9.923,0,0,0,2.428,3.865,11.76,11.76,0,0,0,1,.749l.573.292a3.336,3.336,0,0,0,1.449.369,2.211,2.211,0,0,0,.848-.12,2.308,2.308,0,0,0,.754-.348,2.634,2.634,0,0,0,.592-.473,6.266,6.266,0,0,0,1.352-2.12,16.24,16.24,0,0,0,.718-2.121,37.362,37.362,0,0,0,.829-4.2,116.118,116.118,0,0,0,.738-16.676q-.078-5.014-.4-10.013c0-2.907-.02-5.88-.036-8.88-.007-1.235-.014-2.495-.02-3.765.195-3.093.338-6.184.466-9.27l.331-7.649c.119-2.542.232-5.083.479-7.591.106-1.254.232-2.5.423-3.721a16.082,16.082,0,0,1,.853-3.409,2.075,2.075,0,0,1,.5-.787c0,.006-.006,0-.009-.01s.079,0,.115,0a.936.936,0,0,1,.246.018.912.912,0,0,1,.416.19,5.162,5.162,0,0,1,1.264,2.768,51.2,51.2,0,0,1,.749,7.48c.033.564.062,1.129.092,1.694q-.011.675-.023,1.35c-.048,2.69-.095,5.412.025,7.883a20.778,20.778,0,0,0,.19,5.24c.078.366.159.733.253,1.1a8.587,8.587,0,0,0,.424,1.1,5.378,5.378,0,0,0,1.607,2.061,4.534,4.534,0,0,0,2.7.778,9.2,9.2,0,0,0,1.264-.193l1.13-.338a8.226,8.226,0,0,0,3.8-2.862,10.739,10.739,0,0,0,1.777-4.194,18.147,18.147,0,0,0,.227-5.334,64.136,64.136,0,0,0-.421-8.428c-.072-2.741-.259-5.464-.222-8.094a6.78,6.78,0,0,1,.5-2.722c.193-.212.137-.176.4-.176a1.236,1.236,0,0,1,.784.369,6.275,6.275,0,0,1,1.3,2.372,24.267,24.267,0,0,1,.8,3.081c.461,2.118.77,4.308,1.069,6.5l.9,6.618c.363,2.673.761,5.351,1.239,8.019.427,4.285.937,8.727,1.64,13.032a71.021,71.021,0,0,0,2.453,12.614,30.444,30.444,0,0,0,4.583,9.564,9.612,9.612,0,0,0,2.067,2.026,6.625,6.625,0,0,0,2.877,1.185,6.5,6.5,0,0,0,3.112-.36,9.732,9.732,0,0,0,2.557-1.436,18.807,18.807,0,0,0,3.7-4.038,33.165,33.165,0,0,0,2.679-4.589,48.367,48.367,0,0,0,2-4.855,41.355,41.355,0,0,0,1.484-5.037,22.359,22.359,0,0,0,.589-5.3A18.47,18.47,0,0,0,161.359,117.865ZM132.6,99.519a95.9,95.9,0,0,0-1.461-13.451,26.613,26.613,0,0,0-.945-3.385,12.4,12.4,0,0,0-.765-1.7,5.445,5.445,0,0,0-1.3-1.64,3.589,3.589,0,0,0-2.257-.852,2.635,2.635,0,0,0-1.385.338,2.711,2.711,0,0,0-.979,1.019,5.247,5.247,0,0,0-.54,2.023,13.508,13.508,0,0,0-.01,1.8,58.715,58.715,0,0,0,.909,6.733c.094.511.178,1.025.27,1.536a65.176,65.176,0,0,1,.432,8.091A29.482,29.482,0,0,1,123.443,105a7.845,7.845,0,0,1-4.573,5.23l-.853.267c-.279.076-.522.089-.779.141a2.34,2.34,0,0,1-1.245-.264,5.289,5.289,0,0,1-1.73-2.793,36.893,36.893,0,0,1-1.069-4.787c-.123-2.488-.077-5.234-.031-7.845q.013-.742.025-1.475c.044-.526.094-1.049.134-1.576a39.978,39.978,0,0,0-.057-7.836,11.249,11.249,0,0,0-.468-2.056,4.742,4.742,0,0,0-1.325-2.057,3.206,3.206,0,0,0-1.98-.772,2.608,2.608,0,0,0-.363,0,4.414,4.414,0,0,0-.478.09,2.687,2.687,0,0,0-.8.4,4.153,4.153,0,0,0-.532.525,5.893,5.893,0,0,0-.659,1.055,16.635,16.635,0,0,0-1.111,3.994c-.224,1.307-.378,2.6-.5,3.9a139.485,139.485,0,0,0-.264,15.449q.14,4.654.478,9.3c.005,1.226.011,2.475.018,3.755.016,2.9.033,5.86.035,8.8-.209,3.355-.375,6.706-.545,10.051-.166,2.749-.267,5.5-.478,8.23-.189,2.731-.388,5.463-.784,8.134a35.018,35.018,0,0,1-.715,3.928,13.9,13.9,0,0,1-.58,1.805,4.653,4.653,0,0,1-.8,1.384c-.314.3-.418.352-.756.3a.8.8,0,0,1-.312-.112L99.99,160c-.232-.128-.443-.311-.674-.457a8.83,8.83,0,0,1-2.092-3,36.034,36.034,0,0,1-2.292-7.718c-.13-.62-.25-1.242-.367-1.867-.369-3.084-.6-6.424-.783-9.761q.172-2.7.2-5.385a86.4,86.4,0,0,0-.3-8.881c-.168-1.484-.34-2.975-.654-4.47A14.174,14.174,0,0,0,91.422,114a4.688,4.688,0,0,0-.864-1.048,2.843,2.843,0,0,0-1.339-.716,2.992,2.992,0,0,0-2.675.809,4.164,4.164,0,0,0-.666.924c-1.148,1.695-1.643,4.662-1.874,8.206q-.1.666-.187,1.332c-.241,2.05-.4,4.1-.52,6.146-.148,2.042-.2,4.078-.361,6.094a48.088,48.088,0,0,1-.653,5.923,12.989,12.989,0,0,1-.731,2.688,3.479,3.479,0,0,1-1.306,1.734,2.628,2.628,0,0,1-2.062-.04,6.109,6.109,0,0,1-2.164-1.4,11.071,11.071,0,0,1-1.713-2.249,20.409,20.409,0,0,1-1.347-2.643c-.165-.365-.316-.738-.467-1.111a62.676,62.676,0,0,1-1.894-9.068c-.122-2.335-.247-4.666-.4-7a84.648,84.648,0,0,0-1.332-11.5,21.485,21.485,0,0,0-.857-2.918,8.985,8.985,0,0,0-.712-1.482,4.253,4.253,0,0,0-1.286-1.422,2.142,2.142,0,0,0-.49-.273,2.075,2.075,0,0,0-.552-.185,2.294,2.294,0,0,0-1.368.062,2.38,2.38,0,0,0-1.03.774,3.952,3.952,0,0,0-.51.839,10.521,10.521,0,0,0-.759,3.061,44.518,44.518,0,0,0-.186,7.2c-.132,2.859-.2,6.219-.274,10.058-.039,2.135-.079,4.353-.139,6.59-.069,1.167-.141,2.333-.223,3.5-.171,2.619-.371,5.233-.655,7.83a77.613,77.613,0,0,1-1.149,7.7,31.377,31.377,0,0,1-.982,3.7,14.608,14.608,0,0,1-1.507,3.327,4.386,4.386,0,0,1-2.34,1.96,3.606,3.606,0,0,1-1.482.009l-.86-.163-.815-.271a7.649,7.649,0,0,1-2.8-1.845,10.5,10.5,0,0,1-1.849-2.97,23.831,23.831,0,0,1-1.539-7.293c-.409-5.1.091-10.319.419-15.57s.632-10.542.554-15.834c-.018-2.649-.115-5.284-.289-7.938-.242-2.667-.584-5.256-.905-7.874l-.433-3.3c-.613-6.312-1.317-13.827-1.614-19.691,0-.8,0-1.6.013-2.4.02-1.6.1-3.245.066-4.888-.019-1.636-.1-3.263-.175-4.888-.309-6.5-.842-12.952-1.067-19.392a91.157,91.157,0,0,1,.012-9.588,21.463,21.463,0,0,1,.669-4.557,4.9,4.9,0,0,1,.824-1.757,1.3,1.3,0,0,1,.495-.385.515.515,0,0,1,.441.03,3.623,3.623,0,0,1,1.19,1.428,17.9,17.9,0,0,1,.929,2.106,44.687,44.687,0,0,1,1.381,4.583c.176.677.341,1.359.5,2.042.887,4.92,1.613,10.988,2.279,17.021.337,5.01.7,10.018,1.194,15.028a124.155,124.155,0,0,0,1.7,12.31c.2,1.029.469,2.056.773,3.089a12.146,12.146,0,0,0,1.38,3.151c.1.136.217.276.328.411a2.076,2.076,0,0,0,.41.405,2.63,2.63,0,0,0,1.276.606,3.48,3.48,0,0,0,.81-.015,2.428,2.428,0,0,0,.736-.283,3.164,3.164,0,0,0,.928-.873A9.161,9.161,0,0,0,60.595,88.5,44.879,44.879,0,0,0,61.27,82.2c.1-2.081.145-4.151.129-6.218-.043-4.132-.156-8.248-.382-12.357-.247-4.988-.578-9.963-.937-14.939-.159-5.4-.276-10.893-.216-15.675.244-3.043.506-6.068.964-9.022a20.2,20.2,0,0,1,.847-3.458,3.824,3.824,0,0,1,.5-.933l0,.006a6.823,6.823,0,0,1,.557,1.456c.163.554.288,1.149.409,1.742.233,1.2.4,2.426.56,3.661.347,2.468.577,4.972.819,7.476l.725,7.53c.294,3.037.608,6.078.975,9.116.083,1.592.164,3.193.245,4.788.163,3.207.328,6.468.5,9.728q.037,6.507.321,13.011a204.9,204.9,0,0,0,1.95,21.53,62.415,62.415,0,0,0,2.508,10.677c.157.439.324.877.523,1.312a12.3,12.3,0,0,0,.623,1.3,8.643,8.643,0,0,0,1.828,2.462,4.337,4.337,0,0,0,1.51.913,4,4,0,0,0,.935.181,4.957,4.957,0,0,0,.925-.068,5.987,5.987,0,0,0,2.844-1.439,9.1,9.1,0,0,0,2.558-5.272,29.612,29.612,0,0,0,.341-5.506c-.02-.736-.064-1.468-.111-2.2-.064-3.626-.428-7.625-.789-11.581q-.057-.625-.114-1.251c.014-2.2-.024-4.393-.044-6.569.009-1.791-.038-3.572.063-5.329a26.044,26.044,0,0,1,.589-5.109A5.752,5.752,0,0,1,85.542,68.4a3.284,3.284,0,0,1,1.876-.5,2.9,2.9,0,0,1,1.763.819,12.1,12.1,0,0,1,2.552,4.278c.166.4.322.808.472,1.218a87.325,87.325,0,0,1,1.922,14.552c.181,5.678.208,11.366.517,17.079a62.292,62.292,0,0,0,.687,7.019,15.005,15.005,0,0,0,.985,3.619,3.709,3.709,0,0,0,1.6,1.87,1.857,1.857,0,0,0,.792.237,1.916,1.916,0,0,0,.8-.04,2.622,2.622,0,0,0,1.349-.71,5.163,5.163,0,0,0,1.122-1.953,13.869,13.869,0,0,0,.487-1.839,33.8,33.8,0,0,0,.48-3.571c.2-2.36.268-4.7.292-7.031-.012-9.325-.6-18.567-1.228-27.805-.378-5.614-.792-11.22-1.182-16.831-.17-5.429-.25-10.689-.144-15.365.258-2.227.5-4.444.791-6.64.269-1.829.507-3.654.925-5.406a21.3,21.3,0,0,1,.712-2.538,6.488,6.488,0,0,1,1.094-2.036,1.6,1.6,0,0,1,.608-.463.805.805,0,0,1,.351-.051c.137.013.3-.059.418.007a2.248,2.248,0,0,1,1.469,1.056,14.918,14.918,0,0,1,1.971,4.74c.576,2.16,1.01,4.393,1.437,6.647.3,3.232.492,6.795.653,10.4-.072,3.178-.1,6.354-.038,9.542.03,2.618.186,5.237.427,7.874.128,1.318.32,2.637.578,3.964a19.785,19.785,0,0,0,1.161,4,8.035,8.035,0,0,0,1.247,1.979,3.878,3.878,0,0,0,2.47,1.287,2.552,2.552,0,0,0,.717,0,2.969,2.969,0,0,0,.656-.111,5.843,5.843,0,0,0,1.178-.427,5.252,5.252,0,0,0,1.866-1.637,9.857,9.857,0,0,0,1.529-4.109,25,25,0,0,0,.321-4.042c.033-3.251-.214-6.43-.391-9.607a40.734,40.734,0,0,1,.878-9.074,13.626,13.626,0,0,1,2.456-4.249,6.926,6.926,0,0,1,3.018-1.959,8.359,8.359,0,0,1,3.528-.415c2.181.246,3.75,2.438,4.781,4.885a38.571,38.571,0,0,1,1.6,4.732c.16,1.02.3,2.088.408,3.256.187,2.081.339,3.972.465,5.71,0,3.013.027,6.018.018,9.017l-.028,3.676c-.009,1.268.038,2.508.089,3.749.133,2.48.346,4.95.612,7.418a82.106,82.106,0,0,0,2.92,14.637,30.286,30.286,0,0,0,3,6.93c.285.445.593.883.923,1.3a9.327,9.327,0,0,0,1.529,1.761,4.646,4.646,0,0,0,3.741,1.229,6,6,0,0,1,4.581,1.176,6.691,6.691,0,0,1,1.622,1.861,6.527,6.527,0,0,1,.683,2.037l.274,2.511a16.919,16.919,0,0,1,.07,2.453,22.325,22.325,0,0,1-.844,4.842,54.082,54.082,0,0,1-3.707,9.3,23.318,23.318,0,0,1-5.791,7.707,5.3,5.3,0,0,1-3.812,1.358,5.674,5.674,0,0,1-3.437-2.273,30.969,30.969,0,0,1-4.579-8.7,94.884,94.884,0,0,1-3.274-11.923c-.721-4.366-1.238-8.891-1.672-13.253C132.833,104.888,132.747,102.2,132.6,99.519Z" transform="translate(-38.506 -17.141)"/><path class="cls-2" d="M64.367,107.092l-.033-.008a.024.024,0,0,0,.03.008Z" transform="translate(-38.506 -17.141)"/></g></svg>