<svg id="Layer_1" data-name="Layer 1" xmlns="http://www.w3.org/2000/svg" xmlns:xlink="http://www.w3.org/1999/xlink" viewBox="0 0 43.293 56.322"><defs><style>.cls-1{fill:url(#linear-gradient);}.cls-2{fill:#0e5c41;}</style><linearGradient id="linear-gradient" x1="271.754" y1="652.364" x2="271.754" y2="602.424" gradientTransform="matrix(-1, -0.004, 0.004, -1, 369.581, 728.425)" gradientUnits="userSpaceOnUse"><stop offset="0" stop-color="#d28ab5"/><stop offset="0.094" stop-color="#c46f93"/><stop offset="0.214" stop-color="#b5516d"/><stop offset="0.326" stop-color="#aa3c52"/><stop offset="0.425" stop-color="#a32f42"/><stop offset="0.5" stop-color="#a12a3c"/><stop offset="0.575" stop-color="#a32f42"/><stop offset="0.674" stop-color="#aa3c52"/><stop offset="0.786" stop-color="#b5516d"/><stop offset="0.906" stop-color="#c46f93"/><stop offset="1" stop-color="#d28ab5"/></linearGradient></defs><title>SLC15A1</title><g id="SLC15A1"><path class="cls-1" d="M100.036,125.011c-6.78-.025-19.286,3.15-19.286,3.15,14.424.053,14.528-28.09,14.528-28.09s.1-28.147-14.32-28.2c0,0,12.3,3.245,19.041,3.27,6.744-.035,19.036-3.3,19.036-3.3-14.424.074-14.279,28.221-14.279,28.221s.145,28.143,14.569,28.068C119.327,128.132,106.816,124.976,100.036,125.011Z" transform="translate(-78.354 -71.839)"/><path class="cls-2" d="M108.045,100.043c.113,21.861,9.845,18.967,11.233,18.96s2.326,1.478,2.345,5.007c.015,2.819-.486,4.11-2.3,4.119-14.424.074-14.569-28.068-14.569-28.068s-.145-28.147,14.279-28.221c1.81-.009,2.6,1.341,2.612,4.09s-1.176,5.032-2.565,5.039S107.932,78.182,108.045,100.043Z" transform="translate(-78.354 -71.839)"/><path class="cls-2" d="M91.991,100.055c-.081,21.861-9.817,18.981-11.205,18.976s-2.324,1.481-2.337,5.01c-.01,2.819.492,4.109,2.3,4.116,14.424.053,14.528-28.09,14.528-28.09s.1-28.147-14.32-28.2c-1.81-.007-2.6,1.345-2.606,4.094s1.184,5.03,2.572,5.036S92.071,78.194,91.991,100.055Z" transform="translate(-78.354 -71.839)"/></g></svg>