<svg id="Layer_1" data-name="Layer 1" xmlns="http://www.w3.org/2000/svg" xmlns:xlink="http://www.w3.org/1999/xlink" viewBox="0 0 37.901 116.755"><defs><style>.cls-1{fill:url(#radial-gradient);}.cls-2{fill:url(#radial-gradient-2);}.cls-3{fill:url(#linear-gradient);}.cls-4{fill:url(#linear-gradient-2);}.cls-5{fill:url(#radial-gradient-3);}.cls-6{fill:url(#radial-gradient-4);}.cls-7{fill:url(#radial-gradient-5);}.cls-8{fill:url(#radial-gradient-6);}</style><radialGradient id="radial-gradient" cx="-616.971" cy="457.001" r="8.519" gradientTransform="translate(616.107 -519.535) rotate(-0.676) scale(1 1.34)" gradientUnits="userSpaceOnUse"><stop offset="0" stop-color="#ffd1d1"/><stop offset="0.149" stop-color="#c5b4bf"/><stop offset="0.319" stop-color="#8a96ad"/><stop offset="0.484" stop-color="#597e9d"/><stop offset="0.639" stop-color="#326a92"/><stop offset="0.781" stop-color="#175c89"/><stop offset="0.906" stop-color="#065484"/><stop offset="1" stop-color="#005182"/></radialGradient><radialGradient id="radial-gradient-2" cx="-44.853" cy="457.001" r="8.519" gradientTransform="matrix(-1, -0.012, -0.016, 1.34, -9.326, -512.788)" xlink:href="#radial-gradient"/><linearGradient id="linear-gradient" x1="-617.21" y1="437.172" x2="-613.247" y2="437.172" gradientTransform="translate(623.371 -356.958)" gradientUnits="userSpaceOnUse"><stop offset="0" stop-color="#005182"/><stop offset="0.01" stop-color="#0e5886"/><stop offset="0.06" stop-color="#4d789a"/><stop offset="0.109" stop-color="#8393ab"/><stop offset="0.157" stop-color="#b0a9b8"/><stop offset="0.202" stop-color="#d2bac3"/><stop offset="0.245" stop-color="#ebc7cb"/><stop offset="0.284" stop-color="#facecf"/><stop offset="0.316" stop-color="#ffd1d1"/><stop offset="0.341" stop-color="#f2cacd"/><stop offset="0.485" stop-color="#a9a6b6"/><stop offset="0.62" stop-color="#6d88a4"/><stop offset="0.743" stop-color="#3e7095"/><stop offset="0.851" stop-color="#1c5f8b"/><stop offset="0.941" stop-color="#075584"/><stop offset="1" stop-color="#005182"/></linearGradient><linearGradient id="linear-gradient-2" x1="-48.29" y1="437.172" x2="-44.327" y2="437.172" gradientTransform="matrix(1, 0, 0, -1, 157.116, 559.008)" gradientUnits="userSpaceOnUse"><stop offset="0" stop-color="#005182"/><stop offset="0.059" stop-color="#075584"/><stop offset="0.149" stop-color="#1c5f8b"/><stop offset="0.257" stop-color="#3e7095"/><stop offset="0.38" stop-color="#6d88a4"/><stop offset="0.515" stop-color="#a9a6b6"/><stop offset="0.659" stop-color="#f2cacd"/><stop offset="0.684" stop-color="#ffd1d1"/><stop offset="0.716" stop-color="#facecf"/><stop offset="0.755" stop-color="#ebc7cb"/><stop offset="0.798" stop-color="#d2bac3"/><stop offset="0.843" stop-color="#b0a9b8"/><stop offset="0.891" stop-color="#8393ab"/><stop offset="0.94" stop-color="#4d789a"/><stop offset="0.99" stop-color="#0e5886"/><stop offset="1" stop-color="#005182"/></linearGradient><radialGradient id="radial-gradient-3" cx="-611.399" cy="384.616" r="15.252" gradientTransform="translate(648.872 -1550.059) rotate(-1.978) scale(1 4.158)" gradientUnits="userSpaceOnUse"><stop offset="0.083" stop-color="#003e63"/><stop offset="0.096" stop-color="#0b4468"/><stop offset="0.207" stop-color="#60768d"/><stop offset="0.305" stop-color="#a49daa"/><stop offset="0.386" stop-color="#d5b9bf"/><stop offset="0.447" stop-color="#f4cacc"/><stop offset="0.482" stop-color="#ffd1d1"/><stop offset="0.553" stop-color="#dbbcc1"/><stop offset="0.864" stop-color="#3f627e"/><stop offset="1" stop-color="#003e63"/></radialGradient><radialGradient id="radial-gradient-4" cx="-39.852" cy="381.189" r="15.252" gradientTransform="matrix(-0.999, -0.035, -0.143, 4.155, 119.216, -1519.521)" xlink:href="#radial-gradient-3"/><radialGradient id="radial-gradient-5" cx="93.808" cy="82.3" r="5.468" gradientTransform="translate(0 -71.381) scale(1 1.867)" gradientUnits="userSpaceOnUse"><stop offset="0" stop-color="#8cdaff"/><stop offset="0.031" stop-color="#84d1f6"/><stop offset="0.175" stop-color="#63acce"/><stop offset="0.324" stop-color="#478dae"/><stop offset="0.478" stop-color="#327595"/><stop offset="0.637" stop-color="#236383"/><stop offset="0.806" stop-color="#1a5978"/><stop offset="1" stop-color="#175675"/></radialGradient><radialGradient id="radial-gradient-6" cx="48.758" cy="82.133" r="5.468" gradientTransform="matrix(-1, 0, 0, 1.867, 152.696, -71.236)" xlink:href="#radial-gradient-5"/></defs><title>MST1R</title><g id="MST1R"><ellipse id="STK" class="cls-1" cx="8.143" cy="103.423" rx="7.527" ry="13.331"/><ellipse id="STK-2" data-name="STK" class="cls-2" cx="29.758" cy="103.423" rx="7.527" ry="13.331"/><rect class="cls-3" x="6.161" y="66.321" width="3.963" height="27.786" rx="1.506" ry="1.506"/><rect class="cls-4" x="108.826" y="107.943" width="3.963" height="27.786" rx="1.506" ry="1.506" transform="translate(140.566 202.049) rotate(-180)"/><g id="BETA"><path class="cls-5" d="M96.2,88l-2.754,18.485a3.542,3.542,0,0,1-3.5,3.02H88.576a3.542,3.542,0,0,1-3.508-3.056L81.911,83.637a91.324,91.324,0,0,1-.134-24.021l1.892-14.9a3.386,3.386,0,0,1,3.513-3.1,3.542,3.542,0,0,1,3.539,3.666l-.785,22.3c-.389,9.879,1.577,11.973,4.6,13.359l.645.3C96.3,81.761,97.074,83.187,96.2,88Z" transform="translate(-81.049 -41.623)"/><path class="cls-6" d="M103.8,88l2.754,18.485a3.542,3.542,0,0,0,3.5,3.02h1.365a3.542,3.542,0,0,0,3.508-3.056l3.157-22.815a91.324,91.324,0,0,0,.134-24.021l-1.892-14.9a3.386,3.386,0,0,0-3.513-3.1,3.542,3.542,0,0,0-3.539,3.666l.785,22.3c.389,9.879-1.577,11.973-4.6,13.359l-.645.3C103.7,81.761,102.926,83.187,103.8,88Z" transform="translate(-81.049 -41.623)"/></g><g id="ALPHA"><path class="cls-7" d="M95.552,95.691l-1.819-.956A6.259,6.259,0,0,1,90.51,89.82v-13.2c0-1.78,1.443-2.465,3.222-1.53l1.819.956a6.259,6.259,0,0,1,3.222,4.915v13.2C98.774,95.94,97.332,96.625,95.552,95.691Z" transform="translate(-81.049 -41.623)"/><path class="cls-8" d="M104.448,95.691l1.819-.956a6.259,6.259,0,0,0,3.222-4.915v-13.2c0-1.78-1.443-2.465-3.222-1.53l-1.819.956a6.259,6.259,0,0,0-3.222,4.915v13.2C101.226,95.94,102.668,96.625,104.448,95.691Z" transform="translate(-81.049 -41.623)"/></g></g></svg>