<svg id="Layer_1" data-name="Layer 1" xmlns="http://www.w3.org/2000/svg" xmlns:xlink="http://www.w3.org/1999/xlink" viewBox="0 0 45.903 159.61"><defs><style>.cls-1{fill:url(#linear-gradient);}.cls-2{fill:url(#linear-gradient-2);}.cls-3{fill:url(#linear-gradient-3);}.cls-4{fill:url(#linear-gradient-4);}.cls-5{fill:url(#linear-gradient-5);}.cls-6{fill:url(#linear-gradient-6);}.cls-7{fill:url(#radial-gradient);}.cls-8{fill:url(#radial-gradient-2);}.cls-9{fill:url(#radial-gradient-3);}.cls-10{fill:url(#radial-gradient-4);}.cls-11{fill:url(#radial-gradient-5);}.cls-12{fill:url(#radial-gradient-6);}.cls-13{fill:url(#radial-gradient-7);}.cls-14{fill:url(#radial-gradient-8);}.cls-15{fill:url(#radial-gradient-9);}</style><linearGradient id="linear-gradient" x1="-280.027" y1="673.602" x2="-276.027" y2="673.602" gradientTransform="translate(286.978 -576.877)" gradientUnits="userSpaceOnUse"><stop offset="0" stop-color="#3d2314"/><stop offset="0.044" stop-color="#432716"/><stop offset="0.105" stop-color="#54321d"/><stop offset="0.174" stop-color="#714429"/><stop offset="0.25" stop-color="#995d38"/><stop offset="0.331" stop-color="#cb7c4c"/><stop offset="0.351" stop-color="#d98552"/><stop offset="0.394" stop-color="#b46d43"/><stop offset="0.443" stop-color="#8f5735"/><stop offset="0.495" stop-color="#714429"/><stop offset="0.55" stop-color="#5a3520"/><stop offset="0.609" stop-color="#4a2b19"/><stop offset="0.674" stop-color="#402515"/><stop offset="0.758" stop-color="#3d2314"/></linearGradient><linearGradient id="linear-gradient-2" x1="-252.025" y1="673.602" x2="-248.025" y2="673.602" xlink:href="#linear-gradient"/><linearGradient id="linear-gradient-3" x1="-266.026" y1="673.602" x2="-262.026" y2="673.602" xlink:href="#linear-gradient"/><linearGradient id="linear-gradient-4" x1="-284.196" y1="714.829" x2="-271.859" y2="714.829" gradientTransform="translate(286.978 -576.877)" gradientUnits="userSpaceOnUse"><stop offset="0" stop-color="#3d2314"/><stop offset="0.044" stop-color="#432615"/><stop offset="0.105" stop-color="#542f19"/><stop offset="0.174" stop-color="#713e1f"/><stop offset="0.25" stop-color="#995328"/><stop offset="0.331" stop-color="#cb6d33"/><stop offset="0.351" stop-color="#d97436"/><stop offset="0.394" stop-color="#b4612e"/><stop offset="0.443" stop-color="#8f4e26"/><stop offset="0.495" stop-color="#713e1f"/><stop offset="0.55" stop-color="#5a321a"/><stop offset="0.609" stop-color="#4a2a17"/><stop offset="0.674" stop-color="#402515"/><stop offset="0.759" stop-color="#3d2314"/></linearGradient><linearGradient id="linear-gradient-5" x1="-256.194" y1="714.829" x2="-243.857" y2="714.829" xlink:href="#linear-gradient-4"/><linearGradient id="linear-gradient-6" x1="-270.195" y1="714.829" x2="-257.858" y2="714.829" xlink:href="#linear-gradient-4"/><radialGradient id="radial-gradient" cx="-159.006" cy="615.226" r="11.882" gradientTransform="translate(301.246 -648.474) scale(1.365 1.168)" gradientUnits="userSpaceOnUse"><stop offset="0" stop-color="#d97436"/><stop offset="0.006" stop-color="#d77336"/><stop offset="0.153" stop-color="#a85b2b"/><stop offset="0.3" stop-color="#824723"/><stop offset="0.445" stop-color="#64371c"/><stop offset="0.587" stop-color="#4e2c18"/><stop offset="0.724" stop-color="#412515"/><stop offset="0.852" stop-color="#3d2314"/></radialGradient><radialGradient id="radial-gradient-2" cx="-138.493" cy="615.226" r="11.882" xlink:href="#radial-gradient"/><radialGradient id="radial-gradient-3" cx="-148.75" cy="615.226" r="11.882" gradientTransform="translate(301.246 -648.474) scale(1.365 1.168)" gradientUnits="userSpaceOnUse"><stop offset="0.07" stop-color="#d97436"/><stop offset="0.108" stop-color="#ca6c33"/><stop offset="0.235" stop-color="#9f5629"/><stop offset="0.364" stop-color="#7c4422"/><stop offset="0.493" stop-color="#60351c"/><stop offset="0.623" stop-color="#4d2b17"/><stop offset="0.755" stop-color="#412515"/><stop offset="0.889" stop-color="#3d2314"/></radialGradient><radialGradient id="radial-gradient-4" cx="-159.006" cy="597.332" r="11.882" xlink:href="#radial-gradient"/><radialGradient id="radial-gradient-5" cx="-138.493" cy="597.332" r="11.882" xlink:href="#radial-gradient"/><radialGradient id="radial-gradient-6" cx="-148.75" cy="597.332" r="11.882" xlink:href="#radial-gradient-3"/><radialGradient id="radial-gradient-7" cx="-159.006" cy="579.438" r="11.882" xlink:href="#radial-gradient"/><radialGradient id="radial-gradient-8" cx="-138.493" cy="579.438" r="11.882" xlink:href="#radial-gradient"/><radialGradient id="radial-gradient-9" cx="-148.75" cy="579.438" r="11.882" xlink:href="#radial-gradient-3"/></defs><title>TNFRSF10</title><g id="TNFRSF10"><rect class="cls-1" x="6.951" y="61.889" width="4" height="69.671"/><rect class="cls-2" x="34.952" y="61.889" width="4" height="69.671"/><rect class="cls-3" x="20.952" y="61.889" width="4" height="69.671"/><rect class="cls-4" x="2.782" y="116.294" width="12.337" height="43.317"/><rect class="cls-5" x="30.784" y="116.294" width="12.337" height="43.317"/><rect class="cls-6" x="16.783" y="116.294" width="12.337" height="43.317"/><path class="cls-7" d="M86,84.9c-4.944,0-8.951-3.429-8.951-7.659V69.655C77.048,65.426,81.055,62,86,62s8.951,3.429,8.951,7.659v7.584C94.95,81.468,90.943,84.9,86,84.9Z" transform="translate(-77.048 -20.195)"/><path class="cls-8" d="M114,84.9c-4.944,0-8.951-3.429-8.951-7.659V69.655C105.05,65.426,109.057,62,114,62s8.951,3.429,8.951,7.659v7.584C122.952,81.468,118.945,84.9,114,84.9Z" transform="translate(-77.048 -20.195)"/><path class="cls-9" d="M100,84.9c-4.944,0-8.951-3.429-8.951-7.659V69.655C91.049,65.426,95.056,62,100,62s8.951,3.429,8.951,7.659v7.584C108.951,81.468,104.944,84.9,100,84.9Z" transform="translate(-77.048 -20.195)"/><path class="cls-10" d="M86,64c-4.944,0-8.951-3.429-8.951-7.659V48.754c0-4.229,4.007-7.659,8.951-7.659s8.951,3.429,8.951,7.659v7.584C94.95,60.567,90.943,64,86,64Z" transform="translate(-77.048 -20.195)"/><path class="cls-11" d="M114,64c-4.944,0-8.951-3.429-8.951-7.659V48.754c0-4.229,4.007-7.659,8.951-7.659s8.951,3.429,8.951,7.659v7.584C122.952,60.567,118.945,64,114,64Z" transform="translate(-77.048 -20.195)"/><path class="cls-12" d="M100,64c-4.944,0-8.951-3.429-8.951-7.659V48.754c0-4.229,4.007-7.659,8.951-7.659s8.951,3.429,8.951,7.659v7.584C108.951,60.567,104.944,64,100,64Z" transform="translate(-77.048 -20.195)"/><path class="cls-13" d="M86,43.1c-4.944,0-8.951-3.429-8.951-7.659V27.853c0-4.229,4.007-7.659,8.951-7.659s8.951,3.429,8.951,7.659v7.584C94.95,39.667,90.943,43.1,86,43.1Z" transform="translate(-77.048 -20.195)"/><path class="cls-14" d="M114,43.1c-4.944,0-8.951-3.429-8.951-7.659V27.853c0-4.229,4.007-7.659,8.951-7.659s8.951,3.429,8.951,7.659v7.584C122.952,39.667,118.945,43.1,114,43.1Z" transform="translate(-77.048 -20.195)"/><path class="cls-15" d="M100,43.1c-4.944,0-8.951-3.429-8.951-7.659V27.853c0-4.229,4.007-7.659,8.951-7.659s8.951,3.429,8.951,7.659v7.584C108.951,39.667,104.944,43.1,100,43.1Z" transform="translate(-77.048 -20.195)"/></g></svg>