<svg id="Layer_1" data-name="Layer 1" xmlns="http://www.w3.org/2000/svg" xmlns:xlink="http://www.w3.org/1999/xlink" viewBox="0 0 46.623 22.791"><defs><style>.cls-1{fill:url(#linear-gradient);}.cls-2{fill:#3f58bc;}.cls-3{font-size:12px;fill:#fff;font-family:Arial-BoldMT, Arial;font-weight:700;}</style><linearGradient id="linear-gradient" x1="99.483" y1="110.335" x2="99.483" y2="90.335" gradientUnits="userSpaceOnUse"><stop offset="0" stop-color="#ff78ff"/><stop offset="0.999" stop-color="#3f58bc"/></linearGradient></defs><title>vWF</title><g id="vWF"><path class="cls-1" d="M111.483,110.335h-34v-20h34a10,10,0,0,1,10,10h0A10,10,0,0,1,111.483,110.335Z" transform="translate(-75.881 -89.151)"/><path class="cls-2" d="M111.483,110.485c-2.833.018-5.667.117-8.5.328l-8.5.676c-2.833.2-5.667.335-8.5.372-2.833.056-5.667.1-8.5.071l-1.6-.016,0-1.583c.008-3.333.091-6.667.163-10s.143-6.667.307-10l.058-1.184,1.07.055c5.451.282,10.9.654,16.352.667,2.725.027,5.451-.037,8.176-.163l8.176-.489c.684-.033,1.335-.083,2.133-.063a10.458,10.458,0,0,1,2.272.332,10.6,10.6,0,0,1,4.1,2.081A10.458,10.458,0,0,1,122.5,99.62a10.713,10.713,0,0,1-3.417,7.841A11.135,11.135,0,0,1,111.483,110.485Zm0-.3a8.948,8.948,0,0,0,6.974-3.314,9.215,9.215,0,0,0,1.94-7.116,9.72,9.72,0,0,0-3.419-6.105,9.562,9.562,0,0,0-3.095-1.685,13.1,13.1,0,0,0-3.7-.518l-8.176-.489c-2.725-.126-5.451-.189-8.176-.163-5.451.013-10.9.385-16.352.667l1.128-1.128c.164,3.333.23,6.667.307,10s.154,6.667.163,10l-1.6-1.6c2.833-.028,5.667.015,8.5.071,2.833.037,5.667.173,8.5.372l8.5.676C105.817,110.068,108.65,110.167,111.483,110.185Z" transform="translate(-75.881 -89.151)"/><text class="cls-3" transform="translate(10.937 14.069)">vWF</text></g></svg>