<svg id="Layer_1" data-name="Layer 1" xmlns="http://www.w3.org/2000/svg" xmlns:xlink="http://www.w3.org/1999/xlink" viewBox="0 0 107.088 21.964"><defs><style>.cls-1{fill:url(#linear-gradient);}.cls-2{fill:url(#linear-gradient-2);}.cls-3{font-size:12px;fill:#fff;font-family:Arial-BoldMT, Arial;font-weight:700;}.cls-4{letter-spacing:-0.018em;}</style><linearGradient id="linear-gradient" x1="53.803" y1="0.898" x2="53.803" y2="20.898" gradientUnits="userSpaceOnUse"><stop offset="0" stop-color="#9461ee"/><stop offset="1" stop-color="#3b994a"/></linearGradient><linearGradient id="linear-gradient-2" x1="99.741" y1="111" x2="99.741" y2="89" gradientUnits="userSpaceOnUse"><stop offset="0" stop-color="#0061ee"/><stop offset="1" stop-color="#ca4145"/></linearGradient></defs><title>BOX_C-D_snoRNP</title><g id="BOX_C-D_snoRNP"><rect class="cls-1" x="0.803" y="0.898" width="106" height="20" rx="10" ry="10"/><path class="cls-2" d="M143,110.1c-9.782-.007-19.565.3-29.347.558-9.782.305-19.565.364-29.347.408l-14.673-.024-7.337-.051-3.668-.025c-.62-.009-1.2,0-1.854-.023a12.171,12.171,0,0,1-1.993-.231A10.883,10.883,0,0,1,46.263,98.9,10.7,10.7,0,0,1,57,89.452c9.782.172,19.565.282,29.347.223s19.565-.365,29.347-.508c4.891-.057,9.782-.087,14.673-.047q3.668.015,7.337.086l3.668.072c.617.02,1.209.021,1.848.058a11.875,11.875,0,0,1,1.935.258,10.622,10.622,0,0,1,6.251,4.249,10.28,10.28,0,0,1-1.629,13.664A10.213,10.213,0,0,1,143,110.1Zm0-.2a9.862,9.862,0,0,0,6.593-2.6,9.545,9.545,0,0,0,1.1-12.938,9.528,9.528,0,0,0-5.8-3.543,10.592,10.592,0,0,0-1.707-.138c-.583-.005-1.215.026-1.82.037l-3.668.072q-3.668.072-7.337.086c-4.891.04-9.782.01-14.673-.047-9.782-.143-19.565-.435-29.347-.508s-19.565.052-29.347.223a9.432,9.432,0,0,0-9.159,8.514,9.238,9.238,0,0,0,7.323,9.808,10.309,10.309,0,0,0,1.649.166c.572.016,1.212,0,1.814,0l3.668-.025,7.337-.051,14.673-.024c9.782.044,19.565.1,29.347.408C123.435,109.6,133.218,109.907,143,109.9Z" transform="translate(-46.197 -89.102)"/><text class="cls-3" transform="translate(3.907 14.211)">BOX C/D snoRN<tspan class="cls-4" x="92.004" y="0">P</tspan></text></g></svg>