<svg id="Layer_1" data-name="Layer 1" xmlns="http://www.w3.org/2000/svg" xmlns:xlink="http://www.w3.org/1999/xlink" viewBox="0 0 60.003 70.003"><defs><style>.cls-1{fill:url(#linear-gradient);}.cls-2{fill:url(#radial-gradient);}.cls-3{fill:url(#radial-gradient-2);}.cls-4{fill:url(#linear-gradient-2);}.cls-5{fill:url(#radial-gradient-3);}.cls-6{fill:url(#radial-gradient-4);}.cls-7{fill:url(#linear-gradient-3);}.cls-8{fill:url(#radial-gradient-5);}.cls-9{fill:url(#radial-gradient-6);}</style><linearGradient id="linear-gradient" x1="318.37" y1="103.48" x2="318.37" y2="123.48" gradientTransform="translate(-240.354 -13.385)" gradientUnits="userSpaceOnUse"><stop offset="0" stop-color="#ff614a"/><stop offset="1" stop-color="#410000"/></linearGradient><radialGradient id="radial-gradient" cx="7.75" cy="7.25" r="13.002" gradientTransform="matrix(1, 0, 0, 1, 0, 0)" xlink:href="#linear-gradient"/><radialGradient id="radial-gradient-2" cx="7.75" cy="57.253" r="13.002" gradientTransform="matrix(1, 0, 0, 1, 0, 0)" xlink:href="#linear-gradient"/><linearGradient id="linear-gradient-2" x1="318.37" y1="123.481" x2="318.37" y2="143.481" gradientTransform="translate(-220.353 -33.386)" xlink:href="#linear-gradient"/><radialGradient id="radial-gradient-3" cx="27.751" cy="7.25" r="13.002" gradientTransform="matrix(1, 0, 0, 1, 0, 0)" xlink:href="#linear-gradient"/><radialGradient id="radial-gradient-4" cx="27.751" cy="57.253" r="13.002" gradientTransform="matrix(1, 0, 0, 1, 0, 0)" xlink:href="#linear-gradient"/><linearGradient id="linear-gradient-3" x1="318.37" y1="143.483" x2="318.37" y2="163.483" gradientTransform="translate(-200.352 -53.387)" xlink:href="#linear-gradient"/><radialGradient id="radial-gradient-5" cx="47.753" cy="7.25" r="13.002" gradientTransform="matrix(1, 0, 0, 1, 0, 0)" xlink:href="#linear-gradient"/><radialGradient id="radial-gradient-6" cx="47.753" cy="57.253" r="13.002" gradientTransform="matrix(1, 0, 0, 1, 0, 0)" xlink:href="#linear-gradient"/></defs><title>HSF1</title><g id="HSF1"><g id="MONOMER"><g id="HSPs"><rect class="cls-1" x="63.015" y="90.095" width="30" height="20" rx="8" ry="8" transform="translate(-90.095 113.015) rotate(-90)"/></g><circle class="cls-2" cx="10" cy="10" r="10"/><circle class="cls-3" cx="10" cy="60.003" r="10"/></g><g id="MONOMER-2" data-name="MONOMER"><g id="HSPs-2" data-name="HSPs"><rect class="cls-4" x="83.017" y="90.095" width="30" height="20" rx="8" ry="8" transform="translate(-70.094 133.017) rotate(-90)"/></g><circle class="cls-5" cx="30.001" cy="10" r="10"/><circle class="cls-6" cx="30.001" cy="60.003" r="10"/></g><g id="MONOMER-3" data-name="MONOMER"><g id="HSPs-3" data-name="HSPs"><rect class="cls-7" x="103.018" y="90.095" width="30" height="20" rx="8" ry="8" transform="translate(-50.093 153.018) rotate(-90)"/></g><circle class="cls-8" cx="50.003" cy="10" r="10"/><circle class="cls-9" cx="50.003" cy="60.003" r="10"/></g></g></svg>