<svg id="Layer_1" data-name="Layer 1" xmlns="http://www.w3.org/2000/svg" xmlns:xlink="http://www.w3.org/1999/xlink" viewBox="0 0 58.288 22.928"><defs><style>.cls-1{fill:url(#linear-gradient);}.cls-2{fill:#0053cc;}.cls-3{font-size:12px;fill:#fff;font-family:Arial-BoldMT, Arial;font-weight:700;}</style><linearGradient id="linear-gradient" x1="1.395" y1="11.32" x2="57.395" y2="11.32" gradientUnits="userSpaceOnUse"><stop offset="0" stop-color="#bab72b"/><stop offset="1" stop-color="#0053cc"/></linearGradient></defs><title>R-ICO-013673</title><g id="R-ICO-013673"><rect class="cls-1" x="1.395" y="1.32" width="56" height="20" rx="9.742"/><path class="cls-2" d="M118.258,110.15c-5.635-.009-11.269.43-16.9.837-5.634.458-11.268.547-16.9.613-.7.015-1.409,0-2.113,0-.343,0-.7,0-1.131-.028a7.72,7.72,0,0,1-1.223-.126,10.94,10.94,0,0,1-4.53-1.8,11.28,11.28,0,0,1-4.8-8.134c-.038-.4-.037-.806-.053-1.207l.009-.534.038-.6a7.744,7.744,0,0,1,.147-1.194,8.267,8.267,0,0,1,.281-1.17A10.539,10.539,0,0,1,73.4,92.679a10.711,10.711,0,0,1,8.341-3.5c5.635.281,11.269.436,16.9.335,5.634-.085,11.268-.574,16.9-.763l2.113-.057a10.984,10.984,0,0,1,1.119,0,7.485,7.485,0,0,1,1.194.115,10.406,10.406,0,0,1,8.91,9.73c.023.386,0,.774,0,1.158-.017.351-.05.709-.1,1.1a7.136,7.136,0,0,1-.195,1.125,8.074,8.074,0,0,1-.313,1.09,10.533,10.533,0,0,1-2.3,3.778A10.743,10.743,0,0,1,118.258,110.15Zm0-.3a8.986,8.986,0,0,0,7.129-3.557,8.616,8.616,0,0,0,1.62-3.631,6.544,6.544,0,0,0,.135-.973,5.751,5.751,0,0,0,.026-.973c0-.312-.019-.658-.053-1.011-.047-.319-.076-.637-.131-.95a9.256,9.256,0,0,0-4.057-6,9.079,9.079,0,0,0-3.369-1.308c-1.119-.172-2.613-.146-4.011-.2-5.634-.189-11.268-.678-16.9-.763-5.634-.1-11.268.054-16.9.335a8.926,8.926,0,0,0-6.505,3.416,8.644,8.644,0,0,0-1.6,3.28,6.186,6.186,0,0,0-.167.893,5.26,5.26,0,0,0-.074.9l-.013.457.013.522c.029.3.036.6.076.9a8.444,8.444,0,0,0,3.73,5.852,8.646,8.646,0,0,0,3.278,1.245,35.16,35.16,0,0,0,3.97.11c5.634.066,11.268.155,16.9.613C106.989,109.42,112.623,109.859,118.258,109.85Z" transform="translate(-70.605 -88.68)"/><text class="cls-3" transform="translate(4.694 14.206)">MAP2K5</text></g></svg>