<svg id="Layer_1" data-name="Layer 1" xmlns="http://www.w3.org/2000/svg" xmlns:xlink="http://www.w3.org/1999/xlink" viewBox="0 0 86.313 32.949"><defs><style>.cls-1{fill:url(#linear-gradient);}.cls-2{fill:#0052af;}.cls-3{font-size:12px;fill:#fff;font-family:Arial-BoldMT, Arial;font-weight:700;}.cls-4{letter-spacing:-0.037em;}.cls-5{letter-spacing:-0.074em;}.cls-6{letter-spacing:-0.02em;}</style><linearGradient id="linear-gradient" x1="43.4" y1="31.349" x2="43.4" y2="1.349" gradientUnits="userSpaceOnUse"><stop offset="0" stop-color="#06a2b2"/><stop offset="1" stop-color="#8000ff"/></linearGradient></defs><title>R-ICO-013627</title><g id="DNA_REPAIR_PROTEIN" data-name="DNA REPAIR PROTEIN"><rect class="cls-1" x="1.4" y="1.349" width="84" height="30" rx="10" ry="10"/><path class="cls-2" d="M132,115.15c-8.782-.009-17.565.43-26.347.837-8.782.458-17.565.546-26.347.613H72.719l-3.293,0c-.564,0-1.063.006-1.681-.024l-.951-.062-.941-.153a11.545,11.545,0,0,1-9.227-10.611c-.038-.657-.024-1.193-.017-1.738l.019-1.647.05-3.293.067-3.293.019-.83.063-.923A10.994,10.994,0,0,1,68,84.179c8.782.261,17.565.449,26.347.335,4.391-.049,8.782-.194,13.173-.349l13.173-.413c2.2-.033,4.391-.093,6.587-.087l3.293-.012c.562,0,1.069-.009,1.676.021l.931.061.921.151a10.953,10.953,0,0,1,8.8,10.4c.019.621-.011,1.161-.035,1.707l-.07,1.647-.144,3.293-.149,3.293a12.071,12.071,0,0,1-.465,3.361A10.564,10.564,0,0,1,132,115.15Zm0-.3a9.726,9.726,0,0,0,5.986-2.124A9.44,9.44,0,0,0,141.3,107.4a11,11,0,0,0,.193-3.168l-.149-3.293L141.2,97.64l-.07-1.647c-.021-.551-.042-1.11-.1-1.584a9.146,9.146,0,0,0-7.417-7.933l-.706-.1-.713-.028c-.489-.015-1.081.009-1.617,0l-3.293-.012c-2.2.006-4.391-.055-6.587-.087l-13.173-.413c-4.391-.155-8.782-.3-13.173-.349-8.782-.114-17.565.074-26.347.335a9.107,9.107,0,0,0-8.519,6.986,8.478,8.478,0,0,0-.218,1.427l-.021.722.014.817.067,3.293.05,3.293.019,1.647c0,.553.009,1.115.049,1.554a8.566,8.566,0,0,0,6.994,7.723l.686.1.693.027c.479.015,1.078-.008,1.611,0l3.293,0h6.587c8.782.066,17.565.155,26.347.613C114.435,114.42,123.218,114.859,132,114.85Z" transform="translate(-56.6 -83.651)"/><text class="cls-3" transform="translate(6.14 11.834)">DN<tspan class="cls-4" x="17.332" y="0">A</tspan><tspan x="25.553" y="0" xml:space="preserve"> RE</tspan><tspan class="cls-5" x="45.557" y="0">P</tspan><tspan x="52.67" y="0">AIR</tspan><tspan x="10.119" y="14.4">PROTEI</tspan><tspan class="cls-6" x="54.791" y="14.4">N</tspan></text></g></svg>