<svg xmlns="http://www.w3.org/2000/svg" xmlns:xlink="http://www.w3.org/1999/xlink" viewBox="0 0 33.562 51.937"><defs><style>.cls-1,.cls-2,.cls-23{opacity:0.6;}.cls-1{fill:url(#linear-gradient);}.cls-2{fill:url(#linear-gradient-2);}.cls-3{isolation:isolate;}.cls-4{fill:url(#linear-gradient-3);}.cls-5{fill:url(#linear-gradient-4);}.cls-6{fill:url(#linear-gradient-5);}.cls-7{fill:url(#linear-gradient-6);}.cls-8{fill:url(#linear-gradient-7);}.cls-9{fill:url(#linear-gradient-8);}.cls-10{fill:url(#linear-gradient-9);}.cls-11{fill:url(#linear-gradient-10);}.cls-12{fill:url(#linear-gradient-11);}.cls-13{fill:url(#radial-gradient);}.cls-14{fill:url(#linear-gradient-12);}.cls-15{fill:url(#linear-gradient-13);}.cls-16{fill:url(#radial-gradient-3);}.cls-17{fill:url(#linear-gradient-14);}.cls-18{fill:url(#linear-gradient-15);}.cls-19{fill:url(#linear-gradient-16);}.cls-20{fill:url(#linear-gradient-17);}.cls-21{fill:url(#radial-gradient-4);}.cls-22{mask:url(#mask);}.cls-23{fill:url(#linear-gradient-18);}.cls-24{opacity:0.5;mix-blend-mode:screen;fill:url(#radial-gradient-5);}.cls-25{fill:url(#radial-gradient-6);}.cls-26{fill:url(#radial-gradient-7);}.cls-27{fill:url(#linear-gradient-19);}.cls-28{fill:url(#linear-gradient-20);}.cls-29{fill:url(#linear-gradient-21);}.cls-30{fill:url(#linear-gradient-22);}.cls-31{fill:url(#linear-gradient-23);}.cls-32{fill:url(#linear-gradient-24);}.cls-33{fill:url(#linear-gradient-25);}.cls-34{fill:url(#linear-gradient-26);}.cls-35{fill:url(#linear-gradient-27);}.cls-36{fill:url(#linear-gradient-28);}.cls-37{fill:url(#linear-gradient-29);}.cls-38{fill:url(#linear-gradient-30);}.cls-39{fill:url(#linear-gradient-31);}.cls-40{fill:url(#linear-gradient-32);}.cls-41{fill:url(#linear-gradient-33);}.cls-42{fill:url(#radial-gradient-9);}</style><linearGradient id="linear-gradient" x1="100" y1="74.032" x2="100" y2="125.968" gradientUnits="userSpaceOnUse"><stop offset="0" stop-color="#fff"/><stop offset="0.067" stop-color="#f7f7f7"/><stop offset="0.174" stop-color="#e0e0e0"/><stop offset="0.307" stop-color="#bababa"/><stop offset="0.461" stop-color="#868686"/><stop offset="0.631" stop-color="#444"/><stop offset="0.788"/></linearGradient><linearGradient id="linear-gradient-2" x1="100" y1="74.032" x2="100" y2="125.968" gradientUnits="userSpaceOnUse"><stop offset="0.73" stop-color="#fff"/><stop offset="0.74" stop-color="#f7f7f7"/><stop offset="0.757" stop-color="#e0e0e0"/><stop offset="0.777" stop-color="#bababa"/><stop offset="0.801" stop-color="#868686"/><stop offset="0.827" stop-color="#444"/><stop offset="0.851"/></linearGradient><linearGradient id="linear-gradient-3" x1="94.134" y1="77.233" x2="102.424" y2="77.233" gradientUnits="userSpaceOnUse"><stop offset="0" stop-color="#a3a394"/><stop offset="0.05" stop-color="#b7b7ad"/><stop offset="0.12" stop-color="#cdcdc9"/><stop offset="0.181" stop-color="#dbdbda"/><stop offset="0.227" stop-color="#e0e0e0"/><stop offset="0.389" stop-color="#d2d2ce"/><stop offset="0.714" stop-color="#acaca0"/><stop offset="0.789" stop-color="#a3a394"/><stop offset="0.836" stop-color="#9e9e8f"/><stop offset="0.895" stop-color="#8e8e81"/><stop offset="0.959" stop-color="#75756a"/><stop offset="1" stop-color="#616158"/></linearGradient><linearGradient id="linear-gradient-4" x1="94.024" y1="81.006" x2="102.315" y2="81.006" xlink:href="#linear-gradient-3"/><linearGradient id="linear-gradient-5" x1="93.92" y1="84.403" x2="102.248" y2="84.403" xlink:href="#linear-gradient-3"/><linearGradient id="linear-gradient-6" x1="93.88" y1="88.553" x2="102.262" y2="88.553" xlink:href="#linear-gradient-3"/><linearGradient id="linear-gradient-7" x1="93.88" y1="92.327" x2="102.327" y2="92.327" xlink:href="#linear-gradient-3"/><linearGradient id="linear-gradient-8" x1="93.893" y1="95.723" x2="102.394" y2="95.723" xlink:href="#linear-gradient-3"/><linearGradient id="linear-gradient-9" x1="93.907" y1="99.497" x2="102.442" y2="99.497" xlink:href="#linear-gradient-3"/><linearGradient id="linear-gradient-10" x1="93.85" y1="102.893" x2="102.428" y2="102.893" xlink:href="#linear-gradient-3"/><linearGradient id="linear-gradient-11" x1="93.768" y1="106.667" x2="102.23" y2="106.667" xlink:href="#linear-gradient-3"/><radialGradient id="radial-gradient" cx="92.338" cy="111.506" r="11.631" gradientUnits="userSpaceOnUse"><stop offset="0.025" stop-color="#616158"/><stop offset="0.164" stop-color="#a3a394"/><stop offset="0.202" stop-color="#b7b7ad"/><stop offset="0.256" stop-color="#cdcdc9"/><stop offset="0.303" stop-color="#dbdbda"/><stop offset="0.337" stop-color="#e0e0e0"/><stop offset="0.492" stop-color="#d2d2ce"/><stop offset="0.8" stop-color="#acaca0"/><stop offset="0.872" stop-color="#a3a394"/><stop offset="0.9" stop-color="#9e9e8f"/><stop offset="0.936" stop-color="#8e8e81"/><stop offset="0.975" stop-color="#75756a"/><stop offset="1" stop-color="#616158"/></radialGradient><linearGradient id="linear-gradient-12" x1="539.594" y1="764.95" x2="548.154" y2="764.95" gradientTransform="matrix(0, 0.92, -1, 0, 853.582, -379.02)" xlink:href="#linear-gradient-3"/><linearGradient id="linear-gradient-13" x1="545.486" y1="761.535" x2="554.046" y2="761.535" gradientTransform="matrix(0, 0.934, -1, 0, 853.064, -393.993)" xlink:href="#linear-gradient-3"/><radialGradient id="radial-gradient-3" cx="92.338" cy="111.506" r="11.631" gradientTransform="translate(179.122 -14.506) rotate(71.963)" xlink:href="#radial-gradient"/><linearGradient id="linear-gradient-14" x1="558.479" y1="758.335" x2="567.039" y2="758.335" gradientTransform="matrix(0, 0.966, -1, 0, 852.617, -426.13)" xlink:href="#linear-gradient-3"/><linearGradient id="linear-gradient-15" x1="543.105" y1="-756.113" x2="551.665" y2="-756.113" gradientTransform="translate(-424.981 875.109) scale(0.973 1)" gradientUnits="userSpaceOnUse"><stop offset="0" stop-color="#616158"/><stop offset="0.215" stop-color="#a3a394"/><stop offset="0.25" stop-color="#a8a89a"/><stop offset="0.587" stop-color="#d3d3cf"/><stop offset="0.591" stop-color="#d2d2ce"/><stop offset="0.769" stop-color="#b0b0a4"/><stop offset="0.861" stop-color="#a3a394"/><stop offset="1" stop-color="#616158"/></linearGradient><linearGradient id="linear-gradient-16" x1="548.289" y1="-761.155" x2="556.849" y2="-761.155" gradientTransform="translate(-442.143 878.352) scale(0.986 1)" xlink:href="#linear-gradient-15"/><linearGradient id="linear-gradient-17" x1="533.514" y1="-751.45" x2="542.074" y2="-751.45" gradientTransform="translate(-398.614 871.887) scale(0.949 1)" xlink:href="#linear-gradient-15"/><radialGradient id="radial-gradient-4" cx="98.662" cy="75.745" r="57.007" gradientUnits="userSpaceOnUse"><stop offset="0" stop-color="#d57983"/><stop offset="0.155" stop-color="#d0767f"/><stop offset="0.341" stop-color="#c16b75"/><stop offset="0.543" stop-color="#a95b63"/><stop offset="0.756" stop-color="#87434a"/><stop offset="0.976" stop-color="#5c262b"/><stop offset="1" stop-color="#572227"/></radialGradient><mask id="mask" x="0" y="0" width="33.562" height="51.937" maskUnits="userSpaceOnUse"><g transform="translate(-83.219 -74.032)"><path class="cls-1" d="M116.485,119.2c-1.543-2.088-6.56-3.182-9.026-4.173a26.54,26.54,0,0,1-3.613-1.48c-3.089-1.827-1.94-6.082-1.864-9.12.2-7.811-.326-15.6-.077-23.408.032-1,.13-3.378.095-4.786,0-.14.065-.614.065-.742,0-.806-1.691-1.459-3.776-1.459s-3.775.653-3.775,1.459c0,.165.02.58.019.608-.057,3.212-.225,7.424-.238,10.642q-.022,5.722.021,11.444c.025,4.029-.2,8.073-.136,12.091.034,2.056.061,2.95-1.645,4.139-1.4.978-2.881,1.864-4.317,2.8-.944.613-1.915,1.247-2.855,1.863-3.405,2.229-2.448,5.121.728,6.73,1.633.826,4.348-1.7,6.071-2.672,1.633-.922,3.275-1.858,4.98-2.644,1.617-.746,3.284-.095,4.948.545a82.322,82.322,0,0,0,9.656,3.184c1.445.377,2.7.951,4.021-.335C116.458,123.209,117.211,120.183,116.485,119.2Z"/></g></mask><linearGradient id="linear-gradient-18" x1="83.219" y1="100" x2="116.781" y2="100" gradientUnits="userSpaceOnUse"><stop offset="0.334" stop-color="#d57983"/><stop offset="0.363" stop-color="#ebafb5"/><stop offset="0.385" stop-color="#fad1d5"/><stop offset="0.397" stop-color="#ffdee1"/><stop offset="0.476" stop-color="#d57983"/><stop offset="0.5" stop-color="#af5c65"/><stop offset="0.526" stop-color="#8e424c"/><stop offset="0.547" stop-color="#7a333c"/><stop offset="0.561" stop-color="#732d36"/></linearGradient><radialGradient id="radial-gradient-5" cx="98.195" cy="67.897" r="49.679" gradientTransform="translate(157.243 -30.298) rotate(90) scale(1 0.87)" gradientUnits="userSpaceOnUse"><stop offset="0.05" stop-color="#ce757f"/><stop offset="0.195" stop-color="#210d0f"/><stop offset="0.22" stop-color="#ce757f"/><stop offset="0.258" stop-color="#210d0f"/><stop offset="0.295" stop-color="#ce757f"/><stop offset="0.334" stop-color="#210d0f"/><stop offset="0.364" stop-color="#ce757f"/><stop offset="0.403" stop-color="#210d0f"/><stop offset="0.447" stop-color="#ce757f"/><stop offset="0.487" stop-color="#210d0f"/><stop offset="0.52" stop-color="#ce757f"/><stop offset="0.561" stop-color="#210d0f"/><stop offset="0.59" stop-color="#ce757f"/><stop offset="0.63" stop-color="#210d0f"/><stop offset="0.667" stop-color="#ce757f"/><stop offset="0.673" stop-color="#bb6972"/><stop offset="0.684" stop-color="#884b52"/><stop offset="0.7" stop-color="#381b1e"/><stop offset="0.704" stop-color="#210d0f"/><stop offset="0.736" stop-color="#cf767f"/><stop offset="0.741" stop-color="#bc6a73"/><stop offset="0.752" stop-color="#8a4c52"/><stop offset="0.767" stop-color="#3a1c1f"/><stop offset="0.772" stop-color="#210d0f"/><stop offset="0.812" stop-color="#d57983"/><stop offset="0.817" stop-color="#d07680"/><stop offset="0.822" stop-color="#c16d76"/><stop offset="0.828" stop-color="#a95f67"/><stop offset="0.834" stop-color="#874a51"/><stop offset="0.84" stop-color="#5c3035"/><stop offset="0.846" stop-color="#271113"/><stop offset="0.847" stop-color="#210d0f"/><stop offset="0.86" stop-color="#603338"/><stop offset="0.883" stop-color="#d57983"/></radialGradient><radialGradient id="radial-gradient-6" cx="98.289" cy="75.491" r="3.768" gradientTransform="translate(-83.219 -27.914) scale(1 0.389)" gradientUnits="userSpaceOnUse"><stop offset="0.819" stop-color="#d5aeb2"/><stop offset="0.873" stop-color="#d5a9ad"/><stop offset="0.941" stop-color="#d5999f"/><stop offset="1" stop-color="#d5868d"/></radialGradient><radialGradient id="radial-gradient-7" cx="98.289" cy="78.357" r="5.036" gradientTransform="translate(-83.219 -64.319) scale(1 0.876)" gradientUnits="userSpaceOnUse"><stop offset="0.429" stop-color="#732d36"/><stop offset="0.471" stop-color="#803740"/><stop offset="0.607" stop-color="#a5545d"/><stop offset="0.733" stop-color="#bf6872"/><stop offset="0.846" stop-color="#cf757f"/><stop offset="0.933" stop-color="#d57983"/></radialGradient><linearGradient id="linear-gradient-19" x1="94.097" y1="78.789" x2="102.424" y2="78.789" xlink:href="#linear-gradient-3"/><linearGradient id="linear-gradient-20" x1="93.974" y1="82.563" x2="102.316" y2="82.563" xlink:href="#linear-gradient-3"/><linearGradient id="linear-gradient-21" x1="93.892" y1="85.959" x2="102.248" y2="85.959" xlink:href="#linear-gradient-3"/><linearGradient id="linear-gradient-22" x1="93.878" y1="90.11" x2="102.285" y2="90.11" xlink:href="#linear-gradient-3"/><linearGradient id="linear-gradient-23" x1="93.88" y1="93.883" x2="102.358" y2="93.883" xlink:href="#linear-gradient-3"/><linearGradient id="linear-gradient-24" x1="93.893" y1="97.28" x2="102.419" y2="97.28" xlink:href="#linear-gradient-3"/><linearGradient id="linear-gradient-25" x1="93.889" y1="101.064" x2="102.445" y2="101.064" xlink:href="#linear-gradient-3"/><linearGradient id="linear-gradient-26" x1="93.814" y1="104.462" x2="102.428" y2="104.462" xlink:href="#linear-gradient-3"/><linearGradient id="linear-gradient-27" x1="93.752" y1="108.223" x2="102.23" y2="108.223" xlink:href="#linear-gradient-3"/><linearGradient id="linear-gradient-28" x1="539.596" y1="766.587" x2="548.152" y2="766.587" gradientTransform="matrix(0.505, 0.769, -0.836, 0.549, 453.373, -716.866)" xlink:href="#linear-gradient-3"/><linearGradient id="linear-gradient-29" x1="545.488" y1="763.172" x2="554.044" y2="763.172" gradientTransform="matrix(0.513, 0.78, -0.836, 0.549, 446.189, -727.802)" xlink:href="#linear-gradient-3"/><linearGradient id="linear-gradient-30" x1="558.481" y1="759.972" x2="567.037" y2="759.972" gradientTransform="matrix(0.531, 0.808, -0.836, 0.549, 429.522, -753.175)" xlink:href="#linear-gradient-3"/><linearGradient id="linear-gradient-31" x1="533.516" y1="-749.813" x2="542.072" y2="-749.813" gradientTransform="matrix(0.294, -0.902, 0.951, 0.31, 668.292, 838.441)" xlink:href="#linear-gradient-15"/><linearGradient id="linear-gradient-32" x1="543.107" y1="-754.476" x2="551.663" y2="-754.476" gradientTransform="matrix(0.301, -0.925, 0.951, 0.31, 661.5, 859.299)" xlink:href="#linear-gradient-15"/><linearGradient id="linear-gradient-33" x1="548.291" y1="-759.518" x2="556.847" y2="-759.518" gradientTransform="matrix(0.305, -0.937, 0.951, 0.31, 657.724, 870.894)" xlink:href="#linear-gradient-15"/><radialGradient id="radial-gradient-9" cx="100.827" cy="113.54" r="1.723" gradientTransform="matrix(0.978, 0.207, -0.449, 2.121, 53.179, -148.147)" gradientUnits="userSpaceOnUse"><stop offset="0.276" stop-color="#a3a394"/><stop offset="0.437" stop-color="#9e9e8f"/><stop offset="0.638" stop-color="#8e8e81"/><stop offset="0.859" stop-color="#75756a"/><stop offset="1" stop-color="#616158"/></radialGradient></defs><title>R-ICO-013968</title><g class="cls-3"><g id="Layer_1" data-name="Layer 1"><g id="R-ICO-013968"><g id="Tracheal_cartilages_BOTTOM"><path class="cls-4" d="M98.279,75.441c-2.4,0-4.145.753-4.145,1.792s1.743,1.792,4.145,1.792,4.145-.754,4.145-1.792S100.681,75.441,98.279,75.441Z" transform="translate(-83.219 -74.032)"/><path class="cls-5" d="M98.17,79.214c-2.4,0-4.146.754-4.146,1.792S95.768,82.8,98.17,82.8s4.145-.753,4.145-1.792S100.572,79.214,98.17,79.214Z" transform="translate(-83.219 -74.032)"/><path class="cls-6" d="M98.084,82.611c-2.413,0-4.164.753-4.164,1.792s1.751,1.791,4.164,1.791,4.164-.753,4.164-1.791S100.5,82.611,98.084,82.611Z" transform="translate(-83.219 -74.032)"/><path class="cls-7" d="M98.071,86.762c-2.429,0-4.191.753-4.191,1.792s1.762,1.791,4.191,1.791,4.191-.753,4.191-1.791S100.5,86.762,98.071,86.762Z" transform="translate(-83.219 -74.032)"/><path class="cls-8" d="M98.1,90.535c-2.447,0-4.224.754-4.224,1.792s1.777,1.792,4.224,1.792,4.223-.754,4.223-1.792S100.551,90.535,98.1,90.535Z" transform="translate(-83.219 -74.032)"/><path class="cls-9" d="M98.143,93.931c-2.463,0-4.25.754-4.25,1.792s1.787,1.792,4.25,1.792,4.251-.753,4.251-1.792S100.607,93.931,98.143,93.931Z" transform="translate(-83.219 -74.032)"/><path class="cls-10" d="M98.174,97.705c-2.473,0-4.267.754-4.267,1.792s1.794,1.792,4.267,1.792,4.268-.754,4.268-1.792S100.647,97.705,98.174,97.705Z" transform="translate(-83.219 -74.032)"/><path class="cls-11" d="M98.139,101.1c-2.485,0-4.289.754-4.289,1.792s1.8,1.792,4.289,1.792,4.289-.754,4.289-1.792S100.625,101.1,98.139,101.1Z" transform="translate(-83.219 -74.032)"/><path class="cls-12" d="M98,104.875c-2.452,0-4.231.753-4.231,1.792s1.779,1.792,4.231,1.792,4.231-.754,4.231-1.792S100.451,104.875,98,104.875Z" transform="translate(-83.219 -74.032)"/><path class="cls-13" d="M97.972,108.271c-2.441,0-4.212.754-4.212,1.792s1.771,1.792,4.212,1.792,4.213-.754,4.213-1.792S100.413,108.271,97.972,108.271Z" transform="translate(-83.219 -74.032)"/><ellipse class="cls-14" cx="88.632" cy="121.168" rx="1.769" ry="3.936" transform="matrix(0.836, -0.549, 0.549, 0.836, -135.19, -5.476)"/><ellipse class="cls-15" cx="91.53" cy="119.358" rx="1.769" ry="3.996" transform="matrix(0.836, -0.549, 0.549, 0.836, -133.721, -4.183)"/><path class="cls-13" d="M98.1,112.334c-1.89-.672-4.105-.8-4.49.281s1.416,2.38,3.306,3.052Z" transform="translate(-83.219 -74.032)"/><ellipse class="cls-16" cx="99.551" cy="116.1" rx="4.729" ry="1.769" transform="translate(-124.886 100.78) rotate(-71.963)"/><ellipse class="cls-17" cx="94.283" cy="117.72" rx="1.769" ry="4.136" transform="translate(-132.37 -2.94) rotate(-33.3)"/><ellipse class="cls-18" cx="107.372" cy="118.996" rx="4.162" ry="1.769" transform="translate(-122.241 110.216) rotate(-71.963)"/><ellipse class="cls-19" cx="102.654" cy="117.197" rx="4.22" ry="1.769" transform="matrix(0.31, -0.951, 0.951, 0.31, -123.786, 104.488)"/><ellipse class="cls-20" cx="111.806" cy="120.437" rx="4.062" ry="1.769" transform="translate(-120.549 115.427) rotate(-71.963)"/></g><g id="TRACHEA"><path id="BG" class="cls-21" d="M116.485,119.2c-1.543-2.088-6.56-3.182-9.026-4.173a26.54,26.54,0,0,1-3.613-1.48c-3.089-1.827-1.94-6.082-1.864-9.12.2-7.811-.326-15.6-.077-23.408.032-1,.13-3.378.095-4.786,0-.14.065-.614.065-.742,0-.806-1.691-1.459-3.776-1.459s-3.775.653-3.775,1.459c0,.165.02.58.019.608-.057,3.212-.225,7.424-.238,10.642q-.022,5.722.021,11.444c.025,4.029-.2,8.073-.136,12.091.034,2.056.061,2.95-1.645,4.139-1.4.978-2.881,1.864-4.317,2.8-.944.613-1.915,1.247-2.855,1.863-3.405,2.229-2.448,5.121.728,6.73,1.633.826,4.348-1.7,6.071-2.672,1.633-.922,3.275-1.858,4.98-2.644,1.617-.746,3.284-.095,4.948.545a82.322,82.322,0,0,0,9.656,3.184c1.445.377,2.7.951,4.021-.335C116.458,123.209,117.211,120.183,116.485,119.2Z" transform="translate(-83.219 -74.032)"/><g class="cls-22"><path id="SHINE" class="cls-23" d="M116.485,119.2c-1.543-2.088-6.56-3.182-9.026-4.173a26.54,26.54,0,0,1-3.613-1.48c-3.089-1.827-1.94-6.082-1.864-9.12.2-7.811-.326-15.6-.077-23.408.032-1,.13-3.378.095-4.786,0-.14.065-.614.065-.742,0-.806-1.691-1.459-3.776-1.459s-3.775.653-3.775,1.459c0,.165.02.58.019.608-.057,3.212-.225,7.424-.238,10.642q-.022,5.722.021,11.444c.025,4.029-.2,8.073-.136,12.091.034,2.056.061,2.95-1.645,4.139-1.4.978-2.881,1.864-4.317,2.8-.944.613-1.915,1.247-2.855,1.863-3.405,2.229-2.448,5.121.728,6.73,1.633.826,4.348-1.7,6.071-2.672,1.633-.922,3.275-1.858,4.98-2.644,1.617-.746,3.284-.095,4.948.545a82.322,82.322,0,0,0,9.656,3.184c1.445.377,2.7.951,4.021-.335C116.458,123.209,117.211,120.183,116.485,119.2Z" transform="translate(-83.219 -74.032)"/></g><g class="cls-22"><path id="TEXTURE" class="cls-24" d="M116.485,119.2c-1.543-2.088-6.56-3.182-9.026-4.173a26.54,26.54,0,0,1-3.613-1.48c-3.089-1.827-1.94-6.082-1.864-9.12.2-7.811-.326-15.6-.077-23.408.032-1,.13-3.378.095-4.786,0-.14.065-.614.065-.742,0-.806-1.691-1.459-3.776-1.459s-3.775.653-3.775,1.459c0,.165.02.58.019.608-.057,3.212-.225,7.424-.238,10.642q-.022,5.722.021,11.444c.025,4.029-.2,8.073-.136,12.091.034,2.056.061,2.95-1.645,4.139-1.4.978-2.881,1.864-4.317,2.8-.944.613-1.915,1.247-2.855,1.863-3.405,2.229-2.448,5.121.728,6.73,1.633.826,4.348-1.7,6.071-2.672,1.633-.922,3.275-1.858,4.98-2.644,1.617-.746,3.284-.095,4.948.545a82.322,82.322,0,0,0,9.656,3.184c1.445.377,2.7.951,4.021-.335C116.458,123.209,117.211,120.183,116.485,119.2Z" transform="translate(-83.219 -74.032)"/></g><g id="TOP"><ellipse class="cls-25" cx="15.07" cy="1.459" rx="3.776" ry="1.459"/><ellipse class="cls-26" cx="15.07" cy="1.459" rx="3.395" ry="1.312"/></g></g><g id="Tracheal_cartilages_TOP"><path class="cls-27" d="M95.284,80.029a7.872,7.872,0,0,0,2.976.505,8.1,8.1,0,0,0,2.88-.464c.828-.328,1.284-.8,1.284-1.328a.664.664,0,0,0-.01-.1v-.009c.012-.49.013-.928,0-1.341a.2.2,0,0,0-.193-.185h-.006a.2.2,0,0,0-.2.174.845.845,0,0,1-.36.563,4.41,4.41,0,0,1-2.041.711,9.79,9.79,0,0,1-2.678,0,4.332,4.332,0,0,1-2.058-.726.8.8,0,0,1-.35-.6.194.194,0,0,0-.2-.189h0a.194.194,0,0,0-.2.185q-.015.754-.037,1.508C94.1,79.246,94.518,79.7,95.284,80.029Z" transform="translate(-83.219 -74.032)"/><path class="cls-28" d="M94.761,83.605a6.983,6.983,0,0,0,3.363.7,7.1,7.1,0,0,0,3.32-.679,1.357,1.357,0,0,0,.831-1.113c.01-.489.023-.981.04-1.473v-.025a.193.193,0,0,0-.2-.188H102.1a.2.2,0,0,0-.187.185.829.829,0,0,1-.383.618,4.478,4.478,0,0,1-2.024.7,9.79,9.79,0,0,1-2.678,0,4.319,4.319,0,0,1-2.065-.732.792.792,0,0,1-.344-.591.193.193,0,0,0-.2-.188h0a.194.194,0,0,0-.2.182l0,.126q-.024.691-.046,1.384A1.329,1.329,0,0,0,94.761,83.605Z" transform="translate(-83.219 -74.032)"/><path class="cls-29" d="M95.7,87.413a9.784,9.784,0,0,0,4.741,0c1.148-.32,1.807-.867,1.807-1.5a.294.294,0,0,0-.005-.051c0-.475,0-.96.005-1.446a.2.2,0,0,0-.2-.19h0a.2.2,0,0,0-.2.176h0v.01a.811.811,0,0,1-.368.6,4.446,4.446,0,0,1-2.052.712,9.885,9.885,0,0,1-2.691,0A4.386,4.386,0,0,1,94.674,85a.8.8,0,0,1-.356-.6.194.194,0,0,0-.2-.189h0a.194.194,0,0,0-.2.184q-.018.756-.028,1.512C93.892,86.546,94.551,87.093,95.7,87.413Z" transform="translate(-83.219 -74.032)"/><path class="cls-30" d="M95.12,91.37a9.264,9.264,0,0,0,5.946-.01c.786-.326,1.219-.787,1.219-1.3s-.016-1.01-.023-1.513a.194.194,0,0,0-.2-.186h0a.193.193,0,0,0-.2.188.8.8,0,0,1-.361.6,4.461,4.461,0,0,1-2.08.722,9.934,9.934,0,0,1-1.352.091,9.8,9.8,0,0,1-1.354-.092,4.49,4.49,0,0,1-2.069-.713.8.8,0,0,1-.37-.609.194.194,0,0,0-.2-.189h0a.194.194,0,0,0-.2.188q0,.755,0,1.51v.02C93.9,90.6,94.336,91.05,95.12,91.37Z" transform="translate(-83.219 -74.032)"/><path class="cls-31" d="M94.079,92.14h0a.193.193,0,0,0-.2.187v0l.005,1.506a1.351,1.351,0,0,0,.837,1.108,8.782,8.782,0,0,0,6.822-.013,1.337,1.337,0,0,0,.814-1.095l-.01-.5-.021-1.011a.2.2,0,0,0-.2-.185h0a.2.2,0,0,0-.2.189.794.794,0,0,1-.36.6,4.5,4.5,0,0,1-2.1.725,10.194,10.194,0,0,1-2.733,0,4.563,4.563,0,0,1-2.083-.712.807.807,0,0,1-.375-.609v-.007h0A.2.2,0,0,0,94.079,92.14Z" transform="translate(-83.219 -74.032)"/><path class="cls-32" d="M93.9,97.234c0,.515.447.98,1.259,1.306a9.508,9.508,0,0,0,6.014-.006c.8-.327,1.245-.789,1.245-1.3s-.016-1.01-.025-1.513a.194.194,0,0,0-.2-.185h0a.193.193,0,0,0-.2.188.8.8,0,0,1-.365.6,4.567,4.567,0,0,1-2.111.723,10.336,10.336,0,0,1-2.752,0,4.628,4.628,0,0,1-2.1-.71.81.81,0,0,1-.38-.607v-.01h0a.2.2,0,0,0-.2-.18h0a.191.191,0,0,0-.2.185v.009h0Z" transform="translate(-83.219 -74.032)"/><path class="cls-33" d="M102.242,99.308h0a.194.194,0,0,0-.2.189.808.808,0,0,1-.387.617,4.744,4.744,0,0,1-2.152.713,10.311,10.311,0,0,1-1.33.084,10.421,10.421,0,0,1-1.278-.077,4.762,4.762,0,0,1-2.21-.726.8.8,0,0,1-.381-.611.2.2,0,0,0-.2-.189h0a.194.194,0,0,0-.2.188c0,.509-.01,1.018-.018,1.528a1.326,1.326,0,0,0,.8,1.088,8.922,8.922,0,0,0,6.926.015,1.344,1.344,0,0,0,.829-1.1v-.02q0-.756,0-1.511A.2.2,0,0,0,102.242,99.308Z" transform="translate(-83.219 -74.032)"/><path class="cls-34" d="M95.016,105.706a8.309,8.309,0,0,0,3.09.513,8.586,8.586,0,0,0,2.975-.465c.849-.328,1.316-.8,1.316-1.327.013-.5.024-1.005.031-1.51v-.024a.193.193,0,0,0-.2-.188h0a.194.194,0,0,0-.2.186v.018a.835.835,0,0,1-.407.615,4.914,4.914,0,0,1-2.21.708,10.546,10.546,0,0,1-1.274.076,10.311,10.311,0,0,1-1.33-.084,4.741,4.741,0,0,1-2.183-.724.8.8,0,0,1-.377-.607.194.194,0,0,0-.2-.188h0a.2.2,0,0,0-.2.185l-.02.856-.015.653a.085.085,0,0,0,0,.016v.013C93.814,104.927,94.241,105.381,95.016,105.706Z" transform="translate(-83.219 -74.032)"/><path class="cls-35" d="M94.581,109.285a7.189,7.189,0,0,0,3.357.683,7.1,7.1,0,0,0,3.394-.7,1.33,1.33,0,0,0,.792-1.089c.02-.477.058-.956.094-1.361a.923.923,0,0,0,.012-.148.194.194,0,0,0-.19-.189h-.009a.2.2,0,0,0-.2.173l-.011.117a.935.935,0,0,1-.412.545,4.757,4.757,0,0,1-2.042.677,10.343,10.343,0,0,1-2.738,0,4.546,4.546,0,0,1-2.1-.722.8.8,0,0,1-.364-.6.194.194,0,0,0-.2-.189h0a.2.2,0,0,0-.2.186q-.012.756-.016,1.511A1.351,1.351,0,0,0,94.581,109.285Z" transform="translate(-83.219 -74.032)"/><path class="cls-36" d="M90.789,124.236h0a.186.186,0,0,0-.258-.05.823.823,0,0,1-.712.042,4.146,4.146,0,0,1-1.682-1.263,8.954,8.954,0,0,1-1.323-2,4.165,4.165,0,0,1-.509-2.1.821.821,0,0,1,.319-.628.186.186,0,0,0,.057-.256h0a.185.185,0,0,0-.257-.05q-.642.415-1.287.825a1.328,1.328,0,0,0-.5,1.212A6.323,6.323,0,0,0,85.8,123.03a6.389,6.389,0,0,0,2.319,2.271,1.34,1.34,0,0,0,1.338.034l.008-.006.009,0q.633-.414,1.262-.832A.186.186,0,0,0,90.789,124.236Z" transform="translate(-83.219 -74.032)"/><path class="cls-37" d="M93.718,122.474h0a.188.188,0,0,0-.26-.051.822.822,0,0,1-.714.037,4.239,4.239,0,0,1-1.7-1.289,9.106,9.106,0,0,1-1.343-2.032,4.268,4.268,0,0,1-.527-2.123.815.815,0,0,1,.316-.632.188.188,0,0,0,.056-.259h0a.188.188,0,0,0-.259-.053q-.64.416-1.287.825a1.327,1.327,0,0,0-.5,1.222,6.49,6.49,0,0,0,1.191,3.1,6.568,6.568,0,0,0,2.346,2.312,1.344,1.344,0,0,0,1.345.043l.007-.006.01-.005q.631-.414,1.261-.832A.187.187,0,0,0,93.718,122.474Z" transform="translate(-83.219 -74.032)"/><path class="cls-38" d="M96.544,120.948h0a.191.191,0,0,0-.263-.057.812.812,0,0,1-.722.026,4.467,4.467,0,0,1-1.737-1.347,9.423,9.423,0,0,1-.776-1.027,9.576,9.576,0,0,1-.614-1.076,4.493,4.493,0,0,1-.566-2.183.807.807,0,0,1,.309-.643.19.19,0,0,0,.052-.264h0a.19.19,0,0,0-.262-.057q-.642.415-1.287.824a1.325,1.325,0,0,0-.485,1.243,8.351,8.351,0,0,0,3.662,5.6,1.338,1.338,0,0,0,1.359.066l.008,0,.009-.006q.633-.414,1.262-.832A.19.19,0,0,0,96.544,120.948Z" transform="translate(-83.219 -74.032)"/><path class="cls-39" d="M112.891,116.722h0a.188.188,0,0,0,.121.237.816.816,0,0,1,.473.541,4.338,4.338,0,0,1,.045,2.163,9.253,9.253,0,0,1-.31,1.226,9.4,9.4,0,0,1-.449,1.13,4.377,4.377,0,0,1-1.34,1.77.816.816,0,0,1-.693.154.188.188,0,0,0-.238.12h0a.19.19,0,0,0,.12.238q.724.24,1.448.489a1.324,1.324,0,0,0,1.269-.385,8.068,8.068,0,0,0,2.05-6.246,1.341,1.341,0,0,0-.8-1.089l-.009,0-.011,0q-.717-.236-1.437-.466A.189.189,0,0,0,112.891,116.722Z" transform="translate(-83.219 -74.032)"/><path class="cls-40" d="M108.486,115.191h0a.192.192,0,0,0,.12.242.812.812,0,0,1,.47.55,4.519,4.519,0,0,1,.03,2.21,9.685,9.685,0,0,1-.32,1.256,9.81,9.81,0,0,1-.459,1.159,4.553,4.553,0,0,1-1.355,1.819.808.808,0,0,1-.7.162.191.191,0,0,0-.239.125h0a.192.192,0,0,0,.119.242q.725.242,1.447.49a1.326,1.326,0,0,0,1.276-.4,8.463,8.463,0,0,0,2.1-6.4,1.34,1.34,0,0,0-.8-1.107l-.009,0-.011,0q-.717-.236-1.437-.465A.191.191,0,0,0,108.486,115.191Z" transform="translate(-83.219 -74.032)"/><path class="cls-41" d="M103.786,113.339h0a.193.193,0,0,0,.119.245.811.811,0,0,1,.468.554,4.626,4.626,0,0,1,.021,2.238,9.8,9.8,0,0,1-.326,1.273,9.9,9.9,0,0,1-.464,1.175,4.645,4.645,0,0,1-1.364,1.847.808.808,0,0,1-.7.168.193.193,0,0,0-.24.127h0a.193.193,0,0,0,.118.245q.725.24,1.447.49a1.328,1.328,0,0,0,1.279-.414,7.18,7.18,0,0,0,1.734-3.041,7.266,7.266,0,0,0,.4-3.447,1.342,1.342,0,0,0-.793-1.118l-.009,0-.01,0q-.719-.235-1.438-.466A.193.193,0,0,0,103.786,113.339Z" transform="translate(-83.219 -74.032)"/><path class="cls-13" d="M103.3,113.313a1.9,1.9,0,0,0-.375-.947,3.288,3.288,0,0,1-.53-1.314c-.074-.317-.165-.666-.21-1.012a.2.2,0,0,0-.2-.166h-.013a.193.193,0,0,0-.187.188.7.7,0,0,1-.232.486,4.069,4.069,0,0,1-2.218.837,10.268,10.268,0,0,1-2.728,0,4.594,4.594,0,0,1-2.067-.7.825.825,0,0,1-.383-.6v0h0a.2.2,0,0,0-.2-.191h0a.185.185,0,0,0-.2.178v.023l0,.193v.045c.008.471.016.878,0,1.24,0,1.047,1.853,1.8,4.407,1.8a5,5,0,0,0,1.488-.223c.7-.166.405.278.342.568a5.2,5.2,0,0,1-1.172,1.63,1.357,1.357,0,0,1-1.278.237c-.179-.053-.359-.111-.538-.174a9.662,9.662,0,0,1-1.138-.487,4.5,4.5,0,0,1-1.77-1.4.807.807,0,0,1-.141-.7.191.191,0,0,0-.118-.242h0a.192.192,0,0,0-.245.112c-.173.479-.077.2-.255.677a1.327,1.327,0,0,0,.364,1.284,7.729,7.729,0,0,0,2.213,1.928c1.514.945,3.075,2.2,2.81,3.152a.553.553,0,0,1-.435.45.234.234,0,0,0-.248.151h0a.208.208,0,0,0,.11.268c.484.161.24.079.722.246a1.343,1.343,0,0,0,1.308-.5,8.883,8.883,0,0,0,1.862-3.435C102.533,115.423,103.449,114.27,103.3,113.313Zm-2.086,3.32c-.244.264-1.151-.035-1.866-.314a7.489,7.489,0,0,0,2.72-4.01c.071-.345.184-.151.178.011C102.133,115.267,101.661,116.149,101.212,116.633Z" transform="translate(-83.219 -74.032)"/><path class="cls-42" d="M102.244,112.32c-.111,2.947-.583,3.829-1.032,4.313a.623.623,0,0,1-.526.088.6.6,0,0,0,.36-.235,6.927,6.927,0,0,0,.932-3.835s.065-.231.088-.342C102.137,111.964,102.25,112.158,102.244,112.32Z" transform="translate(-83.219 -74.032)"/></g></g></g></g></svg>