<svg id="Layer_1" data-name="Layer 1" xmlns="http://www.w3.org/2000/svg" viewBox="0 0 86.894 86.895"><defs><style>.cls-1{fill:#ffeac5;}.cls-2{fill:#ffcb70;}.cls-3,.cls-4{fill:none;stroke-linecap:round;stroke-linejoin:round;stroke-width:3px;}.cls-3{stroke:#ffbc47;}.cls-4{stroke:#eba52c;stroke-dasharray:0.5 5;}</style></defs><title>Vesicle_generic</title><g id="Vesicle_generic"><path id="BG" class="cls-1" d="M100,141.947A41.947,41.947,0,1,1,141.947,100,42,42,0,0,1,100,141.947Z" transform="translate(-56.553 -56.553)"/><path id="membrane_BG" class="cls-2" d="M100,141.947A41.947,41.947,0,1,1,141.947,100,41.995,41.995,0,0,1,100,141.947ZM100,65.7A34.3,34.3,0,1,0,134.3,100,34.338,34.338,0,0,0,100,65.7Z" transform="translate(-56.553 -56.553)"/><path id="membrane_LINES" class="cls-3" d="M100,141.947A41.947,41.947,0,1,1,141.947,100,41.995,41.995,0,0,1,100,141.947ZM100,65.7A34.3,34.3,0,1,0,134.3,100,34.338,34.338,0,0,0,100,65.7Z" transform="translate(-56.553 -56.553)"/><path id="membrane_DOTED" class="cls-4" d="M100,141.947A41.947,41.947,0,1,1,141.947,100,41.995,41.995,0,0,1,100,141.947ZM100,65.7A34.3,34.3,0,1,0,134.3,100,34.338,34.338,0,0,0,100,65.7Z" transform="translate(-56.553 -56.553)"/></g></svg>