<svg id="Layer_1" data-name="Layer 1" xmlns="http://www.w3.org/2000/svg" xmlns:xlink="http://www.w3.org/1999/xlink" viewBox="0 0 97.632 83.232"><defs><style>.cls-1{fill:url(#radial-gradient);}</style><radialGradient id="radial-gradient" cx="98.608" cy="100.532" r="50.543" gradientTransform="translate(51.908 -18.143) rotate(29.162) scale(1 0.804)" gradientUnits="userSpaceOnUse"><stop offset="0.592" stop-color="#00a0ec"/><stop offset="1" stop-color="#cfa01d"/></radialGradient></defs><title>caveolin</title><path id="CAVEOLIN" class="cls-1" d="M98.527,141.981a10.539,10.539,0,0,1-2.5-.332c-6.753-1.647-6.186-6.317-5.811-9.407.355-2.93.315-4.016-1.531-4.708-2.123-.792-3.123.266-5.063,3.062-1.6,2.308-4.023,5.793-8.331,3.373-6.313-3.546-4.217-8.152-2.83-11.2s1.777-4.43.056-5.91c-1.77-1.521-3.255-.839-6.224,1.079-2.019,1.3-4.1,2.655-6.441,2.092-1.55-.373-2.867-1.526-4.027-3.527-2.6-4.482.924-7.042,3.5-8.912,2.962-2.153,4.732-3.628,3.859-6.678-.765-2.673-2.219-2.72-5.17-2.574-1.916.1-4.09.2-5.657-1.286-1.164-1.108-1.73-2.883-1.73-5.428,0-7.27,5.064-7.526,8.415-7.7,2.469-.125,3.679-.294,4.117-1.3,1.669-3.816-.218-5.44-2.4-7.32-1.414-1.217-2.877-2.476-2.924-4.359-.032-1.311.655-2.619,2.1-4,2.027-1.93,3.863-2.831,5.629-2.761,2.3.093,3.835,1.813,5.069,3.194,1.556,1.741,2.144,2.2,3.053,1.838,1.994-.785,3.2-1.712,3.575-2.756.521-1.437-.479-3.262-1.361-4.872l-.35-.644A1.5,1.5,0,0,1,78.2,59.545l.332.611c1.069,1.951,2.533,4.623,1.552,7.335-.693,1.917-2.427,3.4-5.3,4.527C71.8,73.2,69.832,71,68.4,69.388c-.989-1.107-1.924-2.153-2.954-2.2-.868-.037-2.07.634-3.438,1.937-1.073,1.021-1.179,1.564-1.174,1.75.014.553.963,1.371,1.882,2.161,2.29,1.971,5.751,4.95,3.193,10.8-1.229,2.812-4.27,2.965-6.713,3.089-3.76.19-5.567.47-5.567,4.7,0,1.632.276,2.757.8,3.254.635.6,2,.537,3.439.463,2.683-.135,6.749-.338,8.2,4.745,1.494,5.222-2.248,7.943-4.98,9.929-3.12,2.269-3.76,3.092-2.664,4.981.716,1.236,1.434,1.947,2.134,2.116,1.08.259,2.555-.69,4.111-1.7,2.6-1.678,6.155-3.973,9.807-.833,3.6,3.1,1.936,6.755.72,9.428-1.46,3.208-2.342,5.146,1.568,7.342,1.706.958,2.429.371,4.4-2.468,1.714-2.47,4.058-5.853,8.579-4.161,4.224,1.58,3.781,5.221,3.458,7.878-.387,3.19-.621,5.116,3.544,6.132,3.563.867,3.956-.458,4.824-3.361.795-2.661,1.885-6.3,6.845-6.3,5.538,0,6.541,3.85,7.205,6.4.368,1.412.686,2.631,1.5,3.109.761.445,2.179.413,4.1-.089,1.5-.393,2.464-.928,2.779-1.547.441-.87-.182-2.456-.784-3.99-1.114-2.835-2.8-7.12,2.073-9.884,4.332-2.458,7.092-.071,8.917,1.507.944.816,1.774,1.532,2.47,1.461.477-.039,1.328-.423,2.678-2.036,1.777-2.125,1.193-2.8-1.107-4.812-2-1.749-5.021-4.393-2.836-8.957,2.09-4.365,5.443-4.937,7.662-5.315,2.176-.371,2.4-.41,2.127-2.51-.18-1.373-.966-1.661-3.773-2-2.534-.31-6-.734-6.81-4.662-1.045-5.094,1.239-8.467,5.783-9.858a1.5,1.5,0,1,1,.879,2.868c-5.764,1.765-4.108,4.512-3.723,6.388.338,1.65,1.489,1.951,4.234,2.286,2.479.3,5.875.719,6.384,4.591.651,4.963-2.507,5.5-4.6,5.857s-4.041.689-5.461,3.653c-1.147,2.4-.067,3.5,2.106,5.4,2.06,1.8,5.172,4.524,1.433,8.994-1.664,1.989-3.169,2.975-4.737,3.1-1.949.161-3.4-1.085-4.672-2.182-1.961-1.695-3.1-2.517-5.476-1.167s-2.1,2.768-.762,6.178c.806,2.051,1.719,4.375.666,6.446-.734,1.445-2.27,2.456-4.693,3.09-2.828.741-4.853.668-6.378-.225-1.888-1.106-2.418-3.143-2.887-4.941-.711-2.729-1.226-4.154-4.3-4.154-2.6,0-3.152,1.428-3.971,4.164C103.734,138.594,102.721,141.981,98.527,141.981Z" transform="translate(-50.625 -58.749)"/></svg>