<svg id="Layer_1" data-name="Layer 1" xmlns="http://www.w3.org/2000/svg" xmlns:xlink="http://www.w3.org/1999/xlink" viewBox="0 0 152 74.619"><defs><style>.cls-1{fill:url(#radial-gradient);}.cls-2{fill:#eda813;}.cls-3{fill:url(#linear-gradient);}.cls-4{fill:url(#linear-gradient-2);}.cls-5{fill:url(#linear-gradient-3);}.cls-6{fill:url(#linear-gradient-4);}.cls-7{fill:url(#linear-gradient-5);}.cls-8{fill:url(#linear-gradient-6);}.cls-9{fill:url(#linear-gradient-7);}.cls-10{fill:url(#linear-gradient-8);}.cls-11{fill:url(#linear-gradient-9);}.cls-12{fill:url(#linear-gradient-10);}.cls-13{fill:url(#linear-gradient-11);}.cls-14{fill:url(#linear-gradient-12);}.cls-15{fill:url(#linear-gradient-13);}.cls-16{fill:url(#linear-gradient-14);}.cls-17{fill:url(#linear-gradient-15);}.cls-18{fill:url(#linear-gradient-16);}.cls-19{fill:url(#linear-gradient-17);}.cls-20{fill:url(#linear-gradient-18);}.cls-21{fill:none;stroke:#8f650b;stroke-miterlimit:10;stroke-width:2px;}</style><radialGradient id="radial-gradient" cx="21.496" cy="-34.584" r="75.479" gradientTransform="matrix(0.744, 0.25, -0.25, 0.744, 47.593, 109.136)" gradientUnits="userSpaceOnUse"><stop offset="0.177" stop-color="#eda813"/><stop offset="0.41" stop-color="#eaa613"/><stop offset="0.568" stop-color="#e1a012"/><stop offset="0.704" stop-color="#d29511"/><stop offset="0.826" stop-color="#bd850f"/><stop offset="0.94" stop-color="#a1720d"/><stop offset="1" stop-color="#8f650b"/></radialGradient><linearGradient id="linear-gradient" x1="37.241" y1="111.45" x2="63.698" y2="112.029" gradientUnits="userSpaceOnUse"><stop offset="0" stop-color="#8f650b"/><stop offset="1" stop-color="#eda813"/></linearGradient><linearGradient id="linear-gradient-2" x1="50.861" y1="114.228" x2="105.496" y2="115.424" gradientUnits="userSpaceOnUse"><stop offset="0" stop-color="#eda813"/><stop offset="1" stop-color="#8f650b"/></linearGradient><linearGradient id="linear-gradient-3" x1="114.671" y1="109.134" x2="121.313" y2="109.279" xlink:href="#linear-gradient-2"/><linearGradient id="linear-gradient-4" x1="42.507" y1="78.464" x2="61.015" y2="78.869" xlink:href="#linear-gradient"/><linearGradient id="linear-gradient-5" x1="24.718" y1="101.199" x2="47.19" y2="101.691" xlink:href="#linear-gradient"/><linearGradient id="linear-gradient-6" x1="134.432" y1="87.714" x2="175.982" y2="88.624" xlink:href="#linear-gradient-2"/><linearGradient id="linear-gradient-7" x1="89.879" y1="79.882" x2="109.784" y2="80.317" xlink:href="#linear-gradient"/><linearGradient id="linear-gradient-8" x1="136.103" y1="96.8" x2="167.603" y2="97.49" xlink:href="#linear-gradient-2"/><linearGradient id="linear-gradient-9" x1="45.294" y1="111.387" x2="93.209" y2="112.436" xlink:href="#linear-gradient-2"/><linearGradient id="linear-gradient-10" x1="57.611" y1="105.26" x2="30.782" y2="105.847" xlink:href="#linear-gradient-2"/><linearGradient id="linear-gradient-11" x1="128.091" y1="85.113" x2="137.459" y2="85.319" xlink:href="#linear-gradient-2"/><linearGradient id="linear-gradient-12" x1="144.204" y1="81.568" x2="172.771" y2="82.194" xlink:href="#linear-gradient"/><linearGradient id="linear-gradient-13" x1="107.318" y1="80.941" x2="130.002" y2="81.437" xlink:href="#linear-gradient"/><linearGradient id="linear-gradient-14" x1="74.574" y1="86.009" x2="108.015" y2="86.741" xlink:href="#linear-gradient"/><linearGradient id="linear-gradient-15" x1="32.456" y1="92.473" x2="81.581" y2="93.549" xlink:href="#linear-gradient"/><linearGradient id="linear-gradient-16" x1="65.999" y1="106.098" x2="109.859" y2="107.058" xlink:href="#linear-gradient-2"/><linearGradient id="linear-gradient-17" x1="125.812" y1="93.789" x2="103.911" y2="94.269" xlink:href="#linear-gradient-2"/><linearGradient id="linear-gradient-18" x1="70.74" y1="98.888" x2="133.663" y2="100.265" xlink:href="#linear-gradient"/></defs><title>PANCREAS</title><g id="PANCREAS"><path id="BG" class="cls-1" d="M172.865,89.5a4.945,4.945,0,0,0,.593-7.661,4.977,4.977,0,0,0-3.352-4.147c-.134-.045-.27-.059-.406-.092a12.073,12.073,0,0,0-1.249-.7,4.937,4.937,0,0,0-6.163-1.628,4.856,4.856,0,0,0-5.957.307l-.074.011c-.137-.06-.262-.135-.406-.184a4.969,4.969,0,0,0-4.807.942,4.9,4.9,0,0,0-.448-.2,4.987,4.987,0,0,0-5.3,1.4c-.428.057-.859.112-1.3.164-.057-.022-.107-.055-.165-.075a4.962,4.962,0,0,0-3.7.219,4.854,4.854,0,0,0-5.99.337,4.9,4.9,0,0,0-.448-.2,4.962,4.962,0,0,0-3.7.219,4.854,4.854,0,0,0-5.99.337,4.37,4.37,0,0,0-3.822-.106l-.521-.021a4.9,4.9,0,0,0-4.627-.26l-.085-.006a4.816,4.816,0,0,0-4.78-.384l-.805-.078a4.918,4.918,0,0,0-5.405-.6l-.45-.059a4.942,4.942,0,0,0-4.842-.984,4.958,4.958,0,0,0-7.116-1.122,4.923,4.923,0,0,0-6.852-1.312l-.476-.114A4.914,4.914,0,0,0,78.55,71.97c-.235-.069-.471-.137-.705-.206a4.9,4.9,0,0,0-6.125-2.029c-.206-.075-.413-.149-.617-.225a4.926,4.926,0,0,0-5.528-2.26q-.195-.083-.391-.159a4.947,4.947,0,0,0-7.948-2.183,4.966,4.966,0,0,0-5.055,2.17A4.966,4.966,0,0,0,47.4,69.8a4.969,4.969,0,0,0-3.677,3.27,4.9,4.9,0,0,0-.109.479,4.969,4.969,0,0,0-3.652,3.265c-.044.131-.057.264-.09.4l-.092.1a4.882,4.882,0,0,0-3.806,4.426q-.814,1.057-1.58,2.157a4.935,4.935,0,0,0-1.052,1.576q-.782,1.213-1.5,2.465a4.528,4.528,0,0,0-1.462,2.746q-.485.984-.921,1.984a4.933,4.933,0,0,0-1.986,5.472c-.025.087-.053.174-.077.261a4.927,4.927,0,0,0-1.621,5.86c-.042.1-.1.192-.135.3a4.962,4.962,0,0,0,.219,3.7,4.887,4.887,0,0,0,1.407,6.933,4.968,4.968,0,0,0,1.984,4.321c.083.142.166.284.253.425a4.972,4.972,0,0,0,3.368,4.831,4.973,4.973,0,0,0,3.376,4.89,4.9,4.9,0,0,0,.479.109,4.854,4.854,0,0,0,4.573,3.883,4.927,4.927,0,0,0,6.269,2.278c.1.042.192.1.3.135a4.976,4.976,0,0,0,4.7-.838,9.626,9.626,0,0,0,1.082-.552,4.968,4.968,0,0,0,3.478-3.1q.287-.353.559-.721A4.867,4.867,0,0,0,61.19,126.1a4.237,4.237,0,0,0,2.533-5.32,4.26,4.26,0,0,0,1.628-2.149l.005-.022a4.96,4.96,0,0,0,.521-.391l.341-.011a4.858,4.858,0,0,0,5.947-.265l.169-.009c.116.049.22.113.341.154a4.956,4.956,0,0,0,4.067-.423c.611-.041,1.247-.088,1.879-.135.145.065.28.144.434.2a4.962,4.962,0,0,0,3.7-.219,4.854,4.854,0,0,0,5.99-.337,4.9,4.9,0,0,0,.448.2A4.969,4.969,0,0,0,94,116.435a4.9,4.9,0,0,0,.448.2,4.969,4.969,0,0,0,4.807-.941,4.9,4.9,0,0,0,.448.2,4.969,4.969,0,0,0,4.807-.941,4.9,4.9,0,0,0,.448.2,4.969,4.969,0,0,0,4.826-.959,4.965,4.965,0,0,0,4.048-1.04l.14-.025c.125.054.24.124.371.168a4.969,4.969,0,0,0,4.826-.959,4.964,4.964,0,0,0,4.06-1.052l.1-.023c.133.058.254.131.394.178a4.969,4.969,0,0,0,4.826-.959,4.979,4.979,0,0,0,4.645-1.6c.329-.088.658-.173.986-.262a4.961,4.961,0,0,0,4.113-1.1,4.9,4.9,0,0,0,.448.2,4.972,4.972,0,0,0,5.642-1.862,4.977,4.977,0,0,0,5.741-2.014,4.968,4.968,0,0,0,4.4-2.092,4.977,4.977,0,0,0,5.741-2.014,4.966,4.966,0,0,0,4.781-2.721,4.961,4.961,0,0,0,3.383-2.62,4.969,4.969,0,0,0,3.677-3.27,4.912,4.912,0,0,0,.133-.587A11.38,11.38,0,0,0,172.865,89.5Z" transform="translate(-24 -62.691)"/><path id="FG" class="cls-2" d="M174.742,87.01a4.977,4.977,0,0,0-1.284-5.175,4.977,4.977,0,0,0-3.352-4.147c-.134-.045-.27-.059-.406-.092a12.073,12.073,0,0,0-1.249-.7,4.937,4.937,0,0,0-6.163-1.628,4.856,4.856,0,0,0-5.957.307l-.074.011c-.137-.06-.262-.135-.406-.184a4.969,4.969,0,0,0-4.807.942,4.9,4.9,0,0,0-.448-.2,4.987,4.987,0,0,0-5.3,1.4c-.428.057-.859.112-1.3.164-.057-.022-.107-.055-.165-.075a4.962,4.962,0,0,0-3.7.219,4.854,4.854,0,0,0-5.99.337,4.9,4.9,0,0,0-.448-.2,4.962,4.962,0,0,0-3.7.219,4.854,4.854,0,0,0-5.99.337,4.37,4.37,0,0,0-3.822-.106l-.521-.021a4.9,4.9,0,0,0-4.627-.26l-.085-.006a4.816,4.816,0,0,0-4.78-.384l-.805-.078a4.918,4.918,0,0,0-5.405-.6l-.45-.059a4.942,4.942,0,0,0-4.842-.984,4.958,4.958,0,0,0-7.116-1.122,4.923,4.923,0,0,0-6.852-1.312l-.476-.114A4.914,4.914,0,0,0,78.55,71.97c-.235-.069-.471-.137-.705-.206a4.9,4.9,0,0,0-6.125-2.029c-.206-.075-.413-.149-.617-.225a4.926,4.926,0,0,0-5.528-2.26q-.195-.083-.391-.159a4.947,4.947,0,0,0-7.948-2.183,4.966,4.966,0,0,0-5.055,2.17A4.966,4.966,0,0,0,47.4,69.8a4.969,4.969,0,0,0-3.677,3.27,4.9,4.9,0,0,0-.109.479,4.969,4.969,0,0,0-3.652,3.265c-.044.131-.057.264-.09.4l-.092.1a4.882,4.882,0,0,0-3.806,4.426q-.814,1.057-1.58,2.157a4.935,4.935,0,0,0-1.052,1.576q-.782,1.213-1.5,2.465a4.528,4.528,0,0,0-1.462,2.746q-.485.984-.921,1.984a4.933,4.933,0,0,0-1.986,5.472c-.025.087-.053.174-.077.261a4.927,4.927,0,0,0-1.621,5.86c-.042.1-.1.192-.135.3a4.962,4.962,0,0,0,.219,3.7,4.887,4.887,0,0,0,1.407,6.933,4.964,4.964,0,0,0,1.512,3.92,4.972,4.972,0,0,0,9.305,1.83,4.91,4.91,0,0,0,6.74.28,4.9,4.9,0,0,0,.448.2,4.973,4.973,0,0,0,5.642-1.862,4.969,4.969,0,0,0,4.8-.944,4.9,4.9,0,0,0,.448.2,4.962,4.962,0,0,0,3.7-.219,4.818,4.818,0,0,0,5.279.163c.139.045.169.023.215-.115l.005-.022h0a4.941,4.941,0,0,0,.521-.391l.341-.011a4.858,4.858,0,0,0,5.947-.265l.169-.009c.116.049.22.113.341.154a4.956,4.956,0,0,0,4.067-.423c.611-.041,1.247-.088,1.879-.135.145.065.28.144.434.2a4.962,4.962,0,0,0,3.7-.219,4.854,4.854,0,0,0,5.99-.337,4.9,4.9,0,0,0,.448.2A4.969,4.969,0,0,0,94,116.435a4.9,4.9,0,0,0,.448.2,4.969,4.969,0,0,0,4.807-.941,4.9,4.9,0,0,0,.448.2,4.969,4.969,0,0,0,4.807-.941,4.9,4.9,0,0,0,.448.2,4.969,4.969,0,0,0,4.826-.959,4.965,4.965,0,0,0,4.048-1.04l.14-.025c.125.054.24.124.371.168a4.969,4.969,0,0,0,4.826-.959,4.964,4.964,0,0,0,4.06-1.052l.1-.023c.133.058.254.131.394.178a4.969,4.969,0,0,0,4.826-.959,4.979,4.979,0,0,0,4.645-1.6c.329-.088.658-.173.986-.262a4.961,4.961,0,0,0,4.113-1.1,4.9,4.9,0,0,0,.448.2,4.972,4.972,0,0,0,5.642-1.862,4.977,4.977,0,0,0,5.741-2.014,4.968,4.968,0,0,0,4.4-2.092,4.977,4.977,0,0,0,5.741-2.014,4.966,4.966,0,0,0,4.781-2.721,4.961,4.961,0,0,0,3.383-2.62,4.969,4.969,0,0,0,3.677-3.27,4.912,4.912,0,0,0,.133-.587,11.38,11.38,0,0,0,.625-1.05A4.946,4.946,0,0,0,174.742,87.01Z" transform="translate(-24 -62.691)"/><g id="LINES"><path class="cls-3" d="M38.266,111.631c2.089.031,4.085-.1,6.1-.208,2.022-.128,3.987-.062,6.092-.206l6.2-.245c1.029-.034,2.056-.077,3.075-.166a8.8,8.8,0,0,0,2.944-.6l.021-.011a.1.1,0,0,1,.1.169,8.193,8.193,0,0,1-2.975,1.053c-1.021.219-2.047.39-3.072.552l-6.136.842c-1,.149-2.032.344-3.086.492a16.8,16.8,0,0,1-3.167.121,19.472,19.472,0,0,1-3.156-.444,9.684,9.684,0,0,1-3-1.158.1.1,0,0,1,.057-.19Z" transform="translate(-24 -62.691)"/><path class="cls-4" d="M51.781,117.575,58.6,117.2l3.4-.228a15.056,15.056,0,0,0,3.325-.5,26.808,26.808,0,0,1,3.434-.514,25.982,25.982,0,0,1,3.484-.156,3.683,3.683,0,0,1,.507.057,2.225,2.225,0,0,0,.376.083,4.119,4.119,0,0,0,.733-.007c.533-.045,1.089-.131,1.645-.219,1.121-.178,2.233-.39,3.417-.519a18.083,18.083,0,0,1,3.534.013c1.078.023,2.252.056,3.344.013a28.244,28.244,0,0,0,3.265-.3,9.26,9.26,0,0,0,2.92-.911c.951-.465,1.89-1.066,2.972-1.619a5.775,5.775,0,0,1,1.894-.657,2.865,2.865,0,0,1,.6-.014,2.743,2.743,0,0,1,.317.046l.174.039c.239.048.51.082.784.114a23.405,23.405,0,0,1,3.451.561,4.85,4.85,0,0,1,1.679.789,2.073,2.073,0,0,1,.616.753,1.724,1.724,0,0,1,.123.928.1.1,0,0,1-.113.087.1.1,0,0,1-.087-.087c-.17-1.16-1.367-1.4-2.4-1.49-1.081-.089-2.189-.025-3.352-.008-.294,0-.591,0-.917-.031l-.248-.027c-.037,0-.067-.006-.107,0a1.247,1.247,0,0,0-.247.038,5.105,5.105,0,0,0-1.268.592c-.909.553-1.851,1.249-2.931,1.819a9.859,9.859,0,0,1-1.744.733,11.77,11.77,0,0,1-1.831.35,21.92,21.92,0,0,1-3.549.118c-1.186-.04-2.288-.125-3.483-.227a16.338,16.338,0,0,0-3.284-.191c-1.086.061-2.224.214-3.361.335-.573.06-1.147.121-1.751.14a5.058,5.058,0,0,1-.971-.05,4.279,4.279,0,0,1-.452-.12,2.824,2.824,0,0,0-.339-.053,34.728,34.728,0,0,0-6.691.222,17.092,17.092,0,0,1-3.433.391l-3.42.121-6.831.156a.1.1,0,0,1-.1-.095A.1.1,0,0,1,51.781,117.575Z" transform="translate(-24 -62.691)"/><path class="cls-5" d="M115.813,106c.328.225.639.47.951.657a3.39,3.39,0,0,0,.96.38,8.351,8.351,0,0,0,1.035.15c.179.014.359.027.544.028a2.645,2.645,0,0,1,.783.138,1.881,1.881,0,0,1,.9.638,1.923,1.923,0,0,1,.371,1.058,2.831,2.831,0,0,1-.4,1.486,6.083,6.083,0,0,1-1.7,1.837l-.007.005a.114.114,0,0,1-.16-.021.116.116,0,0,1-.022-.049,7.568,7.568,0,0,1,.132-2.413,4.679,4.679,0,0,0,.07-.766c.005-.065.01-.053.049-.037s.068-.022.012-.079a.744.744,0,0,0-.329-.172l-.589-.207a5.644,5.644,0,0,1-1.161-.571,4.721,4.721,0,0,1-1.591-1.927.1.1,0,0,1,.042-.139A.1.1,0,0,1,115.813,106Z" transform="translate(-24 -62.691)"/><path class="cls-6" d="M59.528,81.5c.123-.034.234-.07.376-.1l.036,0,.036,0c0,.005.009-.018.086.051a.136.136,0,0,1,.021.145c-.073.106-.07.067-.085.086l-.03.016-.094.044-.177.074c-.234.1-.467.184-.7.267l-1.415.489-1.431.459c-.242.075-.485.137-.742.2a2,2,0,0,1-.5.071.549.549,0,0,1-.128-.02.5.5,0,0,1-.125-.047.6.6,0,0,1-.274-.308.6.6,0,0,1,.047-.5.694.694,0,0,1,.072-.1.621.621,0,0,1,.1-.093,1.3,1.3,0,0,1,.16-.1,1.365,1.365,0,0,0,.149-.083s0-.008-.031.016a.4.4,0,0,0-.088.1.527.527,0,0,0-.068.426.494.494,0,0,0,.237.325c.029.017.022.013.012.014-.046-.005-.158-.016-.263-.019-.217-.008-.455,0-.692,0-.476.017-.962.051-1.446.094-.963.078-1.954.256-2.854.4l-.293.052c-.03,0-.078.02-.01,0a.827.827,0,0,0,.149-.077l.063-.045a.956.956,0,0,0,.189-.19.981.981,0,0,0,.16-.321,1.01,1.01,0,0,0-.018-.631.974.974,0,0,0-.16-.29,1.084,1.084,0,0,0-.179-.174.807.807,0,0,0-.147-.09.543.543,0,0,0-.1-.04l-.014,0a1.025,1.025,0,0,0-.143-.025.86.86,0,0,0-.235.011.981.981,0,0,0-.718.525,1,1,0,0,0-.106.442.646.646,0,0,0,.016.143l.007.028c.012.03,0,0,0,0a2.374,2.374,0,0,0-.1-.241l-.657-1.3a10.7,10.7,0,0,1-.636-1.524,2.668,2.668,0,0,1-.109-.571,1.4,1.4,0,0,1,.051-.5,1.23,1.23,0,0,1,.182-.367,1.2,1.2,0,0,1,.174-.179c.065-.054.172-.128.059-.049a.747.747,0,0,0-.226.325.526.526,0,0,0-.029.16.356.356,0,0,0,0,.064c.018.112.015.067.024.08a.949.949,0,0,0-.074-.2,21.154,21.154,0,0,0-1.551-2.357c-.58-.8-1.167-1.6-1.737-2.43a.1.1,0,0,1,.025-.142.1.1,0,0,1,.115,0,23.771,23.771,0,0,1,2.4,1.837,13.172,13.172,0,0,1,2.174,2.263,2.8,2.8,0,0,1,.253.461,1.375,1.375,0,0,1,.1.441,1.414,1.414,0,0,1,0,.157,1.3,1.3,0,0,1-.054.249,1.006,1.006,0,0,1-.326.475c-.134.1-.05.048-.008.015a.605.605,0,0,0,.107-.115.65.65,0,0,0,.107-.2.732.732,0,0,0,.028-.133l.056.152a9.53,9.53,0,0,0,.617,1.167c.249.415.5.826.76,1.309a4.4,4.4,0,0,1,.206.434,1.676,1.676,0,0,1,.06.175l.031.118a1.5,1.5,0,0,1,.026.235,1.18,1.18,0,0,1-.12.532,1.068,1.068,0,0,1-.334.386,1.08,1.08,0,0,1-.455.189,1.232,1.232,0,0,1-.281.009,1.168,1.168,0,0,1-.188-.031l-.1-.029a1.511,1.511,0,0,1-.185-.073,1.3,1.3,0,0,1-.187-.114,1.281,1.281,0,0,1-.2-.19A1.1,1.1,0,0,1,48,82.889a1.084,1.084,0,0,1-.017-.654.956.956,0,0,1,.172-.339,1.128,1.128,0,0,1,.2-.207l.083-.057a1.2,1.2,0,0,1,.233-.116,2.239,2.239,0,0,1,.349-.1,3.852,3.852,0,0,1,.442-.059,27.933,27.933,0,0,1,3.078.062c.506.026,1.012.061,1.525.114.258.028.515.059.79.108a3.239,3.239,0,0,1,.467.115,1.186,1.186,0,0,1,.186.08.7.7,0,0,1,.368.448.651.651,0,0,1-.084.514.787.787,0,0,1-.152.167.972.972,0,0,1-.187.117,1.909,1.909,0,0,1-.187.075c-.013,0-.04.019,0-.01a.8.8,0,0,0,.067-.064.45.45,0,0,0,.056-.078.554.554,0,0,0,.043-.479.542.542,0,0,0-.257-.293.466.466,0,0,0-.1-.041.376.376,0,0,0-.082-.014,1.106,1.106,0,0,0,.235-.011l.715-.09,1.464-.214,1.464-.247.728-.133.178-.037.081-.02.013,0c0,.012.016-.033-.046.061a.13.13,0,0,0,.019.137c.075.066.083.042.076.047h0c-.1,0-.237.012-.357.022a.1.1,0,0,1-.11-.089A.1.1,0,0,1,59.528,81.5Z" transform="translate(-24 -62.691)"/><path class="cls-7" d="M46.181,99.23c-.038.516.344,1,.171,1.687a1.482,1.482,0,0,1-.589.743A3.932,3.932,0,0,1,45,102.1a18.772,18.772,0,0,1-3.2,1.029,6.307,6.307,0,0,1-3.566-.016,9.716,9.716,0,0,1-2.791-2.087,4.29,4.29,0,0,0-2.491-1.082,4.871,4.871,0,0,0-1.309.128,5.119,5.119,0,0,0-1.19.4,1.094,1.094,0,0,0-.341.27,4.662,4.662,0,0,0-.4.577,6.13,6.13,0,0,1-1.19,1.428,21.207,21.207,0,0,1-2.8,1.87l-.005,0a.1.1,0,0,1-.146-.134,15.959,15.959,0,0,1,1.8-2.818,6.234,6.234,0,0,0,.705-1.243,6.5,6.5,0,0,1,.433-.838,2.827,2.827,0,0,1,.848-.845,4.98,4.98,0,0,1,1.886-.7,5.4,5.4,0,0,1,1.958,0,6.336,6.336,0,0,1,3.287,1.82c.436.421.793.884,1.123,1.223a4.013,4.013,0,0,0,1.109.85,5.325,5.325,0,0,0,2.911.229,18.135,18.135,0,0,0,3.144-.628c.477-.168,1.008-.376,1.185-.762.2-.388-.072-.985.022-1.563a.1.1,0,0,1,.111-.088A.1.1,0,0,1,46.181,99.23Z" transform="translate(-24 -62.691)"/><path class="cls-8" d="M135.4,89.781a7.386,7.386,0,0,0,2.485-.263,14.517,14.517,0,0,0,2.382-.861,15.351,15.351,0,0,1,2.545-.625l2.525-.481a16.63,16.63,0,0,1,5.292-.3c.92.145,1.763.463,2.519.62a5.475,5.475,0,0,0,2.251-.013c1.558-.314,3.165-.929,4.846-1.431a7.446,7.446,0,0,1,2.941-.356,6.446,6.446,0,0,1,1.452.5c.413.192.8.392,1.186.59a17.131,17.131,0,0,0,2.109,1.047c.012.013.282.079.389.127.137.055.251.108.345.156a4.229,4.229,0,0,0,.486.219,2.937,2.937,0,0,0,.991.149,19.745,19.745,0,0,0,4.806-1.173.1.1,0,0,1,.129.061.105.105,0,0,1-.036.116,12.613,12.613,0,0,1-4.75,2.395,3.915,3.915,0,0,1-1.551,0,5.592,5.592,0,0,1-.72-.211,2.473,2.473,0,0,0-.252-.077l-.23-.039a7.509,7.509,0,0,1-1.394-.457l-1.2-.513c-.385-.176-.765-.347-1.135-.5a5.8,5.8,0,0,0-.966-.336,6.162,6.162,0,0,0-2.12.222c-1.632.331-3.269.842-5.086,1.092a7.03,7.03,0,0,1-2.837-.16c-.9-.252-1.652-.589-2.418-.752a15.639,15.639,0,0,0-4.909.012l-2.544.282a14.868,14.868,0,0,0-2.469.4,10.655,10.655,0,0,1-5.1.754.1.1,0,0,1,.026-.2Z" transform="translate(-24 -62.691)"/><path class="cls-9" d="M91.665,74.9a5.008,5.008,0,0,1-.2,1.518c-.1.483-.211.964-.264,1.435-.069.447,0,1.01.2,1.005.06.033.416-.017.683.023a5.607,5.607,0,0,1,.79.145,11.748,11.748,0,0,1,2.846,1.209,9.323,9.323,0,0,1,2.529,1.984c.092.125.188.235.275.376l.125.225c.032.054.1.2.1.167a1.641,1.641,0,0,1,.161.069,3.453,3.453,0,0,0,1.106.133c.884,0,1.847-.074,2.841-.06.5.006,1.007.026,1.543.068a7.362,7.362,0,0,1,.849.143,2.923,2.923,0,0,1,.5.165,1.017,1.017,0,0,1,.2.109l.144.092c.8.471,1.694.9,2.592,1.39a.1.1,0,0,1,.047.139.112.112,0,0,1-.084.057,9.175,9.175,0,0,1-3.1-.252l-.2-.053a.427.427,0,0,0-.139-.03L105,84.948c-.185,0-.406.017-.63.04-.454.03-.934.1-1.423.147a12.826,12.826,0,0,1-3.089.009,5.046,5.046,0,0,1-1.766-.53,1.978,1.978,0,0,1-.875-.948l-.068-.166-.038-.109a2.686,2.686,0,0,0-.133-.242,8.049,8.049,0,0,0-1.923-1.892,13.245,13.245,0,0,0-2.443-1.448,4.9,4.9,0,0,0-.645-.226,1.869,1.869,0,0,0-.312-.061,1.823,1.823,0,0,1-.472-.086.932.932,0,0,1-.539-.851,3.084,3.084,0,0,1,.069-.807,12.464,12.464,0,0,1,.41-1.452,5.2,5.2,0,0,0,.341-1.383v-.032a.1.1,0,0,1,.2-.012Z" transform="translate(-24 -62.691)"/><path class="cls-10" d="M137.141,95.025c1.285-.055,2.565-.145,3.844-.251s2.553-.252,3.873-.309a6.382,6.382,0,0,1,2.1.221,1.964,1.964,0,0,1,1.058.826,3.571,3.571,0,0,0,.232.321,2.54,2.54,0,0,0,.277.276,7.737,7.737,0,0,0,3.145,1.486,9.3,9.3,0,0,0,3.514.179c.29-.019.569-.1.853-.143l.95-.185c.637-.115,1.277-.206,1.916-.29,2.555-.342,5.141-.383,7.672-.65l.02,0a.1.1,0,0,1,.065.183,14.057,14.057,0,0,1-3.663,1.5c-1.248.373-2.507.662-3.76.945-.629.13-1.256.258-1.885.367l-.949.155c-.354.035-.706.1-1.06.1a11.946,11.946,0,0,1-4.117-.615,9.078,9.078,0,0,1-3.608-2.093,3.786,3.786,0,0,1-.37-.437c-.109-.133-.238-.4-.3-.485-.049-.148-.2-.249-.41-.359a5.5,5.5,0,0,0-1.7-.293c-2.519-.115-5.142-.012-7.707-.24a.1.1,0,0,1,0-.2Z" transform="translate(-24 -62.691)"/><path class="cls-11" d="M46.2,115.2c3.9-.495,7.834-.745,11.767-.918,1.967-.064,3.935-.106,5.91-.1l1.483.015a13.543,13.543,0,0,0,1.387-.073c.939-.1,1.886-.257,2.833-.451,1.893-.386,3.78-.886,5.669-1.4a35.967,35.967,0,0,1,5.861-1.2c1.952-.185,3.862-.37,5.746-.714a14.618,14.618,0,0,0,5.373-1.909.1.1,0,0,1,.141.023.1.1,0,0,1-.005.124,11.462,11.462,0,0,1-5.151,3.123,36.443,36.443,0,0,1-5.842,1.336c-.489.073-.962.15-1.4.237l-1.4.3L75.7,114.2c-1.933.374-3.872.762-5.846,1.051-.985.15-1.985.263-3,.321a14.862,14.862,0,0,1-1.554,0l-1.459-.089c-1.949-.1-3.907-.162-5.865-.2-3.916-.094-7.84-.111-11.755.117a.1.1,0,0,1-.107-.093A.1.1,0,0,1,46.2,115.2Z" transform="translate(-24 -62.691)"/><path class="cls-12" d="M56.6,103.028a2.816,2.816,0,0,0-1.015,1.267,7.894,7.894,0,0,1-.945,1.515,3.818,3.818,0,0,1-1.527,1.1l-1.577.705a13.624,13.624,0,0,1-7.117.724,32.465,32.465,0,0,1-6.862-1.513,24.138,24.138,0,0,1-3.246-1.415,10.268,10.268,0,0,1-1.53-.993,3.527,3.527,0,0,1-1.149-1.461.1.1,0,0,1,.063-.132.109.109,0,0,1,.1.021,7.837,7.837,0,0,0,3.035,1.259l3.3.806q1.661.4,3.3.938a28.6,28.6,0,0,0,3.246.911,12.328,12.328,0,0,0,6.52-.085l1.652-.528a3.094,3.094,0,0,0,1.344-.76,7.5,7.5,0,0,0,1.031-1.312,3.085,3.085,0,0,1,1.3-1.23.1.1,0,0,1,.13.057A.105.105,0,0,1,56.6,103.028Z" transform="translate(-24 -62.691)"/><path class="cls-13" d="M130.463,78.586a11.052,11.052,0,0,1,2.677.159,4.811,4.811,0,0,1,2.717,1.3,3.591,3.591,0,0,1,.816,1.514,4.046,4.046,0,0,0,.142.523,5.023,5.023,0,0,0,.2.492,3.427,3.427,0,0,1,.408,1.73,1.95,1.95,0,0,1-.477,1.07,2.977,2.977,0,0,1-.679.578c-1.747,1.058-3.515,1.16-4.925,1.851a2.525,2.525,0,0,0-1.5,1.526,6.373,6.373,0,0,0-.13,1.23,1.289,1.289,0,0,1-.714,1.18l-.009,0a.1.1,0,0,1-.091-.176c.714-.5.159-1.392.277-2.349a2.7,2.7,0,0,1,.546-1.384,4.3,4.3,0,0,1,1.067-.972A12.786,12.786,0,0,1,133.2,85.68a8.659,8.659,0,0,0,2.063-1.117c.279-.217.33-.422.271-.392,0,0-.142-.307-.366-.7a6.13,6.13,0,0,1-.316-.688,6,6,0,0,1-.19-.721,2.4,2.4,0,0,0-.288-.789,4.733,4.733,0,0,0-1.674-1.272c-.726-.4-1.515-.768-2.284-1.226a.1.1,0,0,1-.038-.143A.107.107,0,0,1,130.463,78.586Z" transform="translate(-24 -62.691)"/><path class="cls-14" d="M145.4,77.567a3.234,3.234,0,0,1,2.147,1.28l.36.666a3.841,3.841,0,0,1,.185.439,1.3,1.3,0,0,1,.04.8.99.99,0,0,1-.669.651.118.118,0,0,0,.063-.054.57.57,0,0,0-.04.239c.049,1.255,1.156,2.941,2.395,3.029.5.078.964-.451,1.335-1.162s.665-1.5,1.055-2.283a4.406,4.406,0,0,1,1.835-2.14,1.639,1.639,0,0,1,.89-.2.777.777,0,0,1,.624.484,1.293,1.293,0,0,1,.078.494c-.019.518-.118.9-.164,1.31-.111.8-.06,1.544.506,1.837a2.436,2.436,0,0,0,1.051.261,4.327,4.327,0,0,0,1.16-.047,2.265,2.265,0,0,0,1-.456,5.741,5.741,0,0,0,.8-.906,1.293,1.293,0,0,1,.644-.46,1.4,1.4,0,0,1,.77.078,6.966,6.966,0,0,1,1.19.558,22.519,22.519,0,0,1,2.14,1.4c.343.253.681.508,1.011.791l.231.21a.492.492,0,0,0,.18.038,3.6,3.6,0,0,0,.595-.017,37.313,37.313,0,0,0,4.919-1.053.1.1,0,0,1,.124.068.1.1,0,0,1-.067.124,37.46,37.46,0,0,1-4.931,1.249,3.948,3.948,0,0,1-.668.042.732.732,0,0,1-.422-.122l-.241-.21c-.315-.261-.655-.509-1-.751a22.063,22.063,0,0,0-2.116-1.334,6.515,6.515,0,0,0-1.106-.5c-.415-.137-.564-.084-.812.243a6.118,6.118,0,0,1-.83,1.025,2.932,2.932,0,0,1-1.253.651,5.031,5.031,0,0,1-1.357.124,3.149,3.149,0,0,1-1.394-.3,1.864,1.864,0,0,1-.957-1.234,4.183,4.183,0,0,1-.069-1.408c.035-.434.113-.878.107-1.2a.4.4,0,0,0-.016-.128c-.018.009.131.142.15.123a1.969,1.969,0,0,0-.316.125,3.486,3.486,0,0,0-1.327,1.693c-.347.73-.626,1.528-1.026,2.33a4.488,4.488,0,0,1-.819,1.188,2.054,2.054,0,0,1-1.567.617,3.568,3.568,0,0,1-2.545-1.484,4.849,4.849,0,0,1-1.075-2.686,1.731,1.731,0,0,1,.241-.976,1.228,1.228,0,0,1,.544-.45c.006-.031-.165.027-.237.225-.051.179-.028.2-.062.188s-.081-.063-.136-.105a4.273,4.273,0,0,0-.447-.307,2.221,2.221,0,0,1-.8-.975,3.178,3.178,0,0,1-.238-.73,1.173,1.173,0,0,1,.147-.949.021.021,0,0,1,.022-.007Z" transform="translate(-24 -62.691)"/><path class="cls-15" d="M109.479,77.667c.166,1.158-.64,2.156-.784,3.012-.019.1.037.118-.018.027-.068-.058-.012-.021.081-.044a2.109,2.109,0,0,0,.652-.206l.374-.174c.068-.028.13-.057.21-.085a.81.81,0,0,1,.415-.053.565.565,0,0,1,.214.067.647.647,0,0,1,.308.323.659.659,0,0,1,.056.368.775.775,0,0,1-.032.151c-.04.121-.043.126-.04.137s.07-.1.032-.266c-.126-.327-.18-.257-.1-.276a10.468,10.468,0,0,0,1.312-.005,10.663,10.663,0,0,1,1.622.014,9.882,9.882,0,0,1,3.355.838c.527.238,1.029.527,1.45.763a3.035,3.035,0,0,0,.522.248.838.838,0,0,0,.157.039c.022.005.038,0,.058,0l.029,0,.1-.007c1.133-.019,2.179.08,3.249.145a28.282,28.282,0,0,1,6.265,1.108.1.1,0,0,1,.066.126.1.1,0,0,1-.1.071,47.264,47.264,0,0,0-6.223.139,23.026,23.026,0,0,0-3.012.443l-.09.014-.167.011a2.608,2.608,0,0,1-.333,0,2.817,2.817,0,0,1-.609-.119,4.907,4.907,0,0,1-.9-.395c-.494-.27-.9-.509-1.321-.7a8.593,8.593,0,0,0-2.685-.729c-.481-.061-.934-.064-1.509-.142a6.145,6.145,0,0,1-1.782-.441,1.815,1.815,0,0,1-.319-.2,1.048,1.048,0,0,1-.372-.55.913.913,0,0,1,.077-.646c.027-.049.055-.1.037-.042l-.019.1a.616.616,0,0,0,.326.611.5.5,0,0,0,.167.055c.176,0,.059-.017.027-.015-.048,0-.113,0-.173,0l-.385.019a8.83,8.83,0,0,1-.884.087.884.884,0,0,1-.653-.245.745.745,0,0,1-.132-.715,7.592,7.592,0,0,1,.777-1.458,2.833,2.833,0,0,0,.515-1.371v-.018a.1.1,0,0,1,.2-.017Z" transform="translate(-24 -62.691)"/><path class="cls-16" d="M106.616,101.06c-.126-.161-.466-.2-.738-.224-.289-.021-.583-.021-.88-.021a8.086,8.086,0,0,1-.908-.03,1,1,0,0,1-.255-.061.333.333,0,0,1-.158-.123.27.27,0,0,1-.019-.252,1.125,1.125,0,0,1,.371-.379,1.841,1.841,0,0,0,.6-.513c.078-.1-.111-.278-.352-.439-.474-.313-1.012-.609-1.5-.977a6.767,6.767,0,0,1-1.338-1.289c-.405-.508-.647-1.056-.99-1.482a3.868,3.868,0,0,0-2.673-1.6,17.85,17.85,0,0,0-3.434-.094l-1.764.1a8.07,8.07,0,0,1-1.929-.057,3.213,3.213,0,0,1-1.058-.362,1.993,1.993,0,0,1-.886-.992,3.13,3.13,0,0,1,.161-2.271,10.329,10.329,0,0,1,.906-1.7l.489-.741.038-.062s0,0,0-.005.008-.035.015-.072a1.176,1.176,0,0,0,.013-.253,2.559,2.559,0,0,0-1.666-1.918,10.6,10.6,0,0,0-3.157-.886c-2.291-.408-4.527-.575-6.924-.781a11.066,11.066,0,0,1-1.921-.31,1.48,1.48,0,0,1-.846-.578,1.606,1.606,0,0,1-.263-.865,3.753,3.753,0,0,1,.185-1.124c.192-.631.421-1.177.617-1.716a5.138,5.138,0,0,0,.381-1.468c0-.2-.028-.283-.069-.323a.3.3,0,0,0-.145-.09c-.01-.008-.128-.05-.223-.087A1.778,1.778,0,0,1,76,76.869a1.491,1.491,0,0,1-.734-1.182,2.5,2.5,0,0,1,.218-1.1,6.862,6.862,0,0,1,1.028-1.587A10.941,10.941,0,0,1,77.771,71.7a.1.1,0,0,1,.142.009.106.106,0,0,1,.007.124A10.863,10.863,0,0,0,76.4,74.9a1.462,1.462,0,0,0-.032.651.3.3,0,0,0,.232.222.621.621,0,0,0,.116.033,1.528,1.528,0,0,1,.2.053,1.621,1.621,0,0,1,.629.33,1.742,1.742,0,0,1,.581,1.272,6.19,6.19,0,0,1-.336,2c-.175.587-.377,1.148-.5,1.66a2.267,2.267,0,0,0-.084.627c.008.046.025.061-.016-.024s-.136-.114-.115-.111a15.276,15.276,0,0,0,1.609.089,29.631,29.631,0,0,1,7.207.726,13.743,13.743,0,0,1,3.6,1.252,5.416,5.416,0,0,1,1.636,1.305,3.419,3.419,0,0,1,.823,2.148,2.741,2.741,0,0,1-.069.63,1.963,1.963,0,0,1-.115.353,1.27,1.27,0,0,1-.1.194l-.082.125-.517.725a8.9,8.9,0,0,0-.824,1.405,1.855,1.855,0,0,0-.209,1.182c.05.219.381.435.879.537a23.032,23.032,0,0,0,3.406.088,18.764,18.764,0,0,1,3.657.291,5.118,5.118,0,0,1,1.8.75,4.929,4.929,0,0,1,1.329,1.4c.362.53.571,1.1.885,1.538a6.142,6.142,0,0,0,1.139,1.248c.436.377.922.686,1.415,1.059A1.988,1.988,0,0,1,104.9,99a.572.572,0,0,1,.072.629,2.116,2.116,0,0,1-.754.614,1.073,1.073,0,0,0-.268.226c0,.008,0-.025-.009-.041s0,0,.018.008a.731.731,0,0,0,.175.047,7.95,7.95,0,0,0,.867.061c.3.011.6.023.9.056.291.058.63.038.889.357a.1.1,0,0,1-.154.125h0Z" transform="translate(-24 -62.691)"/><path class="cls-17" d="M80.506,96.371a10.019,10.019,0,0,1-2.783-1.721.829.829,0,0,1-.187-.909,2.109,2.109,0,0,1,.591-.647,5.356,5.356,0,0,0,1.132-1.065,1.505,1.505,0,0,0,.265-.639c.023-.2-.076-.317-.279-.422a4.726,4.726,0,0,0-1.5-.262c-1.064-.063-2.152-.071-3.242-.215a9.246,9.246,0,0,1-1.628-.345,5.7,5.7,0,0,1-.79-.312l-.722-.385a3.478,3.478,0,0,0-1.4-.427,3.04,3.04,0,0,0-1.391.331,8.935,8.935,0,0,1-3.19,1.048,12.427,12.427,0,0,1-3.351-.181c-1.1-.2-2.153-.532-3.173-.8-.255-.068-.508-.131-.759-.186a3.8,3.8,0,0,0-.7-.085,10.031,10.031,0,0,0-1.518.068A36.606,36.606,0,0,0,49.7,90.534l-.368.119a2.622,2.622,0,0,1-.573.11,4.558,4.558,0,0,1-.976-.041,13.491,13.491,0,0,1-1.684-.379c-1.065-.3-2.092-.655-3.068-.885a3,3,0,0,0-1.116-.115c.09-.031-.189.079-.313.131-.155.063-.323.105-.485.156a4.406,4.406,0,0,1-1.025.128,6.072,6.072,0,0,1-3.531-1.327c-.477-.339-.908-.707-1.316-1.044-.2-.169-.4-.329-.577-.454-.149-.135-.4-.19-.163-.144a.591.591,0,0,0,.306-.07.68.68,0,0,0,.2-.162c.019-.032-.024.043-.051.122a4.321,4.321,0,0,0-.165.623,11.622,11.622,0,0,0-.184,1.469,15.409,15.409,0,0,0,.088,3.018,6.017,6.017,0,0,0,.81,2.554.905.905,0,0,0,.62.429c.05.013.421,0,.681.006l.842.017a14.65,14.65,0,0,1,1.721.153,5.6,5.6,0,0,1,1.871.615,1.74,1.74,0,0,1,.583,2.64,5.592,5.592,0,0,1-1.375,1.318l-.292.219c-.066.036-.166.186-.068.017a.577.577,0,0,0,.051-.187.717.717,0,0,0-.076-.421.7.7,0,0,0-.276-.289.51.51,0,0,0-.154-.063c-.1-.021-.069-.006-.042-.01a2.2,2.2,0,0,0,.293-.035c.467-.08.984-.228,1.492-.359,1.023-.275,2.051-.588,3.082-.9l1.561-.463.406-.11.22-.052.131-.025.092-.012.084,0a.51.51,0,0,1,.206.034.573.573,0,0,1,.354.718.674.674,0,0,1-.14.223.982.982,0,0,1-.1.088l-.066.045a.13.13,0,0,0,.036-.031.388.388,0,0,0,.085-.126.484.484,0,0,0,.027-.317.4.4,0,0,0-.061-.135.4.4,0,0,0-.04-.054.417.417,0,0,0-.055-.048,1.617,1.617,0,0,0,.2.061,21.461,21.461,0,0,0,3.11.339c1.066.058,2.137.086,3.207.1s2.141,0,3.2-.069a10.34,10.34,0,0,0,1.54-.191,1.342,1.342,0,0,0,.284-.1c.032-.015-.039-.006-.044.155.013.068,0-.007,0-.055a.483.483,0,0,1,.016-.158.505.505,0,0,1,.154-.242,1.046,1.046,0,0,1,.544-.2,3.537,3.537,0,0,1,.442-.028,15.563,15.563,0,0,1,3.26.449,12.971,12.971,0,0,1,1.571.469,3.673,3.673,0,0,1,.755.371c.1.089.283.18.266.438-.076.23-.246.262-.37.325a.1.1,0,0,1-.091-.178l.005,0,.008,0c.108-.047.228-.137.223-.181.011-.029-.079-.126-.183-.183a3.435,3.435,0,0,0-.716-.288,13.4,13.4,0,0,0-1.554-.348,15.134,15.134,0,0,0-3.152-.257,1.582,1.582,0,0,0-.569.11.145.145,0,0,0,.046-.075.2.2,0,0,0,.008-.059c0-.014-.008-.055.006.046a.519.519,0,0,1-.26.47,1.823,1.823,0,0,1-.467.193,10.882,10.882,0,0,1-1.654.276c-1.088.113-2.172.166-3.257.2s-2.169.032-3.256,0a21.908,21.908,0,0,1-3.317-.276,1.675,1.675,0,0,1-.56-.208.621.621,0,0,1-.133-.111.674.674,0,0,1-.074-.091.717.717,0,0,1-.081-.182.636.636,0,0,1,.033-.415.764.764,0,0,1,.146-.205,1.255,1.255,0,0,1,.115-.094l.016-.014a.128.128,0,0,0-.027.024.458.458,0,0,0-.11.182.55.55,0,0,0,.326.685c.191.047.111.021.156.03.018,0,.042,0,.034,0s.005,0-.007,0l-.067.018-.17.053-.367.127-1.5.561c-1.008.382-2.019.768-3.056,1.125a14.8,14.8,0,0,1-1.63.472,3.718,3.718,0,0,1-.506.077,1.433,1.433,0,0,1-.444-.031,1.067,1.067,0,0,1-.248-.1.882.882,0,0,1-.437-.877.985.985,0,0,1,.081-.282,1.831,1.831,0,0,1,.472-.577l.34-.284a4.044,4.044,0,0,0,.9-.96c.087-.142.057-.225.055-.106.022.119.059.1-.084.031a4.1,4.1,0,0,0-1.218-.271c-.482-.053-.987-.086-1.5-.094h-.774a7.962,7.962,0,0,1-.934-.008,2.977,2.977,0,0,1-2.037-1.24,7.648,7.648,0,0,1-1.21-3.518,17.44,17.44,0,0,1-.072-3.434A13.6,13.6,0,0,1,32.8,86.89a6.211,6.211,0,0,1,.263-.934,2.5,2.5,0,0,1,.313-.6,1.413,1.413,0,0,1,.492-.431,1.43,1.43,0,0,1,.7-.16,2.355,2.355,0,0,1,1.281.535c.26.191.477.376.686.553.416.356.8.689,1.2.986A4.226,4.226,0,0,0,40.1,87.867a2.523,2.523,0,0,0,.576-.055c.095-.031.191-.047.286-.085.127-.046.1-.043.441-.16a2.87,2.87,0,0,1,1.177-.026,7.587,7.587,0,0,1,.893.2c1.109.32,2.1.724,3.1,1.051a11,11,0,0,0,1.452.391,3.116,3.116,0,0,0,.634.056,1.248,1.248,0,0,0,.221-.028l.4-.116a37.858,37.858,0,0,1,6.489-1.159,11.2,11.2,0,0,1,1.709-.015,5.137,5.137,0,0,1,.9.142c.273.068.541.145.8.224,1.052.318,2.047.666,3.064.883a12.115,12.115,0,0,0,3.077.277,8.114,8.114,0,0,0,2.953-.827,3.775,3.775,0,0,1,1.744-.307,4.125,4.125,0,0,1,1.644.583,6.745,6.745,0,0,0,2.918,1.052c1.045.162,2.116.193,3.2.28a5.013,5.013,0,0,1,1.66.342,1.014,1.014,0,0,1,.389.333.778.778,0,0,1,.115.524,1.84,1.84,0,0,1-.36.832,5.65,5.65,0,0,1-1.242,1.109,1.853,1.853,0,0,0-.515.513.513.513,0,0,0,.126.576,9.972,9.972,0,0,0,2.639,1.733l0,0a.1.1,0,0,1-.093.177Z" transform="translate(-24 -62.691)"/><path class="cls-18" d="M108.976,104.313a18.74,18.74,0,0,1-4.988,1.976c-1.717.485-3.449.908-5.161,1.359-.858.216-1.712.44-2.549.691a21.4,21.4,0,0,1-2.65.664,32.6,32.6,0,0,1-5.426.449c-1.8.018-3.6-.036-5.379-.1-1.809-.105-3.474-.195-5.225-.208-1.739-.038-3.5.026-5.3-.021a15.676,15.676,0,0,1-5.365-.848.1.1,0,0,1-.057-.131.1.1,0,0,1,.1-.064,27.3,27.3,0,0,0,5.243-.362c1.748-.242,3.524-.471,5.337-.574.9-.048,1.819-.051,2.734-.011.928.059,1.8.162,2.681.244,1.758.208,3.511.38,5.26.471a31.194,31.194,0,0,0,5.2-.134,20.1,20.1,0,0,0,2.548-.49c.879-.211,1.755-.388,2.63-.557,1.754-.323,3.5-.613,5.237-.966a18.462,18.462,0,0,0,5.019-1.56l.008,0a.1.1,0,0,1,.1.171Z" transform="translate(-24 -62.691)"/><path class="cls-19" d="M111.983,100.663a7.419,7.419,0,0,0,1.212-.229.746.746,0,0,0,.417-.259c.053-.084,0-.227-.107-.377a7.694,7.694,0,0,0-1.907-1.476c-.709-.43-1.44-.83-2.179-1.218l-.278-.145L109,96.888a.782.782,0,0,1-.287-.256.663.663,0,0,1-.07-.532.964.964,0,0,1,.15-.295,2.255,2.255,0,0,1,.284-.306c.36-.314.7-.545,1-.8a1.7,1.7,0,0,0,.324-.337c.024-.037,0-.052-.01.039s.065.215.038.179a6.478,6.478,0,0,0-.92-.646c-.692-.422-1.429-.818-2.165-1.222s-1.479-.8-2.235-1.3a4.965,4.965,0,0,1-.594-.455,1.6,1.6,0,0,1-.371-.479,1.387,1.387,0,0,1-.088-.292l-.016-.1a2.024,2.024,0,0,1-.024-.235,1.049,1.049,0,0,1,.153-.643,1.03,1.03,0,0,1,.213-.234.974.974,0,0,1,.5-.194,1.8,1.8,0,0,1,.625.084c.223.06.391.1.569.138a5.5,5.5,0,0,0,2.114-.075c.2-.041.665-.206,1.037-.336l1.2-.415a17.41,17.41,0,0,1,2.605-.666,4.038,4.038,0,0,1,1.63.066,8.587,8.587,0,0,1,1.322.47,5.857,5.857,0,0,0,1.986.644.746.746,0,0,0,.56-.214,5.618,5.618,0,0,1,1.092-.915,2.961,2.961,0,0,1,1.55-.45,3.028,3.028,0,0,1,1.454.436,8.5,8.5,0,0,1,1.06.791c.324.244.632.544.978.524h.024a.1.1,0,0,1,.046.189,1.722,1.722,0,0,1-1.358-.19,9.757,9.757,0,0,0-1.139-.433,1.676,1.676,0,0,0-1.764.348,3.654,3.654,0,0,0-.347.361,2.453,2.453,0,0,0-.164.207c-.055.074-.091.129-.2.26a2.5,2.5,0,0,1-1.639.877,6.92,6.92,0,0,1-2.853-.593,9.107,9.107,0,0,0-1.065-.326,2.187,2.187,0,0,0-.87,0,15.7,15.7,0,0,0-2.265.6l-1.184.383a10.487,10.487,0,0,1-1.372.39,6.531,6.531,0,0,1-2.882-.247c-.229-.071-.458-.161-.634-.231-.065-.04-.206-.044.012-.046a.668.668,0,0,0,.355-.144.618.618,0,0,0,.16-.176.512.512,0,0,0,.066-.137c.038-.118.017-.143.02-.123a.364.364,0,0,0,0,.079l0,.059a.383.383,0,0,0-.042-.141c-.046-.088-.026-.03.021.009a3.53,3.53,0,0,0,.392.327c.625.458,1.352.892,2.061,1.328s1.44.871,2.16,1.358a7.32,7.32,0,0,1,1.092.862.992.992,0,0,1,.292.732,1.1,1.1,0,0,1-.246.612,2.792,2.792,0,0,1-.588.525c-.372.262-.748.47-1.041.684a1.932,1.932,0,0,0-.167.132c-.012.011-.016.017,0-.023a.3.3,0,0,0-.042-.229c-.039-.056-.062-.059-.054-.049l.134.085.267.171c.712.457,1.417.927,2.1,1.431a7.975,7.975,0,0,1,1.9,1.781.75.75,0,0,1,.064.8,1.041,1.041,0,0,1-.644.365,7.6,7.6,0,0,1-1.278.129.1.1,0,0,1-.105-.095A.1.1,0,0,1,111.983,100.663Z" transform="translate(-24 -62.691)"/><path class="cls-20" d="M71.958,93.47a6.615,6.615,0,0,0,1.256,2.358,5.68,5.68,0,0,1,.711,1.3,2.4,2.4,0,0,1,.144.821,2.956,2.956,0,0,1-.038.436l-.05.322a1.907,1.907,0,0,0,.1,1.05,1.335,1.335,0,0,0,.669.607,6.887,6.887,0,0,0,2.386.39,30.347,30.347,0,0,0,5.3-.506,48.478,48.478,0,0,0,5.251-1.181l.018-.005a.991.991,0,0,1,.426-.023c3.775.637,7.512,1.4,11.248,2.258a42.37,42.37,0,0,1,5.615,1.587,7.815,7.815,0,0,0,2.541.684,14.688,14.688,0,0,0,2.731-.065c3.739-.413,7.512-1.184,11.4-1.167a21.445,21.445,0,0,1,5.713.853,21.713,21.713,0,0,1,5.216,2.39.1.1,0,0,1,.04.136.1.1,0,0,1-.135.04,21.373,21.373,0,0,0-5.244-2.113,20.841,20.841,0,0,0-5.584-.567,42.867,42.867,0,0,0-5.61.68c-1.873.3-3.73.675-5.649.949a15.9,15.9,0,0,1-2.967.171,9.234,9.234,0,0,1-2.976-.682,40.8,40.8,0,0,0-5.421-1.313c-3.717-.7-7.487-1.233-11.231-1.8l.444-.028a39.075,39.075,0,0,1-5.529,1.15,26.967,26.967,0,0,1-5.695.18,7.119,7.119,0,0,1-2.953-.822,2.614,2.614,0,0,1-1.144-1.387,3.049,3.049,0,0,1,0-1.67l.1-.352a2.082,2.082,0,0,0,.051-.247,1.806,1.806,0,0,0-.026-.541,4.925,4.925,0,0,0-.434-1.2,6.129,6.129,0,0,1-.866-2.682.1.1,0,0,1,.1-.1A.1.1,0,0,1,71.958,93.47Z" transform="translate(-24 -62.691)"/></g><path id="OUTLINE" class="cls-21" d="M172.865,89.5a4.945,4.945,0,0,0,.593-7.661,4.977,4.977,0,0,0-3.352-4.147c-.134-.045-.27-.059-.406-.092a12.073,12.073,0,0,0-1.249-.7,4.937,4.937,0,0,0-6.163-1.628,4.856,4.856,0,0,0-5.957.307l-.074.011c-.137-.06-.262-.135-.406-.184a4.969,4.969,0,0,0-4.807.942,4.9,4.9,0,0,0-.448-.2,4.987,4.987,0,0,0-5.3,1.4c-.428.057-.859.112-1.3.164-.057-.022-.107-.055-.165-.075a4.962,4.962,0,0,0-3.7.219,4.854,4.854,0,0,0-5.99.337,4.9,4.9,0,0,0-.448-.2,4.962,4.962,0,0,0-3.7.219,4.854,4.854,0,0,0-5.99.337,4.37,4.37,0,0,0-3.822-.106l-.521-.021a4.9,4.9,0,0,0-4.627-.26l-.085-.006a4.816,4.816,0,0,0-4.78-.384l-.805-.078a4.918,4.918,0,0,0-5.405-.6l-.45-.059a4.942,4.942,0,0,0-4.842-.984,4.958,4.958,0,0,0-7.116-1.122,4.923,4.923,0,0,0-6.852-1.312l-.476-.114A4.914,4.914,0,0,0,78.55,71.97c-.235-.069-.471-.137-.705-.206a4.9,4.9,0,0,0-6.125-2.029c-.206-.075-.413-.149-.617-.225a4.926,4.926,0,0,0-5.528-2.26q-.195-.083-.391-.159a4.947,4.947,0,0,0-7.948-2.183,4.966,4.966,0,0,0-5.055,2.17A4.966,4.966,0,0,0,47.4,69.8a4.969,4.969,0,0,0-3.677,3.27,4.9,4.9,0,0,0-.109.479,4.969,4.969,0,0,0-3.652,3.265c-.044.131-.057.264-.09.4l-.092.1a4.882,4.882,0,0,0-3.806,4.426q-.814,1.057-1.58,2.157a4.935,4.935,0,0,0-1.052,1.576q-.782,1.213-1.5,2.465a4.528,4.528,0,0,0-1.462,2.746q-.485.984-.921,1.984a4.933,4.933,0,0,0-1.986,5.472c-.025.087-.053.174-.077.261a4.927,4.927,0,0,0-1.621,5.86c-.042.1-.1.192-.135.3a4.962,4.962,0,0,0,.219,3.7,4.887,4.887,0,0,0,1.407,6.933,4.968,4.968,0,0,0,1.984,4.321c.083.142.166.284.253.425a4.972,4.972,0,0,0,3.368,4.831,4.973,4.973,0,0,0,3.376,4.89,4.9,4.9,0,0,0,.479.109,4.854,4.854,0,0,0,4.573,3.883,4.927,4.927,0,0,0,6.269,2.278c.1.042.192.1.3.135a4.976,4.976,0,0,0,4.7-.838,9.626,9.626,0,0,0,1.082-.552,4.968,4.968,0,0,0,3.478-3.1q.287-.353.559-.721A4.867,4.867,0,0,0,61.19,126.1a4.237,4.237,0,0,0,2.533-5.32,4.26,4.26,0,0,0,1.628-2.149l.005-.022a4.96,4.96,0,0,0,.521-.391l.341-.011a4.858,4.858,0,0,0,5.947-.265l.169-.009c.116.049.22.113.341.154a4.956,4.956,0,0,0,4.067-.423c.611-.041,1.247-.088,1.879-.135.145.065.28.144.434.2a4.962,4.962,0,0,0,3.7-.219,4.854,4.854,0,0,0,5.99-.337,4.9,4.9,0,0,0,.448.2A4.969,4.969,0,0,0,94,116.435a4.9,4.9,0,0,0,.448.2,4.969,4.969,0,0,0,4.807-.941,4.9,4.9,0,0,0,.448.2,4.969,4.969,0,0,0,4.807-.941,4.9,4.9,0,0,0,.448.2,4.969,4.969,0,0,0,4.826-.959,4.965,4.965,0,0,0,4.048-1.04l.14-.025c.125.054.24.124.371.168a4.969,4.969,0,0,0,4.826-.959,4.964,4.964,0,0,0,4.06-1.052l.1-.023c.133.058.254.131.394.178a4.969,4.969,0,0,0,4.826-.959,4.979,4.979,0,0,0,4.645-1.6c.329-.088.658-.173.986-.262a4.961,4.961,0,0,0,4.113-1.1,4.9,4.9,0,0,0,.448.2,4.972,4.972,0,0,0,5.642-1.862,4.977,4.977,0,0,0,5.741-2.014,4.968,4.968,0,0,0,4.4-2.092,4.977,4.977,0,0,0,5.741-2.014,4.966,4.966,0,0,0,4.781-2.721,4.961,4.961,0,0,0,3.383-2.62,4.969,4.969,0,0,0,3.677-3.27,4.912,4.912,0,0,0,.133-.587A11.38,11.38,0,0,0,172.865,89.5Z" transform="translate(-24 -62.691)"/></g></svg>