<svg id="Layer_1" data-name="Layer 1" xmlns="http://www.w3.org/2000/svg" xmlns:xlink="http://www.w3.org/1999/xlink" viewBox="0 0 68.093 22.947"><defs><style>.cls-1{fill:url(#linear-gradient);}.cls-2{fill:#0053cc;}.cls-3{font-size:12px;fill:#fff;font-family:Arial-BoldMT, Arial;font-weight:700;}</style><linearGradient id="linear-gradient" x1="1.352" y1="11.348" x2="67.352" y2="11.348" gradientUnits="userSpaceOnUse"><stop offset="0.001" stop-color="#b26eff"/><stop offset="1" stop-color="#0053cc"/></linearGradient></defs><title>R-ICO-013670</title><g id="R-ICO-013670"><rect class="cls-1" x="1.352" y="1.348" width="66" height="20" rx="10"/><path class="cls-2" d="M123,110.15c-6.449-.009-12.9.43-19.347.837-6.449.458-12.9.547-19.347.613H79.469l-2.418,0a11.547,11.547,0,0,1-10.694-7.518,11.043,11.043,0,0,1-.594-5.414,11.353,11.353,0,0,1,2.03-5,10.918,10.918,0,0,1,4.081-3.411A11.145,11.145,0,0,1,77,89.179c6.449.261,12.9.449,19.347.335,3.224-.05,6.449-.194,9.673-.349l9.674-.414c1.612-.032,3.224-.093,4.837-.087l2.418-.012a11.039,11.039,0,0,1,2.706.357,10.748,10.748,0,0,1,7.92,12.249,10.983,10.983,0,0,1-2.031,4.62A10.824,10.824,0,0,1,123,110.15Zm0-.3a9.841,9.841,0,0,0,4.551-1.19,9.525,9.525,0,0,0,3.36-3.22,9.22,9.22,0,0,0,.537-8.67,9.44,9.44,0,0,0-6.416-5.2,10.105,10.105,0,0,0-2.083-.225l-2.418-.012c-1.613.006-3.225-.055-4.837-.087l-9.674-.414c-3.224-.155-6.449-.3-9.673-.349-6.449-.114-12.9.074-19.347.335a9.29,9.29,0,0,0-4.169,1.243,9.707,9.707,0,0,0-3.08,2.954,8.821,8.821,0,0,0-.761,8.043,8.563,8.563,0,0,0,6.035,5.129,9.552,9.552,0,0,0,2.026.215l2.418,0h4.837c6.449.066,12.9.155,19.347.613C110.1,109.42,116.551,109.859,123,109.85Z" transform="translate(-65.648 -88.652)"/><text class="cls-3" transform="translate(4.648 14.233)">MAP3K2,3</text></g></svg>