<svg id="Layer_1" data-name="Layer 1" xmlns="http://www.w3.org/2000/svg" xmlns:xlink="http://www.w3.org/1999/xlink" viewBox="0 0 134.483 67.882"><defs><style>.cls-1{fill:#93447f;}.cls-2{fill:url(#radial-gradient);}.cls-3{fill:#9b317a;}</style><radialGradient id="radial-gradient" cx="279.706" cy="-392.788" r="209.796" gradientTransform="matrix(0.829, -0.033, -0.04, -0.999, -157.362, -465.159)" gradientUnits="userSpaceOnUse"><stop offset="0.728" stop-color="#9b387c"/><stop offset="0.735" stop-color="#9f3f81"/><stop offset="0.78" stop-color="#b3659a"/><stop offset="0.816" stop-color="#bf7ca9"/><stop offset="0.838" stop-color="#c485af"/><stop offset="0.913" stop-color="#ac5891"/><stop offset="0.973" stop-color="#9b387c"/></radialGradient></defs><title>pathogen_03</title><g id="PATHOGEN"><g id="SUGAR_CRYSTALS"><polygon class="cls-1" points="58.63 9.803 61.15 16.369 68.174 16.001 69.994 9.208 64.096 5.377 58.63 9.803"/><polygon class="cls-1" points="75.648 9.217 78.558 15.619 85.547 14.83 86.956 7.94 80.838 4.47 75.648 9.217"/><polygon class="cls-1" points="94.16 7.069 99.133 12.042 105.399 8.849 104.299 1.903 97.353 0.803 94.16 7.069"/><polygon class="cls-1" points="112.407 10.393 118.305 14.224 123.771 9.798 121.25 3.232 114.227 3.6 112.407 10.393"/><polygon class="cls-1" points="124.573 28.274 131.56 29.077 134.483 22.68 129.302 17.924 123.178 21.381 124.573 28.274"/><polygon class="cls-1" points="126.64 46.962 132.599 43.226 130.888 36.405 123.871 35.925 121.246 42.449 126.64 46.962"/><polygon class="cls-1" points="115.158 60.396 118.736 54.341 114.083 49.068 107.63 51.863 108.294 58.865 115.158 60.396"/><polygon class="cls-1" points="96.589 65.28 101.324 60.08 97.843 53.969 90.955 55.392 90.18 62.383 96.589 65.28"/><polygon class="cls-1" points="76.688 67.82 82.154 63.393 79.633 56.828 72.61 57.196 70.79 63.989 76.688 67.82"/><polygon class="cls-1" points="58.318 67.882 64.277 64.146 62.565 57.325 55.549 56.845 52.924 63.369 58.318 67.882"/><polygon class="cls-1" points="37.522 65.608 43.975 62.813 43.311 55.811 36.446 54.279 32.869 60.334 37.522 65.608"/><polygon class="cls-1" points="18.317 59.824 25.205 58.401 25.98 51.41 19.571 48.513 14.836 53.713 18.317 59.824"/><polygon class="cls-1" points="2.517 44.797 8.635 48.267 13.825 43.52 10.914 37.118 3.926 37.907 2.517 44.797"/><polygon class="cls-1" points="0 22.518 2.91 28.92 9.899 28.131 11.308 21.241 5.19 17.771 0 22.518"/><polygon class="cls-1" points="13.136 3.1 10.511 9.625 15.905 14.138 21.864 10.402 20.153 3.581 13.136 3.1"/><polygon class="cls-1" points="33.623 0 27.057 2.52 27.425 9.544 34.219 11.364 38.049 5.466 33.623 0"/><polygon class="cls-1" points="49.141 3.947 42.874 7.14 43.975 14.087 50.921 15.187 54.114 8.92 49.141 3.947"/></g><g id="PATHOGEN-2" data-name="PATHOGEN"><path id="PATHOGEN-3" data-name="PATHOGEN" class="cls-2" d="M81.929,120.707c-10-.946-20.974-3.016-29.875-7.289-8.752-4.2-13.125-16.117-9.768-26.6s13.178-15.575,21.93-11.37c7.179,3.449,21.154,5.38,36.455,5.034,17.282-.388,27.9-3.409,30.086-4.724,8.3-5.085,18.559-1.034,22.913,9.047s1.139,22.392-7.162,27.477c-12.351,7.573-35.279,8.885-44.555,9.1A174.589,174.589,0,0,1,81.929,120.707Z" transform="translate(-31.229 -64.281)"/><path id="MEMBRANE" class="cls-3" d="M104.932,122.218c-1.093.044-2.087.075-2.958.091a175.484,175.484,0,0,1-20.093-.671c-12.215-1.155-22.34-3.63-30.1-7.354a20.025,20.025,0,0,1-9.853-11.441,25.347,25.347,0,0,1-.357-16.37C45.071,75.528,55.36,70.2,64.5,74.58c7.093,3.406,20.943,5.314,36.16,4.972,17.166-.383,27.62-3.342,29.759-4.627,8.655-5.3,19.406-1.068,23.947,9.461a25.37,25.37,0,0,1,1.219,16.326,20.248,20.248,0,0,1-8.709,12.4C135.538,120.049,115.526,121.792,104.932,122.218ZM57.377,74.913c-6.229.25-12,4.843-14.368,12.247-3.2,9.994.983,21.384,9.326,25.391,7.612,3.655,17.588,6.09,29.649,7.233h0a174.62,174.62,0,0,0,19.938.668c9.238-.213,32.012-1.519,44.227-9a18.505,18.505,0,0,0,7.95-11.329,23.13,23.13,0,0,0-1.108-14.907c-4.142-9.616-13.961-13.489-21.871-8.643C128.878,77.915,118.1,81,100.708,81.391c-15.4.349-29.493-1.613-36.759-5.106A14.059,14.059,0,0,0,57.377,74.913Z" transform="translate(-31.229 -64.281)"/></g></g></svg>