<svg id="Layer_1" data-name="Layer 1" xmlns="http://www.w3.org/2000/svg" xmlns:xlink="http://www.w3.org/1999/xlink" viewBox="0 0 73.513 32.933"><defs><style>.cls-1{fill:url(#linear-gradient);}.cls-2{fill:#4a001c;}.cls-3{font-size:12px;fill:#fff;font-family:Arial-BoldMT, Arial;font-weight:700;}</style><linearGradient id="linear-gradient" x1="36.939" y1="31.33" x2="36.939" y2="1.33" gradientUnits="userSpaceOnUse"><stop offset="0" stop-color="#d11c61"/><stop offset="1" stop-color="#4a001c"/></linearGradient></defs><title>CCR4-NOT complex</title><g id="CCR4-NOT_complex" data-name="CCR4-NOT complex"><rect class="cls-1" x="1.439" y="1.33" width="71" height="30" rx="10" ry="10"/><path class="cls-2" d="M124.154,114.259c-7.7-.009-15.4.43-23.1.837-7.7.458-15.4.546-23.1.613l-2.887,0c-.978-.009-1.858.025-3.04-.061a12.15,12.15,0,0,1-3.241-.81,11.574,11.574,0,0,1-6.539-7.142,11.3,11.3,0,0,1-.531-3.259c-.018-1.046.017-1.948.023-2.929l.088-5.774.033-1.444a14.834,14.834,0,0,1,.131-1.6,11.189,11.189,0,0,1,.929-3.1,10.973,10.973,0,0,1,10.23-6.313c7.7.261,15.4.449,23.1.335,3.849-.049,7.7-.194,11.548-.349l11.548-.413,2.887-.058c.976-.018,1.869-.053,3.015.026a11.9,11.9,0,0,1,3.173.777,11.167,11.167,0,0,1,2.793,1.68,11.779,11.779,0,0,1,2.189,2.4,11.487,11.487,0,0,1,1.369,2.929,10.212,10.212,0,0,1,.446,3.176c-.017,1.024-.085,1.942-.126,2.918l-.285,5.774a25.909,25.909,0,0,1-.241,2.947,10.479,10.479,0,0,1-.922,2.863A10.648,10.648,0,0,1,124.154,114.259Zm0-.3a9.77,9.77,0,0,0,5.341-1.658,9.548,9.548,0,0,0,3.449-4.323,9.439,9.439,0,0,0,.617-2.679,25.157,25.157,0,0,0-.065-2.819l-.285-5.774c-.053-.948-.08-1.956-.155-2.855a9.569,9.569,0,0,0-.543-2.49,9.411,9.411,0,0,0-2.949-4.018,9.214,9.214,0,0,0-4.573-1.855c-.775-.062-1.808-.044-2.757-.073l-2.887-.058L107.8,84.944c-3.85-.155-7.7-.3-11.548-.349-7.7-.114-15.4.074-23.1.335A9.157,9.157,0,0,0,68.261,86.6,9.4,9.4,0,0,0,65.1,90.566a8.741,8.741,0,0,0-.611,2.446,12.189,12.189,0,0,0-.045,1.281l.033,1.444.088,5.774c.019.943.011,1.967.052,2.845a8.362,8.362,0,0,0,.458,2.407,8.6,8.6,0,0,0,2.821,3.921,8.8,8.8,0,0,0,4.446,1.783c.739.055,1.785.036,2.731.037l2.887,0c7.7.066,15.4.155,23.1.613C108.756,113.529,116.455,113.967,124.154,113.959Z" transform="translate(-61.715 -82.779)"/><text class="cls-3" transform="translate(5.347 11.815)">CCR4-NOT<tspan x="6.656" y="14.4">complex</tspan></text></g></svg>