<svg id="Layer_1" data-name="Layer 1" xmlns="http://www.w3.org/2000/svg" xmlns:xlink="http://www.w3.org/1999/xlink" viewBox="0 0 90.19 102.123"><defs><style>.cls-1{fill:url(#linear-gradient);}.cls-2{fill:#cca22b;stroke:#af7e05;stroke-miterlimit:10;stroke-width:2px;}</style><linearGradient id="linear-gradient" x1="112.744" y1="52.713" x2="117.076" y2="-21.996" gradientTransform="translate(162.021 5.09) rotate(114.314)" gradientUnits="userSpaceOnUse"><stop offset="0" stop-color="#fff7e0" stop-opacity="0"/><stop offset="0.234" stop-color="#eddeb2"/><stop offset="0.456" stop-color="#deca8e"/><stop offset="0.663" stop-color="#d4bc75"/><stop offset="0.851" stop-color="#ceb365"/><stop offset="1" stop-color="#ccb060"/></linearGradient></defs><title>R-ICO-013654</title><g id="Phagophore"><path class="cls-1" d="M75.441,141.064a45.091,45.091,0,1,0,20.013-86.17c-17.686-.561-46.642,61.942-35.346,74.829A44.927,44.927,0,0,0,75.441,141.064Z" transform="translate(-54.905 -48.939)"/><path class="cls-2" d="M93.932,150.061A50.148,50.148,0,0,1,57.234,134a5,5,0,0,1,7.343-6.789,40.09,40.09,0,1,0,31.66-67.281,5,5,0,0,1,.553-9.984,50.1,50.1,0,0,1-2.857,100.113Z" transform="translate(-54.905 -48.939)"/></g></svg>