<svg id="Layer_1" data-name="Layer 1" xmlns="http://www.w3.org/2000/svg" xmlns:xlink="http://www.w3.org/1999/xlink" viewBox="0 0 89.001 176.373"><defs><style>.cls-1{fill:url(#linear-gradient);}.cls-2{fill:url(#radial-gradient);}.cls-3{fill:url(#linear-gradient-2);}.cls-4{fill:#211c82;}.cls-5{fill:url(#radial-gradient-2);}.cls-6{fill:url(#linear-gradient-3);}.cls-7{fill:url(#linear-gradient-4);}.cls-8{mask:url(#mask);}.cls-9{fill:url(#radial-gradient-3);}</style><linearGradient id="linear-gradient" x1="-44.218" y1="322.08" x2="-44.218" y2="330.882" gradientTransform="translate(54 342.755) rotate(180)" gradientUnits="userSpaceOnUse"><stop offset="0"/><stop offset="0.217" stop-color="#4a4a4a"/><stop offset="0.427" stop-color="#8b8b8b"/><stop offset="0.617" stop-color="#bdbdbd"/><stop offset="0.781" stop-color="#e1e1e1"/><stop offset="0.914" stop-color="#f7f7f7"/><stop offset="1" stop-color="#fff"/></linearGradient><radialGradient id="radial-gradient" cx="89.773" cy="32.564" r="38.82" gradientUnits="userSpaceOnUse"><stop offset="0.713" stop-color="#2d2885"/><stop offset="1" stop-color="#9793db"/></radialGradient><linearGradient id="linear-gradient-2" x1="85.16" y1="123.356" x2="75.081" y2="123.356" gradientUnits="userSpaceOnUse"><stop offset="0" stop-color="#2d2885"/><stop offset="1" stop-color="#9793db"/></linearGradient><radialGradient id="radial-gradient-2" cx="105.702" cy="35.022" r="38.891" gradientUnits="userSpaceOnUse"><stop offset="0.698" stop-color="#9793db"/><stop offset="1" stop-color="#2d2885"/></radialGradient><linearGradient id="linear-gradient-3" x1="121.161" y1="123.356" x2="111.082" y2="123.356" xlink:href="#linear-gradient-2"/><linearGradient id="linear-gradient-4" x1="103.191" y1="99.215" x2="93.112" y2="99.215" xlink:href="#linear-gradient-2"/><mask id="mask" x="39.43" y="0.999" width="10.101" height="8.858" maskUnits="userSpaceOnUse"><g transform="translate(-53.687 -10.841)"><path class="cls-1" d="M93.218,20.7V16.841a5,5,0,0,1,10,0V20.7"/></g></mask><radialGradient id="radial-gradient-3" cx="-41.017" cy="324.682" r="6.944" gradientTransform="translate(54 347.151) rotate(180) scale(1 1.014)" gradientUnits="userSpaceOnUse"><stop offset="0" stop-color="#9793db"/><stop offset="0.42" stop-color="#6460b2"/><stop offset="0.803" stop-color="#3c3791"/><stop offset="1" stop-color="#2d2885"/></radialGradient></defs><title>IL2R</title><g id="IL2R"><path class="cls-2" d="M80.187,186.589a5,5,0,0,1-5-5V68.266a34.118,34.118,0,0,1-11.042-7.381,34,34,0,0,1,0-48.083,5,5,0,0,1,7.071,7.071A24.01,24.01,0,0,0,81.349,59.855l.26.077a5,5,0,0,1,3.578,4.793V181.589A5,5,0,0,1,80.187,186.589Z" transform="translate(-53.687 -10.841)"/><path class="cls-3" d="M80.187,186.589a4.938,4.938,0,0,1-5-4.875V65a5,5,0,0,1,10,0V181.714A4.938,4.938,0,0,1,80.187,186.589Z" transform="translate(-53.687 -10.841)"/><path class="cls-4" d="M80.187,187.214a5.507,5.507,0,0,1-5.5-5.5V68.6a34.505,34.505,0,0,1-10.9-56.15,5.5,5.5,0,0,1,7.778,7.778,23.51,23.51,0,0,0,9.921,39.148l.26.077a5.533,5.533,0,0,1,3.936,5.273V181.714A5.507,5.507,0,0,1,80.187,187.214ZM67.681,11.841A4.489,4.489,0,0,0,64.5,13.155a33.5,33.5,0,0,0,0,47.375A33.851,33.851,0,0,0,75.378,67.8l.309.128V181.714a4.5,4.5,0,0,0,9,0V64.725a4.526,4.526,0,0,0-3.22-4.314l-.26-.077A24.5,24.5,0,0,1,70.863,19.52a4.5,4.5,0,0,0-3.182-7.679Z" transform="translate(-53.687 -10.841)"/><path class="cls-5" d="M116.188,186.589a5,5,0,0,0,5-5V68.266a34.118,34.118,0,0,0,11.042-7.381,34,34,0,0,0,0-48.083,5,5,0,0,0-7.071,7.071,24.01,24.01,0,0,1-10.132,39.981l-.26.077a5,5,0,0,0-3.578,4.793V181.589A5,5,0,0,0,116.188,186.589Z" transform="translate(-53.687 -10.841)"/><path class="cls-6" d="M116.188,186.589a4.938,4.938,0,0,1-5-4.875V65a5,5,0,0,1,10,0V181.714A4.938,4.938,0,0,1,116.188,186.589Z" transform="translate(-53.687 -10.841)"/><path class="cls-4" d="M116.188,187.089a5.507,5.507,0,0,1-5.5-5.5V64.725a5.533,5.533,0,0,1,3.936-5.273l.259-.077A23.5,23.5,0,0,0,124.8,20.227a5.5,5.5,0,0,1,7.778-7.778,34.513,34.513,0,0,1-10.9,56.15V181.589A5.507,5.507,0,0,1,116.188,187.089ZM128.694,11.841a4.5,4.5,0,0,0-3.182,7.679,24.51,24.51,0,0,1-10.344,40.814l-.259.077a4.526,4.526,0,0,0-3.221,4.314V181.589a4.5,4.5,0,1,0,9,0V67.932L121,67.8a33.851,33.851,0,0,0,10.879-7.273,33.5,33.5,0,0,0,0-47.375A4.489,4.489,0,0,0,128.694,11.841Z" transform="translate(-53.687 -10.841)"/><path class="cls-7" d="M98.218,186.589a4.938,4.938,0,0,1-5-4.875v-165a5,5,0,0,1,10,0v165A4.938,4.938,0,0,1,98.218,186.589Z" transform="translate(-53.687 -10.841)"/><g class="cls-8"><path class="cls-9" d="M93.218,20.7l-.1-3.972a5.037,5.037,0,0,1,5.1-4.887,4.766,4.766,0,0,1,5,5V20.7" transform="translate(-53.687 -10.841)"/></g><path class="cls-4" d="M98.218,11.34a5.445,5.445,0,0,0-5.5,5.375v165a5.5,5.5,0,0,0,11,0v-165A5.445,5.445,0,0,0,98.218,11.34Zm4.5,170.373a4.5,4.5,0,0,1-9,0V68.985l.029-3.976a4.434,4.434,0,0,1,4.471-4.386,4.266,4.266,0,0,1,4.5,4.5v116.59Zm-4.5-122.09a5.493,5.493,0,0,0-4.5,2.329V16.715a4.5,4.5,0,0,1,9,0v45.1A5.336,5.336,0,0,0,98.218,59.624Z" transform="translate(-53.687 -10.841)"/></g></svg>