<svg id="Layer_1" data-name="Layer 1" xmlns="http://www.w3.org/2000/svg" xmlns:xlink="http://www.w3.org/1999/xlink" viewBox="0 0 77.915 22.949"><defs><style>.cls-1{fill:url(#linear-gradient);}.cls-2{fill:#1775bc;}.cls-3{font-size:12px;fill:#fff;font-family:Arial-BoldMT, Arial;font-weight:700;}.cls-4{letter-spacing:-0.018em;}</style><linearGradient id="linear-gradient" x1="39.297" y1="1.347" x2="39.297" y2="21.347" gradientUnits="userSpaceOnUse"><stop offset="0" stop-color="#1775bc"/><stop offset="1" stop-color="#2c8a0c"/></linearGradient></defs><title>IAPP_(1-828)</title><g id="IAPP__1-828_" data-name="IAPP_(1-828)"><rect class="cls-1" x="1.297" y="1.347" width="76" height="20" rx="10" ry="10"/><path class="cls-2" d="M128,110.15c-7.282-.009-14.565.43-21.847.837-7.282.458-14.565.546-21.847.613-3.641,0-7.282.019-10.923-.037l-1.365-.019a13.211,13.211,0,0,1-1.566-.135,11.433,11.433,0,0,1-3.011-.875,11.59,11.59,0,0,1-4.739-3.952,11.149,11.149,0,0,1-.627-11.72A10.983,10.983,0,0,1,72,89.179c7.282.261,14.565.449,21.847.335,3.641-.049,7.282-.194,10.923-.349l10.923-.413c3.641-.085,7.282-.131,10.923-.071l1.365.019a12.966,12.966,0,0,1,1.533.133,11.128,11.128,0,0,1,2.925.9,10.777,10.777,0,0,1,4.475,3.952A10.679,10.679,0,0,1,128,110.15Zm0-.3a9.683,9.683,0,0,0,5.08-1.5,9.406,9.406,0,0,0,3.449-3.941,9.237,9.237,0,0,0-1.148-9.63,9.526,9.526,0,0,0-3.891-2.86,8.714,8.714,0,0,0-2.319-.55,10.435,10.435,0,0,0-1.188-.071l-1.365.019c-3.641.061-7.282.015-10.923-.071l-10.923-.413c-3.641-.155-7.282-.3-10.923-.349-7.282-.114-14.565.074-21.847.335a9.084,9.084,0,0,0-4.652,1.526,8.549,8.549,0,0,0-1.822,1.613,8.718,8.718,0,0,0,3.1,13.848,8.418,8.418,0,0,0,2.234.579,10.2,10.2,0,0,0,1.155.069l1.365-.019c3.641-.056,7.282-.036,10.923-.037,7.282.066,14.565.155,21.847.613C113.435,109.42,120.718,109.859,128,109.85Z" transform="translate(-60.703 -88.653)"/><text class="cls-3" transform="translate(4.392 14.236)">IAP<tspan class="cls-4" x="20.004" y="0">P</tspan><tspan x="27.791" y="0" xml:space="preserve"> (1-828)</tspan></text></g></svg>