<svg id="Layer_1" data-name="Layer 1" xmlns="http://www.w3.org/2000/svg" xmlns:xlink="http://www.w3.org/1999/xlink" viewBox="0 0 55.339 22.875"><defs><style>.cls-1{fill:url(#linear-gradient);}.cls-2{fill:#0f1a09;}.cls-3{font-size:12px;fill:#fff;font-family:Arial-BoldMT, Arial;font-weight:700;}</style><linearGradient id="linear-gradient" x1="27.9" y1="21.267" x2="27.9" y2="1.267" gradientUnits="userSpaceOnUse"><stop offset="0" stop-color="#65ad3e"/><stop offset="0.442" stop-color="#3b6624"/><stop offset="0.818" stop-color="#1b2f11"/><stop offset="1" stop-color="#0f1a09"/></linearGradient></defs><title>NANOG</title><g id="SMAD4"><rect class="cls-1" x="1.4" y="1.267" width="53" height="20" rx="10" ry="10"/><path class="cls-2" d="M114.148,108.587c-5.366-.009-10.731.43-16.1.837-5.366.458-10.731.546-16.1.613-.35,0-.639.019-1.038,0s-.779-.022-1.164-.084a11.821,11.821,0,0,1-2.274-.52,11.12,11.12,0,0,1-3.985-2.351A11.407,11.407,0,0,1,69.752,98.9a11.1,11.1,0,0,1,3.33-8.207,10.834,10.834,0,0,1,8.066-3.074c5.366.282,10.731.437,16.1.335,5.366-.084,10.731-.574,16.1-.762a17.539,17.539,0,0,1,2.166.032,10.068,10.068,0,0,1,2.226.474,10.729,10.729,0,0,1,3.911,2.279A10.585,10.585,0,0,1,125.083,98a10.808,10.808,0,0,1-3.459,7.621A10.988,10.988,0,0,1,114.148,108.587Zm0-.3a9.105,9.105,0,0,0,9.025-10.214,9.591,9.591,0,0,0-6.289-7.846,11.031,11.031,0,0,0-1.69-.413,14.912,14.912,0,0,0-1.851-.128c-5.366-.188-10.731-.678-16.1-.762-5.366-.1-10.731.053-16.1.335a9.086,9.086,0,0,0-6.33,3.1,8.872,8.872,0,0,0-2.233,6.425,8.584,8.584,0,0,0,2.988,5.951A8.985,8.985,0,0,0,78.5,106.4a8.62,8.62,0,0,0,1.642.367c.277.047.562.033.842.056s.653,0,.974.016c5.366.066,10.731.155,16.1.613C103.417,107.857,108.783,108.3,114.148,108.287Z" transform="translate(-69.748 -87.17)"/><text class="cls-3" transform="translate(5.567 14.156)">NANOG</text></g></svg>