<svg id="Layer_1" data-name="Layer 1" xmlns="http://www.w3.org/2000/svg" xmlns:xlink="http://www.w3.org/1999/xlink" viewBox="0 0 143.973 133.38"><defs><style>.cls-1{fill:url(#linear-gradient);}.cls-2{fill:#ff919e;}.cls-3{opacity:0.7;}.cls-4{isolation:isolate;}.cls-5{fill:url(#radial-gradient);}.cls-6{fill:#5656a5;}.cls-7{fill:url(#radial-gradient-2);}.cls-8{fill:#4b4b96;}.cls-9{fill:url(#linear-gradient-2);}.cls-10{fill:#ad342d;}.cls-11{mask:url(#mask);}.cls-12{fill:url(#radial-gradient-3);}.cls-13{fill:url(#radial-gradient-4);}.cls-14{fill:url(#radial-gradient-5);}.cls-15{fill:url(#radial-gradient-6);}</style><linearGradient id="linear-gradient" x1="155.059" y1="306.749" x2="150.287" y2="291.023" gradientTransform="matrix(1, 0, 0, -1, -76.538, 427.093)" gradientUnits="userSpaceOnUse"><stop offset="0.036"/><stop offset="0.406" stop-color="#fff"/><stop offset="0.462" stop-color="#cacaca"/><stop offset="0.526" stop-color="#959595"/><stop offset="0.59" stop-color="#676767"/><stop offset="0.654" stop-color="#424242"/><stop offset="0.718" stop-color="#252525"/><stop offset="0.781" stop-color="#101010"/><stop offset="0.843" stop-color="#040404"/><stop offset="0.903"/></linearGradient><radialGradient id="radial-gradient" cx="127.537" cy="1069.842" r="14.987" gradientTransform="translate(1172.735 -10.087) rotate(90)" gradientUnits="userSpaceOnUse"><stop offset="0" stop-color="#afbaf7"/><stop offset="0.311" stop-color="#6d96ce"/><stop offset="0.803" stop-color="#285fcc"/></radialGradient><radialGradient id="radial-gradient-2" cx="124.708" cy="1074.534" r="2.893" gradientTransform="translate(1168.354 -8.153) rotate(90)" gradientUnits="userSpaceOnUse"><stop offset="0" stop-color="#afbaf7"/><stop offset="0.312" stop-color="#b898ce"/><stop offset="0.803" stop-color="#515181"/></radialGradient><linearGradient id="linear-gradient-2" x1="158.68" y1="641.307" x2="144.65" y2="644.089" gradientTransform="translate(-383.22 -341.609) rotate(-30.922)" gradientUnits="userSpaceOnUse"><stop offset="0" stop-color="#d86e66"/><stop offset="1" stop-color="#a33029"/></linearGradient><mask id="mask" x="41.662" y="87.54" width="16.677" height="19.645" maskUnits="userSpaceOnUse"><g transform="translate(-26.158 -30.765)"><g id="SVGID"><rect class="cls-1" x="71.697" y="119.351" width="8.925" height="17.554" transform="translate(-55.017 57.348) rotate(-30.922)"/></g></g></mask><radialGradient id="radial-gradient-3" cx="-1109.381" cy="343.564" r="6.331" gradientTransform="matrix(-0.968, 0.251, 0.488, 1.884, -1162.788, -241.352)" gradientUnits="userSpaceOnUse"><stop offset="0.782" stop-color="#fff" stop-opacity="0"/><stop offset="0.852" stop-color="#ffba94"/><stop offset="0.9" stop-color="#fff" stop-opacity="0"/></radialGradient><radialGradient id="radial-gradient-4" cx="126.645" cy="800.493" r="2.642" gradientTransform="translate(-9.829 -669.673)" gradientUnits="userSpaceOnUse"><stop offset="0" stop-color="#d8ba5d"/><stop offset="1" stop-color="#1da075"/></radialGradient><radialGradient id="radial-gradient-5" cx="144.117" cy="802.51" r="1.807" gradientTransform="translate(-14.715 -683.696)" xlink:href="#radial-gradient-4"/><radialGradient id="radial-gradient-6" cx="138.022" cy="811.977" r="1.885" gradientTransform="translate(-5.182 -682.384)" xlink:href="#radial-gradient-4"/></defs><title>podocyte</title><g id="PODOCYTE"><path id="PODOCYTE-2" data-name="PODOCYTE" class="cls-2" d="M158.315,127.988c-14.127-6.957-21.424-20.675-18.813-34.365a68.622,68.622,0,0,0,1.18-12.84c0-27.624-15.43-50.018-42.537-50.018S55.608,53.159,55.608,80.783a68.622,68.622,0,0,0,1.18,12.84c2.61,13.69-4.687,27.407-18.813,34.365-7.469,3.679-11.816,17.531-11.816,22.265,0,12.891,32.229,13.893,71.986,13.893s71.986-1,71.986-13.893C170.131,145.519,165.785,131.666,158.315,127.988Z" transform="translate(-26.158 -30.765)"/><g id="NUCLEUS" class="cls-3"><g id="NUCLEUS-2" data-name="NUCLEUS" class="cls-4"><circle class="cls-5" cx="98.145" cy="120.415" r="11.403" transform="translate(-83.271 84.415) rotate(-48.887)"/><path class="cls-6" d="M90.371,129.322a11.823,11.823,0,1,1,16.681-1.133A11.836,11.836,0,0,1,90.371,129.322Zm15-17.183a10.984,10.984,0,1,0,1.053,15.5A10.995,10.995,0,0,0,105.367,112.14Z" transform="translate(-26.158 -30.765)"/></g><g id="NUCLEOLUS"><circle class="cls-7" cx="93.827" cy="116.564" r="2.327" transform="translate(-81.848 79.843) rotate(-48.887)"/><path class="cls-8" d="M92.215,118.411a2.442,2.442,0,1,1,3.445-.249A2.433,2.433,0,0,1,92.215,118.411Zm3.074-3.522a2.222,2.222,0,1,0,.213,3.135A2.223,2.223,0,0,0,95.288,114.889Z" transform="translate(-26.158 -30.765)"/></g></g><g id="MITOCHONDRION" class="cls-3"><path class="cls-9" d="M77.548,117.159c-1.932-.19-4.4,2.482-5.619,5.058-1.815,3.876,1.416,11.937,5.5,16.509,2.478,2.777,4.405,3.064,5.567,2.807a3.25,3.25,0,0,0,.959-.387,4.61,4.61,0,0,0,1.9-2.64,6.879,6.879,0,0,0-1.457-6.617c-2.994-3.063-3.49-5.931-4.106-9.26-.184-.987-.358-2.01-.62-3.075C79.2,117.672,78.262,117.2,77.548,117.159Z" transform="translate(-26.158 -30.765)"/><path class="cls-10" d="M79.333,121.761a12.673,12.673,0,0,0-2.933,1.381c-1.6.893-2.117,1.174-2.527,1.012a.623.623,0,0,1-.29-.328c-.142-.6.655-1.051,2.625-2.1a13.145,13.145,0,0,0,2.717-1.69.963.963,0,0,1-.06-.309c-.29-1.111-.746-1.716-1.414-1.785-1.36-.125-3.62,2.012-4.8,4.6a7.349,7.349,0,0,0-.275,4.144,14.888,14.888,0,0,0,2.606-1.247c1.956-1.077,2.864-1.5,3.4-1.284a.569.569,0,0,1,.355.383c.225.742-.812,1.207-2.362,1.916-1.48.667-3.754,1.685-3.418,2.612a25.308,25.308,0,0,0,2.288,5.179,10.223,10.223,0,0,0,2.6-1.367c1.854-1.142,3.2-1.98,3.754-1.214a.561.561,0,0,1,.087.512c-.129.516-.835.908-2.177,1.649-.406.212-.881.465-1.319.727-.83.5-1.55,1.022-1.647,1.488a.519.519,0,0,0,.115.4c.47.627.912,1.209,1.373,1.716,1.926,2.168,3.787,3.027,5.212,2.424,1.379-.575,2.224-2.46,2.087-4.572a.037.037,0,0,0-.028-.046c-.346-.106-1.9,1.013-2.643,1.552-1.384.986-2.149,1.538-2.573,1.04a.674.674,0,0,1-.147-.507c.074-.608.909-1.2,2.376-2.207.8-.543,2.44-1.681,2.422-2.077a5.442,5.442,0,0,0-.921-1.328,14.112,14.112,0,0,1-2.547-3.519c-.041-.069-.069-.115-.143-.134-.6-.171-2.232.773-3.316,1.422-1.338.8-2.066,1.206-2.536,1.049a.611.611,0,0,1-.364-.346c-.354-.853.932-1.53,2.7-2.5.775-.433,2.813-1.529,2.712-1.907-.359-1.227-.584-2.439-.827-3.735C79.443,122.416,79.384,122.107,79.333,121.761Z" transform="translate(-26.158 -30.765)"/><g class="cls-11"><path id="LIGHT" class="cls-12" d="M75.273,118.96a7.475,7.475,0,0,0-2.882,7.743,24.094,24.094,0,0,0,4.7,10.312s-4.382-9.251-3.365-13.308S75.273,118.96,75.273,118.96Z" transform="translate(-26.158 -30.765)"/></g></g><g id="LYSOSOME" class="cls-3"><circle id="LYSOSOME-2" data-name="LYSOSOME" class="cls-13" cx="117.311" cy="131.568" r="2.099" transform="translate(-84.978 107.875) rotate(-50.578)"/><circle id="LYSOSOME-3" data-name="LYSOSOME" class="cls-14" cx="129.709" cy="119.385" r="1.812" transform="translate(-71.042 113.005) rotate(-50.578)"/><circle id="LYSOSOME-4" data-name="LYSOSOME" class="cls-15" cx="133.087" cy="130.129" r="1.869" transform="translate(-78.109 119.536) rotate(-50.578)"/></g></g></svg>