<svg id="Layer_1" data-name="Layer 1" xmlns="http://www.w3.org/2000/svg" xmlns:xlink="http://www.w3.org/1999/xlink" viewBox="0 0 53.88 97.941"><defs><style>.cls-1{fill:url(#linear-gradient);}.cls-2{fill:url(#linear-gradient-2);}.cls-3{fill:url(#radial-gradient);}.cls-4{fill:url(#radial-gradient-2);}</style><linearGradient id="linear-gradient" x1="1163.915" y1="474.955" x2="1174.007" y2="474.955" gradientTransform="translate(-1063.606 -367.088)" gradientUnits="userSpaceOnUse"><stop offset="0" stop-color="#569fff"/><stop offset="1" stop-color="#0037b8"/></linearGradient><linearGradient id="linear-gradient-2" x1="1153.205" y1="474.955" x2="1163.297" y2="474.955" xlink:href="#linear-gradient"/><radialGradient id="radial-gradient" cx="440.659" cy="1172.842" r="17.645" gradientTransform="translate(-407.102 1202.708) rotate(-135)" gradientUnits="userSpaceOnUse"><stop offset="0" stop-color="#ddff9b"/><stop offset="1" stop-color="#0037b8"/></radialGradient><radialGradient id="radial-gradient-2" cx="1154.381" cy="459.12" r="17.645" gradientTransform="matrix(0.707, -0.707, -0.707, -0.707, -402.254, 1202.708)" xlink:href="#radial-gradient"/></defs><title>MET</title><g id="MET"><path class="cls-1" d="M110.242,113.269a34.13,34.13,0,0,0-1.336-4.625,49.3,49.3,0,0,1-1.8-4.625c-.333-1.542-.233-17.792-.031-20.875.435-6.167,1.034-5.333,2.276-11.5a4.168,4.168,0,0,0,0-1.611,4.081,4.081,0,1,0-7.976,1.728c1.226,6.128,1.82,5.255,2.252,11.382.2,3.083.3,19.334-.031,20.875a49.23,49.23,0,0,1-1.8,4.625,34.128,34.128,0,0,0-1.335,4.625,12.3,12.3,0,0,0,.15,4.625c.31,1.542,2.189,7.708,2.239,9.25a89.984,89.984,0,0,0,.356,9.25q.149,2.35.31,4.7a2.11,2.11,0,0,1-.613,1.7,3.583,3.583,0,1,0,4.908.017,2.142,2.142,0,0,1-.631-1.713q.163-2.352.31-4.7a89.984,89.984,0,0,0,.356-9.25c.05-1.542,1.929-7.708,2.239-9.25A12.3,12.3,0,0,0,110.242,113.269Z" transform="translate(-73.06 -51.036)"/><path class="cls-2" d="M99.532,113.269a34.128,34.128,0,0,0-1.335-4.625,49.23,49.23,0,0,1-1.8-4.625c-.333-1.542-.233-17.792-.031-20.875.435-6.167,1.034-5.333,2.276-11.5a4.168,4.168,0,0,0,0-1.611A4.085,4.085,0,0,0,93.01,67.1a4.166,4.166,0,0,0-2.336,4.689c1.222,6.119,1.815,5.239,2.247,11.358.2,3.083.3,19.334-.031,20.875a49.3,49.3,0,0,1-1.8,4.625,34.13,34.13,0,0,0-1.336,4.625,12.3,12.3,0,0,0,.15,4.625c.31,1.542,2.189,7.708,2.239,9.25a89.984,89.984,0,0,0,.356,9.25q.148,2.35.31,4.7a2.111,2.111,0,0,1-.613,1.7,3.583,3.583,0,1,0,4.908.017,2.142,2.142,0,0,1-.631-1.713q.163-2.352.311-4.7a89.984,89.984,0,0,0,.356-9.25c.051-1.542,1.929-7.708,2.239-9.25A12.3,12.3,0,0,0,99.532,113.269Z" transform="translate(-73.06 -51.036)"/><path class="cls-3" d="M123.463,52.249c5.2,5.2,4.528,12.335-1.756,18.619s-14.419,9.957-19.619,4.756a5.476,5.476,0,0,1,0-7.854c1.636-1.6,5.238-2.616,6.854-1,.771.771,2.577,2.577,6.911-1.756s2.528-6.14,1.756-6.911a4.139,4.139,0,1,1,5.854-5.854Z" transform="translate(-73.06 -51.036)"/><path class="cls-4" d="M76.537,52.249c-5.2,5.2-4.528,12.335,1.756,18.619s14.419,9.957,19.619,4.756a5.476,5.476,0,0,0,0-7.854c-1.636-1.6-5.238-2.616-6.854-1-.771.771-2.577,2.577-6.911-1.756s-2.528-6.14-1.756-6.911a4.139,4.139,0,1,0-5.854-5.854Z" transform="translate(-73.06 -51.036)"/></g></svg>