<svg id="Layer_1" data-name="Layer 1" xmlns="http://www.w3.org/2000/svg" xmlns:xlink="http://www.w3.org/1999/xlink" viewBox="0 0 52.965 141.898"><defs><style>.cls-1{fill:url(#linear-gradient);}.cls-2{fill:url(#linear-gradient-2);}.cls-3{fill:url(#radial-gradient);}.cls-4{fill:url(#radial-gradient-2);}.cls-5{fill:url(#radial-gradient-3);}.cls-6{fill:url(#radial-gradient-4);}</style><linearGradient id="linear-gradient" x1="900.716" y1="484.073" x2="960.912" y2="467.944" gradientTransform="translate(-820.241 -372.534)" gradientUnits="userSpaceOnUse"><stop offset="0" stop-color="#4a0052"/><stop offset="1" stop-color="#b6b6ff"/></linearGradient><linearGradient id="linear-gradient-2" x1="225.078" y1="486.803" x2="285.273" y2="470.674" gradientTransform="matrix(-1, 0, 0, 1, 354.788, -372.534)" xlink:href="#linear-gradient"/><radialGradient id="radial-gradient" cx="715.53" cy="-247.112" r="16.089" gradientTransform="translate(-590.861 290.571)" gradientUnits="userSpaceOnUse"><stop offset="0" stop-color="#522000"/><stop offset="1" stop-color="#de5bbb"/></radialGradient><radialGradient id="radial-gradient-2" cx="61.897" cy="-164.88" r="16.089" gradientTransform="translate(34.376 309.795) rotate(-0.014)" xlink:href="#radial-gradient"/><radialGradient id="radial-gradient-3" cx="50.077" cy="-247.112" r="16.089" gradientTransform="matrix(-1, 0, 0, 1, 125.408, 290.571)" xlink:href="#radial-gradient"/><radialGradient id="radial-gradient-4" cx="-603.556" cy="-165.041" r="16.089" gradientTransform="matrix(-1, 0, 0, 1, -499.829, 309.795)" xlink:href="#radial-gradient"/></defs><title>ERBB4</title><g id="ERBB4"><path class="cls-1" d="M87.012,170.949a2,2,0,0,1-2-2V133.7c0-8.208,4.754-12.729,9.352-17.1,4.447-4.228,8.648-8.222,8.648-15.651V73.131c0-9.217,2.612-13.422,4.916-17.132,2.058-3.312,3.834-6.171,3.834-12.541a2,2,0,0,1,4,0c0,7.511-2.255,11.141-4.436,14.651-2.219,3.571-4.314,6.945-4.314,15.021v27.817c0,9.146-5.255,14.142-9.892,18.55-4.351,4.137-8.108,7.708-8.108,14.2v35.25A2,2,0,0,1,87.012,170.949Z" transform="translate(-73.518 -29.051)"/><path class="cls-2" d="M112.988,170.949a2,2,0,0,0,2-2V133.7c0-8.208-4.754-12.729-9.352-17.1-4.447-4.228-8.648-8.222-8.648-15.651V73.131c0-9.217-2.612-13.422-4.916-17.132-2.058-3.312-3.834-6.171-3.834-12.541a2,2,0,0,0-4,0c0,7.511,2.255,11.141,4.436,14.651,2.219,3.571,4.314,6.945,4.314,15.021v27.817c0,9.146,5.255,14.142,9.892,18.55,4.351,4.137,8.108,7.708,8.108,14.2v35.25A2,2,0,0,0,112.988,170.949Z" transform="translate(-73.518 -29.051)"/><path class="cls-3" d="M122.343,57.867c-7.355,0-11.924-5.521-11.924-14.408s4.569-14.408,11.924-14.408a4.139,4.139,0,0,1,0,8.279c-1.091,0-3.645,0-3.645,6.129s2.554,6.129,3.645,6.129a4.139,4.139,0,0,1,0,8.279Z" transform="translate(-73.518 -29.051)"/><path class="cls-4" d="M93.91,159.309c-7.355,0-11.925-5.518-11.927-14.405s4.566-14.409,11.92-14.41a4.139,4.139,0,0,1,0,8.279c-1.091,0-3.645,0-3.644,6.13s2.556,6.128,3.647,6.128a4.139,4.139,0,0,1,0,8.279Z" transform="translate(-73.518 -29.051)"/><path class="cls-5" d="M77.657,57.867c7.355,0,11.924-5.521,11.924-14.408S85.012,29.051,77.657,29.051a4.139,4.139,0,0,0,0,8.279c1.091,0,3.645,0,3.645,6.129s-2.554,6.129-3.645,6.129a4.139,4.139,0,0,0,0,8.279Z" transform="translate(-73.518 -29.051)"/><path class="cls-6" d="M106.09,159.309c7.355,0,11.925-5.518,11.927-14.405s-4.566-14.409-11.92-14.41a4.139,4.139,0,0,0,0,8.279c1.091,0,3.645,0,3.644,6.13s-2.556,6.128-3.647,6.128a4.139,4.139,0,0,0,0,8.279Z" transform="translate(-73.518 -29.051)"/></g></svg>