<svg id="Layer_1" data-name="Layer 1" xmlns="http://www.w3.org/2000/svg" xmlns:xlink="http://www.w3.org/1999/xlink" viewBox="0 0 167.206 8.735"><defs><style>.cls-1{fill:url(#linear-gradient);}.cls-2{fill:url(#linear-gradient-2);}.cls-3{fill:url(#linear-gradient-3);}.cls-4{fill:url(#linear-gradient-4);}.cls-5{fill:url(#linear-gradient-5);}.cls-6{fill:url(#linear-gradient-6);}</style><linearGradient id="linear-gradient" x1="-631.286" y1="29.512" x2="-631.286" y2="20.88" gradientTransform="translate(-572.559 125.128) rotate(180)" gradientUnits="userSpaceOnUse"><stop offset="0" stop-color="#252613"/><stop offset="0.094" stop-color="#9ba138"/><stop offset="0.118" stop-color="#9ea33f"/><stop offset="0.152" stop-color="#a5aa51"/><stop offset="0.192" stop-color="#b1b570"/><stop offset="0.235" stop-color="#c2c49a"/><stop offset="0.273" stop-color="#d3d3c3"/><stop offset="0.31" stop-color="#d2d2c0"/><stop offset="0.336" stop-color="#cecfb7"/><stop offset="0.359" stop-color="#c8c9a8"/><stop offset="0.379" stop-color="#bfc192"/><stop offset="0.398" stop-color="#b4b776"/><stop offset="0.416" stop-color="#a6ab54"/><stop offset="0.428" stop-color="#9ba138"/><stop offset="0.542" stop-color="#777c2d"/><stop offset="0.677" stop-color="#545722"/><stop offset="0.803" stop-color="#3a3c1a"/><stop offset="0.914" stop-color="#2a2c15"/><stop offset="1" stop-color="#252613"/></linearGradient><linearGradient id="linear-gradient-2" x1="84.28" y1="-25.653" x2="84.28" y2="-34.36" gradientTransform="translate(-53.07 130.029)" xlink:href="#linear-gradient"/><linearGradient id="linear-gradient-3" x1="-686.317" y1="29.512" x2="-686.317" y2="20.88" xlink:href="#linear-gradient"/><linearGradient id="linear-gradient-4" x1="139.312" y1="-25.653" x2="139.312" y2="-34.36" gradientTransform="translate(-53.07 130.029)" xlink:href="#linear-gradient"/><linearGradient id="linear-gradient-5" x1="-741.349" y1="29.512" x2="-741.349" y2="20.88" xlink:href="#linear-gradient"/><linearGradient id="linear-gradient-6" x1="194.344" y1="-25.653" x2="194.344" y2="-34.36" gradientTransform="translate(-53.07 130.029)" xlink:href="#linear-gradient"/></defs><title>pre-mRNA</title><g id="pre-mRNA"><path class="cls-1" d="M43.913,104.364c7.534,0,16.507-8.735,27.783-8.735l1.844.006c-7.154,0-16.961,8.729-27.516,8.729Z" transform="translate(-16.397 -95.629)"/><path class="cls-2" d="M46.024,104.364c-7.534,0-17.162-8.735-27.516-8.735H16.4c7.154,0,16.67,8.735,27.516,8.735Z" transform="translate(-16.397 -95.629)"/><path class="cls-3" d="M98.945,104.364c7.534,0,16.507-8.735,27.783-8.735l1.844.006c-7.154,0-16.961,8.729-27.516,8.729Z" transform="translate(-16.397 -95.629)"/><path class="cls-4" d="M101.055,104.364c-7.534,0-17.162-8.735-27.516-8.735H71.429c7.154,0,16.67,8.735,27.516,8.735Z" transform="translate(-16.397 -95.629)"/><path class="cls-5" d="M153.976,104.364c7.534,0,16.507-8.735,27.783-8.735l1.844.006c-7.154,0-16.961,8.729-27.516,8.729Z" transform="translate(-16.397 -95.629)"/><path class="cls-6" d="M156.087,104.364c-7.534,0-17.162-8.735-27.516-8.735H126.46c7.154,0,16.67,8.735,27.516,8.735Z" transform="translate(-16.397 -95.629)"/></g></svg>