<svg id="Layer_1" data-name="Layer 1" xmlns="http://www.w3.org/2000/svg" xmlns:xlink="http://www.w3.org/1999/xlink" viewBox="0 0 39.304 147.391"><defs><style>.cls-1{fill:url(#linear-gradient);}.cls-2{fill:#111d33;}.cls-3{fill:url(#linear-gradient-2);}.cls-4{fill:url(#linear-gradient-3);}.cls-5{fill:url(#linear-gradient-4);}.cls-6{fill:url(#linear-gradient-5);}.cls-7{fill:url(#linear-gradient-6);}.cls-8{fill:url(#radial-gradient);}.cls-9{fill:url(#radial-gradient-2);}.cls-10{fill:url(#radial-gradient-3);}.cls-11{fill:url(#radial-gradient-4);}.cls-12{fill:url(#radial-gradient-5);}.cls-13{fill:url(#radial-gradient-6);}.cls-14{fill:url(#linear-gradient-7);}.cls-15{fill:url(#linear-gradient-8);}.cls-16{fill:url(#linear-gradient-9);}.cls-17{fill:url(#linear-gradient-10);}.cls-18{fill:url(#linear-gradient-11);}.cls-19{fill:url(#linear-gradient-12);}.cls-20{fill:url(#radial-gradient-7);}.cls-21{fill:url(#radial-gradient-8);}.cls-22{fill:url(#radial-gradient-9);}.cls-23{fill:url(#radial-gradient-10);}.cls-24{fill:url(#radial-gradient-11);}.cls-25{fill:url(#radial-gradient-12);}</style><linearGradient id="linear-gradient" x1="87.551" y1="102.293" x2="94.101" y2="102.293" gradientUnits="userSpaceOnUse"><stop offset="0" stop-color="#111d33"/><stop offset="0.393" stop-color="#0f47b0"/><stop offset="0.469" stop-color="#0f3f9a"/><stop offset="0.637" stop-color="#10316e"/><stop offset="0.787" stop-color="#11264e"/><stop offset="0.914" stop-color="#111f3a"/><stop offset="1" stop-color="#111d33"/></linearGradient><linearGradient id="linear-gradient-2" x1="9.826" y1="104.845" x2="9.826" y2="100.791" gradientUnits="userSpaceOnUse"><stop offset="0" stop-color="#111d33"/><stop offset="1" stop-color="#0f47b0"/></linearGradient><linearGradient id="linear-gradient-3" x1="9.826" y1="98.764" x2="9.826" y2="94.71" xlink:href="#linear-gradient-2"/><linearGradient id="linear-gradient-4" x1="9.826" y1="92.683" x2="9.826" y2="88.63" xlink:href="#linear-gradient-2"/><linearGradient id="linear-gradient-5" x1="9.826" y1="86.602" x2="9.826" y2="82.549" xlink:href="#linear-gradient-2"/><linearGradient id="linear-gradient-6" x1="9.826" y1="80.521" x2="9.826" y2="76.468" xlink:href="#linear-gradient-2"/><radialGradient id="radial-gradient" cx="8.627" cy="63.412" r="5.895" gradientUnits="userSpaceOnUse"><stop offset="0" stop-color="#0f47b0"/><stop offset="1" stop-color="#111d33"/></radialGradient><radialGradient id="radial-gradient-2" cx="7.872" cy="52.147" r="5.895" xlink:href="#radial-gradient"/><radialGradient id="radial-gradient-3" cx="7.611" cy="39.835" r="5.895" xlink:href="#radial-gradient"/><radialGradient id="radial-gradient-4" cx="7.35" cy="28.044" r="5.895" xlink:href="#radial-gradient"/><radialGradient id="radial-gradient-5" cx="7.481" cy="16.253" r="5.895" xlink:href="#radial-gradient"/><radialGradient id="radial-gradient-6" cx="7.872" cy="4.853" r="5.895" xlink:href="#radial-gradient"/><linearGradient id="linear-gradient-7" x1="107.203" y1="102.293" x2="113.754" y2="102.293" xlink:href="#linear-gradient"/><linearGradient id="linear-gradient-8" x1="29.479" y1="104.845" x2="29.479" y2="100.791" xlink:href="#linear-gradient-2"/><linearGradient id="linear-gradient-9" x1="29.479" y1="98.764" x2="29.479" y2="94.71" xlink:href="#linear-gradient-2"/><linearGradient id="linear-gradient-10" x1="29.479" y1="92.683" x2="29.479" y2="88.63" xlink:href="#linear-gradient-2"/><linearGradient id="linear-gradient-11" x1="29.479" y1="86.602" x2="29.479" y2="82.549" xlink:href="#linear-gradient-2"/><linearGradient id="linear-gradient-12" x1="29.479" y1="80.521" x2="29.479" y2="76.468" xlink:href="#linear-gradient-2"/><radialGradient id="radial-gradient-7" cx="28.28" cy="63.412" r="5.895" xlink:href="#radial-gradient"/><radialGradient id="radial-gradient-8" cx="27.524" cy="52.147" r="5.895" xlink:href="#radial-gradient"/><radialGradient id="radial-gradient-9" cx="27.264" cy="39.835" r="5.895" xlink:href="#radial-gradient"/><radialGradient id="radial-gradient-10" cx="27.003" cy="28.044" r="5.895" xlink:href="#radial-gradient"/><radialGradient id="radial-gradient-11" cx="27.134" cy="16.253" r="5.895" xlink:href="#radial-gradient"/><radialGradient id="radial-gradient-12" cx="27.524" cy="4.853" r="5.895" xlink:href="#radial-gradient"/></defs><title>L1CAM</title><path class="cls-1" d="M90.826,174.679a3.275,3.275,0,0,1-3.275-3.275V33.183a3.275,3.275,0,0,1,6.551,0V171.4A3.275,3.275,0,0,1,90.826,174.679Z" transform="translate(-81 -27.288)"/><path class="cls-2" d="M90.826,98.034a3.275,3.275,0,0,1-3.275-3.275V33.183a3.275,3.275,0,0,1,6.551,0V94.758A3.275,3.275,0,0,1,90.826,98.034Z" transform="translate(-81 -27.288)"/><rect class="cls-3" y="100.791" width="19.652" height="4.054" rx="2.027" ry="2.027"/><rect class="cls-4" y="94.71" width="19.652" height="4.054" rx="2.027" ry="2.027"/><rect class="cls-5" y="88.63" width="19.652" height="4.054" rx="2.027" ry="2.027"/><rect class="cls-6" y="82.549" width="19.652" height="4.054" rx="2.027" ry="2.027"/><rect class="cls-7" y="76.468" width="19.652" height="4.054" rx="2.027" ry="2.027"/><circle class="cls-8" cx="9.826" cy="64.85" r="5.895"/><circle class="cls-9" cx="9.826" cy="53.059" r="5.895"/><circle class="cls-10" cx="9.826" cy="41.268" r="5.895"/><circle class="cls-11" cx="9.826" cy="29.477" r="5.895"/><circle class="cls-12" cx="9.826" cy="17.686" r="5.895"/><circle class="cls-13" cx="9.826" cy="5.895" r="5.895"/><path class="cls-14" d="M110.479,174.679A3.275,3.275,0,0,1,107.2,171.4V33.183a3.275,3.275,0,1,1,6.551,0V171.4A3.275,3.275,0,0,1,110.479,174.679Z" transform="translate(-81 -27.288)"/><path class="cls-2" d="M110.479,98.034a3.275,3.275,0,0,1-3.275-3.275V33.183a3.275,3.275,0,1,1,6.551,0V94.758A3.275,3.275,0,0,1,110.479,98.034Z" transform="translate(-81 -27.288)"/><rect class="cls-15" x="19.653" y="100.791" width="19.652" height="4.054" rx="2.027" ry="2.027"/><rect class="cls-16" x="19.653" y="94.71" width="19.652" height="4.054" rx="2.027" ry="2.027"/><rect class="cls-17" x="19.653" y="88.63" width="19.652" height="4.054" rx="2.027" ry="2.027"/><rect class="cls-18" x="19.653" y="82.549" width="19.652" height="4.054" rx="2.027" ry="2.027"/><rect class="cls-19" x="19.653" y="76.468" width="19.652" height="4.054" rx="2.027" ry="2.027"/><circle class="cls-20" cx="29.479" cy="64.85" r="5.895"/><circle class="cls-21" cx="29.479" cy="53.059" r="5.895"/><circle class="cls-22" cx="29.479" cy="41.268" r="5.895"/><circle class="cls-23" cx="29.479" cy="29.477" r="5.895"/><circle class="cls-24" cx="29.479" cy="17.686" r="5.895"/><circle class="cls-25" cx="29.479" cy="5.895" r="5.895"/></svg>