<svg id="Layer_1" data-name="Layer 1" xmlns="http://www.w3.org/2000/svg" xmlns:xlink="http://www.w3.org/1999/xlink" viewBox="0 0 127.497 22.95"><defs><style>.cls-1{fill:url(#linear-gradient);}.cls-2{fill:#dba628;}.cls-3{font-size:12px;fill:#fff;font-family:Arial-BoldMT, Arial;font-weight:700;}.cls-4{letter-spacing:-0.018em;}</style><linearGradient id="linear-gradient" x1="64.16" y1="1.342" x2="64.16" y2="21.342" gradientUnits="userSpaceOnUse"><stop offset="0" stop-color="#dba628"/><stop offset="1" stop-color="#a32702"/></linearGradient></defs><title>DES-ACYL GHRELIN</title><g id="DES-ACYL_GHRELIN" data-name="DES-ACYL GHRELIN"><rect class="cls-1" x="1.16" y="1.342" width="126" height="20" rx="10" ry="10"/><path class="cls-2" d="M150.9,113.388c-11.449-.011-22.9.447-34.347.837-11.449.458-22.9.546-34.347.613-11.449.041-22.9-.085-34.347-.189l-2.147-.019a16.707,16.707,0,0,1-2.325-.131,11.124,11.124,0,0,1-4.526-1.7,11.253,11.253,0,0,1-5.017-7.908A10.989,10.989,0,0,1,44.9,92.416c11.449.261,22.9.449,34.347.335,5.724-.049,11.449-.194,17.173-.349l17.173-.413c11.449-.182,22.9-.109,34.347.307,1.448.076,2.808.017,4.4.248a10.765,10.765,0,0,1,4.247,1.695,10.519,10.519,0,0,1,4.583,7.468A10.418,10.418,0,0,1,150.9,113.388Zm0-.3a9.822,9.822,0,0,0,7.4-3.469,9.455,9.455,0,0,0-2.431-14.262,9.211,9.211,0,0,0-3.751-1.226c-1.257-.109-2.771.025-4.182.048-11.449.416-22.9.489-34.347.307l-17.173-.413c-5.724-.155-11.449-.3-17.173-.349-11.449-.114-22.9.074-34.347.335a9.134,9.134,0,0,0-6.785,3.333,8.95,8.95,0,0,0-1.916,7.143,8.737,8.737,0,0,0,4.082,6.026,8.872,8.872,0,0,0,3.473,1.217c1.136.134,2.709.04,4.105.049,11.449-.1,22.9-.23,34.347-.189,11.449.066,22.9.155,34.347.613C128,112.64,139.453,113.1,150.9,113.088Z" transform="translate(-33.742 -91.895)"/><text class="cls-3" transform="translate(4.934 14.164)">DES-ACY<tspan class="cls-4" x="54.006" y="0">L</tspan><tspan x="61.119" y="0" xml:space="preserve"> GHRELIN</tspan></text></g></svg>