<svg id="R-ICO-013703" xmlns="http://www.w3.org/2000/svg" xmlns:xlink="http://www.w3.org/1999/xlink" viewBox="0 0 53.173 24.433"><defs><style>.cls-1{fill:url(#radial-gradient);}.cls-2{font-size:12px;fill:#fff;font-family:Arial-BoldMT, Arial;font-weight:700;}.cls-3{letter-spacing:-0.074em;}</style><radialGradient id="radial-gradient" cx="226.712" cy="101.833" r="21.441" gradientTransform="translate(-185.348 29.297) scale(1.259 0.694)" gradientUnits="userSpaceOnUse"><stop offset="0" stop-color="#f089b8"/><stop offset="0.149" stop-color="#d287b1"/><stop offset="0.472" stop-color="#87829f"/><stop offset="0.944" stop-color="#0f7983"/><stop offset="1" stop-color="#007880"/></radialGradient></defs><title>R-ICO-013703</title><g id="FLT3LG"><path class="cls-1" d="M114.718,87.921a15.441,15.441,0,0,0-10.927,2.585,6.775,6.775,0,0,1-7.581,0,15.444,15.444,0,0,0-10.928-2.585c-6.176.8-11.091,5.267-11.78,10.682-.937,7.373,5.652,13.614,13.912,13.614a15.223,15.223,0,0,0,8.668-2.634,7.025,7.025,0,0,1,7.836,0,15.215,15.215,0,0,0,8.668,2.634c8.26,0,14.849-6.241,13.912-13.614C125.81,93.188,120.894,88.717,114.718,87.921Z" transform="translate(-73.413 -87.783)"/><text class="cls-2" transform="translate(4.368 15.78)">F<tspan class="cls-3" x="7.33" y="0">L</tspan><tspan x="13.77" y="0">T3LG</tspan></text></g></svg>