<svg id="Layer_1" data-name="Layer 1" xmlns="http://www.w3.org/2000/svg" xmlns:xlink="http://www.w3.org/1999/xlink" viewBox="0 0 168.967 174.689"><defs><style>.cls-1,.cls-4{fill:#50d7e2;}.cls-2{fill:#3a62ac;}.cls-3{fill:url(#radial-gradient);}.cls-4{stroke:#3a62ac;stroke-miterlimit:10;stroke-width:0.75px;}.cls-5{fill:url(#radial-gradient-2);}</style><radialGradient id="radial-gradient" cx="83.568" cy="639.762" r="82.037" gradientTransform="translate(-13.65 -576.916)" gradientUnits="userSpaceOnUse"><stop offset="0.171" stop-color="#ffdce6"/><stop offset="0.185" stop-color="#f4dce6"/><stop offset="0.244" stop-color="#c9dae5"/><stop offset="0.306" stop-color="#a3d9e4"/><stop offset="0.371" stop-color="#85d9e3"/><stop offset="0.438" stop-color="#6ed8e3"/><stop offset="0.51" stop-color="#5dd7e2"/><stop offset="0.589" stop-color="#53d7e2"/><stop offset="0.69" stop-color="#50d7e2"/></radialGradient><radialGradient id="radial-gradient-2" cx="87.941" cy="497.702" r="14.144" gradientTransform="translate(-13.65 -627.867) scale(1 1.386)" gradientUnits="userSpaceOnUse"><stop offset="0" stop-color="#ffccdc"/><stop offset="0.122" stop-color="#ecc3da"/><stop offset="0.346" stop-color="#cfb5d6"/><stop offset="0.568" stop-color="#bbabd4"/><stop offset="0.787" stop-color="#aea5d2"/><stop offset="1" stop-color="#aaa3d2"/></radialGradient></defs><title>macrophage</title><g id="ARMS"><g id="ARMS-2" data-name="ARMS"><path class="cls-1" d="M118.431,44.839c-1.1-3.29-2.522-8.656-4.721-10.847s-2.745-6.581-1.645-7.68.719-7.044-.546-8.226c-1.009-.934-.124-4.836-.1-5.142a1.31,1.31,0,0,0-.058-.529,1.791,1.791,0,0,0-2.373-.686c-1.033.38-1.653,1.29-1.381,2.05.546,1.645,2.249,4.316.058,5.961s-4.754,3.414-3.836,5.49c.479,1.075,1.662,3.952-3.29,10.425-1.058,1.381-5.547,2.422-6.639,6.267" transform="translate(-13.65 -10.916)"/><path class="cls-2" d="M118.431,44.839a61.227,61.227,0,0,0-3.5-8.6,9.462,9.462,0,0,0-1.3-1.827,8.272,8.272,0,0,1-1.455-1.935,9.229,9.229,0,0,1-1.1-4.729,3.386,3.386,0,0,1,.314-1.306,1.434,1.434,0,0,1,.2-.331l.124-.165.041-.074a1.587,1.587,0,0,0,.174-.372,8.156,8.156,0,0,0,.24-2.15,11.813,11.813,0,0,0-.728-4.332,2.685,2.685,0,0,0-.223-.389l-.132-.157a2.107,2.107,0,0,1-.273-.364,3.243,3.243,0,0,1-.355-1.372,12.038,12.038,0,0,1,.124-2.455c.05-.4.124-.794.19-1.174s.05-.48-.05-.637a1.391,1.391,0,0,0-1.472-.2c-.57.174-1.067.678-1.083,1.075a.586.586,0,0,0,.074.322l.2.521.438,1.1a6.2,6.2,0,0,1,.479,2.522,3.181,3.181,0,0,1-1.356,2.389,15.588,15.588,0,0,0-3.365,2.927,1.831,1.831,0,0,0-.364,1.72,11.462,11.462,0,0,1,.38,1.149,5.562,5.562,0,0,1,.141,1.265,10.294,10.294,0,0,1-1.381,4.63,26.261,26.261,0,0,1-2.637,3.927,7.67,7.67,0,0,1-2.017,1.356c-.686.372-1.356.744-1.992,1.174a7.09,7.09,0,0,0-2.852,3.522,6.953,6.953,0,0,1,2.662-3.786,20.314,20.314,0,0,1,1.951-1.315,7.266,7.266,0,0,0,1.769-1.331,26.106,26.106,0,0,0,2.414-3.9,9.511,9.511,0,0,0,1.133-4.266,4.913,4.913,0,0,0-.157-1.042,10.743,10.743,0,0,0-.389-1.05,2.893,2.893,0,0,1,.446-2.679,9.115,9.115,0,0,1,1.7-1.8c.612-.513,1.24-.984,1.86-1.455a2,2,0,0,0,.86-1.529,4.976,4.976,0,0,0-.422-2.017l-.43-1.066-.215-.562a1.926,1.926,0,0,1-.141-.81,2.258,2.258,0,0,1,.686-1.422,3.207,3.207,0,0,1,2.663-.893,2.168,2.168,0,0,1,1.4.769,1.814,1.814,0,0,1,.223.389,1.5,1.5,0,0,1,.107.446,2.347,2.347,0,0,1-.05.752c-.066.38-.132.752-.19,1.124a11.123,11.123,0,0,0-.132,2.2,2.238,2.238,0,0,0,.19.876c.025.058.058.058.074.1l.24.3a3.331,3.331,0,0,1,.347.62,9.665,9.665,0,0,1,.6,2.414,15.836,15.836,0,0,1,.141,2.414,8.611,8.611,0,0,1-.347,2.464,2.426,2.426,0,0,1-.347.661l-.182.231a.583.583,0,0,0-.107.157,2.457,2.457,0,0,0-.248.942,8.445,8.445,0,0,0,.852,4.283,7.182,7.182,0,0,0,1.273,1.819,10,10,0,0,1,1.323,2.017A55.735,55.735,0,0,1,118.431,44.839Z" transform="translate(-13.65 -10.916)"/><path class="cls-1" d="M155.056,84.234c3.29-1.728,1.331-3.464,3.241-5.771S163.39,74,164.77,74.577s7.234.62,10.028-2c.893-.835,4.828-1.348,5.382-1.414h.025a.127.127,0,0,0,.05-.008h0a1.556,1.556,0,0,0,.554-.174,1.289,1.289,0,0,0,.273-2.05,2.058,2.058,0,0,0-2.447-.554c-1.645.86-4.15,2.9-6.333,1.6s-3.729,1.182-6.581-1.6c-2.488-2.422-3.5,4.241-11.343,2.026-1.67-.471-4.043-5.647-8.334-5.506" transform="translate(-13.65 -10.916)"/><path class="cls-2" d="M155.056,84.234a4.994,4.994,0,0,0,1.463-1.224,3.314,3.314,0,0,0,.579-1.769,5.116,5.116,0,0,1,1.563-3.58,13.961,13.961,0,0,1,2.993-2.579,6.81,6.81,0,0,1,1.852-.868,2.6,2.6,0,0,1,1.141-.083l.306.083.19.058c.132.033.289.058.43.091a13.925,13.925,0,0,0,7.275-1.124,6.785,6.785,0,0,0,1.48-.984,4.875,4.875,0,0,1,1.968-.942,27.636,27.636,0,0,1,3.894-.744l-.455.9h0a.6.6,0,0,1,.215-.818.516.516,0,0,1,.215-.074h.008c.612-.091.852-.554.57-1.058a1.505,1.505,0,0,0-1.579-.67,6.471,6.471,0,0,0-1.009.529c-.372.223-.761.455-1.166.67a7.322,7.322,0,0,1-2.7.951,3.519,3.519,0,0,1-1.546-.157,3.776,3.776,0,0,1-.719-.322,2.7,2.7,0,0,0-.48-.215,5.672,5.672,0,0,0-2.381.041,4.225,4.225,0,0,1-2.852-.761,9.275,9.275,0,0,1-1.058-.885.873.873,0,0,0-.761-.289,2.794,2.794,0,0,0-.967.488l-1.075.761a9.06,9.06,0,0,1-2.464,1.248,9.313,9.313,0,0,1-5.423-.1,2.5,2.5,0,0,1-.694-.281,4.445,4.445,0,0,1-.562-.446,12.822,12.822,0,0,1-.918-.992c-.579-.67-1.133-1.339-1.761-1.943a6.812,6.812,0,0,0-4.572-2.224,5.641,5.641,0,0,1,2.6.48,9.336,9.336,0,0,1,2.232,1.472c.678.579,1.29,1.232,1.9,1.86.306.306.612.628.934.893a3.462,3.462,0,0,0,.48.355,1.847,1.847,0,0,0,.529.19,8.572,8.572,0,0,0,4.977-.074,8.159,8.159,0,0,0,2.183-1.215l1.05-.8a3.6,3.6,0,0,1,1.364-.7,1.77,1.77,0,0,1,.926.066,2.45,2.45,0,0,1,.728.438,9.439,9.439,0,0,0,.976.794,3.045,3.045,0,0,0,2.141.529c.4-.033.827-.124,1.306-.174a3.648,3.648,0,0,1,1.538.149,3.8,3.8,0,0,1,.719.322,2.217,2.217,0,0,0,.48.207,2.256,2.256,0,0,0,1.058.091,6.141,6.141,0,0,0,2.24-.818c.372-.2.736-.422,1.124-.653l.587-.339a2.978,2.978,0,0,1,.752-.331,2.7,2.7,0,0,1,2.951,1.281,1.917,1.917,0,0,1,.05,1.844,2.016,2.016,0,0,1-1.521,1l.438-.9h0a.608.608,0,0,1-.223.827.628.628,0,0,1-.232.074,30.654,30.654,0,0,0-3.72.67,3.952,3.952,0,0,0-1.529.653,7.664,7.664,0,0,1-1.753,1.133,12.48,12.48,0,0,1-3.894,1.042,14.43,14.43,0,0,1-4-.066c-.174-.041-.339-.074-.521-.124L164.654,75l-.165-.05a1.7,1.7,0,0,0-.777.041,6.255,6.255,0,0,0-1.67.719,15.85,15.85,0,0,0-2.976,2.34,4.74,4.74,0,0,0-1.661,3.274,3.489,3.489,0,0,1-.736,1.819A6.211,6.211,0,0,1,155.056,84.234Z" transform="translate(-13.65 -10.916)"/><path class="cls-1" d="M150.021,71.163c1.935-3.5-.521-8.664,2.026-10.3,3.638-2.331-1.571-9.2,2.059-10.971,5.622-2.745,5.068-4.82,4.671-7.54-.389-2.654,2.331-4.01,4.1-4.167a.208.208,0,0,0,.124-.008c.289-.132.141-1.05-.322-2.05s-1.083-1.695-1.372-1.563a.234.234,0,0,0-.107.141,28.411,28.411,0,0,1-4.084,4.349c-3.249,2.7-7.837,3.729-8.863,8.052-.355,1.513-3.125,3.191-6.225,3.2s-6.358.074-9.458,1.629" transform="translate(-13.65 -10.916)"/><path class="cls-2" d="M150.021,71.163a9.784,9.784,0,0,0,.645-4.779c-.033-.81-.107-1.629-.107-2.464a4.91,4.91,0,0,1,.529-2.513,2.127,2.127,0,0,1,.438-.537c.174-.149.372-.314.5-.4a2.314,2.314,0,0,0,.678-.818,4.275,4.275,0,0,0,.289-2.207c-.124-1.571-.645-3.133-.728-4.878a4.82,4.82,0,0,1,.132-1.356,2.756,2.756,0,0,1,.736-1.281,3,3,0,0,1,.6-.438c.223-.124.364-.2.554-.3.355-.182.7-.372,1.042-.579a5.908,5.908,0,0,0,2.985-3.175,5.718,5.718,0,0,0-.008-2.216c-.05-.4-.132-.777-.157-1.281a3.556,3.556,0,0,1,.248-1.43,4.311,4.311,0,0,1,1.852-2.083,6.242,6.242,0,0,1,2.563-.86l.165.008a.419.419,0,0,0-.289.058.351.351,0,0,0-.157.174c-.025.058,0,.017-.008-.041a1.9,1.9,0,0,0-.066-.43,5.207,5.207,0,0,0-.355-.976,4.968,4.968,0,0,0-.521-.893,2.3,2.3,0,0,0-.281-.314c-.025-.025-.074-.033.041-.008a.416.416,0,0,0,.314-.107c.107-.1.1-.132.1-.124a.037.037,0,0,1,0,.041l-.083.107a29.8,29.8,0,0,1-3.009,3.357,19,19,0,0,1-3.621,2.728,42.272,42.272,0,0,0-3.687,2.315,6.765,6.765,0,0,0-2.513,3.208l-.157.488a2.865,2.865,0,0,1-.256.612,3.531,3.531,0,0,1-.794.942,6.9,6.9,0,0,1-2,1.2,8.99,8.99,0,0,1-2.207.587,12.831,12.831,0,0,1-2.249.066,19.233,19.233,0,0,0-8.606,1.348,18.672,18.672,0,0,1,8.6-1.9,15.257,15.257,0,0,0,2.158-.165,8.6,8.6,0,0,0,2.026-.62,6.326,6.326,0,0,0,1.744-1.116,2.652,2.652,0,0,0,.6-.752,1.789,1.789,0,0,0,.157-.413L148,46.38a7.755,7.755,0,0,1,2.72-3.745A39.3,39.3,0,0,1,154.47,40.2a22.093,22.093,0,0,0,6.242-5.87l-.083.149a.978.978,0,0,1,.248-.372.749.749,0,0,1,.587-.165,1.051,1.051,0,0,1,.554.248,3.392,3.392,0,0,1,.513.529,6.566,6.566,0,0,1,.67,1.1,6.309,6.309,0,0,1,.446,1.207,3.433,3.433,0,0,1,.107.719,1.331,1.331,0,0,1-.091.537.854.854,0,0,1-.339.4.789.789,0,0,1-.57.1l.165.008a4.172,4.172,0,0,0-3.431,2.15,2.231,2.231,0,0,0-.174.967c.008.314.083.744.132,1.149a6.694,6.694,0,0,1-.05,2.654,4.892,4.892,0,0,1-1.447,2.3,10.73,10.73,0,0,1-2.083,1.513c-.364.215-.728.413-1.108.6-.174.091-.4.2-.529.273a2.146,2.146,0,0,0-.4.265,2.431,2.431,0,0,0-.637,1.877c.008,1.538.471,3.15.554,4.836a4.986,4.986,0,0,1-.446,2.579,3.049,3.049,0,0,1-.9,1.017,5.768,5.768,0,0,0-.463.355c-.157.091-.232.265-.355.4a4.478,4.478,0,0,0-.579,2.207c-.041.8-.025,1.62-.033,2.439A9.205,9.205,0,0,1,150.021,71.163Z" transform="translate(-13.65 -10.916)"/><path class="cls-1" d="M156.346,100.636c2.083-.554,5.556-3.224,5.994-4.944s2.877-2.819,4.316-2.67c4.109.422,4.812-3.414,7.747-4.6,2.116-.852,7.482-5.448,7.482-5.448.165-.132-.389-.628-1.24-1.116s-1.678-.777-1.835-.653c-.339.959-1.984,2.224-4.423,1.381s-4.365,1.3-7.664,3.778c-2.133,1.6-2.15-5.787-4.795-4.307-1.852,1.033-4.423-1.827-7.9-1.563" transform="translate(-13.65 -10.916)"/><path class="cls-2" d="M156.346,100.636a8.776,8.776,0,0,0,1.976-1.017,14.719,14.719,0,0,0,1.753-1.348,10.03,10.03,0,0,0,1.472-1.612,3.571,3.571,0,0,0,.471-.909,3.5,3.5,0,0,1,.48-1.108,4.8,4.8,0,0,1,1.852-1.5,4.912,4.912,0,0,1,2.364-.529,4.642,4.642,0,0,0,2-.273,5,5,0,0,0,1.67-1.149,14.991,14.991,0,0,1,3.414-3.092c.413-.207.67-.306.984-.488.306-.165.612-.372.909-.57.6-.4,1.2-.843,1.786-1.281q1.761-1.339,3.464-2.778l.422-.355.107-.091.033-.025a.492.492,0,0,0-.149.19.519.519,0,0,0-.05.223.274.274,0,0,0,.017.124c.074.19.033.066-.008.05a4.3,4.3,0,0,0-.769-.57,8.251,8.251,0,0,0-.918-.488c-.157-.066-.314-.132-.455-.182a1.149,1.149,0,0,0-.19-.05c-.025-.008-.041-.008-.033-.008a.411.411,0,0,0,.24-.1l.2-.281a3.092,3.092,0,0,1-1.587,1.629,4.248,4.248,0,0,1-2.1.413,5.366,5.366,0,0,1-1.033-.165l-.488-.149-.372-.107a2.8,2.8,0,0,0-1.529.132,12.083,12.083,0,0,0-2.993,1.868L167.8,86.16l-.752.554a2.055,2.055,0,0,1-.554.289,1.2,1.2,0,0,1-.761-.05,1.968,1.968,0,0,1-.827-.852,7.2,7.2,0,0,1-.422-.893c-.24-.587-.446-1.166-.686-1.711a2.443,2.443,0,0,0-.951-1.257.8.8,0,0,0-.653.041l-.463.182a2.959,2.959,0,0,1-.529.091,4.6,4.6,0,0,1-1.9-.471l-1.7-.769a8.586,8.586,0,0,0-3.572-.827,7.4,7.4,0,0,1,1.868.05,11.2,11.2,0,0,1,1.811.5l1.744.645a4.242,4.242,0,0,0,1.7.314,2.61,2.61,0,0,0,.38-.091c.124-.066.207-.091.389-.19a1.447,1.447,0,0,1,1.149-.091,2.031,2.031,0,0,1,.86.694,5.65,5.65,0,0,1,.513.852c.289.579.521,1.157.777,1.711a6.842,6.842,0,0,0,.4.777,1.121,1.121,0,0,0,.446.471c.091.033.19.008.4-.157l.719-.579,1.439-1.182a12.831,12.831,0,0,1,3.257-2.108,3.958,3.958,0,0,1,2.133-.215c.174.041.347.091.529.132l.4.116a4.542,4.542,0,0,0,.8.124,3.064,3.064,0,0,0,1.505-.3,2.006,2.006,0,0,0,.976-.959l.017-.041a.424.424,0,0,1,.182-.231.779.779,0,0,1,.513-.157.95.95,0,0,1,.24.025,3.042,3.042,0,0,1,.347.091,6.264,6.264,0,0,1,.587.223,9.063,9.063,0,0,1,1.058.554,5.155,5.155,0,0,1,1.017.769,1.085,1.085,0,0,1,.314.5.643.643,0,0,1,.025.19.677.677,0,0,1-.066.289.794.794,0,0,1-.19.248l-.025.017-.1.083-.43.364c-1.157.959-2.323,1.893-3.538,2.794-.612.446-1.215.893-1.86,1.306-.322.207-.645.413-1,.6-.331.19-.777.364-1.025.488-1.207.57-2.075,1.777-3.224,2.827a5.962,5.962,0,0,1-2.042,1.273,5.548,5.548,0,0,1-2.406.231,4.457,4.457,0,0,0-3.6,1.587,3.133,3.133,0,0,0-.455.909,3.74,3.74,0,0,1-.612,1.033,9.89,9.89,0,0,1-1.645,1.579A11.267,11.267,0,0,1,156.346,100.636Z" transform="translate(-13.65 -10.916)"/><path class="cls-1" d="M137.025,55.322c-.909-2.968-2.637-8.639-.959-11.252.446-.7,1.546-3.737,1.025-5.2-1.1-3.084,1.811-3.572,1.265-8.73-.141-1.364,3.249-5.688,3.249-5.688a1.8,1.8,0,0,0-.529-2.414,1.786,1.786,0,0,0-2.455-.231,1.209,1.209,0,0,0-.265.57h0c-.116,1.728-1.281,2.174-2.108,4.456-1.1,3.042-5.316,3.2-5.977,5.357-1.868,6.1-4.779,8.176-7.011,8.391-1.728.165-9.756-1.364-10.632,2.6" transform="translate(-13.65 -10.916)"/><path class="cls-2" d="M137.025,55.322a43,43,0,0,1-1.414-4.638,14.838,14.838,0,0,1-.471-4.886,6.665,6.665,0,0,1,.306-1.248,5.46,5.46,0,0,1,.281-.6,4.056,4.056,0,0,0,.248-.5,12.38,12.38,0,0,0,.678-2.232,4.57,4.57,0,0,0,.025-2.166,4.154,4.154,0,0,1-.149-2.654c.265-.852.653-1.554.893-2.274a7.794,7.794,0,0,0,.43-2.216,10.52,10.52,0,0,0-.017-1.149l-.041-.587a2.571,2.571,0,0,1,.025-.446l.083-.364a10.8,10.8,0,0,1,1.141-2.3c.438-.7.9-1.372,1.381-2.034l.736-.984a.726.726,0,0,0,.1-.637,1.988,1.988,0,0,0-1.191-1.281,1.181,1.181,0,0,0-.761-.05.487.487,0,0,0-.331.405V22.5a.62.62,0,0,1-.719.5.68.68,0,0,1-.215-.083h0l.942-.48a4.019,4.019,0,0,1-.314,1.306,7.045,7.045,0,0,1-.628,1.083,9.769,9.769,0,0,0-1.075,1.877,8.278,8.278,0,0,1-.5,1.108,4.6,4.6,0,0,1-.8,1.009,8.968,8.968,0,0,1-1.992,1.389c-.678.372-1.364.694-1.935,1.083a2.613,2.613,0,0,0-.694.645,1.483,1.483,0,0,0-.207.364c-.058.124-.124.355-.19.521a19.487,19.487,0,0,1-1.968,4.233,9.345,9.345,0,0,1-3.39,3.3,5.059,5.059,0,0,1-2.364.587c-.794-.025-1.538-.1-2.29-.157a20.505,20.505,0,0,0-4.506.017,5.767,5.767,0,0,0-2.116.678,2.8,2.8,0,0,0-1.356,1.711,2.854,2.854,0,0,1,1.257-1.868,5.985,5.985,0,0,1,2.158-.835,20.453,20.453,0,0,1,4.6-.289c.761.008,1.529.074,2.265.066a4.434,4.434,0,0,0,2-.579,8.489,8.489,0,0,0,2.96-3.109,20.4,20.4,0,0,0,1.744-4.076c.066-.19.1-.331.182-.554a2.47,2.47,0,0,1,.331-.637,3.8,3.8,0,0,1,.943-.918c.678-.48,1.372-.818,2.017-1.191a7.918,7.918,0,0,0,1.72-1.224,3.8,3.8,0,0,0,.6-.769,6.92,6.92,0,0,0,.43-.967,11.135,11.135,0,0,1,1.174-2.092,3.408,3.408,0,0,0,.728-1.794.61.61,0,0,1,.637-.579.564.564,0,0,1,.289.091l.017.008h0l-.934.422a1.748,1.748,0,0,1,1.133-1.372,2.352,2.352,0,0,1,1.6.058,3.177,3.177,0,0,1,1.951,2.158,1.932,1.932,0,0,1-.331,1.653l-.719.951c-.471.637-.926,1.29-1.348,1.959a10.367,10.367,0,0,0-1.05,2l-.058.223a.848.848,0,0,1-.017.157l.033.62a11.034,11.034,0,0,1,0,1.273,8.782,8.782,0,0,1-.537,2.513c-.3.8-.719,1.513-.951,2.2a3.147,3.147,0,0,0,.058,2.092,5.31,5.31,0,0,1-.083,2.613,12.114,12.114,0,0,1-.81,2.364c-.083.182-.207.4-.306.57a4.026,4.026,0,0,0-.562,1.579,14.655,14.655,0,0,0,.182,4.721C136.223,52.2,136.62,53.76,137.025,55.322Z" transform="translate(-13.65 -10.916)"/><path class="cls-1" d="M101.483,151.332c3.944.041,5.316,4.316,7.589,6.73s4.225,6.242,3.414,7.705-1.6,7.995.9,11.434c.794,1.1.852,5.556.852,6.184v.083h.008a1.89,1.89,0,0,0,.124.645,1.4,1.4,0,0,0,2.207.562,2.346,2.346,0,0,0,.918-2.662c-.736-1.943-2.646-5-.942-7.259s-.81-4.307,2.588-7.143c2.968-2.472-4.183-4.431-.752-12.9.728-1.8,6.68-4.613,7.085-9.425" transform="translate(-13.65 -10.916)"/><path class="cls-2" d="M101.483,151.332a5.146,5.146,0,0,1,2.29.5,6.668,6.668,0,0,1,1.877,1.447c1.091,1.157,1.918,2.513,2.885,3.712.24.3.5.587.761.86.281.289.546.587.8.893a18.773,18.773,0,0,1,1.4,1.935,14.162,14.162,0,0,1,1.108,2.141,5.212,5.212,0,0,1,.471,2.488,2.331,2.331,0,0,1-.215.7,3.3,3.3,0,0,0-.182.48,8.7,8.7,0,0,0-.248,1.083,17.261,17.261,0,0,0-.215,2.265,15.672,15.672,0,0,0,.463,4.489,8.446,8.446,0,0,0,.827,2.034l.289.455.19.314a2.011,2.011,0,0,1,.149.331,7.4,7.4,0,0,1,.322,1.24,30.2,30.2,0,0,1,.372,4.779l-.835-.537h0a.6.6,0,0,1,.785.3.583.583,0,0,1,.05.231c.017.752.579,1.124,1.207.818a1.8,1.8,0,0,0,.934-1.811,1.08,1.08,0,0,0-.074-.248l-.132-.339-.289-.678c-.2-.455-.4-.918-.579-1.4a7.88,7.88,0,0,1-.62-3.15,4.153,4.153,0,0,1,.446-1.67,3.518,3.518,0,0,1,.223-.372l.207-.314a2.389,2.389,0,0,0,.289-.537,9.588,9.588,0,0,0,.207-2.794,4.632,4.632,0,0,1,1.331-2.993c.339-.389.843-.761,1.066-1.025a.949.949,0,0,0,.248-.926,16.664,16.664,0,0,0-1.24-2.563,9.711,9.711,0,0,1-.959-2.96,11.04,11.04,0,0,1,1.033-6.035,4.31,4.31,0,0,1,1.05-1.207c.38-.339.769-.653,1.157-.967.769-.628,1.538-1.257,2.24-1.943a8.833,8.833,0,0,0,2.869-5.051,8.685,8.685,0,0,1-2.613,5.3c-.686.736-1.422,1.422-2.166,2.083-.372.339-.736.67-1.083,1.009a4.169,4.169,0,0,0-.868,1.058,10.288,10.288,0,0,0-.785,5.614,8.651,8.651,0,0,0,.967,2.662c.223.422.479.843.736,1.281a5.639,5.639,0,0,1,.678,1.488,1.893,1.893,0,0,1,.008.984,2.212,2.212,0,0,1-.463.86c-.438.48-.769.694-1.075,1.058a4.111,4.111,0,0,0-.736,1.091,3.759,3.759,0,0,0-.289,1.257,10.074,10.074,0,0,1-.248,3.125,3.85,3.85,0,0,1-.4.777l-.2.306a2.163,2.163,0,0,0-.157.265,2.954,2.954,0,0,0-.3,1.2,6.836,6.836,0,0,0,.57,2.662c.174.446.372.893.57,1.348l.306.694.141.355a2.7,2.7,0,0,1,.141.471,2.963,2.963,0,0,1-1.637,3.142,2.034,2.034,0,0,1-2.017-.124,2.178,2.178,0,0,1-.885-1.769l.835.529h0a.6.6,0,0,1-.785-.306.593.593,0,0,1-.05-.24,29.79,29.79,0,0,0-.306-4.572,5.439,5.439,0,0,0-.256-1.033,1.757,1.757,0,0,0-.091-.207c-.041-.066-.041-.083-.107-.19l-.339-.537a9.331,9.331,0,0,1-.918-2.307,15.537,15.537,0,0,1-.43-4.812,18.2,18.2,0,0,1,.306-2.4,9.184,9.184,0,0,1,.314-1.191,3.52,3.52,0,0,1,.256-.612,1.643,1.643,0,0,0,.141-.413,4.535,4.535,0,0,0-.355-2.075,13.285,13.285,0,0,0-.984-2.05,18.821,18.821,0,0,0-1.281-1.9c-.231-.306-.488-.6-.736-.885q-.4-.459-.744-.942c-.934-1.29-1.67-2.662-2.67-3.844a6.667,6.667,0,0,0-1.736-1.5A4.562,4.562,0,0,0,101.483,151.332Z" transform="translate(-13.65 -10.916)"/><path class="cls-1" d="M117.224,148.6c3.572,2.6,10.409,1.653,11.872,4.7,2.083,4.349,10.252-.6,11.723,3.671,2.274,6.614,4.622,6.258,7.631,6.159,2.943-.1,4.084,3.1,4.018,5.1a.2.2,0,0,0,0,.141c.107.339,1.133.289,2.282-.107s1.992-.992,1.877-1.331a.246.246,0,0,0-.141-.132,31.079,31.079,0,0,1-4.225-5.1c-2.538-3.96-3.075-9.21-7.656-10.888-1.6-.587-3.084-3.886-2.7-7.35s1.662-7.1.355-10.756" transform="translate(-13.65 -10.916)"/><path class="cls-2" d="M117.224,148.6a14.13,14.13,0,0,0,5.225,1.711c.909.165,1.827.306,2.745.5a10.273,10.273,0,0,1,2.712.876c.207.132.422.265.628.413a5.536,5.536,0,0,1,.537.546c.132.207.314.463.4.628a3.131,3.131,0,0,0,.356.513,3.439,3.439,0,0,0,2.249,1c1.761.182,3.6-.207,5.523-.174a4.32,4.32,0,0,1,2.918.942,3.4,3.4,0,0,1,.852,1.381c.165.422.306.86.488,1.265.694,1.629,1.587,3.332,3.051,4.01a5.325,5.325,0,0,0,2.472.372l.686-.025a6.913,6.913,0,0,1,.744-.008,3.646,3.646,0,0,1,1.571.4,4.622,4.622,0,0,1,2.092,2.315,7.029,7.029,0,0,1,.62,2.968l-.025.157a.424.424,0,0,0-.017-.265.408.408,0,0,0-.141-.174c-.05-.025-.008,0,.058.008a2.045,2.045,0,0,0,.5-.017,6.215,6.215,0,0,0,1.124-.273,6.062,6.062,0,0,0,1.058-.48,1.768,1.768,0,0,0,.389-.289c.041-.033.05-.091.017.008a.39.39,0,0,0,.066.3.58.58,0,0,0,.1.107.091.091,0,0,1-.066-.025l-.074-.074a33.273,33.273,0,0,1-3.29-3.786,20.711,20.711,0,0,1-2.505-4.373,45.126,45.126,0,0,0-2.067-4.407,7.4,7.4,0,0,0-3.249-3.216l-.537-.248a2.985,2.985,0,0,1-.637-.372,4.553,4.553,0,0,1-.9-1.017,8.217,8.217,0,0,1-1.017-2.373,10.889,10.889,0,0,1-.091-5.027c.289-1.629.678-3.224.852-4.845a11.888,11.888,0,0,0-.364-4.853,11.336,11.336,0,0,1,.661,4.878c-.1,1.653-.413,3.282-.612,4.9a10.907,10.907,0,0,0,.256,4.745,7.589,7.589,0,0,0,.976,2.116,3.872,3.872,0,0,0,.752.8,2.043,2.043,0,0,0,.43.24l.6.248a8.453,8.453,0,0,1,3.762,3.489,43.975,43.975,0,0,1,2.183,4.489,24.655,24.655,0,0,0,5.638,7.755l-.141-.1a.928.928,0,0,1,.347.306.766.766,0,0,1,.1.6,1.208,1.208,0,0,1-.314.554,3.243,3.243,0,0,1-.628.5,7.02,7.02,0,0,1-1.281.6,6.735,6.735,0,0,1-1.364.347,3.107,3.107,0,0,1-.794.025,1.4,1.4,0,0,1-.554-.165.865.865,0,0,1-.364-.4.844.844,0,0,1-.033-.579l-.025.157c.025-1.62-.653-3.489-2.009-4.192a4.571,4.571,0,0,0-2.447-.273,6.43,6.43,0,0,1-2.968-.5,5.667,5.667,0,0,1-2.24-2.05,14.615,14.615,0,0,1-1.323-2.571c-.19-.438-.331-.885-.5-1.331a2.409,2.409,0,0,0-.562-.976,3.419,3.419,0,0,0-2.249-.744c-1.778-.1-3.646.248-5.589,0a4.182,4.182,0,0,1-2.67-1.315,4.135,4.135,0,0,1-.422-.645c-.124-.248-.223-.364-.331-.554a5.406,5.406,0,0,0-.422-.455l-.521-.372C124.458,150.546,120.283,150.869,117.224,148.6Z" transform="translate(-13.65 -10.916)"/><path class="cls-1" d="M137.066,137.682c3.357-.645,9.78-2.3,12.418-.107.711.587,3.886,2.191,5.547,1.794,3.514-.843,3.671,2.464,9.367,2.505,1.513.008,5.8,4.34,5.8,4.34.587.67,1.8.537,2.7-.289a2.033,2.033,0,0,0,.562-2.712,1.2,1.2,0,0,0-.6-.364h0c-1.877-.347-2.216-1.7-4.6-2.91-3.183-1.612-2.811-6.333-5.084-7.341-6.424-2.844-8.317-6.349-8.267-8.871.041-1.951-3.142-3.431-1.3-10.037" transform="translate(-13.65 -10.916)"/><path class="cls-2" d="M137.066,137.682c1.728-.413,3.456-.86,5.225-1.141a15.388,15.388,0,0,1,5.407-.132l.678.19c.223.074.438.19.661.281a5.746,5.746,0,0,1,.612.389,4.768,4.768,0,0,0,.521.339,12.991,12.991,0,0,0,2.364,1.033,4.892,4.892,0,0,0,2.381.289,4.393,4.393,0,0,1,2.918.2c.885.4,1.6.926,2.356,1.29a8.282,8.282,0,0,0,2.381.761,10.656,10.656,0,0,0,1.265.116c.232.017.389.008.678.033a2.777,2.777,0,0,1,.835.24,12.489,12.489,0,0,1,2.323,1.563c.711.57,1.381,1.174,2.042,1.786l.967.926a.868.868,0,0,0,.744.182A2.292,2.292,0,0,0,173,144.793a1.466,1.466,0,0,0,.149-.885.584.584,0,0,0-.438-.471h-.008a.61.61,0,0,1-.4-.752.584.584,0,0,1,.107-.2h0l.364.976a4.861,4.861,0,0,1-2.34-1.24,11.923,11.923,0,0,0-1.786-1.4c-.314-.2-.628-.339-1.033-.6a3.53,3.53,0,0,1-.537-.4,3.131,3.131,0,0,1-.471-.463,7.882,7.882,0,0,1-1.323-2.158c-.331-.752-.587-1.505-.885-2.207a4.114,4.114,0,0,0-1.124-1.72,10.21,10.21,0,0,0-.967-.5c-.364-.174-.719-.364-1.066-.562a18.071,18.071,0,0,1-2.05-1.281,12.61,12.61,0,0,1-3.431-3.448,7.244,7.244,0,0,1-.984-2.274,5.257,5.257,0,0,1-.149-1.24c0-.231-.017-.372-.025-.546a3.108,3.108,0,0,0-.141-.513c-.265-.686-.694-1.4-.967-2.15a8.268,8.268,0,0,1-.529-2.356,12.513,12.513,0,0,1,.678-4.7,13.485,13.485,0,0,0-.372,4.663,7.648,7.648,0,0,0,.628,2.216c.306.711.744,1.339,1.091,2.108a3.637,3.637,0,0,1,.207.62c.033.223.05.471.058.637a4.969,4.969,0,0,0,.165,1.1,6.462,6.462,0,0,0,.959,2.017,12.043,12.043,0,0,0,3.315,3.109,19.815,19.815,0,0,0,2,1.157c.347.182.686.347,1.05.5a7.4,7.4,0,0,1,1.141.579,5.114,5.114,0,0,1,1.5,2.15c.322.752.587,1.488.9,2.183a7.04,7.04,0,0,0,1.149,1.844,6.308,6.308,0,0,0,1.811,1.24,13.419,13.419,0,0,1,1.959,1.488,3.572,3.572,0,0,0,1.786.951.6.6,0,0,1,.372.959l-.008.008h0l-.306-.959a1.809,1.809,0,0,1,1.3,1.372,2.556,2.556,0,0,1-.24,1.7,3.461,3.461,0,0,1-2.522,1.885,2.049,2.049,0,0,1-1.736-.513l-.951-.934c-.637-.6-1.29-1.2-1.959-1.753a11.983,11.983,0,0,0-2.067-1.439,2.09,2.09,0,0,0-.438-.149c-.157-.025-.438-.025-.653-.041a13.094,13.094,0,0,1-1.389-.149,9.482,9.482,0,0,1-2.67-.893c-.843-.413-1.571-.976-2.29-1.331a3.414,3.414,0,0,0-2.3-.223,5.682,5.682,0,0,1-2.852-.4,13.362,13.362,0,0,1-2.48-1.191,7.091,7.091,0,0,1-.587-.413c-.165-.107-.322-.24-.5-.339-.19-.083-.364-.19-.562-.265l-.6-.19a15.543,15.543,0,0,0-5.217-.141C140.58,137.079,138.827,137.409,137.066,137.682Z" transform="translate(-13.65 -10.916)"/><path class="cls-1" d="M145.5,128.836c3.91-5.018,7.8-7.019,9.417-8.863,2.092-2.381,4.448-6.763,9.83-5.9,1.91.306,3.638-2.869,7.656-1.563,2.026.661,5.746-1.29,6.912-.587h0a.783.783,0,0,0,.579-.017,4.177,4.177,0,0,0,2.017-2.852c.273-1.273-.182-2.059-1.017-1.753,0,0-5.63,1.7-6.341.885-2.7-3.092-5.539-.083-6.465-2.794-.438-1.29-3.266-1.529-4.084-1.364-3.067.6-6.548-7.705-7.565-10.152" transform="translate(-13.65 -10.916)"/><path class="cls-2" d="M145.5,128.836a36.819,36.819,0,0,1,7.052-7.193,20.854,20.854,0,0,0,1.852-1.637c.537-.587,1.033-1.273,1.546-1.935a13.614,13.614,0,0,1,3.712-3.6,7.315,7.315,0,0,1,2.513-.926,8.755,8.755,0,0,1,2.67,0,3.755,3.755,0,0,0,1.992-.744,8.667,8.667,0,0,1,2.464-1.033,6.025,6.025,0,0,1,2.745.05c.207.05.471.132.628.157a2.313,2.313,0,0,0,.5.074,5.343,5.343,0,0,0,1.133-.074c.785-.116,1.579-.331,2.406-.529.413-.1.843-.19,1.3-.256a2.587,2.587,0,0,1,1.629.2l-.9.331h0l.215-.62a.324.324,0,1,1,.611.215l-.017.033c-.017.033.265-.017.5-.223a3.317,3.317,0,0,0,.67-.752,4.16,4.16,0,0,0,.694-1.943.893.893,0,0,0-.124-.6c-.008-.008-.017-.025-.116,0l-.554.157c-.785.215-1.571.413-2.373.587a16.881,16.881,0,0,1-2.472.372,3.815,3.815,0,0,1-.686-.017,1.415,1.415,0,0,1-.893-.364,6.133,6.133,0,0,0-.81-.744,3.623,3.623,0,0,0-1.976-.661c-.364-.033-.761-.017-1.174-.017a3.67,3.67,0,0,1-1.372-.215,2.064,2.064,0,0,1-.653-.455,2.471,2.471,0,0,1-.389-.628l-.132-.322a1.343,1.343,0,0,0-.083-.165,1.26,1.26,0,0,0-.314-.314,4.77,4.77,0,0,0-2.075-.661,4.976,4.976,0,0,0-1.1-.017,2.3,2.3,0,0,1-1.381-.2,5.877,5.877,0,0,1-1.926-1.653,22.2,22.2,0,0,1-2.488-4.192c-.7-1.455-1.306-2.951-1.86-4.464a36.644,36.644,0,0,0,4.8,8.267,5.617,5.617,0,0,0,1.744,1.414,1.536,1.536,0,0,0,.976.107,5.387,5.387,0,0,1,1.306-.033,5.446,5.446,0,0,1,2.5.728,2.182,2.182,0,0,1,.554.521,2.486,2.486,0,0,1,.2.364l.107.231a.991.991,0,0,0,.587.6,9.422,9.422,0,0,0,2.24.083,4.469,4.469,0,0,1,2.538.81,6.741,6.741,0,0,1,.976.868c-.074-.058.074.025.223.025a2.664,2.664,0,0,0,.521,0,16.6,16.6,0,0,0,2.29-.372c.769-.174,1.538-.38,2.307-.6l.6-.182a1.254,1.254,0,0,1,1.033.165,1.443,1.443,0,0,1,.554.81,2.9,2.9,0,0,1,.091.777,5.2,5.2,0,0,1-.86,2.571,4.361,4.361,0,0,1-.918,1.05,2.617,2.617,0,0,1-.686.4,1.407,1.407,0,0,1-1.025.017l.81-.372h0a.614.614,0,0,1-.777.389c-.041-.017-.083-.033-.116-.05l-.008-.008a1.757,1.757,0,0,0-.835-.033,10.953,10.953,0,0,0-1.174.223c-.8.182-1.637.4-2.513.521a6.252,6.252,0,0,1-1.372.066,3.393,3.393,0,0,1-.736-.124l-.587-.157a4.86,4.86,0,0,0-2.232-.066,7.433,7.433,0,0,0-2.166.893,12.094,12.094,0,0,1-1.174.6,2.9,2.9,0,0,1-1.513.248,7.077,7.077,0,0,0-4.547.7,12.937,12.937,0,0,0-3.572,3.257c-.537.645-1.042,1.306-1.662,1.935a21.221,21.221,0,0,1-1.976,1.629c-1.348,1-2.687,1.992-3.927,3.117A31.57,31.57,0,0,0,145.5,128.836Z" transform="translate(-13.65 -10.916)"/><path class="cls-1" d="M53.119,129.175c3.853,5.266,3.348,8.995,3.282,10.731-.3,8.143-.132,7.193-3.489,9.516-2.827,1.959-2.993,4.936-2.422,7.408s-2.141,4.233-3.472,5.531a2.04,2.04,0,0,0-.223,2.5,1.29,1.29,0,0,0,2.034.372,1.665,1.665,0,0,0,.339-.48l.008.008.025-.05a.008.008,0,0,1,.008-.008c.231-.5,1.926-4.1,3-4.7,3.348-1.852,2.9-4.407,2.778-5.9s1.794-5.291,4.58-6.4,8.416-1.009,11.07-3.613" transform="translate(-13.65 -10.916)"/><path class="cls-2" d="M53.119,129.175a17.95,17.95,0,0,1,2.745,4.679,13.076,13.076,0,0,1,.9,5.4c-.058,1.8-.05,3.6-.149,5.423A6.76,6.76,0,0,1,56,147.5a3.867,3.867,0,0,1-1.042,1.116c-.38.3-.752.546-1.124.8a7.3,7.3,0,0,0-1.9,1.653,5.182,5.182,0,0,0-.992,2.216,7.439,7.439,0,0,0-.033,2.5c.033.207.066.422.116.628l.066.322.066.4a3.741,3.741,0,0,1-.2,1.6,6.637,6.637,0,0,1-1.7,2.414c-.339.331-.678.637-1.017.934l-.5.446a4.418,4.418,0,0,0-.4.4,1.493,1.493,0,0,0,.083,1.744.669.669,0,0,0,1.2-.19.6.6,0,0,1,.8-.281.56.56,0,0,1,.19.149l.008.008-1,.149a26.891,26.891,0,0,1,2.026-3.662,7.474,7.474,0,0,1,.694-.868,2.733,2.733,0,0,1,.513-.422l.43-.265a5.447,5.447,0,0,0,1.4-1.191,3.9,3.9,0,0,0,.761-1.6,7.115,7.115,0,0,0,.074-1.893c-.008-.174-.033-.322-.033-.529a2.89,2.89,0,0,1,.05-.612,5.906,5.906,0,0,1,.306-1.066,9.679,9.679,0,0,1,1-1.893,8.438,8.438,0,0,1,3.109-2.894,15.052,15.052,0,0,1,4.051-1,38.036,38.036,0,0,0,4-.752,8.981,8.981,0,0,0,3.629-1.753,8.457,8.457,0,0,1-3.547,2.026,37.389,37.389,0,0,1-3.985,1,16.787,16.787,0,0,0-3.82,1.108,7.721,7.721,0,0,0-2.712,2.728,9.478,9.478,0,0,0-.843,1.753,4.024,4.024,0,0,0-.223.9,1.385,1.385,0,0,0-.017.4c.008.141.033.322.05.5a7.192,7.192,0,0,1-.033,2.183,4.878,4.878,0,0,1-.934,2.075,6.455,6.455,0,0,1-1.67,1.48c-.141.091-.339.207-.438.273a1.34,1.34,0,0,0-.265.24,7.788,7.788,0,0,0-.562.736,26.877,26.877,0,0,0-1.893,3.505.6.6,0,0,1-.8.3.657.657,0,0,1-.2-.141l-.008-.008.992-.141a1.98,1.98,0,0,1-1.463,1.149,1.937,1.937,0,0,1-1.753-.686,2.693,2.693,0,0,1-.149-3.29,4.482,4.482,0,0,1,.554-.562l.513-.455c.339-.3.67-.587.976-.885a5.7,5.7,0,0,0,1.422-1.951,2.636,2.636,0,0,0,.141-1.066L49.939,157l-.066-.339c-.05-.231-.083-.471-.124-.7a8.522,8.522,0,0,1,.091-2.894,6.392,6.392,0,0,1,1.248-2.654,8.177,8.177,0,0,1,2.183-1.844,6.374,6.374,0,0,0,1.935-1.538,6.065,6.065,0,0,0,.579-2.406c.157-1.777.223-3.58.339-5.39a13.327,13.327,0,0,0-.587-5.25A20.715,20.715,0,0,0,53.119,129.175Z" transform="translate(-13.65 -10.916)"/><path class="cls-1" d="M44.851,114.071c-4.994,5.82-3.34,11.657-6.035,11.02-3.018-.711-5.465,4.729-7.011,4.613-4.423-.347-2.5.918-6.077,3.175a27.668,27.668,0,0,1-5.39,2.546.214.214,0,0,0-.165.058c-.215.231.256,1.033,1.058,1.786s1.637,1.174,1.852.942c.637-1.653,5.423-5.663,7.887-4.456s2.059-2.927,8.2-1.72c4.522.893,8.424-3.406,9.995.752,1.067,2.827,3.448-3.29,9.665,2.7" transform="translate(-13.65 -10.916)"/><path class="cls-2" d="M44.851,114.071a18.155,18.155,0,0,0-2.265,3.737,22.216,22.216,0,0,0-1.323,4.142,22.091,22.091,0,0,1-.562,2.158,2.519,2.519,0,0,1-.661,1.075,1.518,1.518,0,0,1-1.339.256,2.478,2.478,0,0,0-1.819.422,8.489,8.489,0,0,0-1.571,1.372c-.5.521-.959,1.075-1.455,1.637a8.642,8.642,0,0,1-.835.818,2.633,2.633,0,0,1-.562.364,1.59,1.59,0,0,1-.769.157,9.885,9.885,0,0,0-2.05.041,1.435,1.435,0,0,0-.711.347,8.488,8.488,0,0,0-.653.794,11.453,11.453,0,0,1-3.638,2.786A31.241,31.241,0,0,1,20.546,136l-.116.041a.057.057,0,0,1-.05-.008s.025.008.141-.05a.414.414,0,0,0,.2-.256c.017-.124,0-.083.017-.058a1.776,1.776,0,0,0,.2.355,4.652,4.652,0,0,0,.661.752,5.682,5.682,0,0,0,.794.637,2.388,2.388,0,0,0,.4.215.951.951,0,0,0,.132.041c.025.017-.066-.058-.273.132l-.124.2a7.064,7.064,0,0,1,1.728-2.183,15.187,15.187,0,0,1,2.1-1.6,8.865,8.865,0,0,1,2.464-1.1,4.024,4.024,0,0,1,1.455-.124c.124.017.256.025.38.05l.38.132.306.116.223.091a.884.884,0,0,0,.769-.141c.289-.174.6-.455.959-.728a5.68,5.68,0,0,1,2.513-1.124,9.5,9.5,0,0,1,1.356-.116c.438.041.893.033,1.323.116a11.641,11.641,0,0,0,2.414.265,30.858,30.858,0,0,0,4.878-.992c.215-.033.446-.058.67-.091.231,0,.463-.008.7.008a2.379,2.379,0,0,1,1.339.57,1.965,1.965,0,0,1,.479.537,2.406,2.406,0,0,1,.331.6c.207.43.3.794.521.926.174.132.587.033.976-.107s.8-.289,1.224-.4a5.152,5.152,0,0,1,2.6-.017,9.438,9.438,0,0,1,4.225,2.778,9.847,9.847,0,0,0-4.291-2.455,4.636,4.636,0,0,0-2.4.149c-.389.124-.761.289-1.166.446a4.275,4.275,0,0,1-.645.215,1.2,1.2,0,0,1-.818-.083c-.537-.322-.62-.876-.81-1.174a1.79,1.79,0,0,0-.289-.488,1.384,1.384,0,0,0-.372-.389,2.386,2.386,0,0,0-2.108-.256,30.84,30.84,0,0,1-4.977,1.182,12.139,12.139,0,0,1-2.613-.19,9.551,9.551,0,0,0-1.191-.091,7.726,7.726,0,0,0-1.157.107,4.534,4.534,0,0,0-2.042.942,13.121,13.121,0,0,1-1.05.8,2.067,2.067,0,0,1-1.645.273l-.364-.132-.174-.066-.107-.033-.215-.074a2.144,2.144,0,0,0-.24-.025,2.947,2.947,0,0,0-1.05.107,7.53,7.53,0,0,0-2.116.984,12.177,12.177,0,0,0-1.9,1.48,6.565,6.565,0,0,0-1.405,1.736l-.041.083a.61.61,0,0,1-.083.116.919.919,0,0,1-.81.248,2.017,2.017,0,0,1-.413-.124,3.66,3.66,0,0,1-.595-.322,6.946,6.946,0,0,1-.967-.785,6.443,6.443,0,0,1-.818-.951,2.744,2.744,0,0,1-.339-.645,1.112,1.112,0,0,1-.05-.612.765.765,0,0,1,.355-.488.9.9,0,0,1,.413-.116l-.165.033a29.811,29.811,0,0,0,3.952-1.7,10.26,10.26,0,0,0,3.332-2.472,9.177,9.177,0,0,1,.761-.885,2.477,2.477,0,0,1,1.232-.6,8.809,8.809,0,0,1,2.331-.017c.331.066.934-.471,1.4-.967.5-.513.992-1.066,1.521-1.6a9.548,9.548,0,0,1,1.786-1.447,3.21,3.21,0,0,1,2.381-.438.816.816,0,0,0,.752-.083,1.882,1.882,0,0,0,.488-.777c.248-.645.438-1.364.645-2.067A17.864,17.864,0,0,1,44.851,114.071Z" transform="translate(-13.65 -10.916)"/><path class="cls-1" d="M66.727,141.742c3.158,2.356.017,7.482-1.538,8.929-2.216,2.067-1,4.7-.273,7.267.843,2.985-3.1,2.166-3.051,4.745s-1.662,3.753-2.67,3.786c-.174.116-.149.992.058,1.951s.5,1.645.678,1.529c0,0,4.125-2.017,5.58-3.762,2.026-2.431,6.8-3.241,7.664-7.284.3-1.414,3.1-3.762,4.87-3.654s.942-6.358,7.35-5.473" transform="translate(-13.65 -10.916)"/><path class="cls-2" d="M66.727,141.742a3.461,3.461,0,0,1,1.174,1.4,3.865,3.865,0,0,1,.3,1.835,8.811,8.811,0,0,1-1.075,3.547,10.845,10.845,0,0,1-.992,1.579,7.335,7.335,0,0,1-.62.728,6.473,6.473,0,0,0-.562.645,3.893,3.893,0,0,0-.5,3.191,17.076,17.076,0,0,0,.471,1.711c.182.6.4,1.108.546,1.8a1.924,1.924,0,0,1,.058.546,1.809,1.809,0,0,1-.066.587,2.391,2.391,0,0,1-.24.562,3.349,3.349,0,0,1-.38.446,10.953,10.953,0,0,1-1.6,1.05,1.466,1.466,0,0,0-.785,1.042c0,.124-.017.2-.017.364s0,.339-.017.5a4.657,4.657,0,0,1-.174,1.009,4.1,4.1,0,0,1-1.042,1.827,3.106,3.106,0,0,1-2,.976l.322-.107a.415.415,0,0,0,.165-.19c.008-.017,0,0,0,.008a.785.785,0,0,0-.008.149,3.237,3.237,0,0,0,.017.4,7.606,7.606,0,0,0,.124.852c.058.281.132.57.215.835a2.976,2.976,0,0,0,.141.364c.025.05.05.091.058.107h0a.239.239,0,0,0-.05-.041.483.483,0,0,0-.215-.091.544.544,0,0,0-.4.091l.074-.041a33.322,33.322,0,0,0,3.613-2.092,10.92,10.92,0,0,0,1.563-1.265c.19-.2.479-.537.761-.794a10.107,10.107,0,0,1,.893-.719c1.224-.852,2.5-1.472,3.621-2.265a6.193,6.193,0,0,0,2.464-2.985l.141-.463a2.719,2.719,0,0,1,.24-.612,5.09,5.09,0,0,1,.686-.951,7.729,7.729,0,0,1,1.72-1.439,5.613,5.613,0,0,1,2.108-.868,2.983,2.983,0,0,1,.6-.033.341.341,0,0,0,.256-.091,2.3,2.3,0,0,0,.5-.769,8.294,8.294,0,0,1,2.4-3.588,4.358,4.358,0,0,1,2.034-.777,7.145,7.145,0,0,1,2.141.1,5.419,5.419,0,0,0-3.977.942,8.065,8.065,0,0,0-2.042,3.58,2.824,2.824,0,0,1-.628,1.017,1.018,1.018,0,0,1-.719.273,2.123,2.123,0,0,0-.455.041,4.817,4.817,0,0,0-1.777.827,7.488,7.488,0,0,0-1.488,1.356,3.878,3.878,0,0,0-.529.794,2.348,2.348,0,0,0-.141.389l-.149.562a5.785,5.785,0,0,1-1.083,2.042,9.388,9.388,0,0,1-1.662,1.538c-1.191.876-2.472,1.538-3.572,2.34a8.171,8.171,0,0,0-.769.628c-.24.231-.413.43-.711.752a11.647,11.647,0,0,1-1.736,1.43,30.586,30.586,0,0,1-3.762,2.207l.074-.041a.7.7,0,0,1-.5.107.746.746,0,0,1-.19-.058c-.041-.025-.091-.05-.124-.074a.862.862,0,0,1-.132-.124l-.074-.091a1.73,1.73,0,0,1-.174-.3,5.449,5.449,0,0,1-.2-.513,8.956,8.956,0,0,1-.248-.976,9.669,9.669,0,0,1-.141-1c-.017-.174-.017-.347-.017-.537a1.44,1.44,0,0,1,.033-.314,1.835,1.835,0,0,1,.058-.215.81.81,0,0,1,.289-.389.49.49,0,0,1,.289-.1h.033a1.959,1.959,0,0,0,1.191-.612,3.031,3.031,0,0,0,.752-1.306,4.089,4.089,0,0,0,.149-.777c.017-.132.008-.273.017-.4s.025-.372.041-.546a3.812,3.812,0,0,1,.165-.579,2.973,2.973,0,0,1,.322-.513,3.238,3.238,0,0,1,.827-.7,12.181,12.181,0,0,0,1.472-.9,1.142,1.142,0,0,0,.355-1.182c-.215-1.075-.678-2.29-.868-3.53a5.931,5.931,0,0,1-.025-1.951,4.051,4.051,0,0,1,.794-1.819,4.96,4.96,0,0,1,.661-.7,6.045,6.045,0,0,0,.587-.637,13.83,13.83,0,0,0,1.033-1.447,8.441,8.441,0,0,0,1.248-3.307,3.929,3.929,0,0,0-.157-1.753A3.038,3.038,0,0,0,66.727,141.742Z" transform="translate(-13.65 -10.916)"/><path class="cls-1" d="M42.1,91.492c-1.124,8.871-3.811,8.052-4.506,9.648-.893,2.059-6.978,4.506-10.136,4.092-2.24-.289-3.7,3.927-6.936,4.043-2.422.083-3.2,1.05-4.886.637h0a1.089,1.089,0,0,0-.628.074,1.788,1.788,0,0,0-.537,2.406c.438,1.009,1.4,1.571,2.133,1.248,0,0,5.159-1.9,6.416-1.348,4.745,2.1,5.407-2.48,8-.48a24.805,24.805,0,0,0,5.953,2.579,18.564,18.564,0,0,1,10.334,5.5" transform="translate(-13.65 -10.916)"/><path class="cls-2" d="M42.1,91.492a26.761,26.761,0,0,1-.719,4.4,8.394,8.394,0,0,1-2.1,3.993c-.281.265-.587.513-.852.736a2.287,2.287,0,0,0-.339.355,2.931,2.931,0,0,0-.248.422,5.2,5.2,0,0,1-1.662,1.7,16.721,16.721,0,0,1-4.1,1.968,12.018,12.018,0,0,1-4.572.7,2.035,2.035,0,0,0-1.6.653c-.521.446-1.025.992-1.571,1.521a8.412,8.412,0,0,1-1.9,1.439l-.579.248-.62.174-.637.074-.521.041a9.993,9.993,0,0,0-2.059.455,4.559,4.559,0,0,1-2.505.149l.744-.752h0a.617.617,0,0,1-.43.752.549.549,0,0,1-.231.017h-.017a.463.463,0,0,0-.5.207,1.243,1.243,0,0,0-.174.777,1.92,1.92,0,0,0,.918,1.521.822.822,0,0,0,.339.1.407.407,0,0,0,.141-.008c.041-.008.091-.033.223-.074l1.191-.4c.8-.256,1.6-.5,2.431-.686a8.267,8.267,0,0,1,2.67-.3,2.937,2.937,0,0,1,.446.124l.273.107.537.207a5.72,5.72,0,0,0,1.083.207,3.745,3.745,0,0,0,2.1-.471l1.075-.6a3.158,3.158,0,0,1,1.422-.4,2.642,2.642,0,0,1,1.414.529c.223.141.314.231.5.347.157.107.331.207.5.306.7.389,1.447.736,2.191,1.058s1.513.637,2.274.885a4.467,4.467,0,0,0,.562.149l.612.141c.4.1.81.207,1.215.331a17.515,17.515,0,0,1,8.309,5.341,17.944,17.944,0,0,0-8.482-4.737c-.4-.107-.794-.2-1.191-.281l-.6-.116a6.057,6.057,0,0,1-.645-.149c-.818-.24-1.6-.529-2.373-.827s-1.546-.628-2.307-1.017c-.19-.1-.38-.2-.57-.314-.182-.1-.405-.273-.537-.347a1.617,1.617,0,0,0-.876-.314,6,6,0,0,0-2,.959,4.9,4.9,0,0,1-2.662.645,6.642,6.642,0,0,1-1.348-.231l-.628-.223-.314-.116a.5.5,0,0,1-.149-.033,7.99,7.99,0,0,0-2.224.306c-.777.19-1.563.43-2.34.678l-1.157.4a3.1,3.1,0,0,1-.364.116,1.788,1.788,0,0,1-.471.041,2.132,2.132,0,0,1-.843-.231,3.121,3.121,0,0,1-1.6-2.522,2.432,2.432,0,0,1,.4-1.587,1.753,1.753,0,0,1,1.678-.694l-.686.769h0v-.008a.611.611,0,0,1,.43-.744.666.666,0,0,1,.314,0,3.292,3.292,0,0,0,1.877-.124,11.527,11.527,0,0,1,2.282-.48c.19-.025.405-.025.587-.041l.463-.05.455-.124.438-.182a6.967,6.967,0,0,0,1.653-1.207c.529-.488,1.033-1.033,1.653-1.538a4.241,4.241,0,0,1,1.075-.67,2.827,2.827,0,0,1,.67-.19,3.757,3.757,0,0,1,.686.008,11.662,11.662,0,0,0,4.183-.521,16.2,16.2,0,0,0,3.96-1.72,4.486,4.486,0,0,0,1.48-1.372,3.083,3.083,0,0,1,.339-.521,2.723,2.723,0,0,1,.446-.43c.306-.248.6-.438.868-.678A7.946,7.946,0,0,0,41.1,95.844,41.838,41.838,0,0,0,42.1,91.492Z" transform="translate(-13.65 -10.916)"/><path class="cls-1" d="M85.089,43.335c-5.779-5.035-13.567-3.7-12.914-6.391.736-3.018-4.688-5.5-4.555-7.044.389-4.423-.9-2.5-3.133-6.093A27.877,27.877,0,0,1,61.982,18.4a.214.214,0,0,0-.058-.165c-.231-.223-1.033.248-1.794,1.05s-1.182,1.62-.951,1.844c1.645.653,5.622,5.465,4.4,7.92s2.91,2.083,1.653,8.21c-.926,4.522,3.34,8.449-.827,9.987-2.836,1.05,4.357.769-1.678,6.945" transform="translate(-13.65 -10.916)"/><path class="cls-2" d="M85.089,43.335a16.588,16.588,0,0,0-3.96-2.323,26.033,26.033,0,0,0-4.382-1.331c-.752-.165-1.5-.322-2.257-.5a5.675,5.675,0,0,1-2.282-.942,1.349,1.349,0,0,1-.4-.67,1.737,1.737,0,0,1,0-.744c.008-.165.041-.322.033-.48-.033-.157-.025-.322-.074-.48a4.574,4.574,0,0,0-1.1-1.777,21.08,21.08,0,0,0-1.645-1.554,8.649,8.649,0,0,1-1.695-1.794l-.165-.355a2.92,2.92,0,0,1-.066-.471c.008-.223.025-.38.033-.579a9.5,9.5,0,0,0,.008-1.091,2.358,2.358,0,0,0-.19-.909,2,2,0,0,0-.628-.661,8.724,8.724,0,0,1-1.736-1.72A16.5,16.5,0,0,1,63.3,22.924a30.382,30.382,0,0,1-1.9-4.316l-.041-.132a.03.03,0,0,1,.017-.041s-.008.025.05.141a.4.4,0,0,0,.265.207c.132.025.091,0,.058.017a1.776,1.776,0,0,0-.355.2,5.125,5.125,0,0,0-.761.661,7.06,7.06,0,0,0-.645.785,2.351,2.351,0,0,0-.223.389.283.283,0,0,0-.041.132c-.017.025.058-.066-.132-.273l-.2-.124A6.979,6.979,0,0,1,61.457,22.2a14.641,14.641,0,0,1,1.521,1.968,10.2,10.2,0,0,1,1.108,2.274,3.91,3.91,0,0,1,.025,2.728l-.182.471a1.107,1.107,0,0,0-.025.364,1.944,1.944,0,0,0,.43.794,7.291,7.291,0,0,1,1.323,2.174c.6,1.687.19,3.472-.058,4.944a11.725,11.725,0,0,0,.579,4.539,10.04,10.04,0,0,1,.413,2.439,2.632,2.632,0,0,1-.322,1.3,2.888,2.888,0,0,1-.422.537,6.4,6.4,0,0,1-.537.389,9.777,9.777,0,0,1-1.124.488,1.187,1.187,0,0,0-.207.107c-.058.058-.017.008-.033-.008-.008.033.182.207.322.322a3.53,3.53,0,0,1,.843.934,2.1,2.1,0,0,1,.248,1.257,4.737,4.737,0,0,1-1.025,2.2,16.409,16.409,0,0,1-1.612,1.769,14.95,14.95,0,0,0,1.463-1.868,4.566,4.566,0,0,0,.86-2.125,2.032,2.032,0,0,0-1.05-1.811c-.157-.149-.331-.19-.5-.529a.474.474,0,0,1,.174-.521,1.132,1.132,0,0,1,.306-.19,8.464,8.464,0,0,0,1.033-.521,1.863,1.863,0,0,0,.909-1.736,9.284,9.284,0,0,0-.463-2.232,12.575,12.575,0,0,1-.761-4.845l.074-.637.083-.57a7.461,7.461,0,0,0,.1-1.133,5.976,5.976,0,0,0-.289-2.15,6.221,6.221,0,0,0-1.174-1.86,2.923,2.923,0,0,1-.661-1.29,2.088,2.088,0,0,1,.041-.818c.033-.124.083-.231.124-.347s.1-.24.107-.289a2.841,2.841,0,0,0-.091-1.926,8.981,8.981,0,0,0-1-1.992A14.023,14.023,0,0,0,60.6,23.016a6.133,6.133,0,0,0-1.637-1.323l-.066-.033a.4.4,0,0,1-.132-.1.907.907,0,0,1-.24-.81,2.016,2.016,0,0,1,.124-.413,4.2,4.2,0,0,1,.322-.6,5.938,5.938,0,0,1,.794-.967,6.6,6.6,0,0,1,.959-.81,2.759,2.759,0,0,1,.645-.331,1.078,1.078,0,0,1,.62-.041.779.779,0,0,1,.488.364.765.765,0,0,1,.107.413l-.033-.174a29.258,29.258,0,0,0,1.769,4.159A9.424,9.424,0,0,0,67,25.778a3.047,3.047,0,0,1,.909,1.033,3.254,3.254,0,0,1,.289,1.331,9.754,9.754,0,0,1-.025,1.215c-.008.19-.033.413-.041.57a.189.189,0,0,1,.017.1,1.593,1.593,0,0,1,.083.165,8.847,8.847,0,0,0,1.439,1.579,20.982,20.982,0,0,1,1.653,1.687,5.393,5.393,0,0,1,1.215,2.174,4.265,4.265,0,0,1,.083.661,6.384,6.384,0,0,1-.074.67.629.629,0,0,0,.157.7,5.182,5.182,0,0,0,1.943.835l2.232.6A19.326,19.326,0,0,1,85.089,43.335Z" transform="translate(-13.65 -10.916)"/><path class="cls-1" d="M74.738,46.89C68.794,49.577,65.677,48.5,64,48.081c-7.912-1.959-7.011-1.6-8.6-5.366a6.947,6.947,0,0,0-6.564-4.068c-2.538.041-3.894-2.794-4.894-4.357a2.055,2.055,0,0,0-2.4-.736,1.294,1.294,0,0,0-.785,1.918,1.634,1.634,0,0,0,.4.43h0a.3.3,0,0,1,.041.025l.017.017c.446.331,3.621,2.728,3.977,3.894,1.124,3.662,3.712,3.745,5.2,3.927s4.812,2.844,5.324,5.795-1.587,7.614.4,10.739" transform="translate(-13.65 -10.916)"/><path class="cls-2" d="M74.738,46.89a19.292,19.292,0,0,1-5.051,1.777,12.041,12.041,0,0,1-5.4-.165c-1.728-.413-3.472-.769-5.217-1.248a10.346,10.346,0,0,1-1.315-.446,3.479,3.479,0,0,1-1.265-.818,4.406,4.406,0,0,1-.8-1.257l-.537-1.24a6.038,6.038,0,0,0-3.2-3.572,7.384,7.384,0,0,0-2.373-.637,5.012,5.012,0,0,0-.612-.025,6.278,6.278,0,0,1-.752-.05,3.9,3.9,0,0,1-1.463-.537,7.108,7.108,0,0,1-2.05-2.05c-.273-.38-.513-.769-.752-1.149L43.6,34.9l-.174-.281c-.041-.058-.083-.116-.124-.165a1.488,1.488,0,0,0-1.711-.24.676.676,0,0,0-.05,1.207l.008.008a.6.6,0,0,1,.1.843.491.491,0,0,1-.174.149h0l.058-1.009a27.607,27.607,0,0,1,3.092,2.654,7.564,7.564,0,0,1,.694.818,3.313,3.313,0,0,1,.314.513c.041.1.1.24.124.306l.074.223a5.474,5.474,0,0,0,.81,1.612A4.3,4.3,0,0,0,49.7,43.178c.331.066.6.058,1.033.165a4.14,4.14,0,0,1,1.025.446,8.654,8.654,0,0,1,1.67,1.265,8.944,8.944,0,0,1,2.34,3.406,8.02,8.02,0,0,1,.157,4.092c-.2,1.323-.463,2.621-.529,3.935a6.909,6.909,0,0,0,.728,3.828,6.019,6.019,0,0,1-.8-1.827,9.031,9.031,0,0,1-.215-2c-.008-1.348.174-2.679.289-3.993a8.007,8.007,0,0,0-.289-3.778A8.309,8.309,0,0,0,52.853,45.7a8.739,8.739,0,0,0-1.538-1.083,3.582,3.582,0,0,0-.81-.322c-.215-.058-.62-.066-.942-.116a6.152,6.152,0,0,1-2.075-.562,4.791,4.791,0,0,1-1.72-1.4,6.349,6.349,0,0,1-1.009-1.91l-.091-.248c-.033-.083-.05-.1-.066-.149a2.813,2.813,0,0,0-.215-.331,6.509,6.509,0,0,0-.6-.686,28.226,28.226,0,0,0-2.976-2.505.605.605,0,0,1-.124-.843.693.693,0,0,1,.182-.165h0l-.074,1a2.018,2.018,0,0,1-.827-1.645,1.931,1.931,0,0,1,1-1.579,2.693,2.693,0,0,1,3.224.438,2.4,2.4,0,0,1,.281.364l.182.289.349.571c.231.372.455.744.7,1.091a5.956,5.956,0,0,0,1.678,1.72,2.61,2.61,0,0,0,1.025.38,5.309,5.309,0,0,0,.579.041c.24,0,.479.017.719.033a8.28,8.28,0,0,1,2.753.785,7.046,7.046,0,0,1,2.29,1.744,7.67,7.67,0,0,1,1.389,2.472,8.074,8.074,0,0,0,1.058,2.24,4.934,4.934,0,0,0,2.133,1.1c1.67.529,3.406.951,5.126,1.422a12.044,12.044,0,0,0,5.175.446A20.947,20.947,0,0,0,74.738,46.89Z" transform="translate(-13.65 -10.916)"/><path class="cls-1" d="M106.138,42.07c-8.863-1.191-8.408-5.473-10-6.167-2.05-.909-4.448-7.011-4.018-10.169.306-2.24-3.9-3.737-3.993-6.969-.066-2.422-1.009-3.183-.6-4.886a1.063,1.063,0,0,0-.074-.628,1.794,1.794,0,0,0-2.406-.554c-1.009.43-1.579,1.381-1.265,2.125,0,0,1.86,5.175,1.3,6.424-2.133,4.729,2.439,5.423.422,8.011a25.063,25.063,0,0,0-2.629,5.928c-.529,2.745-.207,6.8-3.795,9.946" transform="translate(-13.65 -10.916)"/><path class="cls-2" d="M106.138,42.07a17.961,17.961,0,0,1-4.63-1.009,10.691,10.691,0,0,1-2.141-1.091,8.057,8.057,0,0,1-1.753-1.687c-.5-.62-.868-1.414-1.331-1.868a.489.489,0,0,0-.174-.132c-.058-.033-.116-.074-.231-.132a2.4,2.4,0,0,1-.554-.38,5.3,5.3,0,0,1-.86-.926,15.562,15.562,0,0,1-2.158-4.34,11.907,11.907,0,0,1-.711-4.861,2.343,2.343,0,0,0-.794-1.662c-.5-.554-1.075-1.091-1.629-1.7a6.707,6.707,0,0,1-1.381-2.166l-.181-.663-.074-.678a9.852,9.852,0,0,0-.107-1.091c-.107-.728-.38-1.414-.546-2.3A4.106,4.106,0,0,1,86.891,14l.058-.289a.4.4,0,0,0,0-.1.725.725,0,0,0-.033-.116.882.882,0,0,0-.074-.124,1.38,1.38,0,0,0-1.48-.149c-.57.207-1.05.744-1.033,1.149a7.408,7.408,0,0,0,.3.942l.355,1.141c.223.769.438,1.538.6,2.34a11.444,11.444,0,0,1,.182,1.232,3.055,3.055,0,0,1-.149,1.447,6,6,0,0,0-.546,2.059,3.861,3.861,0,0,0,.521,2c.165.322.372.67.562,1.042a3.022,3.022,0,0,1,.372,1.348,2.508,2.508,0,0,1-.479,1.348,5.023,5.023,0,0,1-.347.48c-.1.157-.2.306-.3.471-.38.653-.719,1.364-1.042,2.067s-.62,1.43-.885,2.158c-.066.182-.132.364-.182.537a3.187,3.187,0,0,0-.124.537c-.074.38-.124.761-.182,1.149a20.045,20.045,0,0,1-1.075,4.638,10.437,10.437,0,0,1-1.157,2.083A10.325,10.325,0,0,1,79.1,45.1a9.844,9.844,0,0,0,2.5-3.9,19.37,19.37,0,0,0,.777-4.6c.033-.4.083-.785.141-1.191a4.423,4.423,0,0,1,.116-.612c.05-.2.116-.389.174-.587.248-.761.529-1.505.827-2.24a23.509,23.509,0,0,1,1.009-2.183,5.979,5.979,0,0,1,.314-.537c.124-.182.248-.364.322-.488a1.515,1.515,0,0,0,.289-.843,5.406,5.406,0,0,0-.9-1.9,4.894,4.894,0,0,1-.694-2.5,7.013,7.013,0,0,1,.6-2.5,2.257,2.257,0,0,0,.033-.885,8.962,8.962,0,0,0-.19-1.1q-.248-1.116-.6-2.232l-.355-1.108-.19-.546a2.258,2.258,0,0,1-.174-.761,2.248,2.248,0,0,1,.6-1.472,3.2,3.2,0,0,1,1.191-.827,3.128,3.128,0,0,1,1.447-.223,2.1,2.1,0,0,1,1.455.728,1.841,1.841,0,0,1,.231.38,1.543,1.543,0,0,1,.132.446,1.385,1.385,0,0,1-.008.488l-.058.289a2.9,2.9,0,0,0-.008.967c.116.661.4,1.463.529,2.3a10.713,10.713,0,0,1,.116,1.257l.05.5.132.48a5.819,5.819,0,0,0,1.133,1.794c.488.57,1.058,1.108,1.6,1.744a5.556,5.556,0,0,1,.744,1.083,2.709,2.709,0,0,1,.273,1.463A11.607,11.607,0,0,0,93.2,30.2a14.9,14.9,0,0,0,1.877,4.159,4.324,4.324,0,0,0,.711.827,1.53,1.53,0,0,0,.4.3c.1.083.438.231.554.4a4.944,4.944,0,0,1,.728,1.033c.2.339.4.67.612.984a7.791,7.791,0,0,0,1.546,1.662,10.025,10.025,0,0,0,1.992,1.166A19.422,19.422,0,0,0,106.138,42.07Z" transform="translate(-13.65 -10.916)"/><path class="cls-1" d="M59.344,57.075c-2.951,2.6-6.589-.794-7.689-2.6-1.563-2.6-4.4-1.943-7.06-1.761-3.092.215-1.48-3.481-4.018-3.96s-3.332-2.4-3.158-3.39c-.083-.19-.942-.347-1.918-.347s-1.711.157-1.637.355c0,0,1.124,4.448,2.538,6.234,1.968,2.48,1.769,7.325,5.547,8.995,1.323.587,3.051,3.8,2.571,5.514s4.58,1.728,2.4,7.821" transform="translate(-13.65 -10.916)"/><path class="cls-2" d="M59.344,57.075a3.849,3.849,0,0,1-1.521.909,3.7,3.7,0,0,1-1.8.066,7.038,7.038,0,0,1-3.166-1.72,8.735,8.735,0,0,1-1.24-1.339c-.182-.265-.347-.5-.5-.711a4.041,4.041,0,0,0-.562-.57,4.494,4.494,0,0,0-3.092-.777c-.57.017-1.141.083-1.728.149a8.477,8.477,0,0,1-1.885.091,2.061,2.061,0,0,1-1.05-.438,2.4,2.4,0,0,1-.67-.885c-.281-.62-.4-1.2-.612-1.662a1.282,1.282,0,0,0-.9-.827l-.157-.05-.24-.05a4.813,4.813,0,0,1-.471-.124,4.24,4.24,0,0,1-.918-.389,4.075,4.075,0,0,1-1.5-1.389,3.057,3.057,0,0,1-.5-2.108l.033.339c.074.174.149.19.157.2s0,0-.008,0c-.033-.008-.083-.025-.141-.041-.116-.025-.256-.05-.389-.066a8.151,8.151,0,0,0-1.72-.009c-.132.017-.273.041-.38.066a.875.875,0,0,1-.116.033h0a.18.18,0,0,0,.05-.033.5.5,0,0,0,.132-.19.57.57,0,0,0,0-.4l.025.083a33.879,33.879,0,0,0,1.248,3.828,11.915,11.915,0,0,0,.868,1.753c.074.141.174.248.256.38l.322.455a6.2,6.2,0,0,1,.537.976c.612,1.323.934,2.662,1.439,3.894a8.867,8.867,0,0,0,.876,1.744,5.047,5.047,0,0,0,1.257,1.389,4.889,4.889,0,0,0,.794.5,3.36,3.36,0,0,1,.951.711,8.04,8.04,0,0,1,1.877,3.878,3.945,3.945,0,0,1,.025,1.124c-.1.48-.124.529.008.785a14.109,14.109,0,0,0,1.414,1.389,4.255,4.255,0,0,1,1.1,1.827,5.022,5.022,0,0,1,.083,2.1c-.083.339-.149.678-.248,1.009l-.347.976a6.594,6.594,0,0,0,.19-3.985,3.945,3.945,0,0,0-1.108-1.587c-.24-.223-.513-.422-.785-.628a3.519,3.519,0,0,1-.818-.769.78.78,0,0,1-.149-.3.744.744,0,0,1-.058-.347c.008-.107.025-.273.033-.331l.033-.215a3.221,3.221,0,0,0-.066-.926,6.631,6.631,0,0,0-.678-1.819A7.006,7.006,0,0,0,42.4,61.472a2.563,2.563,0,0,0-.711-.488,5.645,5.645,0,0,1-.976-.554,7.512,7.512,0,0,1-2.579-3.5c-.562-1.3-.918-2.646-1.5-3.8a6.674,6.674,0,0,0-.463-.827l-.273-.389c-.107-.157-.231-.306-.322-.471a13.707,13.707,0,0,1-.976-1.935,32.911,32.911,0,0,1-1.331-3.993l.025.083a.709.709,0,0,1,0-.521.594.594,0,0,1,.1-.174,1.3,1.3,0,0,1,.1-.107,1.726,1.726,0,0,1,.149-.107l.107-.058a1.782,1.782,0,0,1,.331-.107,4.534,4.534,0,0,1,.537-.091,8.234,8.234,0,0,1,1.009-.041c.331.008.661.025,1,.066a4.677,4.677,0,0,1,.529.1,2.269,2.269,0,0,1,.306.1,1.506,1.506,0,0,1,.2.1.789.789,0,0,1,.322.364.508.508,0,0,1,.041.314l-.008.025a1.926,1.926,0,0,0,.331,1.257,3,3,0,0,0,1.058,1,3.892,3.892,0,0,0,.7.314,1.915,1.915,0,0,0,.38.107l.19.05.265.074a1.835,1.835,0,0,1,.521.223,2.112,2.112,0,0,1,.471.347,2.978,2.978,0,0,1,.6.909c.256.62.364,1.207.57,1.67a1.157,1.157,0,0,0,.918.769,8.512,8.512,0,0,0,1.637-.025c.587-.041,1.191-.083,1.8-.074A5.3,5.3,0,0,1,51.02,53.17a4.062,4.062,0,0,1,.645.711c.182.273.347.529.488.752a9.663,9.663,0,0,0,1.083,1.315A6.657,6.657,0,0,0,56.1,57.767,3.56,3.56,0,0,0,59.344,57.075Z" transform="translate(-13.65 -10.916)"/><path class="cls-1" d="M50.878,66.963c-2.1,1.612-7.184,9.632-9.557,7.581-.637-.554-6.763-4.44-7.78-3.538-2.158,1.9-2.761-.347-6.63,1-.86.3-3.274-3.456-4.026-4.671a1.733,1.733,0,0,0-.231-.38c-.579-.678-1.364-.223-1.753,1.017a4.171,4.171,0,0,0,.331,3.472.8.8,0,0,0,.5.3h0c1.364-.033,2.125,2.761,4.208,3.191,4.134.86,5.853,7.953,7.664,8.639,5.1,1.918,4.7,4.159,5.324,7.267.488,2.406-1.3,9.731,3.323,12.1" transform="translate(-13.65 -10.916)"/><path class="cls-2" d="M50.878,66.963a33.925,33.925,0,0,0-2.836,3.3,36.3,36.3,0,0,1-2.9,3.282,8.011,8.011,0,0,1-1.8,1.356,2.71,2.71,0,0,1-1.2.3,1.553,1.553,0,0,1-.661-.157,3.519,3.519,0,0,1-.5-.331,35.131,35.131,0,0,0-3.712-2.174,18.56,18.56,0,0,0-1.943-.868,6.33,6.33,0,0,0-.967-.281,1.2,1.2,0,0,0-.4-.025.264.264,0,0,0-.091.017c0,.008.025-.017-.008.008l-.116.1a3.823,3.823,0,0,1-1.058.67,2.845,2.845,0,0,1-1.3.165,16.245,16.245,0,0,0-2.108-.231,6.646,6.646,0,0,0-1.976.372l-.124.041a.739.739,0,0,1-.19.05,1.644,1.644,0,0,1-.347.017,1.214,1.214,0,0,1-.223-.074,2.24,2.24,0,0,1-.62-.38,7.278,7.278,0,0,1-.835-.843,31.579,31.579,0,0,1-2.571-3.621l-.033-.058a2.735,2.735,0,0,1-.157-.256.569.569,0,0,0-.124-.1c-.008-.008-.041-.017-.182.107a2.7,2.7,0,0,0-.537,1.315,4.168,4.168,0,0,0,.017,1.571,2.089,2.089,0,0,0,.231.661c.107.19.215.265.223.248a.318.318,0,0,1,.405-.207.314.314,0,0,1,.215.364l-.107.562h0l-.62-.728a2.186,2.186,0,0,1,1.529.752c.339.339.595.678.86.992a4.344,4.344,0,0,0,1.662,1.4c.248.074.81.231,1.224.4l.628.322c.2.116.38.265.562.4A9.629,9.629,0,0,1,30,77.34a50.68,50.68,0,0,1,2.613,4.349,9.958,9.958,0,0,0,.661.967,2.656,2.656,0,0,0,.347.339,1.821,1.821,0,0,1,.157.107l.3.124a11.668,11.668,0,0,1,2.307,1.224,5.84,5.84,0,0,1,1.835,1.976,7.783,7.783,0,0,1,.752,2.53l.19,1.24.1.612a6.274,6.274,0,0,1,.066.67c.033.868-.025,1.7-.058,2.538a18.377,18.377,0,0,0,.248,4.952,6.823,6.823,0,0,0,.918,2.274,5.343,5.343,0,0,0,1.794,1.695,5.478,5.478,0,0,1-1.943-1.6,6.76,6.76,0,0,1-1.083-2.3A18.882,18.882,0,0,1,38.677,94c-.008-.843.025-1.678-.033-2.488a4.378,4.378,0,0,0-.074-.579l-.124-.62-.231-1.232a6.67,6.67,0,0,0-.736-2.24,4.843,4.843,0,0,0-1.612-1.612,10.861,10.861,0,0,0-2.158-1.05l-.281-.107a4.183,4.183,0,0,1-.38-.207,3.064,3.064,0,0,1-.562-.513,9.019,9.019,0,0,1-.769-1.091c-.893-1.463-1.637-2.943-2.6-4.241a8.124,8.124,0,0,0-1.62-1.695c-.157-.107-.306-.231-.463-.322l-.5-.248c-.364-.132-.612-.2-1.166-.355a5.462,5.462,0,0,1-2.183-1.736c-.273-.322-.537-.645-.794-.9a1.029,1.029,0,0,0-.645-.38.6.6,0,0,1-.628-.57.732.732,0,0,1,.008-.132V71.65h0l.513.719a1.464,1.464,0,0,1-.728-.347,1.98,1.98,0,0,1-.4-.513,3.486,3.486,0,0,1-.355-1.033,5.7,5.7,0,0,1,0-2.017,3.705,3.705,0,0,1,.893-1.943,1.728,1.728,0,0,1,.595-.389,1.234,1.234,0,0,1,.843.008,1.592,1.592,0,0,1,.595.438c.116.165.215.339.322.513l-.033-.058a32.015,32.015,0,0,0,2.431,3.5c.413.5,1.033,1.124,1.149.876a7.87,7.87,0,0,1,2.3-.4,15.152,15.152,0,0,1,2.216.256,2.027,2.027,0,0,0,.843-.074,2.912,2.912,0,0,0,.785-.471l.1-.074a2.194,2.194,0,0,1,.223-.149,1.348,1.348,0,0,1,.438-.107,2.5,2.5,0,0,1,.678.058,7.3,7.3,0,0,1,1.116.364,21.073,21.073,0,0,1,2,.976,36.259,36.259,0,0,1,3.737,2.356,2.259,2.259,0,0,0,.389.281,1,1,0,0,0,.389.107,1.943,1.943,0,0,0,.9-.207,8.272,8.272,0,0,0,1.728-1.174,34.393,34.393,0,0,0,3.034-3.084A29.925,29.925,0,0,1,50.878,66.963Z" transform="translate(-13.65 -10.916)"/><path class="cls-1" d="M78.533,147.711c2.009,1.728,9.946,6.217,8.424,8.954-.4.736-2.951,7.523-1.868,8.342,2.3,1.72.231,2.77,2.34,6.283.471.785-2.712,3.91-3.737,4.9a1.859,1.859,0,0,0-.322.306c-.546.7.066,1.381,1.356,1.505a4.133,4.133,0,0,0,3.332-1.042.758.758,0,0,0,.19-.546h0c-.314-1.323,2.265-2.646,2.257-4.77-.008-4.225,6.581-7.366,6.878-9.276.835-5.39,3.109-5.448,6.019-6.705,2.249-.967,9.954-1.315,11.326-6.325" transform="translate(-13.65 -10.916)"/><path class="cls-2" d="M78.533,147.711a70.744,70.744,0,0,1,7.085,5.134,7.8,7.8,0,0,1,1.447,1.736,2.935,2.935,0,0,1,.4,1.149,1.738,1.738,0,0,1-.041.653,2.564,2.564,0,0,1-.223.57,34.194,34.194,0,0,0-1.364,4.076,18.93,18.93,0,0,0-.455,2.083,6.126,6.126,0,0,0-.083,1.009,1.864,1.864,0,0,0,.05.413.235.235,0,0,0,.041.091.008.008,0,0,0-.008-.008l.116.091a3.761,3.761,0,0,1,.876.893,2.8,2.8,0,0,1,.438,1.24,15.243,15.243,0,0,0,.207,2.116,6.719,6.719,0,0,0,.769,1.86l.066.116.033.058.017.025.033.074a1.615,1.615,0,0,1,.091.339,2.024,2.024,0,0,1-.017.24,1.4,1.4,0,0,1-.107.389,2.031,2.031,0,0,1-.141.306,6.9,6.9,0,0,1-.653.992,31.544,31.544,0,0,1-3.018,3.266l-.05.041a2.626,2.626,0,0,1-.215.207.537.537,0,0,0-.074.141c-.008.008-.008.041.149.157a2.649,2.649,0,0,0,1.4.256,4.125,4.125,0,0,0,1.529-.339,2.26,2.26,0,0,0,.6-.364c.165-.141.215-.265.2-.265a.319.319,0,0,1-.289-.355.323.323,0,0,1,.322-.289l.579-.008h0l-.587.761a2.207,2.207,0,0,1,.43-1.662c.265-.4.546-.728.8-1.05a4.176,4.176,0,0,0,1.025-1.935l.05-.6a4.006,4.006,0,0,1,.1-.711l.19-.686.289-.637a10.015,10.015,0,0,1,1.554-2.191c1.182-1.3,2.546-2.356,3.753-3.472a6.715,6.715,0,0,0,.785-.86,1.37,1.37,0,0,0,.215-.4.825.825,0,0,1,.041-.091l.033-.157.066-.322a11.263,11.263,0,0,1,.769-2.53,5.658,5.658,0,0,1,1.653-2.166,8.744,8.744,0,0,1,2.364-1.191l1.182-.446a9.437,9.437,0,0,1,1.24-.413c.835-.215,1.662-.38,2.489-.554a18.555,18.555,0,0,0,4.754-1.554,6.307,6.307,0,0,0,3.3-3.6,5.828,5.828,0,0,1-1.157,2.257,7.631,7.631,0,0,1-1.984,1.62,19.47,19.47,0,0,1-4.77,1.852c-.818.223-1.653.4-2.439.645-.761.215-1.538.612-2.331.909a8.212,8.212,0,0,0-2.116,1.141,4.725,4.725,0,0,0-1.331,1.877,10.294,10.294,0,0,0-.628,2.331l-.05.306a2.536,2.536,0,0,1-.083.355,2.508,2.508,0,0,1-.355.728,7.366,7.366,0,0,1-.909,1.025c-1.265,1.191-2.571,2.232-3.662,3.456a8.944,8.944,0,0,0-1.356,1.943l-.231.521-.141.537a2.428,2.428,0,0,0-.066.546l-.025.281-.025.389a5.325,5.325,0,0,1-1.24,2.53c-.265.339-.529.661-.728.976a1.1,1.1,0,0,0-.248.711.6.6,0,0,1-.43.736.746.746,0,0,1-.132.017h-.025l.6-.653a1.439,1.439,0,0,1-.19.777,2.07,2.07,0,0,1-.422.488,3.259,3.259,0,0,1-.934.562,5.606,5.606,0,0,1-1.976.413,3.788,3.788,0,0,1-2.083-.471,1.7,1.7,0,0,1-.5-.5,1.24,1.24,0,0,1-.165-.827,1.535,1.535,0,0,1,.306-.67c.141-.149.289-.281.438-.413l-.05.041a32.338,32.338,0,0,0,2.935-3.109c.4-.521.885-1.232.62-1.306a7.787,7.787,0,0,1-.868-2.166,15.045,15.045,0,0,1-.207-2.224,1.833,1.833,0,0,0-.256-.81,2.808,2.808,0,0,0-.628-.67l-.091-.083a2.151,2.151,0,0,1-.2-.207,1.433,1.433,0,0,1-.182-.4,2.852,2.852,0,0,1-.074-.67,6.549,6.549,0,0,1,.132-1.166c.141-.744.339-1.455.546-2.166a34.694,34.694,0,0,1,1.546-4.142,1.8,1.8,0,0,0,.19-.438,1.219,1.219,0,0,0,.041-.43,2.217,2.217,0,0,0-.289-.9,7.743,7.743,0,0,0-1.265-1.67C83.262,151.142,80.749,149.587,78.533,147.711Z" transform="translate(-13.65 -10.916)"/></g><ellipse class="cls-3" cx="85.527" cy="85.603" rx="57.326" ry="54.854"/><g id="HOLES"><g id="INSIDE"><ellipse class="cls-4" cx="109.518" cy="13.089" rx="1.993" ry="1.455" transform="translate(-11.542 27.247) rotate(-19.955)"/><path class="cls-4" d="M178.354,70.419a1.288,1.288,0,0,1,.273-2.05,2.057,2.057,0,0,1,2.447.554,1.288,1.288,0,0,1-.273,2.05A2.057,2.057,0,0,1,178.354,70.419Z" transform="translate(-13.65 -10.916)"/><ellipse class="cls-4" cx="162.13" cy="36.39" rx="0.579" ry="1.992" transform="translate(-13.732 61.497) rotate(-25.171)"/><path class="cls-4" d="M180.04,82.332c-.852-.488-1.4-.992-1.24-1.116s.992.165,1.835.653,1.4.992,1.24,1.116S180.892,82.82,180.04,82.332Z" transform="translate(-13.65 -10.916)"/><ellipse class="cls-4" cx="140.123" cy="23.15" rx="1.455" ry="1.992" transform="translate(16.347 101.916) rotate(-48.539)"/><path class="cls-4" d="M115.29,181.45a1.4,1.4,0,0,1,2.207.562,2.346,2.346,0,0,1-.918,2.662,1.4,1.4,0,0,1-2.207-.562A2.335,2.335,0,0,1,115.29,181.45Z" transform="translate(-13.65 -10.916)"/><path class="cls-4" d="M154.345,167.032c-1.149.4-1.992.992-1.877,1.331s1.133.289,2.282-.107,1.992-.992,1.877-1.331S155.494,166.635,154.345,167.032Z" transform="translate(-13.65 -10.916)"/><path class="cls-4" d="M170.764,143.511c.9-.827,2.108-.959,2.7-.289a2.041,2.041,0,0,1-.562,2.712c-.9.827-2.108.959-2.7.289A2.041,2.041,0,0,1,170.764,143.511Z" transform="translate(-13.65 -10.916)"/><path class="cls-4" d="M178.891,110.152c-.273,1.273.182,2.059,1.017,1.753a4.177,4.177,0,0,0,2.017-2.852c.273-1.273-.182-2.059-1.017-1.753A4.128,4.128,0,0,0,178.891,110.152Z" transform="translate(-13.65 -10.916)"/><path class="cls-4" d="M49.06,162.733a1.29,1.29,0,0,0-2.034-.372,2.04,2.04,0,0,0-.223,2.5,1.29,1.29,0,0,0,2.034.372A2.066,2.066,0,0,0,49.06,162.733Z" transform="translate(-13.65 -10.916)"/><ellipse class="cls-4" cx="21.631" cy="136.841" rx="0.579" ry="1.992" transform="translate(-106.765 48.294) rotate(-46.937)"/><path class="cls-4" d="M59.873,168c-.207-.959-.5-1.645-.678-1.529s-.149.992.058,1.951.5,1.645.678,1.529A3.414,3.414,0,0,0,59.873,168Z" transform="translate(-13.65 -10.916)"/><ellipse class="cls-4" cx="15.809" cy="111.798" rx="1.455" ry="1.992" transform="translate(-57.029 4.729) rotate(-23.566)"/><ellipse class="cls-4" cx="60.537" cy="19.673" rx="1.992" ry="0.579" transform="translate(-9.053 39.131) rotate(-46.503)"/><ellipse class="cls-4" cx="85.636" cy="14.047" rx="1.992" ry="1.455" transform="translate(-12.285 23.852) rotate(-23.129)"/><path class="cls-4" d="M86.7,175.448c1.3.132,1.9.8,1.356,1.505A4.16,4.16,0,0,1,84.725,178c-1.3-.132-1.9-.8-1.356-1.505A4.16,4.16,0,0,1,86.7,175.448Z" transform="translate(-13.65 -10.916)"/><path class="cls-4" d="M43.165,36.208a1.294,1.294,0,0,0,.785-1.918,2.056,2.056,0,0,0-2.4-.736,1.294,1.294,0,0,0-.785,1.918A2.044,2.044,0,0,0,43.165,36.208Z" transform="translate(-13.65 -10.916)"/><path class="cls-4" d="M35.79,45.716c.984,0,1.711-.157,1.637-.355s-.942-.347-1.918-.347-1.711.157-1.637.355S34.807,45.716,35.79,45.716Z" transform="translate(-13.65 -10.916)"/><path class="cls-4" d="M22.992,70.443c-.389,1.24-1.174,1.695-1.753,1.017a4.112,4.112,0,0,1-.331-3.472c.389-1.24,1.174-1.695,1.753-1.017A4.167,4.167,0,0,1,22.992,70.443Z" transform="translate(-13.65 -10.916)"/></g><g id="OUTSIDE"><path class="cls-2" d="M110.643,12.671a.886.886,0,0,0-.876-.488,1.708,1.708,0,0,0-.554.1c-.628.231-1.009.777-.852,1.215s.8.612,1.43.389S110.8,13.109,110.643,12.671Z" transform="translate(-13.65 -10.916)"/><path class="cls-2" d="M178.684,69.385a.866.866,0,0,0,.215.7,1.244,1.244,0,0,0,1.488.339.706.706,0,0,0,.364-.48.866.866,0,0,0-.215-.7,1.244,1.244,0,0,0-1.488-.339A.685.685,0,0,0,178.684,69.385Z" transform="translate(-13.65 -10.916)"/><path class="cls-2" d="M161.637,35.282h0c-.05.05-.05.5.281,1.207s.686,1,.752.992c.05-.05.05-.5-.289-1.207C162.058,35.563,161.719,35.282,161.637,35.282Z" transform="translate(-13.65 -10.916)"/><path class="cls-2" d="M181.2,82.572a3.488,3.488,0,0,0-.719-.521,3.755,3.755,0,0,0-.992-.43,3.488,3.488,0,0,0,.719.521A4.162,4.162,0,0,0,181.2,82.572Z" transform="translate(-13.65 -10.916)"/><path class="cls-2" d="M139.067,23a1.481,1.481,0,0,0,.48.777h0a1.459,1.459,0,0,0,.827.38.741.741,0,0,0,.645-.215.733.733,0,0,0,.132-.67,1.481,1.481,0,0,0-.48-.777,1.459,1.459,0,0,0-.827-.38c-.033,0-.066-.008-.1-.008a.693.693,0,0,0-.546.223A.766.766,0,0,0,139.067,23Z" transform="translate(-13.65 -10.916)"/><path class="cls-2" d="M116.373,181.929a.706.706,0,0,0-.231-.033,1.02,1.02,0,0,0-.57.19,1.451,1.451,0,0,0-.57,1.637.764.764,0,0,0,.488.471.936.936,0,0,0,.8-.157,1.451,1.451,0,0,0,.57-1.637A.755.755,0,0,0,116.373,181.929Z" transform="translate(-13.65 -10.916)"/><path class="cls-2" d="M155.825,167.2c-.017-.033-.116-.066-.289-.066a3.393,3.393,0,0,0-1.083.215c-.835.289-1.207.645-1.191.736.033.083.554.132,1.372-.157C155.469,167.652,155.85,167.288,155.825,167.2Z" transform="translate(-13.65 -10.916)"/><path class="cls-2" d="M170.83,145.644a.734.734,0,0,0,.546.24,1.58,1.58,0,0,0,1.091-.446,1.255,1.255,0,0,0,.372-1.645.734.734,0,0,0-.546-.24h-.058a1.625,1.625,0,0,0-1.042.446h0A1.261,1.261,0,0,0,170.83,145.644Z" transform="translate(-13.65 -10.916)"/><path class="cls-2" d="M180.974,108.135a.5.5,0,0,0-.182.033A2.7,2.7,0,0,0,179.519,110a1.115,1.115,0,0,0,.124,1,.353.353,0,0,0,.389.033A2.7,2.7,0,0,0,181.3,109.2a1.115,1.115,0,0,0-.124-1A.376.376,0,0,0,180.974,108.135Z" transform="translate(-13.65 -10.916)"/><path class="cls-2" d="M47.977,162.724c-.025,0-.058-.008-.083-.008a.711.711,0,0,0-.488.2,1.247,1.247,0,0,0-.132,1.521.872.872,0,0,0,.6.422.688.688,0,0,0,.57-.2,1.247,1.247,0,0,0,.132-1.521A.885.885,0,0,0,47.977,162.724Z" transform="translate(-13.65 -10.916)"/><path class="cls-2" d="M20.777,136.021c-.017,0-.025,0-.033.008-.025.066.132.48.711,1.017s1,.678,1.067.637c.025-.066-.132-.48-.711-1.017A2.117,2.117,0,0,0,20.777,136.021Z" transform="translate(-13.65 -10.916)"/><path class="cls-2" d="M59.642,168.09a3.726,3.726,0,0,0-.273-.852,4.275,4.275,0,0,0,.107,1.091,3.726,3.726,0,0,0,.273.852A3.882,3.882,0,0,0,59.642,168.09Z" transform="translate(-13.65 -10.916)"/><path class="cls-2" d="M15.568,110.648a.665.665,0,0,0-.248.05,1.091,1.091,0,0,0-.3,1.455,1.441,1.441,0,0,0,.587.694.721.721,0,0,0,.678.074.751.751,0,0,0,.405-.546,1.475,1.475,0,0,0-.107-.909A1.239,1.239,0,0,0,15.568,110.648Z" transform="translate(-13.65 -10.916)"/><path class="cls-2" d="M59.716,20.558c.074.033.479-.132,1.025-.7s.686-.992.645-1.058h-.017a2.106,2.106,0,0,0-1,.711C59.824,20.07,59.683,20.492,59.716,20.558Z" transform="translate(-13.65 -10.916)"/><path class="cls-2" d="M86.759,13.555a.857.857,0,0,0-.827-.438,1.618,1.618,0,0,0-.628.132c-.62.265-.967.827-.785,1.257s.835.57,1.455.306S86.941,13.985,86.759,13.555Z" transform="translate(-13.65 -10.916)"/><path class="cls-2" d="M86.37,175.993c-.091-.008-.182-.017-.273-.017a2.626,2.626,0,0,0-1.86.661.364.364,0,0,0-.083.38c.091.215.438.38.909.422a2.693,2.693,0,0,0,2.133-.653.364.364,0,0,0,.083-.38A1.11,1.11,0,0,0,86.37,175.993Z" transform="translate(-13.65 -10.916)"/><path class="cls-2" d="M41.321,34.621a.7.7,0,0,0,.074.6,1.261,1.261,0,0,0,1.463.438.857.857,0,0,0,.537-.5.7.7,0,0,0-.074-.6,1.2,1.2,0,0,0-1.017-.521,1.33,1.33,0,0,0-.438.074A.891.891,0,0,0,41.321,34.621Z" transform="translate(-13.65 -10.916)"/><path class="cls-2" d="M34.658,45.352a4.033,4.033,0,0,0,1.075.116h.017a3.418,3.418,0,0,0,.893-.091,4.083,4.083,0,0,0-1.075-.116H35.56A3.443,3.443,0,0,0,34.658,45.352Z" transform="translate(-13.65 -10.916)"/><path class="cls-2" d="M21.364,68.426a2.719,2.719,0,0,0,.2,2.224.366.366,0,0,0,.355.157c.231-.05.463-.355.6-.8a2.719,2.719,0,0,0-.2-2.224.4.4,0,0,0-.3-.165.146.146,0,0,0-.058.008C21.744,67.666,21.513,67.98,21.364,68.426Z" transform="translate(-13.65 -10.916)"/></g></g></g><g id="NUCLEUS"><circle class="cls-5" cx="78.962" cy="65.298" r="14.294"/><path class="cls-2" d="M92.612,91.112a14.9,14.9,0,1,1,14.9-14.9A14.911,14.911,0,0,1,92.612,91.112Zm0-28.589a13.683,13.683,0,1,0,13.683,13.683A13.7,13.7,0,0,0,92.612,62.523Z" transform="translate(-13.65 -10.916)"/></g></svg>