<svg id="Layer_1" data-name="Layer 1" xmlns="http://www.w3.org/2000/svg" xmlns:xlink="http://www.w3.org/1999/xlink" viewBox="0 0 138.667 57.778"><defs><style>.cls-1{fill:url(#radial-gradient);}</style><radialGradient id="radial-gradient" cx="108.754" cy="122.695" r="149.051" gradientTransform="matrix(0.932, -0.363, 0.079, 0.203, -2.284, 137.307)" gradientUnits="userSpaceOnUse"><stop offset="0.822" stop-color="#060054"/><stop offset="1" stop-color="#c28be8"/></radialGradient></defs><title>R-ICO-013598</title><path id="R-ICO-013598" class="cls-1" d="M31.045,126.967a3.6,3.6,0,0,0,1.5-2.057c.344-.963.491-2.281.865-3.209a2.191,2.191,0,0,1,1.872-1.451,3.788,3.788,0,0,1,1.387.088,13.468,13.468,0,0,1,1.559.409,6.418,6.418,0,0,0,2.9.446,2.44,2.44,0,0,0,1.827-1.511,23.778,23.778,0,0,0,.938-3.206,3.505,3.505,0,0,1,1.456-2.267,3.317,3.317,0,0,1,2.6-.077,26.45,26.45,0,0,0,3.088.916,2.533,2.533,0,0,0,2.285-.636,6.4,6.4,0,0,0,1.3-2.617,6.3,6.3,0,0,1,1.323-2.615,2.525,2.525,0,0,1,2.305-.615,21.83,21.83,0,0,1,3.087,1.045,3.672,3.672,0,0,0,2.642.15,3.26,3.26,0,0,0,1.658-1.953,23.016,23.016,0,0,1,1.222-2.941,2.709,2.709,0,0,1,1.948-1.376,6.111,6.111,0,0,1,2.744.416,7.286,7.286,0,0,0,2.762.5,3.155,3.155,0,0,0,2.059-1.1,20.049,20.049,0,0,0,1.541-2.333,3.836,3.836,0,0,1,1.852-1.629,4.284,4.284,0,0,1,2.5-.062,22.748,22.748,0,0,0,2.765.613,3.4,3.4,0,0,0,2.286-.548,6.555,6.555,0,0,0,1.708-2.015,7.062,7.062,0,0,1,1.708-2.054A3.262,3.262,0,0,1,93,94.681a19.16,19.16,0,0,1,2.732.648,3.9,3.9,0,0,0,2.455-.065,4.04,4.04,0,0,0,1.838-1.707,18.35,18.35,0,0,1,1.576-2.415,3.107,3.107,0,0,1,2.076-1.09,6.442,6.442,0,0,1,2.666.507,7.324,7.324,0,0,0,2.683.569,3.25,3.25,0,0,0,2.119-.965,13.919,13.919,0,0,0,1.654-2.257,4.668,4.668,0,0,1,1.839-1.761,3.368,3.368,0,0,1,2.431-.113c.913.252,1.889.69,2.763.84a3.11,3.11,0,0,0,2.306-.443,6.7,6.7,0,0,0,1.781-1.952,7.334,7.334,0,0,1,1.774-1.993,3.46,3.46,0,0,1,2.264-.576,14.919,14.919,0,0,1,2.672.634,4.669,4.669,0,0,0,2.487.107,3.861,3.861,0,0,0,1.993-1.37,23.991,23.991,0,0,1,1.751-2.124A3.531,3.531,0,0,1,139,78.18a6.836,6.836,0,0,1,2.572.392,7.575,7.575,0,0,0,2.58.444,3.658,3.658,0,0,0,2.16-.878,17.769,17.769,0,0,0,1.818-2,4.365,4.365,0,0,1,2.013-1.388,4.51,4.51,0,0,1,2.448.043,23.922,23.922,0,0,0,2.629.678,3.732,3.732,0,0,0,2.312-.374,6.647,6.647,0,0,0,1.907-1.777,6.7,6.7,0,0,1,1.92-1.771,4.39,4.39,0,0,1,2.3-.435,12.181,12.181,0,0,1,2.594.647,21.343,21.343,0,0,0,2.584.651.626.626,0,0,1,.294,1.078l0,0a20.645,20.645,0,0,0-1.891,1.872,12.2,12.2,0,0,1-1.88,1.867,4.312,4.312,0,0,1-2.163.824,6.691,6.691,0,0,1-2.544-.512,6.462,6.462,0,0,0-2.546-.483,3.7,3.7,0,0,0-2.141.922A22.222,22.222,0,0,0,154.143,80a4.431,4.431,0,0,1-1.995,1.375,4.338,4.338,0,0,1-2.421-.026,17.266,17.266,0,0,0-2.615-.629,3.586,3.586,0,0,0-2.264.516,7.436,7.436,0,0,0-1.842,1.842,6.949,6.949,0,0,1-1.842,1.816,3.469,3.469,0,0,1-2.279.453,26.147,26.147,0,0,1-2.653-.672,3.835,3.835,0,0,0-2.41.087,4.564,4.564,0,0,0-1.909,1.587,15.03,15.03,0,0,1-1.722,2.118,3.452,3.452,0,0,1-2.122.929,7.333,7.333,0,0,1-2.611-.483c-1.856-.649-3.511-.691-4.669.667-.586.659-1.063,1.623-1.607,2.391a3.326,3.326,0,0,1-1.938,1.443,4.7,4.7,0,0,1-2.524-.189,13.7,13.7,0,0,0-2.708-.681,3.2,3.2,0,0,0-2.238.625,7.244,7.244,0,0,0-1.672,2.164,6.538,6.538,0,0,1-1.684,2.115,3.073,3.073,0,0,1-2.272.522,19.4,19.4,0,0,1-2.769-.791,4.026,4.026,0,0,0-2.5-.079,3.881,3.881,0,0,0-1.889,1.56,19.423,19.423,0,0,1-1.612,2.273A3.287,3.287,0,0,1,93.316,102a7.051,7.051,0,0,1-2.618-.382,6.1,6.1,0,0,0-2.6-.31,3.354,3.354,0,0,0-2.022,1.171,18.822,18.822,0,0,0-1.529,2.365,4.185,4.185,0,0,1-1.786,1.7,3.872,3.872,0,0,1-2.423.169,18.986,18.986,0,0,0-2.728-.522,3.016,3.016,0,0,0-2.2.742,7.069,7.069,0,0,0-1.488,2.352,6.349,6.349,0,0,1-1.491,2.305,2.62,2.62,0,0,1-2.282.525,27.425,27.425,0,0,1-2.993-1.006A3.229,3.229,0,0,0,64.6,111.1a3.544,3.544,0,0,0-1.552,2.13,23.188,23.188,0,0,1-1.1,3.036,2.487,2.487,0,0,1-1.867,1.41,6.328,6.328,0,0,1-2.844-.579,6.043,6.043,0,0,0-2.849-.546A2.5,2.5,0,0,0,52.528,118a22.616,22.616,0,0,0-1.039,3.032,3.223,3.223,0,0,1-1.524,2.048,3.474,3.474,0,0,1-2.647-.106,22.055,22.055,0,0,0-3.162-1.038,2.388,2.388,0,0,0-2.253.7,6.232,6.232,0,0,0-1.181,2.658,7.8,7.8,0,0,1-1.109,2.748,2.118,2.118,0,0,1-2.18.8c-.972-.166-2.165-.715-3.164-.913a3.571,3.571,0,0,0-2.527.242l-.006,0A.7.7,0,1,1,30.991,127C31.008,126.987,31.027,126.976,31.045,126.967Z" transform="translate(-30.666 -71.111)"/></svg>