<svg id="Layer_1" data-name="Layer 1" xmlns="http://www.w3.org/2000/svg" xmlns:xlink="http://www.w3.org/1999/xlink" viewBox="0 0 71.092 100.048"><defs><style>.cls-1{fill:url(#radial-gradient);}.cls-2{fill:#276fe2;}.cls-3{isolation:isolate;}.cls-4{fill:url(#radial-gradient-2);}.cls-5{fill:#5656a5;}.cls-6{fill:url(#radial-gradient-3);}.cls-7{fill:#4b4b96;}.cls-8{fill:url(#radial-gradient-4);}.cls-9{fill:url(#radial-gradient-5);}.cls-10{fill:url(#linear-gradient);}</style><radialGradient id="radial-gradient" cx="100" cy="108.085" r="32.685" gradientTransform="translate(0 -44.557) scale(1 1.412)" gradientUnits="userSpaceOnUse"><stop offset="0" stop-color="#a0c2f2"/><stop offset="1" stop-color="#21549b"/></radialGradient><radialGradient id="radial-gradient-2" cx="107.498" cy="862.008" r="12.687" gradientTransform="translate(-64.454 -787.842)" gradientUnits="userSpaceOnUse"><stop offset="0" stop-color="#afbaf7"/><stop offset="0.311" stop-color="#6d96ce"/><stop offset="0.803" stop-color="#285fcc"/></radialGradient><radialGradient id="radial-gradient-3" cx="105.103" cy="865.981" r="2.449" gradientTransform="translate(-64.454 -787.842)" gradientUnits="userSpaceOnUse"><stop offset="0" stop-color="#afbaf7"/><stop offset="0.312" stop-color="#b898ce"/><stop offset="0.803" stop-color="#515181"/></radialGradient><radialGradient id="radial-gradient-4" cx="100" cy="99.169" r="6.169" gradientTransform="translate(-64.454 -5.726) scale(1 0.554)" gradientUnits="userSpaceOnUse"><stop offset="0" stop-color="#3874ff"/><stop offset="1" stop-color="#002884"/></radialGradient><radialGradient id="radial-gradient-5" cx="35.546" cy="31.504" r="7.52" gradientUnits="userSpaceOnUse"><stop offset="0" stop-color="#ff389f"/><stop offset="1" stop-color="#840044"/></radialGradient><linearGradient id="linear-gradient" x1="105.125" y1="92.908" x2="105.125" y2="47.337" gradientUnits="userSpaceOnUse"><stop offset="0.001" stop-color="#03103d"/><stop offset="1" stop-color="#082799"/></linearGradient></defs><title>R-ICO-013950</title><g id="R-ICO-013950"><g id="CYTOPLASM"><path class="cls-1" d="M135.546,114.454a35.546,35.546,0,1,1-71.092,0c0-19.632,15.914-48.283,35.546-48.283S135.546,94.822,135.546,114.454Z" transform="translate(-64.454 -49.952)"/></g><g id="MEMBRANE"><path class="cls-2" d="M100,67.171c5,0,14.8,2.122,24.3,16.335,6.317,9.446,10.242,21.3,10.242,30.948a34.546,34.546,0,1,1-69.092,0c0-9.644,3.925-21.5,10.242-30.948C85.2,69.293,95,67.171,100,67.171m0-1c-19.632,0-35.546,28.651-35.546,48.283a35.546,35.546,0,1,0,71.092,0c0-19.632-15.914-48.283-35.546-48.283Z" transform="translate(-64.454 -49.952)"/></g><g id="Nucleus"><g id="NUCLEUS-2" data-name="NUCLEUS" class="cls-3"><circle class="cls-4" cx="45.554" cy="78.186" r="9.653"/><path class="cls-5" d="M110.008,138.146a10.008,10.008,0,1,1,10.008-10.008A10.019,10.019,0,0,1,110.008,138.146Zm0-19.306a9.3,9.3,0,1,0,9.3,9.3A9.307,9.307,0,0,0,110.008,118.84Z" transform="translate(-64.454 -49.952)"/></g><g id="NUCLEOLUS"><circle class="cls-6" cx="40.656" cy="78.133" r="1.97"/><path class="cls-7" d="M105.11,130.161a2.068,2.068,0,1,1,2.059-2.076A2.06,2.06,0,0,1,105.11,130.161Zm0-3.957a1.881,1.881,0,1,0,1.881,1.881A1.881,1.881,0,0,0,105.11,126.2Z" transform="translate(-64.454 -49.952)"/></g></g><g id="KINETOPLAST"><ellipse class="cls-8" cx="35.546" cy="49.218" rx="6.163" ry="3.409"/></g><g id="Flagellar_pocket"><ellipse class="cls-9" cx="35.546" cy="31.504" rx="6.514" ry="8.406"/></g><g id="FLAGELLUM"><path class="cls-10" d="M111.842,50.044a38.956,38.956,0,0,0-4.586,3.244,16.974,16.974,0,0,0-3.6,4.11c-1.936,3.061-2.454,6.765-2.549,10.448-.047,3.707.174,7.466.364,11.242.12,1.908.143,3.763.3,5.538a11.271,11.271,0,0,0,.529,2.555,3.73,3.73,0,0,0,1.46,2,3.131,3.131,0,1,1-4.888,2.592l0-.468c.008-1.2-.137-2.339-.227-3.385s-.154-2.06-.2-3.05a50.618,50.618,0,0,1,.065-5.77c.174-3.763.218-7.552.592-11.378a35.4,35.4,0,0,1,.961-5.735,16.29,16.29,0,0,1,2.486-5.339,17.063,17.063,0,0,1,4.232-3.982,28.246,28.246,0,0,1,5.014-2.712.05.05,0,0,1,.066.026A.049.049,0,0,1,111.842,50.044Z" transform="translate(-64.454 -49.952)"/></g></g></svg>