<svg id="Layer_1" data-name="Layer 1" xmlns="http://www.w3.org/2000/svg" xmlns:xlink="http://www.w3.org/1999/xlink" viewBox="0 0 36.771 104.84"><defs><style>.cls-1{fill:url(#linear-gradient);}.cls-2{fill:url(#linear-gradient-2);}.cls-3{fill:url(#linear-gradient-3);}.cls-4{fill:url(#linear-gradient-4);}.cls-5{fill:url(#radial-gradient);}.cls-6{fill:url(#radial-gradient-2);}</style><linearGradient id="linear-gradient" x1="44.367" y1="121.867" x2="54.367" y2="121.867" gradientTransform="translate(38.402)" gradientUnits="userSpaceOnUse"><stop offset="0" stop-color="#226645"/><stop offset="0.035" stop-color="#327e59"/><stop offset="0.084" stop-color="#459b71"/><stop offset="0.134" stop-color="#53af82"/><stop offset="0.183" stop-color="#5bbb8d"/><stop offset="0.232" stop-color="#5ebf90"/><stop offset="1" stop-color="#226645"/></linearGradient><linearGradient id="linear-gradient-2" x1="64.368" y1="121.867" x2="74.368" y2="121.867" xlink:href="#linear-gradient"/><linearGradient id="linear-gradient-3" x1="41.867" y1="80.5" x2="56.867" y2="80.5" xlink:href="#linear-gradient"/><linearGradient id="linear-gradient-4" x1="61.868" y1="80.5" x2="76.868" y2="80.5" xlink:href="#linear-gradient"/><radialGradient id="radial-gradient" cx="47.367" cy="139.557" r="8.385" gradientTransform="translate(-40.982 -46.102)" gradientUnits="userSpaceOnUse"><stop offset="0" stop-color="#5ebf90"/><stop offset="1" stop-color="#226645"/></radialGradient><radialGradient id="radial-gradient-2" cx="66.702" cy="139.224" r="8.385" xlink:href="#radial-gradient"/></defs><title>cadherins</title><g id="CADHERINS"><path class="cls-1" d="M87.769,142.557a5,5,0,0,1-5-5V106.176a5,5,0,0,1,10,0v31.381A5,5,0,0,1,87.769,142.557Z" transform="translate(-79.384 -46.102)"/><path class="cls-2" d="M107.77,142.557a5,5,0,0,1-5-5V106.176a5,5,0,0,1,10,0v31.381A5,5,0,0,1,107.77,142.557Z" transform="translate(-79.384 -46.102)"/><path class="cls-3" d="M87.769,114.9a7.5,7.5,0,0,1-7.5-7.5V53.6a7.5,7.5,0,0,1,15,0v53.8A7.5,7.5,0,0,1,87.769,114.9Z" transform="translate(-79.384 -46.102)"/><path class="cls-4" d="M107.77,114.9a7.5,7.5,0,0,1-7.5-7.5V53.6a7.5,7.5,0,0,1,15,0v53.8A7.5,7.5,0,0,1,107.77,114.9Z" transform="translate(-79.384 -46.102)"/><circle class="cls-5" cx="8.385" cy="96.455" r="8.385"/><circle class="cls-6" cx="28.386" cy="96.455" r="8.385"/></g></svg>