<svg id="Layer_1" data-name="Layer 1" xmlns="http://www.w3.org/2000/svg" xmlns:xlink="http://www.w3.org/1999/xlink" viewBox="0 0 71.476 71.476"><defs><style>.cls-1{fill:url(#radial-gradient);}.cls-2{fill:url(#radial-gradient-2);}.cls-3{fill:url(#radial-gradient-3);}.cls-4{fill:url(#radial-gradient-4);}</style><radialGradient id="radial-gradient" cx="16.563" cy="17.599" r="20.15" gradientUnits="userSpaceOnUse"><stop offset="0.058" stop-color="#cf0031"/><stop offset="1" stop-color="#2f030d"/></radialGradient><radialGradient id="radial-gradient-2" cx="52.301" cy="17.599" r="20.15" xlink:href="#radial-gradient"/><radialGradient id="radial-gradient-3" cx="16.563" cy="53.337" r="20.15" xlink:href="#radial-gradient"/><radialGradient id="radial-gradient-4" cx="52.301" cy="53.337" r="20.15" xlink:href="#radial-gradient"/></defs><title>hemoglobin</title><g id="hemoglobin"><path class="cls-1" d="M15,0H27.738a8,8,0,0,1,8,8V35.738a0,0,0,0,1,0,0H8a8,8,0,0,1-8-8V15A15,15,0,0,1,15,0Z"/><path class="cls-2" d="M43.738,0H56.476a15,15,0,0,1,15,15V27.738a8,8,0,0,1-8,8H35.738a0,0,0,0,1,0,0V8A8,8,0,0,1,43.738,0Z"/><path class="cls-3" d="M8,35.738H35.738a0,0,0,0,1,0,0V63.476a8,8,0,0,1-8,8H15a15,15,0,0,1-15-15V43.738A8,8,0,0,1,8,35.738Z"/><path class="cls-4" d="M35.738,35.738H63.476a8,8,0,0,1,8,8V56.476a15,15,0,0,1-15,15H43.738a8,8,0,0,1-8-8V35.738a0,0,0,0,1,0,0Z"/></g></svg>