<svg id="Layer_1" data-name="Layer 1" xmlns="http://www.w3.org/2000/svg" xmlns:xlink="http://www.w3.org/1999/xlink" viewBox="0 0 58.288 22.928"><defs><style>.cls-1{fill:url(#linear-gradient);}.cls-2{fill:#00aa86;}.cls-3{font-size:12px;fill:#fff;font-family:Arial-BoldMT, Arial;font-weight:700;}</style><linearGradient id="linear-gradient" x1="1.395" y1="11.32" x2="57.395" y2="11.32" gradientUnits="userSpaceOnUse"><stop offset="0" stop-color="#00aa86"/><stop offset="1" stop-color="#0053cc"/></linearGradient></defs><title>MAP3K7</title><g id="MAP3K7"><rect class="cls-1" x="1.395" y="1.32" width="56" height="20" rx="9.742" ry="9.742"/><path class="cls-2" d="M118.258,110.15c-5.634-.009-11.268.43-16.9.837-5.634.458-11.268.546-16.9.613-.7.016-1.409,0-2.113,0-.343,0-.7,0-1.131-.027a7.68,7.68,0,0,1-1.223-.126,10.945,10.945,0,0,1-4.53-1.8,11.285,11.285,0,0,1-4.8-8.134c-.038-.4-.036-.806-.052-1.208l.008-.534.038-.6a7.7,7.7,0,0,1,.147-1.195,8.227,8.227,0,0,1,.281-1.169A10.527,10.527,0,0,1,73.4,92.679a10.709,10.709,0,0,1,8.341-3.5c5.634.282,11.268.437,16.9.335,5.634-.084,11.268-.574,16.9-.762l2.113-.058a11.143,11.143,0,0,1,1.118,0,7.441,7.441,0,0,1,1.195.115,10.4,10.4,0,0,1,8.91,9.73c.023.386,0,.775,0,1.158-.016.351-.05.709-.1,1.1a7.169,7.169,0,0,1-.195,1.125,7.958,7.958,0,0,1-.313,1.089,10.527,10.527,0,0,1-2.3,3.778A10.742,10.742,0,0,1,118.258,110.15Zm0-.3a8.985,8.985,0,0,0,7.13-3.557,8.626,8.626,0,0,0,1.62-3.63,6.522,6.522,0,0,0,.135-.973,5.8,5.8,0,0,0,.027-.974c0-.311-.019-.658-.054-1.011-.047-.319-.076-.637-.131-.95a9.255,9.255,0,0,0-4.057-6,9.068,9.068,0,0,0-3.369-1.308c-1.119-.172-2.613-.147-4.011-.2-5.634-.188-11.268-.678-16.9-.762-5.634-.1-11.268.053-16.9.335a8.925,8.925,0,0,0-6.505,3.416,8.63,8.63,0,0,0-1.6,3.28,6.243,6.243,0,0,0-.167.893,5.276,5.276,0,0,0-.074.9l-.013.457.013.522c.029.3.036.6.076.9a8.444,8.444,0,0,0,3.73,5.852,8.663,8.663,0,0,0,3.278,1.245,35.368,35.368,0,0,0,3.97.11c5.634.066,11.268.155,16.9.613C106.989,109.42,112.623,109.859,118.258,109.85Z" transform="translate(-70.605 -88.68)"/><text class="cls-3" transform="translate(4.694 14.206)">MAP3K7</text></g></svg>