<svg id="Layer_1" data-name="Layer 1" xmlns="http://www.w3.org/2000/svg" xmlns:xlink="http://www.w3.org/1999/xlink" viewBox="0 0 45.799 22.701"><defs><style>.cls-1{fill:url(#linear-gradient);}.cls-2{fill:#c49f12;}.cls-3{font-size:12px;fill:#f1f1f2;font-family:Arial-BoldMT, Arial;font-weight:700;}</style><linearGradient id="linear-gradient" x1="98.856" y1="110" x2="98.856" y2="90" gradientTransform="matrix(-1, 0, 0, 1, 198.856, 0)" gradientUnits="userSpaceOnUse"><stop offset="0" stop-color="#008cff"/><stop offset="0.018" stop-color="#0532fa"/><stop offset="1" stop-color="#ffc900"/></linearGradient></defs><title>GLI3</title><g id="GLI3"><path class="cls-1" d="M88.5,110h33V90h-33a10.029,10.029,0,0,0-10,10h0A10.029,10.029,0,0,0,88.5,110Z" transform="translate(-77.307 -88.877)"/><path class="cls-2" d="M88.5,109.85c2.75,0,5.5-.094,8.25-.216s5.5-.335,8.25-.516,5.5-.37,8.25-.488l4.125-.128,4.125-.058L119.944,110c-.055-1.667-.055-3.333-.041-5-.009-1.667.068-3.333.1-5,.112-3.333.167-6.667.42-10l1.08,1.08c-5.366-.231-10.731-.522-16.1-.6s-10.731.014-16.1.31a9.828,9.828,0,0,0-9.575,8.855,9.546,9.546,0,0,0,1.95,6.9A8.7,8.7,0,0,0,88.5,109.85Zm0,.3a11.456,11.456,0,0,1-7.577-2.873,10.4,10.4,0,0,1-3.613-7.729,10.235,10.235,0,0,1,3.721-7.98A10.381,10.381,0,0,1,85,89.506a11.2,11.2,0,0,1,2.189-.343c.739-.031,1.472.012,2.12.046q8.049.445,16.1.31c5.366-.077,10.731-.368,16.1-.6l1-.043L122.581,90c.253,3.333.307,6.667.42,10,.03,1.667.107,3.333.1,5,.013,1.667.014,3.333-.041,5L123,111.578l-1.5-.021-4.125-.058-4.125-.128c-2.75-.118-5.5-.3-8.25-.488s-5.5-.38-8.25-.516S91.25,110.146,88.5,110.15Z" transform="translate(-77.307 -88.877)"/><text class="cls-3" transform="translate(9.358 14.436)">GLI3</text></g></svg>