<svg id="Layer_1" data-name="Layer 1" xmlns="http://www.w3.org/2000/svg" xmlns:xlink="http://www.w3.org/1999/xlink" viewBox="0 0 140.327 119.667"><defs><style>.cls-1{fill:url(#radial-gradient);}.cls-2{fill:url(#linear-gradient);}.cls-3{fill:url(#linear-gradient-2);}.cls-4{fill:url(#linear-gradient-3);}.cls-5{fill:url(#radial-gradient-2);}.cls-6{fill:url(#linear-gradient-4);}.cls-7{fill:url(#linear-gradient-5);}.cls-8{fill:url(#linear-gradient-6);}.cls-9{fill:url(#radial-gradient-3);}.cls-10{fill:url(#linear-gradient-7);}.cls-11{fill:url(#linear-gradient-8);}.cls-12{fill:url(#linear-gradient-9);}.cls-13{fill:url(#radial-gradient-4);}.cls-14{fill:url(#linear-gradient-10);}.cls-15{fill:url(#linear-gradient-11);}.cls-16{fill:url(#linear-gradient-12);}.cls-17{fill:url(#radial-gradient-5);}.cls-18{fill:url(#linear-gradient-13);}.cls-19{fill:url(#linear-gradient-14);}.cls-20{fill:url(#linear-gradient-15);}.cls-21{fill:url(#radial-gradient-6);}.cls-22{fill:url(#linear-gradient-16);}.cls-23{fill:url(#linear-gradient-17);}.cls-24{fill:url(#linear-gradient-18);}.cls-25{fill:url(#radial-gradient-7);}.cls-26{fill:url(#linear-gradient-19);}.cls-27{fill:url(#linear-gradient-20);}.cls-28{fill:url(#linear-gradient-21);}.cls-29{fill:url(#radial-gradient-8);}.cls-30{fill:url(#linear-gradient-22);}.cls-31{fill:url(#linear-gradient-23);}.cls-32{fill:url(#linear-gradient-24);}.cls-33{fill:url(#radial-gradient-9);}.cls-34{fill:url(#linear-gradient-25);}.cls-35{fill:url(#linear-gradient-26);}.cls-36{fill:url(#linear-gradient-27);}.cls-37{fill:url(#radial-gradient-10);}.cls-38{fill:url(#linear-gradient-28);}.cls-39{fill:url(#linear-gradient-29);}.cls-40{fill:url(#linear-gradient-30);}.cls-41{fill:url(#radial-gradient-11);}.cls-42{fill:url(#linear-gradient-31);}.cls-43{fill:url(#linear-gradient-32);}.cls-44{fill:url(#linear-gradient-33);}.cls-45{fill:url(#radial-gradient-12);}.cls-46{fill:url(#linear-gradient-34);}.cls-47{fill:url(#linear-gradient-35);}.cls-48{fill:url(#linear-gradient-36);}.cls-49{fill:url(#radial-gradient-13);}.cls-50{fill:url(#linear-gradient-37);}.cls-51{fill:url(#linear-gradient-38);}.cls-52{fill:url(#linear-gradient-39);}.cls-53{fill:url(#radial-gradient-14);}.cls-54{fill:url(#linear-gradient-40);}.cls-55{fill:url(#linear-gradient-41);}.cls-56{fill:url(#linear-gradient-42);}</style><radialGradient id="radial-gradient" cx="350.178" cy="-186.446" r="19.831" gradientTransform="translate(-281.245 233.664)" gradientUnits="userSpaceOnUse"><stop offset="0.164" stop-color="#e3c523"/><stop offset="1" stop-color="#03363b"/></radialGradient><linearGradient id="linear-gradient" x1="336.245" y1="-189.719" x2="360.002" y2="-182.802" gradientTransform="translate(-311.081 193.497)" gradientUnits="userSpaceOnUse"><stop offset="0" stop-color="#03363b"/><stop offset="1" stop-color="#e3c523"/></linearGradient><linearGradient id="linear-gradient-2" x1="335.396" y1="-183.897" x2="359.819" y2="-176.786" gradientTransform="translate(-281.245 233.664)" gradientUnits="userSpaceOnUse"><stop offset="0" stop-color="#9d12b1"/><stop offset="0.999" stop-color="#29032f"/></linearGradient><linearGradient id="linear-gradient-3" x1="335.396" y1="-179.082" x2="359.819" y2="-171.971" xlink:href="#linear-gradient-2"/><radialGradient id="radial-gradient-2" cx="325.566" cy="-184.663" r="19.831" xlink:href="#radial-gradient"/><linearGradient id="linear-gradient-4" x1="311.633" y1="-187.935" x2="335.391" y2="-181.019" xlink:href="#linear-gradient"/><linearGradient id="linear-gradient-5" x1="310.785" y1="-182.113" x2="335.208" y2="-175.003" xlink:href="#linear-gradient-2"/><linearGradient id="linear-gradient-6" x1="310.785" y1="-177.298" x2="335.208" y2="-170.188" xlink:href="#linear-gradient-2"/><radialGradient id="radial-gradient-3" cx="365.337" cy="-171.287" r="19.831" xlink:href="#radial-gradient"/><linearGradient id="linear-gradient-7" x1="351.404" y1="-174.559" x2="375.162" y2="-167.643" xlink:href="#linear-gradient"/><linearGradient id="linear-gradient-8" x1="350.556" y1="-168.738" x2="374.979" y2="-161.627" xlink:href="#linear-gradient-2"/><linearGradient id="linear-gradient-9" x1="350.556" y1="-163.922" x2="374.979" y2="-156.812" xlink:href="#linear-gradient-2"/><radialGradient id="radial-gradient-4" cx="340.726" cy="-169.504" r="19.831" xlink:href="#radial-gradient"/><linearGradient id="linear-gradient-10" x1="326.793" y1="-172.776" x2="350.55" y2="-165.859" xlink:href="#linear-gradient"/><linearGradient id="linear-gradient-11" x1="325.944" y1="-166.954" x2="350.367" y2="-159.844" xlink:href="#linear-gradient-2"/><linearGradient id="linear-gradient-12" x1="325.944" y1="-162.139" x2="350.367" y2="-155.028" xlink:href="#linear-gradient-2"/><radialGradient id="radial-gradient-5" cx="380.496" cy="-156.128" r="19.831" xlink:href="#radial-gradient"/><linearGradient id="linear-gradient-13" x1="366.563" y1="-159.4" x2="390.321" y2="-152.483" xlink:href="#linear-gradient"/><linearGradient id="linear-gradient-14" x1="365.715" y1="-153.578" x2="390.138" y2="-146.468" xlink:href="#linear-gradient-2"/><linearGradient id="linear-gradient-15" x1="365.715" y1="-148.763" x2="390.138" y2="-141.653" xlink:href="#linear-gradient-2"/><radialGradient id="radial-gradient-6" cx="355.885" cy="-154.345" r="19.831" xlink:href="#radial-gradient"/><linearGradient id="linear-gradient-16" x1="341.952" y1="-157.617" x2="365.709" y2="-150.7" xlink:href="#linear-gradient"/><linearGradient id="linear-gradient-17" x1="341.103" y1="-151.795" x2="365.526" y2="-144.684" xlink:href="#linear-gradient-2"/><linearGradient id="linear-gradient-18" x1="341.103" y1="-146.98" x2="365.526" y2="-139.869" xlink:href="#linear-gradient-2"/><radialGradient id="radial-gradient-7" cx="395.656" cy="-140.969" r="19.831" xlink:href="#radial-gradient"/><linearGradient id="linear-gradient-19" x1="381.723" y1="-144.241" x2="405.48" y2="-137.324" xlink:href="#linear-gradient"/><linearGradient id="linear-gradient-20" x1="380.874" y1="-138.419" x2="405.297" y2="-131.309" xlink:href="#linear-gradient-2"/><linearGradient id="linear-gradient-21" x1="380.874" y1="-133.604" x2="405.297" y2="-126.493" xlink:href="#linear-gradient-2"/><radialGradient id="radial-gradient-8" cx="371.044" cy="-139.185" r="19.831" xlink:href="#radial-gradient"/><linearGradient id="linear-gradient-22" x1="357.111" y1="-142.458" x2="380.869" y2="-135.541" xlink:href="#linear-gradient"/><linearGradient id="linear-gradient-23" x1="356.263" y1="-136.636" x2="380.686" y2="-129.525" xlink:href="#linear-gradient-2"/><linearGradient id="linear-gradient-24" x1="356.263" y1="-131.82" x2="380.686" y2="-124.71" xlink:href="#linear-gradient-2"/><radialGradient id="radial-gradient-9" cx="410.815" cy="-125.809" r="19.831" xlink:href="#radial-gradient"/><linearGradient id="linear-gradient-25" x1="396.882" y1="-129.082" x2="420.639" y2="-122.165" xlink:href="#linear-gradient"/><linearGradient id="linear-gradient-26" x1="396.034" y1="-123.26" x2="420.456" y2="-116.149" xlink:href="#linear-gradient-2"/><linearGradient id="linear-gradient-27" x1="396.034" y1="-118.445" x2="420.456" y2="-111.334" xlink:href="#linear-gradient-2"/><radialGradient id="radial-gradient-10" cx="386.203" cy="-124.026" r="19.831" xlink:href="#radial-gradient"/><linearGradient id="linear-gradient-28" x1="372.27" y1="-127.298" x2="396.028" y2="-120.381" xlink:href="#linear-gradient"/><linearGradient id="linear-gradient-29" x1="371.422" y1="-121.476" x2="395.845" y2="-114.366" xlink:href="#linear-gradient-2"/><linearGradient id="linear-gradient-30" x1="371.422" y1="-116.661" x2="395.845" y2="-109.551" xlink:href="#linear-gradient-2"/><radialGradient id="radial-gradient-11" cx="425.974" cy="-110.65" r="19.831" xlink:href="#radial-gradient"/><linearGradient id="linear-gradient-31" x1="412.041" y1="-113.922" x2="435.799" y2="-107.006" xlink:href="#linear-gradient"/><linearGradient id="linear-gradient-32" x1="411.193" y1="-108.101" x2="435.616" y2="-100.99" xlink:href="#linear-gradient-2"/><linearGradient id="linear-gradient-33" x1="411.193" y1="-103.285" x2="435.616" y2="-96.175" xlink:href="#linear-gradient-2"/><radialGradient id="radial-gradient-12" cx="401.363" cy="-108.867" r="19.831" xlink:href="#radial-gradient"/><linearGradient id="linear-gradient-34" x1="387.43" y1="-112.139" x2="411.187" y2="-105.222" xlink:href="#linear-gradient"/><linearGradient id="linear-gradient-35" x1="386.581" y1="-106.317" x2="411.004" y2="-99.207" xlink:href="#linear-gradient-2"/><linearGradient id="linear-gradient-36" x1="386.581" y1="-101.502" x2="411.004" y2="-94.391" xlink:href="#linear-gradient-2"/><radialGradient id="radial-gradient-13" cx="441.133" cy="-95.491" r="19.831" xlink:href="#radial-gradient"/><linearGradient id="linear-gradient-37" x1="427.2" y1="-98.763" x2="450.958" y2="-91.846" xlink:href="#linear-gradient"/><linearGradient id="linear-gradient-38" x1="426.352" y1="-92.941" x2="450.775" y2="-85.831" xlink:href="#linear-gradient-2"/><linearGradient id="linear-gradient-39" x1="426.352" y1="-88.126" x2="450.775" y2="-81.016" xlink:href="#linear-gradient-2"/><radialGradient id="radial-gradient-14" cx="416.522" cy="-93.707" r="19.831" xlink:href="#radial-gradient"/><linearGradient id="linear-gradient-40" x1="402.589" y1="-96.98" x2="426.346" y2="-90.063" xlink:href="#linear-gradient"/><linearGradient id="linear-gradient-41" x1="401.741" y1="-91.158" x2="426.164" y2="-84.047" xlink:href="#linear-gradient-2"/><linearGradient id="linear-gradient-42" x1="401.741" y1="-86.343" x2="426.164" y2="-79.232" xlink:href="#linear-gradient-2"/></defs><title>R-ICO-013595</title><g id="Heterochromatin"><path class="cls-1" d="M79.208,59.873c0,3.989-5.543,7.222-12.38,7.222s-12.38-3.233-12.38-7.222V47.388h24.76Z" transform="translate(-29.836 -40.166)"/><ellipse class="cls-2" cx="36.992" cy="7.222" rx="12.38" ry="7.222"/><path class="cls-3" d="M79.208,49.707c0,3.989-5.543,7.222-12.38,7.222s-12.38-3.233-12.38-7.222v3.032c0,3.989,5.543,7.222,12.38,7.222s12.38-3.233,12.38-7.222Z" transform="translate(-29.836 -40.166)"/><path class="cls-4" d="M79.208,54.522c0,3.989-5.543,7.222-12.38,7.222s-12.38-3.233-12.38-7.222v3.032c0,3.989,5.543,7.222,12.38,7.222s12.38-3.233,12.38-7.222Z" transform="translate(-29.836 -40.166)"/><path class="cls-5" d="M54.6,61.656c0,3.989-5.543,7.222-12.38,7.222s-12.38-3.233-12.38-7.222V49.172H54.6Z" transform="translate(-29.836 -40.166)"/><ellipse class="cls-6" cx="12.38" cy="9.005" rx="12.38" ry="7.222"/><path class="cls-7" d="M54.6,51.49c0,3.989-5.543,7.222-12.38,7.222s-12.38-3.233-12.38-7.222v3.032c0,3.989,5.543,7.222,12.38,7.222S54.6,58.511,54.6,54.522Z" transform="translate(-29.836 -40.166)"/><path class="cls-8" d="M54.6,56.306c0,3.989-5.543,7.222-12.38,7.222s-12.38-3.233-12.38-7.222v3.032c0,3.989,5.543,7.222,12.38,7.222S54.6,63.326,54.6,59.338Z" transform="translate(-29.836 -40.166)"/><path class="cls-9" d="M94.367,75.032c0,3.989-5.543,7.222-12.38,7.222s-12.38-3.233-12.38-7.222V62.548h24.76Z" transform="translate(-29.836 -40.166)"/><ellipse class="cls-10" cx="52.151" cy="22.381" rx="12.38" ry="7.222"/><path class="cls-11" d="M94.367,64.866c0,3.989-5.543,7.222-12.38,7.222s-12.38-3.233-12.38-7.222V67.9c0,3.989,5.543,7.222,12.38,7.222s12.38-3.233,12.38-7.222Z" transform="translate(-29.836 -40.166)"/><path class="cls-12" d="M94.367,69.681c0,3.989-5.543,7.222-12.38,7.222s-12.38-3.233-12.38-7.222v3.032c0,3.989,5.543,7.222,12.38,7.222s12.38-3.233,12.38-7.222Z" transform="translate(-29.836 -40.166)"/><path class="cls-13" d="M69.756,76.815c0,3.989-5.543,7.222-12.38,7.222S45,80.8,45,76.815V64.331h24.76Z" transform="translate(-29.836 -40.166)"/><ellipse class="cls-14" cx="27.539" cy="24.165" rx="12.38" ry="7.222"/><path class="cls-15" d="M69.756,66.65c0,3.989-5.543,7.222-12.38,7.222S45,70.638,45,66.65v3.032c0,3.989,5.543,7.222,12.38,7.222s12.38-3.233,12.38-7.222Z" transform="translate(-29.836 -40.166)"/><path class="cls-16" d="M69.756,71.465c0,3.989-5.543,7.222-12.38,7.222S45,75.454,45,71.465V74.5c0,3.989,5.543,7.222,12.38,7.222s12.38-3.233,12.38-7.222Z" transform="translate(-29.836 -40.166)"/><path class="cls-17" d="M109.527,90.191c0,3.989-5.543,7.222-12.38,7.222s-12.38-3.233-12.38-7.222V77.707h24.76Z" transform="translate(-29.836 -40.166)"/><ellipse class="cls-18" cx="67.31" cy="37.54" rx="12.38" ry="7.222"/><path class="cls-19" d="M109.527,80.025c0,3.989-5.543,7.222-12.38,7.222s-12.38-3.233-12.38-7.222v3.032c0,3.989,5.543,7.222,12.38,7.222s12.38-3.233,12.38-7.222Z" transform="translate(-29.836 -40.166)"/><path class="cls-20" d="M109.527,84.841c0,3.989-5.543,7.222-12.38,7.222s-12.38-3.233-12.38-7.222v3.032c0,3.989,5.543,7.222,12.38,7.222s12.38-3.233,12.38-7.222Z" transform="translate(-29.836 -40.166)"/><path class="cls-21" d="M84.915,91.975c0,3.989-5.543,7.222-12.38,7.222s-12.38-3.233-12.38-7.222V79.49h24.76Z" transform="translate(-29.836 -40.166)"/><ellipse class="cls-22" cx="42.699" cy="39.324" rx="12.38" ry="7.222"/><path class="cls-23" d="M84.915,81.809c0,3.989-5.543,7.222-12.38,7.222s-12.38-3.233-12.38-7.222v3.032c0,3.989,5.543,7.222,12.38,7.222s12.38-3.233,12.38-7.222Z" transform="translate(-29.836 -40.166)"/><path class="cls-24" d="M84.915,86.624c0,3.989-5.543,7.222-12.38,7.222s-12.38-3.233-12.38-7.222v3.032c0,3.989,5.543,7.222,12.38,7.222s12.38-3.233,12.38-7.222Z" transform="translate(-29.836 -40.166)"/><path class="cls-25" d="M124.686,105.35c0,3.989-5.543,7.222-12.38,7.222s-12.38-3.233-12.38-7.222V92.866h24.76Z" transform="translate(-29.836 -40.166)"/><ellipse class="cls-26" cx="82.469" cy="52.7" rx="12.38" ry="7.222"/><path class="cls-27" d="M124.686,95.185c0,3.989-5.543,7.222-12.38,7.222s-12.38-3.233-12.38-7.222v3.032c0,3.989,5.543,7.222,12.38,7.222s12.38-3.233,12.38-7.222Z" transform="translate(-29.836 -40.166)"/><path class="cls-28" d="M124.686,100c0,3.989-5.543,7.222-12.38,7.222s-12.38-3.233-12.38-7.222v3.032c0,3.989,5.543,7.222,12.38,7.222s12.38-3.233,12.38-7.222Z" transform="translate(-29.836 -40.166)"/><path class="cls-29" d="M100.074,107.134c0,3.989-5.543,7.222-12.38,7.222s-12.38-3.233-12.38-7.222V94.65h24.76Z" transform="translate(-29.836 -40.166)"/><ellipse class="cls-30" cx="57.858" cy="54.483" rx="12.38" ry="7.222"/><path class="cls-31" d="M100.074,96.968c0,3.989-5.543,7.222-12.38,7.222s-12.38-3.233-12.38-7.222V100c0,3.989,5.543,7.222,12.38,7.222s12.38-3.233,12.38-7.222Z" transform="translate(-29.836 -40.166)"/><path class="cls-32" d="M100.074,101.783c0,3.989-5.543,7.222-12.38,7.222s-12.38-3.233-12.38-7.222v3.032c0,3.989,5.543,7.222,12.38,7.222s12.38-3.233,12.38-7.222Z" transform="translate(-29.836 -40.166)"/><path class="cls-33" d="M139.845,120.51c0,3.989-5.543,7.222-12.38,7.222s-12.38-3.233-12.38-7.222V108.025h24.76Z" transform="translate(-29.836 -40.166)"/><ellipse class="cls-34" cx="97.629" cy="67.859" rx="12.38" ry="7.222"/><path class="cls-35" d="M139.845,110.344c0,3.989-5.543,7.222-12.38,7.222s-12.38-3.233-12.38-7.222v3.032c0,3.989,5.543,7.222,12.38,7.222s12.38-3.233,12.38-7.222Z" transform="translate(-29.836 -40.166)"/><path class="cls-36" d="M139.845,115.159c0,3.989-5.543,7.222-12.38,7.222s-12.38-3.233-12.38-7.222v3.032c0,3.989,5.543,7.222,12.38,7.222s12.38-3.233,12.38-7.222Z" transform="translate(-29.836 -40.166)"/><path class="cls-37" d="M115.234,122.293c0,3.989-5.543,7.222-12.38,7.222s-12.38-3.233-12.38-7.222V109.809h24.76Z" transform="translate(-29.836 -40.166)"/><ellipse class="cls-38" cx="73.017" cy="69.642" rx="12.38" ry="7.222"/><path class="cls-39" d="M115.234,112.127c0,3.989-5.543,7.222-12.38,7.222s-12.38-3.233-12.38-7.222v3.032c0,3.989,5.543,7.222,12.38,7.222s12.38-3.233,12.38-7.222Z" transform="translate(-29.836 -40.166)"/><path class="cls-40" d="M115.234,116.943c0,3.989-5.543,7.222-12.38,7.222s-12.38-3.233-12.38-7.222v3.032c0,3.989,5.543,7.222,12.38,7.222s12.38-3.233,12.38-7.222Z" transform="translate(-29.836 -40.166)"/><path class="cls-41" d="M155,135.669c0,3.989-5.543,7.222-12.38,7.222s-12.38-3.233-12.38-7.222V123.185H155Z" transform="translate(-29.836 -40.166)"/><ellipse class="cls-42" cx="112.788" cy="83.018" rx="12.38" ry="7.222"/><path class="cls-43" d="M155,125.5c0,3.989-5.543,7.222-12.38,7.222s-12.38-3.233-12.38-7.222v3.032c0,3.989,5.543,7.222,12.38,7.222S155,132.524,155,128.535Z" transform="translate(-29.836 -40.166)"/><path class="cls-44" d="M155,130.319c0,3.989-5.543,7.222-12.38,7.222s-12.38-3.233-12.38-7.222v3.032c0,3.989,5.543,7.222,12.38,7.222S155,137.339,155,133.35Z" transform="translate(-29.836 -40.166)"/><path class="cls-45" d="M130.393,137.452c0,3.989-5.543,7.222-12.38,7.222s-12.38-3.233-12.38-7.222V124.968h24.76Z" transform="translate(-29.836 -40.166)"/><ellipse class="cls-46" cx="88.176" cy="84.802" rx="12.38" ry="7.222"/><path class="cls-47" d="M130.393,127.287c0,3.989-5.543,7.222-12.38,7.222s-12.38-3.233-12.38-7.222v3.032c0,3.989,5.543,7.222,12.38,7.222s12.38-3.233,12.38-7.222Z" transform="translate(-29.836 -40.166)"/><path class="cls-48" d="M130.393,132.1c0,3.989-5.543,7.222-12.38,7.222s-12.38-3.233-12.38-7.222v3.032c0,3.989,5.543,7.222,12.38,7.222s12.38-3.233,12.38-7.222Z" transform="translate(-29.836 -40.166)"/><path class="cls-49" d="M170.164,150.828c0,3.989-5.543,7.222-12.38,7.222s-12.38-3.233-12.38-7.222V138.344h24.76Z" transform="translate(-29.836 -40.166)"/><ellipse class="cls-50" cx="127.947" cy="98.178" rx="12.38" ry="7.222"/><path class="cls-51" d="M170.164,140.662c0,3.989-5.543,7.222-12.38,7.222s-12.38-3.233-12.38-7.222v3.032c0,3.989,5.543,7.222,12.38,7.222s12.38-3.233,12.38-7.222Z" transform="translate(-29.836 -40.166)"/><path class="cls-52" d="M170.164,145.478c0,3.989-5.543,7.222-12.38,7.222s-12.38-3.233-12.38-7.222v3.032c0,3.989,5.543,7.222,12.38,7.222s12.38-3.233,12.38-7.222Z" transform="translate(-29.836 -40.166)"/><path class="cls-53" d="M145.552,152.612c0,3.989-5.543,7.222-12.38,7.222s-12.38-3.233-12.38-7.222V140.127h24.76Z" transform="translate(-29.836 -40.166)"/><ellipse class="cls-54" cx="103.336" cy="99.961" rx="12.38" ry="7.222"/><path class="cls-55" d="M145.552,142.446c0,3.989-5.543,7.222-12.38,7.222s-12.38-3.233-12.38-7.222v3.032c0,3.989,5.543,7.222,12.38,7.222s12.38-3.233,12.38-7.222Z" transform="translate(-29.836 -40.166)"/><path class="cls-56" d="M145.552,147.261c0,3.989-5.543,7.222-12.38,7.222s-12.38-3.233-12.38-7.222v3.032c0,3.989,5.543,7.222,12.38,7.222s12.38-3.233,12.38-7.222Z" transform="translate(-29.836 -40.166)"/></g></svg>