<svg id="Layer_1" data-name="Layer 1" xmlns="http://www.w3.org/2000/svg" xmlns:xlink="http://www.w3.org/1999/xlink" viewBox="0 0 45.875 50"><defs><style>.cls-1,.cls-2,.cls-3,.cls-4,.cls-5,.cls-6,.cls-7,.cls-8{fill:none;stroke-linecap:round;stroke-linejoin:round;}.cls-1{stroke:#194f84;stroke-width:5px;}.cls-2{stroke:url(#linear-gradient);}.cls-3{stroke:url(#linear-gradient-2);}.cls-4{stroke:url(#linear-gradient-3);}.cls-5{stroke:url(#linear-gradient-4);}.cls-6{stroke:url(#linear-gradient-5);}.cls-7{stroke:url(#linear-gradient-6);}.cls-8{stroke:url(#linear-gradient-7);}</style><linearGradient id="linear-gradient" x1="1.552" y1="4.984" x2="1.552" y2="34.453" gradientUnits="userSpaceOnUse"><stop offset="0" stop-color="#87bdf4" stop-opacity="0"/><stop offset="0.026" stop-color="#87bdf4" stop-opacity="0.017"/><stop offset="0.053" stop-color="#87bdf4" stop-opacity="0.068"/><stop offset="0.08" stop-color="#87bdf4" stop-opacity="0.153"/><stop offset="0.108" stop-color="#87bdf4" stop-opacity="0.273"/><stop offset="0.135" stop-color="#87bdf4" stop-opacity="0.426"/><stop offset="0.164" stop-color="#87bdf4" stop-opacity="0.615"/><stop offset="0.191" stop-color="#87bdf4" stop-opacity="0.833"/><stop offset="0.21" stop-color="#87bdf4"/><stop offset="0.281" stop-color="#87bdf4" stop-opacity="0.833"/><stop offset="0.385" stop-color="#87bdf4" stop-opacity="0.615"/><stop offset="0.491" stop-color="#87bdf4" stop-opacity="0.426"/><stop offset="0.595" stop-color="#87bdf4" stop-opacity="0.273"/><stop offset="0.699" stop-color="#87bdf4" stop-opacity="0.153"/><stop offset="0.802" stop-color="#87bdf4" stop-opacity="0.068"/><stop offset="0.903" stop-color="#87bdf4" stop-opacity="0.017"/><stop offset="1" stop-color="#87bdf4" stop-opacity="0"/></linearGradient><linearGradient id="linear-gradient-2" x1="8.304" y1="4.984" x2="8.304" y2="34.453" xlink:href="#linear-gradient"/><linearGradient id="linear-gradient-3" x1="15.176" y1="4.984" x2="15.176" y2="34.453" xlink:href="#linear-gradient"/><linearGradient id="linear-gradient-4" x1="21.989" y1="4.984" x2="21.989" y2="34.453" xlink:href="#linear-gradient"/><linearGradient id="linear-gradient-5" x1="28.754" y1="4.984" x2="28.754" y2="34.453" xlink:href="#linear-gradient"/><linearGradient id="linear-gradient-6" x1="35.543" y1="4.984" x2="35.543" y2="34.453" xlink:href="#linear-gradient"/><linearGradient id="linear-gradient-7" x1="42.427" y1="4.984" x2="42.427" y2="34.453" xlink:href="#linear-gradient"/></defs><title>GPR161</title><g id="GPR161"><path class="cls-1" d="M80.037,77.5v35.526s0,3.947,3.406,3.947,3.406-3.947,3.406-3.947V81.447s0-3.947,3.406-3.947,3.406,3.947,3.406,3.947v31.579s0,3.947,3.406,3.947,3.406-3.947,3.406-3.947V81.447s0-3.947,3.406-3.947,3.406,3.947,3.406,3.947v31.579s0,3.947,3.406,3.947,3.406-3.947,3.406-3.947V81.447s0-3.947,3.406-3.947,3.406,3.947,3.406,3.947v35.526c0,3.947-3.406,5.5-6.812,5.5l-3.406.029" transform="translate(-77.537 -75)"/><line class="cls-2" x1="1.552" y1="5.484" x2="1.552" y2="33.953"/><line class="cls-3" x1="8.304" y1="5.484" x2="8.304" y2="33.953"/><line class="cls-4" x1="15.176" y1="5.484" x2="15.176" y2="33.953"/><line class="cls-5" x1="21.989" y1="5.484" x2="21.989" y2="33.953"/><line class="cls-6" x1="28.754" y1="5.484" x2="28.754" y2="33.953"/><line class="cls-7" x1="35.543" y1="5.484" x2="35.543" y2="33.953"/><line class="cls-8" x1="42.427" y1="5.484" x2="42.427" y2="33.953"/></g></svg>