<svg id="Layer_1" data-name="Layer 1" xmlns="http://www.w3.org/2000/svg" xmlns:xlink="http://www.w3.org/1999/xlink" viewBox="0 0 109.339 58.6"><defs><style>.cls-1{fill:url(#radial-gradient);}.cls-2{fill:url(#radial-gradient-2);}.cls-3{fill:url(#radial-gradient-3);}.cls-4{fill:url(#radial-gradient-4);}.cls-5{fill:url(#radial-gradient-5);}.cls-6{fill:url(#radial-gradient-6);}.cls-7{fill:url(#radial-gradient-7);}.cls-8{fill:url(#radial-gradient-8);}.cls-9{fill:url(#radial-gradient-9);}.cls-10{fill:url(#radial-gradient-10);}.cls-11{fill:url(#radial-gradient-11);}.cls-12{fill:url(#radial-gradient-12);}.cls-13{fill:url(#radial-gradient-13);}.cls-14{fill:url(#radial-gradient-14);}.cls-15{fill:url(#radial-gradient-15);}.cls-16{fill:url(#radial-gradient-16);}.cls-17{fill:url(#radial-gradient-17);}.cls-18{fill:url(#radial-gradient-18);}.cls-19{fill:url(#radial-gradient-19);}.cls-20{fill:url(#radial-gradient-20);}.cls-21{fill:url(#radial-gradient-21);}.cls-22{fill:url(#radial-gradient-22);}.cls-23{fill:url(#radial-gradient-23);}.cls-24{fill:url(#radial-gradient-24);}.cls-25{fill:url(#radial-gradient-25);}.cls-26{fill:url(#radial-gradient-26);}.cls-27{fill:url(#radial-gradient-27);}.cls-28{fill:url(#radial-gradient-28);}.cls-29{fill:url(#radial-gradient-29);}.cls-30{fill:url(#radial-gradient-30);}.cls-31{fill:url(#radial-gradient-31);}.cls-32{fill:url(#radial-gradient-32);}.cls-33{fill:url(#radial-gradient-33);}.cls-34{fill:url(#radial-gradient-34);}.cls-35{fill:url(#radial-gradient-35);}.cls-36{fill:url(#radial-gradient-36);}</style><radialGradient id="radial-gradient" cx="75.895" cy="56.482" r="8.383" gradientTransform="matrix(-1, -0.002, 0.002, -0.985, 198.22, 162.805)" gradientUnits="userSpaceOnUse"><stop offset="0" stop-color="#ced7e6"/><stop offset="1" stop-color="#f45546"/></radialGradient><radialGradient id="radial-gradient-2" cx="113.047" cy="90.902" r="8.383" gradientTransform="matrix(-1, -0.002, 0.002, -0.985, 185.562, 206.248)" xlink:href="#radial-gradient"/><radialGradient id="radial-gradient-3" cx="111.186" cy="98.488" r="8.383" gradientTransform="matrix(-1, -0.002, 0.002, -0.985, 178.687, 207.718)" xlink:href="#radial-gradient"/><radialGradient id="radial-gradient-4" cx="68.386" cy="64.998" r="8.383" gradientTransform="matrix(-1, -0.002, 0.002, -0.985, 188.301, 160.084)" xlink:href="#radial-gradient"/><radialGradient id="radial-gradient-5" cx="107.019" cy="83.428" r="8.383" gradientTransform="matrix(-1, -0.002, 0.002, -0.985, 189.139, 198.46)" xlink:href="#radial-gradient"/><radialGradient id="radial-gradient-6" cx="101.728" cy="94.787" r="8.383" gradientTransform="matrix(-1, -0.002, 0.002, -0.985, 177.828, 198.641)" xlink:href="#radial-gradient"/><radialGradient id="radial-gradient-7" cx="86.307" cy="88.653" r="8.383" gradientTransform="matrix(-1, -0.002, 0.002, -0.985, 176.508, 183.802)" xlink:href="#radial-gradient"/><radialGradient id="radial-gradient-8" cx="81.539" cy="79.117" r="8.383" gradientTransform="matrix(-1, -0.002, 0.002, -0.985, 182.26, 176.222)" xlink:href="#radial-gradient"/><radialGradient id="radial-gradient-9" cx="108.229" cy="118.066" r="8.383" gradientTransform="matrix(-1, -0.002, 0.002, -0.985, 161.696, 213.001)" xlink:href="#radial-gradient"/><radialGradient id="radial-gradient-10" cx="92.267" cy="82.693" r="8.383" gradientTransform="matrix(-1, -0.002, 0.002, -0.985, 183.736, 186.274)" xlink:href="#radial-gradient"/><radialGradient id="radial-gradient-11" cx="101.803" cy="75.541" r="8.383" gradientTransform="matrix(-1, -0.002, 0.002, -0.985, 193.38, 191.164)" xlink:href="#radial-gradient"/><radialGradient id="radial-gradient-12" cx="100.392" cy="122.603" r="8.383" gradientTransform="matrix(-1, -0.002, 0.002, -0.985, 154.852, 208.458)" xlink:href="#radial-gradient"/><radialGradient id="radial-gradient-13" cx="108.903" cy="108.87" r="8.383" gradientTransform="matrix(-1, -0.002, 0.002, -0.985, 169.386, 209.943)" xlink:href="#radial-gradient"/><radialGradient id="radial-gradient-14" cx="92.172" cy="124.938" r="8.383" gradientTransform="matrix(-1, -0.002, 0.002, -0.985, 149.629, 202.743)" xlink:href="#radial-gradient"/><radialGradient id="radial-gradient-15" cx="87.041" cy="116.296" r="8.383" gradientTransform="matrix(-1, -0.002, 0.002, -0.985, 154.513, 195.22)" xlink:href="#radial-gradient"/><radialGradient id="radial-gradient-16" cx="99.456" cy="114.595" r="8.383" gradientTransform="matrix(-1, -0.002, 0.002, -0.985, 160.93, 204.566)" xlink:href="#radial-gradient"/><radialGradient id="radial-gradient-17" cx="92.292" cy="109.937" r="8.383" gradientTransform="matrix(-1, -0.002, 0.002, -0.985, 161.775, 196.965)" xlink:href="#radial-gradient"/><radialGradient id="radial-gradient-18" cx="84.063" cy="107.147" r="8.383" gradientTransform="matrix(-1, -0.002, 0.002, -0.985, 160.681, 189.236)" xlink:href="#radial-gradient"/><radialGradient id="radial-gradient-19" cx="82.916" cy="100.537" r="8.383" gradientTransform="matrix(-1, -0.002, 0.002, -0.985, 165.545, 185.722)" xlink:href="#radial-gradient"/><radialGradient id="radial-gradient-20" cx="89.883" cy="73.157" r="8.383" gradientTransform="matrix(-1, -0.002, 0.002, -0.985, 190.458, 180.617)" xlink:href="#radial-gradient"/><radialGradient id="radial-gradient-21" cx="87.499" cy="62.429" r="8.383" gradientTransform="matrix(-1, -0.002, 0.002, -0.985, 198.141, 174.492)" xlink:href="#radial-gradient"/><radialGradient id="radial-gradient-22" cx="66.049" cy="43.455" r="8.383" gradientTransform="matrix(-1, -0.002, 0.002, -0.985, 204.724, 149.762)" xlink:href="#radial-gradient"/><radialGradient id="radial-gradient-23" cx="64.137" cy="32.439" r="8.383" gradientTransform="matrix(-1, -0.002, 0.002, -0.985, 212.832, 143.906)" xlink:href="#radial-gradient"/><radialGradient id="radial-gradient-24" cx="73.041" cy="44.512" r="8.383" gradientTransform="matrix(-1, -0.002, 0.002, -0.985, 206.715, 155.815)" xlink:href="#radial-gradient"/><radialGradient id="radial-gradient-25" cx="97.077" cy="65.306" r="8.383" gradientTransform="matrix(-1, -0.002, 0.002, -0.985, 199.713, 183.344)" xlink:href="#radial-gradient"/><radialGradient id="radial-gradient-26" cx="102.453" cy="104.193" r="8.383" gradientTransform="matrix(-1, -0.002, 0.002, -0.985, 170.536, 202.909)" xlink:href="#radial-gradient"/><radialGradient id="radial-gradient-27" cx="95.672" cy="101.739" r="8.383" gradientTransform="matrix(-1, -0.002, 0.002, -0.985, 169.76, 196.479)" xlink:href="#radial-gradient"/><radialGradient id="radial-gradient-28" cx="94.651" cy="93.421" r="8.383" gradientTransform="matrix(-1, -0.002, 0.002, -0.985, 176.053, 192.398)" xlink:href="#radial-gradient"/><radialGradient id="radial-gradient-29" cx="101.803" cy="86.269" r="8.383" gradientTransform="matrix(-1, -0.002, 0.002, -0.985, 184.728, 195.365)" xlink:href="#radial-gradient"/><radialGradient id="radial-gradient-30" cx="71.722" cy="34.3" r="8.383" gradientTransform="matrix(-1, -0.002, 0.002, -0.985, 214.414, 150.752)" xlink:href="#radial-gradient"/><radialGradient id="radial-gradient-31" cx="80.878" cy="39.974" r="8.383" gradientTransform="matrix(-1, -0.002, 0.002, -0.985, 213.559, 160.358)" xlink:href="#radial-gradient"/><radialGradient id="radial-gradient-32" cx="88.041" cy="44.632" r="8.383" gradientTransform="matrix(-1, -0.002, 0.002, -0.985, 212.714, 167.96)" xlink:href="#radial-gradient"/><radialGradient id="radial-gradient-33" cx="83.001" cy="49.592" r="8.383" gradientTransform="matrix(-1, -0.002, 0.002, -0.985, 206.666, 165.838)" xlink:href="#radial-gradient"/><radialGradient id="radial-gradient-34" cx="91.563" cy="54.461" r="8.383" gradientTransform="matrix(-1, -0.002, 0.002, -0.985, 206.219, 174.65)" xlink:href="#radial-gradient"/><radialGradient id="radial-gradient-35" cx="72.003" cy="75.541" r="8.383" gradientTransform="matrix(-1, -0.002, 0.002, -0.985, 181.268, 167.13)" xlink:href="#radial-gradient"/><radialGradient id="radial-gradient-36" cx="79.155" cy="68.389" r="8.383" gradientTransform="matrix(-1, -0.002, 0.002, -0.985, 189.943, 170.097)" xlink:href="#radial-gradient"/></defs><title>R-ICO-013609</title><g id="R-ICO-013609"><circle class="cls-1" cx="121.212" cy="105.362" r="7.128" transform="translate(-80.86 69.671) rotate(-53.589)"/><circle class="cls-2" cx="71.46" cy="114.831" r="7.128" transform="translate(-108.7 33.479) rotate(-53.589)"/><circle class="cls-3" cx="66.46" cy="108.83" r="7.128" transform="translate(-105.904 27.016) rotate(-53.589)"/><circle class="cls-4" cx="118.817" cy="94.265" r="7.128" transform="translate(-72.903 63.232) rotate(-53.589)"/><circle class="cls-5" cx="81.052" cy="114.416" r="7.128" transform="translate(-104.468 41.031) rotate(-53.589)"/><circle class="cls-6" cx="75.052" cy="103.415" r="7.128" transform="translate(-98.054 31.731) rotate(-53.589)"/><circle class="cls-7" cx="89.142" cy="94.646" r="7.128" transform="translate(-85.27 39.506) rotate(-53.589)"/><circle class="cls-8" cx="99.647" cy="96.469" r="7.128" transform="translate(-82.468 48.701) rotate(-53.589)"/><circle class="cls-9" cx="52.459" cy="94.829" r="7.128" transform="translate(-100.326 10.059) rotate(-53.589)"/><circle class="cls-10" cx="90.401" cy="102.98" r="7.128" transform="translate(-91.465 43.906) rotate(-53.589)"/><circle class="cls-11" cx="90.496" cy="114.899" r="7.128" transform="translate(-101.019 48.827) rotate(-53.589)"/><circle class="cls-12" cx="53.459" cy="85.829" r="7.128" transform="translate(-92.676 7.205) rotate(-53.589)"/><circle class="cls-13" cx="59.459" cy="100.83" r="7.128" transform="translate(-102.31 18.131) rotate(-53.589)"/><circle class="cls-14" cx="56.459" cy="77.828" r="7.128" transform="translate(-85.019 6.368) rotate(-53.589)"/><circle class="cls-15" cx="66.46" cy="78.828" r="7.128" transform="translate(-81.759 14.823) rotate(-53.589)"/><circle class="cls-16" cx="60.459" cy="89.829" r="7.128" transform="translate(-93.051 14.465) rotate(-53.589)"/><circle class="cls-17" cx="68.46" cy="86.829" r="7.128" transform="translate(-87.385 19.684) rotate(-53.589)"/><circle class="cls-18" cx="75.59" cy="81.863" r="7.128" transform="translate(-80.49 23.404) rotate(-53.589)"/><circle class="cls-19" cx="81.59" cy="84.863" r="7.128" transform="translate(-80.466 29.452) rotate(-53.589)"/><circle class="cls-20" cx="99.49" cy="106.722" r="7.128" transform="translate(-90.782 52.742) rotate(-53.589)"/><circle class="cls-21" cx="109.539" cy="111.171" r="7.128" transform="translate(-90.279 62.637) rotate(-53.589)"/><circle class="cls-22" cx="137.541" cy="105.171" r="7.128" transform="translate(-74.07 82.733) rotate(-53.589)"/><circle class="cls-23" cx="147.541" cy="110.171" r="7.128" transform="translate(-74.029 92.814) rotate(-53.589)"/><circle class="cls-24" cx="132.54" cy="110.171" r="7.128" transform="translate(-80.126 80.741) rotate(-53.589)"/><circle class="cls-25" cx="101.538" cy="117.171" r="7.128" transform="translate(-98.36 58.637) rotate(-53.589)"/><circle class="cls-26" cx="67.052" cy="98.415" r="7.128" transform="translate(-97.281 23.26) rotate(-53.589)"/><circle class="cls-27" cx="73.052" cy="94.415" r="7.128" transform="translate(-91.623 26.463) rotate(-53.589)"/><circle class="cls-28" cx="80.352" cy="98.531" r="7.128" transform="translate(-91.969 34.011) rotate(-53.589)"/><circle class="cls-29" cx="81.863" cy="108.532" r="7.128" transform="translate(-99.403 39.291) rotate(-53.589)"/><circle class="cls-30" cx="141.541" cy="115.171" r="7.128" transform="translate(-80.492 90.017) rotate(-53.589)"/><circle class="cls-31" cx="131.54" cy="119.171" r="7.128" transform="translate(-87.776 83.595) rotate(-53.589)"/><circle class="cls-32" cx="123.54" cy="122.172" r="7.128" transform="translate(-93.442 78.375) rotate(-53.589)"/><circle class="cls-33" cx="122.54" cy="115.171" r="7.128" transform="translate(-88.215 74.725) rotate(-53.589)"/><circle class="cls-34" cx="113.539" cy="119.171" r="7.128" transform="translate(-95.092 69.108) rotate(-53.589)"/><circle class="cls-35" cx="108.185" cy="90.917" r="7.128" transform="translate(-74.53 53.316) rotate(-53.589)"/><circle class="cls-36" cx="109.695" cy="100.918" r="7.128" transform="translate(-81.964 58.596) rotate(-53.589)"/></g></svg>