<svg id="Layer_1" data-name="Layer 1" xmlns="http://www.w3.org/2000/svg" xmlns:xlink="http://www.w3.org/1999/xlink" viewBox="0 0 57.311 22.901"><defs><style>.cls-1{fill:url(#linear-gradient);}.cls-2{fill:#ff8600;}.cls-3{font-size:12px;fill:#fff;font-family:Arial-BoldMT, Arial;font-weight:700;}.cls-4{letter-spacing:-0.074em;}</style><linearGradient id="linear-gradient" x1="28.899" y1="21.293" x2="28.899" y2="1.293" gradientUnits="userSpaceOnUse"><stop offset="0" stop-color="#4c0000"/><stop offset="1" stop-color="#ff8600"/></linearGradient></defs><title>HSPA5</title><g id="HSPA5"><rect class="cls-1" x="1.399" y="1.293" width="55" height="20" rx="10" ry="10"/><path class="cls-2" d="M118.223,110.033c-5.532-.009-11.065.43-16.6.837-5.532.458-11.065.546-16.6.613-.711.009-1.34.016-2.117-.01a11.287,11.287,0,0,1-2.382-.319,11.129,11.129,0,0,1-4.294-2.079,11.4,11.4,0,0,1-4.379-8.161,11.1,11.1,0,0,1,3.111-8.571,10.876,10.876,0,0,1,8.255-3.28c5.532.282,11.065.437,16.6.335,5.532-.084,11.065-.574,16.6-.762.707-.013,1.348-.053,2.109-.043a9.729,9.729,0,0,1,2.329.278,10.746,10.746,0,0,1,4.211,2.012,10.6,10.6,0,0,1,4.063,8.014,10.785,10.785,0,0,1-3.256,7.976A10.975,10.975,0,0,1,118.223,110.033Zm0-.3a9.148,9.148,0,0,0,9-10.666,9.542,9.542,0,0,0-6.994-7.6,10.083,10.083,0,0,0-1.775-.264c-.621-.046-1.363-.046-2.039-.071-5.532-.188-11.065-.678-16.6-.762-5.532-.1-11.065.053-16.6.335a9.111,9.111,0,0,0-6.478,3.263,8.846,8.846,0,0,0-2.064,6.69,8.562,8.562,0,0,0,3.456,5.925,8.925,8.925,0,0,0,3.14,1.462,8.085,8.085,0,0,0,1.721.223c.6.028,1.359,0,2.031.017,5.532.066,11.065.155,16.6.613C107.158,109.3,112.69,109.741,118.223,109.733Z" transform="translate(-71.823 -88.589)"/><text class="cls-3" transform="translate(9.338 14.727)">HS<tspan class="cls-4" x="16.67" y="0">P</tspan><tspan x="23.783" y="0">A5</tspan></text></g></svg>