<svg id="Layer_1" data-name="Layer 1" xmlns="http://www.w3.org/2000/svg" xmlns:xlink="http://www.w3.org/1999/xlink" viewBox="0 0 28.608 58.334"><defs><style>.cls-1{fill:url(#radial-gradient);}.cls-2{fill:url(#radial-gradient-2);}.cls-3{fill:url(#radial-gradient-3);}.cls-4{mask:url(#mask);}.cls-5{fill:url(#radial-gradient-4);}.cls-6{mask:url(#mask-2);}.cls-7{fill:url(#radial-gradient-5);}</style><radialGradient id="radial-gradient" cx="28.082" cy="750.582" r="9.948" gradientTransform="matrix(0.882, -0.182, 0.263, 1.488, -133.355, -1001.826)" gradientUnits="userSpaceOnUse"><stop offset="0.386"/><stop offset="1" stop-color="#fff"/></radialGradient><radialGradient id="radial-gradient-2" cx="19.631" cy="697.407" r="25.617" gradientTransform="matrix(0.984, -0.177, 0.177, 0.984, -47.42, -615.046)" gradientUnits="userSpaceOnUse"><stop offset="0.348" stop-color="#fff"/><stop offset="1"/></radialGradient><radialGradient id="radial-gradient-3" cx="29.414" cy="725.322" r="28.699" gradientTransform="matrix(0.998, 0.059, -0.093, 1.568, 146.568, -1043.716)" gradientUnits="userSpaceOnUse"><stop offset="0.412" stop-color="#911547"/><stop offset="0.467" stop-color="#981b4d"/><stop offset="0.544" stop-color="#aa2d5f"/><stop offset="0.635" stop-color="#c9497c"/><stop offset="0.736" stop-color="#f371a5"/><stop offset="0.762" stop-color="#ff7cb0"/><stop offset="0.9" stop-color="#911547"/></radialGradient><mask id="mask" x="1.278" y="39.565" width="15.201" height="19.695" maskUnits="userSpaceOnUse"><g transform="translate(-82.053 -68.356)"><rect class="cls-1" x="84.024" y="108.42" width="13.815" height="18.696" transform="translate(-8.716 7.277) rotate(-4.374)"/></g></mask><radialGradient id="radial-gradient-4" cx="9.166" cy="747.164" r="5.337" gradientTransform="matrix(0.965, -0.262, 0.409, 1.506, -224.13, -1004.628)" gradientUnits="userSpaceOnUse"><stop offset="0" stop-color="#ff7cb0"/><stop offset="1" stop-color="#911547"/></radialGradient><mask id="mask-2" x="-2.56" y="-2.065" width="32.624" height="29.82" maskUnits="userSpaceOnUse"><g transform="translate(-82.053 -68.356)"><rect class="cls-2" x="80.784" y="67.749" width="30.044" height="26.903" transform="translate(8.757 -9.324) rotate(5.838)"/></g></mask><radialGradient id="radial-gradient-5" cx="17.22" cy="709.606" r="13.765" gradientTransform="translate(24.144 -626.004) rotate(-4.374)" xlink:href="#radial-gradient-4"/></defs><title>SRP receptor</title><g id="SRP_receptor" data-name="SRP receptor"><path id="BG" class="cls-3" d="M82.058,82.665c-.189-13.689,4.649-15.173,14.365-13.979s19.156,7.5,11.347,18.616c-8.527,12.139-22.395,15.5-13.722,26.125,11.8,14.461-8.228,16.435-9.14,9.119S82.22,94.392,82.058,82.665Z" transform="translate(-82.053 -68.356)"/><g class="cls-4"><path id="Bottom" class="cls-5" d="M94.048,113.427c11.8,14.461-8.228,16.435-9.14,9.119S85.375,102.8,94.048,113.427Z" transform="translate(-82.053 -68.356)"/></g><g class="cls-6"><path id="Top" class="cls-7" d="M82.058,82.665c-.189-13.689,4.649-15.173,14.365-13.979s19.156,7.5,11.347,18.616C99.242,99.441,82.22,94.392,82.058,82.665Z" transform="translate(-82.053 -68.356)"/></g></g></svg>