<svg id="Layer_1" data-name="Layer 1" xmlns="http://www.w3.org/2000/svg" xmlns:xlink="http://www.w3.org/1999/xlink" viewBox="0 0 12.577 134.019"><defs><style>.cls-1{fill:url(#linear-gradient);}.cls-2{fill:url(#linear-gradient-2);}.cls-3{fill:url(#radial-gradient);}.cls-4{fill:url(#radial-gradient-2);}.cls-5{fill:url(#radial-gradient-3);}.cls-6{fill:url(#radial-gradient-4);}.cls-7{fill:url(#radial-gradient-5);}.cls-8{fill:url(#radial-gradient-6);}.cls-9{fill:url(#radial-gradient-7);}.cls-10{fill:url(#radial-gradient-8);}.cls-11{fill:url(#radial-gradient-9);}.cls-12{fill:url(#radial-gradient-10);}.cls-13{fill:url(#radial-gradient-11);}</style><linearGradient id="linear-gradient" x1="93.711" y1="100.005" x2="106.289" y2="100.005" gradientUnits="userSpaceOnUse"><stop offset="0.261" stop-color="#293163"/><stop offset="0.416" stop-color="#09f5c1"/><stop offset="0.744" stop-color="#293163"/></linearGradient><linearGradient id="linear-gradient-2" x1="100" y1="167.009" x2="100" y2="33.002" gradientUnits="userSpaceOnUse"><stop offset="0.12" stop-color="#293163"/><stop offset="0.22" stop-color="#293163"/><stop offset="0.257" stop-color="#293163"/><stop offset="0.302" stop-color="#293163"/><stop offset="0.315" stop-color="#1b858b" stop-opacity="0.571"/><stop offset="0.326" stop-color="#11c2a9" stop-opacity="0.259"/><stop offset="0.336" stop-color="#0be8bb" stop-opacity="0.068"/><stop offset="0.343" stop-color="#09f5c1" stop-opacity="0"/><stop offset="0.367" stop-color="#0aefbe" stop-opacity="0.03"/><stop offset="0.384" stop-color="#0ddcb5" stop-opacity="0.125"/><stop offset="0.4" stop-color="#12bda6" stop-opacity="0.287"/><stop offset="0.414" stop-color="#199091" stop-opacity="0.515"/><stop offset="0.427" stop-color="#235775" stop-opacity="0.806"/><stop offset="0.435" stop-color="#293163"/><stop offset="0.504" stop-color="#09f5c1" stop-opacity="0"/><stop offset="0.561" stop-color="#293163"/><stop offset="1" stop-color="#09f5c1" stop-opacity="0"/></linearGradient><radialGradient id="radial-gradient" cx="99.715" cy="541.729" r="6.808" gradientTransform="translate(-88.207 -76.829) scale(0.924 0.278)" gradientUnits="userSpaceOnUse"><stop offset="0" stop-color="#09f5c1"/><stop offset="1" stop-color="#293163"/></radialGradient><radialGradient id="radial-gradient-2" cx="99.715" cy="530.689" r="6.808" xlink:href="#radial-gradient"/><radialGradient id="radial-gradient-3" cx="99.715" cy="519.65" r="6.808" xlink:href="#radial-gradient"/><radialGradient id="radial-gradient-4" cx="83.352" cy="129.643" r="6.808" gradientTransform="translate(-42.522 -22.387) scale(0.568 0.924)" xlink:href="#radial-gradient"/><radialGradient id="radial-gradient-5" cx="83.352" cy="143.259" r="6.808" gradientTransform="translate(-42.522 -22.387) scale(0.568 0.924)" xlink:href="#radial-gradient"/><radialGradient id="radial-gradient-6" cx="83.352" cy="156.875" r="6.808" gradientTransform="translate(-42.522 -22.387) scale(0.568 0.924)" xlink:href="#radial-gradient"/><radialGradient id="radial-gradient-7" cx="99.715" cy="79.552" r="6.808" gradientTransform="translate(-88.207 -22.387) scale(0.924)" xlink:href="#radial-gradient"/><radialGradient id="radial-gradient-8" cx="99.715" cy="66.797" r="6.808" gradientTransform="translate(-88.207 -22.387) scale(0.924)" xlink:href="#radial-gradient"/><radialGradient id="radial-gradient-9" cx="99.988" cy="54.041" r="6.808" gradientTransform="translate(-88.207 -22.387) scale(0.924)" xlink:href="#radial-gradient"/><radialGradient id="radial-gradient-10" cx="100.124" cy="41.353" r="6.808" gradientTransform="translate(-88.207 -22.387) scale(0.924)" xlink:href="#radial-gradient"/><radialGradient id="radial-gradient-11" cx="100.124" cy="28.926" r="6.77" gradientTransform="translate(5.504 10.603) scale(0.924)" xlink:href="#radial-gradient"/></defs><title>R-ICO-013943</title><g id="ROBO3.1"><path class="cls-1" d="M106.289,50.709a6.272,6.272,0,0,0-2.067-4.66,1.51,1.51,0,0,1-.036-2.22,6.363,6.363,0,0,0,2.1-4.691A6.187,6.187,0,0,0,100,33a6.182,6.182,0,0,0-4.22,10.8,1.513,1.513,0,0,1,0,2.248,6.286,6.286,0,0,0,0,9.323,1.513,1.513,0,0,1,0,2.248,6.286,6.286,0,0,0,0,9.323,1.513,1.513,0,0,1,0,2.248,6.286,6.286,0,0,0,0,9.323,1.513,1.513,0,0,1,0,2.248,6.285,6.285,0,0,0,.984,10.051,1.5,1.5,0,0,1,.721,1.285v33.556a5.379,5.379,0,0,1-.56,2.278,9.546,9.546,0,0,0,0,7.614,5.375,5.375,0,0,1,.56,2.278v.407a5.375,5.375,0,0,1-.56,2.278,9.546,9.546,0,0,0,0,7.614,5.379,5.379,0,0,1,.56,2.278v.408a5.375,5.375,0,0,1-.56,2.277,9.546,9.546,0,0,0,0,7.614,5.379,5.379,0,0,1,.56,2.278v1.518a2.516,2.516,0,0,0,5.031,0v-1.518a5.374,5.374,0,0,1,.559-2.278,9.543,9.543,0,0,0,0-7.613,5.378,5.378,0,0,1-.559-2.278V150.4a5.373,5.373,0,0,1,.559-2.277,9.543,9.543,0,0,0,0-7.613,5.378,5.378,0,0,1-.559-2.278v-.409a5.373,5.373,0,0,1,.559-2.277,9.546,9.546,0,0,0,0-7.614,5.373,5.373,0,0,1-.559-2.277V92.1a1.5,1.5,0,0,1,.721-1.284,6.285,6.285,0,0,0,.983-10.051,1.513,1.513,0,0,1,0-2.248,6.286,6.286,0,0,0,0-9.323,1.513,1.513,0,0,1,0-2.248,6.286,6.286,0,0,0,0-9.323,1.513,1.513,0,0,1,0-2.248A6.272,6.272,0,0,0,106.289,50.709Z" transform="translate(-93.711 -32.991)"/><path class="cls-2" d="M106.289,50.709a6.272,6.272,0,0,0-2.067-4.66,1.51,1.51,0,0,1-.036-2.22,6.363,6.363,0,0,0,2.1-4.691A6.187,6.187,0,0,0,100,33a6.182,6.182,0,0,0-4.22,10.8,1.513,1.513,0,0,1,0,2.248,6.286,6.286,0,0,0,0,9.323,1.513,1.513,0,0,1,0,2.248,6.286,6.286,0,0,0,0,9.323,1.513,1.513,0,0,1,0,2.248,6.286,6.286,0,0,0,0,9.323,1.513,1.513,0,0,1,0,2.248,6.285,6.285,0,0,0,.984,10.051,1.5,1.5,0,0,1,.721,1.285v33.556a5.379,5.379,0,0,1-.56,2.278,9.546,9.546,0,0,0,0,7.614,5.375,5.375,0,0,1,.56,2.278v.407a5.375,5.375,0,0,1-.56,2.278,9.546,9.546,0,0,0,0,7.614,5.379,5.379,0,0,1,.56,2.278v.408a5.375,5.375,0,0,1-.56,2.277,9.546,9.546,0,0,0,0,7.614,5.379,5.379,0,0,1,.56,2.278v1.518a2.516,2.516,0,0,0,5.031,0v-1.518a5.374,5.374,0,0,1,.559-2.278,9.543,9.543,0,0,0,0-7.613,5.378,5.378,0,0,1-.559-2.278V150.4a5.373,5.373,0,0,1,.559-2.277,9.543,9.543,0,0,0,0-7.613,5.378,5.378,0,0,1-.559-2.278v-.409a5.373,5.373,0,0,1,.559-2.277,9.546,9.546,0,0,0,0-7.614,5.373,5.373,0,0,1-.559-2.277V92.1a1.5,1.5,0,0,1,.721-1.284,6.285,6.285,0,0,0,.983-10.051,1.513,1.513,0,0,1,0-2.248,6.286,6.286,0,0,0,0-9.323,1.513,1.513,0,0,1,0-2.248,6.286,6.286,0,0,0,0-9.323,1.513,1.513,0,0,1,0-2.248A6.272,6.272,0,0,0,106.289,50.709Z" transform="translate(-93.711 -32.991)"/><ellipse class="cls-3" cx="6.289" cy="73.922" rx="6.289" ry="1.889"/><ellipse class="cls-4" cx="6.289" cy="70.858" rx="6.289" ry="1.889"/><ellipse class="cls-5" cx="6.289" cy="67.795" rx="6.289" ry="1.889"/><ellipse class="cls-6" cx="6.289" cy="98.746" rx="3.867" ry="6.289"/><ellipse class="cls-7" cx="6.289" cy="111.323" rx="3.867" ry="6.289"/><ellipse class="cls-8" cx="6.289" cy="123.901" rx="3.867" ry="6.289"/><circle class="cls-9" cx="6.289" cy="52.477" r="6.289"/><circle class="cls-10" cx="6.289" cy="40.821" r="6.289"/><circle class="cls-11" cx="6.289" cy="29.291" r="6.289"/><circle class="cls-12" cx="6.289" cy="17.697" r="6.289"/><path class="cls-13" d="M106.289,39.138a6.291,6.291,0,0,0-12.578,0,6.289,6.289,0,0,0,12.578,0Z" transform="translate(-93.711 -32.991)"/></g></svg>