<svg xmlns="http://www.w3.org/2000/svg" xmlns:xlink="http://www.w3.org/1999/xlink" viewBox="0 0 136.849 100.05"><defs><style>.cls-1{isolation:isolate;}.cls-2{fill:#fff;}.cls-3{fill:url(#radial-gradient);}.cls-4{opacity:0.75;fill:url(#linear-gradient);}.cls-5{opacity:0.5;mix-blend-mode:screen;fill:url(#radial-gradient-2);}.cls-6{fill:url(#radial-gradient-3);}.cls-7{fill:url(#linear-gradient-2);}.cls-8{fill:url(#radial-gradient-4);}</style><radialGradient id="radial-gradient" cx="163.078" cy="-2.954" r="118.551" gradientTransform="translate(-18.489 77.809) rotate(13.3)" gradientUnits="userSpaceOnUse"><stop offset="0" stop-color="#d57983"/><stop offset="0.126" stop-color="#d07680"/><stop offset="0.277" stop-color="#c16d76"/><stop offset="0.442" stop-color="#a95f67"/><stop offset="0.615" stop-color="#874a51"/><stop offset="0.796" stop-color="#5c3035"/><stop offset="0.98" stop-color="#271113"/><stop offset="1" stop-color="#210d0f"/></radialGradient><linearGradient id="linear-gradient" x1="121.441" y1="-38.992" x2="110.212" y2="17.161" gradientTransform="translate(-18.489 77.809) rotate(13.3)" gradientUnits="userSpaceOnUse"><stop offset="0" stop-color="#d57983"/><stop offset="0.024" stop-color="#d58991"/><stop offset="0.057" stop-color="#d5989f"/><stop offset="0.096" stop-color="#d5a1a7"/><stop offset="0.155" stop-color="#d5a4a9"/><stop offset="0.381" stop-color="#d57983"/><stop offset="0.557" stop-color="#af5c65"/><stop offset="0.742" stop-color="#8e424c"/><stop offset="0.896" stop-color="#7a333c"/><stop offset="1" stop-color="#732d36"/></linearGradient><radialGradient id="radial-gradient-2" cx="172.477" cy="1.532" fx="107.4989952885405" r="129.739" gradientTransform="matrix(-0.882, -0.472, 0.3, -0.56, 300.617, 201.226)" gradientUnits="userSpaceOnUse"><stop offset="0.521" stop-color="#ce757f"/><stop offset="0.539" stop-color="#bb6972"/><stop offset="0.576" stop-color="#884b52"/><stop offset="0.628" stop-color="#381b1e"/><stop offset="0.641" stop-color="#210d0f"/><stop offset="0.734" stop-color="#cf767f"/><stop offset="0.751" stop-color="#bc6a73"/><stop offset="0.787" stop-color="#8a4c52"/><stop offset="0.838" stop-color="#3a1c1f"/><stop offset="0.853" stop-color="#210d0f"/><stop offset="0.93" stop-color="#d57983"/><stop offset="0.939" stop-color="#d07680"/><stop offset="0.95" stop-color="#c16d76"/><stop offset="0.961" stop-color="#a95f67"/><stop offset="0.973" stop-color="#874a51"/><stop offset="0.986" stop-color="#5c3035"/><stop offset="0.999" stop-color="#271113"/><stop offset="1" stop-color="#210d0f"/></radialGradient><radialGradient id="radial-gradient-3" cx="162.861" cy="-1.443" r="24.691" gradientTransform="matrix(0.931, 0.366, -0.506, 1.286, -11.961, 56.136)" gradientUnits="userSpaceOnUse"><stop offset="0.819" stop-color="#d5aeb2"/><stop offset="0.873" stop-color="#d5a9ad"/><stop offset="0.941" stop-color="#d5999f"/><stop offset="1" stop-color="#d5868d"/></radialGradient><linearGradient id="linear-gradient-2" x1="116.452" y1="132.441" x2="166.933" y2="93.38" gradientUnits="userSpaceOnUse"><stop offset="0" stop-color="#b56b71"/><stop offset="0.159" stop-color="#b66e74"/><stop offset="0.276" stop-color="#bb777d"/><stop offset="0.38" stop-color="#c3878d"/><stop offset="0.476" stop-color="#cd9ea2"/><stop offset="0.53" stop-color="#d5aeb2"/><stop offset="0.671" stop-color="#d5a9ad"/><stop offset="0.846" stop-color="#d5999f"/><stop offset="1" stop-color="#d5868d"/></linearGradient><radialGradient id="radial-gradient-4" cx="126.824" cy="-5.44" r="57.785" gradientTransform="matrix(0.887, 0.462, -0.48, 0.921, -8.916, 48.138)" gradientUnits="userSpaceOnUse"><stop offset="0.339" stop-color="#732d36"/><stop offset="0.389" stop-color="#803740"/><stop offset="0.549" stop-color="#a5545d"/><stop offset="0.698" stop-color="#bf6872"/><stop offset="0.83" stop-color="#cf757f"/><stop offset="0.933" stop-color="#d57983"/></radialGradient></defs><title>gut</title><g class="cls-1"><g id="Layer_1" data-name="Layer 1"><g id="GUT"><path class="cls-2" d="M54.724,47.1c-19.429-4.746-35.3,31.782-16.145,44.222,14.86,9.652,65.148,44.536,88.1,53.453,32.94,12.795,53.881-54.054,27.95-61.726A467.377,467.377,0,0,1,98.148,62.8C86.93,58.09,63.521,49.245,54.724,47.1Z" transform="translate(-29.921 -46.673)"/><path class="cls-3" d="M54.724,47.1c-19.429-4.746-35.3,31.782-16.145,44.222,14.86,9.652,65.148,44.536,88.1,53.453,32.94,12.795,53.881-54.054,27.95-61.726A467.377,467.377,0,0,1,98.148,62.8C86.93,58.09,63.521,49.245,54.724,47.1Z" transform="translate(-29.921 -46.673)"/><path class="cls-4" d="M54.724,47.1c-19.429-4.746-35.3,31.782-16.145,44.222,14.86,9.652,65.148,44.536,88.1,53.453,32.94,12.795,53.881-54.054,27.95-61.726A467.377,467.377,0,0,1,98.148,62.8C86.93,58.09,63.521,49.245,54.724,47.1Z" transform="translate(-29.921 -46.673)"/><path class="cls-5" d="M54.724,47.1c-19.429-4.746-35.3,31.782-16.145,44.222,14.86,9.652,65.148,44.536,88.1,53.453,32.94,12.795,53.881-54.054,27.95-61.726A467.377,467.377,0,0,1,98.148,62.8C86.93,58.09,63.521,49.245,54.724,47.1Z" transform="translate(-29.921 -46.673)"/><path class="cls-6" d="M154.634,83.045c25.745,8.273,5.313,73.655-27.95,61.726-16.375-5.873-11.952-31.046-8.788-39.31C123.815,90,137.959,77.686,154.634,83.045Z" transform="translate(-29.921 -46.673)"/><path class="cls-7" d="M134.716,146.723a24.219,24.219,0,0,1-8.2-1.481,16.539,16.539,0,0,1-9.685-9.053c-4.462-9.72-2-24.116.6-30.907,5.7-14.89,19.824-28.346,37.357-22.713h0c5.9,1.9,9.812,6.786,11.314,14.142,2.9,14.2-3.915,33.71-15.195,43.485C145.907,144.528,140.415,146.723,134.716,146.723Zm11.995-64.459c-13.27,0-23.687,11.2-28.348,23.375-2.542,6.639-4.959,20.691-.625,30.132a15.572,15.572,0,0,0,9.114,8.529c10.4,3.73,18.464-.584,23.4-4.86,11.037-9.563,17.708-28.642,14.87-42.529-.995-4.868-3.648-11.143-10.641-13.39A25.308,25.308,0,0,0,146.711,82.264Z" transform="translate(-29.921 -46.673)"/><path class="cls-8" d="M152.428,87.8c21.773,7,4.494,62.291-23.638,52.2-13.849-4.967-10.108-26.256-7.432-33.245C126.364,93.685,138.326,83.269,152.428,87.8Z" transform="translate(-29.921 -46.673)"/></g></g></g></svg>