<svg id="Layer_1" data-name="Layer 1" xmlns="http://www.w3.org/2000/svg" xmlns:xlink="http://www.w3.org/1999/xlink" viewBox="0 0 69 121.373"><defs><style>.cls-1{fill:url(#linear-gradient);}.cls-2{fill:url(#linear-gradient-2);}.cls-3{fill:url(#linear-gradient-3);}.cls-4{fill:url(#linear-gradient-4);}.cls-5{fill:url(#radial-gradient);}.cls-6{fill:url(#linear-gradient-5);}.cls-7{mask:url(#mask);}.cls-8{fill:url(#radial-gradient-2);}.cls-9{mask:url(#mask-2);}.cls-10{fill:url(#radial-gradient-3);}.cls-11{fill:#784f1b;}.cls-12{fill:url(#radial-gradient-4);}.cls-13{fill:url(#linear-gradient-6);}.cls-14{mask:url(#mask-3);}.cls-15{fill:url(#radial-gradient-5);}.cls-16{mask:url(#mask-4);}.cls-17{fill:url(#radial-gradient-6);}</style><linearGradient id="linear-gradient" x1="-64.164" y1="63.174" x2="-64.164" y2="71.976" gradientTransform="translate(27.836 160.479) rotate(180)" gradientUnits="userSpaceOnUse"><stop offset="0"/><stop offset="0.217" stop-color="#4a4a4a"/><stop offset="0.427" stop-color="#8b8b8b"/><stop offset="0.617" stop-color="#bdbdbd"/><stop offset="0.781" stop-color="#e1e1e1"/><stop offset="0.914" stop-color="#f7f7f7"/><stop offset="1" stop-color="#fff"/></linearGradient><linearGradient id="linear-gradient-2" x1="150.164" y1="529.09" x2="150.164" y2="537.892" gradientTransform="translate(-58.164 -377.738)" gradientUnits="userSpaceOnUse"><stop offset="0.07"/><stop offset="0.909" stop-color="#e6e6e6"/><stop offset="1" stop-color="#fff"/></linearGradient><linearGradient id="linear-gradient-3" x1="134.164" y1="333.628" x2="134.164" y2="342.43" gradientTransform="translate(-26.164 -182.276)" gradientUnits="userSpaceOnUse"><stop offset="0.175"/><stop offset="0.28" stop-color="#313131"/><stop offset="0.428" stop-color="#6e6e6e"/><stop offset="0.569" stop-color="#a2a2a2"/><stop offset="0.701" stop-color="#cacaca"/><stop offset="0.821" stop-color="#e7e7e7"/><stop offset="0.924" stop-color="#f9f9f9"/><stop offset="1" stop-color="#fff"/></linearGradient><linearGradient id="linear-gradient-4" x1="-80.257" y1="63.175" x2="-80.257" y2="72.127" gradientTransform="translate(27.836 160.479) rotate(180)" gradientUnits="userSpaceOnUse"><stop offset="0"/><stop offset="0.332" stop-color="#636363"/><stop offset="0.722" stop-color="#d2d2d2"/><stop offset="0.895" stop-color="#fff"/></linearGradient><radialGradient id="radial-gradient" cx="124.013" cy="248.162" r="31.598" gradientTransform="translate(-26.164 -182.276)" gradientUnits="userSpaceOnUse"><stop offset="0.744" stop-color="#b57729"/><stop offset="1" stop-color="#d6c137"/></radialGradient><linearGradient id="linear-gradient-5" x1="123.137" y1="306.605" x2="113.058" y2="306.605" gradientTransform="translate(-26.164 -182.276)" gradientUnits="userSpaceOnUse"><stop offset="0" stop-color="#b57729"/><stop offset="0.999" stop-color="#d6c136"/></linearGradient><mask id="mask" x="21.399" y="49.157" width="10.101" height="8.858" maskUnits="userSpaceOnUse"><g transform="translate(-65.5 -39.314)"><path class="cls-1" d="M87,97.329V93.471a5,5,0,0,1,10,0v3.858"/></g></mask><radialGradient id="radial-gradient-2" cx="-60.962" cy="65.777" r="6.944" gradientTransform="translate(27.836 161.37) rotate(180) scale(1 1.014)" gradientUnits="userSpaceOnUse"><stop offset="0" stop-color="#d6c137"/><stop offset="0.213" stop-color="#ceaf34"/><stop offset="0.731" stop-color="#bc862c"/><stop offset="1" stop-color="#b57729"/></radialGradient><mask id="mask-2" x="21.5" y="112.015" width="10" height="8.733" maskUnits="userSpaceOnUse"><g transform="translate(-65.5 -39.314)"><path class="cls-2" d="M97,151.328v3.858a5,5,0,0,1-10,0v-3.858"/></g></mask><radialGradient id="radial-gradient-3" cx="149.905" cy="523.092" r="6.848" gradientTransform="translate(-58.164 -1040.231) scale(1 2.266)" xlink:href="#radial-gradient-2"/><radialGradient id="radial-gradient-4" cx="127.764" cy="247.466" r="32.364" gradientTransform="translate(-26.164 -182.276)" gradientUnits="userSpaceOnUse"><stop offset="0.698" stop-color="#d6c137"/><stop offset="1" stop-color="#b57729"/></radialGradient><linearGradient id="linear-gradient-6" x1="139.137" y1="306.605" x2="129.058" y2="306.605" gradientTransform="translate(-26.164 -182.276)" gradientUnits="userSpaceOnUse"><stop offset="0" stop-color="#b57729"/><stop offset="1" stop-color="#d6c137"/></linearGradient><mask id="mask-3" x="37.5" y="112.015" width="10" height="8.733" maskUnits="userSpaceOnUse"><g transform="translate(-65.5 -39.314)"><path class="cls-3" d="M113,151.328v3.858a5,5,0,0,1-10,0v-3.858"/></g></mask><radialGradient id="radial-gradient-5" cx="133.905" cy="327.63" r="6.848" gradientTransform="translate(-26.164 -597.217) scale(1 2.266)" xlink:href="#radial-gradient-2"/><mask id="mask-4" x="37.5" y="49.133" width="10.186" height="8.882" maskUnits="userSpaceOnUse"><g transform="translate(-65.5 -39.314)"><path class="cls-4" d="M103,97.329V93.471a5.066,5.066,0,0,1,5-5.025,5.173,5.173,0,0,1,5.186,4.958L113,97.329"/></g></mask><radialGradient id="radial-gradient-6" cx="-80.708" cy="57.748" r="6.848" gradientTransform="translate(27.836 233.617) rotate(180) scale(1 2.266)" gradientUnits="userSpaceOnUse"><stop offset="0" stop-color="#b57729"/><stop offset="0.337" stop-color="#c2952f"/><stop offset="0.764" stop-color="#d1b535"/><stop offset="1" stop-color="#d6c137"/></radialGradient></defs><title>EPOR</title><g id="EPOR"><path class="cls-5" d="M92,160.061a5,5,0,0,1-5-5V96.738a34.118,34.118,0,0,1-11.042-7.381,34,34,0,0,1,0-48.083,5,5,0,0,1,7.071,7.071A24.01,24.01,0,0,0,93.162,88.327l.26.077A5,5,0,0,1,97,93.2v61.864A5,5,0,0,1,92,160.061Z" transform="translate(-65.5 -39.314)"/><path class="cls-6" d="M92,160.061a4.938,4.938,0,0,1-5-4.875V93.471a5,5,0,0,1,10,0v61.715A4.938,4.938,0,0,1,92,160.061Z" transform="translate(-65.5 -39.314)"/><g class="cls-7"><path class="cls-8" d="M87,97.329l-.1-3.972A5.037,5.037,0,0,1,92,88.471a4.766,4.766,0,0,1,5,5v3.858" transform="translate(-65.5 -39.314)"/></g><g class="cls-9"><path class="cls-10" d="M97,151.328v3.858a5,5,0,0,1-10,0v-3.858" transform="translate(-65.5 -39.314)"/></g><path class="cls-11" d="M92,160.686a5.507,5.507,0,0,1-5.5-5.5V97.071a34.505,34.505,0,0,1-10.9-56.15A5.5,5.5,0,0,1,83.383,48.7,23.51,23.51,0,0,0,93.3,87.848l.26.077A5.533,5.533,0,0,1,97.5,93.2v61.989A5.507,5.507,0,0,1,92,160.686ZM79.494,40.313a4.489,4.489,0,0,0-3.182,1.315,33.5,33.5,0,0,0,0,47.375,33.851,33.851,0,0,0,10.879,7.273l.309.128v58.782a4.5,4.5,0,0,0,9,0V93.2a4.526,4.526,0,0,0-3.22-4.314l-.26-.077A24.5,24.5,0,0,1,82.676,47.992a4.5,4.5,0,0,0-3.182-7.679Z" transform="translate(-65.5 -39.314)"/><path class="cls-12" d="M108,160.061a5,5,0,0,0,5-5V96.738a34.118,34.118,0,0,0,11.042-7.381,34,34,0,0,0,0-48.083,5,5,0,1,0-7.071,7.071,24.01,24.01,0,0,1-10.132,39.981l-.26.077A5,5,0,0,0,103,93.2v61.864A5,5,0,0,0,108,160.061Z" transform="translate(-65.5 -39.314)"/><path class="cls-13" d="M108,160.061a4.938,4.938,0,0,1-5-4.875V93.471a5,5,0,0,1,10,0v61.715A4.938,4.938,0,0,1,108,160.061Z" transform="translate(-65.5 -39.314)"/><g class="cls-14"><path class="cls-15" d="M113,151.328v3.858a5,5,0,0,1-10,0v-3.858" transform="translate(-65.5 -39.314)"/></g><g class="cls-16"><path class="cls-17" d="M103,97.329V93.471a5,5,0,0,1,10,0v3.267" transform="translate(-65.5 -39.314)"/></g><path class="cls-11" d="M108,160.561a5.507,5.507,0,0,1-5.5-5.5V93.2a5.533,5.533,0,0,1,3.936-5.273l.259-.077A23.5,23.5,0,0,0,116.617,48.7a5.5,5.5,0,1,1,7.778-7.778,34.513,34.513,0,0,1-10.9,56.15v57.991A5.507,5.507,0,0,1,108,160.561ZM120.506,40.313a4.5,4.5,0,0,0-3.182,7.679A24.51,24.51,0,0,1,106.98,88.807l-.259.077A4.526,4.526,0,0,0,103.5,93.2v61.864a4.5,4.5,0,0,0,9,0V96.4l.309-.128A33.851,33.851,0,0,0,123.688,89a33.5,33.5,0,0,0,0-47.375A4.489,4.489,0,0,0,120.506,40.313Z" transform="translate(-65.5 -39.314)"/></g></svg>