<svg id="Layer_1" data-name="Layer 1" xmlns="http://www.w3.org/2000/svg" xmlns:xlink="http://www.w3.org/1999/xlink" viewBox="0 0 71.641 187.862"><defs><style>.cls-1{fill:url(#linear-gradient);}.cls-2{fill:url(#linear-gradient-2);}.cls-3{fill:url(#radial-gradient);}.cls-4{fill:url(#radial-gradient-2);}.cls-5{fill:url(#radial-gradient-3);}.cls-6{fill:url(#radial-gradient-4);}</style><linearGradient id="linear-gradient" x1="-105.015" y1="-727.944" x2="-153.399" y2="-727.944" gradientTransform="translate(237.128 835.927)" gradientUnits="userSpaceOnUse"><stop offset="0" stop-color="#48b6ff"/><stop offset="1" stop-color="#270f85"/></linearGradient><linearGradient id="linear-gradient-2" x1="-114.06" y1="-727.944" x2="-172.948" y2="-727.944" xlink:href="#linear-gradient"/><radialGradient id="radial-gradient" cx="-103.654" cy="-811.214" r="20.82" gradientTransform="translate(237.128 835.927)" gradientUnits="userSpaceOnUse"><stop offset="0" stop-color="#48b6ff"/><stop offset="1" stop-color="#bb3b9b"/></radialGradient><radialGradient id="radial-gradient-2" cx="230.352" cy="579.254" r="20.82" gradientTransform="translate(324.506 603.968) rotate(180)" xlink:href="#radial-gradient"/><radialGradient id="radial-gradient-3" cx="432.813" cy="371.437" r="20.82" gradientTransform="matrix(-0.939, -0.345, 0.345, -0.939, 394.859, 632.418)" xlink:href="#radial-gradient"/><radialGradient id="radial-gradient-4" cx="-593.691" cy="-426.162" r="20.82" gradientTransform="translate(76.288 893.247) rotate(55.652)" xlink:href="#radial-gradient"/></defs><title>FGFR1</title><g id="FGFR1"><path class="cls-1" d="M97.349,193.931a2.678,2.678,0,0,1-2.678-2.678V168.678a17.53,17.53,0,0,1-2.792.239c-4.95,0-8.149-3.2-8.149-8.149a8.149,8.149,0,0,1,16.3,0v.731c12.014-5.234,26.73-19.078,26.73-25.5V86.558c0-14.12-4.247-18.568-9.163-23.72-6.109-6.4-13.033-13.654-13.033-38.125a2.678,2.678,0,1,1,5.357,0c0,22.325,5.872,28.477,11.551,34.427,5.234,5.483,10.645,11.152,10.645,27.418V136c0,9.695-17.845,25.949-32.086,31.216v24.038A2.678,2.678,0,0,1,97.349,193.931Zm-5.47-35.955a2.8,2.8,0,0,0-2.792,2.792c0,2.461,1.411,2.792,2.792,2.792a14.27,14.27,0,0,0,2.792-.3v-2.491A2.8,2.8,0,0,0,91.879,157.976Z" transform="translate(-64.18 -6.069)"/><path class="cls-2" d="M66.858,193.931a2.678,2.678,0,0,1-2.678-2.678c0-20.01,4.531-29.619,19.391-41.128l3.413-2.634c11-8.476,14.172-11.083,14.172-14.756,0-1.377-.44-1.879-1.5-3.091-1.75-1.994-4.146-4.724-4.136-11.862V86.558c0-16.266,5.412-21.935,10.645-27.418,5.679-5.949,11.551-12.1,11.551-34.427a2.678,2.678,0,1,1,5.357,0c0,24.471-6.924,31.725-13.033,38.125-4.917,5.151-9.163,9.6-9.163,23.72v31.227c-.007,5.12,1.359,6.677,2.805,8.324a9.176,9.176,0,0,1,2.835,6.625c0,6.471-4.76,10.139-16.259,19l-3.4,2.626c-12.21,9.456-17.314,16.672-17.314,36.893A2.678,2.678,0,0,1,66.858,193.931Z" transform="translate(-64.18 -6.069)"/><path class="cls-3" d="M130.464,43.358c-9.518,0-15.43-7.144-15.43-18.645s5.913-18.644,15.43-18.644a5.357,5.357,0,0,1,0,10.713c-1.411,0-4.717,0-4.717,7.931s3.306,7.931,4.717,7.931a5.357,5.357,0,0,1,0,10.713Z" transform="translate(-64.18 -6.069)"/><path class="cls-4" d="M97.165,6.069c9.518,0,15.43,7.144,15.43,18.645s-5.913,18.644-15.43,18.644a5.357,5.357,0,0,1,0-10.713c1.411,0,4.717,0,4.717-7.931s-3.306-7.931-4.717-7.931a5.357,5.357,0,0,1,0-10.713Z" transform="translate(-64.18 -6.069)"/><path class="cls-5" d="M125.948,118.044c8.934,3.282,12.02,12.027,8.054,22.822s-11.98,15.461-20.913,12.179a5.357,5.357,0,0,1,3.695-10.056c1.325.487,4.428,1.627,7.163-5.818s-.368-8.585-1.692-9.072a5.357,5.357,0,0,1,3.695-10.056Z" transform="translate(-64.18 -6.069)"/><path class="cls-6" d="M76.077,170.665c-5.37-7.858-2.808-16.771,6.688-23.259s18.729-5.638,24.1,2.22a5.357,5.357,0,1,1-8.845,6.045c-.8-1.165-2.661-3.894-9.209.58s-4.683,7.2-3.887,8.369a5.357,5.357,0,0,1-8.845,6.045Z" transform="translate(-64.18 -6.069)"/></g></svg>