<svg id="Layer_1" data-name="Layer 1" xmlns="http://www.w3.org/2000/svg" xmlns:xlink="http://www.w3.org/1999/xlink" viewBox="0 0 16.422 155.075"><defs><style>.cls-1{fill:url(#linear-gradient);}.cls-2{fill:url(#radial-gradient);}.cls-3{fill:url(#radial-gradient-2);}.cls-4{fill:url(#radial-gradient-3);}.cls-5{fill:url(#radial-gradient-4);}.cls-6{fill:url(#radial-gradient-5);}</style><linearGradient id="linear-gradient" x1="96.598" y1="100.742" x2="103.694" y2="100.742" gradientUnits="userSpaceOnUse"><stop offset="0" stop-color="#472e07"/><stop offset="0.359" stop-color="#b0720f"/><stop offset="1" stop-color="#472e07"/></linearGradient><radialGradient id="radial-gradient" cx="5.091" cy="66.713" r="8.211" gradientUnits="userSpaceOnUse"><stop offset="0" stop-color="#b0720f"/><stop offset="1" stop-color="#472e07"/></radialGradient><radialGradient id="radial-gradient-2" cx="5.091" cy="51.33" r="8.211" xlink:href="#radial-gradient"/><radialGradient id="radial-gradient-3" cx="5.419" cy="35.946" r="8.211" xlink:href="#radial-gradient"/><radialGradient id="radial-gradient-4" cx="5.583" cy="20.643" r="8.211" xlink:href="#radial-gradient"/><radialGradient id="radial-gradient-5" cx="97.583" cy="28.853" r="8.165" xlink:href="#radial-gradient"/></defs><title>ROBO</title><path class="cls-1" d="M100.211,23.212a8.073,8.073,0,0,0-5.51,14.1,1.972,1.972,0,0,1,0,2.935,8.208,8.208,0,0,0,0,12.173,1.972,1.972,0,0,1,0,2.935,8.208,8.208,0,0,0,0,12.173,1.972,1.972,0,0,1,0,2.935,8.208,8.208,0,0,0,0,12.173,1.972,1.972,0,0,1,0,2.935,8.206,8.206,0,0,0,1.234,13.093,2.012,2.012,0,0,1,.992,1.708v74.618a3.284,3.284,0,0,0,6.569,0V100.371a2.012,2.012,0,0,1,.992-1.708,8.206,8.206,0,0,0,1.233-13.092,1.972,1.972,0,0,1,0-2.935,8.208,8.208,0,0,0,0-12.173,1.972,1.972,0,0,1,0-2.935,8.208,8.208,0,0,0,0-12.173,1.972,1.972,0,0,1,0-2.935,8.208,8.208,0,0,0,0-12.171,1.97,1.97,0,0,1-.047-2.9,8.309,8.309,0,0,0,2.745-6.126A8.079,8.079,0,0,0,100.211,23.212Z" transform="translate(-92 -23.198)"/><circle class="cls-2" cx="8.211" cy="68.52" r="8.211"/><circle class="cls-3" cx="8.211" cy="53.3" r="8.211"/><circle class="cls-4" cx="8.211" cy="38.245" r="8.211"/><circle class="cls-5" cx="8.211" cy="23.107" r="8.211"/><path class="cls-6" d="M108.422,31.224a8.213,8.213,0,0,0-16.422,0,8.211,8.211,0,1,0,16.422,0Z" transform="translate(-92 -23.198)"/></svg>