<svg id="Layer_1" data-name="Layer 1" xmlns="http://www.w3.org/2000/svg" xmlns:xlink="http://www.w3.org/1999/xlink" viewBox="0 0 79.008 131.499"><defs><style>.cls-1{fill:url(#linear-gradient);}.cls-2{fill:url(#linear-gradient-2);}.cls-3{fill:url(#linear-gradient-3);}.cls-4{fill:url(#linear-gradient-4);}</style><linearGradient id="linear-gradient" x1="105.752" y1="100.025" x2="140.551" y2="100.025" gradientUnits="userSpaceOnUse"><stop offset="0.15" stop-color="#174a43"/><stop offset="0.5" stop-color="#22c664"/><stop offset="0.85" stop-color="#174a43"/></linearGradient><linearGradient id="linear-gradient-2" x1="123.152" y1="34.275" x2="123.152" y2="165.774" gradientUnits="userSpaceOnUse"><stop offset="0" stop-color="#0f302c"/><stop offset="0.003" stop-color="#0f322d" stop-opacity="0.988"/><stop offset="0.127" stop-color="#187446" stop-opacity="0.567"/><stop offset="0.279" stop-color="#1ea357" stop-opacity="0.27"/><stop offset="0.487" stop-color="#21be61" stop-opacity="0.098"/><stop offset="1" stop-color="#22c664" stop-opacity="0.05"/></linearGradient><linearGradient id="linear-gradient-3" x1="61.544" y1="110.025" x2="96.343" y2="110.025" xlink:href="#linear-gradient"/><linearGradient id="linear-gradient-4" x1="78.943" y1="54.276" x2="78.943" y2="165.774" xlink:href="#linear-gradient-2"/></defs><title>NRPI_PLEXIN-A</title><g id="NRPI"><path class="cls-1" d="M140.551,51.675A17.4,17.4,0,1,0,113.5,66.143a10.2,10.2,0,0,1,4.655,8.449v85.994a5.121,5.121,0,0,0,3.966,5.084,5.005,5.005,0,0,0,6.034-4.9V74.587a10.008,10.008,0,0,1,4.535-8.364A17.371,17.371,0,0,0,140.551,51.675Z" transform="translate(-61.544 -34.275)"/><path class="cls-2" d="M140.551,51.675A17.4,17.4,0,1,0,113.5,66.143a10.2,10.2,0,0,1,4.655,8.449v85.994a5.121,5.121,0,0,0,3.966,5.084,5.005,5.005,0,0,0,6.034-4.9V74.587a10.008,10.008,0,0,1,4.535-8.364A17.371,17.371,0,0,0,140.551,51.675Z" transform="translate(-61.544 -34.275)"/></g><g id="PLEXIN-A"><path class="cls-3" d="M96.343,71.676A17.4,17.4,0,1,0,69.288,86.145a10.2,10.2,0,0,1,4.655,8.449v65.993a5.121,5.121,0,0,0,3.966,5.084,5.005,5.005,0,0,0,6.034-4.9V94.589a10.008,10.008,0,0,1,4.535-8.364A17.371,17.371,0,0,0,96.343,71.676Z" transform="translate(-61.544 -34.275)"/><path class="cls-4" d="M96.343,71.676A17.4,17.4,0,1,0,69.288,86.145a10.2,10.2,0,0,1,4.655,8.449v65.993a5.121,5.121,0,0,0,3.966,5.084,5.005,5.005,0,0,0,6.034-4.9V94.589a10.008,10.008,0,0,1,4.535-8.364A17.371,17.371,0,0,0,96.343,71.676Z" transform="translate(-61.544 -34.275)"/></g></svg>