<svg id="Layer_1" data-name="Layer 1" xmlns="http://www.w3.org/2000/svg" xmlns:xlink="http://www.w3.org/1999/xlink" viewBox="0 0 52.411 22.807"><defs><style>.cls-1{fill:url(#linear-gradient);}.cls-2{fill:#1f5e20;}.cls-3{font-size:12px;fill:#fff;font-family:Arial-BoldMT, Arial;font-weight:700;}</style><linearGradient id="linear-gradient" x1="26.419" y1="21.222" x2="26.419" y2="1.222" gradientUnits="userSpaceOnUse"><stop offset="0" stop-color="#d000a8"/><stop offset="1" stop-color="#1f5e20"/></linearGradient></defs><title>MYO1C</title><g id="MYO1C"><rect class="cls-1" x="1.419" y="1.222" width="50" height="20" rx="10" ry="10"/><path class="cls-2" d="M114.471,109.938c-5.116-.009-10.231.43-15.347.837-2.558.2-5.116.388-7.673.457-1.279.056-2.558.074-3.837.093l-1.918.031c-.643.008-1.244.035-2.028-.008a11.379,11.379,0,0,1-10.6-11.956A11.057,11.057,0,0,1,76.7,91.743a10.866,10.866,0,0,1,7.771-2.776c5.116.282,10.231.437,15.347.335,2.558-.059,5.116-.177,7.674-.341l3.837-.235,1.918-.1c.643-.026,1.251-.086,2-.048a10.712,10.712,0,0,1,7.62,3.642,10.505,10.505,0,0,1,2.537,7.948,10.8,10.8,0,0,1-3.736,7.076A11.134,11.134,0,0,1,114.471,109.938Zm0-.3A9.061,9.061,0,0,0,123.5,100.1a9.574,9.574,0,0,0-8.421-9.033l-7.586-.453c-2.558-.164-5.116-.282-7.674-.341-5.116-.1-10.231.053-15.347.335a9.151,9.151,0,0,0-6.1,2.865,8.872,8.872,0,0,0-2.468,6.016,8.565,8.565,0,0,0,2.316,5.925,8.651,8.651,0,0,0,5.667,2.741c.492.05,1.171.052,1.807.063l1.918.031c1.279.019,2.558.037,3.837.093,2.558.069,5.116.252,7.673.457C104.24,109.209,109.355,109.647,114.471,109.638Z" transform="translate(-73.052 -88.566)"/><text class="cls-3" transform="translate(5.083 14.383)">MYO1C</text></g></svg>