<svg id="Layer_1" data-name="Layer 1" xmlns="http://www.w3.org/2000/svg" xmlns:xlink="http://www.w3.org/1999/xlink" viewBox="0 0 82.857 22.949"><defs><style>.cls-1{fill:url(#linear-gradient);}.cls-2{fill:#ea9611;}.cls-3{font-size:12px;fill:#fff;font-family:Arial-BoldMT, Arial;font-weight:700;}.cls-4{letter-spacing:-0.074em;}.cls-5{letter-spacing:-0.018em;}</style><linearGradient id="linear-gradient" x1="41.781" y1="21.347" x2="41.781" y2="1.347" gradientUnits="userSpaceOnUse"><stop offset="0" stop-color="#f23818"/><stop offset="1" stop-color="#ea9611"/></linearGradient></defs><title>R-ICO-013775</title><g id="R-ICO-013775"><rect class="cls-1" x="1.281" y="1.347" width="81" height="20" rx="10"/><path class="cls-2" d="M130.5,110.15c-7.7-.009-15.4.43-23.1.837-7.7.458-15.4.547-23.1.613-3.849,0-7.7.019-11.548-.037l-2.888-.038c-.445,0-1.075-.045-1.6-.087a12.344,12.344,0,0,1-1.628-.326,10.8,10.8,0,0,1-3.026-1.315,10.936,10.936,0,0,1-2.515-2.11,10.815,10.815,0,0,1-1.812-2.725,10.263,10.263,0,0,1-.947-3.126,11.193,11.193,0,0,1,.931-6.344A10.971,10.971,0,0,1,69.5,89.179c7.7.261,15.4.449,23.1.335,3.849-.05,7.7-.194,11.548-.349l11.549-.414c3.849-.085,7.7-.131,11.548-.07l2.888.039c.451,0,1.056.062,1.574.111a11.949,11.949,0,0,1,1.582.344,9.754,9.754,0,0,1,2.911,1.342,10.456,10.456,0,0,1,2.358,2.113,10.291,10.291,0,0,1,1.645,2.66,9.943,9.943,0,0,1,.8,2.983,10.644,10.644,0,0,1-10.5,11.877Zm0-.3a9.771,9.771,0,0,0,5.341-1.658,9.54,9.54,0,0,0,3.449-4.323,9.264,9.264,0,0,0-2.123-9.967,8.48,8.48,0,0,0-2.089-1.532,8.935,8.935,0,0,0-2.388-.889,9.337,9.337,0,0,0-1.251-.192c-.442-.006-.8-.032-1.309-.009l-2.888.039c-3.849.061-7.7.015-11.548-.07l-11.549-.414c-3.849-.155-7.7-.3-11.548-.349-7.7-.114-15.4.074-23.1.335a9.163,9.163,0,0,0-4.892,1.671,9.4,9.4,0,0,0-3.162,3.965,8.786,8.786,0,0,0,1.733,9.324,8.045,8.045,0,0,0,1.933,1.535,7.821,7.821,0,0,0,2.273.916,9.123,9.123,0,0,0,1.2.211c.432.012.763.047,1.28.032l2.888-.038c3.849-.056,7.7-.036,11.548-.037,7.7.066,15.4.155,23.1.613C115.1,109.42,122.8,109.859,130.5,109.85Z" transform="translate(-58.219 -88.653)"/><text class="cls-3" transform="translate(4.005 14.66)">RAGUL<tspan class="cls-4" x="42.662" y="0">A</tspan><tspan class="cls-5" x="50.438" y="0">T</tspan><tspan x="57.551" y="0">OR</tspan></text></g></svg>