<svg id="Layer_1" data-name="Layer 1" xmlns="http://www.w3.org/2000/svg" xmlns:xlink="http://www.w3.org/1999/xlink" viewBox="0 0 14.049 110.598"><defs><style>.cls-1{fill:none;stroke-linecap:round;stroke-linejoin:round;stroke-width:2px;stroke:url(#linear-gradient);}</style><linearGradient id="linear-gradient" x1="981.485" y1="824.497" x2="995.534" y2="824.497" gradientTransform="matrix(1, 0, 0, -1, -889.942, 923.298)" gradientUnits="userSpaceOnUse"><stop offset="0" stop-color="#ff74b9"/><stop offset="1" stop-color="#250000"/></linearGradient></defs><title>MICA</title><path id="MICA" class="cls-1" d="M100.538,153.108c-4.814-1.683-7.989-5.183.588-13.516,5.259-5.11,3.93-9.983.091-11.071-9.253-2.623-8.648-4.07-8.649-13.736v-6.669c0-9.772,9.32-4.185,9.32-12.238a4.726,4.726,0,0,0-4.67-4.67,4.67,4.67,0,1,1,0-9.339,4.67,4.67,0,0,0,0-9.339,4.67,4.67,0,0,1,0-9.339,4.67,4.67,0,0,0,0-9.339,4.67,4.67,0,1,1,4.67-4.67" transform="translate(-91.549 -43.51)"/></svg>