<svg id="Layer_1" data-name="Layer 1" xmlns="http://www.w3.org/2000/svg" xmlns:xlink="http://www.w3.org/1999/xlink" viewBox="0 0 52.019 45.986"><defs><style>.cls-1{fill:url(#radial-gradient);}.cls-2{mask:url(#mask);}.cls-3{fill:url(#radial-gradient-2);}.cls-4{fill:url(#radial-gradient-3);}.cls-5{fill:url(#radial-gradient-4);}.cls-6{fill:url(#radial-gradient-5);}.cls-7{fill:url(#radial-gradient-6);}.cls-8{fill:url(#radial-gradient-7);}.cls-9{fill:url(#radial-gradient-8);}.cls-10{fill:url(#radial-gradient-9);}.cls-11{fill:url(#radial-gradient-10);}.cls-12{fill:url(#radial-gradient-11);}.cls-13{fill:url(#radial-gradient-12);}.cls-14{fill:url(#radial-gradient-13);}.cls-15{fill:url(#radial-gradient-14);}.cls-16{fill:url(#radial-gradient-15);}</style><radialGradient id="radial-gradient" cx="342.437" cy="-92.655" r="26.034" gradientTransform="matrix(0.275, -0.83, 0.956, 0.29, 92.33, 413.873)" gradientUnits="userSpaceOnUse"><stop offset="0.744" stop-color="#fff"/><stop offset="1"/></radialGradient><mask id="mask" x="0" y="0" width="52.019" height="45.986" maskUnits="userSpaceOnUse"><g transform="translate(-71.829 -79.826)"><path id="HMGA" class="cls-1" d="M105.025,81.12c-13.8-4.19-28.207,2.128-32.176,14.112s4,25.1,17.8,29.285,28.207-2.128,32.176-14.112S118.826,85.31,105.025,81.12Z"/></g></mask><radialGradient id="radial-gradient-2" cx="345.538" cy="-87.967" r="26.805" gradientTransform="matrix(0.275, -0.83, 0.956, 0.29, 92.33, 413.873)" gradientUnits="userSpaceOnUse"><stop offset="0" stop-color="#9d60a7"/><stop offset="1" stop-color="#753580"/></radialGradient><radialGradient id="radial-gradient-3" cx="85.588" cy="143.783" r="12.586" gradientTransform="translate(2.127 -41.373)" gradientUnits="userSpaceOnUse"><stop offset="0" stop-color="#f7c523"/><stop offset="0.818" stop-color="#bc992f"/><stop offset="1" stop-color="#9e8127"/></radialGradient><radialGradient id="radial-gradient-4" cx="100.192" cy="152.484" r="9.48" gradientTransform="translate(3.043 -43.389)" xlink:href="#radial-gradient-3"/><radialGradient id="radial-gradient-5" cx="90.506" cy="129.323" r="9.48" gradientTransform="translate(-0.065 -41.828)" xlink:href="#radial-gradient-3"/><radialGradient id="radial-gradient-6" cx="89.291" cy="154.638" r="7.35" gradientTransform="translate(3.345 -41.844)" gradientUnits="userSpaceOnUse"><stop offset="0" stop-color="#b0edf2"/><stop offset="0.818" stop-color="#2fa7bc"/><stop offset="1" stop-color="#2991a3"/></radialGradient><radialGradient id="radial-gradient-7" cx="80.982" cy="135.072" r="7.35" gradientTransform="translate(0.721 -40.508)" xlink:href="#radial-gradient-6"/><radialGradient id="radial-gradient-8" cx="160.482" cy="142.826" r="8.704" gradientTransform="matrix(1.222, -0.153, 0.163, 1.039, -117.885, -32.222)" xlink:href="#radial-gradient-6"/><radialGradient id="radial-gradient-9" cx="108.196" cy="146.714" r="7.35" gradientTransform="translate(2.069 -44.38)" xlink:href="#radial-gradient-6"/><radialGradient id="radial-gradient-10" cx="49.531" cy="-66.142" r="10.907" gradientTransform="matrix(0.687, -0.252, 0.265, 0.438, 81.331, 156.602)" gradientUnits="userSpaceOnUse"><stop offset="0" stop-color="#f7c590"/><stop offset="0.118" stop-color="#e5b482"/><stop offset="0.531" stop-color="#ac7f54"/><stop offset="0.837" stop-color="#885e37"/><stop offset="0.999" stop-color="#7a512c"/></radialGradient><radialGradient id="radial-gradient-11" cx="-66.994" cy="304.656" r="10.907" gradientTransform="matrix(0.705, 0.196, -0.041, 0.51, 141.175, -37.183)" xlink:href="#radial-gradient-10"/><radialGradient id="radial-gradient-12" cx="-10.514" cy="492.099" r="10.907" gradientTransform="matrix(0.592, 0.43, -0.216, 0.464, 221.374, -128.634)" xlink:href="#radial-gradient-10"/><radialGradient id="radial-gradient-13" cx="95.785" cy="159.636" r="4.49" gradientTransform="translate(3.839 -42.71)" gradientUnits="userSpaceOnUse"><stop offset="0" stop-color="#c8e323"/><stop offset="0.818" stop-color="#537e2f"/><stop offset="1" stop-color="#2f6540"/></radialGradient><radialGradient id="radial-gradient-14" cx="87.411" cy="352.153" r="4.49" gradientTransform="translate(435.495 21.252) rotate(90)" xlink:href="#radial-gradient-13"/><radialGradient id="radial-gradient-15" cx="166.451" cy="433.534" r="4.49" gradientTransform="translate(541.433 -66.129) rotate(90)" xlink:href="#radial-gradient-13"/></defs><title>SAHF</title><g id="SAHF"><g class="cls-2"><path id="HMGA-2" data-name="HMGA" class="cls-3" d="M105.025,81.12c-13.8-4.19-28.207,2.128-32.176,14.112s4,25.1,17.8,29.285,28.207-2.128,32.176-14.112S118.826,85.31,105.025,81.12Z" transform="translate(-71.829 -79.826)"/></g><circle id="nucleosome" class="cls-4" cx="89.933" cy="106.847" r="12.586" transform="translate(-85.731 -66.373) rotate(-7.943)"/><circle id="nucleosome-2" data-name="nucleosome" class="cls-5" cx="104.906" cy="112.437" r="9.48" transform="translate(-86.36 -64.251) rotate(-7.943)"/><circle id="nucleosome-3" data-name="nucleosome" class="cls-6" cx="92.113" cy="90.837" r="9.48" transform="translate(-83.498 -66.226) rotate(-7.943)"/><circle id="macroH2A" class="cls-7" cx="93.932" cy="115.386" r="7.35" transform="translate(-86.873 -65.739) rotate(-7.943)"/><circle id="macroH2A-2" data-name="macroH2A" class="cls-8" cx="82.998" cy="97.155" r="7.35" transform="translate(-84.459 -67.425) rotate(-7.943)"/><path id="macroH2A-3" data-name="macroH2A" class="cls-9" d="M114.482,93.29c-.785-5-6.182-8.45-12.054-7.715s-10,5.382-9.211,10.378,6.182,8.45,12.054,7.715S115.268,98.286,114.482,93.29Z" transform="translate(-71.829 -79.826)"/><circle id="macroH2A-4" data-name="macroH2A" class="cls-10" cx="111.561" cy="104.925" r="7.35" transform="translate(-85.258 -63.403) rotate(-7.943)"/><path id="HP1" class="cls-11" d="M107.633,113.575c-1.6-2.639-6.246-3.545-10.382-2.025s-6.195,4.892-4.6,7.531,6.246,3.545,10.382,2.025S109.231,116.213,107.633,113.575Z" transform="translate(-71.829 -79.826)"/><path id="HP1-2" data-name="HP1" class="cls-12" d="M90.5,109.663c.244-3.075-3-6.525-7.246-7.706s-7.886.354-8.13,3.429,3,6.525,7.246,7.706S90.256,112.737,90.5,109.663Z" transform="translate(-71.829 -79.826)"/><path id="HP1-3" data-name="HP1" class="cls-13" d="M115.374,102.483c1.3-2.8-.528-7.162-4.093-9.754s-7.511-2.427-8.815.368.528,7.162,4.093,9.754S114.07,105.278,115.374,102.483Z" transform="translate(-71.829 -79.826)"/><circle id="H3" class="cls-14" cx="100.415" cy="118.509" r="4.49" transform="translate(-87.242 -64.813) rotate(-7.943)"/><circle id="H3-2" data-name="H3" class="cls-15" cx="81.759" cy="109.454" r="4.49" transform="translate(-125.017 50.938) rotate(-62.215)"/><circle id="H3-3" data-name="H3" class="cls-16" cx="106.316" cy="101.114" r="4.49" transform="translate(-112.16 16.62) rotate(-41.74)"/></g></svg>