<svg id="Layer_1" data-name="Layer 1" xmlns="http://www.w3.org/2000/svg" xmlns:xlink="http://www.w3.org/1999/xlink" viewBox="0 0 123.522 143.8"><defs><style>.cls-1{fill:url(#radial-gradient);}.cls-2{fill:#2e4dc8;}.cls-3{isolation:isolate;}.cls-4{fill:url(#radial-gradient-2);}.cls-5{fill:#5656a5;}.cls-6{fill:url(#radial-gradient-3);}.cls-7{fill:#4b4b96;}</style><radialGradient id="radial-gradient" cx="-79.214" cy="94.683" r="90.025" gradientTransform="matrix(0.707, -0.707, -0.707, -0.707, 194.987, 98.003)" gradientUnits="userSpaceOnUse"><stop offset="0.001" stop-color="#d1daff"/><stop offset="1" stop-color="#4e66c8"/></radialGradient><radialGradient id="radial-gradient-2" cx="-314.795" cy="1170.973" r="21.816" gradientTransform="translate(95.409 -1154.905) rotate(-15.515)" gradientUnits="userSpaceOnUse"><stop offset="0" stop-color="#afbaf7"/><stop offset="0.311" stop-color="#6d96ce"/><stop offset="0.803" stop-color="#285fcc"/></radialGradient><radialGradient id="radial-gradient-3" cx="-318.91" cy="1177.803" r="4.208" gradientTransform="translate(99.327 -1149.784) rotate(-15.515)" gradientUnits="userSpaceOnUse"><stop offset="0" stop-color="#afbaf7"/><stop offset="0.312" stop-color="#b898ce"/><stop offset="0.803" stop-color="#515181"/></radialGradient></defs><title>Myeloid_cell</title><g id="Myeloid_cell"><path id="CYTOPLASM" class="cls-1" d="M134.46,37.98c9.39,5.36,19.318,12.261,23.37,22.451,4.886,12.282.552,27.068-2.92,42.136-1.909,8.287-3.048,18.236-7.637,26.29-7.022,12.3-19.94,20.336-30.186,27.344-8.98,6.138-15.054,11.915-24.671,13.23-10.472,1.435-19.559-2.4-28.652-7.594s-17.013-11.059-21.114-20.8c-4.363-10.387-2.736-21.333-1.032-34.083,1.435-10.769,2.051-23.221,8.075-33.786A88.579,88.579,0,0,1,75.325,44.577C85.762,37.223,96.007,30.7,107.187,29.982,116.323,29.4,126.491,33.433,134.46,37.98Z" transform="translate(-38.239 -28.1)"/><path id="MEMBRANE" class="cls-2" d="M161.579,67.354a24.022,24.022,0,0,0-3.844-10.381c-.063-.1-.128-.188-.193-.279-.045-.062-.091-.124-.1-.131a35,35,0,0,0-4-5.7,27.677,27.677,0,0,0-1.937-2.579,23.513,23.513,0,0,0-4.152-3.639,29,29,0,0,0-2.514-1.586c-1.07-.79-2.2-1.578-3.364-2.343a32.3,32.3,0,0,0-4.828-3.663,34.639,34.639,0,0,0-3.567-1.855,25.944,25.944,0,0,0-3.806-1.446l-.408-.132c-1.447-.664-2.947-1.291-4.459-1.864l-.181-.1a20.945,20.945,0,0,0-2-1.03,11.583,11.583,0,0,0-2.009-.687c-.637-.169-1.315-.314-2.029-.432a17.53,17.53,0,0,0-2.261-.207c-1.1-.222-2.272-.4-3.582-.547a20.43,20.43,0,0,0-6.908-.582,23.071,23.071,0,0,0-4.405.883,21.992,21.992,0,0,0-4.183,1.63c-.1.047-.2.095-.3.146a53.856,53.856,0,0,0-5.247,2.189c-.769.243-1.562.495-2.365.822a15.047,15.047,0,0,0-2.01,1.023c-.649.38-1.258.772-1.859,1.2s-1.208.9-1.826,1.423c-2.159,1.345-4.466,2.877-7.207,4.787-1.558.958-3.323,2.043-4.951,3.248a74.112,74.112,0,0,0-9.743,8.438,79.923,79.923,0,0,0-8.091,10c-1.325,1.916-2.45,3.693-3.433,5.418a54.323,54.323,0,0,0-2.943,5.742c-.065.139-.119.281-.171.421-.029.079-.058.157-.086.221A63.387,63.387,0,0,0,41.86,92.6c-.568,2.752-.989,5.046-1.324,7.225-.28,1.872-.54,3.862-.817,6.259l-.11.918c-.211,1.75-.429,3.56-.6,5.353-.247,2.5-.4,4.717-.461,6.708a68.387,68.387,0,0,0-.243,9.313,31.626,31.626,0,0,0,1.368,11.038,29.731,29.731,0,0,0,3.176,6.674,27.345,27.345,0,0,0,4.707,5.691l.393.352a47.924,47.924,0,0,0,7.22,6.24c1.059.9,2.1,1.765,3.217,2.55a44.376,44.376,0,0,0,6.212,3.592c1.265.6,2.42,1.109,3.45,1.506a61.044,61.044,0,0,0,6.164,2.693,32.013,32.013,0,0,0,10.655,3.063,24.118,24.118,0,0,0,2.478.124,32.972,32.972,0,0,0,4.965-.406,24.5,24.5,0,0,0,7.143-2.258l.519-.269a45.893,45.893,0,0,0,8.218-4.614c1.2-.681,2.44-1.384,3.636-2.145,1.919-1.243,3.738-2.632,5.5-3.976l.223-.169c1.072-.817,2.091-1.625,2.952-2.343,2.387-1.615,4.726-3.206,7.047-4.866a74.6,74.6,0,0,0,13.249-10.3,48.171,48.171,0,0,0,7-8.924,36.375,36.375,0,0,0,2.587-5.113,42.736,42.736,0,0,0,1.746-5.391c.061-.225.113-.451.166-.679l.038-.171c1.137-3.793,1.931-7.722,2.7-11.539l.069-.348c.151-.757.3-1.5.448-2.188.512-1.938,1.06-3.864,1.61-5.8l.148-.522c.949-3.512,1.755-7.133,2.395-10.765.341-1.93.606-3.874.781-5.715a70.738,70.738,0,0,0,.843-7.825A28.886,28.886,0,0,0,161.579,67.354Zm-8.79,37.144-.146.956c-.142.708-.288,1.419-.438,2.15l-.113.551c-.671,3.351-1.431,7.148-2.462,10.711l-.169.5c-.092.278-.184.554-.283.828-.665,1.812-1.464,3.552-2.081,4.854a43.565,43.565,0,0,1-2.6,4.515,56.967,56.967,0,0,1-6.667,8.109,132.5,132.5,0,0,1-12.041,10.746c-2.269,1.616-4.55,3.165-6.756,4.663l-.272.185a66.048,66.048,0,0,0-9.093,5.972c-.6.488-1.2.985-1.79,1.482-.483.406-.966.811-1.382,1.155a43.727,43.727,0,0,1-7.579,4.284l-.2.072c-.132.049-.262.1-.407.139a35.978,35.978,0,0,1-6.479,1.277,38.047,38.047,0,0,1-6.622.012,50.906,50.906,0,0,1-9.943-1.757,61.4,61.4,0,0,1-5.739-2.493l-.6-.371c-.879-.545-1.752-1.087-2.629-1.639-1.927-1.189-3.92-2.42-5.954-3.578l-1.12-.623c-.881-.487-1.762-.975-2.56-1.451a45.256,45.256,0,0,1-6.413-5.551c-.143-.169-.285-.338-.419-.508A48.436,48.436,0,0,1,46.2,144.12a28.725,28.725,0,0,1-1.427-2.958c-.446-1.019-.834-2.019-1.19-3.075A51.038,51.038,0,0,1,41.3,128.4a67.255,67.255,0,0,1,.206-8.868c.283-2.019.6-4.033.909-6.048.671-4.315,1.364-8.778,1.749-13.245l.109-1.273c.183-2.135.371-4.344.624-6.452A59.852,59.852,0,0,1,49.01,77.692l.1-.193c.174-.35.347-.7.535-1.048.864-1.623,1.91-3.224,2.922-4.772l.294-.449c1.007-1.549,2.115-3.083,3.188-4.566l.349-.482a109.213,109.213,0,0,1,7.936-9.407,102.593,102.593,0,0,1,8.942-8.464c1.483-1.259,3.071-2.513,4.87-3.845l.19-.15c.107-.084.214-.17.318-.244,2.2-1.519,4.2-2.841,6.109-4.04.567-.239,1.119-.494,1.67-.749l.929-.448a33.792,33.792,0,0,0,3.287-1.8c.408-.263.812-.544,1.216-.825.287-.2.574-.4.863-.592,1.658-.784,3.188-1.423,4.675-1.955l4.481-.855c.859-.157,1.751-.271,2.612-.381.469-.06.937-.119,1.405-.186,1.921-.284,3.834-.422,5.952-.559,1.2.12,2.42.3,3.622.547.358.135.717.266,1.073.4l.9.326a37.129,37.129,0,0,0,3.636,1.115c.459.1.926.188,1.395.274l.707.133c1.565.584,3.106,1.229,4.582,1.917l.486.314c.97.641,1.973,1.3,2.976,1.892.313.191.623.385.935.579.769.479,1.563.975,2.395,1.43,1.506.806,3.3,1.739,5.216,2.562,1.085.712,2.189,1.482,3.373,2.351.651.624,1.311,1.24,1.968,1.856l1.02.945c.918.854,1.833,1.7,2.778,2.526l.738.632c.491.418.984.837,1.46,1.275a32.144,32.144,0,0,1,3.8,5.426c.034.074.069.149.1.236a48.226,48.226,0,0,1,1.54,4.7,46.982,46.982,0,0,1,.943,4.85c.392,2.36.6,4.739.815,7.259l.024.282A67.533,67.533,0,0,1,157.6,82.5c-.437,1.975-.9,3.944-1.36,5.917q-.337,1.412-.684,2.822c-.623,2.55-1.267,5.187-1.8,7.831C153.409,100.869,153.09,102.666,152.789,104.5Z" transform="translate(-38.239 -28.1)"/><g id="Nucleus"><g id="Nucleus-2" data-name="Nucleus" class="cls-3"><circle class="cls-4" cx="111.307" cy="63.156" r="16.6" transform="translate(-50.296 69.104) rotate(-45)"/><path class="cls-5" d="M126.291,71.62a17.212,17.212,0,1,1-6.512-23.455A17.238,17.238,0,0,1,126.291,71.62Zm-28.9-16.341a15.987,15.987,0,1,0,21.786-6.046A16,16,0,0,0,97.391,55.279Z" transform="translate(-38.239 -28.1)"/></g><g id="Nucleolus"><circle class="cls-6" cx="107.086" cy="70.446" r="3.39" transform="translate(-56.688 68.254) rotate(-45)"/><path class="cls-7" d="M110.2,72.2a3.554,3.554,0,1,1-1.365-4.844A3.55,3.55,0,0,1,110.2,72.2Zm-5.926-3.352a3.233,3.233,0,1,0,4.405-1.223A3.241,3.241,0,0,0,104.272,68.848Z" transform="translate(-38.239 -28.1)"/></g></g></g></svg>