<svg id="Layer_1" data-name="Layer 1" xmlns="http://www.w3.org/2000/svg" xmlns:xlink="http://www.w3.org/1999/xlink" viewBox="0 0 76.146 67.964"><defs><style>.cls-1{fill:#ad342d;}.cls-2{fill:url(#linear-gradient);}</style><linearGradient id="linear-gradient" x1="-160.599" y1="907.926" x2="-117.908" y2="925.115" gradientTransform="matrix(0.862, -0.317, 1.11, 0.752, -803.232, -638.922)" gradientUnits="userSpaceOnUse"><stop offset="0" stop-color="#d86e66"/><stop offset="0.27" stop-color="#ce625a"/><stop offset="0.758" stop-color="#b3423b"/><stop offset="1" stop-color="#a33029"/></linearGradient></defs><title>R-ICO-013552</title><g id="R-ICO-013020"><path class="cls-1" d="M54.235,74.976C53.34,89.034,59.2,99.3,75.507,113.174c10.5,8.926,26.078,18.191,35.855,19.33,11.035,1.285,17.881-4.18,18.886-13.83Z" transform="translate(-54.147 -64.726)"/><path class="cls-2" d="M67.957,64.864a11.9,11.9,0,0,0-13.7,9.855c-1.154,8.369,24.372,30.029,46.363,41.94,7.772,4.213,14.549,6.727,19.516,7.076,1.841.129,6.015.021,8.173-1.447,2.015-1.372,2.086-4.059,1.929-5.337-.557-4.259-5.536-10.819-15.113-15.779-15.7-8.065-21.74-14.86-28.9-22.76C84.1,76.07,81.949,73.646,79.413,71.1,74.911,66.592,70.7,65.2,67.957,64.864Z" transform="translate(-54.147 -64.726)"/><path class="cls-1" d="M81.365,76.092c-1.764-.155-6.447,1.388-8.987,2.232-4.683,1.543-6.228,2.021-8,1.513a5,5,0,0,1-1.566-.853c-1.415-1.444.926-2.215,6.775-4.008,2.825-.86,7.394-2.272,7.725-3.018a3.7,3.7,0,0,1-.674-.734c-2.707-2.665-5.3-4.212-7.907-4.592-5.284-.736-10.645,3.467-11.291,9.06-.291,2.16,1.478,5.437,5.012,9.494A42.06,42.06,0,0,0,70.4,83.156c5.763-1.851,8.56-2.522,10.875-1.855a4.568,4.568,0,0,1,1.889,1c1.928,1.791-1.286,2.526-6.064,3.657-4.579,1.058-11.623,2.666-9.011,4.919a147.06,147.06,0,0,0,16.132,12.726c1.546.146,5.442-1.375,7.745-2.311,5.289-2.033,9.118-3.53,12.307-1.578a1.994,1.994,0,0,1,1.074,1.212c.267,1.151-1.809,1.825-5.761,3.1-1.213.357-2.626.787-3.886,1.25-2.389.878-4.322,1.856-4.007,2.9a2.2,2.2,0,0,0,1.016.965c2.677,1.6,5.183,3.094,7.651,4.418,10.384,5.645,18.619,8.241,23.085,7.314,4.333-.879,4.753-4.961,1.161-9.889-.019-.082-.171-.116-.171-.116-1.452-.359-5.65,1.72-7.649,2.722-3.753,1.826-5.819,2.853-8.135,1.562a3.009,3.009,0,0,1-1.292-1.221c-.609-1.383,1.656-2.483,5.693-4.324,2.218-.994,6.7-3.088,6.054-4.011a40.253,40.253,0,0,0-5.392-3.374,106.394,106.394,0,0,1-14.685-8.973A1.912,1.912,0,0,0,98.3,92.9c-2.514-.593-7.244,1.056-10.362,2.2-3.848,1.415-5.99,2.113-7.983,1.6a5.143,5.143,0,0,1-1.87-.919c-2.573-2.089,1.266-3.232,6.5-4.888,2.275-.747,8.323-2.613,7.392-3.521-3.134-2.954-5.746-5.832-8.549-8.908C82.733,77.642,82.058,76.908,81.365,76.092Z" transform="translate(-54.147 -64.726)"/></g></svg>