<svg id="Layer_1" data-name="Layer 1" xmlns="http://www.w3.org/2000/svg" xmlns:xlink="http://www.w3.org/1999/xlink" viewBox="0 0 100 34.104"><defs><style>.cls-1{fill:url(#linear-gradient);}.cls-2{fill:url(#linear-gradient-2);}.cls-3{fill:#e6735c;}.cls-4{mask:url(#mask);}.cls-5{fill:url(#radial-gradient);}</style><linearGradient id="linear-gradient" x1="98.561" y1="-8.856" x2="153.091" y2="-29.157" gradientTransform="translate(0 120.981)" gradientUnits="userSpaceOnUse"><stop offset="0.037"/><stop offset="0.063" stop-color="#363636"/><stop offset="0.095" stop-color="#727272"/><stop offset="0.126" stop-color="#a5a5a5"/><stop offset="0.156" stop-color="#ccc"/><stop offset="0.182" stop-color="#e8e8e8"/><stop offset="0.205" stop-color="#f9f9f9"/><stop offset="0.223" stop-color="#fff"/></linearGradient><linearGradient id="linear-gradient-2" x1="100.158" y1="-3.266" x2="100.158" y2="-12.288" gradientTransform="translate(0 120.981)" gradientUnits="userSpaceOnUse"><stop offset="0" stop-color="#633228"/><stop offset="0.016" stop-color="#67342a"/><stop offset="0.251" stop-color="#9d4f3f"/><stop offset="0.454" stop-color="#c5634f"/><stop offset="0.615" stop-color="#dd6f58"/><stop offset="0.714" stop-color="#e6735c"/><stop offset="0.764" stop-color="#e2715a"/><stop offset="0.814" stop-color="#d66b56"/><stop offset="0.864" stop-color="#c2614e"/><stop offset="0.915" stop-color="#a55342"/><stop offset="0.964" stop-color="#814134"/><stop offset="1" stop-color="#633228"/></linearGradient><mask id="mask" x="44.442" y="-4.878" width="62.045" height="44.811" maskUnits="userSpaceOnUse"><g transform="translate(-50 -82.948)"><polygon class="cls-1" points="156.487 107.842 100.348 122.881 94.442 96.378 149.853 78.07 156.487 107.842"/></g></mask><radialGradient id="radial-gradient" cx="129.433" cy="-19.532" r="23.49" gradientTransform="matrix(0.802, -0.535, 0.327, 0.49, 30.944, 180.233)" gradientUnits="userSpaceOnUse"><stop offset="0" stop-color="#e6735c"/><stop offset="0.174" stop-color="#e2715a"/><stop offset="0.349" stop-color="#d66b56"/><stop offset="0.525" stop-color="#c2614e"/><stop offset="0.701" stop-color="#a55342"/><stop offset="0.876" stop-color="#814134"/><stop offset="1" stop-color="#633228"/></radialGradient></defs><title>R-ICO-013549</title><g id="Myosin_head"><path class="cls-2" d="M149.157,90.884c-3.968-12.787-17.12-7.771-27.474-.71-9.4,6.409-15.462,19.327-21.846,19.327-2.4,0-23.917-.041-46.694-.04-.11-.021-2.826,7.531-2.826,7.531,21.745.036,45.867.059,49.643.059C117.152,117.052,156.214,113.625,149.157,90.884Z" transform="translate(-50 -82.948)"/><path class="cls-3" d="M52.925,113.842c-.571,1.518-1.611,3.151-2.608,3.151-.6,0-.317-2.657.63-4.749s1.586-2.77,2.2-2.77S53.734,111.693,52.925,113.842Z" transform="translate(-50 -82.948)"/><g class="cls-4"><path class="cls-5" d="M99.4,109.519c7.468,0,9.589-10.363,22.284-19.345,10.185-7.205,23.5-12.089,27.474.71,7.057,22.741-32,26.167-49.2,26.167" transform="translate(-50 -82.948)"/></g></g></svg>