<svg id="Layer_1" data-name="Layer 1" xmlns="http://www.w3.org/2000/svg" xmlns:xlink="http://www.w3.org/1999/xlink" viewBox="0 0 62.212 22.932"><defs><style>.cls-1{fill:url(#linear-gradient);}.cls-2{fill:#470647;}.cls-3{font-size:12px;fill:#fff;font-family:Arial-BoldMT, Arial;font-weight:700;}</style><linearGradient id="linear-gradient" x1="31.378" y1="21.332" x2="31.378" y2="1.332" gradientUnits="userSpaceOnUse"><stop offset="0" stop-color="#74a343"/><stop offset="1" stop-color="#470647"/></linearGradient></defs><title>TET1,2,3</title><g id="TET1_2_3" data-name="TET1,2,3"><rect class="cls-1" x="1.378" y="1.332" width="60" height="20" rx="10" ry="10"/><path class="cls-2" d="M118.811,108.233c-5.949-.009-11.9.43-17.847.837-5.949.458-11.9.546-17.847.613l-4.486-.009a11.2,11.2,0,0,1-4.972-1.254,11.5,11.5,0,0,1-6-7.9A11.156,11.156,0,0,1,70.1,91.068a10.981,10.981,0,0,1,8.715-3.806c5.949.282,11.9.437,17.847.335,5.949-.084,11.9-.574,17.847-.762,1.5-.029,2.954-.1,4.482-.079a10.674,10.674,0,0,1,7.9,17.828A10.965,10.965,0,0,1,118.811,108.233Zm0-.3a9.28,9.28,0,0,0,7.479-3.833,9.176,9.176,0,0,0,1.351-7.948,9.42,9.42,0,0,0-4.976-5.817,9.258,9.258,0,0,0-3.719-.908c-1.445-.009-2.963-.059-4.441-.1-5.949-.188-11.9-.678-17.847-.762-5.949-.1-11.9.053-17.847.335A9.182,9.182,0,0,0,71.97,92.58a8.848,8.848,0,0,0-1.537,7.334,8.646,8.646,0,0,0,4.631,5.7,8.862,8.862,0,0,0,3.617.857l4.437.007c5.949.066,11.9.155,17.847.613C106.913,107.5,112.862,107.942,118.811,107.933Z" transform="translate(-67.434 -86.751)"/><text class="cls-3" transform="translate(6.701 14.154)">TET1,2,3</text></g></svg>