<svg id="Layer_1" data-name="Layer 1" xmlns="http://www.w3.org/2000/svg" xmlns:xlink="http://www.w3.org/1999/xlink" viewBox="0 0 67.639 67.152"><defs><style>.cls-1{fill:url(#radial-gradient);}.cls-2{fill:url(#radial-gradient-2);}</style><radialGradient id="radial-gradient" cx="5.572" cy="876.142" r="37.498" gradientTransform="matrix(0.553, 0.833, -0.622, 0.413, 634.819, -271.11)" gradientUnits="userSpaceOnUse"><stop offset="0" stop-color="#ffa3b5"/><stop offset="0.786" stop-color="#d85972"/><stop offset="1" stop-color="#873243"/></radialGradient><radialGradient id="radial-gradient-2" cx="8.362" cy="856.639" r="39.473" gradientTransform="matrix(0.531, 0.847, -0.767, 0.481, 761.734, -335.796)" xlink:href="#radial-gradient"/></defs><title>ribosome</title><g id="RIBOSOME"><path id="RIBOSOME-2" data-name="RIBOSOME" class="cls-1" d="M113.392,83.658c18.715,18.715,25.5,14.591,0,40.089-11.07,11.07-27.21,14.6-40.089,0-13.215-14.985-11.07-29.019,0-40.089A28.347,28.347,0,0,1,113.392,83.658Z" transform="translate(-64.179 -66.268)"/><path id="RIBOSOME-3" data-name="RIBOSOME" class="cls-2" d="M123.066,78.134c10.4,15.857,12.381,23.818,1.311,34.888-13.984,13.984-25.819,19.554-41.546-2.568C73.759,97.694,67,86.379,84.287,72.933,96.646,63.322,113.349,63.315,123.066,78.134Z" transform="translate(-64.179 -66.268)"/></g></svg>