<svg id="Layer_1" data-name="Layer 1" xmlns="http://www.w3.org/2000/svg" xmlns:xlink="http://www.w3.org/1999/xlink" viewBox="0 0 24.219 65.327"><defs><style>.cls-1{fill:url(#linear-gradient);}.cls-2{fill:url(#linear-gradient-2);}</style><linearGradient id="linear-gradient" x1="87.78" y1="100.069" x2="111.997" y2="100.069" gradientTransform="translate(199.776 200.138) rotate(180)" gradientUnits="userSpaceOnUse"><stop offset="0" stop-color="#0f82bc"/><stop offset="1" stop-color="#002c33"/></linearGradient><linearGradient id="linear-gradient-2" x1="111.996" y1="100.069" x2="87.779" y2="100.069" xlink:href="#linear-gradient"/></defs><title>GDNF</title><g id="GDNF"><path class="cls-1" d="M92.775,67.406a5,5,0,0,1,4.335,2.5l14.217,24.624a5,5,0,0,1,.67,2.5v30.7a5,5,0,0,1-10,0V98.37L88.45,74.907a5,5,0,0,1,4.325-7.5Z" transform="translate(-87.779 -67.406)"/><path class="cls-2" d="M107,67.406a5,5,0,0,1,4.325,7.5L97.78,98.37v29.362a5,5,0,0,1-10,0v-30.7a5,5,0,0,1,.67-2.5l14.217-24.624A5,5,0,0,1,107,67.406Z" transform="translate(-87.779 -67.406)"/></g></svg>