<svg id="Layer_1" data-name="Layer 1" xmlns="http://www.w3.org/2000/svg" xmlns:xlink="http://www.w3.org/1999/xlink" viewBox="0 0 59.741 22.586"><defs><style>.cls-1{fill:url(#linear-gradient);}.cls-2{fill:#1c00cd;}.cls-3{font-size:12px;fill:#fff;font-family:Arial-BoldMT, Arial;font-weight:700;}</style><linearGradient id="linear-gradient" x1="29.9" y1="20.979" x2="29.9" y2="0.979" gradientUnits="userSpaceOnUse"><stop offset="0" stop-color="#e07236"/><stop offset="1" stop-color="#1c00cd"/></linearGradient></defs><title>MAPK_1_3</title><g id="MAPK_1_3" data-name="MAPK 1,3"><rect class="cls-1" x="1.4" y="0.979" width="57" height="20" rx="10" ry="10"/><path class="cls-2" d="M118.5,110.15c-5.7-.009-11.4.417-17.1.821-5.7.454-11.4.562-17.1.622-.712.014-1.425.016-2.137.012a14.656,14.656,0,0,1-2.365-.142,11.242,11.242,0,0,1-4.59-1.762,11.464,11.464,0,0,1-5.021-8.1,11.206,11.206,0,0,1,2.819-8.972,10.991,10.991,0,0,1,8.489-3.6,338.6,338.6,0,0,0,34.194.131,34.325,34.325,0,0,1,4.42-.068,10.882,10.882,0,0,1,9.609,9.32,9.691,9.691,0,0,1-3.1,8.644A12.277,12.277,0,0,1,118.5,110.15Zm0-.3a8.179,8.179,0,0,0,4.01-1.05,8.815,8.815,0,0,0,2.933-2.771,10.625,10.625,0,0,0,1.614-7.237,9.151,9.151,0,0,0-7.248-7.645,34.31,34.31,0,0,0-4.115-.308,338.6,338.6,0,0,0-34.194.131,9.111,9.111,0,0,0-6.58,3.318,8.568,8.568,0,0,0,2.014,12.772,8.789,8.789,0,0,0,3.34,1.238c1.085.167,2.629.06,4.033.11,5.7.06,11.4.168,17.1.622C107.1,109.433,112.8,109.859,118.5,109.85Z" transform="translate(-70.1 -89.021)"/><text class="cls-3" transform="translate(3.993 13.867)">MAPK1,3</text></g></svg>