<svg id="Layer_1" data-name="Layer 1" xmlns="http://www.w3.org/2000/svg" xmlns:xlink="http://www.w3.org/1999/xlink" viewBox="0 0 134.231 124.186"><defs><style>.cls-1{fill:url(#linear-gradient);}.cls-2{fill:url(#linear-gradient-2);}.cls-3{fill:url(#linear-gradient-3);}.cls-4{fill:url(#linear-gradient-4);}.cls-5{fill:url(#linear-gradient-5);}.cls-6{fill:url(#linear-gradient-6);}.cls-7{fill:url(#linear-gradient-7);}.cls-8{fill:url(#linear-gradient-8);}.cls-9{fill:url(#linear-gradient-9);}.cls-10{fill:url(#linear-gradient-10);}</style><linearGradient id="linear-gradient" x1="47.507" y1="28.703" x2="39.803" y2="15.359" gradientUnits="userSpaceOnUse"><stop offset="0" stop-color="#ff0"/><stop offset="1" stop-color="#4c61c3"/></linearGradient><linearGradient id="linear-gradient-2" x1="-253.234" y1="-376.024" x2="-260.938" y2="-389.369" gradientTransform="translate(-366.671 295.773) rotate(94.929)" xlink:href="#linear-gradient"/><linearGradient id="linear-gradient-3" x1="-164.047" y1="71.214" x2="-171.751" y2="57.87" gradientTransform="translate(134.43 -104.364) rotate(-27.098)" xlink:href="#linear-gradient"/><linearGradient id="linear-gradient-4" x1="-615.846" y1="-87.058" x2="-623.55" y2="-100.403" gradientTransform="translate(-461.301 -326.007) rotate(-147.098)" xlink:href="#linear-gradient"/><linearGradient id="linear-gradient-5" x1="-566.732" y1="-324.851" x2="-574.436" y2="-338.195" gradientTransform="translate(-594.046 -59.259) rotate(165)" xlink:href="#linear-gradient"/><linearGradient id="linear-gradient-6" x1="-669.156" y1="11.807" x2="-676.86" y2="-1.537" gradientTransform="translate(-413.554 -359.484) rotate(-137.984)" xlink:href="#linear-gradient"/><linearGradient id="linear-gradient-7" x1="-448.617" y1="-267.841" x2="-456.321" y2="-281.185" gradientTransform="translate(-400.869 221.374) rotate(135)" xlink:href="#linear-gradient"/><linearGradient id="linear-gradient-8" x1="-76.421" y1="144.651" x2="-84.126" y2="131.306" gradientTransform="translate(134.43 -104.364) rotate(-27.098)" xlink:href="#linear-gradient"/><linearGradient id="linear-gradient-9" x1="-34.041" y1="-170.063" x2="-41.746" y2="-183.408" gradientTransform="translate(73.873 -171.851) rotate(180)" xlink:href="#linear-gradient"/><linearGradient id="linear-gradient-10" x1="-254.825" y1="153.333" x2="-262.529" y2="139.989" gradientTransform="translate(165.58 310.917) rotate(102.016)" xlink:href="#linear-gradient"/></defs><title>R-ICO-013696</title><g id="Cargo"><polygon class="cls-1" points="50.604 26.915 35.195 22.787 46.475 11.507 50.604 26.915"/><polygon class="cls-2" points="31.237 79.026 36.675 64.028 46.944 76.236 31.237 79.026"/><polygon class="cls-3" points="22.772 30.756 7.174 34.1 12.078 18.92 22.772 30.756"/><polygon class="cls-4" points="4.904 81.434 15.598 93.271 0 96.614 4.904 81.434"/><polygon class="cls-5" points="34.923 110.371 50.876 110.371 42.9 124.186 34.923 110.371"/><polygon class="cls-6" points="88.008 78.889 96.693 92.271 80.762 93.101 88.008 78.889"/><polygon class="cls-7" points="104.817 97 118.633 89.024 118.633 104.976 104.817 97"/><polygon class="cls-8" points="134.231 56.217 118.633 59.56 123.536 44.38 134.231 56.217"/><polygon class="cls-9" points="104.817 0 120.226 4.129 108.946 15.409 104.817 0"/><polygon class="cls-10" points="69.76 33.156 77.006 18.944 85.691 32.325 69.76 33.156"/></g></svg>