<svg id="Layer_1" data-name="Layer 1" xmlns="http://www.w3.org/2000/svg" xmlns:xlink="http://www.w3.org/1999/xlink" viewBox="0 0 129.677 57.239"><defs><style>.cls-1{opacity:0.75;fill:url(#linear-gradient);}.cls-2{opacity:0.85;fill:url(#radial-gradient);}.cls-3{fill:#51547c;opacity:0.6;}.cls-4{fill:#4a466d;}.cls-5{fill:#29294f;}</style><linearGradient id="linear-gradient" x1="47.352" y1="100.666" x2="153.012" y2="100.666" gradientTransform="translate(-41.839 100.324) rotate(-45)" gradientUnits="userSpaceOnUse"><stop offset="0" stop-color="#282a4f"/><stop offset="0.494" stop-color="#3c374f"/><stop offset="0.751" stop-color="#39354f"/><stop offset="0.91" stop-color="#31304f"/><stop offset="1" stop-color="#282a4f"/></linearGradient><radialGradient id="radial-gradient" cx="276.251" cy="482.577" r="195.222" gradientTransform="translate(-177.569 -221.549)" gradientUnits="userSpaceOnUse"><stop offset="0.808" stop-color="#28214f"/><stop offset="0.827" stop-color="#302955"/><stop offset="0.856" stop-color="#444067"/><stop offset="0.891" stop-color="#666484"/><stop offset="0.924" stop-color="#8b8ca3"/><stop offset="0.935" stop-color="#8788a0"/><stop offset="0.947" stop-color="#7d7c97"/><stop offset="0.958" stop-color="#6a6987"/><stop offset="0.968" stop-color="#514d72"/><stop offset="0.979" stop-color="#312a56"/><stop offset="0.982" stop-color="#28214f"/></radialGradient></defs><title>pathogen_dead</title><g id="PATHOGEN"><path id="MEMBRANE" class="cls-1" d="M163.373,110.057a25,25,0,0,0-14.451-32.268c-29.83-11.375-65.99-11.839-96.722-1.24a25,25,0,1,0,16.3,47.268c15.433-5.322,39.984-7.937,62.6.691a24.978,24.978,0,0,0,32.268-14.451Zm-23.364,13.1a21.934,21.934,0,0,1-7.834-1.45,92.361,92.361,0,0,0-32.842-5.79,99.942,99.942,0,0,0-31.811,5.065,22,22,0,1,1-14.344-41.6c30.087-10.375,65.48-9.925,94.674,1.207a22,22,0,0,1,12.718,28.4A22.13,22.13,0,0,1,140.009,123.155Z" transform="translate(-35.343 -68.917)"/><path id="PATHOGEN-2" data-name="PATHOGEN" class="cls-2" d="M140.008,126.155a24.958,24.958,0,0,1-8.9-1.647c-22.62-8.628-47.172-6.014-62.6-.691A25,25,0,1,1,52.2,76.549c30.731-10.6,66.892-10.135,96.722,1.24a25,25,0,0,1-8.913,48.366Z" transform="translate(-35.343 -68.917)"/><g id="HOLE"><ellipse class="cls-3" cx="142.696" cy="89.226" rx="5.071" ry="7.808" transform="translate(-58.31 -9.344) rotate(-21.869)"/><path class="cls-4" d="M147.4,87.337c-1.606-4-5.016-6.4-7.615-5.358a3.445,3.445,0,0,0-1.179.8c2.2.306,4.544,2.44,5.794,5.555,1.329,3.311,1,6.677-.619,8.333a3.531,3.531,0,0,0,1.821-.2C148.2,95.429,149.009,91.339,147.4,87.337Z" transform="translate(-35.343 -68.917)"/></g><g id="HOLE-2" data-name="HOLE"><ellipse class="cls-3" cx="60.251" cy="88.138" rx="5.071" ry="7.808" transform="translate(-79.813 40.005) rotate(-66.869)"/><path class="cls-4" d="M62.244,83.474c-3.966-1.694-8.073-.979-9.173,1.6a3.445,3.445,0,0,0-.266,1.4c1.774-1.341,4.939-1.487,8.025-.169,3.281,1.4,5.431,4.012,5.455,6.33a3.531,3.531,0,0,0,1.148-1.427C68.532,88.629,66.209,85.168,62.244,83.474Z" transform="translate(-35.343 -68.917)"/></g><g id="HOLE-3" data-name="HOLE"><ellipse class="cls-3" cx="87.808" cy="110.657" rx="7.808" ry="5.071" transform="translate(-86.144 14.484) rotate(-40.443)"/><path class="cls-5" d="M91.1,114.516c3.282-2.8,4.47-6.793,2.653-8.925a3.445,3.445,0,0,0-1.136-.862c.412,2.185-.866,5.085-3.42,7.262-2.715,2.314-6.009,3.078-8.1,2.068a3.531,3.531,0,0,0,.767,1.663C83.682,117.854,87.815,117.314,91.1,114.516Z" transform="translate(-35.343 -68.917)"/></g></g></svg>