<svg xmlns="http://www.w3.org/2000/svg" xmlns:xlink="http://www.w3.org/1999/xlink" viewBox="0 0 91.337 101.332"><defs><style>.cls-1,.cls-2,.cls-27{opacity:0.6;}.cls-1{fill:url(#linear-gradient);}.cls-2{fill:url(#linear-gradient-2);}.cls-3{isolation:isolate;}.cls-4{fill:url(#linear-gradient-3);}.cls-5{fill:url(#radial-gradient);}.cls-6{fill:url(#linear-gradient-4);}.cls-7{fill:url(#radial-gradient-2);}.cls-8{fill:url(#linear-gradient-5);}.cls-9{fill:url(#linear-gradient-6);}.cls-10{fill:url(#linear-gradient-7);}.cls-11{fill:url(#linear-gradient-8);}.cls-12{fill:url(#linear-gradient-9);}.cls-13{fill:url(#linear-gradient-10);}.cls-14{fill:url(#linear-gradient-11);}.cls-15{fill:url(#linear-gradient-12);}.cls-16{fill:url(#linear-gradient-13);}.cls-17{fill:url(#radial-gradient-3);}.cls-18{fill:url(#linear-gradient-14);}.cls-19{fill:url(#linear-gradient-15);}.cls-20{fill:url(#radial-gradient-5);}.cls-21{fill:url(#linear-gradient-16);}.cls-22{fill:url(#linear-gradient-17);}.cls-23{fill:url(#linear-gradient-18);}.cls-24{fill:url(#linear-gradient-19);}.cls-25{fill:url(#radial-gradient-6);}.cls-26{mask:url(#mask);}.cls-27{fill:url(#linear-gradient-20);}.cls-28{opacity:0.5;mix-blend-mode:screen;fill:url(#radial-gradient-7);}.cls-29{fill:url(#radial-gradient-8);}.cls-30{fill:url(#radial-gradient-9);}.cls-31{fill:url(#linear-gradient-21);}.cls-32{fill:url(#linear-gradient-22);}.cls-33{fill:url(#linear-gradient-23);}.cls-34{fill:url(#linear-gradient-24);}.cls-35{fill:url(#linear-gradient-25);}.cls-36{fill:url(#linear-gradient-26);}.cls-37{fill:url(#linear-gradient-27);}.cls-38{fill:url(#linear-gradient-28);}.cls-39{fill:url(#linear-gradient-29);}.cls-40{fill:url(#linear-gradient-30);}.cls-41{fill:url(#linear-gradient-31);}.cls-42{fill:url(#linear-gradient-32);}.cls-43{fill:url(#linear-gradient-33);}.cls-44{fill:url(#linear-gradient-34);}.cls-45{fill:url(#linear-gradient-35);}.cls-46{fill:url(#radial-gradient-11);}.cls-47{fill:url(#radial-gradient-12);}.cls-48{fill:url(#radial-gradient-13);}</style><linearGradient id="linear-gradient" x1="101.826" y1="49.334" x2="101.826" y2="101.271" gradientUnits="userSpaceOnUse"><stop offset="0" stop-color="#fff"/><stop offset="0.067" stop-color="#f7f7f7"/><stop offset="0.174" stop-color="#e0e0e0"/><stop offset="0.307" stop-color="#bababa"/><stop offset="0.461" stop-color="#868686"/><stop offset="0.631" stop-color="#444"/><stop offset="0.788"/></linearGradient><linearGradient id="linear-gradient-2" x1="101.826" y1="49.334" x2="101.826" y2="101.271" gradientUnits="userSpaceOnUse"><stop offset="0.73" stop-color="#fff"/><stop offset="0.74" stop-color="#f7f7f7"/><stop offset="0.757" stop-color="#e0e0e0"/><stop offset="0.777" stop-color="#bababa"/><stop offset="0.801" stop-color="#868686"/><stop offset="0.827" stop-color="#444"/><stop offset="0.851"/></linearGradient><linearGradient id="linear-gradient-3" x1="104.265" y1="62.261" x2="147.959" y2="171.495" gradientUnits="userSpaceOnUse"><stop offset="0" stop-color="#ff769a"/><stop offset="1" stop-color="#a34b62"/></linearGradient><radialGradient id="radial-gradient" cx="133.291" cy="103.927" r="32.843" gradientTransform="matrix(0.979, -0.22, 0.276, 1.413, -25.869, -1.744)" gradientUnits="userSpaceOnUse"><stop offset="0.458" stop-color="#a34b62"/><stop offset="0.815" stop-color="#ff769a" stop-opacity="0"/></radialGradient><linearGradient id="linear-gradient-4" x1="83.116" y1="56.658" x2="67.998" y2="172.893" xlink:href="#linear-gradient-3"/><radialGradient id="radial-gradient-2" cx="73.136" cy="93.355" r="32.46" gradientTransform="translate(0 -84.95) scale(1 2.03)" xlink:href="#radial-gradient"/><linearGradient id="linear-gradient-5" x1="95.96" y1="52.535" x2="104.25" y2="52.535" gradientUnits="userSpaceOnUse"><stop offset="0" stop-color="#a3a394"/><stop offset="0.05" stop-color="#b7b7ad"/><stop offset="0.12" stop-color="#cdcdc9"/><stop offset="0.181" stop-color="#dbdbda"/><stop offset="0.227" stop-color="#e0e0e0"/><stop offset="0.389" stop-color="#d2d2ce"/><stop offset="0.714" stop-color="#acaca0"/><stop offset="0.789" stop-color="#a3a394"/><stop offset="0.836" stop-color="#9e9e8f"/><stop offset="0.895" stop-color="#8e8e81"/><stop offset="0.959" stop-color="#75756a"/><stop offset="1" stop-color="#616158"/></linearGradient><linearGradient id="linear-gradient-6" x1="95.85" y1="56.309" x2="104.142" y2="56.309" xlink:href="#linear-gradient-5"/><linearGradient id="linear-gradient-7" x1="95.746" y1="59.705" x2="104.074" y2="59.705" xlink:href="#linear-gradient-5"/><linearGradient id="linear-gradient-8" x1="95.706" y1="63.856" x2="104.088" y2="63.856" xlink:href="#linear-gradient-5"/><linearGradient id="linear-gradient-9" x1="95.707" y1="67.629" x2="104.153" y2="67.629" xlink:href="#linear-gradient-5"/><linearGradient id="linear-gradient-10" x1="95.719" y1="71.026" x2="104.22" y2="71.026" xlink:href="#linear-gradient-5"/><linearGradient id="linear-gradient-11" x1="95.733" y1="74.799" x2="104.268" y2="74.799" xlink:href="#linear-gradient-5"/><linearGradient id="linear-gradient-12" x1="95.677" y1="78.196" x2="104.254" y2="78.196" xlink:href="#linear-gradient-5"/><linearGradient id="linear-gradient-13" x1="95.594" y1="81.969" x2="104.057" y2="81.969" xlink:href="#linear-gradient-5"/><radialGradient id="radial-gradient-3" cx="94.164" cy="86.808" r="11.631" gradientUnits="userSpaceOnUse"><stop offset="0.025" stop-color="#616158"/><stop offset="0.164" stop-color="#a3a394"/><stop offset="0.202" stop-color="#b7b7ad"/><stop offset="0.256" stop-color="#cdcdc9"/><stop offset="0.303" stop-color="#dbdbda"/><stop offset="0.337" stop-color="#e0e0e0"/><stop offset="0.492" stop-color="#d2d2ce"/><stop offset="0.8" stop-color="#acaca0"/><stop offset="0.872" stop-color="#a3a394"/><stop offset="0.9" stop-color="#9e9e8f"/><stop offset="0.936" stop-color="#8e8e81"/><stop offset="0.975" stop-color="#75756a"/><stop offset="1" stop-color="#616158"/></radialGradient><linearGradient id="linear-gradient-14" x1="518.239" y1="749.864" x2="526.799" y2="749.864" gradientTransform="matrix(0, 0.92, -1, 0, 840.323, -384.078)" xlink:href="#linear-gradient-5"/><linearGradient id="linear-gradient-15" x1="524.453" y1="746.449" x2="533.013" y2="746.449" gradientTransform="matrix(0, 0.934, -1, 0, 839.805, -399.05)" xlink:href="#linear-gradient-5"/><radialGradient id="radial-gradient-5" cx="94.164" cy="86.808" r="11.631" gradientTransform="translate(156.899 -33.293) rotate(71.963)" xlink:href="#radial-gradient-3"/><linearGradient id="linear-gradient-16" x1="538.156" y1="743.249" x2="546.716" y2="743.249" gradientTransform="matrix(0, 0.966, -1, 0, 839.358, -431.188)" xlink:href="#linear-gradient-5"/><linearGradient id="linear-gradient-17" x1="567.833" y1="-762.023" x2="576.393" y2="-762.023" gradientTransform="translate(-447.205 856.322) scale(0.973 1)" gradientUnits="userSpaceOnUse"><stop offset="0" stop-color="#616158"/><stop offset="0.215" stop-color="#a3a394"/><stop offset="0.25" stop-color="#a8a89a"/><stop offset="0.587" stop-color="#d3d3cf"/><stop offset="0.591" stop-color="#d2d2ce"/><stop offset="0.769" stop-color="#b0b0a4"/><stop offset="0.861" stop-color="#a3a394"/><stop offset="1" stop-color="#616158"/></linearGradient><linearGradient id="linear-gradient-18" x1="572.682" y1="-767.066" x2="581.242" y2="-767.066" gradientTransform="translate(-464.366 859.565) scale(0.986 1)" xlink:href="#linear-gradient-17"/><linearGradient id="linear-gradient-19" x1="558.853" y1="-757.361" x2="567.413" y2="-757.361" gradientTransform="translate(-420.837 853.1) scale(0.949 1)" xlink:href="#linear-gradient-17"/><radialGradient id="radial-gradient-6" cx="100.488" cy="51.048" r="57.007" gradientUnits="userSpaceOnUse"><stop offset="0" stop-color="#d57983"/><stop offset="0.155" stop-color="#d0767f"/><stop offset="0.341" stop-color="#c16b75"/><stop offset="0.543" stop-color="#a95b63"/><stop offset="0.756" stop-color="#87434a"/><stop offset="0.976" stop-color="#5c262b"/><stop offset="1" stop-color="#572227"/></radialGradient><mask id="mask" x="30.714" y="0" width="33.562" height="51.937" maskUnits="userSpaceOnUse"><g transform="translate(-54.332 -49.334)"><path class="cls-1" d="M118.311,94.5c-1.543-2.088-6.559-3.182-9.026-4.173a26.413,26.413,0,0,1-3.613-1.48c-3.089-1.826-1.94-6.082-1.864-9.119.2-7.812-.326-15.6-.077-23.409.032-1,.13-3.378.095-4.786,0-.14.065-.613.065-.742,0-.806-1.69-1.459-3.775-1.459s-3.776.653-3.776,1.459c0,.165.02.58.02.609-.058,3.211-.226,7.423-.238,10.641q-.024,5.723.02,11.444c.025,4.029-.2,8.074-.136,12.091.034,2.056.062,2.951-1.645,4.139-1.4.978-2.881,1.864-4.317,2.8-.943.614-1.915,1.247-2.855,1.863-3.4,2.229-2.448,5.122.728,6.73,1.633.827,4.348-1.7,6.071-2.671,1.633-.923,3.275-1.859,4.98-2.645,1.617-.745,3.284-.095,4.948.546a82.5,82.5,0,0,0,9.656,3.183c1.445.378,2.7.951,4.021-.334C118.284,98.511,119.037,95.485,118.311,94.5Z"/></g></mask><linearGradient id="linear-gradient-20" x1="85.045" y1="75.302" x2="118.607" y2="75.302" gradientUnits="userSpaceOnUse"><stop offset="0.334" stop-color="#d57983"/><stop offset="0.363" stop-color="#ebafb5"/><stop offset="0.385" stop-color="#fad1d5"/><stop offset="0.397" stop-color="#ffdee1"/><stop offset="0.476" stop-color="#d57983"/><stop offset="0.5" stop-color="#af5c65"/><stop offset="0.526" stop-color="#8e424c"/><stop offset="0.547" stop-color="#7a333c"/><stop offset="0.561" stop-color="#732d36"/></linearGradient><radialGradient id="radial-gradient-7" cx="100.021" cy="43.2" r="49.679" gradientTransform="translate(137.59 -56.822) rotate(90) scale(1 0.87)" gradientUnits="userSpaceOnUse"><stop offset="0.05" stop-color="#ce757f"/><stop offset="0.195" stop-color="#210d0f"/><stop offset="0.22" stop-color="#ce757f"/><stop offset="0.258" stop-color="#210d0f"/><stop offset="0.295" stop-color="#ce757f"/><stop offset="0.334" stop-color="#210d0f"/><stop offset="0.364" stop-color="#ce757f"/><stop offset="0.403" stop-color="#210d0f"/><stop offset="0.447" stop-color="#ce757f"/><stop offset="0.487" stop-color="#210d0f"/><stop offset="0.52" stop-color="#ce757f"/><stop offset="0.561" stop-color="#210d0f"/><stop offset="0.59" stop-color="#ce757f"/><stop offset="0.63" stop-color="#210d0f"/><stop offset="0.667" stop-color="#ce757f"/><stop offset="0.673" stop-color="#bb6972"/><stop offset="0.684" stop-color="#884b52"/><stop offset="0.7" stop-color="#381b1e"/><stop offset="0.704" stop-color="#210d0f"/><stop offset="0.736" stop-color="#cf767f"/><stop offset="0.741" stop-color="#bc6a73"/><stop offset="0.752" stop-color="#8a4c52"/><stop offset="0.767" stop-color="#3a1c1f"/><stop offset="0.772" stop-color="#210d0f"/><stop offset="0.812" stop-color="#d57983"/><stop offset="0.817" stop-color="#d07680"/><stop offset="0.822" stop-color="#c16d76"/><stop offset="0.828" stop-color="#a95f67"/><stop offset="0.834" stop-color="#874a51"/><stop offset="0.84" stop-color="#5c3035"/><stop offset="0.846" stop-color="#271113"/><stop offset="0.847" stop-color="#210d0f"/><stop offset="0.86" stop-color="#603338"/><stop offset="0.883" stop-color="#d57983"/></radialGradient><radialGradient id="radial-gradient-8" cx="100.115" cy="50.793" r="3.768" gradientTransform="translate(-54.332 -18.305) scale(1 0.389)" gradientUnits="userSpaceOnUse"><stop offset="0.819" stop-color="#d5aeb2"/><stop offset="0.873" stop-color="#d5a9ad"/><stop offset="0.941" stop-color="#d5999f"/><stop offset="1" stop-color="#d5868d"/></radialGradient><radialGradient id="radial-gradient-9" cx="100.115" cy="53.659" r="5.036" gradientTransform="translate(-54.332 -42.683) scale(1 0.876)" gradientUnits="userSpaceOnUse"><stop offset="0.429" stop-color="#732d36"/><stop offset="0.471" stop-color="#803740"/><stop offset="0.607" stop-color="#a5545d"/><stop offset="0.733" stop-color="#bf6872"/><stop offset="0.846" stop-color="#cf757f"/><stop offset="0.933" stop-color="#d57983"/></radialGradient><linearGradient id="linear-gradient-21" x1="95.923" y1="54.091" x2="104.25" y2="54.091" xlink:href="#linear-gradient-5"/><linearGradient id="linear-gradient-22" x1="95.8" y1="57.865" x2="104.143" y2="57.865" xlink:href="#linear-gradient-5"/><linearGradient id="linear-gradient-23" x1="95.718" y1="61.261" x2="104.074" y2="61.261" xlink:href="#linear-gradient-5"/><linearGradient id="linear-gradient-24" x1="95.704" y1="65.412" x2="104.111" y2="65.412" xlink:href="#linear-gradient-5"/><linearGradient id="linear-gradient-25" x1="95.707" y1="69.186" x2="104.184" y2="69.186" xlink:href="#linear-gradient-5"/><linearGradient id="linear-gradient-26" x1="95.719" y1="72.582" x2="104.245" y2="72.582" xlink:href="#linear-gradient-5"/><linearGradient id="linear-gradient-27" x1="95.715" y1="76.366" x2="104.271" y2="76.366" xlink:href="#linear-gradient-5"/><linearGradient id="linear-gradient-28" x1="95.641" y1="79.764" x2="104.254" y2="79.764" xlink:href="#linear-gradient-5"/><linearGradient id="linear-gradient-29" x1="95.578" y1="83.525" x2="104.057" y2="83.525" xlink:href="#linear-gradient-5"/><linearGradient id="linear-gradient-30" x1="518.241" y1="751.501" x2="526.797" y2="751.501" gradientTransform="matrix(0.505, 0.769, -0.836, 0.549, 453.373, -716.866)" xlink:href="#linear-gradient-5"/><linearGradient id="linear-gradient-31" x1="524.455" y1="748.086" x2="533.011" y2="748.086" gradientTransform="matrix(0.513, 0.78, -0.836, 0.549, 446.189, -727.802)" xlink:href="#linear-gradient-5"/><linearGradient id="linear-gradient-32" x1="538.158" y1="744.886" x2="546.714" y2="744.886" gradientTransform="matrix(0.531, 0.808, -0.836, 0.549, 429.522, -753.175)" xlink:href="#linear-gradient-5"/><linearGradient id="linear-gradient-33" x1="558.855" y1="-755.724" x2="567.411" y2="-755.724" gradientTransform="matrix(0.294, -0.902, 0.951, 0.31, 668.292, 838.441)" xlink:href="#linear-gradient-17"/><linearGradient id="linear-gradient-34" x1="567.835" y1="-760.386" x2="576.391" y2="-760.386" gradientTransform="matrix(0.301, -0.925, 0.951, 0.31, 661.5, 859.299)" xlink:href="#linear-gradient-17"/><linearGradient id="linear-gradient-35" x1="572.684" y1="-765.429" x2="581.24" y2="-765.429" gradientTransform="matrix(0.305, -0.937, 0.951, 0.31, 657.724, 870.894)" xlink:href="#linear-gradient-17"/><radialGradient id="radial-gradient-11" cx="102.653" cy="88.842" r="1.723" gradientTransform="matrix(0.978, 0.207, -0.449, 2.121, 42.126, -120.844)" gradientUnits="userSpaceOnUse"><stop offset="0.276" stop-color="#a3a394"/><stop offset="0.437" stop-color="#9e9e8f"/><stop offset="0.638" stop-color="#8e8e81"/><stop offset="0.859" stop-color="#75756a"/><stop offset="1" stop-color="#616158"/></radialGradient><radialGradient id="radial-gradient-12" cx="124.768" cy="88.109" r="37.191" gradientTransform="matrix(0.987, -0.17, 0.325, 2.164, -27.028, -70.483)" gradientUnits="userSpaceOnUse"><stop offset="0.095" stop-color="#ff769a"/><stop offset="0.898" stop-color="#a34b62"/></radialGradient><radialGradient id="radial-gradient-13" cx="79.384" cy="88.841" r="47.674" gradientTransform="matrix(0.971, 0.255, -0.638, 2.783, 58.934, -167.778)" xlink:href="#linear-gradient-3"/></defs><title>R-ICO-013935</title><g class="cls-3"><g id="Layer_1" data-name="Layer 1"><g id="R-ICO-013935"><g id="BOTTOM"><path id="RIGHT_BG" class="cls-4" d="M114.417,60c-9.6.505-8.574,13.109-7.868,20.571s-1.5,10.084-2.183,16.942-.084,14.637.444,20.571-1.532,17.06,2.527,19.219,24.018,6.617,28.626,12.052,10.061-6.665,9.687-24.615-1.612-32.874-4.475-39.732S125.908,59.4,114.417,60Z" transform="translate(-54.332 -49.334)"/><path id="RIGHT_MID" class="cls-5" d="M135.963,141.158c-4.608-5.435-6.319-5.191-10.378-7.351s-6.235-2.233-6.764-8.167-1.761-12.354-1.073-19.211-3.589-16.466-4.3-23.928-8.634-22,.964-22.5c-9.6.505-8.575,13.109-7.868,20.571s-1.5,10.084-2.183,16.942-.084,14.637.444,20.571-1.532,17.06,2.527,19.219,24.018,6.617,28.626,12.052c2.192,2.586,4.575,1.2,6.431-2.9C140.538,150.411,138.155,143.744,135.963,141.158Z" transform="translate(-54.332 -49.334)"/><path id="LEFT_BG" class="cls-6" d="M85.583,60c9.6.505,8.574,13.109,7.868,20.571s1.5,10.084,2.183,16.942.084,14.637-.444,20.571,1.532,17.06-2.527,19.219-24.018,6.617-28.626,12.052S53.976,142.69,54.35,124.74s1.612-32.874,4.475-39.732S74.092,59.4,85.583,60Z" transform="translate(-54.332 -49.334)"/><path id="LEFT_MID" class="cls-7" d="M95.19,118.084c.528-5.934,1.132-13.714.444-20.571s-2.889-9.479-2.183-16.942S95.181,60.505,85.583,60c9.6.505,5.162,13.313,4.456,20.776s-2.855,13.734-2.168,20.591-1.393,15.807-1.922,21.742-3.242,7.733-7.3,9.893-8.091,3.745-12.7,9.181c-1.23,1.45-4.405,8.724-5.652,7.99,1.222.823,2.51.632,3.739-.818,4.608-5.435,24.567-9.892,28.626-12.052S94.661,124.019,95.19,118.084Z" transform="translate(-54.332 -49.334)"/></g><g id="TRACHEA"><g id="Tracheal_cartilages_BOTTOM"><path class="cls-8" d="M100.105,50.743c-2.4,0-4.145.754-4.145,1.792s1.743,1.792,4.145,1.792,4.145-.754,4.145-1.792S102.507,50.743,100.105,50.743Z" transform="translate(-54.332 -49.334)"/><path class="cls-9" d="M100,54.517c-2.4,0-4.146.753-4.146,1.792S97.594,58.1,100,58.1s4.146-.754,4.146-1.792S102.4,54.517,100,54.517Z" transform="translate(-54.332 -49.334)"/><path class="cls-10" d="M99.91,57.913c-2.413,0-4.164.754-4.164,1.792S97.5,61.5,99.91,61.5s4.164-.754,4.164-1.792S102.323,57.913,99.91,57.913Z" transform="translate(-54.332 -49.334)"/><path class="cls-11" d="M99.9,62.064c-2.429,0-4.191.754-4.191,1.792s1.762,1.792,4.191,1.792,4.191-.754,4.191-1.792S102.326,62.064,99.9,62.064Z" transform="translate(-54.332 -49.334)"/><path class="cls-12" d="M99.93,65.838c-2.447,0-4.223.753-4.223,1.791s1.776,1.792,4.223,1.792,4.223-.753,4.223-1.792S102.377,65.838,99.93,65.838Z" transform="translate(-54.332 -49.334)"/><path class="cls-13" d="M99.97,69.234c-2.463,0-4.251.753-4.251,1.792s1.788,1.792,4.251,1.792,4.25-.754,4.25-1.792S102.433,69.234,99.97,69.234Z" transform="translate(-54.332 -49.334)"/><path class="cls-14" d="M100,73.007c-2.472,0-4.267.754-4.267,1.792s1.8,1.792,4.267,1.792,4.268-.753,4.268-1.792S102.473,73.007,100,73.007Z" transform="translate(-54.332 -49.334)"/><path class="cls-15" d="M99.966,76.4c-2.486,0-4.289.753-4.289,1.792s1.8,1.791,4.289,1.791,4.288-.753,4.288-1.791S102.451,76.4,99.966,76.4Z" transform="translate(-54.332 -49.334)"/><path class="cls-16" d="M99.825,80.177c-2.451,0-4.231.754-4.231,1.792s1.78,1.792,4.231,1.792,4.232-.754,4.232-1.792S102.277,80.177,99.825,80.177Z" transform="translate(-54.332 -49.334)"/><path class="cls-17" d="M99.8,83.574c-2.44,0-4.212.753-4.212,1.791s1.772,1.792,4.212,1.792,4.213-.753,4.213-1.792S102.239,83.574,99.8,83.574Z" transform="translate(-54.332 -49.334)"/><ellipse class="cls-18" cx="90.459" cy="96.47" rx="1.769" ry="3.936" transform="matrix(0.836, -0.549, 0.549, 0.836, -92.443, 16.169)"/><ellipse class="cls-19" cx="93.356" cy="94.66" rx="1.769" ry="3.996" transform="translate(-90.974 17.462) rotate(-33.3)"/><path class="cls-17" d="M99.921,87.636c-1.889-.671-4.105-.8-4.489.282s1.415,2.38,3.3,3.051Z" transform="translate(-54.332 -49.334)"/><ellipse class="cls-20" cx="101.377" cy="91.402" rx="4.729" ry="1.769" transform="translate(-71.254 110.163) rotate(-71.963)"/><ellipse class="cls-21" cx="96.109" cy="93.023" rx="1.769" ry="4.136" transform="translate(-89.623 18.705) rotate(-33.3)"/><ellipse class="cls-22" cx="109.198" cy="94.299" rx="4.162" ry="1.769" transform="translate(-68.609 119.599) rotate(-71.963)"/><ellipse class="cls-23" cx="104.48" cy="92.499" rx="4.22" ry="1.769" transform="matrix(0.31, -0.951, 0.951, 0.31, -70.154, 113.871)"/><ellipse class="cls-24" cx="113.632" cy="95.739" rx="4.062" ry="1.769" transform="translate(-66.917 124.81) rotate(-71.963)"/></g><g id="TRACHEA-2" data-name="TRACHEA"><path id="BG" class="cls-25" d="M118.311,94.5c-1.543-2.088-6.559-3.182-9.026-4.173a26.413,26.413,0,0,1-3.613-1.48c-3.089-1.826-1.94-6.082-1.864-9.119.2-7.812-.326-15.6-.077-23.409.032-1,.13-3.378.095-4.786,0-.14.065-.613.065-.742,0-.806-1.69-1.459-3.775-1.459s-3.776.653-3.776,1.459c0,.165.02.58.02.609-.058,3.211-.226,7.423-.238,10.641q-.024,5.723.02,11.444c.025,4.029-.2,8.074-.136,12.091.034,2.056.062,2.951-1.645,4.139-1.4.978-2.881,1.864-4.317,2.8-.943.614-1.915,1.247-2.855,1.863-3.4,2.229-2.448,5.122.728,6.73,1.633.827,4.348-1.7,6.071-2.671,1.633-.923,3.275-1.859,4.98-2.645,1.617-.745,3.284-.095,4.948.546a82.5,82.5,0,0,0,9.656,3.183c1.445.378,2.7.951,4.021-.334C118.284,98.511,119.037,95.485,118.311,94.5Z" transform="translate(-54.332 -49.334)"/><g class="cls-26"><path id="SHINE" class="cls-27" d="M118.311,94.5c-1.543-2.088-6.559-3.182-9.026-4.173a26.413,26.413,0,0,1-3.613-1.48c-3.089-1.826-1.94-6.082-1.864-9.119.2-7.812-.326-15.6-.077-23.409.032-1,.13-3.378.095-4.786,0-.14.065-.613.065-.742,0-.806-1.69-1.459-3.775-1.459s-3.776.653-3.776,1.459c0,.165.02.58.02.609-.058,3.211-.226,7.423-.238,10.641q-.024,5.723.02,11.444c.025,4.029-.2,8.074-.136,12.091.034,2.056.062,2.951-1.645,4.139-1.4.978-2.881,1.864-4.317,2.8-.943.614-1.915,1.247-2.855,1.863-3.4,2.229-2.448,5.122.728,6.73,1.633.827,4.348-1.7,6.071-2.671,1.633-.923,3.275-1.859,4.98-2.645,1.617-.745,3.284-.095,4.948.546a82.5,82.5,0,0,0,9.656,3.183c1.445.378,2.7.951,4.021-.334C118.284,98.511,119.037,95.485,118.311,94.5Z" transform="translate(-54.332 -49.334)"/></g><g class="cls-26"><path id="TEXTURE" class="cls-28" d="M118.311,94.5c-1.543-2.088-6.559-3.182-9.026-4.173a26.413,26.413,0,0,1-3.613-1.48c-3.089-1.826-1.94-6.082-1.864-9.119.2-7.812-.326-15.6-.077-23.409.032-1,.13-3.378.095-4.786,0-.14.065-.613.065-.742,0-.806-1.69-1.459-3.775-1.459s-3.776.653-3.776,1.459c0,.165.02.58.02.609-.058,3.211-.226,7.423-.238,10.641q-.024,5.723.02,11.444c.025,4.029-.2,8.074-.136,12.091.034,2.056.062,2.951-1.645,4.139-1.4.978-2.881,1.864-4.317,2.8-.943.614-1.915,1.247-2.855,1.863-3.4,2.229-2.448,5.122.728,6.73,1.633.827,4.348-1.7,6.071-2.671,1.633-.923,3.275-1.859,4.98-2.645,1.617-.745,3.284-.095,4.948.546a82.5,82.5,0,0,0,9.656,3.183c1.445.378,2.7.951,4.021-.334C118.284,98.511,119.037,95.485,118.311,94.5Z" transform="translate(-54.332 -49.334)"/></g><g id="TOP"><ellipse class="cls-29" cx="45.784" cy="1.459" rx="3.776" ry="1.459"/><ellipse class="cls-30" cx="45.784" cy="1.459" rx="3.395" ry="1.312"/></g></g><g id="Tracheal_cartilages_TOP"><path class="cls-31" d="M97.11,55.332a7.893,7.893,0,0,0,2.976.5,8.1,8.1,0,0,0,2.88-.463c.828-.329,1.284-.8,1.284-1.328a.678.678,0,0,0-.01-.1v-.009c.012-.489.013-.928,0-1.341a.194.194,0,0,0-.193-.184h-.006a.2.2,0,0,0-.2.173.835.835,0,0,1-.36.563,4.409,4.409,0,0,1-2.041.712,9.79,9.79,0,0,1-2.678,0,4.349,4.349,0,0,1-2.057-.726.8.8,0,0,1-.351-.6.2.2,0,0,0-.2-.189h0a.2.2,0,0,0-.2.186q-.015.753-.037,1.507C95.923,54.549,96.344,55.006,97.11,55.332Z" transform="translate(-54.332 -49.334)"/><path class="cls-32" d="M96.587,58.908a7,7,0,0,0,3.363.7,7.087,7.087,0,0,0,3.32-.679,1.355,1.355,0,0,0,.831-1.113c.01-.488.023-.98.04-1.472l0-.025a.193.193,0,0,0-.2-.189h-.015a.2.2,0,0,0-.188.186.824.824,0,0,1-.383.617,4.478,4.478,0,0,1-2.024.7,9.79,9.79,0,0,1-2.678,0,4.32,4.32,0,0,1-2.065-.731.793.793,0,0,1-.344-.591.194.194,0,0,0-.2-.189h0a.2.2,0,0,0-.2.183l0,.126q-.024.691-.046,1.383A1.332,1.332,0,0,0,96.587,58.908Z" transform="translate(-54.332 -49.334)"/><path class="cls-33" d="M97.526,62.715a9.8,9.8,0,0,0,4.741,0c1.148-.32,1.807-.867,1.807-1.5a.294.294,0,0,0,0-.051c0-.474,0-.96,0-1.446a.193.193,0,0,0-.2-.19h0a.2.2,0,0,0-.2.177h0v.009a.818.818,0,0,1-.369.6,4.442,4.442,0,0,1-2.052.712,9.985,9.985,0,0,1-2.69,0,4.408,4.408,0,0,1-2.065-.723.8.8,0,0,1-.356-.6.2.2,0,0,0-.2-.189h0a.194.194,0,0,0-.2.185q-.018.755-.028,1.511C95.718,61.848,96.377,62.4,97.526,62.715Z" transform="translate(-54.332 -49.334)"/><path class="cls-34" d="M96.946,66.673a9.255,9.255,0,0,0,5.946-.011c.786-.326,1.219-.786,1.219-1.3s-.016-1.009-.023-1.512a.194.194,0,0,0-.2-.187h0a.2.2,0,0,0-.2.189.8.8,0,0,1-.361.6,4.462,4.462,0,0,1-2.08.721,10.1,10.1,0,0,1-2.706,0,4.506,4.506,0,0,1-2.069-.713.808.808,0,0,1-.37-.61.194.194,0,0,0-.2-.189h0a.194.194,0,0,0-.2.189q0,.754,0,1.509v.02C95.723,65.9,96.162,66.353,96.946,66.673Z" transform="translate(-54.332 -49.334)"/><path class="cls-35" d="M95.906,67.442h0a.193.193,0,0,0-.2.187v0l0,1.507a1.355,1.355,0,0,0,.838,1.108,8.78,8.78,0,0,0,6.821-.013,1.338,1.338,0,0,0,.814-1.1l-.01-.5-.021-1.01a.194.194,0,0,0-.2-.185h0a.194.194,0,0,0-.2.188.8.8,0,0,1-.36.6,4.516,4.516,0,0,1-2.1.724,10.187,10.187,0,0,1-2.732,0,4.564,4.564,0,0,1-2.084-.711.807.807,0,0,1-.375-.609v-.008h0A.2.2,0,0,0,95.906,67.442Z" transform="translate(-54.332 -49.334)"/><path class="cls-36" d="M95.727,72.536c0,.516.447.98,1.259,1.307A9.521,9.521,0,0,0,103,73.836c.8-.326,1.244-.788,1.244-1.3s-.016-1.009-.025-1.513a.193.193,0,0,0-.2-.185h0a.194.194,0,0,0-.2.189.8.8,0,0,1-.365.6,4.568,4.568,0,0,1-2.111.722,10.336,10.336,0,0,1-2.752,0,4.628,4.628,0,0,1-2.1-.71.81.81,0,0,1-.38-.607v-.01h0a.2.2,0,0,0-.2-.181h0a.193.193,0,0,0-.2.186v.008h0Z" transform="translate(-54.332 -49.334)"/><path class="cls-37" d="M104.069,74.611h0a.194.194,0,0,0-.2.188.81.81,0,0,1-.387.618,4.752,4.752,0,0,1-2.152.712,10.478,10.478,0,0,1-2.608.007,4.76,4.76,0,0,1-2.21-.725.8.8,0,0,1-.381-.612.193.193,0,0,0-.2-.188h0a.194.194,0,0,0-.2.187c0,.509-.01,1.019-.018,1.528a1.327,1.327,0,0,0,.8,1.088,8.922,8.922,0,0,0,6.926.015,1.341,1.341,0,0,0,.829-1.1v-.02q0-.756,0-1.511A.194.194,0,0,0,104.069,74.611Z" transform="translate(-54.332 -49.334)"/><path class="cls-38" d="M96.842,81.008a8.307,8.307,0,0,0,3.09.514,8.584,8.584,0,0,0,2.975-.466c.849-.328,1.316-.8,1.316-1.326.013-.5.024-1.006.031-1.511V78.2a.194.194,0,0,0-.2-.189h0a.2.2,0,0,0-.2.186v.018a.833.833,0,0,1-.406.615,4.924,4.924,0,0,1-2.211.708,10.642,10.642,0,0,1-2.6-.008,4.734,4.734,0,0,1-2.183-.724.8.8,0,0,1-.377-.606.194.194,0,0,0-.2-.189h0a.194.194,0,0,0-.2.184l-.021.857-.015.653v.029C95.641,80.229,96.067,80.683,96.842,81.008Z" transform="translate(-54.332 -49.334)"/><path class="cls-39" d="M96.407,84.587a7.179,7.179,0,0,0,3.357.683,7.1,7.1,0,0,0,3.394-.7,1.33,1.33,0,0,0,.792-1.088c.02-.478.059-.956.094-1.361a.927.927,0,0,0,.013-.149.194.194,0,0,0-.191-.188h-.009a.194.194,0,0,0-.2.172l-.01.117a.939.939,0,0,1-.413.545,4.743,4.743,0,0,1-2.041.677,10.239,10.239,0,0,1-2.739,0,4.526,4.526,0,0,1-2.1-.722.8.8,0,0,1-.365-.6.2.2,0,0,0-.2-.189h0a.2.2,0,0,0-.2.186q-.012.756-.016,1.512A1.349,1.349,0,0,0,96.407,84.587Z" transform="translate(-54.332 -49.334)"/><path class="cls-40" d="M92.615,99.538h0a.186.186,0,0,0-.258-.049.825.825,0,0,1-.711.041,4.132,4.132,0,0,1-1.683-1.263,8.658,8.658,0,0,1-.742-.976,8.942,8.942,0,0,1-.581-1.025,4.159,4.159,0,0,1-.509-2.1.817.817,0,0,1,.319-.628.185.185,0,0,0,.057-.256h0a.185.185,0,0,0-.257-.05q-.641.415-1.286.825a1.329,1.329,0,0,0-.506,1.212,7.6,7.6,0,0,0,3.485,5.333,1.342,1.342,0,0,0,1.338.033l.007,0,.01-.006q.631-.414,1.261-.831A.186.186,0,0,0,92.615,99.538Z" transform="translate(-54.332 -49.334)"/><path class="cls-41" d="M95.544,97.776h0a.188.188,0,0,0-.26-.052.818.818,0,0,1-.714.037,4.242,4.242,0,0,1-1.7-1.288,9.261,9.261,0,0,1-1.343-2.032A4.268,4.268,0,0,1,91,92.318a.815.815,0,0,1,.316-.633.187.187,0,0,0,.056-.258h0a.187.187,0,0,0-.259-.052q-.641.416-1.286.825a1.324,1.324,0,0,0-.5,1.221,6.493,6.493,0,0,0,1.191,3.1,6.561,6.561,0,0,0,2.347,2.312,1.337,1.337,0,0,0,1.344.043l.008,0,.009-.006q.632-.414,1.261-.831A.188.188,0,0,0,95.544,97.776Z" transform="translate(-54.332 -49.334)"/><path class="cls-42" d="M98.37,96.25h0a.191.191,0,0,0-.263-.056.818.818,0,0,1-.722.026,4.5,4.5,0,0,1-1.737-1.347,9.9,9.9,0,0,1-1.39-2.1,4.5,4.5,0,0,1-.566-2.184A.81.81,0,0,1,94,89.942a.19.19,0,0,0,.052-.264h0a.19.19,0,0,0-.262-.058q-.642.416-1.287.824a1.326,1.326,0,0,0-.485,1.244,6.928,6.928,0,0,0,1.254,3.2,7,7,0,0,0,2.408,2.406,1.342,1.342,0,0,0,1.36.065l.007,0,.01-.006q.631-.413,1.261-.831A.191.191,0,0,0,98.37,96.25Z" transform="translate(-54.332 -49.334)"/><path class="cls-43" d="M114.717,92.024h0a.189.189,0,0,0,.121.238.814.814,0,0,1,.473.54,4.349,4.349,0,0,1,.046,2.163,9.564,9.564,0,0,1-.76,2.356,4.37,4.37,0,0,1-1.34,1.77.812.812,0,0,1-.693.154.188.188,0,0,0-.237.121h0a.19.19,0,0,0,.12.238q.725.242,1.448.49a1.327,1.327,0,0,0,1.269-.386,6.691,6.691,0,0,0,1.7-2.919,6.762,6.762,0,0,0,.355-3.327,1.338,1.338,0,0,0-.8-1.088l-.009,0-.01,0q-.719-.236-1.438-.465A.189.189,0,0,0,114.717,92.024Z" transform="translate(-54.332 -49.334)"/><path class="cls-44" d="M110.313,90.493h0a.191.191,0,0,0,.119.242.814.814,0,0,1,.471.549,4.536,4.536,0,0,1,.029,2.211,9.943,9.943,0,0,1-.779,2.414,4.544,4.544,0,0,1-1.355,1.819.812.812,0,0,1-.7.163.19.19,0,0,0-.239.125h0a.192.192,0,0,0,.118.243q.725.24,1.448.489a1.324,1.324,0,0,0,1.275-.4,7,7,0,0,0,1.72-3,7.075,7.075,0,0,0,.38-3.4,1.34,1.34,0,0,0-.8-1.107l-.009,0-.011,0q-.717-.236-1.437-.466A.191.191,0,0,0,110.313,90.493Z" transform="translate(-54.332 -49.334)"/><path class="cls-45" d="M105.612,88.641h0a.194.194,0,0,0,.119.245.812.812,0,0,1,.469.554,4.64,4.64,0,0,1,.02,2.238,10.038,10.038,0,0,1-.325,1.273,10.17,10.17,0,0,1-.464,1.174,4.658,4.658,0,0,1-1.365,1.848.809.809,0,0,1-.7.167.192.192,0,0,0-.24.128h0a.193.193,0,0,0,.118.245q.725.242,1.447.49a1.327,1.327,0,0,0,1.279-.413A8.683,8.683,0,0,0,108.1,90.1a1.341,1.341,0,0,0-.793-1.117l-.009,0-.01,0q-.718-.235-1.438-.465A.193.193,0,0,0,105.612,88.641Z" transform="translate(-54.332 -49.334)"/><path class="cls-17" d="M105.125,88.615a1.911,1.911,0,0,0-.376-.947,3.3,3.3,0,0,1-.53-1.313c-.074-.318-.165-.667-.21-1.013a.194.194,0,0,0-.2-.165H103.8a.194.194,0,0,0-.187.188.7.7,0,0,1-.232.486,4.069,4.069,0,0,1-2.218.837,10.15,10.15,0,0,1-2.727,0,4.57,4.57,0,0,1-2.068-.7.823.823,0,0,1-.382-.6v0h0a.2.2,0,0,0-.2-.191h0a.187.187,0,0,0-.2.178v.024l0,.192v.045c.009.472.016.879,0,1.241,0,1.046,1.853,1.8,4.407,1.8a5,5,0,0,0,1.488-.224c.7-.166.405.278.342.568a5.2,5.2,0,0,1-1.171,1.63,1.357,1.357,0,0,1-1.279.237c-.179-.052-.359-.11-.537-.174a9.444,9.444,0,0,1-1.139-.487,4.5,4.5,0,0,1-1.769-1.4.81.81,0,0,1-.142-.7.191.191,0,0,0-.118-.242h0a.191.191,0,0,0-.244.113c-.174.478-.078.2-.256.677a1.326,1.326,0,0,0,.364,1.283,7.7,7.7,0,0,0,2.213,1.928c1.514.946,3.075,2.2,2.811,3.152a.558.558,0,0,1-.436.451.233.233,0,0,0-.247.15h0a.206.206,0,0,0,.111.267c.483.161.239.079.721.246a1.341,1.341,0,0,0,1.308-.5,8.859,8.859,0,0,0,1.862-3.434C104.36,90.725,105.275,89.572,105.125,88.615Zm-2.087,3.32c-.244.264-1.151-.034-1.866-.313a7.491,7.491,0,0,0,2.72-4.011c.071-.345.184-.15.178.012C103.959,90.569,103.487,91.451,103.038,91.935Z" transform="translate(-54.332 -49.334)"/><path class="cls-46" d="M104.07,87.623c-.111,2.946-.583,3.828-1.032,4.312a.618.618,0,0,1-.526.088.6.6,0,0,0,.36-.235,6.919,6.919,0,0,0,.932-3.835s.065-.231.088-.342C103.963,87.266,104.076,87.461,104.07,87.623Z" transform="translate(-54.332 -49.334)"/></g></g><g id="TOP-2" data-name="TOP"><path id="RIGHT" class="cls-47" d="M114.417,60c-9.6.505-1.67,15.039-.964,22.5s4.982,17.07,4.294,23.928.546,13.276,1.074,19.211,2.7,6.008,6.764,8.167,5.77,1.916,10.378,7.351c2.211,2.608,4.616,9.376,6.48,5.2,2.019-4.527,3.4-12.281,3.207-21.618-.374-17.95-1.612-32.874-4.475-39.732S125.908,59.4,114.417,60Z" transform="translate(-54.332 -49.334)"/><path id="LEFT" class="cls-48" d="M85.583,60c9.6.505,5.162,13.313,4.456,20.776s-2.855,13.734-2.168,20.591-1.393,15.807-1.922,21.742-3.242,7.733-7.3,9.893-8.091,3.745-12.7,9.181c-1.238,1.459-4.448,8.827-5.678,7.984-3.351-2.3-6.2-12.3-5.922-25.427.374-17.95,1.612-32.874,4.475-39.732S74.092,59.4,85.583,60Z" transform="translate(-54.332 -49.334)"/></g></g></g></g></svg>