<svg id="Layer_1" data-name="Layer 1" xmlns="http://www.w3.org/2000/svg" xmlns:xlink="http://www.w3.org/1999/xlink" viewBox="0 0 81.876 22.949"><defs><style>.cls-1{fill:url(#linear-gradient);}.cls-2{fill:#5c87d6;}.cls-3{font-size:12px;fill:#fff;font-family:Arial-BoldMT, Arial;font-weight:700;}.cls-4{letter-spacing:-0.074em;}.cls-5{letter-spacing:-0.037em;}</style><linearGradient id="linear-gradient" x1="156.364" y1="109.814" x2="156.364" y2="89.814" gradientTransform="translate(-115.077 -88.467)" gradientUnits="userSpaceOnUse"><stop offset="0" stop-color="#d62b00"/><stop offset="1" stop-color="#5c87d6"/></linearGradient></defs><title>R-ICO-013663</title><g id="R-ICO-013663"><rect class="cls-1" x="1.288" y="1.347" width="80" height="20" rx="10"/><path class="cls-2" d="M130,110.15c-7.616-.009-15.231.43-22.847.837-7.616.458-15.231.547-22.847.613-3.808,0-7.616.019-11.423-.037l-2.856-.038a12.122,12.122,0,0,1-3.235-.5,11.508,11.508,0,0,1-5.385-3.545,11.131,11.131,0,0,1-1.576-12.11A10.967,10.967,0,0,1,70,89.179c7.616.261,15.231.449,22.847.335,3.808-.05,7.616-.194,11.423-.349l11.424-.414c3.808-.085,7.616-.131,11.423-.07l2.856.039a11.787,11.787,0,0,1,3.152.544,10.864,10.864,0,0,1,7.409,9.206,10.764,10.764,0,0,1-1.1,5.828A10.654,10.654,0,0,1,130,110.15Zm0-.3a9.746,9.746,0,0,0,5.289-1.626,9.477,9.477,0,0,0,3.449-4.247,9.261,9.261,0,0,0-1.918-9.908,9.153,9.153,0,0,0-6.847-2.789l-2.856.039c-3.807.061-7.615.015-11.423-.07l-11.424-.414c-3.807-.155-7.615-.3-11.423-.349-7.616-.114-15.231.074-22.847.335a9.148,9.148,0,0,0-4.844,1.642,9.328,9.328,0,0,0-3.162,3.9,8.786,8.786,0,0,0,1.54,9.263,8.612,8.612,0,0,0,4.093,2.544,9.141,9.141,0,0,0,2.4.309l2.856-.038c3.807-.056,7.615-.036,11.423-.037,7.616.066,15.231.155,22.847.613C114.769,109.42,122.384,109.859,130,109.85Z" transform="translate(-58.712 -88.653)"/><text class="cls-3" transform="translate(5.622 14.66)"><tspan class="cls-4">T</tspan><tspan class="cls-5" x="6.439" y="0">A</tspan><tspan x="14.66" y="0" xml:space="preserve"> PROTEIN</tspan></text></g></svg>