<svg id="Layer_1" data-name="Layer 1" xmlns="http://www.w3.org/2000/svg" xmlns:xlink="http://www.w3.org/1999/xlink" viewBox="0 0 74.937 125"><defs><style>.cls-1{fill:url(#linear-gradient);}.cls-2{fill:url(#radial-gradient);}.cls-3{fill:url(#radial-gradient-2);}.cls-4{fill:url(#linear-gradient-2);}.cls-5{fill:url(#radial-gradient-3);}.cls-6{fill:url(#radial-gradient-4);}</style><linearGradient id="linear-gradient" x1="-313.023" y1="-290.534" x2="-319.596" y2="-290.534" gradientTransform="matrix(-1, 0, 0, 1, -241.07, 386.097)" gradientUnits="userSpaceOnUse"><stop offset="0" stop-color="#4e34a4"/><stop offset="0.263" stop-color="#8d7cc4"/><stop offset="1" stop-color="#43289e"/></linearGradient><radialGradient id="radial-gradient" cx="-313.588" cy="-253.572" r="15.201" gradientTransform="matrix(-1, 0, 0, 1, -241.07, 386.097)" gradientUnits="userSpaceOnUse"><stop offset="0" stop-color="#8d7cc4"/><stop offset="1" stop-color="#43289e"/></radialGradient><radialGradient id="radial-gradient-2" cx="-328.72" cy="-324.414" r="23.411" gradientTransform="matrix(-1, 0, 0, 1.223, -241.07, 458.285)" gradientUnits="userSpaceOnUse"><stop offset="0.479" stop-color="#5b43aa"/><stop offset="0.691" stop-color="#8d7cc4"/><stop offset="1" stop-color="#43289e"/></radialGradient><linearGradient id="linear-gradient-2" x1="544.678" y1="-290.534" x2="551.251" y2="-290.534" gradientTransform="translate(-423.204 386.097)" xlink:href="#linear-gradient"/><radialGradient id="radial-gradient-3" cx="544.811" cy="-253.422" r="15.201" gradientTransform="translate(-423.204 386.097)" xlink:href="#radial-gradient"/><radialGradient id="radial-gradient-4" cx="531.035" cy="-324.715" r="23.411" gradientTransform="translate(-423.204 458.352) scale(1 1.223)" xlink:href="#radial-gradient-2"/></defs><title>ACVR1B</title><g id="ACVR1B"><path class="cls-1" d="M75.239,133.687a3.286,3.286,0,0,0,3.287-3.287V60.726a3.287,3.287,0,0,0-6.573,0V130.4A3.286,3.286,0,0,0,75.239,133.687Z" transform="translate(-62.532 -37.5)"/><path class="cls-2" d="M62.532,130.4a12.708,12.708,0,1,1,25.416,0c0,6.664-2.956,17.317-2.956,22.348a9.752,9.752,0,1,1-19.5,0C65.488,147.717,62.532,137.064,62.532,130.4Z" transform="translate(-62.532 -37.5)"/><path class="cls-3" d="M88.821,90.086A6.574,6.574,0,0,0,91.266,77.41C80.936,73.276,80.936,73.1,80.936,63.793c0-9.243.662-10.129,10.115-13.535A6.573,6.573,0,1,0,86.6,37.89C72.008,43.146,67.79,48.956,67.79,63.793c0,15.847,4.414,20.148,18.591,25.821A6.55,6.55,0,0,0,88.821,90.086Z" transform="translate(-62.532 -37.5)"/><path class="cls-4" d="M124.761,133.687a3.286,3.286,0,0,1-3.287-3.287V60.726a3.287,3.287,0,1,1,6.573,0V130.4A3.286,3.286,0,0,1,124.761,133.687Z" transform="translate(-62.532 -37.5)"/><path class="cls-5" d="M137.468,130.4a12.708,12.708,0,1,0-25.416,0c0,6.664,2.956,17.317,2.956,22.348a9.752,9.752,0,1,0,19.5,0C134.512,147.717,137.468,137.064,137.468,130.4Z" transform="translate(-62.532 -37.5)"/><path class="cls-6" d="M111.179,90.086a6.574,6.574,0,0,1-2.444-12.676c10.329-4.134,10.329-4.312,10.329-13.617,0-9.243-.662-10.129-10.115-13.535A6.573,6.573,0,1,1,113.4,37.89c14.587,5.256,18.805,11.066,18.805,25.9,0,15.847-4.414,20.148-18.591,25.821A6.55,6.55,0,0,1,111.179,90.086Z" transform="translate(-62.532 -37.5)"/></g></svg>