<svg id="Layer_1" data-name="Layer 1" xmlns="http://www.w3.org/2000/svg" xmlns:xlink="http://www.w3.org/1999/xlink" viewBox="0 0 69.012 34.952"><defs><style>.cls-1{fill:url(#linear-gradient);}.cls-2{fill:url(#linear-gradient-2);}.cls-3{font-size:12px;fill:#fff;font-family:Arial-BoldMT, Arial;font-weight:700;}.cls-4{letter-spacing:-0.037em;}</style><linearGradient id="linear-gradient" x1="65.486" y1="99.696" x2="134.499" y2="99.696" gradientUnits="userSpaceOnUse"><stop offset="0" stop-color="#300f0f"/><stop offset="0.043" stop-color="#5d1212"/><stop offset="0.085" stop-color="#831414"/><stop offset="0.127" stop-color="#a01616"/><stop offset="0.169" stop-color="#b41717"/><stop offset="0.21" stop-color="#c11818"/><stop offset="0.25" stop-color="#c51818"/><stop offset="0.282" stop-color="#bc1717"/><stop offset="0.333" stop-color="#a41616"/><stop offset="0.398" stop-color="#7c1414"/><stop offset="0.473" stop-color="#451010"/><stop offset="0.5" stop-color="#300f0f"/><stop offset="0.527" stop-color="#451010"/><stop offset="0.602" stop-color="#7c1414"/><stop offset="0.667" stop-color="#a41616"/><stop offset="0.718" stop-color="#bc1717"/><stop offset="0.75" stop-color="#c51818"/><stop offset="0.79" stop-color="#c11818"/><stop offset="0.831" stop-color="#b41717"/><stop offset="0.873" stop-color="#a01616"/><stop offset="0.915" stop-color="#831414"/><stop offset="0.957" stop-color="#5d1212"/><stop offset="1" stop-color="#300f0f"/></linearGradient><linearGradient id="linear-gradient-2" x1="99.992" y1="117.172" x2="99.992" y2="82.22" gradientUnits="userSpaceOnUse"><stop offset="0" stop-color="#300f0f"/><stop offset="0.074" stop-color="#4a1212" stop-opacity="0.659"/><stop offset="0.183" stop-color="#651515" stop-opacity="0.316"/><stop offset="0.311" stop-color="#741717" stop-opacity="0.113"/><stop offset="0.5" stop-color="#791818" stop-opacity="0.05"/><stop offset="0.689" stop-color="#741717" stop-opacity="0.113"/><stop offset="0.817" stop-color="#651515" stop-opacity="0.316"/><stop offset="0.926" stop-color="#4a1212" stop-opacity="0.659"/><stop offset="1" stop-color="#300f0f"/></linearGradient></defs><title>SEMA3A</title><g id="SEMA3A"><path class="cls-1" d="M82.962,82.22a17.476,17.476,0,1,0,0,34.952c9.828,0,8.507-6,17.03-6s7.378,6,17.03,6a17.476,17.476,0,1,0,0-34.952c-9.667,0-8.023,6-17.03,6S92.726,82.22,82.962,82.22Z" transform="translate(-65.486 -82.22)"/><path class="cls-2" d="M82.962,82.22a17.476,17.476,0,1,0,0,34.952c9.828,0,8.507-6,17.03-6s7.378,6,17.03,6a17.476,17.476,0,1,0,0-34.952c-9.667,0-8.023,6-17.03,6S92.726,82.22,82.962,82.22Z" transform="translate(-65.486 -82.22)"/><text class="cls-3" transform="translate(9.724 20.4)">SEMA3<tspan class="cls-4" x="41.344" y="0">A</tspan></text></g></svg>