<svg id="Layer_1" data-name="Layer 1" xmlns="http://www.w3.org/2000/svg" xmlns:xlink="http://www.w3.org/1999/xlink" viewBox="0 0 118.095 118.095"><defs><style>.cls-1{fill:url(#radial-gradient);}.cls-2{fill:url(#linear-gradient);}.cls-3{fill:url(#linear-gradient-2);}.cls-4{fill:url(#linear-gradient-3);}.cls-5{fill:url(#linear-gradient-4);}.cls-6{fill:url(#linear-gradient-5);}.cls-7{fill:url(#linear-gradient-6);}.cls-8{fill:url(#linear-gradient-7);}.cls-9{fill:url(#linear-gradient-8);}.cls-10{fill:url(#linear-gradient-9);}.cls-11{fill:url(#linear-gradient-10);}.cls-12{fill:url(#linear-gradient-11);}.cls-13{fill:url(#linear-gradient-12);}.cls-14{fill:url(#linear-gradient-13);}.cls-15{fill:url(#linear-gradient-14);}.cls-16{fill:url(#linear-gradient-15);}.cls-17{fill:url(#linear-gradient-16);}.cls-18{fill:url(#linear-gradient-17);}.cls-19{fill:url(#linear-gradient-18);}.cls-20{fill:url(#linear-gradient-19);}.cls-21{fill:url(#linear-gradient-20);}.cls-22{fill:url(#linear-gradient-21);}.cls-23{fill:url(#linear-gradient-22);}</style><radialGradient id="radial-gradient" cx="53.536" cy="49.947" r="32.54" gradientUnits="userSpaceOnUse"><stop offset="0" stop-color="#ff73a6"/><stop offset="0.219" stop-color="#fd70a3"/><stop offset="0.41" stop-color="#f6659a"/><stop offset="0.592" stop-color="#eb538a"/><stop offset="0.767" stop-color="#dc3a75"/><stop offset="0.936" stop-color="#c81959"/><stop offset="1" stop-color="#bf0b4d"/></radialGradient><linearGradient id="linear-gradient" x1="-897.093" y1="84.392" x2="-897.093" y2="66.617" gradientTransform="translate(-578.194 -471.604) rotate(-135)" gradientUnits="userSpaceOnUse"><stop offset="0" stop-color="#24040e"/><stop offset="0.113" stop-color="#a20e40"/><stop offset="0.273" stop-color="#a23e60"/><stop offset="0.602" stop-color="#a20e40"/><stop offset="1" stop-color="#24040e"/></linearGradient><linearGradient id="linear-gradient-2" x1="-910.443" y1="84.392" x2="-910.443" y2="66.617" gradientTransform="translate(-578.194 -471.604) rotate(-135)" gradientUnits="userSpaceOnUse"><stop offset="0" stop-color="#042224"/><stop offset="0.094" stop-color="#0e98a2"/><stop offset="0.119" stop-color="#1598a2"/><stop offset="0.154" stop-color="#279aa2"/><stop offset="0.196" stop-color="#469ba2"/><stop offset="0.242" stop-color="#709ea2"/><stop offset="0.273" stop-color="#90a0a2"/><stop offset="0.311" stop-color="#8da0a2"/><stop offset="0.338" stop-color="#849fa2"/><stop offset="0.361" stop-color="#759ea2"/><stop offset="0.382" stop-color="#5f9da2"/><stop offset="0.401" stop-color="#439ba2"/><stop offset="0.419" stop-color="#2199a2"/><stop offset="0.428" stop-color="#0e98a2"/><stop offset="1" stop-color="#042224"/></linearGradient><linearGradient id="linear-gradient-3" x1="377.604" y1="-71.255" x2="377.604" y2="-89.183" gradientTransform="translate(-214.325 -100.804) rotate(45)" gradientUnits="userSpaceOnUse"><stop offset="0" stop-color="#0d6a71"/><stop offset="0.092" stop-color="#1398a2"/><stop offset="0.25" stop-color="#90a0a2"/><stop offset="0.587" stop-color="#0e98a2"/><stop offset="0.653" stop-color="#0c8189"/><stop offset="0.814" stop-color="#084e53"/><stop offset="0.935" stop-color="#052e31"/><stop offset="1" stop-color="#042224"/></linearGradient><linearGradient id="linear-gradient-4" x1="-923.793" y1="84.392" x2="-923.793" y2="66.617" xlink:href="#linear-gradient"/><linearGradient id="linear-gradient-5" x1="390.954" y1="-71.255" x2="390.954" y2="-89.183" gradientTransform="translate(-214.325 -100.804) rotate(45)" gradientUnits="userSpaceOnUse"><stop offset="0" stop-color="#a21343"/><stop offset="0.25" stop-color="#a2687b"/><stop offset="0.769" stop-color="#a20e40"/></linearGradient><linearGradient id="linear-gradient-6" x1="-937.143" y1="84.392" x2="-937.143" y2="66.617" xlink:href="#linear-gradient-2"/><linearGradient id="linear-gradient-7" x1="404.304" y1="-71.255" x2="404.304" y2="-89.183" xlink:href="#linear-gradient-3"/><linearGradient id="linear-gradient-8" x1="-950.493" y1="84.392" x2="-950.493" y2="66.617" xlink:href="#linear-gradient"/><linearGradient id="linear-gradient-9" x1="417.654" y1="-71.255" x2="417.654" y2="-89.183" xlink:href="#linear-gradient-5"/><linearGradient id="linear-gradient-10" x1="431.004" y1="-71.255" x2="431.004" y2="-89.183" xlink:href="#linear-gradient-3"/><linearGradient id="linear-gradient-11" x1="-816.993" y1="84.392" x2="-816.993" y2="66.617" xlink:href="#linear-gradient"/><linearGradient id="linear-gradient-12" x1="-830.343" y1="84.392" x2="-830.343" y2="66.617" xlink:href="#linear-gradient-2"/><linearGradient id="linear-gradient-13" x1="297.504" y1="-71.255" x2="297.504" y2="-89.183" xlink:href="#linear-gradient-3"/><linearGradient id="linear-gradient-14" x1="-843.693" y1="84.392" x2="-843.693" y2="66.617" xlink:href="#linear-gradient"/><linearGradient id="linear-gradient-15" x1="310.854" y1="-71.255" x2="310.854" y2="-89.183" xlink:href="#linear-gradient-5"/><linearGradient id="linear-gradient-16" x1="-857.043" y1="84.392" x2="-857.043" y2="66.617" xlink:href="#linear-gradient-2"/><linearGradient id="linear-gradient-17" x1="324.204" y1="-71.255" x2="324.204" y2="-89.183" xlink:href="#linear-gradient-3"/><linearGradient id="linear-gradient-18" x1="-870.393" y1="84.392" x2="-870.393" y2="66.617" xlink:href="#linear-gradient"/><linearGradient id="linear-gradient-19" x1="337.554" y1="-71.255" x2="337.554" y2="-89.183" xlink:href="#linear-gradient-5"/><linearGradient id="linear-gradient-20" x1="-883.743" y1="84.392" x2="-883.743" y2="66.617" xlink:href="#linear-gradient-2"/><linearGradient id="linear-gradient-21" x1="350.904" y1="-71.255" x2="350.904" y2="-89.183" xlink:href="#linear-gradient-3"/><linearGradient id="linear-gradient-22" x1="364.254" y1="-71.255" x2="364.254" y2="-89.183" xlink:href="#linear-gradient-5"/></defs><title>R-ICO-013603</title><g id="DNA_damage_foci" data-name="DNA damage foci"><circle class="cls-1" cx="59.048" cy="56.639" r="26.287"/><g id="R-ICO-012631"><path class="cls-2" d="M97.6,110.31c5.489,5.489,14.257-11.181,22.159-3.279l1.538,1.538c-5.489-5.489-14.257,11.181-22.159,3.279Z" transform="translate(-40.956 -40.952)"/><path class="cls-3" d="M107.035,119.75c5.489,5.489,14.257-11.181,22.159-3.279l1.538,1.538c-5.489-5.489-14.469,10.969-22.159,3.279Z" transform="translate(-40.956 -40.952)"/><path class="cls-4" d="M108.573,121.288c-5.489-5.489,11.181-14.257,3.279-22.159l-1.538-1.538c5.489,5.489-11.181,14.257-3.279,22.159Z" transform="translate(-40.956 -40.952)"/><path class="cls-5" d="M116.475,129.19c5.489,5.489,14.257-11.181,22.159-3.279l1.538,1.538c-5.489-5.489-14.257,11.181-22.159,3.279Z" transform="translate(-40.956 -40.952)"/><path class="cls-6" d="M118.013,130.728c-5.489-5.489,11.181-14.257,3.279-22.159l-1.538-1.538c5.489,5.489-11.181,14.257-3.279,22.159Z" transform="translate(-40.956 -40.952)"/><path class="cls-7" d="M125.915,138.63c5.489,5.489,14.257-11.181,22.159-3.279l1.538,1.538c-5.489-5.489-14.469,10.969-22.159,3.279Z" transform="translate(-40.956 -40.952)"/><path class="cls-8" d="M127.453,140.168c-5.489-5.489,11.181-14.257,3.279-22.159l-1.538-1.538c5.489,5.489-11.181,14.257-3.279,22.159Z" transform="translate(-40.956 -40.952)"/><path class="cls-9" d="M135.355,148.07c5.489,5.489,14.257-11.181,22.159-3.279l1.538,1.538c-5.489-5.489-14.257,11.181-22.159,3.279Z" transform="translate(-40.956 -40.952)"/><path class="cls-10" d="M136.893,149.608c-5.489-5.489,11.181-14.257,3.279-22.159l-1.538-1.538c5.489,5.489-11.181,14.257-3.279,22.159Z" transform="translate(-40.956 -40.952)"/><path class="cls-11" d="M146.332,159.048c-5.489-5.489,11.181-14.257,3.279-22.159l-1.538-1.538c5.489,5.489-11.181,14.257-3.279,22.159Z" transform="translate(-40.956 -40.952)"/><path class="cls-12" d="M40.956,53.671c5.489,5.489,14.257-11.181,22.159-3.279l1.538,1.538C59.163,46.441,50.4,63.111,42.494,55.209Z" transform="translate(-40.956 -40.952)"/><path class="cls-13" d="M50.4,63.111C55.885,68.6,64.652,51.93,72.554,59.832l1.538,1.538C68.6,55.881,59.623,72.339,51.934,64.649Z" transform="translate(-40.956 -40.952)"/><path class="cls-14" d="M51.934,64.649C46.445,59.16,63.114,50.392,55.212,42.49l-1.538-1.538c5.489,5.489-11.181,14.257-3.279,22.159Z" transform="translate(-40.956 -40.952)"/><path class="cls-15" d="M59.836,72.551c5.489,5.489,14.257-11.181,22.159-3.279l1.538,1.538c-5.489-5.489-14.257,11.181-22.159,3.279Z" transform="translate(-40.956 -40.952)"/><path class="cls-16" d="M61.374,74.089C55.885,68.6,72.554,59.832,64.652,51.93l-1.538-1.538c5.489,5.489-11.181,14.257-3.279,22.159Z" transform="translate(-40.956 -40.952)"/><path class="cls-17" d="M69.275,81.991c5.489,5.489,14.257-11.181,22.159-3.279l1.538,1.538C87.483,74.761,78.5,91.218,70.813,83.529Z" transform="translate(-40.956 -40.952)"/><path class="cls-18" d="M70.813,83.529C65.324,78.04,81.994,69.272,74.092,61.37l-1.538-1.538c5.489,5.489-11.181,14.257-3.279,22.159Z" transform="translate(-40.956 -40.952)"/><path class="cls-19" d="M78.715,91.431c5.489,5.489,14.257-11.181,22.159-3.279l1.538,1.538C96.923,84.2,88.155,100.87,80.253,92.969Z" transform="translate(-40.956 -40.952)"/><path class="cls-20" d="M80.253,92.969C74.764,87.48,91.434,78.712,83.532,70.81l-1.538-1.538c5.489,5.489-11.181,14.257-3.279,22.159Z" transform="translate(-40.956 -40.952)"/><path class="cls-21" d="M88.155,100.87c5.489,5.489,14.257-11.181,22.159-3.279l1.538,1.538c-5.489-5.489-14.469,10.969-22.159,3.279Z" transform="translate(-40.956 -40.952)"/><path class="cls-22" d="M89.693,102.408C84.2,96.919,100.874,88.152,92.972,80.25l-1.538-1.538c5.489,5.489-11.181,14.257-3.279,22.159Z" transform="translate(-40.956 -40.952)"/><path class="cls-23" d="M99.133,111.848c-5.489-5.489,11.181-14.257,3.279-22.159l-1.538-1.538c5.489,5.489-11.181,14.257-3.279,22.159Z" transform="translate(-40.956 -40.952)"/></g><path class="cls-1" d="M117.076,104.5a11.869,11.869,0,0,1,7.5,2.427,26.273,26.273,0,1,0-18.187,16.169C102.75,115.686,106.311,104.5,117.076,104.5Z" transform="translate(-40.956 -40.952)"/></g></svg>