<svg id="Layer_1" data-name="Layer 1" xmlns="http://www.w3.org/2000/svg" xmlns:xlink="http://www.w3.org/1999/xlink" viewBox="0 0 43.565 62.62"><defs><style>.cls-1{fill:url(#radial-gradient);}.cls-2{fill:url(#radial-gradient-2);}.cls-3{fill:url(#radial-gradient-3);}.cls-4{fill:url(#radial-gradient-4);}</style><radialGradient id="radial-gradient" cx="99.88" cy="78.846" r="22.596" gradientTransform="translate(0 41.673) scale(1 0.471)" gradientUnits="userSpaceOnUse"><stop offset="0.61" stop-color="#e0676d"/><stop offset="0.715" stop-color="#e0787d"/><stop offset="0.849" stop-color="#e0898d"/><stop offset="0.899" stop-color="#e08488"/><stop offset="0.962" stop-color="#e07479"/><stop offset="1" stop-color="#e0676d"/></radialGradient><radialGradient id="radial-gradient-2" cx="99.381" cy="128.252" r="54.052" gradientUnits="userSpaceOnUse"><stop offset="0" stop-color="#e0406d"/><stop offset="0.863" stop-color="#c24e55"/><stop offset="0.918" stop-color="#c55157"/><stop offset="0.96" stop-color="#cf595f"/><stop offset="0.999" stop-color="#df676d"/><stop offset="1" stop-color="#e0676d"/></radialGradient><radialGradient id="radial-gradient-3" cx="70.101" cy="102.747" r="21.461" gradientTransform="translate(0 -151.471) scale(1 2.474)" gradientUnits="userSpaceOnUse"><stop offset="0.563" stop-color="#e0676d"/><stop offset="0.566" stop-color="#e0696e"/><stop offset="0.612" stop-color="#e07b80"/><stop offset="0.66" stop-color="#e0858a"/><stop offset="0.715" stop-color="#e0898d"/><stop offset="0.809" stop-color="#e08388"/><stop offset="0.931" stop-color="#e07379"/><stop offset="1" stop-color="#e0676d"/></radialGradient><radialGradient id="radial-gradient-4" cx="451.421" cy="102.747" r="21.461" gradientTransform="matrix(-1, 0, 0, 2.474, 581.582, -151.471)" gradientUnits="userSpaceOnUse"><stop offset="0.558" stop-color="#e0676d"/><stop offset="0.678" stop-color="#e0787d"/><stop offset="0.832" stop-color="#e0898d"/><stop offset="0.887" stop-color="#e08488"/><stop offset="0.958" stop-color="#e07479"/><stop offset="1" stop-color="#e0676d"/></radialGradient></defs><title>gap_junction</title><g id="GAP-JUNCTION"><path class="cls-1" d="M116.91,132.056a5,5,0,0,1-4.3-2.461c-1.021-.457-4.4-1.54-13.459-1.54-7.542,0-10.469.953-11.4,1.377a5,5,0,0,1-9.4-2.377,6.187,6.187,0,0,1,.674-2.879c4-12.916,3.823-27.113-.525-44.528a5.018,5.018,0,0,1-.148-1.211c0-5.972,7.328-9,21.781-9s21.782,3.028,21.782,9a5.018,5.018,0,0,1-.148,1.211c-4.361,17.465-4.522,31.694-.49,44.641a6.032,6.032,0,0,1,.639,2.766,5,5,0,0,1-5,5Zm-16.611-9.34a43.047,43.047,0,0,1,10.478,1.2c-2.062-11.5-1.21-34.153,1.963-48.23a55.7,55.7,0,0,0-12.608-1.245A55.722,55.722,0,0,0,87.52,75.683c3.167,14.049,4.051,36.606,2,48.086C92.249,122.826,97.513,122.716,100.3,122.716Z" transform="translate(-78.348 -69.438)"/><path class="cls-2" d="M112.605,129.6c-4.242-12.727-.826-30.6,4.308-51.157,0,0,0-4.615-16.782-4.615s-16.782,4.615-16.782,4.615c5.134,20.562,8.642,38.268,4.4,51,0,0,2.763-1.377,11.4-1.377C109.736,128.056,112.605,129.6,112.605,129.6Z" transform="translate(-78.348 -69.438)"/><path class="cls-3" d="M83.351,132.057a5,5,0,0,1-4.744-6.583c4.421-13.264,4.387-27.825-.108-45.826a5,5,0,0,1,9.7-2.423c4.906,19.654,4.871,36.471-.108,51.411A5,5,0,0,1,83.351,132.057Z" transform="translate(-78.348 -69.438)"/><path class="cls-4" d="M116.911,132.057a5,5,0,0,0,4.744-6.583c-4.421-13.264-4.387-27.825.108-45.826a5,5,0,0,0-9.7-2.423c-4.906,19.654-4.871,36.471.108,51.411A5,5,0,0,0,116.911,132.057Z" transform="translate(-78.348 -69.438)"/></g></svg>