<svg id="Layer_1" data-name="Layer 1" xmlns="http://www.w3.org/2000/svg" viewBox="0 0 140.642 181.35"><defs><style>.cls-1{fill:#fff;}.cls-2{fill:none;stroke:#0f82bc;stroke-miterlimit:10;}</style></defs><title>fetus</title><g id="FETUS"><path class="cls-1" d="M78.222,151.248l.413.443c1.468,1.574,3.464,5.8,5.577,10.271,1.172,2.479,2.383,5.043,3.581,7.324l.067.128c2.438,4.642,4.959,9.442,6.986,12.454,3.5,5.2,7.66,8.537,12.379,9.933a17.4,17.4,0,0,0,4.488.709c9.674.243,13.952-2.091,17.718-5.935,1.625-1.659,2.852-3.1,4.273-4.763,2.019-2.366,4.3-5.038,8.351-9.069,7.224-7.189,16.977-23.077,19.421-34.381.857-3.961,1.616-6.813,2.285-9.329a50.984,50.984,0,0,0,2.248-13.538c.292-9.611-.563-22.365-6.3-28.547-4.126-4.449-4.066-5.5-3.967-7.232l.013-.243c.1-1.92.3-5.917,5.178-12.808A43.424,43.424,0,0,0,166.16,54.6c1.884-9.058,3.438-31.152-22.767-40.651-9.442-3.418-20.819-1.794-31.2,4.471-8.769,5.29-15.245,13.069-16.114,19.357-1.028,7.434.261,17.818,1.973,20.143,1.759,2.39,3.344,5.016,1.768,8.508a23.519,23.519,0,0,1-1.234,2.289c-.917,1.555-1.635,2.773-1.049,3.809a1.708,1.708,0,0,0,1.877,1.083,1.387,1.387,0,0,1,.507.029,2.869,2.869,0,0,1,2.352,3.295l.008.713c.016,1.86.105,2.413,2.215,3l.4.111-.148.388a2.025,2.025,0,0,0-.093,1.192,2.693,2.693,0,0,0,1.513,1.648c2.616,1.382,2.539,2.888,2.5,3.7a4.578,4.578,0,0,0,1.745,2.466,5.388,5.388,0,0,0,4.669,1.265l.313-.076c11.632-2.844,13.738-2.841,14.266-2.466a1.116,1.116,0,0,1,.4.947c-.05.51-.489,1.37-2.294,2.568-1.883,1.25-4.649,7.639-6.479,11.867l-.4.933c-1.469,3.381-4.9,6.131-6.306,7.156l-.363.264-.2-.4c-1.4-2.81-3.48-6.618-4.244-7.9a62.5,62.5,0,0,1-3.961-9.735c-.134-.537-.256-1.078-.374-1.6l-.01-.161c.511-3.375-1.459-6.632-2.518-8.382a10.576,10.576,0,0,1-.616-1.1l-.06-.143c-.608-1.464-1.289-3.1-2.707-3.115a4.6,4.6,0,0,0-1.923.357,2.831,2.831,0,0,1-.609.185,4.3,4.3,0,0,1-1.18-.08,5.213,5.213,0,0,0-.95-.091,1.987,1.987,0,0,0-.823.277,1.837,1.837,0,0,1-.732.255,4.457,4.457,0,0,1-.739-.054,5.581,5.581,0,0,0-1.762-.013,9.881,9.881,0,0,0-1.433.436,6.125,6.125,0,0,1-1.174.347,5.348,5.348,0,0,1-.839.01,6.094,6.094,0,0,0-1.919.154c-1,.277-1.823.824-1.831,4.733-.006,2.305.025,3.746.7,4.3a1.842,1.842,0,0,0,1.566.2l.27-.047.129.242a4.719,4.719,0,0,0,.589.914,4.359,4.359,0,0,0,1.419.888c.691.321,1.344.625,1.588,1.222l.206.492a48.524,48.524,0,0,1,2.827,8.278c.106.528.24,1.417.41,2.542.289,1.913.685,4.529,1.228,7.35l.056.288-.266.126a18.318,18.318,0,0,0-3.61,2.477,14.154,14.154,0,0,1-1.215.944,7.574,7.574,0,0,1-1.084.508c-.2.083-.4.168-.6.255l-.164.072-.16-.08c-.246-.128-.935-.26-2.792.243-1.151.311-2.379,1.266-5.714,4.445l-.119.114-.165-.009a11.253,11.253,0,0,0-10.585,6.4c-.968,2.271-2.133,4.913-3.366,7.638l-.074.108-2.2,2.266c-2.541,2.616-3.307,3.406-4.633,4.568-3.13,2.743-3.973,2.787-4.9,2.541a2.749,2.749,0,0,0-.594-.11,22.145,22.145,0,0,1-3.467-1.123,69.957,69.957,0,0,0-11-3.294,38.755,38.755,0,0,1-5.869-1.323,3.794,3.794,0,0,0-1.061-.237,4.739,4.739,0,0,1-2-.684h0a2.638,2.638,0,0,0-1.386,1.214,1.928,1.928,0,0,0,.057,1.577,5.98,5.98,0,0,0,2.947,2.8l.272.127-.062.294A2.755,2.755,0,0,0,32,147.989a54.722,54.722,0,0,0,4.968,2.618,62.763,62.763,0,0,1,7.08,3.824,27.46,27.46,0,0,1,4.673,5l.409.545-.679.059c-1.248.11-2.615.208-3.906.3-2.494.178-4.848.346-5.934.565a7.984,7.984,0,0,1-3.248-.31c-1.506-.348-2.927-.676-3.836.252a1.743,1.743,0,0,0-.6,1.276l.019.332-.327.062a2.067,2.067,0,0,0-.977.434,1.411,1.411,0,0,0-.3,1.2l.031.254-.225.123a3.508,3.508,0,0,0-.643.445,1.309,1.309,0,0,0-.172,1.145l.03.172-.111.135a1.6,1.6,0,0,0-.3.964,2.018,2.018,0,0,0,.833,1.437l.169.139-.036.215a1.525,1.525,0,0,0,.521,1.4c.684.648,2.44.753,2.963.77l.211.006.105.183a3.807,3.807,0,0,0,2.155,1.275,5.446,5.446,0,0,0,1.4.254,6.322,6.322,0,0,1,2.128.232,18.511,18.511,0,0,0,2.289.206,42.083,42.083,0,0,1,6.461.731c.961.239,2.437.763,4,1.319,3.412,1.21,7.6,2.7,10.451,2.844,3.873.2,4.947-2.836,5.166-5.417a10.2,10.2,0,0,0-.044-1.289c-.207-3-.639-9.241,5.746-13.388a13.594,13.594,0,0,0,5.535-6.483Z" transform="translate(-26.921 -11.676)"/><path class="cls-2" d="M136.377,89.294c-2.175,1.9-4.914,4.086-6.26,7.683s-2.814,6.027-3.577,6.6-11.24,8.283-11.547,10.711-.172,5.735-.341,6.642" transform="translate(-26.921 -11.676)"/><path class="cls-2" d="M107.953,134.966c-1.34.947-5.035,6.38-6.3,8.27" transform="translate(-26.921 -11.676)"/><path class="cls-2" d="M105.407,92.886c.7-4.29-2.622-8.353-3.124-9.557-.6-1.436-1.3-3.244-2.766-3.258a7.6,7.6,0,0,0-2.533.542c-.616.091-1.517-.2-2.13-.17s-1,.5-1.555.531a11.927,11.927,0,0,0-2.5-.067c-.988.194-1.93.7-2.606.783a12.862,12.862,0,0,0-2.758.164c-1.116.309-1.824,1.006-1.831,4.733s.112,4.955,2.459,4.464" transform="translate(-26.921 -11.676)"/><path class="cls-2" d="M102.134,86.254a15.168,15.168,0,0,0,2.159,3.166c.581.58.95,2.92,1.508,5.149a62.775,62.775,0,0,0,3.961,9.735c.9,1.513,4.028,7.233,5.231,9.983" transform="translate(-26.921 -11.676)"/><path class="cls-2" d="M84.424,86.079a18.174,18.174,0,0,0,2.436,6.113c.809.9,2.574,1.049,3.008,2.109a52.46,52.46,0,0,1,3.033,8.771c.681,3.4,2.47,21.285,8.408,27.865,4.22,4.677,5.7,4.447,9.607,3.3s15.438-4.764,24.434-10.6c5.5-3.567,12.572-6.87,17.045-10.674" transform="translate(-26.921 -11.676)"/><path class="cls-2" d="M79.66,140.824a10.058,10.058,0,0,0-.947,4.167A13.029,13.029,0,0,1,72.471,158.3c-7.585,4.927-5.547,12.852-5.7,14.677s-.9,5.636-5.166,5.417-11.614-3.467-14.45-4.163-7.967-.714-8.75-.938a6.305,6.305,0,0,0-2.127-.231c-.8.02-3.327-.659-3.639-1.714,0,0-2.383,0-3.2-.775a1.5,1.5,0,0,1-.467-1.613s-1.063-.727-1.019-1.58.422-1.078.422-1.078-.255-.991.13-1.338a3.762,3.762,0,0,1,.884-.566s-.255-.991.258-1.453a2.4,2.4,0,0,1,1.369-.48s-.4-.693.511-1.623c1.57-1.6,4.677.545,7.085.058s11.035-.717,13.7-1.375,14.565-27.848,15.815-30.778a11.14,11.14,0,0,1,11.505-6.314c6,.858,15.916,13.709,18.45,16.71s5.62,5.971,8.539,11.008,4.42,12.691,4.783,15.154" transform="translate(-26.921 -11.676)"/><path class="cls-2" d="M78.191,151.274c2.265,1.708,6,11.163,9.6,18.012,2.514,4.786,5.009,9.544,7.053,12.582s7.531,10.407,16.868,10.641,13.785-1.92,17.718-5.934,5.735-6.977,12.624-13.833,16.938-22.9,19.422-34.381,4.266-14.086,4.533-22.867-.328-22.112-6.3-28.547c-4.313-4.651-4.052-5.585-3.955-7.474s.307-5.925,5.178-12.81A43.568,43.568,0,0,0,166.16,54.6c2.112-10.148,2.578-31.463-22.767-40.65C122.318,6.308,97.829,25.09,96.075,37.775c-1.02,7.379.287,17.852,1.973,20.143s3.358,4.985,1.768,8.508c-1.2,2.661-3.137,4.587-2.282,6.1.886,1.564,1.827.953,2.319,1.094,2.568.733,2.4,2.356,2.418,3.557.038,2.247-.181,2.886,2.664,3.59,0,0-1.3,1.885,1.229,3.223s2.546,2.77,2.5,3.7,2.816,4.609,6.414,3.73c4.362-1.066,13.742-3.384,14.626-2.5s.076,2.134-1.944,3.475-4.986,8.437-6.883,12.8-6.99,7.634-6.99,7.634" transform="translate(-26.921 -11.676)"/><path class="cls-2" d="M78.873,122.352c3.363-3.211,4.633-4.232,5.83-4.555,2.637-.713,2.918-.146,2.918-.146" transform="translate(-26.921 -11.676)"/><path class="cls-2" d="M64.695,136.477c-4.445,4.561-5.205,5.406-6.851,6.848-4.143,3.631-4.311,2.492-5.495,2.431s-8.754-3.445-14.47-4.416-5.97-1.528-6.929-1.56a4.811,4.811,0,0,1-2-.684,2.078,2.078,0,0,0-1.33,2.792,6.256,6.256,0,0,0,3.242,2.922A2.747,2.747,0,0,0,32,147.99c1.856,1.282,9.652,4.678,12.049,6.44a29.91,29.91,0,0,1,5.073,5.542" transform="translate(-26.921 -11.676)"/><path class="cls-2" d="M94.6,113.24c-2.19.938-4.1,2.931-5.094,3.559s-3.274,1.019-3.634,2.527a13.648,13.648,0,0,0,.234,4.251,18.123,18.123,0,0,0,3.1,5.436,1.693,1.693,0,0,0,2.81-.5" transform="translate(-26.921 -11.676)"/><path class="cls-2" d="M89.38,121.008a13.994,13.994,0,0,0,1.221,4.983c.815,1.387,1.978,3.644,2.534,4.329s1.153,1.831,2.5,1.211c1.007-.464.875-.863.875-.863" transform="translate(-26.921 -11.676)"/><path class="cls-2" d="M93.205,120.647a32.264,32.264,0,0,0,1.519,6.18c.731,1.743.811,4.011,2.58,4.069s1.809-1.219,1.746-1.911-.345-2.09-.345-2.09" transform="translate(-26.921 -11.676)"/><path class="cls-2" d="M130.651,58.026c1.621-1.671,5.763-3.186,8.068-1.093s4.319,5.457,3.385,8.7a14.67,14.67,0,0,1-4.9,7.534c-1.915,1.327-4.764,1.291-5.889-.3" transform="translate(-26.921 -11.676)"/><path class="cls-2" d="M132.654,61.748c-.179-.777.275-1.082.92-.83s3.522,3.032,2.669,5.181-2.3,2.623-2.658,3.153" transform="translate(-26.921 -11.676)"/><path class="cls-2" d="M133.324,63.647c-.788.4-1.206,1.215-.51,1.58s.97,2.282.269,3.123" transform="translate(-26.921 -11.676)"/><path class="cls-2" d="M101.935,70.694c.463.8,1.507,1.973.851,2.837-.507.668-.885.333-1.633-.084a1.767,1.767,0,0,0-1.409-.21" transform="translate(-26.921 -11.676)"/><path class="cls-2" d="M101.21,61.2c.183.7.318,2.356.9,2.422s2.158-.73,2.559-.709l.4.021" transform="translate(-26.921 -11.676)"/><path class="cls-2" d="M127.846,95.754c1.2-1.677,6.472-7.495,9.28-8.966s5.859-2.805,9.067-2.392" transform="translate(-26.921 -11.676)"/><path class="cls-2" d="M132.728,59.194c.78-.528,4.2-1.467,5.644.678,1.4,2.077,2.513,5.984-1.021,10.458" transform="translate(-26.921 -11.676)"/></g></svg>