<svg id="Layer_1" data-name="Layer 1" xmlns="http://www.w3.org/2000/svg" xmlns:xlink="http://www.w3.org/1999/xlink" viewBox="0 0 60.716 32.761"><defs><style>.cls-1{fill:url(#linear-gradient);}.cls-2{fill:#4a00b8;}.cls-3{font-size:12px;fill:#fff;font-family:Arial-BoldMT, Arial;font-weight:700;}</style><linearGradient id="linear-gradient" x1="30.495" y1="31.187" x2="30.495" y2="1.187" gradientUnits="userSpaceOnUse"><stop offset="0" stop-color="#c286d1"/><stop offset="1" stop-color="#4a00b8"/></linearGradient></defs><title>C_complex</title><g id="APC_C_complex" data-name="APC/C_complex"><rect class="cls-1" x="1.495" y="1.187" width="58" height="30" rx="10" ry="10"/><path class="cls-2" d="M119,115.15c-6.616-.009-13.231.43-19.847.837-3.308.205-6.616.388-9.923.457-1.654.057-3.308.074-4.962.093l-2.481.031a14.582,14.582,0,0,1-2.743-.146,11.362,11.362,0,0,1-9.411-9.592,15.055,15.055,0,0,1-.121-2.716l.076-4.962.038-2.481c.019-.841,0-1.6.095-2.587A11.2,11.2,0,0,1,71.639,88.9a10.988,10.988,0,0,1,4.111-3.582A11.227,11.227,0,0,1,81,84.179c6.616.261,13.231.449,19.847.335,3.308-.049,6.616-.194,9.923-.349l4.962-.214,2.481-.105c.415-.017.81-.043,1.295-.028a7.531,7.531,0,0,1,1.388.107,10.983,10.983,0,0,1,8.485,6.587,11.269,11.269,0,0,1,.743,2.7,14.506,14.506,0,0,1,.066,2.677c-.045,1.654-.16,3.308-.249,4.962l-.141,2.481c-.053.833-.072,1.63-.187,2.533A10.79,10.79,0,0,1,119,115.15Zm0-.3a9.935,9.935,0,0,0,4.662-1.244,9.6,9.6,0,0,0,3.382-3.367,9.087,9.087,0,0,0,1.26-4.485c.006-.748-.063-1.606-.1-2.427l-.141-2.481c-.089-1.654-.2-3.308-.249-4.962a12.106,12.106,0,0,0-.213-2.269,8.669,8.669,0,0,0-.634-2.053,9.222,9.222,0,0,0-6.489-5.179,38.6,38.6,0,0,0-4.741-.336l-4.962-.214c-3.308-.155-6.616-.3-9.923-.349-6.616-.114-13.231.074-19.847.335a9.38,9.38,0,0,0-4.27,1.291,9.732,9.732,0,0,0-3.1,3.089,8.684,8.684,0,0,0-1.27,4.1c-.027.668,0,1.56.013,2.373l.038,2.481.076,4.962a12,12,0,0,0,.158,2.23,8.425,8.425,0,0,0,.616,1.995,9.013,9.013,0,0,0,2.562,3.252,8.435,8.435,0,0,0,3.763,1.678,36.5,36.5,0,0,0,4.682.194c1.654.019,3.308.036,4.962.093,3.308.069,6.616.252,9.923.457C105.769,114.42,112.384,114.859,119,114.85Z" transform="translate(-69.505 -83.813)"/><text class="cls-3" transform="translate(11.235 11.673)">APC/C<tspan x="-5.675" y="14.4">complex</tspan></text></g></svg>