<svg id="Layer_1" data-name="Layer 1" xmlns="http://www.w3.org/2000/svg" xmlns:xlink="http://www.w3.org/1999/xlink" viewBox="0 0 75 157.057"><defs><style>.cls-1{fill:url(#linear-gradient);}.cls-2{fill:url(#radial-gradient);}.cls-3{fill:url(#linear-gradient-2);}.cls-4{fill:url(#linear-gradient-3);}.cls-5{fill:url(#radial-gradient-2);}.cls-6{fill:url(#linear-gradient-4);}</style><linearGradient id="linear-gradient" x1="115.655" y1="178.355" x2="115.655" y2="21.298" gradientTransform="translate(0.174 0.174)" gradientUnits="userSpaceOnUse"><stop offset="0" stop-color="#020a38"/><stop offset="0.2" stop-color="#344bd1"/><stop offset="0.287" stop-color="#3d53d5"/><stop offset="0.429" stop-color="#556ae1"/><stop offset="0.607" stop-color="#7d8ef4"/><stop offset="0.7" stop-color="#94a4ff"/><stop offset="0.735" stop-color="#8b9cfb"/><stop offset="0.792" stop-color="#7385ef"/><stop offset="0.863" stop-color="#4b61dc"/><stop offset="0.9" stop-color="#344bd1"/><stop offset="0.92" stop-color="#334ace"/><stop offset="0.936" stop-color="#3045c4"/><stop offset="0.951" stop-color="#2a3eb3"/><stop offset="0.965" stop-color="#22349b"/><stop offset="0.978" stop-color="#18277c"/><stop offset="0.991" stop-color="#0c1757"/><stop offset="1" stop-color="#020a38"/></linearGradient><radialGradient id="radial-gradient" cx="107.741" cy="99.826" r="13.514" gradientTransform="translate(0.174 -481.635) scale(1 5.826)" gradientUnits="userSpaceOnUse"><stop offset="0.7" stop-color="#344bd1"/><stop offset="1" stop-color="#020a38"/></radialGradient><linearGradient id="linear-gradient-2" x1="106.195" y1="31.918" x2="106.195" y2="168.082" gradientUnits="userSpaceOnUse"><stop offset="0" stop-color="#020a38"/><stop offset="0.069" stop-color="#152271"/><stop offset="0.158" stop-color="#2b3fb6"/><stop offset="0.2" stop-color="#344bd1"/><stop offset="0.287" stop-color="#3d53d5"/><stop offset="0.429" stop-color="#556ae1"/><stop offset="0.607" stop-color="#7d8ef4"/><stop offset="0.7" stop-color="#94a4ff"/><stop offset="0.735" stop-color="#8b9cfb"/><stop offset="0.792" stop-color="#7385ef"/><stop offset="0.863" stop-color="#4b61dc"/><stop offset="0.9" stop-color="#344bd1"/><stop offset="0.92" stop-color="#334ace"/><stop offset="0.936" stop-color="#3045c4"/><stop offset="0.951" stop-color="#2a3eb3"/><stop offset="0.965" stop-color="#22349b"/><stop offset="0.978" stop-color="#18277c"/><stop offset="0.991" stop-color="#0c1757"/><stop offset="1" stop-color="#020a38"/></linearGradient><linearGradient id="linear-gradient-3" x1="83.998" y1="178.355" x2="83.998" y2="21.298" xlink:href="#linear-gradient"/><radialGradient id="radial-gradient-2" cx="76.084" cy="99.826" r="13.514" xlink:href="#radial-gradient"/><linearGradient id="linear-gradient-4" x1="74.537" y1="31.918" x2="74.537" y2="168.082" xlink:href="#linear-gradient-2"/></defs><title>Ku_complex</title><g id="Ku_complex"><g id="Ku"><path class="cls-1" d="M94.157,100c0,45.555,6.159,78.528,13.757,78.528h15.829c7.6,0,13.757-32.973,13.757-78.528s-6.159-78.529-13.757-78.529H107.914C100.317,21.472,94.157,54.444,94.157,100Zm25.112,0c0,19.142-1.319,36.427-3.44,48.8-2.121-12.369-3.44-29.655-3.44-48.8s1.319-36.428,3.44-48.8C117.95,63.573,119.269,80.858,119.269,100Z" transform="translate(-62.5 -21.472)"/><path class="cls-2" d="M107.914,21.472c-7.6,0-13.757,32.973-13.757,78.528s6.159,78.528,13.757,78.528S121.671,145.556,121.671,100,115.512,21.472,107.914,21.472Zm0,146.61c-6.271,0-11.355-30.481-11.355-68.082s5.084-68.082,11.355-68.082S119.269,62.4,119.269,100,114.185,168.082,107.914,168.082Z" transform="translate(-62.5 -21.472)"/><path class="cls-3" d="M107.914,31.918C101.643,31.918,96.56,62.4,96.56,100s5.084,68.082,11.355,68.082c3.079,0,5.869-7.357,7.914-19.285-2.121-12.369-3.44-29.655-3.44-48.8s1.319-36.428,3.44-48.8h0C113.785,39.271,110.993,31.918,107.914,31.918Z" transform="translate(-62.5 -21.472)"/></g><g id="Ku-2" data-name="Ku"><path class="cls-4" d="M62.5,100c0,45.555,6.159,78.528,13.757,78.528H92.086c7.6,0,13.757-32.973,13.757-78.528S99.684,21.472,92.086,21.472H76.257C68.659,21.472,62.5,54.444,62.5,100Zm25.112,0c0,19.142-1.319,36.427-3.44,48.8-2.121-12.369-3.44-29.655-3.44-48.8s1.319-36.428,3.44-48.8C86.292,63.573,87.612,80.858,87.612,100Z" transform="translate(-62.5 -21.472)"/><path class="cls-5" d="M76.257,21.472C68.659,21.472,62.5,54.444,62.5,100s6.159,78.528,13.757,78.528S90.014,145.556,90.014,100,83.855,21.472,76.257,21.472Zm0,146.61C69.986,168.082,64.9,137.6,64.9,100s5.084-68.082,11.355-68.082S87.612,62.4,87.612,100,82.528,168.082,76.257,168.082Z" transform="translate(-62.5 -21.472)"/><path class="cls-6" d="M76.257,31.918C69.986,31.918,64.9,62.4,64.9,100s5.084,68.082,11.355,68.082c3.079,0,5.869-7.357,7.914-19.285-2.121-12.369-3.44-29.655-3.44-48.8s1.319-36.428,3.44-48.8h0C82.128,39.271,79.336,31.918,76.257,31.918Z" transform="translate(-62.5 -21.472)"/></g></g></svg>