<svg id="Layer_1" data-name="Layer 1" xmlns="http://www.w3.org/2000/svg" xmlns:xlink="http://www.w3.org/1999/xlink" viewBox="0 0 62.694 32.82"><defs><style>.cls-1{fill:url(#linear-gradient);}.cls-2{fill:#21004a;}.cls-3{font-size:12px;fill:#fff;font-family:Arial-BoldMT, Arial;font-weight:700;}</style><linearGradient id="linear-gradient" x1="31.496" y1="31.231" x2="31.496" y2="1.231" gradientUnits="userSpaceOnUse"><stop offset="0" stop-color="#6d1cd1"/><stop offset="1" stop-color="#21004a"/></linearGradient></defs><title>CALDAG_GEFs</title><g id="CALDAG_GEFs"><rect class="cls-1" x="1.496" y="1.231" width="60" height="30" rx="10" ry="10"/><path class="cls-2" d="M120.844,115.485c-6.782-.009-13.565.43-20.347.837-3.391.205-6.782.388-10.173.457-1.7.057-3.391.074-5.087.093l-2.543.031-1.272.016-.645,0-.737-.028a11.493,11.493,0,0,1-9.424-6.192,11.694,11.694,0,0,1-1.259-5.629l.076-5.087.038-2.543c.022-.873,0-1.639.073-2.6a11.018,11.018,0,0,1,11.3-10.331c6.782.261,13.565.449,20.347.335,3.391-.049,6.782-.194,10.173-.349l5.087-.214L119,84.18l1.272-.053.643-.023.714.02a10.974,10.974,0,0,1,9.232,5.956,11.359,11.359,0,0,1,.965,2.7,13.717,13.717,0,0,1,.2,1.418c.006.463.033.983.013,1.4-.045,1.7-.16,3.391-.249,5.087-.105,1.708-.162,3.363-.307,5.115a10.55,10.55,0,0,1-1.811,4.978A10.737,10.737,0,0,1,120.844,115.485Zm0-.3a9.816,9.816,0,0,0,4.766-1.307,9.393,9.393,0,0,0,3.4-3.508,9.662,9.662,0,0,0,.9-2.251,9.488,9.488,0,0,0,.251-2.379c-.057-1.638-.178-3.375-.263-5.058s-.2-3.391-.249-5.087c-.011-.436-.065-.762-.09-1.146-.084-.363-.119-.733-.235-1.085a8.76,8.76,0,0,0-.8-2.052,9.526,9.526,0,0,0-2.953-3.221,9.056,9.056,0,0,0-4.12-1.475c-.689-.07-1.637-.086-2.456-.126l-2.543-.105-5.087-.214c-3.391-.155-6.782-.3-10.173-.349-6.782-.114-13.565.074-20.347.335a9.246,9.246,0,0,0-4.365,1.35,9.434,9.434,0,0,0-3.119,3.219,8.464,8.464,0,0,0-1.172,4.234l.067,5.029.076,5.087a8.6,8.6,0,0,0,1.05,4.168,9.051,9.051,0,0,0,2.882,3.115,8.446,8.446,0,0,0,4,1.345l.533.036.627.011,1.272.016,2.543.031c1.7.019,3.391.036,5.087.093,3.391.069,6.782.252,10.173.457C107.28,114.755,114.062,115.194,120.844,115.185Z" transform="translate(-69.349 -84.104)"/><text class="cls-3" transform="translate(5.239 11.716)">CALDAG<tspan x="9.993" y="14.4">GEFs</tspan></text></g></svg>