<svg id="Layer_1" data-name="Layer 1" xmlns="http://www.w3.org/2000/svg" xmlns:xlink="http://www.w3.org/1999/xlink" viewBox="0 0 121.356 131.946"><defs><style>.cls-1{fill:url(#radial-gradient);}.cls-2,.cls-3{fill:#ff8c7a;}.cls-2{stroke:#ff8c7a;stroke-miterlimit:10;stroke-width:0.25px;}.cls-4{fill:url(#radial-gradient-2);}.cls-5{fill:url(#radial-gradient-3);}.cls-6{fill:url(#radial-gradient-4);}.cls-7,.cls-8,.cls-9{opacity:0.75;}.cls-7{fill:url(#radial-gradient-5);}.cls-8{fill:url(#radial-gradient-6);}.cls-9{fill:url(#radial-gradient-7);}</style><radialGradient id="radial-gradient" cx="77.855" cy="84.289" fx="61.857230544335614" r="66.677" gradientTransform="matrix(0.832, 0.554, -1.067, 1.602, 102.985, -93.874)" gradientUnits="userSpaceOnUse"><stop offset="0" stop-color="#ff8c7a"/><stop offset="0.254" stop-color="#fc8978"/><stop offset="0.425" stop-color="#f38072"/><stop offset="0.572" stop-color="#e47167"/><stop offset="0.705" stop-color="#cf5c57"/><stop offset="0.829" stop-color="#b34043"/><stop offset="0.944" stop-color="#911e2b"/><stop offset="1" stop-color="#7e0b1d"/></radialGradient><radialGradient id="radial-gradient-2" cx="153.532" cy="55.192" r="7.086" gradientTransform="translate(-39.239 -61.535) scale(1 1.507)" gradientUnits="userSpaceOnUse"><stop offset="0" stop-color="#400611"/><stop offset="1" stop-color="#e37c6d"/></radialGradient><radialGradient id="radial-gradient-3" cx="191.51" cy="295.686" r="7.086" gradientTransform="matrix(0, 1, -1.507, 0, 586.879, -103.573)" xlink:href="#radial-gradient-2"/><radialGradient id="radial-gradient-4" cx="189.314" cy="465.567" r="7.086" gradientTransform="matrix(0, 0.768, -1.507, 0, 791.574, 14.09)" xlink:href="#radial-gradient-2"/><radialGradient id="radial-gradient-5" cx="24.785" cy="248.967" r="152.812" gradientTransform="matrix(0.174, -0.985, 0.985, 0.174, -15.009, 123.655)" gradientUnits="userSpaceOnUse"><stop offset="0.98" stop-color="#ffcec9" stop-opacity="0"/><stop offset="0.981" stop-color="#ffcec9" stop-opacity="0.053"/><stop offset="0.982" stop-color="#ffcec9" stop-opacity="0.193"/><stop offset="0.985" stop-color="#ffcec9" stop-opacity="0.42"/><stop offset="0.988" stop-color="#ffcec9" stop-opacity="0.728"/><stop offset="0.99" stop-color="#ffcec9"/><stop offset="0.991" stop-color="#ffcec9" stop-opacity="0.952"/><stop offset="0.992" stop-color="#ffcec9" stop-opacity="0.823"/><stop offset="0.994" stop-color="#ffcec9" stop-opacity="0.615"/><stop offset="0.996" stop-color="#ffcec9" stop-opacity="0.326"/><stop offset="0.998" stop-color="#ffcec9" stop-opacity="0"/></radialGradient><radialGradient id="radial-gradient-6" cx="-207.459" cy="669.185" r="152.812" gradientTransform="matrix(0.794, 0.607, -0.607, 0.794, 615.375, -202.294)" xlink:href="#radial-gradient-5"/><radialGradient id="radial-gradient-7" cx="-239.77" cy="490.665" r="152.812" gradientTransform="translate(419.333 -263.513) rotate(5.369)" xlink:href="#radial-gradient-5"/></defs><title>blood_vessel_3</title><g id="BLOOD_VESSEL"><path class="cls-1" d="M155.565,49.256c-7.077-.77-19.01-.263-32.824.324-18.277.777-42.975,1.825-51.378-1.18-10.656-4.59-19.776-9.087-22.081-12.461A5.5,5.5,0,0,0,40.2,42.143C43.78,47.387,52.213,52.035,65.18,57.7c.018.009.034.021.052.03a18.508,18.508,0,0,0,1.847.8c4.736,2.037,10.036,4.211,15.9,6.594l2.134.868.008,0c7.819,3.274,4.037,21.309.379,38.75-4.077,19.442-8.7,41.479-1.316,57.139a5.5,5.5,0,1,0,9.949-4.691c-5.809-12.322-1.59-32.439,2.134-50.189,2.667-12.716,5.246-25.036,4.208-34.629,15.483,6.653,29.819,13.783,35.953,21.052a5.5,5.5,0,0,0,8.406-7.094c-7.934-9.4-24.361-17.446-42.286-25.039,6.319-.14,13.223-.405,20.665-.722,12.811-.546,24.91-1.06,31.168-.379a5.5,5.5,0,1,0,1.189-10.936Z" transform="translate(-39.239 -33.54)"/><ellipse class="cls-2" cx="117.052" cy="21.207" rx="4.179" ry="5.593"/><ellipse class="cls-3" cx="117.052" cy="21.207" rx="4.179" ry="5.593"/><ellipse class="cls-4" cx="117.052" cy="21.207" rx="3.398" ry="4.549"/><ellipse class="cls-3" cx="141.659" cy="90.697" rx="5.593" ry="4.179" transform="translate(-59.587 102.398) rotate(-48.232)"/><ellipse class="cls-5" cx="141.659" cy="90.697" rx="4.549" ry="3.398" transform="translate(-59.587 102.398) rotate(-48.232)"/><ellipse class="cls-3" cx="90.305" cy="161.643" rx="5.593" ry="3.21" transform="translate(-103.642 26.373) rotate(-27.482)"/><ellipse class="cls-6" cx="90.305" cy="161.643" rx="4.549" ry="2.611" transform="translate(-103.642 26.373) rotate(-27.482)"/><path id="SHINE" class="cls-7" d="M85.256,153.675a1.5,1.5,0,0,1-2.971-.131c-.508-5.769-1.366-20.831,1.481-35.893a1.5,1.5,0,0,1,2.948.559c-2.777,14.705-1.937,29.426-1.441,35.072A1.5,1.5,0,0,1,85.256,153.675Z" transform="translate(-39.239 -33.54)"/><path id="SHINE-2" data-name="SHINE" class="cls-8" d="M102.886,65.711a1.5,1.5,0,0,1,1.482-2.578c5.356,2.2,19.126,8.366,31.192,17.82a1.5,1.5,0,1,1-1.852,2.361c-11.781-9.228-25.24-15.251-30.481-17.407A1.5,1.5,0,0,1,102.886,65.711Z" transform="translate(-39.239 -33.54)"/><path id="SHINE-3" data-name="SHINE" class="cls-9" d="M111.536,54.741a1.5,1.5,0,0,1-.111-2.972c5.708-.974,20.652-3.052,35.894-1.436A1.5,1.5,0,0,1,147,53.317c-14.882-1.575-29.487.457-35.073,1.409A1.5,1.5,0,0,1,111.536,54.741Z" transform="translate(-39.239 -33.54)"/></g></svg>