<svg id="Layer_1" data-name="Layer 1" xmlns="http://www.w3.org/2000/svg" viewBox="0 0 49.446 56.941"><defs><style>.cls-1{fill:#f9c0da;}.cls-2{fill:#db0e5d;}.cls-3{opacity:0.4;}.cls-4{fill:none;stroke:#db0e5d;stroke-linecap:round;stroke-linejoin:round;}</style></defs><title>viral_protein</title><g id="VIRAL_PROTEIN" data-name="VIRAL PROTEIN"><polygon class="cls-1" points="48.946 42.456 48.946 14.485 24.723 0.5 0.5 14.485 0.5 42.456 24.723 56.441 48.946 42.456"/><path class="cls-2" d="M101.995,128.6a.5.5,0,0,1-.25-.067L77.522,114.543a.5.5,0,0,1-.25-.433V86.141a.5.5,0,0,1,.25-.433l24.223-13.986a.5.5,0,0,1,.5,0l24.223,13.986a.5.5,0,0,1,.25.433v27.97a.5.5,0,0,1-.25.433l-24.223,13.985A.5.5,0,0,1,101.995,128.6ZM78.272,113.821l23.723,13.7,23.723-13.7V86.43l-23.723-13.7L78.272,86.43Zm47.946.289h0Z" transform="translate(-77.272 -71.655)"/><g id="BACK" class="cls-3"><polygon class="cls-4" points="24.723 12.106 10.551 36.653 38.895 36.653 24.723 12.106"/><line class="cls-4" x1="24.723" y1="56.441" x2="10.551" y2="36.653"/><line class="cls-4" x1="38.895" y1="36.653" x2="24.723" y2="56.441"/><line class="cls-4" x1="24.723" y1="12.106" x2="24.723" y2="0.5"/><line class="cls-4" x1="0.5" y1="14.485" x2="24.723" y2="12.106"/><line class="cls-4" x1="48.946" y1="14.485" x2="24.723" y2="12.106"/><line class="cls-4" x1="10.551" y1="36.653" x2="0.5" y2="14.485"/><line class="cls-4" x1="0.5" y1="42.456" x2="10.551" y2="36.653"/><line class="cls-4" x1="38.895" y1="36.653" x2="48.946" y2="42.456"/><line class="cls-4" x1="48.946" y1="14.485" x2="38.895" y2="36.653"/></g><g id="FRONT"><polygon class="cls-4" points="24.723 44.835 38.895 20.288 10.551 20.288 24.723 44.835"/><line class="cls-4" x1="24.723" y1="0.5" x2="38.895" y2="20.288"/><line class="cls-4" x1="10.551" y1="20.288" x2="24.723" y2="0.5"/><line class="cls-4" x1="24.723" y1="44.835" x2="24.723" y2="56.441"/><line class="cls-4" x1="48.946" y1="42.456" x2="24.723" y2="44.835"/><line class="cls-4" x1="0.5" y1="42.456" x2="24.723" y2="44.835"/><line class="cls-4" x1="38.895" y1="20.288" x2="48.946" y2="42.456"/><line class="cls-4" x1="48.946" y1="14.485" x2="38.895" y2="20.288"/><line class="cls-4" x1="10.551" y1="20.288" x2="0.5" y2="14.485"/><line class="cls-4" x1="0.5" y1="42.456" x2="10.551" y2="20.288"/></g></g></svg>