<svg id="Layer_1" data-name="Layer 1" xmlns="http://www.w3.org/2000/svg" xmlns:xlink="http://www.w3.org/1999/xlink" viewBox="0 0 57.774 32.673"><defs><style>.cls-1{fill:url(#linear-gradient);}.cls-2{fill:#bfa82e;}.cls-3{font-size:12px;fill:#fff;font-family:Arial-BoldMT, Arial;font-weight:700;}.cls-4{letter-spacing:-0.037em;}</style><linearGradient id="linear-gradient" x1="29.016" y1="31.117" x2="29.016" y2="1.117" gradientUnits="userSpaceOnUse"><stop offset="0" stop-color="#8248c9"/><stop offset="1" stop-color="#bfa82e"/></linearGradient></defs><title>tRNA ligase</title><g id="tRNA_ligase" data-name="tRNA ligase"><rect class="cls-1" x="1.516" y="1.117" width="55" height="30" rx="10" ry="10"/><path class="cls-2" d="M116.435,114.2c-6.366-.009-12.731.43-19.1.837-3.183.205-6.366.388-9.548.457-1.591.057-3.183.074-4.774.093a14.666,14.666,0,0,1-5.224-.535,11.317,11.317,0,0,1-7.85-10.353l-.022-.682.01-.6.019-1.194.076-4.774.038-2.387c.01-.408,0-.772.028-1.217A9.919,9.919,0,0,1,70.23,92.5a11.1,11.1,0,0,1,2.082-4.9,10.913,10.913,0,0,1,9.124-4.374c6.366.261,12.731.449,19.1.335,3.183-.049,6.366-.194,9.548-.349L114.855,83a13.744,13.744,0,0,1,5.113.38,10.984,10.984,0,0,1,7.291,7.374,11.408,11.408,0,0,1,.425,2.659l.009.668-.023.6-.045,1.194c-.045,1.591-.16,3.183-.249,4.774l-.141,2.387a17.091,17.091,0,0,1-.255,2.472,10.831,10.831,0,0,1-10.545,8.694Zm0-.3a9.8,9.8,0,0,0,4.5-1.164,9.359,9.359,0,0,0,3.343-3.15,8.965,8.965,0,0,0,1.4-4.26,16.922,16.922,0,0,0-.045-2.292l-.141-2.387c-.089-1.591-.2-3.183-.249-4.774l-.045-1.194-.023-.6-.049-.524a8.812,8.812,0,0,0-.391-2.031,9.679,9.679,0,0,0-2.114-3.517,9.427,9.427,0,0,0-3.445-2.261,12.231,12.231,0,0,0-4.324-.651l-4.774-.214c-3.183-.155-6.366-.3-9.548-.349-6.366-.114-12.731.074-19.1.335a9.251,9.251,0,0,0-4.118,1.218,9.525,9.525,0,0,0-3.065,2.891,8.578,8.578,0,0,0-1.4,3.886,8.919,8.919,0,0,0-.054,1.031c-.011.349.008.782.01,1.169l.038,2.387.076,4.774.019,1.194.01.6.036.51a8.566,8.566,0,0,0,.38,1.973,9.166,9.166,0,0,0,2.069,3.4,8.75,8.75,0,0,0,3.367,2.111,11.577,11.577,0,0,0,4.213.5c1.591.019,3.183.036,4.774.093,3.183.069,6.366.252,9.548.457C103.7,113.468,110.07,113.907,116.435,113.9Z" transform="translate(-69.92 -82.931)"/><text class="cls-3" transform="translate(13.649 11.602)">tRN<tspan class="cls-4" x="21.328" y="0">A</tspan><tspan x="-7.562" y="14.4">LIGASE</tspan></text></g></svg>