<svg id="Layer_1" data-name="Layer 1" xmlns="http://www.w3.org/2000/svg" xmlns:xlink="http://www.w3.org/1999/xlink" viewBox="0 0 46.563 22.585"><defs><style>.cls-1{fill:url(#linear-gradient);}.cls-2{fill:#c6b72e;}.cls-3{font-size:12px;fill:#fff;font-family:Arial-BoldMT, Arial;font-weight:700;}.cls-4{letter-spacing:-0.092em;}.cls-5{letter-spacing:-0.018em;}</style><linearGradient id="linear-gradient" x1="154.286" y1="87.051" x2="154.286" y2="107.051" gradientTransform="translate(-130.826 -85.991)" gradientUnits="userSpaceOnUse"><stop offset="0" stop-color="#c6b72e"/><stop offset="1" stop-color="#00cdd5"/></linearGradient></defs><title>YAP</title><g id="YAP"><rect class="cls-1" x="1.46" y="1.059" width="44" height="20" rx="10" ry="10"/><path class="cls-2" d="M109.921,107.387c-4.616-.009-9.231.43-13.847.837-2.308.205-4.616.388-6.923.457-1.17.051-2.273.086-3.5.081a11.084,11.084,0,0,1-3.922-.723,11.314,11.314,0,0,1-7.027-12.9,11.161,11.161,0,0,1,4.067-6.512,10.945,10.945,0,0,1,7.149-2.212c4.616.282,9.231.437,13.847.335,2.308-.059,4.616-.178,6.923-.341,1.165-.074,2.283-.169,3.486-.223a10.182,10.182,0,0,1,3.8.575,10.673,10.673,0,0,1,5.825,4.967,10.4,10.4,0,0,1,.875,7.52,11.015,11.015,0,0,1-4.136,5.967A11.519,11.519,0,0,1,109.921,107.387Zm0-.3a8.967,8.967,0,0,0,6.133-2.462A9.19,9.19,0,0,0,118.8,98.9a9.764,9.764,0,0,0-5.73-9.809,8.867,8.867,0,0,0-2.946-.777c-1.1-.1-2.294-.162-3.437-.246-2.308-.164-4.616-.282-6.923-.341-4.616-.1-9.231.053-13.847.335a9.318,9.318,0,0,0-5.609,2.42,9.109,9.109,0,0,0-2.82,5.184,8.636,8.636,0,0,0,1.069,5.666,8.834,8.834,0,0,0,4.334,3.73,7.946,7.946,0,0,0,2.829.629c1.082.042,2.288.043,3.426.1,2.308.069,4.616.252,6.923.457C100.69,106.657,105.306,107.1,109.921,107.087Z" transform="translate(-74.462 -86.177)"/><text class="cls-3" transform="translate(12.187 14.373)"><tspan class="cls-4">Y</tspan><tspan x="6.902" y="0">A</tspan><tspan class="cls-5" x="15.568" y="0">P</tspan></text></g></svg>