<svg id="R-ICO-013710" xmlns="http://www.w3.org/2000/svg" xmlns:xlink="http://www.w3.org/1999/xlink" viewBox="0 0 65.133 22.941"><defs><style>.cls-1{fill:url(#linear-gradient);}.cls-2{fill:#f9934e;}.cls-3{font-size:12px;fill:#fff;font-family:Arial-BoldMT, Arial;font-weight:700;}</style><linearGradient id="linear-gradient" x1="32.854" y1="1.341" x2="32.854" y2="21.341" gradientUnits="userSpaceOnUse"><stop offset="0" stop-color="#f9934e"/><stop offset="0.511" stop-color="#d3686c"/><stop offset="1" stop-color="#ab3c8c"/></linearGradient></defs><title>R-ICO-013710</title><g id="RPS6KA5"><rect class="cls-1" x="1.354" y="1.341" width="63" height="20" rx="10"/><path class="cls-2" d="M121.5,110.15c-6.2-.009-12.4.43-18.6.837-6.2.458-12.4.547-18.6.613H79.657l-1.163,0c-.449-.027-.9-.03-1.345-.088a10.92,10.92,0,0,1-2.607-.656,11.517,11.517,0,0,1-6.975-7.582,11.138,11.138,0,0,1,1.966-9.951A10.948,10.948,0,0,1,78.5,89.179c6.2.281,12.4.436,18.6.335,6.2-.085,12.4-.574,18.6-.763,1.55-.032,3.1-.093,4.649-.087l1.163,0c.438.024.88.023,1.316.077a10.589,10.589,0,0,1,2.555.634,10.757,10.757,0,0,1-3.877,20.78Zm0-.3a9.287,9.287,0,0,0,7.695-4.121,9.159,9.159,0,0,0,.965-8.316,9.394,9.394,0,0,0-5.7-5.547,9.148,9.148,0,0,0-1.952-.453c-.332-.046-.669-.043-1-.071l-1.162-.006c-1.55.006-3.1-.055-4.649-.087-6.2-.189-12.4-.678-18.6-.763-6.2-.1-12.4.054-18.6.335a9.129,9.129,0,0,0-7.039,3.941,8.8,8.8,0,0,0-1.179,7.691,8.657,8.657,0,0,0,5.34,5.458,8.769,8.769,0,0,0,1.9.431c.323.041.65.035.974.061l1.162,0h4.649c6.2.066,12.4.155,18.6.613C109.1,109.42,115.3,109.859,121.5,109.85Z" transform="translate(-67.146 -88.659)"/><text id="RPS6KA5-2" data-name="RPS6KA5" class="cls-3" transform="translate(5.278 14.23)">RPS6KA5</text></g></svg>