<svg id="Layer_1" data-name="Layer 1" xmlns="http://www.w3.org/2000/svg" xmlns:xlink="http://www.w3.org/1999/xlink" viewBox="0 0 59.257 22.924"><defs><style>.cls-1{fill:url(#linear-gradient);}.cls-2{fill:#6d1774;}.cls-3{font-size:12px;fill:#fff;font-family:Arial-BoldMT, Arial;font-weight:700;}</style><linearGradient id="linear-gradient" x1="29.884" y1="21.317" x2="29.884" y2="1.317" gradientUnits="userSpaceOnUse"><stop offset="0" stop-color="#7ea570"/><stop offset="0.325" stop-color="#797a71"/><stop offset="1" stop-color="#6d1774"/></linearGradient></defs><title>MYBBP1</title><g id="MYBBP1"><rect class="cls-1" x="1.384" y="1.317" width="57" height="20" rx="10" ry="10"/><path class="cls-2" d="M115.55,108.051c-5.7-.009-11.4.43-17.1.837-5.7.458-11.4.546-17.1.613-.712.016-1.425,0-2.137,0a14.657,14.657,0,0,1-2.365-.142,11.155,11.155,0,0,1-4.585-1.768,11.444,11.444,0,0,1-5.012-8.1,11.055,11.055,0,0,1,2.851-8.93A10.935,10.935,0,0,1,78.55,87.08c5.7.282,11.4.437,17.1.335,5.7-.084,11.4-.574,17.1-.762a29.349,29.349,0,0,1,4.464.047,10.64,10.64,0,0,1,6.167,18A10.987,10.987,0,0,1,115.55,108.051Zm0-.3a9.2,9.2,0,0,0,7.244-3.559,9.078,9.078,0,0,0,1.7-7.554,9.419,9.419,0,0,0-4.243-6,9.3,9.3,0,0,0-3.435-1.293c-1.139-.162-2.665-.139-4.072-.193-5.7-.188-11.4-.678-17.1-.762-5.7-.1-11.4.053-17.1.335a9.156,9.156,0,0,0-6.626,3.426,8.772,8.772,0,0,0-1.86,6.952,8.6,8.6,0,0,0,3.915,5.868,8.892,8.892,0,0,0,3.344,1.231,39.386,39.386,0,0,0,4.033.1c5.7.066,11.4.155,17.1.613C104.152,107.321,109.851,107.76,115.55,107.751Z" transform="translate(-67.166 -86.584)"/><text class="cls-3" transform="translate(4.879 14.294)">MYBBP1</text></g></svg>