<svg id="R-ICO-013711" xmlns="http://www.w3.org/2000/svg" xmlns:xlink="http://www.w3.org/1999/xlink" viewBox="0 0 60.233 22.937"><defs><style>.cls-1{fill:url(#linear-gradient);}.cls-2{fill:#7bc77a;}.cls-3{font-size:12px;fill:#fff;font-family:Arial-BoldMT, Arial;font-weight:700;}</style><linearGradient id="linear-gradient" x1="30.377" y1="21.33" x2="30.377" y2="1.33" gradientUnits="userSpaceOnUse"><stop offset="0" stop-color="#637000"/><stop offset="1" stop-color="#7bc77a"/></linearGradient></defs><title>R-ICO-013711</title><g id="PIP5K1C"><rect class="cls-1" x="1.377" y="1.33" width="58" height="20" rx="10"/><path class="cls-2" d="M119,110.15c-5.782-.009-11.565.43-17.347.837-5.782.458-11.565.547-17.347.613-.723.015-1.446,0-2.168,0l-1.084,0-1.248-.065a11.147,11.147,0,0,1-4.718-1.617,11.783,11.783,0,0,1-3.572-3.436,11.323,11.323,0,0,1-1.766-4.6,11.12,11.12,0,0,1,2.714-9.109A10.967,10.967,0,0,1,81,89.179c5.782.281,11.565.436,17.347.335,5.782-.085,11.565-.574,17.347-.763l2.168-.057,1.084-.024,1.221.055a10.784,10.784,0,0,1,4.623,1.559,10.66,10.66,0,0,1,5,7.914,10.773,10.773,0,0,1-2.882,8.5A11,11,0,0,1,119,110.15Zm0-.3a9.24,9.24,0,0,0,7.325-3.648,9.139,9.139,0,0,0,1.584-7.689,9.38,9.38,0,0,0-1.644-3.473,9.824,9.824,0,0,0-2.842-2.475,9.265,9.265,0,0,0-3.531-1.183l-.946-.052-1.084-.024-2.168-.057c-5.782-.189-11.565-.678-17.347-.763-5.782-.1-11.565.054-17.347.335a9.188,9.188,0,0,0-6.7,3.507,8.836,8.836,0,0,0-1.753,7.082,8.573,8.573,0,0,0,4.153,5.821,8.869,8.869,0,0,0,3.436,1.125l.919.042,1.084,0c.722,0,1.445-.011,2.168,0,5.782.066,11.565.155,17.347.613C107.435,109.42,113.218,109.859,119,109.85Z" transform="translate(-69.623 -88.67)"/><text class="cls-3" transform="translate(5.366 14.218)">PIP5K1C</text></g></svg>