<svg id="Layer_1" data-name="Layer 1" xmlns="http://www.w3.org/2000/svg" xmlns:xlink="http://www.w3.org/1999/xlink" viewBox="0 0 124.074 61.355"><defs><style>.cls-1{fill:url(#linear-gradient);}.cls-2{fill:#bc6f11;}</style><linearGradient id="linear-gradient" x1="63.773" y1="132.522" x2="129.605" y2="66.69" gradientUnits="userSpaceOnUse"><stop offset="0" stop-color="#bc8911"/><stop offset="0.166" stop-color="#bc963d"/><stop offset="0.336" stop-color="#bca162"/><stop offset="0.506" stop-color="#bca97f"/><stop offset="0.674" stop-color="#bcaf93"/><stop offset="0.84" stop-color="#bcb3a0"/><stop offset="1" stop-color="#bcb4a4"/></linearGradient></defs><title>sarcoplasmic_reticulum</title><g id="sarcoplasmic_reticulum"><path class="cls-1" d="M71.744,124.754c25.679-4.122,38.912,2.965,64.678,1.2,15.523-1.065,24.6-6.724,22.806-33.3-.723-10.693-2.373-20.388-7.818-21.642-13.7-3.155-70.347-5.1-91.812-2.226S34.876,87.9,39.592,100.185C45.115,114.57,45.308,129,71.744,124.754Z" transform="translate(-36.699 -66.375)"/><path class="cls-2" d="M160.466,89.3c-.161-1.762-.378-3.527-.7-5.286a33.788,33.788,0,0,0-1.327-5.23,22.7,22.7,0,0,0-.864-2.179c-1.273-3.447-3.138-5.919-5.939-6.564a101.164,101.164,0,0,0-11.69-1.641q-1.406-.212-2.81-.4c-2.406-.347-4.824-.555-7.238-.792-2.417-.213-4.837-.35-7.256-.5-2.422-.1-4.843-.192-7.266-.248-2.424-.005-4.846-.064-7.27.011-.959.017-1.918.047-2.877.078-9.353-.214-18.8-.23-27.126.005-1.36-.019-2.721-.032-4.082-.023-3.268,0-6.534.143-9.812.345-1.64.109-3.276.282-4.923.492l-2.49.433-1.245.219c-.412.093-.819.222-1.228.332l-2.443.724-2.367,1a16.443,16.443,0,0,0-2.285,1.19l-1.12.644c-.368.225-.7.516-1.043.776a19.547,19.547,0,0,0-7.707,12.1,26.571,26.571,0,0,0,1.3,15.773c.773,2.014,1.446,4.046,2.1,6.012.7,2.1,1.38,4.154,2.146,6.1.352,1.024.732,2.045,1.174,3.059A19.219,19.219,0,0,0,49,122.617a17.642,17.642,0,0,0,7.752,3.735c5.594,1.177,11.181.445,16.4-.632,1.205-.231,2.415-.444,3.627-.646,10.3-1.167,18.6-.518,26.988.371q2.1.312,4.208.623c3.175.485,6.378.846,9.595,1.171,3.219.3,6.463.435,9.706.488,3.248.016,6.485-.143,9.728-.4,1.629-.169,3.262-.359,4.889-.692.814-.134,1.624-.359,2.432-.551.8-.252,1.6-.475,2.386-.793a19.949,19.949,0,0,0,4.235-2.179c5.473-3.419,8.824-9.613,9.407-20.669q.164-1.259.258-2.519A63.369,63.369,0,0,0,160.466,89.3ZM149.23,121.768a17.724,17.724,0,0,1-3.279,1.309,40.183,40.183,0,0,1-9.164,1.419c-3.155.164-6.329.3-9.495.234-6.337.016-12.672-.517-19.066-.98q-2.151-.165-4.317-.3a148.432,148.432,0,0,0-15.987-1.011,100.185,100.185,0,0,0-11.445.657q-1.838.113-3.669.308c-2.681.272-5.231.627-7.834.642a30.185,30.185,0,0,1-7.574-.623,15.214,15.214,0,0,1-6.59-2.988,18.5,18.5,0,0,1-4.644-5.765c-.574-1.057-1.1-2.154-1.6-3.272-.668-1.733-1.278-3.571-1.908-5.474-.659-1.987-1.34-4.042-2.13-6.1a24.844,24.844,0,0,1-1.382-13.9,20.087,20.087,0,0,1,1.6-4.235,18.433,18.433,0,0,1,5.994-6.721c.314-.213.6-.457.931-.653l1-.553a13.963,13.963,0,0,1,2.049-1.03l2.14-.867,2.243-.629c.374-.106.741-.231,1.12-.323l1.154-.217,2.309-.438c1.574-.235,3.174-.391,4.772-.571,3.2-.358,6.43-.566,9.659-.836q1.95-.144,3.9-.279c8.3-.226,17.78-.2,27.167.011q1.428.113,2.855.219c2.408.2,4.818.315,7.225.487l7.223.4,7.223.336,7.225.289c1.1.05,2.2.092,3.3.134a95.35,95.35,0,0,1,10.95,1.537c2.015.464,3.445,2.475,4.474,5.246.2.714.364,1.439.519,2.166a101.3,101.3,0,0,1,1.3,10.169c.313,3.449.608,6.881.8,10.323.037.756.066,1.512.091,2.269C157.843,112.9,154.631,118.688,149.23,121.768Z" transform="translate(-36.699 -66.375)"/></g></svg>