<svg id="Layer_1" data-name="Layer 1" xmlns="http://www.w3.org/2000/svg" xmlns:xlink="http://www.w3.org/1999/xlink" viewBox="0 0 160.439 95.244"><defs><style>.cls-1{fill:#ffb899;stroke:#ff9363;stroke-linecap:round;stroke-linejoin:round;stroke-width:4px;}.cls-2{fill:url(#radial-gradient);}.cls-3{opacity:0.75;}.cls-4{isolation:isolate;}.cls-5{fill:url(#radial-gradient-2);}.cls-6{fill:#5656a5;}.cls-7{fill:url(#radial-gradient-3);}.cls-8{fill:#4b4b96;}</style><radialGradient id="radial-gradient" cx="151.019" cy="100.494" r="69.18" gradientTransform="translate(-31.042 51.442) scale(0.916 0.488)" gradientUnits="userSpaceOnUse"><stop offset="0.006" stop-color="#d2d77c"/><stop offset="1" stop-color="#ff9363"/></radialGradient><radialGradient id="radial-gradient-2" cx="39.372" cy="838.843" r="22.867" gradientTransform="translate(-19.781 -790.268)" gradientUnits="userSpaceOnUse"><stop offset="0" stop-color="#afbaf7"/><stop offset="0.311" stop-color="#6d96ce"/><stop offset="0.803" stop-color="#285fcc"/></radialGradient><radialGradient id="radial-gradient-3" cx="35.054" cy="846.002" r="4.413" gradientTransform="translate(-19.781 -790.268)" gradientUnits="userSpaceOnUse"><stop offset="0" stop-color="#afbaf7"/><stop offset="0.312" stop-color="#b898ce"/><stop offset="0.803" stop-color="#515181"/></radialGradient></defs><title>adipocyte</title><g id="adipocyte"><path class="cls-1" d="M99.526,55.722c31.509,3.8,58.13-1.344,71.635,19.74,11.835,18.477,18.007,60.6-59.745,68.244-48.6,4.778-89.457,2.73-89.633-31.119S30.893,47.447,99.526,55.722Z" transform="translate(-19.781 -52.378)"/><path class="cls-2" d="M99.566,59.434c28.867,3.48,53.256-1.231,65.629,18.085,10.843,16.927,16.5,55.52-54.736,62.523-44.527,4.377-44.559,1.918-44.72-29.093S36.687,51.853,99.566,59.434Z" transform="translate(-19.781 -52.378)"/><g id="NUCLEUS" class="cls-3"><g id="NUCLEUS-2" data-name="NUCLEUS" class="cls-4"><circle class="cls-5" cx="24.115" cy="55.819" r="17.399"/><path class="cls-6" d="M43.9,126.236A18.038,18.038,0,1,1,61.934,108.2,18.058,18.058,0,0,1,43.9,126.236Zm0-34.8A16.759,16.759,0,1,0,60.655,108.2,16.775,16.775,0,0,0,43.9,91.439Z" transform="translate(-19.781 -52.378)"/></g><g id="NUCLEOLUS"><circle class="cls-7" cx="15.288" cy="55.723" r="3.55"/><path class="cls-8" d="M35.068,111.844a3.726,3.726,0,1,1,3.71-3.742A3.713,3.713,0,0,1,35.068,111.844Zm0-7.132a3.39,3.39,0,1,0,3.39,3.39A3.392,3.392,0,0,0,35.068,104.711Z" transform="translate(-19.781 -52.378)"/></g></g></g></svg>