<svg id="Layer_1" data-name="Layer 1" xmlns="http://www.w3.org/2000/svg" xmlns:xlink="http://www.w3.org/1999/xlink" viewBox="0 0 25.781 15.378"><defs><style>.cls-1{fill:url(#linear-gradient);}.cls-2{fill:#d14a20;}</style><linearGradient id="linear-gradient" x1="609.717" y1="580.108" x2="609.717" y2="566.506" gradientTransform="matrix(1, 0, 0, -1, -509.717, 673.316)" gradientUnits="userSpaceOnUse"><stop offset="0" stop-color="#d28a1f"/><stop offset="0.018" stop-color="#cb8122"/><stop offset="0.083" stop-color="#b8672c"/><stop offset="0.155" stop-color="#a85333"/><stop offset="0.237" stop-color="#9d4538"/><stop offset="0.336" stop-color="#973d3b"/><stop offset="0.5" stop-color="#953a3c"/><stop offset="0.664" stop-color="#973d3b"/><stop offset="0.763" stop-color="#9d4538"/><stop offset="0.845" stop-color="#a85333"/><stop offset="0.917" stop-color="#b8672c"/><stop offset="0.982" stop-color="#cb8122"/><stop offset="1" stop-color="#d28a1f"/></linearGradient></defs><title>TAP1</title><g id="TAP1"><path class="cls-1" d="M88.652,107.689c8.591,0,8.591-7.688,8.591-7.688s0-7.689-8.591-7.689c0,0,7.331.874,11.348.874s11.348-.874,11.348-.874c-8.591,0-8.591,7.689-8.591,7.689s0,7.688,8.591,7.688c0,0-7.31-.874-11.348-.874S88.652,107.689,88.652,107.689Z" transform="translate(-87.11 -92.311)"/><path class="cls-2" d="M104.715,100c0,5.972,5.8,5.2,6.632,5.2a1.233,1.233,0,0,1,1.381,1.371c0,.77-.3,1.122-1.381,1.122-8.591,0-8.591-7.688-8.591-7.688s0-7.689,8.591-7.689c1.078,0,1.543.37,1.543,1.121a1.487,1.487,0,0,1-1.543,1.373C110.52,94.8,104.715,94.028,104.715,100Z" transform="translate(-87.11 -92.311)"/><path class="cls-2" d="M95.285,100c0,5.972-5.8,5.2-6.632,5.2a1.233,1.233,0,0,0-1.381,1.371c0,.77.3,1.122,1.381,1.122,8.591,0,8.591-7.688,8.591-7.688s0-7.689-8.591-7.689c-1.078,0-1.543.37-1.543,1.121A1.487,1.487,0,0,0,88.653,94.8C89.48,94.8,95.285,94.028,95.285,100Z" transform="translate(-87.11 -92.311)"/></g></svg>