<svg id="Layer_1" data-name="Layer 1" xmlns="http://www.w3.org/2000/svg" xmlns:xlink="http://www.w3.org/1999/xlink" viewBox="0 0 40.635 42.229"><defs><style>.cls-1{opacity:0.69;}.cls-2{stroke:#f9b25c;stroke-miterlimit:10;fill:url(#radial-gradient);}.cls-10,.cls-11,.cls-12,.cls-13,.cls-14,.cls-15,.cls-16,.cls-17,.cls-18,.cls-19,.cls-20,.cls-21,.cls-22,.cls-23,.cls-24,.cls-25,.cls-26,.cls-27,.cls-28,.cls-29,.cls-3,.cls-30,.cls-32,.cls-33,.cls-34,.cls-35,.cls-36,.cls-37,.cls-38,.cls-39,.cls-4,.cls-40,.cls-41,.cls-42,.cls-43,.cls-44,.cls-45,.cls-46,.cls-47,.cls-48,.cls-49,.cls-5,.cls-50,.cls-51,.cls-52,.cls-53,.cls-54,.cls-55,.cls-56,.cls-57,.cls-58,.cls-59,.cls-6,.cls-60,.cls-61,.cls-62,.cls-69,.cls-7,.cls-70,.cls-71,.cls-72,.cls-73,.cls-74,.cls-8,.cls-84,.cls-85,.cls-86,.cls-87,.cls-88,.cls-9,.cls-91,.cls-95,.cls-96,.cls-97,.cls-98{opacity:0.75;}.cls-3{fill:url(#radial-gradient-2);}.cls-4{fill:url(#radial-gradient-3);}.cls-5{fill:url(#radial-gradient-4);}.cls-6{fill:url(#radial-gradient-5);}.cls-7{fill:url(#radial-gradient-6);}.cls-8{fill:url(#radial-gradient-7);}.cls-9{fill:url(#radial-gradient-8);}.cls-10{fill:url(#radial-gradient-9);}.cls-11{fill:url(#radial-gradient-10);}.cls-12{fill:url(#radial-gradient-11);}.cls-13{fill:url(#radial-gradient-12);}.cls-14{fill:url(#radial-gradient-13);}.cls-15{fill:url(#radial-gradient-14);}.cls-16{fill:url(#radial-gradient-15);}.cls-17{fill:url(#radial-gradient-16);}.cls-18{fill:url(#radial-gradient-17);}.cls-19{fill:url(#radial-gradient-18);}.cls-20{fill:url(#radial-gradient-19);}.cls-21{fill:url(#radial-gradient-20);}.cls-22{fill:url(#radial-gradient-21);}.cls-23{fill:url(#radial-gradient-22);}.cls-24{fill:url(#radial-gradient-23);}.cls-25{fill:url(#radial-gradient-24);}.cls-26{fill:url(#radial-gradient-25);}.cls-27{fill:url(#radial-gradient-26);}.cls-28{fill:url(#radial-gradient-27);}.cls-29{fill:url(#radial-gradient-28);}.cls-30{fill:url(#radial-gradient-29);}.cls-31{fill:url(#radial-gradient-30);}.cls-32{fill:url(#radial-gradient-31);}.cls-33{fill:url(#radial-gradient-32);}.cls-34{fill:url(#radial-gradient-33);}.cls-35{fill:url(#radial-gradient-34);}.cls-36{fill:url(#radial-gradient-35);}.cls-37{fill:url(#radial-gradient-36);}.cls-38{fill:url(#radial-gradient-37);}.cls-39{fill:url(#radial-gradient-38);}.cls-40{fill:url(#radial-gradient-39);}.cls-41{fill:url(#radial-gradient-40);}.cls-42{fill:url(#radial-gradient-41);}.cls-43{fill:url(#radial-gradient-42);}.cls-44{fill:url(#radial-gradient-43);}.cls-45{fill:url(#radial-gradient-44);}.cls-46{fill:url(#radial-gradient-45);}.cls-47{fill:url(#radial-gradient-46);}.cls-48{fill:url(#radial-gradient-47);}.cls-49{fill:url(#radial-gradient-48);}.cls-50{fill:url(#radial-gradient-49);}.cls-51{fill:url(#radial-gradient-50);}.cls-52{fill:url(#radial-gradient-51);}.cls-53{fill:url(#radial-gradient-52);}.cls-54{fill:url(#radial-gradient-53);}.cls-55{fill:url(#radial-gradient-54);}.cls-56{fill:url(#radial-gradient-55);}.cls-57{fill:url(#radial-gradient-56);}.cls-58{fill:url(#radial-gradient-57);}.cls-59{fill:url(#radial-gradient-58);}.cls-60{fill:url(#radial-gradient-59);}.cls-61{fill:url(#radial-gradient-60);}.cls-62{fill:url(#radial-gradient-61);}.cls-63,.cls-64,.cls-65,.cls-66,.cls-67,.cls-68,.cls-75,.cls-76,.cls-77,.cls-78,.cls-79,.cls-80,.cls-81,.cls-82,.cls-83,.cls-89,.cls-90,.cls-92,.cls-93,.cls-94{opacity:0.5;}.cls-63{fill:url(#radial-gradient-62);}.cls-64{fill:url(#radial-gradient-63);}.cls-65{fill:url(#radial-gradient-64);}.cls-66{fill:url(#radial-gradient-65);}.cls-67{fill:url(#radial-gradient-66);}.cls-68{fill:url(#radial-gradient-67);}.cls-69{fill:url(#radial-gradient-68);}.cls-70{fill:url(#radial-gradient-69);}.cls-71{fill:url(#radial-gradient-70);}.cls-72{fill:url(#radial-gradient-71);}.cls-73{fill:url(#radial-gradient-72);}.cls-74{fill:url(#radial-gradient-73);}.cls-75{fill:url(#radial-gradient-74);}.cls-76{fill:url(#radial-gradient-75);}.cls-77{fill:url(#radial-gradient-76);}.cls-78{fill:url(#radial-gradient-77);}.cls-79{fill:url(#radial-gradient-78);}.cls-80{fill:url(#radial-gradient-79);}.cls-81{fill:url(#radial-gradient-80);}.cls-82{fill:url(#radial-gradient-81);}.cls-83{fill:url(#radial-gradient-82);}.cls-84{fill:url(#radial-gradient-83);}.cls-85{fill:url(#radial-gradient-84);}.cls-86{fill:url(#radial-gradient-85);}.cls-87{fill:url(#radial-gradient-86);}.cls-88{fill:url(#radial-gradient-87);}.cls-89{fill:url(#radial-gradient-88);}.cls-90{fill:url(#radial-gradient-89);}.cls-91{fill:url(#radial-gradient-90);}.cls-92{fill:url(#radial-gradient-91);}.cls-93{fill:url(#radial-gradient-92);}.cls-94{fill:url(#radial-gradient-93);}.cls-95{fill:url(#radial-gradient-94);}.cls-96{fill:url(#radial-gradient-95);}.cls-97{fill:url(#radial-gradient-96);}.cls-98{fill:url(#radial-gradient-97);}</style><radialGradient id="radial-gradient" cx="100.204" cy="100.189" r="20.22" gradientUnits="userSpaceOnUse"><stop offset="0" stop-color="#f9ff8b"/><stop offset="0.35" stop-color="#f9df77"/><stop offset="0.781" stop-color="#f9b25c"/><stop offset="0.822" stop-color="#f9ae59"/><stop offset="0.862" stop-color="#f9a252"/><stop offset="0.904" stop-color="#f98d45"/><stop offset="0.945" stop-color="#f97134"/><stop offset="0.956" stop-color="#f9682e"/></radialGradient><radialGradient id="radial-gradient-2" cx="106.766" cy="84.951" r="3.505" gradientTransform="translate(-81.791 -75.097) scale(0.941 0.961)" gradientUnits="userSpaceOnUse"><stop offset="0" stop-color="#f9ff8b"/><stop offset="1" stop-color="#f9682e"/></radialGradient><radialGradient id="radial-gradient-3" cx="111.691" cy="85.762" r="3.505" xlink:href="#radial-gradient-2"/><radialGradient id="radial-gradient-4" cx="116.601" cy="86.645" r="3.505" xlink:href="#radial-gradient-2"/><radialGradient id="radial-gradient-5" cx="119.801" cy="90.144" r="3.505" xlink:href="#radial-gradient-2"/><radialGradient id="radial-gradient-6" cx="122.246" cy="93.656" r="3.505" xlink:href="#radial-gradient-2"/><radialGradient id="radial-gradient-7" cx="123.306" cy="98.209" r="3.505" xlink:href="#radial-gradient-2"/><radialGradient id="radial-gradient-8" cx="123.306" cy="102.332" r="3.505" xlink:href="#radial-gradient-2"/><radialGradient id="radial-gradient-9" cx="122.246" cy="106.665" r="3.505" xlink:href="#radial-gradient-2"/><radialGradient id="radial-gradient-10" cx="120.106" cy="110.621" r="3.505" xlink:href="#radial-gradient-2"/><radialGradient id="radial-gradient-11" cx="116.296" cy="112.728" r="3.505" xlink:href="#radial-gradient-2"/><radialGradient id="radial-gradient-12" cx="111.206" cy="114.507" r="3.505" xlink:href="#radial-gradient-2"/><radialGradient id="radial-gradient-13" cx="107.166" cy="115.219" r="3.505" xlink:href="#radial-gradient-2"/><radialGradient id="radial-gradient-14" cx="102.918" cy="114.507" r="3.505" xlink:href="#radial-gradient-2"/><radialGradient id="radial-gradient-15" cx="99.413" cy="111.714" r="3.505" xlink:href="#radial-gradient-2"/><radialGradient id="radial-gradient-16" cx="96.86" cy="108.209" r="3.505" xlink:href="#radial-gradient-2"/><radialGradient id="radial-gradient-17" cx="94.825" cy="104.703" r="3.505" xlink:href="#radial-gradient-2"/><radialGradient id="radial-gradient-18" cx="93.708" cy="100.188" r="3.505" xlink:href="#radial-gradient-2"/><radialGradient id="radial-gradient-19" cx="94.187" cy="96.278" r="3.505" xlink:href="#radial-gradient-2"/><radialGradient id="radial-gradient-20" cx="95.448" cy="92.711" r="3.505" xlink:href="#radial-gradient-2"/><radialGradient id="radial-gradient-21" cx="98.33" cy="89.267" r="3.505" xlink:href="#radial-gradient-2"/><radialGradient id="radial-gradient-22" cx="101.835" cy="86.645" r="3.505" xlink:href="#radial-gradient-2"/><radialGradient id="radial-gradient-23" cx="105.249" cy="87.667" r="3.505" xlink:href="#radial-gradient-2"/><radialGradient id="radial-gradient-24" cx="110.271" cy="88.022" r="3.505" xlink:href="#radial-gradient-2"/><radialGradient id="radial-gradient-25" cx="113.776" cy="90.144" r="3.505" xlink:href="#radial-gradient-2"/><radialGradient id="radial-gradient-26" cx="116.601" cy="93.178" r="3.505" xlink:href="#radial-gradient-2"/><radialGradient id="radial-gradient-27" cx="118.216" cy="97.804" r="3.505" xlink:href="#radial-gradient-2"/><radialGradient id="radial-gradient-28" cx="118.216" cy="102.332" r="3.505" xlink:href="#radial-gradient-2"/><radialGradient id="radial-gradient-29" cx="116.296" cy="107.116" r="3.505" xlink:href="#radial-gradient-2"/><radialGradient id="radial-gradient-30" cx="112.259" cy="109.342" r="3.505" xlink:href="#radial-gradient-2"/><radialGradient id="radial-gradient-31" cx="107.166" cy="110.17" r="3.505" xlink:href="#radial-gradient-2"/><radialGradient id="radial-gradient-32" cx="103.261" cy="108.557" r="3.505" xlink:href="#radial-gradient-2"/><radialGradient id="radial-gradient-33" cx="99.755" cy="105.052" r="3.505" xlink:href="#radial-gradient-2"/><radialGradient id="radial-gradient-34" cx="98.33" cy="101.198" r="3.505" xlink:href="#radial-gradient-2"/><radialGradient id="radial-gradient-35" cx="98.33" cy="97.161" r="3.505" xlink:href="#radial-gradient-2"/><radialGradient id="radial-gradient-36" cx="100.365" cy="93.649" r="3.505" xlink:href="#radial-gradient-2"/><radialGradient id="radial-gradient-37" cx="103.261" cy="91.528" r="3.505" xlink:href="#radial-gradient-2"/><radialGradient id="radial-gradient-38" cx="107.166" cy="91.172" r="3.505" xlink:href="#radial-gradient-2"/><radialGradient id="radial-gradient-39" cx="111.206" cy="91.961" r="3.505" xlink:href="#radial-gradient-2"/><radialGradient id="radial-gradient-40" cx="114.176" cy="95.467" r="3.505" xlink:href="#radial-gradient-2"/><radialGradient id="radial-gradient-41" cx="114.711" cy="99.655" r="3.505" xlink:href="#radial-gradient-2"/><radialGradient id="radial-gradient-42" cx="113.096" cy="103.611" r="3.505" xlink:href="#radial-gradient-2"/><radialGradient id="radial-gradient-43" cx="108.754" cy="105.052" r="3.505" xlink:href="#radial-gradient-2"/><radialGradient id="radial-gradient-44" cx="105.249" cy="103.16" r="3.505" xlink:href="#radial-gradient-2"/><radialGradient id="radial-gradient-45" cx="103.661" cy="100.666" r="3.505" xlink:href="#radial-gradient-2"/><radialGradient id="radial-gradient-46" cx="103.87" cy="97.161" r="3.505" xlink:href="#radial-gradient-2"/><radialGradient id="radial-gradient-47" cx="107.166" cy="95.467" r="3.505" xlink:href="#radial-gradient-2"/><radialGradient id="radial-gradient-48" cx="109.591" cy="97.693" r="3.505" xlink:href="#radial-gradient-2"/><radialGradient id="radial-gradient-49" cx="108.186" cy="100.188" r="3.505" xlink:href="#radial-gradient-2"/><radialGradient id="radial-gradient-50" cx="106.025" cy="83.501" r="3.505" gradientTransform="translate(-81.791 -75.097) scale(0.941 0.961)" gradientUnits="userSpaceOnUse"><stop offset="0" stop-color="#fff"/><stop offset="0.076" stop-color="#feffe4" stop-opacity="0.771"/><stop offset="0.154" stop-color="#fcffcd" stop-opacity="0.569"/><stop offset="0.233" stop-color="#fbffb9" stop-opacity="0.394"/><stop offset="0.312" stop-color="#fbffa8" stop-opacity="0.252"/><stop offset="0.391" stop-color="#faff9b" stop-opacity="0.142"/><stop offset="0.47" stop-color="#f9ff92" stop-opacity="0.063"/><stop offset="0.549" stop-color="#f9ff8d" stop-opacity="0.016"/><stop offset="0.627" stop-color="#f9ff8b" stop-opacity="0"/></radialGradient><radialGradient id="radial-gradient-51" cx="110.95" cy="84.312" r="3.505" xlink:href="#radial-gradient-50"/><radialGradient id="radial-gradient-52" cx="115.861" cy="85.195" r="3.505" xlink:href="#radial-gradient-50"/><radialGradient id="radial-gradient-53" cx="119.061" cy="88.694" r="3.505" xlink:href="#radial-gradient-50"/><radialGradient id="radial-gradient-54" cx="121.505" cy="92.206" r="3.505" xlink:href="#radial-gradient-50"/><radialGradient id="radial-gradient-55" cx="122.566" cy="96.759" r="3.505" xlink:href="#radial-gradient-50"/><radialGradient id="radial-gradient-56" cx="122.566" cy="100.882" r="3.505" xlink:href="#radial-gradient-50"/><radialGradient id="radial-gradient-57" cx="121.505" cy="105.215" r="3.505" xlink:href="#radial-gradient-50"/><radialGradient id="radial-gradient-58" cx="119.366" cy="109.171" r="3.505" xlink:href="#radial-gradient-50"/><radialGradient id="radial-gradient-59" cx="115.556" cy="111.278" r="3.505" xlink:href="#radial-gradient-50"/><radialGradient id="radial-gradient-60" cx="110.465" cy="113.057" r="3.505" xlink:href="#radial-gradient-50"/><radialGradient id="radial-gradient-61" cx="106.425" cy="113.769" r="3.505" xlink:href="#radial-gradient-50"/><radialGradient id="radial-gradient-62" cx="102.178" cy="113.057" r="3.505" xlink:href="#radial-gradient-50"/><radialGradient id="radial-gradient-63" cx="98.673" cy="110.264" r="3.505" xlink:href="#radial-gradient-50"/><radialGradient id="radial-gradient-64" cx="96.119" cy="106.759" r="3.505" xlink:href="#radial-gradient-50"/><radialGradient id="radial-gradient-65" cx="94.084" cy="103.254" r="3.505" xlink:href="#radial-gradient-50"/><radialGradient id="radial-gradient-66" cx="92.967" cy="98.738" r="3.505" xlink:href="#radial-gradient-50"/><radialGradient id="radial-gradient-67" cx="93.446" cy="94.828" r="3.505" xlink:href="#radial-gradient-50"/><radialGradient id="radial-gradient-68" cx="94.708" cy="91.261" r="3.505" xlink:href="#radial-gradient-50"/><radialGradient id="radial-gradient-69" cx="97.589" cy="87.817" r="3.505" xlink:href="#radial-gradient-50"/><radialGradient id="radial-gradient-70" cx="101.094" cy="85.195" r="3.505" xlink:href="#radial-gradient-50"/><radialGradient id="radial-gradient-71" cx="104.508" cy="86.217" r="3.505" xlink:href="#radial-gradient-50"/><radialGradient id="radial-gradient-72" cx="109.53" cy="86.572" r="3.505" xlink:href="#radial-gradient-50"/><radialGradient id="radial-gradient-73" cx="113.035" cy="88.694" r="3.505" xlink:href="#radial-gradient-50"/><radialGradient id="radial-gradient-74" cx="115.861" cy="91.728" r="3.505" xlink:href="#radial-gradient-50"/><radialGradient id="radial-gradient-75" cx="117.475" cy="96.354" r="3.505" xlink:href="#radial-gradient-50"/><radialGradient id="radial-gradient-76" cx="117.475" cy="100.882" r="3.505" xlink:href="#radial-gradient-50"/><radialGradient id="radial-gradient-77" cx="115.556" cy="105.666" r="3.505" xlink:href="#radial-gradient-50"/><radialGradient id="radial-gradient-78" cx="111.519" cy="107.893" r="3.505" xlink:href="#radial-gradient-50"/><radialGradient id="radial-gradient-79" cx="106.425" cy="108.72" r="3.505" xlink:href="#radial-gradient-50"/><radialGradient id="radial-gradient-80" cx="102.52" cy="107.108" r="3.505" xlink:href="#radial-gradient-50"/><radialGradient id="radial-gradient-81" cx="99.015" cy="103.602" r="3.505" xlink:href="#radial-gradient-50"/><radialGradient id="radial-gradient-82" cx="97.589" cy="99.748" r="3.505" xlink:href="#radial-gradient-50"/><radialGradient id="radial-gradient-83" cx="97.589" cy="95.711" r="3.505" xlink:href="#radial-gradient-50"/><radialGradient id="radial-gradient-84" cx="99.624" cy="92.199" r="3.505" xlink:href="#radial-gradient-50"/><radialGradient id="radial-gradient-85" cx="102.52" cy="90.078" r="3.505" xlink:href="#radial-gradient-50"/><radialGradient id="radial-gradient-86" cx="106.425" cy="89.722" r="3.505" xlink:href="#radial-gradient-50"/><radialGradient id="radial-gradient-87" cx="110.465" cy="90.511" r="3.505" xlink:href="#radial-gradient-50"/><radialGradient id="radial-gradient-88" cx="113.436" cy="94.017" r="3.505" xlink:href="#radial-gradient-50"/><radialGradient id="radial-gradient-89" cx="113.97" cy="98.205" r="3.505" xlink:href="#radial-gradient-50"/><radialGradient id="radial-gradient-90" cx="112.356" cy="102.161" r="3.505" xlink:href="#radial-gradient-50"/><radialGradient id="radial-gradient-91" cx="108.013" cy="103.602" r="3.505" xlink:href="#radial-gradient-50"/><radialGradient id="radial-gradient-92" cx="104.508" cy="101.71" r="3.505" xlink:href="#radial-gradient-50"/><radialGradient id="radial-gradient-93" cx="102.92" cy="99.216" r="3.505" xlink:href="#radial-gradient-50"/><radialGradient id="radial-gradient-94" cx="103.13" cy="95.711" r="3.505" xlink:href="#radial-gradient-50"/><radialGradient id="radial-gradient-95" cx="106.425" cy="94.017" r="3.505" xlink:href="#radial-gradient-50"/><radialGradient id="radial-gradient-96" cx="108.85" cy="96.243" r="3.505" xlink:href="#radial-gradient-50"/><radialGradient id="radial-gradient-97" cx="107.445" cy="98.738" r="3.505" xlink:href="#radial-gradient-50"/></defs><title>lipid_droplets</title><g id="LIPID_DROPLETS" class="cls-1"><path id="BALLOON" class="cls-2" d="M120.021,98.114a3.894,3.894,0,0,0-1.616-3.171,3.923,3.923,0,0,0,.468-1.865,3.87,3.87,0,0,0-2.656-3.7c0-.062.009-.123.009-.185a3.844,3.844,0,0,0-3.465-3.86v-.01a3.836,3.836,0,0,0-3.795-3.877,3.72,3.72,0,0,0-2.186.711,3.768,3.768,0,0,0-3.131-1.687,3.72,3.72,0,0,0-2.233.747,3.756,3.756,0,0,0-6.594.719,3.714,3.714,0,0,0-1.844-.49,3.809,3.809,0,0,0-3.67,2.906c-.042,0-.083-.006-.125-.006a3.836,3.836,0,0,0-3.795,3.873,3.853,3.853,0,0,0-3.12,3.812,3.955,3.955,0,0,0,.1.886,3.922,3.922,0,0,0-1.046,4.833,3.923,3.923,0,0,0,.7,5.743,3.923,3.923,0,0,0-.436,1.8,3.879,3.879,0,0,0,2.221,3.524c-.01.116-.017.233-.017.352a3.863,3.863,0,0,0,2.772,3.73c0,.049-.007.1-.007.147a3.836,3.836,0,0,0,3.795,3.877c.026,0,.051,0,.078,0a3.817,3.817,0,0,0,3.717,3.094,3.715,3.715,0,0,0,1.809-.468,3.73,3.73,0,0,0,5.511.077,3.707,3.707,0,0,0,1.652.391,3.8,3.8,0,0,0,3.554-2.528,3.712,3.712,0,0,0,1.957.56,3.8,3.8,0,0,0,3.5-2.386,3.724,3.724,0,0,0,.622.056,3.836,3.836,0,0,0,3.795-3.877,3.975,3.975,0,0,0-.076-.776,3.875,3.875,0,0,0,2.393-3.6,3.922,3.922,0,0,0-.382-1.687,3.919,3.919,0,0,0,.8-5.385A3.91,3.91,0,0,0,120.021,98.114Z" transform="translate(-79.886 -79.074)"/><g id="DROPLETS"><ellipse id="STORAGE" class="cls-3" cx="18.679" cy="6.566" rx="3.298" ry="3.37"/><ellipse id="STORAGE-2" data-name="STORAGE" class="cls-4" cx="23.314" cy="7.346" rx="3.298" ry="3.37"/><ellipse id="STORAGE-3" data-name="STORAGE" class="cls-5" cx="27.934" cy="8.195" rx="3.298" ry="3.37"/><ellipse id="STORAGE-4" data-name="STORAGE" class="cls-6" cx="30.946" cy="11.558" rx="3.298" ry="3.37"/><ellipse id="STORAGE-5" data-name="STORAGE" class="cls-7" cx="33.246" cy="14.934" rx="3.298" ry="3.37"/><ellipse id="STORAGE-6" data-name="STORAGE" class="cls-8" cx="34.244" cy="19.311" rx="3.298" ry="3.37"/><ellipse id="STORAGE-7" data-name="STORAGE" class="cls-9" cx="34.244" cy="23.275" rx="3.298" ry="3.37"/><ellipse id="STORAGE-8" data-name="STORAGE" class="cls-10" cx="33.246" cy="27.44" rx="3.298" ry="3.37"/><ellipse id="STORAGE-9" data-name="STORAGE" class="cls-11" cx="31.233" cy="31.243" rx="3.298" ry="3.37"/><ellipse id="STORAGE-10" data-name="STORAGE" class="cls-12" cx="27.647" cy="33.268" rx="3.298" ry="3.37"/><ellipse id="STORAGE-11" data-name="STORAGE" class="cls-13" cx="22.857" cy="34.979" rx="3.298" ry="3.37"/><ellipse id="STORAGE-12" data-name="STORAGE" class="cls-14" cx="19.055" cy="35.663" rx="3.298" ry="3.37"/><ellipse id="STORAGE-13" data-name="STORAGE" class="cls-15" cx="15.059" cy="34.979" rx="3.298" ry="3.37"/><ellipse id="STORAGE-14" data-name="STORAGE" class="cls-16" cx="11.76" cy="32.293" rx="3.298" ry="3.37"/><ellipse id="STORAGE-15" data-name="STORAGE" class="cls-17" cx="9.357" cy="28.924" rx="3.298" ry="3.37"/><ellipse id="STORAGE-16" data-name="STORAGE" class="cls-18" cx="7.442" cy="25.554" rx="3.298" ry="3.37"/><ellipse id="STORAGE-17" data-name="STORAGE" class="cls-19" cx="6.391" cy="21.214" rx="3.298" ry="3.37"/><ellipse id="STORAGE-18" data-name="STORAGE" class="cls-20" cx="6.841" cy="17.455" rx="3.298" ry="3.37"/><ellipse id="STORAGE-19" data-name="STORAGE" class="cls-21" cx="8.029" cy="14.026" rx="3.298" ry="3.37"/><ellipse id="STORAGE-20" data-name="STORAGE" class="cls-22" cx="10.74" cy="10.716" rx="3.298" ry="3.37"/><ellipse id="STORAGE-21" data-name="STORAGE" class="cls-23" cx="14.039" cy="8.195" rx="3.298" ry="3.37"/><ellipse id="STORAGE-22" data-name="STORAGE" class="cls-24" cx="17.251" cy="9.177" rx="3.298" ry="3.37"/><ellipse id="STORAGE-23" data-name="STORAGE" class="cls-25" cx="21.977" cy="9.519" rx="3.298" ry="3.37"/><ellipse id="STORAGE-24" data-name="STORAGE" class="cls-26" cx="25.276" cy="11.558" rx="3.298" ry="3.37"/><ellipse id="STORAGE-25" data-name="STORAGE" class="cls-27" cx="27.934" cy="14.475" rx="3.298" ry="3.37"/><ellipse id="STORAGE-26" data-name="STORAGE" class="cls-28" cx="29.454" cy="18.922" rx="3.298" ry="3.37"/><ellipse id="STORAGE-27" data-name="STORAGE" class="cls-29" cx="29.454" cy="23.275" rx="3.298" ry="3.37"/><ellipse id="STORAGE-28" data-name="STORAGE" class="cls-30" cx="27.647" cy="27.874" rx="3.298" ry="3.37"/><ellipse id="STORAGE-29" data-name="STORAGE" class="cls-31" cx="23.848" cy="30.014" rx="3.298" ry="3.37"/><ellipse id="STORAGE-30" data-name="STORAGE" class="cls-32" cx="19.055" cy="30.81" rx="3.298" ry="3.37"/><ellipse id="STORAGE-31" data-name="STORAGE" class="cls-33" cx="15.38" cy="29.259" rx="3.298" ry="3.37"/><ellipse id="STORAGE-32" data-name="STORAGE" class="cls-34" cx="12.082" cy="25.89" rx="3.298" ry="3.37"/><ellipse id="STORAGE-33" data-name="STORAGE" class="cls-35" cx="10.74" cy="22.185" rx="3.298" ry="3.37"/><ellipse id="STORAGE-34" data-name="STORAGE" class="cls-36" cx="10.74" cy="18.304" rx="3.298" ry="3.37"/><ellipse id="STORAGE-35" data-name="STORAGE" class="cls-37" cx="12.656" cy="14.928" rx="3.298" ry="3.37"/><ellipse id="STORAGE-36" data-name="STORAGE" class="cls-38" cx="15.38" cy="12.888" rx="3.298" ry="3.37"/><ellipse id="STORAGE-37" data-name="STORAGE" class="cls-39" cx="19.055" cy="12.546" rx="3.298" ry="3.37"/><ellipse id="STORAGE-38" data-name="STORAGE" class="cls-40" cx="22.857" cy="13.305" rx="3.298" ry="3.37"/><ellipse id="STORAGE-39" data-name="STORAGE" class="cls-41" cx="25.652" cy="16.675" rx="3.298" ry="3.37"/><ellipse id="STORAGE-40" data-name="STORAGE" class="cls-42" cx="26.155" cy="20.701" rx="3.298" ry="3.37"/><ellipse id="STORAGE-41" data-name="STORAGE" class="cls-43" cx="24.636" cy="24.504" rx="3.298" ry="3.37"/><ellipse id="STORAGE-42" data-name="STORAGE" class="cls-44" cx="20.55" cy="25.89" rx="3.298" ry="3.37"/><ellipse id="STORAGE-43" data-name="STORAGE" class="cls-45" cx="17.251" cy="24.071" rx="3.298" ry="3.37"/><ellipse id="STORAGE-44" data-name="STORAGE" class="cls-46" cx="15.757" cy="21.673" rx="3.298" ry="3.37"/><ellipse id="STORAGE-45" data-name="STORAGE" class="cls-47" cx="15.954" cy="18.304" rx="3.298" ry="3.37"/><ellipse id="STORAGE-46" data-name="STORAGE" class="cls-48" cx="19.055" cy="16.675" rx="3.298" ry="3.37"/><ellipse id="STORAGE-47" data-name="STORAGE" class="cls-49" cx="21.338" cy="18.815" rx="3.298" ry="3.37"/><ellipse id="STORAGE-48" data-name="STORAGE" class="cls-50" cx="20.015" cy="21.214" rx="3.298" ry="3.37"/></g><g id="SHINE"><ellipse id="STORAGE-49" data-name="STORAGE" class="cls-51" cx="17.982" cy="5.172" rx="3.298" ry="3.37"/><ellipse id="STORAGE-50" data-name="STORAGE" class="cls-52" cx="22.617" cy="5.952" rx="3.298" ry="3.37"/><ellipse id="STORAGE-51" data-name="STORAGE" class="cls-53" cx="27.238" cy="6.801" rx="3.298" ry="3.37"/><ellipse id="STORAGE-52" data-name="STORAGE" class="cls-54" cx="30.249" cy="10.165" rx="3.298" ry="3.37"/><ellipse id="STORAGE-53" data-name="STORAGE" class="cls-55" cx="32.549" cy="13.54" rx="3.298" ry="3.37"/><ellipse id="STORAGE-54" data-name="STORAGE" class="cls-56" cx="33.547" cy="17.918" rx="3.298" ry="3.37"/><ellipse id="STORAGE-55" data-name="STORAGE" class="cls-57" cx="33.547" cy="21.881" rx="3.298" ry="3.37"/><ellipse id="STORAGE-56" data-name="STORAGE" class="cls-58" cx="32.549" cy="26.046" rx="3.298" ry="3.37"/><ellipse id="STORAGE-57" data-name="STORAGE" class="cls-59" cx="30.536" cy="29.849" rx="3.298" ry="3.37"/><ellipse id="STORAGE-58" data-name="STORAGE" class="cls-60" cx="26.95" cy="31.875" rx="3.298" ry="3.37"/><ellipse id="STORAGE-59" data-name="STORAGE" class="cls-61" cx="22.16" cy="33.585" rx="3.298" ry="3.37"/><ellipse id="STORAGE-60" data-name="STORAGE" class="cls-62" cx="18.358" cy="34.269" rx="3.298" ry="3.37"/><ellipse id="STORAGE-61" data-name="STORAGE" class="cls-63" cx="14.362" cy="33.585" rx="3.298" ry="3.37"/><ellipse id="STORAGE-62" data-name="STORAGE" class="cls-64" cx="11.063" cy="30.9" rx="3.298" ry="3.37"/><ellipse id="STORAGE-63" data-name="STORAGE" class="cls-65" cx="8.66" cy="27.53" rx="3.298" ry="3.37"/><ellipse id="STORAGE-64" data-name="STORAGE" class="cls-66" cx="6.745" cy="24.161" rx="3.298" ry="3.37"/><ellipse id="STORAGE-65" data-name="STORAGE" class="cls-67" cx="5.694" cy="19.82" rx="3.298" ry="3.37"/><ellipse id="STORAGE-66" data-name="STORAGE" class="cls-68" cx="6.145" cy="16.061" rx="3.298" ry="3.37"/><ellipse id="STORAGE-67" data-name="STORAGE" class="cls-69" cx="7.332" cy="12.632" rx="3.298" ry="3.37"/><ellipse id="STORAGE-68" data-name="STORAGE" class="cls-70" cx="10.043" cy="9.322" rx="3.298" ry="3.37"/><ellipse id="STORAGE-69" data-name="STORAGE" class="cls-71" cx="13.342" cy="6.801" rx="3.298" ry="3.37"/><ellipse id="STORAGE-70" data-name="STORAGE" class="cls-72" cx="16.555" cy="7.783" rx="3.298" ry="3.37"/><ellipse id="STORAGE-71" data-name="STORAGE" class="cls-73" cx="21.28" cy="8.125" rx="3.298" ry="3.37"/><ellipse id="STORAGE-72" data-name="STORAGE" class="cls-74" cx="24.579" cy="10.165" rx="3.298" ry="3.37"/><ellipse id="STORAGE-73" data-name="STORAGE" class="cls-75" cx="27.238" cy="13.081" rx="3.298" ry="3.37"/><ellipse id="STORAGE-74" data-name="STORAGE" class="cls-76" cx="28.757" cy="17.528" rx="3.298" ry="3.37"/><ellipse id="STORAGE-75" data-name="STORAGE" class="cls-77" cx="28.757" cy="21.881" rx="3.298" ry="3.37"/><ellipse id="STORAGE-76" data-name="STORAGE" class="cls-78" cx="26.95" cy="26.48" rx="3.298" ry="3.37"/><ellipse id="STORAGE-77" data-name="STORAGE" class="cls-79" cx="23.152" cy="28.62" rx="3.298" ry="3.37"/><ellipse id="STORAGE-78" data-name="STORAGE" class="cls-80" cx="18.358" cy="29.416" rx="3.298" ry="3.37"/><ellipse id="STORAGE-79" data-name="STORAGE" class="cls-81" cx="14.684" cy="27.865" rx="3.298" ry="3.37"/><ellipse id="STORAGE-80" data-name="STORAGE" class="cls-82" cx="11.385" cy="24.496" rx="3.298" ry="3.37"/><ellipse id="STORAGE-81" data-name="STORAGE" class="cls-83" cx="10.043" cy="20.791" rx="3.298" ry="3.37"/><ellipse id="STORAGE-82" data-name="STORAGE" class="cls-84" cx="10.043" cy="16.91" rx="3.298" ry="3.37"/><ellipse id="STORAGE-83" data-name="STORAGE" class="cls-85" cx="11.959" cy="13.534" rx="3.298" ry="3.37"/><ellipse id="STORAGE-84" data-name="STORAGE" class="cls-86" cx="14.684" cy="11.495" rx="3.298" ry="3.37"/><ellipse id="STORAGE-85" data-name="STORAGE" class="cls-87" cx="18.358" cy="11.153" rx="3.298" ry="3.37"/><ellipse id="STORAGE-86" data-name="STORAGE" class="cls-88" cx="22.16" cy="11.912" rx="3.298" ry="3.37"/><ellipse id="STORAGE-87" data-name="STORAGE" class="cls-89" cx="24.955" cy="15.281" rx="3.298" ry="3.37"/><ellipse id="STORAGE-88" data-name="STORAGE" class="cls-90" cx="25.459" cy="19.307" rx="3.298" ry="3.37"/><ellipse id="STORAGE-89" data-name="STORAGE" class="cls-91" cx="23.939" cy="23.11" rx="3.298" ry="3.37"/><ellipse id="STORAGE-90" data-name="STORAGE" class="cls-92" cx="19.853" cy="24.496" rx="3.298" ry="3.37"/><ellipse id="STORAGE-91" data-name="STORAGE" class="cls-93" cx="16.555" cy="22.677" rx="3.298" ry="3.37"/><ellipse id="STORAGE-92" data-name="STORAGE" class="cls-94" cx="15.06" cy="20.279" rx="3.298" ry="3.37"/><ellipse id="STORAGE-93" data-name="STORAGE" class="cls-95" cx="15.257" cy="16.91" rx="3.298" ry="3.37"/><ellipse id="STORAGE-94" data-name="STORAGE" class="cls-96" cx="18.358" cy="15.281" rx="3.298" ry="3.37"/><ellipse id="STORAGE-95" data-name="STORAGE" class="cls-97" cx="20.641" cy="17.421" rx="3.298" ry="3.37"/><ellipse id="STORAGE-96" data-name="STORAGE" class="cls-98" cx="19.318" cy="19.82" rx="3.298" ry="3.37"/></g></g></svg>