<svg id="Layer_1" data-name="Layer 1" xmlns="http://www.w3.org/2000/svg" xmlns:xlink="http://www.w3.org/1999/xlink" viewBox="0 0 180 119.211"><defs><style>.cls-1{fill:url(#linear-gradient);}.cls-2{fill:url(#linear-gradient-2);}.cls-3{fill:url(#linear-gradient-3);}.cls-4{fill:url(#linear-gradient-4);}.cls-5{fill:url(#linear-gradient-5);}.cls-6{fill:url(#linear-gradient-6);}.cls-7{fill:url(#linear-gradient-7);}.cls-8{fill:url(#linear-gradient-8);}.cls-9{fill:url(#linear-gradient-9);}.cls-10{fill:url(#linear-gradient-10);}.cls-11{fill:url(#linear-gradient-11);}.cls-12{fill:url(#linear-gradient-12);}.cls-13{fill:url(#linear-gradient-13);}</style><linearGradient id="linear-gradient" x1="110.643" y1="155.861" x2="137.383" y2="144.063" gradientTransform="translate(-105.624 -49.256) rotate(-3.003)" gradientUnits="userSpaceOnUse"><stop offset="0" stop-color="#9d12b1"/><stop offset="0.999" stop-color="#29032f"/></linearGradient><linearGradient id="linear-gradient-2" x1="69.696" y1="-50.85" x2="101.771" y2="-93.414" gradientTransform="matrix(0.701, -0.713, 0.853, 0.839, 62.221, 196.376)" gradientUnits="userSpaceOnUse"><stop offset="0" stop-color="#03363b"/><stop offset="1" stop-color="#e3c523"/></linearGradient><linearGradient id="linear-gradient-3" x1="62.683" y1="138.697" x2="105.74" y2="132.318" gradientTransform="matrix(0.707, 0.846, -0.707, 0.846, 86.334, -122.827)" xlink:href="#linear-gradient-2"/><linearGradient id="linear-gradient-4" x1="70.445" y1="146.392" x2="112.767" y2="140.122" gradientTransform="matrix(1.099, 0.089, 0.108, 1.098, -56.805, -93.94)" xlink:href="#linear-gradient"/><linearGradient id="linear-gradient-5" x1="73.455" y1="163.943" x2="127.319" y2="122.414" gradientTransform="translate(-30.437 -40.756) rotate(-3.003)" xlink:href="#linear-gradient"/><linearGradient id="linear-gradient-6" x1="94.146" y1="55.328" x2="126.221" y2="12.764" gradientTransform="matrix(0.701, -0.713, 0.853, 0.839, -18.162, 179.698)" xlink:href="#linear-gradient-2"/><linearGradient id="linear-gradient-7" x1="155.05" y1="196.488" x2="198.108" y2="190.109" gradientTransform="matrix(0.707, 0.846, -0.707, 0.846, 89.25, -194.912)" xlink:href="#linear-gradient-2"/><linearGradient id="linear-gradient-8" x1="203.373" y1="222.069" x2="202.784" y2="180.788" gradientTransform="translate(-110.821 -57.434) rotate(-3.003)" xlink:href="#linear-gradient"/><linearGradient id="linear-gradient-9" x1="106.33" y1="15.726" x2="138.405" y2="-26.839" xlink:href="#linear-gradient-2"/><linearGradient id="linear-gradient-10" x1="135.663" y1="159.869" x2="178.72" y2="153.49" gradientTransform="matrix(0.707, 0.846, -0.707, 0.846, 132.198, -172.757)" xlink:href="#linear-gradient-2"/><linearGradient id="linear-gradient-11" x1="143.425" y1="167.564" x2="185.747" y2="161.294" gradientTransform="matrix(1.099, 0.089, 0.108, 1.098, -56.805, -93.94)" xlink:href="#linear-gradient"/><linearGradient id="linear-gradient-12" x1="88.554" y1="196.222" x2="135.307" y2="189.296" gradientTransform="matrix(1.099, 0.089, 0.108, 1.098, -56.626, -94.015)" xlink:href="#linear-gradient"/><linearGradient id="linear-gradient-13" x1="151.027" y1="110.188" x2="193.778" y2="136.563" gradientUnits="userSpaceOnUse"><stop offset="0.015" stop-color="#29032f"/><stop offset="0.026" stop-color="#34043c"/><stop offset="0.076" stop-color="#610a6e"/><stop offset="0.119" stop-color="#820e92"/><stop offset="0.154" stop-color="#9611a9"/><stop offset="0.176" stop-color="#9d12b1"/><stop offset="0.279" stop-color="#9611ac"/><stop offset="0.428" stop-color="#82109f"/><stop offset="0.607" stop-color="#620e8a"/><stop offset="0.716" stop-color="#4b0c7b"/><stop offset="0.793" stop-color="#470c79"/><stop offset="0.863" stop-color="#3c0b72"/><stop offset="0.931" stop-color="#2a0966"/><stop offset="0.996" stop-color="#100755"/><stop offset="1" stop-color="#0e0754"/></linearGradient></defs><title>Open_Chromatin_2</title><g id="Open_Chromatin_2"><path class="cls-1" d="M35.217,85.42C30.086,100.815,19.8,100.1,10,93.683L13.442,97.2c9.8,6.414,20.01,7.057,25.141-8.338Z" transform="translate(-10 -40.394)"/><g id="Nucleosome_1"><path class="cls-2" d="M30.578,82.459c1.746,1.718,18.219,18.119,19.814,19.687,5.673,5.579,18.869,1.36,29.474-9.423S94.468,68.676,88.8,63.1c-1.842-1.812-17.577-17.488-19.814-19.687Z" transform="translate(-10 -40.394)"/><ellipse class="cls-3" cx="49.228" cy="62.382" rx="27.385" ry="14.407" transform="translate(-39.767 13.345) rotate(-45.478)"/></g><path class="cls-4" d="M41.68,93.561c5.673,5.579,18.412-3.074,25.769-10.431,10.695-10.695,15.13-26.218,9.457-31.8L73.092,47.52c5.673,5.579,1.238,21.1-9.457,31.8-7.514,7.514-20.1,16.01-25.769,10.431Z" transform="translate(-10 -40.394)"/><path class="cls-5" d="M62.677,142.33c-16.556-16.179-7.791-38.8,7.4-53.849C80.126,78.52,88.109,62.419,80.719,55.147l3.924,3.98c7.316,7.316-1.672,24.347-10.712,33.21-17.154,16.818-23.779,38.14-7.87,53.182Z" transform="translate(-10 -40.394)"/><g id="Nucleosome_1-2" data-name="Nucleosome_1"><path class="cls-6" d="M57.944,137.455c1.746,1.718,18.219,18.119,19.814,19.687,5.673,5.579,18.869,1.36,29.474-9.423s14.6-24.048,8.93-29.627c-1.842-1.812-17.577-17.488-19.814-19.687Z" transform="translate(-10 -40.394)"/><ellipse class="cls-7" cx="76.594" cy="117.378" rx="27.385" ry="14.407" transform="translate(-70.801 49.29) rotate(-45.478)"/></g><path class="cls-8" d="M128.5,96.166c-2.649,3.333-6.471,8.512-7.592,10.269-7.718,12.1-5.267,18.8-16.453,32.461-7.513,9.172-25.7,18.047-32.21,12.77l3.489,3.468c6.507,5.276,24.511-3.993,32.023-13.165,11.186-13.658,8.735-20.362,16.453-32.461,1.121-1.757,4.944-6.936,7.592-10.269Z" transform="translate(-10 -40.394)"/><g id="Nucleosome_1-3" data-name="Nucleosome_1"><path class="cls-9" d="M113.076,112.211c1.746,1.718,18.219,18.119,19.814,19.687,5.673,5.579,18.869,1.36,29.474-9.423s14.6-24.048,8.93-29.627c-1.842-1.812-17.577-17.488-19.814-19.687Z" transform="translate(-10 -40.394)"/><ellipse class="cls-10" cx="131.726" cy="92.135" rx="27.385" ry="14.407" transform="translate(-36.328 81.055) rotate(-45.478)"/></g><path class="cls-11" d="M124.178,123.314c5.673,5.579,18.412-3.074,25.769-10.431,10.695-10.695,15.13-26.218,9.457-31.8l-3.814-3.814c5.673,5.579,1.238,21.1-9.457,31.8-7.514,7.514-20.1,16.01-25.769,10.431Z" transform="translate(-10 -40.394)"/><path class="cls-12" d="M65.994,145.451c5.673,5.579,20.183,3.056,31.068-7.829,7.294-7.294,16.833-21.818,11.16-27.4l-3.814-3.814c5.673,5.579-3.722,19.959-11.16,27.4-10.994,10.994-25.593,13.4-31.266,7.823Z" transform="translate(-10 -40.394)"/><path class="cls-13" d="M170.284,150.075c-14.146,1.02-21.307-10.854-10.736-29.506,5.254-9.271,14.561-25.5,9.353-30.093l-3.708-3.686c5.635,5.054-3.666,21.446-8.92,30.717-10.571,18.652-3.725,29.064,10.736,29.506s21.061-9.339,21.061-9.339l1.931,3.08S184.429,149.055,170.284,150.075Z" transform="translate(-10 -40.394)"/></g></svg>