<svg id="Layer_1" data-name="Layer 1" xmlns="http://www.w3.org/2000/svg" xmlns:xlink="http://www.w3.org/1999/xlink" viewBox="0 0 48.504 22.668"><defs><style>.cls-1{fill:url(#linear-gradient);}.cls-2{fill:#3a95aa;}.cls-3{font-size:12px;fill:#fff;font-family:Arial-BoldMT, Arial;font-weight:700;}</style><linearGradient id="linear-gradient" x1="24.441" y1="1.115" x2="24.441" y2="21.115" gradientUnits="userSpaceOnUse"><stop offset="0" stop-color="#3a95aa"/><stop offset="1" stop-color="#ff6381"/></linearGradient></defs><title>TSEN</title><g id="TSEN"><rect class="cls-1" x="1.441" y="1.115" width="46" height="20" rx="10" ry="10"/><path class="cls-2" d="M113,110.15c-4.782-.009-9.565.43-14.347.837-2.391.205-4.782.388-7.173.457-1.2.057-2.391.074-3.587.093l-.9.015-1.036-.036a11.874,11.874,0,0,1-2.048-.348,11.329,11.329,0,0,1-8.215-12.7A10.905,10.905,0,0,1,87,89.179c4.782.282,9.565.437,14.347.335,2.391-.059,4.782-.178,7.173-.341l3.587-.235.9-.053,1,0a10.28,10.28,0,0,1,1.99.282,10.734,10.734,0,0,1,6.451,4.6,10.4,10.4,0,0,1,1.4,7.7,10.762,10.762,0,0,1-4.028,6.335A11.341,11.341,0,0,1,113,110.15Zm0-.3a9,9,0,0,0,8.952-8.637,9.682,9.682,0,0,0-6.626-9.638,10.685,10.685,0,0,0-1.53-.372L113,91.115l-.9-.053-3.587-.235c-2.391-.164-4.782-.282-7.173-.341-4.782-.1-9.565.053-14.347.335a9.193,9.193,0,0,0-8.494,8.028,8.559,8.559,0,0,0,1.463,5.783,8.823,8.823,0,0,0,4.8,3.454,8.708,8.708,0,0,0,1.473.306l.755.055.9.016c1.2.019,2.391.036,3.587.093,2.391.069,4.782.252,7.173.457C103.435,109.42,108.218,109.859,113,109.85Z" transform="translate(-75.559 -88.885)"/><text class="cls-3" transform="translate(8.44 14.428)">TSEN</text></g></svg>