<svg id="Layer_1" data-name="Layer 1" xmlns="http://www.w3.org/2000/svg" xmlns:xlink="http://www.w3.org/1999/xlink" viewBox="0 0 60.233 22.937"><defs><style>.cls-1{fill:url(#linear-gradient);}.cls-2{fill:#ff9914;}.cls-3{font-size:12px;fill:#fff;font-family:Arial-BoldMT, Arial;font-weight:700;}</style><linearGradient id="linear-gradient" x1="30.377" y1="21.33" x2="30.377" y2="1.33" gradientUnits="userSpaceOnUse"><stop offset="0" stop-color="#ff9914"/><stop offset="1" stop-color="#5c92e2"/></linearGradient></defs><title>G-alpha-i</title><g id="G-alpha-i"><rect class="cls-1" x="1.377" y="1.33" width="58" height="20" rx="10" ry="10"/><path class="cls-2" d="M119,110.15c-5.782-.009-11.565.43-17.347.837-5.782.458-11.565.546-17.347.613-.723.016-1.446,0-2.168,0l-1.084,0-1.247-.064a11.151,11.151,0,0,1-4.718-1.617,11.773,11.773,0,0,1-3.572-3.436,11.323,11.323,0,0,1-1.767-4.605,11.12,11.12,0,0,1,2.714-9.109A10.969,10.969,0,0,1,81,89.179c5.782.282,11.565.437,17.347.335,5.782-.084,11.565-.574,17.347-.762l2.168-.058,1.084-.024,1.22.055a10.779,10.779,0,0,1,4.623,1.559,10.66,10.66,0,0,1,5,7.914,10.775,10.775,0,0,1-2.882,8.5A11,11,0,0,1,119,110.15Zm0-.3a9.243,9.243,0,0,0,7.325-3.648,9.142,9.142,0,0,0,1.584-7.689,9.378,9.378,0,0,0-1.645-3.474,9.82,9.82,0,0,0-2.842-2.475,9.26,9.26,0,0,0-3.531-1.183l-.945-.052-1.084-.024-2.168-.058c-5.782-.188-11.565-.678-17.347-.762-5.782-.1-11.565.053-17.347.335a9.184,9.184,0,0,0-6.7,3.507,8.831,8.831,0,0,0-1.753,7.082,8.57,8.57,0,0,0,4.153,5.821,8.858,8.858,0,0,0,3.436,1.125l.918.043,1.084,0c.723,0,1.446-.012,2.168,0,5.782.066,11.565.155,17.347.613C107.435,109.42,113.218,109.859,119,109.85Z" transform="translate(-69.623 -88.67)"/><text class="cls-3" transform="translate(4.377 14.643)">G-alpha-i</text></g></svg>