<svg id="Layer_1" data-name="Layer 1" xmlns="http://www.w3.org/2000/svg" xmlns:xlink="http://www.w3.org/1999/xlink" viewBox="0 0 179.981 87"><defs><style>.cls-1{fill:url(#radial-gradient);}.cls-2{fill:#d88d8d;}.cls-3{fill:#db7272;}.cls-4{fill:#6ca438;}.cls-5{fill:url(#linear-gradient);}.cls-6{fill:#bc4b4b;}.cls-7{fill:url(#linear-gradient-2);}</style><radialGradient id="radial-gradient" cx="153.428" cy="-251.252" fx="169.78029012251713" fy="-30.242603732779344" r="435.802" gradientTransform="matrix(0.996, -0.089, 0.089, 0.996, -8.334, -34.711)" gradientUnits="userSpaceOnUse"><stop offset="0.85" stop-color="#f37373"/><stop offset="0.92" stop-color="#f3c9c9"/><stop offset="1" stop-color="#ff778c"/></radialGradient><linearGradient id="linear-gradient" x1="1.758" y1="170.087" x2="159.029" y2="170.087" gradientTransform="matrix(0.996, -0.089, 0.089, 0.996, -8.334, -34.711)" gradientUnits="userSpaceOnUse"><stop offset="0" stop-color="#ad4b52"/><stop offset="1" stop-color="#bf3030"/></linearGradient><linearGradient id="linear-gradient-2" x1="14.402" y1="64.702" x2="164.282" y2="64.702" gradientTransform="matrix(1, 0, 0, 1, 0, 0)" xlink:href="#linear-gradient"/></defs><title>blood_vessel_section</title><g id="BLOOD_VESSEL-SECTION"><path id="VESSEL" class="cls-1" d="M166.079,131.024c-26.219,1.908-64.049-.688-99.642-4.024-40.272-3.749-59.011-9.329-59.011-9.329,16.431-3.982,22.028-45.059,6.976-51.91,13.553-2.725,52.7,1.019,73.766,1.163,21.945.151,75.14-1.024,75.14-1.024C178.108,67.715,192.164,120.34,166.079,131.024Z" transform="translate(-7.147 -56)"/><path id="OUTSIDE-RIGHT" class="cls-2" d="M163.308,65.9c11.381,1.2,27.849,48.651,2.771,65.124l-1.114,11.752s28.614-11.613,20.817-53.2C180.1,59.314,165.23,56,165.23,56Z" transform="translate(-7.147 -56)"/><path id="OUTSIDE-DOWN" class="cls-3" d="M164.967,142.776c-13.883,1.657-111.883-6.015-157.819-17.906l.278-7.2a465.6,465.6,0,0,0,59,9.023c33.279,2.938,73.423,6.238,99.656,4.33,0,0-.107,2.63-.554,6.232-.047.38-.117,1.041-.121,1.085S164.967,142.776,164.967,142.776Z" transform="translate(-7.147 -56)"/><path id="OUTSIDE-UP" class="cls-3" d="M15.808,59.8c14.662-2.59,94.546,2.813,149.422-3.8l-1.922,9.9s-54.5,3.537-75.525,2.395S24.4,64.229,14.4,65.761Z" transform="translate(-7.147 -56)"/><g id="COLLAGEN-DOWN"><path class="cls-4" d="M145.235,133.447a.209.209,0,0,1-.1-.027l-1.947-1.1-1.987,1.06a.208.208,0,0,1-.2,0l-1.962-1.113-1.987,1.047a.209.209,0,0,1-.2,0l-1.947-1.139-2,1.046a.209.209,0,0,1-.2-.006l-1.934-1.153-2.014,1.02a.21.21,0,0,1-.2-.007l-1.935-1.153-2,1.007a.208.208,0,0,1-.2-.008l-1.92-1.165-2.013,1.007a.21.21,0,0,1-.2-.009l-1.935-1.193-2.027.994a.209.209,0,0,1-.2-.01l-1.907-1.192-2.027.98a.21.21,0,0,1-.2-.012l-1.894-1.205-2.04.967a.209.209,0,0,1-.2-.012l-1.908-1.206-2.027.954a.208.208,0,0,1-.2-.013l-1.9-1.219-2.054.941a.208.208,0,0,1-.2-.015l-1.881-1.219-2.04.94a.21.21,0,0,1-.2-.016l-1.881-1.245-2.053.927a.209.209,0,0,1-.2-.017l-1.867-1.258-2.066.927a.208.208,0,0,1-.2-.017l-1.867-1.258-2.053.914a.209.209,0,0,1-.2-.018l-1.868-1.272-2.066.9a.209.209,0,0,1-.2-.02L77.051,128.5l-2.08.888a.21.21,0,0,1-.2-.02l-1.855-1.285-2.066.874a.209.209,0,0,1-.2-.022l-1.841-1.3-2.094.874a.209.209,0,0,1-.2-.023l-1.827-1.311-2.079.861a.209.209,0,0,1-.2-.023l-1.828-1.311-2.079.848a.208.208,0,0,1-.2-.024l-1.828-1.325-2.093.848a.209.209,0,0,1-.2-.025l-1.828-1.338-2.079.834a.21.21,0,0,1-.2-.026l-1.815-1.351-2.092.821a.209.209,0,0,1-.2-.027l-1.8-1.351-2.12.808a.208.208,0,0,1-.2-.029l-1.788-1.364-2.106.795a.21.21,0,0,1-.2-.03l-1.789-1.378-2.107.755a.209.209,0,0,1-.2-.032l-1.776-1.378-2.134.756a.21.21,0,0,1-.2-.033l-1.762-1.391-2.12.742a.209.209,0,0,1-.2-.034l-1.749-1.4-2.134.716a.208.208,0,0,1-.2-.036l-1.749-1.431-2.132.715a.208.208,0,0,1-.2-.039l-1.721-1.47-2.158.7a.209.209,0,0,1-.2-.04L11.5,119.018l-2.146.649a.208.208,0,0,1-.2-.041l-1.392-1.184a.209.209,0,1,1,.27-.318l1.306,1.11,2.147-.649a.209.209,0,0,1,.2.042l1.707,1.469,2.158-.7a.209.209,0,0,1,.2.04l1.72,1.469,2.13-.714a.208.208,0,0,1,.2.036l1.749,1.431,2.132-.715a.209.209,0,0,1,.2.035l1.748,1.4,2.118-.741a.208.208,0,0,1,.2.033l1.761,1.391,2.133-.755a.209.209,0,0,1,.2.032l1.775,1.378,2.106-.755a.209.209,0,0,1,.2.031l1.788,1.377L40,123.574a.209.209,0,0,1,.2.029l1.787,1.364,2.119-.808a.209.209,0,0,1,.2.028l1.8,1.35,2.092-.821a.209.209,0,0,1,.2.027l1.814,1.35,2.077-.834a.209.209,0,0,1,.2.025l1.828,1.338,2.092-.847a.209.209,0,0,1,.2.024l1.828,1.324,2.079-.847a.208.208,0,0,1,.2.024l1.827,1.311,2.079-.861a.209.209,0,0,1,.2.023l1.827,1.31,2.093-.874a.208.208,0,0,1,.2.022l1.841,1.3,2.065-.874a.21.21,0,0,1,.2.021l1.855,1.285,2.08-.888a.21.21,0,0,1,.2.02l1.84,1.271,2.066-.9a.209.209,0,0,1,.2.019l1.867,1.271,2.052-.913a.209.209,0,0,1,.2.018l1.867,1.258,2.066-.927a.208.208,0,0,1,.2.017l1.867,1.258,2.052-.927a.21.21,0,0,1,.2.016l1.88,1.245,2.039-.94a.208.208,0,0,1,.2.014l1.881,1.219,2.054-.941a.208.208,0,0,1,.2.014l1.894,1.219,2.026-.953a.208.208,0,0,1,.2.013l1.908,1.206,2.041-.967a.21.21,0,0,1,.2.013l1.893,1.2,2.026-.98a.209.209,0,0,1,.2.011l1.907,1.192,2.026-.993a.208.208,0,0,1,.2.01l1.934,1.192,2.012-1.006a.209.209,0,0,1,.2.008l1.92,1.165,2-1.006a.208.208,0,0,1,.2.007l1.934,1.152,2.014-1.02a.208.208,0,0,1,.2.007l1.933,1.151,2-1.046a.208.208,0,0,1,.2,0l1.947,1.139,1.986-1.046a.209.209,0,0,1,.2,0l1.961,1.113,1.987-1.06a.208.208,0,0,1,.2,0l1.946,1.1,1.973-1.086a.209.209,0,0,1,.2,0L149.384,133l1.974-1.086a.208.208,0,0,1,.2,0l1.973,1.072,1.96-1.112a.209.209,0,0,1,.2,0l1.987,1.046,1.947-1.126a.21.21,0,0,1,.2,0l2,1.032,1.933-1.165a.209.209,0,0,1,.2-.007l1.727.891a.209.209,0,1,1-.192.371l-1.623-.838-1.933,1.165a.21.21,0,0,1-.2.007l-2-1.034-1.948,1.126a.209.209,0,0,1-.2,0l-1.988-1.047-1.961,1.113a.208.208,0,0,1-.2,0l-1.974-1.073-1.975,1.087a.209.209,0,0,1-.2,0l-1.974-1.086-1.974,1.086A.209.209,0,0,1,145.235,133.447Z" transform="translate(-7.147 -56)"/><path class="cls-4" d="M149.273,134.686a.209.209,0,0,1-.1-.026l-1.974-1.1-1.973,1.086a.21.21,0,0,1-.205,0l-1.947-1.126-2,1.047a.209.209,0,0,1-.2,0l-1.948-1.113-1.987,1.034a.21.21,0,0,1-.2-.005l-1.948-1.14-2,1.033a.208.208,0,0,1-.2-.006l-1.934-1.153-2.014,1.02a.209.209,0,0,1-.2-.008l-1.92-1.179-2.013,1.006a.21.21,0,0,1-.2-.008l-1.921-1.166-2.028.994a.209.209,0,0,1-.2-.01l-1.908-1.179-2.027.98a.21.21,0,0,1-.2-.011l-1.908-1.206-2.04.967a.209.209,0,0,1-.2-.013l-1.894-1.2-2.026.967a.209.209,0,0,1-.2-.013l-1.895-1.219-2.04.941a.209.209,0,0,1-.2-.015l-1.895-1.232-2.054.941a.208.208,0,0,1-.2-.015l-1.881-1.219-2.04.927a.208.208,0,0,1-.2-.016L93.444,131l-2.054.914a.21.21,0,0,1-.2-.018l-1.867-1.258-2.053.914a.209.209,0,0,1-.2-.018L85.2,130.273l-2.053.914a.208.208,0,0,1-.2-.019l-1.868-1.285-2.066.9a.209.209,0,0,1-.2-.02l-1.854-1.285-2.066.887a.208.208,0,0,1-.2-.021l-1.841-1.3-2.065.874a.209.209,0,0,1-.2-.022l-1.842-1.3-2.094.861a.209.209,0,0,1-.2-.023l-1.827-1.311-2.079.861a.209.209,0,0,1-.2-.024L60.5,127.641l-2.093.848a.209.209,0,0,1-.2-.025L56.4,127.139l-2.093.835a.209.209,0,0,1-.2-.026l-1.815-1.338-2.093.821a.209.209,0,0,1-.2-.027l-1.8-1.351-2.106.808a.21.21,0,0,1-.2-.028L44.1,125.481l-2.12.8a.209.209,0,0,1-.2-.03l-1.789-1.365-2.107.768a.209.209,0,0,1-.2-.031l-1.774-1.377-2.119.781a.209.209,0,0,1-.2-.032L31.824,123.6l-2.133.755a.209.209,0,0,1-.2-.034l-1.762-1.4-2.119.729a.209.209,0,0,1-.2-.035l-1.748-1.417-2.132.729a.209.209,0,0,1-.2-.037l-1.736-1.431-2.147.689a.208.208,0,0,1-.2-.039l-1.722-1.444-2.146.689a.209.209,0,0,1-.2-.041l-1.709-1.484-2.145.649a.209.209,0,0,1-.2-.041l-1.392-1.2a.209.209,0,0,1,.272-.317l1.305,1.123,2.146-.649a.21.21,0,0,1,.2.042l1.707,1.482,2.144-.688a.209.209,0,0,1,.2.039l1.722,1.444,2.146-.689a.208.208,0,0,1,.2.038l1.734,1.43,2.131-.728a.208.208,0,0,1,.2.035l1.748,1.417,2.118-.728a.209.209,0,0,1,.2.034l1.761,1.4,2.133-.755a.209.209,0,0,1,.2.033l1.76,1.39,2.118-.781a.208.208,0,0,1,.2.031l1.775,1.377,2.106-.768a.209.209,0,0,1,.2.03l1.788,1.364,2.12-.795a.209.209,0,0,1,.2.029l1.787,1.351,2.106-.808a.21.21,0,0,1,.2.028l1.8,1.35,2.092-.821a.209.209,0,0,1,.2.026l1.814,1.337,2.092-.834a.209.209,0,0,1,.2.025l1.814,1.324,2.092-.848a.209.209,0,0,1,.2.024l1.827,1.324,2.078-.86a.21.21,0,0,1,.2.023l1.827,1.311,2.093-.861a.209.209,0,0,1,.2.023l1.841,1.3,2.065-.874a.209.209,0,0,1,.2.022l1.84,1.3,2.065-.887a.209.209,0,0,1,.2.02l1.854,1.284,2.066-.9a.208.208,0,0,1,.2.019l1.867,1.284,2.051-.913a.209.209,0,0,1,.2.018L87.2,131.12l2.053-.914a.209.209,0,0,1,.2.018l1.867,1.258,2.053-.914a.209.209,0,0,1,.2.017l1.881,1.245L97.5,130.9a.209.209,0,0,1,.2.015l1.881,1.219,2.054-.941a.208.208,0,0,1,.2.015l1.895,1.232,2.04-.94a.21.21,0,0,1,.2.014l1.893,1.218,2.025-.966a.209.209,0,0,1,.2.012l1.894,1.205,2.04-.967a.208.208,0,0,1,.2.012l1.907,1.205,2.026-.98a.21.21,0,0,1,.2.01l1.907,1.179,2.027-.993a.209.209,0,0,1,.2.009l1.92,1.165,2.013-1.007a.209.209,0,0,1,.2.009l1.919,1.178,2.012-1.019a.209.209,0,0,1,.2.007l1.933,1.152,2-1.033a.209.209,0,0,1,.2.005l1.947,1.139,1.986-1.033a.21.21,0,0,1,.2,0l1.948,1.113,2-1.047a.209.209,0,0,1,.2,0l1.945,1.125,1.971-1.085a.209.209,0,0,1,.2,0l1.973,1.1,1.959-1.086a.21.21,0,0,1,.2,0l1.987,1.086,1.96-1.112a.209.209,0,0,1,.2,0l1.971,1.072,1.945-1.138a.21.21,0,0,1,.2-.005l2.014,1.047,1.933-1.139a.21.21,0,0,1,.2-.005l1.713.891a.209.209,0,0,1-.193.371l-1.61-.838-1.933,1.139a.209.209,0,0,1-.2.005l-2.014-1.047-1.947,1.139a.209.209,0,0,1-.205,0l-1.973-1.072-1.96,1.112a.209.209,0,0,1-.2,0l-1.988-1.087-1.96,1.086A.209.209,0,0,1,149.273,134.686Z" transform="translate(-7.147 -56)"/><path class="cls-4" d="M153.283,135.925a.208.208,0,0,1-.1-.026l-1.961-1.086-1.974,1.073a.209.209,0,0,1-.2,0l-1.961-1.1-1.974,1.06a.209.209,0,0,1-.2,0l-1.962-1.113-1.987,1.047a.209.209,0,0,1-.2,0l-1.948-1.126-2,1.034a.209.209,0,0,1-.2-.007l-1.934-1.166-2.013,1.02a.208.208,0,0,1-.2-.007l-1.921-1.152-2.014,1.007a.21.21,0,0,1-.2-.008L126.4,134.2l-2.028.994a.209.209,0,0,1-.2-.01l-1.907-1.192-2.026.993a.209.209,0,0,1-.2-.011l-1.893-1.192-2.026.98a.208.208,0,0,1-.2-.012L114,133.532l-2.04.967a.209.209,0,0,1-.2-.013l-1.894-1.205-2.041.954a.21.21,0,0,1-.2-.014l-1.88-1.231-2.053.954a.21.21,0,0,1-.2-.015l-1.881-1.232-2.039.94a.21.21,0,0,1-.2-.016l-1.881-1.258-2.053.927a.209.209,0,0,1-.2-.017l-1.867-1.258-2.066.927a.209.209,0,0,1-.2-.018l-1.853-1.271-2.066.914a.209.209,0,0,1-.2-.019l-1.854-1.271-2.052.9a.21.21,0,0,1-.2-.02l-1.855-1.285-2.08.888a.21.21,0,0,1-.2-.021l-1.841-1.285-2.08.874a.21.21,0,0,1-.2-.022l-1.841-1.3-2.079.874a.21.21,0,0,1-.2-.023l-1.813-1.31-2.093.861a.21.21,0,0,1-.2-.024l-1.828-1.311-2.079.848a.208.208,0,0,1-.2-.024l-1.828-1.325-2.093.835a.209.209,0,0,1-.2-.025l-1.815-1.325-2.093.821a.209.209,0,0,1-.2-.027l-1.8-1.337-2.092.821a.209.209,0,0,1-.2-.027l-1.8-1.351-2.12.808a.208.208,0,0,1-.2-.029l-1.788-1.365-2.106.782a.21.21,0,0,1-.2-.03l-1.788-1.378-2.105.781a.209.209,0,0,1-.2-.031l-1.775-1.377-2.12.768a.209.209,0,0,1-.2-.032l-1.762-1.391-2.12.742a.209.209,0,0,1-.2-.034l-1.762-1.417-2.118.741a.209.209,0,0,1-.2-.035l-1.75-1.418-2.148.7a.209.209,0,0,1-.2-.038l-1.721-1.43-2.146.7a.21.21,0,0,1-.2-.04L15.5,121.483l-2.16.676a.209.209,0,0,1-.2-.042l-1.7-1.483-2.159.649a.209.209,0,0,1-.2-.042l-1.378-1.2a.209.209,0,0,1,.274-.315l1.292,1.122,2.159-.649a.209.209,0,0,1,.2.043l1.694,1.482,2.158-.675a.209.209,0,0,1,.2.04l1.707,1.456,2.144-.7a.209.209,0,0,1,.2.038l1.721,1.43,2.146-.7a.209.209,0,0,1,.2.036l1.747,1.416,2.118-.741a.209.209,0,0,1,.2.034l1.762,1.417,2.118-.741a.209.209,0,0,1,.2.033l1.761,1.39,2.119-.768a.208.208,0,0,1,.2.031l1.774,1.377,2.105-.781a.209.209,0,0,1,.2.03l1.788,1.378,2.106-.781a.21.21,0,0,1,.2.03l1.787,1.364,2.119-.808a.209.209,0,0,1,.2.028l1.8,1.35,2.092-.821a.208.208,0,0,1,.2.027l1.8,1.337,2.092-.821a.209.209,0,0,1,.2.026l1.814,1.324,2.093-.835a.209.209,0,0,1,.2.025l1.828,1.324,2.079-.847a.208.208,0,0,1,.2.024l1.827,1.311,2.093-.861a.208.208,0,0,1,.2.024l1.812,1.31,2.078-.874a.208.208,0,0,1,.2.022l1.841,1.3,2.079-.874a.209.209,0,0,1,.2.021l1.84,1.284,2.08-.887a.21.21,0,0,1,.2.02L83,131.747l2.051-.9a.209.209,0,0,1,.2.019l1.853,1.271,2.066-.914a.209.209,0,0,1,.2.019l1.853,1.27,2.065-.927a.209.209,0,0,1,.2.017l1.867,1.258,2.052-.927a.21.21,0,0,1,.2.017l1.88,1.258,2.038-.94a.209.209,0,0,1,.2.015l1.88,1.231,2.053-.954a.209.209,0,0,1,.2.015l1.88,1.231,2.039-.953a.209.209,0,0,1,.2.013l1.894,1.205,2.04-.967a.208.208,0,0,1,.2.013l1.907,1.218,2.025-.98a.209.209,0,0,1,.2.011l1.893,1.191,2.026-.993a.208.208,0,0,1,.2.01l1.907,1.192,2.026-.993a.209.209,0,0,1,.2.009l1.92,1.165,2.013-1.007a.209.209,0,0,1,.2.008l1.92,1.152,2.014-1.02a.209.209,0,0,1,.2.007l1.933,1.165,2-1.032a.209.209,0,0,1,.2,0l1.947,1.126,1.987-1.046a.209.209,0,0,1,.2,0l1.961,1.113,1.973-1.059a.209.209,0,0,1,.2,0l1.96,1.1,1.973-1.073a.208.208,0,0,1,.2,0l1.96,1.086,1.974-1.086a.209.209,0,0,1,.2,0l1.987,1.06,1.947-1.112a.209.209,0,0,1,.2,0l1.985,1.059,1.932-1.138a.209.209,0,0,1,.2-.006l1.741.891a.209.209,0,0,1-.19.372l-1.638-.839-1.934,1.139a.208.208,0,0,1-.2,0l-1.987-1.06-1.947,1.112a.209.209,0,0,1-.2,0l-1.989-1.061-1.976,1.087A.209.209,0,0,1,153.283,135.925Z" transform="translate(-7.147 -56)"/><path class="cls-4" d="M157.321,137.179a.209.209,0,0,1-.1-.026l-1.987-1.1-1.959,1.1a.209.209,0,0,1-.2,0l-1.96-1.1-1.973,1.086a.209.209,0,0,1-.2,0l-1.961-1.126-2,1.06a.209.209,0,0,1-.2,0l-1.933-1.139-2,1.046a.208.208,0,0,1-.2-.005l-1.934-1.139-2.015,1.021a.208.208,0,0,1-.2-.007l-1.92-1.152-2.014,1.02a.209.209,0,0,1-.2-.008l-1.92-1.179-2.013,1.006a.21.21,0,0,1-.2-.009l-1.907-1.179-2.027.993a.209.209,0,0,1-.2-.011l-1.906-1.2-2.026.993a.209.209,0,0,1-.2-.011l-1.908-1.206-2.041.967a.209.209,0,0,1-.2-.013l-1.894-1.205-2.026.954a.208.208,0,0,1-.2-.013l-1.895-1.219-2.04.941a.21.21,0,0,1-.2-.015l-1.881-1.232L103.59,135a.209.209,0,0,1-.2-.015l-1.881-1.232-2.04.927a.209.209,0,0,1-.2-.017L97.4,133.406l-2.066.927a.208.208,0,0,1-.2-.018l-1.867-1.271-2.052.914a.209.209,0,0,1-.2-.018l-1.855-1.259-2.067.888a.208.208,0,0,1-.2-.02l-1.854-1.271-2.066.9a.209.209,0,0,1-.2-.02l-1.855-1.285-2.066.874a.209.209,0,0,1-.2-.022l-1.841-1.3-2.065.874a.209.209,0,0,1-.2-.022l-1.842-1.3-2.08.861a.209.209,0,0,1-.2-.023l-1.842-1.312-2.066.847a.209.209,0,0,1-.2-.024l-1.828-1.312-2.08.835a.209.209,0,0,1-.2-.025l-1.828-1.325-2.093.835a.209.209,0,0,1-.2-.026l-1.815-1.338-2.079.821a.209.209,0,0,1-.2-.026l-1.815-1.338-2.093.808a.209.209,0,0,1-.2-.028l-1.8-1.352-2.107.782a.21.21,0,0,1-.2-.029l-1.788-1.351-2.107.782a.209.209,0,0,1-.2-.031l-1.775-1.377-2.106.768a.209.209,0,0,1-.2-.031L35.808,126l-2.134.756a.209.209,0,0,1-.2-.033l-1.762-1.391-2.12.729a.209.209,0,0,1-.2-.035l-1.748-1.4-2.133.729a.21.21,0,0,1-.2-.036l-1.736-1.418-2.147.7a.209.209,0,0,1-.2-.038l-1.721-1.443-2.146.7a.209.209,0,0,1-.2-.04l-1.708-1.47-2.145.675a.208.208,0,0,1-.2-.041l-1.71-1.484-2.146.636a.209.209,0,0,1-.2-.043l-1.378-1.2a.209.209,0,0,1,.274-.315l1.292,1.122,2.146-.636a.209.209,0,0,1,.2.043l1.708,1.483,2.144-.675a.209.209,0,0,1,.2.041l1.707,1.469,2.144-.7a.208.208,0,0,1,.2.038l1.721,1.443,2.145-.7a.209.209,0,0,1,.2.037l1.734,1.417,2.132-.728a.209.209,0,0,1,.2.035l1.748,1.4,2.119-.728a.21.21,0,0,1,.2.034l1.762,1.391,2.133-.755a.209.209,0,0,1,.2.032l1.775,1.377,2.106-.768a.209.209,0,0,1,.2.031l1.774,1.377,2.105-.781a.209.209,0,0,1,.2.029l1.788,1.351,2.107-.782a.21.21,0,0,1,.2.029l1.8,1.351L52.117,128a.209.209,0,0,1,.2.027l1.815,1.338,2.079-.821a.208.208,0,0,1,.2.026l1.814,1.337,2.092-.834a.209.209,0,0,1,.2.025l1.828,1.325,2.079-.834a.209.209,0,0,1,.2.024l1.827,1.311,2.065-.847a.209.209,0,0,1,.2.023l1.841,1.312,2.079-.861a.209.209,0,0,1,.2.022l1.841,1.3L76.743,131a.208.208,0,0,1,.2.022l1.841,1.3,2.065-.874a.21.21,0,0,1,.2.021l1.854,1.284,2.065-.9a.208.208,0,0,1,.2.019l1.855,1.272,2.067-.887a.208.208,0,0,1,.2.019l1.853,1.258,2.052-.914a.208.208,0,0,1,.2.018l1.867,1.271,2.066-.927a.209.209,0,0,1,.2.017l1.866,1.258,2.038-.926a.21.21,0,0,1,.2.015l1.881,1.232,2.053-.941a.209.209,0,0,1,.2.015l1.88,1.232,2.039-.94a.21.21,0,0,1,.2.014l1.894,1.219,2.026-.953a.209.209,0,0,1,.2.013l1.894,1.205,2.04-.967a.209.209,0,0,1,.2.012l1.906,1.2,2.026-.993a.209.209,0,0,1,.2.011l1.906,1.2,2.026-.993a.21.21,0,0,1,.2.01l1.906,1.178,2.012-1.006a.209.209,0,0,1,.2.009l1.919,1.178,2.012-1.019a.208.208,0,0,1,.2.007l1.92,1.152,2.014-1.02a.209.209,0,0,1,.2.006l1.933,1.139,2-1.046a.209.209,0,0,1,.2.005l1.933,1.138,2-1.059a.208.208,0,0,1,.2,0l1.959,1.125,1.972-1.085a.209.209,0,0,1,.2,0l1.959,1.1,1.959-1.1a.208.208,0,0,1,.2,0l1.986,1.1,1.959-1.125a.209.209,0,0,1,.2,0l1.971,1.072,1.945-1.138a.209.209,0,0,1,.2,0l1.727.919a.209.209,0,0,1-.2.369l-1.624-.864-1.946,1.139a.21.21,0,0,1-.205,0l-1.972-1.072-1.96,1.126A.209.209,0,0,1,157.321,137.179Z" transform="translate(-7.147 -56)"/><path class="cls-4" d="M157.182,138.432a.209.209,0,0,1-.1-.026l-1.96-1.086-1.974,1.086a.209.209,0,0,1-.2,0L151,137.292l-2,1.073a.21.21,0,0,1-.2,0l-1.947-1.126-1.987,1.046a.209.209,0,0,1-.2,0l-1.935-1.126-2,1.02a.209.209,0,0,1-.2-.007l-1.934-1.152-2.013,1.033a.209.209,0,0,1-.2-.008l-1.92-1.179-2.013,1.006a.21.21,0,0,1-.2-.009l-1.907-1.166-2.027.994a.208.208,0,0,1-.2-.01l-1.921-1.192-2.013.98a.208.208,0,0,1-.2-.011l-1.908-1.193-2.027.967a.209.209,0,0,1-.2-.012l-1.894-1.206-2.04.954a.209.209,0,0,1-.2-.013l-1.894-1.205-2.026.953a.209.209,0,0,1-.2-.014l-1.894-1.245-2.053.94a.208.208,0,0,1-.2-.015l-1.868-1.219-2.054.928a.208.208,0,0,1-.2-.017l-1.867-1.258-2.052.927a.209.209,0,0,1-.2-.017L97.3,134.45l-2.067.914a.209.209,0,0,1-.2-.019l-1.854-1.271-2.052.9a.21.21,0,0,1-.2-.018L89.07,133.7,87,134.6a.21.21,0,0,1-.2-.02l-1.855-1.285-2.066.874a.21.21,0,0,1-.2-.021l-1.855-1.285-2.066.874a.209.209,0,0,1-.2-.022l-1.828-1.3-2.093.861a.21.21,0,0,1-.2-.024l-1.813-1.31-2.092.861a.209.209,0,0,1-.2-.023L68.5,131.47l-2.079.847a.209.209,0,0,1-.2-.025L64.4,130.968l-2.093.835a.209.209,0,0,1-.2-.026l-1.8-1.337-2.106.834a.209.209,0,0,1-.2-.027l-1.8-1.338-2.093.808a.209.209,0,0,1-.2-.028l-1.8-1.351L50,130.133a.209.209,0,0,1-.2-.028l-1.789-1.338-2.107.782a.209.209,0,0,1-.2-.03l-1.788-1.378-2.105.781a.209.209,0,0,1-.2-.031l-1.774-1.377-2.119.781a.208.208,0,0,1-.2-.033l-1.761-1.4-2.118.755a.209.209,0,0,1-.2-.033l-1.762-1.4-2.119.742a.21.21,0,0,1-.2-.034l-1.763-1.418-2.119.715a.209.209,0,0,1-.2-.037l-1.735-1.43-2.146.715a.209.209,0,0,1-.2-.039l-1.709-1.444-2.16.676a.209.209,0,0,1-.2-.04l-1.708-1.457-2.145.676a.209.209,0,0,1-.2-.043l-1.7-1.5-2.145.636a.21.21,0,0,1-.2-.043L7.65,121.643a.209.209,0,1,1,.276-.314l1.292,1.135,2.145-.636a.21.21,0,0,1,.2.044l1.694,1.5,2.143-.675a.208.208,0,0,1,.2.04L17.3,124.19l2.16-.676a.209.209,0,0,1,.2.04L21.368,125l2.145-.715a.209.209,0,0,1,.2.037l1.734,1.43,2.118-.715a.208.208,0,0,1,.2.035l1.761,1.417,2.118-.741a.209.209,0,0,1,.2.034l1.761,1.4,2.118-.755a.209.209,0,0,1,.2.033l1.76,1.4,2.117-.781a.208.208,0,0,1,.2.031l1.774,1.377,2.1-.781a.209.209,0,0,1,.2.03l1.788,1.378,2.105-.781a.209.209,0,0,1,.2.029l1.788,1.338,2.107-.8a.21.21,0,0,1,.2.028l1.8,1.351,2.092-.808a.209.209,0,0,1,.2.027l1.8,1.337,2.106-.834a.209.209,0,0,1,.2.027l1.8,1.337,2.092-.834a.209.209,0,0,1,.2.025l1.814,1.324,2.078-.847a.208.208,0,0,1,.2.024l1.827,1.311,2.093-.861a.209.209,0,0,1,.2.024l1.813,1.31,2.092-.861a.209.209,0,0,1,.2.023l1.827,1.3,2.065-.874a.21.21,0,0,1,.2.021l1.855,1.285,2.066-.874a.21.21,0,0,1,.2.021l1.854,1.284,2.065-.9a.209.209,0,0,1,.2.019l1.854,1.258,2.053-.9a.209.209,0,0,1,.2.019l1.853,1.271,2.066-.914a.209.209,0,0,1,.2.018L99.3,135.3l2.052-.927a.21.21,0,0,1,.2.017l1.867,1.258,2.052-.927a.208.208,0,0,1,.2.016l1.867,1.218,2.054-.941a.208.208,0,0,1,.2.015l1.893,1.244,2.024-.953a.209.209,0,0,1,.2.013l1.894,1.205,2.04-.954a.209.209,0,0,1,.2.013l1.894,1.205,2.026-.967a.208.208,0,0,1,.2.011l1.907,1.192,2.012-.98a.208.208,0,0,1,.2.01l1.921,1.192,2.027-.993a.209.209,0,0,1,.2.009l1.906,1.165,2.013-1.006a.209.209,0,0,1,.2.009l1.919,1.178,2.012-1.032a.208.208,0,0,1,.2.007l1.934,1.152,2-1.02a.208.208,0,0,1,.2.006l1.933,1.125,1.986-1.046a.209.209,0,0,1,.2,0l1.946,1.125,2-1.073a.21.21,0,0,1,.2,0l1.945,1.112,1.972-1.085a.209.209,0,0,1,.2,0l1.96,1.086,1.96-1.086a.209.209,0,0,1,.2,0l1.987,1.06,1.947-1.113a.209.209,0,0,1,.2,0l1.713.919a.209.209,0,1,1-.2.368l-1.611-.864-1.946,1.112a.209.209,0,0,1-.2,0l-1.988-1.061-1.962,1.087A.209.209,0,0,1,157.182,138.432Z" transform="translate(-7.147 -56)"/><path class="cls-4" d="M157.07,139.713a.208.208,0,0,1-.1-.027l-1.96-1.1-1.973,1.073a.208.208,0,0,1-.2,0l-1.974-1.126-1.973,1.072a.209.209,0,0,1-.205,0l-1.947-1.139-1.986,1.033a.21.21,0,0,1-.2-.005l-1.934-1.14-2.015,1.021a.207.207,0,0,1-.2-.007l-1.934-1.153-2,1.007a.209.209,0,0,1-.2-.009l-1.919-1.178-2.012,1.019a.208.208,0,0,1-.205-.009l-1.907-1.192-2.027.98a.21.21,0,0,1-.2-.01l-1.908-1.179-2.028.967a.209.209,0,0,1-.2-.012l-1.894-1.205-2.04.967a.209.209,0,0,1-.2-.013l-1.893-1.218-2.025.966a.209.209,0,0,1-.2-.013l-1.895-1.232-2.04.94a.209.209,0,0,1-.2-.016l-1.88-1.245-2.053.94a.208.208,0,0,1-.2-.016l-1.867-1.245-2.053.927a.208.208,0,0,1-.2-.017l-1.867-1.258-2.052.927a.209.209,0,0,1-.2-.018L97.2,135.495l-2.052.9a.21.21,0,0,1-.2-.019L93.093,135.1l-2.066.9a.208.208,0,0,1-.2-.02l-1.841-1.271-2.08.888a.21.21,0,0,1-.2-.021L84.862,134.3l-2.066.874a.209.209,0,0,1-.2-.022l-1.841-1.3-2.065.874a.209.209,0,0,1-.2-.022l-1.841-1.311-2.079.861a.209.209,0,0,1-.2-.023l-1.828-1.311-2.079.848a.208.208,0,0,1-.2-.024l-1.828-1.312-2.08.835a.209.209,0,0,1-.2-.025l-1.814-1.324-2.093.835a.209.209,0,0,1-.2-.026l-1.815-1.338-2.093.821a.21.21,0,0,1-.2-.027l-1.8-1.351-2.093.795a.209.209,0,0,1-.2-.028l-1.788-1.338-2.121.8a.209.209,0,0,1-.2-.03l-1.788-1.364-2.092.781a.21.21,0,0,1-.2-.03l-1.788-1.377-2.105.781a.209.209,0,0,1-.2-.031L39.776,128.4l-2.12.755a.209.209,0,0,1-.2-.033l-1.761-1.4-2.118.755a.209.209,0,0,1-.2-.033l-1.762-1.4-2.119.742a.208.208,0,0,1-.2-.035l-1.75-1.418-2.134.7a.208.208,0,0,1-.2-.038l-1.721-1.43-2.146.715a.209.209,0,0,1-.2-.04l-1.708-1.469-2.144.688a.209.209,0,0,1-.2-.041l-1.709-1.47-2.145.662a.209.209,0,0,1-.2-.042l-1.7-1.484-2.146.623a.209.209,0,0,1-.2-.044L7.622,122.45a.209.209,0,1,1,.276-.314l1.292,1.136,2.146-.623a.208.208,0,0,1,.2.043l1.695,1.483,2.144-.662a.209.209,0,0,1,.2.041l1.707,1.469,2.144-.688a.209.209,0,0,1,.2.041l1.706,1.468,2.143-.714a.209.209,0,0,1,.2.037l1.721,1.43,2.132-.7a.208.208,0,0,1,.2.036l1.748,1.416,2.118-.741a.209.209,0,0,1,.2.034l1.761,1.4,2.118-.755a.209.209,0,0,1,.2.033l1.761,1.4,2.118-.755a.208.208,0,0,1,.2.032l1.774,1.377,2.105-.781a.21.21,0,0,1,.2.03l1.788,1.377,2.091-.781a.209.209,0,0,1,.2.03l1.788,1.364,2.12-.795a.208.208,0,0,1,.2.028l1.788,1.337,2.093-.795a.209.209,0,0,1,.2.028l1.8,1.35,2.092-.821a.209.209,0,0,1,.2.026l1.814,1.337,2.092-.834a.209.209,0,0,1,.2.025l1.814,1.324L68.378,132a.209.209,0,0,1,.2.024l1.828,1.311,2.079-.848a.208.208,0,0,1,.2.024l1.827,1.311,2.079-.861a.208.208,0,0,1,.2.023l1.84,1.311,2.065-.874a.208.208,0,0,1,.2.022l1.841,1.3,2.065-.874a.209.209,0,0,1,.2.021l1.84,1.284,2.08-.888a.209.209,0,0,1,.2.02l1.84,1.271,2.066-.9a.208.208,0,0,1,.2.019l1.854,1.271,2.052-.9a.21.21,0,0,1,.2.019l1.867,1.271,2.052-.927a.21.21,0,0,1,.2.017l1.867,1.258,2.052-.927a.209.209,0,0,1,.2.017l1.866,1.244,2.052-.94a.209.209,0,0,1,.2.016l1.88,1.245,2.039-.94a.209.209,0,0,1,.2.015l1.893,1.231,2.025-.966a.209.209,0,0,1,.2.013l1.894,1.218,2.04-.967a.209.209,0,0,1,.2.013l1.894,1.2,2.026-.967a.209.209,0,0,1,.2.011l1.908,1.179,2.027-.981a.21.21,0,0,1,.2.011l1.905,1.191,2.011-1.019a.208.208,0,0,1,.2.008l1.92,1.178,2-1.006a.208.208,0,0,1,.2.007l1.934,1.153,2.014-1.02a.209.209,0,0,1,.2.006l1.933,1.139,1.986-1.033a.209.209,0,0,1,.2.005l1.945,1.138,1.971-1.072a.209.209,0,0,1,.2,0l1.974,1.126,1.973-1.072a.209.209,0,0,1,.2,0l1.959,1.1,1.959-1.085a.209.209,0,0,1,.2,0l1.972,1.072,1.96-1.126a.209.209,0,0,1,.206,0l1.7.947a.209.209,0,0,1-.2.365l-1.6-.889-1.958,1.125a.209.209,0,0,1-.2,0l-1.974-1.073-1.961,1.086A.209.209,0,0,1,157.07,139.713Z" transform="translate(-7.147 -56)"/><path class="cls-4" d="M161.08,140.98a.208.208,0,0,1-.1-.026l-1.961-1.086-1.974,1.073a.209.209,0,0,1-.2,0l-1.961-1.1-1.988,1.06a.209.209,0,0,1-.2,0l-1.947-1.113-1.987,1.046a.21.21,0,0,1-.2,0l-1.934-1.139-2,1.033a.21.21,0,0,1-.2-.007l-1.933-1.165-2,1.032a.21.21,0,0,1-.205-.008l-1.92-1.179-2.013,1.007a.21.21,0,0,1-.2-.009l-1.908-1.166-2.028.981a.208.208,0,0,1-.2-.011L130.1,139l-2.027.98a.209.209,0,0,1-.2-.011l-1.894-1.192-2.027.967a.208.208,0,0,1-.2-.013l-1.894-1.219-2.054.954a.209.209,0,0,1-.2-.014l-1.88-1.218-2.039.953a.209.209,0,0,1-.2-.015l-1.88-1.245-2.053.94a.209.209,0,0,1-.2-.016l-1.867-1.232-2.053.927a.209.209,0,0,1-.2-.017l-1.866-1.258-2.038.926a.209.209,0,0,1-.2-.017l-1.867-1.272-2.066.914a.209.209,0,0,1-.2-.019l-1.854-1.271-2.066.9a.209.209,0,0,1-.2-.02l-1.84-1.271-2.066.887a.209.209,0,0,1-.2-.021l-1.84-1.284-2.08.888a.209.209,0,0,1-.2-.021l-1.841-1.3-2.065.874a.209.209,0,0,1-.2-.022l-1.842-1.3-2.08.861a.208.208,0,0,1-.2-.024l-1.814-1.311-2.093.848a.21.21,0,0,1-.2-.024l-1.828-1.311-2.079.848a.209.209,0,0,1-.2-.025l-1.814-1.324-2.093.835a.209.209,0,0,1-.2-.026l-1.8-1.337-2.092.821a.209.209,0,0,1-.2-.026l-1.815-1.338-2.079.821a.21.21,0,0,1-.2-.027l-1.8-1.351-2.107.795a.209.209,0,0,1-.2-.029l-1.788-1.364-2.106.795a.21.21,0,0,1-.2-.029l-1.788-1.364-2.106.781a.209.209,0,0,1-.2-.031L43.8,129.937l-2.106.768a.209.209,0,0,1-.2-.032l-1.775-1.391-2.12.755a.209.209,0,0,1-.2-.033l-1.761-1.4-2.118.755a.209.209,0,0,1-.2-.035L31.571,127.9l-2.118.728a.209.209,0,0,1-.2-.036l-1.748-1.43-2.132.728a.208.208,0,0,1-.2-.038l-1.722-1.444L21.3,127.1a.208.208,0,0,1-.2-.04l-1.722-1.457-2.131.688a.209.209,0,0,1-.2-.041l-1.709-1.484-2.145.662a.208.208,0,0,1-.2-.044l-1.683-1.5-2.173.623a.211.211,0,0,1-.2-.046l-1.351-1.225a.209.209,0,0,1,.281-.309l1.265,1.147,2.172-.623a.21.21,0,0,1,.2.045l1.681,1.5,2.143-.662a.209.209,0,0,1,.2.042l1.707,1.482,2.13-.688a.209.209,0,0,1,.2.039l1.722,1.457,2.145-.688a.209.209,0,0,1,.2.039l1.72,1.442,2.13-.728a.209.209,0,0,1,.2.036l1.748,1.43,2.118-.728a.209.209,0,0,1,.2.035l1.747,1.416,2.117-.754a.208.208,0,0,1,.2.033l1.761,1.4,2.118-.755a.208.208,0,0,1,.2.032l1.775,1.39,2.1-.768a.209.209,0,0,1,.2.031l1.774,1.377,2.1-.781a.209.209,0,0,1,.2.03l1.788,1.364,2.106-.795a.209.209,0,0,1,.2.029l1.788,1.364,2.106-.795a.21.21,0,0,1,.2.028l1.8,1.35,2.078-.82a.208.208,0,0,1,.2.026l1.815,1.338,2.093-.821a.209.209,0,0,1,.2.027l1.8,1.337,2.092-.834a.208.208,0,0,1,.2.025l1.814,1.324,2.078-.847a.208.208,0,0,1,.2.024L74.43,134.8l2.093-.848a.209.209,0,0,1,.2.024l1.813,1.31,2.078-.86a.208.208,0,0,1,.2.022l1.841,1.3,2.065-.874a.209.209,0,0,1,.2.022l1.84,1.3,2.079-.887a.21.21,0,0,1,.2.021l1.84,1.284,2.066-.887a.208.208,0,0,1,.2.02l1.84,1.271,2.066-.9a.209.209,0,0,1,.2.019l1.853,1.271,2.066-.914a.209.209,0,0,1,.2.018l1.866,1.271,2.037-.926a.208.208,0,0,1,.2.017l1.867,1.258,2.052-.927a.209.209,0,0,1,.2.016l1.867,1.231,2.053-.94a.209.209,0,0,1,.2.016l1.88,1.244,2.038-.953a.209.209,0,0,1,.2.014l1.88,1.218,2.054-.954a.208.208,0,0,1,.2.014l1.893,1.218,2.025-.966a.208.208,0,0,1,.2.012L128,139.558l2.026-.98a.209.209,0,0,1,.2.011l1.907,1.192,2.027-.98a.21.21,0,0,1,.2.01l1.906,1.165,2.013-1.007a.209.209,0,0,1,.2.009l1.919,1.178,2-1.032a.21.21,0,0,1,.2.007l1.933,1.165,2-1.032a.208.208,0,0,1,.2.006l1.933,1.138,1.986-1.046a.209.209,0,0,1,.2,0l1.947,1.112,1.987-1.06a.209.209,0,0,1,.2,0l1.96,1.1,1.973-1.073a.208.208,0,0,1,.2,0l1.959,1.086,1.959-1.1a.209.209,0,0,1,.2,0l1.7.947a.209.209,0,0,1-.2.365l-1.6-.89-1.959,1.1A.208.208,0,0,1,161.08,140.98Z" transform="translate(-7.147 -56)"/><path class="cls-4" d="M160.955,142.275a.208.208,0,0,1-.1-.027l-1.96-1.1-1.973,1.073a.209.209,0,0,1-.2,0l-1.961-1.113-1.973,1.059a.209.209,0,0,1-.2,0l-1.947-1.139-1.986,1.046a.208.208,0,0,1-.2-.005l-1.934-1.153-2.014,1.02a.208.208,0,0,1-.2-.007l-1.921-1.152-2.014,1.007a.21.21,0,0,1-.2-.009l-1.907-1.165-2.013.993a.21.21,0,0,1-.2-.01l-1.921-1.192-2.013.98a.209.209,0,0,1-.2-.011l-1.908-1.193-2.027.967a.209.209,0,0,1-.2-.012l-1.894-1.205-2.041.954a.209.209,0,0,1-.2-.013l-1.894-1.205-2.026.954a.208.208,0,0,1-.2-.015l-1.88-1.245-2.039.94a.209.209,0,0,1-.2-.016l-1.88-1.245-2.053.94a.208.208,0,0,1-.2-.016l-1.867-1.245-2.053.927a.209.209,0,0,1-.2-.018l-1.853-1.271-2.066.914a.209.209,0,0,1-.2-.018l-1.867-1.271-2.052.913a.209.209,0,0,1-.2-.018L97.02,137.6l-2.052.887a.209.209,0,0,1-.2-.019l-1.855-1.272-2.067.875a.21.21,0,0,1-.2-.021L88.8,136.761l-2.066.874a.209.209,0,0,1-.2-.022l-1.841-1.3-2.066.861a.209.209,0,0,1-.2-.023L80.6,135.842l-2.093.861a.209.209,0,0,1-.2-.023l-1.828-1.311-2.079.847a.208.208,0,0,1-.2-.025l-1.814-1.324L70.3,135.7a.209.209,0,0,1-.2-.025l-1.815-1.325-2.093.821a.209.209,0,0,1-.2-.026l-1.815-1.338-2.079.821a.21.21,0,0,1-.2-.027l-1.8-1.351L58,134.059a.209.209,0,0,1-.2-.028L56,132.68l-2.107.795a.209.209,0,0,1-.2-.03l-1.774-1.364-2.119.795a.208.208,0,0,1-.2-.031l-1.774-1.377-2.1.781a.209.209,0,0,1-.2-.031l-1.775-1.391-2.12.755a.208.208,0,0,1-.2-.033l-1.747-1.39-2.133.755a.21.21,0,0,1-.2-.034l-1.761-1.4-2.1.741a.21.21,0,0,1-.2-.034l-1.749-1.4L29.4,129.5a.209.209,0,0,1-.2-.037l-1.735-1.43-2.132.715a.209.209,0,0,1-.2-.038l-1.722-1.444-2.146.689a.21.21,0,0,1-.2-.04l-1.709-1.457-2.146.662a.209.209,0,0,1-.2-.042l-1.695-1.483-2.144.662a.208.208,0,0,1-.2-.044l-1.682-1.51-2.173.623a.209.209,0,0,1-.2-.047l-1.351-1.239a.209.209,0,0,1,.282-.308l1.264,1.16,2.171-.622a.209.209,0,0,1,.2.045l1.68,1.508,2.143-.661a.209.209,0,0,1,.2.042l1.695,1.483,2.144-.662a.209.209,0,0,1,.2.041l1.708,1.456,2.145-.689a.209.209,0,0,1,.2.039l1.72,1.443,2.131-.715a.208.208,0,0,1,.2.037l1.735,1.43,2.132-.715a.209.209,0,0,1,.2.035l1.747,1.4,2.1-.741a.209.209,0,0,1,.2.034l1.761,1.4,2.133-.755a.209.209,0,0,1,.2.033l1.747,1.39,2.119-.755a.208.208,0,0,1,.2.032l1.774,1.39,2.1-.781a.209.209,0,0,1,.2.031l1.774,1.377,2.119-.795a.208.208,0,0,1,.2.03l1.774,1.363,2.105-.794a.21.21,0,0,1,.2.028l1.8,1.351,2.092-.808a.209.209,0,0,1,.2.028l1.8,1.35,2.077-.82a.208.208,0,0,1,.2.026l1.815,1.338,2.093-.821a.208.208,0,0,1,.2.026l1.814,1.324,2.079-.834a.208.208,0,0,1,.2.025l1.814,1.324,2.078-.847a.208.208,0,0,1,.2.024l1.827,1.311,2.093-.861a.208.208,0,0,1,.2.023l1.827,1.311,2.065-.86a.209.209,0,0,1,.2.022l1.841,1.3,2.065-.874a.21.21,0,0,1,.2.021l1.841,1.285,2.066-.874a.209.209,0,0,1,.2.02l1.854,1.272,2.052-.887a.21.21,0,0,1,.2.019l1.853,1.271,2.051-.913a.209.209,0,0,1,.2.018l1.867,1.271,2.066-.914a.21.21,0,0,1,.2.019l1.852,1.27,2.051-.926a.209.209,0,0,1,.2.017l1.866,1.244,2.052-.94a.21.21,0,0,1,.2.016l1.88,1.245,2.039-.94a.21.21,0,0,1,.2.016l1.879,1.244,2.024-.953a.209.209,0,0,1,.2.013l1.894,1.205,2.04-.954a.21.21,0,0,1,.2.013l1.894,1.2,2.026-.967a.209.209,0,0,1,.2.011l1.907,1.192,2.012-.98a.209.209,0,0,1,.2.01l1.92,1.192,2.012-.993a.209.209,0,0,1,.2.009l1.906,1.165,2.013-1.006a.208.208,0,0,1,.2.008l1.92,1.152,2.014-1.02a.209.209,0,0,1,.2.007l1.932,1.151,1.985-1.046a.209.209,0,0,1,.2,0l1.946,1.138,1.972-1.058a.209.209,0,0,1,.2,0l1.96,1.112,1.973-1.072a.21.21,0,0,1,.2,0l1.959,1.1,1.959-1.1a.209.209,0,0,1,.2,0l1.713.961a.209.209,0,1,1-.2.364l-1.61-.9-1.959,1.1A.208.208,0,0,1,160.955,142.275Z" transform="translate(-7.147 -56)"/></g><g id="COLLAGEN-RIGHT"><path class="cls-4" d="M166.023,142.205a.137.137,0,0,1-.048-.009.139.139,0,0,1-.082-.179l.6-1.615a.139.139,0,0,1,.155-.089l1.571.283.4-1.546a.14.14,0,0,1,.147-.1l1.584.142.257-1.557a.139.139,0,0,1,.137-.117h1.6l.142-1.586a.139.139,0,0,1,.129-.126l1.585-.116.013-1.584a.139.139,0,0,1,.119-.137l1.586-.232-.1-1.6a.139.139,0,0,1,.11-.145l1.559-.335-.206-1.586a.139.139,0,0,1,.1-.152l1.546-.425-.309-1.572a.139.139,0,0,1,.091-.158l1.51-.529-.374-1.535a.139.139,0,0,1,.081-.161l1.471-.619-.477-1.522a.139.139,0,0,1,.072-.167l1.432-.7-.555-1.5a.139.139,0,0,1,.063-.17l1.393-.774-.645-1.457a.139.139,0,0,1,.054-.174l1.368-.852-.709-1.418a.139.139,0,0,1,.045-.177L184.75,115l-.774-1.394a.139.139,0,0,1,.038-.179l1.264-.954-.839-1.368a.139.139,0,0,1,.03-.18l1.238-1.019-.9-1.315a.139.139,0,0,1,.021-.182L186,107.335l-.955-1.277a.139.139,0,0,1,.013-.182l1.135-1.136-1.019-1.225a.139.139,0,0,1,.005-.184l1.1-1.175-1.059-1.214a.139.139,0,0,1,0-.184l1.057-1.2L185.166,98.4a.139.139,0,0,1-.008-.183l1.006-1.252-1.148-1.109a.139.139,0,0,1-.009-.191l.933-1.084-1.148-.857a.139.139,0,0,1-.028-.2l.872-1.15-1.2-.809a.139.139,0,0,1-.036-.2l.833-1.174-1.225-.757a.139.139,0,0,1-.044-.194l.784-1.214-1.252-.721a.139.139,0,0,1-.049-.194l.758-1.226-1.264-.7a.139.139,0,0,1-.053-.192l.721-1.239-1.278-.67a.139.139,0,0,1-.058-.189l.682-1.264-1.3-.619a.139.139,0,0,1-.064-.189l.657-1.289-1.314-.581a.139.139,0,0,1-.069-.187l.62-1.3-1.329-.57a.139.139,0,0,1-.072-.185l.581-1.3-1.341-.531a.139.139,0,0,1-.077-.183l.556-1.326-1.365-.48a.139.139,0,0,1-.084-.181l.518-1.351-1.376-.429a.139.139,0,0,1-.091-.177l.455-1.364-1.39-.379a.139.139,0,0,1-.1-.172l.391-1.376-1.4-.316a.139.139,0,0,1-.1-.169l.34-1.4-1.426-.24a.139.139,0,0,1-.114-.162l.252-1.414-1.426-.164a.139.139,0,0,1-.122-.154l.164-1.422-1.449-.038a.139.139,0,0,1-.136-.142l.025-1.434-1.434.113a.138.138,0,0,1-.15-.125l-.138-1.418-1.393.3a.14.14,0,0,1-.164-.1l-.363-1.391-1.328.551a.14.14,0,0,1-.178-.066l-.71-1.42a.139.139,0,1,1,.249-.125l.652,1.3,1.356-.563a.139.139,0,0,1,.188.093l.37,1.416,1.415-.306a.139.139,0,0,1,.168.123l.14,1.437,1.451-.115a.139.139,0,0,1,.15.141l-.025,1.449,1.463.038a.139.139,0,0,1,.135.155l-.165,1.435,1.435.165a.139.139,0,0,1,.121.163l-.254,1.421,1.435.241a.139.139,0,0,1,.112.17l-.342,1.408,1.407.317a.139.139,0,0,1,.1.174l-.393,1.382,1.4.381a.139.139,0,0,1,.1.178l-.456,1.369,1.382.431a.139.139,0,0,1,.089.183l-.52,1.356,1.369.482a.139.139,0,0,1,.082.185l-.558,1.331,1.344.532a.139.139,0,0,1,.076.186L180.4,76.7l1.332.571a.139.139,0,0,1,.071.188l-.621,1.3,1.317.583a.139.139,0,0,1,.068.191l-.659,1.293,1.3.621a.139.139,0,0,1,.063.192l-.685,1.268,1.282.673a.139.139,0,0,1,.056.193l-.722,1.241,1.267.7a.139.139,0,0,1,.051.2l-.76,1.228,1.254.722a.139.139,0,0,1,.047.2l-.786,1.217,1.23.761a.139.139,0,0,1,.04.2l-.836,1.179,1.2.811a.139.139,0,0,1,.033.2l-.876,1.155,1.155.863a.139.139,0,0,1,.022.2l-.945,1.1,1.145,1.106a.139.139,0,0,1,.012.187l-1.01,1.256,1.113,1.165a.139.139,0,0,1,0,.188l-1.061,1.2,1.062,1.217a.139.139,0,0,1,0,.187l-1.1,1.177,1.021,1.228a.139.139,0,0,1-.009.188l-1.14,1.14.958,1.282a.139.139,0,0,1-.018.186L185.1,108.53l.906,1.32a.139.139,0,0,1-.026.186l-1.243,1.023.842,1.373a.139.139,0,0,1-.035.184l-1.268.957.777,1.4a.139.139,0,0,1-.042.182l-1.321.92.712,1.424a.139.139,0,0,1-.051.18l-1.373.855.647,1.463a.139.139,0,0,1-.06.178l-1.4.777.557,1.5a.139.139,0,0,1-.07.174l-1.438.7.479,1.529a.139.139,0,0,1-.079.17l-1.478.622.376,1.542a.139.139,0,0,1-.089.164l-1.515.531.311,1.58a.139.139,0,0,1-.1.161l-1.554.427.207,1.593a.139.139,0,0,1-.109.154l-1.567.337.1,1.607a.139.139,0,0,1-.119.147l-1.594.233-.013,1.593a.139.139,0,0,1-.129.138l-1.595.117-.143,1.595a.139.139,0,0,1-.139.127h-1.609l-.259,1.568a.139.139,0,0,1-.15.116l-1.6-.143-.4,1.557a.139.139,0,0,1-.16.1l-1.584-.286-.558,1.506A.139.139,0,0,1,166.023,142.205Z" transform="translate(-7.147 -56)"/><path class="cls-4" d="M166.246,140.3a.139.139,0,0,1-.132-.184l.543-1.587a.14.14,0,0,1,.162-.091l1.51.333.371-1.511a.139.139,0,0,1,.155-.1l1.522.218.256-1.537a.143.143,0,0,1,.144-.116l1.537.077.141-1.552a.139.139,0,0,1,.135-.127l1.535-.038v-1.549a.139.139,0,0,1,.123-.138l1.538-.179-.115-1.538a.139.139,0,0,1,.114-.147l1.537-.282-.243-1.523a.139.139,0,0,1,.1-.157l1.5-.4-.333-1.513a.139.139,0,0,1,.091-.162l1.474-.5-.448-1.486a.139.139,0,0,1,.08-.169l1.436-.59-.525-1.448a.139.139,0,0,1,.07-.173l1.4-.68-.615-1.423a.139.139,0,0,1,.061-.177l1.359-.743-.693-1.4a.139.139,0,0,1,.052-.18l1.307-.807-.756-1.346a.139.139,0,0,1,.042-.183l1.283-.885-.82-1.307a.139.139,0,0,1,.033-.184l1.232-.95-.872-1.27a.139.139,0,0,1,.025-.186l1.194-1-.923-1.231a.139.139,0,0,1,.018-.186l1.142-1.039-.976-1.207a.139.139,0,0,1,.012-.188l1.129-1.077-1.04-1.181a.139.139,0,0,1,0-.189l1.078-1.116-1.065-1.129a.139.139,0,0,1,0-.189l1.039-1.155-1.1-1.1a.139.139,0,0,1-.008-.188l.988-1.181-1.131-1.08a.139.139,0,0,1-.007-.194l.94-1.04-1.14-.814a.139.139,0,0,1-.028-.2l.879-1.092-1.181-.779a.139.139,0,0,1-.035-.2l.841-1.13-1.205-.728a.139.139,0,0,1-.042-.2l.8-1.156-1.232-.7a.139.139,0,0,1-.047-.2l.765-1.167-1.257-.666a.139.139,0,0,1-.054-.2l.729-1.195-1.258-.642a.139.139,0,0,1-.057-.194l.7-1.219-1.282-.591a.139.139,0,0,1-.064-.193l.679-1.244-1.293-.552a.139.139,0,0,1-.07-.19l.628-1.256-1.307-.515a.139.139,0,0,1-.074-.19l.615-1.281-1.331-.477a.139.139,0,0,1-.08-.187l.565-1.294-1.344-.44a.139.139,0,0,1-.086-.184l.528-1.319-1.356-.389a.139.139,0,0,1-.093-.181l.477-1.33-1.366-.326a.139.139,0,0,1-.1-.177l.415-1.344-1.368-.289a.139.139,0,0,1-.106-.171l.352-1.369-1.394-.213a.139.139,0,0,1-.116-.164l.263-1.379-1.4-.113a.139.139,0,0,1-.127-.156l.175-1.389h-1.4a.139.139,0,0,1-.139-.144l.05-1.4-1.4.125a.141.141,0,0,1-.1-.033.139.139,0,0,1-.049-.1l-.1-1.4-1.359.312a.139.139,0,0,1-.167-.1l-.324-1.371-1.3.548a.139.139,0,0,1-.182-.074l-.613-1.434a.139.139,0,0,1,.256-.109l.558,1.307,1.32-.559a.139.139,0,0,1,.19.1l.33,1.4,1.383-.317a.139.139,0,0,1,.17.126l.1,1.418,1.418-.127a.142.142,0,0,1,.108.038.139.139,0,0,1,.043.106l-.051,1.415h1.415a.139.139,0,0,1,.138.157l-.177,1.4,1.414.114a.139.139,0,0,1,.126.165l-.265,1.39,1.4.215a.139.139,0,0,1,.114.172l-.354,1.377,1.375.29a.139.139,0,0,1,.1.177l-.416,1.348,1.373.328a.139.139,0,0,1,.1.182l-.479,1.336,1.361.391a.139.139,0,0,1,.091.186l-.53,1.324,1.349.441a.139.139,0,0,1,.084.188l-.567,1.3,1.336.479a.139.139,0,0,1,.078.191l-.617,1.285,1.309.516a.139.139,0,0,1,.073.192l-.63,1.26,1.3.555a.139.139,0,0,1,.068.195L181,81.473l1.285.592a.139.139,0,0,1,.062.2l-.706,1.224,1.262.643a.139.139,0,0,1,.056.2l-.731,1.2,1.262.669a.139.139,0,0,1,.051.2l-.768,1.171,1.236.706a.139.139,0,0,1,.045.2l-.806,1.159,1.21.731a.139.139,0,0,1,.04.2l-.845,1.135,1.186.782a.139.139,0,0,1,.032.2l-.882,1.1,1.147.819a.139.139,0,0,1,.022.207l-.953,1.055,1.127,1.076a.139.139,0,0,1,.011.19l-.99,1.183,1.107,1.107a.139.139,0,0,1,.005.192l-1.042,1.158,1.068,1.132a.139.139,0,0,1,0,.192l-1.08,1.119,1.043,1.185a.139.139,0,0,1-.008.193l-1.133,1.081.978,1.209a.139.139,0,0,1-.015.191l-1.146,1.043.927,1.235a.139.139,0,0,1-.022.19l-1.2,1,.875,1.274a.139.139,0,0,1-.03.189l-1.236.953.824,1.313a.139.139,0,0,1-.039.189l-1.288.889.759,1.351a.139.139,0,0,1-.048.187l-1.312.811.7,1.4a.139.139,0,0,1-.058.184l-1.365.747.618,1.429a.139.139,0,0,1-.067.18l-1.4.683.528,1.456a.139.139,0,0,1-.078.176l-1.443.592.451,1.494a.139.139,0,0,1-.089.172l-1.483.5.335,1.521a.139.139,0,0,1-.1.165l-1.507.4.245,1.533a.139.139,0,0,1-.112.159l-1.548.284.116,1.546a.139.139,0,0,1-.123.149l-1.548.181v1.561a.139.139,0,0,1-.136.139l-1.547.039-.142,1.561a.139.139,0,0,1-.146.126L170.889,136l-.258,1.549a.139.139,0,0,1-.157.115l-1.532-.219-.374,1.521a.14.14,0,0,1-.165.1l-1.522-.335-.5,1.47A.139.139,0,0,1,166.246,140.3Z" transform="translate(-7.147 -56)"/><path class="cls-4" d="M166.441,138.4a.136.136,0,0,1-.044-.007.139.139,0,0,1-.089-.176l.515-1.56a.139.139,0,0,1,.167-.091l1.437.369.357-1.464a.139.139,0,0,1,.159-.1l1.477.255.242-1.49a.139.139,0,0,1,.151-.116l1.489.14.127-1.489a.139.139,0,0,1,.139-.127h0l1.489.013v-1.5a.139.139,0,0,1,.129-.139l1.489-.115-.127-1.489a.139.139,0,0,1,.117-.149l1.475-.229-.255-1.49a.139.139,0,0,1,.105-.159l1.462-.343-.382-1.463a.139.139,0,0,1,.091-.167l1.426-.471-.484-1.412a.139.139,0,0,1,.08-.174l1.387-.56L180,121.317a.139.139,0,0,1,.066-.178l1.352-.676-.663-1.338a.139.139,0,0,1,.056-.183l1.3-.739-.726-1.3a.139.139,0,0,1,.047-.186l1.275-.8-.8-1.275a.139.139,0,0,1,.037-.188l1.224-.867-.84-1.21a.139.139,0,0,1,.029-.19l1.186-.918-.906-1.2a.139.139,0,0,1,.022-.191l1.161-.97-.956-1.16a.139.139,0,0,1,.014-.192L184,106.548,183,105.426a.139.139,0,0,1,.007-.193l1.084-1.046-1.032-1.083a.139.139,0,0,1,0-.193l1.047-1.085-1.059-1.059a.139.139,0,0,1,0-.193l1.021-1.11-1.1-1.034a.139.139,0,0,1-.009-.193l1-1.136-1.123-1.008a.139.139,0,0,1-.009-.2l.934-1-1.134-.785a.139.139,0,0,1-.027-.2l.886-1.049-1.162-.75a.139.139,0,0,1-.034-.2l.836-1.073-1.173-.7a.139.139,0,0,1-.041-.2l.811-1.111-1.211-.662a.139.139,0,0,1-.048-.2l.774-1.123-1.225-.637a.139.139,0,0,1-.052-.2l.749-1.148-1.249-.6a.139.139,0,0,1-.059-.2l.713-1.175-1.264-.576a.139.139,0,0,1-.063-.2l.685-1.171-1.272-.524a.139.139,0,0,1-.069-.195l.662-1.224-1.285-.487a.139.139,0,0,1-.075-.192l.612-1.237-1.3-.45a.139.139,0,0,1-.081-.19l.574-1.248-1.325-.412a.139.139,0,0,1-.086-.189l.549-1.26-1.323-.374a.139.139,0,0,1-.093-.182l.474-1.285-1.335-.3a.139.139,0,0,1-.1-.18l.437-1.3-1.361-.262a.139.139,0,0,1-.108-.175l.373-1.319-1.383-.162a.139.139,0,0,1-.12-.168l.3-1.345-1.369-.087a.139.139,0,0,1-.129-.158l.187-1.357-1.369.025h0a.139.139,0,0,1-.139-.147l.075-1.38-1.367.162a.139.139,0,0,1-.155-.132l-.062-1.365-1.341.31a.138.138,0,0,1-.108-.019.139.139,0,0,1-.061-.091l-.247-1.335-1.262.52a.139.139,0,0,1-.183-.079l-.543-1.42a.139.139,0,1,1,.26-.1l.492,1.287,1.288-.53a.139.139,0,0,1,.19.1l.252,1.361,1.362-.315a.139.139,0,0,1,.171.129l.063,1.382,1.383-.164a.139.139,0,0,1,.155.146l-.075,1.4,1.382-.025a.128.128,0,0,1,.107.047.139.139,0,0,1,.034.111l-.188,1.369,1.382.088a.139.139,0,0,1,.127.169l-.3,1.353,1.392.163a.139.139,0,0,1,.118.176l-.376,1.33,1.369.264a.139.139,0,0,1,.106.181l-.438,1.3,1.339.3a.139.139,0,0,1,.1.184l-.477,1.293,1.331.377a.139.139,0,0,1,.09.19l-.551,1.264,1.328.413a.139.139,0,0,1,.085.191l-.576,1.253,1.3.451a.139.139,0,0,1,.079.193l-.614,1.241,1.291.489a.139.139,0,0,1,.073.2l-.665,1.229,1.277.526a.139.139,0,0,1,.067.2l-.688,1.176,1.266.577a.139.139,0,0,1,.061.2l-.714,1.178,1.254.6a.139.139,0,0,1,.056.2l-.752,1.152,1.228.639a.139.139,0,0,1,.05.2l-.776,1.126,1.215.664a.139.139,0,0,1,.046.2l-.815,1.116,1.178.7a.139.139,0,0,1,.039.205L182.6,91.96l1.167.753a.139.139,0,0,1,.031.207l-.89,1.053,1.141.79a.139.139,0,0,1,.022.21l-.947,1.01,1.119,1a.139.139,0,0,1,.012.2l-1,1.138,1.1,1.036a.139.139,0,0,1,.007.2l-1.024,1.113,1.061,1.061a.139.139,0,0,1,0,.2l-1.049,1.087,1.036,1.087a.139.139,0,0,1,0,.2l-1.088,1.049,1,1.126a.139.139,0,0,1-.011.2l-1.126,1.011.959,1.164a.139.139,0,0,1-.018.2l-1.165.973.909,1.2a.139.139,0,0,1-.026.194l-1.19.922.843,1.214a.139.139,0,0,1-.034.193l-1.229.871.807,1.281a.139.139,0,0,1-.044.192l-1.281.807.729,1.3a.139.139,0,0,1-.053.189l-1.306.743.666,1.344a.139.139,0,0,1-.063.186l-1.36.68.577,1.384a.139.139,0,0,1-.076.183l-1.4.563.486,1.421a.139.139,0,0,1-.088.177l-1.436.474.385,1.475a.139.139,0,0,1-.1.171l-1.474.346.256,1.5a.139.139,0,0,1-.116.161l-1.487.231.128,1.5a.139.139,0,0,1-.128.151l-1.5.115V132.7a.139.139,0,0,1-.041.1.162.162,0,0,1-.1.04l-1.5-.013-.128,1.5a.139.139,0,0,1-.049.1.141.141,0,0,1-.1.032l-1.5-.141-.244,1.5a.139.139,0,0,1-.161.115l-1.487-.256-.359,1.475a.139.139,0,0,1-.17.1l-1.447-.371-.474,1.436A.139.139,0,0,1,166.441,138.4Z" transform="translate(-7.147 -56)"/><path class="cls-4" d="M166.664,136.524a.143.143,0,0,1-.038-.005.139.139,0,0,1-.1-.172l.446-1.56a.139.139,0,0,1,.174-.1l1.4.417.316-1.427a.139.139,0,0,1,.061-.087.137.137,0,0,1,.105-.018l1.416.316.24-1.442a.139.139,0,0,1,.157-.115l1.427.2.114-1.453a.141.141,0,0,1,.147-.128l1.452.088-.013-1.452a.139.139,0,0,1,.134-.14l1.452-.051-.152-1.453a.139.139,0,0,1,.121-.153l1.438-.177-.29-1.426a.139.139,0,0,1,.106-.164l1.427-.316-.417-1.388a.139.139,0,0,1,.092-.173l1.4-.442-.543-1.35a.139.139,0,0,1,.076-.181l1.353-.556-.631-1.3a.139.139,0,0,1,.063-.185l1.317-.658-.721-1.265a.139.139,0,0,1,.053-.19l1.264-.708-.784-1.226a.139.139,0,0,1,.041-.192l1.227-.8-.846-1.162a.139.139,0,0,1,.032-.2l1.2-.849-.9-1.152a.139.139,0,0,1,.025-.2l1.164-.9-.947-1.086a.139.139,0,0,1,.015-.2l1.129-.951-.975-1.077a.139.139,0,0,1,.01-.2l1.077-.976-1-1.038a.139.139,0,0,1,0-.2l1.052-1-1.04-1.027a.139.139,0,0,1,0-.2l1.028-1.04-1.052-.988a.139.139,0,0,1-.006-.2l1-1.065-1.09-.963a.139.139,0,0,1-.011-.2l.975-1.076-1.128-.938a.139.139,0,0,1-.01-.2l.953-.965-1.126-.742a.139.139,0,0,1-.027-.209l.892-1-1.153-.707a.139.139,0,0,1-.035-.207l.857-1.043-1.153-.67a.139.139,0,0,1-.04-.206l.818-1.053-1.191-.633a.139.139,0,0,1-.047-.2l.794-1.091-1.216-.6a.139.139,0,0,1-.053-.2l.768-1.1-1.226-.557a.139.139,0,0,1-.06-.2l.72-1.143-1.228-.521a.139.139,0,0,1-.065-.2l.695-1.154-1.253-.5a.139.139,0,0,1-.07-.2l.67-1.178-1.263-.446a.139.139,0,0,1-.077-.2l.62-1.178-1.265-.422a.139.139,0,0,1-.081-.192l.583-1.216-1.29-.372a.139.139,0,0,1-.089-.19l.546-1.228-1.3-.335a.139.139,0,0,1-.095-.187l.5-1.238-1.313-.273a.139.139,0,0,1-.1-.182l.446-1.275-1.323-.2a.139.139,0,0,1-.113-.177l.384-1.288L172.358,69a.139.139,0,0,1-.12-.17l.309-1.311-1.335-.049a.139.139,0,0,1-.133-.16l.2-1.324-1.336.049a.139.139,0,0,1-.144-.149l.1-1.332-1.333.185a.141.141,0,0,1-.109-.032.139.139,0,0,1-.049-.1l-.037-1.345-1.294.321a.139.139,0,0,1-.171-.115l-.2-1.313-1.241.516a.139.139,0,0,1-.186-.086l-.459-1.42a.139.139,0,1,1,.265-.086l.413,1.277,1.267-.527a.139.139,0,0,1,.191.108l.2,1.339,1.314-.325a.139.139,0,0,1,.173.131l.037,1.362,1.35-.188a.139.139,0,0,1,.158.148l-.1,1.349,1.348-.05a.139.139,0,0,1,.143.16l-.2,1.336,1.348.05a.139.139,0,0,1,.13.171l-.312,1.323,1.348.15a.139.139,0,0,1,.118.178l-.386,1.294,1.331.2a.139.139,0,0,1,.111.184l-.449,1.284,1.32.274a.139.139,0,0,1,.1.188l-.5,1.245,1.309.337a.139.139,0,0,1,.093.191l-.548,1.232,1.295.373a.139.139,0,0,1,.087.194l-.586,1.222,1.27.424a.139.139,0,0,1,.079.2l-.621,1.18,1.268.448a.139.139,0,0,1,.075.2l-.673,1.184,1.257.5a.139.139,0,0,1,.068.2l-.7,1.158,1.231.522a.139.139,0,0,1,.063.2l-.722,1.146,1.233.561a.139.139,0,0,1,.057.206l-.77,1.106,1.219.6a.139.139,0,0,1,.051.207l-.8,1.1,1.2.635a.139.139,0,0,1,.045.208l-.821,1.058,1.157.672a.139.139,0,0,1,.038.209l-.859,1.046,1.159.71a.139.139,0,0,1,.031.211l-.9,1.008,1.133.747a.139.139,0,0,1,.022.214l-.966.978,1.123.933a.139.139,0,0,1,.014.2l-.978,1.079,1.092.965a.139.139,0,0,1,.009.2l-1,1.068,1.054.991a.139.139,0,0,1,0,.2L182.3,102.8l1.043,1.03a.139.139,0,0,1,0,.2l-1.054,1,1,1.041a.139.139,0,0,1-.007.2l-1.08.979.979,1.08a.139.139,0,0,1-.013.2l-1.131.953.951,1.091a.139.139,0,0,1-.02.2l-1.17.9.9,1.157a.139.139,0,0,1-.03.2l-1.207.852.85,1.167a.139.139,0,0,1-.037.2l-1.235.8.789,1.234a.139.139,0,0,1-.049.2l-1.27.711.724,1.271a.139.139,0,0,1-.059.193l-1.325.662.636,1.31a.139.139,0,0,1-.072.19l-1.362.56.547,1.362a.139.139,0,0,1-.087.185l-1.415.446.42,1.4a.139.139,0,0,1-.1.176l-1.44.318.293,1.439a.139.139,0,0,1-.119.166l-1.452.178.153,1.465a.139.139,0,0,1-.134.154l-1.466.051.013,1.466a.14.14,0,0,1-.043.1.144.144,0,0,1-.1.038l-1.465-.089-.114,1.465a.139.139,0,0,1-.052.1.141.141,0,0,1-.107.029l-1.439-.2-.242,1.453a.139.139,0,0,1-.168.113l-1.423-.318-.318,1.437a.14.14,0,0,1-.176.1L167.2,135l-.407,1.424A.139.139,0,0,1,166.664,136.524Z" transform="translate(-7.147 -56)"/></g><g id="COLLAGEN-UP"><path class="cls-4" d="M99.883,67.5a.139.139,0,0,1-.085-.029L98.407,66.4,97,67.473a.139.139,0,0,1-.171,0L95.44,66.383l-1.4,1.076a.14.14,0,0,1-.172,0l-1.379-1.1L91.054,67.4a.139.139,0,0,1-.171,0l-1.366-1.116-1.431,1.024a.139.139,0,0,1-.171-.007l-1.309-1.113-1.4,1.022a.139.139,0,0,1-.173-.007l-1.309-1.139-1.4,1.021a.139.139,0,0,1-.173-.007l-1.309-1.139-1.4,1.021a.139.139,0,0,1-.173-.007l-1.309-1.138-1.4,1.021a.139.139,0,0,1-.174-.008l-1.3-1.138-1.414,1.021A.139.139,0,0,1,73.5,66.7l-1.3-1.151-1.4,1.007a.139.139,0,0,1-.172-.007l-1.309-1.126-1.4,1.008a.139.139,0,0,1-.173-.008l-1.309-1.139-1.4,1.008a.139.139,0,0,1-.173-.008l-1.309-1.139-1.4,1.021a.139.139,0,0,1-.173-.007l-1.309-1.139-1.4,1.008a.139.139,0,0,1-.173-.008L57.8,64.881,56.4,65.9a.139.139,0,0,1-.174-.008l-1.295-1.138-1.4,1.02a.139.139,0,0,1-.173-.007L52.046,64.63l-1.4,1.021a.139.139,0,0,1-.173-.007L49.163,64.5l-1.4,1.021a.139.139,0,0,1-.172-.007l-1.322-1.126-1.387,1.021a.139.139,0,0,1-.173-.006l-1.322-1.126L42,65.316a.139.139,0,0,1-.174-.006L40.5,64.171l-1.386,1.046a.139.139,0,0,1-.174-.005l-1.321-1.125-1.387,1.047a.139.139,0,0,1-.175-.006L34.753,64l-1.387,1.033a.139.139,0,0,1-.172,0l-1.335-1.1-1.374,1.047a.139.139,0,0,1-.172,0l-1.335-1.086L27.6,64.952a.139.139,0,0,1-.172,0l-1.347-1.086-1.347,1.072a.139.139,0,0,1-.173,0L23.2,63.865l-1.348,1.1a.139.139,0,0,1-.172,0l-1.373-1.046L18.99,65.045a.139.139,0,0,1-.172.007l-1.4-1-1.253,1.188a.139.139,0,0,1-.171.016L14.981,64.6a.139.139,0,1,1,.151-.234l.925.6,1.257-1.192a.139.139,0,0,1,.177-.012l1.4,1.008,1.323-1.127a.139.139,0,0,1,.175,0l1.375,1.047,1.349-1.1a.139.139,0,0,1,.174,0L24.65,64.65,26,63.577a.139.139,0,0,1,.174,0l1.349,1.087L28.9,63.6a.139.139,0,0,1,.173,0L30.4,64.693l1.375-1.047a.139.139,0,0,1,.173,0l1.336,1.1,1.388-1.035a.139.139,0,0,1,.174.006l1.307,1.124L37.544,63.8a.139.139,0,0,1,.174.005l1.321,1.125,1.387-1.047a.139.139,0,0,1,.175.006l1.322,1.139,1.386-1.033a.139.139,0,0,1,.174.006l1.322,1.126L46.192,64.1a.139.139,0,0,1,.173.006l1.323,1.126,1.4-1.021a.139.139,0,0,1,.173.007l1.309,1.139,1.4-1.021a.139.139,0,0,1,.173.007l1.309,1.138,1.4-1.021a.139.139,0,0,1,.174.008l1.295,1.138,1.4-1.02a.139.139,0,0,1,.173.007L59.2,65.737l1.4-1.008a.139.139,0,0,1,.173.008l1.309,1.139,1.4-1.021a.139.139,0,0,1,.173.007L64.969,66l1.4-1.008a.139.139,0,0,1,.173.008l1.309,1.139,1.4-1.008a.139.139,0,0,1,.172.007l1.309,1.126,1.4-1.008a.139.139,0,0,1,.174.009l1.3,1.151L75.016,65.4a.139.139,0,0,1,.173.008l1.295,1.138,1.4-1.02a.14.14,0,0,1,.173.007l1.309,1.138,1.4-1.021a.139.139,0,0,1,.173.007l1.309,1.139,1.4-1.021a.139.139,0,0,1,.173.007l1.309,1.139,1.4-1.021a.139.139,0,0,1,.172.006l1.31,1.113L89.442,66a.139.139,0,0,1,.169.005l1.365,1.115,1.431-1.05a.139.139,0,0,1,.169,0l1.377,1.1,1.4-1.075a.139.139,0,0,1,.171,0l1.391,1.089,1.4-1.076a.139.139,0,0,1,.17,0l1.39,1.076,1.391-1.089a.139.139,0,0,1,.169,0l1.418,1.063,1.378-1.089a.14.14,0,0,1,.169,0l1.418,1.05,1.378-1.1a.139.139,0,0,1,.17,0l1.418,1.05,1.378-1.1a.139.139,0,0,1,.169,0l1.418,1.037,1.365-1.1a.139.139,0,0,1,.169,0l1.431,1.037,1.365-1.129a.139.139,0,0,1,.171,0l1.43,1.049,1.364-1.141a.139.139,0,0,1,.171-.006l1.43,1.037,1.365-1.129a.139.139,0,0,1,.17-.006l1.431,1.024,1.366-1.129a.139.139,0,0,1,.17-.006l1.43,1.023,1.365-1.142a.14.14,0,0,1,.171-.006l1.429,1.036,1.351-1.154a.139.139,0,0,1,.17-.008l1.444,1.011,1.352-1.129a.139.139,0,0,1,.169-.007l1.444,1.011,1.352-1.142a.139.139,0,0,1,.17-.008l1.443,1.01L139.8,64.82a.139.139,0,0,1,.17-.008l1.443,1.01,1.338-1.155a.139.139,0,0,1,.17-.009l1.458,1,1.339-1.142a.14.14,0,0,1,.169-.009l1.456,1,1.339-1.168a.139.139,0,0,1,.171-.01l1.456,1.01,1.325-1.167a.139.139,0,0,1,.17-.011l1.471.985,1.326-1.155a.139.139,0,0,1,.169-.01l1.456.984,1.326-1.181a.139.139,0,0,1,.17-.012l1.47.984,1.312-1.168a.139.139,0,0,1,.168-.013l1.481.957,1.285-1.22a.139.139,0,1,1,.192.2L162.262,64.8a.139.139,0,0,1-.171.016l-1.484-.959-1.313,1.169a.139.139,0,0,1-.17.012l-1.47-.984-1.326,1.181a.139.139,0,0,1-.171.011l-1.457-.984-1.326,1.155a.139.139,0,0,1-.169.011l-1.47-.985-1.326,1.168a.14.14,0,0,1-.171.01l-1.456-1.01-1.339,1.168a.139.139,0,0,1-.17.01l-1.458-1-1.339,1.142a.139.139,0,0,1-.169.009l-1.457-1L141.51,66.1a.139.139,0,0,1-.171.009L139.9,65.1l-1.352,1.155a.139.139,0,0,1-.17.008l-1.444-1.011L135.577,66.4a.139.139,0,0,1-.17.008l-1.444-1.011-1.352,1.129a.139.139,0,0,1-.169.007L131,65.519l-1.352,1.155a.139.139,0,0,1-.172.007l-1.43-1.036-1.365,1.142a.139.139,0,0,1-.17.006l-1.431-1.024L123.713,66.9a.14.14,0,0,1-.17.006l-1.431-1.024-1.366,1.129a.139.139,0,0,1-.17.005l-1.43-1.036-1.365,1.142a.139.139,0,0,1-.172.005l-1.43-1.05L114.815,67.2a.139.139,0,0,1-.171.005l-1.431-1.037-1.365,1.1a.139.139,0,0,1-.17,0l-1.418-1.037-1.379,1.1a.139.139,0,0,1-.17,0l-1.418-1.05-1.378,1.1a.139.139,0,0,1-.17,0l-1.418-1.051-1.378,1.09a.139.139,0,0,1-.17,0l-1.419-1.064-1.392,1.09A.139.139,0,0,1,99.883,67.5Z" transform="translate(-7.147 -56)"/><path class="cls-4" d="M100.078,66.471a.139.139,0,0,1-.085-.029l-1.4-1.077L97.2,66.442a.139.139,0,0,1-.17,0l-1.391-1.076-1.4,1.077a.139.139,0,0,1-.171,0l-1.392-1.09L91.249,66.4a.139.139,0,0,1-.17,0L89.7,65.3l-1.418,1.037a.139.139,0,0,1-.172-.006l-1.322-1.113L85.4,66.235a.139.139,0,0,1-.173-.006L83.906,65.1l-1.4,1.034a.139.139,0,0,1-.175-.007l-1.295-1.138-1.4,1.02a.139.139,0,0,1-.172-.006l-1.309-1.113-1.4,1.021a.139.139,0,0,1-.173-.007l-1.309-1.126-1.4,1.008a.139.139,0,0,1-.172-.007l-1.322-1.139-1.4,1.034a.139.139,0,0,1-.174-.007l-1.309-1.139-1.4,1.021a.139.139,0,0,1-.173-.007l-1.309-1.126-1.4,1.021a.139.139,0,0,1-.173-.007l-1.309-1.126-1.4,1.008a.139.139,0,0,1-.173-.008L60.86,64.171,59.46,65.2a.139.139,0,0,1-.174-.007l-1.309-1.139-1.4,1.021a.139.139,0,0,1-.173-.007L55.1,63.947l-1.4,1.021a.139.139,0,0,1-.172-.007L52.2,63.836l-1.387,1.021a.139.139,0,0,1-.173-.006l-1.322-1.126-1.387,1.034a.139.139,0,0,1-.174-.006l-1.321-1.138L45.05,64.661a.139.139,0,0,1-.175-.006l-1.322-1.139L42.167,64.55a.139.139,0,0,1-.173-.006l-1.308-1.112L39.3,64.466a.139.139,0,0,1-.172,0l-1.335-1.113L36.417,64.4a.139.139,0,0,1-.174,0l-1.335-1.113-1.374,1.047a.139.139,0,0,1-.173,0l-1.335-1.1-1.374,1.06a.14.14,0,0,1-.174,0l-1.347-1.112-1.36,1.085a.139.139,0,0,1-.175,0l-1.347-1.1-1.36,1.086a.139.139,0,0,1-.173,0L23.358,63.17l-1.32,1.111a.139.139,0,0,1-.173.005l-1.388-1.034-1.322,1.113a.14.14,0,0,1-.17.007l-1.4-.993-1.268,1.176a.139.139,0,0,1-.168.016l-1.016-.627a.139.139,0,1,1,.146-.237l.926.571L17.482,63.1a.139.139,0,0,1,.175-.011l1.4,1,1.324-1.114a.139.139,0,0,1,.173-.005L21.944,64l1.322-1.113a.139.139,0,0,1,.176,0L24.8,63.954l1.362-1.087a.139.139,0,0,1,.175,0l1.347,1.1,1.36-1.086a.139.139,0,0,1,.175,0L30.571,64l1.374-1.06a.139.139,0,0,1,.174,0l1.335,1.1,1.374-1.047a.139.139,0,0,1,.174,0l1.335,1.113L37.71,63.06a.139.139,0,0,1,.174,0l1.336,1.113,1.388-1.034a.139.139,0,0,1,.173.006l1.308,1.112,1.387-1.034a.14.14,0,0,1,.174.006l1.321,1.138,1.386-1.046a.139.139,0,0,1,.175.006l1.322,1.139,1.386-1.033a.139.139,0,0,1,.174.006l1.322,1.126,1.387-1.021a.139.139,0,0,1,.173.006l1.323,1.126,1.4-1.021a.139.139,0,0,1,.173.007L56.5,64.79l1.4-1.021a.139.139,0,0,1,.173.007l1.308,1.138,1.4-1.034a.139.139,0,0,1,.175.007l1.3,1.138,1.4-1.007a.139.139,0,0,1,.172.007l1.309,1.126,1.4-1.021a.14.14,0,0,1,.173.007l1.309,1.126,1.4-1.021a.139.139,0,0,1,.173.007L70.9,65.388l1.4-1.034a.14.14,0,0,1,.174.007L73.8,65.5l1.4-1.008a.139.139,0,0,1,.172.007l1.309,1.126,1.4-1.021a.139.139,0,0,1,.172.006l1.309,1.113,1.4-1.021a.139.139,0,0,1,.174.008l1.294,1.137,1.4-1.033a.139.139,0,0,1,.173.006l1.322,1.126,1.387-1.021a.139.139,0,0,1,.172.006l1.323,1.113,1.416-1.035a.139.139,0,0,1,.169,0l1.378,1.1,1.418-1.05a.139.139,0,0,1,.169,0l1.391,1.089,1.4-1.076a.139.139,0,0,1,.17,0l1.391,1.076L98.5,65.08a.139.139,0,0,1,.17,0l1.4,1.076,1.391-1.089a.139.139,0,0,1,.169,0l1.418,1.064,1.378-1.089a.14.14,0,0,1,.169,0l1.418,1.05,1.378-1.1a.139.139,0,0,1,.17,0l1.418,1.05,1.378-1.1a.139.139,0,0,1,.169,0l1.417,1.037,1.379-1.116a.139.139,0,0,1,.171,0l1.416,1.049,1.364-1.128a.139.139,0,0,1,.171-.005l1.431,1.037,1.365-1.129a.139.139,0,0,1,.17-.006l1.444,1.037,1.351-1.128a.139.139,0,0,1,.169-.007l1.458,1.024,1.338-1.128a.139.139,0,0,1,.17-.007l1.457,1.024,1.338-1.141a.139.139,0,0,1,.171-.008l1.457,1.037,1.352-1.142a.14.14,0,0,1,.17-.008l1.444,1.011,1.352-1.142a.14.14,0,0,1,.17-.008l1.444,1.011,1.352-1.129a.139.139,0,0,1,.168-.008l1.443,1,1.339-1.155a.139.139,0,0,1,.17-.009l1.457,1.011,1.339-1.155a.139.139,0,0,1,.17-.009l1.457,1.011,1.339-1.155a.139.139,0,0,1,.17-.009l1.456,1L148.9,63.3a.139.139,0,0,1,.17-.01l1.457,1,1.325-1.155a.139.139,0,0,1,.169-.011l1.47.985,1.326-1.168a.139.139,0,0,1,.17-.011l1.456.984,1.326-1.181a.139.139,0,0,1,.169-.012l1.47.971,1.312-1.181a.14.14,0,0,1,.168-.014l1.482.944,1.286-1.22a.139.139,0,1,1,.192.2l-1.365,1.295a.139.139,0,0,1-.171.016l-1.484-.946-1.314,1.182a.139.139,0,0,1-.17.013l-1.47-.971-1.326,1.182a.139.139,0,0,1-.171.011l-1.456-.984L153.6,64.389a.14.14,0,0,1-.17.011l-1.471-.985-1.326,1.155a.139.139,0,0,1-.17.01l-1.457-1-1.339,1.168a.139.139,0,0,1-.17.01l-1.457-1L144.7,64.92a.139.139,0,0,1-.17.009l-1.457-1.011-1.339,1.155a.139.139,0,0,1-.17.009l-1.457-1.011-1.339,1.155a.139.139,0,0,1-.17.009l-1.445-1-1.353,1.13a.139.139,0,0,1-.169.007l-1.444-1.011-1.352,1.142a.139.139,0,0,1-.17.008L131.221,64.5l-1.352,1.142a.139.139,0,0,1-.171.007l-1.457-1.037L126.9,65.755a.14.14,0,0,1-.171.008l-1.458-1.024-1.338,1.128a.139.139,0,0,1-.17.007l-1.458-1.025-1.352,1.129a.139.139,0,0,1-.17.006l-1.445-1.037-1.365,1.129a.139.139,0,0,1-.171.005l-1.431-1.037-1.365,1.129a.139.139,0,0,1-.172,0l-1.417-1.05-1.378,1.116a.139.139,0,0,1-.17,0l-1.418-1.037-1.379,1.1a.139.139,0,0,1-.17,0l-1.418-1.05-1.378,1.1a.139.139,0,0,1-.17,0l-1.418-1.051-1.378,1.09a.139.139,0,0,1-.17,0l-1.419-1.064-1.392,1.09A.139.139,0,0,1,100.078,66.471Z" transform="translate(-7.147 -56)"/><path class="cls-4" d="M97.321,65.469a.139.139,0,0,1-.085-.029l-1.406-1.077-1.405,1.064a.14.14,0,0,1-.169,0l-1.392-1.077L91.459,65.4a.139.139,0,0,1-.17,0l-1.379-1.09-1.432,1.038a.139.139,0,0,1-.171-.006l-1.322-1.1L85.6,65.274a.139.139,0,0,1-.174-.006L84.1,64.143,82.715,65.19a.139.139,0,0,1-.174-.005l-1.322-1.126-1.4,1.034a.14.14,0,0,1-.172-.006l-1.322-1.113L76.935,65a.139.139,0,0,1-.172-.006L75.44,63.877,74.053,64.9a.139.139,0,0,1-.172-.006l-1.323-1.113-1.4,1.022a.139.139,0,0,1-.173-.007L69.688,63.67l-1.4,1.034a.14.14,0,0,1-.174-.007l-1.322-1.139-1.386,1.033a.139.139,0,0,1-.174-.006L63.91,63.46l-1.387,1.021a.139.139,0,0,1-.172-.006l-1.323-1.113-1.4,1.022a.139.139,0,0,1-.172-.006l-1.309-1.113-1.4,1.022a.139.139,0,0,1-.173-.007l-1.308-1.125-1.4,1.034a.139.139,0,0,1-.173-.006l-1.322-1.126L50.98,64.077a.139.139,0,0,1-.173-.006L49.5,62.959l-1.387,1.021a.139.139,0,0,1-.172-.006l-1.322-1.113L45.23,63.9a.139.139,0,0,1-.173-.005l-1.322-1.113-1.388,1.034a.139.139,0,0,1-.172,0L40.84,62.695l-1.374,1.047a.139.139,0,0,1-.174,0l-1.335-1.125-1.387,1.06a.139.139,0,0,1-.174,0l-1.335-1.113L33.688,63.6a.139.139,0,0,1-.172,0l-1.335-1.086-1.375,1.061a.139.139,0,0,1-.172,0l-1.348-1.086-1.347,1.059a.14.14,0,0,1-.173,0l-1.348-1.073-1.361,1.073a.139.139,0,0,1-.171,0L23.525,62.5l-1.335,1.1a.139.139,0,0,1-.172,0l-1.385-1.046-1.307,1.15a.139.139,0,0,1-.172.01l-1.425-.994L16.474,63.9a.139.139,0,0,1-.168.017L15.29,63.29a.139.139,0,1,1,.146-.237l.926.571,1.259-1.18a.139.139,0,0,1,.175-.013l1.428,1,1.31-1.153a.139.139,0,0,1,.176-.007L22.1,63.314l1.336-1.1a.139.139,0,0,1,.173,0l1.362,1.048,1.363-1.075a.139.139,0,0,1,.173,0l1.348,1.073L29.2,62.2a.139.139,0,0,1,.173,0l1.349,1.087L32.1,62.225a.139.139,0,0,1,.173,0l1.335,1.086,1.375-1.047a.139.139,0,0,1,.174,0l1.335,1.112,1.388-1.06a.139.139,0,0,1,.174,0l1.335,1.126,1.373-1.046a.139.139,0,0,1,.174,0l1.336,1.113,1.388-1.034a.139.139,0,0,1,.173.005l1.322,1.113,1.388-1.034a.139.139,0,0,1,.173.005l1.322,1.113,1.388-1.021a.139.139,0,0,1,.173.006L50.9,63.787l1.387-1.021a.139.139,0,0,1,.173.006L53.786,63.9l1.4-1.034a.139.139,0,0,1,.174.006L56.669,64l1.4-1.021a.139.139,0,0,1,.172.006l1.309,1.113,1.4-1.021a.139.139,0,0,1,.172.006l1.322,1.113,1.388-1.021a.139.139,0,0,1,.173.006L65.329,64.3l1.387-1.034a.14.14,0,0,1,.174.006l1.322,1.139,1.4-1.034a.14.14,0,0,1,.174.007l1.295,1.125,1.4-1.021a.139.139,0,0,1,.172.006l1.322,1.113,1.388-1.021a.139.139,0,0,1,.172.006l1.322,1.113,1.388-1.021a.139.139,0,0,1,.172.006L79.74,64.8l1.4-1.035a.139.139,0,0,1,.173.006L82.636,64.9l1.387-1.047a.139.139,0,0,1,.174.005l1.322,1.126,1.387-1.034a.139.139,0,0,1,.172,0l1.323,1.1,1.43-1.037a.139.139,0,0,1,.168,0l1.378,1.089,1.4-1.05a.139.139,0,0,1,.169,0l1.392,1.077,1.405-1.063a.139.139,0,0,1,.169,0l1.4,1.077,1.391-1.076a.139.139,0,0,1,.169,0l1.4,1.063,1.392-1.09a.139.139,0,0,1,.17,0l1.4,1.063,1.392-1.09a.14.14,0,0,1,.169,0l1.418,1.05,1.378-1.1a.139.139,0,0,1,.17,0l1.418,1.05,1.378-1.1a.139.139,0,0,1,.169,0l1.417,1.037,1.379-1.116a.139.139,0,0,1,.17,0l1.417,1.049,1.378-1.129a.139.139,0,0,1,.17-.005l1.431,1.037,1.365-1.116a.14.14,0,0,1,.169-.005l1.431,1.024,1.366-1.116a.139.139,0,0,1,.169-.005l1.431,1.024,1.366-1.129a.139.139,0,0,1,.17-.006L127,64.471l1.365-1.142a.139.139,0,0,1,.171-.006l1.429,1.036,1.351-1.154a.139.139,0,0,1,.171-.008l1.444,1.024,1.352-1.142a.139.139,0,0,1,.169-.008l1.457,1.011,1.339-1.142a.14.14,0,0,1,.17-.008l1.457,1.011,1.339-1.155a.139.139,0,0,1,.17-.009l1.458,1,1.339-1.142a.139.139,0,0,1,.169-.009l1.457,1,1.339-1.155a.139.139,0,0,1,.17-.009l1.456,1,1.325-1.168a.139.139,0,0,1,.17-.011l1.47.985,1.326-1.168a.139.139,0,0,1,.17-.011l1.47.984,1.326-1.181a.139.139,0,0,1,.169-.012l1.47.971,1.312-1.168a.139.139,0,0,1,.168-.013l1.482.958,1.3-1.207a.139.139,0,0,1,.169-.016l1.5.944,1.272-1.22a.139.139,0,0,1,.193.2l-1.351,1.295a.14.14,0,0,1-.171.017l-1.5-.945-1.3,1.208a.14.14,0,0,1-.17.015l-1.484-.959-1.313,1.169a.139.139,0,0,1-.169.012l-1.47-.971-1.326,1.182a.139.139,0,0,1-.17.012l-1.47-.985-1.326,1.168a.14.14,0,0,1-.17.011l-1.47-.985-1.326,1.168a.139.139,0,0,1-.171.01l-1.457-1L144.908,63.9a.139.139,0,0,1-.17.009l-1.458-1-1.339,1.142a.139.139,0,0,1-.169.009l-1.457-1-1.339,1.155a.139.139,0,0,1-.17.009l-1.457-1.011-1.339,1.142a.139.139,0,0,1-.17.008l-1.458-1.011L133.029,64.5a.139.139,0,0,1-.17.007l-1.443-1.023-1.352,1.155a.139.139,0,0,1-.172.007l-1.43-1.036L127.1,64.754a.139.139,0,0,1-.17.006L125.5,63.737l-1.366,1.129a.139.139,0,0,1-.17.006l-1.431-1.024-1.366,1.116a.139.139,0,0,1-.169.005l-1.431-1.024L118.2,65.061a.139.139,0,0,1-.17,0L116.6,64.029l-1.379,1.129a.139.139,0,0,1-.171,0l-1.417-1.05-1.378,1.116a.139.139,0,0,1-.17,0L110.664,64.2l-1.379,1.1a.14.14,0,0,1-.17,0l-1.418-1.05-1.378,1.1a.139.139,0,0,1-.17,0l-1.419-1.051-1.393,1.09a.139.139,0,0,1-.17,0l-1.4-1.063-1.392,1.09a.139.139,0,0,1-.17,0L98.8,64.363l-1.392,1.077A.139.139,0,0,1,97.321,65.469Z" transform="translate(-7.147 -56)"/><path class="cls-4" d="M94.536,64.452a.139.139,0,0,1-.085-.029l-1.392-1.077-1.4,1.064a.139.139,0,0,1-.17,0l-1.392-1.09-1.419,1.051a.139.139,0,0,1-.171,0l-1.335-1.1-1.374,1.047a.139.139,0,0,1-.174,0l-1.335-1.125L82.9,64.242a.139.139,0,0,1-.174,0l-1.334-1.125-1.373,1.059a.139.139,0,0,1-.175,0L78.5,63.042l-1.387,1.034a.139.139,0,0,1-.173-.005l-1.308-1.1-1.388,1.034a.139.139,0,0,1-.172,0L72.74,62.889l-1.388,1.034a.139.139,0,0,1-.173-.005l-1.322-1.113L68.47,63.84a.139.139,0,0,1-.173-.005l-1.322-1.113-1.387,1.034a.139.139,0,0,1-.173-.005l-1.336-1.126-1.387,1.034a.139.139,0,0,1-.174-.006L61.2,62.527l-1.387,1.034a.139.139,0,0,1-.173-.005l-1.322-1.113-1.388,1.034a.139.139,0,0,1-.173-.006L55.445,62.36l-1.4,1.034a.139.139,0,0,1-.172-.005l-1.322-1.113-1.388,1.034a.139.139,0,0,1-.174-.006L49.667,62.18,48.28,63.226a.139.139,0,0,1-.174-.005L46.784,62.1,45.4,63.129a.139.139,0,0,1-.172,0l-1.336-1.1-1.374,1.034a.14.14,0,0,1-.172,0l-1.336-1.1L39.619,63a.139.139,0,0,1-.172,0l-1.335-1.1-1.374,1.047a.139.139,0,0,1-.173,0l-1.321-1.1-1.374,1.047a.139.139,0,0,1-.172,0L32.349,61.8l-1.361,1.06a.139.139,0,0,1-.172,0l-1.348-1.073-1.362,1.06a.139.139,0,0,1-.171,0l-1.362-1.06-1.349,1.073a.139.139,0,0,1-.171,0l-1.374-1.047-1.335,1.1a.139.139,0,0,1-.172,0l-1.386-1.033-1.308,1.138a.139.139,0,0,1-.171.009l-1.424-.993-1.24,1.188a.14.14,0,0,1-.169.018l-1.03-.627a.139.139,0,0,1,.145-.238l.939.571,1.246-1.193a.139.139,0,0,1,.176-.014l1.429,1,1.311-1.14a.139.139,0,0,1,.175-.007l1.388,1.035,1.336-1.1a.139.139,0,0,1,.173,0l1.376,1.048L26.485,61.5a.139.139,0,0,1,.172,0l1.363,1.061L29.382,61.5a.139.139,0,0,1,.172,0L30.9,62.576l1.362-1.061a.139.139,0,0,1,.173,0L33.787,62.6l1.375-1.048a.139.139,0,0,1,.173,0l1.321,1.1,1.374-1.047a.139.139,0,0,1,.173,0l1.336,1.1,1.388-1.048a.139.139,0,0,1,.172,0l1.336,1.1,1.374-1.034a.139.139,0,0,1,.172,0l1.336,1.1,1.388-1.035a.139.139,0,0,1,.174.006L48.2,62.937l1.387-1.047a.139.139,0,0,1,.174.005l1.322,1.126,1.387-1.034a.139.139,0,0,1,.173.005l1.322,1.113,1.4-1.035a.14.14,0,0,1,.173.006l1.308,1.112,1.387-1.034a.139.139,0,0,1,.173.005l1.322,1.113,1.387-1.034a.139.139,0,0,1,.174.006l1.322,1.126L64,62.335a.139.139,0,0,1,.173.005l1.336,1.126L66.9,62.433a.139.139,0,0,1,.173.005l1.322,1.113,1.388-1.034a.139.139,0,0,1,.173.005l1.322,1.113L72.662,62.6a.14.14,0,0,1,.172,0l1.336,1.113,1.388-1.034a.139.139,0,0,1,.173.005l1.308,1.1,1.388-1.034a.139.139,0,0,1,.173.005l1.334,1.125,1.373-1.059a.139.139,0,0,1,.175,0l1.335,1.125,1.387-1.06a.139.139,0,0,1,.174,0l1.335,1.126,1.373-1.046a.139.139,0,0,1,.173,0l1.336,1.1,1.416-1.049a.139.139,0,0,1,.169,0l1.392,1.09,1.4-1.063a.139.139,0,0,1,.169,0l1.392,1.077,1.4-1.064a.139.139,0,0,1,.169,0L97.5,64.137l1.405-1.077a.139.139,0,0,1,.169,0l1.4,1.063,1.392-1.09a.139.139,0,0,1,.17,0l1.4,1.063,1.392-1.09a.14.14,0,0,1,.169,0l1.418,1.05,1.378-1.1a.139.139,0,0,1,.17,0L109.39,64l1.378-1.116a.139.139,0,0,1,.171,0l1.416,1.062,1.378-1.128a.14.14,0,0,1,.171,0l1.417,1.05,1.378-1.116a.139.139,0,0,1,.169,0l1.431,1.024,1.366-1.116a.139.139,0,0,1,.17,0l1.431,1.037,1.365-1.129a.14.14,0,0,1,.171-.005l1.431,1.037,1.365-1.129a.14.14,0,0,1,.169-.006l1.444,1.024,1.352-1.142a.14.14,0,0,1,.17-.008l1.444,1.011,1.352-1.129a.139.139,0,0,1,.169-.007l1.444,1.011,1.352-1.129a.139.139,0,0,1,.169-.008l1.457,1.011,1.338-1.155a.139.139,0,0,1,.17-.009l1.457,1.011,1.339-1.155a.139.139,0,0,1,.169-.01l1.471,1,1.326-1.142a.139.139,0,0,1,.169-.01l1.47,1,1.311-1.167a.139.139,0,0,1,.17-.011l1.484,1,1.312-1.167a.139.139,0,0,1,.17-.012l1.484.985,1.326-1.169a.139.139,0,0,1,.169-.012l1.47.971,1.312-1.181a.139.139,0,0,1,.169-.013l1.484.959L158.2,60.6a.139.139,0,0,1,.169-.013l1.482.958,1.3-1.207a.139.139,0,0,1,.168-.016l1.5.931,1.272-1.22a.139.139,0,0,1,.193.2l-1.351,1.295a.139.139,0,0,1-.17.018l-1.5-.932-1.3,1.209a.139.139,0,0,1-.17.015l-1.484-.959L157,62.063a.14.14,0,0,1-.169.013l-1.484-.959L154.03,62.3a.139.139,0,0,1-.17.013l-1.471-.972-1.326,1.169a.139.139,0,0,1-.169.011l-1.484-.985L148.1,62.7a.139.139,0,0,1-.17.011l-1.484-1-1.312,1.167a.139.139,0,0,1-.171.011l-1.471-1-1.326,1.142a.139.139,0,0,1-.169.01l-1.471-1-1.34,1.156a.139.139,0,0,1-.17.009l-1.457-1.011-1.338,1.155a.14.14,0,0,1-.17.009l-1.459-1.012-1.353,1.13a.139.139,0,0,1-.169.007l-1.444-1.011-1.352,1.129a.139.139,0,0,1-.169.007l-1.444-1.011-1.352,1.142a.139.139,0,0,1-.17.007l-1.445-1.024-1.366,1.13a.139.139,0,0,1-.171.005l-1.431-1.037-1.365,1.129a.139.139,0,0,1-.171.005l-1.431-1.037-1.365,1.116a.14.14,0,0,1-.169.005l-1.432-1.024-1.38,1.117a.139.139,0,0,1-.17,0L113.826,63.1l-1.378,1.129a.139.139,0,0,1-.172,0l-1.417-1.063-1.378,1.115a.14.14,0,0,1-.17,0l-1.418-1.05-1.378,1.1a.139.139,0,0,1-.17,0l-1.419-1.051-1.392,1.09a.139.139,0,0,1-.17,0l-1.4-1.063-1.392,1.09a.139.139,0,0,1-.17,0l-1.405-1.064-1.406,1.077a.139.139,0,0,1-.169,0L96.026,63.36,94.62,64.424A.139.139,0,0,1,94.536,64.452Z" transform="translate(-7.147 -56)"/><path class="cls-4" d="M94.731,63.463a.139.139,0,0,1-.085-.029l-1.405-1.09-1.4,1.076a.14.14,0,0,1-.171,0l-1.392-1.09-1.4,1.05a.139.139,0,0,1-.171,0L87.349,62.29l-1.375,1.061a.14.14,0,0,1-.174,0l-1.321-1.1L83.105,63.3a.139.139,0,0,1-.172,0l-1.349-1.1-1.375,1.06a.139.139,0,0,1-.174,0L78.7,62.138,77.313,63.2a.139.139,0,0,1-.174,0L75.8,62.081,74.43,63.115a.14.14,0,0,1-.172,0l-1.336-1.1-1.388,1.048a.139.139,0,0,1-.173,0l-1.335-1.113-1.374,1.047a.139.139,0,0,1-.174,0l-1.335-1.113L65.755,62.92a.139.139,0,0,1-.174-.005L64.274,61.8,62.887,62.85a.139.139,0,0,1-.174,0L61.378,61.72,59.99,62.767a.14.14,0,0,1-.174,0L58.5,61.65,57.108,62.7a.14.14,0,0,1-.174,0L55.6,61.567l-1.373,1.046a.139.139,0,0,1-.174,0L52.717,61.5,51.33,62.544a.139.139,0,0,1-.174,0l-1.321-1.112-1.387,1.047a.139.139,0,0,1-.173,0l-1.335-1.113L45.565,62.4a.139.139,0,0,1-.173,0l-1.335-1.1-1.388,1.048a.139.139,0,0,1-.174-.005l-1.32-1.124L39.8,62.292a.139.139,0,0,1-.175,0l-1.335-1.112-1.374,1.06a.139.139,0,0,1-.173,0l-1.348-1.1-1.361,1.06a.139.139,0,0,1-.174,0l-1.348-1.1L31.142,62.18a.139.139,0,0,1-.174,0l-1.347-1.1-1.36,1.086a.139.139,0,0,1-.173,0l-1.36-1.073-1.348,1.1a.139.139,0,0,1-.174,0l-1.373-1.072-1.32,1.124a.139.139,0,0,1-.174.005l-1.385-1.046-1.307,1.15a.139.139,0,0,1-.172.01l-1.425-.993L16.8,62.562a.139.139,0,0,1-.169.018l-1.017-.627a.139.139,0,0,1,.146-.237l.925.57,1.259-1.193a.139.139,0,0,1,.175-.013l1.428,1,1.31-1.153a.139.139,0,0,1,.176-.007l1.387,1.047,1.321-1.125a.139.139,0,0,1,.176,0l1.374,1.073,1.348-1.1a.139.139,0,0,1,.174,0l1.361,1.073,1.362-1.087a.139.139,0,0,1,.175,0l1.348,1.1,1.374-1.086a.14.14,0,0,1,.174,0l1.348,1.1,1.361-1.06a.139.139,0,0,1,.174,0l1.349,1.1,1.375-1.06a.139.139,0,0,1,.174,0L39.719,62l1.374-1.073a.139.139,0,0,1,.176,0L42.59,62.06l1.387-1.047a.139.139,0,0,1,.172,0l1.335,1.1,1.374-1.047a.139.139,0,0,1,.174,0l1.335,1.113,1.388-1.047a.139.139,0,0,1,.174,0l1.321,1.112,1.387-1.047a.139.139,0,0,1,.173,0l1.335,1.113,1.374-1.047a.139.139,0,0,1,.174,0l1.335,1.126,1.387-1.047a.139.139,0,0,1,.174,0l1.321,1.112L61.3,61.431a.139.139,0,0,1,.174,0l1.335,1.126,1.387-1.047a.139.139,0,0,1,.174.005l1.307,1.111,1.387-1.047a.139.139,0,0,1,.173,0L68.571,62.7l1.374-1.047a.139.139,0,0,1,.174,0l1.335,1.113,1.388-1.047a.139.139,0,0,1,.172,0l1.336,1.1,1.374-1.034a.139.139,0,0,1,.173,0l1.335,1.112,1.388-1.06a.139.139,0,0,1,.174,0l1.335,1.112,1.374-1.06a.139.139,0,0,1,.173,0l1.349,1.1L84.4,61.96a.139.139,0,0,1,.173,0l1.321,1.1L87.266,62a.139.139,0,0,1,.172,0l1.35,1.088,1.4-1.049a.139.139,0,0,1,.169,0l1.391,1.089,1.4-1.076a.139.139,0,0,1,.17,0l1.4,1.09,1.391-1.076a.139.139,0,0,1,.17,0l1.4,1.076,1.391-1.089a.139.139,0,0,1,.17,0l1.432,1.078,1.392-1.09a.139.139,0,0,1,.17,0l1.4,1.063,1.391-1.1a.139.139,0,0,1,.171,0l1.4,1.063,1.391-1.1a.139.139,0,0,1,.169,0l1.417,1.05,1.378-1.116a.139.139,0,0,1,.171,0l1.416,1.062,1.378-1.128a.139.139,0,0,1,.171,0l1.431,1.05,1.365-1.115a.139.139,0,0,1,.17,0l1.431,1.037,1.365-1.129a.139.139,0,0,1,.171-.005l1.431,1.037,1.365-1.129a.139.139,0,0,1,.17-.006l1.444,1.037,1.351-1.128a.139.139,0,0,1,.17-.007l1.444,1.024,1.366-1.143a.14.14,0,0,1,.17-.007l1.431,1.011,1.366-1.13a.14.14,0,0,1,.169-.007l1.444,1.011,1.352-1.142a.139.139,0,0,1,.17-.008l1.443,1.01,1.352-1.155a.139.139,0,0,1,.171-.008l1.456,1.023,1.338-1.167a.139.139,0,0,1,.17-.01l1.457,1,1.339-1.155a.139.139,0,0,1,.17-.009l1.456,1,1.325-1.168a.139.139,0,0,1,.17-.011l1.47,1,1.325-1.181a.139.139,0,0,1,.17-.012l1.47.984,1.326-1.181a.139.139,0,0,1,.169-.012l1.469.971,1.312-1.194a.139.139,0,0,1,.169-.014l1.483.958,1.3-1.194a.14.14,0,0,1,.169-.015l1.5.958,1.285-1.22a.139.139,0,0,1,.168-.018l1.509.918,1.259-1.233a.139.139,0,1,1,.195.2l-1.337,1.309a.139.139,0,0,1-.17.019l-1.51-.919-1.287,1.222a.139.139,0,0,1-.171.016l-1.5-.959L157.206,61a.14.14,0,0,1-.17.014l-1.483-.958-1.313,1.195a.139.139,0,0,1-.17.013L152.6,60.3l-1.326,1.182a.139.139,0,0,1-.17.012l-1.47-.984-1.326,1.181a.139.139,0,0,1-.171.011l-1.47-1-1.325,1.168a.139.139,0,0,1-.171.01l-1.457-1-1.339,1.155a.139.139,0,0,1-.17.009l-1.457-1-1.339,1.168a.139.139,0,0,1-.172.009L137.779,61.2l-1.352,1.155a.139.139,0,0,1-.17.008l-1.444-1.011L133.461,62.5a.139.139,0,0,1-.17.008l-1.445-1.011-1.366,1.13a.139.139,0,0,1-.169.006l-1.43-1.01-1.366,1.143a.139.139,0,0,1-.17.007L125.9,61.745l-1.352,1.129a.139.139,0,0,1-.17.006l-1.445-1.037-1.365,1.129a.139.139,0,0,1-.171.005l-1.431-1.037L118.6,63.069a.139.139,0,0,1-.171.005L117,62.038l-1.365,1.116a.139.139,0,0,1-.171,0l-1.431-1.05-1.378,1.129a.139.139,0,0,1-.172,0l-1.417-1.063-1.378,1.115a.139.139,0,0,1-.17,0l-1.418-1.05-1.392,1.1a.139.139,0,0,1-.171,0l-1.4-1.063-1.391,1.1a.139.139,0,0,1-.171,0l-1.4-1.063-1.392,1.09a.139.139,0,0,1-.17,0l-1.432-1.078-1.392,1.09a.139.139,0,0,1-.171,0l-1.4-1.077-1.391,1.076A.139.139,0,0,1,94.731,63.463Z" transform="translate(-7.147 -56)"/><path class="cls-4" d="M94.926,62.461a.139.139,0,0,1-.085-.029l-1.392-1.077-1.4,1.064a.139.139,0,0,1-.169,0l-1.392-1.077-1.419,1.064a.139.139,0,0,1-.171,0l-1.348-1.087-1.361,1.06a.139.139,0,0,1-.173,0l-1.349-1.087-1.375,1.061a.139.139,0,0,1-.172,0l-1.349-1.087L80.39,62.307a.139.139,0,0,1-.172,0l-1.349-1.1-1.375,1.06a.139.139,0,0,1-.174,0l-1.335-1.1-1.374,1.06a.14.14,0,0,1-.174,0L73.09,61.108l-1.36,1.059a.139.139,0,0,1-.175,0l-1.334-1.112-1.374,1.06a.139.139,0,0,1-.173,0l-1.349-1.1L65.95,62.056a.139.139,0,0,1-.173,0l-1.336-1.1-1.388,1.035a.139.139,0,0,1-.172,0l-1.335-1.1-1.374,1.047a.139.139,0,0,1-.173,0l-1.336-1.1-1.388,1.048a.139.139,0,0,1-.172,0l-1.335-1.1L54.393,61.82a.139.139,0,0,1-.174,0L52.885,60.7,51.511,61.75a.139.139,0,0,1-.174,0L50,60.634l-1.374,1.06a.139.139,0,0,1-.174,0L47.12,60.578l-1.374,1.047a.139.139,0,0,1-.172,0l-1.349-1.087L42.85,61.583a.139.139,0,0,1-.173,0l-1.335-1.1-1.374,1.06a.139.139,0,0,1-.173,0l-1.349-1.1L37.072,61.5a.139.139,0,0,1-.173,0l-1.335-1.086L34.19,61.471a.139.139,0,0,1-.172,0L32.67,60.383l-1.361,1.073a.139.139,0,0,1-.172,0l-1.361-1.073-1.348,1.073a.139.139,0,0,1-.172,0L26.894,60.4l-1.348,1.086a.139.139,0,0,1-.172,0L24,60.439l-1.321,1.112a.139.139,0,0,1-.172.006l-1.4-1.02L19.8,61.688a.139.139,0,0,1-.172.01L18.2,60.705l-1.24,1.2a.139.139,0,0,1-.169.019l-1.03-.627a.139.139,0,1,1,.145-.238l.938.571,1.246-1.206a.139.139,0,0,1,.177-.014l1.428,1,1.31-1.153a.139.139,0,0,1,.174-.008l1.4,1.022,1.323-1.113a.139.139,0,0,1,.174,0L25.455,61.2,26.8,60.111a.139.139,0,0,1,.173,0l1.362,1.06L29.688,60.1a.14.14,0,0,1,.173,0l1.362,1.074L32.584,60.1a.139.139,0,0,1,.174,0l1.349,1.087,1.375-1.061a.139.139,0,0,1,.173,0l1.335,1.086,1.375-1.06a.139.139,0,0,1,.173,0l1.349,1.1,1.375-1.06a.139.139,0,0,1,.174,0l1.335,1.1,1.374-1.047a.139.139,0,0,1,.172,0l1.349,1.087,1.375-1.048a.139.139,0,0,1,.174,0l1.335,1.112,1.374-1.06a.139.139,0,0,1,.174,0l1.335,1.113L52.8,60.415a.139.139,0,0,1,.174,0l1.335,1.113,1.374-1.047a.139.139,0,0,1,.173,0l1.336,1.1,1.388-1.048a.139.139,0,0,1,.172,0l1.335,1.1L61.465,60.6a.139.139,0,0,1,.173,0l1.336,1.1,1.388-1.035a.139.139,0,0,1,.172,0l1.335,1.1,1.374-1.047a.139.139,0,0,1,.172,0l1.349,1.1,1.375-1.06a.139.139,0,0,1,.174,0l1.334,1.112,1.36-1.059a.139.139,0,0,1,.174,0l1.348,1.113,1.374-1.06a.139.139,0,0,1,.174,0l1.335,1.1,1.374-1.06a.139.139,0,0,1,.173,0l1.349,1.1,1.375-1.047a.139.139,0,0,1,.172,0L83.2,62.061,84.579,61a.139.139,0,0,1,.172,0L86.1,62.088l1.361-1.06a.14.14,0,0,1,.173,0l1.35,1.088L90.4,61.055a.139.139,0,0,1,.169,0l1.392,1.077,1.4-1.064a.139.139,0,0,1,.169,0l1.391,1.076,1.4-1.076a.139.139,0,0,1,.169,0l1.4,1.064L99.3,61.056a.139.139,0,0,1,.169,0l1.4,1.063,1.392-1.09a.139.139,0,0,1,.169,0l1.418,1.063,1.378-1.1a.139.139,0,0,1,.171,0l1.418,1.063,1.392-1.116a.139.139,0,0,1,.171,0l1.417,1.063,1.378-1.115a.14.14,0,0,1,.171,0l1.417,1.063,1.378-1.115a.139.139,0,0,1,.169,0l1.431,1.037,1.365-1.116a.139.139,0,0,1,.17,0L118.7,61.77l1.365-1.116a.139.139,0,0,1,.169-.005l1.445,1.037,1.365-1.129a.139.139,0,0,1,.171-.005l1.43,1.036,1.365-1.142a.139.139,0,0,1,.171-.006l1.444,1.037,1.351-1.141a.14.14,0,0,1,.17-.008l1.444,1.011,1.352-1.129a.139.139,0,0,1,.169-.007l1.444,1.011,1.352-1.142a.14.14,0,0,1,.169-.008l1.456,1.01,1.338-1.168a.14.14,0,0,1,.172-.009L139.5,60.92l1.338-1.167a.139.139,0,0,1,.17-.01l1.471,1,1.326-1.155a.139.139,0,0,1,.169-.011l1.47.985,1.326-1.168a.139.139,0,0,1,.168-.012l1.484.972,1.313-1.168a.139.139,0,0,1,.17-.012l1.483.984,1.3-1.193a.139.139,0,0,1,.17-.014l1.5.972,1.3-1.194a.14.14,0,0,1,.169-.015l1.5.945,1.286-1.207a.139.139,0,0,1,.169-.017l1.51.945,1.272-1.207a.139.139,0,0,1,.168-.018l1.522.918,1.246-1.246a.139.139,0,0,1,.2.2l-1.323,1.323a.139.139,0,0,1-.17.021l-1.524-.92L160.4,59.652a.139.139,0,0,1-.17.017l-1.51-.946-1.286,1.208a.139.139,0,0,1-.17.016l-1.5-.946-1.3,1.195a.14.14,0,0,1-.17.014l-1.5-.972-1.3,1.194a.139.139,0,0,1-.171.013l-1.484-.985-1.312,1.168a.139.139,0,0,1-.169.012l-1.485-.972-1.327,1.169a.139.139,0,0,1-.17.011l-1.471-.985-1.326,1.155a.139.139,0,0,1-.17.01l-1.471-1L139.6,61.2a.139.139,0,0,1-.172.009l-1.456-1.023-1.338,1.167a.139.139,0,0,1-.171.01l-1.458-1.011L133.656,61.5a.139.139,0,0,1-.17.008l-1.444-1.011-1.352,1.129a.139.139,0,0,1-.169.007l-1.444-1.011-1.352,1.142a.139.139,0,0,1-.171.007l-1.444-1.037-1.365,1.142a.139.139,0,0,1-.171.006l-1.431-1.037-1.365,1.129a.139.139,0,0,1-.17.006l-1.445-1.038L118.8,62.054a.139.139,0,0,1-.17,0L117.2,61.021l-1.365,1.116a.139.139,0,0,1-.17,0L114.23,61.1l-1.379,1.116a.139.139,0,0,1-.171,0l-1.417-1.063-1.378,1.115a.139.139,0,0,1-.171,0L108.3,61.217,106.9,62.333a.139.139,0,0,1-.171,0l-1.418-1.063-1.378,1.1a.139.139,0,0,1-.171,0l-1.419-1.064-1.392,1.09a.139.139,0,0,1-.17,0l-1.405-1.064-1.392,1.077a.139.139,0,0,1-.169,0l-1.405-1.064-1.406,1.077A.139.139,0,0,1,94.926,62.461Z" transform="translate(-7.147 -56)"/><path class="cls-4" d="M92.141,61.458a.139.139,0,0,1-.085-.029l-1.392-1.077-1.4,1.064a.139.139,0,0,1-.17,0L87.727,60.34,86.365,61.4a.139.139,0,0,1-.172,0l-1.349-1.074-1.376,1.061a.139.139,0,0,1-.172,0L81.947,60.3,80.572,61.36a.139.139,0,0,1-.172,0l-1.334-1.073L77.7,61.345a.139.139,0,0,1-.174,0l-1.348-1.112L74.808,61.3a.139.139,0,0,1-.174,0l-1.348-1.1-1.374,1.073a.139.139,0,0,1-.174,0l-1.348-1.112-1.374,1.073a.139.139,0,0,1-.175,0l-1.334-1.112-1.373,1.073a.139.139,0,0,1-.174,0L64.61,60.077l-1.374,1.06a.139.139,0,0,1-.174,0l-1.335-1.1L60.339,61.1a.139.139,0,0,1-.174,0l-1.321-1.1L57.471,61.04a.139.139,0,0,1-.172,0L55.95,59.95,54.574,61a.139.139,0,0,1-.173,0l-1.335-1.1-1.374,1.06a.139.139,0,0,1-.173,0l-1.349-1.1L48.8,60.914a.139.139,0,0,1-.174,0l-1.335-1.1-1.374,1.06a.139.139,0,0,1-.173,0l-1.349-1.1-1.375,1.06a.139.139,0,0,1-.173,0l-1.348-1.1L40.137,60.8a.139.139,0,0,1-.174,0l-1.348-1.1L37.24,60.774a.139.139,0,0,1-.174,0l-1.333-1.1-1.36,1.085a.139.139,0,0,1-.174,0l-1.361-1.1-1.361,1.086a.139.139,0,0,1-.173,0l-1.361-1.073-1.348,1.086a.139.139,0,0,1-.173,0l-1.374-1.073L25.714,60.8a.139.139,0,0,1-.174,0l-1.387-1.06-1.321,1.125a.139.139,0,0,1-.172.007l-1.4-1.02-1.295,1.151a.14.14,0,0,1-.171.011l-1.437-.98-1.227,1.2a.139.139,0,0,1-.169.02l-1.044-.627a.139.139,0,1,1,.143-.239l.952.571,1.232-1.206a.139.139,0,0,1,.176-.016l1.442.983,1.3-1.153a.139.139,0,0,1,.175-.008l1.4,1.021,1.323-1.126a.139.139,0,0,1,.175,0l1.388,1.06L26.956,59.4a.139.139,0,0,1,.175,0l1.375,1.074,1.348-1.086a.139.139,0,0,1,.174,0l1.361,1.073,1.362-1.087a.139.139,0,0,1,.174,0l1.361,1.1,1.361-1.086a.139.139,0,0,1,.175,0l1.334,1.1,1.374-1.073a.139.139,0,0,1,.174,0l1.348,1.1,1.36-1.073a.139.139,0,0,1,.174,0l1.349,1.1,1.375-1.06a.139.139,0,0,1,.173,0l1.349,1.1,1.375-1.06a.139.139,0,0,1,.174,0l1.335,1.1,1.374-1.06a.139.139,0,0,1,.173,0l1.349,1.1,1.375-1.06a.139.139,0,0,1,.174,0l1.335,1.1,1.374-1.047a.139.139,0,0,1,.172,0l1.349,1.087L58.764,59.7a.139.139,0,0,1,.173,0l1.321,1.1,1.388-1.06a.139.139,0,0,1,.173,0l1.335,1.1,1.374-1.06a.139.139,0,0,1,.174,0L66.05,60.9l1.374-1.073a.139.139,0,0,1,.175,0l1.334,1.112,1.373-1.073a.139.139,0,0,1,.174,0l1.348,1.112L73.2,59.914a.139.139,0,0,1,.174,0l1.348,1.1L76.1,59.942a.139.139,0,0,1,.174,0l1.348,1.113L78.981,60a.14.14,0,0,1,.173,0l1.335,1.073,1.375-1.061a.139.139,0,0,1,.172,0L83.385,61.1l1.375-1.061a.139.139,0,0,1,.172,0l1.348,1.073,1.362-1.061a.139.139,0,0,1,.172,0l1.364,1.075,1.4-1.063a.139.139,0,0,1,.169,0l1.391,1.076,1.4-1.077a.14.14,0,0,1,.169,0l1.4,1.076,1.391-1.089a.139.139,0,0,1,.171,0l1.4,1.076,1.405-1.09a.139.139,0,0,1,.169,0l1.4,1.063,1.392-1.09a.139.139,0,0,1,.169,0l1.418,1.063,1.378-1.089a.139.139,0,0,1,.169,0l1.418,1.05,1.392-1.116a.14.14,0,0,1,.171,0l1.417,1.076,1.377-1.115a.139.139,0,0,1,.171,0l1.417,1.05,1.378-1.116a.139.139,0,0,1,.169,0l1.445,1.038,1.351-1.1a.139.139,0,0,1,.169-.005l1.445,1.038,1.38-1.117a.139.139,0,0,1,.169-.005l1.431,1.024,1.366-1.116a.139.139,0,0,1,.169-.006l1.444,1.024,1.352-1.129a.139.139,0,0,1,.17-.006l1.443,1.037,1.365-1.155a.139.139,0,0,1,.17-.007l1.444,1.024,1.352-1.142a.139.139,0,0,1,.17-.008l1.444,1.011,1.353-1.129a.139.139,0,0,1,.168-.008l1.457,1L138.1,58.9a.139.139,0,0,1,.17-.009l1.457,1,1.339-1.155a.139.139,0,0,1,.17-.009l1.457,1,1.339-1.168a.139.139,0,0,1,.169-.011l1.47.984,1.326-1.181a.139.139,0,0,1,.17-.012l1.47.984,1.326-1.181a.139.139,0,0,1,.169-.012l1.469.971,1.312-1.194a.139.139,0,0,1,.169-.014l1.484.958,1.313-1.195a.139.139,0,0,1,.168-.014l1.483.945,1.3-1.208a.139.139,0,0,1,.168-.016l1.5.932,1.287-1.221a.139.139,0,0,1,.168-.018l1.509.918,1.26-1.233a.139.139,0,1,1,.195.2l-1.337,1.309a.139.139,0,0,1-.17.019l-1.51-.919-1.287,1.222a.14.14,0,0,1-.169.017l-1.5-.932-1.3,1.209a.139.139,0,0,1-.17.015l-1.484-.945-1.314,1.2a.139.139,0,0,1-.169.014l-1.484-.958-1.313,1.195a.139.139,0,0,1-.171.013l-1.47-.971L148.739,59.6a.139.139,0,0,1-.17.012l-1.47-.984-1.326,1.181a.139.139,0,0,1-.17.012l-1.471-.985L142.792,60a.139.139,0,0,1-.17.01l-1.457-1-1.339,1.155a.14.14,0,0,1-.17.009l-1.457-1-1.339,1.155a.139.139,0,0,1-.17.009l-1.459-1-1.353,1.13a.139.139,0,0,1-.169.007l-1.444-1.011-1.352,1.142a.139.139,0,0,1-.17.007L129.3,59.6l-1.366,1.156a.139.139,0,0,1-.171.007l-1.444-1.037-1.351,1.128a.139.139,0,0,1-.17.007l-1.445-1.025-1.366,1.116a.139.139,0,0,1-.169.005l-1.432-1.024-1.38,1.117a.139.139,0,0,1-.169,0l-1.445-1.038-1.352,1.1a.139.139,0,0,1-.169.005l-1.445-1.038-1.38,1.117a.139.139,0,0,1-.17,0l-1.417-1.05-1.378,1.116a.139.139,0,0,1-.172,0L108.491,60.2,107.1,61.316a.14.14,0,0,1-.17,0l-1.418-1.051-1.378,1.09a.139.139,0,0,1-.17,0L102.545,60.3l-1.392,1.09a.139.139,0,0,1-.17,0l-1.4-1.063-1.406,1.09a.139.139,0,0,1-.17,0l-1.4-1.076-1.391,1.089a.14.14,0,0,1-.171,0l-1.405-1.077L92.226,61.43A.139.139,0,0,1,92.141,61.458Z" transform="translate(-7.147 -56)"/></g><path id="INSIDE-DOWN" class="cls-5" d="M7.294,121.07l.132-3.4a463.981,463.981,0,0,0,59,9.037c33.279,2.938,73.423,6.224,99.656,4.317l-.62,6.545s-15.95.543-44.132-1.184c-15.929-.989-55.725-5.5-82.613-9.469C18.106,123.895,7.294,121.07,7.294,121.07Z" transform="translate(-7.147 -56)"/><path id="INSIDE-RIGHT" class="cls-6" d="M164.282,60.881,163.3,65.9c11.529,1.128,27.852,48.652,2.775,65.125l-.619,6.545s18.778-6.016,17.469-38.069C181.647,68.226,164.282,60.881,164.282,60.881Z" transform="translate(-7.147 -56)"/><path id="INSIDE-UP" class="cls-7" d="M15.181,62.461c14.662-2.59,94.226,5.035,149.1-1.58l-.974,5.019s-54.5,3.537-75.525,2.395S24.4,64.229,14.4,65.761Z" transform="translate(-7.147 -56)"/></g></svg>