<svg id="Layer_1" data-name="Layer 1" xmlns="http://www.w3.org/2000/svg" xmlns:xlink="http://www.w3.org/1999/xlink" viewBox="0 0 125.679 97.474"><defs><style>.cls-1{opacity:0.8;}.cls-2{fill:#6b294b;}.cls-3{fill:url(#radial-gradient);}.cls-4{fill:url(#radial-gradient-2);}.cls-5{fill:url(#radial-gradient-3);}.cls-6{fill:url(#radial-gradient-4);}.cls-54,.cls-7{stroke-miterlimit:10;}.cls-7{fill:url(#radial-gradient-5);stroke:url(#linear-gradient);}.cls-8{fill:url(#radial-gradient-6);}.cls-9{fill:url(#radial-gradient-7);}.cls-10{fill:url(#radial-gradient-8);}.cls-11{fill:url(#radial-gradient-9);}.cls-12{fill:url(#radial-gradient-10);}.cls-13{fill:url(#radial-gradient-11);}.cls-14{fill:url(#radial-gradient-12);}.cls-15{fill:url(#radial-gradient-13);}.cls-16{fill:url(#radial-gradient-14);}.cls-17{fill:url(#radial-gradient-15);}.cls-18{fill:url(#radial-gradient-16);}.cls-19{fill:url(#radial-gradient-17);}.cls-20{fill:url(#radial-gradient-18);}.cls-21{fill:url(#radial-gradient-19);}.cls-22{fill:url(#radial-gradient-20);}.cls-23{fill:url(#radial-gradient-21);}.cls-24{fill:url(#radial-gradient-22);}.cls-25{fill:url(#radial-gradient-24);}.cls-26{fill:url(#radial-gradient-25);}.cls-27{fill:url(#radial-gradient-26);}.cls-28{fill:url(#radial-gradient-27);}.cls-29{fill:url(#radial-gradient-28);}.cls-30{fill:url(#radial-gradient-29);}.cls-31{fill:url(#radial-gradient-30);}.cls-32{fill:url(#radial-gradient-31);}.cls-33{fill:url(#radial-gradient-32);}.cls-34{fill:url(#radial-gradient-33);}.cls-35{fill:url(#radial-gradient-34);}.cls-36{fill:url(#radial-gradient-35);}.cls-37{fill:url(#radial-gradient-36);}.cls-38{fill:url(#radial-gradient-37);}.cls-39{fill:url(#radial-gradient-38);}.cls-40{fill:url(#radial-gradient-39);}.cls-41{fill:url(#radial-gradient-40);}.cls-42{fill:url(#radial-gradient-41);}.cls-43{fill:url(#radial-gradient-42);}.cls-44{fill:url(#radial-gradient-43);}.cls-45{fill:url(#radial-gradient-44);}.cls-46{fill:url(#radial-gradient-45);}.cls-47{fill:url(#radial-gradient-46);}.cls-48{fill:url(#radial-gradient-47);}.cls-49{fill:url(#radial-gradient-48);}.cls-50{fill:url(#radial-gradient-49);}.cls-51{fill:url(#radial-gradient-50);}.cls-52{fill:url(#radial-gradient-51);}.cls-53{fill:url(#radial-gradient-52);}.cls-54{fill:url(#radial-gradient-53);stroke:url(#linear-gradient-2);}.cls-55{fill:url(#radial-gradient-54);}.cls-56{fill:url(#radial-gradient-55);}.cls-57{fill:url(#radial-gradient-56);}.cls-58{fill:url(#radial-gradient-57);}.cls-59{fill:url(#radial-gradient-58);}.cls-60{fill:url(#radial-gradient-59);}.cls-61{fill:url(#radial-gradient-60);}.cls-62{fill:url(#radial-gradient-61);}.cls-63{fill:url(#radial-gradient-62);}.cls-64{fill:url(#radial-gradient-63);}.cls-65{fill:url(#radial-gradient-64);}.cls-66{fill:url(#radial-gradient-65);}.cls-67{fill:url(#radial-gradient-66);}.cls-68{fill:url(#radial-gradient-67);}.cls-69{fill:url(#radial-gradient-68);}.cls-70{fill:url(#radial-gradient-69);}.cls-71{fill:url(#radial-gradient-70);}.cls-72{fill:url(#radial-gradient-72);}.cls-73{fill:url(#radial-gradient-73);}.cls-74{fill:url(#radial-gradient-74);}.cls-75{fill:url(#radial-gradient-75);}.cls-76{fill:url(#radial-gradient-76);}.cls-77{fill:url(#radial-gradient-77);}.cls-78{fill:url(#radial-gradient-78);}.cls-79{fill:url(#radial-gradient-79);}.cls-80{fill:url(#radial-gradient-80);}.cls-81{fill:url(#radial-gradient-81);}.cls-82{fill:url(#radial-gradient-82);}.cls-83{fill:url(#radial-gradient-83);}.cls-84{fill:url(#radial-gradient-84);}.cls-85{fill:url(#radial-gradient-85);}.cls-86{fill:url(#radial-gradient-86);}.cls-87{fill:url(#radial-gradient-87);}.cls-88{fill:url(#radial-gradient-88);}.cls-89{fill:url(#radial-gradient-89);}.cls-90{fill:url(#radial-gradient-90);}.cls-91{fill:url(#radial-gradient-91);}.cls-92{fill:url(#radial-gradient-92);}.cls-93{fill:url(#radial-gradient-93);}.cls-94{fill:url(#radial-gradient-94);}.cls-95{fill:url(#radial-gradient-95);}.cls-96{fill:url(#radial-gradient-96);}</style><radialGradient id="radial-gradient" cx="-271.336" cy="-311.871" r="16.097" gradientTransform="matrix(0.953, 0.236, -0.299, 0.667, 229.491, 399.776)" gradientUnits="userSpaceOnUse"><stop offset="0" stop-color="#cc629c"/><stop offset="0.999" stop-color="#6b294b"/></radialGradient><radialGradient id="radial-gradient-2" cx="70.862" cy="-367.637" r="15.884" gradientTransform="matrix(0.878, -0.116, 0.146, 0.467, 47.435, 288.8)" xlink:href="#radial-gradient"/><radialGradient id="radial-gradient-3" cx="-120.73" cy="-596.68" r="16.393" gradientTransform="matrix(0.895, 0.083, -0.064, 0.471, 125.18, 385.634)" xlink:href="#radial-gradient"/><radialGradient id="radial-gradient-4" cx="-294.661" cy="-386.153" r="15.842" xlink:href="#radial-gradient"/><radialGradient id="radial-gradient-5" cx="15.653" cy="-37.714" r="24.228" gradientTransform="matrix(0.999, 0.033, -0.017, 0.499, 50.431, 75.816)" gradientUnits="userSpaceOnUse"><stop offset="0" stop-color="#ffbe79"/><stop offset="0.999" stop-color="#854f17"/></radialGradient><linearGradient id="linear-gradient" x1="25.284" y1="-43.816" x2="13.291" y2="-23.044" gradientTransform="matrix(0.967, -0.256, 0.256, 0.967, 61.212, 97.986)" xlink:href="#radial-gradient-5"/><radialGradient id="radial-gradient-6" cx="-104.235" cy="-141.306" r="3.496" gradientTransform="translate(-83.045 167.077) rotate(90)" gradientUnits="userSpaceOnUse"><stop offset="0" stop-color="#a86927" stop-opacity="0"/><stop offset="0.999" stop-color="#854f17"/></radialGradient><radialGradient id="radial-gradient-7" cx="-98.502" cy="-140.931" r="3.496" gradientTransform="translate(-76.937 161.737) rotate(90)" xlink:href="#radial-gradient-6"/><radialGradient id="radial-gradient-8" cx="-92.912" cy="-139.58" r="3.496" gradientTransform="translate(-70.001 157.516) rotate(90)" xlink:href="#radial-gradient-6"/><radialGradient id="radial-gradient-9" cx="-87.559" cy="-137.474" r="3.496" gradientTransform="translate(-62.549 154.285) rotate(90)" xlink:href="#radial-gradient-6"/><radialGradient id="radial-gradient-10" cx="-83.728" cy="-133.228" r="3.496" gradientTransform="translate(-54.485 154.714) rotate(90)" xlink:href="#radial-gradient-6"/><radialGradient id="radial-gradient-11" cx="-82.054" cy="-138.439" r="3.496" gradientTransform="translate(-58.006 147.834) rotate(90)" xlink:href="#radial-gradient-6"/><radialGradient id="radial-gradient-12" cx="-84.978" cy="-141.887" r="3.496" gradientTransform="translate(-64.367 147.3) rotate(90)" xlink:href="#radial-gradient-6"/><radialGradient id="radial-gradient-13" cx="-91.349" cy="-143.48" r="3.496" gradientTransform="translate(-72.326 152.058) rotate(90)" xlink:href="#radial-gradient-6"/><radialGradient id="radial-gradient-14" cx="-88.164" cy="-146.666" r="3.496" gradientTransform="translate(-72.316 145.697) rotate(90)" xlink:href="#radial-gradient-6"/><radialGradient id="radial-gradient-15" cx="-92.942" cy="-148.259" r="3.496" gradientTransform="translate(-78.682 148.867) rotate(90)" xlink:href="#radial-gradient-6"/><radialGradient id="radial-gradient-16" cx="-97.72" cy="-145.073" r="3.496" gradientTransform="translate(-80.285 156.816) rotate(90)" xlink:href="#radial-gradient-6"/><radialGradient id="radial-gradient-17" cx="-96.128" cy="-141.887" r="3.496" gradientTransform="translate(-75.517 158.414) rotate(90)" xlink:href="#radial-gradient-6"/><radialGradient id="radial-gradient-18" cx="-100.906" cy="-142.447" r="3.496" gradientTransform="translate(-80.853 162.618) rotate(90)" xlink:href="#radial-gradient-6"/><radialGradient id="radial-gradient-19" cx="-105.891" cy="-142.206" r="3.496" gradientTransform="translate(-85.597 167.827) rotate(90)" xlink:href="#radial-gradient-6"/><radialGradient id="radial-gradient-20" cx="-103.773" cy="-145.791" r="3.496" gradientTransform="translate(-87.053 162.131) rotate(90)" xlink:href="#radial-gradient-6"/><radialGradient id="radial-gradient-21" cx="-100.587" cy="-147.94" r="3.496" gradientTransform="translate(-86.01 156.807) rotate(90)" xlink:href="#radial-gradient-6"/><radialGradient id="radial-gradient-22" cx="-96.159" cy="-148.983" r="3.496" gradientTransform="translate(-82.622 151.35) rotate(90)" xlink:href="#radial-gradient-6"/><radialGradient id="radial-gradient-24" cx="-80.2" cy="-143.48" r="3.496" gradientTransform="translate(-61.177 140.944) rotate(90)" xlink:href="#radial-gradient-6"/><radialGradient id="radial-gradient-25" cx="-107.102" cy="-145.961" r="3.496" gradientTransform="translate(-90.552 165.28) rotate(90)" xlink:href="#radial-gradient-6"/><radialGradient id="radial-gradient-26" cx="-101.164" cy="-145.791" r="3.496" gradientTransform="translate(-84.444 159.531) rotate(90)" xlink:href="#radial-gradient-6"/><radialGradient id="radial-gradient-27" cx="-94.734" cy="-144.859" r="3.496" gradientTransform="translate(-77.085 154.054) rotate(90)" xlink:href="#radial-gradient-6"/><radialGradient id="radial-gradient-28" cx="-88.698" cy="-143.094" r="3.496" gradientTransform="translate(-69.289 149.801) rotate(90)" xlink:href="#radial-gradient-6"/><radialGradient id="radial-gradient-29" cx="-84.692" cy="-146.726" r="3.496" gradientTransform="translate(-68.904 142.176) rotate(90)" xlink:href="#radial-gradient-6"/><radialGradient id="radial-gradient-30" cx="-90.425" cy="-148.252" r="3.496" gradientTransform="translate(-76.159 146.366) rotate(90)" xlink:href="#radial-gradient-6"/><radialGradient id="radial-gradient-31" cx="-91.525" cy="-149.593" r="3.496" gradientTransform="translate(-78.596 146.121) rotate(90)" xlink:href="#radial-gradient-6"/><radialGradient id="radial-gradient-32" cx="-85.297" cy="-149.214" r="3.496" gradientTransform="translate(-71.989 140.291) rotate(90)" xlink:href="#radial-gradient-6"/><radialGradient id="radial-gradient-33" cx="-81.825" cy="-148.252" r="3.496" gradientTransform="translate(-67.558 137.792) rotate(90)" xlink:href="#radial-gradient-6"/><radialGradient id="radial-gradient-34" cx="-82.685" cy="-144.593" r="3.496" gradientTransform="translate(-64.771 142.309) rotate(90)" xlink:href="#radial-gradient-6"/><radialGradient id="radial-gradient-35" cx="-83.067" cy="-140.931" r="3.496" gradientTransform="translate(-61.502 146.351) rotate(90)" xlink:href="#radial-gradient-6"/><radialGradient id="radial-gradient-36" cx="-86.595" cy="-138.439" r="3.496" gradientTransform="translate(-62.547 152.36) rotate(90)" xlink:href="#radial-gradient-6"/><radialGradient id="radial-gradient-37" cx="-83.067" cy="-136.095" r="3.496" gradientTransform="translate(-56.681 151.188) rotate(90)" xlink:href="#radial-gradient-6"/><radialGradient id="radial-gradient-38" cx="-79.187" cy="-136.713" r="3.496" gradientTransform="translate(-53.419 146.702) rotate(90)" xlink:href="#radial-gradient-6"/><radialGradient id="radial-gradient-39" cx="-79.566" cy="-139.58" r="3.496" gradientTransform="translate(-56.655 144.213) rotate(90)" xlink:href="#radial-gradient-6"/><radialGradient id="radial-gradient-40" cx="-76.321" cy="-137.474" r="3.496" gradientTransform="translate(-51.311 143.083) rotate(90)" xlink:href="#radial-gradient-6"/><radialGradient id="radial-gradient-41" cx="-79.818" cy="-141.887" r="3.496" gradientTransform="translate(-59.207 142.157) rotate(90)" xlink:href="#radial-gradient-6"/><radialGradient id="radial-gradient-42" cx="-93.292" cy="-152.894" r="3.496" gradientTransform="translate(-83.653 144.582) rotate(90)" xlink:href="#radial-gradient-6"/><radialGradient id="radial-gradient-43" cx="-86.595" cy="-151.85" r="3.496" gradientTransform="translate(-75.915 138.949) rotate(90)" xlink:href="#radial-gradient-6"/><radialGradient id="radial-gradient-44" cx="-79.818" cy="-148.658" r="3.496" gradientTransform="translate(-65.956 135.386) rotate(90)" xlink:href="#radial-gradient-6"/><radialGradient id="radial-gradient-45" cx="-78.316" cy="-134.332" r="3.496" gradientTransform="translate(-50.174 148.215) rotate(90)" xlink:href="#radial-gradient-6"/><radialGradient id="radial-gradient-46" cx="-76.699" cy="-139.58" r="3.496" gradientTransform="translate(-53.788 141.355) rotate(90)" xlink:href="#radial-gradient-6"/><radialGradient id="radial-gradient-47" cx="-73.082" cy="-135.572" r="3.496" gradientTransform="translate(-46.176 141.757) rotate(90)" xlink:href="#radial-gradient-6"/><radialGradient id="radial-gradient-48" cx="-109.969" cy="-141.306" r="3.496" gradientTransform="translate(-88.779 172.793) rotate(90)" xlink:href="#radial-gradient-6"/><radialGradient id="radial-gradient-49" cx="-1101.239" cy="-25.066" r="16.097" gradientTransform="matrix(-0.954, 0.229, 0.294, 0.669, -910.311, 396.137)" xlink:href="#radial-gradient"/><radialGradient id="radial-gradient-50" cx="-885.887" cy="-609.927" r="15.884" gradientTransform="matrix(-0.877, -0.122, -0.149, 0.466, -727.549, 286.326)" xlink:href="#radial-gradient"/><radialGradient id="radial-gradient-51" cx="-1087.761" cy="-429.669" r="16.393" gradientTransform="matrix(-0.896, 0.077, 0.061, 0.471, -805.911, 382.661)" xlink:href="#radial-gradient"/><radialGradient id="radial-gradient-52" cx="-1123.673" cy="-97.991" r="15.842" gradientTransform="matrix(-0.954, 0.229, 0.294, 0.669, -910.311, 396.137)" xlink:href="#radial-gradient"/><radialGradient id="radial-gradient-53" cx="-613.045" cy="-146.864" r="24.228" gradientTransform="matrix(-0.983, 0.181, 0.09, 0.491, -455.845, 240.83)" xlink:href="#radial-gradient-5"/><linearGradient id="linear-gradient-2" x1="-603.414" y1="-152.965" x2="-615.406" y2="-132.193" gradientTransform="matrix(-0.994, -0.11, -0.11, 0.994, -491.64, 136.586)" xlink:href="#radial-gradient-5"/><radialGradient id="radial-gradient-54" cx="-739.761" cy="-84.017" r="3.496" gradientTransform="matrix(-1, 0, 0, 1, -595.259, 144.906)" xlink:href="#radial-gradient-6"/><radialGradient id="radial-gradient-55" cx="-734.027" cy="-83.642" r="3.496" gradientTransform="matrix(-1, 0, 0, 1, -595.136, 145.77)" xlink:href="#radial-gradient-6"/><radialGradient id="radial-gradient-56" cx="-728.437" cy="-82.291" r="3.496" gradientTransform="matrix(-1, 0, 0, 1, -594.867, 146.6)" xlink:href="#radial-gradient-6"/><radialGradient id="radial-gradient-57" cx="-723.084" cy="-80.186" r="3.496" gradientTransform="matrix(-1, 0, 0, 1, -594.486, 147.387)" xlink:href="#radial-gradient-6"/><radialGradient id="radial-gradient-58" cx="-719.253" cy="-75.939" r="3.496" gradientTransform="matrix(-1, 0, 0, 1, -593.799, 147.918)" xlink:href="#radial-gradient-6"/><radialGradient id="radial-gradient-59" cx="-717.58" cy="-81.15" r="3.496" gradientTransform="matrix(-1, 0, 0, 1, -594.569, 148.231)" xlink:href="#radial-gradient-6"/><radialGradient id="radial-gradient-60" cx="-720.504" cy="-84.599" r="3.496" gradientTransform="matrix(-1, 0, 0, 1, -595.125, 147.828)" xlink:href="#radial-gradient-6"/><radialGradient id="radial-gradient-61" cx="-726.875" cy="-86.192" r="3.496" gradientTransform="matrix(-1, 0, 0, 1, -595.439, 146.882)" xlink:href="#radial-gradient-6"/><radialGradient id="radial-gradient-62" cx="-723.689" cy="-89.377" r="3.496" gradientTransform="matrix(-1, 0, 0, 1, -595.885, 147.401)" xlink:href="#radial-gradient-6"/><radialGradient id="radial-gradient-63" cx="-728.468" cy="-90.97" r="3.496" gradientTransform="matrix(-1, 0, 0, 1, -596.181, 146.696)" xlink:href="#radial-gradient-6"/><radialGradient id="radial-gradient-64" cx="-733.246" cy="-87.784" r="3.496" gradientTransform="matrix(-1, 0, 0, 1, -595.754, 145.936)" xlink:href="#radial-gradient-6"/><radialGradient id="radial-gradient-65" cx="-731.653" cy="-84.599" r="3.496" gradientTransform="matrix(-1, 0, 0, 1, -595.253, 146.14)" xlink:href="#radial-gradient-6"/><radialGradient id="radial-gradient-66" cx="-736.431" cy="-85.158" r="3.496" gradientTransform="matrix(-1, 0, 0, 1, -595.393, 145.423)" xlink:href="#radial-gradient-6"/><radialGradient id="radial-gradient-67" cx="-741.416" cy="-84.917" r="3.496" gradientTransform="matrix(-1, 0, 0, 1, -595.414, 144.665)" xlink:href="#radial-gradient-6"/><radialGradient id="radial-gradient-68" cx="-739.298" cy="-88.502" r="3.496" gradientTransform="matrix(-1, 0, 0, 1, -595.933, 145.027)" xlink:href="#radial-gradient-6"/><radialGradient id="radial-gradient-69" cx="-736.113" cy="-90.651" r="3.496" gradientTransform="matrix(-1, 0, 0, 1, -596.221, 145.535)" xlink:href="#radial-gradient-6"/><radialGradient id="radial-gradient-70" cx="-731.685" cy="-91.695" r="3.496" gradientTransform="matrix(-1, 0, 0, 1, -596.328, 146.217)" xlink:href="#radial-gradient-6"/><radialGradient id="radial-gradient-72" cx="-715.725" cy="-86.192" r="3.496" gradientTransform="matrix(-1, 0, 0, 1, -595.311, 148.57)" xlink:href="#radial-gradient-6"/><radialGradient id="radial-gradient-73" cx="-742.628" cy="-88.672" r="3.496" gradientTransform="matrix(-1, 0, 0, 1, -595.997, 144.525)" xlink:href="#radial-gradient-6"/><radialGradient id="radial-gradient-74" cx="-736.69" cy="-88.502" r="3.496" gradientTransform="matrix(-1, 0, 0, 1, -595.902, 145.422)" xlink:href="#radial-gradient-6"/><radialGradient id="radial-gradient-75" cx="-730.26" cy="-87.57" r="3.496" gradientTransform="matrix(-1, 0, 0, 1, -595.687, 146.385)" xlink:href="#radial-gradient-6"/><radialGradient id="radial-gradient-76" cx="-724.223" cy="-85.805" r="3.496" gradientTransform="matrix(-1, 0, 0, 1, -595.35, 147.279)" xlink:href="#radial-gradient-6"/><radialGradient id="radial-gradient-77" cx="-720.217" cy="-89.437" r="3.496" gradientTransform="matrix(-1, 0, 0, 1, -595.854, 147.928)" xlink:href="#radial-gradient-6"/><radialGradient id="radial-gradient-78" cx="-725.951" cy="-90.963" r="3.496" gradientTransform="matrix(-1, 0, 0, 1, -596.151, 147.077)" xlink:href="#radial-gradient-6"/><radialGradient id="radial-gradient-79" cx="-727.051" cy="-92.304" r="3.496" gradientTransform="matrix(-1, 0, 0, 1, -596.367, 146.926)" xlink:href="#radial-gradient-6"/><radialGradient id="radial-gradient-80" cx="-720.822" cy="-91.925" r="3.496" gradientTransform="matrix(-1, 0, 0, 1, -596.238, 147.865)" xlink:href="#radial-gradient-6"/><radialGradient id="radial-gradient-81" cx="-717.35" cy="-90.963" r="3.496" gradientTransform="matrix(-1, 0, 0, 1, -596.052, 148.379)" xlink:href="#radial-gradient-6"/><radialGradient id="radial-gradient-82" cx="-718.211" cy="-87.304" r="3.496" gradientTransform="matrix(-1, 0, 0, 1, -595.508, 148.207)" xlink:href="#radial-gradient-6"/><radialGradient id="radial-gradient-83" cx="-718.592" cy="-83.642" r="3.496" gradientTransform="matrix(-1, 0, 0, 1, -594.958, 148.107)" xlink:href="#radial-gradient-6"/><radialGradient id="radial-gradient-84" cx="-722.12" cy="-81.15" r="3.496" gradientTransform="matrix(-1, 0, 0, 1, -594.621, 147.544)" xlink:href="#radial-gradient-6"/><radialGradient id="radial-gradient-85" cx="-718.592" cy="-78.806" r="3.496" gradientTransform="matrix(-1, 0, 0, 1, -594.225, 148.051)" xlink:href="#radial-gradient-6"/><radialGradient id="radial-gradient-86" cx="-714.713" cy="-79.424" r="3.496" gradientTransform="matrix(-1, 0, 0, 1, -594.274, 148.646)" xlink:href="#radial-gradient-6"/><radialGradient id="radial-gradient-87" cx="-715.092" cy="-82.291" r="3.496" gradientTransform="matrix(-1, 0, 0, 1, -594.713, 148.621)" xlink:href="#radial-gradient-6"/><radialGradient id="radial-gradient-88" cx="-711.846" cy="-80.186" r="3.496" gradientTransform="matrix(-1, 0, 0, 1, -594.357, 149.089)" xlink:href="#radial-gradient-6"/><radialGradient id="radial-gradient-89" cx="-715.344" cy="-84.599" r="3.496" gradientTransform="matrix(-1, 0, 0, 1, -595.065, 148.61)" xlink:href="#radial-gradient-6"/><radialGradient id="radial-gradient-90" cx="-728.818" cy="-95.605" r="3.496" gradientTransform="matrix(-1, 0, 0, 1, -596.887, 146.696)" xlink:href="#radial-gradient-6"/><radialGradient id="radial-gradient-91" cx="-722.12" cy="-94.561" r="3.496" gradientTransform="matrix(-1, 0, 0, 1, -596.652, 147.698)" xlink:href="#radial-gradient-6"/><radialGradient id="radial-gradient-92" cx="-715.344" cy="-91.369" r="3.496" gradientTransform="matrix(-1, 0, 0, 1, -596.09, 148.688)" xlink:href="#radial-gradient-6"/><radialGradient id="radial-gradient-93" cx="-713.842" cy="-77.043" r="3.496" gradientTransform="matrix(-1, 0, 0, 1, -593.904, 148.75)" xlink:href="#radial-gradient-6"/><radialGradient id="radial-gradient-94" cx="-712.225" cy="-82.291" r="3.496" gradientTransform="matrix(-1, 0, 0, 1, -594.68, 149.055)" xlink:href="#radial-gradient-6"/><radialGradient id="radial-gradient-95" cx="-708.607" cy="-78.283" r="3.496" gradientTransform="matrix(-1, 0, 0, 1, -594.031, 149.557)" xlink:href="#radial-gradient-6"/><radialGradient id="radial-gradient-96" cx="-745.495" cy="-84.017" r="3.496" gradientTransform="matrix(-1, 0, 0, 1, -595.325, 144.037)" xlink:href="#radial-gradient-6"/></defs><title>kidney_adrenal_glands</title><g id="KIDNEY" class="cls-1"><path class="cls-2" d="M77.664,118.823a4.673,4.673,0,0,1-2.246-6.144,7.751,7.751,0,0,0,.269-5.165,5.933,5.933,0,0,0-.474-1.189,6.117,6.117,0,0,1,.063-5.993,5.862,5.862,0,0,0,.814-2.178,5.525,5.525,0,0,0-.321-2.7c-.944-2.531-.616-5.735,1.872-7.183,3.049-1.774,5.3-4.28,5.912-7.257,1.74-8.424-.523-15.89-10.4-18.845-10.882-3.256-20.967.7-26.105,7.611-3.615,4.86-7.313,10.011-8.471,24.885-.612,7.857,1.1,14.367,1.968,19.9,1.393,8.929,4.621,16.538,5.351,18.968,1.527,5.089,6.75,9.561,14.212,11.406,11.026,2.726,21.116-1.323,24.571-9.037C87.554,129.48,85.126,122.538,77.664,118.823Z" transform="translate(-38.446 -48.318)"/><path class="cls-3" d="M84.668,135.906c3.454-7.714-1.035-16.171-12.062-18.9s-22.765,1.318-26.219,9.031,2.684,16.176,13.71,18.9S81.214,143.619,84.668,135.906Z" transform="translate(-38.446 -48.318)"/><path class="cls-4" d="M75.678,107.514c-1.694-5.4-8.827-8.683-18.982-7.335S39.682,107,41.376,112.4s11.3,8.691,21.455,7.343S77.372,112.917,75.678,107.514Z" transform="translate(-38.446 -48.318)"/><path class="cls-5" d="M76.081,98.154c.736-5.449-7.066-10.646-17.425-11.608S39.3,89.22,38.567,94.669s7.066,10.646,17.425,11.608S75.345,103.6,76.081,98.154Z" transform="translate(-38.446 -48.318)"/><path class="cls-6" d="M83.776,80.046c.777-4.3,1.536-14.016-10.633-17.873C62.316,58.741,50.378,63.49,46.924,71.2s2.684,16.176,13.71,18.9S82.273,88.363,83.776,80.046Z" transform="translate(-38.446 -48.318)"/></g><g id="ADRENAL_GLANDS"><path class="cls-7" d="M88.285,66.2c-.394,0-.749-.646-.747-1.143a2.867,2.867,0,0,0-2.858-2.876c-.316,0-.632-.609-.63-1.035A2.819,2.819,0,0,0,83.4,59.34a.923.923,0,0,1,.1-1.26A2.86,2.86,0,0,0,81.59,53.1c-1.548,0-3.912.594-3.909-.338a2.867,2.867,0,0,0-2.858-2.876A2.813,2.813,0,0,0,72.1,51.84a.56.56,0,0,1-1.108-.146,2.867,2.867,0,1,0-5.734-.018c0,.72-.958,1.015-1.446,1.358a7.868,7.868,0,0,1-2.941.715,3.13,3.13,0,0,0-1.744.55c-.713.44-1.206,1.292-1.957,1.536-1.332.433-2.172-.125-2.867-.127a2.867,2.867,0,0,0-2.876,2.858c0,.729.248,1.789-.006,1.788a2.867,2.867,0,1,0-.018,5.734,1.917,1.917,0,0,0,1.207-.517,2.259,2.259,0,0,1,2.835-.023,2.854,2.854,0,0,0,1.691.559,2.278,2.278,0,0,0,1.449-.641,1.559,1.559,0,0,1,2.193.12,2.859,2.859,0,0,0,2.091.915,2.944,2.944,0,0,0,1.49-.433,1.215,1.215,0,0,1,1.655.424,2.865,2.865,0,0,0,2.441,1.378,4.4,4.4,0,0,0,1.081-.129,1.5,1.5,0,0,1,1.731.666A2.863,2.863,0,0,0,73.8,69.989c1.368,0,.812.781.87,1.3a3.034,3.034,0,0,0,2.513,2.929,2.847,2.847,0,0,0,2.694-1.081,1.365,1.365,0,0,1,1.78-.33,2.842,2.842,0,0,0,3.718-.875,1.171,1.171,0,0,1,1.5-.356,2.866,2.866,0,1,0,1.4-5.371Z" transform="translate(-38.446 -48.318)"/><circle class="cls-8" cx="57.141" cy="63.237" r="2.867" transform="translate(-44.725 71.858) rotate(-89.817)"/><circle class="cls-9" cx="62.873" cy="63.631" r="2.867" transform="translate(-39.404 77.983) rotate(-89.817)"/><circle class="cls-10" cx="68.459" cy="64.999" r="2.867" transform="translate(-35.205 84.933) rotate(-89.817)"/><circle class="cls-11" cx="73.805" cy="67.122" r="2.867" transform="translate(-31.998 92.395) rotate(-89.817)"/><circle class="cls-12" cx="77.622" cy="71.381" r="2.867" transform="translate(-32.452 100.457) rotate(-89.817)"/><circle class="cls-13" cx="79.312" cy="66.175" r="2.867" transform="translate(-25.562 96.958) rotate(-89.817)"/><circle class="cls-14" cx="76.4" cy="62.717" r="2.867" transform="translate(-25.007 90.599) rotate(-89.817)"/><circle class="cls-15" cx="70.034" cy="61.104" r="2.867" transform="translate(-29.74 82.625) rotate(-89.817)"/><circle class="cls-16" cx="73.229" cy="57.929" r="2.867" transform="translate(-23.379 82.655) rotate(-89.817)"/><circle class="cls-17" cx="68.456" cy="56.321" r="2.867" transform="translate(-26.529 76.279) rotate(-89.817)"/><circle class="cls-18" cx="63.668" cy="59.491" r="2.867" transform="translate(-34.472 74.651) rotate(-89.817)"/><circle class="cls-19" cx="65.25" cy="62.682" r="2.867" transform="translate(-36.086 79.414) rotate(-89.817)"/><circle class="cls-20" cx="60.474" cy="62.107" r="2.867" transform="translate(-40.272 74.064) rotate(-89.817)"/><circle class="cls-21" cx="55.488" cy="62.332" r="2.867" transform="translate(-45.467 69.303) rotate(-89.817)"/><circle class="cls-22" cx="57.618" cy="58.754" r="2.867" transform="translate(-39.766 67.866) rotate(-89.817)"/><circle class="cls-23" cx="60.81" cy="56.615" r="2.867" transform="translate(-34.445 68.926) rotate(-89.817)"/><circle class="cls-24" cx="65.241" cy="55.586" r="2.867" transform="translate(-28.999 72.332) rotate(-89.817)"/><circle class="cls-24" cx="65.241" cy="55.586" r="2.867" transform="translate(-28.999 72.332) rotate(-89.817)"/><circle class="cls-25" cx="81.183" cy="61.14" r="2.867" transform="translate(-18.662 93.81) rotate(-89.817)"/><circle class="cls-26" cx="54.289" cy="58.574" r="2.867" transform="translate(-42.904 64.357) rotate(-89.817)"/><circle class="cls-27" cx="60.226" cy="58.762" r="2.867" transform="translate(-37.174 70.483) rotate(-89.817)"/><circle class="cls-28" cx="66.653" cy="59.715" r="2.867" transform="translate(-31.72 77.859) rotate(-89.817)"/><circle class="cls-29" cx="72.684" cy="61.499" r="2.867" transform="translate(-27.493 85.669) rotate(-89.817)"/><circle class="cls-30" cx="76.702" cy="57.88" r="2.867" transform="translate(-19.869 86.078) rotate(-89.817)"/><circle class="cls-31" cx="70.973" cy="56.336" r="2.867" transform="translate(-24.035 78.81) rotate(-89.817)"/><circle class="cls-32" cx="69.877" cy="54.991" r="2.867" transform="translate(-23.783 76.374) rotate(-89.817)"/><circle class="cls-33" cx="76.105" cy="55.39" r="2.867" transform="translate(-17.974 82.999) rotate(-89.817)"/><circle class="cls-34" cx="79.573" cy="56.363" r="2.867" transform="translate(-15.49 87.439) rotate(-89.817)"/><circle class="cls-35" cx="78.701" cy="60.019" r="2.867" transform="translate(-20.015 90.211) rotate(-89.817)"/><circle class="cls-36" cx="78.308" cy="63.68" r="2.867" transform="translate(-24.068 93.467) rotate(-89.817)"/><circle class="cls-37" cx="74.772" cy="66.161" r="2.867" transform="translate(-30.073 92.403) rotate(-89.817)"/><circle class="cls-38" cx="78.293" cy="68.516" r="2.867" transform="translate(-28.919 98.272) rotate(-89.817)"/><circle class="cls-39" cx="82.174" cy="67.91" r="2.867" transform="translate(-24.444 101.549) rotate(-89.817)"/><circle class="cls-40" cx="81.804" cy="65.042" r="2.867" transform="translate(-21.945 98.32) rotate(-89.817)"/><circle class="cls-41" cx="85.043" cy="67.158" r="2.867" transform="translate(-20.832 103.669) rotate(-89.817)"/><circle class="cls-42" cx="81.56" cy="62.734" r="2.867" transform="translate(-19.88 95.775) rotate(-89.817)"/><circle class="cls-43" cx="68.121" cy="51.685" r="2.867" transform="translate(-22.227 71.322) rotate(-89.817)"/><circle class="cls-44" cx="74.815" cy="52.75" r="2.867" transform="translate(-16.619 79.078) rotate(-89.817)"/><circle class="cls-45" cx="81.581" cy="55.964" r="2.867" transform="translate(-13.088 89.048) rotate(-89.817)"/><circle class="cls-46" cx="83.037" cy="70.294" r="2.867" transform="translate(-25.967 104.789) rotate(-89.817)"/><circle class="cls-47" cx="84.671" cy="65.051" r="2.867" transform="translate(-19.096 101.196) rotate(-89.817)"/><circle class="cls-48" cx="88.276" cy="69.071" r="2.867" transform="translate(-19.522 108.808) rotate(-89.817)"/><circle class="cls-49" cx="51.407" cy="63.219" r="2.867" transform="translate(-50.422 66.106) rotate(-89.817)"/></g><g id="KIDNEY-2" data-name="KIDNEY" class="cls-1"><path class="cls-2" d="M124.774,118.613a4.673,4.673,0,0,0,2.285-6.129,7.751,7.751,0,0,1-.236-5.167,5.933,5.933,0,0,1,.482-1.186,6.117,6.117,0,0,0-.025-5.993,5.862,5.862,0,0,1-.8-2.183,5.525,5.525,0,0,1,.339-2.7c.96-2.525.652-5.731-1.826-7.195-3.038-1.794-5.27-4.313-5.865-7.294-1.686-8.435.625-15.886,10.52-18.778,10.9-3.186,20.962.837,26.056,7.778,3.584,4.883,7.249,10.057,8.312,24.939.562,7.861-1.2,14.359-2.095,19.886-1.45,8.92-4.727,16.508-5.472,18.934-1.559,5.079-6.811,9.518-14.285,11.315-11.043,2.655-21.108-1.458-24.513-9.193C114.816,129.206,117.289,122.28,124.774,118.613Z" transform="translate(-38.446 -48.318)"/><path class="cls-50" d="M117.661,135.651c-3.4-7.735,1.139-16.164,12.182-18.819s22.756,1.463,26.161,9.2-2.787,16.159-13.831,18.814S121.066,143.386,117.661,135.651Z" transform="translate(-38.446 -48.318)"/><path class="cls-51" d="M126.832,107.317c1.728-5.392,8.882-8.626,19.029-7.214s16.971,6.929,15.242,12.321-11.355,8.618-21.5,7.206S125.1,112.709,126.832,107.317Z" transform="translate(-38.446 -48.318)"/><path class="cls-52" d="M126.489,97.955c-.7-5.453,7.133-10.6,17.5-11.5s19.336,2.8,20.037,8.251-7.133,10.6-17.5,11.5S127.19,103.408,126.489,97.955Z" transform="translate(-38.446 -48.318)"/><path class="cls-53" d="M118.91,79.8c-.749-4.3-1.447-14.026,10.747-17.805,10.849-3.363,22.756,1.463,26.161,9.2S153.03,87.35,141.987,90.005,120.36,88.124,118.91,79.8Z" transform="translate(-38.446 -48.318)"/></g><g id="ADRENAL_GLANDS-2" data-name="ADRENAL_GLANDS"><path class="cls-54" d="M111.346,72.828a2.865,2.865,0,0,0,4.583,1.835,1.171,1.171,0,0,1,1.539.129,2.842,2.842,0,0,0,3.807.314,1.365,1.365,0,0,1,1.809.062,2.847,2.847,0,0,0,2.824.67,3.034,3.034,0,0,0,2.051-3.269c-.019-.52-.684-1.206.668-1.413a2.863,2.863,0,0,0,2.279-1.945,1.5,1.5,0,0,1,1.613-.916,4.4,4.4,0,0,0,1.088-.032,2.865,2.865,0,0,0,2.21-1.725,1.215,1.215,0,0,1,1.573-.665,2.944,2.944,0,0,0,1.537.208,2.859,2.859,0,0,0,1.932-1.215,1.559,1.559,0,0,1,2.151-.444,2.278,2.278,0,0,0,1.528.419,2.854,2.854,0,0,0,1.59-.8,2.259,2.259,0,0,1,2.808-.4,1.917,1.917,0,0,0,1.27.332,2.867,2.867,0,1,0-.868-5.668c-.251.038-.16-1.047-.271-1.767a2.867,2.867,0,0,0-3.268-2.4c-.686.105-1.434.781-2.816.551-.779-.13-1.393-.9-2.163-1.229a3.13,3.13,0,0,0-1.807-.285A7.868,7.868,0,0,1,136,52.906c-.534-.266-1.523-.416-1.632-1.128a2.867,2.867,0,0,0-5.668.868.56.56,0,0,1-1.074.309,2.813,2.813,0,0,0-2.989-1.531,2.867,2.867,0,0,0-2.4,3.268c.141.921-2.285.679-3.815.914a2.86,2.86,0,0,0-1.154,5.212.923.923,0,0,1,.287,1.231,2.819,2.819,0,0,0-.372,1.885c.065.422-.157,1.069-.47,1.117a2.867,2.867,0,0,0-2.4,3.268c.075.491-.18,1.182-.569,1.241A2.867,2.867,0,0,0,111.346,72.828Z" transform="translate(-38.446 -48.318)"/><circle class="cls-55" cx="144.107" cy="62.009" r="2.867" transform="translate(-46.174 -25.781) rotate(-8.71)"/><circle class="cls-56" cx="138.496" cy="63.248" r="2.867" transform="translate(-46.426 -26.616) rotate(-8.71)"/><circle class="cls-57" cx="133.175" cy="65.429" r="2.867" transform="translate(-46.818 -27.397) rotate(-8.71)"/><circle class="cls-58" cx="128.202" cy="68.321" r="2.867" transform="translate(-47.313 -28.116) rotate(-8.71)"/><circle class="cls-59" cx="125.059" cy="73.099" r="2.867" transform="translate(-48.073 -28.537) rotate(-8.71)"/><circle class="cls-60" cx="122.616" cy="68.201" r="2.867" transform="translate(-47.36 -28.964) rotate(-8.71)"/><circle class="cls-61" cx="124.983" cy="64.35" r="2.867" transform="translate(-46.749 -28.65) rotate(-8.71)"/><circle class="cls-62" cx="131.04" cy="61.811" r="2.867" transform="translate(-46.295 -27.762) rotate(-8.71)"/><circle class="cls-63" cx="127.409" cy="59.144" r="2.867" transform="translate(-45.933 -28.342) rotate(-8.71)"/><circle class="cls-64" cx="131.891" cy="56.846" r="2.867" transform="translate(-45.533 -27.69) rotate(-8.71)"/><circle class="cls-65" cx="137.096" cy="59.272" r="2.867" transform="translate(-45.841 -26.874) rotate(-8.71)"/><circle class="cls-66" cx="136.004" cy="62.662" r="2.867" transform="translate(-46.366 -27) rotate(-8.71)"/><circle class="cls-67" cx="140.643" cy="61.385" r="2.867" transform="translate(-46.12 -26.312) rotate(-8.71)"/><circle class="cls-68" cx="145.607" cy="60.868" r="2.867" transform="translate(-45.984 -25.567) rotate(-8.71)"/><circle class="cls-69" cx="142.97" cy="57.645" r="2.867" transform="translate(-45.527 -26.003) rotate(-8.71)"/><circle class="cls-70" cx="139.496" cy="56.004" r="2.867" transform="translate(-45.318 -26.548) rotate(-8.71)"/><circle class="cls-71" cx="134.961" cy="55.643" r="2.867" transform="translate(-45.316 -27.239) rotate(-8.71)"/><circle class="cls-71" cx="134.961" cy="55.643" r="2.867" transform="translate(-45.316 -27.239) rotate(-8.71)"/><circle class="cls-72" cx="120.019" cy="63.499" r="2.867" transform="translate(-46.678 -29.411) rotate(-8.71)"/><circle class="cls-73" cx="146.236" cy="56.974" r="2.867" transform="translate(-45.387 -25.516) rotate(-8.71)"/><circle class="cls-74" cx="140.392" cy="58.04" r="2.867" transform="translate(-45.616 -26.389) rotate(-8.71)"/><circle class="cls-75" cx="134.177" cy="59.936" r="2.867" transform="translate(-45.975 -27.308) rotate(-8.71)"/><circle class="cls-76" cx="128.477" cy="62.594" r="2.867" transform="translate(-46.443 -28.141) rotate(-8.71)"/><circle class="cls-77" cx="123.968" cy="59.611" r="2.867" transform="translate(-46.043 -28.858) rotate(-8.71)"/><circle class="cls-78" cx="129.404" cy="57.234" r="2.867" transform="translate(-45.621 -28.062) rotate(-8.71)"/><circle class="cls-79" cx="130.288" cy="55.742" r="2.867" transform="translate(-45.384 -27.946) rotate(-8.71)"/><circle class="cls-80" cx="124.189" cy="57.06" r="2.867" transform="matrix(0.988, -0.151, 0.151, 0.988, -45.654, -28.854)"/><circle class="cls-81" cx="120.903" cy="58.537" r="2.867" transform="translate(-45.916 -29.335) rotate(-8.71)"/><circle class="cls-82" cx="122.307" cy="62.023" r="2.867" transform="translate(-46.428 -29.082) rotate(-8.71)"/><circle class="cls-83" cx="123.239" cy="65.585" r="2.867" transform="translate(-46.956 -28.899) rotate(-8.71)"/><circle class="cls-84" cx="127.104" cy="67.514" r="2.867" transform="translate(-47.204 -28.292) rotate(-8.71)"/><circle class="cls-85" cx="123.971" cy="70.366" r="2.867" transform="translate(-47.672 -28.733) rotate(-8.71)"/><circle class="cls-86" cx="120.043" cy="70.342" r="2.867" transform="translate(-47.713 -29.329) rotate(-8.71)"/><circle class="cls-87" cx="119.983" cy="67.45" r="2.867" transform="translate(-47.276 -29.371) rotate(-8.71)"/><circle class="cls-88" cx="117.094" cy="70.023" r="2.867" transform="translate(-47.699 -29.779) rotate(-8.71)"/><circle class="cls-89" cx="119.883" cy="65.131" r="2.867" transform="translate(-46.926 -29.413) rotate(-8.71)"/><circle class="cls-90" cx="131.535" cy="52.212" r="2.867" transform="translate(-44.836 -27.797) rotate(-8.71)"/><circle class="cls-91" cx="125.073" cy="54.257" r="2.867" transform="translate(-45.22 -28.752) rotate(-8.71)"/><circle class="cls-92" cx="118.858" cy="58.439" r="2.867" transform="translate(-45.925 -29.645) rotate(-8.71)"/><circle class="cls-93" cx="119.543" cy="72.827" r="2.867" transform="translate(-48.096 -29.376) rotate(-8.71)"/><circle class="cls-94" cx="117.15" cy="67.885" r="2.867" transform="translate(-47.375 -29.795) rotate(-8.71)"/><circle class="cls-95" cx="114.18" cy="72.394" r="2.867" transform="translate(-48.092 -30.193) rotate(-8.71)"/><circle class="cls-96" cx="149.774" cy="61.14" r="2.867" transform="translate(-45.977 -24.932) rotate(-8.71)"/></g></svg>