<svg xmlns="http://www.w3.org/2000/svg" xmlns:xlink="http://www.w3.org/1999/xlink" viewBox="0 0 61.506 101.601"><defs><style>.cls-1{fill:url(#radial-gradient);}.cls-2{fill:url(#radial-gradient-2);}.cls-3{fill:url(#linear-gradient);}.cls-4{isolation:isolate;}.cls-5{fill:#39e1c3;}.cls-6{fill:#d4ae40;}.cls-7{fill:#e139cb;}.cls-8{mask:url(#mask);}.cls-11,.cls-9{mix-blend-mode:multiply;}.cls-9{fill:url(#radial-gradient-3);}.cls-10{mask:url(#mask-2);}.cls-11{fill:url(#radial-gradient-4);}.cls-12{mask:url(#mask-3);}.cls-13{opacity:0.7;mix-blend-mode:screen;fill:url(#radial-gradient-5);}</style><radialGradient id="radial-gradient" cx="697.223" cy="76.175" r="54.946" gradientTransform="translate(-976.399 40.431) scale(1.54 1.122)" gradientUnits="userSpaceOnUse"><stop offset="0.255" stop-color="#fff"/><stop offset="0.313" stop-color="#fbfbfb"/><stop offset="0.373" stop-color="#efefef"/><stop offset="0.433" stop-color="#dadada"/><stop offset="0.493" stop-color="#bebebe"/><stop offset="0.554" stop-color="#999"/><stop offset="0.615" stop-color="#6c6c6c"/><stop offset="0.675" stop-color="#373737"/><stop offset="0.73"/></radialGradient><radialGradient id="radial-gradient-2" cx="1004.794" cy="-25.568" r="99.422" gradientTransform="translate(-777.287 95.047) scale(0.874 0.611)" gradientUnits="userSpaceOnUse"><stop offset="0.47" stop-color="#fff"/><stop offset="0.487" stop-color="#e8e8e8"/><stop offset="0.537" stop-color="#ababab"/><stop offset="0.586" stop-color="#777"/><stop offset="0.634" stop-color="#4c4c4c"/><stop offset="0.68" stop-color="#2b2b2b"/><stop offset="0.724" stop-color="#131313"/><stop offset="0.764" stop-color="#050505"/><stop offset="0.799"/></radialGradient><linearGradient id="linear-gradient" x1="351.887" y1="368.104" x2="382.99" y2="466.439" gradientTransform="translate(-268.861 -399.594) scale(1 1.222)" gradientUnits="userSpaceOnUse"><stop offset="0" stop-color="#c8c8c8"/><stop offset="0.15" stop-color="#c4c4c4"/><stop offset="0.292" stop-color="#b9b9b9"/><stop offset="0.431" stop-color="#a6a6a6"/><stop offset="0.568" stop-color="#8b8b8b"/><stop offset="0.704" stop-color="#686868"/><stop offset="0.839" stop-color="#3e3e3e"/><stop offset="0.97" stop-color="#0c0c0c"/><stop offset="1"/></linearGradient><mask id="mask" x="-5.105" y="-1.143" width="68.227" height="103.74" maskUnits="userSpaceOnUse"><g transform="translate(-69.247 -49.2)"><rect class="cls-1" x="46.386" y="65.813" width="103.74" height="68.227" transform="translate(-1.671 198.183) rotate(-90)"/></g></mask><radialGradient id="radial-gradient-3" cx="941.363" cy="61.732" r="51.463" gradientTransform="matrix(0, -1, 0.614, 0, 62.092, 1041.363)" gradientUnits="userSpaceOnUse"><stop offset="0.567" stop-color="#787878" stop-opacity="0"/><stop offset="0.623" stop-color="#787878" stop-opacity="0.062"/><stop offset="0.706" stop-color="#787878" stop-opacity="0.233"/><stop offset="0.807" stop-color="#787878" stop-opacity="0.513"/><stop offset="0.92" stop-color="#787878" stop-opacity="0.899"/><stop offset="0.947" stop-color="#787878"/></radialGradient><mask id="mask-2" x="-2.823" y="-2.433" width="67.151" height="106.467" maskUnits="userSpaceOnUse"><g transform="translate(-69.247 -49.2)"><rect class="cls-2" x="46.767" y="66.424" width="106.467" height="67.151" transform="translate(0 200) rotate(-90)"/></g></mask><radialGradient id="radial-gradient-4" cx="943.418" cy="62.177" r="71.65" gradientTransform="matrix(0, -1, 0.479, 0, 70.954, 1041.363)" gradientUnits="userSpaceOnUse"><stop offset="0.353" stop-color="#787878"/><stop offset="0.411" stop-color="#787878" stop-opacity="0.804"/><stop offset="0.511" stop-color="#787878" stop-opacity="0.515"/><stop offset="0.614" stop-color="#787878" stop-opacity="0.289"/><stop offset="0.717" stop-color="#787878" stop-opacity="0.128"/><stop offset="0.822" stop-color="#787878" stop-opacity="0.032"/><stop offset="0.931" stop-color="#787878" stop-opacity="0"/></radialGradient><mask id="mask-3" x="-8.074" y="-1.536" width="74.948" height="126.062" maskUnits="userSpaceOnUse"><g transform="translate(-69.247 -49.2)"><rect class="cls-3" x="61.173" y="47.664" width="74.948" height="126.062"/></g></mask><radialGradient id="radial-gradient-5" cx="941.55" cy="57.818" r="68.669" gradientTransform="matrix(0, -1, 0.49, 0, 65.083, 1041.363)" gradientUnits="userSpaceOnUse"><stop offset="0.568" stop-color="#fff" stop-opacity="0"/><stop offset="0.573" stop-color="#fff" stop-opacity="0.133"/><stop offset="0.581" stop-color="#fff" stop-opacity="0.334"/><stop offset="0.591" stop-color="#fff" stop-opacity="0.512"/><stop offset="0.6" stop-color="#fff" stop-opacity="0.663"/><stop offset="0.61" stop-color="#fff" stop-opacity="0.785"/><stop offset="0.62" stop-color="#fff" stop-opacity="0.88"/><stop offset="0.63" stop-color="#fff" stop-opacity="0.947"/><stop offset="0.642" stop-color="#fff" stop-opacity="0.987"/><stop offset="0.656" stop-color="#fff"/><stop offset="0.678" stop-color="#fff" stop-opacity="0.807"/><stop offset="0.705" stop-color="#fff" stop-opacity="0.596"/><stop offset="0.732" stop-color="#fff" stop-opacity="0.413"/><stop offset="0.759" stop-color="#fff" stop-opacity="0.264"/><stop offset="0.786" stop-color="#fff" stop-opacity="0.149"/><stop offset="0.812" stop-color="#fff" stop-opacity="0.066"/><stop offset="0.838" stop-color="#fff" stop-opacity="0.017"/><stop offset="0.863" stop-color="#fff" stop-opacity="0"/></radialGradient></defs><title>9-1-1_complex</title><g class="cls-4"><g id="Layer_1" data-name="Layer 1"><g id="_9-1-1_complex" data-name="9-1-1 complex"><path id="BG" class="cls-5" d="M100,49.2c5.756,0,10.422,2.778,10.422,6.2s-4.666,6.2-10.422,6.2C95.473,65.5,88.759,78.749,88.759,100a90.466,90.466,0,0,0,.959,13.386h0c.362,2.217-2.886,5.089-7.66,6.623-5.094,1.637-10,1.136-10.922-1.126a2.032,2.032,0,0,1-.1-.335A94.344,94.344,0,0,1,69.247,100c0-12.529,2.31-24.379,6.506-33.369C81.15,55.065,89.309,49.2,100,49.2Z" transform="translate(-69.247 -49.2)"/><path id="BG-2" data-name="BG" class="cls-6" d="M71.033,118.549a66.245,66.245,0,0,0,4.72,14.82C81.15,144.935,89.309,150.8,100,150.8s18.85-5.865,24.247-17.431a66.26,66.26,0,0,0,4.723-14.837h0c.47-2.228-2.827-5.159-7.666-6.714-5.094-1.637-9.969-1.131-10.887,1.131a2.03,2.03,0,0,0-.12.419h-.01c-2.015,13.478-6.8,22.023-10.285,25.025-3.485-3-8.266-11.54-10.283-25.007h0a1.973,1.973,0,0,0-.1-.438c-.919-2.262-5.793-2.768-10.887-1.131C73.884,113.376,70.607,116.276,71.033,118.549Z" transform="translate(-69.247 -49.2)"/><path id="BG-3" data-name="BG" class="cls-7" d="M128.9,118.87c-.443,2.252-5.831,2.777-10.925,1.139-4.8-1.544-8.1-4.447-7.687-6.668A90.5,90.5,0,0,0,111.241,100c0-21.251-6.714-34.5-11.241-38.393-5.756,0-10.422-2.778-10.422-6.2S94.244,49.2,100,49.2c10.691,0,18.85,5.865,24.247,17.431,4.2,8.99,6.506,20.84,6.506,33.369A94.134,94.134,0,0,1,128.9,118.87Z" transform="translate(-69.247 -49.2)"/><g class="cls-8"><path id="SHADOW_OUT" class="cls-9" d="M130.753,100c0,12.529-2.31,24.379-6.506,33.369C118.85,144.935,110.691,150.8,100,150.8s-18.85-5.865-24.247-17.431c-4.2-8.99-6.506-20.84-6.506-33.369s2.31-24.379,6.506-33.369C81.15,55.065,89.309,49.2,100,49.2s18.85,5.865,24.247,17.431C128.443,75.621,130.753,87.471,130.753,100ZM100,138.393c4.527-3.9,11.241-17.142,11.241-38.393S104.527,65.5,100,61.607C95.473,65.5,88.759,78.749,88.759,100S95.473,134.5,100,138.393Z" transform="translate(-69.247 -49.2)"/></g><g class="cls-10"><path id="SHADOW_IN" class="cls-11" d="M130.753,100c0,12.529-2.31,24.379-6.506,33.369C118.85,144.935,110.691,150.8,100,150.8s-18.85-5.865-24.247-17.431c-4.2-8.99-6.506-20.84-6.506-33.369s2.31-24.379,6.506-33.369C81.15,55.065,89.309,49.2,100,49.2s18.85,5.865,24.247,17.431C128.443,75.621,130.753,87.471,130.753,100ZM100,138.393c4.527-3.9,11.241-17.142,11.241-38.393S104.527,65.5,100,61.607C95.473,65.5,88.759,78.749,88.759,100S95.473,134.5,100,138.393Z" transform="translate(-69.247 -49.2)"/></g><g class="cls-12"><path id="LIGHT" class="cls-13" d="M130.753,100c0,12.529-2.31,24.379-6.506,33.369C118.85,144.935,110.691,150.8,100,150.8s-18.85-5.865-24.247-17.431c-4.2-8.99-6.506-20.84-6.506-33.369s2.31-24.379,6.506-33.369C81.15,55.065,89.309,49.2,100,49.2s18.85,5.865,24.247,17.431C128.443,75.621,130.753,87.471,130.753,100ZM100,138.393c4.527-3.9,11.241-17.142,11.241-38.393S104.527,65.5,100,61.607C95.473,65.5,88.759,78.749,88.759,100S95.473,134.5,100,138.393Z" transform="translate(-69.247 -49.2)"/></g></g></g></g></svg>