<svg id="Layer_1" data-name="Layer 1" xmlns="http://www.w3.org/2000/svg" xmlns:xlink="http://www.w3.org/1999/xlink" viewBox="0 0 43.782 22.736"><defs><style>.cls-1{fill:url(#linear-gradient);}.cls-2{fill:url(#linear-gradient-2);}.cls-3{fill:url(#linear-gradient-3);}.cls-4{fill:url(#linear-gradient-4);}.cls-5{fill:url(#linear-gradient-5);}.cls-6{fill:url(#linear-gradient-6);}</style><linearGradient id="linear-gradient" x1="78.109" y1="102" x2="83.06" y2="102" gradientTransform="matrix(1, 0, 0, -1, 0, 202)" gradientUnits="userSpaceOnUse"><stop offset="0" stop-color="#09bf6d"/><stop offset="1" stop-color="#09586d"/></linearGradient><linearGradient id="linear-gradient-2" x1="83.061" x2="88.012" xlink:href="#linear-gradient"/><linearGradient id="linear-gradient-3" x1="102.085" y1="102" x2="107.037" y2="102" gradientTransform="matrix(1, 0, 0, -1, 0, 202)" gradientUnits="userSpaceOnUse"><stop offset="0" stop-color="#ff91ff"/><stop offset="1" stop-color="#0a6bda"/></linearGradient><linearGradient id="linear-gradient-4" x1="107.037" x2="111.988" xlink:href="#linear-gradient-3"/><linearGradient id="linear-gradient-5" x1="111.988" x2="116.94" xlink:href="#linear-gradient-3"/><linearGradient id="linear-gradient-6" x1="116.94" x2="121.891" xlink:href="#linear-gradient-3"/></defs><title>CD3</title><g id="CD3"><path id="CD3_Gamma_chain" class="cls-1" d="M80.584,111.368a2.286,2.286,0,0,1-2.476-2.3V90.929a2.483,2.483,0,0,1,4.951,0v18.141A2.286,2.286,0,0,1,80.584,111.368Z" transform="translate(-78.109 -88.632)"/><path id="CD3_Epsilon_chain" class="cls-2" d="M85.536,111.368a2.286,2.286,0,0,1-2.476-2.3V90.929a2.483,2.483,0,0,1,4.951,0v18.141A2.286,2.286,0,0,1,85.536,111.368Z" transform="translate(-78.109 -88.632)"/><path id="CD3_Epsilon_chain-2" data-name="CD3_Epsilon_chain" class="cls-3" d="M104.561,111.368a2.286,2.286,0,0,1-2.476-2.3V90.929a2.483,2.483,0,0,1,4.951,0v18.141A2.286,2.286,0,0,1,104.561,111.368Z" transform="translate(-78.109 -88.632)"/><path id="CD3_Delta_chain" class="cls-4" d="M109.512,111.368a2.286,2.286,0,0,1-2.476-2.3V90.929a2.483,2.483,0,0,1,4.951,0v18.141A2.286,2.286,0,0,1,109.512,111.368Z" transform="translate(-78.109 -88.632)"/><path id="CD3_Zeta_chain" class="cls-5" d="M114.464,111.368a2.286,2.286,0,0,1-2.476-2.3V90.929a2.483,2.483,0,0,1,4.951,0v18.141A2.286,2.286,0,0,1,114.464,111.368Z" transform="translate(-78.109 -88.632)"/><path id="CD3_Zeta_chain-2" data-name="CD3_Zeta_chain" class="cls-6" d="M119.416,111.368a2.286,2.286,0,0,1-2.476-2.3V90.929a2.483,2.483,0,0,1,4.951,0v18.141A2.286,2.286,0,0,1,119.416,111.368Z" transform="translate(-78.109 -88.632)"/></g></svg>