<svg id="Layer_1" data-name="Layer 1" xmlns="http://www.w3.org/2000/svg" xmlns:xlink="http://www.w3.org/1999/xlink" viewBox="0 0 116.144 127.282"><defs><style>.cls-1{fill:url(#radial-gradient);}.cls-2{fill:url(#radial-gradient-2);}.cls-3{fill:#ff8c7a;}.cls-4{fill:url(#radial-gradient-3);}.cls-5{mask:url(#mask);}.cls-6{fill:url(#radial-gradient-4);}</style><radialGradient id="radial-gradient" cx="99.345" cy="94.17" r="30.611" gradientUnits="userSpaceOnUse"><stop offset="0.655" stop-color="#fff"/><stop offset="0.683" stop-color="#f9f9f9"/><stop offset="0.72" stop-color="#e8e8e8"/><stop offset="0.763" stop-color="#cbcbcb"/><stop offset="0.811" stop-color="#a3a3a3"/><stop offset="0.861" stop-color="#707070"/><stop offset="0.914" stop-color="#333"/><stop offset="0.954"/></radialGradient><radialGradient id="radial-gradient-2" cx="135.681" cy="140.261" r="185.932" gradientUnits="userSpaceOnUse"><stop offset="0.12" stop-color="#7e0b1d"/><stop offset="0.227" stop-color="#aa373d"/><stop offset="0.334" stop-color="#cf5c57"/><stop offset="0.433" stop-color="#e9766a"/><stop offset="0.522" stop-color="#f98676"/><stop offset="0.591" stop-color="#ff8c7a"/></radialGradient><radialGradient id="radial-gradient-3" cx="119.376" cy="130.261" r="37.965" gradientUnits="userSpaceOnUse"><stop offset="0.184" stop-color="#400611"/><stop offset="1" stop-color="#e37c6d"/></radialGradient><mask id="mask" x="37.889" y="31.051" width="39.057" height="51.519" maskUnits="userSpaceOnUse"><g transform="translate(-41.928 -37.359)"><path class="cls-1" d="M116.455,119.929a2.406,2.406,0,0,1-1.309-.387c-7.721-4.992-15.214-12.484-21.67-21.667A108.139,108.139,0,0,1,79.948,71.611a2.416,2.416,0,0,1,4.57-1.569c4.873,14.2,16.506,34.617,33.251,45.443a2.416,2.416,0,0,1-1.314,4.444Z"/></g></mask><radialGradient id="radial-gradient-4" cx="154.991" cy="41.722" r="80.554" gradientTransform="matrix(1, -0.003, 0.003, 1.129, -0.143, -4.928)" gradientUnits="userSpaceOnUse"><stop offset="0.926" stop-color="#ffcec9" stop-opacity="0"/><stop offset="0.928" stop-color="#ffcec9" stop-opacity="0.053"/><stop offset="0.941" stop-color="#ffcec9" stop-opacity="0.399"/><stop offset="0.951" stop-color="#ffcec9" stop-opacity="0.616"/><stop offset="0.956" stop-color="#ffcec9" stop-opacity="0.7"/><stop offset="0.982" stop-color="#ffcec9" stop-opacity="0"/></radialGradient></defs><title>R-ICO-013811</title><g id="BLOOD_VESSEL_4"><path id="VESSEL" class="cls-2" d="M134.441,164.641a23.581,23.581,0,0,1-7.7-1.294c-19.092-6.575-37.545-20.467-53.365-40.176A185.77,185.77,0,0,1,43.215,68.663,23.626,23.626,0,1,1,87.907,53.321a139.323,139.323,0,0,0,22.324,40.271c10.226,12.74,21.258,21.412,31.9,25.078a23.63,23.63,0,0,1-7.691,45.971Z" transform="translate(-41.928 -37.359)"/><circle id="THICKNESS" class="cls-3" cx="92.511" cy="103.649" r="23.626"/><g id="HOLE"><path class="cls-4" d="M134.439,160.316a19.308,19.308,0,1,1,19.308-19.308A19.33,19.33,0,0,1,134.439,160.316Z" transform="translate(-41.928 -37.359)"/><path class="cls-3" d="M134.439,122.2a18.809,18.809,0,1,1-18.808,18.808A18.829,18.829,0,0,1,134.439,122.2m0-1a19.809,19.809,0,1,0,19.808,19.808A19.808,19.808,0,0,0,134.439,121.2Z" transform="translate(-41.928 -37.359)"/></g><g class="cls-5"><path id="SHINE" class="cls-6" d="M116.455,119.929a2.406,2.406,0,0,1-1.309-.387c-7.721-4.992-15.214-12.484-21.67-21.667A108.139,108.139,0,0,1,79.948,71.611a2.416,2.416,0,0,1,4.57-1.569c4.873,14.2,16.506,34.617,33.251,45.443a2.416,2.416,0,0,1-1.314,4.444Z" transform="translate(-41.928 -37.359)"/></g></g></svg>