<svg id="Layer_1" data-name="Layer 1" xmlns="http://www.w3.org/2000/svg" xmlns:xlink="http://www.w3.org/1999/xlink" viewBox="0 0 74.458 40.493"><defs><style>.cls-1{fill:url(#linear-gradient);}.cls-2{fill:url(#linear-gradient-2);}.cls-3{fill:url(#linear-gradient-3);}</style><linearGradient id="linear-gradient" x1="-645.164" y1="43.639" x2="-645.164" y2="5.442" gradientTransform="translate(-572.559 125.128) rotate(180)" gradientUnits="userSpaceOnUse"><stop offset="0" stop-color="#252613"/><stop offset="0.094" stop-color="#9ba138"/><stop offset="0.118" stop-color="#9ea33f"/><stop offset="0.152" stop-color="#a5aa51"/><stop offset="0.192" stop-color="#b1b570"/><stop offset="0.235" stop-color="#c2c49a"/><stop offset="0.273" stop-color="#d3d3c3"/><stop offset="0.31" stop-color="#d2d2c0"/><stop offset="0.336" stop-color="#cecfb7"/><stop offset="0.359" stop-color="#c8c9a8"/><stop offset="0.379" stop-color="#bfc192"/><stop offset="0.398" stop-color="#b4b776"/><stop offset="0.416" stop-color="#a6ab54"/><stop offset="0.428" stop-color="#9ba138"/><stop offset="0.542" stop-color="#777c2d"/><stop offset="0.677" stop-color="#545722"/><stop offset="0.803" stop-color="#3a3c1a"/><stop offset="0.914" stop-color="#2a2c15"/><stop offset="1" stop-color="#252613"/></linearGradient><linearGradient id="linear-gradient-2" x1="-664.155" y1="43.826" x2="-664.155" y2="5.445" xlink:href="#linear-gradient"/><linearGradient id="linear-gradient-3" x1="141.249" y1="-35.503" x2="141.249" y2="-47.463" gradientTransform="matrix(1.47, -0.349, 0.231, 0.973, -90.761, 170.989)" xlink:href="#linear-gradient"/></defs><title>intron lariat</title><g id="intron_lariat" data-name="intron lariat"><path class="cls-1" d="M79.158,120.2c-19.5,0-19.625-31.564-3.233-37.64l4.262-1.012c-14.246,3.4-19.653,38.652.972,38.652Z" transform="translate(-64.052 -79.703)"/><path class="cls-2" d="M79.158,120.2c17.5,0,22.627-17.452,22.627-37.772l2.248-1.067c0,19.419-1.875,38.838-22.875,38.838Z" transform="translate(-64.052 -79.703)"/><path class="cls-3" d="M138.511,80.024c-15.21,3.613-37.421-3.446-58.324,1.519l-4.262,1.012c14.444-3.431,36.428,3.681,58.324-1.519Z" transform="translate(-64.052 -79.703)"/></g></svg>