<svg id="Layer_1" data-name="Layer 1" xmlns="http://www.w3.org/2000/svg" xmlns:xlink="http://www.w3.org/1999/xlink" viewBox="0 0 123.284 124.571"><defs><style>.cls-1{fill:url(#radial-gradient);}.cls-2{fill:url(#radial-gradient-2);}.cls-3{fill:url(#radial-gradient-3);}</style><radialGradient id="radial-gradient" cx="94.762" cy="112.148" r="49.656" gradientTransform="translate(0.207 -7.911) rotate(-2.329)" gradientUnits="userSpaceOnUse"><stop offset="0" stop-color="#89d4d6"/><stop offset="1" stop-color="#66b0b2"/></radialGradient><radialGradient id="radial-gradient-2" cx="76.988" cy="101.44" r="60.247" gradientTransform="matrix(1.06, -0.003, -0.003, 1, 18.696, -0.98)" gradientUnits="userSpaceOnUse"><stop offset="0" stop-color="#86b3b5"/><stop offset="0.671" stop-color="#1e7577"/><stop offset="0.864" stop-color="#196062"/><stop offset="1" stop-color="#175759"/></radialGradient><radialGradient id="radial-gradient-3" cx="81.19" cy="98.814" r="74.397" gradientTransform="matrix(1, -0.011, 0.011, 1, 0.099, -2.226)" gradientUnits="userSpaceOnUse"><stop offset="0" stop-color="#3c8789"/><stop offset="1" stop-color="#175759"/></radialGradient></defs><title>clathrin_coated_pit</title><path id="CLATHRIN_COATED_PIT" class="cls-1" d="M149.284,97.784a49.708,49.708,0,0,0-3.032-15.2l-.026-.07a49.167,49.167,0,0,0-5.946-11.289.378.378,0,0,0-.159-.246h0a49.419,49.419,0,0,0-7.339-8.22.371.371,0,0,0-.19-.2l-.028-.005a50.072,50.072,0,0,0-22.236-11.432c-.982-.218-2-.412-3.038-.577a1.269,1.269,0,0,0-1.043.307c-.389.346-.968.862-1.063.954l-1.426,1.366a.526.526,0,0,1-.23.129l-5.619,1.468a.536.536,0,0,1-.331-.022l-3.587-1.58a1.711,1.711,0,0,0-1.418.019L88.906,54.43c-.045.012-.105.029-.241.076-.335.115-.475.555-.594,1.011L87.03,58.3a.525.525,0,0,1-.344.319l-4.254,1.236a.544.544,0,0,1-.506-.124L80,57.9a1.027,1.027,0,0,0-1.357-.172L76.622,59.26a1.1,1.1,0,0,1-.953.184,1.091,1.091,0,0,1-.727-.641l-.523-1.2a.232.232,0,0,0-.027-.046.8.8,0,0,0-1.065-.213,51.486,51.486,0,0,0-5.691,4.068c-.115.034-.2.109-.212.165A50.485,50.485,0,0,0,54.05,79.114l-.086.187a49.591,49.591,0,0,0-1.946,4.979c0,.006-.028.068-.03.074A49.747,49.747,0,0,0,57.3,126.491a.3.3,0,0,0,.119.208c.829,1.29,1.728,2.557,2.673,3.766a.259.259,0,0,0,.442-.26.975.975,0,0,1,.126-.937.95.95,0,0,1,1.229-.3l4.81,2.4a1.849,1.849,0,0,1,.919,2.257l-.455,1.308a1.01,1.01,0,0,1-1.67.378l-4.505-4.544a.259.259,0,0,0-.385.344,48.865,48.865,0,0,0,5.872,6.105.367.367,0,0,0,.209.215l.027.012A50.174,50.174,0,0,0,77.454,144.6a.279.279,0,0,0,.138.063h0A49.459,49.459,0,0,0,90.8,148.951l.067.016a50.582,50.582,0,0,0,7.229.711l.289.011c1.164.023,2.139.016,3.069-.022a49.606,49.606,0,0,0,13.219-2.358.268.268,0,0,0,.075-.005.425.425,0,0,0,.107-.04l0-.011a48.882,48.882,0,0,0,7.193-2.993.313.313,0,0,0,.2-.091,50.019,50.019,0,0,0,11.329-8.027l.043-.019a.257.257,0,0,0,.063-.04.19.19,0,0,0,.066-.1,48.952,48.952,0,0,0,5.538-6.219.5.5,0,0,0,.112-.106c0-.005.058-.1.062-.111a49.965,49.965,0,0,0,6.5-11.756L146,117.7a49.533,49.533,0,0,0,3.128-13.6l-.258-.022.264-.05A50.411,50.411,0,0,0,149.284,97.784Zm-3.392-13.439h.007c.076,0,.179.08.227.228a49.028,49.028,0,0,1,2.383,13.243c.048,1.19.053,2.4.013,3.6-.007.242-.133.413-.246.433l.045.255-.062-.253c-.1,0-.165-.14-.182-.185-.175-.44-.589-1.241-.714-1.479a1.361,1.361,0,0,1-.12-.375l-2.167-12.971a1.37,1.37,0,0,1,.054-.666s.322-.977.523-1.547C145.689,84.526,145.77,84.35,145.892,84.345Zm-3.64,17.409a1.362,1.362,0,0,1-.8-.909l-1.494-5.552a1.421,1.421,0,0,1-.044-.264L139.2,84.5a.783.783,0,0,1,1.252-.677l3.369,2.538a1.368,1.368,0,0,1,.527.868l1.965,11.764a1.375,1.375,0,0,1-.664,1.41l-2.192,1.271A1.369,1.369,0,0,1,142.252,101.754Zm-5.15,13.367-5.262-.434a1.37,1.37,0,0,1-1.212-1.018l-2.137-8.2a1.374,1.374,0,0,1,.167-1.076l4.312-6.822a1.359,1.359,0,0,1,.844-.6l4.158-.98a1.36,1.36,0,0,1,1.635.977l1.574,5.847a1.383,1.383,0,0,1,.006.687l-2.644,10.584A1.357,1.357,0,0,1,137.1,115.121ZM120.709,134.5l-5.532-1.455a1.377,1.377,0,0,1-.967-.944l-2.7-9.325a1.374,1.374,0,0,1,.682-1.594l6.266-3.267a1.375,1.375,0,0,1,.58-.156,1.36,1.36,0,0,1,.946.333l4.149,3.575a1.361,1.361,0,0,1,.441.734l1.546,6.816a1.359,1.359,0,0,1-.376,1.28l-3.732,3.657A1.4,1.4,0,0,1,120.709,134.5Zm-10.633,4.356a1.372,1.372,0,0,1-1.058-.139l-3.764-2.214h0a1.364,1.364,0,0,1-.674-1.124l-.425-10.453a1.378,1.378,0,0,1,.107-.588l1.263-2.99a1.365,1.365,0,0,1,1.747-.747l2.511.954a1.373,1.373,0,0,1,.828.9l2.929,10.124a1.365,1.365,0,0,1-.115,1.039l-2.514,4.579A1.353,1.353,0,0,1,110.077,138.86Zm-11.019,4.648-6.477-.959a.465.465,0,0,1-.167-.862l4.679-2.741,6.315-1.934a1.852,1.852,0,0,1,1.475.174l2.77,1.629a1.007,1.007,0,0,1-.161,1.812l-7.523,2.785A1.853,1.853,0,0,1,99.058,143.508Zm-8.267-1.77a1.866,1.866,0,0,1-1.5.163l-2.069-.669a1.846,1.846,0,0,1-1.244-2.1l.614-3.212a1.845,1.845,0,0,1,1.537-1.478h0l4-.6a1.83,1.83,0,0,1,1.822.822l1.4,2.174a1.844,1.844,0,0,1-.618,2.593Zm-15.715-9.313-4.547-.653a1.846,1.846,0,0,1-1.58-1.751l-.105-2.581a1.843,1.843,0,0,1,1.041-1.736l6.357-3.068a1.842,1.842,0,0,1,1.584-.01l2.443,1.142a1.844,1.844,0,0,1,.656,2.826l-4.148,5.161A1.851,1.851,0,0,1,75.075,132.425ZM62.784,113.854a1.938,1.938,0,0,1-1.726-.155l-1.135-.7a1.944,1.944,0,0,1-.916-1.506l-.584-7.819a1.952,1.952,0,0,1,.645-1.595l1.287-1.144a1.94,1.94,0,0,1,2.8.237l2.318,2.892a1.948,1.948,0,0,1,.355,1.735l-1.887,6.77A1.926,1.926,0,0,1,62.784,113.854ZM56.4,116.113a.922.922,0,0,1-.833-.279l-3.152-3.4a1.936,1.936,0,0,1-.507-1.519h0l.876-8.462a.747.747,0,0,1,.941-.646l2.529.685a1.943,1.943,0,0,1,1.426,1.728l.594,7.951a1.954,1.954,0,0,1-.146.9l-1.047,2.5A.911.911,0,0,1,56.4,116.113ZM53.324,90.707A1.875,1.875,0,0,1,54.619,89l3.359-1.081a1.853,1.853,0,0,1,.491-.087,1.877,1.877,0,0,1,1.854,1.277l.845,2.549a1.857,1.857,0,0,1,.094.512l.236,5.8a1.861,1.861,0,0,1-.625,1.472L58.6,101.453a1.888,1.888,0,0,1-1.729.407l-2.5-.678A1.858,1.858,0,0,1,53,99.308Zm2.127-11.987,8.711-9.548a1.094,1.094,0,0,1,.765-.358,1.08,1.08,0,0,1,.22.013,1.1,1.1,0,0,1,.829.635l.67,1.49a1.107,1.107,0,0,1,.07.692L64.169,82.94a1.1,1.1,0,0,1-.416.64L60.94,85.673a1.127,1.127,0,0,1-1.532-.219l-4.021-5.331A1.1,1.1,0,0,1,55.451,78.721Zm12.038-6.975a1.089,1.089,0,0,1,.289-.529l3.411-3.463a1.1,1.1,0,0,1,1.688.148l2.962,4.3a1.1,1.1,0,0,1,.193.579l.309,7.6a1.1,1.1,0,0,1-.25.744l-2.7,3.263a1.108,1.108,0,0,1-1.066.378l-6.338-1.287a1.1,1.1,0,0,1-.853-1.318Zm26.5-4.3A1.94,1.94,0,0,1,95,67.681l3.9,2.144a2.278,2.278,0,0,1,.982,1.07l1.919,4.337a1.928,1.928,0,0,1-.4,2.151l-4.1,4.131a1.954,1.954,0,0,1-2.145.415l-5.591-2.408a1.952,1.952,0,0,1-1.171-1.7l-.245-6.027a1.936,1.936,0,0,1,.957-1.752l3.975-2.332A1.941,1.941,0,0,1,93.985,67.444Zm3.193-5.421,8.636,2.248a.526.526,0,0,1,.382.409l.746,3.963a.523.523,0,0,1-.493.619l-6.047.246a1.585,1.585,0,0,1-.825-.194l-4.992-2.745a.52.52,0,0,1-.261-.357l-.524-2.65a.524.524,0,0,1,.344-.6l2.732-.932a.513.513,0,0,1,.148-.028A.523.523,0,0,1,97.178,62.023Zm16.559,3.528a1.956,1.956,0,0,1,.812.324l4.357,3.026a1.945,1.945,0,0,1,.8,1.924L119.2,73.8a1.956,1.956,0,0,1-2.131,1.6l-1.592-.182a1.933,1.933,0,0,1-1.009-.427l-6.04-4.947a1.941,1.941,0,0,1-.677-1.142l-.487-2.586a1.159,1.159,0,0,1,1.086-1.372,1.206,1.206,0,0,1,.228.012Zm1.867-5.932a1.222,1.222,0,0,1,1.156-1.031,1.258,1.258,0,0,1,.3.024l7.474,1.532a1.22,1.22,0,0,1,.815.59l2.614,4.574a1.227,1.227,0,0,1-.434,1.655h0l-1.8,1.073a1.223,1.223,0,0,1-.421.156l-4.378.746a1.214,1.214,0,0,1-.9-.2l-4.649-3.23a1.229,1.229,0,0,1-.51-1.193Zm13.281,7.689a1.779,1.779,0,0,1,1.127.344l7.526,5.525a1.792,1.792,0,0,1,.729,1.441l-.007,5.5a.5.5,0,0,1-.287.456h0a.5.5,0,0,1-.534-.062l-4-3.2a1.814,1.814,0,0,1-.264-.26l-5.6-6.821a1.789,1.789,0,0,1,1.314-2.919ZM132.733,94.6l-2.406-7.4a1.945,1.945,0,0,1,.021-1.262l2.256-6.209a1.224,1.224,0,0,1,.83-.769,1.248,1.248,0,0,1,.289-.047,1.218,1.218,0,0,1,.816.272l3.063,2.449a1.944,1.944,0,0,1,.724,1.384l.692,10.259a1.934,1.934,0,0,1-1.491,2.019l-2.506.59A1.945,1.945,0,0,1,132.733,94.6Zm-5.035,8.562a1.908,1.908,0,0,1-1.566-.489l-2.518-2.3a1.939,1.939,0,0,1-.553-.882l-2.454-8.282h0a1.93,1.93,0,0,1,.269-1.662l2.335-3.342a1.95,1.95,0,0,1,1.517-.827,1.918,1.918,0,0,1,.711.105l3.052,1.06a1.952,1.952,0,0,1,1.207,1.233l2.621,8.059a1.933,1.933,0,0,1-.2,1.636l-3.035,4.8A1.936,1.936,0,0,1,127.7,103.164Zm-17.556,17.7-3.534-1.342a1.364,1.364,0,0,1-.74-.671l-4.181-8.422a1.371,1.371,0,0,1,.467-1.748l6.38-4.248a1.362,1.362,0,0,1,.7-.228,1.377,1.377,0,0,1,.3.02l5.258.936a1.377,1.377,0,0,1,1.077.976l2.709,9.618a1.374,1.374,0,0,1-.684,1.584l-6.633,3.459A1.381,1.381,0,0,1,110.142,120.864ZM96.361,136.957l-2.47-3.823.407-8.368a1.849,1.849,0,0,1,1.162-1.625l3.545-1.406a1.838,1.838,0,0,1,2.034.461l1.87,2.017a1.85,1.85,0,0,1,.49,1.179l.377,9.258a1.847,1.847,0,0,1-1.3,1.839L98.45,137.72a1.822,1.822,0,0,1-.46.078h0A1.854,1.854,0,0,1,96.361,136.957ZM93.2,131.394a1.849,1.849,0,0,1-1.568,1.734l-3.372.508a1.855,1.855,0,0,1-2.008-1.2l-2.322-6.418a1.837,1.837,0,0,1,.61-2.09l3.209-2.466a1.838,1.838,0,0,1,2.049-.133l2.814,1.631a1.838,1.838,0,0,1,.917,1.685ZM81.89,123.669,78.2,121.946a1.932,1.932,0,0,1-1.064-1.3l-2.212-9.1a1.93,1.93,0,0,1,.9-2.13l4.888-2.874a1.944,1.944,0,0,1,1.76-.1l5.168,2.261a1.948,1.948,0,0,1,1.16,1.876l-.44,8.584a1.937,1.937,0,0,1-.755,1.439l-3.716,2.856A1.96,1.96,0,0,1,81.89,123.669Zm-17-39.561a1.878,1.878,0,0,1,.447.035l5.894,1.2a1.873,1.873,0,0,1,1.5,1.843L72.7,91.227A1.877,1.877,0,0,1,71.633,92.9L67.52,94.853a1.9,1.9,0,0,1-2-.258l-3.144-2.644a1.873,1.873,0,0,1-.571-.841l-.935-2.819a1.862,1.862,0,0,1,.658-2.086l2.324-1.73A1.866,1.866,0,0,1,64.89,84.108Zm-2.6,14.153-.167-4.1a.636.636,0,0,1,.361-.6.637.637,0,0,1,.7.085l2.163,1.819a1.866,1.866,0,0,1,.666,1.4h0l.09,5.465a.434.434,0,0,1-.294.427.445.445,0,0,1-.5-.141L62.7,99.353A1.857,1.857,0,0,1,62.286,98.261Zm4.608,5.317-.1-6.308a1.871,1.871,0,0,1,1.066-1.718l5.222-2.477,5.943,2.831a1.859,1.859,0,0,1,1.049,1.443l.9,6.823a1.864,1.864,0,0,1-.9,1.853l-4.881,2.87a1.914,1.914,0,0,1-2-.068l-5.472-3.737A1.869,1.869,0,0,1,66.894,103.578ZM77.409,81.732a1.858,1.858,0,0,1,.7.107h0l4.4,1.575a1.863,1.863,0,0,1,1.22,1.5l.847,6.032a1.877,1.877,0,0,1-.673,1.71l-2.75,2.229a1.916,1.916,0,0,1-1.978.235l-4.636-2.208a1.876,1.876,0,0,1-1.065-1.7l.033-5.079a1.876,1.876,0,0,1,.428-1.177l2.106-2.549A1.873,1.873,0,0,1,77.409,81.732Zm8.787,11.2,4.391,1.512A1.86,1.86,0,0,1,91.843,96.1l.41,6.881a1.858,1.858,0,0,1-.294,1.122l-1.97,3.061a1.891,1.891,0,0,1-2.318.7l-4.8-2.1a1.876,1.876,0,0,1-1.1-1.468l-.921-7.006a1.88,1.88,0,0,1,.675-1.693l2.893-2.346A1.847,1.847,0,0,1,86.2,92.929Zm14.871-22.268a.923.923,0,0,1,.746-.434l4.838-.2a1.938,1.938,0,0,1,1.308.438l4.89,4a1.928,1.928,0,0,1,.372,2.6l-1.1,1.6a1.964,1.964,0,0,1-2.423.661l-5.949-2.786a1.937,1.937,0,0,1-.952-.971l-1.793-4.052A.924.924,0,0,1,101.067,70.661Zm13.207,6.24a1.938,1.938,0,0,1,1.522-.842,1.979,1.979,0,0,1,.3.011l1.871.214a1.945,1.945,0,0,1,1.479.989l3.417,6.189a1.953,1.953,0,0,1-.108,2.049l-2.3,3.289a1.98,1.98,0,0,1-1.942.8l-3.918-.722a1.93,1.93,0,0,1-1.553-1.538L111.892,81.4a1.951,1.951,0,0,1,.3-1.465Zm6.174-5.783a1.94,1.94,0,0,1,1.585-1.582l2.37-.4a1.911,1.911,0,0,1,.25-.027,1.937,1.937,0,0,1,1.574.708l5.645,6.878a1.948,1.948,0,0,1,.324,1.893l-2.067,5.688a1.964,1.964,0,0,1-1.752,1.275,1.908,1.908,0,0,1-.708-.1l-2.8-.972a1.937,1.937,0,0,1-1.062-.9l-3.872-7.012a1.945,1.945,0,0,1-.214-1.268h0Zm-17.33,6.159a1.363,1.363,0,0,1,.635.127l6.6,3.091a1.371,1.371,0,0,1,.763.978l1.253,6.458a1.371,1.371,0,0,1-.55,1.376l-4.594,3.269a1.377,1.377,0,0,1-1.053.228l-6.858-1.328a1.36,1.36,0,0,1-1.086-1.1l-1.218-6.633a1.369,1.369,0,0,1,.374-1.211L102.2,77.68A1.371,1.371,0,0,1,103.118,77.277ZM97.7,92.24a1.375,1.375,0,0,1,.554-.14,1.39,1.39,0,0,1,.314.023l7.033,1.362a1.363,1.363,0,0,1,1.082,1.076l1.611,8.082a1.364,1.364,0,0,1-.584,1.407l-6.282,4.182a1.381,1.381,0,0,1-1.538-.015l-6.286-4.36a1.361,1.361,0,0,1-.586-1.043L92.6,95.7a1.366,1.366,0,0,1,.759-1.307Zm-4.5,30.168-3.077-1.784a1.933,1.933,0,0,1-.964-1.777l.473-9.223a1.94,1.94,0,0,1,.307-.95h0l1.768-2.749a1.937,1.937,0,0,1,2.736-.544l4.948,3.432a1.934,1.934,0,0,1,.833,1.656l-.28,8.8a1.94,1.94,0,0,1-1.223,1.741l-3.833,1.52A1.946,1.946,0,0,1,93.2,122.409Zm10.363,1.052a.487.487,0,0,1-.425-.142l-1.919-2.07a1.93,1.93,0,0,1-.516-1.381l.231-7.273a.447.447,0,0,1,.363-.434.432.432,0,0,1,.083-.011.451.451,0,0,1,.424.257l3.2,6.45a1.94,1.94,0,0,1,.05,1.617l-1.144,2.708A.468.468,0,0,1,103.563,123.461Zm11.512-19.037-4.535-.807a1.927,1.927,0,0,1-1.562-1.531l-1.467-7.355a1.942,1.942,0,0,1,.778-1.959l4.1-2.916a1.959,1.959,0,0,1,1.476-.328l4.579.845a1.931,1.931,0,0,1,1.508,1.356l2.07,6.986a1.934,1.934,0,0,1-.764,2.152l-4.746,3.248A1.952,1.952,0,0,1,115.075,104.424ZM88.521,80.116a1.85,1.85,0,0,1,.81.15L95.2,82.793a1.866,1.866,0,0,1,1.1,1.378l1.075,5.856a1.875,1.875,0,0,1-1.007,2.01L92.812,93.8a1.894,1.894,0,0,1-1.438.092l-4.8-1.654a1.859,1.859,0,0,1-1.242-1.506l-.867-6.174a1.878,1.878,0,0,1,.518-1.569l2.279-2.317A1.876,1.876,0,0,1,88.521,80.116Zm-.867-1.446a1.1,1.1,0,0,1-.315.815L84.315,82.56a1.112,1.112,0,0,1-1.154.263l-5.335-1.911a1.092,1.092,0,0,1-.727-.989l-.284-6.994a1.091,1.091,0,0,1,.282-.78l3.952-4.381a1.1,1.1,0,0,1,1.4-.195l4.388,2.752a1.1,1.1,0,0,1,.514.886ZM64.094,114.919l2.294-8.233a.973.973,0,0,1,1.486-.542l5.312,3.627a1.935,1.935,0,0,1,.791,1.144l2.229,9.173a1.949,1.949,0,0,1-1.042,2.2l-4.827,2.33a1.939,1.939,0,0,1-2.6-.915l-3.53-7.436A1.942,1.942,0,0,1,64.094,114.919ZM77.176,132.5l4.694-5.839a.905.905,0,0,1,1.557.259l2.68,7.409-1.04,5.445A1.842,1.842,0,0,1,84,141.111l-3.716,1.633a1.844,1.844,0,0,1-2.572-1.46l-.925-7.4A1.852,1.852,0,0,1,77.176,132.5Zm47.51-11.862a1.36,1.36,0,0,1-.947-.331l-3.746-3.228a1.368,1.368,0,0,1-.424-.666L116.66,106.08a1.366,1.366,0,0,1,.544-1.5l4.741-3.245a1.366,1.366,0,0,1,1.7.118l3.637,3.316a1.371,1.371,0,0,1,.4.666l2.283,8.752a1.372,1.372,0,0,1-.279,1.229l-4.006,4.734A1.389,1.389,0,0,1,124.686,120.634Zm16.091-47.3a48.983,48.983,0,0,1,4.577,9.067.962.962,0,0,1,.01.652l-.522,1.542a.946.946,0,0,1-1.466.453l-3.966-2.987a.952.952,0,0,1-.378-.758l.01-7.441a.953.953,0,0,1,.916-.949h.014A.918.918,0,0,1,140.777,73.338Zm-8.514-10.013a49.576,49.576,0,0,1,6.778,7.488A1.033,1.033,0,0,1,137.6,72.26l-8.049-5.909a1.025,1.025,0,0,1-.284-.319l-2.4-4.2a.439.439,0,0,1,.356-.654.449.449,0,0,1,.192.036l4.547,1.92A1.077,1.077,0,0,1,132.263,63.325ZM113.284,52.7a48.911,48.911,0,0,1,15.73,7.931c.211.175.215.333.183.383-.011.015-.111.072-.284-.007l-3.266-1.372a.262.262,0,0,0-.177-.182.269.269,0,0,0-.24.044l-7.891-1.617a4.707,4.707,0,0,1-2.7-1.638l-2.044-2.511a.634.634,0,0,1-.036-.766h0A.64.64,0,0,1,113.284,52.7Zm-7.7-.191.729-.7a1.587,1.587,0,0,1,1.028-.437,1.554,1.554,0,0,1,.31.019c.632.107,1.263.226,1.876.354a1.578,1.578,0,0,1,.895.55l1.467,1.8a1.067,1.067,0,0,1-1.187,1.679l-4.786-1.709a.937.937,0,0,1-.332-1.559Zm-7.71,4.2a1.564,1.564,0,0,1,1.156-1.356l4.139-1.081a1.932,1.932,0,0,1,1.143.051l9.522,3.4a1.558,1.558,0,0,1,1.015,1.707l-.6,3.85a1.555,1.555,0,0,1-1.775,1.3l-5.837-.9c-.053-.008-.105-.019-.156-.032L98.715,61.62a1.551,1.551,0,0,1-1.158-1.657ZM87.93,58.222l1-2.769a.522.522,0,0,1,.324-.318l3.82-1.3a.534.534,0,0,1,.148-.027.52.52,0,0,1,.224.04l3.5,1.471a.521.521,0,0,1,.318.533l-.487,5.011a.524.524,0,0,1-.352.444l-2.766.944a.54.54,0,0,1-.457-.06l-5.061-3.356A.521.521,0,0,1,87.93,58.222Zm-5.628,2.9a.526.526,0,0,1,.369-.47l4.264-1.3a.551.551,0,0,1,.133-.022.52.52,0,0,1,.311.086l5.357,3.551a.526.526,0,0,1,.224.335l.561,2.84a.525.525,0,0,1-.249.553l-5.287,3.1a.527.527,0,0,1-.542-.008L82.26,66.54a.523.523,0,0,1-.244-.473Zm-6.8.069a1.108,1.108,0,0,1,.289-.328l2.6-1.973a1.091,1.091,0,0,1,1.42.08l1.368,1.3a1.1,1.1,0,0,1,.339.86l-.285,4.907a1.11,1.11,0,0,1-.282.673l-3.583,3.972a1.055,1.055,0,0,1-.888.36,1.093,1.093,0,0,1-.833-.474l-2.628-3.817a1.105,1.105,0,0,1-.048-1.17Zm-7.569,1.128a1.136,1.136,0,0,1,.319-.428,49.462,49.462,0,0,1,4.393-3.231,1.083,1.083,0,0,1,.91-.125,1.107,1.107,0,0,1,.7.638l.427,1.036a1.11,1.11,0,0,1-.063.966L71.936,65.84a1.133,1.133,0,0,1-.171.224l-3.314,3.364a1.1,1.1,0,0,1-1.785-.32l-.644-1.43a1.1,1.1,0,0,1-.007-.884Zm-2.028,1.631c.173-.125.313-.177.387-.154.039.014.073.052.106.134l-1.256,2.928a1.1,1.1,0,0,1-.2.307L56.971,75.9a.4.4,0,0,1-.268.01.254.254,0,0,1-.069-.177A49.433,49.433,0,0,1,65.907,63.949ZM52.882,84.133c.274-.811.578-1.632.9-2.44a.949.949,0,0,1,.763-.6.921.921,0,0,1,.879.367l3.233,4.285a.815.815,0,0,1-.4,1.268l-3.613,1.162a1.175,1.175,0,0,1-1.524-.952L52.8,85.011A1.917,1.917,0,0,1,52.882,84.133Zm-1.55,5.74c.2-.982.44-1.968.683-2.881.056-.108.114-.178.154-.182s.075.032.118.078l.188,1.308a1.875,1.875,0,0,1-.4,1.438l-.49.607a.291.291,0,0,1-.228.011C51.321,90.22,51.293,90.1,51.332,89.872Zm-.525,2.991a1.888,1.888,0,0,1,.406-.923l.844-1.045a.208.208,0,0,1,.221-.1.5.5,0,0,1,.249.464L52.156,101c0,.038,0,.078-.008.118l-.673,6.5c-.023.266-.2.5-.3.5h0c-.075,0-.186-.174-.249-.568a48.536,48.536,0,0,1-.122-14.679Zm1.8,21.759a.286.286,0,0,1,.135-.344.319.319,0,0,1,.148-.045.3.3,0,0,1,.231.1l3.02,3.254a.9.9,0,0,1,.218.41l1.065,6.2a.262.262,0,0,1-.175.3.249.249,0,0,1-.333-.121A48.87,48.87,0,0,1,52.605,114.622Zm7.122,12.344a1.835,1.835,0,0,1-.979-1.255l-1.665-7.6a1.857,1.857,0,0,1,.124-1.161l.812-1.78a1.846,1.846,0,0,1,2.646-.8l2.052,1.266a1.839,1.839,0,0,1,.7.787l4.317,9.22a1.835,1.835,0,0,1,.173.707l.068,1.676a1.829,1.829,0,0,1-.84,1.624,1.853,1.853,0,0,1-1.826.1Zm8.539,10.77a1.843,1.843,0,0,1-.551-2.023l.681-1.957a1.846,1.846,0,0,1,2-1.22l4.138.594a1.849,1.849,0,0,1,1.568,1.6l.657,5.255a1.827,1.827,0,0,1-.827,1.775,1.874,1.874,0,0,1-1.982.024A49.621,49.621,0,0,1,68.267,137.736Zm19.57,9.8a48.961,48.961,0,0,1-6.942-2.25,1.063,1.063,0,0,1-.021-1.954l3.734-1.64a1.843,1.843,0,0,1,1.309-.067l2.739.886a1.852,1.852,0,0,1,1.262,1.523L90.1,145.5a1.854,1.854,0,0,1-.605,1.615h0A1.826,1.826,0,0,1,87.837,147.536Zm8.608,1.3c-1.29-.077-2.581-.2-3.838-.378a1.832,1.832,0,0,1-1.549-1.595l-.179-1.409a1.845,1.845,0,0,1,1.747-2.075,1.891,1.891,0,0,1,.353.019l4.1.607a1.844,1.844,0,0,1,1.52,2.265l-.286,1.162A1.854,1.854,0,0,1,96.445,148.831Zm15.237-1.457a49.025,49.025,0,0,1-10.255,1.517l-.276.01a1.8,1.8,0,0,1-1.472-.674,1.841,1.841,0,0,1-.362-1.614l.344-1.4a1.842,1.842,0,0,1,1.15-1.289l7.991-2.959a1.85,1.85,0,0,1,2.21.762l1.778,2.879a1.851,1.851,0,0,1-1.108,2.764Zm9.106-3.345h0a48.816,48.816,0,0,1-4.914,2.057,1.4,1.4,0,0,1-1.619-.58l-3.006-4.867a1.371,1.371,0,0,1-.035-1.378l2.581-4.7a1.366,1.366,0,0,1,1.143-.709,1.386,1.386,0,0,1,.4.044l4.888,1.286a1.362,1.362,0,0,1,1.019,1.257l.3,6.288A1.369,1.369,0,0,1,120.788,144.029Zm11.361-7.627a49.366,49.366,0,0,1-7.823,5.736,1.393,1.393,0,0,1-1.36.028,1.36,1.36,0,0,1-.718-1.139L122,135.9a1.366,1.366,0,0,1,.409-1.043l3.789-3.712a1.381,1.381,0,0,1,1.43-.307l2.868,1.055a1.372,1.372,0,0,1,.73.63l1.2,2.205A1.364,1.364,0,0,1,132.149,136.4Zm4.814-4.811-2.109,2.2a1.365,1.365,0,0,1-1.182.415,1.381,1.381,0,0,1-1.041-.726,1.37,1.37,0,0,1,.812-1.969l2.941-.87a.636.636,0,0,1,.154-.026.578.578,0,0,1,.425.976ZM139,128.4a1.364,1.364,0,0,1-.924.927l-6.373,1.887a1.369,1.369,0,0,1-.861-.028l-3.088-1.136a1.363,1.363,0,0,1-.863-.981l-1.486-6.552a1.375,1.375,0,0,1,.289-1.187l4.59-5.424a1.365,1.365,0,0,1,1.158-.479l6.215.512a1.376,1.376,0,0,1,1.045.633l2.245,3.554a1.371,1.371,0,0,1,.156,1.117Zm5.393-8.852a49.259,49.259,0,0,1-3.665,6.811c-.1.154-.163.226-.241.21-.045-.021-.093-.167-.028-.385l1.446-4.926a1.372,1.372,0,0,1,.485-.7c.011-.008,1.225-.89,1.606-1.208a.424.424,0,0,1,.241-.108.184.184,0,0,1,.121.035A.224.224,0,0,1,144.389,119.552Zm1.034-2.519a1.4,1.4,0,0,1-.469.622l-1.971,1.484a1.37,1.37,0,0,1-1.981-.363l-1.717-2.718a1.377,1.377,0,0,1-.171-1.063l2.755-11.023a1.374,1.374,0,0,1,.642-.852l2.945-1.707a1.369,1.369,0,0,1,1.918.589l.811,1.677a1.409,1.409,0,0,1,.135.739A48.789,48.789,0,0,1,145.423,117.033Z" transform="translate(-38.344 -37.927)"/><g id="CLATHRIN_COATED_PIT-2" data-name="CLATHRIN_COATED_PIT"><path class="cls-2" d="M160.665,82.632l-4.415-10.42a1.407,1.407,0,0,0-.147-.272l-7.277-9.89-12.4-14.157-20.085-9.742a2.221,2.221,0,0,0-1.712-.1,2.247,2.247,0,0,0-1.278,1.148l-5.635,11.844a2.331,2.331,0,0,1-2.117,1.333l-12.963-.041a2.277,2.277,0,0,0-1.96,1.14L83.667,65.962a2.317,2.317,0,0,1-2.05,1.193L70.626,67.1a2.347,2.347,0,0,1-1.453-.516L58.763,58.2a2.232,2.232,0,0,0-3.146.35L46.973,69.408l-4.195,9.884L38.344,92.838l1.363,26.016,5.845,13.317c.025.055.046.091.04.075l7.24,10.069,9.85,8.07.135.09c.039.025.079.048.124.074l20.083,8.472a1.934,1.934,0,0,0,.235.081l15.621,3.349a2.291,2.291,0,0,0,.486.047l.1,0,15.938-2.313.263-.066a2.137,2.137,0,0,0,.252-.082l11.411-5.965,18.177-12.2,8.586-14.958,7.446-25.279.036-.2a2.05,2.05,0,0,0,.035-.267l.022-.141ZM45.694,124.321a.5.5,0,0,1-.483-.281s-2.435-5.289-2.438-5.346l-.571-10.9a.483.483,0,0,1,.418-.492.5.5,0,0,1,.563.333l2.094,6.891.891,9.278a.479.479,0,0,1-.375.5m6.768,9.864,5.129.685,2.079,7.4-3.575-2.912-3.684-5.145C52.529,134.165,52.539,134.166,52.562,134.17ZM133.3,57.117h0Zm.337-.17v0h0Zm-28.4,85.478a2.331,2.331,0,0,1-2.118.921L93.2,142.281a2.324,2.324,0,0,1-1.73-1.081L84.7,130.42a2.339,2.339,0,0,1,.275-2.841l8.5-9.063a2.331,2.331,0,0,1,1.583-.736l10.577-.554.094,0a2.351,2.351,0,0,1,2.283,1.722l3.654,13.4a2.322,2.322,0,0,1-.385,2.017Zm15.012-71.1,6.866.594a2.352,2.352,0,0,1,1.979,1.487l5.231,13.547a2.334,2.334,0,0,1,0,1.68l-3.663,9.533a2.334,2.334,0,0,1-2.77,1.423l-6.264-1.63a2.339,2.339,0,0,1-1.5-1.205L113.3,83.275a2.338,2.338,0,0,1,.032-2.173l4.659-8.568a2.337,2.337,0,0,1,2.025-1.22C120.1,71.313,120.172,71.316,120.249,71.323ZM92.2,86.288a2.332,2.332,0,0,1,2.019-1.32l13.168-.485a2.339,2.339,0,0,1,2.17,1.279l6.334,12.5a2.345,2.345,0,0,1-.125,2.33l-7.173,11.044a2.345,2.345,0,0,1-1.838,1.061l-11.066.58a2.348,2.348,0,0,1-2.109-1.1l-7.119-11.5a2.326,2.326,0,0,1-.118-2.246Zm47.751,32.894-2.775.145a2.327,2.327,0,0,1-2.451-2.14L133.6,103.634a2.346,2.346,0,0,1,.147-1.031l4.36-11.348a2.353,2.353,0,0,1,1.978-1.49l1.978-.173a2.337,2.337,0,0,1,2.417,1.579l3.826,11.3a2.333,2.333,0,0,1-.09,1.726l-6.261,13.624A2.331,2.331,0,0,1,139.951,119.182ZM68.64,101.233l-3.716,5.027a2.333,2.333,0,0,1-2.932.7l-5.365-2.707a2.338,2.338,0,0,1-1.281-2.214l.635-11.523a2.334,2.334,0,0,1,2.537-2.2l3.977.348a2.322,2.322,0,0,1,1.883,1.275l4.47,8.855A2.324,2.324,0,0,1,68.64,101.233Zm.244,20.705L67,112.234a2.34,2.34,0,0,1,.415-1.833l5.2-7.041a2.33,2.33,0,0,1,1.757-.945l6.277-.329.1,0a2.336,2.336,0,0,1,2.013,1.107l6.6,10.656a2.34,2.34,0,0,1-.282,2.828l-7.939,8.467a2.337,2.337,0,0,1-2.267.669l-8.258-2.047A2.344,2.344,0,0,1,68.885,121.938Zm46.763,8.031-3.756-13.777a2.34,2.34,0,0,1,.295-1.888l6.965-10.725a2.333,2.333,0,0,1,2.549-.989l5.887,1.533a2.34,2.34,0,0,1,1.74,2.067l1.188,14.271a2.354,2.354,0,0,1-.347,1.432l-5.44,8.707a2.365,2.365,0,0,1-1.985,1.1l-4.846-.008A2.343,2.343,0,0,1,115.647,129.969Zm35-55.436-5.893,9.407a2.348,2.348,0,0,1-1.777,1.087l-2.708.237a2.351,2.351,0,0,1-2.383-1.486l-5.074-13.141a2.343,2.343,0,0,1-.046-1.555l1.806-5.638A2.33,2.33,0,0,1,137.7,62l7.416,3.095a2.34,2.34,0,0,1,.981.77l4.452,6.04A2.324,2.324,0,0,1,150.65,74.533Zm-15.82-18.57-.194-.071a1.426,1.426,0,0,0-.371-.061,1.446,1.446,0,0,0-.4-.029,2.218,2.218,0,0,0-.468.085,1.734,1.734,0,0,0-.347.113,2.195,2.195,0,0,0-.406.253,1.881,1.881,0,0,0-.293.247,1.558,1.558,0,0,0-.231.318,1.426,1.426,0,0,0-.208.343l-2.771,8.622a2.342,2.342,0,0,1-2.427,1.616l-6.795-.588a2.35,2.35,0,0,1-1.774-1.081l-6.417-10.17a2.325,2.325,0,0,1-.133-2.251l3.82-8.029a2.334,2.334,0,0,1,3.13-1.1l14.7,7.13a2.324,2.324,0,0,1,.739.563l4.949,5.8ZM114.218,70.128l-4.709,8.661a2.347,2.347,0,0,1-1.967,1.219L94.174,80.5a2.286,2.286,0,0,1-2.153-1.245l-4.588-8.694a2.328,2.328,0,0,1,.03-2.235l5.8-10.32a2.337,2.337,0,0,1,2.01-1.192H95.3l10.67.034a2.324,2.324,0,0,1,1.969,1.09l6.2,9.827A2.339,2.339,0,0,1,114.218,70.128ZM88.372,83.945,82.406,96.307a2.338,2.338,0,0,1-1.983,1.318l-5.454.286a2.339,2.339,0,0,1-2.208-1.281L67.951,87.1a2.339,2.339,0,0,1-.2-1.552l2.654-12.137a2.349,2.349,0,0,1,2.257-1.838H72.7l8.841.047A2.333,2.333,0,0,1,83.6,72.868l4.733,8.971A2.347,2.347,0,0,1,88.372,83.945ZM66.231,71.608,63.9,82.255a2.347,2.347,0,0,1-2.486,1.828L55.3,83.548a2.357,2.357,0,0,1-1.036-.346l-4.88-3.048a2.327,2.327,0,0,1-.916-2.888l2.163-5.144a2.328,2.328,0,0,1,.326-.548l5.291-6.644a2.337,2.337,0,0,1,3.293-.365l5.871,4.724A2.322,2.322,0,0,1,66.231,71.608ZM50.538,86.141a2.337,2.337,0,0,1,1.1,2.11l-.824,14.959a2.349,2.349,0,0,1-.57,1.4l-.522.6a2.336,2.336,0,0,1-4.007-.885l-2.8-9.662-.065-1.232,2.357-7.209a2.337,2.337,0,0,1,3.46-1.256ZM48.865,113l3.44-3.952a2.335,2.335,0,0,1,2.815-.552l6.3,3.179a2.352,2.352,0,0,1,1.241,1.642l1.922,9.916a2.33,2.33,0,0,1-.664,2.119l-4.452,4.335a2.337,2.337,0,0,1-1.94.642l-6.035-.806a2.326,2.326,0,0,1-2.018-2.1L48.3,114.748A2.351,2.351,0,0,1,48.865,113Zm14.1,19.517,4.019-3.913a2.323,2.323,0,0,1,1.6-.663,2.347,2.347,0,0,1,.6.07l9.433,2.339a2.328,2.328,0,0,1,1.417,1.027l7.418,11.821a2.341,2.341,0,0,1,.076,2.353L83.9,152.254a2.325,2.325,0,0,1-2.961,1.043l-14-5.883a2.325,2.325,0,0,1-1.337-1.5l-3.247-11.072A2.331,2.331,0,0,1,62.965,132.514Zm25.792,20.143,2.5-4.632a2.316,2.316,0,0,1,2.306-1.213l9.758,1.048a2.353,2.353,0,0,1,1.581.871l3.5,4.409a2.337,2.337,0,0,1-1.494,3.765l-7.078,1.031A2.3,2.3,0,0,1,99,157.91l-8.68-1.856a2.337,2.337,0,0,1-1.567-3.4Zm20.609-8.293,5.456-7.274a2.347,2.347,0,0,1,1.843-.935h.03l4.25.007a2.338,2.338,0,0,1,2.33,2.215l.573,10.934A2.344,2.344,0,0,1,122.6,151.5l-5.2,2.731a2.339,2.339,0,0,1-2.916-.617l-5.076-6.4A2.338,2.338,0,0,1,109.366,144.364Zm18.57-10.466,5.565-8.908a2.341,2.341,0,0,1,1.86-1.1l6.414-.336.094,0a2.348,2.348,0,0,1,1.043.231l3.865,1.864a2.336,2.336,0,0,1,1.012,3.268l-5.368,9.352a2.355,2.355,0,0,1-.726.779l-10.018,6.725a2.337,2.337,0,0,1-3.637-1.818l-.456-8.7A2.329,2.329,0,0,1,127.936,133.9Zm19.247-13.011a1.6,1.6,0,0,1-.757-2.1l5.878-12.792a1.6,1.6,0,0,1,2.579-.464,1.575,1.575,0,0,1,.4,1.575l-4,13.7a1.594,1.594,0,0,1-2.223.99Zm7.4-20.789a2.329,2.329,0,0,1-2.873-1.493l-3.458-10.213a2.329,2.329,0,0,1,.233-1.991l2.956-4.72c1.275-2.149,2.022-2.309,2.207-2.312h.023c.235.015.89.307,1.888,2.662l.525,1.238a2.337,2.337,0,0,1,.182.79l.705,13.462a2.33,2.33,0,0,1-1.674,2.364Z" transform="translate(-38.344 -37.927)"/><path class="cls-3" d="M158.921,100.972l-.944-17.9-4.3-10.15c-.012-.018-.084-.14-.094-.159l-7.08-9.594L134.357,49.3l-19.781-9.594a.567.567,0,0,0-.439-.025.576.576,0,0,0-.327.294l-5.635,11.845a4,4,0,0,1-3.624,2.28l-12.968-.041a.579.579,0,0,0-.5.292L84.073,66.839a4,4,0,0,1-3.508,2.041l-10.991-.058a4.014,4.014,0,0,1-2.486-.884L56.678,59.563a.6.6,0,0,0-.424-.122.571.571,0,0,0-.381.212L47.279,70.444,43.3,79.915,38.977,93.124l1.331,25.4,5.713,13.017-.447.363h0l.516-.244,7,9.679,9.57,7.795.15.085,19.815,8.329c.021.005.141.042.162.049l15.388,3.286a.576.576,0,0,0,.149.012l15.8-2.3.146-.052a.931.931,0,0,1,.133-.045l11.108-5.842,17.7-11.889,8.409-14.649a.526.526,0,0,1,.024-.067l7.252-24.822.58-.111h0l-.571-.023C158.907,101.073,158.916,101,158.921,100.972ZM146.392,64.943l4.452,6.039a3.978,3.978,0,0,1,.17,4.5l-5.893,9.407a4.017,4.017,0,0,1-3.04,1.861l-2.708.237-.137.01a4.018,4.018,0,0,1-3.942-2.554L130.22,71.3a4.013,4.013,0,0,1-.078-2.66L131.949,63a4,4,0,0,1,5.348-2.47l7.416,3.095A3.993,3.993,0,0,1,146.392,64.943ZM65.039,109.476l5.2-7.042a3.986,3.986,0,0,1,3.006-1.616l6.277-.329a4,4,0,0,1,3.61,1.888l6.6,10.655a4.007,4.007,0,0,1-.484,4.841l-7.94,8.466a4,4,0,0,1-3.879,1.146l-8.258-2.048a4.014,4.014,0,0,1-2.964-3.121l-1.881-9.7A4.006,4.006,0,0,1,65.039,109.476Zm-2.826-.546A4,4,0,0,1,60.2,108.5L54.836,105.8a4,4,0,0,1-2.192-3.791l.635-11.523A4,4,0,0,1,57.62,86.72h0l3.977.348a3.975,3.975,0,0,1,3.221,2.182L69.288,98.1a3.978,3.978,0,0,1-.354,4.179l-3.716,5.027A3.989,3.989,0,0,1,62.213,108.929Zm20.508,17.576,8.5-9.063a3.981,3.981,0,0,1,2.707-1.258l10.577-.554a4.021,4.021,0,0,1,4.068,2.942l3.654,13.4a3.972,3.972,0,0,1-.659,3.451l-6.045,8.059a4.021,4.021,0,0,1-3,1.593,3.952,3.952,0,0,1-.628-.017L91.975,144a3.975,3.975,0,0,1-2.961-1.851L82.25,131.366A4,4,0,0,1,82.721,126.505ZM105.8,114.418,94.733,115a4,4,0,0,1-3.61-1.888L84,101.609a3.979,3.979,0,0,1-.2-3.843L89.66,85.628a4.075,4.075,0,0,1,3.455-2.258l13.167-.485A4.011,4.011,0,0,1,110,85.074l6.334,12.5a4.009,4.009,0,0,1-.213,3.986L108.943,112.6A4.009,4.009,0,0,1,105.8,114.418Zm4.979-30.33a4,4,0,0,1,.053-3.717l4.659-8.568a3.988,3.988,0,0,1,3.858-2.073l6.866.594a4.023,4.023,0,0,1,3.386,2.544l5.231,13.548a3.988,3.988,0,0,1,0,2.874l-3.662,9.534a3.995,3.995,0,0,1-4.741,2.436l-6.264-1.631a4,4,0,0,1-2.559-2.061Zm20.37,17.981,4.361-11.348a4.024,4.024,0,0,1,3.384-2.549L140.871,88a3.987,3.987,0,0,1,4.136,2.7l3.827,11.3a3.985,3.985,0,0,1-.154,2.953l-6.261,13.624a3.988,3.988,0,0,1-3.425,2.324l-2.775.145a3.981,3.981,0,0,1-4.195-3.662h0L130.9,103.836A4.039,4.039,0,0,1,131.148,102.07Zm-22.1-49.413,3.819-8.029a4,4,0,0,1,5.356-1.88h0l14.7,7.13a3.987,3.987,0,0,1,1.262.963l5.009,5.717a1.714,1.714,0,0,1-1.95,2.711L133.2,57.58a.592.592,0,0,1-.061-.016.467.467,0,0,1-.058-.024l-.135-.008-.155.02-.153.062-.5-.336h0l.374.427c-.056.095-.085.14-.108.171l0,.014a.608.608,0,0,1-.033.072l-2.689,8.39a3.975,3.975,0,0,1-3.587,2.774,4.024,4.024,0,0,1-.565-.01l-6.795-.588a4.019,4.019,0,0,1-3.037-1.85l-6.417-10.17A3.978,3.978,0,0,1,109.045,52.657ZM84.97,67.575l5.8-10.319a3.983,3.983,0,0,1,3.5-2.041l10.669.034a3.979,3.979,0,0,1,3.369,1.865l6.2,9.827a4,4,0,0,1,.131,4.044l-4.709,8.661a4.019,4.019,0,0,1-3.3,2.083l-.062,0-13.368.492a4.02,4.02,0,0,1-3.684-2.13L84.92,71.4A3.983,3.983,0,0,1,84.97,67.575ZM67.741,73.12a3.985,3.985,0,0,1,3.928-3.144l8.841.046a3.992,3.992,0,0,1,3.516,2.133l4.734,8.971a4.014,4.014,0,0,1,.065,3.6L82.859,97.093a4,4,0,0,1-3.392,2.255l-5.454.286a4,4,0,0,1-3.779-2.191l-4.809-9.529a4.016,4.016,0,0,1-.337-2.656ZM45.893,76.683l2.164-5.144a4.021,4.021,0,0,1,.559-.94l5.29-6.643a4,4,0,0,1,5.635-.624l5.872,4.724a3.975,3.975,0,0,1,1.4,3.97L64.483,82.672A4,4,0,0,1,60.227,85.8l-6.116-.535a4.027,4.027,0,0,1-1.771-.592l-4.879-3.049A3.984,3.984,0,0,1,45.893,76.683ZM44.9,124.95a.57.57,0,0,1-.666-.323l-2.753-6.272a.568.568,0,0,1-.047-.2l-.691-13.178a.571.571,0,0,1,1.119-.189l2.413,8.337,1.05,11.219A.571.571,0,0,1,44.9,124.95ZM43.07,104.855l-2.832-9.783a.57.57,0,0,1-.022-.129l-.082-1.561a.566.566,0,0,1,.028-.208l2.421-7.4A4,4,0,0,1,48.5,83.624l1.872,1.17a4,4,0,0,1,1.874,3.612l-.824,14.959a4.021,4.021,0,0,1-.976,2.4l-.521.6a3.942,3.942,0,0,1-2.783,1.372,4.082,4.082,0,0,1-1.1-.092A3.945,3.945,0,0,1,43.07,104.855Zm3.707,22.781L45.6,114.964a4.017,4.017,0,0,1,.965-2.994l3.439-3.952a4,4,0,0,1,4.818-.945l6.3,3.179a4.026,4.026,0,0,1,2.125,2.809l1.922,9.916a3.986,3.986,0,0,1-1.137,3.626l-4.453,4.336a3.974,3.974,0,0,1-2.571,1.129,4.015,4.015,0,0,1-.747-.031l-6.036-.806A3.979,3.979,0,0,1,46.777,127.636ZM59.708,143.7a1.723,1.723,0,0,1-.865.291,1.7,1.7,0,0,1-1.166-.39l-3.688-3a.549.549,0,0,1-.1-.108l-3.763-5.2a1.714,1.714,0,0,1,1.615-2.7l5.84.78a.572.572,0,0,1,.473.406l2.352,8.022A1.684,1.684,0,0,1,59.708,143.7Zm21.306,11.5a4.01,4.01,0,0,1-1.766-.31l-14-5.883a3.98,3.98,0,0,1-2.288-2.562l-3.247-11.072a3.991,3.991,0,0,1,1.048-3.991l4.02-3.913a3.974,3.974,0,0,1,3.752-1.017l9.433,2.339a3.986,3.986,0,0,1,2.425,1.756l7.418,11.822a4,4,0,0,1,.131,4.026l-3.623,6.707A3.985,3.985,0,0,1,81.014,155.2Zm28.229.928a3.958,3.958,0,0,1-3.141,2.482l-7.077,1.031c-.123.018-.246.03-.37.037a3.988,3.988,0,0,1-1.042-.083l-8.68-1.856a4,4,0,0,1-2.682-5.812l2.5-4.632a3.985,3.985,0,0,1,3.945-2.075l9.758,1.048a4.021,4.021,0,0,1,2.707,1.491l3.5,4.409A3.956,3.956,0,0,1,109.243,156.131Zm15.221-6.843a4.01,4.01,0,0,1-2.135,3.75l-5.2,2.731a4,4,0,0,1-4.992-1.056h0l-5.076-6.4a4,4,0,0,1-.066-4.885l5.456-7.274a4.017,4.017,0,0,1,3.206-1.6l4.25.007a4,4,0,0,1,3.987,3.789Zm-2.545-15.869c-.074,0-.147.006-.222.005h0l-4.846-.009A4.008,4.008,0,0,1,113,130.469l-3.756-13.778a4,4,0,0,1,.5-3.23l6.965-10.725a3.992,3.992,0,0,1,4.362-1.692l5.887,1.533a4,4,0,0,1,2.978,3.538l1.189,14.271a4.024,4.024,0,0,1-.594,2.45l-5.439,8.707A3.973,3.973,0,0,1,121.92,133.418Zm26.267-3.61-5.368,9.353a4.028,4.028,0,0,1-1.24,1.329l-10.018,6.726a4,4,0,0,1-6.222-3.111l-.456-8.7a3.98,3.98,0,0,1,.6-2.328l5.564-8.908a4,4,0,0,1,3.183-1.875l6.415-.336a4.007,4.007,0,0,1,1.946.391l3.864,1.863a4,4,0,0,1,1.732,5.593Zm7.654-22.176-4,13.7a3.256,3.256,0,0,1-4.541,2.021l-1.886-.909a3.273,3.273,0,0,1-1.545-4.293l5.878-12.792a3.256,3.256,0,0,1,2.04-1.764,3.256,3.256,0,0,1,4.05,4.034ZM157.589,97.5a3.985,3.985,0,0,1-2.865,4.046l-.715.21a4.04,4.04,0,0,1-.93.16,3.988,3.988,0,0,1-3.987-2.713l-3.458-10.214a3.981,3.981,0,0,1,.4-3.4l2.943-4.7c1.288-2.173,2.524-3.194,3.764-3.11,1.6.108,2.606,2.019,3.306,3.673l.525,1.238a3.985,3.985,0,0,1,.312,1.351Z" transform="translate(-38.344 -37.927)"/></g></svg>