<svg id="Layer_1" data-name="Layer 1" xmlns="http://www.w3.org/2000/svg" xmlns:xlink="http://www.w3.org/1999/xlink" viewBox="0 0 160.348 154.788"><defs><style>.cls-1{fill:url(#radial-gradient);}.cls-2{fill:#795ba8;}.cls-3{isolation:isolate;}.cls-4{fill:url(#radial-gradient-2);}.cls-5{fill:#5656a5;}.cls-6{fill:url(#radial-gradient-3);}.cls-7{fill:#4b4b96;}.cls-8{fill:url(#linear-gradient);}.cls-9{fill:#ad342d;}.cls-10{fill:url(#radial-gradient-4);}.cls-11{fill:url(#radial-gradient-5);}.cls-12{fill:url(#radial-gradient-6);}.cls-13,.cls-14{stroke:#964a7b;stroke-linecap:round;stroke-miterlimit:10;stroke-width:2px;}.cls-13{fill:url(#radial-gradient-7);}.cls-14{fill:url(#radial-gradient-8);}</style><radialGradient id="radial-gradient" cx="105.412" cy="82.201" fx="83.87080570220536" r="93.811" gradientTransform="matrix(0.693, 0.721, -0.445, 0.427, 68.976, -28.953)" gradientUnits="userSpaceOnUse"><stop offset="0" stop-color="#fff"/><stop offset="1" stop-color="#b48fdd"/></radialGradient><radialGradient id="radial-gradient-2" cx="427.939" cy="544.94" r="29.373" gradientTransform="translate(780.487 -136.751) rotate(109.359)" gradientUnits="userSpaceOnUse"><stop offset="0" stop-color="#afbaf7"/><stop offset="0.311" stop-color="#6d96ce"/><stop offset="0.803" stop-color="#285fcc"/></radialGradient><radialGradient id="radial-gradient-3" cx="422.393" cy="554.136" r="5.669" gradientTransform="translate(768.97 -134.48) rotate(109.359)" gradientUnits="userSpaceOnUse"><stop offset="0" stop-color="#afbaf7"/><stop offset="0.312" stop-color="#b898ce"/><stop offset="0.803" stop-color="#515181"/></radialGradient><linearGradient id="linear-gradient" x1="390.481" y1="559.512" x2="369.041" y2="563.764" gradientTransform="translate(223.907 -606.448) rotate(47.047)" gradientUnits="userSpaceOnUse"><stop offset="0" stop-color="#d86e66"/><stop offset="1" stop-color="#a33029"/></linearGradient><radialGradient id="radial-gradient-4" cx="296.028" cy="690.708" r="3.774" gradientTransform="matrix(-0.331, 0.943, -0.943, -0.331, 900.217, 43.155)" gradientUnits="userSpaceOnUse"><stop offset="0" stop-color="#d8ba5d"/><stop offset="1" stop-color="#1da075"/></radialGradient><radialGradient id="radial-gradient-5" cx="320.987" cy="693.59" r="2.581" gradientTransform="translate(925.782 40.601) rotate(109.359)" xlink:href="#radial-gradient-4"/><radialGradient id="radial-gradient-6" cx="312.28" cy="707.114" r="2.693" gradientTransform="matrix(-0.331, 0.943, -0.943, -0.331, 919.729, 56.11)" xlink:href="#radial-gradient-4"/><radialGradient id="radial-gradient-7" cx="113.189" cy="73.644" r="68.781" gradientTransform="matrix(1, -0.019, -0.019, -1, 15.218, 172.275)" gradientUnits="userSpaceOnUse"><stop offset="0.727" stop-color="#e97be4"/><stop offset="0.806" stop-color="#e3b8de"/><stop offset="0.821" stop-color="#e3a7d2"/><stop offset="0.84" stop-color="#e298c7"/><stop offset="0.863" stop-color="#e290c1"/><stop offset="0.897" stop-color="#e28dbf"/><stop offset="1" stop-color="#e97be4"/></radialGradient><radialGradient id="radial-gradient-8" cx="615.014" cy="-198.993" r="68.781" gradientTransform="matrix(0.382, 0.924, 0.924, -0.382, 69.243, -560.362)" xlink:href="#radial-gradient-7"/></defs><title>infected_cell</title><g id="INFECTED_CELL"><g id="MEMBRANE"><path id="CYTOPLASM" class="cls-1" d="M182.739,136.8c20.292-51.5-43.175-106.53-70.055-115.3C87.066,13.138,46.7,31.845,33.941,55.516c-17.414,35.854,7.43,63.21,34.878,87.755C109.315,179.473,162.447,188.3,182.739,136.8Z" transform="translate(-27.17 -18.642)"/><path class="cls-2" d="M186.037,101.776a72.246,72.246,0,0,0-5.38-15.28q-1.7-3.547-3.741-6.9-1.937-3.554-4.231-7.12c-1.607-2.491-3.307-4.912-5.069-7.265q-2.113-3.1-4.448-6.047a125.043,125.043,0,0,0-11.009-12.131,126.813,126.813,0,0,0-12.491-10.6q-3.222-2.4-6.626-4.544c-2.437-1.7-4.789-3.235-6.984-4.545a75.682,75.682,0,0,0-10.891-5.472,44.123,44.123,0,0,0-11.226-2.938,64.7,64.7,0,0,0-23.664,2.286,84.038,84.038,0,0,0-21.737,9.553,79.026,79.026,0,0,0-8.315,5.9,71.108,71.108,0,0,0-9.983,9.139,51.8,51.8,0,0,0-5.682,7.651l-.028.039a22.1,22.1,0,0,0-1.24,2.072l-1.047,2.163c-.34.725-.721,1.438-1.009,2.185l-.865,2.244a47.43,47.43,0,0,0-3.15,18.953,49.386,49.386,0,0,0,4.649,18.643,62.712,62.712,0,0,0,4.094,7.45,92.052,92.052,0,0,0,5.921,8.827,134.8,134.8,0,0,0,8.8,10.411c2.78,3.174,5.7,6.229,8.7,9.19,3.111,3.086,6.312,6.066,9.568,9s6.711,5.68,10.223,8.326q5.332,3.887,11.026,7.245a111.1,111.1,0,0,0,11.787,5.929,86.408,86.408,0,0,0,10.682,3.786,77.534,77.534,0,0,0,14.689,3.128,63.092,63.092,0,0,0,6.826.378c1.3,0,2.579-.047,3.843-.133a47.333,47.333,0,0,0,8.15-.935,45.018,45.018,0,0,0,17.358-7.558,50.129,50.129,0,0,0,12.823-13.92,55.816,55.816,0,0,0,4.132-7.775q1.449-2.929,2.712-6.123c.409-1.039.793-2.1,1.138-3.156h0a55.8,55.8,0,0,0,1.953-7.846,50.505,50.505,0,0,0,1.123-8.038A58.191,58.191,0,0,0,186.037,101.776Zm-2.643,31.742c-.341,1.037-.718,2.08-1.119,3.1-.782,1.985-1.627,3.882-2.521,5.71a72.962,72.962,0,0,1-4.693,7.691c-.9,1.252-1.868,2.445-2.777,3.681-.964,1.193-2.032,2.3-3.039,3.449-1.069,1.094-2.2,2.123-3.3,3.189-1.185.962-2.371,1.926-3.584,2.848a48.347,48.347,0,0,1-16.529,7.66,58.754,58.754,0,0,1-9.2,1.527,60.4,60.4,0,0,1-9.164-.316A75.492,75.492,0,0,1,114.7,169.47a98.736,98.736,0,0,1-12.071-4.757,133.318,133.318,0,0,1-22.266-13.359,238.636,238.636,0,0,1-19.9-16.84c-3.044-2.831-6.049-5.706-8.969-8.669a134,134,0,0,1-8.807-10.411q-2.887-3.826-5.178-7.586a85.664,85.664,0,0,1-4.2-8.708c-.324-.713-.568-1.456-.825-2.193l-.791-2.2-.64-2.247a21.216,21.216,0,0,1-.572-2.26l-.49-2.278c-.175-.757-.231-1.534-.352-2.3-.089-.77-.252-1.533-.281-2.308l-.134-2.321a18.573,18.573,0,0,1-.044-2.323l.035-2.326c.147-1.543.258-3.093.484-4.628a56.383,56.383,0,0,1,2.147-9.082l.735-2.228c.245-.744.584-1.447.861-2.179l.877-2.18a14.443,14.443,0,0,1,.657-1.344,49.989,49.989,0,0,1,6.018-8.267,71.936,71.936,0,0,1,6.682-6.552,96.434,96.434,0,0,1,11.665-7.8,94.259,94.259,0,0,1,21.479-8.971,69.64,69.64,0,0,1,22.978-2.664l2.874.364,1.44.184c.477.078.941.211,1.413.313l2.828.658c.789.214,1.563.481,2.338.755A74.371,74.371,0,0,1,125.547,28.2c2.23,1.332,4.623,2.894,7.1,4.632q3.069,2.369,6.055,4.827c4.154,3.457,8.194,7.043,12.064,10.8,3.895,3.737,7.616,7.651,11.2,11.691q2.578,2.933,5.064,5.957c1.667,2.239,3.28,4.536,4.806,6.9,1.415,2.193,2.833,4.56,4.2,7.073,1.13,2.324,2.2,4.668,3.187,7.046a92.321,92.321,0,0,1,4.855,15.081,69.44,69.44,0,0,1,1.779,15.682,64.64,64.64,0,0,1-.491,7.563,55.022,55.022,0,0,1-1.981,8.058Z" transform="translate(-27.17 -18.642)"/></g><g id="NUCLEUS"><g id="NUCLEUS-2" data-name="NUCLEUS" class="cls-3"><circle class="cls-4" cx="113.745" cy="88.707" r="22.35" transform="translate(-44.826 129.567) rotate(-62.312)"/><path class="cls-5" d="M96.787,104.495a23.17,23.17,0,1,1,32.746,1.17A23.206,23.206,0,0,1,96.787,104.495ZM129.5,74.04a21.528,21.528,0,1,0-1.093,30.426A21.55,21.55,0,0,0,129.5,74.04Z" transform="translate(-27.17 -18.642)"/></g><g id="NUCLEOLUS"><circle class="cls-6" cx="106.109" cy="80.318" r="4.56" transform="translate(-41.486 118.314) rotate(-62.312)"/><path class="cls-7" d="M102.591,83.6a4.79,4.79,0,1,1,6.768.209A4.777,4.777,0,0,1,102.591,83.6Zm6.706-6.238a4.352,4.352,0,1,0-.223,6.15A4.36,4.36,0,0,0,109.3,77.361Z" transform="translate(-27.17 -18.642)"/></g></g><g id="MITOCHONDRION"><path class="cls-8" d="M93.572,50.125c-.327-2.95-5.115-5.79-9.345-6.79-6.372-1.48-17.391,5.917-22.92,13.484-3.36,4.6-3.176,7.56-2.422,9.221a5.042,5.042,0,0,0,.882,1.31,7.052,7.052,0,0,0,4.555,1.995,10.541,10.541,0,0,0,9.428-4.279c3.627-5.449,7.752-7.112,12.537-9.085,1.416-.59,2.886-1.174,4.4-1.9C93.342,52.76,93.739,51.206,93.572,50.125Z" transform="translate(-27.17 -18.642)"/><path class="cls-9" d="M87.269,54.26c-.152-.7-1.994-2.808-3-3.946-1.846-2.1-2.432-2.79-2.321-3.454a.927.927,0,0,1,.4-.538c.858-.408,1.786.643,3.984,3.254,1.058,1.255,2.789,3.293,3.393,3.52a1.611,1.611,0,0,1,.438-.188c1.568-.792,2.327-1.659,2.222-2.685-.246-2.071-4.16-4.769-8.4-5.707a11.314,11.314,0,0,0-6.28.906,23,23,0,0,0,2.7,3.493c2.235,2.584,3.15,3.81,3,4.67a.864.864,0,0,1-.456.653c-1.036.575-2.059-.832-3.615-2.925-1.468-2-3.716-5.078-4.993-4.28a38.372,38.372,0,0,0-7.01,5.074c.118.615,1.827,2.393,2.867,3.447,2.3,2.4,3.976,4.153,3.006,5.225a.847.847,0,0,1-.739.29c-.809-.029-1.618-.962-3.154-2.728-.45-.541-.979-1.169-1.5-1.738-1.012-1.084-2.027-1.99-2.752-1.986a.781.781,0,0,0-.565.3c-.787.9-1.515,1.746-2.131,2.6-2.628,3.567-3.319,6.627-1.961,8.559,1.3,1.877,4.383,2.537,7.5,1.663a.065.065,0,0,0,.064-.057c.051-.549-2.125-2.515-3.166-3.457-1.916-1.751-2.988-2.72-2.378-3.518a1.069,1.069,0,0,1,.71-.384c.937-.085,2.088.971,4.05,2.848,1.067,1.023,3.289,3.115,3.878,2.961a8.413,8.413,0,0,0,1.69-1.8A21.485,21.485,0,0,1,77.185,59.4c.091-.088.15-.136.157-.256.064-.96-1.867-3.092-3.182-4.5-1.625-1.745-2.465-2.705-2.374-3.459a.947.947,0,0,1,.4-.659c1.165-.8,2.586.9,4.6,3.248.9,1.024,3.179,3.712,3.712,3.45,1.718-.928,3.463-1.65,5.317-2.428C86.318,54.631,86.765,54.447,87.269,54.26Z" transform="translate(-27.17 -18.642)"/></g><g id="LYSOSOME"><circle id="LYSOSOME-2" data-name="LYSOSOME" class="cls-10" cx="149.148" cy="93.753" r="3" transform="translate(-30.342 163.618) rotate(-62.312)"/><circle id="LYSOSOME-3" data-name="LYSOSOME" class="cls-11" cx="164.043" cy="113.619" r="2.59" transform="translate(-39.959 187.442) rotate(-62.312)"/><circle id="LYSOSOME-4" data-name="LYSOSOME" class="cls-12" cx="148.191" cy="116.367" r="2.67" transform="translate(-50.879 174.877) rotate(-62.312)"/></g><g id="PATHOGEN"><path class="cls-13" d="M119.926,162.69a41.588,41.588,0,0,1-11.732-2.565,6.711,6.711,0,0,1,5.176-12.383c2.8,1.178,8.305,1.885,14.358,1.865,6.835-.027,11.058-.951,11.934-1.372a6.708,6.708,0,0,1,5.865,12.067c-4.959,2.412-14.027,2.713-17.7,2.731C125.784,163.042,122.962,162.973,119.926,162.69Z" transform="translate(-27.17 -18.642)"/></g><g id="PATHOGEN-2" data-name="PATHOGEN"><path class="cls-14" d="M56.291,101.589a41.857,41.857,0,0,1-1.9-11.859,6.706,6.706,0,0,1,13.409.294c-.068,3.036,1.275,8.416,3.5,14.047,2.519,6.347,4.922,9.946,5.634,10.613a6.707,6.707,0,0,1-9.086,9.868c-4.051-3.729-7.636-12.07-9-15.483C58.109,107.162,57.137,104.517,56.291,101.589Z" transform="translate(-27.17 -18.642)"/></g></g></svg>