<svg id="Layer_1" data-name="Layer 1" xmlns="http://www.w3.org/2000/svg" xmlns:xlink="http://www.w3.org/1999/xlink" viewBox="0 0 100 116.533"><defs><style>.cls-1{fill:url(#linear-gradient);}.cls-2{fill:url(#linear-gradient-2);}.cls-3{mask:url(#mask);}.cls-4{fill:url(#radial-gradient);}.cls-5{mask:url(#mask-2);}.cls-6{fill:url(#radial-gradient-2);}.cls-7{fill:#fff;}.cls-8{fill:url(#radial-gradient-3);}.cls-9{fill:url(#radial-gradient-4);}</style><linearGradient id="linear-gradient" x1="53.775" y1="110.34" x2="70.332" y2="153.533" gradientUnits="userSpaceOnUse"><stop offset="0.761" stop-color="#fff"/><stop offset="0.789" stop-color="#fbfbfb"/><stop offset="0.819" stop-color="#eee"/><stop offset="0.849" stop-color="#d9d9d9"/><stop offset="0.88" stop-color="#bbb"/><stop offset="0.912" stop-color="#949494"/><stop offset="0.944" stop-color="#656565"/><stop offset="0.976" stop-color="#2f2f2f"/><stop offset="1"/></linearGradient><linearGradient id="linear-gradient-2" x1="116.444" y1="39.407" x2="116.444" y2="84.767" gradientUnits="userSpaceOnUse"><stop offset="0.278"/><stop offset="0.337" stop-color="#2a2a2a"/><stop offset="0.47" stop-color="#848484"/><stop offset="0.578" stop-color="#c6c6c6"/><stop offset="0.656" stop-color="#efefef"/><stop offset="0.696" stop-color="#fff"/></linearGradient><mask id="mask" x="-5.38" y="72.915" width="38.571" height="44.241" maskUnits="userSpaceOnUse"><g transform="translate(-50 -41.733)"><rect class="cls-1" x="44.62" y="114.648" width="38.571" height="44.241"/></g></mask><radialGradient id="radial-gradient" cx="66.643" cy="137.832" r="19.01" gradientTransform="translate(0 -37.953) scale(1 1.275)" gradientUnits="userSpaceOnUse"><stop offset="0.404" stop-color="#733e45"/><stop offset="0.44" stop-color="#875158"/><stop offset="0.508" stop-color="#a96f76"/><stop offset="0.573" stop-color="#c1858b"/><stop offset="0.633" stop-color="#cf9298"/><stop offset="0.684" stop-color="#d4979d"/><stop offset="0.728" stop-color="#ce9298"/><stop offset="0.786" stop-color="#bd8288"/><stop offset="0.852" stop-color="#a2696f"/><stop offset="0.923" stop-color="#7c464d"/><stop offset="0.938" stop-color="#733e45"/></radialGradient><mask id="mask-2" x="43.764" y="-2.327" width="45.36" height="45.36" maskUnits="userSpaceOnUse"><g transform="translate(-50 -41.733)"><rect class="cls-2" x="93.764" y="39.407" width="45.36" height="45.36"/></g></mask><radialGradient id="radial-gradient-2" cx="117.795" cy="63.751" r="18.84" gradientUnits="userSpaceOnUse"><stop offset="0.276" stop-color="#733e45"/><stop offset="0.328" stop-color="#8a535a"/><stop offset="0.413" stop-color="#aa7177"/><stop offset="0.494" stop-color="#c1868c"/><stop offset="0.571" stop-color="#cf9399"/><stop offset="0.638" stop-color="#d4979d"/><stop offset="0.716" stop-color="#c4898f"/><stop offset="0.867" stop-color="#9c636a"/><stop offset="1" stop-color="#733e45"/></radialGradient><radialGradient id="radial-gradient-3" cx="109.747" cy="103.482" r="52.378" gradientTransform="translate(-26.303 134.749) rotate(-51.114) scale(1 0.834)" gradientUnits="userSpaceOnUse"><stop offset="0.489" stop-color="#d4979d"/><stop offset="0.662" stop-color="#a26970"/><stop offset="0.812" stop-color="#733e45"/></radialGradient><radialGradient id="radial-gradient-4" cx="99.208" cy="103.49" r="56.41" gradientTransform="translate(-30.231 126.549) rotate(-51.114) scale(1 0.834)" gradientUnits="userSpaceOnUse"><stop offset="0.23" stop-color="#733e45"/><stop offset="0.346" stop-color="#7a444b" stop-opacity="0.928"/><stop offset="0.529" stop-color="#8d565d" stop-opacity="0.732"/><stop offset="0.757" stop-color="#ac7279" stop-opacity="0.411"/><stop offset="1" stop-color="#d4979d" stop-opacity="0"/></radialGradient></defs><title>Stomach</title><g id="Stomach"><g class="cls-3"><path class="cls-4" d="M83.191,120.69a7.076,7.076,0,0,0-3.639.136h0c-5.628-2.959-10.07-5.3-14.672-4.787C47.639,117.964,45.708,144,57.388,158.267H67.965l.729-3.79-2.85-2.92c-7.147-8.728-6.945-15.228-4.731-19.518,1.382-2.678,2.852-3.347,5.063-3.606,2.983.35,4.432,1.771,7.022,3.131a8.366,8.366,0,0,0,1.29,3.511Z" transform="translate(-50 -41.733)"/></g><g class="cls-5"><path class="cls-6" d="M98.346,41.733V60.182a20.608,20.608,0,0,0,12.377,19.256c.932.419,1.916.819,2.919,1.193a14.152,14.152,0,0,0,.113,3.423l15.181-15.181a14.214,14.214,0,0,0-8,1.061,40.533,40.533,0,0,1-4.095-1.429l-.117-.048a9.649,9.649,0,0,1-5.913-8.919v-17.8Z" transform="translate(-50 -41.733)"/></g><g id="Stomach-2" data-name="Stomach"><path class="cls-7" d="M128.936,68.873c-10.323-1.417-16.478,6.9-15.181,15.181,4.655,29.715-12.893,40.563-30.564,36.636-7.287-1.619-12.752,8.232-8.7,14.384,4.708,7.155,45.946,29.957,68.212-8.141C161.726,94.377,138.663,70.208,128.936,68.873Z" transform="translate(-50 -41.733)"/><path class="cls-8" d="M128.936,68.873c-10.323-1.417-16.478,6.9-15.181,15.181,4.655,29.715-12.893,40.563-30.564,36.636-7.287-1.619-12.752,8.232-8.7,14.384,4.708,7.155,45.946,29.957,68.212-8.141C161.726,94.377,138.663,70.208,128.936,68.873Z" transform="translate(-50 -41.733)"/><path class="cls-9" d="M128.936,68.873c-10.323-1.417-16.478,6.9-15.181,15.181,4.655,29.715-12.893,40.563-30.564,36.636-7.287-1.619-12.752,8.232-8.7,14.384,4.708,7.155,45.946,29.957,68.212-8.141C161.726,94.377,138.663,70.208,128.936,68.873Z" transform="translate(-50 -41.733)"/></g></g></svg>