<svg id="Layer_1" data-name="Layer 1" xmlns="http://www.w3.org/2000/svg" xmlns:xlink="http://www.w3.org/1999/xlink" viewBox="0 0 21.081 100.557"><defs><style>.cls-1,.cls-2,.cls-3,.cls-4,.cls-5{fill:#b16d00;stroke-linecap:round;stroke-linejoin:round;stroke-width:2px;}.cls-1{stroke:url(#linear-gradient);}.cls-2{stroke:url(#linear-gradient-2);}.cls-3{stroke:url(#linear-gradient-3);}.cls-4{stroke:url(#linear-gradient-4);}.cls-5{stroke:url(#linear-gradient-5);}</style><linearGradient id="linear-gradient" x1="-139.739" y1="-374.149" x2="-118.658" y2="-374.149" gradientTransform="translate(139.739 386.265)" gradientUnits="userSpaceOnUse"><stop offset="0" stop-color="#041330"/><stop offset="1" stop-color="#b16d00"/></linearGradient><linearGradient id="linear-gradient-2" x1="-120.658" y1="-374.149" x2="-99.577" y2="-374.149" gradientTransform="translate(120.658 405.346)" xlink:href="#linear-gradient"/><linearGradient id="linear-gradient-3" x1="-101.577" y1="-374.149" x2="-80.495" y2="-374.149" gradientTransform="translate(101.577 424.428)" xlink:href="#linear-gradient"/><linearGradient id="linear-gradient-4" x1="-82.495" y1="-374.149" x2="-61.414" y2="-374.149" gradientTransform="translate(82.495 443.509)" xlink:href="#linear-gradient"/><linearGradient id="linear-gradient-5" x1="-63.414" y1="-374.149" x2="-42.333" y2="-374.149" gradientTransform="translate(63.414 462.59)" xlink:href="#linear-gradient"/></defs><title>Nascent_peptide</title><g id="Nascent_peptide"><polygon class="cls-1" points="20.081 18.014 20.081 6.207 10.526 1 1 6.207 1 18.014 10.505 23.232 20.081 18.014"/><polygon class="cls-2" points="20.081 37.095 20.081 25.288 10.526 20.081 1 25.288 1 37.095 10.505 42.313 20.081 37.095"/><polygon class="cls-3" points="20.081 56.177 20.081 44.369 10.526 39.163 1 44.369 1 56.177 10.505 61.395 20.081 56.177"/><polygon class="cls-4" points="20.081 75.258 20.081 63.451 10.526 58.244 1 63.451 1 75.258 10.505 80.476 20.081 75.258"/><polygon class="cls-5" points="20.081 94.339 20.081 82.532 10.526 77.325 1 82.532 1 94.339 10.505 99.557 20.081 94.339"/></g></svg>