<svg id="Layer_1" data-name="Layer 1" xmlns="http://www.w3.org/2000/svg" xmlns:xlink="http://www.w3.org/1999/xlink" viewBox="0 0 176.609 32.95"><defs><style>.cls-1{fill:url(#linear-gradient);}.cls-2{fill:#0052af;}.cls-3{font-size:12px;fill:#fff;font-family:Arial-BoldMT, Arial;font-weight:700;}.cls-4{letter-spacing:-0.074em;}.cls-5{letter-spacing:-0.02em;}</style><linearGradient id="linear-gradient" x1="88.698" y1="31.342" x2="88.698" y2="1.342" gradientUnits="userSpaceOnUse"><stop offset="0" stop-color="#06a2b2"/><stop offset="1" stop-color="#03363b"/></linearGradient></defs><title>R-ICO-013638</title><g id="CHROMATIN_ORGANIZATION_PROTEIN" data-name="CHROMATIN ORGANIZATION PROTEIN"><rect class="cls-1" x="1.198" y="1.342" width="175" height="30" rx="10" ry="10"/><path class="cls-2" d="M177.5,115.15c-16.366-.011-32.731.447-49.1.837-16.366.458-32.731.546-49.1.613-16.366.041-32.731-.085-49.1-.189l-6.137-.038-1.534-.01a12.6,12.6,0,0,1-1.73-.149,10.5,10.5,0,0,1-3.3-1.069,11.446,11.446,0,0,1-4.882-4.755,11.956,11.956,0,0,1-1.139-3.244,16.4,16.4,0,0,1-.179-3.292l.067-6.137c.022-1.039.014-2.009.068-3.106A10.515,10.515,0,0,1,12.13,91.3a10.982,10.982,0,0,1,4.085-5.215,11.333,11.333,0,0,1,3-1.448,11.791,11.791,0,0,1,3.286-.463c16.366.257,32.731.423,49.1.335,8.183-.049,16.366-.194,24.548-.349l24.548-.413c16.366-.182,32.731-.109,49.1.307l6.137.141,1.534.035a11.98,11.98,0,0,1,1.637.168,10,10,0,0,1,3.1,1.045,10.749,10.749,0,0,1,4.536,4.514A11.21,11.21,0,0,1,187.762,93a15.684,15.684,0,0,1,.13,3.145c-.048,2.046-.091,4.091-.11,6.137-.021,1.026-.008,2.038-.057,3.077a9.692,9.692,0,0,1-.626,3.06,10.324,10.324,0,0,1-3.748,4.879,10.6,10.6,0,0,1-2.782,1.383A11.108,11.108,0,0,1,177.5,115.15Zm0-.3a10.8,10.8,0,0,0,2.971-.475,10.271,10.271,0,0,0,2.681-1.357,9.626,9.626,0,0,0,2.149-2.1,8.822,8.822,0,0,0,1.412-2.641c.726-1.893.5-3.949.5-6-.019-2.046-.061-4.091-.11-6.137a14.865,14.865,0,0,0-.248-2.968,10.23,10.23,0,0,0-1.051-2.709,9.559,9.559,0,0,0-4.2-3.834,8.561,8.561,0,0,0-2.729-.788,10.485,10.485,0,0,0-1.418-.081l-1.534.035-6.137.141c-16.366.416-32.731.489-49.1.307l-24.548-.413c-8.183-.155-16.366-.3-24.548-.349-16.366-.088-32.731.077-49.1.335a10.113,10.113,0,0,0-2.755.481,9.541,9.541,0,0,0-2.464,1.292A9.035,9.035,0,0,0,14.057,92a8.42,8.42,0,0,0-.465,2.691c-.018.947.026,2.025.032,3.03l.067,6.137a14.081,14.081,0,0,0,.2,2.822,9.491,9.491,0,0,0,.941,2.5,8.866,8.866,0,0,0,3.854,3.593,8.066,8.066,0,0,0,2.529.764,9.862,9.862,0,0,0,1.325.1l1.534-.01,6.137-.038c16.366-.1,32.731-.23,49.1-.189,16.366.066,32.731.155,49.1.613C144.769,114.4,161.134,114.861,177.5,114.85Z" transform="translate(-11.302 -83.658)"/><text class="cls-3" transform="translate(4.337 11.828)">CHROM<tspan class="cls-4" x="45.328" y="0">A</tspan><tspan x="53.104" y="0">TIN ORGANIZ</tspan><tspan class="cls-4" x="131.098" y="0">A</tspan><tspan x="138.873" y="0">TION</tspan><tspan x="57.22" y="14.4">PROTEI</tspan><tspan class="cls-5" x="101.892" y="14.4">N</tspan></text></g></svg>