<svg id="Layer_1" data-name="Layer 1" xmlns="http://www.w3.org/2000/svg" xmlns:xlink="http://www.w3.org/1999/xlink" viewBox="0 0 126.503 22.95"><defs><style>.cls-1{fill:url(#linear-gradient);}.cls-2{fill:url(#linear-gradient-2);}.cls-3{font-size:12px;fill:#fff;font-family:Arial-BoldMT, Arial;font-weight:700;}.cls-4{letter-spacing:-0.037em;}.cls-5{letter-spacing:-0.018em;}</style><linearGradient id="linear-gradient" x1="63.66" y1="1.342" x2="63.66" y2="21.342" gradientUnits="userSpaceOnUse"><stop offset="0" stop-color="#9461ee"/><stop offset="1" stop-color="#3b994a"/></linearGradient><linearGradient id="linear-gradient-2" x1="99.592" y1="111.5" x2="99.592" y2="88.5" gradientUnits="userSpaceOnUse"><stop offset="0" stop-color="#0061ee"/><stop offset="1" stop-color="#ca4145"/></linearGradient></defs><title>ACA snoRNP</title><g id="BOX_H_ACA_snoRNP" data-name="BOX H/ACA snoRNP"><rect class="cls-1" x="1.16" y="1.342" width="125" height="20" rx="10" ry="10"/><path class="cls-2" d="M152.5,110.15c-11.366-.011-22.731.447-34.1.837-11.366.458-22.731.546-34.1.613-11.366.041-22.731-.085-34.1-.189l-2.131-.019c-.344,0-.711-.006-1.132-.036a7.475,7.475,0,0,1-1.2-.133,11.134,11.134,0,0,1-4.46-1.777,11.316,11.316,0,0,1-4.858-7.936,11.18,11.18,0,0,1,.427-4.7A11.057,11.057,0,0,1,47.5,89.179c11.366.261,22.731.449,34.1.335,5.683-.049,11.366-.194,17.048-.349l17.048-.413c11.366-.182,22.731-.109,34.1.307a33.989,33.989,0,0,1,4.379.283,10.779,10.779,0,0,1,4.184,1.763,10.581,10.581,0,0,1,4.432,7.492A10.426,10.426,0,0,1,152.5,110.15Zm0-.3a9.807,9.807,0,0,0,7.364-3.424,9.455,9.455,0,0,0-2.24-14.216,9.223,9.223,0,0,0-3.7-1.286,33.523,33.523,0,0,0-4.13.018c-11.366.416-22.731.489-34.1.307l-17.048-.413c-5.683-.155-11.366-.3-17.048-.349-11.366-.114-22.731.074-34.1.335a9.119,9.119,0,0,0-6.748,3.291,8.938,8.938,0,0,0-1.971,7.076,8.8,8.8,0,0,0,3.96,6.05,8.889,8.889,0,0,0,3.426,1.272,32.834,32.834,0,0,0,4.042.078c11.366-.1,22.731-.23,34.1-.189,11.366.066,22.731.155,34.1.613C129.769,109.4,141.134,109.861,152.5,109.85Z" transform="translate(-36.34 -88.658)"/><text class="cls-3" transform="translate(5.321 14.656)">BOX H/AC<tspan class="cls-4" x="58.67" y="0">A</tspan><tspan x="66.891" y="0" xml:space="preserve"> snoRN</tspan><tspan class="cls-5" x="108.891" y="0">P</tspan></text></g></svg>