<svg id="Layer_1" data-name="Layer 1" xmlns="http://www.w3.org/2000/svg" xmlns:xlink="http://www.w3.org/1999/xlink" viewBox="0 0 87.3 32.947"><defs><style>.cls-1{fill:url(#linear-gradient);}.cls-2{fill:#823ac9;}.cls-3{font-size:12px;fill:#fff;font-family:Arial-BoldMT, Arial;font-weight:700;}.cls-4{letter-spacing:-0.074em;}</style><linearGradient id="linear-gradient" x1="43.898" y1="31.348" x2="43.898" y2="1.348" gradientUnits="userSpaceOnUse"><stop offset="0" stop-color="#bfbf00"/><stop offset="1" stop-color="#823ac9"/></linearGradient></defs><title>SUBSTRATE_PROTEIN</title><g id="SUBSTRATE_PROTEIN"><rect class="cls-1" x="1.398" y="1.348" width="85" height="30" rx="10" ry="10"/><path class="cls-2" d="M131.29,113.026c-8.866-.009-17.731.43-26.6.837-8.866.458-17.731.546-26.6.613H71.447l-3.325,0-1.662-.012a12.817,12.817,0,0,1-1.889-.16,11.526,11.526,0,0,1-9.64-10.393l-.038-.947.006-.841.019-1.662.049-3.325.067-3.325.017-.831.057-.92a7.055,7.055,0,0,1,.125-.923,6.207,6.207,0,0,1,.2-.909A10.98,10.98,0,0,1,66.29,82.055c8.866.261,17.731.449,26.6.335,4.433-.049,8.866-.194,13.3-.349l13.3-.413c2.216-.033,4.433-.093,6.649-.087l3.325-.012,1.662.009a12.55,12.55,0,0,1,1.852.158,10.919,10.919,0,0,1,3.544,1.2,11.556,11.556,0,0,1,2.9,2.321,10.773,10.773,0,0,1,2.765,6.675l.011.909-.032.838-.07,1.662-.144,3.325-.149,3.325a13.084,13.084,0,0,1-.432,3.392A10.563,10.563,0,0,1,131.29,113.026Zm0-.3a9.749,9.749,0,0,0,6.035-2.16,9.469,9.469,0,0,0,3.294-5.411,12,12,0,0,0,.163-3.208l-.149-3.325L140.49,95.3l-.07-1.662-.039-.825-.074-.752a9.2,9.2,0,0,0-2.622-5.21,9.048,9.048,0,0,0-5.106-2.545,9.766,9.766,0,0,0-1.459-.09l-1.662.009-3.325-.012c-2.216.006-4.433-.055-6.649-.087l-13.3-.413c-4.433-.155-8.866-.3-13.3-.349-8.866-.114-17.731.074-26.6.335a9.1,9.1,0,0,0-8.547,7.092,4.354,4.354,0,0,0-.127.719,5,5,0,0,0-.069.725l-.017.741.017.831.067,3.325.049,3.325.019,1.662.013.821.046.713a8.532,8.532,0,0,0,2.37,5.049,8.4,8.4,0,0,0,4.927,2.507,9.521,9.521,0,0,0,1.422.087l1.662-.012,3.325,0H78.1c8.866.066,17.731.155,26.6.613C113.559,112.3,122.425,112.735,131.29,112.726Z" transform="translate(-54.893 -81.528)"/><text class="cls-3" transform="translate(7.083 11.833)">SUBSTR<tspan class="cls-4" x="49.336" y="0">A</tspan><tspan x="57.111" y="0">TE</tspan><tspan x="9.554" y="14.4">PROTEIN</tspan></text></g></svg>