<svg id="Layer_1" data-name="Layer 1" xmlns="http://www.w3.org/2000/svg" xmlns:xlink="http://www.w3.org/1999/xlink" viewBox="0 0 155.213 90.396"><defs><style>.cls-1{fill:url(#linear-gradient);}.cls-2{fill:url(#linear-gradient-2);}.cls-3{fill:url(#linear-gradient-3);}.cls-4{fill:url(#linear-gradient-4);}.cls-5{fill:url(#linear-gradient-5);}.cls-6{fill:#ff7759;}</style><linearGradient id="linear-gradient" x1="107.709" y1="73.486" x2="148.943" y2="73.486" gradientTransform="matrix(1.066, 0.029, -0.149, 0.934, 21.924, 9.748)" gradientUnits="userSpaceOnUse"><stop offset="0" stop-color="#8f4839"/><stop offset="0.637" stop-color="#cb6751"/><stop offset="1" stop-color="#8f4839"/></linearGradient><linearGradient id="linear-gradient-2" x1="72.806" y1="88.988" x2="157.359" y2="88.988" gradientTransform="matrix(1.066, 0.029, -0.149, 0.934, 21.924, 9.748)" gradientUnits="userSpaceOnUse"><stop offset="0" stop-color="#8f4839"/><stop offset="0.063" stop-color="#954b3b"/><stop offset="0.146" stop-color="#a55442"/><stop offset="0.204" stop-color="#b55c48"/><stop offset="0.305" stop-color="#ad5845"/><stop offset="0.461" stop-color="#974c3c"/><stop offset="0.508" stop-color="#8f4839"/><stop offset="0.818" stop-color="#cb6751"/><stop offset="1" stop-color="#8f4839"/></linearGradient><linearGradient id="linear-gradient-3" x1="42.579" y1="107.381" x2="128.238" y2="107.381" xlink:href="#linear-gradient-2"/><linearGradient id="linear-gradient-4" x1="15.51" y1="124.802" x2="95.683" y2="124.802" xlink:href="#linear-gradient-2"/><linearGradient id="linear-gradient-5" x1="74.089" y1="74.197" x2="109.774" y2="108.672" gradientTransform="matrix(1.066, 0.029, -0.149, 0.934, 21.924, 9.748)" gradientUnits="userSpaceOnUse"><stop offset="0" stop-color="#ff705d"/><stop offset="1" stop-color="#daaa68"/></linearGradient></defs><title>ERGIC_3D</title><g id="R-ICO-012688"><path class="cls-1" d="M128.221,66.513l43.583-.832s.38,34.382-21.617,33.662C126.74,98.577,128.221,66.513,128.221,66.513Z" transform="translate(-22.394 -54.802)"/><path class="cls-2" d="M88.693,80.038l88.8,7.767s1.389,26.149-24.112,24c-15.179-1.278-8.92-14.725-22.831-15.615-8.422-.539-4.861,9.5-23.371,8.784C86.355,104.165,88.693,80.038,88.693,80.038Z" transform="translate(-22.394 -54.802)"/><path class="cls-3" d="M53.967,94.852l89.735,9.213s.9,26.24-20.564,25.7c-19.205-.486-14.422-11.865-26.265-18.611-10.76-6.129-3.793,12.041-22.96,10.969C50.98,120.838,53.967,94.852,53.967,94.852Z" transform="translate(-22.394 -54.802)"/><path class="cls-4" d="M22.532,110.244l84.209,7.531s0,27.34-18.667,27.422c-22.038.1-17.342-17.44-24.769-20.971-7.084-3.368-5,14.192-23.177,12.6C19.659,135.037,22.532,110.244,22.532,110.244Z" transform="translate(-22.394 -54.802)"/><path id="FILL" class="cls-5" d="M131.841,62.89c-.1.21-2.214,3.465-2.175,3.679.977,5.444,4.881,7.478,12.748,8.545,1.62.22,4.334.655,4.656,1.443l.488,1.193c.326.8-1.831,1.791-3.181,2.293q-.457.17-.9.354t-.855.377c-1.223.571-2.163,1.732-3.778,1.472l-4.79-.692c-1.595-.257-3.618-1.412-3.859-2.207-.428-1.409.945-2.941-.786-4.177-3.011-2.152-8.022-3.883-15.125-4.637-.44-.047-4.306.066-4.756.086-11.685.513-16.891,4.4-18.994,8.269-1.655,3.048,2.34,5.337,7,7.875,2.931,1.6,5.681,3.061,9.715,3.514,1.722.193,3.072.824,3.41,1.652l.293.718c.342.836-.421,1.676-1.884,2.171q-.861.291-1.674.629l-.121.051a8.531,8.531,0,0,1-4.451.452l-3.5-.565c-1.518-.245-2.621-.861-2.926-1.611-1.5-3.681-7.461-7.053-18.181-8.191a9.165,9.165,0,0,0-1.355-.041c-11.593.508-18.639,3.823-20.8,7.658-1.735,3.072-.336,6.479,4.368,9.044a29.013,29.013,0,0,0,9.813,2.969c1.633.222,2.835.883,3.16,1.677l.475,1.162c.326.8-.352,1.6-1.7,2.107q-.435.163-.857.338-.461.192-.892.395a8.361,8.361,0,0,1-4.609.525l-2.368-.382c-1.6-.258-2.726-.926-2.964-1.723-1.156-3.868-5.978-6.112-17.187-7.3-.44-.047-15.608.2-18.865,6.993-1.621,3.382.409,5.707,5.518,8.493,3.754,2.047,7.655,2.754,12.945,2.915s11.153-2.431,11.381-2.536a8.4,8.4,0,0,1,4.58-.515l2.623.423c1.579.255,5.66.54,5.915,1.326,1.24,3.826,2.94,6.3,14.012,7.482.442.047,5.437.265,5.889.245,10.138-.444,13.7-2.867,16.66-6.073,3.142-3.4.49-5.763-4.953-8.731C96.3,110.566,91.865,110,88.2,109.5c-1.625-.223-.243-1.957-.566-2.748l-.488-1.193c-.326-.8-.163-1.387,1.179-1.891.273-.1,6.833-2.484,8.51-2.213,0,0,3.369,1.625,3.536,2.435a7.354,7.354,0,0,0,2.97,4.194c2.962,2.28,8.093,4.128,15.493,4.914.441.047,3.345-.1,3.795-.115,4.856-.213,10.012-1.807,13.248-2.837,7.432-2.365,6.986-5.394,5.446-9.145a9.918,9.918,0,0,0-4.7-4.563c-2.435-1.328-6.488-1.836-9.755-2.376-1.506-.249-4.494-1.367-4.8-2.113l-.235-2.052c-.306-.748,3.631-1.173,4.84-1.676.007,0,2.4-1.841,4.008-1.582l4.114-.231a4.807,4.807,0,0,1,3.339,2.406c1.224,3.834,4.12,5.478,14.9,7.2,5.231.837,20.763-1.392,22.536-5.461,1.272-2.92.643-6.226-3.776-8.636-2.681-1.462-9.8-1.909-13.447-2.414a3.15,3.15,0,0,1-2.583-2.132l.531-1.388c-.325-.8,3.42-2.041,4.759-2.546q.389-.147.766-.3c3.865-1.612,7.662-3.938,8.371-6.178.874-2.764-2.183-5.494-6.331-7.756-4.423-2.411-7.8-2.9-14.045-2.685C141.127,56.715,134.566,57.221,131.841,62.89Z" transform="translate(-22.394 -54.802)"/><path id="STROKE" class="cls-6" d="M86.438,128.393c-1.541-.042-4.977-.2-5.39-.242-11.53-1.227-13.607-4.086-14.931-8a23.231,23.231,0,0,0-3.664-.635c-.546-.067-1.035-.127-1.4-.186l-2.623-.423a7.024,7.024,0,0,0-3.766.394c-.06.028-6.239,2.832-11.982,2.674h-.048c-5.928-.181-9.837-1.068-13.494-3.062-4.531-2.47-8.393-5.446-5.991-10.458,3.854-8.042,20.331-8.007,20.49-8,11.577,1.229,16.859,3.6,18.231,8.191a3.191,3.191,0,0,0,1.988.843l2.368.382a6.955,6.955,0,0,0,3.781-.4q.463-.217.956-.423.451-.187.914-.36a3.27,3.27,0,0,0,.482-.222l-.317-.777a3.233,3.233,0,0,0-2.2-.921,30.181,30.181,0,0,1-10.228-3.1c-4.089-2.229-7.492-6.322-4.781-11.123,2.792-4.945,10.874-8.065,22.175-8.561a10.352,10.352,0,0,1,1.552.048c10.314,1.1,17.305,4.358,19.179,8.953a3.125,3.125,0,0,0,2,.858l3.5.565a7.209,7.209,0,0,0,3.679-.349l.138-.058c.554-.232,1.151-.456,1.767-.664a3.558,3.558,0,0,0,.623-.271l-.135-.332a3.73,3.73,0,0,0-2.42-.891,25.852,25.852,0,0,1-10.16-3.654c-4.862-2.65-9.888-5.391-7.426-9.928,2.107-3.882,7.353-8.628,20.379-9.2.04,0,4.332-.146,4.952-.08,6.843.726,12.272,2.4,15.7,4.853a3.615,3.615,0,0,1,1.312,3.979,3.164,3.164,0,0,0-.072.8,6.042,6.042,0,0,0,2.9,1.4l4.77.689c.605.1.97-.121,1.736-.622a9.983,9.983,0,0,1,1.236-.721q.444-.207.917-.4t.956-.377a12.373,12.373,0,0,0,1.8-.813l-.093-.227a11.761,11.761,0,0,0-3.765-.861c-7.639-1.037-12.611-3-13.794-9.592-.143-.794.133-1.234,1.926-4.095.2-.321.363-.577.435-.7,3.352-6.881,11.5-7.162,19.385-7.433,6.045-.208,9.785.163,14.68,2.832,5.681,3.1,7.938,6.2,6.9,9.475-1.08,3.415-6.351,6.057-9.4,7.327q-.4.168-.817.324c-.163.062-.36.133-.581.214a26.911,26.911,0,0,0-3.155,1.316l-.246.645a1.807,1.807,0,0,0,1.371.868c.82.114,1.818.224,2.9.344,3.867.429,8.68.963,10.958,2.2,6.469,3.527,5.147,8.545,4.278,10.539-2.433,5.583-19.563,7.276-24.256,6.525-11-1.759-14.407-3.49-15.865-8.056a3.962,3.962,0,0,0-2.248-1.527l-3.956.222a1.3,1.3,0,0,1-.28-.014,5.488,5.488,0,0,0-2.874,1.269,1.813,1.813,0,0,1-.371.214h0a14.583,14.583,0,0,1-2.237.6c-.389.086-.926.2-1.376.321l.058.5a12.819,12.819,0,0,0,3.826,1.419c.412.068.836.135,1.268.2,3.075.49,6.56,1.044,8.866,2.3,2.665,1.453,4.43,3.2,5.244,5.182.824,2.008,1.608,4.346.458,6.685-1,2.038-3.237,3.55-7.034,4.757-2.939.935-8.409,2.676-13.62,2.9l-.194.009c-2.74.127-3.5.134-3.8.1-7.135-.758-12.7-2.54-16.1-5.154A8.677,8.677,0,0,1,99,104.658a14.013,14.013,0,0,0-2.72-1.664c-1.134-.012-5.223,1.235-7.631,2.136l.337.825A3.227,3.227,0,0,1,88.959,108l.084.012c3.741.513,7.981,1.093,10.754,2.606,4.162,2.269,6.776,4.213,6.944,6.888a5.819,5.819,0,0,1-1.837,4.28c-3.472,3.759-7.656,6.177-17.77,6.619C87.034,128.406,86.784,128.4,86.438,128.393Zm-28.489-12.7a10.046,10.046,0,0,1,1.317.122l2.624.423c.338.055.795.11,1.3.172,3.647.447,5.172.753,5.577,2,.944,2.914,1.759,5.43,12.978,6.623.4.041,5.212.254,5.7.239,10.045-.439,13.085-2.865,15.544-5.527.882-.954.852-1.426.843-1.582-.107-1.692-4.129-3.886-5.643-4.711-2.389-1.3-6.568-1.875-9.926-2.335l-.453-.062a2.042,2.042,0,0,1-1.592-.977,3.229,3.229,0,0,1-.079-2.425c.022-.086.051-.2.07-.288l-.412-1.008a2.814,2.814,0,0,1,0-2.331,3.758,3.758,0,0,1,2.231-1.829c.289-.108,7.07-2.631,9.22-2.292a1.182,1.182,0,0,1,.333.1c3.912,1.886,4.121,2.9,4.21,3.335a6.19,6.19,0,0,0,2.5,3.422c3.006,2.313,8.293,3.973,14.887,4.673.112.009.687.015,3.4-.111l.2-.009c4.839-.212,10.068-1.876,12.877-2.77,3.443-1.1,4.585-2.178,4.936-2.892.481-.979-.013-2.48-.619-3.956a8.838,8.838,0,0,0-4.155-3.944c-1.946-1.061-5.211-1.58-8.092-2.039-.437-.07-.866-.138-1.283-.207-.049-.008-4.972-1.026-5.724-2.864a1.466,1.466,0,0,1-.1-.387l-.222-1.936a1.948,1.948,0,0,1,.212-1.346c.611-1.128,1.886-1.408,4-1.872.544-.119,1.2-.264,1.566-.381.979-.7,3.006-1.945,4.767-1.756l3.99-.224a1.329,1.329,0,0,1,.279.014,5.871,5.871,0,0,1,4.307,3.261c.977,3.06,3.128,4.618,13.925,6.345,5.945.948,19.757-1.966,20.816-4.4,1.439-3.3-.987-5.484-3.276-6.731-1.865-1.016-6.6-1.542-10.065-1.926-1.109-.123-2.131-.237-2.97-.353a4.318,4.318,0,0,1-3.541-2.888,1.646,1.646,0,0,1,.012-1.2l.4-1.05a2.189,2.189,0,0,1,.2-.712c.558-1.187,1.984-1.867,5.179-3.035.209-.077.4-.145.55-.2q.364-.137.717-.284c4.554-1.9,7-3.938,7.343-5.028.378-1.194-.937-3.407-5.76-6.036-4.016-2.189-7.022-2.761-13.409-2.539-8.541.294-14.306.833-16.53,5.458h0c-.072.149-.144.266-.614,1.016-.314.5-.958,1.529-1.3,2.117.945,4.113,4.068,5.964,11.6,6.987,3.688.5,5.157,1.076,5.617,2.2l.488,1.193a2.143,2.143,0,0,1-.088,1.729c-.2.427-.73,1.563-4.153,2.835q-.427.159-.841.331t-.793.35a7.139,7.139,0,0,0-.82.489,5.154,5.154,0,0,1-3.782,1.11l-4.77-.689c-1.7-.273-4.38-1.526-4.853-3.085a5,5,0,0,1-.028-2.3c.131-.81.145-.895-.29-1.2-2.157-1.541-6.433-3.56-14.552-4.422-.425-.029-3.925.064-4.56.092-11.536.506-15.943,4.27-17.608,7.338-.939,1.731,3.4,4.1,6.568,5.824,2.773,1.512,5.392,2.939,9.271,3.375,1.076.121,3.66.6,4.4,2.412l.293.718a2.7,2.7,0,0,1-.106,2.217,4.7,4.7,0,0,1-2.882,2.24c-.547.185-1.076.384-1.572.591l-.069.029a9.908,9.908,0,0,1-5.267.573l-3.5-.565c-1.969-.318-3.375-1.179-3.857-2.364-1.155-2.832-6.275-6.271-17.183-7.429a7.626,7.626,0,0,0-1.16-.036c-11.822.518-17.857,3.963-19.434,6.754-1.3,2.3.179,4.905,3.954,6.964a27.769,27.769,0,0,0,9.4,2.834c2.1.286,3.606,1.174,4.121,2.435l.475,1.162a2.7,2.7,0,0,1-.088,2.178,4.46,4.46,0,0,1-2.669,2.2q-.41.153-.8.317-.427.178-.828.367a9.666,9.666,0,0,1-5.435.652l-2.368-.382c-2.112-.341-3.547-1.29-3.94-2.6-1-3.356-5.982-5.333-16.143-6.411-2.946-.126-14.892,1.084-17.24,5.982-.726,1.515-.935,3.267,5.045,6.526,3.3,1.8,6.89,2.6,12.4,2.769h.04c4.98.137,10.635-2.374,10.691-2.4A9.4,9.4,0,0,1,57.949,115.689Zm99.69-40.6v0Zm-25.8-12.2h0Z" transform="translate(-22.394 -54.802)"/></g></svg>