<svg id="Layer_1" data-name="Layer 1" xmlns="http://www.w3.org/2000/svg" xmlns:xlink="http://www.w3.org/1999/xlink" viewBox="0 0 112.339 92.449"><defs><style>.cls-1{fill:url(#linear-gradient);}.cls-2{fill:url(#linear-gradient-2);}.cls-3{fill:#cc9f2f;}.cls-4{fill:url(#linear-gradient-3);}.cls-5{fill:url(#linear-gradient-4);}.cls-6{fill:url(#linear-gradient-5);}.cls-7{fill:url(#radial-gradient);}.cls-8{fill:url(#linear-gradient-6);}.cls-9{fill:url(#radial-gradient-2);}.cls-10{fill:url(#linear-gradient-7);}.cls-11{fill:url(#radial-gradient-3);}.cls-12{fill:url(#linear-gradient-8);}.cls-13{fill:url(#radial-gradient-4);}</style><linearGradient id="linear-gradient" x1="-391.452" y1="276.813" x2="-438.313" y2="276.813" gradientTransform="translate(519.953 -184.824)" gradientUnits="userSpaceOnUse"><stop offset="0.069" stop-color="#7d611d"/><stop offset="0.539" stop-color="#cc9f2f"/><stop offset="0.816" stop-color="#ffd776"/><stop offset="0.855" stop-color="#fad16f"/><stop offset="0.913" stop-color="#ebc25b"/><stop offset="0.982" stop-color="#d4a93b"/><stop offset="1" stop-color="#cda131"/></linearGradient><linearGradient id="linear-gradient-2" x1="-421.97" y1="284.983" x2="-478.167" y2="284.983" xlink:href="#linear-gradient"/><linearGradient id="linear-gradient-3" x1="-365.828" y1="288.099" x2="-421.97" y2="288.099" xlink:href="#linear-gradient"/><linearGradient id="linear-gradient-4" x1="-405.686" y1="298.652" x2="-452.542" y2="298.652" xlink:href="#linear-gradient"/><linearGradient id="linear-gradient-5" x1="-459.973" y1="249.922" x2="-402.061" y2="288.653" gradientTransform="translate(519.953 -184.824)" gradientUnits="userSpaceOnUse"><stop offset="0.258" stop-color="#cda131"/><stop offset="0.404" stop-color="#c79d30"/><stop offset="0.59" stop-color="#b8902c"/><stop offset="0.796" stop-color="#9e7b25"/><stop offset="1" stop-color="#7d611d"/></linearGradient><radialGradient id="radial-gradient" cx="-454.03" cy="350.956" r="25.808" gradientTransform="translate(519.953 -150.187) scale(1 0.65)" gradientUnits="userSpaceOnUse"><stop offset="0.3" stop-color="#7d611d"/><stop offset="0.7" stop-color="#ffd776"/></radialGradient><linearGradient id="linear-gradient-6" x1="-442.545" y1="223.87" x2="-384.633" y2="262.6" xlink:href="#linear-gradient-5"/><radialGradient id="radial-gradient-2" cx="-388.801" cy="356.39" r="25.808" gradientTransform="translate(519.953 -149.448) scale(1 0.65)" xlink:href="#radial-gradient"/><linearGradient id="linear-gradient-7" x1="-460.285" y1="247.34" x2="-402.434" y2="286.031" xlink:href="#linear-gradient-5"/><radialGradient id="radial-gradient-3" cx="-428.405" cy="368.367" r="25.808" gradientTransform="translate(519.953 -147.818) scale(1 0.65)" xlink:href="#radial-gradient"/><linearGradient id="linear-gradient-8" x1="-442.185" y1="226.514" x2="-384.334" y2="265.204" xlink:href="#linear-gradient-5"/><radialGradient id="radial-gradient-4" cx="-414.426" cy="339.024" r="25.808" gradientTransform="translate(519.953 -151.81) scale(1 0.65)" xlink:href="#radial-gradient"/></defs><title>AQP1</title><g id="AQP1"><g id="cylinders"><path class="cls-1" d="M81.641,112.381c-.12,4.622,15.928,11.9,16.343,12.118,0,0,27.281-5.539,29.994-10.037a3.359,3.359,0,0,0,.523-1.708v-52.9L81.64,59.48Z" transform="translate(-41.787 -51.843)"/><path class="cls-2" d="M97.984,124.5s-24.834,6.842-37.554,6.012c-11.13-.727-18.733-4.125-18.642-7.976v-52.8l56.2,1.928Z" transform="translate(-41.787 -51.843)"/><path class="cls-3" d="M154.121,126.192" transform="translate(-41.787 -51.843)"/><path class="cls-4" d="M98,124.474s14.94,9.44,27.66,10.27,25.232-2.142,27.945-6.639a3.285,3.285,0,0,0,.518-1.913V73.51L97.984,71.667V124.5" transform="translate(-41.787 -51.843)"/><path class="cls-5" d="M67.412,136.208c-.051,3.839,7.541,7.221,18.642,7.946,12.72.831,25.232-2.142,27.945-6.639a1.826,1.826,0,0,0,.268-.967v-52.8l-46.855-.389Z" transform="translate(-41.787 -51.843)"/></g><g id="tops"><path class="cls-6" d="M97.984,71.667S73.15,78.509,60.429,77.678,39.6,72.528,42.31,68.031s15.224-7.47,27.945-6.639S97.984,71.667,97.984,71.667Z" transform="translate(-41.787 -51.843)"/><path class="cls-7" d="M74.784,70.117c-1.112,1.844-6.241,3.062-11.456,2.722s-8.54-2.111-7.428-3.955,6.241-3.062,11.456-2.722S75.9,68.273,74.784,70.117Z" transform="translate(-41.787 -51.843)"/><path class="cls-8" d="M153.6,75.273c-2.713,4.5-15.224,7.47-27.945,6.639S98,71.642,98,71.642s24.765-6.847,37.485-6.016S156.316,70.776,153.6,75.273Z" transform="translate(-41.787 -51.843)"/><path class="cls-9" d="M140.013,74.386c-1.112,1.844-6.241,3.062-11.456,2.722s-8.54-2.111-7.428-3.955,6.241-3.062,11.456-2.722S141.125,72.542,140.013,74.386Z" transform="translate(-41.787 -51.843)"/><path class="cls-10" d="M114,84.682c-2.713,4.5-15.224,7.47-27.945,6.639s-20.833-5.15-18.12-9.647S97.929,71.638,97.929,71.638,116.712,80.185,114,84.682Z" transform="translate(-41.787 -51.843)"/><path class="cls-11" d="M100.409,83.795c-1.112,1.844-6.241,3.062-11.456,2.722s-8.54-2.111-7.428-3.955S87.766,79.5,92.981,79.84,101.521,81.951,100.409,83.795Z" transform="translate(-41.787 -51.843)"/><path class="cls-12" d="M109.858,51.982c12.72.831,20.833,5.15,18.12,9.647S97.984,71.667,97.984,71.667c-.444-.237-18.783-8.548-16.07-13.045S97.138,51.152,109.858,51.982Z" transform="translate(-41.787 -51.843)"/><path class="cls-13" d="M114.388,60.742c-1.112,1.844-6.241,3.062-11.456,2.722s-8.54-2.111-7.428-3.955,6.241-3.062,11.456-2.722S115.5,58.9,114.388,60.742Z" transform="translate(-41.787 -51.843)"/></g></g></svg>