<svg id="Layer_1" data-name="Layer 1" xmlns="http://www.w3.org/2000/svg" xmlns:xlink="http://www.w3.org/1999/xlink" viewBox="0 0 57.774 32.673"><defs><style>.cls-1{fill:url(#linear-gradient);}.cls-2{fill:#434a00;}.cls-3{font-size:12px;fill:#fff;font-family:Arial-BoldMT, Arial;font-weight:700;}</style><linearGradient id="linear-gradient" x1="29.016" y1="31.117" x2="29.016" y2="1.117" gradientUnits="userSpaceOnUse"><stop offset="0" stop-color="#bfd11c"/><stop offset="1" stop-color="#434a00"/></linearGradient></defs><title>SURF complex</title><g id="SURF_COMPLEX" data-name="SURF COMPLEX"><rect class="cls-1" x="1.516" y="1.117" width="55" height="30" rx="10" ry="10"/><path class="cls-2" d="M116.106,114.042c-6.366-.009-12.731.43-19.1.837-3.183.205-6.366.388-9.549.457-1.591.057-3.183.074-4.774.093a14.665,14.665,0,0,1-5.224-.535,11.317,11.317,0,0,1-7.85-10.353l-.022-.682.01-.6.019-1.194.076-4.774.038-2.387c.01-.408,0-.772.028-1.217a9.91,9.91,0,0,1,.139-1.346,11.1,11.1,0,0,1,2.082-4.9,10.913,10.913,0,0,1,9.124-4.374c6.366.261,12.731.449,19.1.335,3.183-.049,6.366-.194,9.549-.349l4.774-.214a13.743,13.743,0,0,1,5.113.38A10.984,10.984,0,0,1,126.93,90.6a11.408,11.408,0,0,1,.425,2.659l.009.668-.023.6-.045,1.194c-.045,1.591-.16,3.183-.249,4.774l-.141,2.387a17.092,17.092,0,0,1-.255,2.472,10.831,10.831,0,0,1-10.545,8.694Zm0-.3a9.8,9.8,0,0,0,4.5-1.164,9.359,9.359,0,0,0,3.343-3.15,8.965,8.965,0,0,0,1.4-4.26,16.922,16.922,0,0,0-.045-2.292l-.141-2.387c-.089-1.591-.2-3.183-.249-4.774l-.045-1.194-.023-.6L124.8,93.4a8.808,8.808,0,0,0-.391-2.031,9.679,9.679,0,0,0-2.114-3.517,9.427,9.427,0,0,0-3.445-2.261,12.232,12.232,0,0,0-4.324-.651l-4.774-.214c-3.183-.155-6.366-.3-9.549-.349-6.366-.114-12.731.074-19.1.335a9.252,9.252,0,0,0-4.118,1.218,9.526,9.526,0,0,0-3.065,2.891,8.579,8.579,0,0,0-1.4,3.886,8.919,8.919,0,0,0-.053,1.031c-.011.349.008.782.01,1.169l.038,2.387.076,4.774.019,1.194.01.6.036.51a8.565,8.565,0,0,0,.38,1.973,9.167,9.167,0,0,0,2.069,3.4,8.75,8.75,0,0,0,3.367,2.112,11.576,11.576,0,0,0,4.213.5c1.591.019,3.183.036,4.774.093,3.183.069,6.366.252,9.549.457C103.374,113.312,109.74,113.751,116.106,113.742Z" transform="translate(-69.59 -82.775)"/><text class="cls-3" transform="translate(12.09 11.602)">SURF<tspan x="-8.01" y="14.4">complex</tspan></text></g></svg>