<svg id="Layer_1" data-name="Layer 1" xmlns="http://www.w3.org/2000/svg" viewBox="0 0 22.95 163.55"><defs><style>.cls-1{fill:none;stroke:#531f37;stroke-miterlimit:10;stroke-width:2px;}.cls-2{fill:#ffba00;}.cls-3{fill:#5001a2;}.cls-4{font-size:12px;fill:#fff;font-family:Arial-BoldMT, Arial;font-weight:700;}.cls-5{fill:#9e7102;}</style></defs><title>scavenger_receptor_class_G</title><g id="CLASS_G" data-name="CLASS G"><line class="cls-1" x1="11.342" y1="99.48" x2="11.342" y2="163.55"/><path class="cls-2" d="M107.63,28.089v109a10.029,10.029,0,0,1-10,10h0a10.029,10.029,0,0,1-10-10v-109a10,10,0,0,1,20,0Z" transform="translate(-86.288 -17.792)"/><g id="MUCIN"><rect class="cls-3" x="71.63" y="111.089" width="52" height="20" rx="10" ry="10" transform="translate(132.431 5.666) rotate(90)"/><text class="cls-4" transform="translate(14.776 122.961) rotate(-90)">MUCIN</text></g><g id="CHEMOKINE"><rect class="cls-5" x="59.13" y="46.589" width="77" height="20" rx="10" ry="10" transform="translate(67.931 -58.834) rotate(90)"/><text class="cls-4" transform="translate(14.776 75.465) rotate(-90)">CHEMOKINE</text></g><path class="cls-2" d="M107.78,28.089c-.011,11.7.447,23.391.837,35.087.458,11.7.547,23.391.613,35.087.041,11.7-.085,23.391-.189,35.087l-.019,2.193c-.015.752.012,1.4-.055,2.281a11.006,11.006,0,0,1-1.43,4.728,11.375,11.375,0,0,1-7.8,5.523,10.983,10.983,0,0,1-9.1-2.484,11.034,11.034,0,0,1-3.819-8.458c.266-11.7.457-23.393.329-35.09-.146-11.7-.592-23.391-.782-35.087-.162-11.7-.047-23.391.421-35.087.062-1.482.066-2.88.175-4.43a10.449,10.449,0,0,1,1.426-4.413,10.843,10.843,0,0,1,7.306-5.08A10.443,10.443,0,0,1,107.78,28.089Zm-.3,0a9.933,9.933,0,0,0-3.644-7.514,9.557,9.557,0,0,0-8.016-1.959A9.917,9.917,0,0,0,89.4,23.6a9.149,9.149,0,0,0-1.033,3.927c-.018,1.371.078,2.9.111,4.34.468,11.7.584,23.391.421,35.087-.19,11.7-.636,23.391-.782,35.087-.126,11.694.059,23.395.333,35.084a9.182,9.182,0,0,0,3.479,6.885,9.082,9.082,0,0,0,7.35,1.726,8.86,8.86,0,0,0,5.939-4.469,8.718,8.718,0,0,0,1-3.621c.043-.582.011-1.394.011-2.1l-.019-2.193c-.1-11.7-.23-23.391-.189-35.087.066-11.7.155-23.391.613-35.087C107.033,51.48,107.491,39.784,107.48,28.089Z" transform="translate(-86.288 -17.792)"/></g></svg>