<svg id="Layer_1" data-name="Layer 1" xmlns="http://www.w3.org/2000/svg" xmlns:xlink="http://www.w3.org/1999/xlink" viewBox="0 0 144.745 115.413"><defs><style>.cls-1{fill:url(#radial-gradient);}.cls-2{fill:#7539bc;}.cls-3{fill:url(#linear-gradient);}.cls-4{fill:url(#linear-gradient-2);}.cls-5{fill:url(#radial-gradient-2);}.cls-6{fill:url(#radial-gradient-3);}.cls-7{fill:url(#radial-gradient-4);}.cls-8{opacity:0.5;}.cls-9{fill:url(#linear-gradient-3);}.cls-10{fill:url(#linear-gradient-4);}.cls-11{fill:url(#radial-gradient-5);}.cls-12{fill:url(#radial-gradient-6);}.cls-13{fill:url(#radial-gradient-7);}.cls-14{fill:url(#radial-gradient-8);}.cls-15{fill:url(#radial-gradient-9);}.cls-16{fill:url(#radial-gradient-10);}.cls-17{fill:url(#radial-gradient-11);}.cls-18{fill:url(#radial-gradient-12);}.cls-19{fill:url(#radial-gradient-13);}.cls-20{fill:url(#radial-gradient-14);}.cls-21{fill:url(#radial-gradient-15);}.cls-22{fill:url(#radial-gradient-16);}.cls-23{fill:url(#radial-gradient-17);}.cls-24{fill:url(#radial-gradient-18);}.cls-25{fill:url(#radial-gradient-19);}.cls-26{fill:url(#radial-gradient-20);}.cls-27{fill:url(#radial-gradient-21);}</style><radialGradient id="radial-gradient" cx="89.665" cy="129.881" r="90.025" gradientTransform="matrix(1, 0, 0, -1, 0, 202)" gradientUnits="userSpaceOnUse"><stop offset="0.001" stop-color="#ffd1dc"/><stop offset="1" stop-color="#9744b2"/></radialGradient><linearGradient id="linear-gradient" x1="81.472" y1="70.11" x2="85.608" y2="70.11" gradientTransform="matrix(1, 0, 0, -1, 0, 202)" gradientUnits="userSpaceOnUse"><stop offset="0" stop-color="#7f4891"/><stop offset="0.52" stop-color="#cca4ce"/><stop offset="0.547" stop-color="#c79eca"/><stop offset="0.854" stop-color="#9360a1"/><stop offset="1" stop-color="#7f4891"/></linearGradient><linearGradient id="linear-gradient-2" x1="105.607" y1="75.614" x2="115.762" y2="80.392" xlink:href="#linear-gradient"/><radialGradient id="radial-gradient-2" cx="93.972" cy="78.656" r="14.416" gradientTransform="matrix(1, 0, 0, -0.984, -27.586, 162.952)" gradientUnits="userSpaceOnUse"><stop offset="0" stop-color="#ffccdc"/><stop offset="0.009" stop-color="#fdcadb"/><stop offset="0.345" stop-color="#c793bb"/><stop offset="0.634" stop-color="#a06aa4"/><stop offset="0.862" stop-color="#885196"/><stop offset="1" stop-color="#7f4891"/></radialGradient><radialGradient id="radial-gradient-3" cx="123.671" cy="95.86" r="19.064" gradientTransform="matrix(1, 0, 0, -0.984, -27.586, 162.673)" xlink:href="#radial-gradient-2"/><radialGradient id="radial-gradient-4" cx="66.818" cy="79.51" r="15.086" gradientTransform="matrix(1, 0, 0, -0.984, -27.586, 162.938)" xlink:href="#radial-gradient-2"/><linearGradient id="linear-gradient-3" x1="83.915" y1="73.631" x2="83.581" y2="67.631" gradientTransform="matrix(1, 0, 0, -1, 0, 202)" gradientUnits="userSpaceOnUse"><stop offset="0" stop-color="#370f49"/><stop offset="0.003" stop-color="#3a124b"/><stop offset="0.055" stop-color="#60386e"/><stop offset="0.11" stop-color="#81598b"/><stop offset="0.17" stop-color="#9d75a4"/><stop offset="0.234" stop-color="#b28ab7"/><stop offset="0.305" stop-color="#c199c4"/><stop offset="0.39" stop-color="#c9a1cc"/><stop offset="0.52" stop-color="#cca4ce"/><stop offset="0.706" stop-color="#8d6596"/><stop offset="1" stop-color="#4f275f"/></linearGradient><linearGradient id="linear-gradient-4" x1="108.866" y1="80.412" x2="113.366" y2="71.912" gradientTransform="matrix(1, 0, 0, -1, 0, 202)" gradientUnits="userSpaceOnUse"><stop offset="0" stop-color="#370f49"/><stop offset="0.014" stop-color="#3f1750"/><stop offset="0.096" stop-color="#6a4276"/><stop offset="0.179" stop-color="#8d6596"/><stop offset="0.263" stop-color="#a981af"/><stop offset="0.348" stop-color="#bc94c0"/><stop offset="0.433" stop-color="#c8a0cb"/><stop offset="0.52" stop-color="#cca4ce"/><stop offset="0.706" stop-color="#8d6596"/><stop offset="1" stop-color="#4f275f"/></linearGradient><radialGradient id="radial-gradient-5" cx="96.639" cy="75.49" r="11.705" gradientTransform="matrix(1, 0, 0, -0.984, -27.586, 163.003)" gradientUnits="userSpaceOnUse"><stop offset="0" stop-color="#370f49"/><stop offset="0.195" stop-color="#3a124b"/><stop offset="0.34" stop-color="#441b52"/><stop offset="0.469" stop-color="#542a5e"/><stop offset="0.589" stop-color="#6a406f"/><stop offset="0.703" stop-color="#885b84"/><stop offset="0.811" stop-color="#ac7d9f"/><stop offset="0.914" stop-color="#d6a5be"/><stop offset="1" stop-color="#ffccdc"/></radialGradient><radialGradient id="radial-gradient-6" cx="126.816" cy="91.526" r="15.027" gradientTransform="matrix(1, 0, 0, -0.984, -27.586, 162.743)" xlink:href="#radial-gradient-5"/><radialGradient id="radial-gradient-7" cx="69.318" cy="76.51" r="12.195" gradientTransform="matrix(1, 0, 0, -0.984, -27.586, 162.987)" xlink:href="#radial-gradient-5"/><radialGradient id="radial-gradient-8" cx="559.116" cy="176.245" r="6.58" gradientTransform="matrix(0.395, 0, 0, -0.547, -152.819, 126.246)" gradientUnits="userSpaceOnUse"><stop offset="0.001" stop-color="#ffd1dc"/><stop offset="0.103" stop-color="#e3b5c8"/><stop offset="0.229" stop-color="#c99bb5"/><stop offset="0.368" stop-color="#b486a6"/><stop offset="0.523" stop-color="#a5779c"/><stop offset="0.708" stop-color="#9d6f96"/><stop offset="1" stop-color="#9a6c94"/></radialGradient><radialGradient id="radial-gradient-9" cx="589.497" cy="179.899" r="6.58" xlink:href="#radial-gradient-8"/><radialGradient id="radial-gradient-10" cx="616.257" cy="200" r="6.58" xlink:href="#radial-gradient-8"/><radialGradient id="radial-gradient-11" cx="628.903" cy="176.245" r="6.58" xlink:href="#radial-gradient-8"/><radialGradient id="radial-gradient-12" cx="544.024" cy="117.954" r="6.58" xlink:href="#radial-gradient-8"/><radialGradient id="radial-gradient-13" cx="494.68" cy="181.691" r="6.58" xlink:href="#radial-gradient-8"/><radialGradient id="radial-gradient-14" cx="436.512" cy="123.399" r="6.58" xlink:href="#radial-gradient-8"/><radialGradient id="radial-gradient-15" cx="490.683" cy="110.367" r="6.58" xlink:href="#radial-gradient-8"/><radialGradient id="radial-gradient-16" cx="451.604" cy="148.769" r="6.58" xlink:href="#radial-gradient-8"/><radialGradient id="radial-gradient-17" cx="546.507" cy="201.863" r="6.58" xlink:href="#radial-gradient-8"/><radialGradient id="radial-gradient-18" cx="560.382" cy="99.477" r="6.58" xlink:href="#radial-gradient-8"/><radialGradient id="radial-gradient-19" cx="698.156" cy="167.039" r="6.58" xlink:href="#radial-gradient-8"/><radialGradient id="radial-gradient-20" cx="698.156" cy="137.879" r="6.58" xlink:href="#radial-gradient-8"/><radialGradient id="radial-gradient-21" cx="659.314" cy="194.555" r="6.58" xlink:href="#radial-gradient-8"/></defs><title>neutrophil</title><g id="NEUTROPHIL"><path class="cls-1" d="M168.524,81.56c2.85,10.43,4.99,22.33.65,32.4-5.23,12.14-18.75,19.53-31.86,27.73-7.21,4.51-15.05,10.74-23.99,13.19-13.66,3.73-28.48.28-40.68-2.01-10.69-2.01-19.07-2.22-26.8-8.09-8.42-6.39-12.13-15.53-14.89-25.63s-4.21-19.85-.22-29.64c4.26-10.43,13.15-17.02,23.37-24.83,8.63-6.6,17.87-14.97,29.6-18.18a88.579,88.579,0,0,1,38.34-2.09c12.58,2.18,24.44,4.81,32.85,12.21C161.764,62.67,166.1,72.71,168.524,81.56Z" transform="translate(-27.586 -42.157)"/><path class="cls-2" d="M172.294,100.84a22.7,22.7,0,0,0-.35-5.27,28.134,28.134,0,0,0-.65-2.86c-.21-1.4-.46-2.78-.74-4.13a31.278,31.278,0,0,0-.8-5.89,33.571,33.571,0,0,0-1.18-3.73,24.962,24.962,0,0,0-1.61-3.58c-.08-.15-.15-.3-.23-.45-.54-1.46-1.16-2.98-1.86-4.53a23.121,23.121,0,0,0-.73-2.32,10.76,10.76,0,0,0-.87-1.77c-.33-.57-.69-1.12-1.07-1.65a16.61,16.61,0,0,0-1.43-1.71c-.68-1.03-1.42-2.02-2.19-2.98a19.528,19.528,0,0,0-4.28-5.09,22.2,22.2,0,0,0-3.61-2.4,21.321,21.321,0,0,0-3.95-1.73c-.11-.04-.22-.08-.33-.11a53,53,0,0,0-5.3-2.18c-.73-.38-1.46-.76-2.22-1.08a14.147,14.147,0,0,0-2.03-.66c-.69-.18-1.38-.33-2.08-.45-.75-.13-1.51-.22-2.28-.28-2.79-.65-5.66-1.21-8.56-1.73-1.89-.45-3.79-.9-5.73-1.19a73.568,73.568,0,0,0-12.67-.91,78.656,78.656,0,0,0-12.63,1.33c-2.08.38-4.15.83-6.19,1.39a53.222,53.222,0,0,0-6.05,1.95c-.22.08-.42.19-.63.27a63.279,63.279,0,0,0-15.07,8.44c-2.04,1.34-4.05,2.71-6,4.14-1.69,1.25-3.34,2.53-4.98,3.83s-3.3,2.58-4.92,3.92c-1.73,1.42-3.43,2.88-5.06,4.41a68.508,68.508,0,0,0-6.73,6.39,30.72,30.72,0,0,0-6.62,8.49,28.943,28.943,0,0,0-2.39,6.74,26.35,26.35,0,0,0-.67,7.07c.01.2.02.41.03.61a47.558,47.558,0,0,0,.69,9.4c.11,1.33.23,2.67.46,3.99a43.887,43.887,0,0,0,1.81,6.77c.42,1.19.87,2.36,1.38,3.52a61.782,61.782,0,0,0,2.45,6.25,31.1,31.1,0,0,0,5.2,9.4,28.474,28.474,0,0,0,5.28,4.89,23.566,23.566,0,0,0,6.37,3.31c.21.07.41.13.62.2a46.139,46.139,0,0,0,8.96,2.51c1.34.37,2.68.74,4.03,1.04,2.29.49,4.59.79,6.9,1.1,1.26.17,2.53.32,3.8.44,2.75.53,5.58,1.07,8.46,1.55a74.05,74.05,0,0,0,16.42,2.06,47.211,47.211,0,0,0,11.03-1.33,35.326,35.326,0,0,0,5.3-1.74,41.554,41.554,0,0,0,4.93-2.52c.26-.15.51-.31.77-.47,3.45-1.86,6.75-4.05,9.99-6.2.75-.5,1.48-.99,2.21-1.46,1.89-1.1,3.8-2.16,5.72-3.23q4.725-2.715,9.23-5.87,2.355-1.65,4.58-3.48a70.151,70.151,0,0,0,6.09-4.91,27.889,27.889,0,0,0,5.82-5.46,23.063,23.063,0,0,0,4.44-9.66c.04-.19.06-.37.1-.56a33.92,33.92,0,0,0,1.17-6.71A27.179,27.179,0,0,0,172.294,100.84Zm-2.64,9.77c-.04.11-.08.22-.13.33a49.061,49.061,0,0,1-2.29,4.52,48.271,48.271,0,0,1-2.81,4.17c-1.48,2.07-3.14,4.03-4.83,6.04a68.579,68.579,0,0,1-5.65,4.57c-1.71,1.09-3.43,2.16-5.16,3.23-3.09,1.9-6.22,3.74-9.25,5.75-1.51,1.03-3,2.07-4.49,3.14-.27.2-.55.4-.82.6-.75.5-1.51,1-2.3,1.52-3.06,2.04-6.18,4.11-9.43,5.9-.43.21-.85.43-1.28.63-1.64.76-3.32,1.4-5,2a45.479,45.479,0,0,1-5.15,1.39,59.1,59.1,0,0,1-10.63,1.04,133.524,133.524,0,0,1-16.3-.93c-2.86-.48-5.67-1.02-8.39-1.54-.02,0-.04-.01-.06-.01a64.706,64.706,0,0,0-10.54-2.19c-1.4-.15-2.8-.25-4.19-.39a45.375,45.375,0,0,1-8.63-2.41c-.21-.1-.42-.19-.62-.3a37.155,37.155,0,0,1-5.65-3.79,38.7,38.7,0,0,1-4.8-4.78,52.693,52.693,0,0,1-5.95-8.52,61.877,61.877,0,0,1-2.36-6.01c-.29-1.24-.58-2.47-.86-3.7-.53-2.24-1.06-4.48-1.67-6.7-.39-1.39-.81-2.77-1.16-4.18a46.593,46.593,0,0,1-.62-8.68c.02-.24.04-.48.07-.73a49.192,49.192,0,0,1,1.4-6.66,29.161,29.161,0,0,1,1.11-3.18c.41-1.05.86-2.07,1.36-3.08a52.949,52.949,0,0,1,5.36-8.67,68.233,68.233,0,0,1,6.59-6.29c5.16-3.89,10.5-7.54,15.48-11.73,2-1.68,3.99-3.38,6.04-4.99A61.377,61.377,0,0,1,79.7,48.27c.45-.15.89-.3,1.35-.44,1.97-.6,4.01-1.01,6.05-1.44s4.09-.75,6.13-1.08a111.52,111.52,0,0,1,12.38-1.05,103.034,103.034,0,0,1,12.42.34c2.07.17,4.13.42,6.21.73.23.03.46.05.69.09,2.47.45,4.91.94,7.3,1.49.73.3,1.46.56,2.19.83a38.136,38.136,0,0,0,4,1.19c.83.18,1.69.31,2.53.48a52.934,52.934,0,0,1,4.9,2.01c.14.09.29.18.43.27l3.43,2.35c1.13.78,2.19,1.65,3.27,2.46,1.63,1.21,3.16,2.54,4.73,3.92a37.813,37.813,0,0,1,2.33,3.16c.28.62.57,1.23.85,1.84a37.268,37.268,0,0,0,1.78,3.37c.39.61.82,1.21,1.23,1.82.75,1.64,1.41,3.26,1.97,4.8.02.1.05.2.07.3.26,1.27.51,2.53.83,3.76.3,1.24.56,2.49.92,3.72.56,1.85,1.15,3.68,1.88,5.5.29,1.39.54,2.81.76,4.25.02.92.05,1.84.08,2.75.07,1.71.11,3.41.23,5.11.07.99.17,1.99.21,2.99A33.018,33.018,0,0,1,169.654,110.61Z" transform="translate(-27.586 -42.157)"/><g id="PHAGOSOME"><g id="PHAGOSOME-2" data-name="PHAGOSOME"><path class="cls-3" d="M85.824,135.49a5.278,5.278,0,0,0-1.52-2.57,1.972,1.972,0,0,0-2.22-.28,3.484,3.484,0,0,0-.76.89l.27-4.48a1.487,1.487,0,0,0,1.13,1.11,1.808,1.808,0,0,0,1.42.05c.8-.38,1.27-1.92,1.27-1.92Z" transform="translate(-27.586 -42.157)"/><path class="cls-4" d="M103.784,122.17s3.23,4.05,6.4,2.3c4.08-2.26,1.76-7.43,1.76-7.43a16.121,16.121,0,0,1-.11-1.85l7.34,13.08a7.456,7.456,0,0,0-7.34-.71c-4.06,1.84-3.76,5.32-3.76,5.32Z" transform="translate(-27.586 -42.157)"/><circle class="cls-5" cx="69.017" cy="89.093" r="11.58"/><circle class="cls-6" cx="99.567" cy="73.023" r="15.32"/><circle class="cls-7" cx="41.987" cy="88.403" r="12.12"/></g><g id="PHAGOSOME_LIGHT_EFFECT" class="cls-8"><path class="cls-9" d="M85.824,135.49a5.278,5.278,0,0,0-1.52-2.57,1.972,1.972,0,0,0-2.22-.28,3.484,3.484,0,0,0-.76.89l.27-4.48a1.487,1.487,0,0,0,1.13,1.11,1.808,1.808,0,0,0,1.42.05c.8-.38,1.27-1.92,1.27-1.92Z" transform="translate(-27.586 -42.157)"/><path class="cls-10" d="M103.784,122.17s3.23,4.05,6.4,2.3c4.08-2.26,1.76-7.43,1.76-7.43a16.121,16.121,0,0,1-.11-1.85l7.34,13.08a7.456,7.456,0,0,0-7.34-.71c-4.06,1.84-3.76,5.32-3.76,5.32Z" transform="translate(-27.586 -42.157)"/><circle class="cls-11" cx="69.017" cy="89.093" r="11.58"/><circle class="cls-12" cx="99.567" cy="73.023" r="15.32"/><circle class="cls-13" cx="41.987" cy="88.403" r="12.12"/></g></g><g id="GRANULES"><circle class="cls-14" cx="69.017" cy="30.483" r="2.98"/><circle class="cls-15" cx="81.017" cy="28.483" r="2.98"/><circle class="cls-16" cx="91.587" cy="17.473" r="2.98"/><circle class="cls-17" cx="96.587" cy="30.483" r="2.98"/><circle class="cls-18" cx="63.057" cy="62.383" r="2.98"/><circle class="cls-19" cx="43.567" cy="27.503" r="2.98"/><circle class="cls-20" cx="20.587" cy="59.403" r="2.98"/><circle class="cls-21" cx="41.987" cy="66.543" r="2.98"/><circle class="cls-22" cx="26.547" cy="45.523" r="2.98"/><circle class="cls-23" cx="64.037" cy="16.453" r="2.98"/><circle class="cls-24" cx="69.517" cy="72.503" r="2.98"/><circle class="cls-25" cx="123.937" cy="35.523" r="2.98"/><circle class="cls-26" cx="123.937" cy="51.483" r="2.98"/><circle class="cls-27" cx="108.597" cy="20.453" r="2.98"/></g></g></svg>