<svg id="Layer_1" data-name="Layer 1" xmlns="http://www.w3.org/2000/svg" xmlns:xlink="http://www.w3.org/1999/xlink" viewBox="0 0 12.577 134.019"><defs><style>.cls-1{fill:url(#linear-gradient);}.cls-2{fill:url(#linear-gradient-2);}.cls-3{fill:url(#radial-gradient);}.cls-4{fill:url(#radial-gradient-2);}.cls-5{fill:url(#radial-gradient-3);}.cls-6{fill:url(#radial-gradient-4);}.cls-7{fill:url(#radial-gradient-5);}.cls-8{fill:url(#radial-gradient-6);}.cls-9{fill:url(#radial-gradient-7);}.cls-10{fill:url(#radial-gradient-8);}.cls-11{fill:url(#radial-gradient-9);}.cls-12{fill:url(#radial-gradient-10);}</style><linearGradient id="linear-gradient" x1="93.711" y1="100.005" x2="106.289" y2="100.005" gradientUnits="userSpaceOnUse"><stop offset="0.261" stop-color="#592963"/><stop offset="0.416" stop-color="#09f5c1"/><stop offset="0.744" stop-color="#592963"/></linearGradient><linearGradient id="linear-gradient-2" x1="100" y1="167.009" x2="100" y2="33.002" gradientUnits="userSpaceOnUse"><stop offset="0.12" stop-color="#592963"/><stop offset="0.129" stop-color="#513e6d" stop-opacity="0.918"/><stop offset="0.144" stop-color="#3a7787" stop-opacity="0.695"/><stop offset="0.163" stop-color="#16d3b1" stop-opacity="0.333"/><stop offset="0.169" stop-color="#09f5c1" stop-opacity="0.2"/><stop offset="0.176" stop-color="#16d3b1" stop-opacity="0.333"/><stop offset="0.195" stop-color="#3a7787" stop-opacity="0.695"/><stop offset="0.211" stop-color="#513e6d" stop-opacity="0.918"/><stop offset="0.22" stop-color="#592963"/><stop offset="0.257" stop-color="#592963"/><stop offset="0.302" stop-color="#592963"/><stop offset="0.364" stop-color="#09f5c1" stop-opacity="0"/><stop offset="0.372" stop-color="#19ccae" stop-opacity="0.199"/><stop offset="0.39" stop-color="#35868e" stop-opacity="0.546"/><stop offset="0.407" stop-color="#495376" stop-opacity="0.796"/><stop offset="0.422" stop-color="#553468" stop-opacity="0.947"/><stop offset="0.435" stop-color="#592963"/><stop offset="0.504" stop-color="#09f5c1" stop-opacity="0"/><stop offset="0.561" stop-color="#592963"/><stop offset="1" stop-color="#09f5c1" stop-opacity="0"/></linearGradient><radialGradient id="radial-gradient" cx="99.715" cy="541.729" r="6.808" gradientTransform="translate(-88.207 -76.829) scale(0.924 0.278)" gradientUnits="userSpaceOnUse"><stop offset="0" stop-color="#09f5c1"/><stop offset="1" stop-color="#592963"/></radialGradient><radialGradient id="radial-gradient-2" cx="99.715" cy="530.689" r="6.808" xlink:href="#radial-gradient"/><radialGradient id="radial-gradient-3" cx="99.715" cy="519.65" r="6.808" xlink:href="#radial-gradient"/><radialGradient id="radial-gradient-4" cx="83.352" cy="129.643" r="6.808" gradientTransform="translate(-42.522 -22.387) scale(0.568 0.924)" xlink:href="#radial-gradient"/><radialGradient id="radial-gradient-5" cx="83.352" cy="156.875" r="6.808" gradientTransform="translate(-42.522 -22.387) scale(0.568 0.924)" xlink:href="#radial-gradient"/><radialGradient id="radial-gradient-6" cx="99.715" cy="79.552" r="6.808" gradientTransform="translate(-88.207 -22.387) scale(0.924)" xlink:href="#radial-gradient"/><radialGradient id="radial-gradient-7" cx="99.715" cy="66.797" r="6.808" gradientTransform="translate(-88.207 -22.387) scale(0.924)" xlink:href="#radial-gradient"/><radialGradient id="radial-gradient-8" cx="99.988" cy="54.041" r="6.808" gradientTransform="translate(-88.207 -22.387) scale(0.924)" xlink:href="#radial-gradient"/><radialGradient id="radial-gradient-9" cx="100.124" cy="41.353" r="6.808" gradientTransform="translate(-88.207 -22.387) scale(0.924)" xlink:href="#radial-gradient"/><radialGradient id="radial-gradient-10" cx="100.124" cy="28.926" r="6.77" gradientTransform="translate(5.504 10.603) scale(0.924)" xlink:href="#radial-gradient"/></defs><title>R-ICO-013931</title><g id="ROBO3.2"><path class="cls-1" d="M106.289,50.709a6.272,6.272,0,0,0-2.067-4.66,1.51,1.51,0,0,1-.036-2.22,6.363,6.363,0,0,0,2.1-4.691A6.187,6.187,0,0,0,100,33a6.182,6.182,0,0,0-4.22,10.8,1.53,1.53,0,0,1,0,2.248,6.286,6.286,0,0,0,0,9.323,1.53,1.53,0,0,1,0,2.248,6.286,6.286,0,0,0,0,9.323,1.53,1.53,0,0,1,0,2.248,6.286,6.286,0,0,0,0,9.323,1.53,1.53,0,0,1,0,2.248A6.284,6.284,0,0,0,96.74,90.8a1.526,1.526,0,0,1,.745,1.3v33.352a5.357,5.357,0,0,1-.507,2.371,9.506,9.506,0,0,0,0,7.836,5.354,5.354,0,0,1,.507,2.371h0V150.6h0a5.36,5.36,0,0,1-.507,2.371,9.5,9.5,0,0,0,0,7.835,5.357,5.357,0,0,1,.507,2.371v1.314a2.516,2.516,0,0,0,5.031,0v-1.315a5.352,5.352,0,0,1,.506-2.37,9.5,9.5,0,0,0,0-7.835,5.356,5.356,0,0,1-.506-2.371h0V138.026h0a5.359,5.359,0,0,1,.506-2.371,9.5,9.5,0,0,0,0-7.834,5.359,5.359,0,0,1-.506-2.371V92.1a1.524,1.524,0,0,1,.744-1.3,6.284,6.284,0,0,0,.96-10.036,1.53,1.53,0,0,1,0-2.248,6.286,6.286,0,0,0,0-9.323,1.53,1.53,0,0,1,0-2.248,6.286,6.286,0,0,0,0-9.323,1.53,1.53,0,0,1,0-2.248A6.272,6.272,0,0,0,106.289,50.709Z" transform="translate(-93.711 -32.991)"/><path class="cls-2" d="M106.289,50.709a6.272,6.272,0,0,0-2.067-4.66,1.51,1.51,0,0,1-.036-2.22,6.363,6.363,0,0,0,2.1-4.691A6.187,6.187,0,0,0,100,33a6.182,6.182,0,0,0-4.22,10.8,1.53,1.53,0,0,1,0,2.248,6.286,6.286,0,0,0,0,9.323,1.53,1.53,0,0,1,0,2.248,6.286,6.286,0,0,0,0,9.323,1.53,1.53,0,0,1,0,2.248,6.286,6.286,0,0,0,0,9.323,1.53,1.53,0,0,1,0,2.248A6.284,6.284,0,0,0,96.74,90.8a1.526,1.526,0,0,1,.745,1.3v33.352a5.357,5.357,0,0,1-.507,2.371,9.506,9.506,0,0,0,0,7.836,5.354,5.354,0,0,1,.507,2.371h0V150.6h0a5.36,5.36,0,0,1-.507,2.371,9.5,9.5,0,0,0,0,7.835,5.357,5.357,0,0,1,.507,2.371v1.314a2.516,2.516,0,0,0,5.031,0v-1.315a5.352,5.352,0,0,1,.506-2.37,9.5,9.5,0,0,0,0-7.835,5.356,5.356,0,0,1-.506-2.371h0V138.026h0a5.359,5.359,0,0,1,.506-2.371,9.5,9.5,0,0,0,0-7.834,5.359,5.359,0,0,1-.506-2.371V92.1a1.524,1.524,0,0,1,.744-1.3,6.284,6.284,0,0,0,.96-10.036,1.53,1.53,0,0,1,0-2.248,6.286,6.286,0,0,0,0-9.323,1.53,1.53,0,0,1,0-2.248,6.286,6.286,0,0,0,0-9.323,1.53,1.53,0,0,1,0-2.248A6.272,6.272,0,0,0,106.289,50.709Z" transform="translate(-93.711 -32.991)"/><ellipse class="cls-3" cx="6.289" cy="73.922" rx="6.289" ry="1.889"/><ellipse class="cls-4" cx="6.289" cy="70.858" rx="6.289" ry="1.889"/><ellipse class="cls-5" cx="6.289" cy="67.795" rx="6.289" ry="1.889"/><ellipse class="cls-6" cx="6.289" cy="98.746" rx="3.867" ry="6.289"/><ellipse class="cls-7" cx="6.289" cy="123.901" rx="3.867" ry="6.289"/><circle class="cls-8" cx="6.289" cy="52.477" r="6.289"/><circle class="cls-9" cx="6.289" cy="40.821" r="6.289"/><circle class="cls-10" cx="6.289" cy="29.291" r="6.289"/><circle class="cls-11" cx="6.289" cy="17.697" r="6.289"/><path class="cls-12" d="M106.289,39.138a6.291,6.291,0,0,0-12.578,0,6.289,6.289,0,0,0,12.578,0Z" transform="translate(-93.711 -32.991)"/></g></svg>