<svg id="Layer_1" data-name="Layer 1" xmlns="http://www.w3.org/2000/svg" xmlns:xlink="http://www.w3.org/1999/xlink" viewBox="0 0 105.535 152.431"><defs><style>.cls-1{fill:#685925;}.cls-2{fill:url(#linear-gradient);}.cls-3{fill:url(#linear-gradient-2);}.cls-4{fill:url(#linear-gradient-3);}.cls-5{fill:url(#linear-gradient-4);}.cls-6{fill:url(#linear-gradient-5);}.cls-7{fill:url(#linear-gradient-6);}.cls-8{fill:url(#linear-gradient-7);}.cls-9{fill:url(#linear-gradient-8);}.cls-10{fill:url(#linear-gradient-9);}.cls-11{fill:url(#linear-gradient-10);}.cls-12{fill:url(#linear-gradient-11);}.cls-13{fill:url(#linear-gradient-12);}.cls-14{fill:url(#linear-gradient-13);}.cls-15{fill:url(#linear-gradient-14);}.cls-16{fill:none;stroke:#685925;stroke-linecap:round;stroke-linejoin:round;stroke-width:2px;}</style><linearGradient id="linear-gradient" x1="66.206" y1="111.336" x2="75.658" y2="111.336" gradientUnits="userSpaceOnUse"><stop offset="0" stop-color="#695b24"/><stop offset="0.027" stop-color="#7b6d37"/><stop offset="0.078" stop-color="#968953"/><stop offset="0.128" stop-color="#aa9d68"/><stop offset="0.178" stop-color="#b6a974"/><stop offset="0.227" stop-color="#baad78"/><stop offset="1" stop-color="#695815"/></linearGradient><linearGradient id="linear-gradient-2" x1="21.344" y1="41.082" x2="26.714" y2="48.861" xlink:href="#linear-gradient"/><linearGradient id="linear-gradient-3" x1="142.415" y1="111.336" x2="151.866" y2="111.336" xlink:href="#linear-gradient"/><linearGradient id="linear-gradient-4" x1="97.553" y1="41.082" x2="102.923" y2="48.861" xlink:href="#linear-gradient"/><linearGradient id="linear-gradient-5" x1="104.31" y1="95.829" x2="113.762" y2="95.829" xlink:href="#linear-gradient"/><linearGradient id="linear-gradient-6" x1="59.449" y1="25.575" x2="64.818" y2="33.353" xlink:href="#linear-gradient"/><linearGradient id="linear-gradient-7" x1="85.258" y1="101.589" x2="94.71" y2="101.589" xlink:href="#linear-gradient"/><linearGradient id="linear-gradient-8" x1="40.397" y1="31.335" x2="45.766" y2="39.113" xlink:href="#linear-gradient"/><linearGradient id="linear-gradient-9" x1="123.362" y1="101.589" x2="132.814" y2="101.589" xlink:href="#linear-gradient"/><linearGradient id="linear-gradient-10" x1="78.501" y1="31.335" x2="83.87" y2="39.113" xlink:href="#linear-gradient"/><linearGradient id="linear-gradient-11" x1="91.609" y1="125.958" x2="101.06" y2="125.958" xlink:href="#linear-gradient"/><linearGradient id="linear-gradient-12" x1="46.747" y1="55.704" x2="52.117" y2="63.482" xlink:href="#linear-gradient"/><linearGradient id="linear-gradient-13" x1="117.012" y1="125.958" x2="126.463" y2="125.958" xlink:href="#linear-gradient"/><linearGradient id="linear-gradient-14" x1="72.15" y1="55.704" x2="77.52" y2="63.482" xlink:href="#linear-gradient"/></defs><title>GPCR_CLASS_C_3</title><path class="cls-1" d="M128.933,141.144c.071,3.428-.033,6.986-1.76,10.507a8.538,8.538,0,0,1-1.852,2.437,7.25,7.25,0,0,1-2.908,1.581,7.918,7.918,0,0,1-3.309.069,9.572,9.572,0,0,1-2.9-1.125,12.91,12.91,0,0,1-4.158-3.966,20.24,20.24,0,0,1-2.4-4.9,31.162,31.162,0,0,1-1.263-5.149,36.7,36.7,0,0,1-.312-5.215.966.966,0,0,1,1.931-.033v.033a22.194,22.194,0,0,0,2.176,9.3,15.073,15.073,0,0,0,5.963,6.464c2.4,1.288,4.676,1.184,6.535-1.092a10.814,10.814,0,0,0,1.906-4.107,24.742,24.742,0,0,0,.662-4.807v-.027a.845.845,0,0,1,1.689.027Z" transform="translate(-46.331 -24.045)"/><path class="cls-1" d="M109.857,150.543a17.457,17.457,0,0,1,.229,9.909,34.1,34.1,0,0,1-3.686,9.3,23.309,23.309,0,0,1-2.9,4.2,7.476,7.476,0,0,1-2.229,1.682,6,6,0,0,1-.758.248,3.605,3.605,0,0,1-.856.063,2.861,2.861,0,0,1-1.607-.619,5.181,5.181,0,0,1-1.608-2.386,13.346,13.346,0,0,1-.637-2.493,39.647,39.647,0,0,1-.419-4.929.953.953,0,1,1,1.9-.077q0,.026,0,.052v.025a26.234,26.234,0,0,0,.27,4.631,11.611,11.611,0,0,0,.569,2.141,3.264,3.264,0,0,0,1.016,1.545,1.16,1.16,0,0,0,1.3.012,5.637,5.637,0,0,0,1.5-1.285,14.048,14.048,0,0,0,2.209-3.885,44.393,44.393,0,0,0,2.062-8.958,41.059,41.059,0,0,1,2-9.172l.007-.017a.875.875,0,0,1,1.634.017Z" transform="translate(-46.331 -24.045)"/><path class="cls-1" d="M147.986,150.543a33.727,33.727,0,0,1-.414,6.015,34.969,34.969,0,0,1-1.592,5.887,22.948,22.948,0,0,1-7.033,10.119,18.446,18.446,0,0,1-5.546,3.147,11.3,11.3,0,0,1-6.647.449,8.024,8.024,0,0,1-1.649-.645,7.431,7.431,0,0,1-1.418-1.063,8.113,8.113,0,0,1-1.925-2.784,16.09,16.09,0,0,1-.989-6.155.966.966,0,0,1,1.931-.025v.025a12.592,12.592,0,0,0,1.1,5.217,4.651,4.651,0,0,0,3.561,2.737,8.071,8.071,0,0,0,4.72-.988,20.419,20.419,0,0,0,4.315-2.957,32.944,32.944,0,0,0,3.73-3.855,29.894,29.894,0,0,0,3.162-4.464,23.978,23.978,0,0,0,2.148-5.119,26.279,26.279,0,0,0,.856-5.541v-.024a.845.845,0,0,1,1.689.024Z" transform="translate(-46.331 -24.045)"/><path class="cls-1" d="M90.829,141.144a38.4,38.4,0,0,1-1.054,10.5,21.433,21.433,0,0,1-1.942,5.122,15.353,15.353,0,0,1-3.6,4.387,10.455,10.455,0,0,1-5.518,2.47,7.042,7.042,0,0,1-3.25-.405,6.823,6.823,0,0,1-2.649-1.823,11.221,11.221,0,0,1-2.425-5.182,26.449,26.449,0,0,1-.428-5.323.966.966,0,0,1,1.931-.03v.03a19.415,19.415,0,0,0,.677,4.783,7.6,7.6,0,0,0,2.171,3.766c2.072,1.763,4.783.6,6.914-1.3a19.028,19.028,0,0,0,2.934-3.382,26.914,26.914,0,0,0,2.384-4.081,25.258,25.258,0,0,0,2.162-9.53v-.016a.845.845,0,0,1,1.689.016Z" transform="translate(-46.331 -24.045)"/><path class="cls-2" d="M66.206,69.844v81.048c0,1.07,2.116,1.938,4.726,1.938s4.726-.868,4.726-1.938V69.844Z" transform="translate(-46.331 -24.045)"/><ellipse class="cls-3" cx="24.6" cy="45.799" rx="4.726" ry="1.938"/><path class="cls-4" d="M142.415,69.844v81.048c0,1.07,2.116,1.938,4.726,1.938s4.726-.868,4.726-1.938V69.844Z" transform="translate(-46.331 -24.045)"/><ellipse class="cls-5" cx="100.809" cy="45.799" rx="4.726" ry="1.938"/><path class="cls-6" d="M104.31,54.336v81.048c0,1.07,2.116,1.938,4.726,1.938s4.726-.868,4.726-1.938V54.336Z" transform="translate(-46.331 -24.045)"/><ellipse class="cls-7" cx="62.705" cy="30.291" rx="4.726" ry="1.938"/><path class="cls-8" d="M85.258,60.1v81.048c0,1.07,2.116,1.938,4.726,1.938s4.726-.868,4.726-1.938V60.1Z" transform="translate(-46.331 -24.045)"/><ellipse class="cls-9" cx="43.652" cy="36.051" rx="4.726" ry="1.938"/><path class="cls-10" d="M123.362,60.1v81.048c0,1.07,2.116,1.938,4.726,1.938s4.726-.868,4.726-1.938V60.1Z" transform="translate(-46.331 -24.045)"/><ellipse class="cls-11" cx="81.757" cy="36.051" rx="4.726" ry="1.938"/><path class="cls-12" d="M91.609,84.465v81.048c0,1.07,2.116,1.938,4.726,1.938s4.726-.868,4.726-1.938V84.465Z" transform="translate(-46.331 -24.045)"/><ellipse class="cls-13" cx="50.003" cy="60.42" rx="4.726" ry="1.938"/><path class="cls-14" d="M117.012,84.465v81.048c0,1.07,2.116,1.938,4.726,1.938s4.726-.868,4.726-1.938V84.465Z" transform="translate(-46.331 -24.045)"/><ellipse class="cls-15" cx="75.406" cy="60.42" rx="4.726" ry="1.938"/><path class="cls-1" d="M108.191,54.336a24.742,24.742,0,0,0-.662-4.807,10.814,10.814,0,0,0-1.906-4.107c-1.859-2.275-4.136-2.38-6.535-1.092a15.072,15.072,0,0,0-5.963,6.464,22.194,22.194,0,0,0-2.176,9.3v.032a.966.966,0,0,1-1.931-.032,36.7,36.7,0,0,1,.312-5.215,31.161,31.161,0,0,1,1.263-5.149,20.24,20.24,0,0,1,2.4-4.9,12.91,12.91,0,0,1,4.158-3.966,9.572,9.572,0,0,1,2.9-1.125,7.918,7.918,0,0,1,3.309.069,7.25,7.25,0,0,1,2.908,1.581,8.538,8.538,0,0,1,1.852,2.437c1.726,3.521,1.83,7.078,1.76,10.507a.845.845,0,0,1-1.689.03Z" transform="translate(-46.331 -24.045)"/><path class="cls-1" d="M146.3,69.844a25.258,25.258,0,0,0-2.162-9.53,26.913,26.913,0,0,0-2.384-4.081,19.028,19.028,0,0,0-2.934-3.382c-2.131-1.9-4.842-3.067-6.914-1.3a7.6,7.6,0,0,0-2.171,3.766,19.417,19.417,0,0,0-.677,4.783v.028a.966.966,0,0,1-1.931-.028,26.45,26.45,0,0,1,.428-5.323,11.221,11.221,0,0,1,2.425-5.182,6.823,6.823,0,0,1,2.649-1.823,7.042,7.042,0,0,1,3.25-.405,10.455,10.455,0,0,1,5.518,2.47,15.353,15.353,0,0,1,3.6,4.387,21.432,21.432,0,0,1,1.942,5.122,38.4,38.4,0,0,1,1.054,10.5.846.846,0,0,1-1.689.02Z" transform="translate(-46.331 -24.045)"/><path class="cls-1" d="M120.892,84.465a21.084,21.084,0,0,0-.875-5.221,11.961,11.961,0,0,0-2.457-4.411,10.476,10.476,0,0,0-3.838-2.734,11.482,11.482,0,0,0-4.471-.913,11.666,11.666,0,0,0-8.542,3.745A14.707,14.707,0,0,0,97.3,84.465v.028a.966.966,0,0,1-1.931-.028,22.688,22.688,0,0,1,.672-5.8,17.154,17.154,0,0,1,2.515-5.436,14.676,14.676,0,0,1,4.524-4.211,12.784,12.784,0,0,1,6.084-1.8,11.919,11.919,0,0,1,10.788,5.865,17.769,17.769,0,0,1,2.179,5.607,26.887,26.887,0,0,1,.452,5.775.845.845,0,0,1-1.689.032Z" transform="translate(-46.331 -24.045)"/><path class="cls-16" d="M70.932,69.844c0-16.264-12.092-12.21-18.653-20.839" transform="translate(-46.331 -24.045)"/><path class="cls-1" d="M53.784,25.813a20.379,20.379,0,0,0-3.65,8.878,19.1,19.1,0,0,0-.072,4.729,25.624,25.624,0,0,0,1.04,4.635,19.8,19.8,0,0,0,2.108,4.41,14.194,14.194,0,0,0,3.475,3.615,13.916,13.916,0,0,0,4.6,2.083,14.863,14.863,0,0,0,4.994.3A20.35,20.35,0,0,0,71,53.241a21.5,21.5,0,0,0,4.165-2.269,19.736,19.736,0,0,0,3.375-3.244,20.1,20.1,0,0,0,2.4-3.982,18.615,18.615,0,0,0,1.267-4.48,18.264,18.264,0,0,0,.024-4.707,18.561,18.561,0,0,0-3.7-8.851l-.006-.008a1.03,1.03,0,0,1,1.487-1.408,17.831,17.831,0,0,1,5.725,9.631,18.89,18.89,0,0,1,.418,2.866,12.32,12.32,0,0,1,.02,1.451c-.017.484-.009.972-.053,1.455a20.8,20.8,0,0,1-1.374,5.67,18.73,18.73,0,0,1-7.5,8.735,18.511,18.511,0,0,1-5.315,2.212,19.325,19.325,0,0,1-5.648.339A25.5,25.5,0,0,1,60.9,55.467a26.172,26.172,0,0,1-9.3-5.643,18.472,18.472,0,0,1-3.432-4.492,16.024,16.024,0,0,1-1.688-5.488,13.9,13.9,0,0,1-.109-1.44,14.218,14.218,0,0,1-.034-1.444,17.994,17.994,0,0,1,.333-2.867,16.812,16.812,0,0,1,5.618-9.684,1.033,1.033,0,0,1,1.5,1.391Z" transform="translate(-46.331 -24.045)"/></svg>