<svg id="Layer_1" data-name="Layer 1" xmlns="http://www.w3.org/2000/svg" xmlns:xlink="http://www.w3.org/1999/xlink" viewBox="0 0 32.5 172.003"><defs><style>.cls-1{fill:url(#linear-gradient);}.cls-2{fill:url(#linear-gradient-2);}.cls-3{fill:url(#linear-gradient-3);}</style><linearGradient id="linear-gradient" x1="17.5" y1="127.003" x2="17.5" y2="172.003" gradientUnits="userSpaceOnUse"><stop offset="0" stop-color="#222164"/><stop offset="1" stop-color="#af5077"/></linearGradient><linearGradient id="linear-gradient-2" x1="17.5" y1="82.003" x2="17.5" y2="127.003" xlink:href="#linear-gradient"/><linearGradient id="linear-gradient-3" x1="84.191" y1="56.733" x2="114.765" y2="56.733" gradientUnits="userSpaceOnUse"><stop offset="0" stop-color="#918922"/><stop offset="1" stop-color="#491232"/></linearGradient></defs><title>UNC5</title><g id="UNC5"><rect class="cls-1" x="2.5" y="127.003" width="30" height="45" rx="4" ry="4"/><rect class="cls-2" x="2.5" y="82.003" width="30" height="45" rx="4" ry="4"/><path class="cls-3" d="M112.261,98.985h0a2.5,2.5,0,0,1-2.5-2.5V90.694A20,20,0,0,1,96.594,52.983a20,20,0,1,1,16.825-36.25,2.5,2.5,0,0,1-2.311,4.435,14.821,14.821,0,0,0-6.917-1.687,15,15,0,0,0,0,30,14.825,14.825,0,0,0,6.814-1.633,2.5,2.5,0,0,1,3.755,2.217V55.95a2.5,2.5,0,0,1-3.656,2.218,14.83,14.83,0,0,0-6.913-1.684,15,15,0,0,0,0,30,14.836,14.836,0,0,0,6.917-1.686,2.5,2.5,0,0,1,3.654,2.218v9.469A2.5,2.5,0,0,1,112.261,98.985Z" transform="translate(-84.191 -14.482)"/></g></svg>