<svg id="Layer_1" data-name="Layer 1" xmlns="http://www.w3.org/2000/svg" xmlns:xlink="http://www.w3.org/1999/xlink" viewBox="0 0 197.453 89.223"><defs><style>.cls-1{fill:url(#linear-gradient);}.cls-2{fill:url(#linear-gradient-2);}.cls-3{fill:url(#linear-gradient-3);}.cls-4{fill:url(#linear-gradient-4);}.cls-5{fill:url(#linear-gradient-5);}.cls-6{fill:url(#linear-gradient-6);}.cls-7{fill:url(#linear-gradient-7);}.cls-8{fill:url(#linear-gradient-8);}.cls-9{fill:url(#linear-gradient-9);}.cls-10{fill:url(#linear-gradient-10);}.cls-11{fill:#3d9799;}.cls-12{fill:#993d61;}.cls-13{opacity:0.7;}.cls-14{fill:url(#linear-gradient-11);}.cls-15{fill:url(#linear-gradient-12);}.cls-16{fill:url(#linear-gradient-13);}.cls-17{fill:url(#linear-gradient-14);}.cls-18{fill:url(#linear-gradient-15);}.cls-19{fill:url(#linear-gradient-16);}.cls-20{fill:url(#linear-gradient-17);}.cls-21{fill:url(#linear-gradient-18);}.cls-22{fill:url(#linear-gradient-19);}.cls-23{fill:url(#linear-gradient-20);}</style><linearGradient id="linear-gradient" x1="-866.471" y1="12.223" x2="-866.471" y2="37.913" gradientTransform="translate(-737.585 125.258) rotate(180)" gradientUnits="userSpaceOnUse"><stop offset="0" stop-color="#042224"/><stop offset="0.1" stop-color="#139ba2"/><stop offset="0.25" stop-color="#90a1a2"/><stop offset="0.6" stop-color="#0e9ba2"/><stop offset="1" stop-color="#042224"/></linearGradient><linearGradient id="linear-gradient-2" x1="-905.038" y1="12.223" x2="-905.038" y2="37.913" xlink:href="#linear-gradient"/><linearGradient id="linear-gradient-3" x1="-924.32" y1="12.223" x2="-924.32" y2="37.913" gradientTransform="translate(-737.585 125.258) rotate(180)" gradientUnits="userSpaceOnUse"><stop offset="0" stop-color="#240410"/><stop offset="0.1" stop-color="#a20e44"/><stop offset="0.25" stop-color="#a29097"/><stop offset="0.6" stop-color="#a20e44"/><stop offset="1" stop-color="#240410"/></linearGradient><linearGradient id="linear-gradient-4" x1="-770.132" y1="12.223" x2="-770.132" y2="37.913" xlink:href="#linear-gradient-3"/><linearGradient id="linear-gradient-5" x1="-808.694" y1="12.223" x2="-808.694" y2="37.913" xlink:href="#linear-gradient-3"/><linearGradient id="linear-gradient-6" x1="-827.976" y1="12.223" x2="-827.976" y2="37.913" xlink:href="#linear-gradient"/><linearGradient id="linear-gradient-7" x1="-847.257" y1="12.223" x2="-847.257" y2="37.913" xlink:href="#linear-gradient-3"/><linearGradient id="linear-gradient-8" x1="-750.851" y1="12.223" x2="-750.851" y2="37.913" xlink:href="#linear-gradient"/><linearGradient id="linear-gradient-9" x1="-907.519" y1="43.055" x2="-907.519" y2="68.745" gradientTransform="matrix(1, 0, 0, -1, 959.346, 125.258)" xlink:href="#linear-gradient"/><linearGradient id="linear-gradient-10" x1="-696.935" y1="-18.609" x2="-696.935" y2="7.081" gradientTransform="matrix(1, 0, 0, -1, 845.106, 125.258)" xlink:href="#linear-gradient-3"/><linearGradient id="linear-gradient-11" x1="250.643" y1="-43.194" x2="250.643" y2="-17.283" gradientTransform="translate(-218.096 130.159)" gradientUnits="userSpaceOnUse"><stop offset="0" stop-color="#042224"/><stop offset="0.1" stop-color="#0e9ba2"/><stop offset="0.124" stop-color="#179ba2"/><stop offset="0.162" stop-color="#2f9da2"/><stop offset="0.211" stop-color="#579ea2"/><stop offset="0.268" stop-color="#8ea1a2"/><stop offset="0.27" stop-color="#90a1a2"/><stop offset="0.315" stop-color="#8da1a2"/><stop offset="0.342" stop-color="#85a0a2"/><stop offset="0.364" stop-color="#77a0a2"/><stop offset="0.384" stop-color="#629fa2"/><stop offset="0.402" stop-color="#489ea2"/><stop offset="0.419" stop-color="#289ca2"/><stop offset="0.43" stop-color="#0e9ba2"/><stop offset="1" stop-color="#042224"/></linearGradient><linearGradient id="linear-gradient-12" x1="269.924" y1="-43.194" x2="269.924" y2="-17.283" gradientTransform="translate(-218.096 130.159)" xlink:href="#linear-gradient-3"/><linearGradient id="linear-gradient-13" x1="289.205" y1="-48.036" x2="289.205" y2="-17.306" xlink:href="#linear-gradient-11"/><linearGradient id="linear-gradient-14" x1="308.486" y1="-43.194" x2="308.486" y2="-17.283" gradientTransform="translate(-218.096 130.159)" xlink:href="#linear-gradient-3"/><linearGradient id="linear-gradient-15" x1="327.767" y1="-43.194" x2="327.767" y2="-17.283" xlink:href="#linear-gradient-11"/><linearGradient id="linear-gradient-16" x1="231.362" y1="-43.194" x2="231.362" y2="-17.283" gradientTransform="translate(-218.096 130.159)" xlink:href="#linear-gradient-3"/><linearGradient id="linear-gradient-17" x1="346.987" y1="-43.201" x2="346.987" y2="-12.471" gradientTransform="translate(-218.096 130.159)" xlink:href="#linear-gradient-3"/><linearGradient id="linear-gradient-18" x1="366.268" y1="-43.194" x2="366.268" y2="-17.283" xlink:href="#linear-gradient-11"/><linearGradient id="linear-gradient-19" x1="385.549" y1="-43.194" x2="385.549" y2="-17.283" gradientTransform="translate(-218.096 130.159)" xlink:href="#linear-gradient-3"/><linearGradient id="linear-gradient-20" x1="404.83" y1="-43.194" x2="404.83" y2="-17.283" xlink:href="#linear-gradient-11"/></defs><title>Single_Strand_Annealing</title><g id="Single_Strand_Annealing"><g id="DNA_simplified"><g id="BOTTOM"><path class="cls-1" d="M117.669,113c11.222,0,3.152-26,19.291-26H140.1c-11.211,0-3.141,26-19.281,26Z" transform="translate(-1.274 -55.388)"/><path class="cls-2" d="M156.242,113c11.211,0,3.141-26,19.281-26l3.141.019C167.453,87,175.523,113,159.383,113Z" transform="translate(-1.274 -55.388)"/><path class="cls-3" d="M175.523,113c11.211,0,3.141-25.978,19.281-26l3.141.019C186.734,87,194.8,113,178.664,113Z" transform="translate(-1.274 -55.388)"/><path class="cls-4" d="M21.336,113c11.211,0,3.141-26,19.281-26h3.141c-11.211,0-3.141,26-19.281,26Z" transform="translate(-1.274 -55.388)"/><path class="cls-5" d="M59.9,113c11.211,0,3.141-25.978,19.281-26l3.141.019C71.109,87,79.179,113,63.039,113Z" transform="translate(-1.274 -55.388)"/><path class="cls-6" d="M79.179,113C90.39,113,82.32,87.02,98.46,87H101.6C90.39,87,98.46,113,82.32,113Z" transform="translate(-1.274 -55.388)"/><path class="cls-7" d="M98.46,113c11.211,0,3.141-26,19.281-26h3.141c-11.211,0-3.141,26-19.281,26Z" transform="translate(-1.274 -55.388)"/><path class="cls-8" d="M2.054,113C13.266,113,5.2,87.02,21.336,87h3.141C13.266,87,21.336,113,5.2,113Z" transform="translate(-1.274 -55.388)"/><path class="cls-9" d="M63.039,82.166c-11.211,0-3.141-25.978-19.281-26H40.617c11.211,0,3.141,26,19.281,26Z" transform="translate(-1.274 -55.388)"/><path class="cls-10" d="M159.383,143.831c-11.211,0-3.141-26-19.281-26h-3.141c11.211,0,3.141,26,19.281,26Z" transform="translate(-1.274 -55.388)"/></g><g id="BOTTOM_LINE"><path class="cls-11" d="M120.821,113.78h-3.152a.781.781,0,0,1,0-1.562c4.166,0,5.3-4.01,6.666-10.614.747-3.606,1.52-7.334,3.271-10.259a10.088,10.088,0,0,1,9.354-5.124H140.1a.781.781,0,1,1,0,1.562c-4.16,0-5.29,4.008-6.657,10.61-.747,3.607-1.519,7.336-3.269,10.262A10.088,10.088,0,0,1,120.821,113.78Zm15.052-25.952c-7.216.617-8.634,7.463-10.008,14.093-.827,3.99-1.673,8.072-3.964,10.253,7.223-.613,8.641-7.463,10.014-14.1C132.741,94.088,133.586,90.007,135.873,87.828Z" transform="translate(-1.274 -55.388)"/><path class="cls-11" d="M159.383,113.78h-3.141a.781.781,0,0,1,0-1.562c4.689,0,5.727-4.085,6.879-10.812.611-3.569,1.243-7.258,2.93-10.144,1.984-3.392,5.083-5.041,9.472-5.041l3.146.019a.781.781,0,0,1,0,1.562h-.012c-4.151,0-5.28,4-6.645,10.6-.747,3.605-1.519,7.333-3.269,10.258A10.088,10.088,0,0,1,159.383,113.78Zm15.074-25.96A8.225,8.225,0,0,0,167.4,92.05c-1.544,2.64-2.152,6.188-2.739,9.619-.7,4.072-1.411,8.239-3.821,10.466,6.9-.816,8.29-7.539,9.639-14.055C171.306,94.082,172.153,89.99,174.457,87.819Z" transform="translate(-1.274 -55.388)"/><path class="cls-12" d="M178.664,113.78h-3.141a.781.781,0,0,1,0-1.562c4.161,0,5.291-4.006,6.657-10.6.747-3.605,1.519-7.333,3.269-10.259a10.1,10.1,0,0,1,9.354-5.134l3.147.019a.781.781,0,0,1,0,1.562h-.012c-4.151,0-5.28,4-6.645,10.6-.747,3.605-1.519,7.333-3.269,10.258A10.088,10.088,0,0,1,178.664,113.78ZM193.73,87.827c-7.227.616-8.646,7.467-10.02,14.1-.825,3.986-1.67,8.064-3.957,10.243,7.215-.618,8.633-7.463,10.006-14.092C190.586,94.087,191.433,90,193.73,87.827Z" transform="translate(-1.274 -55.388)"/><path class="cls-12" d="M24.477,113.78H21.336a.781.781,0,0,1,0-1.562c4.16,0,5.29-4.008,6.657-10.61.747-3.607,1.519-7.336,3.269-10.262a10.088,10.088,0,0,1,9.355-5.126h3.141a.781.781,0,1,1,0,1.562c-4.16,0-5.29,4.008-6.657,10.61-.747,3.607-1.519,7.336-3.269,10.262A10.088,10.088,0,0,1,24.477,113.78ZM39.529,87.828c-7.217.617-8.634,7.465-10.007,14.1-.825,3.988-1.67,8.068-3.957,10.248,7.217-.617,8.634-7.465,10.007-14.1C36.4,94.088,37.242,90.007,39.529,87.828Z" transform="translate(-1.274 -55.388)"/><path class="cls-12" d="M63.039,113.78H59.9a.781.781,0,0,1,0-1.562c4.161,0,5.291-4.006,6.657-10.6.747-3.605,1.519-7.333,3.269-10.259a10.1,10.1,0,0,1,9.354-5.134l3.147.019a.781.781,0,0,1,0,1.562h-.012c-4.151,0-5.28,4-6.645,10.6-.747,3.605-1.519,7.333-3.269,10.258A10.088,10.088,0,0,1,63.039,113.78ZM78.1,87.827c-7.227.616-8.646,7.467-10.02,14.1-.825,3.986-1.67,8.064-3.957,10.243,7.215-.618,8.633-7.463,10.006-14.092C74.961,94.087,75.808,90,78.1,87.827Z" transform="translate(-1.274 -55.388)"/><path class="cls-11" d="M82.32,113.78H79.179a.781.781,0,0,1,0-1.562c4.161,0,5.291-4.006,6.657-10.6.747-3.605,1.519-7.333,3.269-10.259a10.1,10.1,0,0,1,9.354-5.134H101.6a.781.781,0,1,1,0,1.562c-4.16,0-5.29,4.008-6.657,10.61-.747,3.607-1.519,7.336-3.269,10.262A10.088,10.088,0,0,1,82.32,113.78ZM97.371,87.829c-7.215.626-8.632,7.471-10.006,14.1-.825,3.985-1.67,8.064-3.957,10.242,7.216-.618,8.633-7.465,10.006-14.1C94.24,94.088,95.085,90.009,97.371,87.829Z" transform="translate(-1.274 -55.388)"/><path class="cls-12" d="M101.6,113.78H98.46a.781.781,0,0,1,0-1.562c4.16,0,5.29-4.008,6.657-10.61.747-3.607,1.519-7.336,3.269-10.262a10.088,10.088,0,0,1,9.355-5.126h3.141a.781.781,0,1,1,0,1.562c-4.16,0-5.29,4.008-6.657,10.61-.747,3.607-1.519,7.336-3.269,10.262A10.088,10.088,0,0,1,101.6,113.78Zm15.052-25.952c-7.217.617-8.634,7.465-10.007,14.1-.826,3.988-1.67,8.068-3.958,10.248,7.217-.617,8.634-7.465,10.007-14.1C113.522,94.088,114.366,90.007,116.654,87.828Z" transform="translate(-1.274 -55.388)"/><path class="cls-11" d="M5.2,113.78H2.055a.781.781,0,0,1,0-1.562c4.161,0,5.291-4.006,6.657-10.6.747-3.605,1.519-7.333,3.269-10.259a10.1,10.1,0,0,1,9.354-5.134h3.142a.781.781,0,1,1,0,1.562c-4.16,0-5.29,4.008-6.657,10.61-.747,3.607-1.519,7.336-3.269,10.262A10.088,10.088,0,0,1,5.2,113.78ZM20.246,87.829c-7.215.626-8.632,7.471-10.006,14.1-.825,3.985-1.67,8.064-3.957,10.242,7.216-.618,8.633-7.465,10.006-14.1C17.116,94.088,17.96,90.009,20.246,87.829Z" transform="translate(-1.274 -55.388)"/></g><g id="TOP" class="cls-13"><path class="cls-14" d="M43.758,113c-11.211,0-3.141-26-19.281-26H21.336c11.211,0,3.141,26,19.281,26Z" transform="translate(-1.274 -55.388)"/><path class="cls-15" d="M63.039,113C51.828,113,59.9,87,43.758,87H40.617c11.211,0,3.141,26,19.281,26Z" transform="translate(-1.274 -55.388)"/><path class="cls-16" d="M82.32,113c-11.211,0-3.141-30.832-19.281-30.832H59.9C71.109,82.166,63.039,113,79.179,113Z" transform="translate(-1.274 -55.388)"/><path class="cls-17" d="M101.6,113C90.39,113,98.46,87,82.32,87H79.179c11.211,0,3.141,26,19.281,26Z" transform="translate(-1.274 -55.388)"/><path class="cls-18" d="M120.882,113c-11.211,0-3.141-26-19.281-26H98.46c11.211,0,3.141,26,19.281,26Z" transform="translate(-1.274 -55.388)"/><path class="cls-19" d="M24.477,113C13.266,113,21.336,87,5.2,87H2.054c11.211,0,3.141,26,19.281,26Z" transform="translate(-1.274 -55.388)"/><path class="cls-20" d="M140.1,117.834c-11.211,0-3.141-30.832-19.281-30.832H117.68c11.211,0,3.141,30.832,19.281,30.832Z" transform="translate(-1.274 -55.388)"/><path class="cls-21" d="M159.383,113c-11.211,0-3.141-26-19.281-26h-3.141c11.211,0,3.141,26,19.281,26Z" transform="translate(-1.274 -55.388)"/><path class="cls-22" d="M178.664,113c-11.211,0-3.141-26-19.281-26h-3.141c11.211,0,3.141,26,19.281,26Z" transform="translate(-1.274 -55.388)"/><path class="cls-23" d="M197.945,113c-11.211,0-3.141-26-19.281-26h-3.141c11.211,0,3.141,26,19.281,26Z" transform="translate(-1.274 -55.388)"/></g><g id="TOP_LINE"><path class="cls-11" d="M43.758,113.779H40.617a10.088,10.088,0,0,1-9.355-5.126c-1.75-2.926-2.522-6.655-3.269-10.262-1.367-6.6-2.5-10.61-6.657-10.61a.781.781,0,0,1,0-1.562h3.141a10.088,10.088,0,0,1,9.355,5.126c1.75,2.926,2.522,6.655,3.269,10.262,1.367,6.6,2.5,10.61,6.657,10.61a.781.781,0,1,1,0,1.562ZM25.564,87.827c2.287,2.18,3.132,6.26,3.957,10.248,1.373,6.632,2.79,13.48,10.007,14.1-2.287-2.18-3.132-6.26-3.957-10.248C34.2,95.292,32.782,88.445,25.564,87.827Z" transform="translate(-1.274 -55.388)"/><path class="cls-11" d="M82.32,113.782H79.179c-9.461,0-11.145-9.648-12.631-18.16-1.187-6.8-2.212-12.673-6.65-12.673a.783.783,0,1,1,0-1.567h3.141c9.461,0,11.145,9.648,12.631,18.16,1.187,6.8,2.212,12.673,6.65,12.673a.783.783,0,0,1,0,1.567Zm-18.41-30.8c2.446,2.428,3.3,7.3,4.181,12.369,1.394,7.985,2.834,16.233,10.217,16.828-2.446-2.428-3.3-7.3-4.181-12.369C72.733,91.827,71.293,83.579,63.91,82.984Z" transform="translate(-1.274 -55.388)"/><path class="cls-12" d="M63.039,113.779H59.9a10.088,10.088,0,0,1-9.355-5.126c-1.75-2.926-2.522-6.655-3.269-10.262-1.367-6.6-2.5-10.61-6.657-10.61a.781.781,0,0,1,0-1.562h3.141a10.088,10.088,0,0,1,9.355,5.126c1.75,2.926,2.522,6.655,3.269,10.262,1.367,6.6,2.5,10.61,6.657,10.61a.781.781,0,1,1,0,1.562ZM44.846,87.827c2.287,2.18,3.132,6.26,3.957,10.248,1.373,6.632,2.79,13.48,10.007,14.1-2.287-2.18-3.132-6.26-3.957-10.248C53.48,95.292,52.063,88.445,44.846,87.827Z" transform="translate(-1.274 -55.388)"/><path class="cls-12" d="M101.6,113.779H98.46a10.088,10.088,0,0,1-9.355-5.126c-1.75-2.926-2.522-6.655-3.269-10.262-1.366-6.6-2.5-10.61-6.657-10.61a.781.781,0,1,1,0-1.562H82.32a10.088,10.088,0,0,1,9.355,5.126c1.75,2.926,2.522,6.655,3.269,10.262,1.367,6.6,2.5,10.61,6.657,10.61a.781.781,0,1,1,0,1.562ZM83.408,87.827c2.287,2.18,3.132,6.26,3.957,10.248,1.373,6.632,2.79,13.48,10.007,14.1-2.287-2.18-3.132-6.26-3.958-10.248C92.042,95.292,90.625,88.445,83.408,87.827Z" transform="translate(-1.274 -55.388)"/><path class="cls-12" d="M140.1,118.617h-3.142c-9.461,0-11.145-9.647-12.631-18.159-1.187-6.8-2.212-12.673-6.65-12.673a.783.783,0,1,1,0-1.567h3.142c9.461,0,11.145,9.647,12.631,18.159,1.187,6.8,2.212,12.673,6.65,12.673a.783.783,0,1,1,0,1.567Zm-18.411-30.8c2.446,2.428,3.3,7.3,4.181,12.369,1.394,7.986,2.833,16.234,10.217,16.828-2.446-2.428-3.3-7.3-4.181-12.369C130.515,96.661,129.076,88.413,121.691,87.819Z" transform="translate(-1.274 -55.388)"/><path class="cls-11" d="M120.883,113.779h-3.141a10.088,10.088,0,0,1-9.355-5.126c-1.75-2.926-2.522-6.655-3.269-10.262-1.367-6.6-2.5-10.61-6.657-10.61a.781.781,0,1,1,0-1.562H101.6a10.088,10.088,0,0,1,9.355,5.126c1.75,2.926,2.522,6.655,3.269,10.262,1.367,6.6,2.5,10.61,6.657,10.61a.781.781,0,1,1,0,1.562ZM102.689,87.827c2.287,2.18,3.132,6.26,3.958,10.248,1.373,6.632,2.79,13.48,10.007,14.1-2.287-2.18-3.132-6.26-3.958-10.248C111.323,95.292,109.906,88.445,102.689,87.827Z" transform="translate(-1.274 -55.388)"/><path class="cls-12" d="M24.477,113.779H21.336a10.088,10.088,0,0,1-9.355-5.126C10.23,105.728,9.458,102,8.711,98.392c-1.366-6.6-2.5-10.61-6.657-10.61a.781.781,0,1,1,0-1.562H5.2a10.088,10.088,0,0,1,9.355,5.126C16.3,94.272,17.073,98,17.82,101.608c1.367,6.6,2.5,10.61,6.657,10.61a.781.781,0,1,1,0,1.562ZM6.283,87.827c2.287,2.18,3.132,6.26,3.957,10.248,1.373,6.632,2.79,13.48,10.007,14.1-2.287-2.18-3.132-6.26-3.958-10.248C14.917,95.292,13.5,88.445,6.283,87.827Z" transform="translate(-1.274 -55.388)"/><path class="cls-11" d="M159.383,113.779h-3.141a10.088,10.088,0,0,1-9.355-5.126c-1.75-2.926-2.522-6.655-3.269-10.262-1.367-6.6-2.5-10.61-6.657-10.61a.781.781,0,1,1,0-1.562H140.1a10.088,10.088,0,0,1,9.355,5.126c1.75,2.926,2.522,6.655,3.269,10.262,1.367,6.6,2.5,10.61,6.657,10.61a.781.781,0,1,1,0,1.562ZM141.19,87.827c2.287,2.18,3.132,6.26,3.957,10.248,1.373,6.632,2.79,13.48,10.007,14.1-2.287-2.18-3.132-6.26-3.957-10.248C149.824,95.292,148.407,88.445,141.19,87.827Z" transform="translate(-1.274 -55.388)"/><path class="cls-12" d="M178.664,113.779h-3.141a10.088,10.088,0,0,1-9.355-5.126c-1.75-2.926-2.522-6.655-3.269-10.262-1.367-6.6-2.5-10.61-6.657-10.61a.781.781,0,0,1,0-1.562h3.141a10.088,10.088,0,0,1,9.355,5.126c1.75,2.926,2.522,6.655,3.269,10.262,1.367,6.6,2.5,10.61,6.657,10.61a.781.781,0,0,1,0,1.562ZM160.471,87.827c2.287,2.18,3.132,6.26,3.957,10.248,1.373,6.632,2.79,13.48,10.007,14.1-2.287-2.18-3.132-6.26-3.957-10.248C169.1,95.292,167.688,88.445,160.471,87.827Z" transform="translate(-1.274 -55.388)"/><path class="cls-11" d="M197.945,113.779H194.8a10.088,10.088,0,0,1-9.355-5.126c-1.75-2.926-2.522-6.655-3.269-10.262-1.367-6.6-2.5-10.61-6.657-10.61a.781.781,0,1,1,0-1.562h3.141a10.088,10.088,0,0,1,9.355,5.126c1.75,2.926,2.522,6.655,3.269,10.262,1.367,6.6,2.5,10.61,6.657,10.61a.781.781,0,1,1,0,1.562ZM179.752,87.827c2.287,2.18,3.132,6.26,3.958,10.248,1.373,6.632,2.79,13.48,10.007,14.1-2.287-2.18-3.132-6.26-3.958-10.248C188.386,95.292,186.969,88.445,179.752,87.827Z" transform="translate(-1.274 -55.388)"/><path class="cls-11" d="M63.039,82.947H59.9a10.088,10.088,0,0,1-9.355-5.126c-1.75-2.926-2.522-6.655-3.269-10.262-1.367-6.6-2.5-10.61-6.657-10.61a.781.781,0,1,1,0-1.562h3.141a10.088,10.088,0,0,1,9.355,5.126c1.75,2.926,2.522,6.655,3.269,10.262,1.367,6.6,2.5,10.61,6.657,10.61a.781.781,0,1,1,0,1.562ZM44.846,57c2.287,2.18,3.132,6.26,3.957,10.248,1.373,6.632,2.79,13.48,10.007,14.1-2.287-2.18-3.132-6.26-3.957-10.248C53.48,64.46,52.063,57.613,44.846,57Z" transform="translate(-1.274 -55.388)"/><path class="cls-12" d="M159.383,144.612h-3.141a10.088,10.088,0,0,1-9.355-5.126c-1.75-2.926-2.522-6.655-3.269-10.262-1.366-6.6-2.5-10.61-6.657-10.61a.781.781,0,0,1,0-1.562H140.1a10.088,10.088,0,0,1,9.355,5.126c1.75,2.926,2.522,6.655,3.269,10.262,1.367,6.6,2.5,10.61,6.657,10.61a.781.781,0,1,1,0,1.562ZM141.19,118.66c2.287,2.18,3.132,6.26,3.957,10.248,1.373,6.632,2.79,13.48,10.007,14.1-2.287-2.18-3.132-6.26-3.958-10.248C149.824,126.124,148.407,119.277,141.19,118.66Z" transform="translate(-1.274 -55.388)"/></g></g></g></svg>