<svg id="Layer_1" data-name="Layer 1" xmlns="http://www.w3.org/2000/svg" xmlns:xlink="http://www.w3.org/1999/xlink" viewBox="0 0 41.923 28.887"><defs><style>.cls-1{fill:url(#radial-gradient);}.cls-2{fill:url(#radial-gradient-2);}.cls-3{fill:url(#radial-gradient-3);}.cls-4{fill:url(#radial-gradient-4);}.cls-5{fill:url(#radial-gradient-5);}</style><radialGradient id="radial-gradient" cx="102.046" cy="104.555" r="15.244" gradientTransform="translate(35.792 -25.619) rotate(18.241)" gradientUnits="userSpaceOnUse"><stop offset="0" stop-color="#00a0ec"/><stop offset="0.318" stop-color="#007fbc"/><stop offset="0.613" stop-color="#006697"/><stop offset="0.85" stop-color="#005780"/><stop offset="1" stop-color="#005178"/></radialGradient><radialGradient id="radial-gradient-2" cx="98.809" cy="95.713" r="13.971" xlink:href="#radial-gradient"/><radialGradient id="radial-gradient-3" cx="105.905" cy="107.561" r="13.539" gradientTransform="translate(35.792 -25.619) rotate(18.241)" gradientUnits="userSpaceOnUse"><stop offset="0" stop-color="#42c2ff"/><stop offset="0.438" stop-color="#00a0ec"/><stop offset="1" stop-color="#005178"/></radialGradient><radialGradient id="radial-gradient-4" cx="99.368" cy="100.13" r="14.621" xlink:href="#radial-gradient-3"/><radialGradient id="radial-gradient-5" cx="93.671" cy="90.319" r="21.056" gradientTransform="matrix(0.992, -0.128, 0.04, 0.311, -0.042, 73.395)" xlink:href="#radial-gradient-3"/></defs><title>Dynamin</title><g id="Dynamin"><g id="BG"><path class="cls-1" d="M81.053,106.817a3.063,3.063,0,0,1-1.577-1.036,2.22,2.22,0,0,1-.289-2.13,1.552,1.552,0,0,1,2.989.281c1.946.571,8.9.12,14.074-.216,14.168-.918,22.886-1.194,24.516,2.712a1.552,1.552,0,1,1-2.864,1.2c-.9-2.141-14.778-1.242-21.451-.81C87.8,107.375,83.323,107.565,81.053,106.817Z" transform="translate(-79.039 -85.556)"/><path class="cls-2" d="M82.934,98.674a3.62,3.62,0,0,1-2.21-1.728,1.552,1.552,0,0,1,2.74-1.457c1.051,1.312,10.133-.145,15.012-.929,9.874-1.588,16.064-2.4,18.774-.23a3.418,3.418,0,0,1,1.313,2.515,1.552,1.552,0,0,1-3.1.195.331.331,0,0,0-.153-.286c-1.83-1.467-10.219-.114-16.343.87C91.191,98.875,85.863,99.639,82.934,98.674Z" transform="translate(-79.039 -85.556)"/></g><g id="FG"><path class="cls-3" d="M85.37,113.747a1.552,1.552,0,0,1,.686-3.013c15.376,1.985,30.01-1.34,31.752-3.421a1.552,1.552,0,0,1,2.958-.884,2.63,2.63,0,0,1-.411,2.656c-2.879,3.772-19.455,6.695-34.7,4.728A1.588,1.588,0,0,1,85.37,113.747Zm32.532-6.123.01,0Z" transform="translate(-79.039 -85.556)"/><path class="cls-4" d="M80.144,105.7l-.051-.018a1.582,1.582,0,0,1-.906-2.027c1.093-2.989,6.884-3.438,17.884-4.033,6.249-.338,17.881-.967,18.443-3.076a1.552,1.552,0,0,1,3,.8c-1.067,4-8.749,4.7-21.274,5.375-5.631.3-14.138.765-15.174,2.073A1.511,1.511,0,0,1,80.144,105.7Z" transform="translate(-79.039 -85.556)"/><path class="cls-5" d="M81.61,97.695a1.546,1.546,0,0,1-.886-.749,3.534,3.534,0,0,1,.762-4.326c4.845-4.916,31.892-7.8,33.7-6.9a1.561,1.561,0,0,1,.83,1.643,1.643,1.643,0,0,1-1.609,1.345,1.4,1.4,0,0,1-.715-.065c-4.809.132-27.751,2.535-30.217,6.427a.33.33,0,0,0-.007.427,1.552,1.552,0,0,1-1.858,2.2Z" transform="translate(-79.039 -85.556)"/></g></g></svg>