<svg id="Layer_1" data-name="Layer 1" xmlns="http://www.w3.org/2000/svg" xmlns:xlink="http://www.w3.org/1999/xlink" viewBox="0 0 177.596 105.867"><defs><style>.cls-1{fill:url(#radial-gradient);}.cls-2{fill:url(#linear-gradient);}.cls-3{fill:url(#linear-gradient-2);}.cls-4{fill:url(#linear-gradient-3);}.cls-5{opacity:0.7;fill:url(#linear-gradient-4);}.cls-6{fill:url(#radial-gradient-2);}.cls-7{fill:url(#radial-gradient-3);}.cls-8{fill:url(#radial-gradient-4);}.cls-9{opacity:0.65;fill:url(#radial-gradient-5);}</style><radialGradient id="radial-gradient" cx="99.353" cy="106.225" r="54.703" gradientTransform="matrix(0.399, 0.901, -2.679, 1.396, 328.732, -135.45)" gradientUnits="userSpaceOnUse"><stop offset="0.197" stop-color="#f95f8b"/><stop offset="0.375" stop-color="#f96791"/><stop offset="0.655" stop-color="#f97ea1"/><stop offset="1" stop-color="#f9a2bb"/></radialGradient><linearGradient id="linear-gradient" x1="17.537" y1="153.977" x2="189.509" y2="60.744" gradientTransform="translate(5.885 -5.443) rotate(1.122)" gradientUnits="userSpaceOnUse"><stop offset="0" stop-color="#f95f8b"/><stop offset="0.148" stop-color="#f96791"/><stop offset="0.381" stop-color="#f97ea1"/><stop offset="0.668" stop-color="#f9a2bb"/><stop offset="1" stop-color="#f95f8b"/></linearGradient><linearGradient id="linear-gradient-2" x1="96.208" y1="98.049" x2="107.135" y2="112.301" gradientTransform="translate(5.885 -5.443) rotate(1.122)" gradientUnits="userSpaceOnUse"><stop offset="0" stop-color="#f95f8b"/><stop offset="0.047" stop-color="#f9618d" stop-opacity="0.967"/><stop offset="0.121" stop-color="#f96791" stop-opacity="0.877"/><stop offset="0.213" stop-color="#f97198" stop-opacity="0.729"/><stop offset="0.318" stop-color="#f97fa2" stop-opacity="0.525"/><stop offset="0.434" stop-color="#f990ae" stop-opacity="0.266"/><stop offset="0.542" stop-color="#f9a2bb" stop-opacity="0"/><stop offset="0.65" stop-color="#f9a1bb" stop-opacity="0.01"/><stop offset="0.713" stop-color="#f99fb9" stop-opacity="0.043"/><stop offset="0.765" stop-color="#f99bb6" stop-opacity="0.1"/><stop offset="0.81" stop-color="#f996b2" stop-opacity="0.18"/><stop offset="0.851" stop-color="#f98fad" stop-opacity="0.284"/><stop offset="0.889" stop-color="#f986a7" stop-opacity="0.412"/><stop offset="0.925" stop-color="#f97ca0" stop-opacity="0.565"/><stop offset="0.959" stop-color="#f97097" stop-opacity="0.741"/><stop offset="0.991" stop-color="#f9638e" stop-opacity="0.936"/><stop offset="1" stop-color="#f95f8b"/></linearGradient><linearGradient id="linear-gradient-3" x1="99.431" y1="99.933" x2="111.645" y2="120.678" gradientTransform="translate(5.885 -5.443) rotate(1.122)" gradientUnits="userSpaceOnUse"><stop offset="0" stop-color="#f95f8b"/><stop offset="0.091" stop-color="#f9608c" stop-opacity="0.987"/><stop offset="0.163" stop-color="#f9638e" stop-opacity="0.948"/><stop offset="0.228" stop-color="#f96791" stop-opacity="0.881"/><stop offset="0.289" stop-color="#f96d95" stop-opacity="0.786"/><stop offset="0.347" stop-color="#f9769b" stop-opacity="0.664"/><stop offset="0.404" stop-color="#f980a2" stop-opacity="0.514"/><stop offset="0.458" stop-color="#f98cab" stop-opacity="0.336"/><stop offset="0.511" stop-color="#f999b5" stop-opacity="0.135"/><stop offset="0.542" stop-color="#f9a2bb" stop-opacity="0"/></linearGradient><linearGradient id="linear-gradient-4" x1="99.733" y1="99.526" x2="111.98" y2="122.348" gradientTransform="translate(5.885 -5.443) rotate(1.122)" gradientUnits="userSpaceOnUse"><stop offset="0" stop-color="#540b1d"/><stop offset="0.542" stop-color="#540b1d" stop-opacity="0"/></linearGradient><radialGradient id="radial-gradient-2" cx="110.329" cy="127.448" r="86.644" gradientTransform="matrix(-0.766, -0.558, 0.54, -0.865, 109.293, 295.48)" gradientUnits="userSpaceOnUse"><stop offset="0.496" stop-color="#f95f8b" stop-opacity="0"/><stop offset="0.53" stop-color="#f95f8b" stop-opacity="0.242"/><stop offset="0.566" stop-color="#f95f8b" stop-opacity="0.47"/><stop offset="0.602" stop-color="#f95f8b" stop-opacity="0.66"/><stop offset="0.635" stop-color="#f95f8b" stop-opacity="0.808"/><stop offset="0.665" stop-color="#f95f8b" stop-opacity="0.913"/><stop offset="0.693" stop-color="#f95f8b" stop-opacity="0.978"/><stop offset="0.714" stop-color="#f95f8b"/><stop offset="0.766" stop-color="#f95f8b" stop-opacity="0.988"/><stop offset="0.804" stop-color="#f9608c" stop-opacity="0.95"/><stop offset="0.838" stop-color="#f9628d" stop-opacity="0.886"/><stop offset="0.869" stop-color="#f9658f" stop-opacity="0.795"/><stop offset="0.899" stop-color="#f96891" stop-opacity="0.677"/><stop offset="0.927" stop-color="#f96c94" stop-opacity="0.533"/><stop offset="0.955" stop-color="#f97098" stop-opacity="0.361"/><stop offset="0.98" stop-color="#f9759c" stop-opacity="0.168"/><stop offset="1" stop-color="#f97a9f" stop-opacity="0"/></radialGradient><radialGradient id="radial-gradient-3" cx="73.413" cy="90.944" r="29.833" gradientTransform="matrix(-0.481, -0.852, 0.795, -0.527, 23.184, 197.053)" gradientUnits="userSpaceOnUse"><stop offset="0.825" stop-color="#f9b6ca" stop-opacity="0"/><stop offset="0.909" stop-color="#f9b6ca"/><stop offset="0.964" stop-color="#f9b6ca" stop-opacity="0"/></radialGradient><radialGradient id="radial-gradient-4" cx="153.552" cy="66.559" r="17.162" gradientTransform="matrix(0.423, 0.888, -2.532, 1.416, 238.357, -166.955)" gradientUnits="userSpaceOnUse"><stop offset="0" stop-color="#f95f8b" stop-opacity="0.5"/><stop offset="0.204" stop-color="#f9608c" stop-opacity="0.486"/><stop offset="0.381" stop-color="#f9628d" stop-opacity="0.444"/><stop offset="0.547" stop-color="#f96690" stop-opacity="0.372"/><stop offset="0.707" stop-color="#f96b94" stop-opacity="0.272"/><stop offset="0.862" stop-color="#f97299" stop-opacity="0.143"/><stop offset="1" stop-color="#f97a9f" stop-opacity="0"/></radialGradient><radialGradient id="radial-gradient-5" cx="140.537" cy="73.829" r="25.946" gradientTransform="matrix(0.909, -0.183, 0.166, 0.983, 0.167, 34.224)" gradientUnits="userSpaceOnUse"><stop offset="0.831" stop-color="#f9b6ca" stop-opacity="0"/><stop offset="0.837" stop-color="#f9b6ca" stop-opacity="0.021"/><stop offset="0.845" stop-color="#f9b6ca" stop-opacity="0.081"/><stop offset="0.854" stop-color="#f9b6ca" stop-opacity="0.18"/><stop offset="0.862" stop-color="#f9b6ca" stop-opacity="0.319"/><stop offset="0.872" stop-color="#f9b6ca" stop-opacity="0.498"/><stop offset="0.882" stop-color="#f9b6ca" stop-opacity="0.716"/><stop offset="0.891" stop-color="#f9b6ca" stop-opacity="0.969"/><stop offset="0.893" stop-color="#f9b6ca"/><stop offset="0.925" stop-color="#f9b6ca" stop-opacity="0.349"/><stop offset="0.944" stop-color="#f9b6ca" stop-opacity="0"/></radialGradient></defs><title>liver</title><g id="LIVER"><path id="BASE" class="cls-1" d="M23.916,154.867C19.354,154.852,1.782,53.609,46.5,49.9s70.293,5.255,85.626,4.5,55.425-1.03,61.532,3.32-34.921,8.834-55.541,26.762-51.373,40.592-72.9,41.581S33.184,154.9,23.916,154.867Z" transform="translate(-16.679 -49)"/><path id="DOWN_1" class="cls-2" d="M193.662,57.72c6.107,4.35-34.921,8.834-55.541,26.762s-51.373,40.592-72.9,41.581-32.035,28.833-41.3,28.8c0,0-12.03-19.9,47.772-37.05,12.533-3.594,45.818-25.938,59.359-33.809C173.491,59.332,193.662,57.72,193.662,57.72Z" transform="translate(-16.679 -49)"/><path id="DOWN_2" class="cls-3" d="M193.662,57.72c6.107,4.35-34.921,8.834-55.541,26.762s-51.373,40.592-72.9,41.581-32.035,28.833-41.3,28.8c0,0-12.03-19.9,47.772-37.05,12.533-3.594,45.818-25.938,59.359-33.809C173.491,59.332,193.662,57.72,193.662,57.72Z" transform="translate(-16.679 -49)"/><path id="DOWN_3" class="cls-4" d="M193.662,57.72c6.107,4.35-34.921,8.834-55.541,26.762s-51.373,40.592-72.9,41.581-32.035,28.833-41.3,28.8c0,0-12.03-19.9,47.772-37.05,12.533-3.594,45.818-25.938,59.359-33.809C173.491,59.332,193.662,57.72,193.662,57.72Z" transform="translate(-16.679 -49)"/><path id="DOWN_4" class="cls-5" d="M193.662,57.72c6.107,4.35-34.921,8.834-55.541,26.762s-51.373,40.592-72.9,41.581-32.035,28.833-41.3,28.8c0,0-12.03-19.9,47.772-37.05,12.533-3.594,45.818-25.938,59.359-33.809C173.491,59.332,193.662,57.72,193.662,57.72Z" transform="translate(-16.679 -49)"/><path id="LEFT" class="cls-6" d="M116.437,56.913c-16.424-2.667-68.623-7.337-75.97,1.685s-18.02,21.5-17.533,46.543,3.586,33.208,17.83,21.5S64.328,88.325,76.458,84.685,129.542,59.041,116.437,56.913Z" transform="translate(-16.679 -49)"/><path id="SHINE_LEFT" class="cls-7" d="M62.359,60.1c-.744-1.478-11.651-1.307-19.189,4.608C33.532,72.273,30.5,81.952,33.8,83.322c2.621,1.091,6.7-10.653,13.393-15.329C54.872,62.629,64.209,63.778,62.359,60.1Z" transform="translate(-16.679 -49)"/><path id="RIGHT" class="cls-8" d="M131.749,57.213c-10.148,2.269-17.108,24.675-14.278,29.333,3.781,6.221,14.768-4.493,23.737-10.458,5.4-3.593,39.969-13.324,34.812-16.246S144.381,54.388,131.749,57.213Z" transform="translate(-16.679 -49)"/><path id="SHINE_RIGHT" class="cls-9" d="M126.969,60.733c-5.721,3.486-9.1,12.793-6.324,11.59s12.27-11.712,16.9-13.72S138.387,53.777,126.969,60.733Z" transform="translate(-16.679 -49)"/></g></svg>