<svg id="Layer_1" data-name="Layer 1" xmlns="http://www.w3.org/2000/svg" xmlns:xlink="http://www.w3.org/1999/xlink" viewBox="0 0 30.135 150.049"><defs><style>.cls-1{fill:url(#radial-gradient);}.cls-2{fill:#276fe2;}.cls-3{isolation:isolate;}.cls-4{fill:url(#radial-gradient-2);}.cls-5{fill:#5656a5;}.cls-6{fill:url(#radial-gradient-3);}.cls-7{fill:#4b4b96;}.cls-8{fill:url(#radial-gradient-4);}.cls-9{fill:url(#radial-gradient-5);}.cls-10{fill:url(#linear-gradient);}</style><radialGradient id="radial-gradient" cx="100" cy="132.586" r="26.769" gradientTransform="translate(0 -54.657) scale(1 1.412)" gradientUnits="userSpaceOnUse"><stop offset="0" stop-color="#a0c2f2"/><stop offset="1" stop-color="#21549b"/></radialGradient><radialGradient id="radial-gradient-2" cx="100.746" cy="875.598" r="8.381" gradientTransform="translate(-84.933 -762.841)" gradientUnits="userSpaceOnUse"><stop offset="0" stop-color="#afbaf7"/><stop offset="0.311" stop-color="#6d96ce"/><stop offset="0.803" stop-color="#285fcc"/></radialGradient><radialGradient id="radial-gradient-3" cx="99.164" cy="878.223" r="1.618" gradientTransform="translate(-84.933 -762.841)" gradientUnits="userSpaceOnUse"><stop offset="0" stop-color="#afbaf7"/><stop offset="0.312" stop-color="#b898ce"/><stop offset="0.803" stop-color="#515181"/></radialGradient><radialGradient id="radial-gradient-4" cx="100" cy="111.971" r="4.075" gradientTransform="translate(-84.933 24.984) scale(1 0.554)" gradientUnits="userSpaceOnUse"><stop offset="0" stop-color="#3874ff"/><stop offset="1" stop-color="#002884"/></radialGradient><radialGradient id="radial-gradient-5" cx="15.067" cy="75.319" r="4.968" gradientUnits="userSpaceOnUse"><stop offset="0" stop-color="#ff389f"/><stop offset="1" stop-color="#840044"/></radialGradient><linearGradient id="linear-gradient" x1="105.156" y1="108.739" x2="105.156" y2="22.337" gradientUnits="userSpaceOnUse"><stop offset="0.001" stop-color="#03103d"/><stop offset="1" stop-color="#082799"/></linearGradient></defs><title>R-ICO-013939</title><g id="R-ICO-013939"><g id="CYTOPLASM"><path class="cls-1" d="M115.067,122.069c0,12.968-2.1,52.931-15.067,52.931s-15.067-39.963-15.067-52.931,2.1-31.9,15.067-31.9S115.067,109.1,115.067,122.069Z" transform="translate(-84.933 -24.951)"/></g><g id="MEMBRANE"><path class="cls-2" d="M100,91.173c6.417,0,14.067,5.36,14.067,30.9a189.981,189.981,0,0,1-2.653,31.147C109.661,162.7,106.259,174,100,174s-9.661-11.3-11.414-20.784a189.981,189.981,0,0,1-2.653-31.147c0-25.536,7.65-30.9,14.067-30.9m0-1c-12.969,0-15.067,18.927-15.067,31.9S87.031,175,100,175s15.067-39.963,15.067-52.931-2.1-31.9-15.067-31.9Z" transform="translate(-84.933 -24.951)"/></g><g id="Nucleus"><g id="NUCLEUS-2" data-name="NUCLEUS" class="cls-3"><circle class="cls-4" cx="17.471" cy="115.413" r="6.377"/><path class="cls-5" d="M102.4,146.975a6.612,6.612,0,1,1,6.611-6.611A6.619,6.619,0,0,1,102.4,146.975Zm0-12.754a6.143,6.143,0,1,0,6.142,6.143A6.148,6.148,0,0,0,102.4,134.221Z" transform="translate(-84.933 -24.951)"/></g><g id="NUCLEOLUS"><circle class="cls-6" cx="14.236" cy="115.377" r="1.301"/><path class="cls-7" d="M99.169,141.7a1.366,1.366,0,1,1,1.36-1.371A1.361,1.361,0,0,1,99.169,141.7Zm0-2.614a1.243,1.243,0,1,0,1.242,1.243A1.244,1.244,0,0,0,99.169,139.086Z" transform="translate(-84.933 -24.951)"/></g></g><g id="KINETOPLAST"><ellipse class="cls-8" cx="15.067" cy="87.02" rx="4.071" ry="2.252"/></g><g id="Flagellar_pocket"><ellipse class="cls-9" cx="15.067" cy="75.319" rx="4.303" ry="5.553"/></g><g id="FLAGELLUM"><path class="cls-10" d="M112.045,25.031C108,30.7,105.8,37.388,104.312,44.1A139.285,139.285,0,0,0,101.5,64.607c-.487,6.9-.514,13.823-.394,20.742.064,3.461.183,6.92.331,10.39l.2,5.2a11.543,11.543,0,0,0,.3,2.383,2.147,2.147,0,0,0,1.385,1.688,3.814,3.814,0,1,1-5.02,3.081l.135-.957a19.027,19.027,0,0,0,.024-3.322c-.037-.98-.081-1.9-.07-2.81.055-1.785.053-3.458.064-5.213.02-3.474.033-6.96.1-10.444q.183-10.457,1.143-20.89a128.237,128.237,0,0,1,3.455-20.646,69.514,69.514,0,0,1,3.43-9.9,37.142,37.142,0,0,1,5.392-8.94.05.05,0,0,1,.079.062Z" transform="translate(-84.933 -24.951)"/></g></g></svg>