<svg id="Layer_1" data-name="Layer 1" xmlns="http://www.w3.org/2000/svg" xmlns:xlink="http://www.w3.org/1999/xlink" viewBox="0 0 43.579 56.739"><defs><style>.cls-1{fill:url(#linear-gradient);}.cls-2{fill:#d7b532;}</style><linearGradient id="linear-gradient" x1="1306.061" y1="-56.316" x2="1306.061" y2="-106.107" gradientTransform="matrix(-1, -0.012, -0.012, 1, 1405.152, 196.534)" gradientUnits="userSpaceOnUse"><stop offset="0" stop-color="#d2b18a"/><stop offset="0.031" stop-color="#cdaa81"/><stop offset="0.17" stop-color="#ba8f5b"/><stop offset="0.299" stop-color="#ac7b40"/><stop offset="0.413" stop-color="#a46f30"/><stop offset="0.5" stop-color="#a16b2a"/><stop offset="0.587" stop-color="#a46f30"/><stop offset="0.701" stop-color="#ac7b40"/><stop offset="0.83" stop-color="#ba8f5b"/><stop offset="0.969" stop-color="#cdaa81"/><stop offset="1" stop-color="#d2b18a"/></linearGradient></defs><title>Uniporter_03</title><g id="Uniporter"><path class="cls-1" d="M119.519,72.079c-14.423-.17-14.754,27.972-14.754,27.972s-.331,28.145,14.092,28.315c0,0-12.27-3.344-19.014-3.423s-19.09,2.975-19.09,2.975c14.423.17,14.754-27.976,14.754-27.976S95.839,71.8,81.416,71.631c0,0,12.235,3.344,19.014,3.423S119.519,72.079,119.519,72.079Z" transform="translate(-78.21 -71.631)"/><path class="cls-2" d="M92.219,99.907c.257-21.86-9.522-19.131-10.911-19.147s-2.3-1.517-2.26-5.046c.033-2.819.555-4.1,2.367-4.08,14.423.17,14.092,28.311,14.092,28.311s-.331,28.145-14.754,27.976c-1.81-.021-2.575-1.385-2.542-4.134s1.261-5.012,2.65-5S91.962,121.767,92.219,99.907Z" transform="translate(-78.21 -71.631)"/><path class="cls-2" d="M108.052,100.093c.257-21.86,9.97-18.9,11.358-18.885s2.336-1.462,2.378-4.991c.033-2.819-.459-4.113-2.27-4.134-14.423-.17-14.754,27.972-14.754,27.972s-.331,28.145,14.092,28.315c1.81.021,2.606-1.324,2.639-4.073s-1.143-5.04-2.531-5.056S107.8,121.953,108.052,100.093Z" transform="translate(-78.21 -71.631)"/></g></svg>