<svg id="Layer_1" data-name="Layer 1" xmlns="http://www.w3.org/2000/svg" xmlns:xlink="http://www.w3.org/1999/xlink" viewBox="0 0 58.003 77.83"><defs><style>.cls-1{fill:url(#linear-gradient);}.cls-2{fill:url(#linear-gradient-2);}.cls-3{fill:url(#linear-gradient-3);}.cls-4{fill:url(#linear-gradient-4);}.cls-5{fill:url(#linear-gradient-5);}.cls-6{fill:url(#linear-gradient-6);}.cls-7{fill:url(#linear-gradient-7);}.cls-8{fill:url(#linear-gradient-8);}.cls-9{fill:url(#linear-gradient-9);}.cls-10{fill:url(#linear-gradient-10);}.cls-11{fill:url(#linear-gradient-11);}.cls-12{fill:url(#linear-gradient-12);}.cls-13{fill:url(#linear-gradient-13);}.cls-14{fill:url(#linear-gradient-14);}.cls-15{fill:url(#linear-gradient-15);}.cls-16{fill:url(#linear-gradient-16);}.cls-17{fill:url(#linear-gradient-17);}.cls-18{fill:url(#linear-gradient-18);}.cls-19{fill:url(#linear-gradient-19);}.cls-20{fill:url(#linear-gradient-20);}.cls-21{fill:url(#linear-gradient-21);}.cls-22{fill:url(#linear-gradient-22);}.cls-23{fill:url(#linear-gradient-23);}.cls-24{fill:url(#linear-gradient-24);}.cls-25{fill:url(#linear-gradient-25);}.cls-26{fill:url(#linear-gradient-26);}.cls-27{fill:url(#linear-gradient-27);}.cls-28{fill:url(#linear-gradient-28);}.cls-29{fill:url(#linear-gradient-29);}.cls-30{fill:url(#linear-gradient-30);}.cls-31{fill:url(#linear-gradient-31);}.cls-32{fill:url(#linear-gradient-32);}.cls-33{fill:url(#linear-gradient-33);}.cls-34{fill:url(#linear-gradient-34);}.cls-35{fill:url(#linear-gradient-35);}.cls-36{fill:url(#linear-gradient-36);}</style><linearGradient id="linear-gradient" x1="96.5" y1="134.084" x2="110.501" y2="134.084" gradientUnits="userSpaceOnUse"><stop offset="0" stop-color="#a246d4"/><stop offset="1" stop-color="#6a1d93"/></linearGradient><linearGradient id="linear-gradient-2" x1="115.006" y1="127.239" x2="122.256" y2="127.239" xlink:href="#linear-gradient"/><linearGradient id="linear-gradient-3" x1="107.5" y1="120.06" x2="126.501" y2="120.06" gradientUnits="userSpaceOnUse"><stop offset="0" stop-color="#6a1d93"/><stop offset="1" stop-color="#a246d4"/></linearGradient><linearGradient id="linear-gradient-4" x1="90.499" y1="119.453" x2="104.501" y2="119.453" xlink:href="#linear-gradient"/><linearGradient id="linear-gradient-5" x1="78.498" y1="124.884" x2="86.5" y2="124.884" xlink:href="#linear-gradient"/><linearGradient id="linear-gradient-6" x1="73.499" y1="133.38" x2="93.5" y2="133.38" xlink:href="#linear-gradient"/><linearGradient id="linear-gradient-7" x1="105" y1="91.632" x2="112" y2="91.632" gradientUnits="userSpaceOnUse"><stop offset="0.56" stop-color="#785a00"/><stop offset="0.577" stop-color="#8c6900"/><stop offset="0.599" stop-color="#9d7600"/><stop offset="0.626" stop-color="#a87e00"/><stop offset="0.663" stop-color="#af8400"/><stop offset="0.768" stop-color="#b18500"/><stop offset="1" stop-color="#785a00"/></linearGradient><linearGradient id="linear-gradient-8" x1="106.338" y1="67.33" x2="110.906" y2="64.693" gradientUnits="userSpaceOnUse"><stop offset="0" stop-color="#c90"/><stop offset="1" stop-color="#987200"/></linearGradient><linearGradient id="linear-gradient-9" x1="100" y1="92.611" x2="107.001" y2="92.611" gradientUnits="userSpaceOnUse"><stop offset="0" stop-color="#785a00"/><stop offset="0.08" stop-color="#967100"/><stop offset="0.163" stop-color="#ae8200"/><stop offset="0.253" stop-color="#bf8f00"/><stop offset="0.35" stop-color="#c99700"/><stop offset="0.471" stop-color="#c90"/><stop offset="1" stop-color="#987200"/></linearGradient><linearGradient id="linear-gradient-10" x1="101.094" y1="68.778" x2="105.662" y2="66.141" xlink:href="#linear-gradient-8"/><linearGradient id="linear-gradient-11" x1="102.501" y1="64.469" x2="109.501" y2="64.469" xlink:href="#linear-gradient-3"/><linearGradient id="linear-gradient-12" x1="122.001" y1="95.632" x2="129.001" y2="95.632" xlink:href="#linear-gradient-7"/><linearGradient id="linear-gradient-13" x1="123.339" y1="71.331" x2="127.907" y2="68.693" xlink:href="#linear-gradient-8"/><linearGradient id="linear-gradient-14" x1="117.001" y1="96.611" x2="124.002" y2="96.611" gradientUnits="userSpaceOnUse"><stop offset="0" stop-color="#785a00"/><stop offset="0.08" stop-color="#967100"/><stop offset="0.164" stop-color="#ae8200"/><stop offset="0.253" stop-color="#bf8f00"/><stop offset="0.35" stop-color="#c99700"/><stop offset="0.471" stop-color="#c90"/><stop offset="1" stop-color="#987200"/></linearGradient><linearGradient id="linear-gradient-15" x1="118.095" y1="72.778" x2="122.663" y2="70.141" xlink:href="#linear-gradient-8"/><linearGradient id="linear-gradient-16" x1="119.502" y1="68.482" x2="126.501" y2="68.482" xlink:href="#linear-gradient-3"/><linearGradient id="linear-gradient-17" x1="111" y1="104.633" x2="118.001" y2="104.633" xlink:href="#linear-gradient-7"/><linearGradient id="linear-gradient-18" x1="112.338" y1="80.331" x2="116.907" y2="77.694" xlink:href="#linear-gradient-8"/><linearGradient id="linear-gradient-19" x1="106.001" y1="105.611" x2="113.001" y2="105.611" xlink:href="#linear-gradient-9"/><linearGradient id="linear-gradient-20" x1="107.095" y1="81.779" x2="111.663" y2="79.141" xlink:href="#linear-gradient-8"/><linearGradient id="linear-gradient-21" x1="108.501" y1="77.47" x2="115.5" y2="77.47" xlink:href="#linear-gradient-3"/><linearGradient id="linear-gradient-22" x1="86.998" y1="94.632" x2="93.999" y2="94.632" gradientUnits="userSpaceOnUse"><stop offset="0.56" stop-color="#007678"/><stop offset="0.577" stop-color="#00898c"/><stop offset="0.599" stop-color="#009a9d"/><stop offset="0.626" stop-color="#00a5a8"/><stop offset="0.663" stop-color="#00acaf"/><stop offset="0.768" stop-color="#00aeb1"/><stop offset="1" stop-color="#007678"/></linearGradient><linearGradient id="linear-gradient-23" x1="88.337" y1="70.331" x2="92.905" y2="67.693" gradientUnits="userSpaceOnUse"><stop offset="0" stop-color="#00c9cc"/><stop offset="1" stop-color="#009698"/></linearGradient><linearGradient id="linear-gradient-24" x1="81.999" y1="95.611" x2="88.999" y2="95.611" gradientUnits="userSpaceOnUse"><stop offset="0" stop-color="#007678"/><stop offset="0.08" stop-color="#009496"/><stop offset="0.163" stop-color="#00abae"/><stop offset="0.253" stop-color="#00bcbf"/><stop offset="0.35" stop-color="#00c6c9"/><stop offset="0.471" stop-color="#00c9cc"/><stop offset="1" stop-color="#009698"/></linearGradient><linearGradient id="linear-gradient-25" x1="83.093" y1="71.778" x2="87.661" y2="69.141" xlink:href="#linear-gradient-23"/><linearGradient id="linear-gradient-26" x1="84.5" y1="67.605" x2="91.499" y2="67.605" xlink:href="#linear-gradient-3"/><linearGradient id="linear-gradient-27" x1="75.998" y1="103.633" x2="82.999" y2="103.633" xlink:href="#linear-gradient-22"/><linearGradient id="linear-gradient-28" x1="77.336" y1="79.331" x2="81.905" y2="76.694" xlink:href="#linear-gradient-23"/><linearGradient id="linear-gradient-29" x1="70.999" y1="104.611" x2="77.999" y2="104.611" xlink:href="#linear-gradient-24"/><linearGradient id="linear-gradient-30" x1="72.093" y1="80.779" x2="76.66" y2="78.141" xlink:href="#linear-gradient-23"/><linearGradient id="linear-gradient-31" x1="73.499" y1="76.47" x2="80.498" y2="76.47" xlink:href="#linear-gradient-3"/><linearGradient id="linear-gradient-32" x1="93.999" y1="107.633" x2="101" y2="107.633" xlink:href="#linear-gradient-22"/><linearGradient id="linear-gradient-33" x1="95.337" y1="83.331" x2="99.906" y2="80.694" xlink:href="#linear-gradient-23"/><linearGradient id="linear-gradient-34" x1="89" y1="108.612" x2="96" y2="108.612" xlink:href="#linear-gradient-24"/><linearGradient id="linear-gradient-35" x1="90.094" y1="84.779" x2="94.662" y2="82.142" xlink:href="#linear-gradient-23"/><linearGradient id="linear-gradient-36" x1="91.5" y1="80.483" x2="98.5" y2="80.483" xlink:href="#linear-gradient-3"/></defs><title>CFTR</title><g id="CFTR"><path class="cls-1" d="M102.547,138.915a6,6,0,0,1-4.212-1.614,6.5,6.5,0,0,1-1.835-4.818,1,1,0,0,1,2,0c0,3.268,2.091,4.433,4.047,4.433,2.887,0,5.954-2.335,5.954-6.662a1,1,0,0,1,2,0C110.5,135.675,106.457,138.915,102.547,138.915Z" transform="translate(-70.998 -61.085)"/><path class="cls-2" d="M117.176,134.246c-.472,0-1.33-.208-1.79-1.6a10.868,10.868,0,0,1-.38-3.284,1,1,0,0,1,2,0,8.352,8.352,0,0,0,.307,2.731c1.016-.957,2.943-5.472,2.943-10.864a1,1,0,0,1,2,0C122.256,126.969,119.864,134.246,117.176,134.246Zm.256-1.908h0Z" transform="translate(-70.998 -61.085)"/><path class="cls-3" d="M119.985,125.263c-5.091,0-12.485-3.664-12.485-9.405a1,1,0,1,1,2,0c0,4.1,5.736,7.405,10.485,7.405a5.722,5.722,0,0,0,3.319-.855,2.91,2.91,0,0,0,1.2-2.55,1,1,0,1,1,2,0,4.905,4.905,0,0,1-2.031,4.176A7.666,7.666,0,0,1,119.985,125.263Z" transform="translate(-70.998 -61.085)"/><path class="cls-4" d="M95.419,124.048A5.2,5.2,0,0,1,92,122.934a4.458,4.458,0,0,1-1.5-3.576,1,1,0,0,1,2,0,2.546,2.546,0,0,0,.794,2.05,3.254,3.254,0,0,0,2.126.641c2.888,0,7.082-2.411,7.082-6.19a1,1,0,1,1,2,0C104.5,120.933,99.211,124.048,95.419,124.048Z" transform="translate(-70.998 -61.085)"/><path class="cls-5" d="M80.3,131.315a1.628,1.628,0,0,1-1.491-1.006,4.314,4.314,0,0,1-.315-1.827,1,1,0,0,1,2,0,4.248,4.248,0,0,0,.045.669c1.2-.96,3.957-5.594,3.957-9.7a1,1,0,0,1,2,0C86.5,124.331,82.852,131.315,80.3,131.315Z" transform="translate(-70.998 -61.085)"/><path class="cls-6" d="M86.636,138.4c-5.485,0-13.137-3.436-13.137-9.03a1,1,0,0,1,2,0c0,3.895,6.093,7.03,11.137,7.03a6.836,6.836,0,0,0,3.611-.829,2.562,2.562,0,0,0,1.253-2.32,1,1,0,0,1,2,0,4.539,4.539,0,0,1-2.18,4.008A8.772,8.772,0,0,1,86.636,138.4Z" transform="translate(-70.998 -61.085)"/><path class="cls-7" d="M112,66.735l-7-1.723v50l.012,0H105l4,3.237c1.793-.3,3-.867,3-1.513v0h0Z" transform="translate(-70.998 -61.085)"/><path class="cls-8" d="M105,65.012c.325-.016.66-.024,1-.024,3.314,0,6,.782,6,1.747,0,.647-1.206,1.211-3,1.513Z" transform="translate(-70.998 -61.085)"/><path class="cls-9" d="M107,68.459l-7-1.723v50h0v0c0,.965,2.686,1.747,6,1.747.341,0,.675-.008,1-.024l-.006,0H107Z" transform="translate(-70.998 -61.085)"/><path class="cls-10" d="M107,68.459c-.325.016-.659.024-1,.024-3.314,0-6-.782-6-1.747,0-.647,1.207-1.211,3-1.514Z" transform="translate(-70.998 -61.085)"/><path class="cls-11" d="M103.5,67.853a1,1,0,0,1-1-1c0-3.746,1.98-5.768,3.845-5.768,1.455,0,3.155,1.254,3.155,4.789a1,1,0,0,1-2,0,4.528,4.528,0,0,0-.5-2.331.816.816,0,0,0-.657-.458c-.754,0-1.845,1.342-1.845,3.768A1,1,0,0,1,103.5,67.853Z" transform="translate(-70.998 -61.085)"/><path class="cls-12" d="M129,70.736l-7-1.723v50l.012,0H122l4,3.237c1.793-.3,3-.867,3-1.513v0h0Z" transform="translate(-70.998 -61.085)"/><path class="cls-13" d="M122,69.013c.325-.016.66-.024,1-.024,3.314,0,6,.782,6,1.747,0,.647-1.206,1.211-3,1.513Z" transform="translate(-70.998 -61.085)"/><path class="cls-14" d="M124,72.459l-7-1.723v50h0v0c0,.965,2.686,1.747,6,1.747.341,0,.675-.008,1-.024l-.006,0H124Z" transform="translate(-70.998 -61.085)"/><path class="cls-15" d="M124,72.459c-.325.016-.659.024-1,.024-3.314,0-6-.782-6-1.747,0-.647,1.207-1.211,3-1.514Z" transform="translate(-70.998 -61.085)"/><path class="cls-16" d="M120.5,71.866a1,1,0,0,1-1-1,7.332,7.332,0,0,1,1.083-4.082,3.412,3.412,0,0,1,2.761-1.686c1.456,0,3.155,1.255,3.155,4.789a1,1,0,0,1-2,0c0-1.831-.581-2.789-1.155-2.789-.753,0-1.844,1.342-1.844,3.768A1,1,0,0,1,120.5,71.866Z" transform="translate(-70.998 -61.085)"/><path class="cls-17" d="M118,79.736l-7-1.723v50l.012,0H111l4,3.237c1.793-.3,3-.867,3-1.513v0h0Z" transform="translate(-70.998 -61.085)"/><path class="cls-18" d="M111,78.013c.325-.016.66-.024,1-.024,3.314,0,6,.782,6,1.747,0,.647-1.206,1.211-3,1.513Z" transform="translate(-70.998 -61.085)"/><path class="cls-19" d="M113,81.459l-7-1.723v50h0v0c0,.965,2.686,1.747,6,1.747.341,0,.675-.008,1-.024l-.006,0H113Z" transform="translate(-70.998 -61.085)"/><path class="cls-20" d="M113,81.459c-.325.016-.659.024-1,.024-3.314,0-6-.782-6-1.747,0-.647,1.207-1.211,3-1.514Z" transform="translate(-70.998 -61.085)"/><path class="cls-21" d="M109.5,80.854a1,1,0,0,1-1-1c0-3.746,1.98-5.768,3.844-5.768,1.456,0,3.155,1.254,3.155,4.789a1,1,0,0,1-2,0,4.528,4.528,0,0,0-.5-2.331.816.816,0,0,0-.657-.458c-.754,0-1.844,1.342-1.844,3.768A1,1,0,0,1,109.5,80.854Z" transform="translate(-70.998 -61.085)"/><path class="cls-22" d="M94,69.736l-7-1.723v50l.012,0H87l4,3.237c1.793-.3,3-.867,3-1.513v0h0Z" transform="translate(-70.998 -61.085)"/><path class="cls-23" d="M87,68.013c.325-.016.66-.024,1-.024,3.314,0,6,.782,6,1.747,0,.647-1.206,1.211-3,1.513Z" transform="translate(-70.998 -61.085)"/><path class="cls-24" d="M89,71.459l-7-1.723v50h0v0c0,.965,2.686,1.747,6,1.747.341,0,.675-.008,1-.024l-.006,0H89Z" transform="translate(-70.998 -61.085)"/><path class="cls-25" d="M89,71.459c-.325.016-.659.024-1,.024-3.314,0-6-.782-6-1.747,0-.647,1.207-1.211,3-1.514Z" transform="translate(-70.998 -61.085)"/><path class="cls-26" d="M85.5,70.989a1,1,0,0,1-1-1c0-3.746,1.98-5.768,3.844-5.768,1.456,0,3.155,1.254,3.155,4.789a1,1,0,0,1-2,0A4.528,4.528,0,0,0,89,66.68a.816.816,0,0,0-.657-.458c-.754,0-1.844,1.342-1.844,3.768A1,1,0,0,1,85.5,70.989Z" transform="translate(-70.998 -61.085)"/><path class="cls-27" d="M83,78.736l-7-1.723v50l.012,0H76l4,3.237c1.793-.3,3-.867,3-1.513v0h0Z" transform="translate(-70.998 -61.085)"/><path class="cls-28" d="M76,77.013c.325-.016.66-.024,1-.024,3.314,0,6,.782,6,1.747,0,.647-1.206,1.211-3,1.513Z" transform="translate(-70.998 -61.085)"/><path class="cls-29" d="M78,80.459l-7-1.723v50h0v0c0,.965,2.686,1.747,6,1.747.341,0,.675-.008,1-.024l-.006,0H78Z" transform="translate(-70.998 -61.085)"/><path class="cls-30" d="M78,80.459c-.325.016-.659.024-1,.024-3.314,0-6-.782-6-1.747,0-.647,1.207-1.211,3-1.514Z" transform="translate(-70.998 -61.085)"/><path class="cls-31" d="M74.5,79.854a1,1,0,0,1-1-1c0-3.746,1.98-5.768,3.844-5.768,1.456,0,3.155,1.254,3.155,4.789a1,1,0,0,1-2,0,4.528,4.528,0,0,0-.5-2.331.816.816,0,0,0-.657-.458c-.754,0-1.844,1.342-1.844,3.768A1,1,0,0,1,74.5,79.854Z" transform="translate(-70.998 -61.085)"/><path class="cls-32" d="M101,82.736l-7-1.723v50l.012,0H94l4,3.237c1.793-.3,3-.867,3-1.513v0h0Z" transform="translate(-70.998 -61.085)"/><path class="cls-33" d="M94,81.013c.325-.016.66-.024,1-.024,3.314,0,6,.782,6,1.747,0,.647-1.206,1.211-3,1.513Z" transform="translate(-70.998 -61.085)"/><path class="cls-34" d="M96,84.46l-7-1.723v50h0v0c0,.965,2.686,1.747,6,1.747.341,0,.675-.008,1-.024l-.006,0H96Z" transform="translate(-70.998 -61.085)"/><path class="cls-35" d="M96,84.46c-.325.016-.659.024-1,.024-3.314,0-6-.782-6-1.747,0-.647,1.207-1.211,3-1.514Z" transform="translate(-70.998 -61.085)"/><path class="cls-36" d="M92.5,83.867a1,1,0,0,1-1-1,7.332,7.332,0,0,1,1.083-4.082A3.413,3.413,0,0,1,95.344,77.1c1.455,0,3.155,1.255,3.155,4.789a1,1,0,0,1-2,0c0-1.831-.581-2.789-1.155-2.789-.754,0-1.845,1.342-1.845,3.768A1,1,0,0,1,92.5,83.867Z" transform="translate(-70.998 -61.085)"/></g></svg>