<svg id="Layer_1" data-name="Layer 1" xmlns="http://www.w3.org/2000/svg" xmlns:xlink="http://www.w3.org/1999/xlink" viewBox="0 0 36.127 107.663"><defs><style>.cls-1{fill:url(#linear-gradient);}.cls-2{fill:url(#linear-gradient-2);}.cls-3{fill:url(#linear-gradient-3);}.cls-4{fill:url(#radial-gradient);}.cls-5{fill:url(#radial-gradient-2);}.cls-6{mask:url(#mask);}.cls-7{fill:url(#radial-gradient-3);}.cls-8{fill:url(#linear-gradient-4);}.cls-9{mask:url(#mask-2);}.cls-10{fill:url(#radial-gradient-4);}.cls-11{fill:url(#radial-gradient-5);}.cls-12{fill:url(#radial-gradient-6);}</style><linearGradient id="linear-gradient" x1="2965.045" y1="1225.491" x2="2965.045" y2="1218.722" gradientTransform="translate(-2878.051 -1073.342)" gradientUnits="userSpaceOnUse"><stop offset="0.234" stop-color="#fff"/><stop offset="0.308" stop-color="#f9f9f9"/><stop offset="0.403" stop-color="#e9e9e9"/><stop offset="0.51" stop-color="#cfcfcf"/><stop offset="0.625" stop-color="#a9a9a9"/><stop offset="0.748" stop-color="#7a7a7a"/><stop offset="0.874" stop-color="#414141"/><stop offset="1"/></linearGradient><linearGradient id="linear-gradient-2" x1="2986.318" y1="1225.491" x2="2986.318" y2="1218.722" xlink:href="#linear-gradient"/><linearGradient id="linear-gradient-3" x1="2961.499" y1="1193.342" x2="2968.59" y2="1193.342" gradientTransform="translate(-2878.051 -1073.342)" gradientUnits="userSpaceOnUse"><stop offset="0" stop-color="#20459c"/><stop offset="0.034" stop-color="#31539e"/><stop offset="0.102" stop-color="#5d78a2"/><stop offset="0.197" stop-color="#a4b3a8"/><stop offset="0.307" stop-color="#ffffb1"/><stop offset="0.366" stop-color="#d9dfad"/><stop offset="0.455" stop-color="#a5b4a9"/><stop offset="0.546" stop-color="#798fa4"/><stop offset="0.637" stop-color="#5571a1"/><stop offset="0.727" stop-color="#39599e"/><stop offset="0.818" stop-color="#25489c"/><stop offset="0.909" stop-color="#193e9b"/><stop offset="1" stop-color="#153b9b"/></linearGradient><radialGradient id="radial-gradient" cx="2963.538" cy="1139.093" r="5.508" gradientTransform="translate(-2957.618 -2467.455) scale(1 2.185)" gradientUnits="userSpaceOnUse"><stop offset="0" stop-color="#ffffb1"/><stop offset="0.024" stop-color="#f7f8b0"/><stop offset="0.232" stop-color="#b3bfaa"/><stop offset="0.429" stop-color="#7b90a5"/><stop offset="0.61" stop-color="#4f6ba0"/><stop offset="0.771" stop-color="#2f519d"/><stop offset="0.906" stop-color="#1c419c"/><stop offset="1" stop-color="#153b9b"/></radialGradient><radialGradient id="radial-gradient-2" cx="2964.135" cy="1120.161" r="3.545" gradientTransform="translate(-2957.618 -1117.595)" gradientUnits="userSpaceOnUse"><stop offset="0" stop-color="#ffffb1"/><stop offset="1" stop-color="#153b9b"/></radialGradient><mask id="mask" x="3.06" y="100.581" width="8.734" height="7.369" maskUnits="userSpaceOnUse"><g transform="translate(-79.566 -44.254)"><rect class="cls-1" x="82.626" y="144.835" width="8.734" height="7.369"/></g></mask><radialGradient id="radial-gradient-3" cx="2963.827" cy="1219.344" r="4.594" gradientTransform="translate(-2878.051 -1809.921) scale(1 1.604)" gradientUnits="userSpaceOnUse"><stop offset="0" stop-color="#ffffb1"/><stop offset="0.085" stop-color="#d9dfad"/><stop offset="0.213" stop-color="#a5b4a9"/><stop offset="0.344" stop-color="#798fa4"/><stop offset="0.475" stop-color="#5571a1"/><stop offset="0.606" stop-color="#39599e"/><stop offset="0.737" stop-color="#25489c"/><stop offset="0.868" stop-color="#193e9b"/><stop offset="1" stop-color="#153b9b"/></radialGradient><linearGradient id="linear-gradient-4" x1="2982.773" y1="1193.342" x2="2989.863" y2="1193.342" xlink:href="#linear-gradient-3"/><mask id="mask-2" x="24.333" y="100.581" width="8.734" height="7.369" maskUnits="userSpaceOnUse"><g transform="translate(-79.566 -44.254)"><rect class="cls-2" x="103.9" y="144.835" width="8.734" height="7.369"/></g></mask><radialGradient id="radial-gradient-4" cx="2985.1" cy="1219.344" r="4.594" xlink:href="#radial-gradient-3"/><radialGradient id="radial-gradient-5" cx="2984.811" cy="1139.093" r="5.508" xlink:href="#radial-gradient"/><radialGradient id="radial-gradient-6" cx="2985.408" cy="1120.161" r="3.545" xlink:href="#radial-gradient-2"/></defs><title>leptins</title><g id="LEPTIN"><path class="cls-3" d="M86.993,151.917a3.546,3.546,0,0,1-3.545-3.545V91.63a3.545,3.545,0,0,1,7.091,0v56.742A3.546,3.546,0,0,1,86.993,151.917Z" transform="translate(-79.566 -44.254)"/><ellipse class="cls-4" cx="7.427" cy="28.5" rx="7.427" ry="21.409"/><circle class="cls-5" cx="7.427" cy="3.545" r="3.545"/><g class="cls-6"><path class="cls-7" d="M90.539,145.523v2.849a3.545,3.545,0,1,1-7.091,0v-2.849" transform="translate(-79.566 -44.254)"/></g><path class="cls-8" d="M108.267,151.917a3.546,3.546,0,0,1-3.545-3.545V91.63a3.545,3.545,0,0,1,7.091,0v56.742A3.546,3.546,0,0,1,108.267,151.917Z" transform="translate(-79.566 -44.254)"/><g class="cls-9"><path class="cls-10" d="M111.812,145.523v2.849a3.545,3.545,0,1,1-7.091,0v-2.849" transform="translate(-79.566 -44.254)"/></g><ellipse class="cls-11" cx="28.7" cy="28.5" rx="7.427" ry="21.409"/><circle class="cls-12" cx="28.7" cy="3.545" r="3.545"/></g></svg>