<svg id="Layer_1" data-name="Layer 1" xmlns="http://www.w3.org/2000/svg" xmlns:xlink="http://www.w3.org/1999/xlink" viewBox="0 0 13.114 115.253"><defs><style>.cls-1{fill:url(#linear-gradient);}.cls-2{fill:url(#radial-gradient);}.cls-3{fill:url(#radial-gradient-2);}.cls-4{fill:url(#radial-gradient-3);}</style><linearGradient id="linear-gradient" x1="113.416" y1="95.382" x2="113.416" y2="99.885" gradientTransform="matrix(0, 1, 1, 0, 1.156, -1.156)" gradientUnits="userSpaceOnUse"><stop offset="0" stop-color="#11578c"/><stop offset="0.114" stop-color="#596f82"/><stop offset="0.311" stop-color="#de9b71"/><stop offset="0.396" stop-color="#c49274"/><stop offset="0.579" stop-color="#807c7d"/><stop offset="0.843" stop-color="#15588b"/><stop offset="0.852" stop-color="#11578c"/></linearGradient><radialGradient id="radial-gradient" cx="1397.277" cy="-546.761" r="10.604" gradientTransform="matrix(1, 0, 0, -0.802, -1299.405, -371.302)" gradientUnits="userSpaceOnUse"><stop offset="0" stop-color="#de9b71"/><stop offset="0.121" stop-color="#ab8a78"/><stop offset="0.247" stop-color="#7c7b7e"/><stop offset="0.374" stop-color="#566e83"/><stop offset="0.499" stop-color="#386487"/><stop offset="0.622" stop-color="#225d8a"/><stop offset="0.741" stop-color="#15588b"/><stop offset="0.852" stop-color="#11578c"/></radialGradient><radialGradient id="radial-gradient-2" cx="1396.943" cy="-529.739" r="10.604" xlink:href="#radial-gradient"/><radialGradient id="radial-gradient-3" cx="1397.11" cy="-520.328" r="8.446" gradientTransform="matrix(1, -0.006, -0.003, -0.385, -1301.117, -146.785)" xlink:href="#radial-gradient"/></defs><title>SIRPA</title><g id="SIRPA"><path class="cls-1" d="M101.03,153.5V71.019a2,2,0,0,0-4,0V153.5a2,2,0,0,0,4,0Z" transform="translate(-92.473 -40.247)"/><path class="cls-2" d="M99.03,62.361c-3.622,0-6.557,2.354-6.557,5.258v2.8c0,2.9,2.935,5.258,6.557,5.258s6.557-2.354,6.557-5.258v-2.8C105.587,64.715,102.652,62.361,99.03,62.361Z" transform="translate(-92.473 -40.247)"/><path class="cls-3" d="M99.03,49.045c-3.622,0-6.557,2.354-6.557,5.258v2.8c0,2.9,2.935,5.258,6.557,5.258s6.557-2.354,6.557-5.258V54.3C105.587,51.4,102.652,49.045,99.03,49.045Z" transform="translate(-92.473 -40.247)"/><path class="cls-4" d="M99.03,44.663c-6.5,0-6.557-6.579-6.557-3.676v2.8c0,2.9,2.935,5.258,6.557,5.258s6.557-2.354,6.557-5.258v-2.8C105.587,38.083,105.532,44.663,99.03,44.663Z" transform="translate(-92.473 -40.247)"/></g></svg>