<svg id="Layer_1" data-name="Layer 1" xmlns="http://www.w3.org/2000/svg" xmlns:xlink="http://www.w3.org/1999/xlink" viewBox="0 0 138.294 127.198"><defs><style>.cls-1{fill:url(#radial-gradient);}.cls-2{fill:url(#radial-gradient-2);}.cls-3{fill:url(#radial-gradient-3);}.cls-4{fill:url(#radial-gradient-4);}.cls-5{fill:url(#radial-gradient-5);}.cls-6{fill:url(#radial-gradient-6);}.cls-7{fill:url(#linear-gradient);}.cls-8{fill:url(#linear-gradient-2);}</style><radialGradient id="radial-gradient" cx="-142.112" cy="659.265" r="15.077" gradientTransform="translate(300.78 -510.785)" gradientUnits="userSpaceOnUse"><stop offset="0" stop-color="#eba7ff"/><stop offset="0.061" stop-color="#df94f2"/><stop offset="0.186" stop-color="#ca73dc"/><stop offset="0.29" stop-color="#be5ece"/><stop offset="0.359" stop-color="#b957c9"/><stop offset="1" stop-color="#54235c"/></radialGradient><radialGradient id="radial-gradient-2" cx="-163.201" cy="659.265" r="15.077" xlink:href="#radial-gradient"/><radialGradient id="radial-gradient-3" cx="-184.29" cy="659.265" r="15.077" xlink:href="#radial-gradient"/><radialGradient id="radial-gradient-4" cx="-219.581" cy="659.265" r="15.077" xlink:href="#radial-gradient"/><radialGradient id="radial-gradient-5" cx="-240.67" cy="659.265" r="15.077" xlink:href="#radial-gradient"/><radialGradient id="radial-gradient-6" cx="-261.759" cy="659.265" r="15.077" xlink:href="#radial-gradient"/><linearGradient id="linear-gradient" x1="-191.729" y1="597.953" x2="-173.083" y2="597.953" gradientTransform="translate(300.78 -510.785)" gradientUnits="userSpaceOnUse"><stop offset="0" stop-color="#24a07a"/><stop offset="0.253" stop-color="#8bc39e"/><stop offset="0.415" stop-color="#24a07a"/><stop offset="1" stop-color="#072119"/></linearGradient><linearGradient id="linear-gradient-2" x1="-227.02" y1="597.953" x2="-208.374" y2="597.953" xlink:href="#linear-gradient"/></defs><title>TLR</title><g id="TLR"><path class="cls-1" d="M160.552,163.713a9.323,9.323,0,0,1-9.323-9.323v-4.966a9.323,9.323,0,1,1,18.646,0v4.966A9.323,9.323,0,0,1,160.552,163.713Z" transform="translate(-31.581 -36.516)"/><path class="cls-2" d="M139.463,163.713a9.323,9.323,0,0,1-9.323-9.323v-4.966a9.323,9.323,0,1,1,18.646,0v4.966A9.323,9.323,0,0,1,139.463,163.713Z" transform="translate(-31.581 -36.516)"/><path class="cls-3" d="M118.373,163.713a9.323,9.323,0,0,1-9.323-9.323v-4.966a9.323,9.323,0,1,1,18.646,0v4.966A9.323,9.323,0,0,1,118.373,163.713Z" transform="translate(-31.581 -36.516)"/><path class="cls-4" d="M83.083,163.713a9.323,9.323,0,0,1-9.323-9.323v-4.966a9.323,9.323,0,1,1,18.646,0v4.966A9.323,9.323,0,0,1,83.083,163.713Z" transform="translate(-31.581 -36.516)"/><path class="cls-5" d="M61.993,163.713a9.323,9.323,0,0,1-9.323-9.323v-4.966a9.323,9.323,0,1,1,18.646,0v4.966A9.323,9.323,0,0,1,61.993,163.713Z" transform="translate(-31.581 -36.516)"/><path class="cls-6" d="M40.9,163.713a9.323,9.323,0,0,1-9.323-9.323v-4.966a9.323,9.323,0,1,1,18.646,0v4.966A9.323,9.323,0,0,1,40.9,163.713Z" transform="translate(-31.581 -36.516)"/><path class="cls-7" d="M118.373,137.822a9.323,9.323,0,0,1-9.323-9.323V45.839a9.323,9.323,0,0,1,18.646,0V128.5A9.323,9.323,0,0,1,118.373,137.822Z" transform="translate(-31.581 -36.516)"/><path class="cls-8" d="M83.083,137.822A9.323,9.323,0,0,1,73.76,128.5V45.839a9.323,9.323,0,1,1,18.646,0V128.5A9.323,9.323,0,0,1,83.083,137.822Z" transform="translate(-31.581 -36.516)"/></g></svg>