<svg id="Layer_1" data-name="Layer 1" xmlns="http://www.w3.org/2000/svg" xmlns:xlink="http://www.w3.org/1999/xlink" viewBox="0 0 32.555 59.418"><defs><style>.cls-1{fill:#0061b1;}.cls-2{fill:url(#radial-gradient);}.cls-3{fill:url(#radial-gradient-2);}.cls-4{fill:url(#radial-gradient-3);}.cls-5{fill:url(#radial-gradient-4);}.cls-6{fill:url(#radial-gradient-5);}</style><radialGradient id="radial-gradient" cx="1489.518" cy="-963.099" r="8.988" gradientTransform="matrix(-0.732, 0, 0, 0.979, 1176.451, 1031.333)" gradientUnits="userSpaceOnUse"><stop offset="0" stop-color="#a3ebf0"/><stop offset="1" stop-color="#00a5b1" stop-opacity="0"/></radialGradient><radialGradient id="radial-gradient-2" cx="1461.889" cy="-962.019" r="8.815" gradientTransform="matrix(-0.728, 0.068, 0.091, 0.975, 1259.357, 925.837)" xlink:href="#radial-gradient"/><radialGradient id="radial-gradient-3" cx="-92.759" cy="-1469.251" r="8.988" gradientTransform="matrix(-1, 0, 0, 1, 6.336, 1543.35)" gradientUnits="userSpaceOnUse"><stop offset="0" stop-color="#a3ebf0"/><stop offset="1" stop-color="#0061b1"/></radialGradient><radialGradient id="radial-gradient-4" cx="-74.819" cy="-1449.697" r="10.658" gradientTransform="matrix(-0.999, -0.045, -0.036, 0.806, -29.745, 1265.047)" xlink:href="#radial-gradient-3"/><radialGradient id="radial-gradient-5" cx="-62.145" cy="-1441.237" r="10.658" gradientTransform="matrix(-0.999, -0.041, -0.03, 0.735, -10.708, 1171.835)" xlink:href="#radial-gradient-3"/></defs><title>SRP</title><g id="SRP"><path class="cls-1" d="M89.173,82.414c2.83-.082,5.553,3.2,9.094,3.1s6.07-3.534,8.9-3.616c4.962-.143,7.1,3.821,7.245,8.783s-1.763,9.043-6.725,9.186c-2.83.082-4.443-3.23-9.094-3.1s-6.07,3.534-8.9,3.616c-4.962.143-7.1-3.821-7.245-8.783S84.211,82.557,89.173,82.414Z" transform="translate(-82.332 -69.04)"/><ellipse class="cls-2" cx="88.931" cy="91.367" rx="6.575" ry="8.798" transform="translate(-90.464 -60.35) rotate(-5.35)"/><path class="cls-3" d="M101.747,91.262c.453,4.838,3.494,8.031,7.11,7.692s6.436-4.081,5.983-8.918-3.751-8.485-7.367-8.146S101.293,86.424,101.747,91.262Z" transform="translate(-82.332 -69.04)"/><circle class="cls-4" cx="97.635" cy="78.029" r="8.988" transform="translate(-108.458 26.436) rotate(-46.656)"/><ellipse class="cls-5" cx="100.2" cy="105.272" rx="11.576" ry="9.652" transform="translate(-85.333 -66.1) rotate(-1.656)"/><ellipse class="cls-6" cx="97.054" cy="118.804" rx="11.576" ry="9.652" transform="translate(-85.725 -66.186) rotate(-1.656)"/></g></svg>