<svg id="Layer_1" data-name="Layer 1" xmlns="http://www.w3.org/2000/svg" xmlns:xlink="http://www.w3.org/1999/xlink" viewBox="0 0 95.712 22.949"><defs><style>.cls-1{fill:url(#linear-gradient);}.cls-2{fill:#4200a8;}.cls-3{font-size:12px;fill:#fff;font-family:Arial-BoldMT, Arial;font-weight:700;}.cls-4{letter-spacing:-0.074em;}</style><linearGradient id="linear-gradient" x1="48.235" y1="21.347" x2="48.235" y2="1.347" gradientUnits="userSpaceOnUse"><stop offset="0" stop-color="#d9af60"/><stop offset="1" stop-color="#4200a8"/></linearGradient></defs><title>pro-CASPASE8</title><g id="pro-CASPASE8"><rect class="cls-1" x="1.235" y="1.347" width="94" height="20" rx="10" ry="10"/><path class="cls-2" d="M137,110.15c-8.782-.009-17.565.43-26.347.837-8.782.458-17.565.546-26.347.613-4.391,0-8.782.019-13.173-.037l-6.587-.076-1.661-.024a11.877,11.877,0,0,1-1.875-.2,11.691,11.691,0,0,1-3.522-1.286,11.474,11.474,0,0,1-4.878-5.5,11.232,11.232,0,0,1-.433-7.271A10.982,10.982,0,0,1,63,89.179c8.782.261,17.565.449,26.347.335,4.391-.049,8.782-.194,13.173-.349l13.173-.413c4.391-.085,8.782-.131,13.173-.071q3.293.022,6.587.128l1.658.05a10.422,10.422,0,0,1,1.814.237,11.264,11.264,0,0,1,3.358,1.335,10.985,10.985,0,0,1,4.494,5.353,10.681,10.681,0,0,1,.264,6.8A10.564,10.564,0,0,1,137,110.15Zm0-.3a9.726,9.726,0,0,0,5.986-2.124A9.44,9.44,0,0,0,146.3,102.4a9.265,9.265,0,0,0-.724-6.087,9.453,9.453,0,0,0-4.2-4.23,9.236,9.236,0,0,0-2.821-.85,10.752,10.752,0,0,0-1.46-.077l-1.635.04q-3.293.108-6.587.128c-4.391.061-8.782.015-13.173-.071l-13.173-.413c-4.391-.155-8.782-.3-13.173-.349-8.782-.114-17.565.074-26.347.335a9.107,9.107,0,0,0-8.519,6.986,8.719,8.719,0,0,0,.556,5.62,8.985,8.985,0,0,0,3.821,4.085,8.831,8.831,0,0,0,2.657.9,8.969,8.969,0,0,0,1.4.116l1.632-.014,6.587-.076c4.391-.056,8.782-.036,13.173-.037,8.782.066,17.565.155,26.347.613C119.435,109.42,128.218,109.859,137,109.85Z" transform="translate(-51.765 -88.653)"/><text class="cls-3" transform="translate(4.673 14.239)">pro-CAS<tspan class="cls-4" x="48.662" y="0">P</tspan><tspan x="55.775" y="0">ASE8</tspan></text></g></svg>