<svg id="Layer_1" data-name="Layer 1" xmlns="http://www.w3.org/2000/svg" xmlns:xlink="http://www.w3.org/1999/xlink" viewBox="0 0 45.593 22.611"><defs><style>.cls-1{fill:url(#linear-gradient);}.cls-2{fill:#997ca8;}.cls-3{font-size:12px;fill:#fff;font-family:Arial-BoldMT, Arial;font-weight:700;}</style><linearGradient id="linear-gradient" x1="100.109" y1="109.811" x2="100.109" y2="89.811" gradientUnits="userSpaceOnUse"><stop offset="0" stop-color="#6e5eb7"/><stop offset="0.465" stop-color="#6189b0"/><stop offset="1" stop-color="#50bfa8"/></linearGradient></defs><title>RRP8</title><g id="RRP8"><path class="cls-1" d="M112.335,109.811H88.609a10.029,10.029,0,0,1-10-10v-.726a9.3,9.3,0,0,1,9.274-9.274h24.453a9.3,9.3,0,0,1,9.274,9.274v1.453A9.3,9.3,0,0,1,112.335,109.811Z" transform="translate(-77.149 -88.725)"/><path class="cls-2" d="M112.335,109.961c-4.571-.009-9.143.43-13.714.837-2.286.205-4.571.388-6.857.457-1.161.05-2.244.088-3.47.078a11.023,11.023,0,0,1-3.883-.724,11.373,11.373,0,0,1-5.861-5.118,11.64,11.64,0,0,1-1.264-3.729,12.549,12.549,0,0,1-.137-1.961c.01-.3.007-.55.028-.879s.041-.659.078-.986a10.358,10.358,0,0,1,3.707-6.693,10.18,10.18,0,0,1,7.077-2.256c4.571.282,9.143.437,13.714.335,2.286-.059,4.571-.178,6.857-.341l3.429-.235a10.412,10.412,0,0,1,3.783.422,10.027,10.027,0,0,1,5.848,4.9,9.442,9.442,0,0,1,1.044,3.735,11.651,11.651,0,0,1-.019,1.857l-.065.857-.112.943a10.157,10.157,0,0,1-3.684,6.191A10.506,10.506,0,0,1,112.335,109.961Zm0-.3a8.26,8.26,0,0,0,5.979-2.576,8.4,8.4,0,0,0,2.3-5.8l-.026-.77-.065-.857c-.045-.6-.088-1.069-.173-1.565a8.9,8.9,0,0,0-5.362-6.573,9.089,9.089,0,0,0-2.95-.651l-3.429-.235c-2.286-.164-4.571-.282-6.857-.341-4.571-.1-9.143.053-13.714.335a8.465,8.465,0,0,0-7.965,7.61l-.019.725c-.007.242.01.559.014.835a10.238,10.238,0,0,0,.175,1.449,8.571,8.571,0,0,0,1.031,2.692,8.807,8.807,0,0,0,4.3,3.686,7.889,7.889,0,0,0,2.8.63l3.386.106c2.286.069,4.571.252,6.857.457C103.193,109.231,107.764,109.67,112.335,109.661Z" transform="translate(-77.149 -88.725)"/><text class="cls-3" transform="translate(6.956 14.247)">RRP8</text></g></svg>