<svg id="Layer_1" data-name="Layer 1" xmlns="http://www.w3.org/2000/svg" xmlns:xlink="http://www.w3.org/1999/xlink" viewBox="0 0 111.586 22.949"><defs><style>.cls-1{fill:url(#linear-gradient);}.cls-2{fill:#1a9e9e;}.cls-3{font-size:12px;fill:#fff;font-family:Arial-BoldMT, Arial;font-weight:700;}</style><linearGradient id="linear-gradient" x1="56.191" y1="1.347" x2="56.191" y2="21.347" gradientUnits="userSpaceOnUse"><stop offset="0" stop-color="#1a9e9e"/><stop offset="1" stop-color="#db5528"/></linearGradient></defs><title>CORTICOTROPIN</title><g id="CORTICOTROPIN"><rect class="cls-1" x="1.191" y="1.347" width="110" height="20" rx="10" ry="10"/><path class="cls-2" d="M142.511,112.848c-10.116-.009-20.231.43-30.347.837-10.116.458-20.231.546-30.347.613-5.058,0-10.116.019-15.173-.037l-7.587-.076-3.793-.038-1.9-.019-.961-.014-1.08-.067a11.263,11.263,0,0,1-9.976-11.93,10.988,10.988,0,0,1,11.162-10.24c10.116.261,20.231.449,30.347.335,5.058-.049,10.116-.194,15.174-.349l15.173-.413c5.058-.085,10.116-.131,15.174-.071q3.793.022,7.587.128l3.793.108,1.9.07.957.04,1.036.091a10.8,10.8,0,0,1,6.949,3.969,10.609,10.609,0,0,1,2.271,7.452,10.454,10.454,0,0,1-3.346,6.847A10.274,10.274,0,0,1,142.511,112.848Zm0-.3a9.761,9.761,0,0,0,6.729-2.761A9.509,9.509,0,0,0,152.1,103.2a9.338,9.338,0,0,0-8.648-9.508l-.858-.01-.939.031-1.9.07-3.793.108q-3.793.108-7.587.128c-5.058.061-10.116.015-15.174-.071l-15.173-.413c-5.058-.155-10.116-.3-15.174-.349-10.116-.114-20.231.074-30.347.335a9.072,9.072,0,0,0-8.785,8.721,8.785,8.785,0,0,0,7.892,9l.813.033.935,0,1.9-.019,3.793-.038,7.587-.076c5.058-.056,10.116-.036,15.173-.037,10.116.066,20.231.155,30.347.613C122.28,112.118,132.4,112.557,142.511,112.548Z" transform="translate(-41.32 -91.351)"/><text class="cls-3" transform="translate(5.858 14.235)">CORTICOTROPIN</text></g></svg>