<svg id="Layer_1" data-name="Layer 1" xmlns="http://www.w3.org/2000/svg" xmlns:xlink="http://www.w3.org/1999/xlink" viewBox="0 0 62.728 114.216"><defs><style>.cls-1{fill:url(#radial-gradient);}.cls-2{fill:url(#linear-gradient);}.cls-3{fill:url(#linear-gradient-2);}.cls-4{fill:url(#linear-gradient-3);}.cls-5{fill:url(#radial-gradient-2);}.cls-6{fill:url(#radial-gradient-3);}</style><radialGradient id="radial-gradient" cx="120.189" cy="106.29" r="62.259" gradientTransform="translate(-20.218 -10.069)" gradientUnits="userSpaceOnUse"><stop offset="0.028" stop-color="#8d62c1"/><stop offset="0.059" stop-color="#a878d1"/><stop offset="0.105" stop-color="#c993e5"/><stop offset="0.149" stop-color="#e0a6f3"/><stop offset="0.19" stop-color="#eeb2fc"/><stop offset="0.226" stop-color="#f3b6ff"/><stop offset="0.281" stop-color="#e9adfa"/><stop offset="0.374" stop-color="#d096ec"/><stop offset="0.493" stop-color="#a670d5"/><stop offset="0.613" stop-color="#7543bb"/><stop offset="0.639" stop-color="#6d3db5"/><stop offset="0.681" stop-color="#562ea5"/><stop offset="0.733" stop-color="#30158b"/><stop offset="0.745" stop-color="#270f85"/></radialGradient><linearGradient id="linear-gradient" x1="107.243" y1="129.399" x2="133.193" y2="129.399" gradientTransform="translate(-20.218 -10.069)" gradientUnits="userSpaceOnUse"><stop offset="0" stop-color="#8259bb"/><stop offset="0.001" stop-color="#8259bb" stop-opacity="0.99"/><stop offset="0.014" stop-color="#8259bb" stop-opacity="0.758"/><stop offset="0.029" stop-color="#8259bb" stop-opacity="0.557"/><stop offset="0.045" stop-color="#8259bb" stop-opacity="0.384"/><stop offset="0.062" stop-color="#8259bb" stop-opacity="0.243"/><stop offset="0.081" stop-color="#8259bb" stop-opacity="0.135"/><stop offset="0.102" stop-color="#8259bb" stop-opacity="0.058"/><stop offset="0.127" stop-color="#8259bb" stop-opacity="0.014"/><stop offset="0.17" stop-color="#8259bb" stop-opacity="0"/><stop offset="0.214" stop-color="#8259bb" stop-opacity="0.022"/><stop offset="0.259" stop-color="#8259bb" stop-opacity="0.089"/><stop offset="0.305" stop-color="#8259bb" stop-opacity="0.2"/><stop offset="0.351" stop-color="#8259bb" stop-opacity="0.355"/><stop offset="0.398" stop-color="#8259bb" stop-opacity="0.556"/><stop offset="0.445" stop-color="#8259bb" stop-opacity="0.797"/><stop offset="0.479" stop-color="#8259bb"/><stop offset="0.495" stop-color="#7b53b0"/><stop offset="0.498" stop-color="#7952ad"/><stop offset="0.5" stop-color="#7b53b0"/><stop offset="0.514" stop-color="#8259bb"/><stop offset="0.544" stop-color="#8259bb" stop-opacity="0.708"/><stop offset="0.574" stop-color="#8259bb" stop-opacity="0.456"/><stop offset="0.602" stop-color="#8259bb" stop-opacity="0.258"/><stop offset="0.628" stop-color="#8259bb" stop-opacity="0.116"/><stop offset="0.652" stop-color="#8259bb" stop-opacity="0.03"/><stop offset="0.67" stop-color="#8259bb" stop-opacity="0"/><stop offset="0.717" stop-color="#8259bb" stop-opacity="0.022"/><stop offset="0.765" stop-color="#8259bb" stop-opacity="0.089"/><stop offset="0.814" stop-color="#8259bb" stop-opacity="0.2"/><stop offset="0.864" stop-color="#8259bb" stop-opacity="0.355"/><stop offset="0.914" stop-color="#8259bb" stop-opacity="0.556"/><stop offset="0.964" stop-color="#8259bb" stop-opacity="0.797"/><stop offset="1" stop-color="#8259bb"/></linearGradient><linearGradient id="linear-gradient-2" x1="98.092" y1="63.461" x2="118.873" y2="180.35" gradientTransform="translate(-20.218 -10.069)" gradientUnits="userSpaceOnUse"><stop offset="0" stop-color="#f3b6ff"/><stop offset="0.136" stop-color="#cc96e8"/><stop offset="0.359" stop-color="#9266c5"/><stop offset="0.565" stop-color="#6441a9"/><stop offset="0.747" stop-color="#432695"/><stop offset="0.898" stop-color="#2e1589"/><stop offset="1" stop-color="#270f85"/></linearGradient><linearGradient id="linear-gradient-3" x1="273.899" y1="63.461" x2="294.679" y2="180.35" gradientTransform="matrix(-1, 0, 0, 1, 396.025, -10.069)" xlink:href="#linear-gradient-2"/><radialGradient id="radial-gradient-2" cx="-124.365" cy="-598.358" r="16.089" gradientTransform="translate(209.252 655.658)" gradientUnits="userSpaceOnUse"><stop offset="0" stop-color="#bb3b9b"/><stop offset="1" stop-color="#3a0d9c"/></radialGradient><radialGradient id="radial-gradient-3" cx="182.124" cy="366.398" r="16.089" gradientTransform="translate(296.629 423.698) rotate(180)" xlink:href="#radial-gradient-2"/></defs><title>insulin_receptor</title><g id="insulin_receptor"><path class="cls-1" d="M106.609,96.227h-.243A6.366,6.366,0,0,0,100,102.593a6.366,6.366,0,0,0-6.366-6.366h-.243a6.366,6.366,0,0,0-6.366,6.366v33.474a6.367,6.367,0,0,0,4.422,6.061v12.98a2,2,0,0,0,4,0v-12.94a6.366,6.366,0,0,0,4.553-6.1,6.366,6.366,0,0,0,4.553,6.1v12.94a2,2,0,0,0,4,0v-12.98a6.367,6.367,0,0,0,4.422-6.061V102.593A6.366,6.366,0,0,0,106.609,96.227Z" transform="translate(-68.636 -42.892)"/><path class="cls-2" d="M106.609,96.227h-.243A6.366,6.366,0,0,0,100,102.593a6.366,6.366,0,0,0-6.366-6.366h-.243a6.366,6.366,0,0,0-6.366,6.366v33.474a6.366,6.366,0,0,0,6.366,6.366h.243A6.366,6.366,0,0,0,100,136.067a6.366,6.366,0,0,0,6.366,6.366h.243a6.366,6.366,0,0,0,6.366-6.366V102.593A6.366,6.366,0,0,0,106.609,96.227Z" transform="translate(-68.636 -42.892)"/><path class="cls-3" d="M91.447,96.11c0-7.772-2.608-8.676-5.369-9.633C83.806,85.69,80.7,84.612,80.7,79.86c0-5-.579-5.32-2.126-6.175a15.76,15.76,0,0,1-2.186-1.392c-.415-.322-.846-.615-1.277-.91-2.884-1.971-6.472-4.423-6.472-14.083a2,2,0,1,1,4,0c0,7.549,2.191,9.046,4.729,10.78.5.342,1,.682,1.474,1.054a12.051,12.051,0,0,0,1.666,1.05c2.85,1.574,4.192,3.042,4.192,9.676,0,1.841.47,2.068,2.69,2.837,3.209,1.112,8.06,2.793,8.06,13.413C95.447,97.7,91.447,97.7,91.447,96.11Z" transform="translate(-68.636 -42.892)"/><path class="cls-4" d="M108.553,96.11c0-7.772,2.608-8.676,5.369-9.633,2.271-.787,5.381-1.865,5.381-6.617,0-5,.579-5.32,2.126-6.175a15.76,15.76,0,0,0,2.186-1.392c.415-.322.846-.615,1.277-.91,2.884-1.971,6.472-4.423,6.472-14.083a2,2,0,0,0-4,0c0,7.549-2.191,9.046-4.729,10.78-.5.342-1,.682-1.474,1.054a12.051,12.051,0,0,1-1.666,1.05c-2.85,1.574-4.192,3.042-4.192,9.676,0,1.841-.47,2.068-2.69,2.837-3.209,1.112-8.06,2.793-8.06,13.413C104.553,97.7,108.553,97.7,108.553,96.11Z" transform="translate(-68.636 -42.892)"/><path class="cls-5" d="M82.56,71.708c-7.355,0-11.924-5.521-11.924-14.408S75.205,42.892,82.56,42.892a4.139,4.139,0,1,1,0,8.279c-1.091,0-3.645,0-3.645,6.129s2.554,6.129,3.645,6.129a4.139,4.139,0,0,1,0,8.279Z" transform="translate(-68.636 -42.892)"/><path class="cls-6" d="M116.832,42.892c7.355,0,11.924,5.521,11.924,14.408s-4.569,14.408-11.924,14.408a4.139,4.139,0,0,1,0-8.279c1.091,0,3.645,0,3.645-6.129s-2.554-6.129-3.645-6.129a4.139,4.139,0,0,1,0-8.279Z" transform="translate(-68.636 -42.892)"/></g></svg>