<svg id="Layer_1" data-name="Layer 1" xmlns="http://www.w3.org/2000/svg" xmlns:xlink="http://www.w3.org/1999/xlink" viewBox="0 0 122.576 142.607"><defs><style>.cls-1{fill:url(#linear-gradient);}.cls-2{fill:url(#linear-gradient-2);}.cls-3{fill:url(#linear-gradient-3);}.cls-4{fill:url(#linear-gradient-4);}.cls-5{fill:url(#linear-gradient-5);}.cls-6{fill:url(#linear-gradient-6);}</style><linearGradient id="linear-gradient" x1="38.712" y1="126.401" x2="59.141" y2="126.401" gradientTransform="matrix(1, 0, 0, -1, 0, 202)" gradientUnits="userSpaceOnUse"><stop offset="0" stop-color="#ff91ff"/><stop offset="1" stop-color="#0a6bda"/></linearGradient><linearGradient id="linear-gradient-2" x1="59.143" y1="126.401" x2="79.572" y2="126.401" gradientTransform="matrix(1, 0, 0, -1, 0, 202)" gradientUnits="userSpaceOnUse"><stop offset="0" stop-color="#09bf6d"/><stop offset="1" stop-color="#09586d"/></linearGradient><linearGradient id="linear-gradient-3" x1="120.43" y1="126.401" x2="140.859" y2="126.401" gradientTransform="matrix(1, 0, 0, -1, 0, 202)" gradientUnits="userSpaceOnUse"><stop offset="0" stop-color="#ff9191"/><stop offset="1" stop-color="#0a6bda"/></linearGradient><linearGradient id="linear-gradient-4" x1="140.859" y1="126.401" x2="161.288" y2="126.401" xlink:href="#linear-gradient-2"/><linearGradient id="linear-gradient-5" x1="79.572" y1="77.599" x2="100.001" y2="77.599" gradientTransform="matrix(1, 0, 0, -1, 0, 202)" gradientUnits="userSpaceOnUse"><stop offset="0" stop-color="#91a9ff"/><stop offset="1" stop-color="#0a6bda"/></linearGradient><linearGradient id="linear-gradient-6" x1="100.001" y1="77.599" x2="120.43" y2="77.599" xlink:href="#linear-gradient-5"/></defs><title>R-ICO-013959</title><g id="R-ICO-013959"><path id="CD3_Gamma_chain" class="cls-1" d="M48.927,122.5c-5.642,0-10.215-3.529-10.215-9.478V38.175c0-5.932,4.573-9.479,10.215-9.479s10.213,3.547,10.214,9.479v74.849C59.141,118.973,54.568,122.5,48.927,122.5Z" transform="translate(-38.712 -28.696)"/><path id="CD3_Epsilon_chain" class="cls-2" d="M69.357,122.5c-5.641,0-10.214-3.529-10.214-9.478V38.175c0-5.932,4.573-9.479,10.214-9.479s10.215,3.547,10.215,9.479v74.849C79.572,118.973,75,122.5,69.357,122.5Z" transform="translate(-38.712 -28.696)"/><path id="CD3_Delta_chain" class="cls-3" d="M130.644,122.5c-5.641,0-10.214-3.529-10.214-9.478V38.175c0-5.932,4.573-9.479,10.214-9.479s10.215,3.547,10.215,9.479v74.849C140.859,118.973,136.286,122.5,130.644,122.5Z" transform="translate(-38.712 -28.696)"/><path id="CD3_Epsilon_chain-2" data-name="CD3_Epsilon_chain" class="cls-4" d="M151.073,122.5c-5.641,0-10.214-3.529-10.214-9.478V38.175c0-5.932,4.573-9.479,10.214-9.479s10.215,3.547,10.215,9.479v74.849C161.288,118.973,156.716,122.5,151.073,122.5Z" transform="translate(-38.712 -28.696)"/><path id="CD3_Zeta_chain" class="cls-5" d="M89.786,171.3c-5.641,0-10.214-3.53-10.214-9.479V86.976c0-5.932,4.573-9.478,10.214-9.478S100,81.044,100,86.976v74.849C100,167.774,95.428,171.3,89.786,171.3Z" transform="translate(-38.712 -28.696)"/><path id="CD3_Zeta_chain-2" data-name="CD3_Zeta_chain" class="cls-6" d="M110.215,171.3c-5.641,0-10.214-3.53-10.214-9.479V86.976c0-5.932,4.573-9.478,10.214-9.478s10.215,3.546,10.215,9.478v74.849C120.43,167.774,115.857,171.3,110.215,171.3Z" transform="translate(-38.712 -28.696)"/></g></svg>