<svg id="Layer_1" data-name="Layer 1" xmlns="http://www.w3.org/2000/svg" xmlns:xlink="http://www.w3.org/1999/xlink" viewBox="0 0 45.106 45.106"><defs><style>.cls-1{fill:url(#radial-gradient);}.cls-2{fill:url(#radial-gradient-2);}.cls-3{fill:url(#radial-gradient-3);}.cls-4{fill:url(#radial-gradient-4);}.cls-5{fill:url(#radial-gradient-5);}.cls-6{fill:url(#radial-gradient-6);}.cls-7{fill:url(#radial-gradient-7);}.cls-8{fill:url(#radial-gradient-8);}.cls-9{fill:url(#radial-gradient-9);}.cls-10{fill:url(#radial-gradient-10);}.cls-11{fill:url(#radial-gradient-11);}.cls-12{fill:url(#radial-gradient-12);}.cls-13{fill:url(#radial-gradient-13);}.cls-14{fill:url(#radial-gradient-14);}.cls-15{fill:url(#radial-gradient-15);}.cls-16{fill:url(#radial-gradient-16);}.cls-17{fill:url(#radial-gradient-17);}.cls-18{fill:url(#radial-gradient-18);}.cls-19{fill:url(#radial-gradient-19);}.cls-20{fill:url(#radial-gradient-20);}.cls-21{fill:url(#radial-gradient-21);}.cls-22{fill:url(#radial-gradient-22);}.cls-23{fill:url(#radial-gradient-23);}.cls-24{fill:url(#radial-gradient-24);}.cls-25{fill:url(#radial-gradient-25);}.cls-26{fill:url(#radial-gradient-26);}.cls-27{fill:url(#radial-gradient-27);}.cls-28{fill:url(#radial-gradient-28);}.cls-29{fill:url(#radial-gradient-29);}.cls-30{fill:url(#radial-gradient-30);}.cls-31{fill:url(#radial-gradient-31);}.cls-32{fill:url(#radial-gradient-32);}.cls-33{fill:url(#radial-gradient-33);}.cls-34{fill:url(#radial-gradient-34);}.cls-35{fill:url(#radial-gradient-35);}.cls-36{fill:url(#radial-gradient-36);}.cls-37{fill:url(#radial-gradient-37);}.cls-38{fill:url(#radial-gradient-38);}.cls-39{fill:#eeff9c;opacity:0.3;}</style><radialGradient id="radial-gradient" cx="18.391" cy="12.841" r="22.553" gradientUnits="userSpaceOnUse"><stop offset="0" stop-color="#ffff9a"/><stop offset="1" stop-color="#d9a435"/></radialGradient><radialGradient id="radial-gradient-2" cx="29.535" cy="36.683" r="4.232" xlink:href="#radial-gradient"/><radialGradient id="radial-gradient-3" cx="23.004" cy="38.405" r="4.232" xlink:href="#radial-gradient"/><radialGradient id="radial-gradient-4" cx="16.866" cy="37.632" r="4.232" xlink:href="#radial-gradient"/><radialGradient id="radial-gradient-5" cx="12.039" cy="35.195" r="4.232" xlink:href="#radial-gradient"/><radialGradient id="radial-gradient-6" cx="8.444" cy="32.004" r="4.232" xlink:href="#radial-gradient"/><radialGradient id="radial-gradient-7" cx="5.49" cy="27.401" r="4.232" xlink:href="#radial-gradient"/><radialGradient id="radial-gradient-8" cx="4.212" cy="20.731" r="4.232" xlink:href="#radial-gradient"/><radialGradient id="radial-gradient-9" cx="5.49" cy="14.342" r="4.232" xlink:href="#radial-gradient"/><radialGradient id="radial-gradient-10" cx="9.075" cy="8.647" r="4.232" xlink:href="#radial-gradient"/><radialGradient id="radial-gradient-11" cx="13.308" cy="5.065" r="4.232" xlink:href="#radial-gradient"/><radialGradient id="radial-gradient-12" cx="19.004" cy="3.056" r="4.232" xlink:href="#radial-gradient"/><radialGradient id="radial-gradient-13" cx="24.772" cy="3.366" r="4.232" xlink:href="#radial-gradient"/><radialGradient id="radial-gradient-14" cx="30.382" cy="5.521" r="4.232" xlink:href="#radial-gradient"/><radialGradient id="radial-gradient-15" cx="35.215" cy="9.297" r="4.232" xlink:href="#radial-gradient"/><radialGradient id="radial-gradient-16" cx="38.333" cy="14.73" r="4.232" xlink:href="#radial-gradient"/><radialGradient id="radial-gradient-17" cx="39.447" cy="20.731" r="4.232" xlink:href="#radial-gradient"/><radialGradient id="radial-gradient-18" cx="38.333" cy="26.731" r="4.232" xlink:href="#radial-gradient"/><radialGradient id="radial-gradient-19" cx="34.614" cy="32.946" r="4.232" xlink:href="#radial-gradient"/><radialGradient id="radial-gradient-20" cx="27.236" cy="31.634" r="4.232" xlink:href="#radial-gradient"/><radialGradient id="radial-gradient-21" cx="21.099" cy="32.946" r="4.232" xlink:href="#radial-gradient"/><radialGradient id="radial-gradient-22" cx="14.8" cy="32.004" r="4.232" xlink:href="#radial-gradient"/><radialGradient id="radial-gradient-23" cx="11.193" cy="26.361" r="4.232" xlink:href="#radial-gradient"/><radialGradient id="radial-gradient-24" cx="8.444" cy="20.731" r="4.232" xlink:href="#radial-gradient"/><radialGradient id="radial-gradient-25" cx="11.193" cy="14.73" r="4.232" xlink:href="#radial-gradient"/><radialGradient id="radial-gradient-26" cx="15.943" cy="9.754" r="4.232" xlink:href="#radial-gradient"/><radialGradient id="radial-gradient-27" cx="22.598" cy="8.306" r="4.232" xlink:href="#radial-gradient"/><radialGradient id="radial-gradient-28" cx="29.535" cy="10.11" r="4.232" xlink:href="#radial-gradient"/><radialGradient id="radial-gradient-29" cx="33.005" cy="15.237" r="4.232" xlink:href="#radial-gradient"/><radialGradient id="radial-gradient-30" cx="34.614" cy="21.735" r="4.232" xlink:href="#radial-gradient"/><radialGradient id="radial-gradient-31" cx="31.773" cy="27.401" r="4.232" xlink:href="#radial-gradient"/><radialGradient id="radial-gradient-32" cx="24.772" cy="26.731" r="4.232" xlink:href="#radial-gradient"/><radialGradient id="radial-gradient-33" cx="17.772" cy="26.731" r="4.232" xlink:href="#radial-gradient"/><radialGradient id="radial-gradient-34" cx="14.772" cy="20.731" r="4.232" xlink:href="#radial-gradient"/><radialGradient id="radial-gradient-35" cx="18.772" cy="14.73" r="4.232" xlink:href="#radial-gradient"/><radialGradient id="radial-gradient-36" cx="25.772" cy="14.73" r="4.232" xlink:href="#radial-gradient"/><radialGradient id="radial-gradient-37" cx="28.772" cy="20.731" r="4.232" xlink:href="#radial-gradient"/><radialGradient id="radial-gradient-38" cx="21.772" cy="20.731" r="4.232" xlink:href="#radial-gradient"/></defs><title>chylomicron_remanent</title><g id="chylomicron_remanent"><circle class="cls-1" cx="22.553" cy="22.553" r="22.553"/><circle class="cls-2" cx="30.316" cy="38.505" r="4.232"/><circle class="cls-3" cx="23.785" cy="40.228" r="4.232"/><circle class="cls-4" cx="17.648" cy="39.455" r="4.232"/><circle class="cls-5" cx="12.82" cy="37.018" r="4.232"/><circle class="cls-6" cx="9.225" cy="33.826" r="4.232"/><circle class="cls-7" cx="6.271" cy="29.224" r="4.232"/><circle class="cls-8" cx="4.993" cy="22.553" r="4.232"/><circle class="cls-9" cx="6.271" cy="16.165" r="4.232"/><circle class="cls-10" cx="9.856" cy="10.469" r="4.232"/><circle class="cls-11" cx="14.089" cy="6.888" r="4.232"/><circle class="cls-12" cx="19.785" cy="4.878" r="4.232"/><circle class="cls-13" cx="25.553" cy="5.188" r="4.232"/><circle class="cls-14" cx="31.163" cy="7.344" r="4.232"/><circle class="cls-15" cx="35.996" cy="11.12" r="4.232"/><circle class="cls-16" cx="39.114" cy="16.553" r="4.232"/><circle class="cls-17" cx="40.228" cy="22.553" r="4.232"/><circle class="cls-18" cx="39.114" cy="28.553" r="4.232"/><circle class="cls-19" cx="35.395" cy="34.768" r="4.232"/><circle class="cls-20" cx="28.017" cy="33.456" r="4.232"/><circle class="cls-21" cx="21.88" cy="34.768" r="4.232"/><circle class="cls-22" cx="15.581" cy="33.826" r="4.232"/><circle class="cls-23" cx="11.974" cy="28.184" r="4.232"/><circle class="cls-24" cx="9.225" cy="22.553" r="4.232"/><circle class="cls-25" cx="11.974" cy="16.553" r="4.232"/><circle class="cls-26" cx="16.724" cy="11.576" r="4.232"/><circle class="cls-27" cx="23.38" cy="10.128" r="4.232"/><circle class="cls-28" cx="30.316" cy="11.933" r="4.232"/><circle class="cls-29" cx="33.786" cy="17.06" r="4.232"/><circle class="cls-30" cx="35.395" cy="23.557" r="4.232"/><circle class="cls-31" cx="32.554" cy="29.224" r="4.232"/><circle class="cls-32" cx="25.553" cy="28.553" r="4.232"/><circle class="cls-33" cx="18.553" cy="28.553" r="4.232"/><circle class="cls-34" cx="15.553" cy="22.553" r="4.232"/><circle class="cls-35" cx="19.553" cy="16.553" r="4.232"/><circle class="cls-36" cx="26.553" cy="16.553" r="4.232"/><circle class="cls-37" cx="29.553" cy="22.553" r="4.232"/><circle class="cls-38" cx="22.553" cy="22.553" r="4.232"/><circle class="cls-39" cx="22.553" cy="22.553" r="22.553"/></g></svg>