<svg id="Layer_1" data-name="Layer 1" xmlns="http://www.w3.org/2000/svg" viewBox="0 0 120.989 98.896"><defs><style>.cls-1{fill:#ffb700;}.cls-2{fill:#3855fc;}.cls-3{fill:#3ba33b;}.cls-4{fill:#ff6561;}</style></defs><title>antibody</title><g id="ANTIBODY"><g id="CONSTANT"><path class="cls-1" d="M77.723,95.62a5.286,5.286,0,0,1-2.65-.712L59.447,85.886a5.31,5.31,0,0,1,5.31-9.2l15.626,9.022a5.31,5.31,0,0,1-2.66,9.909Z" transform="translate(-40.385 -51)"/><path class="cls-2" d="M77.724,97.12a6.81,6.81,0,0,1-3.4-.915L58.7,87.186a6.81,6.81,0,0,1,6.809-11.8l15.628,9.022a6.811,6.811,0,0,1-3.41,12.708ZM62.107,77.478A3.81,3.81,0,0,0,60.2,84.588l15.626,9.019a3.908,3.908,0,0,0,5.2-1.393,3.806,3.806,0,0,0-1.39-5.2L64,77.988A3.8,3.8,0,0,0,62.107,77.478Z" transform="translate(-40.385 -51)"/><path class="cls-1" d="M124.036,95.62a5.31,5.31,0,0,1-2.66-9.909L137,76.689a5.31,5.31,0,1,1,5.31,9.2l-15.626,9.022A5.284,5.284,0,0,1,124.036,95.62Z" transform="translate(-40.385 -51)"/><path class="cls-2" d="M124.038,97.12a6.834,6.834,0,0,1-5.905-3.4,6.811,6.811,0,0,1,2.492-9.3l15.628-9.022a6.81,6.81,0,0,1,6.809,11.8l-15.626,9.019A6.788,6.788,0,0,1,124.038,97.12Zm15.614-19.643a3.8,3.8,0,0,0-1.9.51L122.126,87.01a3.81,3.81,0,0,0-1.393,5.2,3.91,3.91,0,0,0,5.2,1.393l15.628-9.019a3.812,3.812,0,0,0-1.909-7.111Z" transform="translate(-40.385 -51)"/><path class="cls-3" d="M93.658,148.4a5.31,5.31,0,0,1-5.31-5.31V82.755L68.012,71.014a5.31,5.31,0,0,1,5.31-9.2L96.312,75.092a5.31,5.31,0,0,1,2.655,4.6v63.4A5.31,5.31,0,0,1,93.658,148.4Z" transform="translate(-40.385 -51)"/><path class="cls-2" d="M93.657,149.9a6.819,6.819,0,0,1-6.811-6.811V83.623L67.262,72.314a6.812,6.812,0,0,1,6.811-11.8L97.062,73.792a6.832,6.832,0,0,1,3.407,5.9v63.394A6.819,6.819,0,0,1,93.657,149.9ZM70.675,62.608a3.808,3.808,0,0,0-1.912,7.108L89.1,81.457a1.5,1.5,0,0,1,.751,1.3v60.329a3.809,3.809,0,1,0,7.618,0V79.691a3.825,3.825,0,0,0-1.906-3.3L72.572,63.116A3.805,3.805,0,0,0,70.675,62.608Z" transform="translate(-40.385 -51)"/><path class="cls-3" d="M108.1,148.4a5.31,5.31,0,0,1-5.31-5.31V79.69a5.31,5.31,0,0,1,2.655-4.6l22.991-13.274a5.31,5.31,0,0,1,5.31,9.2L113.411,82.755v60.33A5.31,5.31,0,0,1,108.1,148.4Z" transform="translate(-40.385 -51)"/><path class="cls-2" d="M108.1,149.9a6.819,6.819,0,0,1-6.811-6.811V79.691a6.832,6.832,0,0,1,3.407-5.9l22.988-13.274a6.811,6.811,0,0,1,6.811,11.8L114.913,83.623v59.462A6.819,6.819,0,0,1,108.1,149.9Zm22.982-87.288a3.779,3.779,0,0,0-1.9.51L106.2,76.39a3.825,3.825,0,0,0-1.906,3.3v63.394a3.809,3.809,0,0,0,7.618,0V82.755a1.5,1.5,0,0,1,.751-1.3L133,69.716a3.808,3.808,0,0,0-1.912-7.108Z" transform="translate(-40.385 -51)"/></g><g id="VARIABLE"><path class="cls-4" d="M139.689,86.6a5.31,5.31,0,0,1-2.662-9.908l14.88-8.6a5.31,5.31,0,1,1,5.314,9.194l-14.88,8.6A5.289,5.289,0,0,1,139.689,86.6Z" transform="translate(-40.385 -51)"/><path class="cls-2" d="M139.69,88.1a6.836,6.836,0,0,1-5.9-3.407,6.8,6.8,0,0,1,2.489-9.3l14.881-8.6a6.809,6.809,0,1,1,6.814,11.79l-14.881,8.6A6.78,6.78,0,0,1,139.69,88.1Zm14.869-19.22a3.789,3.789,0,0,0-1.9.51l-14.881,8.6a3.808,3.808,0,0,0-1.393,5.2,3.9,3.9,0,0,0,5.2,1.393l14.884-8.6a3.807,3.807,0,0,0-1.912-7.1Z" transform="translate(-40.385 -51)"/><path class="cls-4" d="M131.1,71.718a5.31,5.31,0,0,1-2.656-9.911l14.906-8.591a5.31,5.31,0,1,1,5.3,9.2l-14.906,8.591A5.287,5.287,0,0,1,131.1,71.718Z" transform="translate(-40.385 -51)"/><path class="cls-2" d="M131.1,73.22a6.811,6.811,0,0,1-3.4-12.714l14.9-8.591a6.812,6.812,0,1,1,6.806,11.8l-14.907,8.591A6.813,6.813,0,0,1,131.1,73.22Zm14.893-19.215a3.768,3.768,0,0,0-1.894.513l-14.9,8.591a3.81,3.81,0,0,0-1.4,5.2,3.9,3.9,0,0,0,5.2,1.4l14.91-8.591a3.81,3.81,0,0,0-.912-6.979A3.865,3.865,0,0,0,145.991,54.005Z" transform="translate(-40.385 -51)"/><path class="cls-4" d="M62.07,86.6a5.282,5.282,0,0,1-2.652-.713l-14.88-8.6a5.31,5.31,0,1,1,5.314-9.194l14.88,8.6A5.31,5.31,0,0,1,62.07,86.6Z" transform="translate(-40.385 -51)"/><path class="cls-2" d="M62.069,88.1a6.8,6.8,0,0,1-3.4-.918l-14.878-8.6A6.809,6.809,0,1,1,50.6,66.793l14.881,8.6A6.812,6.812,0,0,1,62.069,88.1ZM47.2,68.88a3.808,3.808,0,0,0-1.912,7.1l14.881,8.6a3.9,3.9,0,0,0,5.2-1.393,3.8,3.8,0,0,0-1.39-5.2L49.1,69.391A3.781,3.781,0,0,0,47.2,68.88Z" transform="translate(-40.385 -51)"/><path class="cls-4" d="M70.661,71.718a5.282,5.282,0,0,1-2.646-.71L53.109,62.417a5.31,5.31,0,1,1,5.3-9.2l14.906,8.591a5.31,5.31,0,0,1-2.656,9.911Z" transform="translate(-40.385 -51)"/><path class="cls-2" d="M70.66,73.22a6.8,6.8,0,0,1-3.4-.915l-14.9-8.585a6.813,6.813,0,0,1,6.806-11.8l14.9,8.591A6.812,6.812,0,0,1,70.66,73.22Zm-14.9-19.215a3.86,3.86,0,0,0-.994.132,3.813,3.813,0,0,0-.912,6.982L68.766,69.7a3.888,3.888,0,0,0,5.2-1.4,3.809,3.809,0,0,0-1.4-5.2L57.662,54.519A3.77,3.77,0,0,0,55.765,54.005Z" transform="translate(-40.385 -51)"/></g></g></svg>