<svg id="Layer_1" data-name="Layer 1" xmlns="http://www.w3.org/2000/svg" xmlns:xlink="http://www.w3.org/1999/xlink" viewBox="0 0 53.868 41.356"><defs><style>.cls-1{fill:url(#radial-gradient);}.cls-2{fill:#994286;}.cls-3{isolation:isolate;font-size:12px;fill:#fff;font-family:Arial-BoldMT, Arial;font-weight:700;}</style><radialGradient id="radial-gradient" cx="153.789" cy="111.012" r="19.396" gradientTransform="matrix(1.303, 0, 0, -1, -107.5, 202)" gradientUnits="userSpaceOnUse"><stop offset="0" stop-color="#ffb9f8"/><stop offset="1" stop-color="#c745a7"/></radialGradient></defs><title>IGFBP7</title><g id="IGFBP7"><path id="CENTER" class="cls-1" d="M98.64,78.975c-14.544,0-26.378,9.085-26.378,20.253S84.1,119.479,98.64,119.479s26.38-9.085,26.38-20.251S113.186,78.975,98.64,78.975Z" transform="translate(-71.707 -78.549)"/><path class="cls-2" d="M98.64,119.9c-14.852,0-26.933-9.276-26.933-20.677S83.79,78.549,98.64,78.549s26.935,9.276,26.935,20.679S113.491,119.9,98.64,119.9Zm0-40.5c-14.239,0-25.823,8.894-25.823,19.827S84.4,119.053,98.64,119.053s25.825-8.894,25.825-19.826S112.88,79.4,98.64,79.4Z" transform="translate(-71.707 -78.549)"/><text class="cls-3" transform="translate(5.263 23.567)">IGFBP7</text></g></svg>