<svg id="Layer_1" data-name="Layer 1" xmlns="http://www.w3.org/2000/svg" xmlns:xlink="http://www.w3.org/1999/xlink" viewBox="0 0 34.799 111.498"><defs><style>.cls-1{fill:url(#linear-gradient);}.cls-2{fill:url(#linear-gradient-2);}</style><linearGradient id="linear-gradient" x1="82.601" y1="100.001" x2="117.399" y2="100.001" gradientUnits="userSpaceOnUse"><stop offset="0.15" stop-color="#174a43"/><stop offset="0.5" stop-color="#22c664"/><stop offset="0.85" stop-color="#174a43"/></linearGradient><linearGradient id="linear-gradient-2" x1="100" y1="44.252" x2="100" y2="155.75" gradientUnits="userSpaceOnUse"><stop offset="0" stop-color="#0f302c"/><stop offset="0.003" stop-color="#0f322d" stop-opacity="0.988"/><stop offset="0.127" stop-color="#187446" stop-opacity="0.567"/><stop offset="0.279" stop-color="#1ea357" stop-opacity="0.27"/><stop offset="0.487" stop-color="#21be61" stop-opacity="0.098"/><stop offset="1" stop-color="#22c664" stop-opacity="0.05"/></linearGradient></defs><title>PLEXIN-A</title><g id="PLEXIN-A"><path class="cls-1" d="M117.4,61.651A17.4,17.4,0,1,0,90.345,76.12,10.2,10.2,0,0,1,95,84.569v65.993a5.121,5.121,0,0,0,3.966,5.084,5.005,5.005,0,0,0,6.034-4.9V84.564a10.008,10.008,0,0,1,4.535-8.364A17.371,17.371,0,0,0,117.4,61.651Z" transform="translate(-82.601 -44.252)"/><path class="cls-2" d="M117.4,61.651A17.4,17.4,0,1,0,90.345,76.12,10.2,10.2,0,0,1,95,84.569v65.993a5.121,5.121,0,0,0,3.966,5.084,5.005,5.005,0,0,0,6.034-4.9V84.564a10.008,10.008,0,0,1,4.535-8.364A17.371,17.371,0,0,0,117.4,61.651Z" transform="translate(-82.601 -44.252)"/></g></svg>