<svg id="Layer_1" data-name="Layer 1" xmlns="http://www.w3.org/2000/svg" xmlns:xlink="http://www.w3.org/1999/xlink" viewBox="0 0 101.125 21.964"><defs><style>.cls-1{fill:url(#linear-gradient);}.cls-2{fill:#c97800;}.cls-3{font-size:12px;fill:#fff;font-family:Arial-BoldMT, Arial;font-weight:700;}.cls-4{letter-spacing:-0.092em;}</style><linearGradient id="linear-gradient" x1="50.816" y1="0.898" x2="50.816" y2="20.898" gradientUnits="userSpaceOnUse"><stop offset="0" stop-color="#c97800"/><stop offset="0.254" stop-color="#9e6e1f"/><stop offset="0.825" stop-color="#32536c"/><stop offset="1" stop-color="#104b85"/></linearGradient></defs><title>GLYCOSIDASES</title><g id="GLUCOSIDASES"><rect class="cls-1" x="0.816" y="0.898" width="100" height="20" rx="9.95" ry="9.95"/><path class="cls-2" d="M140.05,110.1c-9.286-.007-18.572.3-27.858.558-9.286.305-18.572.364-27.858.408l-13.929-.024-6.964-.051-3.482-.025a11.091,11.091,0,0,1-3.733-.7,10.8,10.8,0,0,1-6.854-12.131,10.569,10.569,0,0,1,3.735-6.3,10.679,10.679,0,0,1,6.844-2.382c9.286.172,18.572.282,27.858.223s18.572-.365,27.858-.508c4.643-.057,9.286-.087,13.929-.047q3.482.015,6.964.086l3.482.072a10.808,10.808,0,0,1,3.625.747,10.5,10.5,0,0,1,5.384,4.762,10.4,10.4,0,0,1-2.508,12.961A10.247,10.247,0,0,1,140.05,110.1Zm0-.2a9.882,9.882,0,0,0,6.315-2.36,9.641,9.641,0,0,0,1.92-12.311,9.408,9.408,0,0,0-8.244-4.508l-3.482.072q-3.482.072-6.964.086c-4.643.04-9.286.01-13.929-.047-9.286-.143-18.572-.435-27.858-.508s-18.572.052-27.858.223a9.347,9.347,0,0,0-9.015,7.859,9.132,9.132,0,0,0,9.023,10.627l3.482-.025,6.964-.051,13.929-.024c9.286.044,18.572.1,27.858.408C121.478,109.6,130.764,109.907,140.05,109.9Z" transform="translate(-49.184 -89.102)"/><text class="cls-3" transform="translate(3.692 14.211)">G<tspan class="cls-4" x="9.334" y="0">L</tspan><tspan x="15.563" y="0">YCOSIDASES</tspan></text></g></svg>