<svg id="Layer_1" data-name="Layer 1" xmlns="http://www.w3.org/2000/svg" xmlns:xlink="http://www.w3.org/1999/xlink" viewBox="0 0 73.015 38.508"><defs><style>.cls-1{fill:url(#linear-gradient);}.cls-2{fill:url(#linear-gradient-2);}.cls-3{fill:url(#linear-gradient-3);}.cls-4{fill:url(#linear-gradient-4);}.cls-5{fill:url(#linear-gradient-5);}.cls-6{fill:url(#linear-gradient-6);}.cls-7{fill:url(#linear-gradient-7);}.cls-8{fill:url(#linear-gradient-8);}.cls-9{fill:url(#linear-gradient-9);}.cls-10{fill:url(#linear-gradient-10);}.cls-11{fill:url(#linear-gradient-11);}.cls-12{fill:url(#linear-gradient-12);}.cls-13{fill:url(#linear-gradient-13);}.cls-14{fill:url(#linear-gradient-14);}.cls-15{fill:url(#linear-gradient-15);}</style><linearGradient id="linear-gradient" x1="624.825" y1="688.762" x2="627.058" y2="701.923" gradientTransform="matrix(0.149, -0.668, 2.008, 0.449, -1388.738, 219.857)" gradientUnits="userSpaceOnUse"><stop offset="0" stop-color="#110f23"/><stop offset="0.094" stop-color="#343090"/><stop offset="0.117" stop-color="#3b3793"/><stop offset="0.15" stop-color="#4d499c"/><stop offset="0.189" stop-color="#6b68aa"/><stop offset="0.231" stop-color="#9592bd"/><stop offset="0.273" stop-color="#c4c1d3"/><stop offset="0.31" stop-color="#c1bed2"/><stop offset="0.335" stop-color="#b8b5ce"/><stop offset="0.357" stop-color="#a9a6c6"/><stop offset="0.377" stop-color="#9490bc"/><stop offset="0.396" stop-color="#7874b0"/><stop offset="0.413" stop-color="#5652a0"/><stop offset="0.428" stop-color="#343090"/><stop offset="0.506" stop-color="#2d2979"/><stop offset="0.652" stop-color="#211e54"/><stop offset="0.787" stop-color="#181639"/><stop offset="0.908" stop-color="#131129"/><stop offset="1" stop-color="#110f23"/></linearGradient><linearGradient id="linear-gradient-2" x1="612.65" y1="675.4" x2="613.954" y2="683.088" xlink:href="#linear-gradient"/><linearGradient id="linear-gradient-3" x1="1096.463" y1="290.447" x2="1093.671" y2="290.238" gradientTransform="matrix(0.142, 0.99, -0.99, 0.142, 218.715, -1029.89)" xlink:href="#linear-gradient"/><linearGradient id="linear-gradient-4" x1="935.935" y1="267.637" x2="924.399" y2="266.776" gradientTransform="matrix(0.142, -0.99, -0.99, -0.142, 218.715, 1068.883)" xlink:href="#linear-gradient"/><linearGradient id="linear-gradient-5" x1="1012.933" y1="-270.809" x2="1001.396" y2="-271.67" gradientTransform="translate(486.912 1068.883) rotate(-98.138)" xlink:href="#linear-gradient"/><linearGradient id="linear-gradient-6" x1="757.969" y1="-17.231" x2="750.287" y2="-17.805" gradientTransform="translate(-490.2 560.698) rotate(-35.225)" xlink:href="#linear-gradient"/><linearGradient id="linear-gradient-7" x1="1173.743" y1="-249.978" x2="1170.951" y2="-250.187" gradientTransform="matrix(-0.142, 0.99, 0.99, 0.142, 488.911, -1029.89)" xlink:href="#linear-gradient"/><linearGradient id="linear-gradient-8" x1="1102.34" y1="-366.452" x2="1118.055" y2="-363.65" gradientTransform="translate(441.236 1196.572) rotate(-90)" xlink:href="#linear-gradient"/><linearGradient id="linear-gradient-9" x1="1118.825" y1="-356.374" x2="1101.771" y2="-357.646" gradientTransform="translate(441.236 1196.572) rotate(-90)" xlink:href="#linear-gradient"/><linearGradient id="linear-gradient-10" x1="1087.779" y1="-324.35" x2="1103.494" y2="-321.547" gradientTransform="translate(441.236 1196.572) rotate(-90)" xlink:href="#linear-gradient"/><linearGradient id="linear-gradient-11" x1="1104.264" y1="-314.271" x2="1087.21" y2="-315.543" gradientTransform="translate(441.236 1196.572) rotate(-90)" xlink:href="#linear-gradient"/><linearGradient id="linear-gradient-12" x1="1493.133" y1="-229.984" x2="1508.848" y2="-227.182" gradientTransform="translate(1567.64 -123.031) rotate(180)" xlink:href="#linear-gradient"/><linearGradient id="linear-gradient-13" x1="1509.618" y1="-219.905" x2="1492.564" y2="-221.178" gradientTransform="translate(1567.64 -123.031) rotate(180)" xlink:href="#linear-gradient"/><linearGradient id="linear-gradient-14" x1="965.559" y1="24.654" x2="981.274" y2="27.456" gradientTransform="translate(-878.367 70.168)" xlink:href="#linear-gradient"/><linearGradient id="linear-gradient-15" x1="982.044" y1="34.733" x2="964.99" y2="33.46" gradientTransform="translate(-878.367 70.168)" xlink:href="#linear-gradient"/></defs><title>snRNA</title><g id="snRNA"><path class="cls-1" d="M115.5,113.037c-7.245,2.145-25.883,3.035-29.053,1.381l2.193,1.254c3.855,1.842,16.527,2.284,24.781-1.591Z" transform="translate(-58.687 -78.534)"/><path class="cls-2" d="M75.258,114.418c-7.245,2.145-15.134-4.052-16.327,1.279l-.243,1.087c.824-3.684,6.124,2.763,14.378-1.113Z" transform="translate(-58.687 -78.534)"/><path class="cls-3" d="M87.3,96c-3.227,1.848-1.569-1.882-1.569-1.882l.074-.1S84.429,96.6,87.4,95.93Z" transform="translate(-58.687 -78.534)"/><path class="cls-4" d="M87.3,105.775c-4.88-2.435-1.792,8.477,1.335,9.9l-2.193-1.254c-3.075-1.886-6.443-12.234.958-8.569Z" transform="translate(-58.687 -78.534)"/><path class="cls-5" d="M74.394,105.775c4.88-2.435,1.8,8.477-1.328,9.9l2.193-1.254c3.075-1.886,6.436-12.234-.964-8.569Z" transform="translate(-58.687 -78.534)"/><path class="cls-6" d="M117.99,108.58c.437.959-2.49,4.457-4.674,5.549l2.184-1.092c1.613-1.06,3.8-1.995,2.564-4.357Z" transform="translate(-58.687 -78.534)"/><path class="cls-7" d="M74.4,96c3.227,1.848,1.569-1.882,1.569-1.882l-.074-.1S77.274,96.6,74.3,95.93Z" transform="translate(-58.687 -78.534)"/><path class="cls-8" d="M82.146,78.534c-11.132,0-6.183,15.584-6.183,15.584l-.074-.1s-11.07-15.485,4.63-15.485Z" transform="translate(-58.687 -78.534)"/><path class="cls-9" d="M79.553,78.534c11.132,0,6.183,15.584,6.183,15.584l.074-.1s11.07-15.485-4.63-15.485Z" transform="translate(-58.687 -78.534)"/><path class="cls-10" d="M124.248,93.1c-11.132,0-6.183,15.584-6.183,15.584l-.074-.1S106.92,93.1,122.62,93.1Z" transform="translate(-58.687 -78.534)"/><path class="cls-11" d="M121.655,93.1c11.132,0,6.183,15.584,6.183,15.584l.074-.1s11.07-15.485-4.63-15.485Z" transform="translate(-58.687 -78.534)"/><path class="cls-12" d="M58.809,99.591c0,11.132,15.584,6.183,15.584,6.183l-.1.074s-15.485,11.07-15.485-4.63Z" transform="translate(-58.687 -78.534)"/><path class="cls-13" d="M58.809,102.184C58.809,91.053,74.394,96,74.394,96l-.1-.074s-15.485-11.07-15.485,4.63Z" transform="translate(-58.687 -78.534)"/><path class="cls-14" d="M102.889,102.184C102.889,91.053,87.3,96,87.3,96l.1-.074s15.485-11.07,15.485,4.63Z" transform="translate(-58.687 -78.534)"/><path class="cls-15" d="M102.889,99.591c0,11.132-15.584,6.183-15.584,6.183l.1.074s15.485,11.07,15.485-4.63Z" transform="translate(-58.687 -78.534)"/></g></svg>