<svg id="Layer_1" data-name="Layer 1" xmlns="http://www.w3.org/2000/svg" xmlns:xlink="http://www.w3.org/1999/xlink" viewBox="0 0 137.409 24.232"><defs><style>.cls-1{fill:none;stroke:#194257;}.cls-1,.cls-2,.cls-3,.cls-4,.cls-5,.cls-6{stroke-linecap:round;stroke-linejoin:round;stroke-width:2px;}.cls-2,.cls-3,.cls-4,.cls-5,.cls-6{fill:#de6e4e;}.cls-2{stroke:url(#linear-gradient);}.cls-3{stroke:url(#linear-gradient-2);}.cls-4{stroke:url(#linear-gradient-3);}.cls-5{stroke:url(#linear-gradient-4);}.cls-6{stroke:url(#linear-gradient-5);}</style><linearGradient id="linear-gradient" x1="76.851" y1="111.865" x2="76.851" y2="87.633" gradientTransform="translate(-66.31 -87.633)" gradientUnits="userSpaceOnUse"><stop offset="0" stop-color="#194257"/><stop offset="1" stop-color="#de6e4e"/></linearGradient><linearGradient id="linear-gradient-2" x1="105.933" y1="111.865" x2="105.933" y2="87.633" xlink:href="#linear-gradient"/><linearGradient id="linear-gradient-3" x1="135.015" y1="111.865" x2="135.015" y2="87.633" xlink:href="#linear-gradient"/><linearGradient id="linear-gradient-4" x1="164.097" y1="111.865" x2="164.097" y2="87.633" xlink:href="#linear-gradient"/><linearGradient id="linear-gradient-5" x1="193.179" y1="111.865" x2="193.179" y2="87.633" xlink:href="#linear-gradient"/></defs><title>POLYSACCHARIDE</title><g id="Polysaccharides"><line class="cls-1" x1="20.081" y1="12.116" x2="117.328" y2="12.116"/><polygon class="cls-2" points="20.081 18.014 20.081 6.207 10.526 1 1 6.207 1 18.014 10.505 23.232 20.081 18.014"/><polygon class="cls-3" points="49.163 18.014 49.163 6.207 39.608 1 30.082 6.207 30.082 18.014 39.587 23.232 49.163 18.014"/><polygon class="cls-4" points="78.245 18.014 78.245 6.207 68.69 1 59.164 6.207 59.164 18.014 68.668 23.232 78.245 18.014"/><polygon class="cls-5" points="107.327 18.014 107.327 6.207 97.772 1 88.246 6.207 88.246 18.014 97.75 23.232 107.327 18.014"/><polygon class="cls-6" points="136.409 18.014 136.409 6.207 126.854 1 117.328 6.207 117.328 18.014 126.832 23.232 136.409 18.014"/></g></svg>