<svg id="Layer_1" data-name="Layer 1" xmlns="http://www.w3.org/2000/svg" viewBox="0 0 84.827 22.949"><defs><style>.cls-1{fill:#db7ffb;}.cls-2{fill:#ffd000;}.cls-3{font-size:12px;fill:#fff;font-family:Arial-BoldMT, Arial;font-weight:700;}.cls-4{letter-spacing:-0.018em;}</style></defs><title>PREPROGIP</title><g id="PREPROGIP"><rect class="cls-1" x="1.269" y="1.347" width="83" height="20" rx="10" ry="10"/><path class="cls-2" d="M130.335,113.491c-7.866-.009-15.731.43-23.6.837-7.866.458-15.731.547-23.6.613-3.933,0-7.866.019-11.8-.037l-2.95-.038a16.537,16.537,0,0,1-3.219-.249,11.57,11.57,0,0,1-5.852-3.173,12.513,12.513,0,0,1-1.983-2.694,11.861,11.861,0,0,1-1.1-3.153,12.243,12.243,0,0,1-.108-3.319,11.811,11.811,0,0,1,.861-3.188,10.965,10.965,0,0,1,10.342-6.57c7.866.261,15.731.449,23.6.335,3.933-.049,7.866-.194,11.8-.349l11.8-.413c3.933-.085,7.866-.131,11.8-.07l2.95.039a16.383,16.383,0,0,1,3.163.3,10.82,10.82,0,0,1,5.578,3.215,11.981,11.981,0,0,1,1.811,2.634,11.619,11.619,0,0,1,.948,3.013,10.868,10.868,0,0,1-.844,6.066A10.618,10.618,0,0,1,130.335,113.491Zm0-.3a10.822,10.822,0,0,0,2.857-.451,10.112,10.112,0,0,0,2.589-1.27,10.9,10.9,0,0,0,2.069-1.989,9.642,9.642,0,0,0,1.372-2.49,10.063,10.063,0,0,0,.559-2.753,10.374,10.374,0,0,0-.291-2.756,10.5,10.5,0,0,0-1.068-2.51,10.253,10.253,0,0,0-1.728-2.061,9.43,9.43,0,0,0-4.7-2.216,14.185,14.185,0,0,0-2.713-.073l-2.95.039c-3.933.061-7.866.015-11.8-.071l-11.8-.413c-3.933-.155-7.866-.3-11.8-.349-7.866-.114-15.731.074-23.6.335a10.109,10.109,0,0,0-2.637.5,9.954,9.954,0,0,0-2.352,1.232A9.45,9.45,0,0,0,59.192,100a8.77,8.77,0,0,0,2.114,9.438,8.669,8.669,0,0,0,4.43,2.258,13.654,13.654,0,0,0,2.657.119l2.95-.038c3.933-.056,7.866-.036,11.8-.037,7.866.066,15.731.155,23.6.613C114.6,112.761,122.47,113.2,130.335,113.191Z" transform="translate(-56.066 -91.994)"/><text class="cls-3" transform="translate(7.203 14.169)">PREPROGI<tspan class="cls-4" x="63.346" y="0">P</tspan></text></g></svg>