<svg id="Layer_1" data-name="Layer 1" xmlns="http://www.w3.org/2000/svg" xmlns:xlink="http://www.w3.org/1999/xlink" viewBox="0 0 23.908 157.137"><defs><style>.cls-1{fill:url(#linear-gradient);}.cls-2{fill:url(#linear-gradient-2);}.cls-3{mask:url(#mask);}.cls-4{fill:url(#linear-gradient-3);}.cls-5{fill:url(#linear-gradient-4);}.cls-6{fill:url(#linear-gradient-5);}</style><linearGradient id="linear-gradient" x1="98.649" y1="47.779" x2="98.649" y2="29.496" gradientUnits="userSpaceOnUse"><stop offset="0"/><stop offset="0.383" stop-color="#fff"/><stop offset="1"/></linearGradient><linearGradient id="linear-gradient-2" x1="95.662" y1="107.357" x2="101.853" y2="107.357" gradientUnits="userSpaceOnUse"><stop offset="0" stop-color="#22002a"/><stop offset="0.383" stop-color="#0fb0ad"/><stop offset="1" stop-color="#22002a"/></linearGradient><mask id="mask" x="0" y="0" width="23.908" height="19.695" maskUnits="userSpaceOnUse"><g transform="translate(-86.695 -28.788)"><path class="cls-1" d="M95.66,46.754a2.97,2.97,0,0,0-1.85-2.7,11.684,11.684,0,0,1-7.116-10.7c0-12.679,3.215,5.108,11.954,5.108S110.6,20.669,110.6,33.377a11.667,11.667,0,0,1-7.115,10.676,2.971,2.971,0,0,0-1.85,2.7v1.729H95.66Z"/></g></mask><linearGradient id="linear-gradient-3" x1="87.512" y1="38.538" x2="109.708" y2="38.688" xlink:href="#linear-gradient-2"/><linearGradient id="linear-gradient-4" x1="11.954" y1="31.528" x2="11.954" y2="22.762" gradientUnits="userSpaceOnUse"><stop offset="0" stop-color="#22002a"/><stop offset="0.999" stop-color="#0fb0ad"/></linearGradient><linearGradient id="linear-gradient-5" x1="11.954" y1="43.244" x2="11.954" y2="34.478" xlink:href="#linear-gradient-4"/></defs><title>EFHB</title><g id="EPHB"><path class="cls-2" d="M110.6,33.377c0-12.708-3.215,5.08-11.954,5.08S86.695,20.669,86.695,33.348a11.684,11.684,0,0,0,7.116,10.7,2.97,2.97,0,0,1,1.85,2.7V182.878a3.03,3.03,0,0,0,2.7,3.034A2.964,2.964,0,0,0,101.637,183V46.754a2.971,2.971,0,0,1,1.85-2.7A11.667,11.667,0,0,0,110.6,33.377Z" transform="translate(-86.695 -28.788)"/><g class="cls-3"><path class="cls-4" d="M95.66,46.754a2.97,2.97,0,0,0-1.85-2.7,11.684,11.684,0,0,1-7.116-10.7c0-12.679,3.215,5.108,11.954,5.108S110.6,20.669,110.6,33.377a11.667,11.667,0,0,1-7.115,10.676,2.971,2.971,0,0,0-1.85,2.7v1.729H95.66Z" transform="translate(-86.695 -28.788)"/></g><rect class="cls-5" x="2.989" y="22.762" width="17.931" height="8.766" rx="3.094" ry="3.094"/><rect class="cls-6" x="2.989" y="34.478" width="17.931" height="8.766" rx="3.094" ry="3.094"/></g></svg>