<svg id="Layer_1" data-name="Layer 1" xmlns="http://www.w3.org/2000/svg" xmlns:xlink="http://www.w3.org/1999/xlink" viewBox="0 0 50.763 53.871"><defs><style>.cls-1{fill:url(#linear-gradient);}.cls-2{fill:url(#linear-gradient-2);}.cls-3{fill:url(#linear-gradient-3);}.cls-4{fill:url(#linear-gradient-4);}.cls-5{fill:url(#linear-gradient-5);}.cls-6{fill:url(#linear-gradient-6);}.cls-7{fill:url(#linear-gradient-7);}.cls-8{fill:url(#linear-gradient-8);}</style><linearGradient id="linear-gradient" x1="-800.22" y1="73.065" x2="-800.22" y2="79.62" gradientTransform="matrix(-1, 0, 0, 1, -681.98, 0)" gradientUnits="userSpaceOnUse"><stop offset="0" stop-color="#5b9a53"/><stop offset="0.434" stop-color="#5a9852"/><stop offset="0.59" stop-color="#559150"/><stop offset="0.701" stop-color="#4d864b"/><stop offset="0.791" stop-color="#417544"/><stop offset="0.868" stop-color="#325f3c"/><stop offset="0.935" stop-color="#204431"/><stop offset="0.996" stop-color="#0a2525"/><stop offset="1" stop-color="#082224"/></linearGradient><linearGradient id="linear-gradient-2" x1="-795.219" y1="73.065" x2="-795.219" y2="79.62" xlink:href="#linear-gradient"/><linearGradient id="linear-gradient-3" x1="-1037.834" y1="377.581" x2="-1037.834" y2="394.409" gradientTransform="matrix(-0.707, -0.707, -0.533, 0.533, -442.945, -820.186)" xlink:href="#linear-gradient"/><linearGradient id="linear-gradient-4" x1="-1031.833" y1="377.581" x2="-1031.833" y2="394.409" gradientTransform="matrix(-0.707, -0.707, -0.533, 0.533, -442.945, -820.186)" xlink:href="#linear-gradient"/><linearGradient id="linear-gradient-5" x1="864.276" y1="626.165" x2="868.111" y2="648.773" gradientTransform="matrix(0.554, 0.401, 1.207, -1.667, -1147.001, 803.781)" gradientUnits="userSpaceOnUse"><stop offset="0" stop-color="#110f23"/><stop offset="0.094" stop-color="#343090"/><stop offset="0.117" stop-color="#3b3793"/><stop offset="0.15" stop-color="#4d499c"/><stop offset="0.189" stop-color="#6b68aa"/><stop offset="0.231" stop-color="#9592bd"/><stop offset="0.273" stop-color="#c4c1d3"/><stop offset="0.31" stop-color="#c1bed2"/><stop offset="0.335" stop-color="#b8b5ce"/><stop offset="0.357" stop-color="#a9a6c6"/><stop offset="0.377" stop-color="#9490bc"/><stop offset="0.396" stop-color="#7874b0"/><stop offset="0.413" stop-color="#5652a0"/><stop offset="0.428" stop-color="#343090"/><stop offset="0.506" stop-color="#2d2979"/><stop offset="0.652" stop-color="#211e54"/><stop offset="0.787" stop-color="#181639"/><stop offset="0.908" stop-color="#131129"/><stop offset="1" stop-color="#110f23"/></linearGradient><linearGradient id="linear-gradient-6" x1="1557.982" y1="114.796" x2="1547.905" y2="114.045" gradientTransform="translate(1104.472 -1069.523) rotate(126.862)" xlink:href="#linear-gradient-5"/><linearGradient id="linear-gradient-7" x1="1206.78" y1="-568.708" x2="1222.495" y2="-565.905" gradientTransform="matrix(0.707, 0.707, 0.707, -0.707, -377.48, -1139.08)" xlink:href="#linear-gradient-5"/><linearGradient id="linear-gradient-8" x1="1223.265" y1="-558.629" x2="1206.211" y2="-559.901" gradientTransform="matrix(0.707, 0.707, 0.707, -0.707, -377.48, -1139.08)" xlink:href="#linear-gradient-5"/></defs><title>U7snRNA</title><g id="U7snRNA"><path class="cls-1" d="M116.978,73.239c0-.1.243-.174.544-.174h1.434c.3,0,.544.078.544.174v2.343h0v3.8c0,.129-.243.234-.544.234h-1.434c-.3,0-.544-.1-.544-.234V76.2h0Z" transform="translate(-74.619 -73.065)"/><path class="cls-2" d="M111.978,73.239c0-.1.243-.174.544-.174h1.434c.3,0,.544.078.544.174v2.342h0v3.8c0,.129-.243.234-.544.234h-1.434c-.3,0-.544-.1-.544-.234V76.2h0Z" transform="translate(-74.619 -73.065)"/><path class="cls-3" d="M88.705,114.1c.131-.131.41-.066.622.146l1.014,1.014c.212.212.278.491.146.622l-3.2,3.2h0l-5.2,5.2a.5.5,0,0,1-.7-.064l-1.014-1.014a.5.5,0,0,1-.064-.7l4.36-4.36h0Z" transform="translate(-74.619 -73.065)"/><path class="cls-4" d="M80.419,113.9l4.043-4.043c.131-.131.41-.066.622.146l1.014,1.014c.212.212.278.491.146.622l-3.2,3.2h0l-5.2,5.2a.5.5,0,0,1-.7-.064l-1.014-1.014a.5.5,0,0,1-.064-.7l4.36-4.36Z" transform="translate(-74.619 -73.065)"/><path class="cls-5" d="M125.381,80.254c-23.541-2.527-41,12.389-44.234,20.958l.813-2.392c3.088-9.51,12-22.271,39.315-19.557Z" transform="translate(-74.619 -73.065)"/><path class="cls-6" d="M81.53,108.715c-2.851-.6-1.741-4.3-.383-7.5l.813-2.392c-3.848,5.643-5.909,10.038-.308,9.912Z" transform="translate(-74.619 -73.065)"/><path class="cls-7" d="M90.011,122.274c-7.871,7.871-15.392-6.647-15.392-6.647l.018.123s3.121,18.777,14.223,7.676Z" transform="translate(-74.619 -73.065)"/><path class="cls-8" d="M88.177,124.107c7.871-7.871-6.647-15.392-6.647-15.392l.123.018s18.777,3.121,7.676,14.223Z" transform="translate(-74.619 -73.065)"/></g></svg>