<svg id="Layer_1" data-name="Layer 1" xmlns="http://www.w3.org/2000/svg" xmlns:xlink="http://www.w3.org/1999/xlink" viewBox="0 0 46.927 32.261"><defs><style>.cls-1{fill:url(#linear-gradient);}.cls-2{fill:#244117;}.cls-3{isolation:isolate;font-size:12px;fill:#fff;font-family:Arial-BoldMT, Arial;font-weight:700;}</style><linearGradient id="linear-gradient" x1="23.584" y1="30.834" x2="23.584" y2="0.834" gradientUnits="userSpaceOnUse"><stop offset="0" stop-color="#a4ef84"/><stop offset="0.999" stop-color="#244117"/></linearGradient></defs><title>pro_ISG15</title><g id="pro-_ISG15" data-name="pro- ISG15"><rect class="cls-1" x="1.584" y="0.834" width="44" height="30" rx="10" ry="10"/><path class="cls-2" d="M112.3,115.482c-5.449-.009-10.9.43-16.347.837-1.362.1-2.724.214-4.087.276l-2.043.111-1.022.035-.512.017-.584-.011a11.357,11.357,0,0,1-8.259-3.947,11.218,11.218,0,0,1-2.249-4.134,12.341,12.341,0,0,1-.441-2.327c-.02-.384-.044-.813-.039-1.159l.017-1.022.149-8.173a15.207,15.207,0,0,1,.164-2.229,10.065,10.065,0,0,1,.6-2.238A10.926,10.926,0,0,1,88.3,84.51c5.449.282,10.9.437,16.347.335l4.087-.129c1.381-.056,2.682-.156,4.129-.185a10.808,10.808,0,0,1,8.023,3.558,10.5,10.5,0,0,1,2.265,3.984,12.087,12.087,0,0,1,.447,2.272c.022.377.047.792.044,1.138l-.013,1.022c-.043,2.724-.195,5.449-.374,8.173a14.387,14.387,0,0,1-.264,2.15,9.867,9.867,0,0,1-.671,2.089,11.094,11.094,0,0,1-2.457,3.5A10.977,10.977,0,0,1,112.3,115.482Zm0-.3a9.127,9.127,0,0,0,8.784-6.709,8.25,8.25,0,0,0,.308-1.868,14.043,14.043,0,0,0-.048-1.926c-.18-2.724-.331-5.449-.374-8.173l-.013-1.022-.044-.9a9.422,9.422,0,0,0-.319-1.734,9.364,9.364,0,0,0-7.817-6.661c-2.637-.214-5.425-.3-8.13-.367-5.449-.1-10.9.053-16.347.335a9.186,9.186,0,0,0-8.153,6.266,8.09,8.09,0,0,0-.377,1.719,12.325,12.325,0,0,0-.052,1.847l.149,8.173.017,1.022.049.882a9.17,9.17,0,0,0,.325,1.679,8.474,8.474,0,0,0,1.631,2.994,8.7,8.7,0,0,0,5.966,3.128l.436.041.509.018,1.022.035,2.043.111c1.362.063,2.724.18,4.087.276C101.407,114.752,106.856,115.191,112.3,115.182Z" transform="translate(-76.721 -84.498)"/><text class="cls-3" transform="translate(12.239 11.48)">pro-<tspan x="-5.347" y="14.4">ISG15</tspan></text></g></svg>