<svg id="Layer_1" data-name="Layer 1" xmlns="http://www.w3.org/2000/svg" xmlns:xlink="http://www.w3.org/1999/xlink" viewBox="0 0 134.841 32.949"><defs><style>.cls-1{fill:url(#linear-gradient);}.cls-2{fill:#0052af;}.cls-3{font-size:12px;fill:#fff;font-family:Arial-BoldMT, Arial;font-weight:700;}.cls-4{letter-spacing:-0.02em;}</style><linearGradient id="linear-gradient" x1="67.774" y1="31.347" x2="67.774" y2="1.347" gradientUnits="userSpaceOnUse"><stop offset="0" stop-color="#06a2b2"/><stop offset="1" stop-color="#00baff"/></linearGradient></defs><title>R-ICO-013631</title><g id="IMMUNE_RESPONSE_PROTEIN" data-name="IMMUNE RESPONSE PROTEIN"><rect class="cls-1" x="1.274" y="1.347" width="133" height="30" rx="10" ry="10"/><path class="cls-2" d="M156.5,115.15c-12.866-.011-25.731.447-38.6.837-12.866.458-25.731.546-38.6.613-6.433,0-12.866.019-19.3-.037l-9.649-.076-4.825-.038c-.828-.015-1.555.008-2.466-.039a10.958,10.958,0,0,1-2.713-.451,11.4,11.4,0,0,1-7.572-7.339c-.159-.427-.235-.88-.351-1.319-.064-.45-.149-.9-.174-1.352-.056-.952-.021-1.708-.014-2.52L32.31,98.6l.033-2.412.017-1.208c.035-.446.035-.9.107-1.338a11.1,11.1,0,0,1,1.979-4.909,11.23,11.23,0,0,1,3.987-3.4A11.092,11.092,0,0,1,43.5,84.179c12.866.261,25.731.449,38.6.335,6.433-.049,12.866-.194,19.3-.349l19.3-.413c6.433-.085,12.866-.131,19.3-.071q4.825.022,9.649.128l4.825.108c.821.032,1.57.027,2.45.09a10.513,10.513,0,0,1,2.6.484,10.893,10.893,0,0,1,7.077,7.1,13.518,13.518,0,0,1,.436,4.978l-.135,4.825-.068,2.412a21.039,21.039,0,0,1-.126,2.443,10.3,10.3,0,0,1-1.816,4.544,10.666,10.666,0,0,1-3.665,3.2A10.383,10.383,0,0,1,156.5,115.15Zm0-.3a10.06,10.06,0,0,0,4.556-1.156,9.63,9.63,0,0,0,5.081-7.512,18.345,18.345,0,0,0,.038-2.374l-.068-2.412-.135-4.825a12.334,12.334,0,0,0-.636-4.552,9.268,9.268,0,0,0-6.345-5.718,8.56,8.56,0,0,0-2.153-.271c-.727-.014-1.587.037-2.374.052l-4.825.108q-4.825.108-9.649.128c-6.433.061-12.866.015-19.3-.071l-19.3-.413c-6.433-.155-12.866-.3-19.3-.349-12.866-.114-25.731.074-38.6.335a9.1,9.1,0,0,0-7.373,4.085,9.009,9.009,0,0,0-1.43,4.015c-.05.353-.033.712-.057,1.067l.016,1.2L34.69,98.6l.067,4.825a11.65,11.65,0,0,0,.532,4.339,8.769,8.769,0,0,0,5.849,5.479,8.12,8.12,0,0,0,2.038.3c.695.03,1.578,0,2.358,0l4.825-.038,9.649-.076c6.433-.056,12.866-.036,19.3-.037,12.866.066,25.731.155,38.6.613C130.769,114.4,143.634,114.861,156.5,114.85Z" transform="translate(-32.226 -83.653)"/><text class="cls-3" transform="translate(7.841 11.832)">IMMUNE RESPONSE<tspan x="32.792" y="14.4">PROTEI</tspan><tspan class="cls-4" x="77.464" y="14.4">N</tspan></text></g></svg>