<svg id="Layer_1" data-name="Layer 1" xmlns="http://www.w3.org/2000/svg" viewBox="0 0 68.252 73.341"><defs><style>.cls-1{fill:#bbbadc;stroke:#c263b9;stroke-linecap:round;stroke-linejoin:round;stroke-width:2px;}</style></defs><title>recycling_endosome</title><path id="RECYCLING_ENDOSOME" class="cls-1" d="M85.937,123.576c-5.842,15.276-25.074,8.977-15.713-6.046,7.325-11.756,8.744-4.721,14.518-11.349s-9.9-8.826-14.715-13.956,5.565-22.9,12.642-14.265,17.278,15.626,17.527,7.292-1.684-25.38,14.427-17.122c15.265,7.824-7.464,16.76-2.27,24.873s27.31,3.02,20.2,19.222c-5.992,13.66-17.059-13.341-24.947-4.355s11.259,24.783-1.67,28.773-5.634-12.152-6.869-18.164S91.779,108.3,85.937,123.576Z" transform="translate(-66.696 -64.93)"/></svg>