<svg id="Layer_1" data-name="Layer 1" xmlns="http://www.w3.org/2000/svg" viewBox="0 0 22.945 168.275"><defs><style>.cls-1{fill:none;stroke:#511f4f;stroke-miterlimit:10;stroke-width:2px;}.cls-2{fill:#511f4f;}.cls-3{fill:#52c4d4;}.cls-4{font-size:12px;fill:#fff;font-family:Arial-BoldMT, Arial;font-weight:700;}</style></defs><title>scavenger_receptor_class_F</title><g id="CLASS_F" data-name="CLASS F"><line class="cls-1" x1="11.342" y1="81.388" x2="11.342" y2="168.275"/><rect id="BOTTOM" class="cls-2" x="41.948" y="62.176" width="112" height="20" rx="10" ry="10" transform="translate(-60.834 154.336) rotate(-90)"/><rect id="EGF" class="cls-3" x="83.947" y="104.176" width="28" height="20" rx="10" ry="10" transform="translate(-102.834 196.336) rotate(-90)"/><text class="cls-4" transform="translate(15.557 110.722) rotate(-90)">EGF</text><rect id="EGF-2" data-name="EGF" class="cls-3" x="83.947" y="76.176" width="28" height="20" rx="10" ry="10" transform="translate(-74.834 168.336) rotate(-90)"/><text class="cls-4" transform="translate(15.557 82.722) rotate(-90)">EGF</text><rect id="EGF-3" data-name="EGF" class="cls-3" x="83.947" y="48.176" width="28" height="20" rx="10" ry="10" transform="translate(-46.834 140.336) rotate(-90)"/><text class="cls-4" transform="translate(15.557 54.722) rotate(-90)">EGF</text><rect id="EGF-4" data-name="EGF" class="cls-3" x="83.947" y="20.176" width="28" height="20" rx="10" ry="10" transform="translate(-18.834 112.336) rotate(-90)"/><text class="cls-4" transform="translate(15.557 26.722) rotate(-90)">EGF</text><g id="TOP"><path class="cls-2" d="M108.1,26.176c-.009,10.282.43,20.565.837,30.847.458,10.282.546,20.565.613,30.847,0,5.141.019,10.282-.037,15.423l-.076,7.712-.038,3.856-.019,1.928c-.015.665.01,1.228-.049,2a11.26,11.26,0,0,1-11.684,10.559,10.985,10.985,0,0,1-10.519-11.176c.261-10.282.449-20.565.335-30.847-.049-5.141-.194-10.282-.349-15.423L86.7,56.482c-.169-10.3-.138-20.515.336-30.9a10.754,10.754,0,0,1,3.7-7.227,10.632,10.632,0,0,1,7.488-2.553,10.424,10.424,0,0,1,7.02,3.265A10.271,10.271,0,0,1,108.1,26.176Zm-.3,0a9.763,9.763,0,0,0-2.844-6.819,9.493,9.493,0,0,0-6.747-2.782,9.319,9.319,0,0,0-6.577,2.749,9.2,9.2,0,0,0-2.715,6.363c.364,10.179.474,20.536.281,30.8l-.413,15.423c-.155,5.141-.3,10.282-.349,15.423-.114,10.282.074,20.565.335,30.847a9.065,9.065,0,0,0,8.941,8.8,8.776,8.776,0,0,0,8.8-8.333c.038-.507.005-1.231.006-1.851l-.019-1.928-.038-3.856-.076-7.712c-.056-5.141-.036-10.282-.037-15.423.066-10.282.155-20.565.613-30.847C107.368,46.741,107.807,36.458,107.8,26.176Z" transform="translate(-86.606 -15.787)"/></g></g></svg>