<svg id="Layer_1" data-name="Layer 1" xmlns="http://www.w3.org/2000/svg" xmlns:xlink="http://www.w3.org/1999/xlink" viewBox="0 0 83.462 69.393"><defs><style>.cls-1{fill:#222e6b;}.cls-2{fill:none;stroke:#3651d9;stroke-linecap:round;stroke-miterlimit:1;}.cls-3{fill:url(#radial-gradient);}</style><radialGradient id="radial-gradient" cx="1653.481" cy="71.432" r="10.604" gradientTransform="translate(-1513.431)" gradientUnits="userSpaceOnUse"><stop offset="0" stop-color="#4c63d9"/><stop offset="0.014" stop-color="#4b61d6"/><stop offset="0.189" stop-color="#3c4faf"/><stop offset="0.362" stop-color="#314192"/><stop offset="0.532" stop-color="#29367c"/><stop offset="0.698" stop-color="#24306f"/><stop offset="0.852" stop-color="#222e6b"/></radialGradient></defs><title>SCAP</title><g id="SCAP"><path class="cls-1" d="M136.378,134.932c-5.528,0-7-5.316-7-8.128V92.978c0-.414-.124-4.13-2.994-4.13s-2.97,3.709-2.973,4.132V126.8c0,2.812-1.462,8.13-7,8.13s-7-5.318-7-8.13V92.978c0-.414-.124-4.13-2.994-4.13s-2.987,3.715-2.991,4.139V126.8c0,2.813-1.469,8.13-7,8.13s-6.995-5.318-6.995-8.13V92.978c0-.414-.124-4.13-2.995-4.13a2.479,2.479,0,0,0-2.516,1.819,7.212,7.212,0,0,0-.476,2.31V126.8c0,2.812-1.462,8.13-7,8.13a6.438,6.438,0,0,1-6.224-4.311,11.036,11.036,0,0,1-.771-3.82V92.978c0-.414-.125-4.13-3-4.13a2,2,0,1,1,0-4c5.534,0,7,5.318,7,8.13V126.8c0,.415.123,4.13,3,4.13s2.993-3.716,3-4.14V92.978a11.028,11.028,0,0,1,.771-3.819,6.434,6.434,0,0,1,6.221-4.311c5.533,0,6.995,5.318,6.995,8.13V126.8c0,.414.124,4.13,2.995,4.13,2.962,0,3-3.963,3-4.132V92.978a11.039,11.039,0,0,1,.771-3.819,6.434,6.434,0,0,1,6.22-4.311c5.532,0,6.994,5.318,6.994,8.13V126.8c0,.414.124,4.13,3,4.13,2.961,0,3-3.961,3-4.13V92.978a9.6,9.6,0,0,1,2.357-6.3,6.35,6.35,0,0,1,4.615-1.832c5.532,0,6.994,5.318,6.994,8.13V126.8c0,.412.129,4.13,3,4.13,2.957,0,2.991-3.961,2.991-4.13l.006-52.96a2,2,0,0,1,2-2h0a2,2,0,0,1,2,2l-.006,52.96C143.37,129.614,141.909,134.932,136.378,134.932Z" transform="translate(-64.47 -65.539)"/><path class="cls-2" d="M66.124,86.357c5,0,5,6.13,5,6.13v33.825s0,6.13,4.995,6.13,5-6.13,5-6.13V92.487s0-6.13,4.991-6.13,4.995,6.13,4.995,6.13v33.825s0,6.13,4.995,6.13,5-6.13,5-6.13V92.487s0-6.13,4.991-6.13,4.993,6.131,4.993,6.131v33.824s0,6.13,4.995,6.13,4.995-6.13,4.995-6.13V92.487s-.022-6.13,4.973-6.13,4.995,6.131,4.995,6.131v33.824s.006,6.13,5,6.13,4.992-6.13,4.992-6.13.005-51.96.005-52.96" transform="translate(-64.47 -65.539)"/><path class="cls-3" d="M141.375,82.146a6.557,6.557,0,0,1-6.557-6.557V72.1a6.557,6.557,0,0,1,13.114,0v3.493A6.557,6.557,0,0,1,141.375,82.146Z" transform="translate(-64.47 -65.539)"/></g></svg>