<svg id="Layer_1" data-name="Layer 1" xmlns="http://www.w3.org/2000/svg" xmlns:xlink="http://www.w3.org/1999/xlink" viewBox="0 0 56.318 22.892"><defs><style>.cls-1{fill:url(#linear-gradient);}.cls-2{fill:#c98500;}.cls-3{font-size:12px;fill:#fff;font-family:Arial-BoldMT, Arial;font-weight:700;}</style><linearGradient id="linear-gradient" x1="28.397" y1="1.282" x2="28.397" y2="21.282" gradientUnits="userSpaceOnUse"><stop offset="0" stop-color="#c98500"/><stop offset="0.235" stop-color="#9e841f"/><stop offset="0.763" stop-color="#32826b"/><stop offset="1" stop-color="#00818f"/></linearGradient></defs><title>R-ICO-013806</title><g id="R-ICO-013806"><rect class="cls-1" x="1.397" y="1.282" width="54" height="20" rx="10"/><path class="cls-2" d="M117,110.15c-5.449-.009-10.9.43-16.347.837-5.449.458-10.9.547-16.347.613a14.42,14.42,0,0,1-4.491-.457,11.145,11.145,0,0,1-4.148-2.213,11.444,11.444,0,0,1-4.049-8.185,11.1,11.1,0,0,1,3.222-8.389A10.849,10.849,0,0,1,83,89.179c5.449.281,10.9.436,16.347.335,5.449-.085,10.9-.574,16.347-.763a13.287,13.287,0,0,1,4.419.359,10.772,10.772,0,0,1,4.069,2.143,10.63,10.63,0,0,1,3.738,8.032,10.794,10.794,0,0,1-3.357,7.8A10.978,10.978,0,0,1,117,110.15Zm0-.3a9.124,9.124,0,0,0,9.013-10.44,9.5,9.5,0,0,0-6.639-7.732,13.029,13.029,0,0,0-3.68-.429c-5.449-.189-10.9-.678-16.347-.763-5.449-.1-10.9.054-16.347.335A9.1,9.1,0,0,0,76.6,94a8.859,8.859,0,0,0-2.148,6.558,8.62,8.62,0,0,0,3.211,5.95,8.993,8.993,0,0,0,3.039,1.559,12.062,12.062,0,0,0,3.608.331c5.449.066,10.9.155,16.347.613C106.1,109.42,111.551,109.859,117,109.85Z" transform="translate(-71.603 -88.718)"/><text id="EIF2AK4" class="cls-3" transform="translate(3.723 14.595)">EIF2AK4</text></g></svg>