<svg id="Layer_1" data-name="Layer 1" xmlns="http://www.w3.org/2000/svg" xmlns:xlink="http://www.w3.org/1999/xlink" viewBox="0 0 59.257 22.924"><defs><style>.cls-1{fill:url(#linear-gradient);}.cls-2{fill:#d79400;}.cls-3{font-size:12px;fill:#fff;font-family:Arial-BoldMT, Arial;font-weight:700;}.cls-4{letter-spacing:-0.018em;}</style><linearGradient id="linear-gradient" x1="29.884" y1="21.317" x2="29.884" y2="1.317" gradientUnits="userSpaceOnUse"><stop offset="0" stop-color="#ff7e00"/><stop offset="1" stop-color="#d79400"/></linearGradient></defs><title>R-ICO-013766</title><g id="R-ICO-013766"><rect class="cls-1" x="1.384" y="1.317" width="57" height="20" rx="10"/><path class="cls-2" d="M118.5,110.15c-5.7-.009-11.4.43-17.1.837-5.7.458-11.4.547-17.1.613-.712.015-1.425,0-2.137,0a14.67,14.67,0,0,1-2.365-.142,11.171,11.171,0,0,1-4.586-1.768,11.448,11.448,0,0,1-5.012-8.1,11.059,11.059,0,0,1,2.851-8.93A10.934,10.934,0,0,1,81.5,89.179c5.7.281,11.4.436,17.1.335,5.7-.085,11.4-.574,17.1-.763a29.344,29.344,0,0,1,4.464.048,10.64,10.64,0,0,1,6.167,18A10.985,10.985,0,0,1,118.5,110.15Zm0-.3a9.2,9.2,0,0,0,7.244-3.559,9.078,9.078,0,0,0,1.7-7.554,9.417,9.417,0,0,0-4.243-6,9.31,9.31,0,0,0-3.435-1.293c-1.139-.162-2.666-.139-4.072-.192-5.7-.189-11.4-.678-17.1-.763-5.7-.1-11.4.054-17.1.335a9.156,9.156,0,0,0-6.626,3.426,8.771,8.771,0,0,0-1.86,6.951,8.6,8.6,0,0,0,3.915,5.869,8.886,8.886,0,0,0,3.344,1.231,39.2,39.2,0,0,0,4.033.1c5.7.066,11.4.155,17.1.613C107.1,109.42,112.8,109.859,118.5,109.85Z" transform="translate(-70.116 -88.683)"/><text class="cls-3" transform="translate(4.322 14.63)">m<tspan class="cls-4" x="10.67" y="0">T</tspan><tspan x="17.783" y="0">ORC1</tspan></text></g></svg>