<svg id="Layer_1" data-name="Layer 1" xmlns="http://www.w3.org/2000/svg" xmlns:xlink="http://www.w3.org/1999/xlink" viewBox="0 0 39.644 39.969"><defs><style>.cls-1{fill:url(#linear-gradient);}.cls-2{fill:url(#radial-gradient);}.cls-3{fill:url(#radial-gradient-2);}.cls-4{fill:url(#radial-gradient-3);}.cls-5{fill:url(#radial-gradient-4);}.cls-6{fill:url(#radial-gradient-5);}</style><linearGradient id="linear-gradient" x1="98.081" y1="121.216" x2="98.081" y2="84.258" gradientTransform="matrix(1, 0, 0, -1, 0, 202)" gradientUnits="userSpaceOnUse"><stop offset="0.002" stop-color="#d4c600"/><stop offset="0.072" stop-color="#c9c30d"/><stop offset="1" stop-color="#399eb5"/></linearGradient><radialGradient id="radial-gradient" cx="97.403" cy="97.09" r="4.004" gradientTransform="matrix(1, 0, 0, -1, -78.261, 124.191)" gradientUnits="userSpaceOnUse"><stop offset="0.002" stop-color="#d4c600"/><stop offset="0.071" stop-color="#b6bc06"/><stop offset="0.467" stop-color="#0e8228"/><stop offset="1" stop-color="#002900"/></radialGradient><radialGradient id="radial-gradient-2" cx="113.2" cy="112.907" r="3.688" gradientTransform="matrix(1, 0, 0, -1, -78.261, 124.191)" gradientUnits="userSpaceOnUse"><stop offset="0.002" stop-color="#d47cc7"/><stop offset="1" stop-color="#ad253c"/></radialGradient><radialGradient id="radial-gradient-3" cx="103.263" cy="121.181" r="3.688" xlink:href="#radial-gradient-2"/><radialGradient id="radial-gradient-4" cx="90.571" cy="121.181" r="3.688" xlink:href="#radial-gradient-2"/><radialGradient id="radial-gradient-5" cx="80.932" cy="112.907" r="3.688" xlink:href="#radial-gradient-2"/></defs><title>MBL</title><g id="MBL"><path class="cls-1" d="M114.717,90.637l-1-1.732L99.9,96.882l5.493-15.091-1.879-.684L97.992,96.278,92.471,81.107l-1.879.684,5.446,14.962L82.445,88.9l-1,1.732,15.636,9.028v18.113h2V99.665Zm-16.636,8.45.034.058h-.067Z" transform="translate(-78.261 -77.809)"/><circle class="cls-2" cx="19.82" cy="28.033" r="3.688"/><circle class="cls-3" cx="35.956" cy="11.962" r="3.688"/><circle class="cls-4" cx="26.019" cy="3.688" r="3.688"/><circle class="cls-5" cx="13.327" cy="3.688" r="3.688"/><circle class="cls-6" cx="3.688" cy="11.962" r="3.688"/></g></svg>