<svg id="Layer_1" data-name="Layer 1" xmlns="http://www.w3.org/2000/svg" xmlns:xlink="http://www.w3.org/1999/xlink" viewBox="0 0 64.151 22.938"><defs><style>.cls-1{fill:url(#linear-gradient);}.cls-2{fill:#8f8100;}.cls-3{font-size:12px;fill:#fff;font-family:Arial-BoldMT, Arial;font-weight:700;}</style><linearGradient id="linear-gradient" x1="32.359" y1="21.338" x2="32.359" y2="1.338" gradientUnits="userSpaceOnUse"><stop offset="0" stop-color="#dd4d00"/><stop offset="1" stop-color="#8f8100"/></linearGradient></defs><title>MAP3K14</title><g id="MAP3K14"><rect class="cls-1" x="1.359" y="1.338" width="62" height="20" rx="10" ry="10"/><path class="cls-2" d="M121,110.15c-6.116-.009-12.231.43-18.347.837-6.116.458-12.231.546-18.347.613H79.719c-.383,0-.746.005-1.214-.025a8.345,8.345,0,0,1-1.322-.135,10.99,10.99,0,0,1-2.548-.737,11.5,11.5,0,0,1-6.64-7.708,11.387,11.387,0,0,1-.107-5.172A10.993,10.993,0,0,1,79,89.179c6.116.282,12.231.437,18.347.335,6.116-.084,12.231-.574,18.347-.762,1.529-.033,3.058-.093,4.587-.087.383,0,.749-.011,1.2.017a8.114,8.114,0,0,1,1.294.124,10.611,10.611,0,0,1,2.5.712,10.7,10.7,0,0,1,6.178,12.531A10.916,10.916,0,0,1,121,110.15Zm0-.3a9.266,9.266,0,0,0,7.623-4.025,9.109,9.109,0,0,0,1.093-8.193,9.4,9.4,0,0,0-5.451-5.655,9.231,9.231,0,0,0-1.911-.511,5.682,5.682,0,0,0-.985-.1c-.309-.027-.707-.025-1.089-.026-1.529.006-3.058-.055-4.587-.087-6.116-.188-12.231-.678-18.347-.762-6.116-.1-12.231.053-18.347.335a9.123,9.123,0,0,0-6.973,3.852,9.018,9.018,0,0,0-1.533,3.661,8.861,8.861,0,0,0,.236,3.911,8.647,8.647,0,0,0,5.1,5.557,8.814,8.814,0,0,0,1.859.487,5.461,5.461,0,0,0,.957.094c.295.024.7.019,1.078.018h4.587c6.116.066,12.231.155,18.347.613C108.769,109.42,114.884,109.859,121,109.85Z" transform="translate(-67.641 -88.662)"/><text class="cls-3" transform="translate(4.683 14.16)">MAP3K14</text></g></svg>