<svg id="Layer_1" data-name="Layer 1" xmlns="http://www.w3.org/2000/svg" xmlns:xlink="http://www.w3.org/1999/xlink" viewBox="0 0 48.504 22.668"><defs><style>.cls-1{fill:url(#linear-gradient);}.cls-2{fill:#3b0000;}.cls-3{font-size:12px;fill:#fff;font-family:Arial-BoldMT, Arial;font-weight:700;}</style><linearGradient id="linear-gradient" x1="155.151" y1="109.751" x2="155.151" y2="89.751" gradientTransform="translate(-130.71 -88.635)" gradientUnits="userSpaceOnUse"><stop offset="0" stop-color="#ff00ad"/><stop offset="1" stop-color="#3b0000"/></linearGradient></defs><title>CHEK1</title><g id="CHEK1"><rect class="cls-1" x="1.441" y="1.115" width="46" height="20" rx="10" ry="10"/><path class="cls-2" d="M111.787,110.087c-4.782-.009-9.565.43-14.347.837-2.391.205-4.782.388-7.173.457-1.2.057-2.391.074-3.587.093l-.9.015-1.036-.036a11.872,11.872,0,0,1-2.048-.348,11.329,11.329,0,0,1-8.215-12.7,10.905,10.905,0,0,1,11.3-9.289c4.782.282,9.565.437,14.347.335,2.391-.059,4.782-.178,7.173-.341l3.587-.235.9-.053,1,0a10.281,10.281,0,0,1,1.99.282,10.733,10.733,0,0,1,6.451,4.6,10.4,10.4,0,0,1,1.4,7.7,10.762,10.762,0,0,1-4.028,6.335A11.341,11.341,0,0,1,111.787,110.087Zm0-.3a9,9,0,0,0,8.952-8.637,9.682,9.682,0,0,0-6.626-9.638,10.683,10.683,0,0,0-1.53-.372l-.791-.088-.9-.053-3.587-.235c-2.391-.164-4.782-.282-7.173-.341-4.782-.1-9.565.053-14.347.335a9.193,9.193,0,0,0-8.494,8.028,8.559,8.559,0,0,0,1.463,5.783,8.823,8.823,0,0,0,4.8,3.454,8.707,8.707,0,0,0,1.473.306l.755.055.9.016c1.2.019,2.391.036,3.587.093,2.391.069,4.782.252,7.173.457C102.223,109.357,107,109.8,111.787,109.787Z" transform="translate(-74.346 -88.821)"/><text class="cls-3" transform="translate(4.104 14.429)">CHEK1</text></g></svg>