<svg id="R-ICO-013702" xmlns="http://www.w3.org/2000/svg" xmlns:xlink="http://www.w3.org/1999/xlink" viewBox="0 0 89.769 22.949"><defs><style>.cls-1{fill:url(#linear-gradient);}.cls-2{fill:#c2b64a;}.cls-3{font-size:12px;fill:#fff;font-family:Arial-BoldMT, Arial;font-weight:700;}.cls-4{letter-spacing:-0.055em;}</style><linearGradient id="linear-gradient" x1="45.252" y1="21.347" x2="45.252" y2="1.347" gradientUnits="userSpaceOnUse"><stop offset="0" stop-color="#0f542d"/><stop offset="1" stop-color="#c2b64a"/></linearGradient></defs><title>R-ICO-013702</title><g id="ARHGEF11_12" data-name="ARHGEF11,12"><rect class="cls-1" x="1.252" y="1.347" width="88" height="20" rx="10"/><path class="cls-2" d="M134,110.15c-8.282-.009-16.565.43-24.847.837-8.282.458-16.565.547-24.847.613-4.141,0-8.282.019-12.423-.037-2.093-.033-4.093-.033-6.261-.093A11.248,11.248,0,0,1,55.415,96.405,11,11,0,0,1,66,89.179c8.282.261,16.565.449,24.847.335,4.141-.05,8.282-.194,12.423-.349l12.424-.414c4.141-.085,8.282-.131,12.423-.07,2.088.022,4.1.039,6.251.146a10.615,10.615,0,0,1,6.282,2.511,10.612,10.612,0,0,1,3.172,12A10.605,10.605,0,0,1,134,110.15Zm0-.3a9.72,9.72,0,0,0,5.692-1.9,9.462,9.462,0,0,0,3.4-4.861A9.235,9.235,0,0,0,139.5,92.83a9.1,9.1,0,0,0-5.211-1.623c-.957,0-2.049.052-3.067.073l-3.106.039c-4.141.061-8.282.015-12.423-.07l-12.424-.414c-4.141-.155-8.282-.3-12.423-.349-8.282-.114-16.565.074-24.847.335a9.992,9.992,0,0,0-2.772.541,9.2,9.2,0,0,0-2.442,1.356,8.582,8.582,0,0,0-1.9,2.009,8.45,8.45,0,0,0-1.219,2.448,8.764,8.764,0,0,0,.032,5.338,8.863,8.863,0,0,0,3.086,4.285,8.4,8.4,0,0,0,4.934,1.7c1.972.006,4.114-.042,6.163-.06,4.141-.056,8.282-.036,12.423-.037,8.282.066,16.565.155,24.847.613C117.435,109.42,125.718,109.859,134,109.85Z" transform="translate(-54.748 -88.653)"/><text class="cls-3" transform="translate(5.235 14.235)">ARHGEF<tspan class="cls-4" x="50.666" y="0">1</tspan><tspan x="56.678" y="0">1,12</tspan></text></g></svg>