<svg id="Layer_1" data-name="Layer 1" xmlns="http://www.w3.org/2000/svg" xmlns:xlink="http://www.w3.org/1999/xlink" viewBox="0 0 91.294 98.471"><defs><style>.cls-1{fill:url(#radial-gradient);}.cls-2{fill:url(#radial-gradient-2);}.cls-3{fill:url(#radial-gradient-3);}.cls-4{fill:url(#radial-gradient-4);}.cls-5{fill:url(#radial-gradient-5);}.cls-6{fill:url(#radial-gradient-6);}.cls-7{fill:url(#radial-gradient-7);}.cls-8{fill:url(#radial-gradient-8);}.cls-9{fill:url(#radial-gradient-9);}.cls-10{fill:url(#radial-gradient-10);}.cls-11{fill:url(#radial-gradient-11);}.cls-12{fill:url(#radial-gradient-12);}.cls-13{fill:url(#radial-gradient-13);}.cls-14{fill:url(#radial-gradient-14);}.cls-15{fill:url(#radial-gradient-15);}.cls-16{fill:url(#radial-gradient-16);}</style><radialGradient id="radial-gradient" cx="137.247" cy="745.845" r="66.326" gradientTransform="translate(-37.093 -691.086)" gradientUnits="userSpaceOnUse"><stop offset="0" stop-color="#52c4d4"/><stop offset="0.001" stop-color="#51c2d2"/><stop offset="0.028" stop-color="#44a3b1"/><stop offset="0.055" stop-color="#3a8b97"/><stop offset="0.083" stop-color="#337a84"/><stop offset="0.112" stop-color="#2e6f79"/><stop offset="0.143" stop-color="#2d6c75"/><stop offset="0.215" stop-color="#265b63"/><stop offset="0.297" stop-color="#1f4c52"/><stop offset="0.312" stop-color="#255961"/><stop offset="0.333" stop-color="#2a646c"/><stop offset="0.363" stop-color="#2c6a73"/><stop offset="0.445" stop-color="#2d6c75"/><stop offset="0.601" stop-color="#275e66"/><stop offset="0.816" stop-color="#215158"/><stop offset="1" stop-color="#1f4d53"/></radialGradient><radialGradient id="radial-gradient-2" cx="152.063" cy="747.446" r="66.324" gradientTransform="translate(-37.093 -691.086)" gradientUnits="userSpaceOnUse"><stop offset="0" stop-color="#52c4d4"/><stop offset="0.001" stop-color="#51c2d2"/><stop offset="0.028" stop-color="#44a3b1"/><stop offset="0.055" stop-color="#3a8b97"/><stop offset="0.083" stop-color="#337a84"/><stop offset="0.112" stop-color="#2e6f79"/><stop offset="0.143" stop-color="#2d6c75"/><stop offset="0.202" stop-color="#275d65"/><stop offset="0.277" stop-color="#204e54"/><stop offset="0.297" stop-color="#204e54"/><stop offset="0.31" stop-color="#255961"/><stop offset="0.332" stop-color="#2a646c"/><stop offset="0.362" stop-color="#2c6a73"/><stop offset="0.445" stop-color="#2d6c75"/><stop offset="0.601" stop-color="#275e66"/><stop offset="0.816" stop-color="#215158"/><stop offset="1" stop-color="#1f4d53"/></radialGradient><radialGradient id="radial-gradient-3" cx="-325.956" cy="747.446" r="66.324" gradientTransform="matrix(-1, 0, 0, 1, -238.705, -691.086)" xlink:href="#radial-gradient-2"/><radialGradient id="radial-gradient-4" cx="162.335" cy="749.046" r="66.323" gradientTransform="translate(-37.093 -691.086)" gradientUnits="userSpaceOnUse"><stop offset="0" stop-color="#52c4d4"/><stop offset="0.001" stop-color="#51c2d2"/><stop offset="0.028" stop-color="#44a3b1"/><stop offset="0.055" stop-color="#3a8b97"/><stop offset="0.083" stop-color="#337a84"/><stop offset="0.112" stop-color="#2e6f79"/><stop offset="0.143" stop-color="#2d6c75"/><stop offset="0.202" stop-color="#275d65"/><stop offset="0.277" stop-color="#204e54"/><stop offset="0.297" stop-color="#204f55"/><stop offset="0.309" stop-color="#255961"/><stop offset="0.331" stop-color="#29646c"/><stop offset="0.361" stop-color="#2c6a73"/><stop offset="0.445" stop-color="#2d6c75"/><stop offset="0.601" stop-color="#275e66"/><stop offset="0.816" stop-color="#215158"/><stop offset="1" stop-color="#1f4d53"/></radialGradient><radialGradient id="radial-gradient-5" cx="-315.684" cy="750.56" r="66.323" gradientTransform="matrix(-1, 0, 0, 1, -238.705, -691.086)" xlink:href="#radial-gradient-4"/><radialGradient id="radial-gradient-6" cx="169.578" cy="753.675" r="66.324" gradientTransform="translate(-37.093 -691.086)" gradientUnits="userSpaceOnUse"><stop offset="0" stop-color="#52c4d4"/><stop offset="0.001" stop-color="#51c2d2"/><stop offset="0.028" stop-color="#44a3b1"/><stop offset="0.055" stop-color="#3a8b97"/><stop offset="0.083" stop-color="#337a84"/><stop offset="0.112" stop-color="#2e6f79"/><stop offset="0.143" stop-color="#2d6c75"/><stop offset="0.204" stop-color="#265c64"/><stop offset="0.277" stop-color="#1f4d53"/><stop offset="0.297" stop-color="#215156"/><stop offset="0.309" stop-color="#255a61"/><stop offset="0.33" stop-color="#2a646c"/><stop offset="0.361" stop-color="#2c6a73"/><stop offset="0.445" stop-color="#2d6c75"/><stop offset="0.601" stop-color="#275e66"/><stop offset="0.816" stop-color="#215158"/><stop offset="1" stop-color="#1f4d53"/></radialGradient><radialGradient id="radial-gradient-7" cx="-308.44" cy="755.189" r="66.324" gradientTransform="matrix(-1, 0, 0, 1, -238.705, -691.086)" xlink:href="#radial-gradient-6"/><radialGradient id="radial-gradient-8" cx="172.278" cy="758.304" r="66.326" gradientTransform="translate(-37.093 -691.086)" gradientUnits="userSpaceOnUse"><stop offset="0" stop-color="#52c4d4"/><stop offset="0.001" stop-color="#51c2d2"/><stop offset="0.028" stop-color="#44a3b1"/><stop offset="0.055" stop-color="#3a8b97"/><stop offset="0.083" stop-color="#337a84"/><stop offset="0.112" stop-color="#2e6f79"/><stop offset="0.143" stop-color="#2d6c75"/><stop offset="0.206" stop-color="#265b63"/><stop offset="0.277" stop-color="#1f4c52"/><stop offset="0.317" stop-color="#24575e"/><stop offset="0.39" stop-color="#2b676f"/><stop offset="0.445" stop-color="#2d6c75"/><stop offset="0.601" stop-color="#275e66"/><stop offset="0.816" stop-color="#215158"/><stop offset="1" stop-color="#1f4d53"/></radialGradient><radialGradient id="radial-gradient-9" cx="169.578" cy="764.276" r="66.324" xlink:href="#radial-gradient-6"/><radialGradient id="radial-gradient-10" cx="162.335" cy="768.734" r="66.323" xlink:href="#radial-gradient-4"/><radialGradient id="radial-gradient-11" cx="150.549" cy="773.192" r="66.324" xlink:href="#radial-gradient-2"/><radialGradient id="radial-gradient-12" cx="-304.226" cy="759.818" r="66.326" gradientTransform="matrix(-1, 0, 0, 1, -238.705, -691.086)" xlink:href="#radial-gradient-8"/><radialGradient id="radial-gradient-13" cx="-308.44" cy="765.791" r="66.324" gradientTransform="matrix(-1, 0, 0, 1, -238.705, -691.086)" xlink:href="#radial-gradient-6"/><radialGradient id="radial-gradient-14" cx="-315.684" cy="770.248" r="66.323" gradientTransform="matrix(-1, 0, 0, 1, -238.705, -691.086)" xlink:href="#radial-gradient-4"/><radialGradient id="radial-gradient-15" cx="-327.47" cy="773.192" r="66.324" gradientTransform="matrix(-1, 0, 0, 1, -238.705, -691.086)" xlink:href="#radial-gradient-2"/><radialGradient id="radial-gradient-16" cx="137.247" cy="776.135" r="66.326" xlink:href="#radial-gradient"/></defs><title>MAC</title><g id="MAC"><path class="cls-1" d="M112.681,62.129c0,5.711-4.543,12.054-5.272,22.59-1.1,15.892.687,34.091-6.228,34.091s-5.129-18.2-6.228-34.09c-.729-10.536-5.272-16.881-5.272-22.591a11.5,11.5,0,0,1,23,0Z" transform="translate(-54.706 -50.628)"/><path class="cls-2" d="M127.069,63.643c0,6.563-5.3,12.811-6.029,23.348-1.1,15.892.687,33.334-6.228,33.334s-5.129-18.2-6.228-34.09c-.729-10.536-4.515-16.881-4.515-22.591a11.5,11.5,0,1,1,23,0Z" transform="translate(-54.706 -50.628)"/><path class="cls-3" d="M75.152,63.643c0,6.563,5.3,12.811,6.029,23.348,1.1,15.892-.687,33.334,6.228,33.334s5.129-18.2,6.228-34.09c.729-10.536,4.515-16.881,4.515-22.591a11.5,11.5,0,1,0-23,0Z" transform="translate(-54.706 -50.628)"/><path class="cls-4" d="M136.913,65.158c0,7.416-6.058,13.569-6.787,24.1-1.1,15.892.687,32.576-6.228,32.576s-5.129-18.2-6.228-34.09c-.729-10.536-3.758-16.881-3.758-22.591a11.5,11.5,0,0,1,23,0Z" transform="translate(-54.706 -50.628)"/><path class="cls-5" d="M65.308,66.672c0,7.416,6.058,13.569,6.787,24.1,1.1,15.892-.687,32.576,6.228,32.576s5.129-18.2,6.228-34.09c.729-10.536,3.758-16.881,3.758-22.591a11.5,11.5,0,0,0-23,0Z" transform="translate(-54.706 -50.628)"/><path class="cls-6" d="M143.728,69.7c0,8.269-6.815,14.326-7.544,24.862-1.1,15.892.687,31.819-6.228,31.819s-5.129-18.2-6.228-34.09c-.729-10.536-3-16.881-3-22.591a11.5,11.5,0,1,1,23,0Z" transform="translate(-54.706 -50.628)"/><path class="cls-7" d="M58.492,71.216c0,8.269,6.815,14.326,7.544,24.862,1.1,15.892-.687,31.819,6.228,31.819s5.129-18.2,6.228-34.09c.729-10.536,3-16.881,3-22.591a11.5,11.5,0,1,0-23,0Z" transform="translate(-54.706 -50.628)"/><path class="cls-8" d="M146,74.245c0,9.122-7.572,15.083-8.3,25.619-1.1,15.892.687,31.062-6.228,31.062s-5.129-18.2-6.228-34.09C124.514,86.3,123,79.955,123,74.245a11.5,11.5,0,0,1,23,0Z" transform="translate(-54.706 -50.628)"/><path class="cls-9" d="M143.728,80.3c0,8.269-6.815,14.326-7.544,24.862-1.1,15.892.687,31.819-6.228,31.819s-5.129-18.2-6.228-34.09c-.729-10.536-3-16.881-3-22.591a11.5,11.5,0,1,1,23,0Z" transform="translate(-54.706 -50.628)"/><path class="cls-10" d="M136.913,84.846c0,7.416-6.058,13.569-6.787,24.1-1.1,15.892.687,32.576-6.228,32.576s-5.129-18.2-6.228-34.09c-.729-10.536-3.758-16.881-3.758-22.591a11.5,11.5,0,0,1,23,0Z" transform="translate(-54.706 -50.628)"/><path class="cls-11" d="M125.554,89.389c0,6.563-5.3,12.811-6.029,23.348-1.1,15.892.687,33.334-6.228,33.334s-5.129-18.2-6.228-34.09c-.729-10.536-4.515-16.881-4.515-22.591a11.5,11.5,0,0,1,23,0Z" transform="translate(-54.706 -50.628)"/><path class="cls-12" d="M54.706,75.759c0,9.122,7.572,15.083,8.3,25.619,1.1,15.892-.687,31.062,6.228,31.062s5.129-18.2,6.228-34.09c.729-10.536,2.243-16.881,2.243-22.591a11.5,11.5,0,0,0-23,0Z" transform="translate(-54.706 -50.628)"/><path class="cls-13" d="M58.492,81.817c0,8.269,6.815,14.326,7.544,24.862,1.1,15.892-.687,31.819,6.228,31.819s5.129-18.2,6.228-34.09c.729-10.536,3-16.881,3-22.591a11.5,11.5,0,1,0-23,0Z" transform="translate(-54.706 -50.628)"/><path class="cls-14" d="M65.308,86.36c0,7.416,6.058,13.569,6.787,24.1,1.1,15.892-.687,32.576,6.228,32.576s5.129-18.2,6.228-34.09c.729-10.536,3.758-16.881,3.758-22.591a11.5,11.5,0,1,0-23,0Z" transform="translate(-54.706 -50.628)"/><path class="cls-15" d="M76.666,89.389c0,6.563,5.3,12.811,6.029,23.348,1.1,15.892-.687,33.334,6.228,33.334s5.129-18.2,6.228-34.09c.729-10.536,4.515-16.881,4.515-22.591a11.5,11.5,0,0,0-23,0Z" transform="translate(-54.706 -50.628)"/><path class="cls-16" d="M112.681,92.418c0,5.711-4.543,12.054-5.272,22.59-1.1,15.892.687,34.091-6.228,34.091s-5.129-18.2-6.228-34.09c-.729-10.536-5.272-16.881-5.272-22.591a11.5,11.5,0,0,1,23,0Z" transform="translate(-54.706 -50.628)"/></g></svg>