<svg id="Layer_1" data-name="Layer 1" xmlns="http://www.w3.org/2000/svg" xmlns:xlink="http://www.w3.org/1999/xlink" viewBox="0 0 52.411 22.807"><defs><style>.cls-1{fill:url(#linear-gradient);}.cls-2{fill:#ff57ff;}.cls-3{font-size:12px;fill:#fff;font-family:Arial-BoldMT, Arial;font-weight:700;}</style><linearGradient id="linear-gradient" x1="26.419" y1="21.222" x2="26.419" y2="1.222" gradientUnits="userSpaceOnUse"><stop offset="0" stop-color="#ff926e"/><stop offset="0.319" stop-color="#ff8199"/><stop offset="1" stop-color="#ff57ff"/></linearGradient></defs><title>EHMT2</title><g id="EHMT2"><rect class="cls-1" x="1.419" y="1.222" width="50" height="20" rx="10" ry="10"/><path class="cls-2" d="M113.313,108.348c-5.116-.009-10.231.43-15.347.837-2.558.205-5.116.388-7.674.457-1.279.057-2.558.074-3.837.093l-1.918.031c-.643.008-1.244.035-2.028-.008A11.379,11.379,0,0,1,71.914,97.8a11.056,11.056,0,0,1,3.629-7.649,10.866,10.866,0,0,1,7.771-2.776c5.116.282,10.231.437,15.347.335,2.558-.059,5.116-.178,7.673-.341l3.837-.235,1.918-.1c.643-.026,1.251-.086,2-.048a10.712,10.712,0,0,1,7.62,3.642,10.505,10.505,0,0,1,2.537,7.948,10.8,10.8,0,0,1-3.736,7.076A11.134,11.134,0,0,1,113.313,108.348Zm0-.3a9.061,9.061,0,0,0,9.027-9.537,9.574,9.574,0,0,0-8.421-9.033l-7.586-.453c-2.558-.164-5.116-.282-7.673-.341-5.116-.1-10.231.053-15.347.335a9.15,9.15,0,0,0-6.1,2.865A8.872,8.872,0,0,0,74.748,97.9a8.565,8.565,0,0,0,2.316,5.925,8.651,8.651,0,0,0,5.667,2.741c.492.05,1.171.052,1.807.063l1.918.031c1.279.019,2.558.036,3.837.093,2.558.069,5.116.252,7.674.457C103.082,107.618,108.2,108.057,113.313,108.048Z" transform="translate(-71.895 -86.976)"/><text class="cls-3" transform="translate(6.084 14.044)">EHMT2</text></g></svg>