<svg id="Layer_1" data-name="Layer 1" xmlns="http://www.w3.org/2000/svg" xmlns:xlink="http://www.w3.org/1999/xlink" viewBox="0 0 141.438 22.95"><defs><style>.cls-1{fill:url(#linear-gradient);}.cls-2{fill:#177596;}.cls-3{font-size:12px;fill:#fff;font-family:Arial-BoldMT, Arial;font-weight:700;}.cls-4{letter-spacing:-0.092em;}.cls-5{letter-spacing:-0.074em;}</style><linearGradient id="linear-gradient" x1="71.138" y1="21.342" x2="71.138" y2="1.342" gradientUnits="userSpaceOnUse"><stop offset="0" stop-color="#004d00"/><stop offset="1" stop-color="#177596"/></linearGradient></defs><title>sialyntransferase</title><g id="SIALYLTRANSFERASE"><rect class="cls-1" x="1.138" y="1.342" width="140" height="20" rx="10" ry="10"/><path class="cls-2" d="M156.922,107.661c-12.616-.011-25.231.447-37.847.837-12.616.458-25.231.546-37.847.613-12.616.041-25.231-.085-37.847-.189l-4.731-.038-1.183-.01-.6-.007-.671-.038a11.489,11.489,0,0,1-2.63-.505,11.642,11.642,0,0,1-4.5-2.776,11.376,11.376,0,0,1-2.743-4.485,10.995,10.995,0,0,1,10.6-14.373c12.616.261,25.231.449,37.847.335,6.308-.049,12.616-.194,18.923-.349l18.923-.413c12.616-.182,25.231-.109,37.847.307l4.731.141c.8.035,1.539.018,2.411.1a11.144,11.144,0,0,1,2.473.514A10.944,10.944,0,0,1,164.269,90a10.609,10.609,0,0,1,2.5,4.219,10.393,10.393,0,0,1-1.577,9.245A10.286,10.286,0,0,1,156.922,107.661Zm0-.3a9.831,9.831,0,0,0,7.935-4.142,9.515,9.515,0,0,0,1.166-8.754,9.549,9.549,0,0,0-6.34-5.872,14.081,14.081,0,0,0-4.489-.281l-4.731.141c-12.616.416-25.231.489-37.847.307l-18.923-.413c-6.308-.155-12.616-.3-18.923-.349-12.616-.114-25.231.074-37.847.335a9.132,9.132,0,0,0-7.271,3.95,8.843,8.843,0,0,0,1.171,11.469,9.064,9.064,0,0,0,3.536,2.047,9.329,9.329,0,0,0,2.014.33l.511.023.585,0,1.183-.01,4.731-.038c12.616-.1,25.231-.23,37.847-.189,12.616.066,25.231.155,37.847.613C131.69,106.914,144.306,107.372,156.922,107.361Z" transform="translate(-25.784 -86.169)"/><text class="cls-3" transform="translate(5.797 14.164)">SIA<tspan class="cls-4" x="20.004" y="0">L</tspan><tspan x="26.232" y="0">Y</tspan><tspan class="cls-5" x="34.236" y="0">L</tspan><tspan x="40.676" y="0">TRANSFERASE</tspan></text></g></svg>