<svg id="Layer_1" data-name="Layer 1" xmlns="http://www.w3.org/2000/svg" xmlns:xlink="http://www.w3.org/1999/xlink" viewBox="0 0 54.374 22.869"><defs><style>.cls-1{fill:url(#linear-gradient);}.cls-2{fill:#ff82d5;}.cls-3{font-size:12px;fill:#fff;font-family:Arial-BoldMT, Arial;font-weight:700;}</style><linearGradient id="linear-gradient" x1="98.011" y1="88.67" x2="98.011" y2="108.67" gradientTransform="translate(-70.6 -87.405)" gradientUnits="userSpaceOnUse"><stop offset="0" stop-color="#ff82d5"/><stop offset="1" stop-color="#0043ff"/></linearGradient></defs><title>SHANK</title><g id="SHANK"><rect class="cls-1" x="1.411" y="1.265" width="52" height="20" rx="10" ry="10"/><path class="cls-2" d="M116,110.15c-5.282-.009-10.565.43-15.847.837-5.282.458-10.565.546-15.847.613a11.488,11.488,0,0,1-8.282-3.25,11.37,11.37,0,0,1-3.434-8.175,11.111,11.111,0,0,1,3.438-8.025A10.844,10.844,0,0,1,84,89.179c5.282.282,10.565.437,15.847.335,5.282-.084,10.565-.574,15.847-.762a10.846,10.846,0,0,1,8.117,3.07,10.537,10.537,0,0,1,3.136,8.011,10.832,10.832,0,0,1-3.56,7.443A11.033,11.033,0,0,1,116,110.15Zm0-.3a9.043,9.043,0,0,0,6.84-3.114,9.135,9.135,0,0,0,2.2-6.874,9.545,9.545,0,0,0-9.343-8.613c-5.282-.188-10.565-.678-15.847-.762-5.282-.1-10.565.053-15.847.335a9.106,9.106,0,0,0-6.256,3.018,8.9,8.9,0,0,0-2.318,6.292,8.551,8.551,0,0,0,2.765,5.953,8.68,8.68,0,0,0,6.116,2.316c5.282.066,10.565.155,15.847.613C105.435,109.42,110.718,109.859,116,109.85Z" transform="translate(-72.589 -88.735)"/><text class="cls-3" transform="translate(6.077 14.699)">SHANK</text></g></svg>