<svg id="Layer_1" data-name="Layer 1" xmlns="http://www.w3.org/2000/svg" xmlns:xlink="http://www.w3.org/1999/xlink" viewBox="0 0 70 22.124"><defs><style>.cls-1{fill:url(#linear-gradient);}.cls-2{fill:url(#linear-gradient-2);}.cls-3{opacity:0.9;}.cls-4{fill:url(#radial-gradient);}.cls-5{mask:url(#mask);}.cls-6{fill:url(#radial-gradient-2);}.cls-7{mask:url(#mask-2);}.cls-8{fill:url(#radial-gradient-3);}</style><linearGradient id="linear-gradient" x1="65.295" y1="104.028" x2="78.626" y2="100.444" gradientUnits="userSpaceOnUse"><stop offset="0.433" stop-color="#fff"/><stop offset="0.511" stop-color="#c3c3c3"/><stop offset="0.596" stop-color="#898989"/><stop offset="0.679" stop-color="#585858"/><stop offset="0.757" stop-color="#323232"/><stop offset="0.828" stop-color="#161616"/><stop offset="0.891" stop-color="#060606"/><stop offset="0.939"/></linearGradient><linearGradient id="linear-gradient-2" x1="134.364" y1="104.741" x2="120.216" y2="100.025" gradientUnits="userSpaceOnUse"><stop offset="0.433" stop-color="#fff"/><stop offset="0.912"/></linearGradient><radialGradient id="radial-gradient" cx="99.799" cy="186.418" r="97.595" gradientUnits="userSpaceOnUse"><stop offset="0.804" stop-color="#bfbfff"/><stop offset="0.805" stop-color="#babafd"/><stop offset="0.814" stop-color="#8f8fec"/><stop offset="0.823" stop-color="#6868de"/><stop offset="0.833" stop-color="#4848d1"/><stop offset="0.843" stop-color="#2e2ec7"/><stop offset="0.854" stop-color="#1919c0"/><stop offset="0.867" stop-color="#0b0bba"/><stop offset="0.883" stop-color="#0303b7"/><stop offset="0.909" stop-color="#0000b6"/><stop offset="0.931" stop-color="#0303b7"/><stop offset="0.945" stop-color="#0b0bba"/><stop offset="0.956" stop-color="#1919c0"/><stop offset="0.966" stop-color="#2e2ec7"/><stop offset="0.975" stop-color="#4848d1"/><stop offset="0.984" stop-color="#6868de"/><stop offset="0.992" stop-color="#8f8fec"/><stop offset="0.999" stop-color="#babafd"/><stop offset="1" stop-color="#bfbfff"/></radialGradient><mask id="mask" x="0" y="2.261" width="15.832" height="19.863" maskUnits="userSpaceOnUse"><g transform="translate(-65 -88.938)"><path class="cls-1" d="M80.832,109.64c-1.213.278-2.34.588-3.36.93a9.464,9.464,0,1,1-6.01-17.949A52.612,52.612,0,0,1,76.651,91.2Z"/></g></mask><radialGradient id="radial-gradient-2" cx="74.549" cy="101.604" r="9.487" gradientUnits="userSpaceOnUse"><stop offset="0" stop-color="#0000b6"/><stop offset="0.248" stop-color="#0303b7"/><stop offset="0.398" stop-color="#0b0bba"/><stop offset="0.521" stop-color="#1919c0"/><stop offset="0.63" stop-color="#2e2ec7"/><stop offset="0.73" stop-color="#4848d1"/><stop offset="0.823" stop-color="#6868de"/><stop offset="0.91" stop-color="#8f8fec"/><stop offset="0.991" stop-color="#babafd"/><stop offset="1" stop-color="#bfbfff"/></radialGradient><mask id="mask-2" x="52.422" y="2.223" width="17.578" height="19.9" maskUnits="userSpaceOnUse"><g transform="translate(-65 -88.938)"><path class="cls-2" d="M123.181,91.161a53.11,53.11,0,0,1,5.357,1.459,9.464,9.464,0,1,1-6.009,17.949,40.392,40.392,0,0,0-5.107-1.3Z"/></g></mask><radialGradient id="radial-gradient-3" cx="125.314" cy="101.5" r="9.564" xlink:href="#radial-gradient-2"/></defs><title>R-ICO-013944</title><g id="R-ICO-013944" class="cls-3"><path class="cls-4" d="M74.466,111.062a9.466,9.466,0,0,1-3-18.441c14.669-4.91,42.406-4.911,57.076,0a9.464,9.464,0,1,1-6.009,17.949c-10.949-3.665-34.111-3.666-45.057,0A9.452,9.452,0,0,1,74.466,111.062Z" transform="translate(-65 -88.938)"/><g class="cls-5"><path class="cls-6" d="M80.832,109.64c-1.213.278-2.34.588-3.36.93a9.464,9.464,0,1,1-6.01-17.949A52.612,52.612,0,0,1,76.651,91.2Z" transform="translate(-65 -88.938)"/></g><g class="cls-7"><path class="cls-8" d="M123.181,91.161a53.11,53.11,0,0,1,5.357,1.459,9.464,9.464,0,1,1-6.009,17.949,40.392,40.392,0,0,0-5.107-1.3Z" transform="translate(-65 -88.938)"/></g></g></svg>