<svg id="Layer_1" data-name="Layer 1" xmlns="http://www.w3.org/2000/svg" xmlns:xlink="http://www.w3.org/1999/xlink" viewBox="0 0 55.339 22.875"><defs><style>.cls-1{fill:url(#linear-gradient);}.cls-2{fill:#832b86;}.cls-3{font-size:12px;fill:#fff;font-family:Arial-BoldMT, Arial;font-weight:700;}.cls-4{letter-spacing:-0.074em;}.cls-5{letter-spacing:-0.037em;}</style><linearGradient id="linear-gradient" x1="27.9" y1="1.267" x2="27.9" y2="21.267" gradientUnits="userSpaceOnUse"><stop offset="0" stop-color="#da70de"/><stop offset="0.506" stop-color="#b04fb3"/><stop offset="1" stop-color="#832b86"/></linearGradient></defs><title>R-ICO-013815</title><g id="PPARA"><rect class="cls-1" x="1.4" y="1.267" width="53" height="20" rx="10"/><path class="cls-2" d="M116.49,110.15c-5.365-.009-10.731.43-16.1.837-5.365.458-10.731.547-16.1.613-.349,0-.639.019-1.038,0s-.779-.022-1.164-.084a11.8,11.8,0,0,1-2.274-.52,11.116,11.116,0,0,1-3.985-2.35,11.408,11.408,0,0,1-3.741-8.182,11.1,11.1,0,0,1,3.33-8.208,10.835,10.835,0,0,1,8.066-3.073c5.366.281,10.732.436,16.1.335,5.366-.085,10.731-.574,16.1-.763a17.544,17.544,0,0,1,2.166.033,10.055,10.055,0,0,1,2.227.473,10.729,10.729,0,0,1,3.911,2.279,10.587,10.587,0,0,1,3.437,8.023,10.81,10.81,0,0,1-3.459,7.621A10.987,10.987,0,0,1,116.49,110.15Zm0-.3a9.1,9.1,0,0,0,9.025-10.214,9.589,9.589,0,0,0-6.289-7.846,10.949,10.949,0,0,0-1.691-.413,14.658,14.658,0,0,0-1.851-.128c-5.366-.189-10.731-.678-16.1-.763-5.365-.1-10.731.054-16.1.335a9.089,9.089,0,0,0-6.33,3.1,8.873,8.873,0,0,0-2.233,6.424,8.586,8.586,0,0,0,2.988,5.952,8.986,8.986,0,0,0,2.924,1.664,8.685,8.685,0,0,0,1.642.367c.277.047.562.032.842.056s.652,0,.973.016c5.366.066,10.732.155,16.1.613C105.759,109.42,111.125,109.859,116.49,109.85Z" transform="translate(-72.09 -88.733)"/><text id="PPARA-2" data-name="PPARA" class="cls-3" transform="translate(7.565 14.152)">P<tspan class="cls-4" x="8.004" y="0">P</tspan><tspan x="15.117" y="0">AR</tspan><tspan class="cls-5" x="32.449" y="0">A</tspan></text></g></svg>