<svg id="Layer_1" data-name="Layer 1" xmlns="http://www.w3.org/2000/svg" xmlns:xlink="http://www.w3.org/1999/xlink" viewBox="0 0 66.111 22.942"><defs><style>.cls-1{fill:#94881d;}.cls-2{fill:url(#linear-gradient);}.cls-3{font-size:12px;fill:#fff;font-family:Arial-BoldMT, Arial;font-weight:700;}</style><linearGradient id="linear-gradient" x1="99.706" y1="111.5" x2="99.706" y2="88.5" gradientUnits="userSpaceOnUse"><stop offset="0" stop-color="#94881d"/><stop offset="1" stop-color="#1c474a"/></linearGradient></defs><title>RHOA,B,C</title><g id="RHOA_B_C" data-name="RHOA,B,C"><rect class="cls-1" x="1.349" y="1.342" width="64" height="20" rx="10" ry="10"/><path class="cls-2" d="M122,110.15c-6.282-.009-12.565.43-18.847.837-6.282.458-12.565.546-18.847.613H79.594c-.8-.009-1.511.02-2.476-.048A11.1,11.1,0,0,1,74.451,111a11.524,11.524,0,0,1-7.29-7.458,11.1,11.1,0,0,1,1.8-10.1A10.894,10.894,0,0,1,78,89.179c6.282.261,12.565.449,18.847.335,3.141-.049,6.282-.194,9.423-.349l9.423-.413c1.571-.033,3.141-.093,4.712-.087.8,0,1.52-.031,2.457.031a10.6,10.6,0,0,1,2.611.539,10.69,10.69,0,0,1,6.92,7.372,10.684,10.684,0,0,1-2,9.479A10.819,10.819,0,0,1,122,110.15Zm0-.3a9.753,9.753,0,0,0,4.441-1.137A9.238,9.238,0,0,0,130.6,97.194a9.43,9.43,0,0,0-5.946-5.451,13.683,13.683,0,0,0-4.253-.408c-1.571.006-3.141-.055-4.712-.087l-9.423-.413c-3.141-.155-6.282-.3-9.423-.349-6.282-.114-12.565.074-18.847.335a9.21,9.21,0,0,0-4.067,1.194,9.384,9.384,0,0,0-3.049,2.827,8.625,8.625,0,0,0,4.533,13.183,13,13,0,0,0,4.178.376h4.712c6.282.066,12.565.155,18.847.613C109.435,109.42,115.718,109.859,122,109.85Z" transform="translate(-66.651 -88.658)"/><text class="cls-3" transform="translate(3.683 14.231)">RHOA,B,C</text></g></svg>