<svg id="Layer_1" data-name="Layer 1" xmlns="http://www.w3.org/2000/svg" xmlns:xlink="http://www.w3.org/1999/xlink" viewBox="0 0 22.934 78.809"><defs><style>.cls-1{fill:url(#linear-gradient);}.cls-2{fill:url(#linear-gradient-2);}</style><linearGradient id="linear-gradient" x1="-783.398" y1="241.561" x2="-760.465" y2="241.561" gradientTransform="translate(871.932 -141.561)" gradientUnits="userSpaceOnUse"><stop offset="0.15" stop-color="#226664"/><stop offset="0.5" stop-color="#5eb6bf"/><stop offset="0.85" stop-color="#226664"/></linearGradient><linearGradient id="linear-gradient-2" x1="-771.932" y1="202.156" x2="-771.932" y2="280.966" gradientTransform="translate(871.932 -141.561)" gradientUnits="userSpaceOnUse"><stop offset="0" stop-color="#226664"/><stop offset="0.014" stop-color="#226664" stop-opacity="0.943"/><stop offset="0.084" stop-color="#226664" stop-opacity="0.682"/><stop offset="0.166" stop-color="#226664" stop-opacity="0.466"/><stop offset="0.261" stop-color="#226664" stop-opacity="0.301"/><stop offset="0.378" stop-color="#226664" stop-opacity="0.185"/><stop offset="0.543" stop-color="#226664" stop-opacity="0.118"/><stop offset="1" stop-color="#226664" stop-opacity="0.1"/></linearGradient></defs><title>SEMA4D</title><g id="SEMA4D"><path class="cls-1" d="M111.467,66.314c0-4.378-5.134-5.719-11.467-5.719s-11.467,1.341-11.467,5.719c0,2.6,1.809,5.681,4.6,7.758a11.526,11.526,0,0,1,4.436,9.265V136.5a2.761,2.761,0,0,0,2.209,2.892,2.574,2.574,0,0,0,2.644-2.749V83.337a11.526,11.526,0,0,1,4.437-9.265C109.658,72,111.467,68.912,111.467,66.314Z" transform="translate(-88.533 -60.595)"/><path class="cls-2" d="M111.467,66.314c0-4.378-5.134-5.719-11.467-5.719s-11.467,1.341-11.467,5.719c0,2.6,1.809,5.681,4.6,7.758a11.526,11.526,0,0,1,4.436,9.265V136.5a2.761,2.761,0,0,0,2.209,2.892,2.574,2.574,0,0,0,2.644-2.749V83.337a11.526,11.526,0,0,1,4.437-9.265C109.658,72,111.467,68.912,111.467,66.314Z" transform="translate(-88.533 -60.595)"/></g></svg>