<svg id="Layer_1" data-name="Layer 1" xmlns="http://www.w3.org/2000/svg" xmlns:xlink="http://www.w3.org/1999/xlink" viewBox="0 0 29.082 70.099"><defs><style>.cls-1{fill:#396b22;}.cls-2{fill:none;stroke:#6ad936;stroke-linecap:round;stroke-miterlimit:1;}.cls-3{fill:url(#radial-gradient);}.cls-4{fill:url(#radial-gradient-2);}</style><radialGradient id="radial-gradient" cx="1604.509" cy="71.646" r="10.604" gradientTransform="translate(-1513.431)" gradientUnits="userSpaceOnUse"><stop offset="0" stop-color="#6ad936"/><stop offset="0.014" stop-color="#68d635"/><stop offset="0.189" stop-color="#57af2e"/><stop offset="0.362" stop-color="#4a9229"/><stop offset="0.532" stop-color="#417c25"/><stop offset="0.698" stop-color="#3b6f23"/><stop offset="0.852" stop-color="#396b22"/></radialGradient><radialGradient id="radial-gradient-2" cx="971.207" cy="71.646" r="10.604" gradientTransform="matrix(-1, 0, 0, 1, 1080.902, 0)" gradientUnits="userSpaceOnUse"><stop offset="0" stop-color="#6ad936"/><stop offset="0.014" stop-color="#69d635"/><stop offset="0.189" stop-color="#58b02e"/><stop offset="0.363" stop-color="#4a9229"/><stop offset="0.533" stop-color="#417c25"/><stop offset="0.698" stop-color="#3b6f23"/><stop offset="0.853" stop-color="#396b22"/></radialGradient></defs><title>SREBP</title><g id="SREBP"><path class="cls-1" d="M103.381,135.852H97.392c-3.417,0-7.489-1.524-7.489-8.789V74.1h5v52.96c0,3.789,3.1,3.789,4.489,3.789h1.989c1.6,0,4.489,0,4.489-3.789V74.1h5v52.96C110.87,129.237,110.87,135.852,103.381,135.852Z" transform="translate(-85.846 -65.753)"/><path class="cls-2" d="M92.051,74.057v52.687s-.782,6.13,4.995,6.13h6.336c3.674,0,4.353-2.468,4.353-6.13V74.057" transform="translate(-85.846 -65.753)"/><path class="cls-3" d="M92.4,82.36A6.557,6.557,0,0,1,85.846,75.8V72.31a6.557,6.557,0,1,1,13.114,0V75.8A6.557,6.557,0,0,1,92.4,82.36Z" transform="translate(-85.846 -65.753)"/><path class="cls-4" d="M108.37,82.36a6.557,6.557,0,0,0,6.557-6.557V72.31a6.557,6.557,0,1,0-13.114,0V75.8A6.557,6.557,0,0,0,108.37,82.36Z" transform="translate(-85.846 -65.753)"/></g></svg>