<svg id="Layer_1" data-name="Layer 1" xmlns="http://www.w3.org/2000/svg" xmlns:xlink="http://www.w3.org/1999/xlink" viewBox="0 0 19.001 31"><defs><style>.cls-1{stroke:#ab5e00;stroke-linecap:round;stroke-linejoin:round;stroke-width:2px;fill:url(#linear-gradient);}</style><linearGradient id="linear-gradient" x1="100" y1="114.5" x2="100" y2="85.5" gradientUnits="userSpaceOnUse"><stop offset="0" stop-color="#ffd495"/><stop offset="1" stop-color="#d35000"/></linearGradient></defs><title>R-ICO-013768</title><path id="R-ICO-013768" class="cls-1" d="M94,114.5a2.5,2.5,0,0,1-1.9-.878,2.6,2.6,0,0,1,.243-3.5l3.417-3.418a1,1,0,0,0,0-1.414l-3.525-3.525a2.5,2.5,0,0,1,0-3.536l3.525-3.525a1,1,0,0,0,0-1.414l-3.434-3.435a2.627,2.627,0,0,1-.8-2.184A2.5,2.5,0,0,1,94,85.5h11.857a2.6,2.6,0,0,1,2.63,2.242A2.5,2.5,0,0,1,106,90.5h-4.482a.615.615,0,0,0-.435,1.049l.684.683a2.5,2.5,0,0,1,0,3.536l-3.525,3.525a1,1,0,0,0,0,1.414l3.525,3.525a2.5,2.5,0,0,1,0,3.536l-6,6A2.492,2.492,0,0,1,94,114.5Z" transform="translate(-90.499 -84.5)"/></svg>