<svg id="Layer_1" data-name="Layer 1" xmlns="http://www.w3.org/2000/svg" xmlns:xlink="http://www.w3.org/1999/xlink" viewBox="0 0 109.7 24"><defs><style>.cls-1{fill:url(#linear-gradient);}.cls-2{fill:url(#linear-gradient-2);}.cls-3{fill:url(#linear-gradient-3);}.cls-4{fill:url(#linear-gradient-4);}.cls-5{fill:url(#linear-gradient-5);}.cls-6{fill:url(#linear-gradient-6);}</style><linearGradient id="linear-gradient" x1="-811.527" y1="37.897" x2="-811.527" y2="14.18" gradientTransform="translate(-737.585 125.258) rotate(180)" gradientUnits="userSpaceOnUse"><stop offset="0" stop-color="#042224"/><stop offset="0.094" stop-color="#0e98a2"/><stop offset="0.119" stop-color="#1598a2"/><stop offset="0.154" stop-color="#279aa2"/><stop offset="0.196" stop-color="#469ba2"/><stop offset="0.242" stop-color="#709ea2"/><stop offset="0.273" stop-color="#90a0a2"/><stop offset="0.311" stop-color="#8da0a2"/><stop offset="0.338" stop-color="#849fa2"/><stop offset="0.361" stop-color="#759ea2"/><stop offset="0.382" stop-color="#5f9da2"/><stop offset="0.401" stop-color="#439ba2"/><stop offset="0.419" stop-color="#2199a2"/><stop offset="0.428" stop-color="#0e98a2"/><stop offset="1" stop-color="#042224"/></linearGradient><linearGradient id="linear-gradient-2" x1="274.238" y1="-18.73" x2="274.238" y2="-42.651" gradientTransform="translate(-218.096 130.159)" gradientUnits="userSpaceOnUse"><stop offset="0" stop-color="#0d6a71"/><stop offset="0.092" stop-color="#1398a2"/><stop offset="0.25" stop-color="#90a0a2"/><stop offset="0.587" stop-color="#0e98a2"/><stop offset="0.653" stop-color="#0c8189"/><stop offset="0.814" stop-color="#084e53"/><stop offset="0.935" stop-color="#052e31"/><stop offset="1" stop-color="#042224"/></linearGradient><linearGradient id="linear-gradient-3" x1="-847.127" y1="37.897" x2="-847.127" y2="14.18" xlink:href="#linear-gradient"/><linearGradient id="linear-gradient-4" x1="309.838" y1="-18.73" x2="309.838" y2="-42.651" xlink:href="#linear-gradient-2"/><linearGradient id="linear-gradient-5" x1="-882.727" y1="37.897" x2="-882.727" y2="14.18" xlink:href="#linear-gradient"/><linearGradient id="linear-gradient-6" x1="345.438" y1="-18.73" x2="345.438" y2="-42.651" xlink:href="#linear-gradient-2"/></defs><title>RNA</title><g id="RNA"><path class="cls-1" d="M63.591,111.4c10.35,0,2.677-24,18.167-24l2.533.017c-9.828,0-3.3,23.983-17.8,23.983Z" transform="translate(-45.791 -87.395)"/><path class="cls-2" d="M66.491,111.4c-10.35,0-3.576-24-17.8-24h-2.9c9.828,0,2.9,24,17.8,24Z" transform="translate(-45.791 -87.395)"/><path class="cls-3" d="M99.191,111.4c10.35,0,2.677-24,18.167-24l2.533.017c-9.828,0-3.3,23.983-17.8,23.983Z" transform="translate(-45.791 -87.395)"/><path class="cls-4" d="M102.091,111.4c-10.35,0-3.576-24-17.8-24h-2.9c9.828,0,2.9,24,17.8,24Z" transform="translate(-45.791 -87.395)"/><path class="cls-5" d="M134.791,111.4c10.35,0,2.677-24,18.167-24l2.533.017c-9.828,0-3.3,23.983-17.8,23.983Z" transform="translate(-45.791 -87.395)"/><path class="cls-6" d="M137.691,111.4c-10.35,0-3.576-24-17.8-24h-2.9c9.828,0,2.9,24,17.8,24Z" transform="translate(-45.791 -87.395)"/></g></svg>