<svg id="Layer_1" data-name="Layer 1" xmlns="http://www.w3.org/2000/svg" xmlns:xlink="http://www.w3.org/1999/xlink" viewBox="0 0 97.759 162.582"><defs><style>.cls-1,.cls-2{stroke:#c263b9;stroke-linecap:round;stroke-linejoin:round;stroke-width:2px;}.cls-1{fill:url(#radial-gradient);}.cls-2{fill:url(#radial-gradient-3);}</style><radialGradient id="radial-gradient" cx="-13.408" cy="122.474" r="153.044" gradientTransform="matrix(0.964, 0.267, -0.267, 0.964, 54.944, 25.625)" gradientUnits="userSpaceOnUse"><stop offset="0.725" stop-color="#c263b9"/><stop offset="1" stop-color="#b4ced0"/></radialGradient><radialGradient id="radial-gradient-3" cx="3.07" cy="134.362" r="152.961" gradientTransform="translate(10.798 3.092) rotate(2.918)" xlink:href="#radial-gradient"/></defs><title>golgi_apparatus</title><g id="GOLGI"><path class="cls-1" d="M144.22,98.711c-3.288-8.06-10.165-5-7.07,6.149s5.187,18.574,4.7,31.037c-.552,14.132-10.937,22.633-10.34,11.422s2.582-32.7-3.857-50.179c-10.075-27.345-18.791-23.416-12.98-10.783,10.29,22.373,13.668,34.7,5.945,82.722-2.241,13.931,5.989,8.952,6.764,1.873,1.714-15.653,13.44-19.231,12.477-13.7-1.9,10.9,5.016,12.816,7.232,4.587C150.991,147.358,153.931,122.513,144.22,98.711Z" transform="translate(-54 -16.354)"/><path class="cls-1" d="M102.84,61.843C93.619,51.475,72.114,37.835,64.963,33.659S48.815,31.82,61,38.374,93.591,59.906,101.575,68.2C105.925,72.715,112.06,72.211,102.84,61.843Z" transform="translate(-54 -16.354)"/><path class="cls-2" d="M141.769,75.3c-.578-6.767-8.372-18.188-17.921-28.98a139.437,139.437,0,0,0-17.962-16.492l0,0c-1.055-.832-2.286-2.486,1-2.4s3.838-2.5,1.45-5.5-6.636-1.935-6.9,1.663c-.129,1.734-1.26,1.657-2.512,1.036-1.174-.834-2.3-1.61-3.353-2.32l-.009-.007h0c-1.185-.8-2.286-1.511-3.276-2.13-7.7-4.808-16.708-3.305-5.8,3.29,12.017,7.268,23.231,18.405,27.6,23.2s1.224,8.278-2.154,4.1S100.214,40.237,96.252,37.81s-5.833,1.967-1.12,5.626c8.106,6.293,16.62,17.581,19.574,22.146s5.284-1.288,3.075-5.471,4.5-6.315,7.064-1.592,8.356,11.906,10.207,19.059S142.347,82.072,141.769,75.3Z" transform="translate(-54 -16.354)"/></g></svg>