<svg id="Layer_1" data-name="Layer 1" xmlns="http://www.w3.org/2000/svg" xmlns:xlink="http://www.w3.org/1999/xlink" viewBox="0 0 158.79 34.74"><defs><style>.cls-1,.cls-2,.cls-3,.cls-5,.cls-57,.cls-58,.cls-59,.cls-6,.cls-60,.cls-61,.cls-62{opacity:0.4;}.cls-1{fill:url(#linear-gradient);}.cls-2{fill:url(#linear-gradient-2);}.cls-3{fill:url(#linear-gradient-3);}.cls-4{opacity:0.6;fill:url(#linear-gradient-4);}.cls-5{fill:url(#linear-gradient-5);}.cls-6{fill:url(#linear-gradient-6);}.cls-7{fill:url(#linear-gradient-7);}.cls-10,.cls-12,.cls-16,.cls-17,.cls-18,.cls-19,.cls-20,.cls-21,.cls-22,.cls-23,.cls-24,.cls-25,.cls-26,.cls-27,.cls-28,.cls-33,.cls-34,.cls-35,.cls-45,.cls-46,.cls-47,.cls-48,.cls-49,.cls-50,.cls-51,.cls-52,.cls-53,.cls-54,.cls-55,.cls-56,.cls-8,.cls-9{opacity:0.5;}.cls-8{fill:url(#linear-gradient-8);}.cls-9{fill:url(#linear-gradient-9);}.cls-10{fill:url(#linear-gradient-10);}.cls-11{fill:url(#linear-gradient-11);}.cls-12{fill:url(#linear-gradient-12);}.cls-13{fill:url(#linear-gradient-13);}.cls-14{fill:url(#linear-gradient-14);}.cls-15{fill:url(#linear-gradient-15);}.cls-16{fill:url(#linear-gradient-16);}.cls-17{fill:url(#linear-gradient-17);}.cls-18{fill:url(#linear-gradient-18);}.cls-19{fill:url(#linear-gradient-19);}.cls-20{fill:url(#linear-gradient-20);}.cls-21{fill:url(#linear-gradient-21);}.cls-22{fill:url(#linear-gradient-22);}.cls-23{fill:url(#linear-gradient-23);}.cls-24{fill:url(#linear-gradient-24);}.cls-25{fill:url(#linear-gradient-25);}.cls-26{fill:url(#linear-gradient-26);}.cls-27{fill:url(#linear-gradient-27);}.cls-28{fill:url(#linear-gradient-28);}.cls-29{fill:url(#linear-gradient-29);}.cls-30{fill:url(#linear-gradient-30);}.cls-31{fill:url(#linear-gradient-31);}.cls-32{fill:url(#linear-gradient-32);}.cls-33{fill:url(#linear-gradient-33);}.cls-34{fill:url(#linear-gradient-34);}.cls-35{fill:url(#linear-gradient-35);}.cls-36{fill:url(#linear-gradient-36);}.cls-37{fill:url(#linear-gradient-37);}.cls-38{fill:url(#linear-gradient-38);}.cls-39{fill:url(#linear-gradient-39);}.cls-40{fill:url(#linear-gradient-40);}.cls-41{fill:url(#linear-gradient-41);}.cls-42{fill:url(#linear-gradient-42);}.cls-43{fill:url(#linear-gradient-43);}.cls-44{fill:url(#linear-gradient-44);}.cls-45{fill:url(#linear-gradient-45);}.cls-46{fill:url(#linear-gradient-46);}.cls-47{fill:url(#linear-gradient-47);}.cls-48{fill:url(#linear-gradient-48);}.cls-49{fill:url(#linear-gradient-49);}.cls-50{fill:url(#linear-gradient-50);}.cls-51{fill:url(#linear-gradient-51);}.cls-52{fill:url(#linear-gradient-52);}.cls-53{fill:url(#linear-gradient-53);}.cls-54{fill:url(#linear-gradient-54);}.cls-55{fill:url(#linear-gradient-55);}.cls-56{fill:url(#linear-gradient-56);}.cls-57{fill:url(#linear-gradient-57);}.cls-58{fill:url(#linear-gradient-58);}.cls-59{fill:url(#linear-gradient-59);}.cls-60{fill:url(#linear-gradient-60);}.cls-61{fill:url(#linear-gradient-61);}.cls-62{fill:url(#linear-gradient-62);}</style><linearGradient id="linear-gradient" x1="-680.45" y1="135.449" x2="-680.45" y2="101.119" gradientTransform="translate(843.01 -19.117)" gradientUnits="userSpaceOnUse"><stop offset="0" stop-color="#000e40"/><stop offset="0.113" stop-color="#a20e40"/><stop offset="0.273" stop-color="#a23e60"/><stop offset="0.602" stop-color="#a20e40"/><stop offset="1" stop-color="#000e40"/></linearGradient><linearGradient id="linear-gradient-2" x1="-706.215" y1="135.449" x2="-706.215" y2="101.119" gradientTransform="translate(843.01 -19.117)" gradientUnits="userSpaceOnUse"><stop offset="0" stop-color="#040024"/><stop offset="0.094" stop-color="#0e98a2"/><stop offset="0.119" stop-color="#1598a2"/><stop offset="0.154" stop-color="#279aa2"/><stop offset="0.196" stop-color="#469ba2"/><stop offset="0.242" stop-color="#709ea2"/><stop offset="0.273" stop-color="#90a0a2"/><stop offset="0.307" stop-color="#7d9fa2"/><stop offset="0.425" stop-color="#429ba2"/><stop offset="0.512" stop-color="#1c99a2"/><stop offset="0.558" stop-color="#0e98a2"/><stop offset="1" stop-color="#040024"/></linearGradient><linearGradient id="linear-gradient-3" x1="-731.981" y1="135.449" x2="-731.981" y2="101.119" xlink:href="#linear-gradient"/><linearGradient id="linear-gradient-4" x1="-757.746" y1="135.449" x2="-757.746" y2="101.119" xlink:href="#linear-gradient-2"/><linearGradient id="linear-gradient-5" x1="-783.512" y1="135.449" x2="-783.512" y2="101.119" xlink:href="#linear-gradient"/><linearGradient id="linear-gradient-6" x1="-809.277" y1="135.449" x2="-809.277" y2="101.119" xlink:href="#linear-gradient-2"/><linearGradient id="linear-gradient-7" x1="440.593" y1="-38.502" x2="440.593" y2="-34.852" gradientTransform="translate(65.75 -348.973) rotate(90)" gradientUnits="userSpaceOnUse"><stop offset="0" stop-color="#541107"/><stop offset="0.127" stop-color="#70390d"/><stop offset="0.366" stop-color="#a07f17"/><stop offset="0.581" stop-color="#c6b61f"/><stop offset="0.765" stop-color="#e1de25"/><stop offset="0.911" stop-color="#f2f629"/><stop offset="1" stop-color="#f8ff2a"/></linearGradient><linearGradient id="linear-gradient-8" x1="456.509" y1="-86.258" x2="456.509" y2="-82.608" gradientTransform="translate(65.75 -348.973) rotate(90)" gradientUnits="userSpaceOnUse"><stop offset="0" stop-color="#d89355"/><stop offset="1" stop-color="#541107"/></linearGradient><linearGradient id="linear-gradient-9" x1="456.26" y1="-62.355" x2="456.26" y2="-58.705" gradientTransform="translate(65.75 -348.973) rotate(90)" gradientUnits="userSpaceOnUse"><stop offset="0" stop-color="#5b9b54"/><stop offset="1" stop-color="#042224"/></linearGradient><linearGradient id="linear-gradient-10" x1="439.115" y1="-62.355" x2="439.115" y2="-58.705" xlink:href="#linear-gradient-8"/><linearGradient id="linear-gradient-11" x1="456.246" y1="-32.539" x2="456.246" y2="-28.889" gradientTransform="translate(65.75 -348.973) rotate(90)" gradientUnits="userSpaceOnUse"><stop offset="0" stop-color="#042224"/><stop offset="0.258" stop-color="#124624"/><stop offset="0.583" stop-color="#216e24"/><stop offset="0.841" stop-color="#2b8624"/><stop offset="1" stop-color="#2e8f24"/></linearGradient><linearGradient id="linear-gradient-12" x1="439.364" y1="-86.258" x2="439.364" y2="-82.608" xlink:href="#linear-gradient-9"/><linearGradient id="linear-gradient-13" x1="439.115" y1="-32.539" x2="439.115" y2="-28.889" xlink:href="#linear-gradient-7"/><linearGradient id="linear-gradient-14" x1="456.246" y1="-8.718" x2="456.246" y2="-5.068" xlink:href="#linear-gradient-11"/><linearGradient id="linear-gradient-15" x1="439.115" y1="-8.718" x2="439.115" y2="-5.068" xlink:href="#linear-gradient-7"/><linearGradient id="linear-gradient-16" x1="440.101" y1="-2.755" x2="440.101" y2="0.895" xlink:href="#linear-gradient-9"/><linearGradient id="linear-gradient-17" x1="455.785" y1="-2.755" x2="455.785" y2="0.895" xlink:href="#linear-gradient-8"/><linearGradient id="linear-gradient-18" x1="439.364" y1="15.135" x2="439.364" y2="18.785" xlink:href="#linear-gradient-9"/><linearGradient id="linear-gradient-19" x1="456.509" y1="15.135" x2="456.509" y2="18.785" xlink:href="#linear-gradient-8"/><linearGradient id="linear-gradient-20" x1="454.768" y1="-80.294" x2="454.768" y2="-76.645" xlink:href="#linear-gradient-9"/><linearGradient id="linear-gradient-21" x1="453.373" y1="-74.197" x2="453.373" y2="-70.547" xlink:href="#linear-gradient-9"/><linearGradient id="linear-gradient-22" x1="440.856" y1="-68.234" x2="440.856" y2="-64.584" xlink:href="#linear-gradient-9"/><linearGradient id="linear-gradient-23" x1="454.98" y1="-68.234" x2="454.98" y2="-64.584" xlink:href="#linear-gradient-8"/><linearGradient id="linear-gradient-24" x1="440.856" y1="-104.147" x2="440.856" y2="-100.497" xlink:href="#linear-gradient-9"/><linearGradient id="linear-gradient-25" x1="454.98" y1="-104.147" x2="454.98" y2="-100.497" xlink:href="#linear-gradient-8"/><linearGradient id="linear-gradient-26" x1="441.989" y1="-74.197" x2="441.989" y2="-70.547" xlink:href="#linear-gradient-8"/><linearGradient id="linear-gradient-27" x1="453.373" y1="-98.184" x2="453.373" y2="-94.534" xlink:href="#linear-gradient-9"/><linearGradient id="linear-gradient-28" x1="441.989" y1="-98.184" x2="441.989" y2="-94.534" xlink:href="#linear-gradient-8"/><linearGradient id="linear-gradient-29" x1="455.031" y1="-56.392" x2="455.031" y2="-52.742" xlink:href="#linear-gradient-7"/><linearGradient id="linear-gradient-30" x1="440.856" y1="-56.392" x2="440.856" y2="-52.742" xlink:href="#linear-gradient-11"/><linearGradient id="linear-gradient-31" x1="453.635" y1="-50.286" x2="453.635" y2="-46.636" xlink:href="#linear-gradient-7"/><linearGradient id="linear-gradient-32" x1="454.768" y1="-38.502" x2="454.768" y2="-34.852" xlink:href="#linear-gradient-11"/><linearGradient id="linear-gradient-33" x1="440.593" y1="-80.294" x2="440.593" y2="-76.645" xlink:href="#linear-gradient-8"/><linearGradient id="linear-gradient-34" x1="454.768" y1="-92.221" x2="454.768" y2="-88.571" xlink:href="#linear-gradient-9"/><linearGradient id="linear-gradient-35" x1="440.593" y1="-92.221" x2="440.593" y2="-88.571" xlink:href="#linear-gradient-8"/><linearGradient id="linear-gradient-36" x1="453.373" y1="-44.465" x2="453.373" y2="-40.816" xlink:href="#linear-gradient-11"/><linearGradient id="linear-gradient-37" x1="442.252" y1="-50.286" x2="442.252" y2="-46.636" xlink:href="#linear-gradient-11"/><linearGradient id="linear-gradient-38" x1="441.989" y1="-44.465" x2="441.989" y2="-40.816" xlink:href="#linear-gradient-7"/><linearGradient id="linear-gradient-39" x1="454.768" y1="-26.576" x2="454.768" y2="-22.926" xlink:href="#linear-gradient-11"/><linearGradient id="linear-gradient-40" x1="440.593" y1="-26.576" x2="440.593" y2="-22.926" xlink:href="#linear-gradient-7"/><linearGradient id="linear-gradient-41" x1="453.373" y1="-20.767" x2="453.373" y2="-17.118" xlink:href="#linear-gradient-11"/><linearGradient id="linear-gradient-42" x1="441.989" y1="-20.767" x2="441.989" y2="-17.118" xlink:href="#linear-gradient-7"/><linearGradient id="linear-gradient-43" x1="440.856" y1="-14.649" x2="440.856" y2="-11" xlink:href="#linear-gradient-11"/><linearGradient id="linear-gradient-44" x1="455.031" y1="-14.649" x2="455.031" y2="-11" xlink:href="#linear-gradient-7"/><linearGradient id="linear-gradient-45" x1="256.504" y1="173.621" x2="256.504" y2="177.271" gradientTransform="translate(-132.619 362.504) rotate(-90)" xlink:href="#linear-gradient-9"/><linearGradient id="linear-gradient-46" x1="270.679" y1="173.621" x2="270.679" y2="177.271" gradientTransform="translate(-132.619 362.504) rotate(-90)" xlink:href="#linear-gradient-8"/><linearGradient id="linear-gradient-47" x1="440.856" y1="38.987" x2="440.856" y2="42.637" xlink:href="#linear-gradient-9"/><linearGradient id="linear-gradient-48" x1="455.031" y1="38.987" x2="455.031" y2="42.637" xlink:href="#linear-gradient-8"/><linearGradient id="linear-gradient-49" x1="257.9" y1="169.048" x2="257.9" y2="172.698" gradientTransform="translate(-116.065 362.504) rotate(-90)" xlink:href="#linear-gradient-9"/><linearGradient id="linear-gradient-50" x1="269.284" y1="169.048" x2="269.284" y2="172.698" gradientTransform="translate(-116.065 362.504) rotate(-90)" xlink:href="#linear-gradient-8"/><linearGradient id="linear-gradient-51" x1="442.252" y1="11.372" x2="442.252" y2="15.022" gradientTransform="translate(73.913 -348.973) rotate(90)" xlink:href="#linear-gradient-9"/><linearGradient id="linear-gradient-52" x1="453.635" y1="11.372" x2="453.635" y2="15.022" gradientTransform="translate(73.913 -348.973) rotate(90)" xlink:href="#linear-gradient-8"/><linearGradient id="linear-gradient-53" x1="442.252" y1="27.061" x2="442.252" y2="30.711" xlink:href="#linear-gradient-9"/><linearGradient id="linear-gradient-54" x1="453.635" y1="27.061" x2="453.635" y2="30.711" xlink:href="#linear-gradient-8"/><linearGradient id="linear-gradient-55" x1="257.9" y1="178.173" x2="257.9" y2="181.823" gradientTransform="translate(-149.097 362.504) rotate(-90)" xlink:href="#linear-gradient-9"/><linearGradient id="linear-gradient-56" x1="269.284" y1="178.173" x2="269.284" y2="181.823" gradientTransform="translate(-149.097 362.504) rotate(-90)" xlink:href="#linear-gradient-8"/><linearGradient id="linear-gradient-57" x1="160.961" y1="-105.512" x2="160.961" y2="-140.137" gradientTransform="translate(323.52 -24.018) rotate(180)" gradientUnits="userSpaceOnUse"><stop offset="0" stop-color="#040024"/><stop offset="0.092" stop-color="#1398a2"/><stop offset="0.25" stop-color="#90a0a2"/><stop offset="0.587" stop-color="#0e98a2"/><stop offset="0.702" stop-color="#0b6678"/><stop offset="0.84" stop-color="#072f4b"/><stop offset="0.944" stop-color="#050d2f"/><stop offset="1" stop-color="#040024"/></linearGradient><linearGradient id="linear-gradient-58" x1="212.491" y1="-105.512" x2="212.491" y2="-140.137" xlink:href="#linear-gradient-57"/><linearGradient id="linear-gradient-59" x1="264.022" y1="-105.512" x2="264.022" y2="-140.137" xlink:href="#linear-gradient-57"/><linearGradient id="linear-gradient-60" x1="186.726" y1="-105.512" x2="186.726" y2="-140.137" gradientTransform="translate(323.52 -24.018) rotate(180)" gradientUnits="userSpaceOnUse"><stop offset="0" stop-color="#000e40"/><stop offset="0.091" stop-color="#a21343"/><stop offset="0.25" stop-color="#a2687b"/><stop offset="0.769" stop-color="#a20e40"/><stop offset="1" stop-color="#000e40"/></linearGradient><linearGradient id="linear-gradient-61" x1="238.257" y1="-105.512" x2="238.257" y2="-140.137" xlink:href="#linear-gradient-60"/><linearGradient id="linear-gradient-62" x1="289.788" y1="-105.512" x2="289.788" y2="-140.137" xlink:href="#linear-gradient-60"/></defs><title>DNA_mutation</title><g id="DNA"><path class="cls-1" d="M177.541,81.544c-14.982,0-3.874,34.74-26.3,34.74l-3.666-.025c14.227,0,4.777-34.715,25.765-34.715Z" transform="translate(-18.751 -81.544)"/><path class="cls-2" d="M151.776,81.544c-14.982,0-3.874,34.74-26.3,34.74l-3.666-.025c14.227,0,4.777-34.715,25.765-34.715Z" transform="translate(-18.751 -81.544)"/><path class="cls-3" d="M126.011,81.544c-14.982,0-3.874,34.74-26.3,34.74l-3.666-.025c14.227,0,4.777-34.715,25.765-34.715Z" transform="translate(-18.751 -81.544)"/><path class="cls-4" d="M100.245,81.544c-14.982,0-3.874,34.74-26.3,34.74l-3.666-.025c14.227,0,4.777-34.715,25.765-34.715Z" transform="translate(-18.751 -81.544)"/><path class="cls-5" d="M74.48,81.544c-14.982,0-3.874,34.74-26.3,34.74l-3.666-.025c14.227,0,4.777-34.715,25.765-34.715Z" transform="translate(-18.751 -81.544)"/><path class="cls-6" d="M48.714,81.544c-14.982,0-3.874,34.74-26.3,34.74l-3.666-.025c14.227,0,4.777-34.715,25.765-34.715Z" transform="translate(-18.751 -81.544)"/><g id="AMINOACIDS"><path class="cls-7" d="M100.6,97.9V85.345a.775.775,0,0,1,.787-.763h2.076a.775.775,0,0,1,.787.763V97.895a.788.788,0,0,1-1.234.628l-.143-.1a.807.807,0,0,0-.894,0l-.144.1A.788.788,0,0,1,100.6,97.9Z" transform="translate(-18.751 -81.544)"/><path class="cls-8" d="M152.007,99.581v15.913a.775.775,0,0,1-.787.763h-2.076a.775.775,0,0,1-.787-.763V99.58a.788.788,0,0,1,1.234-.628l.144.1a.807.807,0,0,0,.894,0l.143-.1A.788.788,0,0,1,152.007,99.581Z" transform="translate(-18.751 -81.544)"/><path class="cls-9" d="M128.1,99.749v15.772a.775.775,0,0,1-.787.763h-2.076a.775.775,0,0,1-.787-.763V99.749a.756.756,0,0,1,.34-.628l1.039-.695a.807.807,0,0,1,.894,0l1.037.695A.756.756,0,0,1,128.1,99.749Z" transform="translate(-18.751 -81.544)"/><path class="cls-10" d="M124.455,97.9V82.388a.775.775,0,0,1,.787-.763h2.076a.775.775,0,0,1,.787.763V97.895a.788.788,0,0,1-1.234.628l-.143-.1a.807.807,0,0,0-.894,0l-.145.1A.788.788,0,0,1,124.455,97.9Z" transform="translate(-18.751 -81.544)"/><path class="cls-11" d="M98.289,99.749v15.745a.775.775,0,0,1-.787.763H95.426a.775.775,0,0,1-.787-.763V99.749a.756.756,0,0,1,.34-.628l1.039-.695a.807.807,0,0,1,.894,0l1.038.695A.756.756,0,0,1,98.289,99.749Z" transform="translate(-18.751 -81.544)"/><path class="cls-12" d="M148.358,97.758V82.346a.768.768,0,0,1,.787-.747h2.076a.768.768,0,0,1,.787.747V97.758a.736.736,0,0,1-.34.615l-1.039.68a.822.822,0,0,1-.894,0l-1.038-.68A.736.736,0,0,1,148.358,97.758Z" transform="translate(-18.751 -81.544)"/><path class="cls-13" d="M94.639,97.9V82.388a.775.775,0,0,1,.787-.763H97.5a.775.775,0,0,1,.787.763V97.895a.788.788,0,0,1-1.234.628l-.144-.1a.807.807,0,0,0-.894,0l-.145.1A.788.788,0,0,1,94.639,97.9Z" transform="translate(-18.751 -81.544)"/><path class="cls-14" d="M74.468,99.749v15.745a.775.775,0,0,1-.787.763H71.6a.775.775,0,0,1-.787-.763V99.749a.756.756,0,0,1,.34-.628l1.038-.695a.807.807,0,0,1,.894,0l1.038.695A.756.756,0,0,1,74.468,99.749Z" transform="translate(-18.751 -81.544)"/><path class="cls-15" d="M70.818,97.9V82.388a.775.775,0,0,1,.787-.763H73.68a.775.775,0,0,1,.787.763V97.895a.788.788,0,0,1-1.234.628l-.144-.1a.807.807,0,0,0-.894,0l-.144.1A.788.788,0,0,1,70.818,97.9Z" transform="translate(-18.751 -81.544)"/><path class="cls-16" d="M64.855,97.727V83.836a.775.775,0,0,1,.787-.763h2.076a.775.775,0,0,1,.787.763V97.727a.756.756,0,0,1-.34.628l-1.038.695a.807.807,0,0,1-.894,0l-1.038-.695A.756.756,0,0,1,64.855,97.727Z" transform="translate(-18.751 -81.544)"/><path class="cls-17" d="M68.5,99.581v14.465a.775.775,0,0,1-.787.763H65.641a.775.775,0,0,1-.787-.763V99.58a.788.788,0,0,1,1.234-.628l.144.1a.807.807,0,0,0,.894,0l.144-.1A.788.788,0,0,1,68.5,99.581Z" transform="translate(-18.751 -81.544)"/><path class="cls-18" d="M46.965,97.727V82.388a.775.775,0,0,1,.787-.763L49.16,81.6c.435,0,1.455.76,1.455,1.181V97.727a.756.756,0,0,1-.34.628l-1.037.694a.807.807,0,0,1-.894,0l-1.038-.695A.756.756,0,0,1,46.965,97.727Z" transform="translate(-18.751 -81.544)"/><path class="cls-19" d="M50.615,99.581v15.434a1.785,1.785,0,0,1-1.223,1.241h-1.64a.775.775,0,0,1-.787-.763V99.58a.788.788,0,0,1,1.234-.628l.144.1a.807.807,0,0,0,.894,0l.143-.1A.788.788,0,0,1,50.615,99.581Z" transform="translate(-18.751 -81.544)"/><path class="cls-20" d="M146.044,99.749v12.789a.775.775,0,0,1-.787.763h-2.076a.775.775,0,0,1-.787-.763V99.749a.756.756,0,0,1,.34-.628l1.038-.695a.807.807,0,0,1,.894,0l1.038.695A.756.756,0,0,1,146.044,99.749Z" transform="translate(-18.751 -81.544)"/><path class="cls-21" d="M139.946,99.749v10a.775.775,0,0,1-.787.763h-2.076a.775.775,0,0,1-.787-.763v-10a.756.756,0,0,1,.34-.628l1.038-.695a.807.807,0,0,1,.894,0l1.038.695A.756.756,0,0,1,139.946,99.749Z" transform="translate(-18.751 -81.544)"/><path class="cls-22" d="M130.334,97.727V85.345a.775.775,0,0,1,.787-.763H133.2a.775.775,0,0,1,.787.763V97.727a.756.756,0,0,1-.34.628l-1.038.695a.807.807,0,0,1-.894,0l-1.038-.695A.756.756,0,0,1,130.334,97.727Z" transform="translate(-18.751 -81.544)"/><path class="cls-23" d="M133.983,99.581v12.855a.775.775,0,0,1-.787.763H131.12a.775.775,0,0,1-.787-.763V99.58a.788.788,0,0,1,1.234-.628l.144.1a.807.807,0,0,0,.894,0l.144-.1A.788.788,0,0,1,133.983,99.581Z" transform="translate(-18.751 -81.544)"/><path class="cls-24" d="M166.247,97.727V85.345a.775.775,0,0,1,.787-.763h2.076a.775.775,0,0,1,.787.763V97.727a.756.756,0,0,1-.34.628l-1.038.695a.807.807,0,0,1-.894,0l-1.038-.695A.756.756,0,0,1,166.247,97.727Z" transform="translate(-18.751 -81.544)"/><path class="cls-25" d="M169.9,99.581v12.855a.775.775,0,0,1-.787.763h-2.076a.775.775,0,0,1-.787-.763V99.58a.788.788,0,0,1,1.234-.628l.144.1a.807.807,0,0,0,.894,0l.144-.1A.788.788,0,0,1,169.9,99.581Z" transform="translate(-18.751 -81.544)"/><path class="cls-26" d="M136.3,97.895V88.136a.775.775,0,0,1,.787-.763h2.076a.775.775,0,0,1,.787.763v9.758a.788.788,0,0,1-1.234.628l-.144-.1a.807.807,0,0,0-.894,0l-.144.1A.788.788,0,0,1,136.3,97.895Z" transform="translate(-18.751 -81.544)"/><path class="cls-27" d="M163.933,99.749v10a.775.775,0,0,1-.787.763h-2.076a.775.775,0,0,1-.787-.763v-10a.756.756,0,0,1,.34-.628l1.038-.695a.807.807,0,0,1,.894,0l1.038.695A.756.756,0,0,1,163.933,99.749Z" transform="translate(-18.751 -81.544)"/><path class="cls-28" d="M160.284,97.895V88.136a.775.775,0,0,1,.787-.763h2.076a.775.775,0,0,1,.787.763v9.758a.788.788,0,0,1-1.234.628l-.144-.1a.807.807,0,0,0-.894,0l-.144.1A.788.788,0,0,1,160.284,97.895Z" transform="translate(-18.751 -81.544)"/><path class="cls-29" d="M122.142,99.58v12.957a.775.775,0,0,1-.787.763h-2.076a.775.775,0,0,1-.787-.763V99.581a.788.788,0,0,1,1.234-.628l.144.1a.807.807,0,0,0,.894,0l.144-.1A.788.788,0,0,1,122.142,99.58Z" transform="translate(-18.751 -81.544)"/><path class="cls-30" d="M118.492,97.727V85.345a.775.775,0,0,1,.787-.763h2.076a.775.775,0,0,1,.787.763V97.727a.756.756,0,0,1-.34.628l-1.038.695a.807.807,0,0,1-.894,0l-1.038-.695A.756.756,0,0,1,118.492,97.727Z" transform="translate(-18.751 -81.544)"/><path class="cls-31" d="M116.035,99.581v10.165a.775.775,0,0,1-.787.763h-2.076a.775.775,0,0,1-.787-.763V99.581a.788.788,0,0,1,1.234-.628l.144.1a.807.807,0,0,0,.894,0l.143-.1A.788.788,0,0,1,116.035,99.581Z" transform="translate(-18.751 -81.544)"/><path class="cls-32" d="M104.252,99.749v12.789a.775.775,0,0,1-.787.763h-2.076a.775.775,0,0,1-.787-.763V99.749a.756.756,0,0,1,.34-.628l1.038-.695a.807.807,0,0,1,.894,0l1.037.694A.756.756,0,0,1,104.252,99.749Z" transform="translate(-18.751 -81.544)"/><path class="cls-33" d="M142.395,97.9V85.345a.775.775,0,0,1,.787-.763h2.076a.775.775,0,0,1,.787.763V97.895a.788.788,0,0,1-1.234.628l-.143-.1a.807.807,0,0,0-.894,0l-.144.1A.788.788,0,0,1,142.395,97.9Z" transform="translate(-18.751 -81.544)"/><path class="cls-34" d="M157.971,99.749v12.789a.775.775,0,0,1-.787.763h-2.076a.775.775,0,0,1-.787-.763V99.749a.756.756,0,0,1,.34-.628l1.038-.695a.807.807,0,0,1,.894,0l1.038.695A.756.756,0,0,1,157.971,99.749Z" transform="translate(-18.751 -81.544)"/><path class="cls-35" d="M154.321,97.9V85.345a.775.775,0,0,1,.787-.763h2.076a.775.775,0,0,1,.787.763V97.895a.788.788,0,0,1-1.234.628l-.143-.1a.807.807,0,0,0-.894,0l-.144.1A.788.788,0,0,1,154.321,97.9Z" transform="translate(-18.751 -81.544)"/><path class="cls-36" d="M110.215,99.749v10a.775.775,0,0,1-.787.763h-2.076a.775.775,0,0,1-.787-.763v-10a.756.756,0,0,1,.34-.628l1.038-.695a.807.807,0,0,1,.894,0l1.038.695A.756.756,0,0,1,110.215,99.749Z" transform="translate(-18.751 -81.544)"/><path class="cls-37" d="M112.386,97.727v-9.59a.775.775,0,0,1,.787-.763h2.076a.775.775,0,0,1,.787.763v9.591a.756.756,0,0,1-.34.628l-1.037.694a.807.807,0,0,1-.894,0l-1.038-.695A.756.756,0,0,1,112.386,97.727Z" transform="translate(-18.751 -81.544)"/><path class="cls-38" d="M106.566,97.895V88.136a.775.775,0,0,1,.787-.763h2.076a.775.775,0,0,1,.787.763v9.758a.788.788,0,0,1-1.234.628l-.144-.1a.807.807,0,0,0-.894,0l-.144.1A.788.788,0,0,1,106.566,97.895Z" transform="translate(-18.751 -81.544)"/><path class="cls-39" d="M92.326,99.749v12.789a.775.775,0,0,1-.787.763H89.463a.775.775,0,0,1-.787-.763V99.749a.756.756,0,0,1,.34-.628l1.038-.695a.807.807,0,0,1,.894,0l1.038.695A.756.756,0,0,1,92.326,99.749Z" transform="translate(-18.751 -81.544)"/><path class="cls-40" d="M88.676,97.895V85.345a.775.775,0,0,1,.787-.763h2.076a.775.775,0,0,1,.787.763V97.9a.788.788,0,0,1-1.234.628l-.144-.1a.807.807,0,0,0-.894,0l-.144.1A.788.788,0,0,1,88.676,97.895Z" transform="translate(-18.751 -81.544)"/><path class="cls-41" d="M86.517,99.749v10a.775.775,0,0,1-.787.763H83.655a.775.775,0,0,1-.787-.763v-10a.756.756,0,0,1,.34-.628l1.038-.695a.807.807,0,0,1,.894,0l1.038.695A.756.756,0,0,1,86.517,99.749Z" transform="translate(-18.751 -81.544)"/><path class="cls-42" d="M82.868,97.895V88.136a.775.775,0,0,1,.787-.763H85.73a.775.775,0,0,1,.787.763v9.758a.788.788,0,0,1-1.234.628l-.144-.1a.807.807,0,0,0-.894,0l-.144.1A.788.788,0,0,1,82.868,97.895Z" transform="translate(-18.751 -81.544)"/><path class="cls-43" d="M76.75,97.727V85.345a.775.775,0,0,1,.787-.763h2.076a.775.775,0,0,1,.787.763V97.727a.756.756,0,0,1-.34.628l-1.038.695a.807.807,0,0,1-.894,0l-1.038-.695A.756.756,0,0,1,76.75,97.727Z" transform="translate(-18.751 -81.544)"/><path class="cls-44" d="M80.4,99.581v12.957a.775.775,0,0,1-.787.763H77.536a.775.775,0,0,1-.787-.763V99.581a.788.788,0,0,1,1.234-.628l.144.1a.807.807,0,0,0,.894,0l.144-.1A.788.788,0,0,1,80.4,99.581Z" transform="translate(-18.751 -81.544)"/><path class="cls-45" d="M44.651,100.156v12.382a.775.775,0,0,1-.787.763H41.789a.775.775,0,0,1-.787-.763V100.156a.756.756,0,0,1,.34-.628l1.037-.694a.807.807,0,0,1,.894,0l1.038.695A.756.756,0,0,1,44.651,100.156Z" transform="translate(-18.751 -81.544)"/><path class="cls-46" d="M41,98.3V85.014a.432.432,0,0,1,.432-.432H44.22a.433.433,0,0,1,.432.432V98.3a.788.788,0,0,1-1.234.628l-.144-.1a.807.807,0,0,0-.894,0l-.143.1A.788.788,0,0,1,41,98.3Z" transform="translate(-18.751 -81.544)"/><path class="cls-47" d="M23.113,97.727V85.345a.775.775,0,0,1,.787-.763h2.076a.775.775,0,0,1,.787.763V97.727a.756.756,0,0,1-.34.628l-1.037.694a.807.807,0,0,1-.894,0l-1.038-.695A.756.756,0,0,1,23.113,97.727Z" transform="translate(-18.751 -81.544)"/><path class="cls-48" d="M26.762,99.581v13.288a.432.432,0,0,1-.432.432H23.544a.433.433,0,0,1-.432-.432V99.581a.788.788,0,0,1,1.234-.628l.144.1a.807.807,0,0,0,.894,0l.143-.1A.788.788,0,0,1,26.762,99.581Z" transform="translate(-18.751 -81.544)"/><path class="cls-49" d="M56.633,100.156v9.59a.775.775,0,0,1-.787.763H53.77a.775.775,0,0,1-.787-.763v-9.59a.756.756,0,0,1,.34-.628l1.038-.695a.807.807,0,0,1,.894,0l1.038.695A.756.756,0,0,1,56.633,100.156Z" transform="translate(-18.751 -81.544)"/><path class="cls-50" d="M52.983,98.3V88.136a.775.775,0,0,1,.787-.763h2.076a.775.775,0,0,1,.787.763V98.3a.788.788,0,0,1-1.234.628l-.144-.1a.807.807,0,0,0-.894,0l-.144.1A.788.788,0,0,1,52.983,98.3Z" transform="translate(-18.751 -81.544)"/><path class="cls-51" d="M58.891,97.727v-9.59a.775.775,0,0,1,.787-.763h2.076a.775.775,0,0,1,.787.763v9.59a.756.756,0,0,1-.34.628l-1.038.695a.807.807,0,0,1-.894,0l-1.038-.695A.756.756,0,0,1,58.891,97.727Z" transform="translate(-18.751 -81.544)"/><path class="cls-52" d="M62.541,99.581v10.165a.775.775,0,0,1-.787.763H59.678a.775.775,0,0,1-.787-.763V99.58a.788.788,0,0,1,1.234-.628l.144.1a.807.807,0,0,0,.894,0l.144-.1A.788.788,0,0,1,62.541,99.581Z" transform="translate(-18.751 -81.544)"/><path class="cls-53" d="M35.039,97.727v-9.59a.775.775,0,0,1,.787-.763H37.9a.775.775,0,0,1,.787.763v9.59a.756.756,0,0,1-.34.628l-1.038.695a.807.807,0,0,1-.894,0l-1.038-.695A.756.756,0,0,1,35.039,97.727Z" transform="translate(-18.751 -81.544)"/><path class="cls-54" d="M38.689,99.581v10.165a.775.775,0,0,1-.787.763H35.826a.775.775,0,0,1-.787-.763V99.58a.788.788,0,0,1,1.234-.628l.144.1a.807.807,0,0,0,.894,0l.144-.1A.788.788,0,0,1,38.689,99.581Z" transform="translate(-18.751 -81.544)"/><path class="cls-55" d="M32.725,100.156v9.59a.775.775,0,0,1-.787.763H29.863a.775.775,0,0,1-.787-.763v-9.59a.756.756,0,0,1,.34-.628l1.038-.695a.807.807,0,0,1,.894,0l1.038.695A.756.756,0,0,1,32.725,100.156Z" transform="translate(-18.751 -81.544)"/><path class="cls-56" d="M29.076,98.3V88.136a.775.775,0,0,1,.787-.763h2.076a.775.775,0,0,1,.787.763V98.3a.788.788,0,0,1-1.234.628l-.144-.1a.807.807,0,0,0-.894,0l-.144.1A.788.788,0,0,1,29.076,98.3Z" transform="translate(-18.751 -81.544)"/></g><path class="cls-57" d="M147.578,81.544c14.982,0,5.176,34.74,25.765,34.74h4.2c-14.227,0-4.2-34.74-25.765-34.74Z" transform="translate(-18.751 -81.544)"/><path class="cls-58" d="M96.047,81.544c14.982,0,5.176,34.74,25.765,34.74h4.2c-14.227,0-4.2-34.74-25.765-34.74Z" transform="translate(-18.751 -81.544)"/><path class="cls-59" d="M44.517,81.544c14.982,0,5.176,34.74,25.765,34.74h4.2c-14.227,0-4.2-34.74-25.765-34.74Z" transform="translate(-18.751 -81.544)"/><path class="cls-60" d="M121.813,81.544c14.982,0,5.176,34.74,25.765,34.74h4.2c-14.227,0-4.2-34.74-25.765-34.74Z" transform="translate(-18.751 -81.544)"/><path class="cls-61" d="M70.282,81.544c14.982,0,5.176,34.74,25.765,34.74h4.2c-14.227,0-4.2-34.74-25.765-34.74Z" transform="translate(-18.751 -81.544)"/><path class="cls-62" d="M18.751,81.544c14.982,0,5.176,34.74,25.765,34.74h4.2c-14.227,0-4.2-34.74-25.765-34.74Z" transform="translate(-18.751 -81.544)"/></g></svg>