<svg id="Layer_1" data-name="Layer 1" xmlns="http://www.w3.org/2000/svg" viewBox="0 0 158.048 22.405"><defs><style>.cls-1{fill:#634c28;}.cls-2{fill:#e6b05c;}</style></defs><title>tropomyosin</title><g id="tropomyosin"><path class="cls-1" d="M178.4,88.9a56.462,56.462,0,0,0-14.228,1.967,140.773,140.773,0,0,0-13.562,4.287c-.889.316-12.53,4.9-16.331,6.457-5.71,2.336-14.613,7.737-26.7,7.749-13.591,0-41.416-13.969-46.093-15.773l-.006,0c-.122-.032-7.012-1.818-9.519-2.191-2.523-.375-17.708-1.948-30.315,3.389l-.662,1.933h.63c1.678-.652,10.649-4.08,19.366-4.08s15.18,1.441,18.8,2.768c15.157,5.552,32.908,15.8,47.526,15.8.007,0,.008-.01.015-.011,10.362-.045,23.618-5.951,27.928-7.762,4.448-1.868,15.091-6.222,15.978-6.538a139.333,139.333,0,0,1,13.388-4.235,46.428,46.428,0,0,1,12.75-1.6c.512.015,1.024.042,1.521.08l.14-1.837Z" transform="translate(-20.976 -88.798)"/><path class="cls-2" d="M156.851,92.265c-3.606,1.17-7.047,2.42-10.376,3.63-8.926,3.244-27.471,12.97-39.19,13.159a36.956,36.956,0,0,1-5.478-.614c-10.452-2-18.651-5.705-27.332-9.632-3.226-1.46-6.562-2.969-10.093-4.42a58.033,58.033,0,0,0-21.014-3.86v-.016c-.236,0-.455,0-.686.006-.133,0-.26-.007-.393-.006v.009c-10.19.1-15.445,1.558-20.453,3.687l-.86,2.511c.139-.058,1.778-.771,1.918-.828a51.182,51.182,0,0,1,19.579-3.533A53.5,53.5,0,0,1,62.443,95.88c3.444,1.415,6.75,2.911,9.947,4.357,8.915,4.033,17.336,7.843,28.405,9.956a47.977,47.977,0,0,0,6.375.692v.009c.059,0,.122,0,.182,0,.11,0,.209.013.321.015v-.016c11.885,0,31.7-10.118,40.771-13.414,3.3-1.2,6.708-2.438,10.225-3.578,6.734-2.085,12.456-3.641,19.639-3.157L178.4,88.9C170.266,88.355,164.1,90.022,156.851,92.265Z" transform="translate(-20.976 -88.798)"/></g></svg>