<svg id="Neuron" xmlns="http://www.w3.org/2000/svg" xmlns:xlink="http://www.w3.org/1999/xlink" viewBox="0 0 180 101.529"><defs><style>.cls-1{fill:#468ed7;}.cls-2{fill:url(#radial-gradient);}.cls-3{fill:url(#radial-gradient-2);}.cls-4{fill:url(#radial-gradient-3);}.cls-5{fill:url(#radial-gradient-4);}.cls-6{fill:url(#radial-gradient-5);}.cls-7{fill:url(#radial-gradient-6);}.cls-8{fill:url(#radial-gradient-7);}</style><radialGradient id="radial-gradient" cx="-390.076" cy="373.598" r="2.053" gradientTransform="matrix(2.752, -0.475, -0.319, -1.843, 1290.144, 630.342)" gradientUnits="userSpaceOnUse"><stop offset="0" stop-color="#d5f6ff"/><stop offset="1" stop-color="#468ed7"/></radialGradient><radialGradient id="radial-gradient-2" cx="-442.043" cy="342.878" r="2.053" gradientTransform="matrix(3.455, -1.222, -0.632, -1.785, 1852.826, 200.392)" xlink:href="#radial-gradient"/><radialGradient id="radial-gradient-3" cx="-488.545" cy="295.419" r="2.053" gradientTransform="matrix(3.678, -2.811, -1.152, -1.504, 2256.957, -804.871)" xlink:href="#radial-gradient"/><radialGradient id="radial-gradient-4" cx="-525.156" cy="266.367" r="2.053" gradientTransform="matrix(3.051, -4.721, -1.592, -1.027, 2155.423, -2089.851)" xlink:href="#radial-gradient"/><radialGradient id="radial-gradient-5" cx="-500.213" cy="282.157" r="2.053" gradientTransform="matrix(2.897, -2.74, -1.303, -1.375, 1953.074, -875.257)" xlink:href="#radial-gradient"/><radialGradient id="radial-gradient-6" cx="-442.926" cy="320.705" r="2.053" gradientTransform="matrix(2.467, -1.073, -0.756, -1.736, 1482.006, 182.602)" xlink:href="#radial-gradient"/><radialGradient id="radial-gradient-7" cx="-374.443" cy="532.34" r="2.053" gradientTransform="matrix(2.594, 1.334, 0.867, -1.684, 595.916, 1518.828)" xlink:href="#radial-gradient"/></defs><title>R-ICO-013681</title><path class="cls-1" d="M189.523,111.361a9.854,9.854,0,0,0-2.637-1.342,9.094,9.094,0,0,0-3.253-.1c-2.279.14-4.391.658-6.573-.28a11.084,11.084,0,0,1-4.592-3.509c-1.309-1.819-2.552-3.584-4.627-4.612a25.053,25.053,0,0,0,3.172-.06c1.08-.106,2.081-.549,3.136-.674a6.454,6.454,0,0,1,2.811.582,17.5,17.5,0,0,1,3.015,1.272c2.491,1.417,6.121,3.2,8.754.967.422-.357.867-1.105.212-1.472-.626-.351-1.531.353-2.051.607-1.855.906-3.77.405-5.518-.486-1.412-.72-2.615-1.737-4.2-2.071-.9-.189-1.8-.357-2.695-.533l.091-.079c1.487-1.277,2.893-2.484,3.123-4.368.175-1.434,3.145-1.178,3.738-1.113a.742.742,0,1,0,.164-1.475c-3.187-.354-5.146.524-5.376,2.408-.16,1.313-1.3,2.29-2.616,3.422-.459.393-.933.8-1.391,1.245a3.724,3.724,0,0,1-.921.372c-2.219.435-4.578-.4-6.663-1.07a5.06,5.06,0,0,0,2.459-1.955,16.025,16.025,0,0,0,2.979-7.587,8.277,8.277,0,0,1,2.81-1.3c1.651-.544,3.359-1.107,4.125-2.664A17.751,17.751,0,0,0,178.474,80,.742.742,0,0,0,177,79.87a16.453,16.453,0,0,1-1.325,4.956c-.49,1-1.834,1.44-3.256,1.909a13.88,13.88,0,0,0-2.463.99A4.411,4.411,0,0,0,169.6,86.7c-.269-.539-.574-1.079-.868-1.6-1.341-2.382-2.608-4.632-1.53-7.713a.742.742,0,0,0-1.4-.49c-1.3,3.714.261,6.486,1.638,8.932.3.53.58,1.031.833,1.537,1.211,2.421-1.06,7.171-2.976,9.619a13.256,13.256,0,0,1-3.4,1.468c.868-.831,1.53-1.916,1.257-4.644-.348-3.472-3.361-6.6-6.724-9.446A10.973,10.973,0,0,1,154.16,81.9a29.639,29.639,0,0,0-1.433-3.52c-.24-.48-.407-1.459-.991-1.563-.8-.143-1.281.815-1.158,1.471a8.206,8.206,0,0,0,1,2.041c.214.393.442.779.678,1.16a10.973,10.973,0,0,0,3.212,4.01c3.113,2.636,6.074,5.475,6.2,8.406.093,2.118-.292,3.875-1.81,4.8-1.071.655-2.789.631-4.024.821-1.474.226-2.949.448-4.413.733a25.773,25.773,0,0,0-12.95,6.779c-3.9,3.747-7.216,8.158-10.788,12.208a42.843,42.843,0,0,1-7.044,5.9,13.625,13.625,0,0,1-3.238,1.884,23.105,23.105,0,0,1-3.747,1.084c-3.085.687-6.214,1.65-9.416,1.207-2.4-.333-4.87-.856-7.223-1.423a32.085,32.085,0,0,1-5.946-2.334,15.805,15.805,0,0,1-6.137-4.6c-.737-.992-.717-2.793-.585-4A9.422,9.422,0,0,1,85,114.551c.436-1.116.943-2.39,1.324-3.4a6.6,6.6,0,0,1,2.792-3.682,3.084,3.084,0,0,1,4.248,3.579c-.274,1.107-1.264,1.588-2.019,2.117a3.071,3.071,0,0,0-1.165,3.214l.1-.009a4.462,4.462,0,0,1,1.595-2.734c.977-.956,2.822-1.6,4.083-.866,1.341.779,2.352,2.548,3.041,3.879a7.776,7.776,0,0,1,.81,3.738l.095.029c1.066-1.788-.072-3.651-.959-5.111,2.307,1,4.834.873,6.983,2.028-.264-1.514-2.926-1.64-4.059-1.852a10.523,10.523,0,0,1-3.067-.914,12.876,12.876,0,0,1-2.647-2.456c-1.36-1.408-2.365-3.548-.846-5.275,1.075-1.222,4.852-.443,4.831-.418a13.815,13.815,0,0,1,3.006.946,29.872,29.872,0,0,0,5.359,1.855c1.784.3,2.709,2.054,3.78,3.331.468.557,1.549,2.175,2.421,1.977a6.73,6.73,0,0,0-1.463-1.843c-1.19-1.089-1.832-2.541-3.2-3.491,1.577-.222,3.04-.944,4.612-1.148a7.717,7.717,0,0,1,3.028.365l.053-.084c-2.2-2.311-5.458.07-8.07.3a10.193,10.193,0,0,1-4.7-1.071,16.149,16.149,0,0,1-1.872-.9c-.173-.1-.588-.343-.66-.548-.165-.473.815-1.085,1.082-1.27a18.591,18.591,0,0,0,2.093-1.544,18.548,18.548,0,0,1,3.115-2.522,4.276,4.276,0,0,1,3.32-.408c.877.241,2.107.467,3.08.8l.053-.084a6.184,6.184,0,0,0-5.754-1.275c-2.808.9-4.313,3.891-7.086,4.874-.818.29-2.291.786-3.11.178-1.251-.93.113-2.861.491-3.844a17.655,17.655,0,0,0,.716-1.677c.175-.633.206-1.3.328-1.946a4.4,4.4,0,0,1,2.373-3.445l-.032-.1c-3.652.833-2.948,5.528-4.447,8.048a4.178,4.178,0,0,1-5.091,1.591c-1.946-.632-4.389-1.773-5.2-3.783s.191-4.549,1.321-6.234a17.831,17.831,0,0,1,4.173-4.208c3.648-2.7,8.2-4.76,12.815-4.319a16.9,16.9,0,0,1,6.824,2.258A10.639,10.639,0,0,0,119.164,89l0-.1a10.868,10.868,0,0,1-2.732-.765,13.071,13.071,0,0,1-1.276-.622c-.31-.172-1.258-.571-1.4-.889-.42-.929,2.35-2.389,2.726-3.291a19.98,19.98,0,0,1,1.16-2.092,2.736,2.736,0,0,1,1.366-.893l0-.1a2.4,2.4,0,0,0-2.585,1.6,4.234,4.234,0,0,1-1.8,2.086c-.464.316-1.1.955-1.646,1.037a10.245,10.245,0,0,1-2.53-.3,6.521,6.521,0,0,1-1.55-.489,5.245,5.245,0,0,1-1.785-.8,2.758,2.758,0,0,1-.687-2.585,38.814,38.814,0,0,0,1.606-4.526,6.657,6.657,0,0,1,.881-2.348,5.489,5.489,0,0,1,1.794-1.833c1.159-.656,2.8-.487,3.916-1.592l-.055-.083c-1.188.489-2.586.382-3.655.9a6.461,6.461,0,0,0-2.772,2.7,8.6,8.6,0,0,0-1.416-3.385,8.74,8.74,0,0,1-1.595-3.042c-.3-1.279.466-2.4.845-3.6a3.5,3.5,0,0,0-1.208,4.441c1,2.592,3.418,4.51,2.71,7.546a11.907,11.907,0,0,1-1.548,4.25,9.836,9.836,0,0,1-2.809,2.422c-1.437.885-3.908,2.21-5.617,1.8a1.915,1.915,0,0,1-1.459-2.174,6.1,6.1,0,0,0-1.194-3.573,5.507,5.507,0,0,1,.639-1.959c.424-.538,1.095-.659,1.632-1.036a7.622,7.622,0,0,0,.81-.849c.2-.186.426-.239.617-.454.314-.352.543-1.616-.184-1.65-.3-.013-1.028.781-1.084,1.1a3.767,3.767,0,0,1-.263,1.141c-.532.484-1.268.632-1.789,1.14a3.432,3.432,0,0,0-.85,1.937,5.931,5.931,0,0,1-1.193-3.119A3.853,3.853,0,0,1,94.2,72.046l-.069-.074c-.764.673-1.47.755-1.932,1.746a3.406,3.406,0,0,0,.354,3.44c.176.208.32.214.507.342a2.972,2.972,0,0,1,.606.632A7.9,7.9,0,0,1,95,80.284a5.11,5.11,0,0,1,.436,1.932,8.756,8.756,0,0,1-.823,3.344,4.255,4.255,0,0,1-2.7,2.312,12.588,12.588,0,0,1-8.4.254c-3.117-.945-7.866-6.558-7.754-6.58a11.024,11.024,0,0,1-.834-2.232c-.112-.509-.073-1.02-.176-1.524-.193-.944,1.222-1.908,1.792-2.467a10.781,10.781,0,0,1,.989-1.143c.068-.048.322-.03.439-.1.563-.354,1.009-.841,1.6-1.171.559-.313.44-.448,1.043-.7l-.021-.1a2.357,2.357,0,0,1-.644.006c-.051-.016-.038-.278-.089-.289a2.771,2.771,0,0,0-1.186.225A3.412,3.412,0,0,0,77.145,73.1c-.181.254-.092.362-.166.6a2.461,2.461,0,0,1-.607.925c-.707.758-2.165,2.059-3.282,1.925-1.425-.171-1.082-2.311-.987-3.282.226-2.336.591-6.64,3.261-7.547a14.4,14.4,0,0,1,4.5-.2,10.171,10.171,0,0,1,2.1.126,20.5,20.5,0,0,0,3.434.245,3.7,3.7,0,0,1,1.5.652,3.947,3.947,0,0,1,.916.686c-.145-.368.158-.632.071-1.026a1.715,1.715,0,0,0-1.176-1.143c-.33-.062-.356.06-.658.127a2.987,2.987,0,0,1-.806.087c-.673-.027-1.349.007-2.021-.022-.627-.027-1.966-.2-2.159-.97-.182-.728.9-.755,1.4-.909a24.67,24.67,0,0,0,2.644-.617c.779-.349,3.046-2.234,2.2-3.625-.761.654-1.685,1.445-2.447,2.227a4.221,4.221,0,0,1-.811.765c-.325.148-.657.283-.993.407a12.857,12.857,0,0,1-2.437.68,12.705,12.705,0,0,0-3.984.921c-.6.31-1.323,1.221-2.046.65a2,2,0,0,1-.424-1.619,10.479,10.479,0,0,1,.941-2.2c.16-.446.176-.916.313-1.358.157-.506.3-.541.7-.939a8.394,8.394,0,0,0,1.477-2.3c1.026-2.072,2.469-5.074.853-7.121a2.871,2.871,0,0,0-.005,1.948,6.1,6.1,0,0,1-.656,3.311c-.446,1.009-1.664,4.519-3.206,4.413-.886-.06-1.272-1.5-1.666-2.111-.542-.847-1.1-1.707-1.711-2.508a9.439,9.439,0,0,1-2-4.717h-.1a6.331,6.331,0,0,0,1.2,4.722,16.3,16.3,0,0,1,1.874,2.489,6.343,6.343,0,0,1,1.191,3.736A18.429,18.429,0,0,1,70.9,70.036c-.974,1.622-3.559-.576-4.577-1.4A6.675,6.675,0,0,1,63.917,65.6c-.478-1.342,0-2.8-.682-4.076l-.095.033c.4,1.978-.659,4.6,1.048,6.18,1.116,1.03,2.887,1.905,3.929,3.186a4.058,4.058,0,0,1,.8,2.532c-.032,1.2-1,2.18-1.657,3.122-1.178,1.7-2.672,3.946-4.885,4.314a21.938,21.938,0,0,1-6.951-.15,14.764,14.764,0,0,1-5.785-2.159c-4.221-2.877-.319-8.37,1.436-11.631,1.194-2.218,1.95-4.929,4.617-5.631a11.692,11.692,0,0,1,2.8-.256,1.3,1.3,0,0,0,1.457-1.025,23.751,23.751,0,0,1-3.216.482,5.759,5.759,0,0,0-3.252,1.185c.039-1.182.171-2.917-.845-3.771l-.08.058a5.42,5.42,0,0,1,.287,3.144,12.265,12.265,0,0,1-.354,1.3c-.052.167-1.3,3-1.934,4.187a7.562,7.562,0,0,0-1.787-2.522,7.385,7.385,0,0,1-1.246-1.367c-.212-.412-.054-.76-.267-1.267-.254-.606-1.075-1.376-1.34-.289a1.869,1.869,0,0,0,.265,1.258c.218.312.552.387.807.6a18.216,18.216,0,0,1,2.1,2.321,5.13,5.13,0,0,1,.829,1.3,1.4,1.4,0,0,1-.155,1.451,21.987,21.987,0,0,0-2.59,6.094c-.627-2.413-2.911-3.734-5.141-4.388a11.454,11.454,0,0,1-5.45-3.04c-.531-.593-.8-.874-.556-1.652a6.855,6.855,0,0,1,.525-1.3,9.413,9.413,0,0,1,1.22-1.491c.92-1.065,2.082-2.512,1.244-3.9-.528.359-.451,1.287-.565,1.719a3.54,3.54,0,0,1-.617,1.144c-.945,1.255-1.908,2.09-2.392,3.657a20.7,20.7,0,0,1-.792-3.608,7.247,7.247,0,0,0-2.578-4.081L32,57.346c2.264,2.481,1.662,6.11,3.347,8.842a8.936,8.936,0,0,0,3.924,3.251c1.324.612,2.767.881,4.08,1.485a5.612,5.612,0,0,1,3.216,3.383,2.454,2.454,0,0,1-.11,2.124c-.511.65-1.542.657-2.291.706a15.026,15.026,0,0,1-5.178-.378c-1.6-.473-2.507-1.836-3.418-3.141A9.747,9.747,0,0,0,33,71.048c-1.156-.74-3.284-1.651-4.484-.519l.049.086c2.069-.6,3.422.75,4.939,1.793,1.031.709,2.356,2.134,1.3,3.56-1.147,1.543-2.85,2.208-4.464,3.11A14.407,14.407,0,0,1,26.69,80.9,4.511,4.511,0,0,1,24,80.348l-.051.087a3.282,3.282,0,0,0,3.772.646c.22-.1.437-.206.654-.311,1.428-.688,2.973-1.3,4.342-2.1,1.522-.893,3.874-1.016,5.759-1.047,2.467-.04,4.96.332,6.8,2.188a12.456,12.456,0,0,1,3.444,6.85,11.538,11.538,0,0,1-1.813,8.133,12.869,12.869,0,0,1-5.37,5.249,6.918,6.918,0,0,1-7.148-.812,5.434,5.434,0,0,1-2.074-3.756c-.263-1.322-.512-3.307.444-4.4.87-1,5.92-4.022,3.809-5.526-.113.213.093.5-.007.8a3.581,3.581,0,0,1-.414.641,9.884,9.884,0,0,1-1.7,1.771,24.041,24.041,0,0,0-2.028,1.782,4,4,0,0,0-.906,2.932c.127-.979-1.925-1.59-2.608-1.743a4.449,4.449,0,0,0-3.986.706l.053.084c3.028-1.122,5.687.042,6.649,3.1a7.723,7.723,0,0,0,1.91,3.729,9.226,9.226,0,0,0,4.525,1.995c-.217.106-.2.9-.359,1.141a3.516,3.516,0,0,1-1.405,1.066,6.667,6.667,0,0,1-4.39.021c-.944-.285-1.879-.591-2.827-.861a14.4,14.4,0,0,0-2.249-.479,4.344,4.344,0,0,1-1.729-.291c-2.22-1.48-3.256-4.294-5.73-5.472a14.078,14.078,0,0,0-3.308-.955,4.65,4.65,0,0,0-2.483.091,3.468,3.468,0,0,0,2.367.67A8.25,8.25,0,0,1,19.082,97c2.249,1.062,3.529,3.554,5.354,5.166a4.616,4.616,0,0,0-2.481.588,6.123,6.123,0,0,0-1.658,1.805l.074.068a7.991,7.991,0,0,1,4.636-1.888,15.312,15.312,0,0,1,5.029.88c.57.173,1.136.361,1.706.533a6.028,6.028,0,0,0,1.112.235c.67.076.567.234.5.875a5.36,5.36,0,0,1-1.607,3.167,22.776,22.776,0,0,1-4.48,3.361c-.771.482-1.546.958-2.341,1.4a5.535,5.535,0,0,1-2.981.592,10.221,10.221,0,0,1-5.3-1.769c-1.542-1-.945-3.559-1.355-5.108a3.894,3.894,0,0,0-.911-1.823c-.86-.773-.572.449-.3.92a3.324,3.324,0,0,1,.7,1.769,12.124,12.124,0,0,0,.627,3.609A4.218,4.218,0,0,0,10,112.78l.065.075c1.918-1.048,3.517-1.729,5.6-.689,2.308,1.155,4.217,2.31,6.9,2.223-1.952,1.206-3.174,3.647-3.879,5.757a14.011,14.011,0,0,0-.671,2.5c-.133,1.179.452,2.291-.166,3.429l.081.06c1-1,.9-2.342.906-3.64a9.552,9.552,0,0,1,1.068-3.71c.611,1.3,2.18,1.787,2.7,3.174a1.667,1.667,0,0,1,.082.589,6.925,6.925,0,0,0,.123,1.384c1.344-.868.187-2.841-.644-3.684-.777-.788-2.315-1.493-1.551-2.755a7.554,7.554,0,0,1,1.718-2.2,20.017,20.017,0,0,1,2.9-1.564,9.521,9.521,0,0,1,3.479-1.2c.979-.125,1.448.052,1.854.782a5.642,5.642,0,0,0,1.781,2.33l.061-.08a3.055,3.055,0,0,1-.714-3.7c.266-.7.607-1.382.936-2.053.185-.376.821-1.117.824-1.4,3.178-2.572,7.178-4.186,10.963-5.659a5.493,5.493,0,0,1,7.019,2.6,13.444,13.444,0,0,1,.442,10.164,12.63,12.63,0,0,1-2.506,4.575,7.923,7.923,0,0,1-4.586,1.871,22.67,22.67,0,0,1-5.306-.232c-1.053-.105-3.519-.591-4.155.6,2.576-1.056,5.471.747,8.156.45.521-.057,1.851-.535,2.343-.171.8.588.449,2.2.206,2.912A14.08,14.08,0,0,1,41.1,131.96c-2.622,1.847-5.429.763-8.377.7-1.972-.041-3.664,1.617-4.859,3.254l.072.07a14.307,14.307,0,0,1,3.944-2.444,6.724,6.724,0,0,1,3.337-.129,9.116,9.116,0,0,0,4.473,0c.45-.146.975-.645,1.394-.438.393.2.424.9.42,1.258a12.017,12.017,0,0,1-.981,3.929,6.028,6.028,0,0,1-1.756,2.195c-1.612,1.49-2.983,2.811-2.616,5.212a14.361,14.361,0,0,1,1.393-3.029A22.379,22.379,0,0,1,40,140.066c1.835-1.82,1.437-4.561,2.449-6.717.53-1.13,1.645-2.726,3.059-2.48.912.159.926.644,1.375,1.386a12.3,12.3,0,0,0,1.324,1.8c.9,1.016,2.294,2,2.392,3.508a6.723,6.723,0,0,1-1.141,3.3l.079.064c.821-.791,1.957-1.955,1.8-3.207a6.484,6.484,0,0,0-1.167-2.525c1.666.36,4.277.9,5.186,2.521.3.533.205.908.643,1.45a2.1,2.1,0,0,0,1.677.819c-.095-.35-.858-.944-1.1-1.365s-.406-.622-.6-1.022a4.18,4.18,0,0,0-2.2-1.9,16.728,16.728,0,0,0-2.272-.8,7.27,7.27,0,0,1-2.3-.7,7.652,7.652,0,0,1-2.534-3.977c-.629-3.337,1.026-6.427,3.356-8.77.271-.273.6-.636.879-.668.624-.071.787.523,1.048,1.127.548,1.27.518,3.01,1.654,3.963l.078-.062A9.677,9.677,0,0,1,53,120.925a6.316,6.316,0,0,1,.672-3.507c1.742-2.7,5.208-2.707,8.027-2.433,2.417.234,5.167,1,6.641,3.093,1.8,2.554.4,6.033-2.106,7.453-.831.472-1.561.623-2.351,1.073a7.615,7.615,0,0,0-2.879,3.19l.081.06a18.665,18.665,0,0,1,3.706-2.808c.377-.226.381-.23.725-.458.49-.325,1.691-1.168,2.213-1.031,1.112.293,1.233,2.29,1.283,3.108a26.24,26.24,0,0,1-.428,5.82,15.922,15.922,0,0,1-4.258,8.65,11.136,11.136,0,0,0-2.28,3.374,7.959,7.959,0,0,0,.037,4.255l.1-.01a9.281,9.281,0,0,1,1.927-6.479c1.329-1.568,3.49-4.305,5.839-3.817,1.012,1.662,2.85,3.5,3.078,5.519-.171.134-.071.875-.11,1.206a17.346,17.346,0,0,1-.325,1.7c2.98-2.173-.4-6.022-1.736-8.123a22.568,22.568,0,0,1-1.6-2.883,2.683,2.683,0,0,1-.067-2.547,2.9,2.9,0,0,1,2.545-1.826l-.058-.106a8.87,8.87,0,0,1,2.677,3.488l.1-.014A3.07,3.07,0,0,0,73.4,134.17c-.936-.831-2.463-1.819-2.558-3.19a10.4,10.4,0,0,1,2.768-7.738,4.471,4.471,0,0,1,5.29-.876c2.9,1.469,5.511,3.446,8.332,5.048,4.746,1.772,14.848,6.22,24.7,3.594a33.989,33.989,0,0,0,12.206-5.546c4.54-3.451,8.076-8.216,11.618-12.635a21.786,21.786,0,0,1,3.026-3.41c1.056-.864,2.138-1.7,3.206-2.547a23.112,23.112,0,0,1,4.529-2.828,15.112,15.112,0,0,1,2.451-.763l4.282-1.189a19.393,19.393,0,0,1,2.557-.71,6.184,6.184,0,0,1,3.5.674,6.1,6.1,0,0,1,1.937,2.8c.748,2.23-.239,4.458-1.423,6.331-1.611,2.548-3.91,4.539-5.436,7.141a20.616,20.616,0,0,0-1.894,4.072c-.312.969-.951,2.555-.3,3.5.756,1.1,1.379-.316,1.536-1.034a30.085,30.085,0,0,1,.712-3.833,18.329,18.329,0,0,1,5-6.961,12.519,12.519,0,0,0,.849,3.981c.456,1,1.155,1.567.725,2.732-.673,1.826-2.14,3.631-2.016,5.676.037.613.141,1.482.741,1.809,1.36.739.765-1.814.727-2.3a2.856,2.856,0,0,1,.77-2.3,3.9,3.9,0,0,0,1.141-3.154,9.721,9.721,0,0,0,3.389,2.28c.713.269,3.2,1.114,3.366-.224.141-1.127-2.159-1.047-2.863-1.27a9.965,9.965,0,0,1-3.284-1.841,4.921,4.921,0,0,1-1.883-2.428,11.654,11.654,0,0,1-.212-3.786,11.527,11.527,0,0,1,1.272-4.352,5.4,5.4,0,0,0,.607-3.372c-.145-.9-.9-2.447-.485-3.294.555-1.138,2.377-.441,3.245-.118a12.169,12.169,0,0,1,5.138,3.92,7.786,7.786,0,0,1,1.8,6.512c-.618,2.982-2.12,6.211-.053,9,.633.852,2.295,2.75,3.518,2.43,1.6-.42-.6-1.947-1.015-2.307-1.243-1.071-2.256-2.06-2.379-3.781a11.5,11.5,0,0,1,.6-3.834,11.978,11.978,0,0,0,5.409,6.08c.916.505,6.937,2.534,6.532.4-.106-.556-.975-.752-1.42-.839-1.009-.2-2.039-.228-3.044-.472a9.912,9.912,0,0,1-3.94-1.994,9.454,9.454,0,0,1-2.567-3.372c-.715-1.565.125-3.265-.488-4.866,2.968,2.7,6.5,2.447,10.263,2.212a4.591,4.591,0,0,1,2.322.1,15.542,15.542,0,0,1,1.675,1.212c.459.321,1.036.718,1.629.48A.914.914,0,0,0,189.523,111.361Z" transform="translate(-10 -49.236)"/><path id="path1075" class="cls-2" d="M97.619,125.549c-3.5.624-3.281,5.421-2.2,6.326,1.214,1.136,4.8,1.981,7.395,1.881,3.32,0,3.655-4.654,2.235-5.992C103.88,126.344,99.191,125.431,97.619,125.549Z" transform="translate(-10 -49.236)"/><path id="path1079" class="cls-3" d="M108.182,126.774c-2.947,1.984-.809,6.284.545,6.676,1.57.549,5.194-.127,7.525-1.265,3.036-1.342,1.461-5.733-.378-6.384-1.643-.828-6.3.23-7.692.973Z" transform="translate(-10 -49.236)"/><path id="path1083" class="cls-4" d="M118.525,123.871c-1.871,3.019,1.848,6.061,3.243,5.863,1.657-.145,4.682-2.25,6.34-4.245,2.215-2.47-1.026-5.826-2.971-5.664-1.838-.08-5.65,2.8-6.612,4.046Z" transform="translate(-10 -49.236)"/><path id="path1087" class="cls-5" d="M126.748,116.357c-1.11,3.373,3.22,5.458,4.529,4.937,1.577-.529,4.023-3.284,5.166-5.613,1.573-2.921-2.367-5.422-4.219-4.808C130.418,111.226,127.39,114.918,126.748,116.357Z" transform="translate(-10 -49.236)"/><path id="path1091" class="cls-6" d="M135.009,107.058c-1.51,3.215,2.534,5.808,3.9,5.45,1.629-.335,4.391-2.774,5.807-4.947,1.916-2.709-1.691-5.669-3.6-5.283C139.274,102.41,135.82,105.708,135.009,107.058Z" transform="translate(-10 -49.236)"/><path id="path1095" class="cls-7" d="M146.5,99.266c-2.831,2.145-.455,6.319.919,6.634,1.6.46,5.178-.418,7.442-1.685,2.956-1.51,1.137-5.805-.735-6.352-1.687-.734-6.279.583-7.626,1.4Z" transform="translate(-10 -49.236)"/><path id="path1065" class="cls-8" d="M86.963,121.372c-3.553-.085-4.3,4.659-3.419,5.761.963,1.355,4.31,2.9,6.871,3.316,3.254.659,4.51-3.832,3.386-5.426-.861-1.625-5.274-3.453-6.838-3.651Z" transform="translate(-10 -49.236)"/></svg>