<svg id="Layer_1" data-name="Layer 1" xmlns="http://www.w3.org/2000/svg" xmlns:xlink="http://www.w3.org/1999/xlink" viewBox="0 0 10 106.597"><defs><style>.cls-1{fill:url(#linear-gradient);}.cls-2{fill:url(#linear-gradient-2);}.cls-3{fill:url(#linear-gradient-3);}.cls-4{mask:url(#mask);}.cls-5{fill:url(#radial-gradient);}.cls-6{mask:url(#mask-2);}.cls-7{fill:url(#radial-gradient-2);}</style><linearGradient id="linear-gradient" x1="1755.789" y1="-311.024" x2="1755.789" y2="-300.052" gradientTransform="translate(-1655.893 357.232)" gradientUnits="userSpaceOnUse"><stop offset="0" stop-color="#fff"/><stop offset="0.091" stop-color="#fafafa"/><stop offset="0.204" stop-color="#ebebeb"/><stop offset="0.326" stop-color="#d2d2d2"/><stop offset="0.457" stop-color="#afafaf"/><stop offset="0.593" stop-color="#838383"/><stop offset="0.735" stop-color="#4c4c4c"/><stop offset="0.878" stop-color="#0d0d0d"/><stop offset="0.905"/></linearGradient><linearGradient id="linear-gradient-2" x1="1755.789" y1="687.037" x2="1755.789" y2="698.008" gradientTransform="matrix(1, 0, 0, -1, -1655.893, 840.829)" xlink:href="#linear-gradient"/><linearGradient id="linear-gradient-3" x1="1750.893" y1="-257.232" x2="1760.893" y2="-257.232" gradientTransform="translate(-1655.893 357.232)" gradientUnits="userSpaceOnUse"><stop offset="0" stop-color="#368ee0"/><stop offset="0.305" stop-color="#a8d7e0"/><stop offset="0.583" stop-color="#7dbce0"/><stop offset="1" stop-color="#368ee0"/></linearGradient><mask id="mask" x="-0.59" y="-0.494" width="10.972" height="10.972" maskUnits="userSpaceOnUse"><g transform="translate(-95 -46.702)"><rect class="cls-1" x="94.41" y="46.208" width="10.972" height="10.972"/></g></mask><radialGradient id="radial-gradient" cx="1756.057" cy="-302.785" r="4.991" gradientTransform="translate(-1655.893 567.505) scale(1 1.694)" gradientUnits="userSpaceOnUse"><stop offset="0.075" stop-color="#a8d7e0"/><stop offset="0.629" stop-color="#61aae0"/><stop offset="1" stop-color="#368ee0"/></radialGradient><mask id="mask-2" x="-0.59" y="96.119" width="10.972" height="10.972" maskUnits="userSpaceOnUse"><g transform="translate(-95 -46.702)"><rect class="cls-2" x="94.41" y="142.821" width="10.972" height="10.972"/></g></mask><radialGradient id="radial-gradient-2" cx="1756.057" cy="695.275" r="4.991" gradientTransform="matrix(1, 0, 0, -1.694, -1655.893, 1323.671)" xlink:href="#radial-gradient"/></defs><title>RYK</title><g id="ROR2_RYK" data-name="ROR2/RYK"><path class="cls-3" d="M100,153.3a5,5,0,0,1-5-5V51.7a5,5,0,0,1,10,0v96.6A5,5,0,0,1,100,153.3Z" transform="translate(-95 -46.702)"/><g class="cls-4"><path class="cls-5" d="M95,56.732V51.7a5,5,0,0,1,10,0v5.031" transform="translate(-95 -46.702)"/></g><g class="cls-6"><path class="cls-7" d="M95,143.268V148.3a5,5,0,0,0,10,0v-5.031" transform="translate(-95 -46.702)"/></g></g></svg>