<svg id="Layer_1" data-name="Layer 1" xmlns="http://www.w3.org/2000/svg" xmlns:xlink="http://www.w3.org/1999/xlink" viewBox="0 0 92.275 92.255"><defs><style>.cls-1{fill:url(#radial-gradient);}.cls-2{fill:url(#radial-gradient-2);}.cls-3{fill:url(#radial-gradient-3);}</style><radialGradient id="radial-gradient" cx="4.044" cy="3.912" r="10.823" gradientUnits="userSpaceOnUse"><stop offset="0" stop-color="#c4d6ed"/><stop offset="0.5" stop-color="#2e6ecc"/><stop offset="1" stop-color="#143059"/></radialGradient><radialGradient id="radial-gradient-2" cx="4.044" cy="-2.838" r="10.823" xlink:href="#radial-gradient"/><radialGradient id="radial-gradient-3" cx="83.132" cy="81.109" r="71.716" gradientUnits="userSpaceOnUse"><stop offset="0.246" stop-color="#fff" stop-opacity="0"/><stop offset="0.332" stop-color="#e3ebf8" stop-opacity="0.054"/><stop offset="0.483" stop-color="#97b7e6" stop-opacity="0.199"/><stop offset="0.654" stop-color="#2e6ecc" stop-opacity="0.4"/><stop offset="1" stop-color="#143059"/></radialGradient><symbol id="New_Symbol" data-name="New Symbol" viewBox="0 0 13.5 13.5"><circle class="cls-1" cx="6.75" cy="6.75" r="6.75"/></symbol><symbol id="New_Symbol_1" data-name="New Symbol 1" viewBox="0 0 13.5 6.75"><path class="cls-2" d="M13.5,0A6.75,6.75,0,0,1,0,0Z"/></symbol></defs><title>HCMV</title><g id="R-ICO-013930"><g id="_7" data-name="7"><use width="13.5" height="13.5" transform="translate(85.302 42.641) scale(0.517)" xlink:href="#New_Symbol"/><use width="13.5" height="13.5" transform="translate(84.711 50.107) scale(0.517)" xlink:href="#New_Symbol"/><use width="13.5" height="13.5" transform="translate(82.896 57.044) scale(0.517)" xlink:href="#New_Symbol"/><use width="13.5" height="13.5" transform="translate(79.595 63.952) scale(0.517)" xlink:href="#New_Symbol"/><use width="13.5" height="13.5" transform="translate(75.442 69.911) scale(0.517)" xlink:href="#New_Symbol"/><use width="13.5" height="13.5" transform="translate(70.094 75.285) scale(0.517)" xlink:href="#New_Symbol"/><use width="13.5" height="13.5" transform="translate(64.16 79.466) scale(0.517)" xlink:href="#New_Symbol"/><use width="13.5" height="13.5" transform="translate(57.326 82.681) scale(0.517)" xlink:href="#New_Symbol"/><use width="13.5" height="13.5" transform="translate(50.251 84.697) scale(0.517)" xlink:href="#New_Symbol"/><use width="13.5" height="13.5" transform="translate(42.661 85.282) scale(0.517)" xlink:href="#New_Symbol"/><use width="13.5" height="13.5" transform="translate(35.207 84.625) scale(0.517)" xlink:href="#New_Symbol"/><use width="13.5" height="13.5" transform="translate(28.289 82.787) scale(0.517)" xlink:href="#New_Symbol"/><use width="13.5" height="13.5" transform="translate(21.35 79.575) scale(0.517)" xlink:href="#New_Symbol"/><use width="13.5" height="13.5" transform="translate(15.384 75.432) scale(0.517)" xlink:href="#New_Symbol"/><use width="13.5" height="13.5" transform="translate(10.016 70.074) scale(0.517)" xlink:href="#New_Symbol"/><use width="13.5" height="13.5" transform="translate(5.836 64.14) scale(0.517)" xlink:href="#New_Symbol"/><use width="13.5" height="13.5" transform="translate(2.621 57.306) scale(0.517)" xlink:href="#New_Symbol"/><use width="13.5" height="13.5" transform="translate(0.698 50.215) scale(0.517)" xlink:href="#New_Symbol"/><use width="13.5" height="13.5" transform="translate(0 42.641) scale(0.517)" xlink:href="#New_Symbol"/><use width="13.5" height="13.5" transform="translate(0.64 35.18) scale(0.517)" xlink:href="#New_Symbol"/><use width="13.5" height="13.5" transform="translate(2.515 28.27) scale(0.517)" xlink:href="#New_Symbol"/><use width="13.5" height="13.5" transform="translate(5.71 21.321) scale(0.517)" xlink:href="#New_Symbol"/><use width="13.5" height="13.5" transform="translate(9.879 15.371) scale(0.517)" xlink:href="#New_Symbol"/><use width="13.5" height="13.5" transform="translate(15.236 10.006) scale(0.517)" xlink:href="#New_Symbol"/><use width="13.5" height="13.5" transform="translate(21.162 5.816) scale(0.517)" xlink:href="#New_Symbol"/><use width="13.5" height="13.5" transform="translate(27.954 2.485) scale(0.517)" xlink:href="#New_Symbol"/><use width="13.5" height="13.5" transform="translate(35.083 0.657) scale(0.517)" xlink:href="#New_Symbol"/><use width="13.5" height="13.5" transform="translate(42.661 0) scale(0.517)" xlink:href="#New_Symbol"/><use width="13.5" height="13.5" transform="translate(50.115 0.657) scale(0.517)" xlink:href="#New_Symbol"/><use width="13.5" height="13.5" transform="translate(57.036 2.485) scale(0.517)" xlink:href="#New_Symbol"/><use width="13.5" height="13.5" transform="translate(63.974 5.703) scale(0.517)" xlink:href="#New_Symbol"/><use width="13.5" height="13.5" transform="translate(69.936 9.853) scale(0.517)" xlink:href="#New_Symbol"/><use width="13.5" height="13.5" transform="translate(75.307 15.206) scale(0.517)" xlink:href="#New_Symbol"/><use width="13.5" height="13.5" transform="translate(79.492 21.139) scale(0.517)" xlink:href="#New_Symbol"/><use width="13.5" height="13.5" transform="translate(82.706 27.974) scale(0.517)" xlink:href="#New_Symbol"/><use width="13.5" height="13.5" transform="translate(84.634 35.066) scale(0.517)" xlink:href="#New_Symbol"/></g><g id="_6" data-name="6"><use width="13.5" height="13.5" transform="translate(82.832 38.358) scale(0.6)" xlink:href="#New_Symbol"/><use width="13.5" height="13.5" transform="translate(81.594 31.503) scale(0.6)" xlink:href="#New_Symbol"/><use width="13.5" height="13.5" transform="translate(79.036 24.635) scale(0.6)" xlink:href="#New_Symbol"/><use width="13.5" height="13.5" transform="translate(75.603 18.698) scale(0.6)" xlink:href="#New_Symbol"/><use width="13.5" height="13.5" transform="translate(70.97 13.229) scale(0.6)" xlink:href="#New_Symbol"/><use width="13.5" height="13.5" transform="translate(65.398 8.54) scale(0.6)" xlink:href="#New_Symbol"/><use width="13.5" height="13.5" transform="translate(59.282 5.059) scale(0.6)" xlink:href="#New_Symbol"/><use width="13.5" height="13.5" transform="translate(52.477 2.615) scale(0.6)" xlink:href="#New_Symbol"/><use width="13.5" height="13.5" transform="translate(45.631 1.417) scale(0.6)" xlink:href="#New_Symbol"/><use width="13.5" height="13.5" transform="translate(38.368 1.417) scale(0.6)" xlink:href="#New_Symbol"/><use width="13.5" height="13.5" transform="translate(31.522 2.615) scale(0.6)" xlink:href="#New_Symbol"/><use width="13.5" height="13.5" transform="translate(24.647 5.176) scale(0.6)" xlink:href="#New_Symbol"/><use width="13.5" height="13.5" transform="translate(18.717 8.615) scale(0.6)" xlink:href="#New_Symbol"/><use width="13.5" height="13.5" transform="translate(13.223 13.217) scale(0.6)" xlink:href="#New_Symbol"/><use width="13.5" height="13.5" transform="translate(8.541 18.797) scale(0.6)" xlink:href="#New_Symbol"/><use width="13.5" height="13.5" transform="translate(5.034 24.902) scale(0.6)" xlink:href="#New_Symbol"/><use width="13.5" height="13.5" transform="translate(2.583 31.712) scale(0.6)" xlink:href="#New_Symbol"/><use width="13.5" height="13.5" transform="translate(1.372 38.564) scale(0.6)" xlink:href="#New_Symbol"/><use width="13.5" height="13.5" transform="translate(1.372 45.835) scale(0.6)" xlink:href="#New_Symbol"/><use width="13.5" height="13.5" transform="translate(2.61 52.69) scale(0.6)" xlink:href="#New_Symbol"/><use width="13.5" height="13.5" transform="translate(5.115 59.583) scale(0.6)" xlink:href="#New_Symbol"/><use width="13.5" height="13.5" transform="translate(8.551 65.53) scale(0.6)" xlink:href="#New_Symbol"/><use width="13.5" height="13.5" transform="translate(13.163 71.036) scale(0.6)" xlink:href="#New_Symbol"/><use width="13.5" height="13.5" transform="translate(18.745 75.742) scale(0.6)" xlink:href="#New_Symbol"/><use width="13.5" height="13.5" transform="translate(24.867 79.254) scale(0.6)" xlink:href="#New_Symbol"/><use width="13.5" height="13.5" transform="translate(31.697 81.693) scale(0.6)" xlink:href="#New_Symbol"/><use width="13.5" height="13.5" transform="translate(38.563 82.9) scale(0.6)" xlink:href="#New_Symbol"/><use width="13.5" height="13.5" transform="translate(45.847 82.9) scale(0.6)" xlink:href="#New_Symbol"/><use width="13.5" height="13.5" transform="translate(52.714 81.656) scale(0.6)" xlink:href="#New_Symbol"/><use width="13.5" height="13.5" transform="translate(59.602 79.111) scale(0.6)" xlink:href="#New_Symbol"/><use width="13.5" height="13.5" transform="translate(65.54 75.654) scale(0.6)" xlink:href="#New_Symbol"/><use width="13.5" height="13.5" transform="translate(71.039 71.034) scale(0.6)" xlink:href="#New_Symbol"/><use width="13.5" height="13.5" transform="translate(75.717 65.432) scale(0.6)" xlink:href="#New_Symbol"/><use width="13.5" height="13.5" transform="translate(79.23 59.318) scale(0.6)" xlink:href="#New_Symbol"/><use width="13.5" height="13.5" transform="translate(81.7 52.502) scale(0.6)" xlink:href="#New_Symbol"/><use width="13.5" height="13.5" transform="translate(82.832 45.629) scale(0.6)" xlink:href="#New_Symbol"/><use width="13.5" height="6.75" transform="translate(82.832 42.407) scale(0.6)" xlink:href="#New_Symbol_1"/></g><g id="_5" data-name="5"><use width="13.5" height="13.5" transform="translate(78.195 34.874) scale(0.688)" xlink:href="#New_Symbol"/><use width="13.5" height="13.5" transform="translate(76.552 28.66) scale(0.688)" xlink:href="#New_Symbol"/><use width="13.5" height="13.5" transform="translate(73.667 22.72) scale(0.688)" xlink:href="#New_Symbol"/><use width="13.5" height="13.5" transform="translate(70.028 17.528) scale(0.688)" xlink:href="#New_Symbol"/><use width="13.5" height="13.5" transform="translate(65.308 12.883) scale(0.688)" xlink:href="#New_Symbol"/><use width="13.5" height="13.5" transform="translate(60.096 9.278) scale(0.688)" xlink:href="#New_Symbol"/><use width="13.5" height="13.5" transform="translate(54.063 6.42) scale(0.688)" xlink:href="#New_Symbol"/><use width="13.5" height="13.5" transform="translate(48.012 4.857) scale(0.688)" xlink:href="#New_Symbol"/><use width="13.5" height="13.5" transform="translate(41.507 4.26) scale(0.688)" xlink:href="#New_Symbol"/><use width="13.5" height="13.5" transform="translate(34.892 4.841) scale(0.688)" xlink:href="#New_Symbol"/><use width="13.5" height="13.5" transform="translate(28.703 6.535) scale(0.688)" xlink:href="#New_Symbol"/><use width="13.5" height="13.5" transform="translate(22.698 9.278) scale(0.688)" xlink:href="#New_Symbol"/><use width="13.5" height="13.5" transform="translate(17.538 12.973) scale(0.688)" xlink:href="#New_Symbol"/><use width="13.5" height="13.5" transform="translate(12.893 17.693) scale(0.688)" xlink:href="#New_Symbol"/><use width="13.5" height="13.5" transform="translate(9.198 22.854) scale(0.688)" xlink:href="#New_Symbol"/><use width="13.5" height="13.5" transform="translate(6.394 28.926) scale(0.688)" xlink:href="#New_Symbol"/><use width="13.5" height="13.5" transform="translate(4.765 34.972) scale(0.688)" xlink:href="#New_Symbol"/><use width="13.5" height="13.5" transform="translate(4.204 41.496) scale(0.688)" xlink:href="#New_Symbol"/><use width="13.5" height="13.5" transform="translate(4.765 48.127) scale(0.688)" xlink:href="#New_Symbol"/><use width="13.5" height="13.5" transform="translate(6.42 54.347) scale(0.688)" xlink:href="#New_Symbol"/><use width="13.5" height="13.5" transform="translate(9.209 60.351) scale(0.688)" xlink:href="#New_Symbol"/><use width="13.5" height="13.5" transform="translate(12.906 65.531) scale(0.688)" xlink:href="#New_Symbol"/><use width="13.5" height="13.5" transform="translate(17.649 70.176) scale(0.688)" xlink:href="#New_Symbol"/><use width="13.5" height="13.5" transform="translate(22.857 73.818) scale(0.688)" xlink:href="#New_Symbol"/><use width="13.5" height="13.5" transform="translate(28.909 76.688) scale(0.688)" xlink:href="#New_Symbol"/><use width="13.5" height="13.5" transform="translate(34.968 78.33) scale(0.688)" xlink:href="#New_Symbol"/><use width="13.5" height="13.5" transform="translate(41.507 78.867) scale(0.688)" xlink:href="#New_Symbol"/><use width="13.5" height="13.5" transform="translate(48.138 78.234) scale(0.688)" xlink:href="#New_Symbol"/><use width="13.5" height="13.5" transform="translate(54.361 76.59) scale(0.688)" xlink:href="#New_Symbol"/><use width="13.5" height="13.5" transform="translate(60.367 73.8) scale(0.688)" xlink:href="#New_Symbol"/><use width="13.5" height="13.5" transform="translate(65.552 70.108) scale(0.688)" xlink:href="#New_Symbol"/><use width="13.5" height="13.5" transform="translate(70.197 65.361) scale(0.688)" xlink:href="#New_Symbol"/><use width="13.5" height="13.5" transform="translate(73.875 60.171) scale(0.688)" xlink:href="#New_Symbol"/><use width="13.5" height="13.5" transform="translate(76.649 54.075) scale(0.688)" xlink:href="#New_Symbol"/><use width="13.5" height="13.5" transform="translate(78.308 48.029) scale(0.688)" xlink:href="#New_Symbol"/><use width="13.5" height="13.5" transform="translate(78.811 41.496) scale(0.688)" xlink:href="#New_Symbol"/><use width="13.5" height="6.75" transform="translate(78.195 39.518) scale(0.688)" xlink:href="#New_Symbol_1"/></g><g id="_4" data-name="4"><use width="13.5" height="13.5" transform="translate(73.543 37.721) scale(0.81)" xlink:href="#New_Symbol"/><use width="13.5" height="13.5" transform="translate(71.555 29.372) scale(0.81)" xlink:href="#New_Symbol"/><use width="13.5" height="13.5" transform="translate(67.481 21.965) scale(0.81)" xlink:href="#New_Symbol"/><use width="13.5" height="13.5" transform="translate(61.585 15.559) scale(0.81)" xlink:href="#New_Symbol"/><use width="13.5" height="13.5" transform="translate(54.381 11.162) scale(0.81)" xlink:href="#New_Symbol"/><use width="13.5" height="13.5" transform="translate(46.38 8.634) scale(0.81)" xlink:href="#New_Symbol"/><use width="13.5" height="13.5" transform="translate(37.733 8.449) scale(0.81)" xlink:href="#New_Symbol"/><use width="13.5" height="13.5" transform="translate(29.589 10.366) scale(0.81)" xlink:href="#New_Symbol"/><use width="13.5" height="13.5" transform="translate(22.131 14.104) scale(0.81)" xlink:href="#New_Symbol"/><use width="13.5" height="13.5" transform="translate(15.732 19.914) scale(0.81)" xlink:href="#New_Symbol"/><use width="13.5" height="13.5" transform="translate(11.346 27.065) scale(0.81)" xlink:href="#New_Symbol"/><use width="13.5" height="13.5" transform="translate(8.644 34.987) scale(0.81)" xlink:href="#New_Symbol"/><use width="13.5" height="13.5" transform="translate(8.156 43.663) scale(0.81)" xlink:href="#New_Symbol"/><use width="13.5" height="13.5" transform="translate(9.998 51.918) scale(0.81)" xlink:href="#New_Symbol"/><use width="13.5" height="13.5" transform="translate(13.834 59.477) scale(0.81)" xlink:href="#New_Symbol"/><use width="13.5" height="13.5" transform="translate(19.684 65.93) scale(0.81)" xlink:href="#New_Symbol"/><use width="13.5" height="13.5" transform="translate(26.879 70.454) scale(0.81)" xlink:href="#New_Symbol"/><use width="13.5" height="13.5" transform="translate(34.913 73.219) scale(0.81)" xlink:href="#New_Symbol"/><use width="13.5" height="13.5" transform="translate(43.714 73.608) scale(0.81)" xlink:href="#New_Symbol"/><use width="13.5" height="13.5" transform="translate(52.102 71.832) scale(0.81)" xlink:href="#New_Symbol"/><use width="13.5" height="13.5" transform="translate(59.714 67.75) scale(0.81)" xlink:href="#New_Symbol"/><use width="13.5" height="13.5" transform="translate(66.22 61.913) scale(0.81)" xlink:href="#New_Symbol"/><use width="13.5" height="13.5" transform="translate(70.652 54.608) scale(0.81)" xlink:href="#New_Symbol"/><use width="13.5" height="13.5" transform="translate(73.244 46.442) scale(0.81)" xlink:href="#New_Symbol"/><use width="13.5" height="6.75" transform="translate(73.543 43.19) scale(0.81)" xlink:href="#New_Symbol_1"/></g><g id="_3" data-name="3"><use width="13.5" height="13.5" transform="translate(65.735 46.128) scale(0.926)" xlink:href="#New_Symbol"/><use width="13.5" height="13.5" transform="translate(65.735 35.295) scale(0.926)" xlink:href="#New_Symbol"/><use width="13.5" height="13.5" transform="translate(61.869 25.567) scale(0.926)" xlink:href="#New_Symbol"/><use width="13.5" height="13.5" transform="translate(54.213 18.178) scale(0.926)" xlink:href="#New_Symbol"/><use width="13.5" height="13.5" transform="translate(44.359 14.261) scale(0.926)" xlink:href="#New_Symbol"/><use width="13.5" height="13.5" transform="translate(33.851 14.759) scale(0.926)" xlink:href="#New_Symbol"/><use width="13.5" height="13.5" transform="translate(24.485 19.178) scale(0.926)" xlink:href="#New_Symbol"/><use width="13.5" height="13.5" transform="translate(17.816 26.536) scale(0.926)" xlink:href="#New_Symbol"/><use width="13.5" height="13.5" transform="translate(13.884 36.428) scale(0.926)" xlink:href="#New_Symbol"/><use width="13.5" height="13.5" transform="translate(14.737 46.628) scale(0.926)" xlink:href="#New_Symbol"/><use width="13.5" height="13.5" transform="translate(18.859 56.044) scale(0.926)" xlink:href="#New_Symbol"/><use width="13.5" height="13.5" transform="translate(25.73 62.743) scale(0.926)" xlink:href="#New_Symbol"/><use width="13.5" height="13.5" transform="translate(34.963 65.893) scale(0.926)" xlink:href="#New_Symbol"/><use width="13.5" height="13.5" transform="translate(44.7 65.896) scale(0.926)" xlink:href="#New_Symbol"/><use width="13.5" height="13.5" transform="translate(54.004 62.639) scale(0.926)" xlink:href="#New_Symbol"/><use width="13.5" height="13.5" transform="translate(61.296 55.775) scale(0.926)" xlink:href="#New_Symbol"/><use width="13.5" height="6.75" transform="translate(65.735 52.378) scale(0.926)" xlink:href="#New_Symbol_1"/></g><g id="_2" data-name="2"><use width="13.5" height="13.5" transform="translate(58.574 33.208) scale(0.963)" xlink:href="#New_Symbol"/><use width="13.5" height="13.5" transform="translate(52.296 24.428) scale(0.963)" xlink:href="#New_Symbol"/><use width="13.5" height="13.5" transform="translate(42.294 20.261) scale(0.963)" xlink:href="#New_Symbol"/><use width="13.5" height="13.5" transform="translate(32.271 21.674) scale(0.963)" xlink:href="#New_Symbol"/><use width="13.5" height="13.5" transform="translate(24.37 27.414) scale(0.963)" xlink:href="#New_Symbol"/><use width="13.5" height="13.5" transform="translate(20.285 36.742) scale(0.963)" xlink:href="#New_Symbol"/><use width="13.5" height="13.5" transform="translate(21.492 47.15) scale(0.963)" xlink:href="#New_Symbol"/><use width="13.5" height="13.5" transform="translate(27.722 55.525) scale(0.963)" xlink:href="#New_Symbol"/><use width="13.5" height="13.5" transform="translate(37.08 59.553) scale(0.963)" xlink:href="#New_Symbol"/><use width="13.5" height="13.5" transform="translate(47.463 58.246) scale(0.963)" xlink:href="#New_Symbol"/><use width="13.5" height="13.5" transform="translate(55.119 52.494) scale(0.963)" xlink:href="#New_Symbol"/><use width="13.5" height="13.5" transform="translate(59.324 43.786) scale(0.963)" xlink:href="#New_Symbol"/><use width="13.5" height="6.75" transform="translate(58.574 39.708) scale(0.963)" xlink:href="#New_Symbol_1"/></g><g id="_1" data-name="1"><use width="13.5" height="13.5" transform="translate(50.95 39.378)" xlink:href="#New_Symbol"/><use width="13.5" height="13.5" transform="translate(47.324 31.455)" xlink:href="#New_Symbol"/><use width="13.5" height="13.5" transform="translate(39.402 28.373)" xlink:href="#New_Symbol"/><use width="13.5" height="13.5" transform="translate(31.63 31.606)" xlink:href="#New_Symbol"/><use width="13.5" height="13.5" transform="translate(28.317 39.378)" xlink:href="#New_Symbol"/><use width="13.5" height="13.5" transform="translate(31.359 47.42)" xlink:href="#New_Symbol"/><use width="13.5" height="13.5" transform="translate(39.402 51.006)" xlink:href="#New_Symbol"/><use width="13.5" height="13.5" transform="translate(47.678 47.654)" xlink:href="#New_Symbol"/><use width="13.5" height="6.75" transform="translate(50.95 46.128)" xlink:href="#New_Symbol_1"/><use id="TOP" width="13.5" height="13.5" transform="translate(39.402 39.378)" xlink:href="#New_Symbol"/></g><path id="SHADE" class="cls-3" d="M144.517,104.994a4.026,4.026,0,0,0,.277-1.443,4.108,4.108,0,0,0-.076-.757,3.462,3.462,0,0,0-.032-5.614,3.876,3.876,0,0,0-.176-2.365,3.459,3.459,0,0,0-.964-5.491,4.01,4.01,0,0,0-.61-2.03,3.471,3.471,0,0,0-2-5.32,4.01,4.01,0,0,0-.929-2.04,3.456,3.456,0,0,0-2.761-4.881,4.041,4.041,0,0,0-1.236-1.6,3.436,3.436,0,0,0,.13-.89,3.487,3.487,0,0,0-3.487-3.486c-.1,0-.2.021-.3.03a4.049,4.049,0,0,0-1.626-1.539,3.288,3.288,0,0,0,.036-.358,3.439,3.439,0,0,0-4.384-3.355,4.017,4.017,0,0,0-1.615-1.162,3.449,3.449,0,0,0-4.947-2.769,4.005,4.005,0,0,0-2.072-.938,3.464,3.464,0,0,0-5.4-1.97,4.014,4.014,0,0,0-1.762-.51,3.471,3.471,0,0,0-5.609-.942,3.735,3.735,0,0,0-2.127-.208,3.479,3.479,0,0,0-5.72.027,3.855,3.855,0,0,0-2.244.163,3.473,3.473,0,0,0-5.589.953,4.006,4.006,0,0,0-1.922.562A3.467,3.467,0,0,0,81.9,59.115a4.008,4.008,0,0,0-1.933.9,3.454,3.454,0,0,0-4.9,2.789,4.05,4.05,0,0,0-1.575,1.209,3.45,3.45,0,0,0-.9-.133A3.487,3.487,0,0,0,69.1,67.365c0,.095.021.185.028.278a4.041,4.041,0,0,0-1.567,1.634c-.111-.01-.218-.033-.331-.033a3.441,3.441,0,0,0-3.356,4.379A4.028,4.028,0,0,0,62.7,75.23a3.449,3.449,0,0,0-2.78,4.933,4.015,4.015,0,0,0-.964,2.115A3.466,3.466,0,0,0,57,87.615a4,4,0,0,0-.536,1.8A3.474,3.474,0,0,0,55.523,95a3.817,3.817,0,0,0-.218,2.183,3.468,3.468,0,0,0,.041,5.66,3.854,3.854,0,0,0,.164,2.348,3.458,3.458,0,0,0,.969,5.476,4.007,4.007,0,0,0,.6,2.046,3.473,3.473,0,0,0,1.95,5.289,4.009,4.009,0,0,0,.946,2.134,3.473,3.473,0,0,0,2.729,4.8,4.032,4.032,0,0,0,1.278,1.695,3.455,3.455,0,0,0,3.384,4.289c.061,0,.118-.015.178-.018a4.044,4.044,0,0,0,1.726,1.663c-.005.076-.023.148-.023.226a3.461,3.461,0,0,0,4.263,3.392,4.034,4.034,0,0,0,1.756,1.269,3.475,3.475,0,0,0,4.783,2.7,4.018,4.018,0,0,0,2.278,1.031,3.46,3.46,0,0,0,5.2,1.891,4.016,4.016,0,0,0,1.987.584,3.451,3.451,0,0,0,5.384.9,4.044,4.044,0,0,0,2.387.238,3.45,3.45,0,0,0,5.495-.052,3.806,3.806,0,0,0,2.439-.148,3.459,3.459,0,0,0,5.482-.97,4.021,4.021,0,0,0,2.113-.642A3.456,3.456,0,0,0,118,141.033a4.012,4.012,0,0,0,2.192-.983,3.467,3.467,0,0,0,4.752-2.716,4.053,4.053,0,0,0,1.708-1.3,3.442,3.442,0,0,0,.792.1,3.486,3.486,0,0,0,3.486-3.486c0-.057-.014-.111-.017-.167a4.04,4.04,0,0,0,1.66-1.744c.074,0,.144.022.219.022a3.457,3.457,0,0,0,3.387-4.279,4.035,4.035,0,0,0,1.238-1.728,3.47,3.47,0,0,0,2.729-4.815,4.009,4.009,0,0,0,.993-2.175,3.469,3.469,0,0,0,1.974-5.333,4,4,0,0,0,.536-1.874,3.469,3.469,0,0,0,.868-5.558Z" transform="translate(-53.862 -53.872)"/></g></svg>