<svg id="Layer_1" data-name="Layer 1" xmlns="http://www.w3.org/2000/svg" xmlns:xlink="http://www.w3.org/1999/xlink" viewBox="0 0 63.629 71.947"><defs><style>.cls-1{fill:url(#radial-gradient);}.cls-2{fill:url(#radial-gradient-2);}.cls-3{fill:url(#radial-gradient-3);}.cls-4{mask:url(#mask);}.cls-5,.cls-7{opacity:0.5;}.cls-5{fill:url(#radial-gradient-4);}.cls-6{mask:url(#mask-2);}.cls-7{fill:url(#radial-gradient-5);}.cls-8{fill:url(#radial-gradient-6);}</style><radialGradient id="radial-gradient" cx="110.957" cy="810.827" r="76.352" gradientTransform="translate(22.444 -84.843) scale(0.689 0.269)" gradientUnits="userSpaceOnUse"><stop offset="0.478" stop-color="#fff"/><stop offset="0.48" stop-color="#fcfcfc"/><stop offset="0.539" stop-color="#bababa"/><stop offset="0.597" stop-color="#828282"/><stop offset="0.652" stop-color="#535353"/><stop offset="0.705" stop-color="#2f2f2f"/><stop offset="0.754" stop-color="#151515"/><stop offset="0.798" stop-color="#050505"/><stop offset="0.833"/></radialGradient><radialGradient id="radial-gradient-2" cx="155.262" cy="472.541" r="61.39" gradientTransform="translate(-56.502 -138.315) scale(1 0.418)" gradientUnits="userSpaceOnUse"><stop offset="0.631"/><stop offset="1" stop-color="#fff"/></radialGradient><radialGradient id="radial-gradient-3" cx="110.538" cy="724.563" r="107.694" gradientTransform="translate(22.444 -249.397) scale(0.689 0.456)" gradientUnits="userSpaceOnUse"><stop offset="0" stop-color="#3eaaf7"/><stop offset="0.097" stop-color="#229aef"/><stop offset="0.203" stop-color="#098be9"/><stop offset="0.268" stop-color="#0086e6"/><stop offset="0.473" stop-color="#1592ec"/><stop offset="0.809" stop-color="#33a4f4"/><stop offset="1" stop-color="#3eaaf7"/></radialGradient><mask id="mask" x="-2.158" y="41.727" width="67.858" height="33.433" maskUnits="userSpaceOnUse"><g transform="translate(-67.483 -62.754)"><rect class="cls-1" x="65.325" y="104.481" width="67.858" height="33.433"/></g></mask><radialGradient id="radial-gradient-4" cx="111.109" cy="727.45" r="49.026" gradientTransform="translate(22.444 -38.601) scale(0.689 0.22)" gradientUnits="userSpaceOnUse"><stop offset="0.474" stop-color="#b4cdde" stop-opacity="0"/><stop offset="0.505" stop-color="#b4cedf" stop-opacity="0.027"/><stop offset="0.55" stop-color="#b5cfe1" stop-opacity="0.103"/><stop offset="0.604" stop-color="#b7d2e4" stop-opacity="0.228"/><stop offset="0.663" stop-color="#b9d5e8" stop-opacity="0.401"/><stop offset="0.728" stop-color="#bcd9ee" stop-opacity="0.624"/><stop offset="0.796" stop-color="#c0dff4" stop-opacity="0.891"/><stop offset="0.821" stop-color="#c1e1f7"/><stop offset="0.837" stop-color="#c1e0f6" stop-opacity="0.969"/><stop offset="0.861" stop-color="#bfdff4" stop-opacity="0.884"/><stop offset="0.89" stop-color="#bedcf1" stop-opacity="0.744"/><stop offset="0.924" stop-color="#bbd8ec" stop-opacity="0.55"/><stop offset="0.961" stop-color="#b8d3e6" stop-opacity="0.301"/><stop offset="1" stop-color="#b4cdde" stop-opacity="0"/></radialGradient><mask id="mask-2" x="-3.797" y="-3.624" width="70.609" height="29.536" maskUnits="userSpaceOnUse"><g transform="translate(-67.483 -62.754)"><rect class="cls-2" x="63.686" y="59.13" width="70.609" height="29.536"/></g></mask><radialGradient id="radial-gradient-5" cx="111.109" cy="658.064" r="47.454" gradientTransform="translate(22.444 -86.828) scale(0.689 0.247)" xlink:href="#radial-gradient-4"/><radialGradient id="radial-gradient-6" cx="111.316" cy="717.189" r="22.928" gradientTransform="translate(22.444 -133.21) scale(0.689 0.293)" gradientUnits="userSpaceOnUse"><stop offset="0.631" stop-color="#184361"/><stop offset="0.699" stop-color="#1a4869" stop-opacity="0.95"/><stop offset="0.778" stop-color="#1f577e" stop-opacity="0.804"/><stop offset="0.862" stop-color="#2970a3" stop-opacity="0.562"/><stop offset="0.95" stop-color="#3593d5" stop-opacity="0.226"/><stop offset="1" stop-color="#3eaaf7" stop-opacity="0"/></radialGradient></defs><title>translocon</title><g id="translocon"><path class="cls-3" d="M131.112,73.648c0-7.088-14.244-10.894-31.815-10.894S67.483,66.827,67.483,73.648,73.16,82.515,73.16,98.67s-5.676,17.934-5.676,25.022S81.727,134.7,99.3,134.7s31.815-4.188,31.815-11.009-5.676-8.763-5.676-25.022S131.112,80.736,131.112,73.648Z" transform="translate(-67.483 -62.754)"/><g class="cls-4"><path class="cls-5" d="M131.112,121.518c0-8.217-14.244-11.689-31.815-11.689S67.483,113.3,67.483,121.518,81.727,132.886,99.3,132.886,131.112,129.736,131.112,121.518Z" transform="translate(-67.483 -62.754)"/></g><g class="cls-6"><path class="cls-7" d="M131.112,75.637c0-8.217-14.244-11.378-31.815-11.378S67.483,67.42,67.483,75.637,81.727,87.1,99.3,87.1,131.112,83.854,131.112,75.637Z" transform="translate(-67.483 -62.754)"/></g><path class="cls-8" d="M109.406,73.224c0-2.389-4.525-3.638-10.108-3.638S89.19,70.834,89.19,73.224s4.525,3.638,10.108,3.638S109.406,75.613,109.406,73.224Z" transform="translate(-67.483 -62.754)"/></g></svg>