<svg id="Layer_1" data-name="Layer 1" xmlns="http://www.w3.org/2000/svg" xmlns:xlink="http://www.w3.org/1999/xlink" viewBox="0 0 69 176.373"><defs><style>.cls-1{fill:url(#linear-gradient);}.cls-2{fill:url(#linear-gradient-2);}.cls-3{fill:url(#linear-gradient-3);}.cls-4{fill:url(#linear-gradient-4);}.cls-5{fill:url(#radial-gradient);}.cls-6{fill:url(#linear-gradient-5);}.cls-7{mask:url(#mask);}.cls-8{fill:url(#radial-gradient-2);}.cls-9{mask:url(#mask-2);}.cls-10{fill:url(#radial-gradient-3);}.cls-11{fill:#1a1a5b;}.cls-12{fill:url(#radial-gradient-4);}.cls-13{fill:url(#linear-gradient-6);}.cls-14{mask:url(#mask-3);}.cls-15{fill:url(#radial-gradient-5);}.cls-16{mask:url(#mask-4);}.cls-17{fill:url(#radial-gradient-6);}</style><linearGradient id="linear-gradient" x1="6.228" y1="629.527" x2="6.228" y2="638.329" gradientTransform="matrix(1, 0, 0, -1, 101.772, 699.332)" gradientUnits="userSpaceOnUse"><stop offset="0"/><stop offset="0.217" stop-color="#4a4a4a"/><stop offset="0.427" stop-color="#8b8b8b"/><stop offset="0.617" stop-color="#bdbdbd"/><stop offset="0.781" stop-color="#e1e1e1"/><stop offset="0.914" stop-color="#f7f7f7"/><stop offset="1" stop-color="#fff"/></linearGradient><linearGradient id="linear-gradient-2" x1="79.772" y1="17.738" x2="79.772" y2="26.54" gradientTransform="matrix(-1, 0, 0, 1, 187.772, 161.114)" xlink:href="#linear-gradient"/><linearGradient id="linear-gradient-3" x1="63.772" y1="-177.724" x2="63.772" y2="-168.922" gradientTransform="matrix(-1, 0, 0, 1, 155.772, 356.576)" xlink:href="#linear-gradient"/><linearGradient id="linear-gradient-4" x1="-9.865" y1="629.527" x2="-9.865" y2="638.48" gradientTransform="matrix(1, 0, 0, -1, 101.772, 699.332)" gradientUnits="userSpaceOnUse"><stop offset="0"/><stop offset="0.332" stop-color="#636363"/><stop offset="0.722" stop-color="#d2d2d2"/><stop offset="0.895" stop-color="#fff"/></linearGradient><radialGradient id="radial-gradient" cx="60.348" cy="-321.296" r="38.82" gradientTransform="matrix(-1, 0, 0, 1, 155.772, 356.576)" gradientUnits="userSpaceOnUse"><stop offset="0.737"/><stop offset="1" stop-color="#d2d2d2"/></radialGradient><linearGradient id="linear-gradient-5" x1="52.745" y1="-232.248" x2="42.666" y2="-232.248" gradientTransform="matrix(-1, 0, 0, 1, 155.772, 356.576)" gradientUnits="userSpaceOnUse"><stop offset="0"/><stop offset="1" stop-color="#d2d2d2"/></linearGradient><mask id="mask" x="37.5" y="49.157" width="10.101" height="8.858" maskUnits="userSpaceOnUse"><g transform="translate(-65.5 -11.814)"><path class="cls-1" d="M113,69.829V65.971a5,5,0,0,0-10,0v3.858"/></g></mask><radialGradient id="radial-gradient-2" cx="9.429" cy="632.129" r="6.944" gradientTransform="matrix(1, 0, 0, -1.014, 101.772, 707.89)" gradientUnits="userSpaceOnUse"><stop offset="0" stop-color="#d2d2d2"/><stop offset="0.368" stop-color="#797979"/><stop offset="0.67" stop-color="#383838"/><stop offset="0.888" stop-color="#0f0f0f"/><stop offset="1"/></radialGradient><mask id="mask-2" x="37.5" y="167.015" width="10" height="8.733" maskUnits="userSpaceOnUse"><g transform="translate(-65.5 -11.814)"><path class="cls-2" d="M103,178.828v3.858a5,5,0,0,0,10,0v-3.858"/></g></mask><radialGradient id="radial-gradient-3" cx="79.513" cy="11.739" r="6.848" gradientTransform="matrix(-1, 0, 0, 2.266, 187.772, 146.247)" gradientUnits="userSpaceOnUse"><stop offset="0" stop-color="#d2d2d2"/><stop offset="0.368" stop-color="#797979"/><stop offset="0.669" stop-color="#383838"/><stop offset="0.887" stop-color="#0f0f0f"/><stop offset="0.999"/></radialGradient><radialGradient id="radial-gradient-4" cx="51.542" cy="-321.329" r="38.891" gradientTransform="matrix(-1, 0, 0, 1, 155.772, 356.576)" gradientUnits="userSpaceOnUse"><stop offset="0.698" stop-color="#d2d2d2"/><stop offset="1"/></radialGradient><linearGradient id="linear-gradient-6" x1="68.745" y1="-232.248" x2="58.666" y2="-232.248" xlink:href="#linear-gradient-5"/><mask id="mask-3" x="21.5" y="167.015" width="10" height="8.733" maskUnits="userSpaceOnUse"><g transform="translate(-65.5 -11.814)"><path class="cls-3" d="M87,178.828v3.858a5,5,0,0,0,10,0v-3.858"/></g></mask><radialGradient id="radial-gradient-5" cx="63.513" cy="-183.723" r="6.848" gradientTransform="matrix(-1, 0, 0, 2.266, 155.772, 589.26)" xlink:href="#radial-gradient-2"/><mask id="mask-4" x="21.314" y="49.133" width="10.186" height="8.882" maskUnits="userSpaceOnUse"><g transform="translate(-65.5 -11.814)"><path class="cls-4" d="M97,69.829V65.971a5.066,5.066,0,0,0-5-5.025A5.173,5.173,0,0,0,86.814,65.9L87,69.829"/></g></mask><radialGradient id="radial-gradient-6" cx="-10.316" cy="624.101" r="6.848" gradientTransform="matrix(1, 0, 0, -2.266, 101.772, 1489.752)" gradientUnits="userSpaceOnUse"><stop offset="0"/><stop offset="0.161" stop-color="#292929"/><stop offset="0.461" stop-color="#717171"/><stop offset="0.71" stop-color="#a5a5a5"/><stop offset="0.897" stop-color="#c6c6c6"/><stop offset="1" stop-color="#d2d2d2"/></radialGradient></defs><title>ILR_Unknown</title><g id="ILR_Unknown"><path class="cls-5" d="M108,187.561a5,5,0,0,0,5-5V69.238a34.118,34.118,0,0,0,11.042-7.381,34,34,0,0,0,0-48.083,5,5,0,1,0-7.071,7.071,24.01,24.01,0,0,1-10.132,39.981l-.26.077A5,5,0,0,0,103,65.7V182.561A5,5,0,0,0,108,187.561Z" transform="translate(-65.5 -11.814)"/><path class="cls-6" d="M108,187.561a4.938,4.938,0,0,0,5-4.875V65.971a5,5,0,0,0-10,0V182.686A4.938,4.938,0,0,0,108,187.561Z" transform="translate(-65.5 -11.814)"/><g class="cls-7"><path class="cls-8" d="M113,69.829l.1-3.972a5.037,5.037,0,0,0-5.1-4.887,4.766,4.766,0,0,0-5,5v3.858" transform="translate(-65.5 -11.814)"/></g><g class="cls-9"><path class="cls-10" d="M103,178.828v3.858a5,5,0,0,0,10,0v-3.858" transform="translate(-65.5 -11.814)"/></g><path class="cls-11" d="M102.5,182.686V65.7a5.533,5.533,0,0,1,3.936-5.273l.26-.077A23.5,23.5,0,0,0,116.617,21.2a5.5,5.5,0,1,1,7.778-7.778,34.513,34.513,0,0,1-10.9,56.15V182.686a5.5,5.5,0,0,1-11,0ZM117.324,14.128a4.5,4.5,0,0,0,0,6.364A24.51,24.51,0,0,1,106.98,61.307l-.26.077A4.526,4.526,0,0,0,103.5,65.7V182.686a4.5,4.5,0,0,0,9,0V68.9l.309-.128A33.851,33.851,0,0,0,123.688,61.5a33.5,33.5,0,0,0,0-47.375,4.508,4.508,0,0,0-6.364,0Z" transform="translate(-65.5 -11.814)"/><path class="cls-12" d="M92,187.561a5,5,0,0,1-5-5V69.238a34.118,34.118,0,0,1-11.042-7.381,34,34,0,0,1,0-48.083,5,5,0,0,1,7.071,7.071A24.01,24.01,0,0,0,93.162,60.827l.26.077A5,5,0,0,1,97,65.7V182.561A5,5,0,0,1,92,187.561Z" transform="translate(-65.5 -11.814)"/><path class="cls-13" d="M92,187.561a4.938,4.938,0,0,0,5-4.875V65.971a5,5,0,0,0-10,0V182.686A4.938,4.938,0,0,0,92,187.561Z" transform="translate(-65.5 -11.814)"/><g class="cls-14"><path class="cls-15" d="M87,178.828v3.858a5,5,0,0,0,10,0v-3.858" transform="translate(-65.5 -11.814)"/></g><g class="cls-16"><path class="cls-17" d="M97,69.829V65.971a5,5,0,0,0-10,0v3.267" transform="translate(-65.5 -11.814)"/></g><path class="cls-11" d="M86.5,182.561V69.571a34.505,34.505,0,0,1-10.9-56.15A5.5,5.5,0,0,1,83.383,21.2,23.509,23.509,0,0,0,93.3,60.348l.259.077A5.533,5.533,0,0,1,97.5,65.7V182.561a5.5,5.5,0,0,1-11,0ZM76.312,14.128a33.5,33.5,0,0,0,0,47.375,33.851,33.851,0,0,0,10.879,7.273l.309.128V182.561a4.5,4.5,0,0,0,9,0V65.7a4.526,4.526,0,0,0-3.221-4.314l-.259-.077A24.5,24.5,0,0,1,82.676,20.492a4.5,4.5,0,0,0-6.364-6.364Z" transform="translate(-65.5 -11.814)"/></g></svg>