<svg id="Layer_1" data-name="Layer 1" xmlns="http://www.w3.org/2000/svg" viewBox="0 0 62.66 23.086"><defs><style>.cls-1{fill:#e0a734;}.cls-2{fill:#997d0b;}</style></defs><title>protein_formation</title><path class="cls-1" d="M94.906,110.188a5,5,0,0,1-3.6-1.53l-6.442-6.683-6.4,6.484a5,5,0,0,1-7.117-7.024l10-10.133a4.828,4.828,0,0,1,3.588-1.488,5,5,0,0,1,3.571,1.53l6.4,6.64,6.4-6.64a5,5,0,0,1,7.2,0l6.465,6.708,6.586-6.586a5,5,0,1,1,7.071,7.071l-10.187,10.188a4.95,4.95,0,0,1-3.582,1.464,5,5,0,0,1-3.554-1.53l-6.4-6.64-6.4,6.64A5,5,0,0,1,94.906,110.188Z" transform="translate(-68.399 -88.313)"/><path class="cls-2" d="M94.906,110.338a5.185,5.185,0,0,1-3.2-1.067,15.475,15.475,0,0,1-1.226-1.161l-1.192-1.161c-1.579-1.557-3.2-3.072-4.821-4.59l.793,0-4.649,5.292-1.162,1.323a9,9,0,0,1-.7.72,6.482,6.482,0,0,1-.867.645,6.225,6.225,0,0,1-8.029-1.41,6.314,6.314,0,0,1-1.455-4.217,6.468,6.468,0,0,1,1.662-4.182l2.475-2.584,4.942-5,2.494-2.478.328-.321c.135-.132.278-.256.423-.378a6.7,6.7,0,0,1,.944-.645,6.219,6.219,0,0,1,2.184-.749,6.609,6.609,0,0,1,4.365.893,6.541,6.541,0,0,1,.91.674c.142.125.276.258.407.393l.3.322,1.2,1.284q2.409,2.562,4.781,5.159H93.993l4.742-4.657,1.2-1.151.6-.575a6.648,6.648,0,0,1,.744-.63,5.9,5.9,0,0,1,3.683-1.1,5.775,5.775,0,0,1,3.509,1.362,14.267,14.267,0,0,1,1.211,1.266l1.112,1.235q2.23,2.464,4.518,4.873l-.674-.006q2.53-2.472,5-5.009l1.231-1.27a6.53,6.53,0,0,1,1.443-1.237,5.729,5.729,0,0,1,7.308,1.131,5.962,5.962,0,0,1,.014,7.76c-.459.534-.816.9-1.229,1.352l-1.207,1.294q-2.433,2.57-4.934,5.071c-.823.844-1.675,1.659-2.521,2.481a7.837,7.837,0,0,1-1.62,1.311,5.868,5.868,0,0,1-2.088.73,5.985,5.985,0,0,1-5.042-1.516,8.488,8.488,0,0,1-.675-.725l-1.158-1.34-4.626-5.367h.754c-1.61,1.513-3.225,3.022-4.793,4.575l-1.184,1.157a14.867,14.867,0,0,1-1.217,1.158A5.183,5.183,0,0,1,94.906,110.338Zm0-.3a4.854,4.854,0,0,0,2.963-1.048,32.285,32.285,0,0,0,2.264-2.377c1.495-1.624,2.943-3.293,4.4-4.958l.338-.387.417.387,5.193,4.82,1.3,1.207a6.365,6.365,0,0,0,.588.512,4.079,4.079,0,0,0,3.228.694,4.125,4.125,0,0,0,1.207-.5,5.265,5.265,0,0,0,1.08-.956c.822-.845,1.637-1.7,2.481-2.521q2.5-2.505,5.071-4.934l2.547-2.375a3.883,3.883,0,0,0,1.142-2.492,4.15,4.15,0,0,0-.779-2.736,4.317,4.317,0,0,0-2.463-1.622,4.207,4.207,0,0,0-3.011.411,5.419,5.419,0,0,0-1.28,1l-1.27,1.231q-2.534,2.468-5.009,5l-.333.341-.34-.347q-2.325-2.373-4.7-4.694l-1.193-1.157a13.476,13.476,0,0,0-1.155-1.063,4.219,4.219,0,0,0-2.635-.824,4.118,4.118,0,0,0-2.5.966,4.7,4.7,0,0,0-.485.485l-.553.62L100.3,93.953l-4.479,4.91-.861.944-.966-.944Q91.478,96.4,89.013,93.9l-1.239-1.248-.308-.31c-.076-.072-.152-.144-.232-.21a3.576,3.576,0,0,0-2.916-.768,3.172,3.172,0,0,0-1.109.423,3.622,3.622,0,0,0-.494.361c-.076.07-.153.14-.225.216l-.292.3L79.752,95.19,74.815,100.2l-2.45,2.435a3.389,3.389,0,0,0-.936,2.191,3.621,3.621,0,0,0,.684,2.326,3.772,3.772,0,0,0,2.066,1.4,3.862,3.862,0,0,0,2.578-.245,4.2,4.2,0,0,0,.59-.335,6.5,6.5,0,0,0,.585-.483l1.308-1.18,5.231-4.718.442-.4.351.4c1.458,1.674,2.912,3.352,4.41,4.987.749.8,1.472,1.7,2.266,2.395A4.844,4.844,0,0,0,94.906,110.038Z" transform="translate(-68.399 -88.313)"/></svg>