<svg id="Layer_1" data-name="Layer 1" xmlns="http://www.w3.org/2000/svg" xmlns:xlink="http://www.w3.org/1999/xlink" viewBox="0 0 52.863 181.663"><defs><style>.cls-1{fill:url(#linear-gradient);}.cls-2{fill:url(#linear-gradient-2);}.cls-3{fill:url(#linear-gradient-3);}.cls-4{fill:url(#linear-gradient-4);}.cls-5{fill:url(#linear-gradient-5);}.cls-6{fill:url(#linear-gradient-6);}.cls-7{fill:url(#linear-gradient-7);}.cls-8{fill:url(#linear-gradient-8);}.cls-9{fill:url(#linear-gradient-9);}.cls-10{fill:url(#linear-gradient-10);}.cls-11{fill:url(#linear-gradient-11);}.cls-12{fill:url(#linear-gradient-12);}.cls-13{fill:url(#linear-gradient-13);}.cls-14{fill:url(#linear-gradient-14);}.cls-15{fill:url(#linear-gradient-15);}.cls-16{fill:url(#linear-gradient-16);}.cls-17{fill:url(#linear-gradient-17);}.cls-18{fill:url(#linear-gradient-18);}.cls-19{fill:url(#linear-gradient-19);}.cls-20{fill:url(#radial-gradient);}.cls-21{fill:url(#radial-gradient-2);}.cls-22{fill:url(#radial-gradient-3);}.cls-23{fill:url(#radial-gradient-4);}.cls-24{fill:url(#linear-gradient-20);}.cls-25{fill:url(#radial-gradient-5);}.cls-26{fill:url(#radial-gradient-6);}.cls-27{fill:url(#radial-gradient-7);}.cls-28{fill:url(#radial-gradient-8);}.cls-29{fill:url(#linear-gradient-21);}.cls-30{fill:url(#radial-gradient-9);}.cls-31{fill:url(#radial-gradient-10);}.cls-32{fill:url(#radial-gradient-11);}.cls-33{fill:url(#radial-gradient-12);}.cls-34{fill:url(#linear-gradient-22);}.cls-35{fill:url(#radial-gradient-13);}.cls-36{fill:url(#radial-gradient-14);}.cls-37{fill:url(#radial-gradient-15);}.cls-38{fill:url(#radial-gradient-16);}.cls-39{fill:url(#linear-gradient-23);}.cls-40{fill:url(#radial-gradient-17);}.cls-41{fill:url(#radial-gradient-18);}.cls-42{fill:url(#radial-gradient-19);}.cls-43{fill:url(#radial-gradient-20);}.cls-44{fill:url(#linear-gradient-24);}.cls-45{fill:url(#radial-gradient-21);}.cls-46{fill:url(#radial-gradient-22);}.cls-47{fill:url(#radial-gradient-23);}.cls-48{fill:url(#radial-gradient-24);}</style><linearGradient id="linear-gradient" x1="313.489" y1="630.185" x2="339.871" y2="630.185" gradientTransform="translate(-224.121 -458.223) rotate(0.554)" gradientUnits="userSpaceOnUse"><stop offset="0" stop-color="#fcdbdb"/><stop offset="0.257" stop-color="#fce5e5"/><stop offset="1" stop-color="#b88181"/></linearGradient><linearGradient id="linear-gradient-2" x1="52.763" y1="52.221" x2="38.696" y2="74.353" gradientTransform="translate(24.501 130.923) rotate(-31.568)" gradientUnits="userSpaceOnUse"><stop offset="0" stop-color="#fcdbdb"/><stop offset="1" stop-color="#b88181"/></linearGradient><linearGradient id="linear-gradient-3" x1="322.56" y1="612.124" x2="330.801" y2="612.124" gradientTransform="translate(-224.121 -458.223) rotate(0.554)" gradientUnits="userSpaceOnUse"><stop offset="0" stop-color="#b0c3fc"/><stop offset="0.015" stop-color="#b5c7fc"/><stop offset="0.109" stop-color="#cfdbfc"/><stop offset="0.192" stop-color="#dfe7fc"/><stop offset="0.257" stop-color="#e5ebfc"/><stop offset="0.345" stop-color="#dfe6fa"/><stop offset="0.464" stop-color="#ced7f3"/><stop offset="0.6" stop-color="#b1bfe8"/><stop offset="0.75" stop-color="#899dd8"/><stop offset="0.909" stop-color="#5772c5"/><stop offset="1" stop-color="#3757b8"/></linearGradient><linearGradient id="linear-gradient-4" x1="313.489" y1="594.696" x2="339.871" y2="594.696" xlink:href="#linear-gradient"/><linearGradient id="linear-gradient-5" x1="313.489" y1="580.878" x2="339.871" y2="580.878" gradientTransform="translate(677.81 -200.896) rotate(90)" xlink:href="#linear-gradient-2"/><linearGradient id="linear-gradient-6" x1="315.394" y1="522.429" x2="316.468" y2="522.429" gradientTransform="translate(-224.121 -458.223) rotate(0.554)" gradientUnits="userSpaceOnUse"><stop offset="0" stop-color="#d7a8a8"/><stop offset="1" stop-color="#b88181"/></linearGradient><linearGradient id="linear-gradient-7" x1="318.977" y1="521.676" x2="320.052" y2="521.676" xlink:href="#linear-gradient-6"/><linearGradient id="linear-gradient-8" x1="322.56" y1="520.923" x2="323.635" y2="520.923" xlink:href="#linear-gradient-6"/><linearGradient id="linear-gradient-9" x1="326.143" y1="520.547" x2="327.217" y2="520.547" xlink:href="#linear-gradient-6"/><linearGradient id="linear-gradient-10" x1="329.726" y1="520.923" x2="330.801" y2="520.923" xlink:href="#linear-gradient-6"/><linearGradient id="linear-gradient-11" x1="333.309" y1="521.676" x2="334.384" y2="521.676" xlink:href="#linear-gradient-6"/><linearGradient id="linear-gradient-12" x1="336.892" y1="522.429" x2="337.966" y2="522.429" xlink:href="#linear-gradient-6"/><linearGradient id="linear-gradient-13" x1="335.1" y1="523.935" x2="336.175" y2="523.935" gradientTransform="translate(-224.121 -458.223) rotate(0.554)" xlink:href="#linear-gradient-2"/><linearGradient id="linear-gradient-14" x1="317.185" y1="523.935" x2="318.26" y2="523.935" gradientTransform="translate(-224.121 -458.223) rotate(0.554)" xlink:href="#linear-gradient-2"/><linearGradient id="linear-gradient-15" x1="320.768" y1="525.064" x2="321.843" y2="525.064" gradientTransform="translate(-224.121 -458.223) rotate(0.554)" xlink:href="#linear-gradient-2"/><linearGradient id="linear-gradient-16" x1="331.517" y1="525.064" x2="332.592" y2="525.064" gradientTransform="translate(-224.121 -458.223) rotate(0.554)" xlink:href="#linear-gradient-2"/><linearGradient id="linear-gradient-17" x1="327.934" y1="525.817" x2="329.009" y2="525.817" gradientTransform="translate(-224.121 -458.223) rotate(0.554)" xlink:href="#linear-gradient-2"/><linearGradient id="linear-gradient-18" x1="324.351" y1="525.817" x2="325.426" y2="525.817" gradientTransform="translate(-224.121 -458.223) rotate(0.554)" xlink:href="#linear-gradient-2"/><linearGradient id="linear-gradient-19" x1="339.65" y1="506.053" x2="341.341" y2="506.797" gradientTransform="translate(-224.121 -458.223) rotate(0.554)" gradientUnits="userSpaceOnUse"><stop offset="0" stop-color="#803f3f"/><stop offset="0.031" stop-color="#8f4b4b"/><stop offset="0.115" stop-color="#b16767"/><stop offset="0.2" stop-color="#cc7d7d"/><stop offset="0.287" stop-color="#e08d8d"/><stop offset="0.375" stop-color="#eb9696"/><stop offset="0.467" stop-color="#ef9999"/><stop offset="0.612" stop-color="#d58484"/><stop offset="0.92" stop-color="#924e4e"/><stop offset="1" stop-color="#803f3f"/></linearGradient><radialGradient id="radial-gradient" cx="815.756" cy="552.598" r="5.867" gradientTransform="translate(69.437 -1052.021) rotate(45.554) scale(1 1.358)" gradientUnits="userSpaceOnUse"><stop offset="0.343" stop-color="#3f8045"/><stop offset="0.364" stop-color="#4b8f51"/><stop offset="0.421" stop-color="#67b16d"/><stop offset="0.48" stop-color="#7dcc82"/><stop offset="0.538" stop-color="#8de092"/><stop offset="0.598" stop-color="#96eb9b"/><stop offset="0.661" stop-color="#99ef9e"/><stop offset="0.753" stop-color="#84d589"/><stop offset="0.949" stop-color="#4e9254"/><stop offset="1" stop-color="#3f8045"/></radialGradient><radialGradient id="radial-gradient-2" cx="813.665" cy="550.507" r="5.867" gradientTransform="translate(68.902 -1051.496) rotate(45.554) scale(1 1.358)" xlink:href="#radial-gradient"/><radialGradient id="radial-gradient-3" cx="344.125" cy="498.909" r="8.084" gradientTransform="translate(612.233 -302.899) rotate(90)" gradientUnits="userSpaceOnUse"><stop offset="0" stop-color="#efcae9"/><stop offset="0.05" stop-color="#e6bfe2"/><stop offset="0.257" stop-color="#c696c9"/><stop offset="0.46" stop-color="#ad76b5"/><stop offset="0.655" stop-color="#9b5fa7"/><stop offset="0.839" stop-color="#90529f"/><stop offset="1" stop-color="#8c4d9c"/></radialGradient><radialGradient id="radial-gradient-4" cx="347.812" cy="496.533" r="5.096" gradientTransform="matrix(1, 0.01, -0.016, 1.633, -221.085, -772.406)" gradientUnits="userSpaceOnUse"><stop offset="0.413" stop-color="#8a7229"/><stop offset="0.414" stop-color="#8b732a"/><stop offset="0.486" stop-color="#b69c4b"/><stop offset="0.551" stop-color="#d5b963"/><stop offset="0.605" stop-color="#e8cb72"/><stop offset="0.643" stop-color="#efd277"/><stop offset="0.691" stop-color="#e9cc72"/><stop offset="0.756" stop-color="#d8bc65"/><stop offset="0.831" stop-color="#bca250"/><stop offset="0.911" stop-color="#957d32"/><stop offset="0.933" stop-color="#8a7229"/></radialGradient><linearGradient id="linear-gradient-20" x1="339.65" y1="529.712" x2="341.341" y2="530.456" xlink:href="#linear-gradient-19"/><radialGradient id="radial-gradient-5" cx="832.486" cy="569.328" r="5.867" gradientTransform="translate(73.717 -1056.218) rotate(45.554) scale(1 1.358)" xlink:href="#radial-gradient"/><radialGradient id="radial-gradient-6" cx="830.395" cy="567.237" r="5.867" gradientTransform="translate(73.182 -1055.694) rotate(45.554) scale(1 1.358)" xlink:href="#radial-gradient"/><radialGradient id="radial-gradient-7" cx="343.869" cy="522.629" r="8.084" gradientTransform="translate(635.663 -279.241) rotate(90)" xlink:href="#radial-gradient-3"/><radialGradient id="radial-gradient-8" cx="347.812" cy="520.192" r="5.096" gradientTransform="matrix(1, 0.01, -0.016, 1.633, -220.94, -787.376)" xlink:href="#radial-gradient-4"/><linearGradient id="linear-gradient-21" x1="339.65" y1="553.371" x2="341.341" y2="554.115" xlink:href="#linear-gradient-19"/><radialGradient id="radial-gradient-9" cx="849.215" cy="586.057" r="5.867" gradientTransform="translate(77.996 -1060.416) rotate(45.554) scale(1 1.358)" xlink:href="#radial-gradient"/><radialGradient id="radial-gradient-10" cx="847.124" cy="583.966" r="5.867" gradientTransform="translate(77.461 -1059.891) rotate(45.554) scale(1 1.358)" xlink:href="#radial-gradient"/><radialGradient id="radial-gradient-11" cx="343.703" cy="546.273" r="8.084" gradientTransform="translate(659.094 -255.583) rotate(90)" xlink:href="#radial-gradient-3"/><radialGradient id="radial-gradient-12" cx="347.812" cy="543.851" r="5.096" gradientTransform="matrix(1, 0.01, -0.016, 1.633, -220.796, -802.347)" xlink:href="#radial-gradient-4"/><linearGradient id="linear-gradient-22" x1="841.596" y1="506.053" x2="843.287" y2="506.797" gradientTransform="matrix(-1, -0.01, -0.01, 1, 931.231, -447.06)" xlink:href="#linear-gradient-19"/><radialGradient id="radial-gradient-13" cx="1170.686" cy="197.669" r="5.867" gradientTransform="matrix(-0.714, 0.7, 0.951, 0.97, 738.257, -955.626)" gradientUnits="userSpaceOnUse"><stop offset="0.343" stop-color="#3f5280"/><stop offset="0.364" stop-color="#4b5f8f"/><stop offset="0.421" stop-color="#677db1"/><stop offset="0.48" stop-color="#7d94cc"/><stop offset="0.538" stop-color="#8da5e0"/><stop offset="0.598" stop-color="#96afeb"/><stop offset="0.661" stop-color="#99b2ef"/><stop offset="0.753" stop-color="#849bd5"/><stop offset="0.949" stop-color="#4e6292"/><stop offset="1" stop-color="#3f5280"/></radialGradient><radialGradient id="radial-gradient-14" cx="1168.594" cy="195.578" r="5.867" gradientTransform="matrix(-0.714, 0.7, 0.951, 0.97, 738.782, -955.091)" xlink:href="#radial-gradient-13"/><radialGradient id="radial-gradient-15" cx="846.969" cy="498.812" r="8.084" gradientTransform="matrix(0, -1, -1, 0, 576.544, 887.851)" xlink:href="#radial-gradient-3"/><radialGradient id="radial-gradient-16" cx="849.758" cy="496.533" r="5.096" gradientTransform="matrix(-1, -0.01, -0.016, 1.633, 934.266, -761.243)" xlink:href="#radial-gradient-4"/><linearGradient id="linear-gradient-23" x1="841.596" y1="529.712" x2="843.287" y2="530.456" gradientTransform="matrix(-1, -0.01, -0.01, 1, 931.231, -447.06)" xlink:href="#linear-gradient-19"/><radialGradient id="radial-gradient-17" cx="1187.415" cy="214.398" r="5.867" gradientTransform="matrix(-0.714, 0.7, 0.951, 0.97, 734.059, -959.905)" xlink:href="#radial-gradient-13"/><radialGradient id="radial-gradient-18" cx="1185.324" cy="212.307" r="5.867" gradientTransform="matrix(-0.714, 0.7, 0.951, 0.97, 734.584, -959.37)" xlink:href="#radial-gradient-13"/><radialGradient id="radial-gradient-19" cx="846.893" cy="522.561" r="8.084" gradientTransform="matrix(0, -1, -1, 0, 599.975, 911.509)" xlink:href="#radial-gradient-3"/><radialGradient id="radial-gradient-20" cx="849.758" cy="520.192" r="5.096" gradientTransform="matrix(-1, -0.01, -0.016, 1.633, 934.411, -776.213)" xlink:href="#radial-gradient-4"/><linearGradient id="linear-gradient-24" x1="841.596" y1="553.371" x2="843.287" y2="554.115" gradientTransform="matrix(-1, -0.01, -0.01, 1, 931.231, -447.06)" xlink:href="#linear-gradient-19"/><radialGradient id="radial-gradient-21" cx="1204.145" cy="231.128" r="5.867" gradientTransform="matrix(-0.714, 0.7, 0.951, 0.97, 729.862, -964.185)" xlink:href="#radial-gradient-13"/><radialGradient id="radial-gradient-22" cx="1202.053" cy="229.037" r="5.867" gradientTransform="matrix(-0.714, 0.7, 0.951, 0.97, 730.386, -963.65)" xlink:href="#radial-gradient-13"/><radialGradient id="radial-gradient-23" cx="846.304" cy="546.188" r="8.084" gradientTransform="matrix(0, -1, -1, 0, 623.405, 935.167)" xlink:href="#radial-gradient-3"/><radialGradient id="radial-gradient-24" cx="849.758" cy="543.851" r="5.096" gradientTransform="matrix(-1, -0.01, -0.016, 1.633, 934.556, -791.183)" xlink:href="#radial-gradient-4"/></defs><title>cilium</title><g id="CILIUM"><g id="BBSOME"><path class="cls-1" d="M109.551,185.057c-.021,2.2-5.944,3.92-13.229,3.849S83.149,187,83.17,184.8l.229-23.658,26.381.255Z" transform="translate(-71.136 -7.245)"/><ellipse class="cls-2" cx="96.589" cy="161.271" rx="3.977" ry="13.191" transform="translate(-136.744 249.052) rotate(-89.446)"/></g><path class="cls-3" d="M100.712,161.029c-.007.686-1.857,1.224-4.132,1.2s-4.115-.6-4.108-1.282l.089-9.165,8.241.08Z" transform="translate(-71.136 -7.245)"/><g id="BASAL_BODY"><path class="cls-4" d="M109.894,149.57c-.021,2.2-5.944,3.92-13.229,3.849s-13.173-1.908-13.152-4.1l.229-23.658,26.381.255Z" transform="translate(-71.136 -7.245)"/><ellipse class="cls-5" cx="96.932" cy="125.784" rx="3.977" ry="13.191" transform="translate(-100.919 214.251) rotate(-89.446)"/></g><g id="AXONEMES"><path class="cls-6" d="M86.186,125.444a.552.552,0,0,1-.532-.57L86.768,9.583a.538.538,0,1,1,1.075.01L86.728,124.885A.552.552,0,0,1,86.186,125.444Z" transform="translate(-71.136 -7.245)"/><path id="AXONEME" class="cls-7" d="M89.776,124.726a.552.552,0,0,1-.532-.57L90.358,8.864a.538.538,0,1,1,1.075.01L90.319,124.167A.552.552,0,0,1,89.776,124.726Z" transform="translate(-71.136 -7.245)"/><path id="AXONEME-2" data-name="AXONEME" class="cls-8" d="M93.366,124.008a.552.552,0,0,1-.532-.57L93.948,8.146a.538.538,0,1,1,1.075.01L93.909,123.449A.552.552,0,0,1,93.366,124.008Z" transform="translate(-71.136 -7.245)"/><path id="AXONEME-3" data-name="AXONEME" class="cls-9" d="M96.952,123.666a.552.552,0,0,1-.532-.57L97.534,7.8a.538.538,0,1,1,1.075.01L97.5,123.107A.552.552,0,0,1,96.952,123.666Z" transform="translate(-71.136 -7.245)"/><path id="AXONEME-4" data-name="AXONEME" class="cls-10" d="M100.532,124.077a.552.552,0,0,1-.532-.57L101.114,8.216a.538.538,0,1,1,1.075.01l-1.114,115.292A.552.552,0,0,1,100.532,124.077Z" transform="translate(-71.136 -7.245)"/><path id="AXONEME-5" data-name="AXONEME" class="cls-11" d="M104.107,124.865a.552.552,0,0,1-.532-.57L104.689,9a.538.538,0,1,1,1.075.01L104.65,124.305A.552.552,0,0,1,104.107,124.865Z" transform="translate(-71.136 -7.245)"/><path id="AXONEME-6" data-name="AXONEME" class="cls-12" d="M107.683,125.652a.552.552,0,0,1-.532-.57L108.265,9.791a.538.538,0,1,1,1.075.01l-1.114,115.292A.552.552,0,0,1,107.683,125.652Z" transform="translate(-71.136 -7.245)"/><path id="AXONEME-7" data-name="AXONEME" class="cls-13" d="M105.877,127.14a.552.552,0,0,1-.532-.57l1.114-115.292a.538.538,0,1,1,1.075.01L106.42,126.581A.552.552,0,0,1,105.877,127.14Z" transform="translate(-71.136 -7.245)"/><path id="AXONEME-8" data-name="AXONEME" class="cls-14" d="M87.963,126.967a.552.552,0,0,1-.532-.57L88.545,11.106a.538.538,0,1,1,1.075.01L88.506,126.408A.552.552,0,0,1,87.963,126.967Z" transform="translate(-71.136 -7.245)"/><path id="AXONEME-9" data-name="AXONEME" class="cls-15" d="M91.534,128.131a.552.552,0,0,1-.532-.57L92.116,12.27a.538.538,0,1,1,1.075.01L92.077,127.572A.552.552,0,0,1,91.534,128.131Z" transform="translate(-71.136 -7.245)"/><path id="AXONEME-10" data-name="AXONEME" class="cls-16" d="M102.283,128.235a.552.552,0,0,1-.532-.57l1.114-115.292a.538.538,0,1,1,1.075.01l-1.114,115.292A.552.552,0,0,1,102.283,128.235Z" transform="translate(-71.136 -7.245)"/><path id="AXONEME-11" data-name="AXONEME" class="cls-17" d="M98.693,128.953a.552.552,0,0,1-.532-.57L99.275,13.092a.538.538,0,1,1,1.075.01L99.236,128.394A.552.552,0,0,1,98.693,128.953Z" transform="translate(-71.136 -7.245)"/><path id="AXONEME-12" data-name="AXONEME" class="cls-18" d="M95.11,128.919a.552.552,0,0,1-.532-.57L95.692,13.057a.538.538,0,1,1,1.075.01L95.653,128.359A.552.552,0,0,1,95.11,128.919Z" transform="translate(-71.136 -7.245)"/></g><g id="DYNEIN"><path class="cls-19" d="M109.849,56.146a.888.888,0,0,1-.8-1.244l3.313-7.537a.887.887,0,0,1,1.624.714l-3.313,7.537A.888.888,0,0,1,109.849,56.146Z" transform="translate(-71.136 -7.245)"/><path class="cls-20" d="M102.917,62.034a1.479,1.479,0,0,1,.911-2.506,5.477,5.477,0,0,0,4.9-4.8c.1-.811.24-1.4,1.051-1.3s1.384,1.424,1.289,2.234a6.33,6.33,0,0,1-1.872,4.439,8.457,8.457,0,0,1-5.073,2.372A1.477,1.477,0,0,1,102.917,62.034Z" transform="translate(-71.136 -7.245)"/><path class="cls-21" d="M102.945,59.077a1.479,1.479,0,0,1,.911-2.506,5.477,5.477,0,0,0,4.9-4.8c.1-.811.24-1.4,1.051-1.3s1.384,1.424,1.289,2.234a6.33,6.33,0,0,1-1.872,4.439,8.457,8.457,0,0,1-5.073,2.372A1.477,1.477,0,0,1,102.945,59.077Z" transform="translate(-71.136 -7.245)"/></g><circle id="IFT_PARTICLE" class="cls-22" cx="115.64" cy="41.675" r="6.954" transform="translate(1.713 149.662) rotate(-89.446)"/><path id="CARGO" class="cls-23" d="M120.411,37.375a.593.593,0,0,1,.883-.636,5.819,5.819,0,0,1,1.621,1.554,5.863,5.863,0,0,1-.076,6.9,5.869,5.869,0,0,1-1.651,1.528.593.593,0,0,1-.874-.647c.152-.682.31-1.294.425-1.881a13.553,13.553,0,0,0,.3-2.472,12.581,12.581,0,0,0-.238-2.47C120.7,38.665,120.555,38.054,120.411,37.375Z" transform="translate(-71.136 -7.245)"/><g id="DYNEIN-2" data-name="DYNEIN"><path class="cls-24" d="M109.62,79.8a.888.888,0,0,1-.8-1.244l3.313-7.537a.887.887,0,0,1,1.624.714l-3.313,7.537A.888.888,0,0,1,109.62,79.8Z" transform="translate(-71.136 -7.245)"/><path class="cls-25" d="M102.688,85.692a1.479,1.479,0,0,1,.911-2.506,5.477,5.477,0,0,0,4.9-4.8c.1-.811.24-1.4,1.051-1.3s1.384,1.424,1.289,2.234a6.33,6.33,0,0,1-1.872,4.439,8.457,8.457,0,0,1-5.073,2.372A1.477,1.477,0,0,1,102.688,85.692Z" transform="translate(-71.136 -7.245)"/><path class="cls-26" d="M102.717,82.735a1.479,1.479,0,0,1,.911-2.506,5.477,5.477,0,0,0,4.9-4.8c.1-.811.24-1.4,1.051-1.3s1.384,1.424,1.289,2.234a6.33,6.33,0,0,1-1.872,4.439,8.457,8.457,0,0,1-5.073,2.372A1.477,1.477,0,0,1,102.717,82.735Z" transform="translate(-71.136 -7.245)"/></g><circle id="IFT_PARTICLE-2" data-name="IFT_PARTICLE" class="cls-27" cx="115.411" cy="65.334" r="6.954" transform="translate(-22.17 172.863) rotate(-89.446)"/><path id="CARGO-2" data-name="CARGO" class="cls-28" d="M120.182,61.033a.593.593,0,0,1,.883-.636,5.819,5.819,0,0,1,1.621,1.554,5.863,5.863,0,0,1-.076,6.9,5.869,5.869,0,0,1-1.651,1.528.593.593,0,0,1-.874-.647c.152-.682.31-1.294.425-1.881a13.553,13.553,0,0,0,.3-2.472,12.581,12.581,0,0,0-.238-2.47C120.473,62.323,120.326,61.712,120.182,61.033Z" transform="translate(-71.136 -7.245)"/><g id="DYNEIN-3" data-name="DYNEIN"><path class="cls-29" d="M109.392,103.462a.888.888,0,0,1-.8-1.244L111.9,94.68a.887.887,0,0,1,1.624.714l-3.313,7.537A.888.888,0,0,1,109.392,103.462Z" transform="translate(-71.136 -7.245)"/><path class="cls-30" d="M102.459,109.35a1.479,1.479,0,0,1,.911-2.506,5.477,5.477,0,0,0,4.9-4.8c.1-.811.24-1.4,1.051-1.3s1.384,1.424,1.289,2.234a6.33,6.33,0,0,1-1.872,4.439,8.457,8.457,0,0,1-5.073,2.372A1.477,1.477,0,0,1,102.459,109.35Z" transform="translate(-71.136 -7.245)"/><path class="cls-31" d="M102.488,106.393a1.479,1.479,0,0,1,.911-2.506,5.477,5.477,0,0,0,4.9-4.8c.1-.811.24-1.4,1.051-1.3s1.384,1.424,1.289,2.234a6.33,6.33,0,0,1-1.872,4.439,8.457,8.457,0,0,1-5.073,2.372A1.477,1.477,0,0,1,102.488,106.393Z" transform="translate(-71.136 -7.245)"/></g><circle id="IFT_PARTICLE-3" data-name="IFT_PARTICLE" class="cls-32" cx="115.183" cy="88.992" r="6.954" transform="translate(-46.053 196.064) rotate(-89.446)"/><path id="CARGO-3" data-name="CARGO" class="cls-33" d="M119.954,84.691a.593.593,0,0,1,.883-.636,5.819,5.819,0,0,1,1.621,1.554,5.863,5.863,0,0,1-.076,6.9,5.869,5.869,0,0,1-1.651,1.528.593.593,0,0,1-.874-.647c.152-.682.31-1.294.425-1.881a13.553,13.553,0,0,0,.3-2.472,12.581,12.581,0,0,0-.238-2.47C120.244,85.981,120.1,85.37,119.954,84.691Z" transform="translate(-71.136 -7.245)"/><g id="KINESIN"><path class="cls-34" d="M85.462,55.91a.888.888,0,0,0,.827-1.229l-3.167-7.6a.887.887,0,0,0-1.638.683l3.167,7.6A.888.888,0,0,0,85.462,55.91Z" transform="translate(-71.136 -7.245)"/><path class="cls-35" d="M92.279,61.932a1.479,1.479,0,0,0-.863-2.523,5.477,5.477,0,0,1-4.8-4.895c-.08-.813-.213-1.4-1.025-1.32s-1.412,1.4-1.332,2.208a6.33,6.33,0,0,0,1.786,4.474,8.457,8.457,0,0,0,5.027,2.47A1.477,1.477,0,0,0,92.279,61.932Z" transform="translate(-71.136 -7.245)"/><path class="cls-36" d="M92.308,58.974a1.479,1.479,0,0,0-.863-2.523,5.477,5.477,0,0,1-4.8-4.895c-.08-.813-.213-1.4-1.025-1.32s-1.412,1.4-1.332,2.208a6.33,6.33,0,0,0,1.786,4.474,8.457,8.457,0,0,0,5.027,2.47A1.477,1.477,0,0,0,92.308,58.974Z" transform="translate(-71.136 -7.245)"/></g><circle id="IFT_PARTICLE-4" data-name="IFT_PARTICLE" class="cls-37" cx="79.952" cy="41.331" r="6.954" transform="translate(-33.285 113.634) rotate(-89.446)"/><path id="CARGO-4" data-name="CARGO" class="cls-38" d="M75.264,36.939a.593.593,0,0,0-.87-.653,5.819,5.819,0,0,0-1.651,1.522,5.863,5.863,0,0,0-.057,6.9,5.869,5.869,0,0,0,1.621,1.56.593.593,0,0,0,.886-.63c-.139-.685-.285-1.3-.389-1.888a13.553,13.553,0,0,1-.255-2.478,12.581,12.581,0,0,1,.286-2.465C74.949,38.223,75.108,37.615,75.264,36.939Z" transform="translate(-71.136 -7.245)"/><g id="KINESIN-2" data-name="KINESIN"><path class="cls-39" d="M85.233,79.568a.888.888,0,0,0,.827-1.229l-3.167-7.6a.887.887,0,0,0-1.638.683l3.167,7.6A.888.888,0,0,0,85.233,79.568Z" transform="translate(-71.136 -7.245)"/><path class="cls-40" d="M92.051,85.59a1.479,1.479,0,0,0-.863-2.523,5.477,5.477,0,0,1-4.8-4.895c-.08-.813-.213-1.4-1.025-1.32s-1.412,1.4-1.332,2.208a6.33,6.33,0,0,0,1.786,4.474A8.457,8.457,0,0,0,90.841,86,1.477,1.477,0,0,0,92.051,85.59Z" transform="translate(-71.136 -7.245)"/><path class="cls-41" d="M92.079,82.632a1.479,1.479,0,0,0-.863-2.523,5.477,5.477,0,0,1-4.8-4.895c-.08-.813-.213-1.4-1.025-1.32s-1.412,1.4-1.332,2.208a6.33,6.33,0,0,0,1.786,4.474,8.457,8.457,0,0,0,5.027,2.47A1.477,1.477,0,0,0,92.079,82.632Z" transform="translate(-71.136 -7.245)"/></g><circle id="IFT_PARTICLE-5" data-name="IFT_PARTICLE" class="cls-42" cx="79.723" cy="64.989" r="6.954" transform="translate(-57.169 136.835) rotate(-89.446)"/><path id="CARGO-5" data-name="CARGO" class="cls-43" d="M75.036,60.6a.593.593,0,0,0-.87-.653,5.819,5.819,0,0,0-1.651,1.522,5.863,5.863,0,0,0-.057,6.9,5.869,5.869,0,0,0,1.621,1.56.593.593,0,0,0,.886-.63c-.139-.685-.285-1.3-.389-1.888a13.553,13.553,0,0,1-.255-2.478,12.581,12.581,0,0,1,.286-2.465C74.721,61.881,74.879,61.273,75.036,60.6Z" transform="translate(-71.136 -7.245)"/><g id="KINESIN-3" data-name="KINESIN"><path class="cls-44" d="M85,103.226A.888.888,0,0,0,85.832,102l-3.167-7.6a.887.887,0,0,0-1.638.683l3.167,7.6A.888.888,0,0,0,85,103.226Z" transform="translate(-71.136 -7.245)"/><path class="cls-45" d="M91.822,109.248a1.479,1.479,0,0,0-.863-2.523,5.477,5.477,0,0,1-4.8-4.895c-.08-.813-.213-1.4-1.025-1.32s-1.412,1.4-1.332,2.208a6.33,6.33,0,0,0,1.786,4.474,8.457,8.457,0,0,0,5.027,2.47A1.477,1.477,0,0,0,91.822,109.248Z" transform="translate(-71.136 -7.245)"/><path class="cls-46" d="M91.851,106.29a1.479,1.479,0,0,0-.863-2.523,5.477,5.477,0,0,1-4.8-4.895c-.08-.813-.213-1.4-1.025-1.32s-1.412,1.4-1.332,2.208a6.33,6.33,0,0,0,1.786,4.474,8.457,8.457,0,0,0,5.027,2.47A1.477,1.477,0,0,0,91.851,106.29Z" transform="translate(-71.136 -7.245)"/></g><circle id="IFT_PARTICLE-6" data-name="IFT_PARTICLE" class="cls-47" cx="79.494" cy="88.647" r="6.954" transform="translate(-81.052 160.036) rotate(-89.446)"/><path id="CARGO-6" data-name="CARGO" class="cls-48" d="M74.807,84.255a.593.593,0,0,0-.87-.653,5.819,5.819,0,0,0-1.651,1.522,5.863,5.863,0,0,0-.057,6.9,5.869,5.869,0,0,0,1.621,1.56.593.593,0,0,0,.886-.63c-.139-.685-.285-1.3-.389-1.888a13.553,13.553,0,0,1-.255-2.478,12.581,12.581,0,0,1,.286-2.465C74.492,85.539,74.651,84.931,74.807,84.255Z" transform="translate(-71.136 -7.245)"/></g></svg>