<svg id="Layer_1" data-name="Layer 1" xmlns="http://www.w3.org/2000/svg" xmlns:xlink="http://www.w3.org/1999/xlink" viewBox="0 0 45.903 158.338"><defs><style>.cls-1{fill:url(#linear-gradient);}.cls-2{fill:url(#linear-gradient-2);}.cls-3{fill:url(#linear-gradient-3);}.cls-4{fill:url(#radial-gradient);}.cls-5{fill:url(#radial-gradient-2);}.cls-6{fill:url(#radial-gradient-3);}.cls-7{fill:url(#radial-gradient-4);}.cls-8{fill:url(#radial-gradient-5);}.cls-9{fill:url(#radial-gradient-6);}.cls-10{fill:url(#radial-gradient-7);}.cls-11{fill:url(#radial-gradient-8);}.cls-12{fill:url(#radial-gradient-9);}.cls-13{fill:url(#radial-gradient-10);}.cls-14{fill:url(#radial-gradient-11);}.cls-15{fill:url(#radial-gradient-12);}</style><linearGradient id="linear-gradient" x1="-280.027" y1="674.238" x2="-276.027" y2="674.238" gradientTransform="translate(286.978 -577.513)" gradientUnits="userSpaceOnUse"><stop offset="0" stop-color="#37143d"/><stop offset="0.044" stop-color="#3d1643"/><stop offset="0.105" stop-color="#4c1d54"/><stop offset="0.174" stop-color="#662971"/><stop offset="0.25" stop-color="#8a3899"/><stop offset="0.331" stop-color="#b84ccb"/><stop offset="0.351" stop-color="#c552d9"/><stop offset="0.394" stop-color="#a343b4"/><stop offset="0.443" stop-color="#82358f"/><stop offset="0.495" stop-color="#672971"/><stop offset="0.55" stop-color="#52205a"/><stop offset="0.609" stop-color="#43194a"/><stop offset="0.674" stop-color="#3a1540"/><stop offset="0.758" stop-color="#37143d"/></linearGradient><linearGradient id="linear-gradient-2" x1="-252.025" y1="674.238" x2="-248.025" y2="674.238" xlink:href="#linear-gradient"/><linearGradient id="linear-gradient-3" x1="-266.026" y1="674.238" x2="-262.026" y2="674.238" xlink:href="#linear-gradient"/><radialGradient id="radial-gradient" cx="-159.006" cy="615.771" r="11.882" gradientTransform="translate(301.246 -648.474) scale(1.365 1.168)" gradientUnits="userSpaceOnUse"><stop offset="0" stop-color="#c136d9"/><stop offset="0.006" stop-color="#bf36d7"/><stop offset="0.153" stop-color="#962ba8"/><stop offset="0.3" stop-color="#742382"/><stop offset="0.445" stop-color="#591c64"/><stop offset="0.587" stop-color="#46184e"/><stop offset="0.724" stop-color="#3b1541"/><stop offset="0.852" stop-color="#37143d"/></radialGradient><radialGradient id="radial-gradient-2" cx="-138.493" cy="615.771" r="11.882" xlink:href="#radial-gradient"/><radialGradient id="radial-gradient-3" cx="-148.75" cy="615.771" r="11.882" xlink:href="#radial-gradient"/><radialGradient id="radial-gradient-4" cx="-159.006" cy="621.773" r="11.882" gradientTransform="translate(301.246 -1200.225) scale(1.365 2.174)" xlink:href="#radial-gradient"/><radialGradient id="radial-gradient-5" cx="-138.493" cy="621.773" r="11.882" gradientTransform="translate(301.246 -1200.225) scale(1.365 2.174)" xlink:href="#radial-gradient"/><radialGradient id="radial-gradient-6" cx="-148.75" cy="621.773" r="11.882" gradientTransform="translate(301.246 -1200.225) scale(1.365 2.174)" xlink:href="#radial-gradient"/><radialGradient id="radial-gradient-7" cx="-159.006" cy="597.877" r="11.882" xlink:href="#radial-gradient"/><radialGradient id="radial-gradient-8" cx="-138.493" cy="597.877" r="11.882" xlink:href="#radial-gradient"/><radialGradient id="radial-gradient-9" cx="-148.75" cy="597.877" r="11.882" xlink:href="#radial-gradient"/><radialGradient id="radial-gradient-10" cx="-159.006" cy="579.983" r="11.882" xlink:href="#radial-gradient"/><radialGradient id="radial-gradient-11" cx="-138.493" cy="579.983" r="11.882" xlink:href="#radial-gradient"/><radialGradient id="radial-gradient-12" cx="-148.75" cy="579.983" r="11.882" xlink:href="#radial-gradient"/></defs><title>TNFR</title><g id="TNFR"><rect class="cls-1" x="6.951" y="61.889" width="4" height="69.671"/><rect class="cls-2" x="34.952" y="61.889" width="4" height="69.671"/><rect class="cls-3" x="20.952" y="61.889" width="4" height="69.671"/><path class="cls-4" d="M86,85.533c-4.944,0-8.951-3.429-8.951-7.659V70.291c0-4.229,4.007-7.659,8.951-7.659s8.951,3.429,8.951,7.659v7.584C94.95,82.1,90.943,85.533,86,85.533Z" transform="translate(-77.048 -20.831)"/><path class="cls-5" d="M114,85.533c-4.944,0-8.951-3.429-8.951-7.659V70.291c0-4.229,4.007-7.659,8.951-7.659s8.951,3.429,8.951,7.659v7.584C122.952,82.1,118.945,85.533,114,85.533Z" transform="translate(-77.048 -20.831)"/><path class="cls-6" d="M100,85.533c-4.944,0-8.951-3.429-8.951-7.659V70.291c0-4.229,4.007-7.659,8.951-7.659s8.951,3.429,8.951,7.659v7.584C108.951,82.1,104.944,85.533,100,85.533Z" transform="translate(-77.048 -20.831)"/><path class="cls-7" d="M86,179.169c-4.944,0-8.951-6.383-8.951-14.256V150.8c0-7.873,4.007-14.256,8.951-14.256s8.951,6.383,8.951,14.256v14.117C94.95,172.786,90.943,179.169,86,179.169Z" transform="translate(-77.048 -20.831)"/><path class="cls-8" d="M114,179.169c-4.944,0-8.951-6.383-8.951-14.256V150.8c0-7.873,4.007-14.256,8.951-14.256s8.951,6.383,8.951,14.256v14.117C122.952,172.786,118.945,179.169,114,179.169Z" transform="translate(-77.048 -20.831)"/><path class="cls-9" d="M100,179.169c-4.944,0-8.951-6.383-8.951-14.256V150.8c0-7.873,4.007-14.256,8.951-14.256s8.951,6.383,8.951,14.256v14.117C108.951,172.786,104.944,179.169,100,179.169Z" transform="translate(-77.048 -20.831)"/><path class="cls-10" d="M86,64.633c-4.944,0-8.951-3.429-8.951-7.659V49.39c0-4.229,4.007-7.659,8.951-7.659s8.951,3.429,8.951,7.659v7.584C94.95,61.2,90.943,64.633,86,64.633Z" transform="translate(-77.048 -20.831)"/><path class="cls-11" d="M114,64.633c-4.944,0-8.951-3.429-8.951-7.659V49.39c0-4.229,4.007-7.659,8.951-7.659s8.951,3.429,8.951,7.659v7.584C122.952,61.2,118.945,64.633,114,64.633Z" transform="translate(-77.048 -20.831)"/><path class="cls-12" d="M100,64.633c-4.944,0-8.951-3.429-8.951-7.659V49.39c0-4.229,4.007-7.659,8.951-7.659s8.951,3.429,8.951,7.659v7.584C108.951,61.2,104.944,64.633,100,64.633Z" transform="translate(-77.048 -20.831)"/><path class="cls-13" d="M86,43.732c-4.944,0-8.951-3.429-8.951-7.659V28.49c0-4.229,4.007-7.659,8.951-7.659S94.95,24.26,94.95,28.49v7.584C94.95,40.3,90.943,43.732,86,43.732Z" transform="translate(-77.048 -20.831)"/><path class="cls-14" d="M114,43.732c-4.944,0-8.951-3.429-8.951-7.659V28.49c0-4.229,4.007-7.659,8.951-7.659s8.951,3.429,8.951,7.659v7.584C122.952,40.3,118.945,43.732,114,43.732Z" transform="translate(-77.048 -20.831)"/><path class="cls-15" d="M100,43.732c-4.944,0-8.951-3.429-8.951-7.659V28.49c0-4.229,4.007-7.659,8.951-7.659s8.951,3.429,8.951,7.659v7.584C108.951,40.3,104.944,43.732,100,43.732Z" transform="translate(-77.048 -20.831)"/></g></svg>