<svg id="Layer_1" data-name="Layer 1" xmlns="http://www.w3.org/2000/svg" xmlns:xlink="http://www.w3.org/1999/xlink" viewBox="0 0 96.705 22.949"><defs><style>.cls-1{fill:url(#linear-gradient);}.cls-2{fill:#b79c2a;}.cls-3{isolation:isolate;font-size:12px;fill:#fff;font-family:Arial-BoldMT, Arial;font-weight:700;}</style><linearGradient id="linear-gradient" x1="1.232" y1="11.347" x2="96.232" y2="11.347" gradientUnits="userSpaceOnUse"><stop offset="0" stop-color="#bb4c4f"/><stop offset="0.552" stop-color="#b9773b"/><stop offset="0.998" stop-color="#b79c2a"/></linearGradient></defs><title>plasminogen</title><g id="PLASMINOGEN"><rect class="cls-1" x="1.232" y="1.347" width="95" height="20" rx="10" ry="10"/><path class="cls-2" d="M136.615,111.023c-8.866-.009-17.731.43-26.6.837-8.866.458-17.731.546-26.6.613-4.433,0-8.866.019-13.3-.037l-6.649-.076-1.662-.019a12.673,12.673,0,0,1-1.868-.154,11,11,0,0,1-3.588-1.2,11.341,11.341,0,0,1-5.038-5.439,11.156,11.156,0,0,1-.559-7.327,10.98,10.98,0,0,1,10.858-8.167c8.866.261,17.731.449,26.6.335,4.433-.049,8.866-.194,13.3-.349l13.3-.413c4.433-.085,8.866-.131,13.3-.071q3.325.022,6.649.128l1.662.045a11.126,11.126,0,0,1,1.814.195,10.578,10.578,0,0,1,3.424,1.256,10.848,10.848,0,0,1,4.649,5.3,10.559,10.559,0,0,1-9.692,14.546Zm0-.3a9.749,9.749,0,0,0,6.035-2.16,9.469,9.469,0,0,0,3.294-5.411,9.584,9.584,0,0,0,.118-3.16,9.682,9.682,0,0,0-.949-2.969,9.314,9.314,0,0,0-4.328-4.177,8.552,8.552,0,0,0-2.868-.783,11.707,11.707,0,0,0-1.5-.045l-1.662.045q-3.325.108-6.649.128c-4.433.061-8.866.015-13.3-.071l-13.3-.413c-4.433-.155-8.866-.3-13.3-.349-8.866-.114-17.731.074-26.6.335a9.1,9.1,0,0,0-8.547,7.092,8.641,8.641,0,0,0,.655,5.659,8.84,8.84,0,0,0,3.939,4.038,8.143,8.143,0,0,0,2.7.836,9.6,9.6,0,0,0,1.443.085l1.662-.019,6.649-.076c4.433-.056,8.866-.036,13.3-.037,8.866.066,17.731.155,26.6.613C118.883,110.293,127.749,110.732,136.615,110.723Z" transform="translate(-50.382 -89.526)"/><text class="cls-3" transform="translate(4.064 14.235)">PLASMINOGEN</text></g></svg>