<svg id="Layer_1" data-name="Layer 1" xmlns="http://www.w3.org/2000/svg" xmlns:xlink="http://www.w3.org/1999/xlink" viewBox="0 0 45.406 19.747"><defs><style>.cls-1{fill:url(#linear-gradient);}.cls-2{fill:#7852d5;}.cls-3{font-size:12px;fill:#fff;font-family:Arial-BoldMT, Arial;font-weight:700;}.cls-4{letter-spacing:-0.018em;}</style><linearGradient id="linear-gradient" x1="22.92" y1="18.16" x2="22.92" y2="1.237" gradientUnits="userSpaceOnUse"><stop offset="0" stop-color="#396303"/><stop offset="1" stop-color="#7852d5"/></linearGradient></defs><title>BMP</title><g id="BMP"><rect class="cls-1" x="1.42" y="1.237" width="43" height="16.923" rx="8.462" ry="8.462"/><path class="cls-2" d="M113.038,108.612c-4.386-.009-8.773.43-13.159.837-4.407.452-8.727.559-13.2.6a9.845,9.845,0,0,1-9.587-10.189,9.52,9.52,0,0,1,3.1-6.733,9.331,9.331,0,0,1,6.777-2.409c4.386.282,8.773.437,13.159.335,4.4-.079,8.737-.587,13.194-.749a9.167,9.167,0,0,1,6.781,2.935,9.014,9.014,0,0,1,2.354,6.9,9.248,9.248,0,0,1-3.209,6.157A9.582,9.582,0,0,1,113.038,108.612Zm0-.3a7.536,7.536,0,0,0,7.5-8.2,8.018,8.018,0,0,0-7.295-7.308c-4.315-.212-8.753-.684-13.123-.774-4.386-.1-8.773.053-13.159.335a7.606,7.606,0,0,0-5.086,2.481A7.32,7.32,0,0,0,79.924,99.9a7.121,7.121,0,0,0,6.843,6.95c2.1.078,4.361.059,6.534.167,2.193.069,4.386.252,6.579.457C104.266,107.882,108.652,108.32,113.038,108.312Z" transform="translate(-77.08 -90.302)"/><text class="cls-3" transform="translate(9.812 12.584)">BM<tspan class="cls-4" x="18.662" y="0">P</tspan></text></g></svg>