<svg id="Layer_1" data-name="Layer 1" xmlns="http://www.w3.org/2000/svg" xmlns:xlink="http://www.w3.org/1999/xlink" viewBox="0 0 84.762 44.925"><defs><style>.cls-1{fill:url(#linear-gradient);}.cls-2{fill:none;stroke-linecap:round;stroke-linejoin:round;stroke-width:1.5px;stroke:url(#linear-gradient-2);}</style><linearGradient id="linear-gradient" x1="98.334" y1="120.758" x2="98.334" y2="75.833" gradientUnits="userSpaceOnUse"><stop offset="0" stop-color="#69611e"/><stop offset="1" stop-color="#c2b61b"/></linearGradient><linearGradient id="linear-gradient-2" x1="97.262" y1="118.008" x2="97.262" y2="76.583" gradientUnits="userSpaceOnUse"><stop offset="0.6" stop-color="#e0d541"/><stop offset="0.819" stop-color="#e0dec5"/><stop offset="1" stop-color="#e0d541"/></linearGradient></defs><title>PTCH1</title><g id="PTCH"><path class="cls-1" d="M88.239,75.833a4.574,4.574,0,0,1,3.323,1.412c2.681,2.73,2.779,8.629,2.623,17.315-.023,1.287-.046,2.528-.046,3.668,0,1.052-.016,2.188-.032,3.368-.047,3.477-.152,11.185.9,13.581,1.028-2.472.876-10.275.815-13.4-.024-1.24-.047-2.4-.047-3.42,0-1.083-.032-2.338-.066-3.68-.213-8.412-.158-14.579,2.518-17.323a4.455,4.455,0,0,1,3.249-1.393,4.558,4.558,0,0,1,3.314,1.41c2.686,2.735,2.785,8.929,2.631,17.379-.023,1.271-.045,2.492-.045,3.606.016,1.2.006,2.558,0,3.972-.026,3.571-.078,10.606.891,12.946.965-2.425.826-9.81.763-13.155-.025-1.334-.049-2.609-.049-3.763.019-1.474-.013-3.084-.047-4.789-.162-8.113-.079-13.625,2.458-16.212a4.588,4.588,0,0,1,6.6.016c2.686,2.735,2.785,8.929,2.631,17.379-.023,1.271-.045,2.492-.045,3.606,0,1.006-.014,2.1-.029,3.233-.045,3.5-.146,11.261.908,13.7.973-2.406.833-9.819.77-13.174-.025-1.334-.049-2.609-.049-3.763.019-1.468-.013-3.078-.046-4.781-.16-8.2-.075-13.763,2.472-16.359a4.5,4.5,0,0,1,3.274-1.389,4.564,4.564,0,0,1,3.317,1.41c2.682,2.73,2.782,8.638,2.627,17.339-.023,1.279-.045,2.514-.045,3.646,0,1.2-.025,2.5-.051,3.859-.07,3.631-.232,12.035,1.1,13.536h3.4a2.5,2.5,0,0,1,0,5h-3.544a4.6,4.6,0,0,1-3.348-1.423c-2.678-2.73-2.769-8.587-2.6-17.21.025-1.32.05-2.6.05-3.763s.022-2.425.045-3.735c.062-3.471.2-11.269-.92-13.373-.975,2.009-.839,8.907-.772,12.362.034,1.746.066,3.4.047,4.912,0,1.092.023,2.336.048,3.636.165,8.747.076,14.682-2.559,17.366a4.435,4.435,0,0,1-6.4-.007c-2.7-2.736-2.83-9.128-2.717-17.859.014-1.113.028-2.183.028-3.168,0-1.142.022-2.394.046-3.7.063-3.485.206-11.321-.929-13.42-.971,1.972-.834,8.807-.766,12.228.035,1.748.068,3.4.048,4.922,0,1.092.023,2.336.048,3.636.165,8.747.076,14.682-2.559,17.366a4.43,4.43,0,0,1-6.379.011c-2.624-2.643-2.778-8.49-2.714-17.11.01-1.377.02-2.7,0-3.9,0-1.175.022-2.427.046-3.73.063-3.466.2-11.236-.911-13.386-1.085,2.208-.891,9.859-.8,13.276.035,1.388.068,2.687.068,3.807,0,.988.022,2.117.046,3.322.167,8.568.079,14.845-2.6,17.58a4.368,4.368,0,0,1-3.175,1.359,4.468,4.468,0,0,1-3.237-1.377c-2.694-2.731-2.816-8.789-2.694-17.719.016-1.155.031-2.27.031-3.3,0-1.167.023-2.439.046-3.758.063-3.471.2-11.273-.921-13.358-.979,1.992-.842,8.9-.773,12.353.035,1.753.067,3.408.048,4.931,0,1.092.023,2.336.048,3.637.165,8.746.076,14.681-2.558,17.364a4.388,4.388,0,0,1-3.189,1.361,4.434,4.434,0,0,1-3.212-1.368c-2.7-2.736-2.83-9.129-2.717-17.86.015-1.113.028-2.182.028-3.167,0-1.142.022-2.394.046-3.7.063-3.485.206-11.321-.929-13.42-.971,1.971-.834,8.8-.766,12.225.034,1.749.067,3.4.048,4.926,0,1.091.023,2.335.048,3.635.165,8.747.076,14.682-2.559,17.366a4.429,4.429,0,0,1-6.379.011c-2.624-2.643-2.778-8.492-2.714-17.114.01-1.376.02-2.7,0-3.9,0-1.175.022-2.427.046-3.73.063-3.5.207-11.37-.939-13.439-1.133,2.1-.9,10.054-.793,13.583.036,1.24.071,2.431.086,3.521.1,7.459.1,19.8.1,19.929a2.5,2.5,0,0,1-5,0c0-.123,0-12.437-.1-19.862-.014-1.065-.049-2.228-.084-3.439-.253-8.54-.224-14.8,2.463-17.566a4.594,4.594,0,0,1,6.636-.013c2.686,2.735,2.785,8.929,2.631,17.379-.022,1.271-.045,2.493-.045,3.606.016,1.2.006,2.556,0,3.968-.026,3.572-.079,10.608.89,12.95.965-2.426.826-9.81.763-13.155-.025-1.334-.049-2.609-.049-3.763.02-1.475-.013-3.086-.047-4.792-.162-8.111-.079-13.622,2.457-16.21a4.59,4.59,0,0,1,6.6.017c2.686,2.735,2.785,8.929,2.632,17.379-.023,1.271-.046,2.493-.046,3.606,0,1-.014,2.1-.028,3.231-.046,3.5-.146,11.262.907,13.7.973-2.406.833-9.817.77-13.172-.025-1.334-.049-2.61-.049-3.764.02-1.473-.013-3.088-.047-4.8-.162-8.185-.078-13.743,2.468-16.341A4.5,4.5,0,0,1,88.239,75.833Z" transform="translate(-55.953 -75.833)"/><path id="_Path_" data-name="&lt;Path&gt;" class="cls-2" d="M57.67,117.258s0-12.367-.1-19.9-1.2-19.9,3.2-19.9,3.4,12.367,3.4,19.9c.1,7.528-.8,19.9,3.4,19.9s3.2-12.5,3.2-19.9c.1-7.662-1.2-19.9,3.2-19.9s3.4,12.367,3.4,19.9-.8,19.9,3.4,19.9,3.2-12.5,3.2-19.9c.1-7.662-1.2-20.03,3.2-20.03s3.4,12.233,3.4,19.9-.832,19.9,3.4,19.9S97.2,104.066,97.2,97.362s-1.2-19.9,3.2-19.9,3.4,12.367,3.4,19.9c.1,7.528-.8,19.9,3.4,19.9s3.2-12.5,3.2-19.9c.1-7.662-1.2-19.9,3.2-19.9s3.4,12.367,3.4,19.9-.8,19.9,3.4,19.9,3.2-12.5,3.2-19.9c.1-7.662-1.189-20.03,3.2-20.03s3.4,12.233,3.4,19.9-1.048,19.9,3.4,19.9h3.448" transform="translate(-55.953 -75.833)"/></g></svg>