<svg id="Layer_1" data-name="Layer 1" xmlns="http://www.w3.org/2000/svg" viewBox="0 0 161.211 111.282"><defs><style>.cls-1{fill:#cb4d3f;}.cls-2{fill:#fbada1;}.cls-3{fill:#d6680d;}</style></defs><title>female_reproductive_system</title><g id="FEMALE_REPRODUCTIVE_SYSTEM"><path class="cls-1" d="M88.479,48.537C78.688,52.82,74.4,64.447,65.634,64.447S42.381,44.865,25.859,51.189,33,71.79,33.814,76.073s10.811-6.935,7.955-7.139-12.85-1.224-12.85-8.975,12.442-3.06,16.726-1.632S57.067,70.158,65.226,69.954s9.179-.612,10.2,6.119S86.847,89.332,86.847,94.431s-3.06,9.791-3.06,15.3,7.9,13.049,7.9,45.382a58.727,58.727,0,0,1,15.4,0c0-32.333,7.9-39.874,7.9-45.382s-3.06-10.2-3.06-15.3,10.4-11.627,11.423-18.358,2.04-6.323,10.2-6.119,15.3-10.2,19.582-11.627,16.726-6.119,16.726,1.632-9.995,8.771-12.85,8.975,7.139,11.423,7.955,7.139,24.477-18.562,7.955-24.885-31,13.258-39.775,13.258S120.1,52.82,110.308,48.537A29.437,29.437,0,0,0,88.479,48.537Z" transform="translate(-18.789 -45.223)"/><path class="cls-2" d="M179.873,56.1c-.533-2.567-2.72-4.6-6.506-6.052-11.053-4.231-21.056,2.4-29.1,7.716-4.432,2.935-8.259,5.464-11.11,5.464-4.355,0-7.573-3.308-11.3-7.138-3.04-3.127-6.487-6.669-11.12-8.7a30.742,30.742,0,0,0-22.706.01l-.043.014c-4.575,2-8.02,5.546-11.06,8.672-3.724,3.829-6.942,7.138-11.294,7.138-2.852,0-6.681-2.534-11.113-5.464-8.043-5.316-18.04-11.947-29.1-7.716-3.786,1.449-5.973,3.485-6.506,6.052C17.859,61.2,23.6,66.82,28.219,71.333c1.886,1.845,4.236,4.14,4.393,4.972A2.185,2.185,0,0,0,35.1,78.26c3.021-.311,8.443-6.444,8.409-8.82a1.692,1.692,0,0,0-1.649-1.726c-4.374-.311-11.713-1.726-11.713-7.754a2.764,2.764,0,0,1,1-2.429c2.687-1.917,10.135.607,13.316,1.688l.8.272c1.31.435,3.217,2.108,5.235,3.877,3.977,3.49,8.911,7.816,14.5,7.816.088,0,.177,0,.265,0l1.241-.033c6.894-.191,6.913-.2,7.718,5.111.574,3.8,3.619,7.267,6.561,10.623,2.383,2.711,4.845,5.522,4.845,7.553a24.251,24.251,0,0,1-1.432,6.989,28.017,28.017,0,0,0-1.628,8.309c0,1.831.717,3.729,1.709,6.349,2.316,6.119,6.2,16.369,6.2,39.029v1.4l1.382-.182a57.737,57.737,0,0,1,15.085,0l1.384.182v-1.4c0-22.66,3.879-32.91,6.2-39.029.992-2.62,1.709-4.518,1.709-6.349a28.017,28.017,0,0,0-1.628-8.309,24.251,24.251,0,0,1-1.432-6.989c0-2.032,2.464-4.843,4.845-7.558,2.945-3.351,5.99-6.822,6.564-10.618.8-5.3.8-5.278,7.716-5.111l1.241.033c.091,0,.177,0,.265,0,5.591,0,10.525-4.326,14.5-7.816,2.02-1.769,3.925-3.442,5.235-3.877l.8-.272c3.179-1.08,10.627-3.614,13.319-1.688a2.764,2.764,0,0,1,1,2.429c0,6.028-7.338,7.443-11.715,7.754a1.692,1.692,0,0,0-1.647,1.726c-.036,2.376,5.385,8.51,8.407,8.82a2.224,2.224,0,0,0,2.486-1.955c.158-.832,2.507-3.131,4.393-4.977C175.185,66.82,180.929,61.2,179.873,56.1ZM65,68.737c-4.673,0-9.224-3.992-12.891-7.209-2.3-2.022-4.3-3.767-6.074-4.36l-.784-.263c-4.128-1.41-11.82-4.021-15.53-1.362A5.094,5.094,0,0,0,27.7,59.959c0,5.665,4.778,9.327,13.144,10.125-.947,1.869-4.666,5.761-5.8,5.761h-.024c-.289-1.515-2.032-3.28-5.087-6.263-3.968-3.882-9.4-9.193-8.617-12.989.351-1.7,2.027-3.131,4.984-4.264,9.874-3.767,18.905,2.2,26.874,7.472,4.762,3.15,8.875,5.871,12.463,5.871,13.831,0,15.481-8.9,33.8-8.9s25.352,8.9,33.724,8.9c3.588,0,7.7-2.72,12.461-5.871,7.969-5.273,17-11.239,26.877-7.472,2.954,1.133,4.632,2.567,4.984,4.264.786,3.8-4.647,9.107-8.615,12.984-3.057,2.988-4.8,4.752-4.891,6.248h-.038c-1.315,0-5.039-3.877-5.983-5.742,8.369-.8,13.144-4.46,13.144-10.125a5.094,5.094,0,0,0-2.022-4.417c-3.705-2.648-11.4-.038-15.532,1.362l-.784.263c-1.776.593-3.767,2.338-6.074,4.36-3.717,3.265-8.33,7.19-13.089,7.2-6.717,0-7.784-2.831-12.059-2.831-6.036,0-4.858,4.275-9.716,15.545s-11.27,6.8-11.27,13.019c0,5.441,2.526,12.242,1.943,17.294s9.91-.194,7.195,10.881c-1.885,6.5-3.7,16.04-3.809,31.092a59.974,59.974,0,0,0-12.965,0c-.106-15.057-1.925-24.6-3.811-31.1-2.715-11.075,7.6-5.822,7.013-10.874s1.943-11.853,1.943-17.294c0-6.218-6.412-1.749-11.27-13.019S83.106,65.9,77.07,65.9c-4.275,0-5.143,2.831-12.059,2.831Z" transform="translate(-18.789 -45.223)"/><path id="OVARY" class="cls-3" d="M157.018,68.934c-4.348-1.48-13.87-5.15-18.46,6.323s25.23,10.1,25.23,1.762C163.789,71.925,161.117,70.33,157.018,68.934Z" transform="translate(-18.789 -45.223)"/><path id="OVARY-2" data-name="OVARY" class="cls-3" d="M41.106,68.934c4.348-1.48,13.87-5.15,18.46,6.323s-25.23,10.1-25.23,1.762C34.335,71.925,37.007,70.33,41.106,68.934Z" transform="translate(-18.789 -45.223)"/></g></svg>