<svg id="Layer_1" data-name="Layer 1" xmlns="http://www.w3.org/2000/svg" xmlns:xlink="http://www.w3.org/1999/xlink" viewBox="0 0 62.212 22.932"><defs><style>.cls-1{fill:url(#linear-gradient);}.cls-2{fill:#df2106;}.cls-3{font-size:12px;fill:#fff;font-family:Arial-BoldMT, Arial;font-weight:700;}.cls-4{letter-spacing:-0.018em;}</style><linearGradient id="linear-gradient" x1="31.378" y1="21.332" x2="31.378" y2="1.332" gradientUnits="userSpaceOnUse"><stop offset="0" stop-color="#503a51"/><stop offset="1" stop-color="#df2106"/></linearGradient></defs><title>ITGB3BP</title><g id="ITGB3BP"><rect class="cls-1" x="1.378" y="1.332" width="60" height="20" rx="10" ry="10"/><path class="cls-2" d="M120,110.15c-5.949-.009-11.9.43-17.847.837-5.949.458-11.9.546-17.847.613l-4.486-.009a11.2,11.2,0,0,1-4.972-1.254,11.5,11.5,0,0,1-6-7.9,11.156,11.156,0,0,1,2.433-9.456A10.981,10.981,0,0,1,80,89.179c5.949.282,11.9.437,17.847.335,5.949-.084,11.9-.574,17.847-.762,1.5-.029,2.954-.1,4.482-.079a10.674,10.674,0,0,1,7.9,17.828A10.964,10.964,0,0,1,120,110.15Zm0-.3a9.28,9.28,0,0,0,7.479-3.833,9.176,9.176,0,0,0,1.351-7.948,9.42,9.42,0,0,0-4.976-5.817,9.257,9.257,0,0,0-3.719-.908c-1.445-.009-2.963-.059-4.441-.1-5.949-.188-11.9-.678-17.847-.762-5.949-.1-11.9.053-17.847.335A9.182,9.182,0,0,0,73.159,94.5a8.848,8.848,0,0,0-1.537,7.334,8.646,8.646,0,0,0,4.631,5.7,8.863,8.863,0,0,0,3.617.857l4.437.007c5.949.066,11.9.155,17.847.613C108.1,109.42,114.051,109.859,120,109.85Z" transform="translate(-68.622 -88.668)"/><text class="cls-3" transform="translate(5.587 14.221)">ITGB3B<tspan class="cls-4" x="44.004" y="0">P</tspan></text></g></svg>