<svg id="Layer_1" data-name="Layer 1" xmlns="http://www.w3.org/2000/svg" xmlns:xlink="http://www.w3.org/1999/xlink" viewBox="0 0 46.563 22.585"><defs><style>.cls-1{fill:url(#linear-gradient);}.cls-2{fill:#536bd5;}.cls-3{font-size:12px;fill:#fff;font-family:Arial-BoldMT, Arial;font-weight:700;}</style><linearGradient id="linear-gradient" x1="154.465" y1="107.725" x2="154.465" y2="87.725" gradientTransform="translate(-131.005 -86.665)" gradientUnits="userSpaceOnUse"><stop offset="0" stop-color="#0c9f1f"/><stop offset="1" stop-color="#536bd5"/></linearGradient></defs><title>GEFs</title><g id="GEFs"><rect class="cls-1" x="1.46" y="1.059" width="44" height="20" rx="10" ry="10"/><path class="cls-2" d="M110.1,108.061c-4.616-.009-9.231.43-13.847.837-2.308.205-4.616.388-6.923.457-1.17.051-2.273.086-3.5.081a11.083,11.083,0,0,1-3.922-.723,11.314,11.314,0,0,1-7.027-12.9A11.16,11.16,0,0,1,78.951,89.3,10.945,10.945,0,0,1,86.1,87.09c4.616.282,9.231.437,13.847.335,2.308-.059,4.616-.177,6.923-.341,1.165-.074,2.284-.169,3.486-.223a10.183,10.183,0,0,1,3.8.575,10.673,10.673,0,0,1,5.825,4.967,10.4,10.4,0,0,1,.875,7.52,11.015,11.015,0,0,1-4.136,5.967A11.519,11.519,0,0,1,110.1,108.061Zm0-.3a8.967,8.967,0,0,0,6.133-2.462,9.19,9.19,0,0,0,2.75-5.728,9.764,9.764,0,0,0-5.73-9.809,8.868,8.868,0,0,0-2.946-.777c-1.1-.1-2.294-.162-3.437-.246-2.308-.164-4.616-.282-6.923-.341-4.616-.1-9.231.053-13.847.335a9.318,9.318,0,0,0-5.609,2.42,9.109,9.109,0,0,0-2.82,5.184A8.635,8.635,0,0,0,78.741,102a8.834,8.834,0,0,0,4.334,3.73,7.949,7.949,0,0,0,2.829.629c1.082.042,2.288.043,3.426.1,2.308.069,4.616.252,6.923.457C100.869,107.331,105.485,107.77,110.1,107.761Z" transform="translate(-74.641 -86.851)"/><text class="cls-3" transform="translate(8.193 14.373)">GEFs</text></g></svg>