<svg id="Layer_1" data-name="Layer 1" xmlns="http://www.w3.org/2000/svg" viewBox="0 0 62.374 65.092"><defs><style>.cls-1{fill:#73a628;}.cls-2{fill:#deb510;}</style></defs><title>insulin_hexamer</title><g id="insulin_hexamer"><rect class="cls-1" x="21.239" y="1.352" width="20" height="10" rx="5" ry="5"/><path class="cls-2" d="M103.417,82.345a15.628,15.628,0,0,0-3.213.382c-1.071.24-2.142.54-3.213.728a21.784,21.784,0,0,1-3.213.319l-.414.012-.529-.012a6.323,6.323,0,0,1-1.046-.174,5.673,5.673,0,0,1-1.919-.878A6.014,6.014,0,0,1,87.629,75.5a6.091,6.091,0,0,1,2.454-2.755,6.9,6.9,0,0,1,3.334-1.027c2.142-.108,4.284-.8,6.426-.86a14.3,14.3,0,0,1,3.213.228,6.666,6.666,0,0,0,.891.131,5.83,5.83,0,0,1,.936.22,5.553,5.553,0,0,1,1.675.868,5.658,5.658,0,0,1,1.97,6.391A5.476,5.476,0,0,1,103.417,82.345Zm0-.3A4.6,4.6,0,0,0,107.9,78.51a4.46,4.46,0,0,0-.319-2.869,4.268,4.268,0,0,0-1.905-1.963,3.949,3.949,0,0,0-1.258-.4,3.876,3.876,0,0,0-.645-.054l-.322.012c-.117.012-.263.05-.393.074a14.3,14.3,0,0,1-3.213.228c-2.142-.06-4.284-.752-6.426-.86a3.63,3.63,0,0,0-2.653.977,3.846,3.846,0,0,0-1.15,2.428,4.7,4.7,0,0,0,.416,2.381,3.674,3.674,0,0,0,1.538,1.62,4.108,4.108,0,0,0,1.014.393,3.4,3.4,0,0,0,.534.1l.274.028.389.016a21.788,21.788,0,0,1,3.213.319c1.071.188,2.142.487,3.213.728A15.63,15.63,0,0,0,103.417,82.045Z" transform="translate(-67.178 -70.843)"/><rect class="cls-1" x="116.244" y="80.541" width="10" height="20" rx="5" ry="5" transform="translate(-96.002 0.267) rotate(-29.374)"/><path class="cls-2" d="M119.209,97.424a15.63,15.63,0,0,0-1.909-2.613c-.735-.815-1.521-1.6-2.21-2.443a21.785,21.785,0,0,1-1.854-2.644l-.213-.355-.248-.467a6.324,6.324,0,0,1-.361-1,5.673,5.673,0,0,1-.176-2.1,6.014,6.014,0,0,1,5.195-5.5,6.09,6.09,0,0,1,3.6.787,6.9,6.9,0,0,1,2.531,2.4c1.145,1.814,2.8,3.341,3.9,5.178a14.3,14.3,0,0,1,1.377,2.912,6.67,6.67,0,0,0,.323.84,5.831,5.831,0,0,1,.267.923,5.554,5.554,0,0,1,.065,1.886,5.658,5.658,0,0,1-4.6,4.852A5.476,5.476,0,0,1,119.209,97.424Zm.261-.147a4.6,4.6,0,0,0,5.279,2.171,4.46,4.46,0,0,0,2.344-1.686,4.268,4.268,0,0,0,.776-2.623,3.95,3.95,0,0,0-.266-1.294,3.878,3.878,0,0,0-.269-.588l-.168-.274c-.068-.1-.173-.2-.257-.306a14.3,14.3,0,0,1-1.775-2.688c-1-1.9-1.446-4.1-2.4-6.022a3.63,3.63,0,0,0-2.153-1.833,3.846,3.846,0,0,0-2.68.189,4.7,4.7,0,0,0-1.871,1.53,3.674,3.674,0,0,0-.657,2.135,4.109,4.109,0,0,0,.155,1.077,3.4,3.4,0,0,0,.175.514l.11.252.177.347a21.789,21.789,0,0,1,1.3,2.956c.361,1.026.626,2.106.942,3.157A15.63,15.63,0,0,0,119.47,97.277Z" transform="translate(-67.178 -70.843)"/><rect class="cls-1" x="65.432" y="85.827" width="20" height="10" rx="5" ry="5" transform="translate(-107.623 42.615) rotate(-61.342)"/><path class="cls-2" d="M82.349,88.909a15.63,15.63,0,0,0-1.206,3c-.3,1.055-.554,2.138-.9,3.168a21.787,21.787,0,0,1-1.261,2.972l-.188.369-.264.458a6.324,6.324,0,0,1-.655.834,5.672,5.672,0,0,1-1.691,1.263,6.014,6.014,0,0,1-7.412-1.5,6.091,6.091,0,0,1-1.24-3.475,6.9,6.9,0,0,1,.7-3.418c.932-1.932,1.353-4.143,2.327-6.051a14.3,14.3,0,0,1,1.741-2.71,6.669,6.669,0,0,0,.542-.719,5.832,5.832,0,0,1,.642-.716,5.554,5.554,0,0,1,1.565-1.054A5.658,5.658,0,0,1,81.6,82.674,5.476,5.476,0,0,1,82.349,88.909Zm-.263-.144a4.6,4.6,0,0,0-.953-5.628,4.461,4.461,0,0,0-2.671-1.1,4.268,4.268,0,0,0-2.637.731,3.95,3.95,0,0,0-.957.911,3.877,3.877,0,0,0-.357.54l-.143.288c-.045.109-.082.255-.124.381A14.3,14.3,0,0,1,72.9,87.82c-1.08,1.851-2.714,3.4-3.836,5.226a3.63,3.63,0,0,0-.415,2.8,3.846,3.846,0,0,0,1.579,2.174,4.7,4.7,0,0,0,2.289.777,3.674,3.674,0,0,0,2.159-.573,4.109,4.109,0,0,0,.832-.7,3.4,3.4,0,0,0,.343-.421l.156-.227.2-.334a21.79,21.79,0,0,1,1.821-2.666c.679-.85,1.455-1.646,2.179-2.47A15.631,15.631,0,0,0,82.085,88.766Z" transform="translate(-67.178 -70.843)"/><rect class="cls-1" x="21.135" y="53.741" width="20" height="10" rx="5" ry="5"/><path class="cls-2" d="M93.313,124.434a15.63,15.63,0,0,0,3.213-.382c1.071-.24,2.142-.54,3.213-.728a21.788,21.788,0,0,1,3.213-.319l.414-.012.529.012a6.326,6.326,0,0,1,1.046.174,5.674,5.674,0,0,1,1.919.878,6.014,6.014,0,0,1,2.241,7.223,6.091,6.091,0,0,1-2.454,2.755,6.9,6.9,0,0,1-3.334,1.027c-2.142.108-4.284.8-6.426.86a14.3,14.3,0,0,1-3.213-.228,6.671,6.671,0,0,0-.891-.131,5.83,5.83,0,0,1-.936-.22,5.554,5.554,0,0,1-1.675-.868,5.658,5.658,0,0,1-1.97-6.391A5.476,5.476,0,0,1,93.313,124.434Zm0,.3a4.6,4.6,0,0,0-4.481,3.535,4.461,4.461,0,0,0,.319,2.869,4.268,4.268,0,0,0,1.905,1.963,3.95,3.95,0,0,0,1.258.4,3.876,3.876,0,0,0,.645.054l.322-.012c.117-.012.263-.05.393-.074a14.305,14.305,0,0,1,3.213-.228c2.142.06,4.284.752,6.426.86a3.63,3.63,0,0,0,2.653-.977,3.846,3.846,0,0,0,1.15-2.428,4.7,4.7,0,0,0-.416-2.381,3.674,3.674,0,0,0-1.538-1.62,4.109,4.109,0,0,0-1.014-.393,3.4,3.4,0,0,0-.534-.1l-.274-.028-.389-.016a21.784,21.784,0,0,1-3.213-.319c-1.071-.188-2.142-.487-3.213-.728A15.633,15.633,0,0,0,93.313,124.734Z" transform="translate(-67.178 -70.843)"/><rect class="cls-1" x="70.486" y="106.238" width="10" height="20" rx="5" ry="5" transform="translate(-114.489 -18.874) rotate(-29.374)"/><path class="cls-2" d="M77.522,109.355a15.631,15.631,0,0,0,1.909,2.613c.735.815,1.521,1.6,2.21,2.443a21.788,21.788,0,0,1,1.854,2.643l.213.355.248.467a6.324,6.324,0,0,1,.361,1,5.673,5.673,0,0,1,.176,2.1,6.014,6.014,0,0,1-5.195,5.5,6.09,6.09,0,0,1-3.6-.787,6.9,6.9,0,0,1-2.531-2.4c-1.145-1.814-2.8-3.341-3.9-5.178a14.3,14.3,0,0,1-1.377-2.912,6.671,6.671,0,0,0-.323-.84,5.829,5.829,0,0,1-.267-.923,5.554,5.554,0,0,1-.065-1.886,5.658,5.658,0,0,1,4.6-4.852A5.476,5.476,0,0,1,77.522,109.355Zm-.261.147a4.6,4.6,0,0,0-5.279-2.171,4.461,4.461,0,0,0-2.344,1.686,4.268,4.268,0,0,0-.776,2.623,3.95,3.95,0,0,0,.266,1.294,3.879,3.879,0,0,0,.269.588l.168.274c.068.1.173.2.257.306a14.3,14.3,0,0,1,1.775,2.688c1,1.9,1.446,4.1,2.4,6.022a3.63,3.63,0,0,0,2.153,1.833,3.846,3.846,0,0,0,2.68-.189,4.7,4.7,0,0,0,1.871-1.53,3.674,3.674,0,0,0,.657-2.135,4.109,4.109,0,0,0-.155-1.077,3.4,3.4,0,0,0-.175-.514l-.11-.252-.177-.347a21.786,21.786,0,0,1-1.3-2.956c-.361-1.026-.626-2.106-.942-3.157A15.629,15.629,0,0,0,77.26,109.5Z" transform="translate(-67.178 -70.843)"/><rect class="cls-1" x="111.299" y="110.952" width="20" height="10" rx="5" ry="5" transform="translate(-105.8 95.938) rotate(-61.342)"/><path class="cls-2" d="M114.382,117.87a15.63,15.63,0,0,0,1.206-3c.3-1.055.554-2.138.9-3.168a21.786,21.786,0,0,1,1.261-2.972l.188-.369.264-.458a6.323,6.323,0,0,1,.655-.834,5.673,5.673,0,0,1,1.691-1.263,6.014,6.014,0,0,1,7.413,1.5,6.091,6.091,0,0,1,1.24,3.475,6.9,6.9,0,0,1-.7,3.418c-.932,1.931-1.353,4.143-2.327,6.051a14.3,14.3,0,0,1-1.741,2.71,6.669,6.669,0,0,0-.542.719,5.831,5.831,0,0,1-.642.716,5.554,5.554,0,0,1-1.565,1.054,5.658,5.658,0,0,1-6.553-1.336A5.476,5.476,0,0,1,114.382,117.87Zm.263.144a4.6,4.6,0,0,0,.953,5.628,4.46,4.46,0,0,0,2.671,1.1,4.268,4.268,0,0,0,2.637-.73,3.95,3.95,0,0,0,.957-.911,3.878,3.878,0,0,0,.357-.54l.143-.288c.045-.109.082-.255.124-.381a14.3,14.3,0,0,1,1.341-2.929c1.08-1.851,2.714-3.4,3.836-5.226a3.63,3.63,0,0,0,.415-2.8,3.846,3.846,0,0,0-1.579-2.174,4.7,4.7,0,0,0-2.289-.777,3.674,3.674,0,0,0-2.159.573,4.108,4.108,0,0,0-.832.7,3.4,3.4,0,0,0-.343.421l-.156.227-.2.334a21.784,21.784,0,0,1-1.821,2.666c-.679.85-1.455,1.646-2.179,2.47A15.628,15.628,0,0,0,114.645,118.014Z" transform="translate(-67.178 -70.843)"/></g></svg>