<svg id="R-ICO-013737" xmlns="http://www.w3.org/2000/svg" xmlns:xlink="http://www.w3.org/1999/xlink" viewBox="0 0 82.275 25"><defs><style>.cls-1{fill:url(#linear-gradient);}.cls-2{fill:url(#linear-gradient-2);}.cls-3{fill:url(#linear-gradient-3);}.cls-4{fill:url(#linear-gradient-4);}.cls-5{fill:url(#linear-gradient-5);}.cls-6{fill:url(#linear-gradient-6);}.cls-7{fill:url(#linear-gradient-7);}.cls-8{fill:url(#linear-gradient-8);}.cls-9{fill:url(#linear-gradient-9);}.cls-10{fill:url(#linear-gradient-10);}.cls-11{fill:url(#linear-gradient-11);}.cls-12{fill:url(#linear-gradient-12);}.cls-13{fill:#ff9f05;opacity:0.7;}</style><linearGradient id="linear-gradient" x1="-804.21" y1="34.277" x2="-804.21" y2="16.502" gradientTransform="translate(-737.585 125.258) rotate(180)" gradientUnits="userSpaceOnUse"><stop offset="0" stop-color="#24040e"/><stop offset="0.113" stop-color="#a20e40"/><stop offset="0.273" stop-color="#a23e60"/><stop offset="0.602" stop-color="#a20e40"/><stop offset="1" stop-color="#24040e"/></linearGradient><linearGradient id="linear-gradient-2" x1="-817.56" y1="34.277" x2="-817.56" y2="16.502" gradientTransform="translate(-737.585 125.258) rotate(180)" gradientUnits="userSpaceOnUse"><stop offset="0" stop-color="#042224"/><stop offset="0.094" stop-color="#0e98a2"/><stop offset="0.119" stop-color="#1598a2"/><stop offset="0.154" stop-color="#279aa2"/><stop offset="0.196" stop-color="#469ba2"/><stop offset="0.242" stop-color="#709ea2"/><stop offset="0.273" stop-color="#90a0a2"/><stop offset="0.311" stop-color="#8da0a2"/><stop offset="0.338" stop-color="#849fa2"/><stop offset="0.361" stop-color="#759ea2"/><stop offset="0.382" stop-color="#5f9da2"/><stop offset="0.401" stop-color="#439ba2"/><stop offset="0.419" stop-color="#2199a2"/><stop offset="0.428" stop-color="#0e98a2"/><stop offset="1" stop-color="#042224"/></linearGradient><linearGradient id="linear-gradient-3" x1="284.721" y1="-21.14" x2="284.721" y2="-39.068" gradientTransform="translate(-218.096 130.159)" gradientUnits="userSpaceOnUse"><stop offset="0" stop-color="#0d6a71"/><stop offset="0.092" stop-color="#1398a2"/><stop offset="0.25" stop-color="#90a0a2"/><stop offset="0.587" stop-color="#0e98a2"/><stop offset="0.653" stop-color="#0c8189"/><stop offset="0.814" stop-color="#084e53"/><stop offset="0.935" stop-color="#052e31"/><stop offset="1" stop-color="#042224"/></linearGradient><linearGradient id="linear-gradient-4" x1="-830.91" y1="34.277" x2="-830.91" y2="16.502" xlink:href="#linear-gradient"/><linearGradient id="linear-gradient-5" x1="298.071" y1="-21.14" x2="298.071" y2="-39.068" gradientTransform="translate(-218.096 130.159)" gradientUnits="userSpaceOnUse"><stop offset="0" stop-color="#a21343"/><stop offset="0.25" stop-color="#a2687b"/><stop offset="0.769" stop-color="#a20e40"/></linearGradient><linearGradient id="linear-gradient-6" x1="-844.26" y1="34.277" x2="-844.26" y2="16.502" xlink:href="#linear-gradient-2"/><linearGradient id="linear-gradient-7" x1="311.421" y1="-21.14" x2="311.421" y2="-39.068" xlink:href="#linear-gradient-3"/><linearGradient id="linear-gradient-8" x1="-857.61" y1="34.277" x2="-857.61" y2="16.502" xlink:href="#linear-gradient"/><linearGradient id="linear-gradient-9" x1="324.771" y1="-21.14" x2="324.771" y2="-39.068" xlink:href="#linear-gradient-5"/><linearGradient id="linear-gradient-10" x1="-870.96" y1="34.277" x2="-870.96" y2="16.502" xlink:href="#linear-gradient-2"/><linearGradient id="linear-gradient-11" x1="338.121" y1="-21.14" x2="338.121" y2="-39.068" xlink:href="#linear-gradient-3"/><linearGradient id="linear-gradient-12" x1="351.471" y1="-21.14" x2="351.471" y2="-39.068" xlink:href="#linear-gradient-5"/></defs><title>R-ICO-013737</title><g id="R-ICO-012636"><path class="cls-1" d="M58.862,108.993c7.763,0,2.175-17.986,13.35-17.986h2.175c-7.762,0-2.175,17.986-13.35,17.986Z" transform="translate(-58.862 -87.5)"/><path class="cls-2" d="M72.212,108.993c7.763,0,2.175-17.986,13.35-17.986h2.175c-7.762,0-2.475,17.986-13.35,17.986Z" transform="translate(-58.862 -87.5)"/><path class="cls-3" d="M74.387,108.993c-7.762,0-2.175-17.986-13.35-17.986H58.862c7.763,0,2.175,17.986,13.35,17.986Z" transform="translate(-58.862 -87.5)"/><path class="cls-4" d="M85.562,108.993c7.763,0,2.175-17.986,13.35-17.986h2.176c-7.763,0-2.176,17.986-13.351,17.986Z" transform="translate(-58.862 -87.5)"/><path class="cls-5" d="M87.737,108.993c-7.762,0-2.175-17.986-13.35-17.986H72.212c7.763,0,2.175,17.986,13.35,17.986Z" transform="translate(-58.862 -87.5)"/><path class="cls-6" d="M98.912,108.993c7.763,0,2.175-17.986,13.351-17.986h2.175c-7.763,0-2.475,17.986-13.35,17.986Z" transform="translate(-58.862 -87.5)"/><path class="cls-7" d="M101.088,108.993c-7.763,0-2.176-17.986-13.351-17.986H85.562c7.763,0,2.175,17.986,13.35,17.986Z" transform="translate(-58.862 -87.5)"/><path class="cls-8" d="M112.263,108.993c7.762,0,2.175-17.986,13.349-17.986h2.176c-7.763,0-2.176,17.986-13.35,17.986Z" transform="translate(-58.862 -87.5)"/><path class="cls-9" d="M114.438,108.993c-7.763,0-2.175-17.986-13.35-17.986H98.912c7.763,0,2.176,17.986,13.35,17.986Z" transform="translate(-58.862 -87.5)"/><path class="cls-10" d="M125.613,108.993c7.762,0,2.174-17.986,13.349-17.986h2.176c-7.763,0-2.475,17.986-13.35,17.986Z" transform="translate(-58.862 -87.5)"/><path class="cls-11" d="M127.788,108.993c-7.763,0-2.176-17.986-13.35-17.986h-2.175c7.762,0,2.175,17.986,13.349,17.986Z" transform="translate(-58.862 -87.5)"/><path class="cls-12" d="M141.138,108.993c-7.763,0-2.176-17.986-13.35-17.986h-2.176c7.763,0,2.176,17.986,13.351,17.986Z" transform="translate(-58.862 -87.5)"/></g><rect id="LSP" class="cls-13" x="27.396" width="27.483" height="25" rx="3"/></svg>