<svg id="Layer_1" data-name="Layer 1" xmlns="http://www.w3.org/2000/svg" xmlns:xlink="http://www.w3.org/1999/xlink" viewBox="0 0 76.89 62"><defs><style>.cls-1,.cls-2{fill:none;stroke-linecap:round;stroke-linejoin:round;}.cls-1{stroke-width:5px;stroke:url(#linear-gradient);}.cls-2{stroke-width:1.5px;stroke:url(#linear-gradient-2);}</style><linearGradient id="linear-gradient" x1="100.627" y1="131" x2="100.627" y2="69" gradientUnits="userSpaceOnUse"><stop offset="0" stop-color="#172780"/><stop offset="1" stop-color="#4259db"/></linearGradient><linearGradient id="linear-gradient-2" x1="99.373" y1="129.25" x2="99.373" y2="70.75" gradientUnits="userSpaceOnUse"><stop offset="0.616" stop-color="#96a2e8"/><stop offset="0.823" stop-color="#ced2e8"/><stop offset="1" stop-color="#96a2e8"/></linearGradient></defs><title>DISP2</title><g id="DISP2"><path class="cls-1" d="M64.682,71.5v45s0,5,4.493,5,4.493-5,4.493-5v-40s0-5,4.493-5,4.493,5,4.493,5v40s0,5,4.493,5,4.493-5,4.493-5v-40s0-5,4.493-5,4.493,5,4.493,5v40s0,5,4.493,5,4.493-5,4.493-5v-40s0-5,4.493-5,4.493,5,4.493,5v40s0,5,4.493,5,4.493-5,4.493-5v-40s0-5,4.493-5,4.493,5,4.493,5v45c0,5-4.493,6.963-8.986,6.963l-4.493.037" transform="translate(-62.182 -69)"/><path class="cls-2" d="M63.428,71.5v45s0,5,4.493,5,4.493-5,4.493-5v-40s0-5,4.493-5,4.493,5,4.493,5v40s0,5,4.493,5,4.493-5,4.493-5v-40s0-5,4.493-5,4.493,5,4.493,5v40s0,5,4.493,5,4.493-5,4.493-5v-40s0-5,4.493-5,4.493,5,4.493,5v40s0,5,4.493,5,4.493-5,4.493-5v-40s0-5,4.493-5,4.493,5,4.493,5v45c0,5-4.493,6.963-8.986,6.963l-4.493.037" transform="translate(-62.182 -69)"/></g></svg>