<svg id="Layer_1" data-name="Layer 1" xmlns="http://www.w3.org/2000/svg" xmlns:xlink="http://www.w3.org/1999/xlink" viewBox="0 0 66.444 62.534"><defs><style>.cls-1{stroke:#548c8c;stroke-linecap:round;stroke-linejoin:round;stroke-width:2px;fill:url(#radial-gradient);}</style><radialGradient id="radial-gradient" cx="128.554" cy="738.291" r="31.427" gradientTransform="translate(119.11 842.113) rotate(-172.446)" gradientUnits="userSpaceOnUse"><stop offset="0" stop-color="#d0b38b"/><stop offset="0.129" stop-color="#b0a58f"/><stop offset="0.29" stop-color="#8f9893"/><stop offset="0.455" stop-color="#758d97"/><stop offset="0.625" stop-color="#638599"/><stop offset="0.803" stop-color="#58809b"/><stop offset="1" stop-color="#547f9b"/></radialGradient></defs><title>late_endosome</title><path id="LATE_ENDOSOME" class="cls-1" d="M95.35,125.7c-4.808-.284-6.031.238-10.43.312-6.515.11-14.826-8.621-13.1-16.325,1.066-4.764.65-8.743-1.906-12.763C66.465,91.5,68.31,84.3,76.893,75.675c8.157-8.191,14.494-3.926,23.012-4.824,7.56-.8,12.507-1.536,19.189,2.651,5.487,3.438,4.214,9.136,6.715,13.919,2.862,5.473,6.85,6.953,6.909,13.267.064,6.775-2.606,8.428-6.074,10.289-2.43,1.3-4.9,5.647-4.129,7.094,3.135,5.922-5.416,15.624-15.158,11.849C102.654,128.1,101.112,126.036,95.35,125.7Z" transform="translate(-67.275 -69.233)"/></svg>