<svg id="Layer_1" data-name="Layer 1" xmlns="http://www.w3.org/2000/svg" xmlns:xlink="http://www.w3.org/1999/xlink" viewBox="0 0 49.056 82.273"><defs><style>.cls-1{fill:url(#linear-gradient);}.cls-2{fill:url(#linear-gradient-2);}.cls-3{fill:url(#linear-gradient-3);}.cls-4{fill:url(#linear-gradient-4);}.cls-5{fill:url(#linear-gradient-5);}.cls-6{fill:url(#radial-gradient);}.cls-7{mask:url(#mask);}.cls-8{fill:url(#radial-gradient-2);}.cls-9{fill:url(#linear-gradient-6);}.cls-10{fill:url(#linear-gradient-7);}.cls-11{fill:url(#linear-gradient-8);}.cls-12{fill:url(#radial-gradient-3);}.cls-13{mask:url(#mask-2);}.cls-14{fill:url(#radial-gradient-4);}</style><linearGradient id="linear-gradient" x1="58.77" y1="742.597" x2="63.245" y2="736.522" gradientTransform="translate(-404.683 -495.244) rotate(-36.509)" gradientUnits="userSpaceOnUse"><stop offset="0.07"/><stop offset="0.085" stop-color="#0b0b0b"/><stop offset="0.155" stop-color="#3e3e3e"/><stop offset="0.229" stop-color="#6c6c6c"/><stop offset="0.307" stop-color="#949494"/><stop offset="0.389" stop-color="#b5b5b5"/><stop offset="0.477" stop-color="#d0d0d0"/><stop offset="0.572" stop-color="#e5e5e5"/><stop offset="0.678" stop-color="#f4f4f4"/><stop offset="0.804" stop-color="#fcfcfc"/><stop offset="1" stop-color="#fff"/></linearGradient><linearGradient id="linear-gradient-2" x1="-1081.255" y1="742.597" x2="-1076.78" y2="736.522" gradientTransform="matrix(0.804, 0.595, 0.595, -0.804, 542.936, 1299.226)" xlink:href="#linear-gradient"/><linearGradient id="linear-gradient-3" x1="59.743" y1="804.625" x2="71.779" y2="804.625" gradientTransform="translate(-52.147 -735.534)" gradientUnits="userSpaceOnUse"><stop offset="0" stop-color="#232376"/><stop offset="0.019" stop-color="#45397f"/><stop offset="0.049" stop-color="#76598d"/><stop offset="0.079" stop-color="#9f7398"/><stop offset="0.109" stop-color="#be88a1"/><stop offset="0.137" stop-color="#d596a7"/><stop offset="0.164" stop-color="#e29fab"/><stop offset="0.188" stop-color="#e7a2ac"/><stop offset="0.699" stop-color="#e7a2ac"/><stop offset="0.741" stop-color="#e39fab"/><stop offset="0.784" stop-color="#d797a8"/><stop offset="0.828" stop-color="#c28aa2"/><stop offset="0.871" stop-color="#a6789a"/><stop offset="0.915" stop-color="#816090"/><stop offset="0.959" stop-color="#544384"/><stop offset="1" stop-color="#232376"/></linearGradient><linearGradient id="linear-gradient-4" x1="65.761" y1="817.807" x2="65.761" y2="791.443" gradientTransform="translate(-52.147 -735.534)" gradientUnits="userSpaceOnUse"><stop offset="0" stop-color="#232376"/><stop offset="0.008" stop-color="#2d2a79" stop-opacity="0.947"/><stop offset="0.065" stop-color="#70558b" stop-opacity="0.609"/><stop offset="0.122" stop-color="#a47699" stop-opacity="0.343"/><stop offset="0.176" stop-color="#c98fa4" stop-opacity="0.153"/><stop offset="0.228" stop-color="#df9daa" stop-opacity="0.039"/><stop offset="0.274" stop-color="#e7a2ac" stop-opacity="0"/><stop offset="0.316" stop-color="#e7a2ac" stop-opacity="0"/><stop offset="0.562" stop-color="#e7a2ac" stop-opacity="0"/><stop offset="0.683" stop-color="#b9849f" stop-opacity="0.188"/><stop offset="0.936" stop-color="#43387f" stop-opacity="0.669"/><stop offset="1" stop-color="#232376" stop-opacity="0.8"/></linearGradient><linearGradient id="linear-gradient-5" x1="63.261" y1="775.813" x2="68.261" y2="775.813" gradientTransform="translate(23.324 -676.671)" gradientUnits="userSpaceOnUse"><stop offset="0" stop-color="#232376"/><stop offset="0.054" stop-color="#493c80"/><stop offset="0.142" stop-color="#816090"/><stop offset="0.224" stop-color="#ad7c9c"/><stop offset="0.297" stop-color="#cd91a5"/><stop offset="0.358" stop-color="#e09daa"/><stop offset="0.4" stop-color="#e7a2ac"/><stop offset="0.476" stop-color="#e29fab"/><stop offset="0.562" stop-color="#d596a7"/><stop offset="0.653" stop-color="#be87a1"/><stop offset="0.747" stop-color="#9e7398"/><stop offset="0.844" stop-color="#75588d"/><stop offset="0.942" stop-color="#44387f"/><stop offset="1" stop-color="#232376"/></linearGradient><radialGradient id="radial-gradient" cx="1005.577" cy="-428.266" r="16.101" gradientTransform="matrix(0.823, -0.568, -0.568, -0.823, -979.791, 288.188)" gradientUnits="userSpaceOnUse"><stop offset="0.306" stop-color="#232376"/><stop offset="0.348" stop-color="#493c80"/><stop offset="0.415" stop-color="#816090"/><stop offset="0.478" stop-color="#ad7c9c"/><stop offset="0.534" stop-color="#cd91a5"/><stop offset="0.581" stop-color="#e09daa"/><stop offset="0.613" stop-color="#e7a2ac"/><stop offset="0.661" stop-color="#e29fab"/><stop offset="0.716" stop-color="#d596a7"/><stop offset="0.773" stop-color="#be87a1"/><stop offset="0.833" stop-color="#9e7398"/><stop offset="0.894" stop-color="#75588d"/><stop offset="0.956" stop-color="#44387f"/><stop offset="0.992" stop-color="#232376"/></radialGradient><mask id="mask" x="1.914" y="-2.528" width="13.925" height="13.06" maskUnits="userSpaceOnUse"><g transform="translate(-75.472 -58.864)"><rect class="cls-1" x="78.49" y="59.079" width="11.719" height="7.574" transform="translate(53.954 -37.846) rotate(36.509)"/></g></mask><radialGradient id="radial-gradient-2" cx="1000.953" cy="-419.837" r="6.906" gradientTransform="matrix(-0.652, 0.759, 0.585, 0.502, 980.293, -482.925)" gradientUnits="userSpaceOnUse"><stop offset="0.2" stop-color="#e7a2ac"/><stop offset="0.369" stop-color="#c28aa2"/><stop offset="0.743" stop-color="#664e88"/><stop offset="1" stop-color="#232376"/></radialGradient><linearGradient id="linear-gradient-6" x1="-1080.283" y1="804.625" x2="-1068.246" y2="804.625" gradientTransform="matrix(1, 0, 0, -1, 1185.179, 932.579)" xlink:href="#linear-gradient-3"/><linearGradient id="linear-gradient-7" x1="-1074.264" y1="817.807" x2="-1074.264" y2="791.443" gradientTransform="matrix(1, 0, 0, -1, 1185.179, 932.579)" xlink:href="#linear-gradient-4"/><linearGradient id="linear-gradient-8" x1="-1076.764" y1="775.813" x2="-1071.764" y2="775.813" gradientTransform="matrix(-1, 0, 0, 1, -963.35, -676.671)" xlink:href="#linear-gradient-5"/><radialGradient id="radial-gradient-3" cx="67.096" cy="218.968" r="16.101" gradientTransform="matrix(-0.823, -0.568, 0.568, -0.823, 39.765, 288.188)" xlink:href="#radial-gradient"/><mask id="mask-2" x="33.216" y="-2.528" width="13.925" height="13.06" maskUnits="userSpaceOnUse"><g transform="translate(-75.472 -58.864)"><rect class="cls-2" x="109.792" y="59.079" width="11.719" height="7.574" transform="translate(246.009 44.59) rotate(143.491)"/></g></mask><radialGradient id="radial-gradient-4" cx="62.472" cy="227.397" r="6.906" gradientTransform="matrix(0.652, 0.759, -0.585, 0.502, 209.768, -96.111)" xlink:href="#radial-gradient-2"/></defs><title>SCF_KIT</title><g id="SCF_KIT"><rect class="cls-3" x="7.595" y="55.909" width="12.037" height="26.364" rx="3.064" ry="3.064"/><rect class="cls-4" x="7.595" y="55.909" width="12.037" height="26.364" rx="3.064" ry="3.064"/><path class="cls-5" d="M89.086,118.354a2.5,2.5,0,0,1-2.5-2.5V82.43a2.5,2.5,0,0,1,5,0v33.424A2.5,2.5,0,0,1,89.086,118.354Z" transform="translate(-75.472 -58.864)"/><path class="cls-6" d="M80.5,59.686C74.441,63.861,73.814,71,78.86,78.316s11.941,9.266,18,5.091q2.823-1.947.877-4.774c-.564-.818-1.469-.777-2.406-.81a8.041,8.041,0,0,1-7.684-3.845c-2.627-4.189-1.664-5.393-.766-6.012,1.923-1.326,2.33-4.3.538-6.895A5.026,5.026,0,0,0,80.5,59.686Z" transform="translate(-75.472 -58.864)"/><g class="cls-7"><path class="cls-8" d="M80.5,59.686a12.555,12.555,0,0,0-2.832,2.643L86.19,68.67a2.2,2.2,0,0,1,.686-.7c1.923-1.326,2.33-4.3.538-6.895A5.026,5.026,0,0,0,80.5,59.686Z" transform="translate(-75.472 -58.864)"/></g><rect class="cls-9" x="104.896" y="114.772" width="12.037" height="26.364" rx="3.064" ry="3.064" transform="translate(146.357 197.045) rotate(-180)"/><rect class="cls-10" x="104.896" y="114.772" width="12.037" height="26.364" rx="3.064" ry="3.064" transform="translate(146.357 197.045) rotate(-180)"/><path class="cls-11" d="M110.914,118.354a2.5,2.5,0,0,0,2.5-2.5V82.43a2.5,2.5,0,0,0-5,0v33.424A2.5,2.5,0,0,0,110.914,118.354Z" transform="translate(-75.472 -58.864)"/><path class="cls-12" d="M119.5,59.686c6.055,4.176,6.682,11.314,1.636,18.63s-11.941,9.266-18,5.091q-2.823-1.947-.877-4.774c.564-.818,1.469-.777,2.406-.81a8.041,8.041,0,0,0,7.684-3.845c2.627-4.189,1.664-5.393.766-6.012-1.923-1.326-2.33-4.3-.538-6.895A5.026,5.026,0,0,1,119.5,59.686Z" transform="translate(-75.472 -58.864)"/><g class="cls-13"><path class="cls-14" d="M119.5,59.686a12.555,12.555,0,0,1,2.832,2.643L113.81,68.67a2.2,2.2,0,0,0-.686-.7c-1.923-1.326-2.33-4.3-.538-6.895A5.026,5.026,0,0,1,119.5,59.686Z" transform="translate(-75.472 -58.864)"/></g></g></svg>