<svg id="Layer_1" data-name="Layer 1" xmlns="http://www.w3.org/2000/svg" viewBox="0 0 150 133.774"><defs><style>.cls-1{fill:#f99595;}.cls-2{fill:#ffdfa6;}.cls-3{fill:#ffaeae;}.cls-4{fill:#d13e3b;}.cls-5{fill:#771d1d;}.cls-6{fill:#524987;}.cls-7{fill:#2a255e;}</style></defs><title>R-ICO-013945</title><g id="R-ICO-013945"><path id="BG" class="cls-1" d="M73.813,38.219c-37.269,14.493-58.745,57.626-44.252,94.9,5.375,13.821,15.1,30.436,28.829,31.81,26.062,2.61,29.815-20.279,53.263-29.4,23.293-9.058,46.191,11.849,59.03-13.857,6.232-12.476,5.3-29.406-.135-43.382C156.055,41.018,111.082,23.726,73.813,38.219Z" transform="translate(-25 -33.113)"/><path id="MID" class="cls-2" d="M73.813,38.219a77.612,77.612,0,0,0-42.5,41.009c-7.38,16.772-8.707,36-1.752,53.886,5.375,13.821,15.1,30.436,28.829,31.81,26.062,2.61,29.815-20.28,53.263-29.4,23.293-9.058,46.191,11.849,59.03-13.857q.386-.771.735-1.564c5.413-12.3,4.341-28.418-.87-41.818C156.055,41.018,111.082,23.726,73.813,38.219ZM138.4,85.514a.517.517,0,0,0,.621-.386,66.818,66.818,0,0,0,1.362-9.319c.256-3.12.284-6.235.585-9.274a27.441,27.441,0,0,1,2.264-8.513,13.464,13.464,0,0,1,1.014-1.858c.354-.614.858-1.119,1.257-1.713.474-.513.978-1.008,1.475-1.516a63.931,63.931,0,0,1,19.8,26.816,62.179,62.179,0,0,1,2.457,7.829,6.5,6.5,0,0,1-1.659,2.213c-1.457,1.248-3.477,1.655-5.615,1.964l-6.794.9a15.492,15.492,0,0,0-6.855,2.3.7.7,0,0,0,.755,1.167l.009,0a13.12,13.12,0,0,1,6.271-1.452c2.241-.079,4.547.223,6.965-.04a14.28,14.28,0,0,0,3.658-.85,9.725,9.725,0,0,0,3.338-2.152,8.319,8.319,0,0,0,.632-.711,54.135,54.135,0,0,1,.284,19.086,9.875,9.875,0,0,1-3.666,1.762,20.415,20.415,0,0,1-6.752.359c-2.369-.232-4.8-.651-7.338-.743a16.538,16.538,0,0,0-3.851.311,8.912,8.912,0,0,0-3.567,1.605.5.5,0,0,0,.535.845l.009,0a11.255,11.255,0,0,1,6.721-.742c2.335.289,4.7.862,7.178,1.23a18.874,18.874,0,0,0,7.806.012,12.67,12.67,0,0,0,2.033-.742,34.607,34.607,0,0,1-1.618,4.58c-.206.468-.425.935-.65,1.386-6.45,12.914-14.98,11.854-27.891,10.251-8.795-1.093-18.764-2.331-28.989,1.645-10.382,4.038-17.174,10.57-23.167,16.333-8.228,7.913-14.727,14.164-28.23,12.811C45.561,159.579,36.575,140,33.327,131.65a63.354,63.354,0,0,1-4.27-23.371,25.366,25.366,0,0,0,4.751,1.5c2.824.63,5.646.525,8.283.852a19.8,19.8,0,0,1,7.323,2.22,20.43,20.43,0,0,1,5.838,5.048l.022.026a1.074,1.074,0,0,0,1.7-1.31,22.87,22.87,0,0,0-6.156-6.117,19.138,19.138,0,0,0-3.582-1.768,11.361,11.361,0,0,0,2.164-1.865,38.039,38.039,0,0,0,2.535-3c.759-1.021,1.54-1.992,2.35-2.967l0,0a.458.458,0,0,0-.615-.667,22.435,22.435,0,0,0-2.956,2.581c-.912.918-1.7,1.917-2.613,2.7a9.327,9.327,0,0,1-2.978,1.593,4.994,4.994,0,0,1-2.5.345c-2.79-.561-5.455-1.163-8.023-1.626-1.847-.331-3.626-.764-5.417-1.262a69.478,69.478,0,0,1,5.559-23.047c1.241.294,2.47.62,3.672,1.019a51.685,51.685,0,0,1,5.338,2.108,52.785,52.785,0,0,1,5.16,2.612c1.659,1.013,3.29,2.1,4.874,3.27a.831.831,0,0,0,1.01-1.32c-1.559-1.237-3.122-2.489-4.778-3.641a38,38,0,0,0-5.163-3.234,31.708,31.708,0,0,0-5.732-2.152q-1.7-.462-3.416-.8A74.268,74.268,0,0,1,61.825,48.993a25.438,25.438,0,0,0-.991,3.272,17.745,17.745,0,0,0-.005,7.994,27.346,27.346,0,0,0,3.015,7.252c.644,1.111,1.321,2.189,2.015,3.247a37.468,37.468,0,0,0,2.277,3.126c3.221,4.028,7.174,7.222,10.617,10.721a28.648,28.648,0,0,1,4.5,5.66,13.3,13.3,0,0,1,1.828,6.75.754.754,0,0,0,1.508.024v-.006a15.572,15.572,0,0,0-1.826-7.588,30.333,30.333,0,0,0-4.556-6.2c-3.415-3.732-6.937-7.221-9.828-11.1-.718-.974-1.4-1.959-2.056-2.97-.66-1.036-1.3-2.079-1.888-3.134a28.068,28.068,0,0,1-2.847-6.462,15.77,15.77,0,0,1-.307-6.84,31.9,31.9,0,0,1,1.5-5.6A68.377,68.377,0,0,1,86.02,38.8,22.645,22.645,0,0,0,83.879,47.7a23.105,23.105,0,0,0,2.6,11.62,32.585,32.585,0,0,1,1.5,3.282c.356,1,.8,1.967,1.08,2.988A14.569,14.569,0,0,1,89.5,68.7a10.35,10.35,0,0,1-.308,3.127l0,0a.458.458,0,0,0,.847.327,9.887,9.887,0,0,0,1.009-3.394,14.778,14.778,0,0,0-.089-3.537c-.02-.176-.045-.351-.069-.527.177.157.355.313.533.466,1.624,1.368,3.276,2.61,4.832,3.908a22,22,0,0,1,4.087,4.273,9.589,9.589,0,0,1,1.238,2.559,8.9,8.9,0,0,1,.339,2.809.739.739,0,0,0,1.477.074v0a10.82,10.82,0,0,0-1.662-6.324A25.127,25.127,0,0,0,97.592,67.6c-3.009-2.866-6.007-5.684-7.814-8.924a24.759,24.759,0,0,1-3.159-10.946,20.046,20.046,0,0,1,2.339-9.5,74.587,74.587,0,0,1,33.2,1.928,28.533,28.533,0,0,1,.594,6.188,33.663,33.663,0,0,1-1.189,8.271c-1.409,5.469-4.07,10.533-6.174,16.114a15.023,15.023,0,0,0-.683,2.332,12.154,12.154,0,0,0-.231,2.45,19.682,19.682,0,0,0,.642,4.645c.76,2.949,1.83,5.679,2.787,8.419a70.183,70.183,0,0,1,2.422,8.279,32.957,32.957,0,0,1,.752,8.509v.007a.616.616,0,0,0,1.229.073,37.879,37.879,0,0,0-.427-8.88,71.931,71.931,0,0,0-2.07-8.595,76.276,76.276,0,0,1-2.1-8.349,17.4,17.4,0,0,1-.252-4.025,10.7,10.7,0,0,1,.274-1.881,11.478,11.478,0,0,1,.635-1.827c.575-1.4,1.2-2.8,1.817-4.227a18.086,18.086,0,0,0,1.133,3.2,26.908,26.908,0,0,0,2.136,3.488c.37.559.764,1.1,1.142,1.637a10.989,10.989,0,0,1,1,1.6l0,.012q.011.024.024.048a.557.557,0,0,0,.969-.55c-.367-.646-.749-1.164-1.1-1.718s-.682-1.106-1-1.664a18.277,18.277,0,0,1-1.36-3.552,23.051,23.051,0,0,1-.733-3.645,22.154,22.154,0,0,1-.16-3.475,1.792,1.792,0,0,1,.1-.642,58.625,58.625,0,0,0,2.162-7.069,35.181,35.181,0,0,0,.9-9.028,27.926,27.926,0,0,0-.744-5.366c1.531.505,3.053,1.042,4.552,1.648a71.493,71.493,0,0,1,15.835,8.864,14.866,14.866,0,0,0-4.368,5.338c-1.512,3.071-1.765,6.416-1.97,9.553-.215,3.164-.274,6.275-.335,9.369-.024,3.1-.161,6.168-.363,9.259v.007A.518.518,0,0,0,138.4,85.514Z" transform="translate(-25 -33.113)"/><g id="TOP"><path class="cls-3" d="M69.6,149.584c-8.2,3.189-20.127-1.056-26.924-11.847s-6.89-12.7-4.15-16.8,14.429,12.589,14.429,12.589-2.855-11.24,3.764-9.264.762,7.511,5.781,13.464S79.011,145.925,69.6,149.584Z" transform="translate(-25 -33.113)"/><path class="cls-3" d="M92.877,142.638c-11.618-.4-5.855,5.455-9.671,5.807-1.385.128-5.241-2.98-1.947-6.211s-6.177-7.235-4.908-9.41,5.358-2.249,9.247-1.161-2.749-10.882.22-13.32,2.227,8.468,7.748,11.522,8.281,4.579,11.836,1.463,8.4-11.281,8.051-18.3-6.618-17.577-1.746-17.305,6.967,8.984,8.361,17.87-4.743,11.49,1.551,12.076,16.981-3.137,17.9-5.228,10.393-4.475,10.445,1.788-.8,12.443-18.957,9.755-22.062,1.213-30.594,7.131S92.877,142.638,92.877,142.638Z" transform="translate(-25 -33.113)"/><path class="cls-3" d="M99.578,124.71c3.617-.542-.209-17.253,4.162-27.186s10.717-34.285,6.985-39.983-16.479-10.059-13.4-2.154,15.245,13.572,8.312,28.618S88.16,71.949,81.134,69.481s-8.281,4.638,1.051,10.376,13.685,17,10.939,21.883-17.187,5.079-18.881-5.962S59.818,74.142,56.355,79.8,66.13,89.4,64.969,97s-10.019,5.71-6.682,12.349c7.654,15.224,11.732-3.263,25.555,2.2C94.394,115.712,93.231,125.661,99.578,124.71Z" transform="translate(-25 -33.113)"/><path class="cls-3" d="M127.046,119.012c-3.919-2.75,3.252-6.682,5.291-12.025s-4.036-17.064-2.666-23.013-6.274-26.161-.711-27.458,7.236,9.112,5.73,15-.952,22.357,2.09,21.824,6.8-28.21,11.387-25.878,11.585,11.962,3.053,17.88-3.793,9.875-6.069,17.61-9.259,8.718-9.657,11.039S130.622,121.521,127.046,119.012Z" transform="translate(-25 -33.113)"/></g><g id="RED"><path id="RED-2" data-name="RED" class="cls-4" d="M130.688,58.9a80.217,80.217,0,0,0-.867,10.546,74.1,74.1,0,0,0,.775,10.584c.506,3.5,1.19,6.957,1.67,10.411a59.189,59.189,0,0,1,.611,10.372c0,.864-.063,1.726-.129,2.588a20.322,20.322,0,0,1-.257,2.477,11.421,11.421,0,0,1-2.111,4.294,33.2,33.2,0,0,1-7.541,6.785c-2.827,1.982-5.826,3.758-8.869,5.482-2.453,1.394-4.94,2.733-7.414,4.193a20.751,20.751,0,0,0-2.139-5.345,22.978,22.978,0,0,0-4.889-5.856c-.092-.08-.19-.152-.283-.231a25.823,25.823,0,0,1,.012-7.922,68.675,68.675,0,0,1,1.708-8.379A128.69,128.69,0,0,1,106.62,82.67l.855-1.971c.287-.645.6-1.3.877-2.014a22.257,22.257,0,0,0,1.172-4.312,27.4,27.4,0,0,0-.065-8.832,26.127,26.127,0,0,0-2.88-8.3,19.489,19.489,0,0,0-5.767-6.518.121.121,0,0,0-.147.193,20.231,20.231,0,0,1,5.172,6.714,26.151,26.151,0,0,1,2.408,8.1,26.83,26.83,0,0,1-.138,8.4,20.8,20.8,0,0,1-1.126,4.014c-.255.629-.562,1.275-.868,1.945s-.592,1.327-.874,2c-.93,2.2-1.791,4.435-2.606,6.683a14.332,14.332,0,0,0-1.242-5.383,20.762,20.762,0,0,0-3.193-4.77c-1.214-1.449-2.507-2.8-3.685-4.245a.125.125,0,0,0-.162-.026.122.122,0,0,0-.035.168c1.033,1.573,2.189,3.059,3.229,4.6a25.991,25.991,0,0,1,2.607,4.806,15.984,15.984,0,0,1,1.2,5.208,19.568,19.568,0,0,1-.266,4.177c-.553,1.728-1.081,3.464-1.555,5.219a70.162,70.162,0,0,0-1.814,8.555,31.193,31.193,0,0,0-.294,6.712,32.9,32.9,0,0,0-4.094-2.542,58.035,58.035,0,0,0-6.745-2.952q-3.33-1.4-6.532-3.113A99.04,99.04,0,0,1,67.817,97.4,107.63,107.63,0,0,1,56.73,88.031a120.77,120.77,0,0,1-9.738-10.792l0,0a.243.243,0,0,0-.381.3,121.252,121.252,0,0,0,9.608,11.015,108.478,108.478,0,0,0,11.016,9.633,99.994,99.994,0,0,0,12.282,7.985c2.136,1.193,4.337,2.269,6.577,3.271,1.128.51,2.258.946,3.334,1.454s2.151,1.048,3.183,1.643a28.02,28.02,0,0,1,5.619,4.289,20.08,20.08,0,0,1,3.983,5.622,19.353,19.353,0,0,1,1.751,6.524c.216,2.451.626,4.881.965,7.314q.669,4.646,1.579,9.24c-6.319-.738-12.656-1.524-19.076-1.848-1.819-.088-3.648-.126-5.492-.056a17.942,17.942,0,0,0-5.611.937,10.458,10.458,0,0,0-1.287.665,7.8,7.8,0,0,1-1.123.511,13.908,13.908,0,0,1-2.464.675c-.383.069-.77.123-1.158.17a27.278,27.278,0,0,1-5.4-2.7,16.977,16.977,0,0,1-4.563-4.206,20.962,20.962,0,0,1-2.721-5.691,43.136,43.136,0,0,1-1.5-6.249.123.123,0,0,0-.123-.1.122.122,0,0,0-.118.125,29.485,29.485,0,0,0,.905,6.473,21.425,21.425,0,0,0,2.679,6.039,17.136,17.136,0,0,0,4.524,4.934,20.037,20.037,0,0,0,2.526,1.5c-.085,0-.171,0-.256-.008a27.355,27.355,0,0,1-10.149-2.69,32.164,32.164,0,0,1-8.63-6.164,42.767,42.767,0,0,1-6.5-8.5,59.219,59.219,0,0,1-4.5-9.779.121.121,0,0,0-.229.079,59.434,59.434,0,0,0,4.276,9.958A43.392,43.392,0,0,0,46.9,138.4a33.176,33.176,0,0,0,8.7,6.6,28.645,28.645,0,0,0,10.544,3.121,23.421,23.421,0,0,0,5.576-.163,15.508,15.508,0,0,0,2.763-.682,9.556,9.556,0,0,0,1.349-.573,8.489,8.489,0,0,1,1.124-.552,16.475,16.475,0,0,1,5.034-.675c1.76-.021,3.538.062,5.317.195,6.58.524,13.151,1.556,19.745,2.518a156.513,156.513,0,0,0,4.578,16.9c.023.069.051.143.081.212a2.622,2.622,0,1,0,4.813-2.084l-.012-.027a123.264,123.264,0,0,1-4.828-13.482q-2.072-6.9-3.564-13.981c-.432-2.1-.722-4.223-1.039-6.342,5.627-3.383,11.653-6.486,17.163-10.455a39.336,39.336,0,0,0,6.708-5.985l.886-.57c.62-.315,1.249-.61,1.871-.911.666-.2,1.3-.468,1.977-.64l1.023-.214a6.459,6.459,0,0,1,1.035-.17,20.4,20.4,0,0,1,2.113-.2c.712-.039,1.428-.065,2.157-.046,1.446-.023,2.921.042,4.405.063s2.983.039,4.485-.042a30.961,30.961,0,0,0,4.482-.586,26.379,26.379,0,0,0,8.291-3.364.125.125,0,0,0,.046-.154.121.121,0,0,0-.161-.06,31.074,31.074,0,0,1-8.381,2.384,43.943,43.943,0,0,1-8.694.137c-1.466-.088-2.939-.222-4.446-.267-.748-.034-1.507-.022-2.27,0a22.671,22.671,0,0,0-2.3.176,7.681,7.681,0,0,0-1.145.2l-1.141.256c-.637.176-1.26.413-1.881.644a12.661,12.661,0,0,0,1.2-3.3,21.445,21.445,0,0,0,.234-2.77c.048-.893.1-1.786.072-2.681a60.985,60.985,0,0,0-.994-10.641c-.609-3.5-1.411-6.92-2.03-10.363a73.027,73.027,0,0,1-1.244-10.4,79.825,79.825,0,0,1,.38-10.5.124.124,0,0,0-.1-.134A.122.122,0,0,0,130.688,58.9Z" transform="translate(-25 -33.113)"/><circle class="cls-5" cx="89.063" cy="131.203" r="2.137"/></g><g id="BLUE"><path id="BLUE-2" data-name="BLUE" class="cls-6" d="M118.776,46.324a.162.162,0,0,0-.15.173v0a26.213,26.213,0,0,1-1.035,8.31c-.721,2.72-1.626,5.392-2.57,8.052-1.9,5.318-3.937,10.605-5.7,16a131.78,131.78,0,0,0-4.3,16.516,92.921,92.921,0,0,0-1.438,13.61,28.623,28.623,0,0,0-6.116-4.775c-.292-.162-.6-.311-.9-.459a16.857,16.857,0,0,0,2.079-5.547,16.677,16.677,0,0,0-.193-6.719,34.393,34.393,0,0,0-5.724-11.643c-2.44-3.508-5.133-6.776-7.809-10.04-2.719-3.23-5.371-6.5-7.94-9.845a.162.162,0,0,0-.266.183c2.238,3.592,4.742,7.012,7.21,10.437,2.5,3.4,5.026,6.774,7.287,10.278a48.91,48.91,0,0,1,3.034,5.409,24.966,24.966,0,0,1,2.007,5.7,15.191,15.191,0,0,1-1.687,10.975,13.247,13.247,0,0,0-2.182-.537,46.687,46.687,0,0,1-4.669-.956,62.991,62.991,0,0,1-17.77-7.392,40.6,40.6,0,0,1-13.909-13.3.166.166,0,0,0-.213-.062.161.161,0,0,0-.07.218A40.541,40.541,0,0,0,69.06,95.42a65.085,65.085,0,0,0,17.977,8.534,49.408,49.408,0,0,0,4.918,1.16,12.36,12.36,0,0,1,4.071,1.6,28.562,28.562,0,0,1,6.85,6.241,47.94,47.94,0,0,1,5.158,7.938,45.028,45.028,0,0,1,1.914,4.281c1.412,3.635,1.678,8.741,3.013,14.7A69.884,69.884,0,0,0,101.08,138c-2.658-.207-5.3-.23-7.877-.369-.027-.187-.046-.378-.087-.557-.1-.662-.267-1.291-.425-1.923-.329-1.26-.72-2.488-1.159-3.7a50.082,50.082,0,0,0-3.034-7.076,34.625,34.625,0,0,0-4.406-6.325,17.858,17.858,0,0,0-6.043-4.735.162.162,0,0,0-.142.29l.006,0a17.209,17.209,0,0,1,5.356,5.1,47.269,47.269,0,0,1,3.774,6.433,55.749,55.749,0,0,1,3.048,6.814,34.374,34.374,0,0,1,1.012,3.571,17.27,17.27,0,0,1,.328,1.984,30.746,30.746,0,0,1-5.412-.871,24.2,24.2,0,0,1-6.659-3c-1.03-.7-2.023-1.389-3.063-2.165-1.05-.74-2.145-1.429-3.149-2.227-2-1.606-3.972-3.24-5.9-4.945a28.984,28.984,0,0,0-3.031-2.454,19.864,19.864,0,0,0-3.469-1.791.244.244,0,0,0-.315.122.241.241,0,0,0,.119.321,19.455,19.455,0,0,1,3.32,1.842,28.048,28.048,0,0,1,2.831,2.548c1.828,1.808,3.677,3.616,5.576,5.363.947.876,1.812,1.851,2.741,2.752.232.227.468.444.711.662l.773.628c.522.412,1.023.853,1.566,1.242a26.139,26.139,0,0,0,7.218,3.578,33.185,33.185,0,0,0,5.38,1.233,58.267,58.267,0,0,1-10.3,7.927,38.9,38.9,0,0,1-13.445,5.37,25.316,25.316,0,0,1-7.213.154,23.379,23.379,0,0,1-6.907-2.011,27.887,27.887,0,0,1-6.087-3.94l-1.375-1.21c-.439-.424-.856-.872-1.289-1.306l-.648-.653-.6-.7-1.207-1.4-.006-.007a.161.161,0,0,0-.253.2,35.488,35.488,0,0,0,4.834,5.685,27.605,27.605,0,0,0,6.146,4.338,24.329,24.329,0,0,0,14.794,2.013A41.028,41.028,0,0,0,81.2,149.68a59.717,59.717,0,0,0,11.842-9.017l.08.01c2.6.284,5.155.461,7.678.7a82.113,82.113,0,0,1,13.051,2.275,134.562,134.562,0,0,0,6.158,19.111,2.424,2.424,0,1,0,4.474-1.867c-6.179-14.81-8.983-33.086-10.71-37.33-.192-.472-.449-.908-.677-1.359,1.419-.865,2.816-1.772,4.16-2.758a49.587,49.587,0,0,0,4.9-4.031,36.22,36.22,0,0,0,2.907-3.115,32.4,32.4,0,0,1,8.015-4.245A37.705,37.705,0,0,1,137.8,106.7a39.41,39.41,0,0,1,4.877-.7,34.767,34.767,0,0,1,4.926-.056,18.9,18.9,0,0,0,2.591.023c.867-.059,1.716-.18,2.558-.322a51.052,51.052,0,0,0,9.682-2.978.161.161,0,0,0-.1-.305h0a72.459,72.459,0,0,1-9.754,2.122c-.816.1-1.632.188-2.44.211a17.492,17.492,0,0,1-2.432-.119,36.215,36.215,0,0,0-5.124-.033,41.277,41.277,0,0,0-5.083.657,39.293,39.293,0,0,0-4.954,1.358,34.077,34.077,0,0,0-5.151,2.4,13.355,13.355,0,0,0,1.623-4.405,9.853,9.853,0,0,0,.1-1.7l-.025-.833-.088-.8c-.049-.539-.13-1.066-.224-1.588s-.176-1.047-.29-1.56c-.439-2.064-.987-4.084-1.579-6.087-1.22-4-2.556-7.94-4.082-11.817a.166.166,0,0,0-.2-.1.162.162,0,0,0-.107.2c1.154,3.99,2.287,7.987,3.2,12.025.476,2.012.906,4.035,1.22,6.058a18.948,18.948,0,0,1,.3,5.9A13.481,13.481,0,0,1,124.8,109.5a30.657,30.657,0,0,1-3.969,4.538,57.405,57.405,0,0,1-8.522,6.679c-.312-.564-.624-1.128-.957-1.677a53.859,53.859,0,0,0-5.785-7.9c.019-2.366.1-4.731.274-7.093.224-2.789.585-5.568,1.045-8.332A130.176,130.176,0,0,1,110.708,79.3c1.568-5.414,3.425-10.753,5.154-16.15.858-2.7,1.68-5.42,2.318-8.193a26.694,26.694,0,0,0,.768-8.485A.162.162,0,0,0,118.776,46.324Z" transform="translate(-25 -33.113)"/><circle class="cls-7" cx="97.209" cy="128.723" r="2.075"/></g></g></svg>