<svg id="Layer_1" data-name="Layer 1" xmlns="http://www.w3.org/2000/svg" xmlns:xlink="http://www.w3.org/1999/xlink" viewBox="0 0 50.125 64.974"><defs><style>.cls-1{fill:url(#linear-gradient);}.cls-2{fill:url(#linear-gradient-2);}.cls-3{fill:url(#linear-gradient-3);}.cls-4{fill:url(#linear-gradient-4);}.cls-5{fill:url(#linear-gradient-5);}.cls-6{fill:url(#linear-gradient-6);}.cls-7{fill:url(#linear-gradient-7);}.cls-8{fill:url(#linear-gradient-8);}.cls-9{fill:url(#linear-gradient-9);}.cls-10{fill:url(#linear-gradient-10);}.cls-11{fill:url(#linear-gradient-11);}</style><linearGradient id="linear-gradient" x1="749.483" y1="1405.166" x2="733.779" y2="1403.994" gradientTransform="matrix(-0.142, -0.99, 0.99, -0.142, -1191.931, 1039.629)" gradientUnits="userSpaceOnUse"><stop offset="0" stop-color="#0f231b"/><stop offset="0.094" stop-color="#30906b"/><stop offset="0.117" stop-color="#37936f"/><stop offset="0.15" stop-color="#499c7c"/><stop offset="0.189" stop-color="#68aa90"/><stop offset="0.231" stop-color="#92bdac"/><stop offset="0.273" stop-color="#c1d3cc"/><stop offset="0.31" stop-color="#bed2ca"/><stop offset="0.335" stop-color="#b5cec4"/><stop offset="0.357" stop-color="#a6c6ba"/><stop offset="0.377" stop-color="#90bcab"/><stop offset="0.396" stop-color="#74b099"/><stop offset="0.413" stop-color="#52a082"/><stop offset="0.428" stop-color="#30906b"/><stop offset="0.506" stop-color="#29795a"/><stop offset="0.652" stop-color="#1e543f"/><stop offset="0.787" stop-color="#16392b"/><stop offset="0.908" stop-color="#11291f"/><stop offset="1" stop-color="#0f231b"/></linearGradient><linearGradient id="linear-gradient-2" x1="908.304" y1="265.449" x2="896.998" y2="264.605" gradientTransform="matrix(0.142, -0.99, -0.99, -0.142, 237.577, 1039.629)" xlink:href="#linear-gradient"/><linearGradient id="linear-gradient-3" x1="956.219" y1="1434.419" x2="943.101" y2="1433.44" gradientTransform="matrix(-0.142, 0.99, 0.99, 0.142, -1191.931, -1059.144)" xlink:href="#linear-gradient"/><linearGradient id="linear-gradient-4" x1="1360.074" y1="-1387.106" x2="1334.622" y2="-1389.005" gradientTransform="translate(-1460.128 -1059.144) rotate(81.862)" xlink:href="#linear-gradient"/><linearGradient id="linear-gradient-5" x1="1709.048" y1="-676.688" x2="1707.663" y2="-671.478" gradientTransform="translate(-1489.848 1011.709) rotate(-8.138)" xlink:href="#linear-gradient"/><linearGradient id="linear-gradient-6" x1="1300.365" y1="-1520.187" x2="1318.235" y2="-1517.001" gradientTransform="translate(-1414.452 -1186.834) rotate(90)" xlink:href="#linear-gradient"/><linearGradient id="linear-gradient-7" x1="1319.111" y1="-1508.727" x2="1299.718" y2="-1510.173" gradientTransform="translate(-1414.452 -1186.834) rotate(90)" xlink:href="#linear-gradient"/><linearGradient id="linear-gradient-8" x1="2646.906" y1="-45.075" x2="2664.776" y2="-41.889" gradientTransform="translate(-2540.857 132.77)" xlink:href="#linear-gradient"/><linearGradient id="linear-gradient-9" x1="2665.651" y1="-33.615" x2="2646.259" y2="-35.061" gradientTransform="translate(-2540.857 132.77)" xlink:href="#linear-gradient"/><linearGradient id="linear-gradient-10" x1="-186.475" y1="-161.919" x2="-168.605" y2="-158.732" gradientTransform="translate(-94.849 -60.429) rotate(180)" xlink:href="#linear-gradient"/><linearGradient id="linear-gradient-11" x1="-167.729" y1="-150.458" x2="-187.121" y2="-151.905" gradientTransform="translate(-94.849 -60.429) rotate(180)" xlink:href="#linear-gradient"/></defs><title>tRNA</title><g id="tRNA"><path class="cls-1" d="M91.5,100.149c4.4-2.855,4.512,9.45,1.784,13.512l-.085.113c1.073-3.292,1.4-15.226-1.806-13.545Z" transform="translate(-73.775 -66.408)"/><path class="cls-2" d="M103.919,104.079c-4.4-2.855-2.252,5.521.476,9.582l.085.113c-1.073-3.292-3.657-11.292-.447-9.611Z" transform="translate(-73.775 -66.408)"/><path class="cls-3" d="M91.5,89.035C97.046,91.8,93.535,79.4,89.979,77.78l2.494,1.426c3.5,2.145,7.326,13.912-1.089,9.745Z" transform="translate(-73.775 -66.408)"/><path class="cls-4" d="M106.179,89.035c-5.549,2.769-2.046-21.011,1.511-22.627L105.2,67.834c-3.5,2.145-7.319,25.284,1.1,21.117Z" transform="translate(-73.775 -66.408)"/><path class="cls-5" d="M106.292,100.233c3.467,4.653-.949,4.948-2.26,3.93l-.113-.085c.879.675,3.746-.194,2.26-3.93Z" transform="translate(-73.775 -66.408)"/><path class="cls-6" d="M97.363,131.382c12.658,0,7.031-17.721,7.031-17.721l.085.113s12.588,17.608-5.265,17.608Z" transform="translate(-73.775 -66.408)"/><path class="cls-7" d="M100.312,131.382c-12.658,0-7.031-17.721-7.031-17.721l-.085.113s-12.588,17.608,5.265,17.608Z" transform="translate(-73.775 -66.408)"/><path class="cls-8" d="M123.9,96.066c0-12.658-17.721-7.031-17.721-7.031l.113-.085S123.9,76.362,123.9,94.215Z" transform="translate(-73.775 -66.408)"/><path class="cls-9" d="M123.9,93.118c0,12.658-17.721,7.031-17.721,7.031l.113.085S123.9,112.822,123.9,94.969Z" transform="translate(-73.775 -66.408)"/><path class="cls-10" d="M73.775,93.118c0,12.658,17.721,7.031,17.721,7.031l-.113.085s-17.608,12.588-17.608-5.265Z" transform="translate(-73.775 -66.408)"/><path class="cls-11" d="M73.775,96.066c0-12.658,17.721-7.031,17.721-7.031l-.113-.085S73.775,76.362,73.775,94.215Z" transform="translate(-73.775 -66.408)"/></g></svg>