<svg id="mRNA-Blue" xmlns="http://www.w3.org/2000/svg" xmlns:xlink="http://www.w3.org/1999/xlink" viewBox="0 0 180 89.816"><defs><style>.cls-1{fill:url(#radial-gradient);}.cls-2{fill:url(#linear-gradient);}.cls-3{fill:url(#linear-gradient-2);}.cls-4{fill:url(#linear-gradient-3);}.cls-5{fill:url(#linear-gradient-4);}.cls-6{fill:url(#linear-gradient-5);}.cls-7{fill:url(#linear-gradient-6);}.cls-8{fill:url(#linear-gradient-7);}.cls-9{fill:url(#linear-gradient-8);}.cls-10{fill:url(#linear-gradient-9);}.cls-11{fill:url(#linear-gradient-10);}.cls-12{fill:url(#linear-gradient-11);}.cls-13{fill:url(#linear-gradient-12);}.cls-14{fill:url(#linear-gradient-13);}.cls-15{fill:url(#linear-gradient-14);}.cls-16{fill:url(#linear-gradient-15);}.cls-17{fill:url(#linear-gradient-16);}.cls-18{fill:url(#linear-gradient-17);}.cls-19{fill:url(#linear-gradient-18);}.cls-20{fill:#80e5ff;}.cls-21{fill:url(#linear-gradient-19);}.cls-22{fill:url(#linear-gradient-20);}.cls-23{fill:url(#linear-gradient-21);}.cls-24{fill:url(#linear-gradient-22);}.cls-25{fill:#08a;}.cls-25,.cls-31{opacity:0.6;isolation:isolate;}.cls-26{fill:url(#linear-gradient-23);}.cls-27{fill:url(#linear-gradient-24);}.cls-28{fill:url(#linear-gradient-25);}.cls-29{fill:url(#linear-gradient-26);}.cls-30{fill:#c8ab37;}.cls-31{fill:#a0892c;}.cls-32{fill:url(#linear-gradient-27);}</style><radialGradient id="radial-gradient" cx="-211.345" cy="735.069" r="8.457" gradientTransform="matrix(0.033, 1.134, 1.257, -0.044, -754.791, 276.852)" gradientUnits="userSpaceOnUse"><stop offset="0" stop-color="#e9ddaf"/><stop offset="1" stop-color="#786721"/></radialGradient><linearGradient id="linear-gradient" x1="95.668" y1="697.658" x2="117.808" y2="697.658" gradientTransform="matrix(0.334, 0.579, 1.108, -0.64, -641.464, 449.229)" gradientUnits="userSpaceOnUse"><stop offset="0" stop-color="#2ad4ff"/><stop offset="1" stop-color="#045"/></linearGradient><linearGradient id="linear-gradient-2" x1="3.026" y1="694.13" x2="20.712" y2="694.13" gradientTransform="matrix(0.418, 0.724, 1.108, -0.64, -614.144, 499.397)" xlink:href="#linear-gradient"/><linearGradient id="linear-gradient-3" x1="-708.716" y1="688.509" x2="-684.821" y2="688.509" gradientTransform="translate(-1055.03 -267.087) rotate(-120) scale(1.28)" gradientUnits="userSpaceOnUse"><stop offset="0" stop-color="#00aad4"/><stop offset="0.498" stop-color="#045"/><stop offset="1" stop-color="#00aad4"/></linearGradient><linearGradient id="linear-gradient-4" x1="15.312" y1="608.369" x2="32.999" y2="608.369" gradientTransform="matrix(0.418, 0.724, 1.108, -0.64, -619.465, 484.487)" gradientUnits="userSpaceOnUse"><stop offset="0" stop-color="#045"/><stop offset="1" stop-color="#00aad4"/></linearGradient><linearGradient id="linear-gradient-5" x1="-142.463" y1="703.281" x2="-118.568" y2="703.281" gradientTransform="matrix(0.644, 1.106, 1.106, -0.644, -642.303, 720.928)" gradientUnits="userSpaceOnUse"><stop offset="0" stop-color="#e9ddaf"/><stop offset="0.506" stop-color="#786721"/><stop offset="1" stop-color="#e9ddaf"/></linearGradient><linearGradient id="linear-gradient-6" x1="133.786" y1="604.841" x2="155.926" y2="604.841" gradientTransform="matrix(0.334, 0.579, 1.108, -0.64, -660.762, 415.805)" xlink:href="#linear-gradient-4"/><linearGradient id="linear-gradient-7" x1="-708.716" y1="651.42" x2="-684.821" y2="651.42" xlink:href="#linear-gradient-3"/><linearGradient id="linear-gradient-8" x1="-708.716" y1="614.496" x2="-684.821" y2="614.496" xlink:href="#linear-gradient-3"/><linearGradient id="linear-gradient-9" x1="5.116" y1="625.642" x2="22.802" y2="625.642" gradientTransform="matrix(0.418, 0.724, 1.108, -0.64, -611.572, 494.854)" xlink:href="#linear-gradient"/><linearGradient id="linear-gradient-10" x1="97.675" y1="622.114" x2="119.814" y2="622.114" gradientTransform="matrix(0.334, 0.579, 1.108, -0.64, -641.05, 446.644)" xlink:href="#linear-gradient"/><linearGradient id="linear-gradient-11" x1="135.792" y1="641.724" x2="157.932" y2="641.724" gradientTransform="matrix(0.334, 0.579, 1.108, -0.64, -661.507, 413.89)" xlink:href="#linear-gradient-4"/><linearGradient id="linear-gradient-12" x1="12.841" y1="638.196" x2="30.528" y2="638.196" gradientTransform="matrix(0.418, 0.724, 1.108, -0.64, -620.094, 488.467)" xlink:href="#linear-gradient-4"/><linearGradient id="linear-gradient-13" x1="3.76" y1="664.289" x2="21.446" y2="664.289" gradientTransform="matrix(0.418, 0.724, 1.108, -0.64, -612.398, 497.315)" xlink:href="#linear-gradient"/><linearGradient id="linear-gradient-14" x1="95" y1="660.761" x2="117.139" y2="660.761" gradientTransform="matrix(0.334, 0.579, 1.108, -0.64, -641.38, 449.963)" xlink:href="#linear-gradient"/><linearGradient id="linear-gradient-15" x1="135.792" y1="679.386" x2="157.932" y2="679.386" gradientTransform="matrix(0.334, 0.579, 1.108, -0.64, -662.1, 414.232)" xlink:href="#linear-gradient-4"/><linearGradient id="linear-gradient-16" x1="14.978" y1="675.858" x2="32.665" y2="675.858" gradientTransform="matrix(0.418, 0.724, 1.108, -0.64, -622.041, 486.463)" xlink:href="#linear-gradient-4"/><linearGradient id="linear-gradient-17" x1="-708.716" y1="632.876" x2="-684.821" y2="632.876" gradientTransform="translate(-1055.03 -267.087) rotate(-120) scale(1.28)" gradientUnits="userSpaceOnUse"><stop offset="0" stop-color="#006680"/><stop offset="0.49" stop-color="#0cf"/><stop offset="1" stop-color="#006680"/></linearGradient><linearGradient id="linear-gradient-18" x1="-708.716" y1="669.965" x2="-684.821" y2="669.965" xlink:href="#linear-gradient-17"/><linearGradient id="linear-gradient-19" x1="18.518" y1="682.914" x2="36.204" y2="682.914" gradientTransform="matrix(0.418, 0.724, 1.108, -0.64, -621.819, 481.155)" xlink:href="#linear-gradient-4"/><linearGradient id="linear-gradient-20" x1="5.162" y1="657.233" x2="22.849" y2="657.233" gradientTransform="matrix(0.418, 0.724, 1.108, -0.64, -615.752, 497.199)" xlink:href="#linear-gradient"/><linearGradient id="linear-gradient-21" x1="18.518" y1="645.252" x2="36.204" y2="645.252" gradientTransform="matrix(0.418, 0.724, 1.108, -0.64, -621.226, 480.812)" xlink:href="#linear-gradient-4"/><linearGradient id="linear-gradient-22" x1="108.595" y1="618.585" x2="126.281" y2="618.585" gradientTransform="matrix(0.334, 0.579, 1.108, -0.64, -646.684, 439.733)" xlink:href="#linear-gradient"/><linearGradient id="linear-gradient-23" x1="7.995" y1="799.691" x2="25.681" y2="799.691" gradientTransform="matrix(0.421, 0.723, 1.106, -0.644, -855.053, 636.63)" gradientUnits="userSpaceOnUse"><stop offset="0" stop-color="#decd87"/><stop offset="1" stop-color="#a0892c"/></linearGradient><linearGradient id="linear-gradient-24" x1="98.546" y1="803.219" x2="120.685" y2="803.219" gradientTransform="matrix(0.336, 0.577, 1.106, -0.644, -880.859, 589.492)" xlink:href="#linear-gradient-23"/><linearGradient id="linear-gradient-25" x1="14.319" y1="708.601" x2="32.005" y2="708.601" gradientTransform="matrix(0.421, 0.723, 1.106, -0.644, -737.843, 559.092)" gradientUnits="userSpaceOnUse"><stop offset="0" stop-color="#a0892c"/><stop offset="1" stop-color="#c8ab37"/></linearGradient><linearGradient id="linear-gradient-26" x1="6.593" y1="696.048" x2="24.279" y2="696.048" gradientTransform="matrix(0.421, 0.723, 1.106, -0.644, -729.297, 565.446)" xlink:href="#linear-gradient-23"/><linearGradient id="linear-gradient-27" x1="-142.383" y1="685.063" x2="-118.487" y2="685.063" gradientTransform="matrix(0.644, 1.106, 1.106, -0.644, -642.653, 720.95)" gradientUnits="userSpaceOnUse"><stop offset="0" stop-color="#786721"/><stop offset="0.506" stop-color="#e9ddaf"/><stop offset="1" stop-color="#786721"/></linearGradient></defs><title>R-ICO-013678</title><circle id="path1081-9" class="cls-1" cx="166.944" cy="13.071" r="13.053"/><g id="g1254"><path id="rect2527" class="cls-2" d="M164.305,58.175l7.1,12.3c.082.141-.089.393-.381.561l-.071.041c-.292.168-.594.191-.676.049l-7.1-12.3c-.081-.141.089-.393.381-.561l.071-.041C163.921,58.056,164.224,58.034,164.305,58.175Z" transform="translate(-10 -55.092)"/><path id="rect2529" class="cls-3" d="M157.019,57.43l7.1,12.3c.082.141-.089.393-.381.561l-.07.041c-.292.169-.595.191-.677.049l-7.1-12.3c-.082-.141.089-.392.381-.561l.07-.041C156.634,57.311,156.937,57.289,157.019,57.43Z" transform="translate(-10 -55.092)"/><path id="path19758" class="cls-4" d="M133.32,58.955a16.631,16.631,0,0,1,4.863.994c2.09.727,1.117.2,11.923,6.509,5.27,3.078,9.7,5.645,9.841,5.7l.931.388a14.245,14.245,0,0,0,6.735,1.313l.631-.077,3.145-1.817,3.144-1.817-.7-.024a18.163,18.163,0,0,1-5.146-1.141c-1.766-.661-.958-.214-11.5-6.373-8.563-5-9.641-5.623-10.146-5.837-3.065-1.3-5.557-1.818-7.387-1.539l-.59.09-3.082,1.809-3.082,1.81Z" transform="translate(-10 -55.092)"/><path id="rect2531" class="cls-5" d="M61.8,106.288l7.1,12.3c.082.141-.089.392-.381.561l-.07.041c-.292.168-.595.19-.677.049l-7.1-12.3c-.082-.141.089-.393.381-.561l.07-.041C61.418,106.169,61.721,106.146,61.8,106.288Z" transform="translate(-10 -55.092)"/><path id="path1124" class="cls-6" d="M45.98,144.188a16.6,16.6,0,0,0,1.552-4.714c.407-2.175.385-1.067.274-13.581-.054-6.1-.083-11.222-.064-11.375s.076-.6.126-1a14.25,14.25,0,0,1,2.206-6.5l.38-.509,3.139-1.827,3.139-1.827-.328.621a18.237,18.237,0,0,0-1.565,5.033c-.3,1.861-.291.938-.181,13.146.088,9.918.091,11.161.026,11.706-.395,3.306-1.182,5.726-2.334,7.176l-.371.467-3.1,1.776-3.1,1.776Z" transform="translate(-10 -55.092)"/><path id="rect2533" class="cls-7" d="M54.89,106.191l7.1,12.3c.081.142-.089.393-.381.562l-.071.04c-.292.169-.595.191-.676.05l-7.1-12.3c-.081-.141.089-.392.381-.561l.071-.04C54.506,106.072,54.809,106.05,54.89,106.191Z" transform="translate(-10 -55.092)"/><path id="path19739" class="cls-8" d="M92.221,82.684a16.625,16.625,0,0,1,4.862.994c2.09.727,1.117.2,11.923,6.508,5.27,3.079,9.7,5.646,9.841,5.706l.931.388a14.258,14.258,0,0,0,6.736,1.313l.63-.077,3.145-1.817,3.145-1.817-.7-.024a18.2,18.2,0,0,1-5.145-1.141c-1.766-.661-.959-.214-11.5-6.373-8.564-5-9.641-5.623-10.147-5.837-3.065-1.3-5.556-1.818-7.387-1.539l-.59.09-3.082,1.809L91.8,82.677Z" transform="translate(-10 -55.092)"/><path id="path19741" class="cls-9" d="M51.3,106.307a16.619,16.619,0,0,1,4.862.994c2.09.727,1.117.2,11.924,6.509,5.27,3.078,9.7,5.646,9.84,5.7l.932.388a14.242,14.242,0,0,0,6.735,1.313l.63-.076,3.145-1.818,3.145-1.817-.7-.023a18.2,18.2,0,0,1-5.146-1.142c-1.766-.661-.958-.213-11.5-6.372-8.564-5-9.641-5.624-10.146-5.838-3.066-1.3-5.557-1.818-7.388-1.539l-.589.09-3.082,1.809-3.082,1.81Z" transform="translate(-10 -55.092)"/><path id="rect2521" class="cls-10" d="M84.571,98.217l7.1,12.3c.082.141-.089.392-.381.561l-.07.04c-.292.169-.595.191-.677.05l-7.1-12.3c-.082-.142.089-.393.381-.562l.07-.04C84.186,98.1,84.489,98.076,84.571,98.217Z" transform="translate(-10 -55.092)"/><path id="rect2523" class="cls-11" d="M81.678,105.082l7.1,12.3c.082.141-.089.392-.381.561l-.07.04c-.292.169-.595.191-.677.05l-7.1-12.3c-.082-.142.089-.393.381-.561l.07-.041C81.293,104.963,81.6,104.941,81.678,105.082Z" transform="translate(-10 -55.092)"/><path id="rect2517" class="cls-12" d="M95.686,81.84l7.1,12.3c.081.142-.089.393-.381.561l-.071.041c-.292.169-.595.191-.676.049l-7.1-12.3c-.081-.141.089-.392.381-.561l.071-.041C95.3,81.721,95.605,81.7,95.686,81.84Z" transform="translate(-10 -55.092)"/><path id="rect2519" class="cls-13" d="M93.191,89.4l7.1,12.3c.081.141-.089.392-.381.561l-.071.04c-.292.169-.595.191-.676.05l-7.1-12.3c-.081-.142.089-.393.381-.561l.071-.041C92.807,89.276,93.11,89.254,93.191,89.4Z" transform="translate(-10 -55.092)"/><path id="rect2509" class="cls-14" d="M126,74.971l7.1,12.3c.081.141-.089.392-.381.561l-.071.041c-.292.168-.595.19-.676.049l-7.1-12.3c-.081-.141.089-.393.381-.561l.071-.041C125.62,74.851,125.923,74.829,126,74.971Z" transform="translate(-10 -55.092)"/><path id="rect2511" class="cls-15" d="M123.279,82.127l7.1,12.3c.081.142-.089.393-.381.561l-.071.041c-.292.169-.595.191-.676.049l-7.1-12.3c-.081-.141.089-.392.381-.561l.071-.04C122.9,82.008,123.2,81.986,123.279,82.127Z" transform="translate(-10 -55.092)"/><path id="rect2505" class="cls-16" d="M136.827,58.087l7.1,12.3c.081.142-.089.393-.381.561l-.071.041c-.292.169-.595.191-.676.05l-7.1-12.3c-.081-.141.089-.392.381-.561l.071-.04C136.443,57.968,136.746,57.946,136.827,58.087Z" transform="translate(-10 -55.092)"/><path id="rect2507" class="cls-17" d="M133.872,64.845l7.1,12.3c.081.141-.089.393-.381.561l-.071.041c-.292.169-.595.191-.676.049l-7.1-12.3c-.082-.141.089-.392.381-.561l.071-.041C133.488,64.726,133.79,64.7,133.872,64.845Z" transform="translate(-10 -55.092)"/><path id="path19745" class="cls-18" d="M86.69,120.562a16.614,16.614,0,0,0,1.57-4.708c.416-2.173.389-1.065.325-13.58-.031-6.1-.04-11.222-.02-11.375s.078-.6.129-1a14.252,14.252,0,0,1,2.231-6.489l.381-.508,3.147-1.815L97.6,79.271l-.331.62a18.223,18.223,0,0,0-1.584,5.027c-.31,1.86-.294.937-.231,13.145.051,9.918.049,11.161-.018,11.706-.407,3.3-1.2,5.721-2.361,7.167l-.373.466-3.107,1.764-3.108,1.764Z" transform="translate(-10 -55.092)"/><path id="path19747" class="cls-19" d="M127.789,96.833a16.6,16.6,0,0,0,1.571-4.708c.415-2.173.389-1.065.325-13.58-.031-6.1-.04-11.222-.02-11.375s.077-.6.129-1a14.245,14.245,0,0,1,2.23-6.489l.382-.508,3.146-1.814,3.146-1.815-.33.619a18.189,18.189,0,0,0-1.584,5.027c-.311,1.86-.294.937-.231,13.146.051,9.918.049,11.161-.018,11.705-.408,3.3-1.2,5.722-2.361,7.167l-.373.466-3.108,1.764L127.585,97.2Z" transform="translate(-10 -55.092)"/><path id="path2574" class="cls-20" d="M150.247,58.6c-2.632-1.942-7.13-3.721-10.15-3.491-3.308.252-3.732,5.447-3.506,11.379-.114-4.654.6-8.767,2.8-10.083S145.6,56.445,150.247,58.6Z" transform="translate(-10 -55.092)"/><path id="path2576" class="cls-20" d="M116.013,94.236c2.632,1.942,7.13,3.721,10.151,3.491,3.308-.252,3.731-5.447,3.506-11.378.114,4.653-.6,8.766-2.8,10.082s-6.206-.037-10.852-2.195Z" transform="translate(-10 -55.092)"/><path id="path2580" class="cls-20" d="M74.957,117.873c2.633,1.942,7.131,3.721,10.151,3.491,3.308-.252,3.732-5.447,3.506-11.378.114,4.653-.6,8.766-2.8,10.082s-6.207-.037-10.853-2.195Z" transform="translate(-10 -55.092)"/><path id="path2584" class="cls-20" d="M109.113,82.219c-2.632-1.942-7.13-3.721-10.15-3.491-3.309.252-3.732,5.447-3.507,11.379-.114-4.654.6-8.767,2.8-10.083s6.206.037,10.852,2.195Z" transform="translate(-10 -55.092)"/><path id="path2594" class="cls-20" d="M174.614,70.111a2.912,2.912,0,0,1-.358.049c-3.02.231-7.518-1.549-10.151-3.491,4.1,1.9,7.691,3.179,10,2.552Z" transform="translate(-10 -55.092)"/><path id="rect2501" class="cls-21" d="M143.4,57.586l7.1,12.3c.082.141-.089.392-.381.561l-.07.041c-.292.168-.595.19-.677.049l-7.1-12.3c-.082-.142.089-.393.381-.561l.07-.041C143.01,57.466,143.313,57.444,143.4,57.586Z" transform="translate(-10 -55.092)"/><path id="rect2513" class="cls-22" d="M115.417,80.385l7.1,12.3c.082.142-.089.393-.381.562l-.07.04c-.292.169-.595.191-.677.05l-7.1-12.3c-.082-.142.089-.393.381-.562l.07-.04C115.032,80.266,115.335,80.244,115.417,80.385Z" transform="translate(-10 -55.092)"/><path id="rect2515" class="cls-23" d="M102.253,81.338l7.1,12.3c.081.141-.089.392-.381.561l-.071.04c-.292.169-.595.191-.676.05l-7.1-12.3c-.081-.142.089-.393.381-.561l.071-.041C101.869,81.219,102.172,81.2,102.253,81.338Z" transform="translate(-10 -55.092)"/><path id="rect2525" class="cls-24" d="M75.753,106.7l5.673,9.826c.065.113-.119.341-.411.51l-.071.041c-.292.168-.581.214-.646.1l-5.673-9.826c-.066-.113.118-.341.41-.51l.071-.041C75.4,106.629,75.687,106.584,75.753,106.7Z" transform="translate(-10 -55.092)"/><path id="rect1153" class="cls-25" d="M71.617,110.875l1.278,2.214a1.79,1.79,0,0,1-.5.351l-.07.041a1.82,1.82,0,0,1-.556.259l-1.278-2.214a1.781,1.781,0,0,1,.5-.352l.07-.04A1.764,1.764,0,0,1,71.617,110.875Z" transform="translate(-10 -55.092)"/><path id="rect1157" class="cls-25" d="M112.017,86.869l1.279,2.215a1.814,1.814,0,0,1-.5.351l-.071.041a1.821,1.821,0,0,1-.555.259L110.89,87.52a1.814,1.814,0,0,1,.5-.351l.07-.041A1.832,1.832,0,0,1,112.017,86.869Z" transform="translate(-10 -55.092)"/><path id="rect1587" class="cls-25" d="M153.838,63.522l1.279,2.214a1.809,1.809,0,0,1-.5.351l-.071.041a1.765,1.765,0,0,1-.555.259l-1.279-2.214a1.819,1.819,0,0,1,.5-.352l.071-.04A1.775,1.775,0,0,1,153.838,63.522Z" transform="translate(-10 -55.092)"/><path id="rect1242" class="cls-26" d="M33.242,127.363l7.148,12.273c.082.141-.087.393-.379.562l-.07.041c-.291.17-.594.193-.676.052l-7.148-12.273c-.082-.141.087-.393.379-.562l.07-.041C32.857,127.245,33.16,127.222,33.242,127.363Z" transform="translate(-10 -55.092)"/><path id="rect1240" class="cls-27" d="M41.111,129.075l7.148,12.273c.082.141-.087.393-.379.563l-.07.041c-.291.169-.594.192-.676.051L39.986,129.73c-.082-.141.087-.393.379-.562l.07-.041C40.726,128.957,41.029,128.934,41.111,129.075Z" transform="translate(-10 -55.092)"/><path id="rect1130" class="cls-28" d="M52.4,113.053l7.148,12.274c.082.141-.087.392-.379.562l-.07.041c-.291.17-.594.193-.676.052l-7.148-12.273c-.082-.141.087-.393.379-.563l.07-.041C52.011,112.936,52.314,112.912,52.4,113.053Z" transform="translate(-10 -55.092)"/><path id="rect1132" class="cls-29" d="M43.809,121.908l7.148,12.273c.082.141-.087.393-.379.563l-.07.041c-.291.169-.594.193-.676.052l-7.148-12.274c-.082-.141.087-.392.379-.562l.07-.041C43.424,121.79,43.727,121.767,43.809,121.908Z" transform="translate(-10 -55.092)"/><path id="path1136" class="cls-30" d="M47.783,117.793c-.378-3.249.312-8.037,2.012-10.543,1.862-2.747,6.582-.533,11.617,2.608-3.982-2.41-7.906-3.834-10.144-2.574S48.218,112.689,47.783,117.793Z" transform="translate(-10 -55.092)"/><path id="rect1140" class="cls-31" d="M50.966,122.4l1.286,2.21a1.807,1.807,0,0,1-.5.353l-.071.041a1.762,1.762,0,0,1-.554.261l-1.287-2.209a1.776,1.776,0,0,1,.5-.353l.07-.041A1.817,1.817,0,0,1,50.966,122.4Z" transform="translate(-10 -55.092)"/><path id="path1226" class="cls-32" d="M10.421,130.075a16.567,16.567,0,0,1,4.866.975c2.093.719,1.118.192,11.948,6.463,5.282,3.059,9.72,5.609,9.862,5.668l.933.385a14.244,14.244,0,0,0,6.74,1.287l.63-.079,3.138-1.829,3.138-1.829-.7-.021a18.154,18.154,0,0,1-5.15-1.122c-1.769-.654-.959-.21-11.524-6.329-8.583-4.971-9.663-5.586-10.169-5.8-3.07-1.287-5.563-1.8-7.393-1.511l-.589.093-3.075,1.821L10,130.068Z" transform="translate(-10 -55.092)"/><path id="path1138" class="cls-30" d="M54.748,129.573c.378,3.249-.312,8.037-2.012,10.544-1.862,2.746-6.581.533-11.617-2.609,3.982,2.41,7.906,3.835,10.144,2.574S54.314,134.677,54.748,129.573Z" transform="translate(-10 -55.092)"/><path id="path2590" class="cls-20" d="M61.228,109.8c-4.033-1.874-7.58-3.139-9.888-2.58l-.509-.881C53.283,104.977,58.937,108.161,61.228,109.8Z" transform="translate(-10 -55.092)"/></g></svg>