<svg id="Layer_1" data-name="Layer 1" xmlns="http://www.w3.org/2000/svg" xmlns:xlink="http://www.w3.org/1999/xlink" viewBox="0 0 18.976 104.61"><defs><style>.cls-1{fill:url(#linear-gradient);}.cls-2{fill:url(#radial-gradient);}.cls-3{fill:url(#linear-gradient-2);}.cls-4{fill:url(#linear-gradient-3);}.cls-5{fill:url(#linear-gradient-4);}.cls-6{fill:url(#linear-gradient-5);}.cls-7{fill:url(#radial-gradient-2);}.cls-8{fill:url(#radial-gradient-3);}.cls-9{fill:url(#radial-gradient-4);}.cls-10{fill:url(#radial-gradient-5);}.cls-11{fill:url(#radial-gradient-6);}.cls-12{fill:url(#radial-gradient-7);}.cls-13{fill:url(#radial-gradient-8);}.cls-14{fill:url(#radial-gradient-9);}.cls-15{fill:url(#radial-gradient-10);}.cls-16{fill:url(#radial-gradient-11);}</style><linearGradient id="linear-gradient" x1="82.722" y1="94.546" x2="86.191" y2="94.546" gradientTransform="translate(184.456 196.796) rotate(180)" gradientUnits="userSpaceOnUse"><stop offset="0" stop-color="#470742"/><stop offset="0.316" stop-color="#e3615f"/><stop offset="1" stop-color="#470742"/></linearGradient><radialGradient id="radial-gradient" cx="83.844" cy="57.967" r="3" gradientTransform="translate(93.945 149.101) rotate(180)" gradientUnits="userSpaceOnUse"><stop offset="0" stop-color="#e3615f"/><stop offset="1" stop-color="#470742"/></radialGradient><linearGradient id="linear-gradient-2" x1="84.456" y1="111.148" x2="84.456" y2="120.637" gradientTransform="translate(15.544 -34.989)" xlink:href="#radial-gradient"/><linearGradient id="linear-gradient-3" x1="84.456" y1="120.637" x2="84.456" y2="130.125" gradientTransform="translate(15.544 -53.965)" xlink:href="#radial-gradient"/><linearGradient id="linear-gradient-4" x1="84.456" y1="130.125" x2="84.456" y2="139.613" gradientTransform="translate(15.544 -72.942)" xlink:href="#radial-gradient"/><linearGradient id="linear-gradient-5" x1="84.456" y1="139.613" x2="84.456" y2="149.101" gradientTransform="translate(15.544 -91.918)" xlink:href="#radial-gradient"/><radialGradient id="radial-gradient-2" cx="-40.551" cy="378.912" r="8.211" gradientTransform="translate(-25.698 190.421) rotate(180) scale(0.913 0.304)" xlink:href="#radial-gradient"/><radialGradient id="radial-gradient-3" cx="-40.551" cy="368.38" r="8.211" gradientTransform="translate(-25.698 190.421) rotate(180) scale(0.913 0.304)" xlink:href="#radial-gradient"/><radialGradient id="radial-gradient-4" cx="-40.551" cy="357.849" r="8.211" gradientTransform="translate(-25.698 190.421) rotate(180) scale(0.913 0.304)" xlink:href="#radial-gradient"/><radialGradient id="radial-gradient-5" cx="83.844" cy="83.435" r="3" xlink:href="#radial-gradient"/><radialGradient id="radial-gradient-6" cx="-40.551" cy="495.899" r="8.211" gradientTransform="translate(-25.698 190.421) rotate(180) scale(0.913 0.304)" xlink:href="#radial-gradient"/><radialGradient id="radial-gradient-7" cx="-40.551" cy="485.368" r="8.211" gradientTransform="translate(-25.698 190.421) rotate(180) scale(0.913 0.304)" xlink:href="#radial-gradient"/><radialGradient id="radial-gradient-8" cx="-40.551" cy="474.837" r="8.211" gradientTransform="translate(-25.698 190.421) rotate(180) scale(0.913 0.304)" xlink:href="#radial-gradient"/><radialGradient id="radial-gradient-9" cx="-40.551" cy="464.306" r="8.211" gradientTransform="translate(-25.698 190.421) rotate(180) scale(0.913 0.304)" xlink:href="#radial-gradient"/><radialGradient id="radial-gradient-10" cx="-40.551" cy="453.775" r="8.211" gradientTransform="translate(-25.698 190.421) rotate(180) scale(0.913 0.304)" xlink:href="#radial-gradient"/><radialGradient id="radial-gradient-11" cx="-40.551" cy="441.495" r="8.211" gradientTransform="translate(-25.698 190.421) rotate(180) scale(0.913 0.304)" xlink:href="#radial-gradient"/></defs><title>R-ICO-013734</title><g id="R-ICO-013734"><path id="BG" class="cls-1" d="M100,52.2a1.63,1.63,0,0,1,1.734,1.5v97.11a1.753,1.753,0,0,1-3.469,0V53.7A1.63,1.63,0,0,1,100,52.2Z" transform="translate(-90.512 -47.695)"/><circle id="Cysteine_knot" class="cls-2" cx="9.488" cy="90.496" r="3"/><rect id="LRR4" class="cls-3" x="90.512" y="76.16" width="18.976" height="9.488" rx="4" transform="translate(109.488 114.113) rotate(180)"/><rect id="LRR3" class="cls-4" x="90.512" y="66.671" width="18.976" height="9.488" rx="4" transform="translate(109.488 95.136) rotate(-180)"/><rect id="LRR2" class="cls-5" x="90.512" y="57.183" width="18.976" height="9.488" rx="4" transform="translate(109.488 76.16) rotate(180)"/><rect id="LRR1" class="cls-6" x="90.512" y="47.695" width="18.976" height="9.488" rx="4" transform="translate(109.488 57.183) rotate(180)"/><ellipse id="EGF9" class="cls-7" cx="9.488" cy="74.556" rx="7.5" ry="2.5"/><ellipse id="EGF8" class="cls-8" cx="9.488" cy="77.763" rx="7.5" ry="2.5"/><ellipse id="EGF7" class="cls-9" cx="9.488" cy="80.969" rx="7.5" ry="2.5"/><circle id="LamG" class="cls-10" cx="9.488" cy="65.029" r="3"/><ellipse id="EGF6" class="cls-11" cx="9.488" cy="38.937" rx="7.5" ry="2.5"/><ellipse id="EGF5" class="cls-12" cx="9.488" cy="42.143" rx="7.5" ry="2.5"/><ellipse id="EGF4" class="cls-13" cx="9.488" cy="45.35" rx="7.5" ry="2.5"/><ellipse id="EGF3" class="cls-14" cx="9.488" cy="48.556" rx="7.5" ry="2.5"/><ellipse id="EGF2" class="cls-15" cx="9.488" cy="51.763" rx="7.5" ry="2.5"/><ellipse id="EGF1" class="cls-16" cx="9.488" cy="55.501" rx="7.5" ry="2.5"/></g></svg>