<svg id="Layer_1" data-name="Layer 1" xmlns="http://www.w3.org/2000/svg" xmlns:xlink="http://www.w3.org/1999/xlink" viewBox="0 0 73.806 87.013"><defs><style>.cls-1{fill:url(#linear-gradient);}</style><linearGradient id="linear-gradient" x1="103.623" y1="124.259" x2="177.125" y2="137.401" gradientTransform="translate(261.094 205.143) rotate(170.247)" gradientUnits="userSpaceOnUse"><stop offset="0.002" stop-color="#78ba96"/><stop offset="0.101" stop-color="#69b19b"/><stop offset="0.337" stop-color="#4ba0a5"/><stop offset="0.569" stop-color="#3594ac"/><stop offset="0.793" stop-color="#288db1"/><stop offset="1" stop-color="#248ab2"/></linearGradient></defs><title>GPCR</title><g id="GPCR"><path class="cls-1" d="M118,143.261c18.628-2.206,18.628-14.952,18.873-47.551.245-26.472-.98-38.972-7.6-38.972-6.863,0-8.089,12.255-8.579,38.727,0,7.843-.245,31.619-3.677,34.07-2.941-2.451-3.186-24.266-3.186-32.6v-2.7c0-22.06-.49-37.5-7.6-37.5-6.863,0-8.334,12.746-8.579,38.727,0,7.843-.245,31.619-3.677,34.07-3.186-2.451-3.186-26.226-3.186-34.07.245-26.472-.98-38.972-7.6-38.972-5.147,0-6.618,7.843-7.353,15.442s-.735,16.912-.98,23.775c0,7.843-.245,31.619-3.677,34.07C68,127.329,68,103.554,68,95.711l.245-36.276h-4.9L63.1,95.711c0,6.863,0,16.177.49,23.775.735,7.6,2.206,15.2,7.353,15.2s6.618-7.843,7.353-15.442.735-16.912.98-23.775c0-7.843.245-31.619,3.677-34.07,3.186,2.451,3.186,26.226,3.186,34.07-.245,26.472.98,38.972,7.6,38.972,6.863,0,8.334-12.746,8.579-38.727,0-7.843.245-31.619,3.677-34.07,3.186,2.451,3.186,24.511,3.186,32.844v2.7c0,21.569.49,37.256,7.6,37.256,6.863,0,8.089-12.255,8.579-38.727,0-7.843.245-31.619,3.677-34.07,3.186,2.451,3.186,26.226,3.186,34.07-.245,36.521-.245,43.139-20.589,42.894v4.9C113.589,143.507,116.04,143.261,118,143.261Z" transform="translate(-63.097 -56.493)"/></g></svg>