<svg id="Layer_1" data-name="Layer 1" xmlns="http://www.w3.org/2000/svg" xmlns:xlink="http://www.w3.org/1999/xlink" viewBox="0 0 95.862 184.847"><defs><style>.cls-1{fill:url(#radial-gradient);}.cls-2{fill:url(#linear-gradient);}.cls-3{fill:#4f150e;}.cls-4{fill:url(#radial-gradient-2);}.cls-5{fill:url(#linear-gradient-2);}.cls-6{fill:url(#radial-gradient-3);}.cls-7{fill:url(#linear-gradient-3);}.cls-8{fill:url(#radial-gradient-4);}.cls-9{fill:url(#linear-gradient-4);}</style><radialGradient id="radial-gradient" cx="74.509" cy="-171.64" r="35.934" gradientTransform="translate(185.954 -150.683) rotate(180)" gradientUnits="userSpaceOnUse"><stop offset="0.593" stop-color="#da9d3e"/><stop offset="1" stop-color="#83291a"/></radialGradient><linearGradient id="linear-gradient" x1="113.783" y1="459.812" x2="102.699" y2="459.812" gradientTransform="translate(14.667 -352.683)" gradientUnits="userSpaceOnUse"><stop offset="0" stop-color="#83291a"/><stop offset="1" stop-color="#da9d3e"/></linearGradient><radialGradient id="radial-gradient-2" cx="60.229" cy="-175.958" r="31.056" gradientTransform="matrix(1, 0, 0, -1, 54.521, -150.683)" gradientUnits="userSpaceOnUse"><stop offset="0.699" stop-color="#24124d"/><stop offset="0.999" stop-color="#3e9eda"/></radialGradient><linearGradient id="linear-gradient-2" x1="125.067" y1="429.81" x2="113.982" y2="429.81" gradientTransform="matrix(-1, 0, 0, 1, 225.808, -352.683)" gradientUnits="userSpaceOnUse"><stop offset="0" stop-color="#3e9eda"/><stop offset="1" stop-color="#24124d"/></linearGradient><radialGradient id="radial-gradient-3" cx="76.53" cy="-196.845" r="27.614" gradientTransform="translate(160.026 -150.683) rotate(180)" gradientUnits="userSpaceOnUse"><stop offset="0.698" stop-color="#3e9eda"/><stop offset="1" stop-color="#24124d"/></radialGradient><linearGradient id="linear-gradient-3" x1="106.228" y1="449.812" x2="95.143" y2="449.812" gradientTransform="translate(-11.261 -352.683)" gradientUnits="userSpaceOnUse"><stop offset="0" stop-color="#24124d"/><stop offset="1" stop-color="#3e9eda"/></linearGradient><radialGradient id="radial-gradient-4" cx="56.29" cy="-191.731" r="35.865" gradientTransform="matrix(1, 0, 0, -1, 28.592, -150.683)" gradientUnits="userSpaceOnUse"><stop offset="0.661" stop-color="#83291a"/><stop offset="0.679" stop-color="#8a321d"/><stop offset="0.782" stop-color="#ac602b"/><stop offset="0.873" stop-color="#c58135"/><stop offset="0.949" stop-color="#d4963c"/><stop offset="0.999" stop-color="#da9d3e"/></radialGradient><linearGradient id="linear-gradient-4" x1="132.622" y1="479.814" x2="121.538" y2="479.814" gradientTransform="matrix(-1, 0, 0, 1, 199.88, -352.683)" gradientUnits="userSpaceOnUse"><stop offset="0" stop-color="#da9d3e"/><stop offset="1" stop-color="#83291a"/></linearGradient></defs><title>IL10R</title><g id="IL10R"><g id="RIGHT"><path class="cls-1" d="M122.982,170.708a5.155,5.155,0,0,0,5.155-5.155V52.3a27.362,27.362,0,0,0,15.09-15.111A33.643,33.643,0,0,0,141.385,9.2a5.155,5.155,0,1,0-9.009,5.016c2.606,4.681,4.018,12.4,1.3,19.088-2.087,5.136-6.183,8.648-12.172,10.438a5.155,5.155,0,0,0-3.678,4.94V165.551A5.155,5.155,0,0,0,122.982,170.708Z" transform="translate(-49.923 -6.205)"/><path class="cls-2" d="M122.982,170.708a5.433,5.433,0,0,1-5.5-5.365V48.916a5.5,5.5,0,0,1,11,0V165.343A5.433,5.433,0,0,1,122.982,170.708Z" transform="translate(-49.923 -6.205)"/><path class="cls-3" d="M117.483,165.552V48.68a5.533,5.533,0,0,1,3.923-5.268c5.884-1.76,9.9-5.2,11.951-10.239,2.676-6.584,1.285-14.181-1.282-18.792a5.5,5.5,0,0,1,9.609-5.35,33.992,33.992,0,0,1,1.861,28.282,27.744,27.744,0,0,1-15.065,15.208V165.552a5.5,5.5,0,0,1-11,0ZM134.54,7.5a4.81,4.81,0,0,0-1.863,6.544c2.646,4.753,4.08,12.591,1.318,19.385-2.129,5.237-6.3,8.816-12.392,10.638a4.841,4.841,0,0,0-3.433,4.61V165.552a4.812,4.812,0,1,0,9.623,0V52.3a.344.344,0,0,1,.209-.316,27.09,27.09,0,0,0,14.906-14.924,33.278,33.278,0,0,0-1.824-27.689A4.8,4.8,0,0,0,134.54,7.5Z" transform="translate(-49.923 -6.205)"/></g><g id="LEFT"><path class="cls-4" d="M106.21,110.7a5.155,5.155,0,0,1-5.155-5.155V52.3a27.362,27.362,0,0,1-15.09-15.111A33.643,33.643,0,0,1,87.807,9.2a5.155,5.155,0,1,1,9.009,5.016c-2.606,4.681-4.018,12.4-1.3,19.088,2.087,5.136,6.183,8.648,12.172,10.438a5.155,5.155,0,0,1,3.678,4.94v56.869A5.155,5.155,0,0,1,106.21,110.7Z" transform="translate(-49.923 -6.205)"/><path class="cls-5" d="M106.21,110.7a5.433,5.433,0,0,0,5.5-5.365V48.916a5.5,5.5,0,0,0-11,0v56.423A5.433,5.433,0,0,0,106.21,110.7Z" transform="translate(-49.923 -6.205)"/><path class="cls-3" d="M106.21,111.047a5.506,5.506,0,0,1-5.5-5.5V52.522A27.744,27.744,0,0,1,85.647,37.314,33.992,33.992,0,0,1,87.508,9.031a5.5,5.5,0,0,1,9.609,5.35c-2.567,4.611-3.958,12.208-1.282,18.792,2.046,5.035,6.067,8.479,11.951,10.239a5.533,5.533,0,0,1,3.923,5.268v56.869A5.5,5.5,0,0,1,106.21,111.047ZM92.317,6.892a4.825,4.825,0,0,0-4.21,2.473,33.278,33.278,0,0,0-1.824,27.689A27.09,27.09,0,0,0,101.19,51.979a.344.344,0,0,1,.209.316v53.253a4.812,4.812,0,0,0,9.623,0V48.68a4.841,4.841,0,0,0-3.433-4.61c-6.093-1.822-10.263-5.4-12.392-10.638C92.436,26.639,93.87,18.8,96.515,14.047a4.817,4.817,0,0,0-4.2-7.155Z" transform="translate(-49.923 -6.205)"/></g></g><g id="IL10R-2" data-name="IL10R"><g id="RIGHT-2" data-name="RIGHT"><path class="cls-6" d="M89.5,130.705a5.155,5.155,0,0,0,5.155-5.155V72.3a27.362,27.362,0,0,0,15.09-15.111A33.643,33.643,0,0,0,107.9,29.2a5.155,5.155,0,1,0-9.009,5.016c2.606,4.681,4.018,12.4,1.3,19.088C98.1,58.438,94.009,61.95,88.02,63.74a5.155,5.155,0,0,0-3.678,4.94v56.869A5.155,5.155,0,0,0,89.5,130.705Z" transform="translate(-49.923 -6.205)"/><path class="cls-7" d="M89.5,130.705a5.433,5.433,0,0,1-5.5-5.365V68.917a5.5,5.5,0,0,1,11,0v56.423A5.433,5.433,0,0,1,89.5,130.705Z" transform="translate(-49.923 -6.205)"/><path class="cls-3" d="M84,125.55V68.681a5.533,5.533,0,0,1,3.923-5.268c5.884-1.76,9.9-5.2,11.951-10.239,2.676-6.584,1.285-14.181-1.282-18.792a5.5,5.5,0,0,1,9.609-5.35,33.992,33.992,0,0,1,1.861,28.282A27.744,27.744,0,0,1,95,72.523V125.55a5.5,5.5,0,0,1-11,0ZM101.056,27.5a4.81,4.81,0,0,0-1.863,6.544c2.646,4.753,4.08,12.591,1.318,19.385-2.129,5.237-6.3,8.816-12.392,10.638a4.841,4.841,0,0,0-3.433,4.61V125.55a4.812,4.812,0,1,0,9.623,0V72.3a.344.344,0,0,1,.209-.316,27.09,27.09,0,0,0,14.906-14.924A33.278,33.278,0,0,0,107.6,29.367a4.8,4.8,0,0,0-6.545-1.862Z" transform="translate(-49.923 -6.205)"/></g><g id="LEFT-2" data-name="LEFT"><path class="cls-8" d="M72.726,190.709a5.155,5.155,0,0,1-5.155-5.155V72.3a27.362,27.362,0,0,1-15.09-15.111A33.643,33.643,0,0,1,54.323,29.2a5.155,5.155,0,1,1,9.009,5.016c-2.606,4.681-4.018,12.4-1.3,19.088C64.119,58.438,68.215,61.95,74.2,63.74a5.155,5.155,0,0,1,3.678,4.94V185.553A5.155,5.155,0,0,1,72.726,190.709Z" transform="translate(-49.923 -6.205)"/><path class="cls-9" d="M72.726,190.709a5.433,5.433,0,0,0,5.5-5.365V68.917a5.5,5.5,0,0,0-11,0V185.344A5.433,5.433,0,0,0,72.726,190.709Z" transform="translate(-49.923 -6.205)"/><path class="cls-3" d="M72.726,191.053a5.506,5.506,0,0,1-5.5-5.5V72.523A27.744,27.744,0,0,1,52.162,57.315a33.992,33.992,0,0,1,1.861-28.282,5.5,5.5,0,0,1,9.609,5.35c-2.567,4.611-3.958,12.208-1.282,18.792C64.4,58.209,68.418,61.653,74.3,63.413a5.533,5.533,0,0,1,3.923,5.268V185.554A5.5,5.5,0,0,1,72.726,191.053ZM58.833,26.893a4.825,4.825,0,0,0-4.21,2.473A33.278,33.278,0,0,0,52.8,57.056,27.09,27.09,0,0,0,67.705,71.98a.344.344,0,0,1,.209.316V185.554a4.812,4.812,0,1,0,9.623,0V68.681a4.841,4.841,0,0,0-3.433-4.61c-6.093-1.822-10.263-5.4-12.392-10.638C58.951,46.64,60.385,38.8,63.031,34.048a4.817,4.817,0,0,0-4.2-7.155Z" transform="translate(-49.923 -6.205)"/></g></g></svg>