<svg id="Layer_1" data-name="Layer 1" xmlns="http://www.w3.org/2000/svg" xmlns:xlink="http://www.w3.org/1999/xlink" viewBox="0 0 22.97 12.436"><defs><style>.cls-1{fill:url(#linear-gradient);}.cls-2{fill:url(#linear-gradient-2);}.cls-3{fill:url(#radial-gradient);}.cls-4{mask:url(#mask);}.cls-5{fill:url(#radial-gradient-2);}.cls-6{mask:url(#mask-2);}.cls-7{fill:url(#radial-gradient-3);}</style><linearGradient id="linear-gradient" x1="-622.257" y1="-17.608" x2="-615.29" y2="-17.608" gradientTransform="translate(726.952 115.384) scale(1 1.027)" gradientUnits="userSpaceOnUse"><stop offset="0" stop-color="#fff"/><stop offset="0.076" stop-color="#f9f9f9"/><stop offset="0.178" stop-color="#e8e8e8"/><stop offset="0.293" stop-color="#ccc"/><stop offset="0.42" stop-color="#a6a6a6"/><stop offset="0.555" stop-color="#747474"/><stop offset="0.695" stop-color="#383838"/><stop offset="0.813"/></linearGradient><linearGradient id="linear-gradient-2" x1="-613.318" y1="53.113" x2="-619.8" y2="55.747" gradientTransform="matrix(0.936, 0.351, -0.351, 0.936, 688.205, 268.243)" gradientUnits="userSpaceOnUse"><stop offset="0" stop-color="#fff"/><stop offset="0.083" stop-color="#f9f9f9"/><stop offset="0.193" stop-color="#e8e8e8"/><stop offset="0.319" stop-color="#ccc"/><stop offset="0.457" stop-color="#a6a6a6"/><stop offset="0.604" stop-color="#747474"/><stop offset="0.756" stop-color="#383838"/><stop offset="0.884"/></linearGradient><radialGradient id="radial-gradient" cx="-645.445" cy="-6.719" r="74.391" gradientTransform="translate(-523.789 167.394) rotate(179.048)" gradientUnits="userSpaceOnUse"><stop offset="0.858" stop-color="#634c28"/><stop offset="0.86" stop-color="#674f2a"/><stop offset="0.885" stop-color="#9d793f"/><stop offset="0.908" stop-color="#c5974f"/><stop offset="0.925" stop-color="#dda958"/><stop offset="0.936" stop-color="#e6b05c"/><stop offset="0.947" stop-color="#e2ad5a"/><stop offset="0.958" stop-color="#d6a456"/><stop offset="0.97" stop-color="#c2944e"/><stop offset="0.981" stop-color="#a57f42"/><stop offset="0.992" stop-color="#816334"/><stop offset="1" stop-color="#634c28"/></radialGradient><mask id="mask" x="15.507" y="-0.817" width="8.315" height="8.656" maskUnits="userSpaceOnUse"><g transform="translate(-88.515 -93.782)"><rect class="cls-1" x="104.696" y="93.59" width="6.967" height="7.405" transform="translate(233.726 170.822) rotate(168.389)"/></g></mask><radialGradient id="radial-gradient-2" cx="-631.926" cy="61.324" r="4.639" gradientTransform="translate(-523.789 167.394) rotate(179.048)" gradientUnits="userSpaceOnUse"><stop offset="0.362" stop-color="#e6b05c"/><stop offset="0.453" stop-color="#e0ab5a"/><stop offset="0.574" stop-color="#cf9f53"/><stop offset="0.712" stop-color="#b38948"/><stop offset="0.861" stop-color="#8d6c39"/><stop offset="1" stop-color="#634c28"/></radialGradient><mask id="mask-2" x="-1.328" y="4.221" width="9.197" height="9.444" maskUnits="userSpaceOnUse"><g transform="translate(-88.515 -93.782)"><rect class="cls-2" x="88.301" y="99.023" width="6.967" height="7.405" transform="translate(214.84 164.647) rotate(158.492)"/></g></mask><radialGradient id="radial-gradient-3" cx="-618.428" cy="57.337" r="8.652" gradientTransform="matrix(-0.928, 0.372, -0.231, -0.577, -467.199, 362.896)" xlink:href="#radial-gradient-2"/></defs><title>troponin</title><g id="troponin"><path class="cls-3" d="M107.93,93.782a3.5,3.5,0,0,1,.778,6.925,86.143,86.143,0,0,0-15.251,5.2,3.5,3.5,0,1,1-2.882-6.38,92.476,92.476,0,0,1,16.686-5.669A3.51,3.51,0,0,1,107.93,93.782Z" transform="translate(-88.515 -93.782)"/><g class="cls-4"><path class="cls-5" d="M105.2,94.348c.758-.2,1.45-.36,2.061-.489a3.5,3.5,0,0,1,1.446,6.849c-.586.124-1.253.284-1.983.476" transform="translate(-88.515 -93.782)"/></g><g class="cls-6"><path class="cls-7" d="M95.59,104.984c-.722.3-1.436.608-2.134.923a3.5,3.5,0,1,1-2.882-6.38c.713-.322,1.435-.635,2.16-.938" transform="translate(-88.515 -93.782)"/></g></g></svg>