<svg id="Layer_1" data-name="Layer 1" xmlns="http://www.w3.org/2000/svg" xmlns:xlink="http://www.w3.org/1999/xlink" viewBox="0 0 57.774 32.673"><defs><style>.cls-1{fill:url(#linear-gradient);}.cls-2{fill:#bf5500;}.cls-3{font-size:12px;fill:#fff;font-family:Arial-BoldMT, Arial;font-weight:700;}</style><linearGradient id="linear-gradient" x1="29.016" y1="31.117" x2="29.016" y2="1.117" gradientUnits="userSpaceOnUse"><stop offset="0" stop-color="#82ffc9"/><stop offset="1" stop-color="#bf5500"/></linearGradient></defs><title>SFC_E3_ LIGASE</title><g id="SFC_E3__LIGASE" data-name="SFC_E3_ LIGASE"><rect class="cls-1" x="1.516" y="1.117" width="55" height="30" rx="10" ry="10"/><path class="cls-2" d="M116.323,113.032c-6.366-.009-12.731.43-19.1.837-3.183.205-6.366.388-9.548.457-1.591.057-3.183.074-4.774.093a14.666,14.666,0,0,1-5.224-.535,11.317,11.317,0,0,1-7.85-10.353l-.022-.682.01-.6.019-1.194.076-4.774L69.95,93.9c.01-.408,0-.772.028-1.217a9.92,9.92,0,0,1,.139-1.346,11.1,11.1,0,0,1,2.082-4.9,10.913,10.913,0,0,1,9.124-4.374c6.366.261,12.731.449,19.1.335,3.183-.049,6.366-.194,9.548-.349l4.774-.214a13.744,13.744,0,0,1,5.113.38,10.984,10.984,0,0,1,7.291,7.374,11.41,11.41,0,0,1,.425,2.659l.009.668-.023.6-.045,1.194c-.045,1.591-.16,3.183-.249,4.774l-.141,2.387a17.1,17.1,0,0,1-.255,2.472,10.831,10.831,0,0,1-10.545,8.694Zm0-.3a9.8,9.8,0,0,0,4.5-1.164,9.359,9.359,0,0,0,3.343-3.15,8.965,8.965,0,0,0,1.4-4.26,16.928,16.928,0,0,0-.045-2.292l-.141-2.387c-.089-1.591-.2-3.183-.249-4.774l-.045-1.194-.023-.6-.049-.524a8.811,8.811,0,0,0-.391-2.031,9.679,9.679,0,0,0-2.114-3.517,9.427,9.427,0,0,0-3.445-2.261,12.231,12.231,0,0,0-4.324-.651l-4.774-.214c-3.183-.155-6.366-.3-9.548-.349-6.366-.114-12.731.074-19.1.335A9.252,9.252,0,0,0,77.2,84.922a9.526,9.526,0,0,0-3.064,2.891,8.579,8.579,0,0,0-1.4,3.886,8.926,8.926,0,0,0-.053,1.031c-.011.349.008.782.01,1.169l.038,2.387.076,4.774.019,1.194.01.6.036.51a8.567,8.567,0,0,0,.38,1.973,9.167,9.167,0,0,0,2.069,3.4,8.75,8.75,0,0,0,3.367,2.111,11.577,11.577,0,0,0,4.213.5c1.591.019,3.183.036,4.774.093,3.183.069,6.366.252,9.548.457C103.591,112.3,109.957,112.741,116.323,112.732Z" transform="translate(-69.807 -81.766)"/><text class="cls-3" transform="translate(7.417 11.602)">SFC E3<tspan x="-1.33" y="14.4">LIGASE</tspan></text></g></svg>