<svg id="Layer_1" data-name="Layer 1" xmlns="http://www.w3.org/2000/svg" xmlns:xlink="http://www.w3.org/1999/xlink" viewBox="0 0 93.67 52.601"><defs><style>.cls-1{fill:url(#radial-gradient);}.cls-2{fill:url(#radial-gradient-2);}.cls-3{fill:url(#radial-gradient-3);}.cls-4{fill:url(#radial-gradient-4);}.cls-5{fill:url(#radial-gradient-5);}.cls-6{fill:url(#radial-gradient-6);}</style><radialGradient id="radial-gradient" cx="369.393" cy="504.054" r="24.066" gradientTransform="matrix(0, -1, 1.935, 0, -875.24, 470.393)" gradientUnits="userSpaceOnUse"><stop offset="0.732" stop-color="#133845"/><stop offset="0.827" stop-color="#23677d"/><stop offset="0.845" stop-color="#216277"/><stop offset="0.869" stop-color="#1d5567"/><stop offset="0.896" stop-color="#153e4d"/><stop offset="0.903" stop-color="#133845"/></radialGradient><radialGradient id="radial-gradient-2" cx="130.368" cy="-288.509" r="10.847" gradientTransform="translate(-121.618 314.234)" gradientUnits="userSpaceOnUse"><stop offset="0" stop-color="#703fcc"/><stop offset="0.183" stop-color="#6c41c7"/><stop offset="0.389" stop-color="#5e48ba"/><stop offset="0.606" stop-color="#4854a3"/><stop offset="0.829" stop-color="#2a6384"/><stop offset="0.873" stop-color="#23677d"/><stop offset="0.904" stop-color="#216277"/><stop offset="0.944" stop-color="#1d5567"/><stop offset="0.989" stop-color="#153e4d"/><stop offset="1" stop-color="#133845"/></radialGradient><radialGradient id="radial-gradient-3" cx="150.369" cy="-307.359" r="10.847" gradientTransform="translate(-121.618 314.234)" gradientUnits="userSpaceOnUse"><stop offset="0" stop-color="#75cc23"/><stop offset="0.16" stop-color="#71c727"/><stop offset="0.34" stop-color="#66ba33"/><stop offset="0.529" stop-color="#54a347"/><stop offset="0.724" stop-color="#3b8463"/><stop offset="0.873" stop-color="#23677d"/><stop offset="0.904" stop-color="#216277"/><stop offset="0.944" stop-color="#1d5567"/><stop offset="0.989" stop-color="#153e4d"/><stop offset="1" stop-color="#133845"/></radialGradient><radialGradient id="radial-gradient-4" cx="183.371" cy="-307.359" r="10.847" gradientTransform="translate(-121.618 314.234)" gradientUnits="userSpaceOnUse"><stop offset="0" stop-color="#ccc623"/><stop offset="0.121" stop-color="#c7c325"/><stop offset="0.256" stop-color="#babc2d"/><stop offset="0.399" stop-color="#a3af39"/><stop offset="0.547" stop-color="#849d49"/><stop offset="0.698" stop-color="#5b875f"/><stop offset="0.851" stop-color="#2b6b79"/><stop offset="0.873" stop-color="#23677d"/><stop offset="0.904" stop-color="#216277"/><stop offset="0.944" stop-color="#1d5567"/><stop offset="0.989" stop-color="#153e4d"/><stop offset="1" stop-color="#133845"/></radialGradient><radialGradient id="radial-gradient-5" cx="205.288" cy="-288.509" r="10.847" gradientTransform="translate(-121.618 314.234)" gradientUnits="userSpaceOnUse"><stop offset="0" stop-color="#2464cc"/><stop offset="0.183" stop-color="#2464c7"/><stop offset="0.389" stop-color="#2465ba"/><stop offset="0.606" stop-color="#2366a3"/><stop offset="0.828" stop-color="#236784"/><stop offset="0.873" stop-color="#23677d"/><stop offset="0.904" stop-color="#216277"/><stop offset="0.944" stop-color="#1d5567"/><stop offset="0.989" stop-color="#153e4d"/><stop offset="1" stop-color="#133845"/></radialGradient><radialGradient id="radial-gradient-6" cx="183.371" cy="-273.508" r="10.847" gradientTransform="translate(-121.618 314.234)" gradientUnits="userSpaceOnUse"><stop offset="0" stop-color="#cc2338"/><stop offset="0.121" stop-color="#c7253a"/><stop offset="0.256" stop-color="#ba2a3f"/><stop offset="0.399" stop-color="#a33349"/><stop offset="0.547" stop-color="#844055"/><stop offset="0.699" stop-color="#5b5066"/><stop offset="0.852" stop-color="#2b647a"/><stop offset="0.873" stop-color="#23677d"/><stop offset="0.904" stop-color="#216277"/><stop offset="0.944" stop-color="#1d5567"/><stop offset="0.989" stop-color="#153e4d"/><stop offset="1" stop-color="#133845"/></radialGradient></defs><title>RFC</title><g id="RFC"><path id="BG" class="cls-1" d="M125.754,119.653c5.533-1.955,9.865-4.585,12.786-7.73a3.432,3.432,0,0,1,1.536-1,9.367,9.367,0,0,0,.439-17.855,3.534,3.534,0,0,1-1.477-1.064c-2.675-3.066-6.684-5.645-11.676-7.744a4.947,4.947,0,0,1-2.6-2.9,9.369,9.369,0,0,0-17.01-3.486,3.7,3.7,0,0,1-3.259,1.716q-2.607-.142-5.33-.145-2.845,0-5.564.159a3.686,3.686,0,0,1-3.258-1.716,9.369,9.369,0,0,0-16.948,3.126,4.317,4.317,0,0,1-2.651,3.339c-5.592,2.319-9.891,5.366-12.484,8.939a3.143,3.143,0,0,1-.836.784,9.372,9.372,0,1,0,12.166,1.669,3.735,3.735,0,0,1,1.082-5.9q.775-.361,1.594-.7a3.694,3.694,0,0,1,3.914.806,9.365,9.365,0,0,0,14.938-3.1A3.653,3.653,0,0,1,94.2,84.591c1.651-.1,3.311-.145,4.966-.145,1.541,0,3.086.042,4.625.125a3.694,3.694,0,0,1,3.174,2.264,9.361,9.361,0,0,0,14.987,3.078,3.713,3.713,0,0,1,3.936-.837c1.075.439,2.1.908,3.058,1.4a3.747,3.747,0,0,1,1.126,5.685,9.356,9.356,0,0,0-.19,11.27,3.749,3.749,0,0,1-1.217,5.613q-.3.154-.619.3a3.618,3.618,0,0,1-4.592-1.45,9.377,9.377,0,1,0,.34,9.462A3.6,3.6,0,0,1,125.754,119.653Z" transform="translate(-53.165 -73.699)"/><circle id="RFC5" class="cls-2" cx="9.375" cy="28.225" r="9.375"/><circle id="RFC2" class="cls-3" cx="29.377" cy="9.375" r="9.375"/><circle id="RFC3" class="cls-4" cx="62.379" cy="9.375" r="9.375"/><circle id="RFC4" class="cls-5" cx="84.295" cy="28.225" r="9.375"/><circle id="RFC1" class="cls-6" cx="62.379" cy="43.226" r="9.375"/></g></svg>