<svg id="Layer_1" data-name="Layer 1" xmlns="http://www.w3.org/2000/svg" xmlns:xlink="http://www.w3.org/1999/xlink" viewBox="0 0 55.339 22.875"><defs><style>.cls-1{fill:url(#linear-gradient);}.cls-2{fill:#135618;}.cls-3{font-size:12px;fill:#fff;font-family:Arial-BoldMT, Arial;font-weight:700;}</style><linearGradient id="linear-gradient" x1="27.9" y1="21.267" x2="27.9" y2="1.267" gradientUnits="userSpaceOnUse"><stop offset="0" stop-color="#5af756"/><stop offset="1" stop-color="#135618"/></linearGradient></defs><title>FOXA2</title><g id="FOXA2"><rect class="cls-1" x="1.4" y="1.267" width="53" height="20" rx="10" ry="10"/><path class="cls-2" d="M114.148,108.178c-5.366-.009-10.731.43-16.1.837-5.366.458-10.731.546-16.1.613-.35,0-.639.019-1.038,0s-.779-.022-1.164-.084a11.818,11.818,0,0,1-2.274-.52,11.12,11.12,0,0,1-3.985-2.351,11.407,11.407,0,0,1-3.741-8.182,11.1,11.1,0,0,1,3.33-8.207,10.834,10.834,0,0,1,8.066-3.074c5.366.282,10.731.437,16.1.335,5.366-.084,10.731-.574,16.1-.762a17.539,17.539,0,0,1,2.166.032,10.068,10.068,0,0,1,2.226.474,10.729,10.729,0,0,1,3.911,2.279,10.585,10.585,0,0,1,3.437,8.023,10.808,10.808,0,0,1-3.459,7.621A10.988,10.988,0,0,1,114.148,108.178Zm0-.3a9.105,9.105,0,0,0,9.025-10.214,9.592,9.592,0,0,0-6.289-7.846,11.03,11.03,0,0,0-1.69-.413,14.91,14.91,0,0,0-1.851-.128c-5.366-.188-10.731-.678-16.1-.762-5.366-.1-10.731.053-16.1.335a9.086,9.086,0,0,0-6.33,3.1,8.872,8.872,0,0,0-2.233,6.425,8.584,8.584,0,0,0,2.988,5.951,8.984,8.984,0,0,0,2.924,1.664,8.622,8.622,0,0,0,1.642.367c.277.047.562.033.842.056s.653,0,.974.016c5.366.066,10.731.155,16.1.613C103.417,107.449,108.783,107.887,114.148,107.878Z" transform="translate(-69.748 -86.761)"/><text class="cls-3" transform="translate(7.896 14.156)">FOXA2</text></g></svg>