<svg id="Layer_1" data-name="Layer 1" xmlns="http://www.w3.org/2000/svg" viewBox="0 0 108.961 98.678"><defs><style>.cls-1,.cls-2{fill:none;stroke-linecap:round;stroke-linejoin:round;stroke-dasharray:4 5;}.cls-1{stroke:#395b2c;}.cls-2{stroke:#5b2c2c;}</style></defs><title>Spindle_fibers</title><g id="Spindle_fibers"><path class="cls-1" d="M84.743,148.836s-38.724,1.213-38.724-45.291S75.455,51.161,85.16,51.161" transform="translate(-45.519 -50.661)"/><path class="cls-1" d="M84.787,129.3c-5.69,0-38.768-2.377-38.768-25.756S63.481,70.7,85.227,70.7" transform="translate(-45.519 -50.661)"/><path class="cls-1" d="M84.787,109.766c-7.565,0-38.768.033-38.768-6.221s5.587-13.314,39.207-13.314" transform="translate(-45.519 -50.661)"/></g><g id="Spindle_fibers-2" data-name="Spindle_fibers"><path class="cls-2" d="M115.257,148.836s38.724,1.213,38.724-45.291-29.435-52.384-39.14-52.384" transform="translate(-45.519 -50.661)"/><path class="cls-2" d="M115.213,129.3c5.69,0,38.768-2.377,38.768-25.756S136.519,70.7,114.773,70.7" transform="translate(-45.519 -50.661)"/><path class="cls-2" d="M115.213,109.766c7.565,0,38.768.033,38.768-6.221s-5.587-13.314-39.207-13.314" transform="translate(-45.519 -50.661)"/></g></svg>