<svg id="Layer_1" data-name="Layer 1" xmlns="http://www.w3.org/2000/svg" xmlns:xlink="http://www.w3.org/1999/xlink" viewBox="0 0 88.225 44.577"><defs><style>.cls-1{fill:url(#radial-gradient);}.cls-2{font-size:12px;fill:#fff;font-family:Arial-BoldMT, Arial;font-weight:700;}</style><radialGradient id="radial-gradient" cx="100.068" cy="-46.954" r="170.212" gradientTransform="matrix(0.008, 1, -0.924, 0.007, 55.868, -146.674)" gradientUnits="userSpaceOnUse"><stop offset="0.752" stop-color="#0b3c45"/><stop offset="0.87" stop-color="#54bacc"/><stop offset="0.887" stop-color="#50b3c4"/><stop offset="0.914" stop-color="#449faf"/><stop offset="0.947" stop-color="#317e8c"/><stop offset="0.985" stop-color="#17515b"/><stop offset="1" stop-color="#0b3c45"/></radialGradient></defs><title>IFI16</title><g id="IFI16"><path class="cls-1" d="M126.834,82.109v5.916a3.478,3.478,0,0,1-3.478,3.478H78.3a3.478,3.478,0,0,1-3.478-3.478V82.109a3.486,3.486,0,0,0-5.4-2.9c-7.854,5.091-12.7,12.081-12.7,19.8,0,15.577,19.75,24.205,44.113,24.205s44.113-8.628,44.113-24.205c0-7.717-4.85-14.706-12.7-19.8A3.486,3.486,0,0,0,126.834,82.109Z" transform="translate(-56.716 -78.633)"/><text class="cls-2" transform="translate(30.44 31.044)">IFI16</text></g></svg>