<svg id="Layer_1" data-name="Layer 1" xmlns="http://www.w3.org/2000/svg" xmlns:xlink="http://www.w3.org/1999/xlink" viewBox="0 0 65.147 22.941"><defs><style>.cls-1{fill:url(#linear-gradient);}.cls-2{fill:#ff9914;}.cls-3{font-size:12px;fill:#fff;font-family:Arial-BoldMT, Arial;font-weight:700;}</style><linearGradient id="linear-gradient" x1="32.865" y1="21.341" x2="32.865" y2="1.341" gradientUnits="userSpaceOnUse"><stop offset="0" stop-color="#ff9914"/><stop offset="1" stop-color="#7e63e2"/></linearGradient></defs><title>G-alpha-s</title><g id="G-alpha-s"><rect class="cls-1" x="1.365" y="1.341" width="63" height="20" rx="9.77" ry="9.77"/><path class="cls-2" d="M121.73,110.15c-6.215-.009-12.431.43-18.646.837-6.215.458-12.431.546-18.646.613H79.775c-.784-.006-1.508.016-2.464-.052-.451-.029-.9-.127-1.341-.2-.434-.125-.88-.215-1.3-.378a11.265,11.265,0,0,1-7.107-7.516,11.132,11.132,0,0,1-.409-2.628l-.018-.656c.005-.2,0-.375.02-.608a10.021,10.021,0,0,1,.133-1.318,10.611,10.611,0,0,1,2.038-4.8,10.747,10.747,0,0,1,8.944-4.263c6.215.282,12.431.437,18.646.335,6.215-.084,12.431-.574,18.646-.762,1.554-.033,3.108-.093,4.662-.087.783,0,1.515-.026,2.444.035a13.038,13.038,0,0,1,1.313.19c.425.122.862.208,1.274.367A10.623,10.623,0,0,1,132,96.68a11.841,11.841,0,0,1,.227,3.746,9.778,9.778,0,0,1-.176,1.237,10.477,10.477,0,0,1-2.041,4.42A10.624,10.624,0,0,1,121.73,110.15Zm0-.3a9.239,9.239,0,0,0,4.388-1.136,9.119,9.119,0,0,0,3.26-3.076,8.728,8.728,0,0,0,1.367-4.156,8.257,8.257,0,0,0,.014-1.083,8.974,8.974,0,0,0-.092-1.108,9.1,9.1,0,0,0-.5-2.057,9.379,9.379,0,0,0-2.289-3.423,9.268,9.268,0,0,0-3.473-2.035,12.2,12.2,0,0,0-4.18-.44c-1.554.006-3.108-.055-4.662-.087-6.215-.188-12.431-.678-18.646-.762-6.215-.1-12.431.053-18.646.335a8.865,8.865,0,0,0-6.981,4.015,8.6,8.6,0,0,0-1.37,3.774,8.049,8.049,0,0,0-.056,1c-.01.155,0,.367,0,.557l.035.508a8.338,8.338,0,0,0,.376,1.953,8.444,8.444,0,0,0,5.4,5.368,11.794,11.794,0,0,0,4.1.4h4.662c6.215.066,12.431.155,18.646.613C109.3,109.42,115.514,109.859,121.73,109.85Z" transform="translate(-67.135 -88.659)"/><text class="cls-3" transform="translate(5.194 14.655)">G-alpha-s</text></g></svg>