<svg id="Layer_1" data-name="Layer 1" xmlns="http://www.w3.org/2000/svg" xmlns:xlink="http://www.w3.org/1999/xlink" viewBox="0 0 160.178 175.462"><defs><style>.cls-1{fill:url(#linear-gradient);}.cls-2{fill:#b862c4;}</style><linearGradient id="linear-gradient" x1="996.739" y1="-152.866" x2="1187.195" y2="-310.823" gradientTransform="matrix(0.779, 0.744, 0.65, -0.78, -597.08, -879.097)" gradientUnits="userSpaceOnUse"><stop offset="0.178" stop-color="#9d61a1"/><stop offset="1" stop-color="#ff8600"/></linearGradient></defs><title>platelet_dense_tubular_network</title><g id="PLATELET_DENSE__TUBULAR_NETWORK" data-name="PLATELET_DENSE _TUBULAR_NETWORK"><path id="BG" class="cls-1" d="M149.984,180.954c8.495-7.634,14.108-17.391,5.569-32.69-11.456-20.524-23.251-5.387-33.475,3.921-6.345,5.776-18.308,7.46-17.3-.922,3.006-24.942,80.337-58.553,70.269-76.515-10.555-18.831-64.1,40.421-75.954,19.139s71.922-40.324,35.86-73.654c-14.791-13.67-33.786,12.224-43.105,17S66.383,59.647,62.6,62.171c-13.646,9.1-27.584,8.142-35.532,12.482-7.54,4.114-12.144,13.155-1.654,36.636,19.282,43.163,66.818,4.031,72.231,14.048,6.48,11.992-22.377,23.84-21.614,40.443,1.215,26.408,25.968-15.618,38.955,9.031.223.423.422.836.606,1.244,6.665,14.222,21.134,13.054,27.431,9.981A30.674,30.674,0,0,0,149.984,180.954Z" transform="translate(-18.224 -14.974)"/><path id="MEMBRANE" class="cls-2" d="M128.622,61.393c13.26-9.884,16.025-19.334,16.3-24.738s-3.1-20.592-18.447-21.629S105.212,28.973,94.4,34.439s-24.861,19.911-29.915,25S54.1,65.378,48.358,67.631s-10.372,2.305-17.867,4.548-10.03,7.544-11.35,11.882a21.268,21.268,0,0,0-.894,5.595,40.28,40.28,0,0,0,1.443,11.213,78.957,78.957,0,0,0,3.73,10.546c.685,1.7,1.582,3.425,2.44,5.12l1.489,2.47c.514.813,1.113,1.585,1.684,2.363a27.275,27.275,0,0,0,8.81,7.393c3.946,2.209,13.613,7.448,27.066,3.3,31.99-9.856,39.074-4.782,27.348,6.712-12.447,12.2-16.871,22.439-17.752,26.741s2.151,9.434,5.622,9.771,7.167.41,13.664-3.558c15.973-9.756,17.6.951,23.357,8.983,4.59,6.4,7.408,7.172,9.741,8.338s7.8,2.775,16.3-.84A29.806,29.806,0,0,0,158.4,173.9c2.789-5.345,3.936-9.486.247-20.236s-8.957-14.314-10.686-15.63a9.436,9.436,0,0,0-6.616-1.636c-5.125.676-8.294,3.563-15.371,11.774s-30.563,13.306-15.058-6.158c4.881-6.127,9.164-11.282,15.467-16.627,6.221-4.768,38.272-27.588,44.739-34.45s9.222-11.35,5.8-16.843-10-9.7-39.512,9.691-35.2,12.852-36.658,10.358S99.03,83.87,103.979,80.478,115.362,71.277,128.622,61.393ZM39.729,71.7C64.177,66,64.636,60.5,77.253,49.712s11.112-8.241,22.273-15.733,20.605-24.017,35.268-12.087,5.458,23.836,2.117,28.313-14.667,11.354-23.024,17.661S98.238,79.535,96.788,83.79a17.142,17.142,0,0,0-.837,4.555,13.6,13.6,0,0,0,.733,4.919l.2.6.268.57.55,1.132a13.534,13.534,0,0,0,1.5,2.106,9.782,9.782,0,0,0,4.25,2.923,12.267,12.267,0,0,0,4.6.632,18.55,18.55,0,0,0,4.162-.675,42.094,42.094,0,0,0,7.414-2.91c2.35-1.141,4.59-2.44,6.785-3.791,4.248-2.6,8.326-5.409,12.367-8.253,9.549-5.994,19.271-12,26.447-13.2a10.163,10.163,0,0,1,6.025.853,6.939,6.939,0,0,1,2.259,2.011,6.381,6.381,0,0,1,1.189,2.71c.3,1.827-.541,3.815-1.707,5.62a29.764,29.764,0,0,1-4.372,5.03A109.365,109.365,0,0,1,158,97.384c-3.677,2.82-7.468,5.521-11.226,8.289-3.733,2.806-7.517,5.559-11.162,8.525-3.66,2.939-7.283,5.989-10.705,9.264-6.495,5.555-12.225,11.419-16.06,17.564-.072.1-.15.185-.221.281-1.98,2.747-2.815,3.886-4.644,9.368a4.986,4.986,0,0,0,2.666,6.421c6.822,3.521,15.433-3.1,17.7-5.348,1.346-1.157,4.239-4.519,10.488-9.812,5.395-4.57,11.787-4.2,16.078,2.359s8.5,12.837,7.99,20.924-7.229,13.22-10.3,15.456-13.944,7.964-21.5,5.671-8.584-8.212-13.088-16.17-12.856-6.236-20.839-.853c-13.624,9.187-16.316-1.372-15.959-5.977s5.935-10.388,7.584-12.767c5.153-6.308,18.813-16.365,15.11-24.029s-13.094-2.1-27.676,1.019-19.954,2.211-23.1,1.586a36.534,36.534,0,0,1-10.228-3.618,23.958,23.958,0,0,1-7.094-6.782,45.328,45.328,0,0,1-4.878-9.1L25.888,107.2l-.946-2.479c-.687-1.641-1.152-3.323-1.743-4.982a43.677,43.677,0,0,1-1.954-10.064,21.392,21.392,0,0,1,.29-4.894C22.488,80.331,27.069,74.653,39.729,71.7Z" transform="translate(-18.224 -14.974)"/></g></svg>