<svg id="Layer_1" data-name="Layer 1" xmlns="http://www.w3.org/2000/svg" xmlns:xlink="http://www.w3.org/1999/xlink" viewBox="0 0 82.01 183.805"><defs><style>.cls-1{fill:url(#radial-gradient);}.cls-2{fill:url(#linear-gradient);}.cls-3{fill:#a8602a;}.cls-4{fill:url(#radial-gradient-2);}.cls-5{fill:url(#linear-gradient-2);}.cls-6{fill:url(#radial-gradient-3);}.cls-7{fill:url(#linear-gradient-3);}.cls-8{fill:url(#radial-gradient-4);}.cls-9{fill:url(#linear-gradient-4);}</style><radialGradient id="radial-gradient" cx="50.805" cy="182.794" r="31.585" gradientTransform="matrix(1, 0, 0, -1, 65.782, 202)" gradientUnits="userSpaceOnUse"><stop offset="0.698" stop-color="#dabf68"/><stop offset="0.999" stop-color="#da5a3e"/></radialGradient><linearGradient id="linear-gradient" x1="136.604" y1="105.476" x2="127.121" y2="105.476" gradientTransform="matrix(-1, 0, 0, 1, 237.069, 0)" gradientUnits="userSpaceOnUse"><stop offset="0" stop-color="#da5a3e"/><stop offset="1" stop-color="#dabf68"/></linearGradient><radialGradient id="radial-gradient-2" cx="83.534" cy="180.725" r="23.251" gradientTransform="translate(197.216 202) rotate(180)" gradientUnits="userSpaceOnUse"><stop offset="0.683" stop-color="#da3e62"/><stop offset="1" stop-color="#da6882"/></radialGradient><linearGradient id="linear-gradient-2" x1="98.242" y1="75.532" x2="88.759" y2="75.532" gradientTransform="translate(25.929)" gradientUnits="userSpaceOnUse"><stop offset="0" stop-color="#da6882"/><stop offset="1" stop-color="#da3e62"/></linearGradient><radialGradient id="radial-gradient-3" cx="90.544" cy="165.851" r="31.585" gradientTransform="translate(171.287 202) rotate(180)" xlink:href="#radial-gradient"/><linearGradient id="linear-gradient-3" x1="95.524" y1="122.588" x2="86.041" y2="122.588" gradientTransform="matrix(1, 0, 0, 1, 0, 0)" xlink:href="#linear-gradient"/><radialGradient id="radial-gradient-4" cx="42.454" cy="163.614" r="23.251" gradientTransform="matrix(1, 0, 0, -1, 39.854, 202)" xlink:href="#radial-gradient-2"/><linearGradient id="linear-gradient-4" x1="139.322" y1="92.643" x2="129.839" y2="92.643" gradientTransform="matrix(-1, 0, 0, 1, 211.141, 0)" xlink:href="#linear-gradient-2"/></defs><title>IL3R</title><g id="IL3R"><g id="LEFT"><path class="cls-1" d="M105.144,172.7a4.41,4.41,0,0,1-4.41-4.41V45.732A23.409,23.409,0,0,1,87.824,32.8,28.781,28.781,0,0,1,89.4,8.861a4.411,4.411,0,1,1,7.707,4.291,19.959,19.959,0,0,0-1.112,16.33c1.786,4.394,5.29,7.4,10.413,8.93a4.41,4.41,0,0,1,3.147,4.226V168.29A4.41,4.41,0,0,1,105.144,172.7Z" transform="translate(-56.99 -6.301)"/><path class="cls-2" d="M105.144,172.7a4.648,4.648,0,0,0,4.7-4.589V42.841a4.706,4.706,0,0,0-9.409,0V168.112A4.648,4.648,0,0,0,105.144,172.7Z" transform="translate(-56.99 -6.301)"/><path class="cls-3" d="M105.144,173a4.71,4.71,0,0,1-4.7-4.7V45.925a23.735,23.735,0,0,1-12.888-13.01,29.081,29.081,0,0,1,1.592-24.2A4.7,4.7,0,0,1,97.364,13.3a19.646,19.646,0,0,0-1.1,16.076c1.751,4.307,5.19,7.254,10.224,8.759a4.733,4.733,0,0,1,3.356,4.507V168.291A4.709,4.709,0,0,1,105.144,173ZM93.258,6.889A4.128,4.128,0,0,0,89.657,9,28.47,28.47,0,0,0,88.1,32.693a23.176,23.176,0,0,0,12.752,12.768.294.294,0,0,1,.179.271V168.291a4.116,4.116,0,0,0,8.233,0V42.639a4.142,4.142,0,0,0-2.937-3.944c-5.213-1.559-8.78-4.621-10.6-9.1A20.268,20.268,0,0,1,96.85,13.01a4.121,4.121,0,0,0-3.592-6.121Z" transform="translate(-56.99 -6.301)"/></g><g id="LEFT-2" data-name="LEFT"><path class="cls-4" d="M119.492,112.812a4.41,4.41,0,0,0,4.41-4.41V45.732A23.409,23.409,0,0,0,136.812,32.8a28.781,28.781,0,0,0-1.576-23.943,4.411,4.411,0,1,0-7.707,4.291,19.959,19.959,0,0,1,1.112,16.33c-1.786,4.394-5.29,7.4-10.413,8.93a4.41,4.41,0,0,0-3.147,4.226V108.4A4.41,4.41,0,0,0,119.492,112.812Z" transform="translate(-56.99 -6.301)"/><path class="cls-5" d="M119.492,112.812a4.648,4.648,0,0,1-4.7-4.589V42.841a4.706,4.706,0,0,1,9.409,0v65.382A4.648,4.648,0,0,1,119.492,112.812Z" transform="translate(-56.99 -6.301)"/><path class="cls-3" d="M114.787,108.4V42.639a4.733,4.733,0,0,1,3.356-4.507c5.034-1.505,8.473-4.452,10.224-8.759a19.646,19.646,0,0,0-1.1-16.076,4.7,4.7,0,0,1,8.221-4.577,29.081,29.081,0,0,1,1.592,24.2A23.735,23.735,0,0,1,124.2,45.925V108.4a4.7,4.7,0,0,1-9.409,0ZM129.38,7.412a4.115,4.115,0,0,0-1.594,5.6,20.268,20.268,0,0,1,1.127,16.584c-1.821,4.48-5.388,7.542-10.6,9.1a4.142,4.142,0,0,0-2.937,3.944V108.4a4.116,4.116,0,0,0,8.233,0V45.732a.294.294,0,0,1,.179-.271A23.176,23.176,0,0,0,136.54,32.693,28.47,28.47,0,0,0,134.979,9a4.109,4.109,0,0,0-5.6-1.593Z" transform="translate(-56.99 -6.301)"/></g></g><g id="IL3R-2" data-name="IL3R"><g id="LEFT-3" data-name="LEFT"><path class="cls-6" d="M90.846,189.813a4.41,4.41,0,0,0,4.41-4.41V62.843a23.409,23.409,0,0,0,12.91-12.928,28.781,28.781,0,0,0-1.576-23.943,4.411,4.411,0,1,0-7.707,4.291,19.959,19.959,0,0,1,1.112,16.33c-1.786,4.394-5.29,7.4-10.413,8.93a4.41,4.41,0,0,0-3.147,4.226V185.4A4.41,4.41,0,0,0,90.846,189.813Z" transform="translate(-56.99 -6.301)"/><path class="cls-7" d="M90.846,189.813a4.648,4.648,0,0,1-4.7-4.589V59.952a4.706,4.706,0,0,1,9.409,0V185.223A4.648,4.648,0,0,1,90.846,189.813Z" transform="translate(-56.99 -6.301)"/><path class="cls-3" d="M86.141,185.4V59.75A4.733,4.733,0,0,1,89.5,55.243c5.034-1.505,8.473-4.452,10.224-8.759a19.646,19.646,0,0,0-1.1-16.076,4.7,4.7,0,0,1,8.221-4.577,29.081,29.081,0,0,1,1.592,24.2A23.735,23.735,0,0,1,95.55,63.037V185.4a4.7,4.7,0,0,1-9.409,0ZM100.734,24.523a4.115,4.115,0,0,0-1.594,5.6,20.268,20.268,0,0,1,1.127,16.584c-1.821,4.48-5.388,7.542-10.6,9.1a4.142,4.142,0,0,0-2.937,3.944V185.4a4.116,4.116,0,0,0,8.233,0V62.843a.294.294,0,0,1,.179-.271A23.176,23.176,0,0,0,107.894,49.8a28.47,28.47,0,0,0-1.561-23.688,4.109,4.109,0,0,0-5.6-1.593Z" transform="translate(-56.99 -6.301)"/></g><g id="LEFT-4" data-name="LEFT"><path class="cls-8" d="M76.5,129.923a4.41,4.41,0,0,1-4.41-4.41V62.843a23.409,23.409,0,0,1-12.91-12.928,28.781,28.781,0,0,1,1.576-23.943,4.411,4.411,0,1,1,7.707,4.291,19.959,19.959,0,0,0-1.112,16.33c1.786,4.394,5.29,7.4,10.413,8.93a4.41,4.41,0,0,1,3.147,4.226v65.763A4.41,4.41,0,0,1,76.5,129.923Z" transform="translate(-56.99 -6.301)"/><path class="cls-9" d="M76.5,129.923a4.648,4.648,0,0,0,4.7-4.589V59.952a4.706,4.706,0,0,0-9.409,0v65.382A4.648,4.648,0,0,0,76.5,129.923Z" transform="translate(-56.99 -6.301)"/><path class="cls-3" d="M76.5,130.217a4.71,4.71,0,0,1-4.7-4.7V63.037a23.735,23.735,0,0,1-12.888-13.01A29.081,29.081,0,0,1,60.5,25.83a4.7,4.7,0,0,1,8.221,4.577,19.646,19.646,0,0,0-1.1,16.076c1.751,4.307,5.19,7.254,10.224,8.759A4.733,4.733,0,0,1,81.2,59.75v65.763A4.709,4.709,0,0,1,76.5,130.217ZM64.612,24a4.128,4.128,0,0,0-3.6,2.116A28.47,28.47,0,0,0,59.45,49.8,23.176,23.176,0,0,0,72.2,62.572a.294.294,0,0,1,.179.271v62.67a4.116,4.116,0,0,0,8.233,0V59.75a4.142,4.142,0,0,0-2.937-3.944c-5.213-1.559-8.78-4.621-10.6-9.1A20.268,20.268,0,0,1,68.2,30.121,4.121,4.121,0,0,0,64.612,24Z" transform="translate(-56.99 -6.301)"/></g></g></svg>