<svg id="Layer_1" data-name="Layer 1" xmlns="http://www.w3.org/2000/svg" xmlns:xlink="http://www.w3.org/1999/xlink" viewBox="0 0 90.263 32.947"><defs><style>.cls-1{fill:url(#linear-gradient);}.cls-2{fill:#0052af;}.cls-3{font-size:12px;fill:#fff;font-family:Arial-BoldMT, Arial;font-weight:700;}.cls-4{letter-spacing:-0.037em;}</style><linearGradient id="linear-gradient" x1="45.392" y1="31.348" x2="45.392" y2="1.348" gradientUnits="userSpaceOnUse"><stop offset="0" stop-color="#06a2b2"/><stop offset="1" stop-color="#2a8541"/></linearGradient></defs><title>R-ICO-013634</title><g id="RNA_BINDING_PROTEIN" data-name="RNA BINDING PROTEIN"><rect class="cls-1" x="1.392" y="1.348" width="88" height="30" rx="10" ry="10"/><path class="cls-2" d="M134,115.15c-9.116-.009-18.231.43-27.347.837-9.116.458-18.231.546-27.347.613H72.469c-2.3-.01-4.5.018-6.894-.056a11.509,11.509,0,0,1-10.819-9.666,12.714,12.714,0,0,1-.148-1.934l.019-1.709.05-3.418.067-3.418c.018-.587.006-1.1.05-1.747a12.4,12.4,0,0,1,.245-1.9A10.987,10.987,0,0,1,66,84.179c9.116.261,18.231.449,27.347.335,4.558-.049,9.116-.194,13.673-.349l13.673-.413c2.279-.033,4.558-.093,6.837-.087,2.3,0,4.51-.042,6.885.036a10.946,10.946,0,0,1,10.365,9.5,12.181,12.181,0,0,1,.091,1.856l-.07,1.709-.144,3.418-.149,3.418a17.592,17.592,0,0,1-.335,3.483,10.748,10.748,0,0,1-3.731,5.812A10.408,10.408,0,0,1,134,115.15Zm0-.3a9.851,9.851,0,0,0,6.182-2.27,9.7,9.7,0,0,0,3.237-5.65,16.494,16.494,0,0,0,.073-3.328l-.149-3.418-.144-3.418-.07-1.709a10.327,10.327,0,0,0-.206-1.545A9.132,9.132,0,0,0,139.8,88.4a8.984,8.984,0,0,0-5.482-2.062c-4.46.025-9.089,0-13.625-.088l-13.673-.413c-4.558-.155-9.116-.3-13.673-.349-9.116-.114-18.231.074-27.347.335a9.2,9.2,0,0,0-5.664,2.232,9.355,9.355,0,0,0-2.966,5.179,10.027,10.027,0,0,0-.131,1.495c-.019.493.014,1.118.018,1.671l.067,3.418.05,3.418.019,1.709a9.873,9.873,0,0,0,.148,1.467,8.483,8.483,0,0,0,2.856,4.968,8.362,8.362,0,0,0,5.295,2.04l13.616-.019c9.116.066,18.231.155,27.347.613C115.769,114.42,124.884,114.859,134,114.85Z" transform="translate(-54.608 -83.652)"/><text class="cls-3" transform="translate(5.023 11.833)">RN<tspan class="cls-4" x="17.332" y="0">A</tspan><tspan x="25.553" y="0" xml:space="preserve"> BINDING</tspan><tspan x="13.107" y="14.4">PROTEIN</tspan></text></g></svg>