<svg id="Layer_1" data-name="Layer 1" xmlns="http://www.w3.org/2000/svg" xmlns:xlink="http://www.w3.org/1999/xlink" viewBox="0 0 30 180"><defs><style>.cls-1{fill:url(#linear-gradient);}.cls-2{fill:url(#linear-gradient-2);}.cls-3{fill:url(#linear-gradient-3);}.cls-4{fill:url(#linear-gradient-4);}.cls-5{fill:url(#linear-gradient-5);}.cls-6{fill:url(#linear-gradient-6);}.cls-7{fill:url(#radial-gradient);}.cls-8{fill:url(#radial-gradient-2);}.cls-9{fill:url(#radial-gradient-3);}</style><linearGradient id="linear-gradient" x1="15" y1="150" x2="15" y2="165" gradientUnits="userSpaceOnUse"><stop offset="0" stop-color="#223664"/><stop offset="1" stop-color="#0fb077"/></linearGradient><linearGradient id="linear-gradient-2" y1="165" y2="180" xlink:href="#linear-gradient"/><linearGradient id="linear-gradient-3" y1="135" y2="150" xlink:href="#linear-gradient"/><linearGradient id="linear-gradient-4" y1="120" y2="135" xlink:href="#linear-gradient"/><linearGradient id="linear-gradient-5" y1="105" y2="120" xlink:href="#linear-gradient"/><linearGradient id="linear-gradient-6" y1="90" y2="105" xlink:href="#linear-gradient"/><radialGradient id="radial-gradient" cx="12.563" cy="69.72" r="15" gradientUnits="userSpaceOnUse"><stop offset="0" stop-color="#0fb077"/><stop offset="1" stop-color="#284707"/></radialGradient><radialGradient id="radial-gradient-2" cx="12.563" cy="39.72" r="15" xlink:href="#radial-gradient"/><radialGradient id="radial-gradient-3" cx="12.563" cy="9.72" r="15" xlink:href="#radial-gradient"/></defs><title>DCC</title><g id="DCC"><rect class="cls-1" y="150" width="30" height="15" rx="4" ry="4"/><rect class="cls-2" y="165" width="30" height="15" rx="4" ry="4"/><rect class="cls-3" y="135" width="30" height="15" rx="4" ry="4"/><rect class="cls-4" y="120" width="30" height="15" rx="4" ry="4"/><rect class="cls-5" y="105" width="30" height="15" rx="4" ry="4"/><rect class="cls-6" y="90" width="30" height="15" rx="4" ry="4"/><circle class="cls-7" cx="15" cy="75" r="15"/><circle class="cls-8" cx="15" cy="45" r="15"/><circle class="cls-9" cx="15" cy="15" r="15"/></g></svg>