<svg id="Layer_1" data-name="Layer 1" xmlns="http://www.w3.org/2000/svg" xmlns:xlink="http://www.w3.org/1999/xlink" viewBox="0 0 35.118 135.202"><defs><style>.cls-1{fill:url(#linear-gradient);}.cls-2{fill:url(#linear-gradient-2);}.cls-3{fill:url(#radial-gradient);}.cls-4{fill:url(#radial-gradient-2);}.cls-5{fill:url(#radial-gradient-3);}.cls-6{fill:url(#radial-gradient-4);}</style><linearGradient id="linear-gradient" x1="-526.31" y1="126.867" x2="-526.31" y2="249.135" gradientTransform="matrix(-1, 0, 0, 1, -423.31, -80.617)" gradientUnits="userSpaceOnUse"><stop offset="0" stop-color="#c8b6ff"/><stop offset="1" stop-color="#270f85"/></linearGradient><linearGradient id="linear-gradient-2" x1="36.935" y1="126.867" x2="36.935" y2="249.135" gradientTransform="translate(60.065 -80.617)" xlink:href="#linear-gradient"/><radialGradient id="radial-gradient" cx="-173.989" cy="-599.31" r="16.089" gradientTransform="translate(289.182 646.116)" gradientUnits="userSpaceOnUse"><stop offset="0" stop-color="#2c2e99"/><stop offset="1" stop-color="#bb7a9b"/></radialGradient><radialGradient id="radial-gradient-2" cx="291.752" cy="367.35" r="16.089" gradientTransform="translate(376.559 414.157) rotate(180)" xlink:href="#radial-gradient"/><radialGradient id="radial-gradient-3" cx="-192.491" cy="-519.304" r="16.089" xlink:href="#radial-gradient"/><radialGradient id="radial-gradient-4" cx="273.251" cy="287.345" r="16.089" gradientTransform="translate(376.559 414.157) rotate(180)" xlink:href="#radial-gradient"/></defs><title>EGFR</title><g id="EGFR"><path class="cls-1" d="M111.688,167.6a2,2,0,0,0,2-2v-3.374a9.2,9.2,0,0,0-2.838-6.75,5.669,5.669,0,0,1-1.912-4.375c0-2.281.837-3.26,2-4.614a9.2,9.2,0,0,0,2.755-6.511v-48c0-9.242-5.356-15.171-10.081-20.4-.975-1.079-1.9-2.1-2.76-3.131-4.54-5.426-4.537-14.127-4.534-21.118v-.519a2,2,0,0,0-4,0v.517c0,7.639-.007,17.145,5.466,23.686.913,1.092,1.9,2.187,2.859,3.246,4.449,4.925,9.049,10.018,9.049,17.721v48c0,1.813-.714,2.647-1.795,3.911a10.02,10.02,0,0,0-2.955,7.214,9.514,9.514,0,0,0,2.915,7.024c1.1,1.25,1.835,2.076,1.835,4.1V165.6A2,2,0,0,0,111.688,167.6Z" transform="translate(-82.441 -32.399)"/><path class="cls-2" d="M88.312,167.6a2,2,0,0,1-2-2v-3.374a9.2,9.2,0,0,1,2.838-6.75,5.669,5.669,0,0,0,1.912-4.375c0-2.281-.837-3.26-2-4.614a9.2,9.2,0,0,1-2.755-6.511v-48c0-9.242,5.356-15.171,10.081-20.4.975-1.079,1.9-2.1,2.76-3.131,4.54-5.426,4.537-14.127,4.534-21.118v-.519a2,2,0,1,1,4,0v.517c0,7.639.007,17.145-5.466,23.686-.913,1.092-1.9,2.187-2.859,3.246-4.449,4.925-9.049,10.018-9.049,17.721v48c0,1.813.714,2.647,1.795,3.911a10.02,10.02,0,0,1,2.955,7.214,9.514,9.514,0,0,1-2.915,7.024c-1.1,1.25-1.835,2.076-1.835,4.1V165.6A2,2,0,0,1,88.312,167.6Z" transform="translate(-82.441 -32.399)"/><path class="cls-3" d="M112.866,61.214c-7.355,0-11.924-5.521-11.924-14.408S105.511,32.4,112.866,32.4a4.139,4.139,0,1,1,0,8.279c-1.091,0-3.645,0-3.645,6.129s2.554,6.129,3.645,6.129a4.139,4.139,0,1,1,0,8.279Z" transform="translate(-82.441 -32.399)"/><path class="cls-4" d="M87.134,32.4c7.355,0,11.924,5.521,11.924,14.408S94.489,61.214,87.134,61.214a4.139,4.139,0,0,1,0-8.279c1.091,0,3.645,0,3.645-6.129s-2.554-6.129-3.645-6.129a4.139,4.139,0,0,1,0-8.279Z" transform="translate(-82.441 -32.399)"/><path class="cls-5" d="M94.365,141.219c-7.355,0-11.924-5.521-11.924-14.408S87.01,112.4,94.365,112.4a4.139,4.139,0,1,1,0,8.279c-1.091,0-3.645,0-3.645,6.129s2.554,6.129,3.645,6.129a4.139,4.139,0,1,1,0,8.279Z" transform="translate(-82.441 -32.399)"/><path class="cls-6" d="M105.635,112.4c7.355,0,11.924,5.521,11.924,14.408s-4.569,14.408-11.924,14.408a4.139,4.139,0,0,1,0-8.279c1.091,0,3.645,0,3.645-6.129s-2.554-6.129-3.645-6.129a4.139,4.139,0,0,1,0-8.279Z" transform="translate(-82.441 -32.399)"/></g></svg>