<svg id="Layer_1" data-name="Layer 1" xmlns="http://www.w3.org/2000/svg" xmlns:xlink="http://www.w3.org/1999/xlink" viewBox="0 0 111.367 111.367"><defs><style>.cls-1{fill:url(#radial-gradient);}.cls-2{fill:url(#radial-gradient-2);}.cls-3{fill:url(#radial-gradient-3);}.cls-4{fill:url(#radial-gradient-4);}.cls-5{mask:url(#mask);}.cls-6{fill:url(#radial-gradient-5);}.cls-7{mask:url(#mask-2);}.cls-8{fill:url(#radial-gradient-6);}</style><radialGradient id="radial-gradient" cx="313.95" cy="340.732" r="81.757" gradientTransform="translate(-237.717 12.841) scale(1.043 0.3)" gradientUnits="userSpaceOnUse"><stop offset="0.584" stop-color="#fff"/><stop offset="0.646" stop-color="#b6b6b6"/><stop offset="0.717" stop-color="#696969"/><stop offset="0.776" stop-color="#303030"/><stop offset="0.82" stop-color="#0d0d0d"/><stop offset="0.843"/></radialGradient><radialGradient id="radial-gradient-2" cx="339.441" cy="305.544" r="51.204" gradientTransform="translate(-310.775 4.792) scale(1.192 0.339)" xlink:href="#radial-gradient"/><radialGradient id="radial-gradient-3" cx="304.631" cy="382.862" r="77.628" gradientTransform="translate(1.005 -236.746) rotate(45) scale(1 0.43)" gradientUnits="userSpaceOnUse"><stop offset="0" stop-color="#d27c8e"/><stop offset="0.111" stop-color="#d27488"/><stop offset="0.274" stop-color="#d26d82"/><stop offset="0.354" stop-color="#cd657b"/><stop offset="0.476" stop-color="#c05067"/><stop offset="0.544" stop-color="#b7425a"/><stop offset="0.654" stop-color="#b14057"/><stop offset="0.803" stop-color="#a0394e"/><stop offset="0.954" stop-color="#873042"/></radialGradient><radialGradient id="radial-gradient-4" cx="304.288" cy="348.237" r="40.52" gradientTransform="translate(-237.294 -625.949) scale(1 2.081)" gradientUnits="userSpaceOnUse"><stop offset="0.542" stop-color="#b7425a" stop-opacity="0.9"/><stop offset="0.589" stop-color="#b8445b" stop-opacity="0.867"/><stop offset="0.652" stop-color="#bb4860" stop-opacity="0.772"/><stop offset="0.724" stop-color="#c05067" stop-opacity="0.616"/><stop offset="0.804" stop-color="#c65a70" stop-opacity="0.4"/><stop offset="0.888" stop-color="#ce677c" stop-opacity="0.125"/><stop offset="0.923" stop-color="#d26d82" stop-opacity="0"/></radialGradient><mask id="mask" x="-3.284" y="12.227" width="102.465" height="102.465" maskUnits="userSpaceOnUse"><g transform="translate(-41.692 -42.854)"><rect class="cls-1" x="31.389" y="92.111" width="116.503" height="28.405" transform="translate(101.43 -32.247) rotate(45)"/></g></mask><radialGradient id="radial-gradient-5" cx="305.225" cy="383.98" r="59.869" gradientTransform="translate(4.717 -240.459) rotate(45) scale(1 0.445)" gradientUnits="userSpaceOnUse"><stop offset="0.843" stop-color="#eb94a6" stop-opacity="0"/><stop offset="0.849" stop-color="#eb94a6" stop-opacity="0.063"/><stop offset="0.869" stop-color="#eb94a6" stop-opacity="0.293"/><stop offset="0.887" stop-color="#eb94a6" stop-opacity="0.46"/><stop offset="0.901" stop-color="#eb94a6" stop-opacity="0.562"/><stop offset="0.91" stop-color="#eb94a6" stop-opacity="0.6"/><stop offset="0.935" stop-color="#eb94a6" stop-opacity="0.449"/><stop offset="0.991" stop-color="#eb94a6" stop-opacity="0.067"/><stop offset="1" stop-color="#eb94a6" stop-opacity="0"/></radialGradient><mask id="mask-2" x="15.566" y="22.649" width="73.181" height="73.181" maskUnits="userSpaceOnUse"><g transform="translate(-41.692 -42.854)"><rect class="cls-2" x="52.142" y="92.054" width="83.414" height="20.08" transform="translate(99.679 -36.458) rotate(45)"/></g></mask><radialGradient id="radial-gradient-6" cx="331.816" cy="349.115" r="37.496" gradientTransform="translate(-43.286 -297.26) rotate(45) scale(1.143 0.502)" gradientUnits="userSpaceOnUse"><stop offset="0.838" stop-color="#b7425a" stop-opacity="0"/><stop offset="0.868" stop-color="#a23a4f" stop-opacity="0.446"/><stop offset="0.897" stop-color="#8e3346" stop-opacity="0.846"/><stop offset="0.912" stop-color="#873042"/><stop offset="0.924" stop-color="#893143" stop-opacity="0.958"/><stop offset="0.94" stop-color="#8f3346" stop-opacity="0.84"/><stop offset="0.959" stop-color="#98364b" stop-opacity="0.644"/><stop offset="0.978" stop-color="#a53b51" stop-opacity="0.372"/><stop offset="0.999" stop-color="#b64259" stop-opacity="0.025"/><stop offset="1" stop-color="#b7425a" stop-opacity="0"/></radialGradient></defs><title>erythrocyte</title><g id="erythrocyte"><path id="BG" class="cls-3" d="M146.052,146.4c-15.773,15.773-50.169,6.949-76.827-19.708S33.744,65.633,49.517,49.861s46.782-3.562,73.44,23.1S161.824,130.623,146.052,146.4Z" transform="translate(-41.692 -42.854)"/><ellipse id="TOP" class="cls-4" cx="96.091" cy="99.822" rx="10.546" ry="30.401" transform="translate(-84.132 54.329) rotate(-45)"/><g class="cls-5"><path id="SHINE" class="cls-6" d="M136.372,136.119a2.942,2.942,0,0,0-4.1-.378c-2.757,2.757-9.739,1.821-18.678-2.5-9.577-4.632-20.274-12.494-29.349-21.568-20.3-20.3-29.609-42.487-24.07-48.026a3.222,3.222,0,0,0-4.481-4.481C46.3,68.557,60.944,95.823,80.517,115.4c9.646,9.646,21.079,18.033,31.367,23.009,11.6,5.609,20.427,6.254,24.865,1.816A2.942,2.942,0,0,0,136.372,136.119Z" transform="translate(-41.692 -42.854)"/></g><g class="cls-7"><path id="SHADOW" class="cls-8" d="M127.23,123.51a2.1,2.1,0,0,0-2.921-.287c-1.949,1.949-6.92,1.251-13.3-1.865A82.974,82.974,0,0,1,90.032,105.88C75.5,91.345,68.774,75.519,72.689,71.6a2.313,2.313,0,0,0-3.208-3.208c-6.64,6.64,3.9,26.106,17.917,40.119a88.555,88.555,0,0,0,22.421,16.512c8.276,4.043,14.561,4.542,17.7,1.4A2.1,2.1,0,0,0,127.23,123.51Z" transform="translate(-41.692 -42.854)"/></g></g></svg>