<svg id="Layer_1" data-name="Layer 1" xmlns="http://www.w3.org/2000/svg" xmlns:xlink="http://www.w3.org/1999/xlink" viewBox="0 0 49.297 150"><defs><style>.cls-1{fill:url(#linear-gradient);}.cls-2{fill:url(#radial-gradient);}</style><linearGradient id="linear-gradient" x1="96.369" y1="107.208" x2="103.631" y2="107.208" gradientUnits="userSpaceOnUse"><stop offset="0" stop-color="#002a04"/><stop offset="0.383" stop-color="#0d9119"/><stop offset="1" stop-color="#002a04"/></linearGradient><radialGradient id="radial-gradient" cx="100.281" cy="32.323" r="13.683" gradientTransform="translate(157.955 -67.959) rotate(90) scale(1 1.784)" gradientUnits="userSpaceOnUse"><stop offset="0.565" stop-color="#0d9119"/><stop offset="1" stop-color="#002a04"/></radialGradient></defs><title>R-ICO-013664</title><g id="R-ICO-013664"><path class="cls-1" d="M100,175a3.631,3.631,0,0,1-3.631-3.631V43.046a3.631,3.631,0,1,1,7.262,0V171.369A3.631,3.631,0,0,1,100,175Z" transform="translate(-75.352 -25)"/><path class="cls-2" d="M100,46.677c-10.922,0-16.282-.969-19.778-3.574-4.5-3.354-4.87-8.759-4.87-14.472a3.631,3.631,0,0,1,7.262,0c0,5.381.492,7.563,1.949,8.649,2.523,1.882,9.22,2.135,15.437,2.135s12.915-.253,15.438-2.135c1.456-1.086,1.948-3.268,1.948-8.649a3.631,3.631,0,0,1,7.262,0c0,5.713-.372,11.118-4.87,14.472C116.282,45.708,110.922,46.677,100,46.677Z" transform="translate(-75.352 -25)"/></g></svg>