<svg id="Layer_1" data-name="Layer 1" xmlns="http://www.w3.org/2000/svg" xmlns:xlink="http://www.w3.org/1999/xlink" viewBox="0 0 81.876 22.949"><defs><style>.cls-1{fill:url(#linear-gradient);}.cls-2{fill:#d7411f;}.cls-3{font-size:12px;fill:#fff;font-family:Arial-BoldMT, Arial;font-weight:700;}</style><linearGradient id="linear-gradient" x1="156.364" y1="109.814" x2="156.364" y2="89.814" gradientTransform="translate(-115.077 -88.467)" gradientUnits="userSpaceOnUse"><stop offset="0" stop-color="#d7411f"/><stop offset="1" stop-color="#45abff"/></linearGradient></defs><title>Mx_GTPases</title><g id="Mx_GTPases"><rect class="cls-1" x="1.288" y="1.347" width="80" height="20" rx="10" ry="10"/><path class="cls-2" d="M130,110.15c-7.616-.009-15.231.43-22.847.837-7.616.458-15.231.546-22.847.613-3.808,0-7.616.019-11.423-.037l-2.856-.038a12.145,12.145,0,0,1-3.235-.5,11.511,11.511,0,0,1-5.385-3.545,11.134,11.134,0,0,1-1.576-12.11A10.969,10.969,0,0,1,70,89.179c7.616.261,15.231.449,22.847.335,3.808-.049,7.616-.194,11.423-.349l11.423-.413c3.808-.085,7.616-.131,11.423-.071l2.856.039a11.84,11.84,0,0,1,3.152.544,10.866,10.866,0,0,1,7.409,9.207,9.954,9.954,0,0,1-.143,3.01,10.057,10.057,0,0,1-.954,2.818A10.655,10.655,0,0,1,130,110.15Zm0-.3a9.749,9.749,0,0,0,5.289-1.626,9.477,9.477,0,0,0,3.449-4.247,9.259,9.259,0,0,0-1.918-9.908,9.147,9.147,0,0,0-6.846-2.789l-2.856.039c-3.808.061-7.616.015-11.423-.071l-11.423-.413c-3.808-.155-7.616-.3-11.423-.349-7.616-.114-15.231.074-22.847.335a9.139,9.139,0,0,0-4.844,1.642,9.336,9.336,0,0,0-3.162,3.9,8.785,8.785,0,0,0,1.54,9.264,8.612,8.612,0,0,0,4.093,2.544,9.133,9.133,0,0,0,2.4.308l2.856-.038c3.808-.056,7.616-.036,11.423-.037,7.616.066,15.231.155,22.847.613C114.769,109.42,122.384,109.859,130,109.85Z" transform="translate(-58.712 -88.653)"/><text class="cls-3" transform="translate(6.009 14.66)">Mx GTPases</text></g></svg>