<svg id="Layer_1" data-name="Layer 1" xmlns="http://www.w3.org/2000/svg" xmlns:xlink="http://www.w3.org/1999/xlink" viewBox="0 0 104.969 133.988"><defs><style>.cls-1{fill:#efdaa0;}.cls-1,.cls-2,.cls-3{stroke:#0f82bc;stroke-linecap:round;stroke-linejoin:round;stroke-width:2px;}.cls-2{fill:url(#radial-gradient);}.cls-3{fill:url(#radial-gradient-2);}</style><radialGradient id="radial-gradient" cx="107.916" cy="153.523" r="91.659" gradientTransform="translate(-53.417 -54.274)" gradientUnits="userSpaceOnUse"><stop offset="0" stop-color="#422522"/><stop offset="0.033" stop-color="#4d2e2b"/><stop offset="0.256" stop-color="#916562"/><stop offset="0.418" stop-color="#bc8884"/><stop offset="0.5" stop-color="#cc9591"/><stop offset="1" stop-color="#e3bfbc"/></radialGradient><radialGradient id="radial-gradient-2" cx="179.856" cy="139.522" r="115.697" gradientTransform="translate(-53.417 -54.274)" gradientUnits="userSpaceOnUse"><stop offset="0.098" stop-color="#b6dcde"/><stop offset="0.167" stop-color="#b0dadc"/><stop offset="0.261" stop-color="#9fd4d8"/><stop offset="0.368" stop-color="#83cbd0"/><stop offset="0.421" stop-color="#72c6cc"/><stop offset="0.449" stop-color="#6cbfc4"/><stop offset="0.49" stop-color="#5baaaf"/><stop offset="0.541" stop-color="#3f888d"/><stop offset="0.598" stop-color="#195a5e"/><stop offset="0.615" stop-color="#0d4b4f"/></radialGradient></defs><title>gastrulation</title><g id="GASTRULATION"><path class="cls-1" d="M141.583,85.239a19.71,19.71,0,0,1-3.165-11.174q.028-.746.028-1.5a40.5,40.5,0,1,0-81,0q0,.755.029,1.5a19.223,19.223,0,0,1-3.046,10.982,51.484,51.484,0,1,0,87.155.188Z" transform="translate(-45.461 -31.065)"/><path class="cls-2" d="M134.675,83.416c-2.1,9-7.732,11.08-14.937,11.08a91.762,91.762,0,0,1-9.405-.69,115.105,115.105,0,0,0-12.387-.858,115.105,115.105,0,0,0-12.387.858c-11.457,1.222-21.4,2.28-24.353-10.375a45.936,45.936,0,1,0,73.468-.015Z" transform="translate(-45.461 -31.065)"/><path class="cls-3" d="M84.164,77.44c4.438,1.046,9.027,2.129,13.782,2.129s9.344-1.083,13.782-2.129c8.238-1.944,16.036-3.764,22.05,2.553a37.132,37.132,0,0,0,.3-4.681,36.136,36.136,0,0,0-72.273,0,39.571,39.571,0,0,0,.232,4.76C68.063,73.665,75.891,75.489,84.164,77.44Z" transform="translate(-45.461 -31.065)"/></g></svg>