<svg id="Layer_1" data-name="Layer 1" xmlns="http://www.w3.org/2000/svg" xmlns:xlink="http://www.w3.org/1999/xlink" viewBox="0 0 64.151 22.938"><defs><style>.cls-1{fill:url(#linear-gradient);}.cls-2{fill:#9c5140;}.cls-3{font-size:12px;fill:#fff;font-family:Arial-BoldMT, Arial;font-weight:700;}</style><linearGradient id="linear-gradient" x1="32.359" y1="21.338" x2="32.359" y2="1.338" gradientUnits="userSpaceOnUse"><stop offset="0.001" stop-color="#9b3c9b"/><stop offset="1" stop-color="#9c5140"/></linearGradient></defs><title>R-ICO-013771</title><g id="R-ICO-013771"><rect class="cls-1" x="1.359" y="1.338" width="62" height="20" rx="10"/><path class="cls-2" d="M121,110.15c-6.116-.009-12.231.43-18.347.837-6.116.458-12.231.547-18.347.613H79.719c-.382,0-.746.006-1.214-.025a8.381,8.381,0,0,1-1.322-.135,11.027,11.027,0,0,1-2.549-.737A11.5,11.5,0,0,1,68,102.994a11.386,11.386,0,0,1-.107-5.172A10.992,10.992,0,0,1,79,89.179c6.116.281,12.231.436,18.347.335,6.116-.085,12.231-.574,18.347-.763,1.529-.032,3.058-.093,4.587-.087.382,0,.749-.011,1.2.017a8.146,8.146,0,0,1,1.294.124,10.625,10.625,0,0,1,2.5.713,10.694,10.694,0,0,1,6.179,12.531A10.919,10.919,0,0,1,121,110.15Zm0-.3a9.268,9.268,0,0,0,7.623-4.025,9.109,9.109,0,0,0,1.093-8.193,9.393,9.393,0,0,0-5.451-5.654,9.206,9.206,0,0,0-1.911-.511,5.7,5.7,0,0,0-.985-.105c-.308-.027-.706-.025-1.088-.026-1.529.006-3.058-.055-4.587-.087-6.116-.189-12.231-.678-18.347-.763-6.116-.1-12.231.054-18.347.335a9.124,9.124,0,0,0-6.973,3.853,9.021,9.021,0,0,0-1.533,3.661,8.857,8.857,0,0,0,.236,3.911,8.649,8.649,0,0,0,5.095,5.557,8.83,8.83,0,0,0,1.86.486,5.463,5.463,0,0,0,.956.094c.3.024.7.019,1.078.018h4.587c6.116.066,12.231.155,18.347.613C108.769,109.42,114.884,109.859,121,109.85Z" transform="translate(-67.641 -88.662)"/><text class="cls-3" transform="translate(4.36 14.652)">RRAGA,B</text></g></svg>