<svg id="Layer_1" data-name="Layer 1" xmlns="http://www.w3.org/2000/svg" xmlns:xlink="http://www.w3.org/1999/xlink" viewBox="0 0 188.947 14.92"><defs><style>.cls-1{fill:url(#linear-gradient);}.cls-2{fill:url(#linear-gradient-2);}.cls-3{fill:url(#linear-gradient-3);}.cls-4{fill:url(#linear-gradient-4);}.cls-5{fill:url(#linear-gradient-5);}.cls-6{fill:url(#linear-gradient-6);}.cls-7{fill:url(#linear-gradient-7);}.cls-8{fill:url(#linear-gradient-8);}.cls-9{fill:url(#linear-gradient-9);}.cls-10{fill:url(#linear-gradient-10);}.cls-11{fill:url(#linear-gradient-11);}.cls-12{fill:url(#linear-gradient-12);}</style><linearGradient id="linear-gradient" x1="241.449" y1="39.127" x2="241.449" y2="24.256" gradientTransform="translate(-218.096 66.386)" gradientUnits="userSpaceOnUse"><stop offset="0" stop-color="#0d7125"/><stop offset="0.092" stop-color="#13a235"/><stop offset="0.25" stop-color="#aabfaf"/><stop offset="0.587" stop-color="#0ea231"/><stop offset="0.653" stop-color="#0c892a"/><stop offset="0.814" stop-color="#08531a"/><stop offset="0.935" stop-color="#053110"/><stop offset="1" stop-color="#04240c"/></linearGradient><linearGradient id="linear-gradient-2" x1="302.767" y1="39.127" x2="302.767" y2="24.256" xlink:href="#linear-gradient"/><linearGradient id="linear-gradient-3" x1="364.084" y1="39.127" x2="364.084" y2="24.256" xlink:href="#linear-gradient"/><linearGradient id="linear-gradient-4" x1="-791.597" y1="-306.25" x2="-791.597" y2="-320.994" gradientTransform="matrix(-1, 0, 0, 1, -737.585, 411.763)" gradientUnits="userSpaceOnUse"><stop offset="0" stop-color="#241704"/><stop offset="0.094" stop-color="#a2670e"/><stop offset="0.116" stop-color="#a36a15"/><stop offset="0.148" stop-color="#a77427"/><stop offset="0.184" stop-color="#ac8446"/><stop offset="0.225" stop-color="#b49970"/><stop offset="0.269" stop-color="#beb5a6"/><stop offset="0.273" stop-color="#bfb7aa"/><stop offset="0.309" stop-color="#beb6a7"/><stop offset="0.334" stop-color="#bdb19e"/><stop offset="0.355" stop-color="#baa98f"/><stop offset="0.375" stop-color="#b69e79"/><stop offset="0.393" stop-color="#b1905d"/><stop offset="0.41" stop-color="#aa7e3b"/><stop offset="0.426" stop-color="#a36913"/><stop offset="0.428" stop-color="#a2670e"/><stop offset="1" stop-color="#241704"/></linearGradient><linearGradient id="linear-gradient-5" x1="-852.915" y1="-306.25" x2="-852.915" y2="-320.994" xlink:href="#linear-gradient-4"/><linearGradient id="linear-gradient-6" x1="-914.232" y1="-306.25" x2="-914.232" y2="-320.994" xlink:href="#linear-gradient-4"/><linearGradient id="linear-gradient-7" x1="-791.597" y1="-29.066" x2="-791.597" y2="-43.81" gradientTransform="translate(-737.585 61.485) rotate(180)" gradientUnits="userSpaceOnUse"><stop offset="0" stop-color="#04240c"/><stop offset="0.094" stop-color="#0ea231"/><stop offset="0.116" stop-color="#15a336"/><stop offset="0.148" stop-color="#27a745"/><stop offset="0.184" stop-color="#46ac5e"/><stop offset="0.225" stop-color="#70b480"/><stop offset="0.269" stop-color="#a6beac"/><stop offset="0.273" stop-color="#aabfaf"/><stop offset="0.309" stop-color="#a7bead"/><stop offset="0.334" stop-color="#9ebda5"/><stop offset="0.355" stop-color="#8fba99"/><stop offset="0.375" stop-color="#79b688"/><stop offset="0.393" stop-color="#5db171"/><stop offset="0.41" stop-color="#3baa55"/><stop offset="0.426" stop-color="#13a335"/><stop offset="0.428" stop-color="#0ea231"/><stop offset="1" stop-color="#04240c"/></linearGradient><linearGradient id="linear-gradient-8" x1="-852.915" y1="-29.066" x2="-852.915" y2="-43.81" xlink:href="#linear-gradient-7"/><linearGradient id="linear-gradient-9" x1="-914.232" y1="-29.066" x2="-914.232" y2="-43.81" xlink:href="#linear-gradient-7"/><linearGradient id="linear-gradient-10" x1="241.449" y1="316.311" x2="241.449" y2="301.441" gradientTransform="matrix(1, 0, 0, -1, -218.096, 406.862)" gradientUnits="userSpaceOnUse"><stop offset="0" stop-color="#71490d"/><stop offset="0.092" stop-color="#a26913"/><stop offset="0.25" stop-color="#bfb7aa"/><stop offset="0.586" stop-color="#a2670e"/><stop offset="0.653" stop-color="#89570c"/><stop offset="0.814" stop-color="#533508"/><stop offset="0.935" stop-color="#311f05"/><stop offset="1" stop-color="#241704"/></linearGradient><linearGradient id="linear-gradient-11" x1="302.767" y1="316.311" x2="302.767" y2="301.441" xlink:href="#linear-gradient-10"/><linearGradient id="linear-gradient-12" x1="364.084" y1="316.311" x2="364.084" y2="301.441" xlink:href="#linear-gradient-10"/></defs><title>keratin_dimer</title><g id="DIMER"><path class="cls-1" d="M41.18,105.492c-17.827,0-6.159-14.92-30.659-14.92H5.526c16.929,0,4.995,14.92,30.659,14.92Z" transform="translate(-5.526 -90.572)"/><path class="cls-2" d="M102.5,105.492c-17.827,0-6.159-14.92-30.659-14.92H66.844c16.929,0,4.995,14.92,30.659,14.92Z" transform="translate(-5.526 -90.572)"/><path class="cls-3" d="M163.815,105.492c-17.827,0-6.159-14.92-30.659-14.92h-4.995c16.929,0,4.995,14.92,30.659,14.92Z" transform="translate(-5.526 -90.572)"/><path class="cls-4" d="M36.185,90.572c17.827,0,4.61,14.92,31.291,14.92l4.362-.011c-16.929,0-5.684-14.909-30.659-14.909Z" transform="translate(-5.526 -90.572)"/><path class="cls-5" d="M97.5,90.572c17.827,0,4.61,14.92,31.291,14.92l4.362-.011c-16.929,0-5.684-14.909-30.659-14.909Z" transform="translate(-5.526 -90.572)"/><path class="cls-6" d="M158.82,90.572c17.827,0,4.61,14.92,31.291,14.92l4.362-.011c-16.929,0-5.684-14.909-30.659-14.909Z" transform="translate(-5.526 -90.572)"/><path class="cls-7" d="M36.185,105.492c17.827,0,4.61-14.92,31.291-14.92l4.362.011c-16.929,0-5.684,14.909-30.659,14.909Z" transform="translate(-5.526 -90.572)"/><path class="cls-8" d="M97.5,105.492c17.827,0,4.61-14.92,31.291-14.92l4.362.011c-16.929,0-5.684,14.909-30.659,14.909Z" transform="translate(-5.526 -90.572)"/><path class="cls-9" d="M158.82,105.492c17.827,0,4.61-14.92,31.291-14.92l4.362.011c-16.929,0-5.684,14.909-30.659,14.909Z" transform="translate(-5.526 -90.572)"/><path class="cls-10" d="M41.18,90.572c-17.827,0-6.159,14.92-30.659,14.92H5.526c16.929,0,4.995-14.92,30.659-14.92Z" transform="translate(-5.526 -90.572)"/><path class="cls-11" d="M102.5,90.572c-17.827,0-6.159,14.92-30.659,14.92H66.844c16.929,0,4.995-14.92,30.659-14.92Z" transform="translate(-5.526 -90.572)"/><path class="cls-12" d="M163.815,90.572c-17.827,0-6.159,14.92-30.659,14.92h-4.995c16.929,0,4.995-14.92,30.659-14.92Z" transform="translate(-5.526 -90.572)"/></g></svg>