<svg id="Layer_1" data-name="Layer 1" xmlns="http://www.w3.org/2000/svg" xmlns:xlink="http://www.w3.org/1999/xlink" viewBox="0 0 178.24 48.276"><defs><style>.cls-1{fill:url(#linear-gradient);}.cls-2{fill:url(#radial-gradient);}.cls-3{fill:#e7e0d2;}.cls-4{fill:url(#radial-gradient-2);}.cls-5{fill:url(#radial-gradient-3);}.cls-6{fill:url(#radial-gradient-4);}</style><linearGradient id="linear-gradient" x1="111.548" y1="-3.243" x2="193.762" y2="-3.243" gradientTransform="matrix(1, 0.023, 0.023, -1, -7.387, 91.618)" gradientUnits="userSpaceOnUse"><stop offset="0.189" stop-color="#996256"/><stop offset="1" stop-color="#6e1922"/></linearGradient><radialGradient id="radial-gradient" cx="82.779" cy="109.711" fx="67.82638898784404" r="24.697" gradientTransform="matrix(0.998, -0.056, -0.056, -0.998, 21.554, 214.813)" gradientUnits="userSpaceOnUse"><stop offset="0" stop-color="#e7e0d2"/><stop offset="0.478" stop-color="#ab8a60"/><stop offset="1" stop-color="#996256"/></radialGradient><radialGradient id="radial-gradient-2" cx="57.701" cy="122.078" r="15.87" gradientTransform="matrix(0.999, 0.051, -0.051, 0.999, -5.965, -16.333)" gradientUnits="userSpaceOnUse"><stop offset="0" stop-color="#e7e0d2"/><stop offset="0.598" stop-color="#ab9d60"/><stop offset="1" stop-color="#997456"/></radialGradient><radialGradient id="radial-gradient-3" cx="-229.35" cy="200.715" r="17.543" gradientTransform="translate(219.446 -88.831) scale(0.809 0.919)" xlink:href="#radial-gradient-2"/><radialGradient id="radial-gradient-4" cx="-200.416" cy="198.001" r="17.431" gradientTransform="translate(219.446 -88.831) scale(0.809 0.919)" gradientUnits="userSpaceOnUse"><stop offset="0" stop-color="#e7e0d2"/><stop offset="0.598" stop-color="#ab9d60"/><stop offset="1" stop-color="#996b56"/></radialGradient></defs><title>FIBRIN</title><g id="FIBRIN"><path id="CLOT" class="cls-1" d="M105.729,114.667c8.785,2.584,28.25,2.928,32.1-.574,3.9-3.56,10.852-6.89,15.618-5.168,4.708,1.837,13.092-5.57,15.044-6.431s3.5-7.292,5-7.809c1.55-.517,8.67-3.617,8.9-5.857.287-2.239,6.776-7.579,2.928-7.924-3.79-.345-10.737,1.608-15.79.861s-7.579-2.239-15.1-1.608c-7.579.632-11.426,2.584-17.513.632s-6.89-1.435-15.388-1.723c-8.441-.287-13.149,2.067-13.9,3.388-.689,1.321,1.837,5.455.861,9.359-.919,3.962-5.4,7.809-4.536,10.335C104.811,104.791,105.729,114.667,105.729,114.667Z" transform="translate(-8.289 -77)"/><path id="CLOT-2" data-name="CLOT" class="cls-2" d="M107.739,81.594c-4.479-1.837-6.2-3.445-10.565-2.239-4.364,1.263-9.245-3.5-14.642-1.837-5.455,1.665-11.886,5.11-12.115,8.9-.287,3.79-2.182,2.067-3.1,5.4-.861,3.33-2.526,8.441-3.675,8.9s-8.785,4.364-7.177,7.579c1.723,3.215,4.306,7.465,9.359,8.957,4.938,1.55,5,4.077,11.312,4.192,6.316.172,23.6-6.718,28.078-6.316a17.059,17.059,0,0,0,11.886-3.9c2.354-2.239,5.11-12.23,5.685-15.676s2.871-15.963-1.148-16.422C115.778,78.493,107.739,81.594,107.739,81.594Z" transform="translate(-8.289 -77)"/><g id="GRID"><path class="cls-3" d="M100.389,116.1a.287.287,0,0,1-.287-.27c-.12-2.08-.309-3.736-.46-5.066-.356-3.127-.535-4.7.889-6.121,1.937-1.937,2.289-4.719,2.385-6.644.026-.536.038-1.234.05-2.009.043-2.667.1-5.985.792-7.193.6-1.016.6-2.82.6-4.412,0-.7,0-1.368.053-1.9a5.915,5.915,0,0,1,.438-1.951.287.287,0,0,1,.5.284h0a6.045,6.045,0,0,0-.367,1.73c-.05.5-.049,1.152-.049,1.841,0,1.666,0,3.554-.678,4.7-.62,1.076-.674,4.449-.713,6.912-.012.783-.024,1.488-.051,2.028-.1,2.019-.476,4.944-2.552,7.021-1.227,1.228-1.08,2.522-.724,5.651.152,1.337.341,3,.463,5.1a.287.287,0,0,1-.27.3Z" transform="translate(-8.289 -77)"/><path class="cls-3" d="M90.915,118.8a.287.287,0,0,1-.287-.278,58.13,58.13,0,0,0-.552-6.047c-.374-2.831-.6-4.539.771-5.668,1.9-1.568,3.806-6.692,3.973-8.646.025-.434.039-1.015.054-1.67.058-2.375.137-5.627.84-6.94a23.464,23.464,0,0,0,1.145-5.309c.3-2.064.363-2.315.569-2.439a12.778,12.778,0,0,0,.552-2.774.283.283,0,0,1,.32-.25.287.287,0,0,1,.25.32c-.3,2.455-.6,3-.763,3.152a20.6,20.6,0,0,0-.359,2.074,22.943,22.943,0,0,1-1.206,5.5c-.639,1.192-.719,4.5-.772,6.682-.016.662-.031,1.25-.056,1.7-.172,2.017-2.1,7.334-4.181,9.048-1.125.927-.927,2.427-.567,5.15a58.577,58.577,0,0,1,.557,6.1.287.287,0,0,1-.277.3Z" transform="translate(-8.289 -77)"/><path class="cls-3" d="M83.8,120.7a.287.287,0,0,1-.287-.282c-.019-1.132-.05-2.242-.08-3.312-.158-5.609-.283-10.039,1.53-11.23,1.9-1.247,4.349-6.086,4.465-7.818.043-.422.075-1,.112-1.676.112-2.031.265-4.813.894-6.07a18.483,18.483,0,0,0,.8-4.223c.333-2.672.517-3.782,1-4.006.317-.159.648-1.64.753-2.921a.287.287,0,0,1,.573.047c-.057.7-.3,3-1.077,3.392a13.425,13.425,0,0,0-.68,3.559,18.039,18.039,0,0,1-.856,4.409c-.576,1.151-.725,3.864-.834,5.845-.037.68-.07,1.268-.114,1.693-.124,1.864-2.67,6.9-4.722,8.249-1.545,1.015-1.418,5.519-1.271,10.734.03,1.073.061,2.185.08,3.318a.287.287,0,0,1-.282.292Z" transform="translate(-8.289 -77)"/><path class="cls-3" d="M76.1,121.672h0a.287.287,0,0,1-.285-.289c.027-3.226.334-13.857,3.15-15.186,1.945-1.027,4.952-6.811,5.12-8.16.032-.256.066-.6.105-.989.18-1.8.452-4.516,1.13-5.825a17.191,17.191,0,0,0,.621-3.858c.277-2.765.481-4.478,1.171-4.823.505-.268.879-2.732.932-4.861a.287.287,0,1,1,.574.015c-.02.8-.174,4.79-1.244,5.357-.448.224-.7,2.718-.862,4.369a16.612,16.612,0,0,1-.677,4.053c-.634,1.223-.91,3.981-1.074,5.63-.04.4-.074.744-.107,1-.182,1.455-3.3,7.477-5.434,8.6-1.658.783-2.765,6.542-2.833,14.677A.287.287,0,0,1,76.1,121.672Z" transform="translate(-8.289 -77)"/><path class="cls-3" d="M68,118.4H68a.287.287,0,0,1-.28-.294c.174-6.891,1.819-12.074,4.094-12.9,2.064-.724,6.666-6.325,6.819-7.3l.066-.435a21.714,21.714,0,0,1,1.339-5.506,15.359,15.359,0,0,0,.508-3.658c.23-3.047.447-5.075,1.351-5.489.879-.4,1.139-3.607,1.1-5.532A.287.287,0,0,1,83.272,77a.279.279,0,0,1,.294.281c.012.548.076,5.376-1.43,6.067-.664.3-.869,3.024-1.018,5.01a14.54,14.54,0,0,1-.564,3.864,21.717,21.717,0,0,0-1.288,5.342L79.2,98c-.206,1.305-5.053,7-7.194,7.748-1.7.616-3.528,5.062-3.712,12.369A.287.287,0,0,1,68,118.4Z" transform="translate(-8.289 -77)"/><path class="cls-3" d="M61.574,115.241h-.015a.287.287,0,0,1-.272-.3c.357-7.028,3.74-10.867,6.027-11.348,1.984-.43,5.822-5.011,5.981-5.7l.041-.181a28.366,28.366,0,0,1,1.471-4.871,14.612,14.612,0,0,0,.368-3.427c.128-2.767.261-5.628,1.487-6.24,1.537-.768,1.394-3.888,1.392-3.92a.287.287,0,0,1,.574-.03c.007.144.16,3.529-1.709,4.463-.924.462-1.066,3.52-1.17,5.753a14.071,14.071,0,0,1-.416,3.631A27.886,27.886,0,0,0,73.9,97.84l-.042.182c-.2.846-4.194,5.649-6.42,6.13-2.049.431-5.235,4.167-5.573,10.816A.287.287,0,0,1,61.574,115.241Z" transform="translate(-8.289 -77)"/><path class="cls-3" d="M112.849,116.275a.287.287,0,0,1-.266-.181,5.925,5.925,0,0,1-.243-.848.287.287,0,1,1,.561-.124,5.512,5.512,0,0,0,.216.76.287.287,0,0,1-.161.373A.283.283,0,0,1,112.849,116.275Z" transform="translate(-8.289 -77)"/><path class="cls-3" d="M112.16,113.691a.287.287,0,0,1-.279-.219c-.13-.529-.264-1.116-.39-1.729a.287.287,0,0,1,.563-.116c.124.606.257,1.186.385,1.709a.287.287,0,0,1-.211.347A.281.281,0,0,1,112.16,113.691Zm-.7-3.454a.287.287,0,0,1-.283-.244c-.1-.641-.165-1.239-.2-1.775a.287.287,0,0,1,.573-.038c.035.52.1,1.1.2,1.727a.288.288,0,0,1-.284.33Zm-.182-3.511-.033,0a.288.288,0,0,1-.253-.317,4.909,4.909,0,0,1,.145-.775c.082-.328.156-.654.22-.972a.287.287,0,1,1,.563.113c-.066.326-.141.662-.228,1.006a4.327,4.327,0,0,0-.13.692A.287.287,0,0,1,111.278,106.726Zm.627-3.464-.03,0a.286.286,0,0,1-.256-.315,14.757,14.757,0,0,0,.076-1.476l0-.248a.287.287,0,0,1,.281-.293.291.291,0,0,1,.293.281l0,.26a15.264,15.264,0,0,1-.08,1.534A.287.287,0,0,1,111.906,103.262Zm-.075-3.513a.286.286,0,0,1-.283-.244c-.05-.329-.112-.651-.184-.967-.043-.188-.091-.448-.14-.765a.287.287,0,1,1,.567-.087c.047.3.091.547.132.725.075.33.14.665.192,1.008a.288.288,0,0,1-.284.33Zm-.551-3.482a.287.287,0,0,1-.285-.255c-.061-.541-.121-1.135-.178-1.76a.287.287,0,0,1,.26-.312.294.294,0,0,1,.312.26c.057.621.116,1.211.177,1.749a.288.288,0,0,1-.253.317Zm-.322-3.512a.288.288,0,0,1-.286-.266c-.043-.585-.081-1.178-.112-1.765a.287.287,0,1,1,.573-.031c.031.584.07,1.173.112,1.754a.288.288,0,0,1-.266.307Zm-.186-3.521a.287.287,0,0,1-.287-.279c-.014-.485-.022-.953-.021-1.4l0-.379a.287.287,0,0,1,.287-.285h0a.287.287,0,0,1,.284.29l0,.374c0,.437.007.9.021,1.378a.287.287,0,0,1-.279.3Zm.068-3.522-.031,0a.287.287,0,0,1-.255-.316,4.029,4.029,0,0,1,.253-1.162,5.5,5.5,0,0,0,.229-.585.287.287,0,1,1,.545.179,6.145,6.145,0,0,1-.251.644,3.449,3.449,0,0,0-.2.985A.287.287,0,0,1,110.841,85.711Zm.855-3.417a.259.259,0,0,1-.046,0,.277.277,0,0,1-.237-.311c0-.006.006-.036.007-.041a.29.29,0,0,1,.339-.223.287.287,0,0,1,.223.339A.3.3,0,0,1,111.7,82.294Z" transform="translate(-8.289 -77)"/><path class="cls-3" d="M111.874,81.421l-.033,0a.287.287,0,0,1-.253-.317c.055-.492.056-.826.056-.83a.287.287,0,0,1,.287-.287h0a.287.287,0,0,1,.287.287,8.786,8.786,0,0,1-.059.893A.287.287,0,0,1,111.874,81.421Z" transform="translate(-8.289 -77)"/><path class="cls-3" d="M114.514,85.44a.287.287,0,0,1-.056-.569c.153-.031.3-.046.457-.061.135-.013.269-.026.4-.053a.287.287,0,0,1,.113.563c-.154.031-.307.047-.46.062-.134.013-.268.026-.4.053A.277.277,0,0,1,114.514,85.44Z" transform="translate(-8.289 -77)"/><path class="cls-3" d="M120.221,85.6h0c-.569-.006-1.1-.021-1.583-.045a.287.287,0,0,1-.272-.3.277.277,0,0,1,.3-.272c.472.024,1,.038,1.561.045a.287.287,0,0,1,0,.574Zm3.146-.021a.287.287,0,0,1-.006-.574c.533-.01,1.062-.022,1.571-.035a.287.287,0,1,1,.015.574c-.51.013-1.04.025-1.574.035Z" transform="translate(-8.289 -77)"/><path class="cls-3" d="M128.353,85.44a.287.287,0,0,1,0-.574,5.631,5.631,0,0,0,.815-.053.283.283,0,0,1,.33.236.287.287,0,0,1-.236.33A6.057,6.057,0,0,1,128.353,85.44Z" transform="translate(-8.289 -77)"/><path class="cls-3" d="M102.112,83.144a.277.277,0,0,1-.057-.006l-.862-.172a.287.287,0,0,1,.113-.563l.861.172a.287.287,0,0,1-.056.569Z" transform="translate(-8.289 -77)"/><path class="cls-3" d="M109.907,86.432a.287.287,0,0,1-.044-.571c.532-.084,1.13-.214,1.7-.34a.287.287,0,1,1,.124.561c-.575.128-1.183.26-1.733.347A.3.3,0,0,1,109.907,86.432Zm-1.72-.033a.284.284,0,0,1-.1-.019,14.707,14.707,0,0,1-1.631-.734.287.287,0,0,1,.274-.505,14.5,14.5,0,0,0,1.563.7.287.287,0,0,1-.1.555Zm-2.928-1.83a.285.285,0,0,1-.2-.08,4.153,4.153,0,0,0-1.386-.847.287.287,0,0,1,.206-.536,4.721,4.721,0,0,1,1.577.97.287.287,0,0,1-.2.494Z" transform="translate(-8.289 -77)"/><path class="cls-3" d="M113.71,85.613a.287.287,0,0,1-.056-.569l.861-.172a.287.287,0,0,1,.113.563l-.861.172A.283.283,0,0,1,113.71,85.613Z" transform="translate(-8.289 -77)"/><path class="cls-3" d="M70.416,86.187a.287.287,0,0,1-.2-.494c1.451-1.391,5.756-2.842,6.849-2.66a21.537,21.537,0,0,0,4.435.108c.193-.146.7-.2,2.806-.325a25.954,25.954,0,0,0,2.751-.239,14.987,14.987,0,0,1,5.34-.348,21.731,21.731,0,0,0,5.028.055,16.67,16.67,0,0,1,3.813.232.287.287,0,0,1-.094.566,16.252,16.252,0,0,0-3.65-.228A22.4,22.4,0,0,1,92.3,82.8a14.552,14.552,0,0,0-5.1.336,24.115,24.115,0,0,1-2.864.258,20.981,20.981,0,0,0-2.515.222c-.6.366-4.324.071-4.853-.012-.954-.156-5.065,1.267-6.36,2.508A.287.287,0,0,1,70.416,86.187Z" transform="translate(-8.289 -77)"/><path class="cls-3" d="M114.4,91.872h-.861a.287.287,0,1,1,0-.574h.861a.287.287,0,0,1,0,.574Z" transform="translate(-8.289 -77)"/><path class="cls-3" d="M117.328,91.814a.287.287,0,0,1-.012-.574c.474-.021.952-.047,1.427-.078a.294.294,0,0,1,.306.268.287.287,0,0,1-.267.305c-.48.031-.962.058-1.441.079Zm4.295-.334a.287.287,0,0,1-.033-.572c.49-.056.964-.118,1.415-.184a.284.284,0,0,1,.326.242.287.287,0,0,1-.242.326c-.458.068-.938.13-1.433.187Z" transform="translate(-8.289 -77)"/><path class="cls-3" d="M126.171,90.666a.287.287,0,0,1-.091-.56,5.3,5.3,0,0,0,.767-.329.287.287,0,1,1,.257.514,5.906,5.906,0,0,1-.842.36A.293.293,0,0,1,126.171,90.666Z" transform="translate(-8.289 -77)"/><path class="cls-3" d="M100.734,89.4h-.861a.287.287,0,1,1,0-.574h.861a.287.287,0,0,1,0,.574Z" transform="translate(-8.289 -77)"/><path class="cls-3" d="M110.649,91.772l-.03,0a6.992,6.992,0,0,1-1.746-.334.287.287,0,1,1,.213-.533,7.2,7.2,0,0,0,1.592.3.287.287,0,0,1-.029.573Zm-3.182-1.094a.29.29,0,0,1-.116-.024,12.532,12.532,0,0,0-1.566-.563.287.287,0,0,1,.159-.552,13.188,13.188,0,0,1,1.638.588.287.287,0,0,1-.116.55Zm-3.262-.952a.287.287,0,0,1-.049,0c-.53-.091-1.09-.16-1.664-.2a.287.287,0,0,1-.264-.309.3.3,0,0,1,.308-.264c.592.047,1.169.118,1.716.212a.287.287,0,0,1-.048.57Z" transform="translate(-8.289 -77)"/><path class="cls-3" d="M113.481,91.872h-.861a.287.287,0,0,1,0-.574h.861a.287.287,0,1,1,0,.574Z" transform="translate(-8.289 -77)"/><path class="cls-3" d="M67.2,92.5a.287.287,0,0,1-.122-.547c.985-.46,10.931-1.166,13.5-.653,1.361.271,3.544-.279,5.654-.812a20.174,20.174,0,0,1,4.8-.859c.641,0,1.644-.119,2.8-.258a58.2,58.2,0,0,1,6.028-.489.287.287,0,0,1,.009.574,57.656,57.656,0,0,0-5.969.485,28.406,28.406,0,0,1-2.878.262,20.909,20.909,0,0,0-4.656.842c-2.171.549-4.416,1.116-5.908.818-2.6-.52-12.364.246-13.144.61A.287.287,0,0,1,67.2,92.5Z" transform="translate(-8.289 -77)"/><path class="cls-3" d="M113.768,98.877h-.861a.287.287,0,1,1,0-.574h.861a.287.287,0,0,1,0,.574Z" transform="translate(-8.289 -77)"/><path class="cls-3" d="M117.5,98.475a.287.287,0,0,1-.043-.571c.582-.089,1.175-.2,1.764-.328a.287.287,0,0,1,.122.561c-.6.131-1.2.243-1.8.335A.3.3,0,0,1,117.5,98.475Zm5.264-1.32a.287.287,0,0,1-.1-.558c.571-.2,1.133-.421,1.668-.653a.287.287,0,1,1,.228.527c-.547.237-1.121.461-1.705.668A.289.289,0,0,1,122.764,97.155Z" transform="translate(-8.289 -77)"/><path class="cls-3" d="M127.951,94.628a.287.287,0,0,1-.172-.517l.689-.516a.287.287,0,0,1,.345.459l-.69.517A.286.286,0,0,1,127.951,94.628Z" transform="translate(-8.289 -77)"/><path class="cls-3" d="M100.217,97.441h-.861a.287.287,0,0,1,0-.574h.861a.287.287,0,0,1,0,.574Z" transform="translate(-8.289 -77)"/><path class="cls-3" d="M110.094,98.571a.306.306,0,0,1-.05,0,10.61,10.61,0,0,1-1.181-.276c-.142-.045-.288-.088-.444-.129a.287.287,0,1,1,.147-.555q.248.066.467.136a10.017,10.017,0,0,0,1.111.259.287.287,0,0,1-.049.57Zm-3.219-.735a.287.287,0,0,1-.046,0c-.5-.08-1.05-.15-1.622-.207a.287.287,0,0,1,.057-.571c.583.058,1.14.13,1.655.212a.287.287,0,0,1-.045.571ZM103.59,97.5h-.016c-.523-.029-1.071-.049-1.64-.059a.287.287,0,0,1,.006-.574h.006c.576.011,1.13.031,1.66.061a.287.287,0,0,1-.016.574Z" transform="translate(-8.289 -77)"/><path class="cls-3" d="M112.907,98.819h-.861a.287.287,0,1,1,0-.574h.861a.287.287,0,0,1,0,.574Z" transform="translate(-8.289 -77)"/><path class="cls-3" d="M81.887,98.692c-6.738,0-14.4-1.992-15.909-2.775a.287.287,0,1,1,.264-.51c1.481.768,10.987,3.23,18.1,2.61.7-.061,1.462-.129,2.268-.2,3.77-.338,8.461-.758,12.673-.948a.287.287,0,0,1,.026.574c-4.2.189-8.883.609-12.647.946-.806.072-1.568.14-2.27.2C83.583,98.66,82.742,98.692,81.887,98.692Z" transform="translate(-8.289 -77)"/><path class="cls-3" d="M116.352,104.791a.287.287,0,0,1-.056-.569,4.548,4.548,0,0,0,.811-.215.287.287,0,0,1,.213.533,4.947,4.947,0,0,1-.912.245A.277.277,0,0,1,116.352,104.791Z" transform="translate(-8.289 -77)"/><path class="cls-3" d="M121.06,103.47a.287.287,0,0,1-.082-.562q.926-.276,1.839-.577a.287.287,0,1,1,.179.545q-.919.3-1.855.583A.3.3,0,0,1,121.06,103.47Zm5.483-1.905a.287.287,0,0,1-.107-.553q.9-.362,1.774-.749a.287.287,0,0,1,.233.525q-.883.392-1.793.757A.289.289,0,0,1,126.544,101.565Z" transform="translate(-8.289 -77)"/><path class="cls-3" d="M132.143,98.934a.287.287,0,0,1-.128-.544c.11-.055.235-.124.359-.194s.268-.149.387-.208a.287.287,0,0,1,.257.514c-.113.056-.239.126-.364.2s-.265.147-.382.206A.289.289,0,0,1,132.143,98.934Z" transform="translate(-8.289 -77)"/><path class="cls-3" d="M94.533,107.031h-.861a.287.287,0,1,1,0-.574h.861a.287.287,0,1,1,0,.574Z" transform="translate(-8.289 -77)"/><path class="cls-3" d="M96.428,106.973a.287.287,0,0,1-.005-.574q.918-.016,1.863-.04h.007a.287.287,0,0,1,.007.574q-.948.024-1.868.04Zm3.731-.1a.287.287,0,0,1-.011-.574q.917-.034,1.861-.08a.278.278,0,0,1,.3.273.287.287,0,0,1-.273.3q-.948.047-1.868.081Zm3.727-.187a.287.287,0,0,1-.018-.574q.915-.059,1.857-.134a.29.29,0,0,1,.309.263.286.286,0,0,1-.263.309q-.947.077-1.866.135Zm3.721-.3a.287.287,0,0,1-.03-.573c.571-.061,1.187-.137,1.84-.233a.292.292,0,0,1,.326.243.288.288,0,0,1-.243.326c-.662.1-1.285.175-1.863.236Zm3.692-.541a.287.287,0,0,1-.052-.57c.587-.108,1.195-.23,1.82-.368a.287.287,0,1,1,.123.561c-.631.139-1.246.263-1.839.373A.34.34,0,0,1,111.3,105.846Z" transform="translate(-8.289 -77)"/><path class="cls-3" d="M115.548,104.963a.287.287,0,0,1-.056-.569,4.548,4.548,0,0,0,.811-.215.287.287,0,0,1,.213.534,5.031,5.031,0,0,1-.912.244A.277.277,0,0,1,115.548,104.963Z" transform="translate(-8.289 -77)"/><path class="cls-3" d="M90.968,107.051c-11.511,0-24.629-1.141-27.5-6.075l-.065-.109a.287.287,0,1,1,.487-.3l.074.125c2.347,4.026,12.616,6.017,29.708,5.77a.307.307,0,0,1,.291.283.287.287,0,0,1-.283.292C92.787,107.043,91.882,107.051,90.968,107.051Z" transform="translate(-8.289 -77)"/><path class="cls-3" d="M116.581,108.982a.287.287,0,0,1-.056-.569l.861-.172a.287.287,0,1,1,.112.563l-.861.172A.277.277,0,0,1,116.581,108.982Z" transform="translate(-8.289 -77)"/><path class="cls-3" d="M120.887,108.006a.287.287,0,0,1-.058-.568q.841-.177,1.665-.343a.287.287,0,0,1,.113.563c-.546.11-1.1.224-1.66.342A.268.268,0,0,1,120.887,108.006Zm5-.971a.287.287,0,0,1-.048-.57c.584-.1,1.147-.193,1.682-.273a.287.287,0,0,1,.085.567c-.532.08-1.09.17-1.669.271A.245.245,0,0,1,125.886,107.035Z" transform="translate(-8.289 -77)"/><path class="cls-3" d="M132.085,106.456a.276.276,0,0,1-.07-.009,3.673,3.673,0,0,0-.791-.049.287.287,0,0,1,0-.574,3.959,3.959,0,0,1,.931.067.287.287,0,0,1-.07.565Z" transform="translate(-8.289 -77)"/><path class="cls-3" d="M92.35,113.978a.287.287,0,0,1-.056-.569c.152-.03.3-.046.456-.061.135-.013.27-.027.4-.054a.287.287,0,1,1,.113.563c-.154.031-.307.047-.461.062-.133.013-.267.026-.4.053A.276.276,0,0,1,92.35,113.978Z" transform="translate(-8.289 -77)"/><path class="cls-3" d="M94.992,113.634a.287.287,0,0,1-.04-.571q.833-.119,1.695-.255a.287.287,0,0,1,.09.567q-.866.136-1.7.256Zm3.394-.537a.287.287,0,0,1-.049-.57q.831-.146,1.686-.308a.287.287,0,1,1,.108.564q-.86.163-1.7.309A.249.249,0,0,1,98.386,113.1Zm3.375-.644a.287.287,0,0,1-.058-.568q.827-.172,1.674-.363a.283.283,0,0,1,.343.216.287.287,0,0,1-.216.343q-.853.193-1.684.365A.263.263,0,0,1,101.761,112.452Zm3.353-.755a.287.287,0,0,1-.068-.566q.822-.2,1.661-.418a.283.283,0,0,1,.35.2.287.287,0,0,1-.2.35q-.844.221-1.671.422A.315.315,0,0,1,105.115,111.7Zm3.333-.839a.287.287,0,0,1-.07-.566c.5-.126,1.064-.265,1.67-.413a.287.287,0,1,1,.137.557c-.605.149-1.165.288-1.668.413A.3.3,0,0,1,108.448,110.858Zm3.339-.818a.287.287,0,0,1-.067-.566c.537-.128,1.1-.261,1.675-.394a.287.287,0,1,1,.129.56c-.576.133-1.135.264-1.671.393A.274.274,0,0,1,111.786,110.039Z" transform="translate(-8.289 -77)"/><path class="cls-3" d="M115.778,109.155a.287.287,0,0,1-.056-.569l.861-.172a.287.287,0,0,1,.113.563l-.862.172A.277.277,0,0,1,115.778,109.155Z" transform="translate(-8.289 -77)"/><path class="cls-3" d="M81.53,114.764c-18.361,0-21.2-8.2-22.229-11.193l-.122-.349a.287.287,0,1,1,.541-.193l.124.354c1.172,3.391,4.74,13.712,32.469,10.023a.287.287,0,0,1,.076.57A82.853,82.853,0,0,1,81.53,114.764Z" transform="translate(-8.289 -77)"/><path class="cls-3" d="M121.29,116.963h-.007a.288.288,0,0,1-.28-.294c0-.024.015-.645.067-1.638a.287.287,0,1,1,.573.03c-.052.984-.066,1.6-.066,1.621A.287.287,0,0,1,121.29,116.963Zm.323-5.068h-.027a.287.287,0,0,1-.259-.313c.024-.26.052-.524.08-.792.013-.135.019-.283.019-.441,0-.14,0-.287-.013-.441a.287.287,0,0,1,.27-.3.283.283,0,0,1,.3.27c.01.166.015.325.015.476,0,.176-.007.343-.021.5-.029.269-.056.53-.08.788A.287.287,0,0,1,121.613,111.9Zm-.486-5.116a.287.287,0,0,1-.279-.22c-.13-.543-.277-1.1-.434-1.658a.287.287,0,1,1,.553-.156c.159.565.307,1.129.44,1.68a.287.287,0,0,1-.213.346A.305.305,0,0,1,121.127,106.779Zm-1.476-4.959a.286.286,0,0,1-.271-.192c-.2-.577-.4-1.121-.592-1.61a.287.287,0,1,1,.535-.208c.192.5.395,1.045.6,1.629a.286.286,0,0,1-.176.366A.281.281,0,0,1,119.651,101.821Zm-1.95-4.785a.287.287,0,0,1-.279-.22,9.692,9.692,0,0,1-.23-1.758.287.287,0,0,1,.272-.3.274.274,0,0,1,.3.272,9.187,9.187,0,0,0,.215,1.653.287.287,0,0,1-.212.347A.294.294,0,0,1,117.7,97.036Zm-.059-5.144-.04,0a.287.287,0,0,1-.245-.324,11.94,11.94,0,0,1,.35-1.731.287.287,0,0,1,.551.164,11.384,11.384,0,0,0-.332,1.644A.287.287,0,0,1,117.642,91.892Zm.231-5.106a.287.287,0,0,1-.283-.24c-.091-.545-.2-1.115-.317-1.684a.287.287,0,0,1,.563-.116c.118.576.228,1.154.32,1.706a.287.287,0,0,1-.236.33A.273.273,0,0,1,117.873,86.786Zm-1.081-5.06a.287.287,0,0,1-.279-.22l-.017-.072c-.177-.74-.317-1.325-.37-1.629a.287.287,0,1,1,.565-.1c.05.287.188.864.363,1.594l.017.071a.287.287,0,0,1-.279.354Z" transform="translate(-8.289 -77)"/></g><path class="cls-4" d="M69.383,117.366a1.944,1.944,0,0,0-.172-.459c-.115-.287-.287-.4-.345-.574-.287-.345-.517-.574-.8-.919-1.148-1.034-2.239-2.01-3.445-2.928s-2.3-1.837-3.5-2.756a4.631,4.631,0,0,1-.8-.689c-.115-.115-.23-.172-.345-.287a1.554,1.554,0,0,1,.632-.574c1.034-.919,2.3-1.78,3.56-2.756a14.3,14.3,0,0,0,1.78-1.55,6.1,6.1,0,0,0,.919-1.091,5.6,5.6,0,0,0,.4-.976.854.854,0,0,0,.057-.345v-.4c-.057-.172-.057-.345-.115-.459a.925.925,0,0,0-.23-.4.435.435,0,0,1-.115-.23l-.115-.115a1.008,1.008,0,0,0-.287-.23,1.2,1.2,0,0,0-.345-.23l-.345-.172a.816.816,0,0,0-.345-.115,3.793,3.793,0,0,0-1.378-.172,14.222,14.222,0,0,0-2.354.23,26.9,26.9,0,0,0-4.306,1.378c-1.378.517-2.7,1.206-4.134,1.723-.632.287-1.378.574-2.01.8a3.742,3.742,0,0,1-.861.287.2.2,0,0,0-.115.057H50.2a3.254,3.254,0,0,1-.574-.632,2.1,2.1,0,0,1-.574-.919c-.345-.574-.746-1.321-1.091-2.01-.746-1.435-1.493-2.756-2.182-4.192a8.955,8.955,0,0,0-1.378-2.01,2.369,2.369,0,0,0-1.091-.861.977.977,0,0,0-.4-.057.728.728,0,0,0-.345.057,2.122,2.122,0,0,0-.632.287,2.466,2.466,0,0,0-.8,1.091,7.5,7.5,0,0,0-.459,1.206,20.229,20.229,0,0,0-.517,2.412c-.287.919-.632,1.837-.919,2.641a6.154,6.154,0,0,1-.574,1.263c-.115.172-.172.345-.345.4s-.115.115-.287.115a4.519,4.519,0,0,1-1.148-.23c-.345-.057-.8-.23-1.206-.345l-2.354-.689c-1.608-.459-3.273-1.034-4.881-1.435a10.194,10.194,0,0,0-2.584-.459,5.636,5.636,0,0,0-1.435-.057,7.534,7.534,0,0,0-.861.172.913.913,0,0,0-.517.345c-.115.115-.172.115-.287.287-.115.115-.172.287-.287.4a.816.816,0,0,0-.115.345v.057a3.3,3.3,0,0,0,.057,1.091,1.325,1.325,0,0,0,.345.517c.23.287.4.4.574.632a3.366,3.366,0,0,0,1.091.746,17.284,17.284,0,0,0,2.01,1.091c1.321.632,2.641,1.263,4.019,1.895a30.351,30.351,0,0,1,3.9,1.837,1.912,1.912,0,0,0,.345.172c-1.034.861-2.3,1.665-3.5,2.584a20.033,20.033,0,0,0-1.837,1.435c-.287.287-.574.459-.919.8a4.746,4.746,0,0,0-.919,1.148,4.679,4.679,0,0,0-.459,1.148,1.848,1.848,0,0,0-.057.976,3.869,3.869,0,0,0,.345.976,2.4,2.4,0,0,0,1.091.861,1.082,1.082,0,0,0,.459.115l.345.057a5.534,5.534,0,0,0,1.378,0c.459-.057.8-.057,1.206-.115,1.55-.287,2.928-.574,4.421-.976,1.378-.345,2.814-.8,4.192-1.206.632-.172,1.378-.345,2.125-.517.632-.172,1.378-.287,1.952-.4a.853.853,0,0,1,.345-.057h.057a1.888,1.888,0,0,1,.345.345,12.071,12.071,0,0,1,1.091,1.78c.746,1.378,1.493,2.756,2.3,4.192a9.591,9.591,0,0,0,1.493,2.01,6.945,6.945,0,0,0,.919.919,2.521,2.521,0,0,0,1.378.574,2.323,2.323,0,0,0,1.608-.23,3.783,3.783,0,0,0,1.206-1.321,8.25,8.25,0,0,0,.517-2.7c.057-.861.057-1.665.057-2.469a13.5,13.5,0,0,1,.23-2.3,1.275,1.275,0,0,1,.345-.689c0-.057.057-.057.115-.057h.172a1.427,1.427,0,0,1,.459.057c.632.172,1.378.345,2.067.517,2.7.8,5.455,2.01,8.326,2.526a7.068,7.068,0,0,0,1.148.115l.287-.057.345-.057a5.979,5.979,0,0,0,.689-.287A.879.879,0,0,1,69.383,117.366Zm-32.672-6.2Zm14.125-8.326h0c0,.057-.057.057,0,0Zm-4.249,13.034Z" transform="translate(-8.289 -77)"/><path class="cls-5" d="M57.5,98.073a1.228,1.228,0,0,0-.345-.574,4.728,4.728,0,0,0-1.263-.919c-.746-.4-1.608-.746-2.354-1.091-1.608-.632-3.158-1.263-4.651-1.837-.746-.345-1.55-.574-2.3-.976-.345-.172-.689-.345-1.091-.517v-.115a1.5,1.5,0,0,1,.172-.459,7.522,7.522,0,0,1,1.493-2.125c.517-.689,1.148-1.378,1.665-2.067s1.148-1.435,1.608-2.182a5.125,5.125,0,0,0,.689-1.378,1.694,1.694,0,0,0,.057-1.091.816.816,0,0,1-.115-.345c-.057-.115-.115-.172-.172-.287-.115-.057-.115-.115-.23-.172s-.115-.115-.172-.115A2.655,2.655,0,0,0,49,81.594a6.275,6.275,0,0,0-1.378.23,15,15,0,0,0-2.412.919,41.426,41.426,0,0,0-4.479,2.526c-1.435.919-2.871,1.895-4.249,2.7a5.294,5.294,0,0,1-.459.287l-.23.115a.056.056,0,0,0-.057.057.056.056,0,0,1-.057-.057.124.124,0,0,1-.115-.115,8.979,8.979,0,0,1-1.608-1.665c-1.091-1.321-2.125-2.756-3.273-4.192a21.019,21.019,0,0,0-1.895-2.125,3.865,3.865,0,0,0-1.378-.976l-.23-.115c-.115-.057-.172-.057-.287-.115a1.4,1.4,0,0,0-.689,0,3.214,3.214,0,0,0-1.148.459,4.714,4.714,0,0,0-1.148,1.78,7.788,7.788,0,0,0-.345,1.665c-.115.976-.172,2.01-.23,2.928s-.115,1.837-.172,2.641c-.057.345-.115.8-.172.976,0,.057-.057.057-.057.115h0c-.057,0-.115.057-.172.057a14.222,14.222,0,0,1-2.354.23l-2.412.115c-1.665.057-3.33.172-4.938.345-.8.115-1.665.23-2.469.345-.4.115-.8.23-1.263.345a5.048,5.048,0,0,1-.574.345,1.8,1.8,0,0,0-.459.632,1.023,1.023,0,0,0,.345.746,1.191,1.191,0,0,0,.574.345,5.858,5.858,0,0,0,1.206.517c.8.345,1.665.517,2.354.746,1.665.4,3.273.8,4.823,1.148.8.172,1.665.345,2.354.517.345.115.8.23,1.148.345l.517.172a5.243,5.243,0,0,1-.574.746c-.517.632-1.148,1.263-1.723,1.895l-1.837,1.952a24.442,24.442,0,0,0-1.837,2.182,6.2,6.2,0,0,0-.861,1.55,2.839,2.839,0,0,0-.172,1.55,2.967,2.967,0,0,0,.459,1.091,1.806,1.806,0,0,0,.689.517,2.057,2.057,0,0,0,.632.23c.115,0,.345.057.517.057h.4l.345-.057,1.378-.345a29.822,29.822,0,0,0,4.766-2.067c1.55-.746,2.986-1.608,4.479-2.354.746-.345,1.493-.746,2.182-1.091a4.4,4.4,0,0,1,.976-.4l.172-.057h0c.115.057.345.287.517.4.23.287.517.517.8.861.517.632,1.148,1.321,1.665,2.01.574.689,1.148,1.435,1.837,2.125a14.763,14.763,0,0,0,2.239,1.952,4.665,4.665,0,0,0,1.608.689,3.283,3.283,0,0,0,2.067-.23,3.173,3.173,0,0,0,.976-.8,4.7,4.7,0,0,0,.517-1.091,8.064,8.064,0,0,0,.23-1.895,21.964,21.964,0,0,0-.287-2.986,24.334,24.334,0,0,1-.287-2.526v-.459h.057a15.716,15.716,0,0,1,2.3.057c1.665.115,3.33.287,4.938.345.861,0,1.665.057,2.526,0A7.986,7.986,0,0,0,56,99.91a5.386,5.386,0,0,0,.8-.574.435.435,0,0,0,.115-.23.816.816,0,0,0,.115-.345C57.612,98.417,57.555,98.245,57.5,98.073ZM45.554,92.1Zm-9.991-3.675ZM22.242,96.982ZM32,102.092Z" transform="translate(-8.289 -77)"/><path class="cls-6" d="M82.015,93.364c-.115-.345-.287-.4-.345-.574a5.135,5.135,0,0,0-1.321-.746,23.728,23.728,0,0,0-2.412-.8c-1.665-.4-3.215-.861-4.823-1.321-.8-.23-1.608-.4-2.354-.689-.345-.115-.746-.287-1.091-.4v-.115c0-.115.115-.345.115-.517a22.773,22.773,0,0,1,1.263-2.3,18.974,18.974,0,0,1,1.493-2.239c.459-.746.976-1.55,1.435-2.354a6.784,6.784,0,0,0,.574-1.435,1.82,1.82,0,0,0-.057-1.091.816.816,0,0,1-.115-.345.448.448,0,0,0-.23-.23c-.115-.057-.115-.115-.23-.172s-.172-.057-.23-.115a3.285,3.285,0,0,0-1.493-.057c-.459.057-.861.23-1.378.345a15.112,15.112,0,0,0-2.354,1.206c-1.493.919-2.871,2.01-4.249,2.986-1.378,1.091-2.641,2.239-4.019,3.215-.115.115-.345.23-.459.345l-.23.172a.056.056,0,0,0-.057.057.056.056,0,0,1-.057-.057.124.124,0,0,1-.115-.115,12.712,12.712,0,0,1-1.723-1.493c-1.206-1.206-2.354-2.469-3.617-3.732q-.947-.947-2.067-1.895a4.109,4.109,0,0,0-1.435-.861.345.345,0,0,0-.23-.057c-.115,0-.172-.057-.287-.057a1.356,1.356,0,0,0-.689.057,3.572,3.572,0,0,0-1.091.632,3.516,3.516,0,0,0-.861,1.895,8.635,8.635,0,0,0-.172,1.665,24.687,24.687,0,0,0,.057,2.928,21.4,21.4,0,0,1,.057,2.7,3.746,3.746,0,0,1-.115.976c0,.057-.057.057-.057.115h0c-.057,0-.115.057-.172.057a12.492,12.492,0,0,1-2.3.459l-2.412.345c-1.665.287-3.33.517-4.881.861a11.593,11.593,0,0,0-2.412.689c-.345.172-.8.345-1.206.517-.172.115-.345.23-.574.4a.9.9,0,0,0-.345.689,1.167,1.167,0,0,0,.4.689,1.911,1.911,0,0,0,.574.345,2.943,2.943,0,0,0,1.263.345,18.643,18.643,0,0,0,2.469.459c1.665.23,3.33.4,4.881.574.8.115,1.665.172,2.412.287.345.057.8.115,1.206.172.172.057.345.057.517.115a5.739,5.739,0,0,1-.459.8,24.862,24.862,0,0,1-1.55,2.125l-1.608,2.125a24.16,24.16,0,0,0-1.608,2.354,5.8,5.8,0,0,0-.689,1.665,3.213,3.213,0,0,0-.057,1.55,2.107,2.107,0,0,0,.574.976,2.187,2.187,0,0,0,.746.459,2.064,2.064,0,0,0,.632.115h.517c.172,0,.287-.057.4-.057l.345-.115a9.693,9.693,0,0,1,1.378-.459,35.279,35.279,0,0,0,4.594-2.584c1.493-.919,2.871-1.895,4.306-2.814.689-.4,1.378-.919,2.125-1.378.345-.23.632-.345.919-.517l.172-.115h0c.115.057.345.23.574.345a9.981,9.981,0,0,1,.861.746c.574.574,1.206,1.206,1.837,1.78.632.632,1.321,1.263,1.952,1.895a12.274,12.274,0,0,0,2.354,1.665,4.4,4.4,0,0,0,1.665.459,3.243,3.243,0,0,0,2.01-.459,2.411,2.411,0,0,0,.861-.976,3.062,3.062,0,0,0,.4-1.148,7.218,7.218,0,0,0,.057-1.895,21.206,21.206,0,0,0-.574-2.986c-.23-.919-.4-1.78-.517-2.469a1.427,1.427,0,0,1-.057-.459h.057c.632-.115,1.55-.172,2.3-.23,1.665-.057,3.33-.115,4.938-.287a19.068,19.068,0,0,0,2.526-.345A7.114,7.114,0,0,0,81.1,94.8a2.6,2.6,0,0,0,.689-.689.435.435,0,0,0,.115-.23c.057-.115.057-.23.115-.345C82.13,93.766,82.13,93.537,82.015,93.364ZM69.67,88.828ZM59.392,86.3ZM46.817,96.408Zm10.278,3.9Z" transform="translate(-8.289 -77)"/></g></svg>