<svg id="Layer_1" data-name="Layer 1" xmlns="http://www.w3.org/2000/svg" xmlns:xlink="http://www.w3.org/1999/xlink" viewBox="0 0 99.669 22.949"><defs><style>.cls-1{fill:url(#linear-gradient);}.cls-2{fill:#8ba11b;}.cls-3{font-size:12px;fill:#fff;font-family:Arial-BoldMT, Arial;font-weight:700;}</style><linearGradient id="linear-gradient" x1="50.219" y1="21.347" x2="50.219" y2="1.347" gradientUnits="userSpaceOnUse"><stop offset="0" stop-color="#1a9e9e"/><stop offset="1" stop-color="#8ba11b"/></linearGradient></defs><title>THYROTROPIN</title><g id="THYROTROPIN"><rect class="cls-1" x="1.219" y="1.347" width="98" height="20" rx="10" ry="10"/><path class="cls-2" d="M137.276,112.848c-9.116-.009-18.231.43-27.347.837-9.116.458-18.231.546-27.347.613-4.558,0-9.116.019-13.674-.037l-6.837-.076-1.709-.019c-.572-.008-1.113,0-1.8-.053a11.308,11.308,0,0,1-9.309-6.169,11.33,11.33,0,0,1-.941-7.493,10.987,10.987,0,0,1,10.962-8.574c9.116.261,18.231.449,27.347.335,4.558-.049,9.116-.194,13.673-.349l13.673-.413c4.558-.085,9.116-.131,13.673-.071q3.418.022,6.837.128l1.709.045c.571.012,1.12.031,1.776.1a11.12,11.12,0,0,1,3.615,1,10.974,10.974,0,0,1,5.127,5.117,10.53,10.53,0,0,1-2.989,12.833A10.408,10.408,0,0,1,137.276,112.848Zm0-.3a9.851,9.851,0,0,0,6.182-2.27,9.7,9.7,0,0,0,3.237-5.65,9.335,9.335,0,0,0-5.861-10.253,9.089,9.089,0,0,0-3-.565c-.482-.016-1.073.023-1.641.034l-1.709.045q-3.418.108-6.837.128c-4.558.061-9.116.015-13.673-.071L100.3,93.533c-4.558-.155-9.116-.3-13.673-.349-9.116-.114-18.231.074-27.347.335a9.2,9.2,0,0,0-5.664,2.233,9.356,9.356,0,0,0-2.967,5.179,8.814,8.814,0,0,0,.951,5.78,8.962,8.962,0,0,0,4.307,3.88,8.681,8.681,0,0,0,2.841.63c.451.03,1.051.016,1.618.01l1.709-.019,6.837-.076c4.558-.056,9.116-.036,13.674-.037,9.116.066,18.231.155,27.347.613C119.045,112.118,128.161,112.557,137.276,112.548Z" transform="translate(-48.058 -91.351)"/><text class="cls-3" transform="translate(6.551 14.235)">THYROTROPIN</text></g></svg>