<svg id="Layer_1" data-name="Layer 1" xmlns="http://www.w3.org/2000/svg" xmlns:xlink="http://www.w3.org/1999/xlink" viewBox="0 0 70.542 70.542"><defs><style>.cls-1,.cls-4{opacity:0.5;}.cls-1{fill:url(#radial-gradient);}.cls-2,.cls-3{fill:none;stroke-linecap:round;stroke-linejoin:round;}.cls-2{stroke:#5458ce;}.cls-3{stroke:#1d23ce;stroke-width:1.5px;}.cls-4{fill:url(#radial-gradient-2);}</style><radialGradient id="radial-gradient" cx="92.77" cy="87.455" r="31.368" gradientUnits="userSpaceOnUse"><stop offset="0" stop-color="#d8bae7"/><stop offset="1" stop-color="#1d7bce"/></radialGradient><radialGradient id="radial-gradient-2" cx="92.125" cy="86.255" r="35.171" gradientUnits="userSpaceOnUse"><stop offset="0" stop-color="#d8bae7"/><stop offset="1" stop-color="#931dce"/></radialGradient></defs><title>peroxisome</title><g id="PEROXISOME"><circle class="cls-1" cx="98.09" cy="97.353" r="31.452" transform="translate(-79.232 -42.114) rotate(-10.732)"/><line class="cls-2" x1="8.756" y1="36.713" x2="29.785" y2="22.101"/><line class="cls-2" x1="60.025" y1="32.366" x2="29.785" y2="22.101"/><line class="cls-2" x1="30.656" y1="62.382" x2="29.785" y2="22.101"/><line class="cls-2" x1="34.392" y1="6.92" x2="29.785" y2="22.101"/><line class="cls-3" x1="34.392" y1="6.92" x2="8.756" y2="36.713"/><line class="cls-3" x1="38.012" y1="47.119" x2="8.756" y2="36.713"/><line class="cls-3" x1="34.392" y1="6.92" x2="38.012" y2="47.119"/><line class="cls-3" x1="60.025" y1="32.366" x2="38.012" y2="47.119"/><line class="cls-3" x1="34.392" y1="6.92" x2="60.025" y2="32.366"/><line class="cls-3" x1="8.756" y1="36.713" x2="30.656" y2="62.382"/><line class="cls-3" x1="38.012" y1="47.119" x2="30.656" y2="62.382"/><line class="cls-3" x1="30.656" y1="62.382" x2="60.025" y2="32.366"/><circle class="cls-4" cx="98.09" cy="97.353" r="35.264" transform="translate(-79.232 -42.114) rotate(-10.732)"/></g></svg>