<svg id="Layer_1" data-name="Layer 1" xmlns="http://www.w3.org/2000/svg" xmlns:xlink="http://www.w3.org/1999/xlink" viewBox="0 0 93.895 117.383"><defs><style>.cls-1{fill:url(#linear-gradient);}.cls-2{fill:url(#linear-gradient-2);}.cls-3{fill:url(#linear-gradient-3);}.cls-4{fill:url(#linear-gradient-4);}.cls-5{fill:url(#linear-gradient-5);}.cls-6{fill:url(#linear-gradient-6);}.cls-7{fill:url(#linear-gradient-7);}.cls-8{fill:url(#linear-gradient-8);}.cls-9{fill:url(#linear-gradient-9);}.cls-10{fill:url(#linear-gradient-10);}.cls-11{fill:url(#linear-gradient-11);}.cls-12{fill:url(#linear-gradient-12);}.cls-13{fill:url(#linear-gradient-13);}.cls-14{fill:url(#linear-gradient-14);}.cls-15{fill:url(#linear-gradient-15);}.cls-16{fill:url(#linear-gradient-16);}.cls-17{fill:url(#linear-gradient-17);}.cls-18{fill:url(#linear-gradient-18);}</style><linearGradient id="linear-gradient" x1="87.715" y1="64.732" x2="95.777" y2="64.732" gradientTransform="matrix(1, 0, 0, -1, 0, 202)" gradientUnits="userSpaceOnUse"><stop offset="0" stop-color="#6044ad"/><stop offset="0.23" stop-color="#443999"/><stop offset="0.555" stop-color="#222d81"/><stop offset="0.823" stop-color="#0d2572"/><stop offset="1" stop-color="#05226d"/></linearGradient><linearGradient id="linear-gradient-2" x1="87.715" y1="87.894" x2="95.777" y2="87.894" xlink:href="#linear-gradient"/><linearGradient id="linear-gradient-3" x1="87.715" y1="111.057" x2="95.777" y2="111.057" xlink:href="#linear-gradient"/><linearGradient id="linear-gradient-4" x1="100.156" y1="111.057" x2="108.218" y2="111.057" xlink:href="#linear-gradient"/><linearGradient id="linear-gradient-5" x1="109.452" y1="136.061" x2="115.369" y2="131.055" xlink:href="#linear-gradient"/><linearGradient id="linear-gradient-6" x1="123.289" y1="154.242" x2="130.163" y2="149.274" gradientTransform="matrix(1, 0, 0, -1, 0, 202)" gradientUnits="userSpaceOnUse"><stop offset="0" stop-color="#7b84db"/><stop offset="0.987" stop-color="#6044ad"/></linearGradient><linearGradient id="linear-gradient-7" x1="119.002" y1="128.428" x2="125.154" y2="123.679" gradientTransform="matrix(1, 0, 0, -1, 0, 202)" gradientUnits="userSpaceOnUse"><stop offset="0" stop-color="#24a07a"/><stop offset="0.295" stop-color="#239e7a"/><stop offset="0.465" stop-color="#219579"/><stop offset="0.603" stop-color="#1e8777"/><stop offset="0.724" stop-color="#197375"/><stop offset="0.835" stop-color="#135a73"/><stop offset="0.935" stop-color="#0b3a70"/><stop offset="1" stop-color="#05226d"/></linearGradient><linearGradient id="linear-gradient-8" x1="132.768" y1="146.917" x2="139.321" y2="142.151" gradientTransform="matrix(1, 0, 0, -1, 0, 202)" gradientUnits="userSpaceOnUse"><stop offset="0" stop-color="#6bd1ac"/><stop offset="0.313" stop-color="#69cfab"/><stop offset="0.493" stop-color="#62c6a6"/><stop offset="0.64" stop-color="#57b89f"/><stop offset="0.769" stop-color="#47a494"/><stop offset="0.885" stop-color="#328b86"/><stop offset="0.992" stop-color="#186c75"/><stop offset="1" stop-color="#166974"/></linearGradient><linearGradient id="linear-gradient-9" x1="80.18" y1="131.075" x2="87.007" y2="136.082" xlink:href="#linear-gradient"/><linearGradient id="linear-gradient-10" x1="66.209" y1="149.622" x2="72.429" y2="154.022" xlink:href="#linear-gradient-6"/><linearGradient id="linear-gradient-11" x1="71.099" y1="123.956" x2="77.32" y2="128.66" xlink:href="#linear-gradient-7"/><linearGradient id="linear-gradient-12" x1="56.662" y1="142.097" x2="63.337" y2="147.104" xlink:href="#linear-gradient-8"/><linearGradient id="linear-gradient-13" x1="100.156" y1="87.894" x2="108.218" y2="87.894" xlink:href="#linear-gradient"/><linearGradient id="linear-gradient-14" x1="100.156" y1="64.732" x2="108.218" y2="64.732" xlink:href="#linear-gradient"/><linearGradient id="linear-gradient-15" x1="111.905" y1="60.7" x2="119.967" y2="60.7" gradientTransform="matrix(1, 0, 0, -1, 0, 202)" gradientUnits="userSpaceOnUse"><stop offset="0" stop-color="#b94cc9"/><stop offset="1" stop-color="#433c94"/></linearGradient><linearGradient id="linear-gradient-16" x1="124.346" y1="60.7" x2="132.408" y2="60.7" xlink:href="#linear-gradient-15"/><linearGradient id="linear-gradient-17" x1="63.525" y1="60.7" x2="71.587" y2="60.7" xlink:href="#linear-gradient-15"/><linearGradient id="linear-gradient-18" x1="75.967" y1="60.7" x2="84.029" y2="60.7" xlink:href="#linear-gradient-15"/></defs><title>BCR</title><g id="BCR"><path class="cls-1" d="M91.746,149.252a4.031,4.031,0,0,1-4.031-4.031V129.315a4.031,4.031,0,1,1,8.062,0v15.906A4.031,4.031,0,0,1,91.746,149.252Z" transform="translate(-51.03 -39.933)"/><path class="cls-2" d="M91.746,126.09a4.031,4.031,0,0,1-4.031-4.031V106.153a4.031,4.031,0,0,1,8.062,0v15.906A4.031,4.031,0,0,1,91.746,126.09Z" transform="translate(-51.03 -39.933)"/><path class="cls-3" d="M91.746,102.927A4.031,4.031,0,0,1,87.715,98.9V82.99a4.031,4.031,0,1,1,8.062,0V98.9A4.031,4.031,0,0,1,91.746,102.927Z" transform="translate(-51.03 -39.933)"/><path class="cls-4" d="M104.187,102.927a4.031,4.031,0,0,1-4.031-4.031V82.99a4.031,4.031,0,0,1,8.062,0V98.9A4.031,4.031,0,0,1,104.187,102.927Z" transform="translate(-51.03 -39.933)"/><path class="cls-5" d="M107.665,78.869a4.032,4.032,0,0,1-3.183-6.5L114.229,59.8a4.032,4.032,0,0,1,6.372,4.941l-9.747,12.569A4.027,4.027,0,0,1,107.665,78.869Z" transform="translate(-51.03 -39.933)"/><path class="cls-6" d="M121.859,60.565a4.032,4.032,0,0,1-3.183-6.5l9.747-12.569a4.032,4.032,0,0,1,6.372,4.941L125.048,59A4.022,4.022,0,0,1,121.859,60.565Z" transform="translate(-51.03 -39.933)"/><path class="cls-7" d="M116.949,86.068a4.032,4.032,0,0,1-3.183-6.5L123.513,67a4.032,4.032,0,0,1,6.372,4.941l-9.747,12.569A4.024,4.024,0,0,1,116.949,86.068Z" transform="translate(-51.03 -39.933)"/><path class="cls-8" d="M131.143,67.764a4.032,4.032,0,0,1-3.183-6.5l9.747-12.569a4.032,4.032,0,0,1,6.372,4.941L134.332,66.2A4.022,4.022,0,0,1,131.143,67.764Z" transform="translate(-51.03 -39.933)"/><path class="cls-9" d="M88.291,78.869A4.024,4.024,0,0,1,85.1,77.308L75.355,64.739A4.031,4.031,0,1,1,81.726,59.8l9.747,12.569a4.032,4.032,0,0,1-3.182,6.5Z" transform="translate(-51.03 -39.933)"/><path class="cls-10" d="M74.1,60.565A4.024,4.024,0,0,1,70.907,59L61.16,46.435a4.031,4.031,0,0,1,6.371-4.941l9.747,12.569a4.032,4.032,0,0,1-3.182,6.5Z" transform="translate(-51.03 -39.933)"/><path class="cls-11" d="M79.007,86.068a4.024,4.024,0,0,1-3.189-1.561L66.071,71.938A4.031,4.031,0,1,1,72.442,67l9.747,12.569a4.032,4.032,0,0,1-3.182,6.5Z" transform="translate(-51.03 -39.933)"/><path class="cls-12" d="M64.812,67.764A4.024,4.024,0,0,1,61.623,66.2L51.876,53.634a4.031,4.031,0,0,1,6.371-4.941l9.747,12.569a4.032,4.032,0,0,1-3.182,6.5Z" transform="translate(-51.03 -39.933)"/><path class="cls-13" d="M104.187,126.09a4.031,4.031,0,0,1-4.031-4.031V106.153a4.031,4.031,0,0,1,8.062,0v15.906A4.031,4.031,0,0,1,104.187,126.09Z" transform="translate(-51.03 -39.933)"/><path class="cls-14" d="M104.187,149.252a4.031,4.031,0,0,1-4.031-4.031V129.315a4.031,4.031,0,1,1,8.062,0v15.906A4.031,4.031,0,0,1,104.187,149.252Z" transform="translate(-51.03 -39.933)"/><path class="cls-15" d="M115.936,157.316a4.031,4.031,0,0,1-4.031-4.031V129.316a4.031,4.031,0,1,1,8.062,0v23.969A4.031,4.031,0,0,1,115.936,157.316Z" transform="translate(-51.03 -39.933)"/><path class="cls-16" d="M128.377,157.316a4.031,4.031,0,0,1-4.031-4.031V129.316a4.031,4.031,0,1,1,8.062,0v23.969A4.031,4.031,0,0,1,128.377,157.316Z" transform="translate(-51.03 -39.933)"/><path class="cls-17" d="M67.556,157.316a4.031,4.031,0,0,1-4.031-4.031V129.316a4.031,4.031,0,1,1,8.062,0v23.969A4.031,4.031,0,0,1,67.556,157.316Z" transform="translate(-51.03 -39.933)"/><path class="cls-18" d="M80,157.316a4.031,4.031,0,0,1-4.031-4.031V129.316a4.031,4.031,0,1,1,8.062,0v23.969A4.031,4.031,0,0,1,80,157.316Z" transform="translate(-51.03 -39.933)"/></g></svg>