<svg id="Layer_1" data-name="Layer 1" xmlns="http://www.w3.org/2000/svg" xmlns:xlink="http://www.w3.org/1999/xlink" viewBox="0 0 73.992 22.95"><defs><style>.cls-1{fill:url(#linear-gradient);}.cls-2{fill:#d93660;}.cls-3{font-size:12px;fill:#fff;font-family:Arial-BoldMT, Arial;font-weight:700;}</style><linearGradient id="linear-gradient" x1="37.323" y1="21.347" x2="37.323" y2="1.347" gradientUnits="userSpaceOnUse"><stop offset="0" stop-color="#a30000"/><stop offset="1" stop-color="#d93660"/></linearGradient></defs><title>THROMBIN</title><g id="THROMBIN"><rect class="cls-1" x="1.323" y="1.347" width="72" height="20" rx="10" ry="10"/><path class="cls-2" d="M126.483,110.485c-6.949-.009-13.9.43-20.847.837-6.949.458-13.9.546-20.847.613-3.483,0-6.931.025-10.442-.043a11.548,11.548,0,0,1-9.777-5.935,11.05,11.05,0,0,1,.26-11.248,10.932,10.932,0,0,1,9.653-5.2c6.949.261,13.9.449,20.847.335,3.474-.049,6.949-.194,10.423-.349l10.423-.413c3.481-.083,6.934-.137,10.439-.064a10.733,10.733,0,0,1-.133,21.463Zm0-.3a9.722,9.722,0,0,0,4.871-1.371,9.332,9.332,0,0,0,3.423-3.65,9.152,9.152,0,0,0,1.046-4.774,9.244,9.244,0,0,0-9.238-8.73c-3.443.049-6.94.011-10.408-.076l-10.423-.413c-3.474-.155-6.949-.3-10.423-.349-6.949-.114-13.9.074-20.847.335a9.18,9.18,0,0,0-7.6,4.757,8.719,8.719,0,0,0-1.075,4.371,8.889,8.889,0,0,0,1.212,4.275,8.567,8.567,0,0,0,7.362,4.207c3.438-.044,6.939-.032,10.405-.031,6.949.066,13.9.155,20.847.613C112.585,109.755,119.534,110.194,126.483,110.185Z" transform="translate(-63.16 -88.988)"/><text class="cls-3" transform="translate(5.399 14.66)">THROMBIN</text></g></svg>