<svg id="Layer_1" data-name="Layer 1" xmlns="http://www.w3.org/2000/svg" xmlns:xlink="http://www.w3.org/1999/xlink" viewBox="0 0 63.183 22.939"><defs><style>.cls-1{fill:url(#linear-gradient);}.cls-2{fill:url(#linear-gradient-2);}.cls-3{font-size:12px;fill:#fff;font-family:Arial-BoldMT, Arial;font-weight:700;}</style><linearGradient id="linear-gradient" x1="31.872" y1="21.366" x2="31.872" y2="1.432" gradientUnits="userSpaceOnUse"><stop offset="0" stop-color="#430024"/><stop offset="1" stop-color="#0e98a2"/></linearGradient><linearGradient id="linear-gradient-2" x1="99.467" y1="111.966" x2="99.467" y2="88.966" gradientUnits="userSpaceOnUse"><stop offset="0" stop-color="#a2bd7b"/><stop offset="1" stop-color="#b78520"/></linearGradient></defs><title>POLRMT</title><g id="POLRMT"><rect class="cls-1" x="1.372" y="1.338" width="61" height="20" rx="10" ry="10"/><path class="cls-2" d="M120.247,110.616c-6.032-.009-12.065.43-18.1.837-6.032.458-12.065.546-18.1.613H79.529c-.347.009-.849-.032-1.265-.051-.436-.029-.867-.12-1.3-.183a11.47,11.47,0,0,1-2.479-.839,11.842,11.842,0,0,1-4.073-3.183,11.528,11.528,0,0,1-2.242-4.626,11.086,11.086,0,0,1,2.278-9.621,10.958,10.958,0,0,1,8.8-3.918c6.032.282,12.065.437,18.1.335,6.032-.084,12.065-.574,18.1-.762,1.508-.033,3.016-.094,4.524-.087.352-.012.833.027,1.244.042.427.025.848.113,1.272.17a11.077,11.077,0,0,1,2.429.813,10.744,10.744,0,0,1,5.965,7.7,10.613,10.613,0,0,1-.215,4.851,11.1,11.1,0,0,1-2.257,4.153A10.914,10.914,0,0,1,120.247,110.616Zm0-.3a9.271,9.271,0,0,0,7.551-3.929,9.108,9.108,0,0,0,1.222-8.07,9.557,9.557,0,0,0-2.006-3.471,9.825,9.825,0,0,0-3.2-2.27,9.183,9.183,0,0,0-3.843-.774c-1.508.006-3.016-.055-4.524-.087-6.032-.188-12.065-.678-18.1-.762-6.032-.1-12.065.053-18.1.335a9.15,9.15,0,0,0-6.907,3.764,8.765,8.765,0,0,0-1.417,7.453,8.613,8.613,0,0,0,4.861,5.635,8.8,8.8,0,0,0,3.745.727h4.524c6.032.066,12.065.155,18.1.613C108.182,109.886,114.215,110.325,120.247,110.316Z" transform="translate(-67.875 -89.128)"/><text class="cls-3" transform="translate(6.542 14.227)">POLRMT</text></g></svg>