<svg id="Layer_1" data-name="Layer 1" xmlns="http://www.w3.org/2000/svg" viewBox="0 0 62.95 175.545"><defs><style>.cls-1{fill:#88d0d8;}.cls-2{fill:#00283b;}</style></defs><title>MRN</title><g id="MRN"><rect class="cls-1" x="1.608" y="0.841" width="30" height="20" rx="10" ry="10"/><path class="cls-2" d="M90,33.3a91.176,91.176,0,0,0-10.386.828,9.87,9.87,0,0,1-5.62-1.248,10.91,10.91,0,0,1-4.174-4.165,11.155,11.155,0,0,1,.369-11.385,10.587,10.587,0,0,1,9.812-5,101.931,101.931,0,0,0,10.368.355,11.616,11.616,0,0,1,5.314,1.26,10.475,10.475,0,0,1,4.189,3.81,10.046,10.046,0,0,1,1.45,5.594,9.779,9.779,0,0,1-1.906,5.386,11.029,11.029,0,0,1-4.278,3.434A12.793,12.793,0,0,1,90,33.3Zm0-.3a8.273,8.273,0,0,0,4.755-1.5,8.842,8.842,0,0,0,3.016-3.742,10.785,10.785,0,0,0-.091-8.8,9.748,9.748,0,0,0-2.869-3.6,8.632,8.632,0,0,0-2.091-1.183,8.73,8.73,0,0,0-2.386-.518A87.934,87.934,0,0,0,80,13.972a9.452,9.452,0,0,0-7.374,4.807,8.918,8.918,0,0,0,0,8.4,9.783,9.783,0,0,0,7.054,4.96A77.631,77.631,0,0,0,90,33Z" transform="translate(-68.392 -12.309)"/><rect class="cls-1" x="1.608" y="154.54" width="30" height="20" rx="10" ry="10"/><path class="cls-2" d="M90,187a91.175,91.175,0,0,0-10.386.828,9.87,9.87,0,0,1-5.62-1.248,10.91,10.91,0,0,1-4.174-4.165,11.155,11.155,0,0,1,.369-11.385,10.587,10.587,0,0,1,9.812-5,101.93,101.93,0,0,0,10.368.355,11.616,11.616,0,0,1,5.314,1.26,10.475,10.475,0,0,1,4.189,3.81,10.046,10.046,0,0,1,1.45,5.594,9.779,9.779,0,0,1-1.906,5.386,11.029,11.029,0,0,1-4.278,3.434A12.793,12.793,0,0,1,90,187Zm0-.3a8.273,8.273,0,0,0,4.755-1.5,8.842,8.842,0,0,0,3.016-3.742,10.785,10.785,0,0,0-.091-8.8,9.748,9.748,0,0,0-2.869-3.6,8.632,8.632,0,0,0-2.091-1.183,8.73,8.73,0,0,0-2.386-.518,87.93,87.93,0,0,0-10.335.32,9.452,9.452,0,0,0-7.374,4.807,8.918,8.918,0,0,0,0,8.4,9.783,9.783,0,0,0,7.054,4.96A77.632,77.632,0,0,0,90,186.7Z" transform="translate(-68.392 -12.309)"/><rect class="cls-1" x="1.608" y="20.841" width="30" height="133.699" rx="13.99" ry="13.99"/><path class="cls-2" d="M86.01,167a23.972,23.972,0,0,1-4.758-.239,14.874,14.874,0,0,1-4.481-1.675,14.5,14.5,0,0,1-6.254-7.161,13.949,13.949,0,0,1-1.056-4.765c-.075-1.6-.1-3.166-.152-4.751l-.3-9.48c-.458-12.64-.546-25.28-.613-37.92-.041-12.64.085-25.28.189-37.92l.088-9.48.067-4.74a22.669,22.669,0,0,1,.421-4.97A14.943,14.943,0,0,1,83.99,32.329c.8.023,1.561.011,2.389.062.416.032.832.046,1.245.1l1.231.21a14.949,14.949,0,0,1,4.59,1.852,14.732,14.732,0,0,1,6.125,7.493,14.364,14.364,0,0,1,.888,4.8c.024,1.6,0,3.165,0,4.749l.03,9.48c.049,6.32.194,12.64.349,18.96l.413,18.96c.182,12.64.109,25.28-.307,37.92l-.279,9.48-.135,4.74a21.893,21.893,0,0,1-.471,4.8,14.717,14.717,0,0,1-5.148,7.982A14.421,14.421,0,0,1,86.01,167Zm0-.3a13.86,13.86,0,0,0,8.64-3.107,13.525,13.525,0,0,0,4.64-7.83,21.021,21.021,0,0,0,.183-4.633l-.135-4.74-.279-9.48c-.416-12.64-.489-25.28-.307-37.92l.413-18.96c.155-6.32.3-12.64.349-18.96l.03-9.48c-.012-1.576,0-3.17-.031-4.73a12.6,12.6,0,0,0-.9-4.46,13.689,13.689,0,0,0-2.325-3.894,13.135,13.135,0,0,0-3.5-2.847,13.572,13.572,0,0,0-4.215-1.524l-1.112-.148c-.372-.031-.747-.027-1.12-.044-.751-.02-1.569.02-2.35.027a13.058,13.058,0,0,0-12.5,10.435,20.345,20.345,0,0,0-.233,4.464l.067,4.74.088,9.48c.1,12.64.23,25.28.189,37.92-.066,12.64-.155,25.28-.613,37.92l-.3,9.48c-.039,1.575-.106,3.172-.123,4.728a12.979,12.979,0,0,0,.728,4.494A13.3,13.3,0,0,0,77,164.7a13.673,13.673,0,0,0,4.324,1.7A23.672,23.672,0,0,0,86.01,166.7Z" transform="translate(-68.392 -12.309)"/><rect class="cls-1" x="31.608" y="0.841" width="30" height="20" rx="10" ry="10"/><path class="cls-2" d="M120,33.3a91.176,91.176,0,0,0-10.386.828,9.87,9.87,0,0,1-5.62-1.248,10.91,10.91,0,0,1-4.174-4.165,11.155,11.155,0,0,1,.369-11.385,10.587,10.587,0,0,1,9.812-5,101.931,101.931,0,0,0,10.368.355,11.616,11.616,0,0,1,5.314,1.26,10.475,10.475,0,0,1,4.189,3.81,10.046,10.046,0,0,1,1.45,5.594,9.779,9.779,0,0,1-1.906,5.386,11.029,11.029,0,0,1-4.278,3.434A12.793,12.793,0,0,1,120,33.3Zm0-.3a8.273,8.273,0,0,0,4.755-1.5,8.842,8.842,0,0,0,3.016-3.742,10.785,10.785,0,0,0-.091-8.8,9.748,9.748,0,0,0-2.869-3.6,8.632,8.632,0,0,0-2.091-1.183,8.73,8.73,0,0,0-2.386-.518,87.934,87.934,0,0,0-10.335.32,9.452,9.452,0,0,0-7.374,4.807,8.918,8.918,0,0,0,0,8.4,9.783,9.783,0,0,0,7.054,4.96A77.631,77.631,0,0,0,120,33Z" transform="translate(-68.392 -12.309)"/><rect class="cls-1" x="31.608" y="154.54" width="30" height="20" rx="10" ry="10"/><path class="cls-2" d="M120,187a91.175,91.175,0,0,0-10.386.828,9.87,9.87,0,0,1-5.62-1.248,10.91,10.91,0,0,1-4.174-4.165,11.155,11.155,0,0,1,.369-11.385,10.587,10.587,0,0,1,9.812-5,101.93,101.93,0,0,0,10.368.355,11.616,11.616,0,0,1,5.314,1.26,10.475,10.475,0,0,1,4.189,3.81,10.046,10.046,0,0,1,1.45,5.594,9.779,9.779,0,0,1-1.906,5.386,11.029,11.029,0,0,1-4.278,3.434A12.793,12.793,0,0,1,120,187Zm0-.3a8.273,8.273,0,0,0,4.755-1.5,8.842,8.842,0,0,0,3.016-3.742,10.785,10.785,0,0,0-.091-8.8,9.748,9.748,0,0,0-2.869-3.6,8.632,8.632,0,0,0-2.091-1.183,8.73,8.73,0,0,0-2.386-.518,87.93,87.93,0,0,0-10.335.32,9.452,9.452,0,0,0-7.374,4.807,8.918,8.918,0,0,0,0,8.4,9.783,9.783,0,0,0,7.054,4.96A77.632,77.632,0,0,0,120,186.7Z" transform="translate(-68.392 -12.309)"/><rect class="cls-1" x="31.608" y="20.841" width="30" height="133.699" rx="13.99" ry="13.99"/><path class="cls-2" d="M116.01,167a23.972,23.972,0,0,1-4.758-.239,14.874,14.874,0,0,1-4.481-1.675,14.5,14.5,0,0,1-6.254-7.161,13.949,13.949,0,0,1-1.056-4.765c-.075-1.6-.1-3.166-.152-4.751l-.3-9.48c-.458-12.64-.546-25.28-.613-37.92-.041-12.64.085-25.28.189-37.92l.088-9.48.067-4.74a22.669,22.669,0,0,1,.421-4.97A14.943,14.943,0,0,1,113.99,32.329c.8.023,1.561.011,2.389.062.416.032.832.046,1.245.1l1.231.21a14.949,14.949,0,0,1,4.59,1.852,14.732,14.732,0,0,1,6.125,7.493,14.363,14.363,0,0,1,.888,4.8c.024,1.6,0,3.165,0,4.749l.03,9.48c.049,6.32.194,12.64.349,18.96l.413,18.96c.182,12.64.109,25.28-.307,37.92l-.279,9.48-.135,4.74a21.893,21.893,0,0,1-.471,4.8,14.717,14.717,0,0,1-5.148,7.982A14.421,14.421,0,0,1,116.01,167Zm0-.3a13.86,13.86,0,0,0,8.64-3.107,13.525,13.525,0,0,0,4.64-7.83,21.022,21.022,0,0,0,.183-4.633l-.135-4.74-.279-9.48c-.416-12.64-.489-25.28-.307-37.92l.413-18.96c.155-6.32.3-12.64.349-18.96l.03-9.48c-.012-1.576,0-3.17-.031-4.73a12.6,12.6,0,0,0-.9-4.46,13.689,13.689,0,0,0-2.325-3.894,13.135,13.135,0,0,0-3.5-2.847,13.572,13.572,0,0,0-4.215-1.524l-1.112-.148c-.372-.031-.747-.027-1.12-.044-.751-.02-1.569.02-2.35.027a13.058,13.058,0,0,0-12.5,10.435,20.345,20.345,0,0,0-.233,4.464l.067,4.74.088,9.48c.1,12.64.23,25.28.189,37.92-.066,12.64-.155,25.28-.613,37.92l-.3,9.48c-.039,1.575-.106,3.172-.123,4.728a12.979,12.979,0,0,0,.728,4.494A13.3,13.3,0,0,0,107,164.7a13.673,13.673,0,0,0,4.324,1.7A23.672,23.672,0,0,0,116.01,166.7Z" transform="translate(-68.392 -12.309)"/></g></svg>