<svg id="Layer_1" data-name="Layer 1" xmlns="http://www.w3.org/2000/svg" viewBox="0 0 106.622 22.949"><defs><style>.cls-1{fill:#73a628;}.cls-2{fill:#deb510;}.cls-3{font-size:12px;fill:#fff;font-family:Arial-BoldMT, Arial;font-weight:700;}</style></defs><title>PREPROINSULIN</title><g id="PREPROINSULIN"><rect class="cls-1" x="1.204" y="1.347" width="105" height="20" rx="10" ry="10"/><path class="cls-2" d="M139.865,113.491c-9.7-.009-19.4.43-29.1.837-9.7.458-19.4.547-29.1.613-4.849,0-9.7.019-14.548-.037l-7.274-.076-3.637-.038-.909-.01c-.288,0-.618-.01-.976-.035a10.585,10.585,0,0,1-2.052-.3,11.254,11.254,0,0,1-8.52-12.381A11.007,11.007,0,0,1,54.865,92.52c9.7.261,19.4.449,29.1.335,4.849-.049,9.7-.194,14.548-.349l14.548-.413c4.85-.085,9.7-.131,14.548-.071q3.637.022,7.274.128l3.637.108a16.118,16.118,0,0,1,3.831.437,10.7,10.7,0,0,1,7.827,11.832,10.464,10.464,0,0,1-3.536,6.414A10.312,10.312,0,0,1,139.865,113.491Zm0-.3a9.782,9.782,0,0,0,6.5-2.555,9.488,9.488,0,0,0,3.045-6.2,9.349,9.349,0,0,0-1.92-6.465,9.176,9.176,0,0,0-5.572-3.446,14.221,14.221,0,0,0-3.4-.106l-3.637.108q-3.637.108-7.274.128c-4.85.061-9.7.015-14.548-.071l-14.548-.413c-4.849-.155-9.7-.3-14.548-.349-9.7-.114-19.4.074-29.1.335a9.1,9.1,0,0,0-8.747,8.172,8.789,8.789,0,0,0,6.8,9.361,13.6,13.6,0,0,0,3.293.2l3.637-.038,7.274-.076c4.849-.056,9.7-.036,14.548-.037,9.7.066,19.4.155,29.1.613C120.467,112.761,130.166,113.2,139.865,113.191Z" transform="translate(-43.661 -91.994)"/><text class="cls-3" transform="translate(4.365 14.169)">PREPROINSULIN</text></g></svg>