<svg id="Layer_1" data-name="Layer 1" xmlns="http://www.w3.org/2000/svg" xmlns:xlink="http://www.w3.org/1999/xlink" viewBox="0 0 47.543 22.627"><defs><style>.cls-1{fill:url(#linear-gradient);}.cls-2{fill:#22134f;}.cls-3{font-size:12px;fill:#fff;font-family:Arial-BoldMT, Arial;font-weight:700;}</style><linearGradient id="linear-gradient" x1="23.955" y1="21.087" x2="23.955" y2="1.087" gradientUnits="userSpaceOnUse"><stop offset="0" stop-color="#3499c7"/><stop offset="0.196" stop-color="#3184b4"/><stop offset="0.598" stop-color="#2a4e84"/><stop offset="1" stop-color="#22134f"/></linearGradient></defs><title>ORC1</title><g id="ORC1"><rect class="cls-1" x="1.455" y="1.087" width="45" height="20" rx="10" ry="10"/><path class="cls-2" d="M112.5,110.15c-4.7-.009-9.4.43-14.1.837-2.349.205-4.7.388-7.048.457-1.175.057-2.349.074-3.524.093A12.373,12.373,0,0,1,83.856,111,11.343,11.343,0,0,1,76.24,98.185,10.883,10.883,0,0,1,87.5,89.179c4.7.282,9.4.437,14.1.335,2.349-.059,4.7-.178,7.048-.341l3.524-.235a11.309,11.309,0,0,1,3.863.393,10.619,10.619,0,0,1,6.134,4.8,10.288,10.288,0,0,1,1.137,7.612,10.83,10.83,0,0,1-4.082,6.151A11.422,11.422,0,0,1,112.5,110.15Zm0-.3a8.97,8.97,0,0,0,8.917-8.414,9.635,9.635,0,0,0-.275-3.123,10.116,10.116,0,0,0-1.245-2.8,9.544,9.544,0,0,0-4.653-3.815,10.138,10.138,0,0,0-3.074-.637l-3.524-.235c-2.349-.164-4.7-.282-7.048-.341-4.7-.1-9.4.053-14.1.335a9.2,9.2,0,0,0-8.461,7.816,8.715,8.715,0,0,0,5.828,9.33,9.139,9.139,0,0,0,2.963.5c1.175.019,2.349.036,3.524.093,2.349.069,4.7.252,7.048.457C103.1,109.42,107.8,109.859,112.5,109.85Z" transform="translate(-76.045 -88.913)"/><text class="cls-3" transform="translate(7.285 14.401)">ORC1</text></g></svg>