<svg id="Layer_1" data-name="Layer 1" xmlns="http://www.w3.org/2000/svg" xmlns:xlink="http://www.w3.org/1999/xlink" viewBox="0 0 71.025 22.947"><defs><style>.cls-1{fill:url(#linear-gradient);}.cls-2{fill:#a32702;}.cls-3{font-size:12px;fill:#fff;font-family:Arial-BoldMT, Arial;font-weight:700;}.cls-4{letter-spacing:-0.018em;}</style><linearGradient id="linear-gradient" x1="35.827" y1="21.348" x2="35.827" y2="1.348" gradientUnits="userSpaceOnUse"><stop offset="0" stop-color="#5f5e8f"/><stop offset="1" stop-color="#a32702"/></linearGradient></defs><title>GIP (54-93)</title><g id="GIP_54-93_" data-name="GIP (54-93)"><rect class="cls-1" x="1.327" y="1.348" width="69" height="20" rx="10" ry="10"/><path class="cls-2" d="M121.335,112.832c-6.7-.009-13.4.43-20.1.837-6.7.458-13.4.546-20.1.613H76.117l-2.512,0-1.256-.012c-.479-.036-.969-.036-1.446-.117a11.526,11.526,0,0,1-8.872-6.6A11.1,11.1,0,0,1,62.9,96.7a10.838,10.838,0,0,1,4.125-3.666,11.159,11.159,0,0,1,5.309-1.172c6.7.261,13.4.449,20.1.335,3.349-.049,6.7-.194,10.048-.349l10.049-.413c1.675-.033,3.349-.093,5.024-.087l2.512-.012,1.256.009c.47.036.949.036,1.416.115a10.736,10.736,0,0,1-1.4,21.373Zm0-.3a9.872,9.872,0,0,0,4.714-1.276,9.445,9.445,0,0,0,3.392-3.437,9.2,9.2,0,0,0,.073-8.99,9.38,9.38,0,0,0-7.1-4.752c-.36-.053-.724-.033-1.088-.056l-1.256.009-2.512-.012c-1.675.006-3.349-.055-5.024-.087l-10.049-.413c-3.349-.155-6.7-.3-10.048-.349-6.7-.114-13.4.074-20.1.335a9.309,9.309,0,0,0-4.317,1.32,9.523,9.523,0,0,0-3.11,3.154,8.777,8.777,0,0,0-.328,8.356,8.549,8.549,0,0,0,6.711,4.711c.35.051.7.031,1.058.055l1.256-.012,2.512,0h5.024c6.7.066,13.4.155,20.1.613C107.937,112.1,114.636,112.541,121.335,112.532Z" transform="translate(-61.008 -91.334)"/><text class="cls-3" transform="translate(4.59 14.236)">GI<tspan class="cls-4" x="12.668" y="0">P</tspan><tspan x="20.455" y="0" xml:space="preserve"> (54-93)</tspan></text></g></svg>