<svg id="R-ICO-013727" xmlns="http://www.w3.org/2000/svg" xmlns:xlink="http://www.w3.org/1999/xlink" viewBox="0 0 16.422 191.41"><defs><style>.cls-1{fill:url(#linear-gradient);}.cls-2{fill:url(#linear-gradient-2);}.cls-3{fill:url(#radial-gradient);}.cls-4{fill:url(#radial-gradient-2);}.cls-5{fill:url(#radial-gradient-3);}.cls-6{fill:url(#radial-gradient-4);}.cls-7{fill:url(#radial-gradient-5);}.cls-8{fill:url(#radial-gradient-6);}.cls-9{fill:url(#radial-gradient-7);}.cls-10{fill:url(#radial-gradient-8);}.cls-11{fill:url(#radial-gradient-9);}.cls-12{fill:url(#radial-gradient-10);}.cls-13{fill:url(#radial-gradient-11);}.cls-14{fill:url(#radial-gradient-12);}</style><linearGradient id="linear-gradient" x1="91.789" y1="100.007" x2="108.211" y2="100.007" gradientUnits="userSpaceOnUse"><stop offset="0.257" stop-color="#473607"/><stop offset="0.461" stop-color="#e8af14"/><stop offset="0.708" stop-color="#473607"/></linearGradient><linearGradient id="linear-gradient-2" x1="100" y1="195.705" x2="100" y2="4.309" gradientUnits="userSpaceOnUse"><stop offset="0.257" stop-color="#473607"/><stop offset="0.409" stop-color="#e8af14" stop-opacity="0"/><stop offset="0.483" stop-color="#473607"/><stop offset="0.537" stop-color="#e8af14" stop-opacity="0"/><stop offset="0.597" stop-color="#473607"/><stop offset="1" stop-color="#e8af14" stop-opacity="0"/></linearGradient><radialGradient id="radial-gradient" cx="96.88" cy="529.934" r="8.211" gradientTransform="translate(-91.789 -63.234) scale(1 0.3)" gradientUnits="userSpaceOnUse"><stop offset="0" stop-color="#e8af14"/><stop offset="1" stop-color="#473607"/></radialGradient><radialGradient id="radial-gradient-2" cx="96.88" cy="516.62" r="8.211" xlink:href="#radial-gradient"/><radialGradient id="radial-gradient-3" cx="96.88" cy="503.306" r="8.211" xlink:href="#radial-gradient"/><radialGradient id="radial-gradient-4" cx="79.074" cy="131.421" r="8.211" gradientTransform="translate(-42.329 -4.295) scale(0.615 1)" xlink:href="#radial-gradient"/><radialGradient id="radial-gradient-5" cx="79.074" cy="147.843" r="8.211" gradientTransform="translate(-42.329 -4.295) scale(0.615 1)" xlink:href="#radial-gradient"/><radialGradient id="radial-gradient-6" cx="79.074" cy="164.265" r="8.211" gradientTransform="translate(-42.329 -4.295) scale(0.615 1)" xlink:href="#radial-gradient"/><radialGradient id="radial-gradient-7" cx="79.074" cy="180.687" r="8.211" gradientTransform="translate(-42.329 -4.295) scale(0.615 1)" xlink:href="#radial-gradient"/><radialGradient id="radial-gradient-8" cx="5.091" cy="66.713" r="8.211" gradientTransform="matrix(1, 0, 0, 1, 0, 0)" xlink:href="#radial-gradient"/><radialGradient id="radial-gradient-9" cx="5.091" cy="51.33" r="8.211" gradientTransform="matrix(1, 0, 0, 1, 0, 0)" xlink:href="#radial-gradient"/><radialGradient id="radial-gradient-10" cx="5.419" cy="35.946" r="8.211" gradientTransform="matrix(1, 0, 0, 1, 0, 0)" xlink:href="#radial-gradient"/><radialGradient id="radial-gradient-11" cx="5.583" cy="20.643" r="8.211" gradientTransform="matrix(1, 0, 0, 1, 0, 0)" xlink:href="#radial-gradient"/><radialGradient id="radial-gradient-12" cx="97.372" cy="9.95" r="8.165" gradientTransform="matrix(1, 0, 0, 1, 0, 0)" xlink:href="#radial-gradient"/></defs><title>R-ICO-013727</title><g id="ROBO1"><path class="cls-1" d="M108.211,27.429a8.188,8.188,0,0,0-2.7-6.084,1.97,1.97,0,0,1-.047-2.9,8.307,8.307,0,0,0,2.745-6.126A8.079,8.079,0,0,0,100,4.309a8.184,8.184,0,0,0-8.211,8.012,8.188,8.188,0,0,0,2.7,6.087,2,2,0,0,1,0,2.935,8.208,8.208,0,0,0,0,12.173,2,2,0,0,1,0,2.935,8.208,8.208,0,0,0,0,12.173,2,2,0,0,1,0,2.935,8.208,8.208,0,0,0,0,12.173,2,2,0,0,1,0,2.935,8.207,8.207,0,0,0,1.253,13.105,1.99,1.99,0,0,1,.973,1.7v43.549a7,7,0,0,1-.661,3.095,12.4,12.4,0,0,0,0,10.231,7,7,0,0,1,.661,3.1h0a7,7,0,0,1-.661,3.095,12.4,12.4,0,0,0,0,10.231,7,7,0,0,1,.661,3.1h0a7,7,0,0,1-.661,3.095,12.4,12.4,0,0,0,0,10.231,7,7,0,0,1,.661,3.1h0a7,7,0,0,1-.661,3.095,12.4,12.4,0,0,0,0,10.231,7,7,0,0,1,.661,3.1v1.715a3.285,3.285,0,1,0,6.569,0V190.7a7,7,0,0,1,.661-3.095,12.412,12.412,0,0,0,0-10.23,7,7,0,0,1-.661-3.095v0a7,7,0,0,1,.661-3.095,12.412,12.412,0,0,0,0-10.23,7,7,0,0,1-.661-3.095v0a7,7,0,0,1,.661-3.1,12.412,12.412,0,0,0,0-10.23,7,7,0,0,1-.661-3.095v0a7,7,0,0,1,.661-3.095,12.412,12.412,0,0,0,0-10.23,7,7,0,0,1-.661-3.095V81.468a1.988,1.988,0,0,1,.972-1.7,8.207,8.207,0,0,0,1.253-13.105,2,2,0,0,1,0-2.935,8.208,8.208,0,0,0,0-12.173,2,2,0,0,1,0-2.935,8.208,8.208,0,0,0,0-12.173,2,2,0,0,1,0-2.935A8.188,8.188,0,0,0,108.211,27.429Z" transform="translate(-91.789 -4.295)"/><path class="cls-2" d="M108.211,27.429a8.188,8.188,0,0,0-2.7-6.084,1.97,1.97,0,0,1-.047-2.9,8.307,8.307,0,0,0,2.745-6.126A8.079,8.079,0,0,0,100,4.309a8.184,8.184,0,0,0-8.211,8.012,8.188,8.188,0,0,0,2.7,6.087,2,2,0,0,1,0,2.935,8.208,8.208,0,0,0,0,12.173,2,2,0,0,1,0,2.935,8.208,8.208,0,0,0,0,12.173,2,2,0,0,1,0,2.935,8.208,8.208,0,0,0,0,12.173,2,2,0,0,1,0,2.935,8.207,8.207,0,0,0,1.253,13.105,1.99,1.99,0,0,1,.973,1.7v43.549a7,7,0,0,1-.661,3.095,12.4,12.4,0,0,0,0,10.231,7,7,0,0,1,.661,3.1h0a7,7,0,0,1-.661,3.095,12.4,12.4,0,0,0,0,10.231,7,7,0,0,1,.661,3.1h0a7,7,0,0,1-.661,3.095,12.4,12.4,0,0,0,0,10.231,7,7,0,0,1,.661,3.1h0a7,7,0,0,1-.661,3.095,12.4,12.4,0,0,0,0,10.231,7,7,0,0,1,.661,3.1v1.715a3.285,3.285,0,1,0,6.569,0V190.7a7,7,0,0,1,.661-3.095,12.412,12.412,0,0,0,0-10.23,7,7,0,0,1-.661-3.095v0a7,7,0,0,1,.661-3.095,12.412,12.412,0,0,0,0-10.23,7,7,0,0,1-.661-3.095v0a7,7,0,0,1,.661-3.1,12.412,12.412,0,0,0,0-10.23,7,7,0,0,1-.661-3.095v0a7,7,0,0,1,.661-3.095,12.412,12.412,0,0,0,0-10.23,7,7,0,0,1-.661-3.095V81.468a1.988,1.988,0,0,1,.972-1.7,8.207,8.207,0,0,0,1.253-13.105,2,2,0,0,1,0-2.935,8.208,8.208,0,0,0,0-12.173,2,2,0,0,1,0-2.935,8.208,8.208,0,0,0,0-12.173,2,2,0,0,1,0-2.935A8.188,8.188,0,0,0,108.211,27.429Z" transform="translate(-91.789 -4.295)"/><ellipse class="cls-3" cx="8.211" cy="96.52" rx="8.211" ry="2.467"/><ellipse class="cls-4" cx="8.211" cy="92.52" rx="8.211" ry="2.467"/><ellipse class="cls-5" cx="8.211" cy="88.52" rx="8.211" ry="2.467"/><ellipse class="cls-6" cx="8.211" cy="128.933" rx="5.049" ry="8.211"/><ellipse class="cls-7" cx="8.211" cy="145.355" rx="5.049" ry="8.211"/><ellipse class="cls-8" cx="8.211" cy="161.777" rx="5.049" ry="8.211"/><ellipse class="cls-9" cx="8.211" cy="178.199" rx="5.049" ry="8.211"/><circle class="cls-10" cx="8.211" cy="68.52" r="8.211"/><circle class="cls-11" cx="8.211" cy="53.3" r="8.211"/><circle class="cls-12" cx="8.211" cy="38.245" r="8.211"/><circle class="cls-13" cx="8.211" cy="23.107" r="8.211"/><path class="cls-14" d="M108.211,12.321a8.213,8.213,0,0,0-16.422,0,8.211,8.211,0,1,0,16.422,0Z" transform="translate(-91.789 -4.295)"/></g></svg>