<svg id="Layer_1" data-name="Layer 1" xmlns="http://www.w3.org/2000/svg" xmlns:xlink="http://www.w3.org/1999/xlink" viewBox="0 0 62.252 99.072"><defs><style>.cls-1{fill:none;stroke-linecap:round;stroke-linejoin:round;stroke-width:2px;stroke:url(#linear-gradient);}</style><linearGradient id="linear-gradient" x1="99.472" y1="69.402" x2="99.472" y2="131.654" gradientTransform="matrix(0, 1, 1, 0, -0.528, 0.528)" gradientUnits="userSpaceOnUse"><stop offset="0.172" stop-color="#784f96"/><stop offset="1" stop-color="#ff8ab2"/></linearGradient></defs><title>AVPR2</title><path id="AVPR2" class="cls-1" d="M87.721,51.468c-17.462-.192-17.654,7.1-17.846,35.5,0,10.554-.192,28.4,4.222,28.4S78.7,97.906,78.7,86.968s.192-28.4,4.605-28.4c4.605,0,4.03,17.654,4.222,28.592,0,10.554-.192,28.4,4.222,28.4s4.605-17.654,4.605-28.4.192-28.4,4.605-28.4,4.03,17.462,4.222,28.4c0,10.554-.192,28.4,4.222,28.4s4.414-17.654,4.605-28.4c0-10.746.192-28.4,4.605-28.4s4.414,17.654,4.222,28.4-.192,28.4-.192,28.4c0,4.317-3.17,8.2,2.878,8.2s6.222,8.258,0,8.258-5.947,8.258,0,8.258,6.048,8.258.63,8.258" transform="translate(-68.874 -50.464)"/></svg>