<svg id="Layer_1" data-name="Layer 1" xmlns="http://www.w3.org/2000/svg" xmlns:xlink="http://www.w3.org/1999/xlink" viewBox="0 0 31.426 35"><defs><style>.cls-1{fill:url(#linear-gradient);}.cls-2{fill:url(#linear-gradient-2);}</style><linearGradient id="linear-gradient" x1="46.817" y1="150.043" x2="46.817" y2="115.043" gradientTransform="translate(51.308 -33.86)" gradientUnits="userSpaceOnUse"><stop offset="0.073" stop-color="#58264f"/><stop offset="0.133" stop-color="#752c68"/><stop offset="0.192" stop-color="#8b307a"/><stop offset="0.25" stop-color="#983285"/><stop offset="0.304" stop-color="#9c3389"/><stop offset="0.841" stop-color="#9a3287"/><stop offset="0.874" stop-color="#953083"/><stop offset="0.913" stop-color="#872876"/><stop offset="0.954" stop-color="#701c61"/><stop offset="0.996" stop-color="#500c44"/><stop offset="1" stop-color="#4d0a41"/></linearGradient><linearGradient id="linear-gradient-2" x1="31.235" y1="132.543" x2="62.574" y2="132.543" gradientTransform="translate(51.308 -33.86)" gradientUnits="userSpaceOnUse"><stop offset="0" stop-color="#4d0a41"/><stop offset="0.182" stop-color="#4d0a41" stop-opacity="0"/><stop offset="0.8" stop-color="#4d0a41" stop-opacity="0"/><stop offset="0.841" stop-color="#4d0a41" stop-opacity="0.118"/><stop offset="0.908" stop-color="#4d0a41" stop-opacity="0.439"/><stop offset="0.994" stop-color="#4d0a41" stop-opacity="0.958"/><stop offset="1" stop-color="#4d0a41"/></linearGradient></defs><title>LGI-1</title><g id="LGI-1"><path class="cls-1" d="M97.016,97.8,94.492,86.256a6.124,6.124,0,0,0-5.785-5.073h-.3c-3.289,0-5.954,2.977-5.954,6.65v21.7c0,3.673,2.666,6.65,5.954,6.65h19.43c3.289,0,5.954-2.977,5.954-6.65v-.006c0-3.673-2.666-6.65-5.954-6.65H102.8A6.124,6.124,0,0,1,97.016,97.8Z" transform="translate(-82.455 -81.183)"/><path class="cls-2" d="M97.1,97.8,94.579,86.256a6.124,6.124,0,0,0-5.785-5.073h-.3c-3.289,0-5.954,2.977-5.954,6.65v21.7c0,3.673,2.666,6.65,5.954,6.65h19.43c3.289,0,5.954-2.977,5.954-6.65v-.006c0-3.673-2.666-6.65-5.954-6.65h-5.039A6.124,6.124,0,0,1,97.1,97.8Z" transform="translate(-82.455 -81.183)"/></g></svg>