<svg id="Layer_1" data-name="Layer 1" xmlns="http://www.w3.org/2000/svg" xmlns:xlink="http://www.w3.org/1999/xlink" viewBox="0 0 40.858 76.929"><defs><style>.cls-1{fill:url(#linear-gradient);}.cls-2{fill:url(#linear-gradient-2);}</style><linearGradient id="linear-gradient" x1="814.555" y1="-136.567" x2="814.555" y2="-213.496" gradientTransform="matrix(1, 0, 0, -1, -725.436, -74.663)" gradientUnits="userSpaceOnUse"><stop offset="0.002" stop-color="#7000bf"/><stop offset="0.206" stop-color="#95219f"/><stop offset="0.427" stop-color="#b73e84"/><stop offset="0.639" stop-color="#cf536f"/><stop offset="0.835" stop-color="#dd6063"/><stop offset="1" stop-color="#e2645f"/></linearGradient><linearGradient id="linear-gradient-2" x1="836.32" y1="-136.567" x2="836.32" y2="-213.495" xlink:href="#linear-gradient"/></defs><title>R-ICO-013967</title><g id="R-ICO-013967"><path id="Beta" class="cls-1" d="M81.149,61.536h0a1.577,1.577,0,0,0-1.578,1.578v73.767a1.578,1.578,0,0,0,1.578,1.578l15.938,0a1.578,1.578,0,0,0,1.579-1.578V77.273a1.583,1.583,0,0,0-1.376-1.562c-7.4-1.036-13.273-6.241-14.59-12.878A1.589,1.589,0,0,0,81.149,61.536Z" transform="translate(-79.571 -61.536)"/><path id="Alpha" class="cls-2" d="M101.337,77.272v59.613a1.578,1.578,0,0,0,1.579,1.578l15.935,0a1.578,1.578,0,0,0,1.578-1.578V63.114a1.577,1.577,0,0,0-1.578-1.578h0a1.589,1.589,0,0,0-1.551,1.3c-1.317,6.636-7.189,11.841-14.587,12.877A1.583,1.583,0,0,0,101.337,77.272Z" transform="translate(-79.571 -61.536)"/></g></svg>