<svg id="Layer_1" data-name="Layer 1" xmlns="http://www.w3.org/2000/svg" xmlns:xlink="http://www.w3.org/1999/xlink" viewBox="0 0 47.543 22.627"><defs><style>.cls-1{fill:url(#linear-gradient);}.cls-2{fill:#c98500;}.cls-3{font-size:12px;fill:#fff;font-family:Arial-BoldMT, Arial;font-weight:700;}</style><linearGradient id="linear-gradient" x1="23.955" y1="1.087" x2="23.955" y2="21.087" gradientUnits="userSpaceOnUse"><stop offset="0" stop-color="#c98500"/><stop offset="0.443" stop-color="#cc782b"/><stop offset="1" stop-color="#d06666"/></linearGradient></defs><title>R-ICO-013817</title><g id="R-ICO-013817"><rect class="cls-1" x="1.455" y="1.087" width="45" height="20" rx="10"/><path class="cls-2" d="M112.5,110.15c-4.7-.009-9.4.43-14.1.837-2.349.2-4.7.388-7.048.457-1.175.057-2.35.074-3.525.093A12.365,12.365,0,0,1,83.856,111,11.344,11.344,0,0,1,76.24,98.185,10.884,10.884,0,0,1,87.5,89.179c4.7.281,9.4.436,14.1.335,2.349-.059,4.7-.178,7.048-.342l3.525-.234a11.287,11.287,0,0,1,3.863.393,10.619,10.619,0,0,1,6.133,4.8,10.286,10.286,0,0,1,1.138,7.612,10.835,10.835,0,0,1-4.082,6.151A11.42,11.42,0,0,1,112.5,110.15Zm0-.3a8.969,8.969,0,0,0,8.917-8.414,9.613,9.613,0,0,0-.275-3.122,10.11,10.11,0,0,0-1.245-2.8,9.542,9.542,0,0,0-4.654-3.815,10.136,10.136,0,0,0-3.073-.638l-3.525-.234c-2.349-.164-4.7-.283-7.048-.342-4.7-.1-9.4.054-14.1.335a9.2,9.2,0,0,0-8.461,7.816,8.716,8.716,0,0,0,5.829,9.33,9.149,9.149,0,0,0,2.962.5c1.175.019,2.35.036,3.525.093,2.349.069,4.7.252,7.048.457C103.1,109.42,107.8,109.859,112.5,109.85Z" transform="translate(-76.045 -88.913)"/><text id="EIF2S3" class="cls-3" transform="translate(3.944 14.4)">EIF2S3</text></g></svg>