<svg id="Layer_1" data-name="Layer 1" xmlns="http://www.w3.org/2000/svg" xmlns:xlink="http://www.w3.org/1999/xlink" viewBox="0 0 123.323 96.761"><defs><style>.cls-1{fill:url(#radial-gradient);}.cls-2{fill:#9b6e46;}.cls-3{fill:url(#radial-gradient-2);}.cls-4{fill:url(#radial-gradient-3);}.cls-5{fill:url(#radial-gradient-4);}.cls-6{fill:url(#radial-gradient-5);}.cls-7{fill:url(#radial-gradient-6);}.cls-8{fill:url(#radial-gradient-7);}.cls-9{fill:url(#radial-gradient-8);}.cls-10{fill:url(#radial-gradient-9);}.cls-11{fill:url(#radial-gradient-10);}.cls-12{fill:url(#radial-gradient-11);}.cls-13{fill:url(#radial-gradient-12);}.cls-14{fill:url(#radial-gradient-13);}.cls-15{fill:url(#radial-gradient-14);}.cls-16{fill:url(#radial-gradient-15);}.cls-17{fill:url(#radial-gradient-16);}.cls-18{fill:url(#radial-gradient-17);}.cls-19{fill:url(#radial-gradient-18);}.cls-20{fill:url(#radial-gradient-19);}.cls-21{fill:url(#radial-gradient-20);}.cls-22{fill:url(#radial-gradient-21);}.cls-23{fill:#48a888;}.cls-24{fill:url(#radial-gradient-22);}.cls-25{fill:url(#radial-gradient-23);}.cls-26{fill:url(#radial-gradient-24);}.cls-27{fill:url(#radial-gradient-25);}.cls-28{fill:url(#radial-gradient-26);}.cls-29{fill:url(#radial-gradient-27);}.cls-30{fill:url(#radial-gradient-28);}.cls-31{fill:url(#radial-gradient-29);}.cls-32{fill:url(#radial-gradient-30);}.cls-33{fill:url(#radial-gradient-31);}.cls-34{fill:url(#radial-gradient-32);}.cls-35{fill:url(#radial-gradient-33);}.cls-36{fill:url(#radial-gradient-34);}</style><radialGradient id="radial-gradient" cx="84.149" cy="123.983" r="50.896" gradientTransform="matrix(1, 0, 0, -1, 0, 202)" gradientUnits="userSpaceOnUse"><stop offset="0" stop-color="#fff1cc"/><stop offset="0.107" stop-color="#fae5b9"/><stop offset="0.266" stop-color="#f5d8a5"/><stop offset="0.446" stop-color="#f1ce96"/><stop offset="0.661" stop-color="#efc98e"/><stop offset="1" stop-color="#eec78b"/></radialGradient><radialGradient id="radial-gradient-2" cx="103.853" cy="149.415" r="6.58" gradientTransform="matrix(1, 0, 0, -1, -38.783, 153.901)" xlink:href="#radial-gradient"/><radialGradient id="radial-gradient-3" cx="151.453" cy="106.211" r="6.58" gradientTransform="matrix(1, 0, 0, -1, -38.783, 153.901)" xlink:href="#radial-gradient"/><radialGradient id="radial-gradient-4" cx="44.333" cy="104.833" r="6.581" xlink:href="#radial-gradient"/><radialGradient id="radial-gradient-5" cx="96.964" cy="65.114" r="6.58" xlink:href="#radial-gradient"/><radialGradient id="radial-gradient-6" cx="129.351" cy="147.073" r="5.063" gradientTransform="matrix(1, 0, 0, -1, -38.783, 153.901)" xlink:href="#radial-gradient"/><radialGradient id="radial-gradient-7" cx="69.632" cy="141.61" r="5.063" gradientTransform="matrix(1, 0, 0, -1, -38.783, 153.901)" xlink:href="#radial-gradient"/><radialGradient id="radial-gradient-8" cx="136.334" cy="81.638" r="5.064" xlink:href="#radial-gradient"/><radialGradient id="radial-gradient-9" cx="45.873" cy="84.797" r="5.064" xlink:href="#radial-gradient"/><radialGradient id="radial-gradient-10" cx="52.248" cy="75.354" r="5.063" gradientTransform="matrix(1, 0, 0, -1, -38.783, 153.901)" xlink:href="#radial-gradient"/><radialGradient id="radial-gradient-11" cx="149.05" cy="133.668" r="5.063" gradientTransform="matrix(1, 0, 0, -1, -38.783, 153.901)" xlink:href="#radial-gradient"/><radialGradient id="radial-gradient-12" cx="147.338" cy="87.586" r="5.063" gradientTransform="matrix(1, 0, 0, -1, -38.783, 153.901)" xlink:href="#radial-gradient"/><radialGradient id="radial-gradient-13" cx="51.262" cy="121.518" r="5.064" xlink:href="#radial-gradient"/><radialGradient id="radial-gradient-14" cx="140.291" cy="141.441" r="5.036" xlink:href="#radial-gradient"/><radialGradient id="radial-gradient-15" cx="151.296" cy="120.531" r="6.289" xlink:href="#radial-gradient"/><radialGradient id="radial-gradient-16" cx="64.644" cy="70.529" r="6.289" xlink:href="#radial-gradient"/><radialGradient id="radial-gradient-17" cx="73.351" cy="64.456" r="6.288" xlink:href="#radial-gradient"/><radialGradient id="radial-gradient-18" cx="80.476" cy="144.607" r="6.288" xlink:href="#radial-gradient"/><radialGradient id="radial-gradient-19" cx="120.147" cy="70.364" r="6.289" xlink:href="#radial-gradient"/><radialGradient id="radial-gradient-20" cx="57.643" cy="130.542" r="6.289" xlink:href="#radial-gradient"/><radialGradient id="radial-gradient-21" cx="75.074" cy="162.502" r="8.89" gradientTransform="matrix(1, 0, 0, -1.386, -38.783, 295.385)" gradientUnits="userSpaceOnUse"><stop offset="0" stop-color="#fff1cc"/><stop offset="0.087" stop-color="#dedfbf"/><stop offset="0.193" stop-color="#beccb2"/><stop offset="0.307" stop-color="#a3bda7"/><stop offset="0.432" stop-color="#8eb29f"/><stop offset="0.571" stop-color="#7fa999"/><stop offset="0.737" stop-color="#77a496"/><stop offset="1" stop-color="#74a395"/></radialGradient><radialGradient id="radial-gradient-22" cx="1440.39" cy="-71.535" r="6.58" gradientTransform="matrix(0.395, 0, 0, -0.547, -516.726, -8.238)" gradientUnits="userSpaceOnUse"><stop offset="0" stop-color="#fff1cc"/><stop offset="0.081" stop-color="#f9dcc0"/><stop offset="0.21" stop-color="#f1c2b0"/><stop offset="0.352" stop-color="#ebada3"/><stop offset="0.511" stop-color="#e79e9b"/><stop offset="0.7" stop-color="#e59696"/><stop offset="1" stop-color="#e49394"/></radialGradient><radialGradient id="radial-gradient-23" cx="1491.025" cy="-53.265" r="6.58" xlink:href="#radial-gradient-22"/><radialGradient id="radial-gradient-24" cx="1516.342" cy="-71.535" r="6.58" xlink:href="#radial-gradient-22"/><radialGradient id="radial-gradient-25" cx="1465.707" cy="-89.805" r="6.58" xlink:href="#radial-gradient-22"/><radialGradient id="radial-gradient-26" cx="1389.755" cy="-71.535" r="6.58" xlink:href="#radial-gradient-22"/><radialGradient id="radial-gradient-27" cx="1346.715" cy="-108.075" r="6.58" xlink:href="#radial-gradient-22"/><radialGradient id="radial-gradient-28" cx="1379.628" cy="-102.594" r="6.58" xlink:href="#radial-gradient-22"/><radialGradient id="radial-gradient-29" cx="1412.541" cy="-87.978" r="6.58" xlink:href="#radial-gradient-22"/><radialGradient id="radial-gradient-30" cx="1437.858" cy="-51.438" r="6.58" xlink:href="#radial-gradient-22"/><radialGradient id="radial-gradient-31" cx="1450.517" cy="-133.652" r="6.58" xlink:href="#radial-gradient-22"/><radialGradient id="radial-gradient-32" cx="1551.787" cy="-78.843" r="6.58" xlink:href="#radial-gradient-22"/><radialGradient id="radial-gradient-33" cx="1539.128" cy="-100.767" r="6.58" xlink:href="#radial-gradient-22"/><radialGradient id="radial-gradient-34" cx="1539.128" cy="-64.227" r="6.58" xlink:href="#radial-gradient-22"/></defs><title>NK_cell</title><path class="cls-1" d="M158.18,91.42c3.33,24.98-17.91,33.57-47.48,46.55-30.26,13.28-70.24-6.05-68.43-31.19,1.75-24.32,19.86-49.45,51.96-52.92C118.08,51.27,152.83,51.27,158.18,91.42Z" transform="translate(-38.783 -48.099)"/><path id="SURFACE_MEMBRANE_DOWN" class="cls-2" d="M158.28,89.4c.44,3.36,1.39,7.17.9,11.14a25.469,25.469,0,0,1-3.67,10.44,33.864,33.864,0,0,1-6.75,7.58c-2.59,2.2-6.39,4.13-9.3,5.88a181.377,181.377,0,0,1-18.12,9.22l-9.26,4.16a54.861,54.861,0,0,1-9.63,3.43,56.937,56.937,0,0,1-20.36,1.12,59.131,59.131,0,0,1-19.56-5.84A43.605,43.605,0,0,1,46.7,123.6a28.235,28.235,0,0,1-4.49-9.34c-.24-.84-.35-1.71-.52-2.57-.11-.87-.16-1.74-.24-2.61.02-.87.01-1.76.07-2.62l.28-2.56A58.469,58.469,0,0,1,60.08,67.88,57.278,57.278,0,0,1,77.47,56.91l4.88-1.7c1.66-.45,3.34-.84,5.01-1.26a20.055,20.055,0,0,1,2.53-.46l2.55-.39c1.7-.29,3.39-.43,5.08-.58a112.642,112.642,0,0,1,20.45-.07,53.791,53.791,0,0,1,19.66,5.57,36.975,36.975,0,0,1,8.32,5.99c2.47,2.37,5.01,4.65,6.71,7.6a44.545,44.545,0,0,1,3.92,9.25A49.851,49.851,0,0,1,158.28,89.4Zm-.2,2.03a64.943,64.943,0,0,0-2.22-9.87,45.735,45.735,0,0,0-4.11-9.2,34.685,34.685,0,0,0-14.62-13.37,53.349,53.349,0,0,0-19.33-4.88,110.811,110.811,0,0,0-20.11.41c-1.67.16-3.36.31-5,.59l-2.47.38a20.332,20.332,0,0,0-2.45.46c-1.61.41-3.23.79-4.84,1.23l-4.7,1.66a55.886,55.886,0,0,0-16.82,10.5A56.705,56.705,0,0,0,43.38,104.1l-.29,2.49c-.06.82-.05,1.64-.08,2.45.06.81.11,1.63.2,2.44.16.8.25,1.62.47,2.41a26.673,26.673,0,0,0,4.19,8.87,42.337,42.337,0,0,0,15.24,12.61,58.177,58.177,0,0,0,19.12,5.86,55.726,55.726,0,0,0,19.98-.96,53.966,53.966,0,0,0,9.52-3.24l9.32-4.03a181.268,181.268,0,0,0,18.19-8.93,60.34,60.34,0,0,0,8.32-5.75,32.913,32.913,0,0,0,6.77-7.46,25.359,25.359,0,0,0,3.64-9.36A33.325,33.325,0,0,0,158.08,91.43Z" transform="translate(-38.783 -48.099)"/><g id="SURFACE"><ellipse class="cls-3" cx="67.537" cy="5.801" rx="7.55" ry="5.45"/><ellipse class="cls-4" cx="115.627" cy="49.501" rx="7.55" ry="5.45"/><path class="cls-5" d="M46.23,93.07c2.94.62,4.63,4.44,3.76,8.51s-3.95,6.88-6.89,6.25-4.63-4.44-3.76-8.51S43.29,92.45,46.23,93.07Z" transform="translate(-38.783 -48.099)"/><path class="cls-6" d="M106.3,138.68c.2,3-3.01,5.66-7.17,5.94s-7.69-1.93-7.89-4.93,3.01-5.66,7.17-5.94S106.1,135.68,106.3,138.68Z" transform="translate(-38.783 -48.099)"/><ellipse class="cls-7" cx="91.227" cy="8.961" rx="4.21" ry="5.79"/><ellipse class="cls-8" cx="32.167" cy="14.761" rx="4.21" ry="5.79"/><path class="cls-9" d="M141.12,119.86c2.13,2.39,2.45,5.58.71,7.13s-4.87.87-7-1.52-2.45-5.58-.71-7.13S138.99,117.47,141.12,119.86Z" transform="translate(-38.783 -48.099)"/><path class="cls-10" d="M50.33,116.7c2.13,2.39,2.45,5.58.71,7.13s-4.87.87-7-1.52-2.45-5.58-.71-7.13S48.2,114.31,50.33,116.7Z" transform="translate(-38.783 -48.099)"/><ellipse class="cls-11" cx="14.127" cy="80.351" rx="4.21" ry="5.79"/><ellipse class="cls-12" cx="111.417" cy="22.371" rx="4.21" ry="5.79"/><ellipse class="cls-13" cx="109.217" cy="68.781" rx="4.21" ry="5.79"/><path class="cls-14" d="M55.29,78.99c2.63,1.81,3.7,4.84,2.38,6.75s-4.52,2-7.16.19-3.7-4.84-2.38-6.75S52.66,77.17,55.29,78.99Z" transform="translate(-38.783 -48.099)"/><path class="cls-15" d="M144.01,60.13c2.53,2.53,3.66,5.52,2.52,6.66s-4.13.02-6.66-2.52-3.66-5.52-2.52-6.66S141.47,57.6,144.01,60.13Z" transform="translate(-38.783 -48.099)"/><path class="cls-16" d="M153.21,84.92c-4.03,2.33-7.93,3.11-8.72,1.75s1.84-4.35,5.87-6.68,7.93-3.11,8.72-1.75S157.24,82.6,153.21,84.92Z" transform="translate(-38.783 -48.099)"/><path class="cls-17" d="M66.89,134.76c-4.03,2.33-7.93,3.11-8.72,1.75s1.84-4.35,5.87-6.68,7.93-3.11,8.72-1.75S70.92,132.43,66.89,134.76Z" transform="translate(-38.783 -48.099)"/><path class="cls-18" d="M74.57,141.97c-4.55-.97-7.98-3-7.65-4.53s4.28-2,8.83-1.04,7.98,3,7.65,4.53S79.12,142.94,74.57,141.97Z" transform="translate(-38.783 -48.099)"/><path class="cls-19" d="M84.09,59.79c-4.46,1.33-8.44,1.19-8.89-.31s2.8-3.81,7.25-5.14,8.44-1.19,8.89.31S88.54,58.46,84.09,59.79Z" transform="translate(-38.783 -48.099)"/><path class="cls-20" d="M122.72,134.76c-4.03,2.33-7.93,3.11-8.72,1.75s1.84-4.35,5.87-6.68,7.93-3.11,8.72-1.75S126.75,132.43,122.72,134.76Z" transform="translate(-38.783 -48.099)"/><path class="cls-21" d="M62.8,72.26c3.52,3.05,5.53,6.48,4.5,7.67s-4.72-.32-8.23-3.36-5.53-6.48-4.5-7.67S59.28,69.22,62.8,72.26Z" transform="translate(-38.783 -48.099)"/></g><g id="SURFACE_MEMBRANE_UP"><path class="cls-2" d="M101.47,58.13a5.233,5.233,0,0,1-2.75-2.54,4.125,4.125,0,0,1,.2-3.86,6.622,6.622,0,0,1,2.92-2.39,12.409,12.409,0,0,1,3.53-1.11,9.185,9.185,0,0,1,3.76.14,7.676,7.676,0,0,1,3.43,1.74,4.927,4.927,0,0,1,1.68,3.52,4.269,4.269,0,0,1-1.62,3.36.049.049,0,0,1-.07-.01.064.064,0,0,1,0-.06,4.217,4.217,0,0,0-.69-6.02,9.7,9.7,0,0,0-6.42-2.12,7.212,7.212,0,0,0-3.43.86,5.505,5.505,0,0,0-2.33,2.5,4.155,4.155,0,0,0-.22,3.17,6.612,6.612,0,0,0,2.08,2.75.062.062,0,0,1,.01.07C101.51,58.13,101.49,58.14,101.47,58.13Z" transform="translate(-38.783 -48.099)"/><path class="cls-2" d="M154.41,92.1a7.693,7.693,0,0,1,3.4.23,6.347,6.347,0,0,1,2.99,1.78,5,5,0,0,1,1.3,3.21,4.635,4.635,0,0,1-.23,1.7,5.138,5.138,0,0,1-.78,1.55,6.5,6.5,0,0,1-2.72,2.17,9.026,9.026,0,0,1-3.39.82,8.23,8.23,0,0,1-6.3-2.35.048.048,0,0,1,0-.07.047.047,0,0,1,.06-.01,10.445,10.445,0,0,0,6.19,1.36,8.787,8.787,0,0,0,5.74-2.27,3.543,3.543,0,0,0,1.11-2.88,3.15,3.15,0,0,0-.53-1.48,4.568,4.568,0,0,0-1.03-1.16,11.293,11.293,0,0,0-5.81-2.49.044.044,0,0,1-.04-.06C154.37,92.12,154.39,92.11,154.41,92.1Z" transform="translate(-38.783 -48.099)"/><path class="cls-2" d="M47.35,106.51a4.736,4.736,0,0,1-2.74,1.75,4.061,4.061,0,0,1-3.28-.75,6.134,6.134,0,0,1-1.77-2.76,13.36,13.36,0,0,1-.73-3.12,9.24,9.24,0,0,1,1.63-6.23A6.751,6.751,0,0,1,43,93.26a4.187,4.187,0,0,1,3.23-.22.045.045,0,0,1,.03.06.055.055,0,0,1-.05.03,5.754,5.754,0,0,0-4.88,2.88,11.22,11.22,0,0,0-1.95,5.61,6.331,6.331,0,0,0,.48,3.01,4.989,4.989,0,0,0,1.95,2.2,4.427,4.427,0,0,0,2.68.67,6.507,6.507,0,0,0,2.79-1.05c.02-.02.05-.01.07.02C47.37,106.47,47.37,106.49,47.35,106.51Z" transform="translate(-38.783 -48.099)"/><path class="cls-2" d="M106.35,138.68a4,4,0,0,1-.58,3.03,5.746,5.746,0,0,1-2.34,2.09,10.54,10.54,0,0,1-2.98.8,19.062,19.062,0,0,1-3.03.26,7.681,7.681,0,0,1-3.05-.6,6.152,6.152,0,0,1-2.59-1.88,4.757,4.757,0,0,1-.77-1.46,4.592,4.592,0,0,1-.17-1.64,4.333,4.333,0,0,1,1.44-2.75.048.048,0,0,1,.07,0,.066.066,0,0,1,.01.06,4.864,4.864,0,0,0-.73,2.71,4.079,4.079,0,0,0,.99,2.42,8.272,8.272,0,0,0,4.85,2.59,7.182,7.182,0,0,0,2.92-.03,8.2,8.2,0,0,0,2.63-1.21,6.216,6.216,0,0,0,3.23-4.39.056.056,0,0,1,.06-.05A.067.067,0,0,1,106.35,138.68Z" transform="translate(-38.783 -48.099)"/><path class="cls-2" d="M125.75,57.06a5.543,5.543,0,0,1,.11-2.65,4.761,4.761,0,0,1,1.4-2.34,3.978,3.978,0,0,1,2.55-.94,4.266,4.266,0,0,1,2.55.78,4.954,4.954,0,0,1,1.73,2.11,6.794,6.794,0,0,1,.64,2.66,6.06,6.06,0,0,1-1.99,4.86.049.049,0,0,1-.07-.01.064.064,0,0,1,0-.06,8.344,8.344,0,0,0,1-4.74,6.929,6.929,0,0,0-1.66-4.39,2.614,2.614,0,0,0-2.18-.88,3.091,3.091,0,0,0-1.99,1.21,9.529,9.529,0,0,0-2,4.4c-.01.03-.03.05-.06.04A.085.085,0,0,1,125.75,57.06Z" transform="translate(-38.783 -48.099)"/><path class="cls-2" d="M68.16,67.27a6.038,6.038,0,0,1-1.75-5.62,7.588,7.588,0,0,1,1.28-2.76,5.251,5.251,0,0,1,2.3-1.96,3.372,3.372,0,0,1,3.13.38,5.337,5.337,0,0,1,1.98,2.48,6.86,6.86,0,0,1-.44,5.94.062.062,0,0,1-.07.02.045.045,0,0,1-.02-.06,9.064,9.064,0,0,0-.45-5.5,5.291,5.291,0,0,0-1.53-2.12,3.105,3.105,0,0,0-2.44-.62,3.362,3.362,0,0,0-2.19,1.62,6.123,6.123,0,0,0-.73,2.7,9.367,9.367,0,0,0,1,5.44c.01.02.01.06-.02.07C68.2,67.29,68.17,67.28,68.16,67.27Z" transform="translate(-38.783 -48.099)"/><path class="cls-2" d="M138,117.71a5.7,5.7,0,0,1,4.13,2.77,7.943,7.943,0,0,1,.81,2.42,7.179,7.179,0,0,1,.13,2.54,3.238,3.238,0,0,1-1.42,2.26,3.937,3.937,0,0,1-2.66.61,5.876,5.876,0,0,1-4.18-2.82c-.01-.02-.01-.06.02-.07a.064.064,0,0,1,.06,0,8.355,8.355,0,0,0,4.22,1.82,3.6,3.6,0,0,0,2.06-.35,3.164,3.164,0,0,0,1.39-1.61,3.54,3.54,0,0,0,.09-2.32,5.758,5.758,0,0,0-1.19-2.03,11.776,11.776,0,0,0-3.47-3.14.057.057,0,0,1-.02-.07C137.96,117.72,137.98,117.71,138,117.71Z" transform="translate(-38.783 -48.099)"/><path class="cls-2" d="M52.11,120.04a3.958,3.958,0,0,1-.15,3.29,3.388,3.388,0,0,1-2.95,1.73A6.079,6.079,0,0,1,45.87,124a11.245,11.245,0,0,1-2.49-2.08,6.53,6.53,0,0,1-1.53-2.95,4.558,4.558,0,0,1,.51-3.44,3.6,3.6,0,0,1,3.12-1.55,5.141,5.141,0,0,1,3.06,1.18.062.062,0,0,1,.01.07c-.01.02-.04.02-.06.02a6.31,6.31,0,0,0-2.98-.49,2.959,2.959,0,0,0-2.26,1.35,4.081,4.081,0,0,0-.48,2.69,7.652,7.652,0,0,0,1.05,2.8,5.869,5.869,0,0,0,2.21,2.13,4.9,4.9,0,0,0,2.93.51,3.253,3.253,0,0,0,2.34-1.31,4.775,4.775,0,0,0,.71-2.86.047.047,0,0,1,.05-.05C52.08,120,52.1,120.02,52.11,120.04Z" transform="translate(-38.783 -48.099)"/><path class="cls-2" d="M57.17,128.45a5.354,5.354,0,0,1-1.29,4.76,4.375,4.375,0,0,1-4.81.77,4.425,4.425,0,0,1-1.9-1.76,6.457,6.457,0,0,1-.9-2.42,6.362,6.362,0,0,1,1.2-4.82.049.049,0,0,1,.07-.01c.02.01.02.04.02.05a9.759,9.759,0,0,0-.24,4.6,6.275,6.275,0,0,0,2.03,3.88,2.487,2.487,0,0,0,2.15.5,3.3,3.3,0,0,0,1.76-1.35,10.409,10.409,0,0,0,1.81-4.21c.01-.03.03-.05.06-.04S57.16,128.44,57.17,128.45Z" transform="translate(-38.783 -48.099)"/><path class="cls-2" d="M145.94,70.47a5.975,5.975,0,0,1,.26-3.04,4.7,4.7,0,0,1,1.92-2.5,3.558,3.558,0,0,1,1.55-.48,3.9,3.9,0,0,1,1.56.24,5.4,5.4,0,0,1,2.41,1.87,6.349,6.349,0,0,1,1.19,2.87,7.356,7.356,0,0,1-.14,3.13,5.914,5.914,0,0,1-1.59,2.73,3.5,3.5,0,0,1-2.89,1.02.044.044,0,0,1-.04-.06.043.043,0,0,1,.04-.04,3.739,3.739,0,0,0,2.31-1.46,6.52,6.52,0,0,0,1.14-2.46,8.123,8.123,0,0,0-.48-5.44A3.415,3.415,0,0,0,151.14,65a2.792,2.792,0,0,0-2.54.63,7.734,7.734,0,0,0-2.54,4.85.044.044,0,0,1-.06.04C145.96,70.51,145.94,70.49,145.94,70.47Z" transform="translate(-38.783 -48.099)"/><path class="cls-2" d="M148,111.04a3.341,3.341,0,0,1,2.88,1.02,5.341,5.341,0,0,1,1.48,2.76,8.785,8.785,0,0,1-.06,3.07,9.578,9.578,0,0,1-.88,2.91,4.212,4.212,0,0,1-2.31,2.17,3.561,3.561,0,0,1-3.27-.44,5.842,5.842,0,0,1-2.11-5.64.044.044,0,0,1,.06-.04.043.043,0,0,1,.04.04,6.959,6.959,0,0,0,2.61,4.75,2.843,2.843,0,0,0,2.38.43,4.324,4.324,0,0,0,2.14-1.56,5.06,5.06,0,0,0,1.02-2.66,6.8,6.8,0,0,0-.43-2.81c-.56-1.73-1.58-3.49-3.56-3.89-.03-.01-.05-.03-.04-.06S147.98,111.04,148,111.04Z" transform="translate(-38.783 -48.099)"/><path class="cls-2" d="M55.71,87.12a5.387,5.387,0,0,1-5.3-.77,8.938,8.938,0,0,1-1.83-2.06,8.269,8.269,0,0,1-1.22-2.45,3.574,3.574,0,0,1,.33-2.86,3.831,3.831,0,0,1,1.05-1.11,4.169,4.169,0,0,1,1.39-.59,5.952,5.952,0,0,1,5.19,1.66.048.048,0,0,1,0,.07.047.047,0,0,1-.06.01,7.817,7.817,0,0,0-4.89-.71,3.294,3.294,0,0,0-1.89,1.17,3.48,3.48,0,0,0-.58,2.25,4.219,4.219,0,0,0,.94,2.35,6.418,6.418,0,0,0,2.03,1.56,8.815,8.815,0,0,0,4.81,1.37.047.047,0,0,1,.05.05A.044.044,0,0,1,55.71,87.12Z" transform="translate(-38.783 -48.099)"/><path class="cls-2" d="M137.43,61.03a3.764,3.764,0,0,1-.83-2.87,1.767,1.767,0,0,1,1.16-1.31,2.75,2.75,0,0,1,1.63-.02,8.523,8.523,0,0,1,2.58,1.43c.78.56,1.55,1.12,2.29,1.75a9.83,9.83,0,0,1,1.97,2.15,6.918,6.918,0,0,1,1.21,2.78,2.791,2.791,0,0,1-.23,1.68,1.844,1.844,0,0,1-1.47.97,4.334,4.334,0,0,1-2.81-.97.049.049,0,0,1-.01-.07c.01-.02.04-.02.06-.02a5.224,5.224,0,0,0,2.63.29c.77-.2.94-.89.79-1.71a11.657,11.657,0,0,0-2.52-4.71,8.2,8.2,0,0,0-2.08-1.86,6.725,6.725,0,0,0-2.57-.88c-.86-.12-1.64-.01-1.88.72a4.95,4.95,0,0,0,.17,2.61c.01.03-.01.06-.03.06A.107.107,0,0,1,137.43,61.03Z" transform="translate(-38.783 -48.099)"/><path class="cls-2" d="M150.34,79.94a12.016,12.016,0,0,1,5.6-2.64,7.22,7.22,0,0,1,1.61-.01,2.479,2.479,0,0,1,1.52.65,1.642,1.642,0,0,1,.17,1.61,6.359,6.359,0,0,1-.73,1.42,10.845,10.845,0,0,1-2.1,2.33,16.779,16.779,0,0,1-2.53,1.83,14.5,14.5,0,0,1-5.86,2,.047.047,0,0,1-.05-.05.055.055,0,0,1,.03-.05,36.206,36.206,0,0,0,5.34-2.82,24.2,24.2,0,0,0,4.75-3.59,4.722,4.722,0,0,0,.84-1.2,1.138,1.138,0,0,0-.09-1.27,1.742,1.742,0,0,0-1.3-.32,7.069,7.069,0,0,0-1.43.27A57.852,57.852,0,0,0,150.4,80a.052.052,0,0,1-.07-.03C150.32,79.98,150.32,79.96,150.34,79.94Z" transform="translate(-38.783 -48.099)"/><path class="cls-2" d="M68.36,133.9a11.6,11.6,0,0,1-4.4,2.74,18.873,18.873,0,0,1-2.57.52,7.145,7.145,0,0,1-2.66.11,1.425,1.425,0,0,1-1.09-1.12,2.6,2.6,0,0,1,.28-1.49,7.544,7.544,0,0,1,1.63-2.17,12.957,12.957,0,0,1,4.46-2.7.052.052,0,0,1,.07.03c.01.02,0,.04-.02.06-1.3,1.15-2.62,2.19-3.76,3.38a9.409,9.409,0,0,0-1.53,1.84c-.38.68-.54,1.32.16,1.67a3.763,3.763,0,0,0,2.4.09,11.62,11.62,0,0,0,2.33-.98c.76-.36,1.52-.69,2.29-1.03s1.53-.72,2.35-1.02a.052.052,0,0,1,.07.03C68.38,133.86,68.38,133.89,68.36,133.9Z" transform="translate(-38.783 -48.099)"/><path class="cls-2" d="M82.35,139.04a3.012,3.012,0,0,1,1.2,1.08,1.321,1.321,0,0,1,.16.93,1.477,1.477,0,0,1-.5.83,4.94,4.94,0,0,1-3.11.97,21.143,21.143,0,0,1-3.1-.32l-3.05-.41a14.431,14.431,0,0,1-3.02-.72,11.858,11.858,0,0,1-2.85-1.37,5.349,5.349,0,0,1-1.21-1.17,2.219,2.219,0,0,1-.38-.87,1.4,1.4,0,0,1,.19-1.02,2.387,2.387,0,0,1,1.49-.89,5.562,5.562,0,0,1,1.57-.13.047.047,0,0,1,.05.05.066.066,0,0,1-.04.05,9.062,9.062,0,0,0-1.41.51,1.946,1.946,0,0,0-.97.8c-.24.57.55,1.31,1.32,1.8a24.2,24.2,0,0,0,5.39,2.44,12.005,12.005,0,0,0,2.96.62,14.239,14.239,0,0,0,3-.18,6.661,6.661,0,0,0,2.67-.73.8.8,0,0,0,.35-.96,3.613,3.613,0,0,0-.77-1.22.048.048,0,0,1,0-.07C82.31,139.03,82.33,139.03,82.35,139.04Z" transform="translate(-38.783 -48.099)"/><path class="cls-2" d="M79.6,60.72a6.934,6.934,0,0,1-3.45.05,2.54,2.54,0,0,1-.88-.45,1.445,1.445,0,0,1-.54-1,1.8,1.8,0,0,1,.25-1.05,3.121,3.121,0,0,1,.58-.74,11.587,11.587,0,0,1,2.95-1.79c1.01-.49,2.03-.97,3.07-1.41a16.592,16.592,0,0,1,6.66-1.43,7.286,7.286,0,0,1,1.77.26,2.472,2.472,0,0,1,1.6,1.15,1.316,1.316,0,0,1,.03,1.08,2.447,2.447,0,0,1-.51.79,5.281,5.281,0,0,1-1.39,1.03.062.062,0,0,1-.07-.02.047.047,0,0,1,.01-.06,7.717,7.717,0,0,0,1.05-1.26c.29-.44.4-.95.18-1.21a1.7,1.7,0,0,0-1.14-.57,7.848,7.848,0,0,0-1.55-.13,27.245,27.245,0,0,0-6.47.89,12.393,12.393,0,0,0-3.1,1.18,9.322,9.322,0,0,0-2.49,2.06,2.005,2.005,0,0,0-.56,1.15c-.02.31.33.6.8.8a11.809,11.809,0,0,0,3.18.58.054.054,0,0,1,.05.05A.055.055,0,0,1,79.6,60.72Z" transform="translate(-38.783 -48.099)"/><path class="cls-2" d="M125.79,127.46a4.561,4.561,0,0,1,1.66-.28,2.146,2.146,0,0,1,.9.21,1.361,1.361,0,0,1,.7.8,2.441,2.441,0,0,1-.32,1.87,5.9,5.9,0,0,1-1.04,1.37,19.294,19.294,0,0,1-2.64,2c-.9.62-1.79,1.25-2.7,1.85a16.342,16.342,0,0,1-2.92,1.56,10.513,10.513,0,0,1-3.27.85,3.816,3.816,0,0,1-1.84-.3,1.951,1.951,0,0,1-.45-.32,1.691,1.691,0,0,1-.31-.49,1.723,1.723,0,0,1-.03-1.05,5.634,5.634,0,0,1,2.13-2.62.049.049,0,0,1,.07.01.064.064,0,0,1,0,.06,7.16,7.16,0,0,0-1.44,2.71c-.06.46.08.71.45.83a3.242,3.242,0,0,0,1.35.11,21.013,21.013,0,0,0,6-1.82,12.84,12.84,0,0,0,2.77-1.63,13.713,13.713,0,0,0,2.21-2.3,12.4,12.4,0,0,0,.89-1.24,1.917,1.917,0,0,0,.35-1.22c-.04-.34-.44-.59-.93-.7a7.276,7.276,0,0,0-1.57-.15.047.047,0,0,1-.05-.05A.044.044,0,0,1,125.79,127.46Z" transform="translate(-38.783 -48.099)"/><path class="cls-2" d="M64.65,80.09a9.407,9.407,0,0,1-3.03-1.13A13.578,13.578,0,0,1,59,77.06c-.77-.76-1.45-1.6-2.13-2.42s-1.39-1.62-2.02-2.51a6.907,6.907,0,0,1-.8-1.47,2.209,2.209,0,0,1,.04-1.91,1.55,1.55,0,0,1,.89-.67,2.713,2.713,0,0,1,.96-.1,5.8,5.8,0,0,1,1.69.39,14.15,14.15,0,0,1,5.2,3.84.048.048,0,0,1,0,.07c-.02.01-.04.02-.06,0a29.474,29.474,0,0,0-5.5-2.92,5.351,5.351,0,0,0-1.39-.35c-.45-.05-.85.01-.99.25a1.531,1.531,0,0,0-.07,1.17,8.078,8.078,0,0,0,.51,1.42,10.062,10.062,0,0,0,1.79,2.57,19.267,19.267,0,0,0,2.43,2,40.213,40.213,0,0,0,5.14,3.57.057.057,0,0,1,.02.07A.045.045,0,0,1,64.65,80.09Z" transform="translate(-38.783 -48.099)"/></g><g id="NUCLEUS"><circle class="cls-22" cx="39.227" cy="72.351" r="8.98"/><path class="cls-23" d="M78.01,129.82a9.36,9.36,0,1,1,9.36-9.36A9.372,9.372,0,0,1,78.01,129.82Zm0-17.97a8.6,8.6,0,1,0,8.6,8.6A8.612,8.612,0,0,0,78.01,111.85Z" transform="translate(-38.783 -48.099)"/></g><g id="GRANULES"><circle class="cls-24" cx="53.207" cy="31.641" r="2.98"/><circle class="cls-25" cx="73.207" cy="21.641" r="2.98"/><circle class="cls-26" cx="83.207" cy="31.641" r="2.98"/><circle class="cls-27" cx="63.207" cy="41.641" r="2.98"/><circle class="cls-28" cx="33.207" cy="31.641" r="2.98"/><circle class="cls-29" cx="16.207" cy="51.641" r="2.98"/><circle class="cls-30" cx="29.207" cy="48.641" r="2.98"/><circle class="cls-31" cx="42.207" cy="40.641" r="2.98"/><circle class="cls-32" cx="52.207" cy="20.641" r="2.98"/><circle class="cls-33" cx="57.207" cy="65.641" r="2.98"/><circle class="cls-34" cx="97.207" cy="35.641" r="2.98"/><circle class="cls-35" cx="92.207" cy="47.641" r="2.98"/><circle class="cls-36" cx="92.207" cy="27.641" r="2.98"/></g></svg>