<svg id="Layer_1" data-name="Layer 1" xmlns="http://www.w3.org/2000/svg" xmlns:xlink="http://www.w3.org/1999/xlink" viewBox="0 0 23.221 121.285"><defs><style>.cls-1{fill:url(#linear-gradient);}</style><linearGradient id="linear-gradient" x1="623.661" y1="-504.796" x2="646.916" y2="-504.796" gradientTransform="matrix(1, 0, 0, -1, -536.677, -407.064)" gradientUnits="userSpaceOnUse"><stop offset="0" stop-color="#ea6924"/><stop offset="1" stop-color="#00104f"/></linearGradient></defs><title>BTNL</title><path id="BTNL" class="cls-1" d="M91.96,123.974c0,4.4,4.614,6.8,8.214,8.7,1.8.9,4,2.1,4,2.8,0,.3-.4.9-1.7,1.7-6.2,3.9-12.6,10.5-12.2,15.8.1,1.7,1.1,4,4.7,5.4l.7-1.8c-2.2-.9-3.3-2.1-3.4-3.8-.4-4.2,5.5-10.3,11.3-14,1.1-.7,2.7-1.9,2.6-3.4-.2-2-2.4-3.1-5.1-4.5-3.3-1.7-7.1-3.6-7.1-6.9H93.96v-25.8a10.457,10.457,0,1,0-.8-16.644l-1.974-3.2A10.458,10.458,0,1,0,91.2,58.76l1.972-3.183A10.457,10.457,0,1,0,92.232,40.4l1.461,1.366a8.373,8.373,0,0,1,6.176-2.679,8.458,8.458,0,0,1,0,16.916,8.38,8.38,0,0,1-6.175-2.678l-1.579.157-5.008,8.083,1.58,1.209a8.375,8.375,0,0,1,6.181-2.685,8.457,8.457,0,1,1,0,16.915,8.376,8.376,0,0,1-6.181-2.685L87.1,75.527l4.993,8.1,1.583.157a8.458,8.458,0,1,1,6.188,14.224,8.375,8.375,0,0,1-6.179-2.682l-1.73.683v27.967Z" transform="translate(-87.105 -37.089)"/></svg>