<svg id="Layer_1" data-name="Layer 1" xmlns="http://www.w3.org/2000/svg" xmlns:xlink="http://www.w3.org/1999/xlink" viewBox="0 0 14.021 118.504"><defs><style>.cls-1{fill:url(#radial-gradient);}.cls-2{fill:url(#radial-gradient-2);}.cls-3{fill:#5e58dd;}.cls-4{fill:#ba1149;}.cls-10,.cls-5,.cls-6,.cls-9{opacity:0.75;}.cls-5{fill:url(#radial-gradient-3);}.cls-6{fill:url(#radial-gradient-4);}.cls-7{fill:url(#radial-gradient-5);}.cls-8{fill:url(#radial-gradient-6);}.cls-9{fill:url(#linear-gradient);}.cls-10{fill:url(#linear-gradient-2);}.cls-11{mask:url(#mask);}.cls-12{fill:url(#radial-gradient-7);}.cls-13{mask:url(#mask-2);}.cls-14{fill:url(#radial-gradient-8);}</style><radialGradient id="radial-gradient" cx="359.456" cy="1003.519" r="6.072" gradientTransform="matrix(-0.004, 1, -1.428, -0.006, 1534.876, -252.655)" gradientUnits="userSpaceOnUse"><stop offset="0" stop-color="#fff"/><stop offset="1"/></radialGradient><radialGradient id="radial-gradient-2" cx="-24.692" cy="-490.035" r="6.072" gradientTransform="matrix(-0.004, 1, -1.428, -0.006, -599.877, 108.018)" xlink:href="#radial-gradient"/><radialGradient id="radial-gradient-3" cx="561.454" cy="-550.164" r="12.819" gradientTransform="translate(-299.967 717.286) rotate(-15)" gradientUnits="userSpaceOnUse"><stop offset="0.202" stop-color="#181636"/><stop offset="0.315" stop-color="#28255b"/><stop offset="0.475" stop-color="#3b3789"/><stop offset="0.628" stop-color="#4a45ae"/><stop offset="0.771" stop-color="#5550c8"/><stop offset="0.899" stop-color="#5c56d7"/><stop offset="0.999" stop-color="#5e58dd"/></radialGradient><radialGradient id="radial-gradient-4" cx="-394.525" cy="-359.473" r="10.589" gradientTransform="matrix(0.01, 1, -2.75, 0.027, -884.761, 554.112)" gradientUnits="userSpaceOnUse"><stop offset="0.193" stop-color="#5e58dd"/><stop offset="0.833" stop-color="#181636"/></radialGradient><radialGradient id="radial-gradient-5" cx="151.545" cy="-396.278" r="34.66" gradientTransform="translate(-154.681 -96.723) rotate(90) scale(1 0.643)" gradientUnits="userSpaceOnUse"><stop offset="0.796" stop-color="#00031d" stop-opacity="0"/><stop offset="0.87" stop-color="#00031d" stop-opacity="0.112"/><stop offset="0.93" stop-color="#00031d" stop-opacity="0.462"/><stop offset="0.982" stop-color="#00031d"/></radialGradient><radialGradient id="radial-gradient-6" cx="151.328" cy="-299.721" r="61.597" gradientTransform="translate(249.021 302.707) rotate(-90) scale(1 0.497)" gradientUnits="userSpaceOnUse"><stop offset="0.81" stop-color="#00031d" stop-opacity="0"/><stop offset="0.878" stop-color="#00031d" stop-opacity="0.112"/><stop offset="0.934" stop-color="#00031d" stop-opacity="0.462"/><stop offset="0.982" stop-color="#00031d"/></radialGradient><linearGradient id="linear-gradient" x1="144.319" y1="-385.867" x2="158.337" y2="-385.867" gradientTransform="translate(-51.326 451.1)" gradientUnits="userSpaceOnUse"><stop offset="0" stop-color="#00031d"/><stop offset="0.088" stop-color="#00031d" stop-opacity="0.586"/><stop offset="0.229" stop-color="#00031d" stop-opacity="0.148"/><stop offset="0.361" stop-color="#00031d" stop-opacity="0"/><stop offset="0.638" stop-color="#00031d" stop-opacity="0.094"/><stop offset="0.823" stop-color="#00031d" stop-opacity="0.399"/><stop offset="0.981" stop-color="#00031d" stop-opacity="0.917"/><stop offset="1" stop-color="#00031d"/></linearGradient><linearGradient id="linear-gradient-2" x1="144.319" y1="-326.615" x2="158.337" y2="-326.615" xlink:href="#linear-gradient"/><mask id="mask" x="-0.324" y="52.699" width="14.37" height="6.924" maskUnits="userSpaceOnUse"><g transform="translate(-92.989 -40.748)"><rect class="cls-1" x="92.666" y="93.447" width="14.37" height="6.924" transform="translate(199.701 193.817) rotate(180)"/></g></mask><radialGradient id="radial-gradient-7" cx="356.254" cy="998.141" r="5.888" gradientTransform="matrix(-0.036, -0.999, 1.18, -0.043, -1065.519, 497.893)" gradientUnits="userSpaceOnUse"><stop offset="0.711" stop-color="#c8c3f4" stop-opacity="0"/><stop offset="0.843" stop-color="#c8c3f4" stop-opacity="0.4"/><stop offset="0.979" stop-color="#c8c3f4" stop-opacity="0"/></radialGradient><mask id="mask-2" x="-0.023" y="38.342" width="14.37" height="6.924" maskUnits="userSpaceOnUse"><g transform="translate(-92.989 -40.748)"><rect class="cls-2" x="92.966" y="79.09" width="14.37" height="6.924"/></g></mask><radialGradient id="radial-gradient-8" cx="-27.894" cy="-495.413" r="5.888" gradientTransform="matrix(0.036, 0.999, -1.18, 0.043, -483.679, 129.013)" xlink:href="#radial-gradient-7"/></defs><title>R-ICO-013955</title><g id="R-ICO-013955"><g id="BASEE"><path class="cls-3" d="M100,89.717a7.009,7.009,0,0,1-7.009-7.008V47.756a7.009,7.009,0,0,1,14.018,0V82.709A7.009,7.009,0,0,1,100,89.717Z" transform="translate(-92.989 -40.748)"/><path class="cls-3" d="M100,159.252a7.009,7.009,0,0,1-7.009-7.008V96.726a7.009,7.009,0,1,1,14.018,0v55.518A7.009,7.009,0,0,1,100,159.252Z" transform="translate(-92.989 -40.748)"/></g><rect class="cls-4" y="89.401" width="14.02" height="11.94"/><g id="ENDINGS"><path class="cls-5" d="M107.007,52.274l0-4.649a6.91,6.91,0,0,0-7.264-6.873A7.164,7.164,0,0,0,92.989,48v4.278S93,54.045,100,54.045,107.007,52.274,107.007,52.274Z" transform="translate(-92.989 -40.748)"/><path class="cls-6" d="M92.993,147.726l0,4.649a6.91,6.91,0,0,0,7.264,6.873A7.164,7.164,0,0,0,107.011,152v-4.278s-.006,2.229-7.012,2.229S92.993,147.726,92.993,147.726Z" transform="translate(-92.989 -40.748)"/></g><g id="SHADOW"><g id="ROUND_SHADOW"><path class="cls-7" d="M100,89.717a7.009,7.009,0,0,1-7.009-7.008V47.756a7.009,7.009,0,0,1,14.018,0V82.709A7.009,7.009,0,0,1,100,89.717Z" transform="translate(-92.989 -40.748)"/><path class="cls-8" d="M100,159.252a7.009,7.009,0,0,1-7.009-7.008V96.726a7.009,7.009,0,1,1,14.018,0v55.518A7.009,7.009,0,0,1,100,159.252Z" transform="translate(-92.989 -40.748)"/></g><path class="cls-9" d="M100,89.717a7.009,7.009,0,0,1-7.009-7.008V47.756a7.009,7.009,0,0,1,14.018,0V82.709A7.009,7.009,0,0,1,100,89.717Z" transform="translate(-92.989 -40.748)"/><path class="cls-10" d="M100,159.252a7.009,7.009,0,0,1-7.009-7.008V96.726a7.009,7.009,0,1,1,14.018,0v55.518A7.009,7.009,0,0,1,100,159.252Z" transform="translate(-92.989 -40.748)"/></g><g id="SHINE"><g class="cls-11"><path id="DOWN_SHINE" class="cls-12" d="M103.869,94.65a5.384,5.384,0,0,1,2.969,4.688.925.925,0,1,1-1.85-.016c.021-2.35-2.629-3.861-5.2-3.965a4.953,4.953,0,0,0-3.578,1.272,3.569,3.569,0,0,0-1.195,2.5.925.925,0,1,1-1.85-.047,5.4,5.4,0,0,1,1.78-3.8,6.813,6.813,0,0,1,4.918-1.77A8.853,8.853,0,0,1,103.869,94.65Z" transform="translate(-92.989 -40.748)"/></g><g class="cls-13"><path id="UP_SHINE" class="cls-14" d="M96.133,84.81a5.384,5.384,0,0,1-2.969-4.688.925.925,0,1,1,1.85.016c-.021,2.35,2.629,3.861,5.2,3.965a4.953,4.953,0,0,0,3.578-1.272,3.569,3.569,0,0,0,1.195-2.5.925.925,0,1,1,1.85.047,5.4,5.4,0,0,1-1.78,3.8,6.808,6.808,0,0,1-4.918,1.769A8.839,8.839,0,0,1,96.133,84.81Z" transform="translate(-92.989 -40.748)"/></g></g></g></svg>