<svg id="Layer_1" data-name="Layer 1" xmlns="http://www.w3.org/2000/svg" xmlns:xlink="http://www.w3.org/1999/xlink" viewBox="0 0 96.132 96.547"><defs><style>.cls-1{fill:url(#radial-gradient);}.cls-2{fill:#4b4c96;}</style><radialGradient id="radial-gradient" cx="-0.869" cy="983.706" fx="-11.475258289219784" r="57.128" gradientTransform="translate(-214.321 -899.92) rotate(-15.515)" gradientUnits="userSpaceOnUse"><stop offset="0" stop-color="#b0b7dc"/><stop offset="0.312" stop-color="#b697c6"/><stop offset="0.803" stop-color="#525281"/></radialGradient></defs><title>R-ICO-013619</title><g id="R-ICO-013619"><circle class="cls-1" cx="47.949" cy="48.094" r="46.025"/><path class="cls-2" d="M112.917,146.524a48.2,48.2,0,0,1-59.194-33.4c-7.06-25.524,7.331-52.406,33.4-59.6a47.849,47.849,0,0,1,59.194,33.4C153.376,112.446,138.441,139.328,112.917,146.524ZM88.208,57.461A44.008,44.008,0,0,0,57.66,111.5c6.381,23.216,30.955,36.929,54.035,30.547,23.216-6.381,36.929-30.955,30.547-54.035S111.288,51.08,88.208,57.461Z" transform="translate(-51.934 -51.726)"/></g></svg>