<svg id="Layer_1" data-name="Layer 1" xmlns="http://www.w3.org/2000/svg" xmlns:xlink="http://www.w3.org/1999/xlink" viewBox="0 0 46.563 22.585"><defs><style>.cls-1{fill:url(#linear-gradient);}.cls-2{fill:#ffa8ff;}.cls-3{font-size:12px;fill:#fff;font-family:Arial-BoldMT, Arial;font-weight:700;}.cls-4{letter-spacing:-0.074em;}</style><linearGradient id="linear-gradient" x1="156.447" y1="109.723" x2="156.447" y2="89.723" gradientTransform="translate(-132.988 -88.664)" gradientUnits="userSpaceOnUse"><stop offset="0" stop-color="#536bd5"/><stop offset="0.999" stop-color="#ffa8ff"/></linearGradient></defs><title>ATM</title><g id="ATM"><rect class="cls-1" x="1.46" y="1.059" width="44" height="20" rx="10" ry="10"/><path class="cls-2" d="M112.083,110.059c-4.616-.009-9.231.43-13.847.837-2.308.205-4.616.388-6.924.457-1.17.051-2.273.086-3.5.081a11.083,11.083,0,0,1-3.922-.723,11.314,11.314,0,0,1-7.027-12.9A11.16,11.16,0,0,1,80.933,91.3a10.945,10.945,0,0,1,7.149-2.212c4.616.282,9.231.437,13.847.335,2.308-.059,4.616-.178,6.923-.341,1.165-.074,2.284-.169,3.486-.223a10.183,10.183,0,0,1,3.8.575A10.673,10.673,0,0,1,121.97,94.4a10.4,10.4,0,0,1,.875,7.52,11.014,11.014,0,0,1-4.136,5.967A11.519,11.519,0,0,1,112.083,110.059Zm0-.3a8.967,8.967,0,0,0,6.133-2.462,9.19,9.19,0,0,0,2.75-5.728,9.764,9.764,0,0,0-5.73-9.809,8.868,8.868,0,0,0-2.946-.777c-1.1-.1-2.294-.162-3.437-.246-2.308-.164-4.616-.282-6.923-.341-4.616-.1-9.231.053-13.847.335a9.318,9.318,0,0,0-5.609,2.42,9.109,9.109,0,0,0-2.82,5.184A8.635,8.635,0,0,0,80.723,104a8.834,8.834,0,0,0,4.334,3.73,7.947,7.947,0,0,0,2.829.629c1.082.042,2.288.043,3.426.1,2.308.069,4.616.252,6.924.457C102.852,109.329,107.467,109.768,112.083,109.759Z" transform="translate(-76.623 -88.85)"/><text class="cls-3" transform="translate(11.314 14.373)"><tspan class="cls-4">A</tspan><tspan x="7.775" y="0">TM</tspan></text></g></svg>