<svg id="Layer_1" data-name="Layer 1" xmlns="http://www.w3.org/2000/svg" xmlns:xlink="http://www.w3.org/1999/xlink" viewBox="0 0 31.545 118.504"><defs><style>.cls-1{fill:url(#radial-gradient);}.cls-2{fill:url(#radial-gradient-2);}.cls-3{fill:url(#radial-gradient-3);}.cls-4{fill:url(#radial-gradient-4);}.cls-5{fill:url(#radial-gradient-5);}.cls-6{fill:url(#radial-gradient-6);}.cls-7{fill:#564bbc;}.cls-10,.cls-11,.cls-15,.cls-21,.cls-8,.cls-9{opacity:0.75;}.cls-8{fill:url(#radial-gradient-7);}.cls-9{fill:url(#radial-gradient-8);}.cls-10{fill:url(#radial-gradient-9);}.cls-11{fill:url(#radial-gradient-10);}.cls-12{mask:url(#mask);}.cls-13{fill:url(#radial-gradient-11);}.cls-14{mask:url(#mask-2);}.cls-15{fill:url(#linear-gradient);}.cls-16{mask:url(#mask-3);}.cls-17{fill:url(#radial-gradient-12);}.cls-18{mask:url(#mask-4);}.cls-19{fill:url(#radial-gradient-13);}.cls-20{mask:url(#mask-5);}.cls-21{fill:url(#linear-gradient-2);}.cls-22{mask:url(#mask-6);}.cls-23{fill:url(#radial-gradient-14);}</style><radialGradient id="radial-gradient" cx="387.897" cy="-202.724" r="52.559" gradientTransform="matrix(0, -1.044, 1.138, 0, 330.751, 558.079)" gradientUnits="userSpaceOnUse"><stop offset="0.332"/><stop offset="0.389" stop-color="#090909"/><stop offset="0.48" stop-color="#202020"/><stop offset="0.594" stop-color="#464646"/><stop offset="0.726" stop-color="#7b7b7b"/><stop offset="0.871" stop-color="#bebebe"/><stop offset="1" stop-color="#fff"/></radialGradient><radialGradient id="radial-gradient-2" cx="392.353" cy="-241.221" r="26.919" gradientTransform="matrix(0, 1.06, -1.686, 0, -305.555, -327.629)" gradientUnits="userSpaceOnUse"><stop offset="0.426"/><stop offset="0.84" stop-color="#fff"/></radialGradient><radialGradient id="radial-gradient-3" cx="489.936" cy="388.565" r="8.325" gradientTransform="matrix(-0.004, 1, -1.428, -0.006, 656.321, -384.364)" gradientUnits="userSpaceOnUse"><stop offset="0" stop-color="#fff"/><stop offset="1"/></radialGradient><radialGradient id="radial-gradient-4" cx="139.312" cy="-107.206" r="40.709" gradientTransform="matrix(-0.009, 1, -0.772, -0.007, 20.627, -91.29)" gradientUnits="userSpaceOnUse"><stop offset="0"/><stop offset="0.373" stop-color="#020202"/><stop offset="0.507" stop-color="#090909"/><stop offset="0.603" stop-color="#141414"/><stop offset="0.68" stop-color="#252525"/><stop offset="0.746" stop-color="#3b3b3b"/><stop offset="0.805" stop-color="#575757"/><stop offset="0.858" stop-color="#777"/><stop offset="0.907" stop-color="#9d9d9d"/><stop offset="0.952" stop-color="#c8c8c8"/><stop offset="0.993" stop-color="#f6f6f6"/><stop offset="1" stop-color="#fff"/></radialGradient><radialGradient id="radial-gradient-5" cx="278.321" cy="-156.914" r="22.279" gradientTransform="matrix(-0.036, 1.193, -1.983, -0.043, -201.1, -281.581)" gradientUnits="userSpaceOnUse"><stop offset="0.65" stop-color="#fff"/><stop offset="0.661" stop-color="#e6e6e6"/><stop offset="0.684" stop-color="#b6b6b6"/><stop offset="0.709" stop-color="#8b8b8b"/><stop offset="0.736" stop-color="#656565"/><stop offset="0.764" stop-color="#464646"/><stop offset="0.795" stop-color="#2c2c2c"/><stop offset="0.828" stop-color="#181818"/><stop offset="0.867" stop-color="#0b0b0b"/><stop offset="0.915" stop-color="#020202"/><stop offset="1"/></radialGradient><radialGradient id="radial-gradient-6" cx="155.166" cy="-75.041" r="8.325" gradientTransform="matrix(-0.004, 1, -1.428, -0.006, -6.735, -71.081)" xlink:href="#radial-gradient-3"/><radialGradient id="radial-gradient-7" cx="403.587" cy="-125.456" r="12.823" gradientTransform="translate(-248.641 266.186) rotate(-15)" gradientUnits="userSpaceOnUse"><stop offset="0.202" stop-color="#181636"/><stop offset="0.242" stop-color="#1c193e"/><stop offset="0.604" stop-color="#3b3482"/><stop offset="0.866" stop-color="#4f45ac"/><stop offset="1" stop-color="#564bbc"/></radialGradient><radialGradient id="radial-gradient-8" cx="386.66" cy="-129.992" r="12.823" xlink:href="#radial-gradient-7"/><radialGradient id="radial-gradient-9" cx="-236.658" cy="-784.187" r="10.59" gradientTransform="matrix(0.01, 1, -2.75, 0.027, -2045.568, 407.869)" gradientUnits="userSpaceOnUse"><stop offset="0.193" stop-color="#564bbc"/><stop offset="0.833" stop-color="#181636"/></radialGradient><radialGradient id="radial-gradient-10" cx="-219.732" cy="-779.651" r="10.59" gradientTransform="matrix(0.01, 1, -2.75, 0.027, -2050.787, 390.819)" xlink:href="#radial-gradient-9"/><mask id="mask" x="-2.72" y="47.398" width="36.579" height="72.197" maskUnits="userSpaceOnUse"><g transform="translate(-84.228 -40.748)"><rect class="cls-1" x="81.507" y="88.146" width="36.579" height="72.197"/></g></mask><radialGradient id="radial-gradient-11" cx="172.786" cy="-44.479" r="30.952" gradientTransform="matrix(0.008, -1, 0.685, 0.005, 128.916, 292.831)" gradientUnits="userSpaceOnUse"><stop offset="0.185" stop-color="#00031d" stop-opacity="0"/><stop offset="0.508" stop-color="#00031d" stop-opacity="0.112"/><stop offset="0.773" stop-color="#00031d" stop-opacity="0.462"/><stop offset="1" stop-color="#00031d"/></radialGradient><mask id="mask-2" x="-0.461" y="48.005" width="35.056" height="71.663" maskUnits="userSpaceOnUse"><g transform="translate(-84.228 -40.748)"><rect class="cls-2" x="83.766" y="88.753" width="35.056" height="71.663"/></g></mask><linearGradient id="linear-gradient" x1="161.329" y1="-32.677" x2="189.091" y2="-48.334" gradientTransform="translate(-72.107 71.946) rotate(30)" gradientUnits="userSpaceOnUse"><stop offset="0" stop-color="#00031d"/><stop offset="0.042" stop-color="#00031d" stop-opacity="0.586"/><stop offset="0.109" stop-color="#00031d" stop-opacity="0.148"/><stop offset="0.172" stop-color="#00031d" stop-opacity="0"/><stop offset="0.288" stop-color="#00031d" stop-opacity="0.094"/><stop offset="0.366" stop-color="#00031d" stop-opacity="0.399"/><stop offset="0.432" stop-color="#00031d" stop-opacity="0.917"/><stop offset="0.44" stop-color="#00031d"/><stop offset="0.566" stop-color="#00031d"/><stop offset="0.62" stop-color="#00031d" stop-opacity="0.482"/><stop offset="0.685" stop-color="#00031d" stop-opacity="0.118"/><stop offset="0.76" stop-color="#00031d" stop-opacity="0"/><stop offset="0.848" stop-color="#00031d" stop-opacity="0.202"/><stop offset="0.964" stop-color="#00031d" stop-opacity="0.774"/><stop offset="1" stop-color="#00031d"/></linearGradient><mask id="mask-3" x="5.051" y="52.541" width="19.701" height="9.493" maskUnits="userSpaceOnUse"><g transform="translate(-84.228 -40.748)"><rect class="cls-3" x="89.278" y="93.288" width="19.701" height="9.493" transform="translate(198.258 196.07) rotate(180)"/></g></mask><radialGradient id="radial-gradient-12" cx="485.547" cy="381.191" r="8.072" gradientTransform="matrix(-0.036, -0.999, 1.18, -0.043, -333.303, 602.903)" gradientUnits="userSpaceOnUse"><stop offset="0.711" stop-color="#c8c3f4" stop-opacity="0"/><stop offset="0.843" stop-color="#c8c3f4" stop-opacity="0.4"/><stop offset="0.979" stop-color="#c8c3f4" stop-opacity="0"/></radialGradient><mask id="mask-4" x="-2.465" y="-2.118" width="36.425" height="51.743" maskUnits="userSpaceOnUse"><g transform="translate(-84.228 -40.748)"><rect class="cls-4" x="81.762" y="38.63" width="36.425" height="51.743"/></g></mask><radialGradient id="radial-gradient-13" cx="147.206" cy="-89.886" r="23.687" gradientTransform="matrix(-0.012, 1, -0.652, -0.008, 43.422, -80.172)" gradientUnits="userSpaceOnUse"><stop offset="0" stop-color="#00031d" stop-opacity="0"/><stop offset="0.411" stop-color="#00031d" stop-opacity="0.294"/><stop offset="1" stop-color="#00031d"/></radialGradient><mask id="mask-5" x="-0.926" y="-2.084" width="34.388" height="52.173" maskUnits="userSpaceOnUse"><g transform="translate(-84.228 -40.748)"><rect class="cls-5" x="83.301" y="38.664" width="34.388" height="52.173"/></g></mask><linearGradient id="linear-gradient-2" x1="131.823" y1="-83.907" x2="159.18" y2="-99.718" gradientTransform="translate(-72.107 71.946) rotate(30)" gradientUnits="userSpaceOnUse"><stop offset="0" stop-color="#00031d"/><stop offset="0.04" stop-color="#00031d" stop-opacity="0.586"/><stop offset="0.103" stop-color="#00031d" stop-opacity="0.148"/><stop offset="0.163" stop-color="#00031d" stop-opacity="0"/><stop offset="0.277" stop-color="#00031d" stop-opacity="0.094"/><stop offset="0.353" stop-color="#00031d" stop-opacity="0.399"/><stop offset="0.418" stop-color="#00031d" stop-opacity="0.917"/><stop offset="0.426" stop-color="#00031d"/><stop offset="0.566" stop-color="#00031d"/><stop offset="0.577" stop-color="#00031d" stop-opacity="0.82"/><stop offset="0.616" stop-color="#00031d" stop-opacity="0.354"/><stop offset="0.665" stop-color="#00031d" stop-opacity="0.081"/><stop offset="0.757" stop-color="#00031d" stop-opacity="0"/><stop offset="0.847" stop-color="#00031d" stop-opacity="0.136"/><stop offset="0.937" stop-color="#00031d" stop-opacity="0.544"/><stop offset="1" stop-color="#00031d"/></linearGradient><mask id="mask-6" x="5.646" y="33.885" width="19.701" height="9.493" maskUnits="userSpaceOnUse"><g transform="translate(-84.228 -40.748)"><rect class="cls-6" x="89.873" y="74.633" width="19.701" height="9.493"/></g></mask><radialGradient id="radial-gradient-14" cx="150.777" cy="-82.415" r="8.072" gradientTransform="matrix(0.036, 0.999, -1.18, 0.043, -3.039, -71.211)" xlink:href="#radial-gradient-12"/></defs><title>Chromosome_1</title><g id="Chromosome_1"><g id="BASE"><path class="cls-7" d="M97.975,89.627a13.8,13.8,0,0,0-13.747,14.017v48.685a7.011,7.011,0,0,0,14.021-.085v-48.6a6.878,6.878,0,0,0,1.751-.25,6.876,6.876,0,0,0,1.751.25v48.6a7.011,7.011,0,0,0,14.021.085V103.644a13.805,13.805,0,0,0-13.747-14.017Z" transform="translate(-84.228 -40.748)"/><path class="cls-7" d="M101.751,89.627A14.033,14.033,0,0,0,115.768,75.61l0-27.985a6.9,6.9,0,0,0-7.013-6.877,7.009,7.009,0,0,0-7.009,7.009V75.61a6.951,6.951,0,0,0-1.751.248,6.953,6.953,0,0,0-1.751-.248V47.756a7.009,7.009,0,0,0-7.009-7.009,6.9,6.9,0,0,0-7.012,6.877l0,27.985A14.033,14.033,0,0,0,98.249,89.627Z" transform="translate(-84.228 -40.748)"/></g><g id="ENDINGS"><path class="cls-8" d="M115.768,52.274l0-4.649a6.9,6.9,0,0,0-7.013-6.877,7.009,7.009,0,0,0-7.009,7.009v4.517s.005,1.771,7.011,1.771S115.768,52.274,115.768,52.274Z" transform="translate(-84.228 -40.748)"/><path class="cls-9" d="M98.245,52.274l0-4.649a6.9,6.9,0,0,0-7.013-6.877,7.009,7.009,0,0,0-7.009,7.009v4.517s.005,1.771,7.011,1.771S98.245,52.274,98.245,52.274Z" transform="translate(-84.228 -40.748)"/><path class="cls-10" d="M101.755,147.726l0,4.649a6.9,6.9,0,0,0,7.013,6.877,7.009,7.009,0,0,0,7.009-7.009v-4.517s-.005,2.229-7.011,2.229S101.755,147.726,101.755,147.726Z" transform="translate(-84.228 -40.748)"/><path class="cls-11" d="M84.232,147.726l0,4.649a6.9,6.9,0,0,0,7.013,6.877,7.009,7.009,0,0,0,7.009-7.009v-4.517s-.005,2.229-7.011,2.229S84.232,147.726,84.232,147.726Z" transform="translate(-84.228 -40.748)"/></g><g class="cls-12"><path id="DOWN_ROUND_SHADOW" class="cls-13" d="M97.975,89.627a13.8,13.8,0,0,0-13.747,14.017v48.685a7.011,7.011,0,0,0,14.021-.085v-48.6a6.878,6.878,0,0,0,1.751-.25,6.876,6.876,0,0,0,1.751.25v48.6a7.011,7.011,0,0,0,14.021.085V103.644a13.805,13.805,0,0,0-13.747-14.017Z" transform="translate(-84.228 -40.748)"/></g><g class="cls-14"><path id="DOWN_SHADOW" class="cls-15" d="M97.975,89.627a13.8,13.8,0,0,0-13.747,14.017v48.685a7.011,7.011,0,0,0,14.021-.085v-48.6a6.878,6.878,0,0,0,1.751-.25,6.876,6.876,0,0,0,1.751.25v48.6a7.011,7.011,0,0,0,14.021.085V103.644a13.805,13.805,0,0,0-13.747-14.017Z" transform="translate(-84.228 -40.748)"/></g><g class="cls-16"><path id="DOWN_SHINE" class="cls-17" d="M104.639,94.939a7.384,7.384,0,0,1,4.07,6.428,1.269,1.269,0,1,1-2.537-.023c.029-3.222-3.6-5.293-7.132-5.435a6.789,6.789,0,0,0-4.906,1.743,4.894,4.894,0,0,0-1.639,3.426,1.269,1.269,0,1,1-2.537-.063A7.408,7.408,0,0,1,92.4,95.8a9.338,9.338,0,0,1,6.742-2.426A12.127,12.127,0,0,1,104.639,94.939Z" transform="translate(-84.228 -40.748)"/></g><g class="cls-18"><path id="UP_ROUND_SHADOW" class="cls-19" d="M101.751,89.627A14.033,14.033,0,0,0,115.768,75.61l0-27.985a6.9,6.9,0,0,0-7.013-6.877,7.009,7.009,0,0,0-7.009,7.009V75.61a6.951,6.951,0,0,0-1.751.248,6.953,6.953,0,0,0-1.751-.248V47.756a7.009,7.009,0,0,0-7.009-7.009,6.9,6.9,0,0,0-7.012,6.877l0,27.985A14.033,14.033,0,0,0,98.249,89.627Z" transform="translate(-84.228 -40.748)"/></g><g class="cls-20"><path id="UP_SHADOW" class="cls-21" d="M101.751,89.627A14.033,14.033,0,0,0,115.768,75.61l0-27.985a6.9,6.9,0,0,0-7.013-6.877,7.009,7.009,0,0,0-7.009,7.009V75.61a6.951,6.951,0,0,0-1.751.248,6.953,6.953,0,0,0-1.751-.248V47.756a7.009,7.009,0,0,0-7.009-7.009,6.9,6.9,0,0,0-7.012,6.877l0,27.985A14.033,14.033,0,0,0,98.249,89.627Z" transform="translate(-84.228 -40.748)"/></g><g class="cls-22"><path id="UP_SHINE" class="cls-23" d="M94.215,82.475a7.384,7.384,0,0,1-4.07-6.428,1.269,1.269,0,0,1,2.537.023c-.029,3.222,3.6,5.293,7.132,5.435a6.789,6.789,0,0,0,4.906-1.743,4.894,4.894,0,0,0,1.639-3.426,1.269,1.269,0,1,1,2.537.063,7.408,7.408,0,0,1-2.441,5.214,9.338,9.338,0,0,1-6.742,2.426A12.127,12.127,0,0,1,94.215,82.475Z" transform="translate(-84.228 -40.748)"/></g></g></svg>