<svg id="Layer_1" data-name="Layer 1" xmlns="http://www.w3.org/2000/svg" xmlns:xlink="http://www.w3.org/1999/xlink" viewBox="0 0 71.074 108.774"><defs><style>.cls-1{fill:url(#linear-gradient);}.cls-2{fill:url(#linear-gradient-2);}.cls-3{fill:url(#linear-gradient-3);}.cls-4{fill:url(#linear-gradient-4);}.cls-5{fill:url(#linear-gradient-5);}.cls-6{fill:url(#linear-gradient-6);}.cls-7{fill:url(#linear-gradient-7);}.cls-8{fill:url(#linear-gradient-8);}.cls-9{fill:url(#linear-gradient-9);}.cls-10{mask:url(#mask);}.cls-11{fill:url(#radial-gradient);}.cls-12{fill:url(#linear-gradient-10);}.cls-13{mask:url(#mask-2);}.cls-14{fill:url(#radial-gradient-2);}.cls-15{fill:url(#radial-gradient-3);}.cls-16{mask:url(#mask-3);}.cls-17{fill:url(#radial-gradient-4);}.cls-18{mask:url(#mask-4);}.cls-19{fill:url(#radial-gradient-5);}.cls-20{fill:url(#linear-gradient-11);}.cls-21{mask:url(#mask-5);}.cls-22{fill:url(#radial-gradient-6);}.cls-23{fill:url(#linear-gradient-12);}.cls-24{mask:url(#mask-6);}.cls-25{fill:url(#radial-gradient-7);}.cls-26{fill:url(#radial-gradient-8);}.cls-27{mask:url(#mask-7);}.cls-28{fill:url(#radial-gradient-9);}.cls-29{mask:url(#mask-8);}.cls-30{fill:url(#radial-gradient-10);}</style><linearGradient id="linear-gradient" x1="-427.68" y1="490.378" x2="-427.68" y2="480.798" gradientTransform="translate(478.672 -318.614) scale(0.916 0.901)" gradientUnits="userSpaceOnUse"><stop offset="0.071"/><stop offset="0.12" stop-color="#1e1e1e"/><stop offset="0.223" stop-color="#595959"/><stop offset="0.327" stop-color="#8c8c8c"/><stop offset="0.428" stop-color="#b5b5b5"/><stop offset="0.526" stop-color="#d5d5d5"/><stop offset="0.62" stop-color="#ececec"/><stop offset="0.708" stop-color="#fafafa"/><stop offset="0.785" stop-color="#fff"/></linearGradient><linearGradient id="linear-gradient-2" x1="-427.68" y1="525.156" x2="-427.68" y2="515.577" gradientTransform="translate(478.672 -318.614) scale(0.916 0.901)" gradientUnits="userSpaceOnUse"><stop offset="0.398" stop-color="#fff"/><stop offset="0.445" stop-color="#f6f6f6"/><stop offset="0.519" stop-color="#dedede"/><stop offset="0.613" stop-color="#b8b8b8"/><stop offset="0.723" stop-color="#828282"/><stop offset="0.843" stop-color="#3e3e3e"/><stop offset="0.943"/></linearGradient><linearGradient id="linear-gradient-3" x1="-421.976" y1="128.64" x2="-421.976" y2="143.332" gradientTransform="translate(569.206 -63.137) scale(1.18 0.846)" gradientUnits="userSpaceOnUse"><stop offset="0.225" stop-color="#fff"/><stop offset="0.289" stop-color="#f9f9f9"/><stop offset="0.373" stop-color="#e8e8e8"/><stop offset="0.469" stop-color="#cdcdcd"/><stop offset="0.574" stop-color="#a6a6a6"/><stop offset="0.685" stop-color="#757575"/><stop offset="0.801" stop-color="#3a3a3a"/><stop offset="0.901"/></linearGradient><linearGradient id="linear-gradient-4" x1="-403.435" y1="441.81" x2="-403.435" y2="430.18" gradientTransform="translate(490.283 -346.787)" gradientUnits="userSpaceOnUse"><stop offset="0.107" stop-color="#fff"/><stop offset="0.18" stop-color="#f8f8f8"/><stop offset="0.287" stop-color="#e5e5e5"/><stop offset="0.415" stop-color="#c5c5c5"/><stop offset="0.558" stop-color="#989898"/><stop offset="0.715" stop-color="#5f5f5f"/><stop offset="0.88" stop-color="#1b1b1b"/><stop offset="0.941"/></linearGradient><linearGradient id="linear-gradient-5" x1="99.153" y1="490.378" x2="99.153" y2="480.798" gradientTransform="matrix(0.916, 0, 0, -0.901, 22.235, 556.694)" xlink:href="#linear-gradient"/><linearGradient id="linear-gradient-6" x1="99.153" y1="525.156" x2="99.153" y2="515.577" gradientTransform="matrix(0.916, 0, 0, -0.901, 22.235, 619.384)" xlink:href="#linear-gradient-2"/><linearGradient id="linear-gradient-7" x1="-132.929" y1="532.094" x2="-132.929" y2="546.785" gradientTransform="matrix(1.18, 0, 0, -0.846, 285.838, 508.083)" xlink:href="#linear-gradient-3"/><linearGradient id="linear-gradient-8" x1="79.106" y1="441.81" x2="79.106" y2="430.18" gradientTransform="matrix(1, 0, 0, -1, 34.046, 525.203)" xlink:href="#linear-gradient-4"/><linearGradient id="linear-gradient-9" x1="-411.291" y1="481.498" x2="-395.283" y2="481.498" gradientTransform="translate(425.82 -392.4)" gradientUnits="userSpaceOnUse"><stop offset="0.088" stop-color="#127864"/><stop offset="0.299" stop-color="#53af89"/><stop offset="0.537" stop-color="#97e8b0"/><stop offset="0.649" stop-color="#b2ffbf"/><stop offset="0.701" stop-color="#adfbbc"/><stop offset="0.766" stop-color="#9eeeb4"/><stop offset="0.836" stop-color="#85d9a6"/><stop offset="0.91" stop-color="#63bc92"/><stop offset="0.987" stop-color="#379879"/><stop offset="1" stop-color="#2f9175"/></linearGradient><mask id="mask" x="14.213" y="69.11" width="16.543" height="8.634" maskUnits="userSpaceOnUse"><g transform="translate(-64.463 -45.613)"><rect class="cls-1" x="78.676" y="114.723" width="16.543" height="8.634"/></g></mask><radialGradient id="radial-gradient" cx="-400.886" cy="469.175" r="9.921" gradientTransform="translate(490.283 -346.787)" gradientUnits="userSpaceOnUse"><stop offset="0.071" stop-color="#b2ffbf"/><stop offset="0.222" stop-color="#84d9a5"/><stop offset="0.406" stop-color="#53af89"/><stop offset="0.568" stop-color="#309175"/><stop offset="0.7" stop-color="#1a7f69"/><stop offset="0.785" stop-color="#127864"/></radialGradient><linearGradient id="linear-gradient-10" x1="-405.262" y1="451.949" x2="-401.312" y2="451.949" xlink:href="#linear-gradient-9"/><mask id="mask-2" x="14.213" y="100.455" width="16.543" height="8.634" maskUnits="userSpaceOnUse"><g transform="translate(-64.463 -45.613)"><rect class="cls-2" x="78.676" y="146.068" width="16.543" height="8.634"/></g></mask><radialGradient id="radial-gradient-2" cx="-400.711" cy="493.838" r="9.53" gradientTransform="translate(490.283 -346.787)" gradientUnits="userSpaceOnUse"><stop offset="0.126" stop-color="#b2ffbf"/><stop offset="0.149" stop-color="#a7f6b9"/><stop offset="0.25" stop-color="#7ad09f"/><stop offset="0.351" stop-color="#54b08a"/><stop offset="0.452" stop-color="#379879"/><stop offset="0.552" stop-color="#23866d"/><stop offset="0.65" stop-color="#167c66"/><stop offset="0.744" stop-color="#127864"/></radialGradient><radialGradient id="radial-gradient-3" cx="-474.213" cy="294.945" r="21.084" gradientTransform="matrix(-0.893, 0.449, -0.742, -1.475, -133.65, 720.777)" gradientUnits="userSpaceOnUse"><stop offset="0.41" stop-color="#349578"/><stop offset="0.528" stop-color="#65be94"/><stop offset="0.644" stop-color="#8fe1ab"/><stop offset="0.735" stop-color="#a9f7ba"/><stop offset="0.79" stop-color="#b2ffbf"/><stop offset="0.817" stop-color="#acfabc"/><stop offset="0.852" stop-color="#9dedb3"/><stop offset="0.89" stop-color="#83d7a4"/><stop offset="0.932" stop-color="#5eb88f"/><stop offset="0.975" stop-color="#309275"/><stop offset="1" stop-color="#127864"/></radialGradient><mask id="mask-3" x="-3.908" y="-4.269" width="21.049" height="21.049" maskUnits="userSpaceOnUse"><g transform="translate(-64.463 -45.613)"><rect class="cls-3" x="62.408" y="45.657" width="17.343" height="12.425" transform="translate(-15.858 65.453) rotate(-45)"/></g></mask><radialGradient id="radial-gradient-4" cx="-462.931" cy="278.986" r="8.896" gradientTransform="matrix(-0.678, 0.735, -0.862, -0.796, 1.771, 615.773)" gradientUnits="userSpaceOnUse"><stop offset="0.08" stop-color="#b2ffbf"/><stop offset="0.165" stop-color="#9becb2"/><stop offset="0.365" stop-color="#6bc396"/><stop offset="0.556" stop-color="#44a281"/><stop offset="0.73" stop-color="#298b71"/><stop offset="0.884" stop-color="#187d67"/><stop offset="1" stop-color="#127864"/></radialGradient><mask id="mask-4" x="13.95" y="37.779" width="16.87" height="11.63" maskUnits="userSpaceOnUse"><g transform="translate(-64.463 -45.613)"><rect class="cls-4" x="78.413" y="83.393" width="16.87" height="11.63"/></g></mask><radialGradient id="radial-gradient-5" cx="-461.864" cy="313.458" r="8.328" gradientTransform="matrix(-1, 0.009, -0.012, -1.286, -368.069, 491.987)" gradientUnits="userSpaceOnUse"><stop offset="0.107" stop-color="#b2ffbf"/><stop offset="0.137" stop-color="#a9f8ba"/><stop offset="0.338" stop-color="#74ca9c"/><stop offset="0.526" stop-color="#49a784"/><stop offset="0.695" stop-color="#2b8d72"/><stop offset="0.839" stop-color="#197e68"/><stop offset="0.941" stop-color="#127864"/></radialGradient><linearGradient id="linear-gradient-11" x1="71.25" y1="481.498" x2="87.258" y2="481.498" gradientTransform="matrix(1, 0, 0, -1, 33.75, 616.209)" gradientUnits="userSpaceOnUse"><stop offset="0" stop-color="#2f9175"/><stop offset="0.013" stop-color="#379879"/><stop offset="0.09" stop-color="#63bc92"/><stop offset="0.164" stop-color="#85d9a6"/><stop offset="0.234" stop-color="#9eeeb4"/><stop offset="0.299" stop-color="#adfbbc"/><stop offset="0.351" stop-color="#b2ffbf"/><stop offset="0.463" stop-color="#97e8b0"/><stop offset="0.701" stop-color="#53af89"/><stop offset="0.912" stop-color="#127864"/></linearGradient><mask id="mask-5" x="40.318" y="69.11" width="16.543" height="8.634" maskUnits="userSpaceOnUse"><g transform="translate(-64.463 -45.613)"><rect class="cls-5" x="104.781" y="114.723" width="16.543" height="8.634" transform="translate(226.105 238.08) rotate(-180)"/></g></mask><radialGradient id="radial-gradient-6" cx="76.531" cy="469.175" r="9.921" gradientTransform="matrix(-1, 0, 0, 1, 192.259, -346.787)" xlink:href="#radial-gradient"/><linearGradient id="linear-gradient-12" x1="77.279" y1="451.949" x2="81.23" y2="451.949" gradientTransform="matrix(1, 0, 0, -1, 33.75, 557.11)" xlink:href="#linear-gradient-11"/><mask id="mask-6" x="40.318" y="100.455" width="16.543" height="8.634" maskUnits="userSpaceOnUse"><g transform="translate(-64.463 -45.613)"><rect class="cls-6" x="104.781" y="146.068" width="16.543" height="8.634" transform="translate(226.105 300.77) rotate(-180)"/></g></mask><radialGradient id="radial-gradient-7" cx="76.83" cy="493.838" r="9.53" gradientTransform="matrix(-1, 0, 0, 1, 192.259, -346.787)" xlink:href="#radial-gradient-2"/><radialGradient id="radial-gradient-8" cx="-32.871" cy="490.043" r="21.084" gradientTransform="matrix(0.893, 0.449, 0.742, -1.475, -205.352, 810.348)" gradientUnits="userSpaceOnUse"><stop offset="0.41" stop-color="#349578"/><stop offset="0.487" stop-color="#65be94"/><stop offset="0.564" stop-color="#8fe1ab"/><stop offset="0.624" stop-color="#a9f7ba"/><stop offset="0.659" stop-color="#b2ffbf"/><stop offset="1" stop-color="#127864"/></radialGradient><mask id="mask-7" x="53.933" y="-4.269" width="21.049" height="21.049" maskUnits="userSpaceOnUse"><g transform="translate(-64.463 -45.613)"><rect class="cls-7" x="120.249" y="45.657" width="17.343" height="12.425" transform="translate(183.404 179.706) rotate(-135)"/></g></mask><radialGradient id="radial-gradient-9" cx="-24.118" cy="475.015" r="8.896" gradientTransform="matrix(0.678, 0.735, 0.862, -0.796, -266.515, 451.245)" xlink:href="#radial-gradient-4"/><mask id="mask-8" x="40.255" y="37.779" width="16.87" height="11.63" maskUnits="userSpaceOnUse"><g transform="translate(-64.463 -45.613)"><rect class="cls-8" x="104.718" y="83.393" width="16.87" height="11.63" transform="translate(226.305 178.415) rotate(-180)"/></g></mask><radialGradient id="radial-gradient-10" cx="-24.244" cy="506.773" r="8.328" gradientTransform="matrix(1, 0.009, 0.012, -1.286, 132.32, 736.484)" xlink:href="#radial-gradient-5"/></defs><title>VEGFR</title><g id="VEGFR"><rect class="cls-9" x="14.529" y="69.421" width="16.008" height="39.352" rx="8.004" ry="8.004"/><g class="cls-10"><path class="cls-11" d="M78.992,123.039a8,8,0,0,1,8-8h0a8,8,0,0,1,8,8Z" transform="translate(-64.463 -45.613)"/></g><rect class="cls-12" x="20.558" y="46.59" width="3.95" height="25.917" rx="1.603" ry="1.603"/><g class="cls-13"><path class="cls-14" d="M87,154.387h0a8,8,0,0,1-8-8H95A8,8,0,0,1,87,154.387Z" transform="translate(-64.463 -45.613)"/></g><path class="cls-15" d="M87,94.764c-6.448,0-8.006-4.931-8.006-10.756,0-9.627-3.715-16.423-9.816-22.2-3.264-3.187-7.306-8.725-2.494-13.538s8.94-2.411,13.508,1.918A46.514,46.514,0,0,1,95,83.683C95,89.355,93.444,94.764,87,94.764Z" transform="translate(-64.463 -45.613)"/><g class="cls-16"><path class="cls-17" d="M69.174,61.8c-3.264-3.187-7.306-8.725-2.494-13.538s8.94-2.411,13.508,1.918Z" transform="translate(-64.463 -45.613)"/></g><g class="cls-18"><path class="cls-19" d="M87,94.764c-6.448,0-8.006-4.931-8.006-10.756L95,83.683C95,89.355,93.444,94.764,87,94.764Z" transform="translate(-64.463 -45.613)"/></g><g id="_Group_" data-name="&lt;Group&gt;"><rect class="cls-20" x="105" y="115.035" width="16.008" height="39.352" rx="8.004" ry="8.004" transform="translate(161.546 223.808) rotate(-180)"/><g class="cls-21"><path class="cls-22" d="M121.008,123.039a8,8,0,0,0-8-8h0a8,8,0,0,0-8,8Z" transform="translate(-64.463 -45.613)"/></g><rect class="cls-23" x="111.029" y="92.203" width="3.95" height="25.917" rx="1.603" ry="1.603" transform="translate(161.546 164.71) rotate(180)"/><g class="cls-24"><path class="cls-25" d="M113,154.387h0a8,8,0,0,0,8-8H105A8,8,0,0,0,113,154.387Z" transform="translate(-64.463 -45.613)"/></g><path class="cls-26" d="M113,94.764c6.448,0,8.006-4.931,8.006-10.756,0-9.627,3.715-16.423,9.816-22.2,3.264-3.187,7.306-8.725,2.494-13.538s-8.94-2.411-13.508,1.918A46.514,46.514,0,0,0,105,83.683C105,89.355,106.556,94.764,113,94.764Z" transform="translate(-64.463 -45.613)"/><g class="cls-27"><path class="cls-28" d="M130.826,61.8c3.264-3.187,7.306-8.725,2.494-13.538s-8.94-2.411-13.508,1.918Z" transform="translate(-64.463 -45.613)"/></g><g class="cls-29"><path class="cls-30" d="M113,94.764c6.448,0,8.006-4.931,8.006-10.756L105,83.683C105,89.355,106.556,94.764,113,94.764Z" transform="translate(-64.463 -45.613)"/></g></g></g></svg>