<svg id="Layer_1" data-name="Layer 1" xmlns="http://www.w3.org/2000/svg" xmlns:xlink="http://www.w3.org/1999/xlink" viewBox="0 0 14.142 104.073"><defs><style>.cls-1{fill:url(#linear-gradient);}.cls-2{fill:url(#linear-gradient-2);}.cls-3{fill:url(#linear-gradient-3);}.cls-4{fill:url(#linear-gradient-4);}.cls-5{fill:url(#linear-gradient-5);}.cls-6{fill:url(#linear-gradient-6);}.cls-7{fill:url(#linear-gradient-7);}.cls-8{fill:url(#linear-gradient-8);}.cls-9{fill:url(#linear-gradient-9);}</style><linearGradient id="linear-gradient" x1="540.931" y1="-222.032" x2="533.931" y2="-222.032" gradientTransform="translate(-439.148 323.648)" gradientUnits="userSpaceOnUse"><stop offset="0" stop-color="#0cf"/><stop offset="0.303" stop-color="#00aad4"/><stop offset="0.986" stop-color="#005468"/><stop offset="1" stop-color="#005266"/></linearGradient><linearGradient id="linear-gradient-2" x1="537.431" y1="-237.601" x2="537.431" y2="-223.459" gradientTransform="translate(315.295 -449.914) rotate(135)" xlink:href="#linear-gradient"/><linearGradient id="linear-gradient-3" x1="537.431" y1="-247.602" x2="537.431" y2="-233.46" gradientTransform="translate(308.224 -466.986) rotate(135)" xlink:href="#linear-gradient"/><linearGradient id="linear-gradient-4" x1="537.431" y1="-257.603" x2="537.431" y2="-243.461" gradientTransform="translate(301.152 -484.058) rotate(135)" xlink:href="#linear-gradient"/><linearGradient id="linear-gradient-5" x1="537.431" y1="-202.599" x2="537.431" y2="-188.457" gradientTransform="translate(340.045 -390.161) rotate(135)" xlink:href="#linear-gradient"/><linearGradient id="linear-gradient-6" x1="537.431" y1="-212.6" x2="537.431" y2="-198.458" gradientTransform="translate(332.974 -407.233) rotate(135)" xlink:href="#linear-gradient"/><linearGradient id="linear-gradient-7" x1="537.431" y1="-222.601" x2="537.431" y2="-208.458" gradientTransform="translate(325.902 -424.305) rotate(135)" xlink:href="#linear-gradient"/><linearGradient id="linear-gradient-8" x1="537.431" y1="-267.603" x2="537.431" y2="-253.461" gradientTransform="translate(294.081 -501.13) rotate(135)" xlink:href="#linear-gradient"/><linearGradient id="linear-gradient-9" x1="537.431" y1="-277.604" x2="537.431" y2="-263.462" gradientTransform="translate(287.009 -518.202) rotate(135)" xlink:href="#linear-gradient"/></defs><title>NEPHS1</title><g id="NEPHS1"><path class="cls-1" d="M101.784,56.615v90a3.5,3.5,0,1,1-7,0v-90a3.5,3.5,0,1,1,7,0Z" transform="translate(-91.212 -46.044)"/><rect class="cls-2" x="93.284" y="88.117" width="10" height="10" transform="translate(10.724 182.414) rotate(-135)"/><rect class="cls-3" x="93.284" y="78.117" width="10" height="10" transform="translate(17.796 165.342) rotate(-135)"/><rect class="cls-4" x="93.284" y="68.116" width="10" height="10" transform="translate(24.867 148.27) rotate(-135)"/><rect class="cls-5" x="93.284" y="123.12" width="10" height="10" transform="translate(-14.026 242.167) rotate(-135)"/><rect class="cls-6" x="93.284" y="113.119" width="10" height="10" transform="translate(-6.955 225.095) rotate(-135)"/><rect class="cls-7" x="93.284" y="103.118" width="10" height="10" transform="translate(0.117 208.023) rotate(-135)"/><rect class="cls-8" x="93.284" y="58.115" width="10" height="10" transform="translate(31.939 131.198) rotate(-135)"/><rect class="cls-9" x="93.284" y="48.115" width="10" height="10" transform="translate(39.01 114.126) rotate(-135)"/></g></svg>