<svg id="Layer_1" data-name="Layer 1" xmlns="http://www.w3.org/2000/svg" xmlns:xlink="http://www.w3.org/1999/xlink" viewBox="0 0 34.002 39.301"><defs><style>.cls-1{fill:url(#linear-gradient);}.cls-2{fill:url(#linear-gradient-2);}.cls-3{fill:url(#linear-gradient-3);}.cls-4{fill:url(#linear-gradient-4);}.cls-5{fill:url(#linear-gradient-5);}.cls-6{fill:url(#linear-gradient-6);}.cls-7{fill:url(#radial-gradient);}.cls-8{fill:url(#linear-gradient-7);}.cls-9{mask:url(#mask);}.cls-10{fill:url(#radial-gradient-2);}.cls-11{fill:url(#linear-gradient-8);}.cls-12{mask:url(#mask-2);}.cls-13{fill:url(#radial-gradient-3);}.cls-14{fill:url(#linear-gradient-9);}.cls-15{mask:url(#mask-3);}.cls-16{fill:url(#radial-gradient-4);}.cls-17{fill:url(#linear-gradient-10);}.cls-18{mask:url(#mask-4);}.cls-19{fill:url(#radial-gradient-5);}.cls-20{fill:url(#linear-gradient-11);}.cls-21{mask:url(#mask-5);}.cls-22{fill:url(#radial-gradient-6);}</style><linearGradient id="linear-gradient" x1="90.813" y1="80.88" x2="90.813" y2="117.934" gradientUnits="userSpaceOnUse"><stop offset="0" stop-color="#fff"/><stop offset="0.018" stop-color="#e4e4e4"/><stop offset="0.067" stop-color="#9f9f9f"/><stop offset="0.114" stop-color="#676767"/><stop offset="0.156" stop-color="#3a3a3a"/><stop offset="0.194" stop-color="#1a1a1a"/><stop offset="0.226" stop-color="#070707"/><stop offset="0.248"/></linearGradient><linearGradient id="linear-gradient-2" x1="107.814" y1="82.881" x2="107.814" y2="119.934" xlink:href="#linear-gradient"/><linearGradient id="linear-gradient-3" x1="89.016" y1="85.052" x2="89.016" y2="122.105" xlink:href="#linear-gradient"/><linearGradient id="linear-gradient-4" x1="105.496" y1="86.778" x2="105.496" y2="123.832" xlink:href="#linear-gradient"/><linearGradient id="linear-gradient-5" x1="97.541" y1="88.377" x2="97.541" y2="125.431" xlink:href="#linear-gradient"/><linearGradient id="linear-gradient-6" x1="92.359" y1="93.609" x2="107.814" y2="93.609" gradientUnits="userSpaceOnUse"><stop offset="0" stop-color="#71719e"/><stop offset="0.009" stop-color="#7878a8"/><stop offset="0.042" stop-color="#8e8ec7"/><stop offset="0.077" stop-color="#a0a0e0"/><stop offset="0.114" stop-color="#acacf1"/><stop offset="0.153" stop-color="#b4b4fc"/><stop offset="0.199" stop-color="#b6b6ff"/><stop offset="0.283" stop-color="#b0b0f6"/><stop offset="0.419" stop-color="#9f9fde"/><stop offset="0.59" stop-color="#8383b7"/><stop offset="0.789" stop-color="#5c5c81"/><stop offset="1" stop-color="#2e2e40"/></linearGradient><radialGradient id="radial-gradient" cx="155.056" cy="81.716" r="11.154" gradientTransform="translate(-22.294 46.944) scale(0.773 0.426)" gradientUnits="userSpaceOnUse"><stop offset="0" stop-color="#b6b6ff"/><stop offset="0.105" stop-color="#b0b0f6"/><stop offset="0.275" stop-color="#9f9fde"/><stop offset="0.488" stop-color="#8383b7"/><stop offset="0.737" stop-color="#5c5c81"/><stop offset="1" stop-color="#2e2e40"/></radialGradient><linearGradient id="linear-gradient-7" x1="83.086" y1="95.907" x2="98.541" y2="95.907" gradientUnits="userSpaceOnUse"><stop offset="0" stop-color="#9e719e"/><stop offset="0.009" stop-color="#a878a8"/><stop offset="0.042" stop-color="#c78ec7"/><stop offset="0.077" stop-color="#e0a0e0"/><stop offset="0.114" stop-color="#f1acf1"/><stop offset="0.153" stop-color="#fcb4fc"/><stop offset="0.199" stop-color="#ffb6ff"/><stop offset="0.283" stop-color="#f6b0f6"/><stop offset="0.419" stop-color="#de9fde"/><stop offset="0.59" stop-color="#b783b7"/><stop offset="0.789" stop-color="#815c81"/><stop offset="1" stop-color="#402e40"/></linearGradient><mask id="mask" x="0.521" y="2.025" width="17.505" height="37.054" maskUnits="userSpaceOnUse"><g transform="translate(-81.54 -78.856)"><rect class="cls-1" x="82.061" y="80.88" width="17.505" height="37.054"/></g></mask><radialGradient id="radial-gradient-2" cx="143.123" cy="84.524" r="11.053" gradientTransform="translate(-22.294 42.425) scale(0.773 0.498)" gradientUnits="userSpaceOnUse"><stop offset="0" stop-color="#ffb6ff"/><stop offset="0.105" stop-color="#f6b0f6"/><stop offset="0.275" stop-color="#de9fde"/><stop offset="0.488" stop-color="#b783b7"/><stop offset="0.737" stop-color="#815c81"/><stop offset="1" stop-color="#402e40"/></radialGradient><linearGradient id="linear-gradient-8" x1="100.087" y1="97.907" x2="115.542" y2="97.907" gradientUnits="userSpaceOnUse"><stop offset="0" stop-color="#719e9e"/><stop offset="0.009" stop-color="#78a8a8"/><stop offset="0.042" stop-color="#8ec7c7"/><stop offset="0.077" stop-color="#a0e0e0"/><stop offset="0.114" stop-color="#acf1f1"/><stop offset="0.153" stop-color="#b4fcfc"/><stop offset="0.199" stop-color="#b6ffff"/><stop offset="0.283" stop-color="#b0f6f6"/><stop offset="0.419" stop-color="#9fdede"/><stop offset="0.59" stop-color="#83b7b7"/><stop offset="0.789" stop-color="#5c8181"/><stop offset="1" stop-color="#2e4040"/></linearGradient><mask id="mask-2" x="17.522" y="4.025" width="17.505" height="37.054" maskUnits="userSpaceOnUse"><g transform="translate(-81.54 -78.856)"><rect class="cls-2" x="99.062" y="82.881" width="17.505" height="37.054"/></g></mask><radialGradient id="radial-gradient-3" cx="165.249" cy="86.289" r="10.971" gradientTransform="translate(-22.294 42.824) scale(0.773 0.504)" gradientUnits="userSpaceOnUse"><stop offset="0" stop-color="#b6ffff"/><stop offset="0.105" stop-color="#b0f6f6"/><stop offset="0.275" stop-color="#9fdede"/><stop offset="0.488" stop-color="#83b7b7"/><stop offset="0.737" stop-color="#5c8181"/><stop offset="1" stop-color="#2e4040"/></radialGradient><linearGradient id="linear-gradient-9" x1="81.54" y1="99.805" x2="96.995" y2="99.805" gradientUnits="userSpaceOnUse"><stop offset="0" stop-color="#9e7171"/><stop offset="0.009" stop-color="#a87878"/><stop offset="0.042" stop-color="#c78e8e"/><stop offset="0.077" stop-color="#e0a0a0"/><stop offset="0.114" stop-color="#f1acac"/><stop offset="0.153" stop-color="#fcb4b4"/><stop offset="0.199" stop-color="#ffb6b6"/><stop offset="0.283" stop-color="#f6b0b0"/><stop offset="0.419" stop-color="#de9f9f"/><stop offset="0.59" stop-color="#b78383"/><stop offset="0.789" stop-color="#815c5c"/><stop offset="1" stop-color="#402e2e"/></linearGradient><mask id="mask-3" x="-1.277" y="6.196" width="17.505" height="37.054" maskUnits="userSpaceOnUse"><g transform="translate(-81.54 -78.856)"><rect class="cls-3" x="80.264" y="85.052" width="17.505" height="37.054"/></g></mask><radialGradient id="radial-gradient-4" cx="141.123" cy="88.332" r="11.099" gradientTransform="translate(-22.294 45.455) scale(0.773 0.485)" gradientUnits="userSpaceOnUse"><stop offset="0.199" stop-color="#ffb6b6"/><stop offset="0.283" stop-color="#f6b0b0"/><stop offset="0.419" stop-color="#de9f9f"/><stop offset="0.59" stop-color="#b78383"/><stop offset="0.789" stop-color="#815c5c"/><stop offset="1" stop-color="#402e2e"/></radialGradient><linearGradient id="linear-gradient-10" x1="97.769" y1="101.805" x2="113.223" y2="101.805" gradientUnits="userSpaceOnUse"><stop offset="0.58" stop-color="#719e71"/><stop offset="0.656" stop-color="#7bab7b"/><stop offset="0.726" stop-color="#7eb07e"/><stop offset="0.769" stop-color="#79aa79"/><stop offset="0.827" stop-color="#6d986d"/><stop offset="0.895" stop-color="#587b58"/><stop offset="0.97" stop-color="#3b523b"/><stop offset="1" stop-color="#2e402e"/></linearGradient><mask id="mask-4" x="15.204" y="7.922" width="17.505" height="37.054" maskUnits="userSpaceOnUse"><g transform="translate(-81.54 -78.856)"><rect class="cls-4" x="96.744" y="86.778" width="17.505" height="37.054"/></g></mask><radialGradient id="radial-gradient-5" cx="162.124" cy="90.388" r="11.087" gradientTransform="translate(-22.294 47.506) scale(0.773 0.474)" gradientUnits="userSpaceOnUse"><stop offset="0" stop-color="#b6ffb6"/><stop offset="0.105" stop-color="#b0f6b0"/><stop offset="0.275" stop-color="#9fde9f"/><stop offset="0.488" stop-color="#83b783"/><stop offset="0.737" stop-color="#5c815c"/><stop offset="1" stop-color="#2e402e"/></radialGradient><linearGradient id="linear-gradient-11" x1="89.814" y1="103.404" x2="105.268" y2="103.404" gradientUnits="userSpaceOnUse"><stop offset="0" stop-color="#9e9e71"/><stop offset="0.009" stop-color="#a8a878"/><stop offset="0.042" stop-color="#c7c78e"/><stop offset="0.077" stop-color="#e0e0a0"/><stop offset="0.114" stop-color="#f1f1ac"/><stop offset="0.153" stop-color="#fcfcb4"/><stop offset="0.199" stop-color="#ffffb6"/><stop offset="0.283" stop-color="#f6f6b0"/><stop offset="0.419" stop-color="#dede9f"/><stop offset="0.59" stop-color="#b7b783"/><stop offset="0.789" stop-color="#81815c"/><stop offset="1" stop-color="#40402e"/></linearGradient><mask id="mask-5" x="7.248" y="9.521" width="17.505" height="37.054" maskUnits="userSpaceOnUse"><g transform="translate(-81.54 -78.856)"><rect class="cls-5" x="88.789" y="88.377" width="17.505" height="37.054"/></g></mask><radialGradient id="radial-gradient-6" cx="151.829" cy="91.987" r="11.087" gradientTransform="translate(-22.294 47.476) scale(0.773 0.484)" gradientUnits="userSpaceOnUse"><stop offset="0" stop-color="#ffffb6"/><stop offset="0.105" stop-color="#f6f6b0"/><stop offset="0.275" stop-color="#dede9f"/><stop offset="0.488" stop-color="#b7b783"/><stop offset="0.737" stop-color="#81815c"/><stop offset="1" stop-color="#40402e"/></radialGradient></defs><title>exosome complex</title><g id="exosome_complex" data-name="exosome complex"><path class="cls-6" d="M92.359,104.566V83.547c0-3.048,3.113-4.692,7.727-4.692s7.727,1.643,7.727,4.692v21.018c0,2.218-3.112,3.8-7.727,3.8S92.359,106.784,92.359,104.566Z" transform="translate(-81.54 -78.856)"/><path class="cls-7" d="M92.359,104.566V83.547c0-3.048,3.113-4.692,7.727-4.692s7.727,1.643,7.727,4.692v21.018c0,2.218-3.112,3.8-7.727,3.8S92.359,106.784,92.359,104.566Z" transform="translate(-81.54 -78.856)"/><path class="cls-8" d="M83.086,106.864V85.846c0-3.048,3.113-4.692,7.727-4.692s7.727,1.643,7.727,4.692v21.018c0,2.218-3.112,3.8-7.727,3.8S83.086,109.082,83.086,106.864Z" transform="translate(-81.54 -78.856)"/><g class="cls-9"><path class="cls-10" d="M83.086,106.864V85.846c0-3.048,3.113-4.692,7.727-4.692s7.727,1.643,7.727,4.692v21.018c0,2.218-3.112,3.8-7.727,3.8S83.086,109.082,83.086,106.864Z" transform="translate(-81.54 -78.856)"/></g><path class="cls-11" d="M100.087,108.864V87.846c0-3.048,3.113-4.692,7.727-4.692s7.727,1.643,7.727,4.692v21.018c0,2.218-3.112,3.8-7.727,3.8S100.087,111.082,100.087,108.864Z" transform="translate(-81.54 -78.856)"/><g class="cls-12"><path class="cls-13" d="M100.087,108.864V87.846c0-3.048,3.113-4.692,7.727-4.692s7.727,1.643,7.727,4.692v21.018c0,2.218-3.112,3.8-7.727,3.8S100.087,111.082,100.087,108.864Z" transform="translate(-81.54 -78.856)"/></g><path class="cls-14" d="M81.54,110.762V89.743c0-3.048,3.113-4.692,7.727-4.692s7.727,1.643,7.727,4.692v21.018c0,2.218-3.112,3.8-7.727,3.8S81.54,112.98,81.54,110.762Z" transform="translate(-81.54 -78.856)"/><g class="cls-15"><path class="cls-16" d="M81.54,110.66V89.743c0-3.048,3.113-4.692,7.727-4.692s7.727,1.643,7.727,4.692V110.66c0,2.218-3.112,3.8-7.727,3.8S81.54,112.878,81.54,110.66Z" transform="translate(-81.54 -78.856)"/></g><path class="cls-17" d="M97.769,112.762V91.743c0-3.048,3.113-4.692,7.727-4.692s7.727,1.643,7.727,4.692v21.018c0,2.218-3.112,3.8-7.727,3.8S97.769,114.98,97.769,112.762Z" transform="translate(-81.54 -78.856)"/><g class="cls-18"><path class="cls-19" d="M97.769,112.762V91.743c0-3.048,3.113-4.692,7.727-4.692s7.727,1.643,7.727,4.692v21.018c0,2.218-3.112,3.8-7.727,3.8S97.769,114.98,97.769,112.762Z" transform="translate(-81.54 -78.856)"/></g><path class="cls-20" d="M89.814,114.361V93.342c0-3.048,3.113-4.692,7.727-4.692s7.727,1.643,7.727,4.692v21.018c0,2.218-3.112,3.8-7.727,3.8S89.814,116.579,89.814,114.361Z" transform="translate(-81.54 -78.856)"/><g class="cls-21"><path class="cls-22" d="M89.814,114.361V93.342c0-3.048,3.113-4.692,7.727-4.692s7.727,1.643,7.727,4.692v21.018c0,2.218-3.112,3.8-7.727,3.8S89.814,116.579,89.814,114.361Z" transform="translate(-81.54 -78.856)"/></g></g></svg>