<svg id="Layer_1" data-name="Layer 1" xmlns="http://www.w3.org/2000/svg" xmlns:xlink="http://www.w3.org/1999/xlink" viewBox="0 0 74.292 77.107"><defs><style>.cls-1{fill:url(#radial-gradient);}.cls-2{fill:#e2a429;}.cls-3{fill:url(#radial-gradient-2);}.cls-4{fill:#821026;}</style><radialGradient id="radial-gradient" cx="87.854" cy="106.838" r="36.328" gradientTransform="matrix(1, 0, 0, -1.386, 0, 239.072)" gradientUnits="userSpaceOnUse"><stop offset="0.001" stop-color="#ffd1dc"/><stop offset="0.048" stop-color="#f1c3be"/><stop offset="0.129" stop-color="#ddaf92"/><stop offset="0.216" stop-color="#cb9d6b"/><stop offset="0.308" stop-color="#bc8e4a"/><stop offset="0.407" stop-color="#af812f"/><stop offset="0.513" stop-color="#a6781a"/><stop offset="0.633" stop-color="#9f710b"/><stop offset="0.775" stop-color="#9b6d03"/><stop offset="1" stop-color="#9a6c00"/></radialGradient><radialGradient id="radial-gradient-2" cx="111.71" cy="113.53" r="14.294" gradientTransform="matrix(1, 0, 0, -1.386, -62.531, 180.565)" gradientUnits="userSpaceOnUse"><stop offset="0.001" stop-color="#ffd1dc"/><stop offset="0.072" stop-color="#f2b8c3"/><stop offset="0.183" stop-color="#e096a3"/><stop offset="0.303" stop-color="#d17b89"/><stop offset="0.433" stop-color="#c66675"/><stop offset="0.577" stop-color="#be5766"/><stop offset="0.745" stop-color="#b94e5e"/><stop offset="1" stop-color="#b84b5b"/></radialGradient></defs><title>B_cell</title><g id="B_CELL" data-name="B CELL"><g id="CELL"><path class="cls-1" d="M135.335,98.48c0,1.76.24,5.72,0,7.41a43.118,43.118,0,0,1-3.32,10.15c-1.86,4.33-1.76,9.17-5.97,10.27-3.26.85-5.06,4.47-8,6.15-2.73,1.57-6.53,1.08-9.65,1.92s-5.53,3-8.91,3c-3.45,0-5.28-1.54-8.45-2.42-3.66-1.01-8.6-1.48-11.71-3.49-2.8-1.8-4.21-4.59-6.43-7.05-2.24-2.48-5.29-4.64-6.81-7.66-1.39-2.78-1.11-5.61-1.78-8.73a39.169,39.169,0,0,1-.78-8.02c0-3.66.86-5.91,1.17-9.35.47-5.24,2.62-6.81,4.29-9.56,1.94-3.19,2.93-6.57,5.71-9.04,3.15-2.8,7.11-2.42,11.07-4.04,4.34-1.76,8.75-5.38,13.72-5.38,4.18,0,7.5,1.8,11.25,3.07,3.42,1.16,7.33,1.68,10.23,3.72,1.2.85,2.01,2.82,3.1,3.79,3.19,2.86,4.78,5.77,6.83,9.57,1.23,2.28,3.69,4.13,4.44,6.66C136.325,92.82,135.335,94.81,135.335,98.48Z" transform="translate(-62.531 -61.493)"/><path class="cls-2" d="M136.225,93.13a5,5,0,0,0,.38-3.87,4.841,4.841,0,0,0-1.02-1.89,4.534,4.534,0,0,0-1.53-1.14,9.988,9.988,0,0,0-.96-2.16q-.225-.4-.45-.78c-.23-.39-.45-.77-.66-1.16a16.68,16.68,0,0,0-1.38-2.05,10.4,10.4,0,0,0-1.69-1.7,8.263,8.263,0,0,0-.88-2.41,10.361,10.361,0,0,0-1.56-2.15c-.32-.33-.64-.64-.96-.91-.25-.21-.53-.41-.77-.58l-.21-.15c-.22-.16-.43-.35-.66-.55a11.826,11.826,0,0,0-1.18-.93,5.082,5.082,0,0,0-.64-1.41,4.256,4.256,0,0,0-.61-.69,6.416,6.416,0,0,0-.63-.54,10.158,10.158,0,0,0-2.83-1.5,15.14,15.14,0,0,0-3-.73,16.066,16.066,0,0,0-2.92-.16A15.345,15.345,0,0,0,110,64.31a18.228,18.228,0,0,0-2.31-1.07,12.773,12.773,0,0,0-2.53-.69,7.517,7.517,0,0,0-2.59-.02,7.033,7.033,0,0,0-2.59-.93,8.026,8.026,0,0,0-2.93.06,9.484,9.484,0,0,0-2.69.99,8.793,8.793,0,0,0-2.15,1.65,13.513,13.513,0,0,0-2.85.77c-.99.38-1.91.81-2.68,1.18l-.83.41c-.56.28-1.12.55-1.7.82l-.5.24a22.163,22.163,0,0,0-2.04,1.06,11.288,11.288,0,0,0-3.17.12,9.009,9.009,0,0,0-3.22,1.22,8.573,8.573,0,0,0-3.74,5.43,13.689,13.689,0,0,0-2,2.45c-.44.66-.84,1.32-1.24,1.97l-.39.63c-.15.24-.31.48-.46.73-.39.61-.79,1.24-1.16,1.93a7.988,7.988,0,0,0-.99,3.15,9.759,9.759,0,0,0-1.56,3.91l-.75,3.9a19.887,19.887,0,0,0-.39,4.17,15.865,15.865,0,0,0,.65,4.09,17.71,17.71,0,0,0-.13,4.63,11.172,11.172,0,0,0,.15,1.18c.05.35.1.71.14,1.06l.23,2.22a14.753,14.753,0,0,0,1.16,4.71,9.491,9.491,0,0,0,3.1,3.66,12.14,12.14,0,0,0,1.83,2.76c.69.82,1.4,1.59,2.14,2.38.26.28.52.57.78.85.44.49.89.98,1.36,1.47a12.577,12.577,0,0,0,2.53,2.13,9.146,9.146,0,0,0,3.42,3.48,16.835,16.835,0,0,0,4.57,1.75,45.542,45.542,0,0,0,4.63.82c.77.08,1.51.22,2.29.36.69.13,1.41.26,2.15.35a10.965,10.965,0,0,0,3.57,1.91,9.2,9.2,0,0,0,2.67.4,7.975,7.975,0,0,0,1.7-.18,12.762,12.762,0,0,0,3.86-1.64c.53-.32,1.05-.64,1.56-.97.54-.34,1.08-.68,1.64-1.02.57.01,1.12.02,1.67.04.7.02,1.38.04,2.09.04h.05a15.773,15.773,0,0,0,4.12-.44,8.015,8.015,0,0,0,2.09-.87,8.748,8.748,0,0,0,1.72-1.38,17.372,17.372,0,0,0,2.38-3.21l.3-.18a14.733,14.733,0,0,1,1.75-.98,5.979,5.979,0,0,1,1.03-.38,4.233,4.233,0,0,1,.56-.12l.69-.18a5.752,5.752,0,0,0,2.61-1.69,8.473,8.473,0,0,0,1.48-2.52,30.821,30.821,0,0,0,1.09-3.76c.1-.4.19-.81.29-1.2.12-.47.26-.95.4-1.44.31-1.09.63-2.22.84-3.37a10.833,10.833,0,0,0,1.56-2.4,13.783,13.783,0,0,0,.98-2.76,9.772,9.772,0,0,0,.27-3.02,10.278,10.278,0,0,0-.62-2.75,13.148,13.148,0,0,0,.74-4.52c.02-.61.05-1.41.01-2.28A9.075,9.075,0,0,0,136.225,93.13Zm-16.37,36.7q-.495.375-.99.72A8.86,8.86,0,0,1,115.8,132c-.79.21-1.63.36-2.52.52l-1.15.21a13.079,13.079,0,0,0-3.83,1.23,12.449,12.449,0,0,0-3.9.88l-.35.13a22.14,22.14,0,0,1-3.11.98,11.227,11.227,0,0,1-3.42.14c-.63-.06-1.28-.18-1.96-.31-.56-.11-1.13-.21-1.73-.29a16.153,16.153,0,0,0-4.29-2.01c-1.34-.41-2.69-.74-3.99-1.06l-.69-.17a32.093,32.093,0,0,1-4.03-1.18,16.772,16.772,0,0,1-3.72-2.12,28.059,28.059,0,0,0-1.46-2.85,15.311,15.311,0,0,0-2-2.74,18.783,18.783,0,0,0-2.51-2.22,28.145,28.145,0,0,0-2.67-1.78,17.706,17.706,0,0,1-1.74-3.85,21.9,21.9,0,0,1-.6-3.65l-.06-.58c-.09-.82-.18-1.56-.33-2.32-.08-.39-.17-.78-.28-1.17l-.29-1.07c-.13-.49-.25-.98-.38-1.48-.24-.93-.48-1.88-.75-2.83.18-.81.3-1.6.4-2.37.07-.51.14-1.02.23-1.52.12-.75.27-1.49.42-2.24.11-.54.22-1.08.31-1.63a22.372,22.372,0,0,0,.41-4.14,36.072,36.072,0,0,1,.23-3.8c.67-.79,1.29-1.52,1.95-2.24a19.563,19.563,0,0,0,1.99-2.54,16.3,16.3,0,0,0,1.42-2.96,20.767,20.767,0,0,0,.83-2.98c.38-.34.74-.69,1.09-1.03s.69-.67,1.05-.99a15.52,15.52,0,0,1,2.19-1.7,19.285,19.285,0,0,1,2.51-1.29c.21-.1.42-.19.64-.29a17.525,17.525,0,0,0,2.08-1.04,9.478,9.478,0,0,0,1.08.07,10.923,10.923,0,0,0,1.93-.18,11.623,11.623,0,0,0,2.98-1,18.707,18.707,0,0,0,2.61-1.56,18.112,18.112,0,0,0,2.22-1.88,19.626,19.626,0,0,0,2.19-.36l.55-.12c.75-.17,1.48-.33,2.2-.48.82-.16,1.58-.29,2.39-.38l.68-.09c.57-.07,1.17-.15,1.79-.26a23.484,23.484,0,0,0,2.1,1.2c.8.4,1.55.72,2.28,1.01a16.541,16.541,0,0,0,2.46.74,9.777,9.777,0,0,0,1.94.22,6.081,6.081,0,0,0,.61-.03,13.724,13.724,0,0,0,2.61,1.38c.9.37,1.8.7,2.72,1.03.85.31,1.73.62,2.59.99l.66.28a2.648,2.648,0,0,1,.53.27,6.939,6.939,0,0,1,.68.47c.12.09.24.18.37.26a6.926,6.926,0,0,0,1,2.44c.22.3.42.52.61.74a3.484,3.484,0,0,1,.24.28l.81.88c.63.68,1.17,1.22,1.71,1.75a17.5,17.5,0,0,0,1.8,1.55,10.907,10.907,0,0,0,.6,2.31,16.586,16.586,0,0,0,1.02,2.18,7.954,7.954,0,0,0,1.65,2.08,9.756,9.756,0,0,0,1.92,1.38,10.555,10.555,0,0,0,.33,1.39l.1.34c.15.5.29.94.42,1.41.15.53.31,1.05.5,1.6l.06.16a13.545,13.545,0,0,0,.57,1.38,12.469,12.469,0,0,0-.82,2.09,10.1,10.1,0,0,0-.39,2.41,11.375,11.375,0,0,0,.2,2.43,9.722,9.722,0,0,0,.68,2.22,16.991,16.991,0,0,0-.58,2.37l-.05.26c-.1.55-.23,1.09-.36,1.64l-.21.9c-.18.77-.39,1.69-.57,2.66a16.412,16.412,0,0,0-.31,2.74,28.715,28.715,0,0,0-2.48,4.45c-.38.92-.69,1.84-1,2.74-.23.68-.45,1.35-.7,1.98a5.14,5.14,0,0,1-2.48,3.11l-.49.22a6.208,6.208,0,0,0-.69.29,6.873,6.873,0,0,0-1.22.79,9.118,9.118,0,0,0-1.76,1.95A21.193,21.193,0,0,0,119.855,129.83Z" transform="translate(-62.531 -61.493)"/></g><g id="NUCLEUS"><circle class="cls-3" cx="53.306" cy="29.26" r="14.44"/><path class="cls-4" d="M115.837,106.033a15.29,15.29,0,1,1,15.28-15.29A15.309,15.309,0,0,1,115.837,106.033Zm0-28.88a13.6,13.6,0,1,0,13.6,13.6A13.614,13.614,0,0,0,115.837,77.153Z" transform="translate(-62.531 -61.493)"/></g></g></svg>