<svg id="Layer_1" data-name="Layer 1" xmlns="http://www.w3.org/2000/svg" xmlns:xlink="http://www.w3.org/1999/xlink" viewBox="0 0 87.924 87.924"><defs><style>.cls-1{fill:url(#radial-gradient);}.cls-2{fill:url(#radial-gradient-2);}.cls-3{fill:url(#radial-gradient-5);}.cls-4{fill:url(#radial-gradient-6);}.cls-5{fill:url(#radial-gradient-7);}.cls-6{fill:url(#radial-gradient-8);}.cls-7{fill:url(#radial-gradient-9);}.cls-8{fill:url(#radial-gradient-10);}.cls-9{fill:url(#radial-gradient-11);}.cls-10{fill:url(#radial-gradient-12);}.cls-11{fill:url(#radial-gradient-13);}.cls-12{fill:url(#radial-gradient-14);}.cls-13{fill:url(#radial-gradient-15);}.cls-14{fill:url(#radial-gradient-16);}.cls-15{fill:url(#radial-gradient-17);}.cls-16{fill:url(#radial-gradient-18);}.cls-17{fill:url(#radial-gradient-19);}.cls-18{fill:url(#radial-gradient-20);}.cls-19{fill:url(#radial-gradient-21);}.cls-20{fill:url(#radial-gradient-22);}.cls-21{fill:url(#radial-gradient-23);}.cls-22{fill:url(#radial-gradient-24);}.cls-23{fill:url(#radial-gradient-25);}.cls-24{fill:url(#radial-gradient-26);}.cls-25{fill:url(#radial-gradient-27);}.cls-26{fill:url(#radial-gradient-28);}.cls-27{fill:url(#radial-gradient-29);}.cls-28{fill:url(#radial-gradient-30);}.cls-29{fill:url(#radial-gradient-31);}.cls-30{fill:url(#radial-gradient-32);}.cls-31{fill:url(#radial-gradient-33);}.cls-32{fill:url(#radial-gradient-34);}.cls-33{fill:url(#radial-gradient-35);}.cls-34{fill:url(#radial-gradient-36);}.cls-35{fill:url(#radial-gradient-37);}.cls-36{fill:url(#radial-gradient-38);}.cls-37{fill:url(#radial-gradient-39);}.cls-38{fill:url(#radial-gradient-40);}.cls-39{fill:url(#radial-gradient-41);}.cls-40{fill:url(#radial-gradient-42);}.cls-41{fill:url(#radial-gradient-43);}.cls-42{fill:url(#radial-gradient-44);}.cls-43{fill:url(#radial-gradient-45);}.cls-44{fill:url(#radial-gradient-46);}.cls-45{fill:url(#radial-gradient-47);}.cls-46{fill:url(#radial-gradient-48);}.cls-47{fill:url(#radial-gradient-49);}.cls-48{fill:url(#radial-gradient-50);}</style><radialGradient id="radial-gradient" cx="99.505" cy="62.881" r="3.225" gradientTransform="matrix(1, 0.002, -0.007, 4.261, 0.46, -205.197)" gradientUnits="userSpaceOnUse"><stop offset="0" stop-color="#c8b9c9"/><stop offset="0.036" stop-color="#c5b1c7"/><stop offset="0.254" stop-color="#b686b9"/><stop offset="0.464" stop-color="#aa64af"/><stop offset="0.664" stop-color="#a14ca7"/><stop offset="0.847" stop-color="#9c3da3"/><stop offset="1" stop-color="#9a38a1"/></radialGradient><radialGradient id="radial-gradient-2" cx="101.85" cy="59.375" r="3.352" gradientTransform="matrix(1, 0.002, -0.002, 1.03, -55.933, -57.992)" gradientUnits="userSpaceOnUse"><stop offset="0" stop-color="#edf0dc"/><stop offset="0.012" stop-color="#ecefd7"/><stop offset="0.2" stop-color="#d9d98c"/><stop offset="0.368" stop-color="#c9c850"/><stop offset="0.509" stop-color="#bebb24"/><stop offset="0.62" stop-color="#b8b40a"/><stop offset="0.685" stop-color="#b5b100"/><stop offset="1" stop-color="#a19c00"/></radialGradient><radialGradient id="radial-gradient-5" cx="78.47" cy="-2.448" r="3.225" gradientTransform="matrix(0.966, 0.26, -1.108, 4.114, 30.636, 53.671)" xlink:href="#radial-gradient"/><radialGradient id="radial-gradient-6" cx="80.814" cy="-5.954" r="3.352" gradientTransform="matrix(-0.002, 1, -1.03, -0.002, 107.532, -19.161)" xlink:href="#radial-gradient-2"/><radialGradient id="radial-gradient-7" cx="41.263" cy="-60.119" r="3.225" gradientTransform="matrix(0.866, 0.501, -2.134, 3.688, -45.901, 268.618)" xlink:href="#radial-gradient"/><radialGradient id="radial-gradient-8" cx="43.607" cy="-63.626" r="3.352" gradientTransform="matrix(-0.002, 1, -1.03, -0.002, 57.396, 22.491)" xlink:href="#radial-gradient-2"/><radialGradient id="radial-gradient-9" cx="-9.587" cy="-106.213" r="3.225" gradientTransform="matrix(0.707, 0.708, -3.015, 3.011, -187.555, 399.927)" xlink:href="#radial-gradient"/><radialGradient id="radial-gradient-10" cx="-7.243" cy="-109.72" r="3.352" gradientTransform="matrix(-0.002, 1, -1.03, -0.002, 17.668, 80.062)" xlink:href="#radial-gradient-2"/><radialGradient id="radial-gradient-11" cx="-70.624" cy="-137.597" r="3.225" gradientTransform="matrix(0.5, 0.866, -3.69, 2.129, -340.628, 435.092)" xlink:href="#radial-gradient"/><radialGradient id="radial-gradient-12" cx="-68.279" cy="-141.104" r="3.352" gradientTransform="matrix(-0.002, 1, -1.03, -0.002, -8.95, 149.64)" xlink:href="#radial-gradient-2"/><radialGradient id="radial-gradient-13" cx="-137.698" cy="-152.137" r="3.225" gradientTransform="matrix(0.259, 0.966, -4.115, 1.103, -454.746, 390.632)" xlink:href="#radial-gradient"/><radialGradient id="radial-gradient-14" cx="-135.354" cy="-155.644" r="3.352" gradientTransform="matrix(-0.002, 1, -1.03, -0.002, -20.651, 226.495)" xlink:href="#radial-gradient-2"/><radialGradient id="radial-gradient-15" cx="-206.251" cy="-148.846" r="3.225" gradientTransform="matrix(0, 1, -4.261, 0.002, -496.969, 305.91)" xlink:href="#radial-gradient"/><radialGradient id="radial-gradient-16" cx="-203.907" cy="-152.352" r="3.352" gradientTransform="matrix(-0.002, 1, -1.03, -0.002, -16.638, 305.404)" xlink:href="#radial-gradient-2"/><radialGradient id="radial-gradient-17" cx="-271.624" cy="-127.946" r="3.225" gradientTransform="matrix(-0.258, 0.966, -4.116, -1.1, -460.755, 230.748)" xlink:href="#radial-gradient"/><radialGradient id="radial-gradient-18" cx="-269.28" cy="-131.453" r="3.352" gradientTransform="matrix(-1, -0.002, 0.002, -1.03, -130.684, -22.407)" xlink:href="#radial-gradient-2"/><radialGradient id="radial-gradient-19" cx="-329.373" cy="-90.859" r="3.225" gradientTransform="matrix(-0.499, 0.867, -3.692, -2.126, -367.391, 210.261)" xlink:href="#radial-gradient"/><radialGradient id="radial-gradient-20" cx="-327.028" cy="-94.366" r="3.352" gradientTransform="matrix(-1, -0.002, 0.002, -1.03, -193.025, 25.029)" xlink:href="#radial-gradient-2"/><radialGradient id="radial-gradient-21" cx="-375.572" cy="-40.105" r="3.225" gradientTransform="matrix(-0.706, 0.708, -3.017, -3.008, -259.513, 271.104)" xlink:href="#radial-gradient"/><radialGradient id="radial-gradient-22" cx="-373.228" cy="-43.612" r="3.352" gradientTransform="matrix(-1, -0.002, 0.002, -1.03, -246.102, 85.074)" xlink:href="#radial-gradient-2"/><radialGradient id="radial-gradient-23" cx="-407.083" cy="20.866" r="3.225" gradientTransform="matrix(-0.865, 0.502, -2.137, -3.686, -188.506, 412.902)" xlink:href="#radial-gradient"/><radialGradient id="radial-gradient-24" cx="-404.739" cy="17.359" r="3.352" gradientTransform="matrix(-1, -0.002, 0.002, -1.03, -286.306, 153.646)" xlink:href="#radial-gradient-2"/><radialGradient id="radial-gradient-25" cx="-421.763" cy="87.909" r="3.225" gradientTransform="matrix(-0.965, 0.261, -1.111, -4.113, -199.245, 607.276)" xlink:href="#radial-gradient"/><radialGradient id="radial-gradient-26" cx="-419.419" cy="84.403" r="3.352" gradientTransform="matrix(-1, -0.002, 0.002, -1.03, -310.904, 226.085)" xlink:href="#radial-gradient-2"/><radialGradient id="radial-gradient-27" cx="-418.614" cy="156.469" r="3.225" gradientTransform="matrix(-1, 0.002, -0.01, -4.261, -316.335, 804.78)" xlink:href="#radial-gradient"/><radialGradient id="radial-gradient-28" cx="-416.27" cy="152.963" r="3.352" gradientTransform="matrix(-1, -0.002, 0.002, -1.03, -318.225, 297.466)" xlink:href="#radial-gradient-2"/><radialGradient id="radial-gradient-29" cx="-397.851" cy="221.885" r="3.225" gradientTransform="matrix(-0.967, -0.256, 1.091, -4.118, -535.672, 947.941)" xlink:href="#radial-gradient"/><radialGradient id="radial-gradient-30" cx="-395.507" cy="218.379" r="3.352" gradientTransform="matrix(0.002, -1, 1.03, 0.002, -137.612, -257.503)" xlink:href="#radial-gradient-2"/><radialGradient id="radial-gradient-31" cx="-360.884" cy="279.711" r="3.225" gradientTransform="matrix(-0.868, -0.497, 2.119, -3.696, -823.69, 986.943)" xlink:href="#radial-gradient"/><radialGradient id="radial-gradient-32" cx="-358.54" cy="276.205" r="3.352" gradientTransform="matrix(0.002, -1, 1.03, 0.002, -206.58, -225.147)" xlink:href="#radial-gradient-2"/><radialGradient id="radial-gradient-33" cx="-310.227" cy="326.017" r="3.225" gradientTransform="matrix(-0.71, -0.705, 3.002, -3.023, -1124.629, 893.724)" xlink:href="#radial-gradient"/><radialGradient id="radial-gradient-34" cx="-307.882" cy="322.51" r="3.352" gradientTransform="matrix(0.002, -1, 1.03, 0.002, -262.224, -181.341)" xlink:href="#radial-gradient-2"/><radialGradient id="radial-gradient-35" cx="-249.321" cy="357.654" r="3.225" gradientTransform="matrix(-0.503, -0.864, 3.682, -2.144, -1373.996, 670.675)" xlink:href="#radial-gradient"/><radialGradient id="radial-gradient-36" cx="-246.977" cy="354.148" r="3.352" gradientTransform="matrix(0.002, -1, 1.03, 0.002, -300.76, -129.065)" xlink:href="#radial-gradient-2"/><radialGradient id="radial-gradient-37" cx="-182.308" cy="372.474" r="3.225" gradientTransform="matrix(-0.263, -0.965, 4.111, -1.12, -1514.716, 351.53)" xlink:href="#radial-gradient"/><radialGradient id="radial-gradient-38" cx="-179.964" cy="368.967" r="3.352" gradientTransform="matrix(0.002, -1, 1.03, 0.002, -319.57, -71.871)" xlink:href="#radial-gradient-2"/><radialGradient id="radial-gradient-39" cx="-113.742" cy="369.468" r="3.225" gradientTransform="matrix(-0.005, -1, 4.26, -0.019, -1511.74, -5.889)" xlink:href="#radial-gradient"/><radialGradient id="radial-gradient-40" cx="-111.398" cy="365.961" r="3.352" gradientTransform="matrix(0.002, -1, 1.03, 0.002, -317.376, -13.647)" xlink:href="#radial-gradient-2"/><radialGradient id="radial-gradient-41" cx="-48.283" cy="348.84" r="3.225" gradientTransform="matrix(0.254, -0.967, 4.121, 1.083, -1361.231, -333.257)" xlink:href="#radial-gradient"/><radialGradient id="radial-gradient-42" cx="-45.939" cy="345.334" r="3.352" gradientTransform="matrix(1, 0.002, -0.002, 1.03, 108.134, -268.892)" xlink:href="#radial-gradient-2"/><radialGradient id="radial-gradient-43" cx="9.62" cy="311.994" r="3.225" gradientTransform="matrix(0.495, -0.869, 3.701, 2.111, -1091.91, -568.16)" xlink:href="#radial-gradient"/><radialGradient id="radial-gradient-44" cx="11.964" cy="308.487" r="3.352" gradientTransform="matrix(1, 0.002, -0.002, 1.03, 54.655, -240.397)" xlink:href="#radial-gradient-2"/><radialGradient id="radial-gradient-45" cx="56.031" cy="261.433" r="3.225" gradientTransform="matrix(0.703, -0.711, 3.029, 2.996, -758.161, -669.071)" xlink:href="#radial-gradient"/><radialGradient id="radial-gradient-46" cx="58.375" cy="257.926" r="3.352" gradientTransform="matrix(1, 0.002, -0.002, 1.03, 14.909, -196.278)" xlink:href="#radial-gradient-2"/><radialGradient id="radial-gradient-47" cx="87.795" cy="200.594" r="3.225" gradientTransform="matrix(0.863, -0.505, 2.152, 3.677, -426.69, -625.002)" xlink:href="#radial-gradient"/><radialGradient id="radial-gradient-48" cx="90.139" cy="197.087" r="3.352" gradientTransform="matrix(1, 0.002, -0.002, 1.03, -8.402, -139.535)" xlink:href="#radial-gradient-2"/><radialGradient id="radial-gradient-49" cx="102.754" cy="133.612" r="3.225" gradientTransform="matrix(0.964, -0.265, 1.128, 4.108, -160.228, -457.354)" xlink:href="#radial-gradient"/><radialGradient id="radial-gradient-50" cx="105.098" cy="130.105" r="3.352" gradientTransform="matrix(1, 0.002, -0.002, 1.03, -13.694, -74.023)" xlink:href="#radial-gradient-2"/></defs><title>R-ICO-013616</title><g id="R-ICO-013616"><path class="cls-1" d="M100,81.987c1.4,0,5.26-25.949,0-25.949S98.6,81.987,100,81.987Z" transform="translate(-56.038 -56.038)"/><circle class="cls-2" cx="46.403" cy="4.236" r="2.892"/><path class="cls-1" d="M100,81.987c1.4,0,5.26-25.949,0-25.949S98.6,81.987,100,81.987Z" transform="translate(-56.038 -56.038)"/><circle class="cls-2" cx="46.403" cy="4.236" r="2.892"/><path class="cls-3" d="M104.656,82.6c1.355.363,11.789-23.707,6.707-25.067S103.3,82.236,104.656,82.6Z" transform="translate(-56.038 -56.038)"/><circle class="cls-4" cx="112.627" cy="62.255" r="2.892" transform="translate(-32.663 98.924) rotate(-75.02)"/><path class="cls-5" d="M109,84.394c1.215.7,17.516-19.855,12.959-22.481S107.78,83.693,109,84.394Z" transform="translate(-56.038 -56.038)"/><circle class="cls-6" cx="121.954" cy="66.801" r="2.892" transform="translate(-52.863 83.061) rotate(-60.04)"/><path class="cls-7" d="M112.724,87.249c.993.991,22.053-14.652,18.33-18.368S111.731,86.259,112.724,87.249Z" transform="translate(-56.038 -56.038)"/><circle class="cls-8" cx="129.789" cy="73.605" r="2.892" transform="translate(-70.029 57.445) rotate(-45.06)"/><path class="cls-9" d="M115.587,90.972c.7,1.214,25.091-8.454,22.454-13.006S114.884,89.758,115.587,90.972Z" transform="translate(-56.038 -56.038)"/><circle class="cls-10" cx="135.6" cy="82.202" r="2.892" transform="translate(-78.977 22.995) rotate(-30.08)"/><path class="cls-11" d="M117.391,95.308c.365,1.354,26.423-1.681,25.053-6.76S117.026,93.954,117.391,95.308Z" transform="translate(-56.038 -56.038)"/><circle class="cls-12" cx="138.991" cy="92.009" r="2.892" transform="translate(-75.207 -16.655) rotate(-15.099)"/><path class="cls-13" d="M118.013,99.963c0,1.4,25.96,5.206,25.949-.054S118.01,98.56,118.013,99.963Z" transform="translate(-56.038 -56.038)"/><circle class="cls-14" cx="139.731" cy="102.359" r="2.892" transform="translate(-56.251 -55.747) rotate(-0.119)"/><path class="cls-15" d="M117.411,104.62c-.36,1.356,23.732,11.739,25.081,6.655S117.77,103.264,117.411,104.62Z" transform="translate(-56.038 -56.038)"/><circle class="cls-16" cx="137.771" cy="112.549" r="2.892" transform="matrix(0.256, -0.967, 0.967, 0.256, -62.386, 160.808)"/><path class="cls-17" d="M115.625,108.964c-.7,1.217,19.891,17.474,22.508,12.912S116.323,107.747,115.625,108.964Z" transform="translate(-56.038 -56.038)"/><circle class="cls-18" cx="133.244" cy="121.886" r="2.892" transform="translate(-94.82 120.775) rotate(-60.159)"/><path class="cls-19" d="M112.777,112.7c-.989.995,14.7,22.022,18.406,18.291S113.766,111.7,112.777,112.7Z" transform="translate(-56.038 -56.038)"/><circle class="cls-20" cx="126.457" cy="129.735" r="2.892" transform="translate(-110.742 71.945) rotate(-45.179)"/><path class="cls-21" d="M109.06,115.569c-1.212.706,8.506,25.073,13.052,22.427S110.273,114.863,109.06,115.569Z" transform="translate(-56.038 -56.038)"/><circle class="cls-22" cx="117.872" cy="135.563" r="2.892" transform="translate(-108.23 21.65) rotate(-30.199)"/><path class="cls-23" d="M104.728,117.382c-1.353.368,1.736,26.42,6.812,25.039S106.082,117.014,104.728,117.382Z" transform="translate(-56.038 -56.038)"/><circle class="cls-24" cx="108.072" cy="138.974" r="2.892" transform="translate(-88.729 -22.795) rotate(-15.219)"/><path class="cls-25" d="M100.075,118.014c-1.4.006-5.152,25.971.108,25.949S101.477,118.008,100.075,118.014Z" transform="translate(-56.038 -56.038)"/><circle class="cls-26" cx="97.724" cy="139.737" r="2.892" transform="translate(-56.619 -55.63) rotate(-0.239)"/><path class="cls-27" d="M95.416,117.421c-1.356-.357-11.69,23.756-6.6,25.095S96.772,117.778,95.416,117.421Z" transform="translate(-56.038 -56.038)"/><circle class="cls-28" cx="87.53" cy="137.798" r="2.892" transform="matrix(0.254, -0.967, 0.967, 0.254, -124.043, 131.345)"/><path class="cls-29" d="M91.069,115.644c-1.218-.7-17.433,19.927-12.865,22.535S92.287,116.339,91.069,115.644Z" transform="translate(-56.038 -56.038)"/><circle class="cls-30" cx="78.183" cy="133.29" r="2.892" transform="translate(-132.372 79.067) rotate(-60.278)"/><path class="cls-31" d="M87.329,112.8c-1-.987-21.991,14.744-18.253,18.444S88.326,113.79,87.329,112.8Z" transform="translate(-56.038 -56.038)"/><circle class="cls-32" cx="70.32" cy="126.52" r="2.892" transform="translate(-125.11 31.467) rotate(-45.298)"/><path class="cls-33" d="M84.45,109.093c-.708-1.211-25.055,8.558-22.4,13.1S85.158,110.3,84.45,109.093Z" transform="translate(-56.038 -56.038)"/><circle class="cls-34" cx="64.474" cy="117.947" r="2.892" transform="translate(-106.76 -7.361) rotate(-30.318)"/><path class="cls-35" d="M82.628,104.765c-.371-1.353-26.416,1.791-25.025,6.864S83,106.118,82.628,104.765Z" transform="translate(-56.038 -56.038)"/><circle class="cls-36" cx="61.042" cy="108.154" r="2.892" transform="translate(-82.472 -36.039) rotate(-15.338)"/><path class="cls-37" d="M81.986,100.113c-.009-1.4-25.981-5.1-25.948.162S82,101.515,81.986,100.113Z" transform="translate(-56.038 -56.038)"/><circle class="cls-38" cx="60.259" cy="97.807" r="2.892" transform="translate(-56.648 -55.66) rotate(-0.358)"/><path class="cls-39" d="M82.57,95.453c.354-1.357-23.781-11.64-25.108-6.551S82.215,96.81,82.57,95.453Z" transform="translate(-56.038 -56.038)"/><circle class="cls-40" cx="62.176" cy="87.609" r="2.892" transform="translate(-94.33 69.617) rotate(-75.378)"/><path class="cls-41" d="M84.337,91.1c.693-1.22-19.964-17.392-22.562-12.818S83.644,92.321,84.337,91.1Z" transform="translate(-56.038 -56.038)"/><circle class="cls-42" cx="66.664" cy="78.253" r="2.892" transform="translate(-90.344 41.523) rotate(-60.398)"/><path class="cls-43" d="M87.17,87.356c.985-1-14.79-21.961-18.482-18.214S86.185,88.355,87.17,87.356Z" transform="translate(-56.038 -56.038)"/><circle class="cls-44" cx="73.419" cy="70.376" r="2.892" transform="translate(-84.279 17.23) rotate(-45.417)"/><path class="cls-45" d="M90.874,84.469c1.209-.711-8.611-25.037-13.146-22.373S89.665,85.18,90.874,84.469Z" transform="translate(-56.038 -56.038)"/><circle class="cls-46" cx="81.979" cy="64.512" r="2.892" transform="matrix(0.862, -0.507, 0.507, 0.862, -77.421, -5.617)"/><path class="cls-47" d="M95.2,82.638c1.352-.374-1.846-26.412-6.916-25.01S93.847,83.012,95.2,82.638Z" transform="translate(-56.038 -56.038)"/><circle class="cls-48" cx="91.765" cy="61.06" r="2.892" transform="translate(-68.993 -29.372) rotate(-15.457)"/></g></svg>