<svg id="Layer_1" data-name="Layer 1" xmlns="http://www.w3.org/2000/svg" xmlns:xlink="http://www.w3.org/1999/xlink" viewBox="0 0 41.473 30"><defs><style>.cls-1{stroke:#ab5e00;stroke-linecap:round;stroke-linejoin:round;stroke-width:2px;fill:url(#linear-gradient);}</style><linearGradient id="linear-gradient" x1="100" y1="86" x2="100" y2="114" gradientUnits="userSpaceOnUse"><stop offset="0" stop-color="#ffd400"/><stop offset="1" stop-color="#d38200"/></linearGradient></defs><title>DAG</title><path id="DAG" class="cls-1" d="M94.657,114a4.945,4.945,0,0,1-1.937-.382l-10.734-4.606a2.181,2.181,0,0,1,0-4.264l5.766-2.474L81.985,99.8A2.184,2.184,0,0,1,82,95.527l5.715-2.42-5.733-2.46c-1.715-.736-2.237-2.287-1.165-3.465a4.735,4.735,0,0,1,5.047-.8L96.6,90.989a2.184,2.184,0,0,1-.018,4.272l-5.715,2.42,5.733,2.46a2.181,2.181,0,0,1,0,4.264l-5.766,2.474,5.766,2.474h7.591l-.8-.342a2.181,2.181,0,0,1,0-4.264l5.766-2.474L103.4,99.8a2.184,2.184,0,0,1,.018-4.272l5.715-2.42-5.733-2.46c-1.715-.736-2.237-2.287-1.165-3.465a4.735,4.735,0,0,1,5.047-.8l10.734,4.606A2.184,2.184,0,0,1,118,95.261l-5.715,2.42,5.733,2.46a2.181,2.181,0,0,1,0,4.264l-5.766,2.474,5.766,2.474c1.715.736,2.237,2.287,1.165,3.465A4.256,4.256,0,0,1,116.07,114Z" transform="translate(-79.264 -85)"/></svg>