<svg id="Layer_1" data-name="Layer 1" xmlns="http://www.w3.org/2000/svg" xmlns:xlink="http://www.w3.org/1999/xlink" viewBox="0 0 178.793 53.13"><defs><style>.cls-1{fill:url(#linear-gradient);}.cls-2{mask:url(#mask);}.cls-3{fill:#edd468;}.cls-4{fill:none;stroke:#c9a30b;stroke-miterlimit:10;stroke-width:6px;}.cls-5{fill:#ebbd00;}.cls-6{fill:url(#linear-gradient-2);}.cls-7{fill:url(#linear-gradient-3);}.cls-8{fill:url(#linear-gradient-4);}.cls-9{fill:url(#linear-gradient-5);}</style><linearGradient id="linear-gradient" x1="10.603" y1="100" x2="189.397" y2="100" gradientUnits="userSpaceOnUse"><stop offset="0"/><stop offset="0.011" stop-color="#343434"/><stop offset="0.024" stop-color="#696969"/><stop offset="0.037" stop-color="#979797"/><stop offset="0.05" stop-color="#bcbcbc"/><stop offset="0.063" stop-color="#dadada"/><stop offset="0.075" stop-color="#eee"/><stop offset="0.088" stop-color="#fbfbfb"/><stop offset="0.1" stop-color="#fff"/><stop offset="0.9" stop-color="#fff"/><stop offset="0.912" stop-color="#fbfbfb"/><stop offset="0.925" stop-color="#eee"/><stop offset="0.937" stop-color="#dadada"/><stop offset="0.95" stop-color="#bcbcbc"/><stop offset="0.963" stop-color="#979797"/><stop offset="0.976" stop-color="#696969"/><stop offset="0.989" stop-color="#343434"/><stop offset="1"/></linearGradient><mask id="mask" x="0" y="-0.571" width="178.793" height="54.272" maskUnits="userSpaceOnUse"><g transform="translate(-10.603 -73.435)"><rect class="cls-1" x="10.603" y="72.864" width="178.793" height="54.272"/></g></mask><linearGradient id="linear-gradient-2" x1="48.934" y1="73.435" x2="48.934" y2="126.565" gradientUnits="userSpaceOnUse"><stop offset="0" stop-color="#0cc69a"/><stop offset="1" stop-color="#06624c"/></linearGradient><linearGradient id="linear-gradient-3" x1="82.978" y1="73.435" x2="82.978" y2="126.565" gradientUnits="userSpaceOnUse"><stop offset="0" stop-color="#2788a9"/><stop offset="1" stop-color="#134354"/></linearGradient><linearGradient id="linear-gradient-4" x1="117.022" y1="73.435" x2="117.022" y2="126.565" gradientUnits="userSpaceOnUse"><stop offset="0" stop-color="#2788a9"/><stop offset="0.001" stop-color="#424ab7"/><stop offset="1" stop-color="#20245a"/></linearGradient><linearGradient id="linear-gradient-5" x1="151.066" y1="73.435" x2="151.066" y2="126.565" gradientUnits="userSpaceOnUse"><stop offset="0" stop-color="#5d0cc6"/><stop offset="1" stop-color="#2e0662"/></linearGradient></defs><title>R-ICO-013801</title><g id="ETC"><g class="cls-2"><g id="MEMBRANE"><rect id="MEMBRANE_BG" class="cls-3" y="6.429" width="178.793" height="40.272"/><line id="LINE_BG" class="cls-4" x1="178.793" y1="46.701" y2="46.701"/><line id="LINE_BG-2" data-name="LINE_BG" class="cls-4" y1="6.429" x2="178.793" y2="6.429"/><g id="DOTTED"><circle class="cls-5" cx="4.286" cy="6.429" r="4.286"/></g><g id="DOTTED-2" data-name="DOTTED"><circle class="cls-5" cx="15.634" cy="6.429" r="4.286"/></g><g id="DOTTED-3" data-name="DOTTED"><circle class="cls-5" cx="26.982" cy="6.429" r="4.286"/></g><g id="DOTTED-4" data-name="DOTTED"><circle class="cls-5" cx="38.33" cy="6.429" r="4.286"/></g><g id="DOTTED-5" data-name="DOTTED"><circle class="cls-5" cx="49.678" cy="6.429" r="4.286"/></g><g id="DOTTED-6" data-name="DOTTED"><circle class="cls-5" cx="61.026" cy="6.429" r="4.286"/></g><g id="DOTTED-7" data-name="DOTTED"><circle class="cls-5" cx="72.375" cy="6.429" r="4.286"/></g><g id="DOTTED-8" data-name="DOTTED"><circle class="cls-5" cx="83.723" cy="6.429" r="4.286"/></g><g id="DOTTED-9" data-name="DOTTED"><circle class="cls-5" cx="95.071" cy="6.429" r="4.286"/></g><g id="DOTTED-10" data-name="DOTTED"><circle class="cls-5" cx="106.419" cy="6.429" r="4.286"/></g><g id="DOTTED-11" data-name="DOTTED"><circle class="cls-5" cx="117.767" cy="6.429" r="4.286"/></g><g id="DOTTED-12" data-name="DOTTED"><circle class="cls-5" cx="129.115" cy="6.429" r="4.286"/></g><g id="DOTTED-13" data-name="DOTTED"><circle class="cls-5" cx="140.463" cy="6.429" r="4.286"/></g><g id="DOTTED-14" data-name="DOTTED"><circle class="cls-5" cx="151.811" cy="6.429" r="4.286"/></g><g id="DOTTED-15" data-name="DOTTED"><circle class="cls-5" cx="163.159" cy="6.429" r="4.286"/></g><g id="DOTTED-16" data-name="DOTTED"><circle class="cls-5" cx="174.507" cy="6.429" r="4.286"/></g><g id="DOTTED-17" data-name="DOTTED"><circle class="cls-5" cx="4.286" cy="46.701" r="4.286"/></g><g id="DOTTED-18" data-name="DOTTED"><circle class="cls-5" cx="15.634" cy="46.701" r="4.286"/></g><g id="DOTTED-19" data-name="DOTTED"><circle class="cls-5" cx="26.982" cy="46.701" r="4.286"/></g><g id="DOTTED-20" data-name="DOTTED"><circle class="cls-5" cx="38.33" cy="46.701" r="4.286"/></g><g id="DOTTED-21" data-name="DOTTED"><circle class="cls-5" cx="49.678" cy="46.701" r="4.286"/></g><g id="DOTTED-22" data-name="DOTTED"><circle class="cls-5" cx="61.026" cy="46.701" r="4.286"/></g><g id="DOTTED-23" data-name="DOTTED"><circle class="cls-5" cx="72.375" cy="46.701" r="4.286"/></g><g id="DOTTED-24" data-name="DOTTED"><circle class="cls-5" cx="83.723" cy="46.701" r="4.286"/></g><g id="DOTTED-25" data-name="DOTTED"><circle class="cls-5" cx="95.071" cy="46.701" r="4.286"/></g><g id="DOTTED-26" data-name="DOTTED"><circle class="cls-5" cx="106.419" cy="46.701" r="4.286"/></g><g id="DOTTED-27" data-name="DOTTED"><circle class="cls-5" cx="117.767" cy="46.701" r="4.286"/></g><g id="DOTTED-28" data-name="DOTTED"><circle class="cls-5" cx="129.115" cy="46.701" r="4.286"/></g><g id="DOTTED-29" data-name="DOTTED"><circle class="cls-5" cx="140.463" cy="46.701" r="4.286"/></g><g id="DOTTED-30" data-name="DOTTED"><circle class="cls-5" cx="151.811" cy="46.701" r="4.286"/></g><g id="DOTTED-31" data-name="DOTTED"><circle class="cls-5" cx="163.159" cy="46.701" r="4.286"/></g><g id="DOTTED-32" data-name="DOTTED"><circle class="cls-5" cx="174.507" cy="46.701" r="4.286"/></g></g></g><g id="ETC-2" data-name="ETC"><path id="I" class="cls-6" d="M56.745,126.565H41.123a2.855,2.855,0,0,1-2.839-3.177c.362-3.271.73-9.911.73-23.388s-.368-20.117-.73-23.388a2.855,2.855,0,0,1,2.839-3.177H56.745a2.855,2.855,0,0,1,2.838,3.177c-.362,3.271-.73,9.911-.73,23.388s.368,20.117.73,23.388A2.855,2.855,0,0,1,56.745,126.565Z" transform="translate(-10.603 -73.435)"/><path id="II" class="cls-7" d="M90.789,126.565H75.167a2.855,2.855,0,0,1-2.839-3.177c.363-3.271.73-9.911.73-23.388s-.367-20.117-.73-23.388a2.855,2.855,0,0,1,2.839-3.177H90.789a2.854,2.854,0,0,1,2.838,3.177c-.362,3.271-.73,9.911-.73,23.388s.368,20.117.73,23.388A2.854,2.854,0,0,1,90.789,126.565Z" transform="translate(-10.603 -73.435)"/><path id="III" class="cls-8" d="M124.833,126.565H109.211a2.854,2.854,0,0,1-2.838-3.177c.362-3.271.73-9.911.73-23.388s-.368-20.117-.73-23.388a2.854,2.854,0,0,1,2.838-3.177h15.622a2.855,2.855,0,0,1,2.839,3.177c-.363,3.271-.73,9.911-.73,23.388s.367,20.117.73,23.388A2.855,2.855,0,0,1,124.833,126.565Z" transform="translate(-10.603 -73.435)"/><path id="IV" class="cls-9" d="M158.877,126.565H143.255a2.855,2.855,0,0,1-2.838-3.177c.362-3.271.73-9.911.73-23.388s-.368-20.117-.73-23.388a2.855,2.855,0,0,1,2.838-3.177h15.622a2.855,2.855,0,0,1,2.839,3.177c-.362,3.271-.73,9.911-.73,23.388s.368,20.117.73,23.388A2.855,2.855,0,0,1,158.877,126.565Z" transform="translate(-10.603 -73.435)"/></g></g></svg>