<svg id="Layer_1" data-name="Layer 1" xmlns="http://www.w3.org/2000/svg" viewBox="0 0 46.563 22.585"><defs><style>.cls-1{fill:#7b0fff;}.cls-2{fill:#b77616;}.cls-3{font-size:12px;fill:#fff;font-family:Arial-BoldMT, Arial;font-weight:700;}</style></defs><title>R-ICO-013804</title><g id="AMPK"><rect class="cls-1" x="1.46" y="1.059" width="44" height="20" rx="10"/><path class="cls-2" d="M112,110.15c-4.616-.009-9.231.43-13.847.837-2.308.2-4.616.388-6.923.457-1.17.052-2.273.087-3.5.081a11.1,11.1,0,0,1-3.921-.722,11.315,11.315,0,0,1-7.027-12.9,11.157,11.157,0,0,1,4.067-6.511A10.94,10.94,0,0,1,88,89.179c4.616.281,9.231.436,13.847.335,2.308-.059,4.616-.178,6.923-.342,1.165-.074,2.284-.169,3.487-.222a10.172,10.172,0,0,1,3.8.575,10.672,10.672,0,0,1,5.826,4.967,10.4,10.4,0,0,1,.875,7.52,11.011,11.011,0,0,1-4.137,5.967A11.515,11.515,0,0,1,112,110.15Zm0-.3a8.965,8.965,0,0,0,6.133-2.462,9.186,9.186,0,0,0,2.75-5.728,9.763,9.763,0,0,0-5.73-9.809,8.862,8.862,0,0,0-2.946-.777c-1.1-.1-2.294-.162-3.437-.246-2.307-.164-4.615-.283-6.923-.342-4.616-.1-9.231.054-13.847.335a9.325,9.325,0,0,0-5.609,2.42,9.114,9.114,0,0,0-2.82,5.185,8.634,8.634,0,0,0,1.07,5.666,8.834,8.834,0,0,0,4.333,3.73,7.948,7.948,0,0,0,2.83.629c1.082.042,2.288.043,3.426.105,2.307.069,4.615.252,6.923.457C102.769,109.42,107.384,109.859,112,109.85Z" transform="translate(-76.54 -88.941)"/><text class="cls-3" transform="translate(5.794 13.948)">AMPK</text></g></svg>