<svg id="R-ICO-013706" xmlns="http://www.w3.org/2000/svg" xmlns:xlink="http://www.w3.org/1999/xlink" viewBox="0 0 68.672 135.845"><defs><style>.cls-1{fill:url(#radial-gradient);}.cls-2{fill:url(#radial-gradient-2);}.cls-3{fill:url(#radial-gradient-3);}.cls-4{fill:url(#radial-gradient-4);}.cls-5{fill:url(#radial-gradient-5);}.cls-6{fill:url(#radial-gradient-6);}.cls-7{fill:url(#radial-gradient-7);}.cls-8{fill:url(#radial-gradient-8);}</style><radialGradient id="radial-gradient" cx="-202.03" cy="695.71" r="13.679" gradientTransform="translate(222.535 -3347.952) scale(1 4.968)" gradientUnits="userSpaceOnUse"><stop offset="0" stop-color="#a5d987"/><stop offset="0.143" stop-color="#819f7b"/><stop offset="0.3" stop-color="#5f676e"/><stop offset="0.446" stop-color="#433b65"/><stop offset="0.575" stop-color="#2f1b5e"/><stop offset="0.684" stop-color="#23075a"/><stop offset="0.759" stop-color="#1f0058"/></radialGradient><radialGradient id="radial-gradient-2" cx="-349.126" cy="698.994" r="13.679" gradientTransform="translate(292.048 -1152.644) scale(0.778 1.75)" xlink:href="#radial-gradient"/><radialGradient id="radial-gradient-3" cx="-349.126" cy="655.678" r="13.679" gradientTransform="translate(292.048 -1096.469) scale(0.778 1.75)" xlink:href="#radial-gradient"/><radialGradient id="radial-gradient-4" cx="-131.983" cy="465.086" r="9.526" gradientTransform="matrix(1.313, -0.372, 0.801, 2.855, -123.138, -1326.193)" gradientUnits="userSpaceOnUse"><stop offset="0" stop-color="#a5d987"/><stop offset="0.095" stop-color="#97c282"/><stop offset="0.543" stop-color="#575b6c"/><stop offset="0.854" stop-color="#2f195d"/><stop offset="1" stop-color="#1f0058"/></radialGradient><radialGradient id="radial-gradient-5" cx="-174.369" cy="695.71" r="13.679" xlink:href="#radial-gradient"/><radialGradient id="radial-gradient-6" cx="-313.562" cy="698.994" r="13.679" gradientTransform="translate(292.048 -1152.644) scale(0.778 1.75)" xlink:href="#radial-gradient"/><radialGradient id="radial-gradient-7" cx="-313.562" cy="655.678" r="13.679" gradientTransform="translate(292.048 -1096.469) scale(0.778 1.75)" xlink:href="#radial-gradient"/><radialGradient id="radial-gradient-8" cx="627.275" cy="721.866" r="9.526" gradientTransform="matrix(-1.313, -0.372, -0.801, 2.855, 1521.815, -1777.834)" xlink:href="#radial-gradient-4"/></defs><title>R-ICO-013706</title><g id="FLT3"><g id="FLT3-2" data-name="FLT3"><rect class="cls-1" x="11.506" y="80.158" width="18" height="55.688" rx="5"/><rect class="cls-2" x="13.506" y="60.544" width="14" height="19.614" rx="5"/><rect class="cls-3" x="13.506" y="40.929" width="14" height="19.614" rx="5"/><path class="cls-4" d="M84.35,73.691c-4.748,1.378-9.552-.8-10.731-4.859l-7.692-26.49c-1.179-4.062,1.713-8.472,6.46-9.851s9.552.8,10.732,4.859L90.81,63.84C91.99,67.9,89.1,72.312,84.35,73.691Z" transform="translate(-65.664 -32.077)"/></g><g id="FLT3-3" data-name="FLT3"><rect class="cls-5" x="39.166" y="80.158" width="18" height="55.688" rx="5"/><rect class="cls-6" x="41.166" y="60.544" width="14" height="19.614" rx="5"/><rect class="cls-7" x="41.166" y="40.929" width="14" height="19.614" rx="5"/><path class="cls-8" d="M115.65,73.691c4.748,1.378,9.552-.8,10.731-4.859l7.692-26.49c1.179-4.062-1.713-8.472-6.46-9.851s-9.552.8-10.732,4.859L109.19,63.84C108.01,67.9,110.9,72.312,115.65,73.691Z" transform="translate(-65.664 -32.077)"/></g></g></svg>