<svg id="Layer_1" data-name="Layer 1" xmlns="http://www.w3.org/2000/svg" viewBox="0 0 64.782 171.549"><defs><style>.cls-1{fill:#fff;}.cls-1,.cls-2,.cls-3{stroke:#0f82bc;stroke-linecap:round;stroke-linejoin:round;}.cls-2,.cls-3{fill:none;}.cls-3{stroke-width:0.5px;}</style></defs><title>man</title><g id="BODY"><path class="cls-1" d="M105.392,33.448c-.053,2.208-.012,4,.924,5.344s7.82,3.136,8.8,3.218,3.218.2,4.928,3.544,3.014,6.313,2.729,9.531.122,4.358.611,5.5a84.537,84.537,0,0,1,1.833,8.594c.326,1.833,2.444,6.72,3.258,11.975s.453,12.084,1.181,13.359a3.219,3.219,0,0,1,.489,2c0,.733.692,6.272.9,6.8a3.382,3.382,0,0,1,.367,1.588c-.041.652.448,3.829.367,4.4s-.244,4.44-.244,5.132-1.344.692-1.629-.407c0,0-1.751.041-1.344-2.77a11.186,11.186,0,0,1,.041-2.933,11.65,11.65,0,0,1-1.018-2.607c-.557-.281-.665-2-1.14-2-.369,0-.448,1.385-.692,2.281s-.57,2.566-1.711,2.525-.855-2.851-.448-3.951a11.712,11.712,0,0,0,.407-3.544,8.76,8.76,0,0,1,1.588-3.747s-1.588-4.521-3.91-10.02-3.055-6.883-3.462-9.327.273-5.253-.652-6.8a27.156,27.156,0,0,1-2.767-6.255h0c-.13.583-.292,1.212-.491,1.9-1.711,5.865-1.548,8.635-1.059,10.427a15.9,15.9,0,0,1,.326,5.539c-.163,1.792.57,5.784,1.3,10.02s2.607,14.989,2.362,19.958-2.933,15.152-3.1,19.306,1.955,10.916,2.118,13.848-2.281,19.55-2.688,22.972a18.952,18.952,0,0,0,.407,6.435c.081.652-.652,2.688.652,4.562s2.643,2.511,2.787,3.517.312,1.941-.7,1.7a.677.677,0,0,1-1.031.192s-.671.657-1.27.173c0,0-.569.714-1.507-.053,0,0-.171.551-1.393.551a1.639,1.639,0,0,1-1.582-.887s-1.846-.407-1.39-3.044c0,0-1.007-.192-.959-1.678s.575-1.222.575-2.636-.791-2.109-.791-2.876.863-2.181.863-3.619-1.034-12.767-2.294-14.342-1.638-5.165-1.008-9.385.819-6.424.819-6.424a15.342,15.342,0,0,1-2.33-6.047c-.378-3.212-1.386-13.92-1.953-16.943s-1.63-7.915-1.063-12.072-.45-3.863-.639-3.863-.979-.327-.412,3.83-.47,9.082-1.037,12.105-1.575,13.731-1.953,16.943a15.342,15.342,0,0,1-2.33,6.047s.189,2.2.819,6.424.252,7.81-1.008,9.385-2.294,12.9-2.294,14.342.863,2.852.863,3.619-.791,1.462-.791,2.876.527,1.15.575,2.636-.959,1.678-.959,1.678c.455,2.636-1.39,3.044-1.39,3.044a1.639,1.639,0,0,1-1.582.887c-1.222,0-1.393-.551-1.393-.551-.938.767-1.507.053-1.507.053-.6.484-1.27-.173-1.27-.173a.677.677,0,0,1-1.031-.192c-1.007.24-.839-.7-.7-1.7s1.483-1.644,2.787-3.517.57-3.91.652-4.562a18.952,18.952,0,0,0,.407-6.435c-.407-3.421-2.851-20.039-2.688-22.972s2.281-9.694,2.118-13.848-2.851-14.337-3.1-19.306S84.179,97,84.912,92.76s1.466-8.227,1.3-10.02a15.9,15.9,0,0,1,.326-5.539c.489-1.792.652-4.562-1.059-10.427-.2-.684-.361-1.313-.491-1.9h0a27.156,27.156,0,0,1-2.767,6.255c-.924,1.549-.244,4.358-.652,6.8s-1.14,3.829-3.462,9.327-3.91,10.02-3.91,10.02a8.76,8.76,0,0,1,1.588,3.747,11.712,11.712,0,0,0,.407,3.544c.407,1.1.692,3.91-.448,3.951s-1.466-1.629-1.711-2.525-.324-2.277-.692-2.281c-.475,0-.584,1.715-1.14,2a11.65,11.65,0,0,1-1.018,2.607,11.186,11.186,0,0,1,.041,2.933c.407,2.81-1.344,2.77-1.344,2.77-.285,1.1-1.629,1.1-1.629.407s-.163-4.562-.244-5.132.407-3.747.367-4.4a3.382,3.382,0,0,1,.367-1.588c.2-.529.9-6.069.9-6.8a3.219,3.219,0,0,1,.489-2c.729-1.275.367-8.105,1.181-13.359s2.933-10.142,3.258-11.975A84.537,84.537,0,0,1,76.4,60.583c.489-1.14.9-2.281.611-5.5s1.018-6.191,2.729-9.531,3.951-3.462,4.928-3.544,7.861-1.874,8.8-3.218a6.784,6.784,0,0,0,.936-3.872h0c-.928-1.135-.979-4.128-.979-4.128s-.759.467-1.168-1.168S91.089,27,91.264,25.536s1.253.442,1.253.442c-.234-3.212.09-10.6,6.748-10.6s8.109,6.335,7.642,10.248c0,0,.768-1.546,1.235-.028s-.876,3.5-.993,4.088-.642,1.811-1.46,1.168a8.642,8.642,0,0,1-.3,2.6Z" transform="translate(-67.5 -14.874)"/><path class="cls-2" d="M92.517,25.978c-.234-3.212.09-10.6,6.748-10.6s8.109,6.335,7.642,10.248c0,0,.768-1.546,1.235-.028s-.876,3.5-.993,4.088-.642,1.811-1.46,1.168c0,0,.175,3.1-1.285,4.205-1.73,1.315-2.278,2.278-5.2,2.278s-3.2-1.03-4.614-2.219c-1.11-.934-1.168-4.322-1.168-4.322s-.759.467-1.168-1.168S91.089,27,91.264,25.536,92.517,25.978,92.517,25.978Z" transform="translate(-67.5 -14.874)"/><path class="cls-3" d="M98.1,30.787c.137-.137.378.069.516.241a.967.967,0,0,0,1,0c.138-.139.392-.435.687-.184" transform="translate(-67.5 -14.874)"/><path class="cls-3" d="M103.1,27.008a1.782,1.782,0,0,1-.921.183c-.887-.065-1.147-.238-1.364-.216" transform="translate(-67.5 -14.874)"/><path class="cls-3" d="M95.1,27.006a1.519,1.519,0,0,0,.87.185c.887-.065,1.147-.238,1.364-.216" transform="translate(-67.5 -14.874)"/><path class="cls-3" d="M101,33a7.231,7.231,0,0,0-1.152-.015c-.353.071-.151.141-.65.141s-.445-.182-.763-.162c-.225.014-.735.09-1.1.132" transform="translate(-67.5 -14.874)"/><path class="cls-3" d="M105.392,33.448c-.053,2.208-.012,4,.924,5.344s7.82,3.136,8.8,3.218,3.218.2,4.928,3.544,3.014,6.313,2.729,9.531.122,4.358.611,5.5a84.537,84.537,0,0,1,1.833,8.594c.326,1.833,2.444,6.72,3.258,11.975s.453,12.084,1.181,13.359a3.219,3.219,0,0,1,.489,2c0,.733.692,6.272.9,6.8a3.382,3.382,0,0,1,.367,1.588c-.041.652.448,3.829.367,4.4s-.244,4.44-.244,5.132-1.344.692-1.629-.407c0,0-1.751.041-1.344-2.77a11.186,11.186,0,0,1,.041-2.933,11.65,11.65,0,0,1-1.018-2.607c-.557-.281-.665-2-1.14-2-.369,0-.448,1.385-.692,2.281s-.57,2.566-1.711,2.525-.855-2.851-.448-3.951a11.712,11.712,0,0,0,.407-3.544,8.76,8.76,0,0,1,1.588-3.747s-1.588-4.521-3.91-10.02-3.055-6.883-3.462-9.327.273-5.253-.652-6.8a27.156,27.156,0,0,1-2.767-6.255" transform="translate(-67.5 -14.874)"/><path class="cls-2" d="M115.522,55.125c-.652,1.711-3.421,6.924-8.309,6.517s-5.663-.733-5.663-.733" transform="translate(-67.5 -14.874)"/><path class="cls-3" d="M94.4,34.921a6.784,6.784,0,0,1-.936,3.872c-.937,1.344-7.82,3.136-8.8,3.218s-3.218.2-4.928,3.544-3.014,6.313-2.729,9.531-.122,4.358-.611,5.5a84.537,84.537,0,0,0-1.833,8.594c-.326,1.833-2.444,6.72-3.258,11.975s-.453,12.084-1.181,13.359a3.219,3.219,0,0,0-.489,2c0,.733-.692,6.272-.9,6.8a3.382,3.382,0,0,0-.367,1.588c.041.652-.448,3.829-.367,4.4s.244,4.44.244,5.132,1.344.692,1.629-.407c0,0,1.751.041,1.344-2.77a11.186,11.186,0,0,0-.041-2.933,11.65,11.65,0,0,0,1.018-2.607c.557-.281.665-2,1.14-2,.369,0,.448,1.385.692,2.281s.57,2.566,1.711,2.525.855-2.851.448-3.951a11.712,11.712,0,0,1-.407-3.544A8.76,8.76,0,0,0,74.2,97.281s1.588-4.521,3.91-10.02,3.055-6.883,3.462-9.327-.273-5.253.652-6.8a27.156,27.156,0,0,0,2.767-6.255" transform="translate(-67.5 -14.874)"/><path class="cls-2" d="M84.26,55.125c.652,1.711,3.421,6.924,8.309,6.517s5.663-.733,5.663-.733" transform="translate(-67.5 -14.874)"/><path class="cls-2" d="M84.981,56.635c-.15,2.4-1.209,4.274.5,10.139S87.03,75.409,86.541,77.2a15.9,15.9,0,0,0-.326,5.539c.163,1.792-.57,5.784-1.3,10.02s-2.607,14.989-2.362,19.958,2.933,15.152,3.1,19.306-1.955,10.916-2.118,13.848,2.281,19.55,2.688,22.972a18.952,18.952,0,0,1-.407,6.435c-.081.652.652,2.688-.652,4.562s-2.643,2.511-2.787,3.517-.312,1.941.7,1.7a.677.677,0,0,0,1.031.192s.671.657,1.27.173c0,0,.569.714,1.507-.053,0,0,.171.551,1.393.551a1.639,1.639,0,0,0,1.582-.887s1.846-.407,1.39-3.044c0,0,1.007-.192.959-1.678s-.575-1.222-.575-2.636.791-2.109.791-2.876-.863-2.181-.863-3.619,1.034-12.767,2.294-14.342,1.638-5.165,1.008-9.385-.819-6.424-.819-6.424a15.342,15.342,0,0,0,2.33-6.047c.378-3.212,1.386-13.92,1.953-16.943s1.6-7.948,1.037-12.105.223-3.83.412-3.83,1.206-.294.639,3.863.5,9.049,1.063,12.072,1.575,13.731,1.953,16.943a15.342,15.342,0,0,0,2.33,6.047s-.189,2.2-.819,6.424-.252,7.81,1.008,9.385,2.294,12.9,2.294,14.342-.863,2.852-.863,3.619.791,1.462.791,2.876-.527,1.15-.575,2.636.959,1.678.959,1.678c-.455,2.636,1.39,3.044,1.39,3.044a1.639,1.639,0,0,0,1.582.887c1.222,0,1.393-.551,1.393-.551.938.767,1.507.053,1.507.053.6.484,1.27-.173,1.27-.173a.677.677,0,0,0,1.031-.192c1.007.24.839-.7.7-1.7s-1.483-1.644-2.787-3.517-.57-3.91-.652-4.562a18.952,18.952,0,0,1-.407-6.435c.407-3.421,2.851-20.039,2.688-22.972s-2.281-9.694-2.118-13.848,2.851-14.337,3.1-19.306S115.6,97,114.87,92.76s-1.466-8.227-1.3-10.02a15.9,15.9,0,0,0-.326-5.539c-.489-1.792-.652-4.562,1.059-10.427s.652-7.739.5-10.139" transform="translate(-67.5 -14.874)"/><path class="cls-3" d="M98.9,79.533c0,.321.214.7.482.536a.474.474,0,0,0,0-.8" transform="translate(-67.5 -14.874)"/></g></svg>