<svg id="R-ICO-013721" xmlns="http://www.w3.org/2000/svg" xmlns:xlink="http://www.w3.org/1999/xlink" viewBox="0 0 16.422 174.988"><defs><style>.cls-1{fill:url(#linear-gradient);}.cls-2{fill:url(#linear-gradient-2);}.cls-3{fill:url(#radial-gradient);}.cls-4{fill:url(#radial-gradient-2);}.cls-5{fill:url(#radial-gradient-3);}.cls-6{fill:url(#radial-gradient-4);}.cls-7{fill:url(#radial-gradient-5);}.cls-8{fill:url(#radial-gradient-6);}.cls-9{fill:url(#radial-gradient-7);}.cls-10{fill:url(#radial-gradient-8);}.cls-11{fill:url(#radial-gradient-9);}.cls-12{fill:url(#radial-gradient-10);}.cls-13{fill:url(#radial-gradient-11);}</style><linearGradient id="linear-gradient" x1="91.789" y1="100.007" x2="108.211" y2="100.007" gradientUnits="userSpaceOnUse"><stop offset="0.261" stop-color="#470742"/><stop offset="0.416" stop-color="#ff03ea"/><stop offset="0.744" stop-color="#470742"/></linearGradient><linearGradient id="linear-gradient-2" x1="100" y1="187.494" x2="100" y2="12.52" gradientUnits="userSpaceOnUse"><stop offset="0.256" stop-color="#470742"/><stop offset="0.364" stop-color="#ff03ea" stop-opacity="0"/><stop offset="0.435" stop-color="#470742"/><stop offset="0.504" stop-color="#ff03ea" stop-opacity="0"/><stop offset="0.561" stop-color="#470742"/><stop offset="1" stop-color="#ff03ea" stop-opacity="0"/></linearGradient><radialGradient id="radial-gradient" cx="96.88" cy="557.264" r="8.211" gradientTransform="translate(-91.789 -71.445) scale(1 0.3)" gradientUnits="userSpaceOnUse"><stop offset="0" stop-color="#ff03ea"/><stop offset="1" stop-color="#470742"/></radialGradient><radialGradient id="radial-gradient-2" cx="96.88" cy="543.95" r="8.211" xlink:href="#radial-gradient"/><radialGradient id="radial-gradient-3" cx="96.88" cy="530.636" r="8.211" xlink:href="#radial-gradient"/><radialGradient id="radial-gradient-4" cx="79.074" cy="139.632" r="8.211" gradientTransform="translate(-42.329 -12.506) scale(0.615 1)" xlink:href="#radial-gradient"/><radialGradient id="radial-gradient-5" cx="79.074" cy="156.054" r="8.211" gradientTransform="translate(-42.329 -12.506) scale(0.615 1)" xlink:href="#radial-gradient"/><radialGradient id="radial-gradient-6" cx="79.074" cy="172.476" r="8.211" gradientTransform="translate(-42.329 -12.506) scale(0.615 1)" xlink:href="#radial-gradient"/><radialGradient id="radial-gradient-7" cx="5.091" cy="66.713" r="8.211" gradientTransform="matrix(1, 0, 0, 1, 0, 0)" xlink:href="#radial-gradient"/><radialGradient id="radial-gradient-8" cx="5.091" cy="51.33" r="8.211" gradientTransform="matrix(1, 0, 0, 1, 0, 0)" xlink:href="#radial-gradient"/><radialGradient id="radial-gradient-9" cx="5.419" cy="35.946" r="8.211" gradientTransform="matrix(1, 0, 0, 1, 0, 0)" xlink:href="#radial-gradient"/><radialGradient id="radial-gradient-10" cx="5.583" cy="20.643" r="8.211" gradientTransform="matrix(1, 0, 0, 1, 0, 0)" xlink:href="#radial-gradient"/><radialGradient id="radial-gradient-11" cx="97.372" cy="18.161" r="8.165" gradientTransform="matrix(1, 0, 0, 1, 0, 0)" xlink:href="#radial-gradient"/></defs><title>R-ICO-013721</title><g id="ROBO2"><path class="cls-1" d="M108.211,35.64a8.188,8.188,0,0,0-2.7-6.084,1.97,1.97,0,0,1-.047-2.9,8.307,8.307,0,0,0,2.745-6.126A8.079,8.079,0,0,0,100,12.52a8.074,8.074,0,0,0-5.51,14.1,2,2,0,0,1,0,2.935,8.208,8.208,0,0,0,0,12.173,2,2,0,0,1,0,2.935,8.208,8.208,0,0,0,0,12.173,2,2,0,0,1,0,2.935,8.208,8.208,0,0,0,0,12.173,2,2,0,0,1,0,2.935,8.207,8.207,0,0,0,1.253,13.105,1.99,1.99,0,0,1,.973,1.7v43.549a7.008,7.008,0,0,1-.661,3.095,12.4,12.4,0,0,0,0,10.231,7.016,7.016,0,0,1,.661,3.1h0a7.008,7.008,0,0,1-.661,3.095,12.4,12.4,0,0,0,0,10.231,7.016,7.016,0,0,1,.661,3.1h0a7.008,7.008,0,0,1-.661,3.095,12.4,12.4,0,0,0,0,10.231,7.016,7.016,0,0,1,.661,3.1v1.715a3.285,3.285,0,1,0,6.569,0v-1.716a7,7,0,0,1,.661-3.095,12.412,12.412,0,0,0,0-10.23,7,7,0,0,1-.661-3.095v0a7,7,0,0,1,.661-3.095,12.412,12.412,0,0,0,0-10.23,7,7,0,0,1-.661-3.095v0a7,7,0,0,1,.661-3.095,12.412,12.412,0,0,0,0-10.23,7,7,0,0,1-.661-3.095V89.679a1.988,1.988,0,0,1,.972-1.7,8.207,8.207,0,0,0,1.253-13.105,2,2,0,0,1,0-2.935,8.208,8.208,0,0,0,0-12.173,2,2,0,0,1,0-2.935,8.208,8.208,0,0,0,0-12.173,2,2,0,0,1,0-2.935A8.186,8.186,0,0,0,108.211,35.64Z" transform="translate(-91.789 -12.506)"/><path class="cls-2" d="M108.211,35.64a8.188,8.188,0,0,0-2.7-6.084,1.97,1.97,0,0,1-.047-2.9,8.307,8.307,0,0,0,2.745-6.126A8.079,8.079,0,0,0,100,12.52a8.074,8.074,0,0,0-5.51,14.1,2,2,0,0,1,0,2.935,8.208,8.208,0,0,0,0,12.173,2,2,0,0,1,0,2.935,8.208,8.208,0,0,0,0,12.173,2,2,0,0,1,0,2.935,8.208,8.208,0,0,0,0,12.173,2,2,0,0,1,0,2.935,8.207,8.207,0,0,0,1.253,13.105,1.99,1.99,0,0,1,.973,1.7v43.549a7.008,7.008,0,0,1-.661,3.095,12.4,12.4,0,0,0,0,10.231,7.016,7.016,0,0,1,.661,3.1h0a7.008,7.008,0,0,1-.661,3.095,12.4,12.4,0,0,0,0,10.231,7.016,7.016,0,0,1,.661,3.1h0a7.008,7.008,0,0,1-.661,3.095,12.4,12.4,0,0,0,0,10.231,7.016,7.016,0,0,1,.661,3.1v1.715a3.285,3.285,0,1,0,6.569,0v-1.716a7,7,0,0,1,.661-3.095,12.412,12.412,0,0,0,0-10.23,7,7,0,0,1-.661-3.095v0a7,7,0,0,1,.661-3.095,12.412,12.412,0,0,0,0-10.23,7,7,0,0,1-.661-3.095v0a7,7,0,0,1,.661-3.095,12.412,12.412,0,0,0,0-10.23,7,7,0,0,1-.661-3.095V89.679a1.988,1.988,0,0,1,.972-1.7,8.207,8.207,0,0,0,1.253-13.105,2,2,0,0,1,0-2.935,8.208,8.208,0,0,0,0-12.173,2,2,0,0,1,0-2.935,8.208,8.208,0,0,0,0-12.173,2,2,0,0,1,0-2.935A8.186,8.186,0,0,0,108.211,35.64Z" transform="translate(-91.789 -12.506)"/><ellipse class="cls-3" cx="8.211" cy="96.52" rx="8.211" ry="2.467"/><ellipse class="cls-4" cx="8.211" cy="92.52" rx="8.211" ry="2.467"/><ellipse class="cls-5" cx="8.211" cy="88.52" rx="8.211" ry="2.467"/><ellipse class="cls-6" cx="8.211" cy="128.933" rx="5.049" ry="8.211"/><ellipse class="cls-7" cx="8.211" cy="145.355" rx="5.049" ry="8.211"/><ellipse class="cls-8" cx="8.211" cy="161.777" rx="5.049" ry="8.211"/><circle class="cls-9" cx="8.211" cy="68.52" r="8.211"/><circle class="cls-10" cx="8.211" cy="53.3" r="8.211"/><circle class="cls-11" cx="8.211" cy="38.245" r="8.211"/><circle class="cls-12" cx="8.211" cy="23.107" r="8.211"/><path class="cls-13" d="M108.211,20.532a8.213,8.213,0,0,0-16.422,0,8.211,8.211,0,0,0,16.422,0Z" transform="translate(-91.789 -12.506)"/></g></svg>