<svg id="Layer_1" data-name="Layer 1" xmlns="http://www.w3.org/2000/svg" xmlns:xlink="http://www.w3.org/1999/xlink" viewBox="0 0 112.372 92.477"><defs><style>.cls-1{fill:url(#linear-gradient);}.cls-2{fill:url(#linear-gradient-2);}.cls-3{fill:#cc9f2f;}.cls-4{fill:url(#linear-gradient-3);}.cls-5{fill:url(#linear-gradient-4);}.cls-6{fill:url(#linear-gradient-5);}.cls-7{fill:url(#radial-gradient);}.cls-8{fill:url(#linear-gradient-6);}.cls-9{fill:url(#radial-gradient-2);}.cls-10{fill:url(#linear-gradient-7);}.cls-11{fill:url(#radial-gradient-3);}.cls-12{fill:url(#linear-gradient-8);}.cls-13{fill:url(#radial-gradient-4);}</style><linearGradient id="linear-gradient" x1="128.499" y1="92.113" x2="81.624" y2="92.113" gradientUnits="userSpaceOnUse"><stop offset="0.069" stop-color="#7d3162"/><stop offset="0.539" stop-color="#cc70ab"/><stop offset="0.815" stop-color="#e89ecc"/><stop offset="0.867" stop-color="#e497c7"/><stop offset="0.943" stop-color="#d883b9"/><stop offset="1" stop-color="#cc70ab"/></linearGradient><linearGradient id="linear-gradient-2" x1="97.972" y1="100.286" x2="41.759" y2="100.286" xlink:href="#linear-gradient"/><linearGradient id="linear-gradient-3" x1="154.131" y1="103.402" x2="97.972" y2="103.402" xlink:href="#linear-gradient"/><linearGradient id="linear-gradient-4" x1="114.26" y1="113.958" x2="67.391" y2="113.958" xlink:href="#linear-gradient"/><linearGradient id="linear-gradient-5" x1="59.958" y1="65.214" x2="117.887" y2="103.956" gradientUnits="userSpaceOnUse"><stop offset="0.258" stop-color="#cc70ab"/><stop offset="0.405" stop-color="#c66ca6"/><stop offset="0.593" stop-color="#b75f97"/><stop offset="0.8" stop-color="#9d4a7f"/><stop offset="1" stop-color="#7d3162"/></linearGradient><radialGradient id="radial-gradient" cx="65.902" cy="115.851" r="25.816" gradientTransform="translate(0 2.651) scale(1 0.65)" gradientUnits="userSpaceOnUse"><stop offset="0.3" stop-color="#7d3162"/><stop offset="0.7" stop-color="#cc8db5"/></radialGradient><linearGradient id="linear-gradient-6" x1="77.391" y1="39.154" x2="135.32" y2="77.896" xlink:href="#linear-gradient-5"/><radialGradient id="radial-gradient-2" cx="131.151" cy="121.287" r="25.816" gradientTransform="translate(0 3.391) scale(1 0.65)" xlink:href="#radial-gradient"/><linearGradient id="linear-gradient-7" x1="59.646" y1="62.631" x2="117.514" y2="101.333" xlink:href="#linear-gradient-5"/><radialGradient id="radial-gradient-3" cx="91.535" cy="133.267" r="25.816" gradientTransform="translate(0 5.021) scale(1 0.65)" xlink:href="#radial-gradient"/><linearGradient id="linear-gradient-8" x1="77.751" y1="41.798" x2="135.619" y2="80.5" xlink:href="#linear-gradient-5"/><radialGradient id="radial-gradient-4" cx="105.518" cy="103.915" r="25.816" gradientTransform="translate(0 1.027) scale(1 0.65)" xlink:href="#radial-gradient"/></defs><title>AQP9</title><g id="AQP9"><g id="cylinders"><path class="cls-1" d="M81.625,112.51c-.12,4.623,15.933,11.9,16.348,12.121,0,0,27.289-5.541,30-10.04a3.36,3.36,0,0,0,.523-1.708V59.965l-46.875-.371Z" transform="translate(-41.759 -51.955)"/><path class="cls-2" d="M97.972,124.632s-24.841,6.844-37.565,6.013c-11.134-.727-18.738-4.126-18.647-7.978V69.856l56.213,1.928Z" transform="translate(-41.759 -51.955)"/><path class="cls-3" d="M154.126,126.326" transform="translate(-41.759 -51.955)"/><path class="cls-4" d="M97.987,124.607s14.944,9.442,27.668,10.273,25.239-2.142,27.953-6.641a3.286,3.286,0,0,0,.518-1.913v-52.7L97.972,71.784v52.847" transform="translate(-41.759 -51.955)"/><path class="cls-5" d="M67.392,136.344c-.051,3.84,7.543,7.223,18.648,7.948,12.724.831,25.239-2.142,27.953-6.641a1.827,1.827,0,0,0,.268-.967V83.873l-46.869-.389Z" transform="translate(-41.759 -51.955)"/></g><g id="tops"><path class="cls-6" d="M97.972,71.784S73.131,78.629,60.407,77.8s-20.839-5.151-18.125-9.65,15.229-7.472,27.953-6.641S97.972,71.784,97.972,71.784Z" transform="translate(-41.759 -51.955)"/><path class="cls-7" d="M74.766,70.234c-1.113,1.844-6.243,3.063-11.459,2.723S54.764,70.845,55.876,69s6.243-3.063,11.459-2.723S75.878,68.39,74.766,70.234Z" transform="translate(-41.759 -51.955)"/><path class="cls-8" d="M153.608,75.392c-2.714,4.5-15.229,7.472-27.953,6.641S97.987,71.76,97.987,71.76s24.772-6.849,37.5-6.018S156.322,70.893,153.608,75.392Z" transform="translate(-41.759 -51.955)"/><path class="cls-9" d="M140.014,74.5c-1.113,1.844-6.243,3.063-11.459,2.723s-8.543-2.112-7.43-3.956,6.243-3.063,11.459-2.723S141.127,72.66,140.014,74.5Z" transform="translate(-41.759 -51.955)"/><path class="cls-10" d="M113.992,84.8c-2.714,4.5-15.229,7.472-27.953,6.641S65.2,86.294,67.915,81.8s30-10.04,30-10.04S116.706,80.305,113.992,84.8Z" transform="translate(-41.759 -51.955)"/><path class="cls-11" d="M100.4,83.916c-1.113,1.844-6.243,3.063-11.459,2.723s-8.543-2.112-7.43-3.956,6.243-3.063,11.459-2.723S101.511,82.072,100.4,83.916Z" transform="translate(-41.759 -51.955)"/><path class="cls-12" d="M109.851,52.095c12.724.831,20.839,5.151,18.125,9.65s-30,10.04-30,10.04c-.444-.237-18.789-8.55-16.075-13.049S97.127,51.264,109.851,52.095Z" transform="translate(-41.759 -51.955)"/><path class="cls-13" d="M114.381,60.857c-1.113,1.844-6.243,3.063-11.459,2.723s-8.543-2.112-7.43-3.956,6.243-3.063,11.459-2.723S115.494,59.013,114.381,60.857Z" transform="translate(-41.759 -51.955)"/></g></g></svg>