<svg id="Layer_1" data-name="Layer 1" xmlns="http://www.w3.org/2000/svg" xmlns:xlink="http://www.w3.org/1999/xlink" viewBox="0 0 28.485 43.658"><defs><style>.cls-1{fill:url(#linear-gradient);}.cls-2{fill:url(#linear-gradient-2);}.cls-3{fill:url(#linear-gradient-3);}.cls-4{fill:url(#linear-gradient-4);}</style><linearGradient id="linear-gradient" x1="1395.254" y1="-1694.797" x2="1427.176" y2="-1689.104" gradientTransform="matrix(0.029, 0.855, -0.732, 0.025, -1169.49, -1072.604)" gradientUnits="userSpaceOnUse"><stop offset="0" stop-color="#231d0f"/><stop offset="0.094" stop-color="#907330"/><stop offset="0.117" stop-color="#937737"/><stop offset="0.15" stop-color="#9c8349"/><stop offset="0.189" stop-color="#aa9668"/><stop offset="0.231" stop-color="#bdb092"/><stop offset="0.273" stop-color="#d3cec1"/><stop offset="0.31" stop-color="#d2ccbe"/><stop offset="0.335" stop-color="#cec7b5"/><stop offset="0.357" stop-color="#c6bda6"/><stop offset="0.377" stop-color="#bcaf90"/><stop offset="0.396" stop-color="#b09e74"/><stop offset="0.413" stop-color="#a08952"/><stop offset="0.428" stop-color="#907330"/><stop offset="0.506" stop-color="#796129"/><stop offset="0.652" stop-color="#54431e"/><stop offset="0.787" stop-color="#392e16"/><stop offset="0.908" stop-color="#292211"/><stop offset="1" stop-color="#231d0f"/></linearGradient><linearGradient id="linear-gradient-2" x1="2321.829" y1="-778.26" x2="2338.741" y2="-775.243" gradientTransform="translate(-277.976 -2312.565) rotate(99.505)" xlink:href="#linear-gradient"/><linearGradient id="linear-gradient-3" x1="2339.568" y1="-767.364" x2="2321.125" y2="-768.74" gradientTransform="translate(-277.976 -2312.565) rotate(99.505)" xlink:href="#linear-gradient"/><linearGradient id="linear-gradient-4" x1="1531.223" y1="1000.299" x2="1516.808" y2="999.224" gradientTransform="matrix(0.838, 0.545, 0.545, -0.838, -1731.921, 105.5)" xlink:href="#linear-gradient"/></defs><title>Intron</title><g id="Intron"><path class="cls-1" d="M104.958,106.01a3.293,3.293,0,0,1-.046-.41,16.268,16.268,0,0,1,2.144-9.6c9.238-11.847,3.52-17.828,3.52-17.828l.075.109s9.5,4.716-2.4,17.278C107.214,96.468,104.951,101.232,104.958,106.01Z" transform="translate(-85.758 -78.171)"/><path class="cls-2" d="M95.554,121.247c11.883,1.99,9.38-15.426,9.38-15.426l.072.132s9.046,18.391-7.714,15.585Z" transform="translate(-85.758 -78.171)"/><path class="cls-3" d="M98.322,121.71C87.6,119.915,93.105,107,94.285,104.491a1.044,1.044,0,0,1,.314-.366c.191-.121.01-.108.01-.108a5.5,5.5,0,0,0-.509.447c-1.978,2.093-12.836,14.39,2.485,16.955Z" transform="translate(-85.758 -78.171)"/><path class="cls-4" d="M94.457,104.219c5.092-3.193-3-10.835-8.541-9.96l-.159.033c3.942.474,11.863,7.474,8.565,10Z" transform="translate(-85.758 -78.171)"/></g></svg>