<svg id="Layer_1" data-name="Layer 1" xmlns="http://www.w3.org/2000/svg" xmlns:xlink="http://www.w3.org/1999/xlink" viewBox="0 0 153.972 43.557"><defs><style>.cls-1{fill:url(#radial-gradient);}.cls-2{font-size:12px;fill:#fff;font-family:Arial-BoldMT, Arial;font-weight:700;}</style><radialGradient id="radial-gradient" cx="99.389" cy="33.448" r="93.921" gradientTransform="translate(142.819 -66.364) rotate(89.447) scale(1 1.327)" gradientUnits="userSpaceOnUse"><stop offset="0.505" stop-color="#531f33"/><stop offset="0.519" stop-color="#5e1c36"/><stop offset="0.588" stop-color="#8f1041"/><stop offset="0.648" stop-color="#b20749"/><stop offset="0.697" stop-color="#c8024e"/><stop offset="0.729" stop-color="#d00050"/><stop offset="0.767" stop-color="#c8024e"/><stop offset="0.826" stop-color="#b30749"/><stop offset="0.899" stop-color="#901041"/><stop offset="0.981" stop-color="#5f1c36"/><stop offset="1" stop-color="#531f33"/></radialGradient></defs><title>SHR</title><g id="SHR"><path id="SHR-2" data-name="SHR" class="cls-1" d="M99.03,119.964C62.806,119.964,39.9,114.9,29,104.476A23.528,23.528,0,0,1,21.465,85.9l0-.462A9.288,9.288,0,0,1,31,76.407a9.288,9.288,0,0,1,9.529,9.026l0,.637c-.022,2.166-.038,3.732,2.023,5.7,3.188,3.048,15.071-3.749,56.484-3.749,41.321,0,52.644,7.268,55.595,4.422,1.737-1.675,1.789-3.089,1.735-5.876-.008-.4-.014-.781-.014-1.138a9.543,9.543,0,0,1,19.059,0c0,.254.006.525.011.81.072,3.8.224,11.7-7.193,18.854C157.705,115.24,135.719,119.964,99.03,119.964Z" transform="translate(-21.46 -76.407)"/><text class="cls-2" transform="translate(64.318 34.304)">SHR</text></g></svg>