<svg id="Layer_1" data-name="Layer 1" xmlns="http://www.w3.org/2000/svg" xmlns:xlink="http://www.w3.org/1999/xlink" viewBox="0 0 129 92.096"><defs><style>.cls-1{stroke:#9f42ff;stroke-linecap:round;stroke-miterlimit:10;stroke-width:4px;fill:url(#radial-gradient);}.cls-2{opacity:0.8;}.cls-3{isolation:isolate;}.cls-4{fill:url(#radial-gradient-2);}.cls-5{fill:#5656a5;}.cls-6{fill:url(#radial-gradient-3);}.cls-7{fill:#4b4b96;}</style><radialGradient id="radial-gradient" cx="79.715" cy="71.832" r="54.093" gradientTransform="translate(217.378 7.28) rotate(90) scale(1 1.363)" gradientUnits="userSpaceOnUse"><stop offset="0" stop-color="#fcfaff"/><stop offset="1" stop-color="#e0c2ff"/></radialGradient><radialGradient id="radial-gradient-2" cx="65.836" cy="827.443" r="16.826" gradientTransform="translate(-35.5 -791.842)" gradientUnits="userSpaceOnUse"><stop offset="0" stop-color="#afbaf7"/><stop offset="0.311" stop-color="#6d96ce"/><stop offset="0.803" stop-color="#285fcc"/></radialGradient><radialGradient id="radial-gradient-3" cx="62.66" cy="832.711" r="3.248" gradientTransform="translate(-35.5 -791.842)" gradientUnits="userSpaceOnUse"><stop offset="0" stop-color="#afbaf7"/><stop offset="0.312" stop-color="#b898ce"/><stop offset="0.803" stop-color="#515181"/></radialGradient></defs><title>Collecting_duct_cell</title><g id="Collecting_duct_cell"><path id="Collecting_duct_cell-2" data-name="Collecting_duct_cell" class="cls-1" d="M118.565,138.923c7.392-6.747-12.156-6.5-12.156-17.312,0-12.792,8.593-15.4,22.617-15.668,18.025-.349,17.923,17.151,9.661,21.043-9.366,4.412-7.9,8-5.426,10.64s13.48,7.627,23.4-7.51c8.768-13.383,10.614-53.761-15.69-65.3S65.749,50.744,50.29,71.048s-21.458,56.53,8.537,66.913S113.873,143.206,118.565,138.923Z" transform="translate(-35.5 -53.952)"/><g id="Nucleus" class="cls-2"><g id="NUCLEUS-2" data-name="NUCLEUS" class="cls-3"><circle class="cls-4" cx="33.665" cy="40.932" r="12.802"/><path class="cls-5" d="M69.165,108.157A13.273,13.273,0,1,1,82.438,94.884,13.288,13.288,0,0,1,69.165,108.157Zm0-25.6A12.332,12.332,0,1,0,81.5,94.884,12.344,12.344,0,0,0,69.165,82.552Z" transform="translate(-35.5 -53.952)"/></g><g id="NUCLEOLUS"><circle class="cls-6" cx="27.17" cy="40.861" r="2.612"/><path class="cls-7" d="M62.67,97.567a2.742,2.742,0,1,1,2.73-2.753A2.732,2.732,0,0,1,62.67,97.567Zm0-5.248a2.495,2.495,0,1,0,2.495,2.495A2.5,2.5,0,0,0,62.67,92.319Z" transform="translate(-35.5 -53.952)"/></g></g></g></svg>