<svg id="Layer_1" data-name="Layer 1" xmlns="http://www.w3.org/2000/svg" xmlns:xlink="http://www.w3.org/1999/xlink" viewBox="0 0 46.829 42.827"><defs><style>.cls-1{fill:url(#radial-gradient);}.cls-2{fill:url(#radial-gradient-2);}.cls-3{fill:url(#radial-gradient-3);}.cls-4{fill:url(#radial-gradient-4);}.cls-5{fill:url(#radial-gradient-5);}.cls-6{fill:url(#radial-gradient-6);}</style><radialGradient id="radial-gradient" cx="85.553" cy="52.993" r="8.187" gradientTransform="translate(19.425 29.792)" gradientUnits="userSpaceOnUse"><stop offset="0" stop-color="#f5999b"/><stop offset="1" stop-color="#721012"/></radialGradient><radialGradient id="radial-gradient-2" cx="70.319" cy="51.38" r="8.187" gradientTransform="translate(19.341 31.28)" xlink:href="#radial-gradient"/><radialGradient id="radial-gradient-3" cx="61.422" cy="63.555" r="8.187" gradientTransform="translate(20.565 32.086)" xlink:href="#radial-gradient"/><radialGradient id="radial-gradient-4" cx="67.511" cy="77.531" r="8.187" gradientTransform="translate(21.894 31.429)" xlink:href="#radial-gradient"/><radialGradient id="radial-gradient-5" cx="82.786" cy="79.174" r="8.187" gradientTransform="translate(21.981 29.937)" xlink:href="#radial-gradient"/><radialGradient id="radial-gradient-6" cx="91.684" cy="66.999" r="8.187" gradientTransform="translate(20.757 29.131)" xlink:href="#radial-gradient"/></defs><title>LSM1-7</title><g id="LSM1-7"><circle class="cls-1" cx="106.351" cy="85.378" r="8.187" transform="translate(-82.962 -66.332) rotate(-5.574)"/><circle class="cls-2" cx="91.032" cy="85.252" r="8.187" transform="translate(-83.022 -67.82) rotate(-5.574)"/><circle class="cls-3" cx="83.36" cy="98.234" r="8.187" transform="translate(-84.319 -68.504) rotate(-5.574)"/><circle class="cls-4" cx="90.778" cy="111.552" r="8.187" transform="translate(-85.577 -67.72) rotate(-5.574)"/><circle class="cls-5" cx="106.14" cy="111.704" r="8.187" transform="translate(-85.52 -66.228) rotate(-5.574)"/><circle class="cls-6" cx="113.813" cy="98.723" r="8.187" transform="translate(-84.222 -65.544) rotate(-5.574)"/><circle class="cls-1" cx="106.351" cy="85.378" r="8.187" transform="translate(-82.962 -66.332) rotate(-5.574)"/></g></svg>