<svg id="Layer_1" data-name="Layer 1" xmlns="http://www.w3.org/2000/svg" xmlns:xlink="http://www.w3.org/1999/xlink" viewBox="0 0 75.693 53.788"><defs><style>.cls-1{fill:url(#linear-gradient);}.cls-2{fill:url(#linear-gradient-2);}</style><linearGradient id="linear-gradient" x1="93.662" y1="-397.424" x2="93.662" y2="-343.636" gradientTransform="translate(165.21 -271.829) rotate(180)" gradientUnits="userSpaceOnUse"><stop offset="0" stop-color="#258f40"/><stop offset="1" stop-color="#e07900"/></linearGradient><linearGradient id="linear-gradient-2" x1="39.737" y1="-397.424" x2="39.737" y2="-343.636" xlink:href="#linear-gradient"/></defs><title>CRIPTO</title><g id="CRIPTOs"><path id="CRIPTO" class="cls-1" d="M74.933,71.807a7.5,7.5,0,0,1,7.5,7.5v27.73c0,11.616-7.255,18.558-14.269,18.558a7.5,7.5,0,0,1-1.6-14.829,9.362,9.362,0,0,0,.869-3.729V79.307A7.5,7.5,0,0,1,74.933,71.807Z" transform="translate(-60.664 -71.807)"/><path id="CRIPTO-2" data-name="CRIPTO" class="cls-2" d="M122.089,71.807a7.5,7.5,0,0,0-7.5,7.5v27.73c0,11.616,7.255,18.558,14.269,18.558a7.5,7.5,0,0,0,1.6-14.829,9.362,9.362,0,0,1-.869-3.729V79.307A7.5,7.5,0,0,0,122.089,71.807Z" transform="translate(-60.664 -71.807)"/></g></svg>