<svg id="Layer_1" data-name="Layer 1" xmlns="http://www.w3.org/2000/svg" xmlns:xlink="http://www.w3.org/1999/xlink" viewBox="0 0 38.885 60.835"><defs><style>.cls-1{fill:url(#radial-gradient);}.cls-2{fill:url(#linear-gradient);}.cls-3{fill:url(#radial-gradient-2);}.cls-4{fill:url(#linear-gradient-2);}.cls-5{fill:url(#radial-gradient-3);}.cls-6{fill:url(#linear-gradient-3);}.cls-7{fill:url(#radial-gradient-4);}.cls-8{fill:url(#linear-gradient-4);}.cls-9{fill:url(#radial-gradient-5);}.cls-10{fill:url(#linear-gradient-5);}.cls-11{fill:url(#radial-gradient-6);}.cls-12{fill:url(#linear-gradient-6);}.cls-13{fill:url(#linear-gradient-7);}</style><radialGradient id="radial-gradient" cx="100.97" cy="116.383" r="13.913" gradientTransform="translate(283.578 15.413) rotate(90) scale(1 1.569)" gradientUnits="userSpaceOnUse"><stop offset="0.326" stop-color="#6bd1ac"/><stop offset="1" stop-color="#166974"/></radialGradient><linearGradient id="linear-gradient" x1="82.183" y1="82.747" x2="119.567" y2="82.747" gradientTransform="matrix(1, 0, 0, -1, -81.432, 132.26)" gradientUnits="userSpaceOnUse"><stop offset="0" stop-color="#6bd1ac"/><stop offset="1" stop-color="#166974"/></linearGradient><radialGradient id="radial-gradient-2" cx="100.97" cy="107.482" r="13.913" gradientTransform="translate(269.613 6.512) rotate(90) scale(1 1.569)" gradientUnits="userSpaceOnUse"><stop offset="0.326" stop-color="#deb966"/><stop offset="1" stop-color="#816d12"/></radialGradient><linearGradient id="linear-gradient-2" x1="82.183" y1="91.648" x2="119.567" y2="91.648" gradientTransform="matrix(1, 0, 0, -1, -81.432, 132.26)" gradientUnits="userSpaceOnUse"><stop offset="0" stop-color="#deb966"/><stop offset="1" stop-color="#816d12"/></linearGradient><radialGradient id="radial-gradient-3" cx="100.97" cy="98.582" r="13.913" gradientTransform="translate(255.648 -2.389) rotate(90) scale(1 1.569)" gradientUnits="userSpaceOnUse"><stop offset="0.326" stop-color="#d866de"/><stop offset="1" stop-color="#811254"/></radialGradient><linearGradient id="linear-gradient-3" x1="82.183" y1="100.548" x2="119.567" y2="100.548" gradientTransform="matrix(1, 0, 0, -1, -81.432, 132.26)" gradientUnits="userSpaceOnUse"><stop offset="0" stop-color="#d866de"/><stop offset="1" stop-color="#811254"/></linearGradient><radialGradient id="radial-gradient-4" cx="100.97" cy="89.681" r="13.913" gradientTransform="translate(241.682 -11.289) rotate(90) scale(1 1.569)" xlink:href="#radial-gradient-3"/><linearGradient id="linear-gradient-4" x1="82.183" y1="109.449" x2="119.567" y2="109.449" xlink:href="#linear-gradient-3"/><radialGradient id="radial-gradient-5" cx="100.97" cy="80.78" r="13.913" gradientTransform="translate(227.717 -20.19) rotate(90) scale(1 1.569)" xlink:href="#radial-gradient-2"/><linearGradient id="linear-gradient-5" x1="82.183" y1="118.349" x2="119.567" y2="118.349" xlink:href="#linear-gradient-2"/><radialGradient id="radial-gradient-6" cx="100.97" cy="71.88" r="13.913" gradientTransform="translate(213.752 -29.09) rotate(90) scale(1 1.569)" xlink:href="#radial-gradient"/><linearGradient id="linear-gradient-6" x1="82.183" y1="127.25" x2="119.567" y2="127.25" xlink:href="#linear-gradient"/><linearGradient id="linear-gradient-7" x1="86.309" y1="128.898" x2="100.502" y2="125.335" gradientTransform="translate(112.318 132.26) rotate(180)" gradientUnits="userSpaceOnUse"><stop offset="0.101" stop-color="#6bd1ac"/><stop offset="0.704" stop-color="#166974"/></linearGradient></defs><title>proteasome</title><g id="PROTEASOME"><path class="cls-1" d="M119.567,119.253c0-2.767-8.369-5.01-18.692-5.01s-18.692,2.243-18.692,5.01a8.494,8.494,0,0,0-.751,3.239,7.218,7.218,0,0,0,.751,3.073c0,2.767,8.369,5.01,18.692,5.01s18.692-2.243,18.692-5.01a7.226,7.226,0,0,0,.75-3.073A8.5,8.5,0,0,0,119.567,119.253Z" transform="translate(-81.432 -69.74)"/><ellipse class="cls-2" cx="19.443" cy="49.513" rx="18.692" ry="5.01"/><path class="cls-3" d="M119.567,110.352c0-2.767-8.369-5.01-18.692-5.01s-18.692,2.243-18.692,5.01a8.494,8.494,0,0,0-.751,3.239,7.218,7.218,0,0,0,.751,3.073c0,2.767,8.369,5.01,18.692,5.01s18.692-2.243,18.692-5.01a7.226,7.226,0,0,0,.75-3.073A8.5,8.5,0,0,0,119.567,110.352Z" transform="translate(-81.432 -69.74)"/><ellipse class="cls-4" cx="19.443" cy="40.612" rx="18.692" ry="5.01"/><path class="cls-5" d="M119.567,101.452c0-2.767-8.369-5.01-18.692-5.01s-18.692,2.243-18.692,5.01a8.494,8.494,0,0,0-.751,3.239,7.218,7.218,0,0,0,.751,3.073c0,2.767,8.369,5.01,18.692,5.01s18.692-2.243,18.692-5.01a7.226,7.226,0,0,0,.75-3.073A8.5,8.5,0,0,0,119.567,101.452Z" transform="translate(-81.432 -69.74)"/><ellipse class="cls-6" cx="19.443" cy="31.712" rx="18.692" ry="5.01"/><path class="cls-7" d="M119.567,92.551c0-2.767-8.369-5.01-18.692-5.01s-18.692,2.243-18.692,5.01a8.494,8.494,0,0,0-.751,3.239,7.218,7.218,0,0,0,.751,3.073c0,2.767,8.369,5.01,18.692,5.01s18.692-2.243,18.692-5.01a7.226,7.226,0,0,0,.75-3.073A8.5,8.5,0,0,0,119.567,92.551Z" transform="translate(-81.432 -69.74)"/><ellipse class="cls-8" cx="19.443" cy="22.811" rx="18.692" ry="5.01"/><path class="cls-9" d="M119.567,83.651c0-2.767-8.369-5.01-18.692-5.01s-18.692,2.243-18.692,5.01a8.494,8.494,0,0,0-.751,3.239,7.218,7.218,0,0,0,.751,3.073c0,2.767,8.369,5.01,18.692,5.01s18.692-2.243,18.692-5.01a7.226,7.226,0,0,0,.75-3.073A8.5,8.5,0,0,0,119.567,83.651Z" transform="translate(-81.432 -69.74)"/><ellipse class="cls-10" cx="19.443" cy="13.911" rx="18.692" ry="5.01"/><path class="cls-11" d="M119.567,74.75c0-2.767-8.369-5.01-18.692-5.01s-18.692,2.243-18.692,5.01a8.494,8.494,0,0,0-.751,3.239,7.218,7.218,0,0,0,.751,3.073c0,2.767,8.369,5.01,18.692,5.01s18.692-2.243,18.692-5.01a7.226,7.226,0,0,0,.75-3.073A8.5,8.5,0,0,0,119.567,74.75Z" transform="translate(-81.432 -69.74)"/><ellipse class="cls-12" cx="19.443" cy="5.01" rx="18.692" ry="5.01"/><ellipse class="cls-13" cx="19.443" cy="5.01" rx="8.199" ry="2.198"/></g></svg>