<svg id="Layer_1" data-name="Layer 1" xmlns="http://www.w3.org/2000/svg" viewBox="0 0 77.915 22.949"><defs><style>.cls-1{fill:#3c64a5;}.cls-2{fill:#0053cc;}.cls-3{font-size:12px;fill:#fff;font-family:Arial-BoldMT, Arial;font-weight:700;}.cls-4{letter-spacing:-0.055em;}</style></defs><title>R-ICO-013667</title><g id="R-ICO-013667"><rect class="cls-1" x="1.297" y="1.347" width="76" height="20" rx="10"/><path class="cls-2" d="M128,110.15c-7.282-.009-14.565.43-21.847.837-7.282.458-14.565.547-21.847.613-3.641,0-7.282.019-10.923-.037l-1.366-.019a13.3,13.3,0,0,1-1.566-.134,11.421,11.421,0,0,1-3.01-.876,11.577,11.577,0,0,1-4.739-3.952,11.148,11.148,0,0,1-.627-11.72A10.982,10.982,0,0,1,72,89.179c7.282.261,14.565.449,21.847.335,3.641-.05,7.282-.194,10.923-.349l10.924-.414c3.641-.085,7.282-.131,10.923-.07l1.366.019a13.158,13.158,0,0,1,1.533.133,11.133,11.133,0,0,1,2.925.9,10.781,10.781,0,0,1,4.475,3.953A10.679,10.679,0,0,1,128,110.15Zm0-.3a9.686,9.686,0,0,0,5.08-1.5,9.4,9.4,0,0,0,3.449-3.941,9.235,9.235,0,0,0-1.148-9.629,9.519,9.519,0,0,0-3.891-2.86,8.711,8.711,0,0,0-2.319-.551,10.67,10.67,0,0,0-1.188-.07l-1.366.019c-3.641.061-7.282.015-10.923-.07l-10.924-.414c-3.641-.155-7.282-.3-10.923-.349-7.282-.114-14.565.074-21.847.335a9.088,9.088,0,0,0-4.653,1.526,8.548,8.548,0,0,0-1.821,1.613,8.719,8.719,0,0,0,3.1,13.848,8.419,8.419,0,0,0,2.233.579,10.3,10.3,0,0,0,1.155.069l1.366-.019c3.641-.056,7.282-.036,10.923-.037,7.282.066,14.565.155,21.847.613C113.435,109.42,120.718,109.859,128,109.85Z" transform="translate(-60.703 -88.653)"/><text class="cls-3" transform="translate(6.255 14.232)">MAPK<tspan class="cls-4" x="35.332" y="0">1</tspan><tspan x="41.344" y="0">1-14</tspan></text></g></svg>