<svg id="Layer_1" data-name="Layer 1" xmlns="http://www.w3.org/2000/svg" xmlns:xlink="http://www.w3.org/1999/xlink" viewBox="0 0 39.757 87.768"><defs><style>.cls-1{fill:url(#radial-gradient);}.cls-2{fill:url(#linear-gradient);}</style><radialGradient id="radial-gradient" cx="-115.792" cy="619.365" r="22.307" gradientTransform="translate(219.529 -540.888)" gradientUnits="userSpaceOnUse"><stop offset="0.601" stop-color="#284a85"/><stop offset="1" stop-color="#4cc1db"/></radialGradient><linearGradient id="linear-gradient" x1="-111.526" y1="659.679" x2="-119.526" y2="659.679" gradientTransform="translate(219.529 -540.888)" gradientUnits="userSpaceOnUse"><stop offset="0" stop-color="#284a85"/><stop offset="1" stop-color="#4cc1db"/></linearGradient></defs><title>TREM2</title><g id="TREM2"><path id="TREM2-2" data-name="TREM2" class="cls-1" d="M104,144.066a4,4,0,0,1-4-4v-38.9A22.612,22.612,0,1,1,119.99,62.92a4,4,0,0,1-5.656,5.657A14.61,14.61,0,1,0,104,93.517a4,4,0,0,1,4,4v42.549A4,4,0,0,1,104,144.066Z" transform="translate(-81.405 -56.298)"/><path id="TREM2-3" data-name="TREM2" class="cls-2" d="M104,93.517a3.948,3.948,0,0,1,4,4v42.549a4,4,0,0,1-8,0v-38.9c0-1.517.1-2.768.1-3.652A4.163,4.163,0,0,1,104,93.517Z" transform="translate(-81.405 -56.298)"/></g></svg>