<svg id="Layer_1" data-name="Layer 1" xmlns="http://www.w3.org/2000/svg" xmlns:xlink="http://www.w3.org/1999/xlink" viewBox="0 0 45.579 22.541"><defs><style>.cls-1{fill:url(#linear-gradient);}.cls-2{fill:#7768ff;}.cls-3{font-size:12px;fill:#fff;font-family:Arial-BoldMT, Arial;font-weight:700;}</style><linearGradient id="linear-gradient" x1="22.96" y1="1.019" x2="22.96" y2="21.019" gradientUnits="userSpaceOnUse"><stop offset="0" stop-color="#7768ff"/><stop offset="0.284" stop-color="#6466d4"/><stop offset="0.924" stop-color="#356068"/><stop offset="1" stop-color="#2f5f5b"/></linearGradient></defs><title>F9</title><g id="F9"><rect class="cls-1" x="1.46" y="1.019" width="43" height="20" rx="10" ry="10"/><path class="cls-2" d="M109.878,108.227c-4.532-.009-9.065.43-13.6.837-2.266.205-4.532.388-6.8.457-.567.02-1.133.054-1.7.062l-.85.016-.971-.03a11.73,11.73,0,0,1-3.809-.912A11.325,11.325,0,0,1,75.715,95.7a11.182,11.182,0,0,1,4.123-6.318,10.906,10.906,0,0,1,7.04-2.125c4.532.282,9.065.437,13.6.335,2.266-.059,4.532-.178,6.8-.341l1.7-.118.85-.058.933-.015a10.747,10.747,0,0,1,3.7.759,10.622,10.622,0,0,1,5.5,5.128,10.347,10.347,0,0,1,.628,7.413,11.059,11.059,0,0,1-4.188,5.779A11.526,11.526,0,0,1,109.878,108.227Zm0-.3a8.909,8.909,0,0,0,6.039-2.387,9.214,9.214,0,0,0,2.8-5.581,9.823,9.823,0,0,0-5.286-9.864,9.62,9.62,0,0,0-2.848-.918l-.764-.1-.85-.058-1.7-.118c-2.266-.164-4.532-.282-6.8-.341-4.532-.1-9.065.053-13.6.335a9.291,9.291,0,0,0-5.523,2.352,9.159,9.159,0,0,0-2.868,5.042,8.6,8.6,0,0,0,.886,5.6,8.817,8.817,0,0,0,4.092,3.85,8.591,8.591,0,0,0,2.741.765l.727.051.85.016c.567.008,1.133.042,1.7.062,2.266.069,4.532.252,6.8.457C100.814,107.5,105.346,107.936,109.878,107.927Z" transform="translate(-75.418 -87.059)"/><text class="cls-3" transform="translate(16.059 15.316)">F9</text></g></svg>