<svg id="Layer_1" data-name="Layer 1" xmlns="http://www.w3.org/2000/svg" xmlns:xlink="http://www.w3.org/1999/xlink" viewBox="0 0 129.677 57.239"><defs><style>.cls-1{opacity:0.75;fill:url(#linear-gradient);}.cls-2{opacity:0.85;fill:url(#radial-gradient);}</style><linearGradient id="linear-gradient" x1="35.33" y1="100.387" x2="165.007" y2="100.387" gradientUnits="userSpaceOnUse"><stop offset="0" stop-color="#4a4f93"/><stop offset="0.072" stop-color="#6262a5"/><stop offset="0.179" stop-color="#7e79ba"/><stop offset="0.285" stop-color="#9389ca"/><stop offset="0.39" stop-color="#9f93d3"/><stop offset="0.494" stop-color="#a396d6"/><stop offset="0.65" stop-color="#a094d4"/><stop offset="0.748" stop-color="#988dce"/><stop offset="0.829" stop-color="#8982c3"/><stop offset="0.901" stop-color="#7571b3"/><stop offset="0.967" stop-color="#5a5c9f"/><stop offset="1" stop-color="#4a4f93"/></linearGradient><radialGradient id="radial-gradient" cx="98.669" cy="263.879" r="195.222" gradientUnits="userSpaceOnUse"><stop offset="0.826" stop-color="#4a3d93"/><stop offset="0.839" stop-color="#514598"/><stop offset="0.86" stop-color="#645ba5"/><stop offset="0.885" stop-color="#847fba"/><stop offset="0.914" stop-color="#b0b0d7"/><stop offset="0.924" stop-color="#c1c3e3"/><stop offset="0.935" stop-color="#bebfe1"/><stop offset="0.945" stop-color="#b3b3da"/><stop offset="0.955" stop-color="#a2a0ce"/><stop offset="0.965" stop-color="#8984be"/><stop offset="0.975" stop-color="#6a61a9"/><stop offset="0.984" stop-color="#4a3d93"/></radialGradient></defs><title>pathogen_02</title><g id="PATHOGEN"><path id="MEMBRANE" class="cls-1" d="M163.359,112.908a25,25,0,0,0-14.451-32.268C119.078,69.266,82.918,68.8,52.187,79.4a25,25,0,1,0,16.3,47.268c15.433-5.322,39.984-7.937,62.6.691a24.978,24.978,0,0,0,32.268-14.451ZM140,126.007a21.934,21.934,0,0,1-7.834-1.45,92.361,92.361,0,0,0-32.842-5.79,99.942,99.942,0,0,0-31.811,5.065,22,22,0,1,1-14.344-41.6c30.087-10.375,65.48-9.925,94.674,1.207a22,22,0,0,1,12.718,28.4A22.13,22.13,0,0,1,140,126.007Z" transform="translate(-35.33 -71.768)"/><path id="PATHOGEN-2" data-name="PATHOGEN" class="cls-2" d="M140,129.007a24.958,24.958,0,0,1-8.9-1.647c-22.62-8.628-47.172-6.014-62.6-.691A25,25,0,1,1,52.187,79.4c30.731-10.6,66.892-10.135,96.722,1.24A25,25,0,0,1,140,129.007Z" transform="translate(-35.33 -71.768)"/></g></svg>