<svg id="Layer_1" data-name="Layer 1" xmlns="http://www.w3.org/2000/svg" xmlns:xlink="http://www.w3.org/1999/xlink" viewBox="0 0 60.907 60.698"><defs><style>.cls-1{fill:url(#radial-gradient);}</style><radialGradient id="radial-gradient" cx="95.017" cy="93.772" r="35.958" gradientUnits="userSpaceOnUse"><stop offset="0" stop-color="#0abfc7"/><stop offset="0.113" stop-color="#1d96b4"/><stop offset="0.239" stop-color="#2f71a2"/><stop offset="0.371" stop-color="#3d5294"/><stop offset="0.508" stop-color="#493a88"/><stop offset="0.652" stop-color="#512880"/><stop offset="0.809" stop-color="#551e7c"/><stop offset="1" stop-color="#571b7a"/></radialGradient></defs><title>R-ICO-013614</title><path id="R-ICO-013614" class="cls-1" d="M130.151,93.692c-.622-3.152-2.355-5.937-3.628-8.8a16.327,16.327,0,0,0-4.892-6.615c-1.935-1.47-4.223-2.2-6.091-3.8a13.394,13.394,0,0,0-6.994-3.388c-6.172-1.238-11.567-2.48-17.7-.064A46.19,46.19,0,0,0,76.76,80.57,18.422,18.422,0,0,0,72.9,87.031c-1.2,3.451-3.118,6.448-3.333,10.229-.174,3.056,1.093,5.605,1.436,8.566.406,3.507.531,5.74,2.538,8.784,3.917,5.94,7.615,11.128,14.59,13.8,6.073,2.329,15.265,2.494,21.558.834,3.887-1.025,6.625-3.217,9.606-5.742,2.81-2.38,5.536-4.442,7.492-7.682a22.166,22.166,0,0,0,2.969-10.9C129.909,101.295,130.96,97.274,130.151,93.692Z" transform="translate(-69.546 -69.651)"/></svg>