<svg id="Layer_1" data-name="Layer 1" xmlns="http://www.w3.org/2000/svg" xmlns:xlink="http://www.w3.org/1999/xlink" viewBox="0 0 95.513 94.827"><defs><style>.cls-1{fill:url(#linear-gradient);}.cls-2{fill:url(#radial-gradient);}.cls-3{fill:url(#radial-gradient-2);}.cls-4{fill:url(#linear-gradient-2);}.cls-5{fill:url(#radial-gradient-3);}.cls-6{fill:url(#radial-gradient-4);}</style><linearGradient id="linear-gradient" x1="104.46" y1="54.966" x2="150.152" y2="169.195" gradientUnits="userSpaceOnUse"><stop offset="0" stop-color="#ff769a"/><stop offset="1" stop-color="#a34b62"/></linearGradient><radialGradient id="radial-gradient" cx="134.813" cy="99.407" r="34.345" gradientTransform="matrix(0.979, -0.22, 0.276, 1.413, -24.589, 0.136)" gradientUnits="userSpaceOnUse"><stop offset="0.458" stop-color="#a34b62"/><stop offset="0.815" stop-color="#ff769a" stop-opacity="0"/></radialGradient><radialGradient id="radial-gradient-2" cx="125.901" cy="82.866" r="38.891" gradientTransform="matrix(0.987, -0.17, 0.325, 2.164, -25.311, -64.563)" gradientUnits="userSpaceOnUse"><stop offset="0.095" stop-color="#ff769a"/><stop offset="0.898" stop-color="#a34b62"/></radialGradient><linearGradient id="linear-gradient-2" x1="82.344" y1="49.107" x2="66.535" y2="170.657" xlink:href="#linear-gradient"/><radialGradient id="radial-gradient-3" cx="71.908" cy="88.352" r="33.945" gradientTransform="translate(0 -80.155) scale(1 2.03)" xlink:href="#radial-gradient"/><radialGradient id="radial-gradient-4" cx="78.442" cy="83.631" r="49.854" gradientTransform="matrix(0.971, 0.255, -0.638, 2.783, 55.585, -158.622)" xlink:href="#linear-gradient"/></defs><title>R-ICO-013964</title><g id="R-ICO-013964"><g id="RIGHT"><path class="cls-1" d="M115.076,52.6c-10.036.529-8.966,13.709-8.228,21.513s-1.563,10.545-2.282,17.716-.088,15.306.464,21.512-1.6,17.839,2.642,20.1,25.117,6.919,29.935,12.6,10.522-6.971,10.131-25.741-1.686-34.378-4.68-41.548S127.093,51.969,115.076,52.6Z" transform="translate(-52.243 -52.586)"/><path class="cls-2" d="M137.607,137.471c-4.818-5.684-6.608-5.429-10.852-7.687s-6.521-2.335-7.073-8.541-1.842-12.919-1.123-20.09-3.752-17.218-4.491-25.021-9.028-23,1.008-23.531c-10.036.529-8.966,13.709-8.228,21.513s-1.563,10.545-2.282,17.716-.088,15.306.464,21.512-1.6,17.839,2.642,20.1,25.117,6.919,29.935,12.6c2.293,2.7,4.784,1.251,6.726-3.031C142.392,147.147,139.9,140.175,137.607,137.471Z" transform="translate(-52.243 -52.586)"/><path class="cls-3" d="M115.076,52.6c-10.036.529-1.746,15.727-1.008,23.531s5.21,17.851,4.491,25.021.57,13.884,1.123,20.09,2.828,6.283,7.073,8.541,6.034,2,10.852,7.687c2.312,2.727,4.828,9.8,6.776,5.437,2.113-4.733,3.558-12.842,3.355-22.606-.391-18.771-1.686-34.378-4.68-41.548S127.093,51.969,115.076,52.6Z" transform="translate(-52.243 -52.586)"/></g><g id="LEFT"><path class="cls-4" d="M84.924,52.6c10.036.529,8.966,13.709,8.228,21.513s1.563,10.545,2.282,17.716.088,15.306-.464,21.512,1.6,17.839-2.642,20.1-25.117,6.919-29.935,12.6S51.871,139.072,52.262,120.3s1.686-34.378,4.68-41.548S72.907,51.969,84.924,52.6Z" transform="translate(-52.243 -52.586)"/><path class="cls-5" d="M94.97,113.342c.552-6.206,1.183-14.342.464-21.512s-3.02-9.913-2.282-17.716S94.96,53.13,84.924,52.6c10.036.529,5.4,13.923,4.659,21.726S86.6,88.69,87.317,95.86s-1.458,16.53-2.011,22.736-3.39,8.088-7.634,10.346-8.461,3.916-13.279,9.6c-1.286,1.517-4.607,9.123-5.911,8.356,1.278.861,2.626.661,3.911-.855,4.818-5.684,25.69-10.345,29.935-12.6S94.417,119.548,94.97,113.342Z" transform="translate(-52.243 -52.586)"/><path class="cls-6" d="M84.924,52.6c10.036.529,5.4,13.923,4.659,21.726S86.6,88.69,87.317,95.86s-1.458,16.53-2.011,22.736-3.39,8.088-7.634,10.346-8.461,3.917-13.279,9.6c-1.294,1.527-4.652,9.231-5.938,8.349-3.5-2.4-6.479-12.859-6.193-26.589.391-18.771,1.686-34.378,4.68-41.548S72.907,51.969,84.924,52.6Z" transform="translate(-52.243 -52.586)"/></g></g></svg>