<svg id="Layer_1" data-name="Layer 1" xmlns="http://www.w3.org/2000/svg" xmlns:xlink="http://www.w3.org/1999/xlink" viewBox="0 0 125.224 124.619"><defs><style>.cls-1{fill:url(#radial-gradient);}.cls-2{fill:url(#linear-gradient);}.cls-3{fill:url(#linear-gradient-2);}.cls-4{fill:url(#linear-gradient-3);}.cls-5{fill:url(#linear-gradient-4);}.cls-6{fill:url(#linear-gradient-5);}.cls-7{fill:url(#linear-gradient-6);}.cls-8{fill:#12603d;}</style><radialGradient id="radial-gradient" cx="98.079" cy="99.31" r="61.613" gradientUnits="userSpaceOnUse"><stop offset="0.011" stop-color="#bacf97"/><stop offset="0.275" stop-color="#99cf97"/><stop offset="0.549" stop-color="#7ecf97"/><stop offset="0.692" stop-color="#5aab90"/><stop offset="1" stop-color="#005280"/></radialGradient><linearGradient id="linear-gradient" x1="79.001" y1="83.019" x2="37.296" y2="58.134" gradientUnits="userSpaceOnUse"><stop offset="0.011" stop-color="#99cf97"/><stop offset="0.549" stop-color="#7ecf97"/><stop offset="0.692" stop-color="#5aab90"/><stop offset="1" stop-color="#005280"/></linearGradient><linearGradient id="linear-gradient-2" x1="94.638" y1="76.75" x2="100.168" y2="37.119" xlink:href="#linear-gradient"/><linearGradient id="linear-gradient-3" x1="74.611" y1="100.383" x2="36.132" y2="108.447" xlink:href="#linear-gradient"/><linearGradient id="linear-gradient-4" x1="92.304" y1="113.164" x2="84.47" y2="161.09" xlink:href="#linear-gradient"/><linearGradient id="linear-gradient-5" x1="109.77" y1="86.503" x2="151.245" y2="65.535" xlink:href="#linear-gradient"/><linearGradient id="linear-gradient-6" x1="112.671" y1="104.584" x2="161.749" y2="139.608" xlink:href="#linear-gradient"/></defs><title>astrocyte</title><g id="ASTROCYTE"><path class="cls-1" d="M84.68,76.077c7.421-.971,9.692-38.508,15.978-38.222s.577,38.634,3.717,41.159S146.29,53,150.307,65.98,118,77.83,115.506,93.819c-4.288,27.449,49.7,21.07,43.907,45.542-3.338,14.111-30.969-26.218-50.757-24.853-14.557,1-14.842,46.432-23.119,46.259-14.629-.306,5.353-38.771-9.419-49.961-10.561-8-38.825,17.069-39.636-2.028-.5-11.864,35.069-1.9,36.782-18.853C74.755,75.161,33.323,73.49,36.482,61.507,40.3,47.035,77.259,77.048,84.68,76.077Z" transform="translate(-35.471 -37)"/><path class="cls-2" d="M73.263,89.926C74.755,75.161,33.323,73.49,36.482,61.507c3.815-14.472,40.778,15.54,48.2,14.57" transform="translate(-35.471 -37)"/><path class="cls-3" d="M84.68,76.077c7.421-.971,9.692-38.508,15.978-38.222s.577,38.634,3.717,41.159" transform="translate(-35.471 -37)"/><path class="cls-4" d="M76.118,110.806c-10.561-8-38.825,17.069-39.636-2.028-.5-11.864,35.069-1.9,36.782-18.853" transform="translate(-35.471 -37)"/><path class="cls-5" d="M108.656,114.508c-14.557,1-14.842,46.432-23.119,46.259-14.629-.306,5.353-38.771-9.419-49.961" transform="translate(-35.471 -37)"/><path class="cls-6" d="M104.375,79.014c3.14,2.525,41.915-26.01,45.932-13.034S118,77.83,115.506,93.819" transform="translate(-35.471 -37)"/><path class="cls-7" d="M115.506,93.819c-4.288,27.449,49.7,21.07,43.907,45.542-3.338,14.111-30.969-26.218-50.757-24.853" transform="translate(-35.471 -37)"/><path id="MEMBRANE" class="cls-8" d="M160.4,133.135a12.242,12.242,0,0,0-1.721-4.021,15.558,15.558,0,0,0-2.861-3.216,24.914,24.914,0,0,0-3.421-2.475,56.914,56.914,0,0,0-7.432-3.685c-2.529-1.073-5.088-2.038-7.628-3.022s-5.063-2-7.524-3.124a44.541,44.541,0,0,1-6.574-3.626c-5.212-3.724-8.475-8.632-7.312-16.08.562-3.6,2.961-6.328,6.234-8.545a36.229,36.229,0,0,1,4.733-2.511c1.9-.854,3.85-1.621,5.821-2.344s3.959-1.418,5.939-2.164,3.964-1.518,5.9-2.466a23.562,23.562,0,0,0,2.836-1.625,11.975,11.975,0,0,0,2.535-2.249,6.512,6.512,0,0,0,1.474-3.255,6.36,6.36,0,0,0-.014-1.812,7.04,7.04,0,0,0-.181-.868,5.769,5.769,0,0,0-.277-.854,5.391,5.391,0,0,0-.984-1.584,5.141,5.141,0,0,0-1.5-1.136,7.8,7.8,0,0,0-3.439-.725,16.7,16.7,0,0,0-3.3.343,28.719,28.719,0,0,0-3.143.81,60.14,60.14,0,0,0-5.981,2.285c-1.949.847-3.855,1.774-5.74,2.736-3.646,1.847-7.2,3.847-10.749,5.836-5.19,2.749-10.645,5.57-11.448,4.923-.842-.677-.925-5.241-.821-10.448q.121-2.492.268-4.987c.1-1.772.183-3.545.265-5.321s.148-3.554.17-5.336.029-3.568-.032-5.361a39.158,39.158,0,0,0-.521-5.409c-.086-.455-.177-.91-.307-1.368a8.816,8.816,0,0,0-.484-1.381,4.342,4.342,0,0,0-.912-1.367,3.553,3.553,0,0,0-.375-.3,2.3,2.3,0,0,0-.453-.237,1.947,1.947,0,0,0-.507-.136c-.087-.012-.174-.027-.26-.03l-.257.01a2.555,2.555,0,0,0-.953.264,4.225,4.225,0,0,0-.393.233c-.122.084-.225.176-.337.266a6.2,6.2,0,0,0-1,1.185,15.167,15.167,0,0,0-1.28,2.513,45.379,45.379,0,0,0-1.7,5.144c-.93,3.457-1.711,6.922-2.471,10.387-.381,1.732-.78,3.457-1.181,5.179-.371,1.592-.771,3.175-1.213,4.745-1.507,4.813-3.215,8.458-5.268,8.727-2,.262-6.6-2.04-11.926-4.977l-5.358-3.148q-2.8-1.655-5.653-3.247c-1.9-1.064-3.815-2.1-5.775-3.067s-3.949-1.886-6.005-2.685q-1.544-.6-3.155-1.052a21.261,21.261,0,0,0-3.317-.673,9.986,9.986,0,0,0-3.528.15,7.239,7.239,0,0,0-.891.279,6.1,6.1,0,0,0-.85.439,5.633,5.633,0,0,0-.777.579,5.471,5.471,0,0,0-.645.72,6.268,6.268,0,0,0-.88,1.657,6.822,6.822,0,0,0-.387,1.821,5.6,5.6,0,0,0,.225,1.9,6.77,6.77,0,0,0,.823,1.682,10.913,10.913,0,0,0,2.489,2.479,22.263,22.263,0,0,0,2.86,1.783A60.777,60.777,0,0,0,47.889,73c2.027.809,4.071,1.547,6.106,2.293S58.053,76.8,60.052,77.6A54.986,54.986,0,0,1,65.9,80.318l.151.085c4.317,2.527,7.185,5.519,6.785,9.48-.443,4.381-3.3,6.9-7.226,8.466a30.46,30.46,0,0,1-4.916,1.3c-1.883.346-3.787.609-5.7.819s-3.844.39-5.776.614-3.875.466-5.819.875a20.883,20.883,0,0,0-2.9.819,10.115,10.115,0,0,0-2.783,1.492,6.361,6.361,0,0,0-1.163,1.226,5.41,5.41,0,0,0-.73,1.574,6.171,6.171,0,0,0-.185,1.685c.025.519.053,1.017.125,1.531a10.537,10.537,0,0,0,.839,3.04,6.083,6.083,0,0,0,2.145,2.537,6.331,6.331,0,0,0,1.515.717,8.268,8.268,0,0,0,1.586.319,12.559,12.559,0,0,0,3.089-.09,35.045,35.045,0,0,0,5.767-1.429c1.865-.6,3.685-1.281,5.5-1.958s3.626-1.343,5.447-1.963a45.858,45.858,0,0,1,5.391-1.516c3.492-.623,6.59-.486,8.825,1.208,3.87,2.931,5.284,7.825,5.563,13.431a57.584,57.584,0,0,1-.218,6.33c-.181,2.149-.422,4.3-.7,6.443s-.582,4.3-.841,6.458-.5,4.336-.6,6.543a29.658,29.658,0,0,0,.023,3.34,15.151,15.151,0,0,0,.573,3.393,8.414,8.414,0,0,0,.71,1.666,5.838,5.838,0,0,0,1.2,1.471,5.1,5.1,0,0,0,1.654.979,6.591,6.591,0,0,0,.905.266c.152.029.3.05.456.074a3.209,3.209,0,0,0,.454.05l.452.026c.168,0,.371-.014.553-.032a4.457,4.457,0,0,0,.542-.135,3.361,3.361,0,0,0,.5-.217,5.007,5.007,0,0,0,1.482-1.275,13.372,13.372,0,0,0,1.726-3.015c.451-1.032.819-2.076,1.163-3.124s.652-2.1.936-3.156c.571-2.111,1.079-4.228,1.583-6.341l1.493-6.333q.755-3.159,1.616-6.283c.574-2.082,1.215-4.144,1.962-6.164.039-.108.081-.215.121-.322,2.343-5.792,5.325-10,9.534-10.287s8.838,1.384,13.507,4.024a71.8,71.8,0,0,1,6.168,4.124q3.272,2.423,6.411,5.033c2.1,1.734,4.168,3.5,6.259,5.261s4.181,3.523,6.364,5.205c1.091.842,2.217,1.65,3.4,2.4q.883.568,1.833,1.066a12.043,12.043,0,0,0,2.023.85,5.39,5.39,0,0,0,2.392.243,3.506,3.506,0,0,0,1.27-.458,4.564,4.564,0,0,0,.534-.421,3.545,3.545,0,0,0,.433-.493,6.135,6.135,0,0,0,.953-2.171c.08-.354.147-.7.221-1.053s.105-.712.156-1.067A13.242,13.242,0,0,0,160.4,133.135ZM116.486,74.516c3.643-1.824,7.271-3.665,10.939-5.4a86.032,86.032,0,0,1,11.6-4.67,21.163,21.163,0,0,1,5.958-1.029,6.166,6.166,0,0,1,2.694.563,3.44,3.44,0,0,1,1.665,1.858,4.54,4.54,0,0,1,.211.648,5.355,5.355,0,0,1,.147.677,4.663,4.663,0,0,1,.021,1.337,4.821,4.821,0,0,1-1.1,2.428,10.351,10.351,0,0,1-2.169,1.939,24.907,24.907,0,0,1-2.631,1.54c-3.677,1.874-7.688,3.221-11.594,4.833-1.959.8-3.918,1.619-5.821,2.577a34.665,34.665,0,0,0-5.471,3.327l-.063.05c-3.036,2.233-5.237,4.977-5.8,8.56-1.3,8.315,2.557,13.571,8.5,17.508a48,48,0,0,0,5.752,3.337c2.46,1.234,4.99,2.3,7.511,3.352s5.048,2.075,7.532,3.161a55.435,55.435,0,0,1,7.172,3.685,25.418,25.418,0,0,1,3.185,2.343,13.907,13.907,0,0,1,2.552,2.89,10.553,10.553,0,0,1,1.468,3.469,11.544,11.544,0,0,1,.154,3.794c-.049.319-.077.639-.137.958l-.194.951a4.505,4.505,0,0,1-.657,1.562,1.866,1.866,0,0,1-.238.277c-.08.089-.181.137-.265.215a1.822,1.822,0,0,1-.643.228,3.779,3.779,0,0,1-1.64-.183,15.052,15.052,0,0,1-3.456-1.711c-1.125-.707-2.217-1.5-3.3-2.3-4.327-3.248-8.444-6.857-12.764-10.215a91.654,91.654,0,0,0-13.625-9.21l-.036-.018c-4.578-2.5-9.121-4.055-13.322-3.766-4.945.341-8.253,5.421-10.786,12.169a103.787,103.787,0,0,0-3.678,11.41c-1.161,4.194-2.141,8.427-3.342,12.568a50.483,50.483,0,0,1-2.073,6.046,11.821,11.821,0,0,1-1.5,2.616,3.359,3.359,0,0,1-.964.84,1.648,1.648,0,0,1-.248.108c-.082.032-.166.036-.247.062-.088,0-.157.01-.259.012l-.36-.024a2.454,2.454,0,0,1-.354-.038c-.116-.018-.233-.032-.348-.053a4.9,4.9,0,0,1-.656-.189,3.4,3.4,0,0,1-1.135-.66,4.144,4.144,0,0,1-.852-1.039,6.75,6.75,0,0,1-.569-1.32,13.543,13.543,0,0,1-.521-3.01c-.078-1.042-.076-2.1-.052-3.168.127-4.271.753-8.577,1.152-12.908a80.705,80.705,0,0,0,.48-12.184c-.192-6.149-1.627-11.591-5.934-14.853a9.441,9.441,0,0,0-5.866-1.722,22.162,22.162,0,0,0-4.4.5,75.035,75.035,0,0,0-10.356,2.917c-1.838.61-3.668,1.229-5.5,1.784a33.594,33.594,0,0,1-5.526,1.254,11.961,11.961,0,0,1-2.706.052,6.624,6.624,0,0,1-1.256-.259,4.666,4.666,0,0,1-1.1-.529,3.885,3.885,0,0,1-.884-.808,4.665,4.665,0,0,1-.357-.5c-.1-.181-.205-.362-.294-.554a8.88,8.88,0,0,1-.674-2.546c-.063-.446-.094-.915-.119-1.363a4.489,4.489,0,0,1,.119-1.194,3.729,3.729,0,0,1,.479-1.052,4.707,4.707,0,0,1,.827-.878,8.5,8.5,0,0,1,2.314-1.248,22.008,22.008,0,0,1,2.677-.785c3.692-.845,7.572-1.157,11.414-1.746,1.925-.285,3.855-.6,5.765-1.046a31.058,31.058,0,0,0,5.045-1.6c4.171-1.658,7.233-4.372,7.718-9.174s-3.2-8.194-8.475-11.014a90.435,90.435,0,0,0-10.742-4.907c-2.013-.813-4.028-1.609-6.019-2.436a59.321,59.321,0,0,1-5.805-2.733,23.432,23.432,0,0,1-2.64-1.683,9.306,9.306,0,0,1-2.1-2.1,5.113,5.113,0,0,1-.6-1.233,3.907,3.907,0,0,1-.146-1.311,5.135,5.135,0,0,1,.3-1.348,4.566,4.566,0,0,1,.645-1.2,4.105,4.105,0,0,1,.434-.493,3.944,3.944,0,0,1,.524-.392,4.418,4.418,0,0,1,.59-.312,5.578,5.578,0,0,1,.659-.209,6.971,6.971,0,0,1,1.429-.2,11.737,11.737,0,0,1,1.508.066,26.845,26.845,0,0,1,6.082,1.58,105.9,105.9,0,0,1,11.714,5.409c3.71,1.937,7.39,3.955,11.115,5.9,5.649,3.118,10.3,5.437,12.567,5.14,2.56-.335,4.443-4.265,6.1-9.692,1.053-3.132,1.916-6.314,2.744-9.495.914-3.432,1.729-6.884,2.732-10.257A49.253,49.253,0,0,1,98,42.114,13.58,13.58,0,0,1,99.141,39.9a4.573,4.573,0,0,1,.712-.843,1.167,1.167,0,0,1,.684-.336.7.7,0,0,1,.557.22,2.733,2.733,0,0,1,.547.839,10.5,10.5,0,0,1,.685,2.351,40.672,40.672,0,0,1,.546,5.175c.2,3.506.154,7.047.146,10.589-.032,3.479-.08,6.966-.056,10.458-.124,6.264.046,10.117,1.142,11C105.294,80.3,109,78.477,116.486,74.516Z" transform="translate(-35.471 -37)"/></g></svg>