<svg id="Layer_1" data-name="Layer 1" xmlns="http://www.w3.org/2000/svg" xmlns:xlink="http://www.w3.org/1999/xlink" viewBox="0 0 73.878 87.013"><defs><style>.cls-1{fill:url(#linear-gradient);}</style><linearGradient id="linear-gradient" x1="658.565" y1="-276.485" x2="732.157" y2="-263.326" gradientTransform="translate(738.737 -286.196) rotate(170.032)" gradientUnits="userSpaceOnUse"><stop offset="0.002" stop-color="#8147e5"/><stop offset="0.999" stop-color="#ff4b6a"/></linearGradient></defs><title>TBXA2R</title><path id="TBXA2R" class="cls-1" d="M118.21,143.237c18.643-2.278,18.595-15.04,18.718-47.68.146-26.5-1.127-39.016-7.753-38.991-6.871.026-8.053,12.3-8.444,38.806.029,7.853-.127,31.658-3.554,34.125-2.954-2.443-3.281-24.283-3.312-32.627l-.01-2.7c-.083-22.087-.631-37.545-7.748-37.519-6.871.026-8.3,12.792-8.444,38.806.029,7.853-.127,31.658-3.554,34.125-3.2-2.442-3.288-26.247-3.318-34.1.146-26.5-1.127-39.016-7.753-38.991-5.154.019-6.6,7.878-7.3,15.488S75.06,88.917,74.84,95.79c.029,7.853-.127,31.658-3.554,34.125-3.2-2.442-3.288-26.247-3.318-34.1l.11-36.321-4.908.018-.11,36.321c.026,6.871.061,16.2.58,23.8.765,7.6,2.266,15.207,7.419,15.188s6.6-7.878,7.3-15.488.673-16.936.893-23.808c-.029-7.853.127-31.658,3.554-34.125,3.2,2.442,3.288,26.247,3.318,34.1-.146,26.5,1.127,39.016,7.753,38.991,6.871-.026,8.3-12.792,8.444-38.806-.029-7.853.127-31.658,3.554-34.125,3.2,2.442,3.282,24.529,3.313,32.873l.01,2.7c.081,21.6.63,37.3,7.747,37.273,6.871-.026,8.053-12.3,8.444-38.806-.029-7.853.127-31.658,3.554-34.125,3.2,2.442,3.288,26.247,3.318,34.1-.109,36.567-.084,43.192-20.454,43.023l.018,4.908C113.793,143.5,116.247,143.245,118.21,143.237Z" transform="translate(-63.061 -56.494)"/></svg>