<svg id="Layer_1" data-name="Layer 1" xmlns="http://www.w3.org/2000/svg" xmlns:xlink="http://www.w3.org/1999/xlink" viewBox="0 0 154.209 118.556"><defs><style>.cls-1{fill:url(#radial-gradient);}.cls-2{fill:#266277;}.cls-3{fill:url(#radial-gradient-2);}.cls-4{fill:#6ca4ff;}</style><radialGradient id="radial-gradient" cx="624.488" cy="402.905" r="96.746" gradientTransform="matrix(0.451, 0.141, 0.049, -0.158, -213.094, 50.428)" gradientUnits="userSpaceOnUse"><stop offset="0" stop-color="#aec3e5"/><stop offset="0.438" stop-color="#2d91af"/><stop offset="0.751" stop-color="#3b91af"/><stop offset="1" stop-color="#4a91af"/></radialGradient><radialGradient id="radial-gradient-2" cx="52.891" cy="119.055" r="12.96" gradientTransform="matrix(0.473, 0, 0, -0.655, 28.65, 120.984)" gradientUnits="userSpaceOnUse"><stop offset="0" stop-color="#d0f8ff"/><stop offset="0.108" stop-color="#c8dae8"/><stop offset="0.234" stop-color="#c0c0d3"/><stop offset="0.372" stop-color="#baabc3"/><stop offset="0.526" stop-color="#b69cb8"/><stop offset="0.709" stop-color="#b494b1"/><stop offset="1" stop-color="#b391af"/></radialGradient></defs><title>Dendritic_cell</title><g id="R-ICO-012618"><g id="BG"><path class="cls-1" d="M24,52.794c1.011,1.509,6.118-.586,7.049,1.1s-7.659,1.928-2.595,3.148c1.941.468,5.446-2.787,12.186-1.718A60.583,60.583,0,0,1,57.87,60.742c4.973,2.4,25.819,13.279,20.284,15.4-9.046,3.459-7.748-2.865-13.793-1.719s-22.143-7.4-24.573-9.943c-9.034-9.465-1.3.889-3.549.952-.647.021-6.395-1.988-5.932-1.131,2.24,4.149-2.918,1.83-2.135,2.966s4.538.563,4.607,3.04,3.586-.268,5.753.478,20.4,9.874,19.4,12.167S37.642,82.316,34.55,77.61s-7.162-3.187-5.2.583,1.162,4.023.437,5.937-2.078,3.85,4.433.936C44.294,80.56,96.2,99.451,98.568,105.126c6.316,15.115-11.5,49.587-11.1,52.264s2.419,1.041,2.456-1.33,1.583-7.41,2.882-7.063,2.561,4.88,1.6,7.468,3.513.746,2.162-3.545,3.665-9.86,4.985-5.858,5.006.405-3.413-4.775c-3.26-2,0-13.341,6.032-13.7,2.808-.168,5.653,6.316,6.352,10.46.805,4.754-.62,7.215,1.872,6.384,3.592-1.194.589-1.152.268-5.122s4.186-4.523,5.354-1.693,8.229,1.22,6.867-2.935-10.4-.015-13.009-2.918-14.6-19.033-4.1-33.032c10.154-5.484,12.253-13.075,19.422-8.757s18.225,15.346,17.835,18.833,3.839,1.767,2.6-1.036,1.772-4.118,5.769-3.266,6.531-1.188,3.828-1.441-4.6-1.987,2.9-2.3,4.68-3.391,3.15-3.791-5.106-.542-3.9-2.766-.289-5.117-3.313-.889-7.21,6.637-10.822,5.8c-4.333-1.009-21.59-13.715-3.608-18.784,6-1.69,14.738-6.523,26.68,11.39,1.481,2.221,2.484-2.556,2.705-4.513s5.542.543,5.542-1.724c0-2.6-4.881-.39-8.926-2.6-7.674-4.193-12.865-6.135-8.742-7.938s16.313,2.406,16.313.43-2.541-2.449-1.463-5.515-5.268-1.02-13.978,2.171-30.728,10.322-37.391,10.038c-5.369-.231-23.129-5.783-23.655-10.285-.379-3.244,3.192-4.033,6.531-13.883,1.11-3.26,6.153-7.693,3.77-8.234s-4.27,4.564-4.27,4.564-5.085-6.542-6.5-4.875c-1.062,1.252,4.059,4.907,4.165,6.389s-1.9.768-1.9.768-4.054-5.211-3.933-2.6c.068,1.467,3.586,4.586,5.074,5.269s1.488,4.265-1.293,4.98c-5.1,1.315-14.8-16.018-20.93-19.635-10.38-6.132-11.453-4.817-6.52-1.1,1.193.9-6.447-1.257-.2,2.493.352.21.862,1.32-.9.81-2.824-.826-8.567-3.408-8.167-2.419.589,1.451,6.095,2.008,6.857,4.328.384,1.167,8.167.452,9.734,1.908s10.412,9.4,11.274,17.391-3.051,1.966-13.993-2.4S58.867,58.7,56.091,55.559c-2.984-3.38-10.126-4.186-15.91-6.623-4.206-1.772-10.33-5.811-11.492-6.519-2.76-1.682-.683,4.905-2.689,5.848S22.938,51.21,24,52.794Z" transform="translate(-22.896 -40.722)"/><path class="cls-2" d="M177.091,86.3a1.6,1.6,0,0,0-1.027-1.41,2.5,2.5,0,0,0-.621-.169,12.316,12.316,0,0,0-2.087-.169,11.794,11.794,0,0,1-5.487-1.088c-1.265-.691-2.483-1.332-3.56-1.9q-.487-.306-.977-.6c-1.455-.909-2.993-1.737-4.292-2.687a3.994,3.994,0,0,1-.783-.727.866.866,0,0,1-.122-.232c0-.02,0-.048.055-.139a2.5,2.5,0,0,1,.794-.584,4.6,4.6,0,0,1,1.062-.414,10.648,10.648,0,0,1,1.108-.207,41.978,41.978,0,0,1,7.973.813c.889.146,1.675.272,2.366.371.611.117,1.229.221,1.866.287a6.47,6.47,0,0,0,1.15.03,1.952,1.952,0,0,0,.708-.176,1.021,1.021,0,0,0,.579-.668c.012-.053.021-.107.028-.161a.69.69,0,0,0,.007-.131,3.066,3.066,0,0,0-.3-1.285,6.939,6.939,0,0,0-.6-.986,3.2,3.2,0,0,1-.733-1.559l-.018-.2.012-.206a2.346,2.346,0,0,1,.06-.421,2.987,2.987,0,0,1,.117-.432c.032-.119.114-.346.164-.578a1.809,1.809,0,0,0-.015-.835,1.513,1.513,0,0,0-.212-.465,1.56,1.56,0,0,0-.358-.343,2.506,2.506,0,0,0-1.383-.372,9.742,9.742,0,0,0-2.235.273,35.458,35.458,0,0,0-4.072,1.244q-.894.324-1.776.674c-1.447.494-3.061,1.071-4.872,1.735-4.021,1.473-9.892,3.446-15.863,5.251q-2.157.608-4.317,1.192c-3.2.842-6.4,1.681-9.623,2.348-.8.179-1.612.313-2.417.475-.8.134-1.614.271-2.417.365l-1.2.121c-.4.019-.783.015-1.175.025a15.023,15.023,0,0,1-2.365-.273,65.148,65.148,0,0,1-9.486-2.546,43.7,43.7,0,0,1-8.918-3.995,10.058,10.058,0,0,1-1.839-1.464,3.383,3.383,0,0,1-.623-.879,1.92,1.92,0,0,1-.155-.458c-.015-.123-.022-.256-.03-.387-.013-1.133.565-1.979,1.548-3.4a35.966,35.966,0,0,0,4.979-9.911,18.044,18.044,0,0,1,2.432-4.033c1.271-1.766,2.275-3.161,1.921-4.1a1.184,1.184,0,0,0-.926-.719,2.267,2.267,0,0,0-.279-.036l-.041-.005a1.781,1.781,0,0,0-.193,0c-.043,0-.085-.006-.127,0s-.085.013-.128.018l-.042.006a2.691,2.691,0,0,0-1.024.388,4.636,4.636,0,0,0-.889.744,11.148,11.148,0,0,0-1.8,2.731,27.673,27.673,0,0,0-2.595-2.844,9.207,9.207,0,0,0-2.081-1.536,2.876,2.876,0,0,0-.749-.247,1.574,1.574,0,0,0-1.017.136,1.523,1.523,0,0,0-.447.352,2.091,2.091,0,0,0-.177.27,2.044,2.044,0,0,0-.1.306,1.723,1.723,0,0,0,.111.979,4.8,4.8,0,0,0,.723,1.191c.262.338.535.647.809.949l1.627,1.742a10.644,10.644,0,0,1,.715.861c.208.289.37.565.334.664.006.116-.017.122-.005.114s-.024.033-.137.051a2.163,2.163,0,0,1-.742-.073c-.413-.5-.829-.979-1.275-1.448a11.342,11.342,0,0,0-1.658-1.474,2.644,2.644,0,0,0-.591-.308,1.192,1.192,0,0,0-.481-.065.918.918,0,0,0-.33.1.823.823,0,0,0-.255.235,1.31,1.31,0,0,0-.2.809,1.516,1.516,0,0,0,.043.347l.037.178.059.149c.022.052.049.094.072.143.786,1.833,3.913,4.4,5.167,4.98a1.809,1.809,0,0,1,.705,1.806,2.528,2.528,0,0,1-1.92,2.287,2.842,2.842,0,0,1-1.957-.37,11.061,11.061,0,0,1-1.237-.878,27.148,27.148,0,0,1-2.421-2.347q-1.162-1.245-2.274-2.561c-.757-.861-1.5-1.743-2.244-2.621s-1.5-1.756-2.285-2.61q-.52-.579-1.052-1.151c-2.579-3.107-5-5.807-7.1-7.047-2.738-1.618-4.7-2.655-6.124-3.308-.326-.161-.655-.317-.993-.463a8.027,8.027,0,0,0-1.827-.6,1.378,1.378,0,0,0-.727.057.77.77,0,0,0-.472.539.779.779,0,0,0-.026.182c0,.043,0,.088.011.131s.012.088.021.131.02.061.03.091a3.159,3.159,0,0,0,.6.94,12.117,12.117,0,0,0,1.146,1.115c-.116-.005-.23-.01-.354-.009a2.935,2.935,0,0,0-.577.059,1.241,1.241,0,0,0-.431.175.907.907,0,0,0-.286.3.871.871,0,0,0-.119.474,1.092,1.092,0,0,0,.18.544,2.041,2.041,0,0,0,.208.271,4,4,0,0,0,.39.371,10.938,10.938,0,0,0,.923.683h0c-1.105-.367-2.217-.786-3.336-1.2-.56-.206-1.122-.41-1.694-.606a14.661,14.661,0,0,0-1.8-.524,2.577,2.577,0,0,0-.609-.056,1.007,1.007,0,0,0-.278.048.832.832,0,0,0-.2.09.928.928,0,0,0-.258.257.916.916,0,0,0-.107.364.483.483,0,0,0,.005.131c0,.034.012.069.02.1a.877.877,0,0,0,.1.255,2.292,2.292,0,0,0,.884.855,11.082,11.082,0,0,0,1.731.779A21.908,21.908,0,0,1,68.9,48.643a2.762,2.762,0,0,1,1.067,1l.071.16a1.432,1.432,0,0,0,.136.242c.049.052.1.1.156.15a1.744,1.744,0,0,0,.556.276,4.3,4.3,0,0,0,.678.149,29.136,29.136,0,0,0,3.063.306c2.05.138,4.6.311,5.3.956l.171.158c6.177,5.712,9,10.33,10.2,13.745a15.269,15.269,0,0,1,.784,4.8,4.925,4.925,0,0,1-.107,1.143.97.97,0,0,1-.072.226l-.039.1a.674.674,0,0,0-.047.062.21.21,0,0,1-.174.111,1.982,1.982,0,0,1-.9-.194,10.443,10.443,0,0,1-1.1-.523c-1.472-.8-2.945-1.719-4.456-2.557s-3.063-1.629-4.652-2.336-3.2-1.317-4.777-1.978c-3.178-1.282-6.336-2.606-9.429-4.043-1.547-.716-3.074-1.47-4.545-2.3a19.483,19.483,0,0,1-4.052-2.877l-.463-.454c-.169-.157-.326-.33-.506-.472a9.744,9.744,0,0,0-1.108-.787,13,13,0,0,0-1.844-.955,49.343,49.343,0,0,0-6.19-2.139A61.868,61.868,0,0,1,40.364,48.5a86.441,86.441,0,0,1-10.579-5.954c-.382-.242-.673-.426-.85-.534-.03-.019-.071-.043-.117-.069s-.075-.041-.113-.061l-.015-.008a2.217,2.217,0,0,0-.368-.16,1.251,1.251,0,0,0-.673-.032,1.093,1.093,0,0,0-.364.164,1.36,1.36,0,0,0-.253.257,2.454,2.454,0,0,0-.385.995,8.885,8.885,0,0,0-.117.888c-.05.575-.074,1.132-.127,1.67a6.033,6.033,0,0,1-.272,1.484,1.161,1.161,0,0,1-.276.462c-.027.015-.046.048-.074.055s-.022.018-.114.061c-.139.072-.283.136-.418.217a5.3,5.3,0,0,0-1.466,1.218,3.711,3.711,0,0,0-.847,1.822,3.055,3.055,0,0,0,.407,2.067,1.694,1.694,0,0,0,.424.506,2.045,2.045,0,0,0,.555.312,3.683,3.683,0,0,0,1.017.2,12.8,12.8,0,0,0,1.778-.039c.565-.045,1.114-.1,1.642-.122a4.054,4.054,0,0,1,1.392.12.8.8,0,0,1,.2.1,2.788,2.788,0,0,1-.5.263c-.232.095-.479.186-.733.273-.513.174-1.046.326-1.605.52-.141.051-.284.1-.435.17a2.087,2.087,0,0,0-.527.309.833.833,0,0,0-.183.2.795.795,0,0,0-.037.859.788.788,0,0,0,.188.228,1.807,1.807,0,0,0,.549.318,6.926,6.926,0,0,0,.882.273c.15.033.265.072.443.1a2.617,2.617,0,0,0,.55.038,6.192,6.192,0,0,0,1.793-.441c1.042-.39,2.023-.78,3.041-1.087a15.761,15.761,0,0,1,6.792-.358,59.71,59.71,0,0,1,16.668,5.18q1.872.938,3.716,1.944c2.732,1.5,5.458,3.011,8.108,4.636a55.613,55.613,0,0,1,7.579,5.274A8.725,8.725,0,0,1,78.1,74.4a1.434,1.434,0,0,1,.284.687.237.237,0,0,1-.042.137.83.83,0,0,1-.233.177c-.053.032-.127.057-.189.088l-.264.092-.536.185a9.6,9.6,0,0,1-1.075.338c-.361.083-.722.2-1.083.256-.36.04-.723.116-1.079.138l-.532.006-.266,0-.258-.035-.516-.067-.5-.145a7.613,7.613,0,0,1-1.905-1.015,9.393,9.393,0,0,0-2.177-1.207,5.867,5.867,0,0,0-1.274-.29c-.215-.026-.43-.01-.644-.016a3.433,3.433,0,0,0-.635.027l-1.192.169a7.143,7.143,0,0,1-1.085.078,15.234,15.234,0,0,1-2.233-.219c-7.13-1.356-18.594-7.6-20.537-9.637-.327-.343-.623-.649-.906-.94-.647-.708-1.307-1.405-2.005-2.087-.2-.2-.411-.39-.632-.581-.111-.1-.224-.191-.352-.285a2.237,2.237,0,0,0-.475-.287.98.98,0,0,0-.241-.066.672.672,0,0,0-.2,0,1.113,1.113,0,0,0-.128.025.771.771,0,0,0-.156.072.678.678,0,0,0-.235.232.758.758,0,0,0-.091.219.959.959,0,0,0-.025.269,2.307,2.307,0,0,0,.108.56c.092.3.194.564.3.827.206.523.416,1.026.595,1.524.09.248.171.5.233.73a2.97,2.97,0,0,1,.07.339c-.165-.038-.351-.087-.526-.135l-1.582-.45c-.533-.152-1.068-.3-1.617-.441-.275-.069-.552-.134-.842-.191-.146-.028-.293-.055-.454-.075a2.448,2.448,0,0,0-.586-.018,1.01,1.01,0,0,0-.279.069l-.091.041-.045.024a.881.881,0,0,0-.324.371.9.9,0,0,0-.06.427,1.169,1.169,0,0,0,.063.22c.012.032.033.078.042.1l.011.021.022.042c.055.112.12.224.169.335a3.7,3.7,0,0,1,.243.645.937.937,0,0,1,.033.4c-.013.014,0,.014-.017.025a.355.355,0,0,1-.136.062,2.28,2.28,0,0,1-.623.066l-.829-.017c-.079,0-.17,0-.274.013a1.513,1.513,0,0,0-.191.032.961.961,0,0,0-.3.126.824.824,0,0,0-.356.5.9.9,0,0,0-.013.306,1.593,1.593,0,0,0,.047.177.717.717,0,0,0,.057.129l.053.092a.817.817,0,0,0,.114.148,2.217,2.217,0,0,0,.97.645c.607.218,1.151.313,1.664.449a4.229,4.229,0,0,1,1.319.517,1.138,1.138,0,0,1,.535.926,2.047,2.047,0,0,0,.34,1.094,1.278,1.278,0,0,0,.575.431,1.777,1.777,0,0,0,.595.108,6.68,6.68,0,0,0,1.772-.345c.481-.14.946-.271,1.4-.368a3.166,3.166,0,0,1,1.514.03,112.033,112.033,0,0,1,10.666,5.387c1.037.585,1.945,1.117,2.743,1.6.568.381,1.132.763,1.69,1.153A23.02,23.02,0,0,1,56.843,82.1a4.645,4.645,0,0,1,.293.366,1.487,1.487,0,0,1,.126.218l0,0c-.053.02-.09.047-.15.071a6.671,6.671,0,0,1-1.971.272,31.358,31.358,0,0,1-4.376-.211c-1.469-.14-2.933-.37-4.4-.609Q45.2,82,44.033,81.76c-4.131-1.053-7.892-2.59-9.088-4.41-1.91-2.907-4.259-3.637-5.593-2.854a2.183,2.183,0,0,0-.973,2.226,4.619,4.619,0,0,0,.431,1.527c.286.612.56,1.159.78,1.746a4.8,4.8,0,0,1,.393,1.674,2.083,2.083,0,0,1-.141.75c-.094.259-.23.543-.367.844s-.274.641-.387.914c-.121.292-.255.591-.379.925a4.041,4.041,0,0,0-.167.556,1.463,1.463,0,0,0,.041.85,1.042,1.042,0,0,0,.393.488,1.248,1.248,0,0,0,.466.189,2.259,2.259,0,0,0,.684.018,9.038,9.038,0,0,0,2.033-.544c.629-.23,1.238-.481,1.842-.741l.452-.2.4-.156a6.456,6.456,0,0,1,.85-.227,11.528,11.528,0,0,1,1.823-.218,38.649,38.649,0,0,1,7.6.524c2.545.363,5.075.875,7.6,1.41,1.191.258,2.38.531,3.568.811,5.891,1.551,12.4,3.61,18.7,5.915q1.053.432,2.1.865c1.54.65,3.091,1.27,4.623,1.933s3.076,1.3,4.594,1.983q2.293.995,4.54,2.08c1.5.7,2.975,1.476,4.4,2.294a16.61,16.61,0,0,1,2.019,1.355c.022.017.042.035.064.053a3.039,3.039,0,0,1,.785.965c1.37,3.278,1.576,7.5,1.077,12.107q-.178,1.149-.394,2.291c-.283,1.438-.573,2.874-.921,4.3s-.692,2.851-1.081,4.266l-.577,2.126-.61,2.119-1.254,4.236q-.3.994-.6,1.99c-1.455,4.116-2.951,7.915-4.168,11.006-1.886,4.785-2.715,6.933-2.6,7.713,0,.024.009.045.012.068a.8.8,0,0,0,.016.091c0,.03.012.06.017.09l.007.034a2.356,2.356,0,0,0,.119.461,2,2,0,0,0,.314.607,1.314,1.314,0,0,0,.308.283,1.012,1.012,0,0,0,.442.167,1.252,1.252,0,0,0,.836-.183,2.179,2.179,0,0,0,.522-.453,3.574,3.574,0,0,0,.611-1.065,4.5,4.5,0,0,0,.269-1.155l.025-.3.015-.245c.012-.161.03-.323.051-.486a16.022,16.022,0,0,1,.4-1.968,16.627,16.627,0,0,1,.626-1.912,6.363,6.363,0,0,1,.888-1.639.929.929,0,0,1,.194-.178.043.043,0,0,1,.022.012.725.725,0,0,0,.1.088,2.4,2.4,0,0,1,.231.31,6.37,6.37,0,0,1,.694,1.73,8.614,8.614,0,0,1,.181,3.813c-.061.325-.148.493-.28,1a1.758,1.758,0,0,0,0,.854,1.16,1.16,0,0,0,.321.549,1.238,1.238,0,0,0,.29.2,1.45,1.45,0,0,0,.3.093,1.63,1.63,0,0,0,.9-.128,2.791,2.791,0,0,0,.606-.367,3.648,3.648,0,0,0,.84-.974,4.52,4.52,0,0,0,.626-2.352,5.426,5.426,0,0,0-.13-1.179c-.035-.194-.095-.378-.147-.565-.046-.168-.087-.293-.122-.445a5.8,5.8,0,0,1,.516-3.651,6.216,6.216,0,0,1,1.048-1.575,2.418,2.418,0,0,1,1.379-.858.713.713,0,0,1,.552.2,1.743,1.743,0,0,1,.425.68l.2.5a5.162,5.162,0,0,0,.271.521,3.036,3.036,0,0,0,.49.615c.026.026.052.052.079.076l.08.064a1.742,1.742,0,0,0,.242.166h0l0,0a1.208,1.208,0,0,0,.616.174.968.968,0,0,0,.91-.767c.338-1.263-.909-3.748-5.534-6.593-1.082-.665-1.371-2.863-.718-5.468.046-.182.1-.366.152-.549q.216-.555.461-1.093a16.232,16.232,0,0,1,1.216-2.139,10.148,10.148,0,0,1,1.542-1.834l.436-.394.473-.332a2.959,2.959,0,0,1,.49-.294,2.878,2.878,0,0,1,.511-.244l.529-.2c.184-.031.367-.068.552-.106a1.141,1.141,0,0,1,.254-.04.815.815,0,0,1,.22,0,1.552,1.552,0,0,1,.472.114,4.117,4.117,0,0,1,1.02.645c1.831,1.823,3.531,6.031,4.06,9.162a23.364,23.364,0,0,1,.282,4.146c0,.115,0,.223,0,.332-.006.2-.011.4-.008.6a3.768,3.768,0,0,0,.122,1.04,1.245,1.245,0,0,0,.407.629,1.217,1.217,0,0,0,.739.245,3.427,3.427,0,0,0,1.066-.2c.3-.092.595-.193.9-.318a3.754,3.754,0,0,0,.479-.23,1.5,1.5,0,0,0,.541-.494,1.006,1.006,0,0,0,.15-.509,1.27,1.27,0,0,0-.071-.431,3.047,3.047,0,0,0-.251-.514c-.164-.28-.31-.517-.438-.766a5.655,5.655,0,0,1-.546-1.539,6.933,6.933,0,0,1-.11-.818c-.007-.136,0-.262,0-.393a1.649,1.649,0,0,1,.023-.381,2.1,2.1,0,0,1,1.668-1.948,2.142,2.142,0,0,1,1.33.184,2.068,2.068,0,0,1,.931.962l.083.153.136.272a2.415,2.415,0,0,0,.361.5,2.871,2.871,0,0,0,.952.689,4.559,4.559,0,0,0,2.09.385,6.072,6.072,0,0,0,2-.408,4.973,4.973,0,0,0,1.758-1.117,3.9,3.9,0,0,0,.656-.881,3.348,3.348,0,0,0,.335-2.17,3.91,3.91,0,0,0-.32-1.036,3.1,3.1,0,0,0-1.6-1.5,5.968,5.968,0,0,0-1.956-.42,22.963,22.963,0,0,0-3.4.116l-.221.013c-2.4.143-4.873.291-5.919-.873-.1-.11-6.294-7.137-7.871-16.107-.09-.594-.161-1.19-.206-1.788a21.218,21.218,0,0,1,.725-7.62,20.856,20.856,0,0,1,3.374-6.678,38.738,38.738,0,0,0,4.653-2.987c1.524-1.127,2.94-2.38,4.349-3.587a16.446,16.446,0,0,1,4.392-3.012,4.819,4.819,0,0,1,2.429-.27,7.7,7.7,0,0,1,2.418.871A41.177,41.177,0,0,1,131.08,94.3q1.053.8,2.083,1.626c6.018,5.084,11.653,11.6,11.406,13.822-.174,1.553.481,2.121.887,2.322a1.9,1.9,0,0,0,2.114-.472,2.608,2.608,0,0,0,.5-3.024,3.141,3.141,0,0,1-.149-.413,1.559,1.559,0,0,1,.172-1.348,2.357,2.357,0,0,1,1.3-.786,5.791,5.791,0,0,1,1.723-.187,10.045,10.045,0,0,1,1.786.2l.453.089c.166.034.331.07.5.1a9.77,9.77,0,0,0,1.014.117,7.975,7.975,0,0,0,2.071-.129,4.683,4.683,0,0,0,1.055-.335,2.747,2.747,0,0,0,.548-.336,1.663,1.663,0,0,0,.287-.3,1.087,1.087,0,0,0,.212-.591.994.994,0,0,0-.065-.393,1.053,1.053,0,0,0-.181-.3,1.065,1.065,0,0,0-.2-.185,1.188,1.188,0,0,0-.188-.117,2.355,2.355,0,0,0-.634-.216c-.186-.04-.394-.06-.539-.078s-.284-.036-.425-.061a4.915,4.915,0,0,1-.8-.212c-.047-.017-.083-.038-.127-.057.146-.052.308-.1.472-.14a21.157,21.157,0,0,1,3.648-.433,13.858,13.858,0,0,0,3.959-.624,4,4,0,0,0,1.014-.544,1.863,1.863,0,0,0,.756-1.2,1.926,1.926,0,0,0-.355-1.347A3.6,3.6,0,0,0,163.5,97.4c-.36-.091-.674-.147-.991-.2a13.9,13.9,0,0,1-1.791-.372,3.155,3.155,0,0,1-.731-.316.711.711,0,0,1-.322-.411.661.661,0,0,0-.017-.123c.012-.05.021-.1.029-.153a1.466,1.466,0,0,1,.117-.338,5.3,5.3,0,0,0,.237-.57c.006-.015.01-.03.016-.045q.042-.128.075-.255a2.392,2.392,0,0,0-.638-2.733c-.582-.364-1.85-.568-3.8,2.156-2.986,4.174-7.042,6.377-10.331,5.61a8.5,8.5,0,0,1-1.82-.754,23.165,23.165,0,0,1-2.174-1.382,25.924,25.924,0,0,1-4.539-4.1,13.973,13.973,0,0,1-1.7-2.451,6.206,6.206,0,0,1-.783-2.69c-.1-1.823,1.189-3.423,2.9-4.412.213-.127.414-.27.637-.385l.674-.338c.439-.243.93-.4,1.395-.6.953-.361,1.932-.658,2.949-1,.945-.322,1.878-.648,2.816-.932,4.182-1.118,9.322-1.489,15.58,4.32.572.577,1.125,1.173,1.658,1.782,1.109,1.293,2.17,2.631,3.154,4.028l.738,1.047.718,1.063.18.266a3.061,3.061,0,0,0,.258.337,1.852,1.852,0,0,0,.382.336,1.248,1.248,0,0,0,1.039.171,1.476,1.476,0,0,0,.31-.141,1.7,1.7,0,0,0,.409-.35,3.372,3.372,0,0,0,.452-.69,11.645,11.645,0,0,0,.817-2.642c.09-.439.166-.877.228-1.321l.044-.335.019-.169c.007-.038.01-.033.009-.053.017-.034-.016-.016.056-.067a2.321,2.321,0,0,1,.952-.139c.4,0,.825.027,1.263.049a9.85,9.85,0,0,0,1.384,0,3.129,3.129,0,0,0,.789-.182,1.477,1.477,0,0,0,.776-.655A1.573,1.573,0,0,0,177.091,86.3Zm-31.925-6.539c-.879.214-1.746.46-2.595.708-.987.274-2.032.537-3.05.895-.5.2-1.021.349-1.511.6l-.744.344c-.247.119-.481.271-.723.406a10.843,10.843,0,0,0-1.38.957l-.621.6a6.205,6.205,0,0,0-.557.675,5.428,5.428,0,0,0-1.06,3.37,7.582,7.582,0,0,0,.976,3.292,14.132,14.132,0,0,0,1.913,2.684,21.932,21.932,0,0,0,2.339,2.237,24.893,24.893,0,0,0,2.591,1.9,22.109,22.109,0,0,0,2.528,1.4,9.155,9.155,0,0,0,1.869.741c3.723.865,8.057-1.426,11.315-5.981,1.358-1.9,2.228-2.092,2.528-1.9.34.212.452.976.2,1.769a4.829,4.829,0,0,1-.265.589l-.121.264a1,1,0,0,0-.1.287l-.064.315c0,.117.007.236.017.354a1.745,1.745,0,0,0,.72,1.119,4.087,4.087,0,0,0,.991.493,14.668,14.668,0,0,0,1.923.493c.309.064.62.128.874.2a2.375,2.375,0,0,1,1.149.88.656.656,0,0,1,.133.451c-.01.095-.1.215-.276.346a2.775,2.775,0,0,1-.675.33,13.318,13.318,0,0,1-3.563.5,21.991,21.991,0,0,0-3.925.441,4.888,4.888,0,0,0-1.06.383,1.594,1.594,0,0,0-.629.545,1.259,1.259,0,0,0-.134.305,1.1,1.1,0,0,0-.023.378,1.014,1.014,0,0,0,.1.328c.022.046.046.092.072.135l.074.1a1.932,1.932,0,0,0,.585.471,3.744,3.744,0,0,0,.536.237,6.069,6.069,0,0,0,1.042.267c.173.029.346.053.52.07l.075.009a4.335,4.335,0,0,1-.51.157,6.69,6.69,0,0,1-1.725.149,8.225,8.225,0,0,1-.883-.079c-.148-.018-.294-.046-.44-.072l-.486-.083a8.647,8.647,0,0,0-4.052.156,3.368,3.368,0,0,0-1.822,1.275,3.139,3.139,0,0,0-.265.547,3.6,3.6,0,0,0-.1.591c0,.06,0,.119,0,.179v.013c0,.095.01.188.022.28a3.607,3.607,0,0,0,.3,1.1,1.659,1.659,0,0,1-.288,1.96.99.99,0,0,1-1.041.306c-.313-.155-.447-.653-.367-1.369.267-2.39-3.779-6.969-6.213-9.486a75.866,75.866,0,0,0-6.15-5.677c-.472-.407-.948-.809-1.435-1.2a39.875,39.875,0,0,0-4.633-3.288,8.94,8.94,0,0,0-2.8-1.064,6.135,6.135,0,0,0-3.079.273,10.24,10.24,0,0,0-2.611,1.43c-.784.566-1.512,1.172-2.23,1.776-1.428,1.215-2.831,2.41-4.3,3.515a37.318,37.318,0,0,1-4.6,2.99l-.136.075-.086.117a20.9,20.9,0,0,0-4.065,15.33c0,.029.009.058.013.087,1.062,10.084,8.237,18.222,8.345,18.342,1.351,1.5,4.06,1.342,6.678,1.185l.2-.012a24.058,24.058,0,0,1,3.263.042,2.887,2.887,0,0,1,2.534,1.347,2.655,2.655,0,0,1,.192.7,2.242,2.242,0,0,1-.006.7,2.2,2.2,0,0,1-.677,1.2,4.4,4.4,0,0,1-2.849,1.094,3.188,3.188,0,0,1-1.449-.267,1.489,1.489,0,0,1-.508-.369,1.059,1.059,0,0,1-.167-.235l-.194-.384a3.478,3.478,0,0,0-1.575-1.576,3.537,3.537,0,0,0-2.208-.288,3.327,3.327,0,0,0-1.929,1.137,3.617,3.617,0,0,0-.811,2.021,2.557,2.557,0,0,0-.019.523c0,.172,0,.349.017.515a7.983,7.983,0,0,0,.159.977,6.926,6.926,0,0,0,.715,1.855c.158.285.337.559.485.8a2.392,2.392,0,0,1,.151.274.631.631,0,0,1-.081.059,2.535,2.535,0,0,1-.332.177c-.249.115-.52.221-.8.321a2.57,2.57,0,0,1-.7.182.348.348,0,0,1-.115-.009s-.041-.031-.073-.123a2.952,2.952,0,0,1-.113-.755l-.025-.635c0-.088,0-.176,0-.263a24.337,24.337,0,0,0-.3-4.305c-.512-3.034-2.281-7.821-4.549-9.871a4.364,4.364,0,0,0-.982-.774,2.683,2.683,0,0,0-.747-.29,2.261,2.261,0,0,0-.807-.037c-.241.024-.483.05-.724.082l-.7.2a6.714,6.714,0,0,0-2.408,1.488,4.765,4.765,0,0,0-.487.5c-.151.175-.319.337-.453.523a11.04,11.04,0,0,0-.769,1.131,11.624,11.624,0,0,0-1.109,2.457c-.114.344-.206.694-.286,1.046-.081.257-.154.514-.218.768-.777,3.1-.34,5.594,1.139,6.5,4.662,2.868,5.09,4.893,5.129,5.27a.629.629,0,0,1-.033.339.347.347,0,0,1-.2-.089,1.885,1.885,0,0,1-.439-.557,3.746,3.746,0,0,1-.194-.414l-.167-.473a2.764,2.764,0,0,0-.646-1.093,1.819,1.819,0,0,0-1.337-.54,2.693,2.693,0,0,0-1.256.4,5.028,5.028,0,0,0-.933.739,7.309,7.309,0,0,0-1.309,1.858A7.075,7.075,0,0,0,95.8,152.6c.037.188.1.4.14.566.037.15.087.3.111.448a4.087,4.087,0,0,1,.093.9,3.14,3.14,0,0,1-.441,1.636,2.253,2.253,0,0,1-.52.6,1.3,1.3,0,0,1-.15.1,8.763,8.763,0,0,0,.262-.913,9.966,9.966,0,0,0-.229-4.466,7.6,7.6,0,0,0-.887-2.123,3.638,3.638,0,0,0-.4-.517c-.1-.086-.195-.17-.3-.249a1.94,1.94,0,0,0-.41-.207.9.9,0,0,0-.273-.061,1.066,1.066,0,0,0-.3.009,1.351,1.351,0,0,0-.478.179,2.2,2.2,0,0,0-.558.5,7.485,7.485,0,0,0-1.068,2.037,18.218,18.218,0,0,0-.625,2.075,16.092,16.092,0,0,0-.372,2.139c-.016.184-.029.369-.036.556l-.006.277-.01.226a3.4,3.4,0,0,1-.167.882,2.583,2.583,0,0,1-.389.758.674.674,0,0,1-.4.305c-.021.013-.053-.014-.118-.074a1.047,1.047,0,0,1-.168-.312,2.248,2.248,0,0,1-.124-.424l-.027-.111c0-.031,0-.045,0-.068a.461.461,0,0,1,.006-.128c0-.03.009-.062.015-.1s.012-.061.017-.091a71.617,71.617,0,0,1,2.5-6.853c1.235-3.132,2.751-6.985,4.224-11.163.243-.605.483-1.212.715-1.822.539-1.383,1.008-2.791,1.489-4.2q.678-2.122,1.273-4.273a62.425,62.425,0,0,0,1.723-8.766c.066-.567.119-1.137.163-1.707.608-5.018.434-9.639-1.064-13.222a4.572,4.572,0,0,0-1.322-1.545,17.089,17.089,0,0,0-1.825-1.4,61.329,61.329,0,0,0-8.96-4.736c-3.086-1.346-6.219-2.571-9.4-3.651q-1.147-.392-2.3-.761c-5.6-2.032-12.066-4.128-18.257-5.781q-1.964-.578-3.948-1.094c-2.519-.668-5.072-1.211-7.651-1.66a38.588,38.588,0,0,0-7.892-.612,13.025,13.025,0,0,0-2.033.262,7.941,7.941,0,0,0-1.024.285l-.5.2-.439.2c-.585.257-1.173.5-1.761.725a9.067,9.067,0,0,1-1.708.5,1,1,0,0,1-.154.014,2.985,2.985,0,0,1,.1-.353c.094-.277.217-.574.337-.884.126-.329.221-.592.348-.887s.263-.6.382-.95a3.15,3.15,0,0,0,.177-1.159,5.875,5.875,0,0,0-.557-2.075c-.262-.618-.6-1.219-.881-1.771a3.347,3.347,0,0,1-.417-1.516,1.124,1.124,0,0,1,.517-.98c.794-.465,2.658.022,4.325,2.558,1.353,2.061,5.526,3.763,10.014,4.885q.983.288,1.972.535a36.251,36.251,0,0,0,9.046,1.154,7.744,7.744,0,0,0,2.448-.408c.113-.047.237-.117.352-.179a1.977,1.977,0,0,0,.374-.317,1.214,1.214,0,0,0,.244-1.144,2.23,2.23,0,0,0-.36-.719,4.689,4.689,0,0,0-.425-.5A13.992,13.992,0,0,0,56,79.685c-.623-.447-1.267-.851-1.916-1.24-.563-.337-1.134-.659-1.706-.976a123.593,123.593,0,0,0-13.687-7.136,4.179,4.179,0,0,0-2.128-.044c-.47.073-.921.183-1.358.286a5.981,5.981,0,0,1-1.473.229.627.627,0,0,1-.213-.048c-.04-.026-.057-.031-.07-.064a.474.474,0,0,1-.053-.165.849.849,0,0,1-.014-.134c0-.06,0-.075-.012-.181a4.152,4.152,0,0,0-.07-.528,3.133,3.133,0,0,0-.2-.521,2.444,2.444,0,0,0-.72-.817,5.337,5.337,0,0,0-1.709-.759c-.1-.029-.2-.055-.294-.082L30.4,67.5a1.734,1.734,0,0,0,.6-.3,1.432,1.432,0,0,0,.466-.631,2.125,2.125,0,0,0,.024-1.224,3.768,3.768,0,0,0-.135-.439c.189.038.378.077.57.123.522.126,1.049.268,1.577.413l1.6.439c.279.071.532.143.877.2a1.356,1.356,0,0,0,.39.011,1.117,1.117,0,0,0,.493-.18,1.059,1.059,0,0,0,.361-.443,1.273,1.273,0,0,0,.1-.408,2.994,2.994,0,0,0-.147-1.056c-.087-.295-.187-.569-.293-.836-.189-.477-.392-.933-.586-1.381.057.049.114.093.171.143.738.646,1.453,1.344,2.172,2.037.25.257.512.528.8.831,2.049,2.145,13.668,8.511,21.111,9.911a14.442,14.442,0,0,0,2.32.315,8.134,8.134,0,0,0,1.253-.046l1.134-.12a2.579,2.579,0,0,1,.534,0c.176.012.355,0,.526.03a4.575,4.575,0,0,1,1,.266A8.423,8.423,0,0,1,69.2,76.265a8.9,8.9,0,0,0,2.2,1.217l.627.2.643.1.323.048.32,0,.64,0c.423-.016.831-.09,1.247-.138.409-.067.8-.183,1.2-.274a10.93,10.93,0,0,0,1.162-.355l.573-.194.29-.1c.115-.052.226-.092.343-.157a2.158,2.158,0,0,0,.677-.548,1.65,1.65,0,0,0,.336-.951,2.684,2.684,0,0,0-.5-1.484,9.888,9.888,0,0,0-1.7-1.872A36.8,36.8,0,0,0,73.753,68.9q-1.974-1.311-4.009-2.5c-2.72-1.577-5.476-3.074-8.287-4.465-1.256-.62-2.516-1.236-3.8-1.811a60.635,60.635,0,0,0-16.944-5.269,16.9,16.9,0,0,0-7.484.464c-.977.246-1.931.578-2.848.865a5.162,5.162,0,0,1-1.464.3,1.718,1.718,0,0,1-.284-.028c-.1-.013-.25-.064-.372-.1l-.095-.028c.436-.13.893-.254,1.359-.4.277-.085.558-.178.844-.295a3.574,3.574,0,0,0,.906-.505,1.983,1.983,0,0,0,.247-.241,1.3,1.3,0,0,0,.219-.4,1.076,1.076,0,0,0,.048-.524,1.409,1.409,0,0,0-.151-.436,1.906,1.906,0,0,0-1-.814,5.244,5.244,0,0,0-1.924-.224c-.59.018-1.155.069-1.7.111a11.829,11.829,0,0,1-1.573.055,2.417,2.417,0,0,1-.626-.109.7.7,0,0,1-.174-.092c-.017-.015-.037-.027-.044-.042a.381.381,0,0,1-.061-.095,2,2,0,0,1,.3-2.337,4,4,0,0,1,1.074-.944c.1-.066.215-.118.322-.179.034-.017.165-.091.25-.146a1.477,1.477,0,0,0,.253-.2,2.385,2.385,0,0,0,.573-.965,6.868,6.868,0,0,0,.286-1.814c.027-.578.023-1.139.045-1.68a7.545,7.545,0,0,1,.062-.779,1.621,1.621,0,0,1,.162-.574c.035-.053.034-.052.048-.056s.072-.01.152.007a2.226,2.226,0,0,1,.466.212c.177.109.431.27.758.477A87.229,87.229,0,0,0,40,49.372a62.563,62.563,0,0,0,6.348,2.146,52.742,52.742,0,0,1,5.749,1.952,14.092,14.092,0,0,1,2,1.1,8.882,8.882,0,0,1,.966.733c.154.129.28.282.421.42l.442.463a19.069,19.069,0,0,0,4.229,3.188c1.5.888,3.04,1.686,4.594,2.443,3.117,1.493,6.289,2.834,9.47,4.142,1.591.652,3.209,1.258,4.752,1.931s3.066,1.446,4.569,2.245,2.967,1.67,4.526,2.481a11.822,11.822,0,0,0,1.238.56,2.85,2.85,0,0,0,1.6.212,1.528,1.528,0,0,0,.5-.213,1.562,1.562,0,0,0,.363-.38c.045-.068.089-.138.129-.208l.079-.2a1.869,1.869,0,0,0,.113-.389,5.9,5.9,0,0,0,.095-1.416,15.993,15.993,0,0,0-.839-4.637c-1.162-3.594-4.033-8.514-10.606-14.592l-.169-.157c-.94-.873-3.449-1.043-5.876-1.207-.875-.059-2.031-.138-2.836-.267a4.729,4.729,0,0,1-.649-.172.834.834,0,0,1-.227-.115l-.084-.217a3.764,3.764,0,0,0-1.4-1.506c-.049-.031-.1-.059-.147-.09.483.179.968.358,1.463.526.291.095.574.186.889.272a4.218,4.218,0,0,0,.525.11,2.167,2.167,0,0,0,.675,0c.08-.02.161-.044.239-.072a1.27,1.27,0,0,0,.273-.162A1.131,1.131,0,0,0,73.65,48a1.071,1.071,0,0,0,.109-.346,1.337,1.337,0,0,0-.233-.891,1.621,1.621,0,0,0-.262-.308,1.444,1.444,0,0,0-.2-.145l-.093-.056-.373-.226c-.394-.245-.788-.5-1.139-.763l.374.015c.3.013.581.039.953.028a1.321,1.321,0,0,0,.431-.076.71.71,0,0,0,.463-.594.749.749,0,0,0-.041-.3.856.856,0,0,0-.081-.16l-.061-.08a1.115,1.115,0,0,0-.1-.1c-.125-.1-.153-.118-.218-.169l-.176-.13q-.349-.261-.688-.533a13.234,13.234,0,0,1-1.261-1.133c-.038-.039-.076-.081-.113-.123a9.347,9.347,0,0,1,1.234.389c.443.167.882.357,1.323.548,1.359.644,3.215,1.626,5.7,3.091,1.977,1.168,4.42,3.907,6.905,6.9l.872,1.185c.68.935,1.4,1.84,2.1,2.761q1.08,1.362,2.209,2.7A29.29,29.29,0,0,0,96.4,64.335a10.067,10.067,0,0,0,1.366.784,3.808,3.808,0,0,0,2.723.5,3.37,3.37,0,0,0,2.17-1.64,34.5,34.5,0,0,1-2.7,4.449c-1.107,1.6-1.84,2.672-1.7,4.28,0,.057,0,.112.008.169a2.751,2.751,0,0,0,.2.727,4.364,4.364,0,0,0,.763,1.17,10.979,10.979,0,0,0,1.982,1.7,29.1,29.1,0,0,0,4.434,2.453c1.528.7,3.084,1.32,4.656,1.891a64.146,64.146,0,0,0,9.688,2.675,16.3,16.3,0,0,0,2.57.277c.437-.011.879-.011,1.311-.036l1.27-.136c1.68-.221,3.326-.532,4.954-.9,3.253-.752,6.462-1.625,9.641-2.6,1.078-.326,2.149-.672,3.221-1.014,6.573-1.969,13.037-4.156,16.981-5.6,1.288-.472,3.025-1.107,4.823-1.717.613-.177,1.225-.354,1.837-.525,1.341-.355,2.674-.745,4-.982a9.5,9.5,0,0,1,1.919-.2,1.3,1.3,0,0,1,.619.131c.034.027.013,0,.017.026a.527.527,0,0,1-.013.2c-.023.108-.056.213-.118.43a4.317,4.317,0,0,0-.147.58,3.64,3.64,0,0,0-.075.616l-.01.318.031.324a4.357,4.357,0,0,0,1.025,2.184,5.972,5.972,0,0,1,.533.77,1.835,1.835,0,0,1,.194.627,1.718,1.718,0,0,1-.205.045,5.457,5.457,0,0,1-.943.047c-.589-.021-1.191-.068-1.8-.124-.787-.111-1.615-.247-2.35-.367a41.49,41.49,0,0,0-8.212-.82,8.087,8.087,0,0,0-1.227.06,4.836,4.836,0,0,0-1.393.371,3.453,3.453,0,0,0-1.312.879,1.561,1.561,0,0,0-.374,1.05,1.97,1.97,0,0,0,.347.956,5.053,5.053,0,0,0,1.077,1.058,17.745,17.745,0,0,0,2.285,1.4c.775.406,1.554.784,2.347,1.134q.52.236,1.045.462c1.076.566,2.293,1.206,3.554,1.9a12.554,12.554,0,0,0,5.916,1.2,12.258,12.258,0,0,1,1.945.149,1.112,1.112,0,0,1,.667.379.694.694,0,0,1,.085.357.484.484,0,0,1-.06.313.392.392,0,0,1-.219.129,2.057,2.057,0,0,1-.479.071,9.359,9.359,0,0,1-1.2-.05c-.424-.037-.86-.084-1.325-.1a5.366,5.366,0,0,0-.733.016,2.452,2.452,0,0,0-.856.221,1.43,1.43,0,0,0-.752.9c-.021.086-.044.2-.053.265l-.02.153-.044.308c-.062.411-.14.823-.228,1.231a10.611,10.611,0,0,1-.73,2.294,2.068,2.068,0,0,1-.245.4l-.012.012a.34.34,0,0,1-.032-.033,1.951,1.951,0,0,1-.138-.175l-.187-.269c-.494-.72-.993-1.437-1.526-2.131a41.544,41.544,0,0,0-3.423-3.984c-.417-.425-.851-.834-1.292-1.234C155.477,77.873,149.761,78.474,145.166,79.763Zm-48.022-24.6-.035-.1-.008-.08a.574.574,0,0,1-.014-.173c0-.014,0-.027,0-.041a2.439,2.439,0,0,1,.231.151,10.452,10.452,0,0,1,1.4,1.391c.448.51.891,1.048,1.3,1.585l.114.15.171.056a3.513,3.513,0,0,0,1.462.21,1.523,1.523,0,0,0,.928-.428,1.423,1.423,0,0,0,.386-.977c0-.075,0-.147,0-.224s-.024-.179-.043-.262a2.238,2.238,0,0,0-.149-.4,3.892,3.892,0,0,0-.365-.609,12.093,12.093,0,0,0-.8-.984l-1.613-1.763c-.257-.289-.507-.58-.73-.873a3.865,3.865,0,0,1-.517-.838.641.641,0,0,1-.049-.164,1.073,1.073,0,0,1,.515.132,8.006,8.006,0,0,1,1.749,1.284,34.266,34.266,0,0,1,3.181,3.406l.687.84.387-1.005a12.211,12.211,0,0,1,1.858-3.417,2.4,2.4,0,0,1,1.375-.917.779.779,0,0,1,.1-.007,1.125,1.125,0,0,1,.251.021c.066.015.223.059.251.132.175.461-.969,2.05-1.8,3.21a18.646,18.646,0,0,0-2.561,4.281,41.091,41.091,0,0,1-2,4.911,3.789,3.789,0,0,0,.3-1.162,2.669,2.669,0,0,0-1.253-2.749,14.668,14.668,0,0,1-4.43-3.992A3.3,3.3,0,0,1,97.144,55.161Z" transform="translate(-22.896 -40.722)"/></g><g id="R-ICO-013121"><circle class="cls-3" cx="55.672" cy="44.478" r="6.189"/><path class="cls-4" d="M78.568,91.652A6.453,6.453,0,1,1,85.02,85.2,6.456,6.456,0,0,1,78.568,91.652Zm0-12.379A5.927,5.927,0,1,0,84.5,85.2,5.932,5.932,0,0,0,78.568,79.273Z" transform="translate(-22.896 -40.722)"/></g></g></svg>