<svg id="Layer_1" data-name="Layer 1" xmlns="http://www.w3.org/2000/svg" xmlns:xlink="http://www.w3.org/1999/xlink" viewBox="0 0 31.897 21.771"><defs><style>.cls-1{fill:url(#linear-gradient);}.cls-2{fill:#6056a4;}.cls-3{font-size:12px;fill:#fff;font-family:Arial-BoldMT, Arial;font-weight:700;}</style><linearGradient id="linear-gradient" x1="16.067" y1="0.843" x2="16.067" y2="20.843" gradientUnits="userSpaceOnUse"><stop offset="0" stop-color="#4f3d97"/><stop offset="1" stop-color="#615ba7"/></linearGradient></defs><title>U1</title><g id="U1"><rect class="cls-1" x="1.567" y="0.843" width="29" height="20" rx="10" ry="10"/><path class="cls-2" d="M104.5,110.15c-1.683,0-3.366.1-5.048.259-.841.076-1.683.171-2.524.277l-1.262.155c-.427.044-.909.076-1.369.086a10.011,10.011,0,0,1-5.391-1.6,10.8,10.8,0,0,1-3.833-4.285,11.07,11.07,0,0,1,.773-11.1A10.556,10.556,0,0,1,95.5,89.179c1.683.13,3.366.264,5.048.312.841.044,1.683.037,2.524.053s1.679-.015,2.575.039a11.993,11.993,0,0,1,5.09,1.589,10.371,10.371,0,0,1,3.872,3.937,9.725,9.725,0,0,1-.846,10.7,11.222,11.222,0,0,1-4.243,3.265A13.053,13.053,0,0,1,104.5,110.15Zm0-.3a8.249,8.249,0,0,0,4.647-1.445,8.959,8.959,0,0,0,3-3.613,10.994,10.994,0,0,0,.745-2.131,11.732,11.732,0,0,0,.252-2.187,10.289,10.289,0,0,0-.779-4.273,9.681,9.681,0,0,0-2.585-3.68,8.35,8.35,0,0,0-4.238-1.977,17.847,17.847,0,0,0-2.469-.088c-.841.016-1.683.009-2.524.053-1.683.048-3.366.182-5.048.312a9.513,9.513,0,0,0-7.257,4.633,8.464,8.464,0,0,0-1.15,4.084,10.222,10.222,0,0,0,.172,2.11,9.05,9.05,0,0,0,.688,2,9.9,9.9,0,0,0,6.562,5.3c.378.077.737.153,1.151.213l1.262.155c.841.106,1.683.2,2.524.277C101.134,109.746,102.817,109.846,104.5,109.85Z" transform="translate(-83.933 -89.157)"/><text class="cls-3" transform="translate(8.397 14.157)">U1</text></g></svg>