<svg id="Layer_1" data-name="Layer 1" xmlns="http://www.w3.org/2000/svg" xmlns:xlink="http://www.w3.org/1999/xlink" viewBox="0 0 106.207 95.489"><defs><style>.cls-1{fill:url(#radial-gradient);}.cls-2{fill:#89126d;}.cls-3{fill:url(#radial-gradient-2);}.cls-4{fill:#4aa5dd;}</style><radialGradient id="radial-gradient" cx="83.599" cy="75.241" r="48.833" gradientTransform="matrix(1, 0, 0, -1.386, 0, 192.953)" gradientUnits="userSpaceOnUse"><stop offset="0.001" stop-color="#ffd1dc"/><stop offset="0.006" stop-color="#fecfda"/><stop offset="0.104" stop-color="#eaa8bb"/><stop offset="0.208" stop-color="#da88a0"/><stop offset="0.321" stop-color="#cc6d8a"/><stop offset="0.443" stop-color="#c15879"/><stop offset="0.579" stop-color="#ba496d"/><stop offset="0.742" stop-color="#b54166"/><stop offset="1" stop-color="#b43e64"/></radialGradient><radialGradient id="radial-gradient-2" cx="122.887" cy="79.42" r="18.278" gradientTransform="matrix(1, 0, 0, -1.386, -47.361, 142.523)" gradientUnits="userSpaceOnUse"><stop offset="0.001" stop-color="#ffd1dc"/><stop offset="0.018" stop-color="#f2cadb"/><stop offset="0.092" stop-color="#c0aed6"/><stop offset="0.171" stop-color="#9294d1"/><stop offset="0.254" stop-color="#6b7ecd"/><stop offset="0.342" stop-color="#4a6cca"/><stop offset="0.435" stop-color="#2f5dc7"/><stop offset="0.537" stop-color="#1a51c5"/><stop offset="0.651" stop-color="#0b49c3"/><stop offset="0.786" stop-color="#0344c2"/><stop offset="1" stop-color="#0043c2"/></radialGradient></defs><title>memory_cell</title><g id="MEMORY_CELL" data-name="MEMORY CELL"><path class="cls-1" d="M152.044,97.021c0,9.67,1.05,18.81-4.65,25.55-8.09,9.55-10.33,8.89-21.08,14.31-6.37,3.21-8.44,8.9-15.85,8.9-13.14,0-27.85,3.48-44.13-4.99-10.65-5.54-15.18-17.03-17.26-30.2-.53-3.37,0-10.01,0-13.56,0-20.1,8.22-29.76,18.07-36.72,8.55-6.05,22.65-6.96,33.42-6.96,5.84,0,19.36,2.6,24.59,4.64,11.08,4.31,16.03,3.66,22.25,14.68C152.544,81.781,152.044,85.371,152.044,97.021Z" transform="translate(-47.361 -52.042)"/><path class="cls-2" d="M153.334,99.021c-.17-3.25-.38-6.72-.8-10.09a24.1,24.1,0,0,0-.41-8.81,33.15,33.15,0,0,0-3.44-8.22,27.007,27.007,0,0,0-5.53-7.07,17.889,17.889,0,0,0-8.04-3.87c-1.37-.69-2.79-1.29-4.17-1.86l-3.97-1.67c-.89-.39-1.82-.8-2.8-1.16a76.73,76.73,0,0,0-11.68-3.02,62.831,62.831,0,0,0-12.06-1.2,74.506,74.506,0,0,0-11.89,1.28,49.636,49.636,0,0,0-12.22,1.39,35.64,35.64,0,0,0-5.96,2.04,28.221,28.221,0,0,0-5.45,3.29,39.748,39.748,0,0,0-8.84,8.84,31.808,31.808,0,0,0-5.08,11.31,35.847,35.847,0,0,0-2.88,10.04,50.929,50.929,0,0,0-.49,5.26l-.03,1.04c-.03,1.37-.06,2.69-.14,4.08-.01.56-.02,1.12-.04,1.68a40.341,40.341,0,0,0,.43,8.86,48.156,48.156,0,0,0,3.06,9.95,34,34,0,0,0,3.87,10.54,26.739,26.739,0,0,0,7.72,8.55,37.7,37.7,0,0,0,10.36,4.75,38.948,38.948,0,0,0,11.05,1.62h.05a68.157,68.157,0,0,0,12.02.96c1.54,0,2.99-.03,4.32-.08,1.08-.02,2.16-.06,3.24-.1,1.59-.06,3.24-.11,4.85-.12l2.03-.01.48-.02a11.352,11.352,0,0,0,1.74-.15,12.455,12.455,0,0,0,4.33-1.49,27.683,27.683,0,0,0,4.52-3.47c.69-.61,1.34-1.18,2.02-1.72a19.877,19.877,0,0,1,3.14-2.15c1.12-.6,2.29-1.2,3.44-1.79l.13-.07c.65-.33,1.3-.65,1.95-.98,1.75-.87,3.57-1.77,5.32-2.81a26.267,26.267,0,0,0,6.32-5.38c1.22-1.03,2.41-2.14,3.57-3.22l.21-.2a16.584,16.584,0,0,0,3.26-4.26,20.537,20.537,0,0,0,1.89-5.05,36.023,36.023,0,0,0,.73-5.23A85.3,85.3,0,0,0,153.334,99.021Zm-21.07,33.72c-1.04.43-2.08.87-3.11,1.33-1.27.56-2.51,1.11-3.74,1.73a22.671,22.671,0,0,0-3.65,2.32c-.82.62-1.59,1.29-2.34,1.93a23.248,23.248,0,0,1-3.89,2.92,9.76,9.76,0,0,1-3.33,1.18,7.633,7.633,0,0,1-1.3.13l-1.16.04c-.46,0-.93.01-1.39.04-2.62.12-5.37.3-8.16.55l-.15.01a133.826,133.826,0,0,1-15.95.67,74.382,74.382,0,0,1-10.37-3.04c-1.97-.77-3.53-1.46-4.92-2.16a32.649,32.649,0,0,1-4.56-2.63,29.261,29.261,0,0,1-7.27-7.46,58.214,58.214,0,0,1-5.08-9.47c-.6-3.31-1.09-6.59-1.5-10.05a32.7,32.7,0,0,1-.11-4.93c.05-1.69.11-3.39.19-5.11.05-1.55.07-3.34.06-5.18-.02-1.66.06-3.35.14-5.04a72.913,72.913,0,0,1,1.29-10.01,44.417,44.417,0,0,1,6.15-10.06,47.375,47.375,0,0,1,8.62-8,32.5,32.5,0,0,1,10.31-5.26,100.145,100.145,0,0,1,11.61-2.85c3.95.04,7.92.14,11.78.28a54.694,54.694,0,0,1,5.74.63c1.98.29,3.92.61,5.79.97,1.93.34,3.87.72,5.76,1.14,1.77.36,3.63.81,5.67,1.36.3.08.58.17.87.26l.54.17c.45.16.91.31,1.36.45.96.3,1.92.58,2.88.85,1.5.4,3,.78,4.5,1.15l1.22.31a25.886,25.886,0,0,1,6.63,4.77,34.5,34.5,0,0,1,4.69,6.7,49.019,49.019,0,0,1,3.59,7.47,45.621,45.621,0,0,1,1.85,8.11c-.37,3.12-.61,6.42-.74,10.09-.05,1.33-.07,2.65-.09,3.97-.03,2-.06,4.06-.19,6.06a27.325,27.325,0,0,1-1.94,9.35,22.443,22.443,0,0,1-3.42,5.34c-.68.88-1.38,1.79-2.03,2.74-1.17.98-2.17,1.75-3.13,2.41a24.836,24.836,0,0,1-3.42,1.95C135.174,131.531,133.694,132.151,132.264,132.741Z" transform="translate(-47.361 -52.042)"/><circle class="cls-3" cx="81.563" cy="36.899" r="18.47"/><path class="cls-4" d="M128.924,108.411a19.47,19.47,0,1,1,19.47-19.47A19.487,19.487,0,0,1,128.924,108.411Zm0-36.93a17.47,17.47,0,1,0,17.47,17.47A17.494,17.494,0,0,0,128.924,71.481Z" transform="translate(-47.361 -52.042)"/></g></svg>