<svg id="Layer_1" data-name="Layer 1" xmlns="http://www.w3.org/2000/svg" xmlns:xlink="http://www.w3.org/1999/xlink" viewBox="0 0 25.148 156.545"><defs><style>.cls-1{fill:url(#linear-gradient);}.cls-2{fill:url(#linear-gradient-2);}.cls-3{fill:url(#radial-gradient);}.cls-4{fill:url(#radial-gradient-2);}.cls-5{fill:url(#radial-gradient-3);}.cls-6{fill:url(#radial-gradient-4);}</style><linearGradient id="linear-gradient" x1="92.559" y1="132.405" x2="104.675" y2="132.405" gradientUnits="userSpaceOnUse"><stop offset="0" stop-color="#c45aaf"/><stop offset="0.033" stop-color="#cf6bbb"/><stop offset="0.125" stop-color="#e995d8"/><stop offset="0.198" stop-color="#f9aeea"/><stop offset="0.241" stop-color="#ffb8f1"/><stop offset="0.477" stop-color="#d676c3"/><stop offset="0.596" stop-color="#c45aaf"/><stop offset="1" stop-color="#4d0a40"/></linearGradient><linearGradient id="linear-gradient-2" x1="4.574" y1="38.772" x2="20.574" y2="38.772" xlink:href="#linear-gradient"/><radialGradient id="radial-gradient" cx="9.171" cy="549.86" r="17.715" gradientTransform="translate(-371.186 28.152) rotate(-90) scale(0.48 0.847)" gradientUnits="userSpaceOnUse"><stop offset="0" stop-color="#ffb8f1"/><stop offset="0.092" stop-color="#ea97da"/><stop offset="0.204" stop-color="#d576c3"/><stop offset="0.297" stop-color="#c961b4"/><stop offset="0.359" stop-color="#c45aaf"/><stop offset="1" stop-color="#4d0a40"/></radialGradient><radialGradient id="radial-gradient-2" cx="-38.426" cy="549.86" r="17.715" xlink:href="#radial-gradient"/><radialGradient id="radial-gradient-3" cx="-86.022" cy="549.86" r="17.715" xlink:href="#radial-gradient"/><radialGradient id="radial-gradient-4" cx="-133.618" cy="549.86" r="17.715" xlink:href="#radial-gradient"/></defs><title>SALM3</title><g id="SALM3"><path class="cls-1" d="M98.679,177.156a6,6,0,0,1-6-6v-77.5a6,6,0,1,1,12,0v77.5A6,6,0,0,1,98.679,177.156Z" transform="translate(-86.106 -20.61)"/><rect class="cls-2" x="4.574" y="4.5" width="16" height="68.544"/><path class="cls-3" d="M111.253,25.11c0,2.486-3.556,4.5-7.941,4.5H94.047c-4.386,0-7.941-2.014-7.941-4.5s3.556-4.5,7.941-4.5h9.265C107.7,20.61,111.253,22.625,111.253,25.11Z" transform="translate(-86.106 -20.61)"/><path class="cls-4" d="M111.253,47.958c0,2.486-3.556,4.5-7.941,4.5H94.047c-4.386,0-7.941-2.014-7.941-4.5s3.556-4.5,7.941-4.5h9.265C107.7,43.458,111.253,45.473,111.253,47.958Z" transform="translate(-86.106 -20.61)"/><path class="cls-5" d="M111.253,70.806c0,2.486-3.556,4.5-7.941,4.5H94.047c-4.386,0-7.941-2.014-7.941-4.5s3.556-4.5,7.941-4.5h9.265C107.7,66.306,111.253,68.321,111.253,70.806Z" transform="translate(-86.106 -20.61)"/><path class="cls-6" d="M111.253,93.654c0,2.486-3.556,4.5-7.941,4.5H94.047c-4.386,0-7.941-2.014-7.941-4.5s3.556-4.5,7.941-4.5h9.265C107.7,89.154,111.253,91.168,111.253,93.654Z" transform="translate(-86.106 -20.61)"/></g></svg>