<svg id="Layer_1" data-name="Layer 1" xmlns="http://www.w3.org/2000/svg" xmlns:xlink="http://www.w3.org/1999/xlink" viewBox="0 0 57.311 22.901"><defs><style>.cls-1{fill:url(#linear-gradient);}.cls-2{fill:#6f8e00;}.cls-3{font-size:12px;fill:#fff;font-family:Arial-BoldMT, Arial;font-weight:700;}</style><linearGradient id="linear-gradient" x1="28.899" y1="21.293" x2="28.899" y2="1.293" gradientUnits="userSpaceOnUse"><stop offset="0" stop-color="#a34db4"/><stop offset="1" stop-color="#6f8e00"/></linearGradient></defs><title>POFUT1</title><g id="POFUT1"><rect class="cls-1" x="1.399" y="1.293" width="55" height="20" rx="10" ry="10"/><path class="cls-2" d="M114.99,107.379c-5.532-.009-11.065.43-16.6.837-5.532.458-11.065.547-16.6.613-.711.009-1.34.016-2.117-.01A11.288,11.288,0,0,1,77.3,108.5,11.128,11.128,0,0,1,73,106.42a11.4,11.4,0,0,1-4.379-8.161,11.1,11.1,0,0,1,3.111-8.571,10.876,10.876,0,0,1,8.255-3.28c5.532.282,11.065.437,16.6.335,5.532-.084,11.065-.574,16.6-.762.707-.013,1.348-.053,2.109-.043a9.729,9.729,0,0,1,2.329.278,10.746,10.746,0,0,1,4.211,2.012,10.6,10.6,0,0,1,4.063,8.014,10.785,10.785,0,0,1-3.256,7.976A10.976,10.976,0,0,1,114.99,107.379Zm0-.3a9.148,9.148,0,0,0,9-10.666,9.543,9.543,0,0,0-6.994-7.6,10.082,10.082,0,0,0-1.775-.264c-.621-.046-1.363-.046-2.039-.071-5.532-.188-11.065-.678-16.6-.762-5.532-.1-11.065.053-16.6.335a9.111,9.111,0,0,0-6.478,3.263A8.846,8.846,0,0,0,71.448,98a8.562,8.562,0,0,0,3.456,5.925,8.925,8.925,0,0,0,3.14,1.462,8.085,8.085,0,0,0,1.721.223c.6.028,1.359,0,2.031.017,5.532.066,11.065.155,16.6.613C103.925,106.649,109.458,107.088,114.99,107.079Z" transform="translate(-68.591 -85.935)"/><text class="cls-3" transform="translate(5.231 14.115)">POFUT1</text></g></svg>