<svg id="Layer_1" data-name="Layer 1" xmlns="http://www.w3.org/2000/svg" xmlns:xlink="http://www.w3.org/1999/xlink" viewBox="0 0 126.904 32.949"><defs><style>.cls-1{fill:url(#linear-gradient);}.cls-2{fill:#0052af;}.cls-3{font-size:12px;fill:#fff;font-family:Arial-BoldMT, Arial;font-weight:700;}.cls-4{letter-spacing:-0.092em;}.cls-5{letter-spacing:-0.074em;}</style><linearGradient id="linear-gradient" x1="63.796" y1="31.347" x2="63.796" y2="1.347" gradientUnits="userSpaceOnUse"><stop offset="0" stop-color="#06a2b2"/><stop offset="1" stop-color="#73babf"/></linearGradient></defs><title>R-ICO-013632</title><g id="POLYADENYLATION_PROTEIN" data-name="POLYADENYLATION PROTEIN"><rect class="cls-1" x="1.296" y="1.347" width="125" height="30" rx="10" ry="10"/><path class="cls-2" d="M152.5,115.15c-12.2-.011-24.4.447-36.6.837-12.2.458-24.4.546-36.6.613-6.1,0-12.2.019-18.3-.037l-9.149-.076-4.606-.049a11.513,11.513,0,0,1-5.013-1.327,11.371,11.371,0,0,1-5.879-8.135,9.4,9.4,0,0,1-.134-1.287l-.023-.646.006-.577.033-2.287L36.31,97.6l.033-2.287a13.588,13.588,0,0,1,.252-2.5A11.1,11.1,0,0,1,38.776,88.3,10.965,10.965,0,0,1,47.5,84.179c12.2.261,24.4.449,36.6.335,6.1-.049,12.2-.194,18.3-.349l18.3-.413c6.1-.085,12.2-.131,18.3-.071q4.575.022,9.149.128c1.535.036,3.027.043,4.6.12a11.09,11.09,0,0,1,4.8,1.376,10.871,10.871,0,0,1,5.446,7.835,12.7,12.7,0,0,1,.106,2.394l-.068,2.287-.135,4.575-.068,2.287a13.161,13.161,0,0,1-.244,2.33A10.43,10.43,0,0,1,152.5,115.15Zm0-.3a9.724,9.724,0,0,0,9.527-7.948,23.285,23.285,0,0,0,.081-4.507l-.135-4.575a29.929,29.929,0,0,0-.288-4.449,9.243,9.243,0,0,0-5.015-6.4,9.062,9.062,0,0,0-3.977-.88l-4.551.1q-4.575.108-9.149.128c-6.1.061-12.2.015-18.3-.071l-18.3-.413c-6.1-.155-12.2-.3-18.3-.349-12.2-.114-24.4.074-36.6.335a9.114,9.114,0,0,0-7.1,3.725,9.017,9.017,0,0,0-1.6,3.717,11.233,11.233,0,0,0-.141,2.054L38.69,97.6l.067,4.575.033,2.287.01.567.035.5a6.856,6.856,0,0,0,.131.982,8.751,8.751,0,0,0,4.582,6.1,8.648,8.648,0,0,0,3.767.929l4.543-.027,9.149-.076c6.1-.056,12.2-.036,18.3-.037,12.2.066,24.4.155,36.6.613C128.1,114.4,140.3,114.861,152.5,114.85Z" transform="translate(-36.204 -83.653)"/><text class="cls-3" transform="translate(5.082 11.832)">PO<tspan class="cls-4" x="17.338" y="0">LY</tspan><tspan x="30.469" y="0">ADENYL</tspan><tspan class="cls-5" x="79.805" y="0">A</tspan><tspan x="87.58" y="0">TION</tspan><tspan x="31.453" y="14.4">PROTEIN</tspan></text></g></svg>