<svg id="Layer_1" data-name="Layer 1" xmlns="http://www.w3.org/2000/svg" xmlns:xlink="http://www.w3.org/1999/xlink" viewBox="0 0 95.078 37.089"><defs><style>.cls-1{fill:url(#radial-gradient);}.cls-2{fill:url(#radial-gradient-2);}.cls-3{fill:url(#linear-gradient);}.cls-4{fill:#ff7400;}.cls-5{font-size:12px;fill:#fff;font-family:Arial-BoldMT, Arial;font-weight:700;}.cls-6{fill:url(#linear-gradient-2);}</style><radialGradient id="radial-gradient" cx="114.257" cy="98.596" r="32.318" gradientTransform="translate(0 33.065) scale(1 0.665)" gradientUnits="userSpaceOnUse"><stop offset="0.511" stop-color="#b8871e"/><stop offset="0.857" stop-color="#755613"/><stop offset="1" stop-color="#45330b"/></radialGradient><radialGradient id="radial-gradient-2" cx="73.844" cy="98.071" r="22.837" gradientTransform="translate(0 12.213) scale(1 0.875)" gradientUnits="userSpaceOnUse"><stop offset="0.511" stop-color="#b8871e"/><stop offset="0.793" stop-color="#755613"/><stop offset="0.842" stop-color="#6e5112"/><stop offset="0.911" stop-color="#5b430f"/><stop offset="0.972" stop-color="#45330b"/></radialGradient><linearGradient id="linear-gradient" x1="97.587" y1="103.062" x2="97.587" y2="83.062" gradientUnits="userSpaceOnUse"><stop offset="0" stop-color="#7f1600"/><stop offset="1" stop-color="#ff7400"/></linearGradient><linearGradient id="linear-gradient-2" x1="99.482" y1="117.634" x2="99.482" y2="103.006" gradientUnits="userSpaceOnUse"><stop offset="0" stop-color="#012807"/><stop offset="1" stop-color="#025e11"/></linearGradient></defs><title>DDX58</title><g id="DDX58"><path class="cls-1" d="M141.418,89.261a18.278,18.278,0,0,0-11.491-4.181,7.323,7.323,0,1,0,0,14.646c1.132,0,2.706.884,2.706,1.755,0,.767-.165.89-.285.98a12.349,12.349,0,0,1-3.839.6,7.323,7.323,0,0,0,0,14.646c11.287,0,18.77-6.824,18.77-16.227A15.7,15.7,0,0,0,141.418,89.261Z" transform="translate(-52.203 -81.878)"/><path class="cls-2" d="M87.033,85.39H73.664c-19.2,0-21.461,12.244-21.461,16.091,0,9.706,6.862,16.227,18.77,16.227a7.323,7.323,0,1,0,0-14.646A14.375,14.375,0,0,1,67,102.508a2.205,2.205,0,0,1-.155-1.026,1.5,1.5,0,0,1,.01-.183c.466-.456,1.458-1.883,6.993-1.883H87.033c2.829,0,4.715-3.268,4.617-7.311S88.908,85.388,87.033,85.39Z" transform="translate(-52.203 -81.878)"/><g id="CARD"><path class="cls-3" d="M109.587,103.062h-34v-20h34a10,10,0,0,1,10,10h0A10,10,0,0,1,109.587,103.062Z" transform="translate(-52.203 -81.878)"/><path class="cls-4" d="M109.587,103.212c-2.833.018-5.667.117-8.5.328l-8.5.676c-2.833.2-5.667.335-8.5.372-2.833.056-5.667.1-8.5.071l-1.6-.016,0-1.583c.008-3.333.091-6.667.163-10s.143-6.667.307-10l.058-1.184,1.07.055c5.451.282,10.9.654,16.352.667,2.725.027,5.451-.037,8.176-.163l8.176-.489c.684-.033,1.335-.083,2.133-.063a10.458,10.458,0,0,1,2.272.332,10.6,10.6,0,0,1,4.1,2.081,10.458,10.458,0,0,1,3.814,8.048,10.713,10.713,0,0,1-3.417,7.841A11.135,11.135,0,0,1,109.587,103.212Zm0-.3a8.948,8.948,0,0,0,6.974-3.314,9.215,9.215,0,0,0,1.94-7.116,9.72,9.72,0,0,0-3.419-6.105,9.562,9.562,0,0,0-3.095-1.685,13.1,13.1,0,0,0-3.7-.518l-8.176-.489c-2.725-.126-5.451-.189-8.176-.163-5.451.013-10.9.385-16.352.667l1.128-1.128c.164,3.333.23,6.667.307,10s.154,6.667.163,10l-1.6-1.6c2.833-.028,5.667.015,8.5.071,2.833.037,5.667.173,8.5.372l8.5.676C103.92,102.795,106.754,102.894,109.587,102.912Z" transform="translate(-52.203 -81.878)"/><text class="cls-5" transform="translate(28.052 14.069)">CARD</text></g><path class="cls-6" d="M127.392,117.709H71.572a7.323,7.323,0,1,1,0-14.646h55.819a7.323,7.323,0,0,1,0,14.646Z" transform="translate(-52.203 -81.878)"/><text class="cls-5" transform="translate(17.662 32.572)">HELICASE</text></g></svg>