<svg id="Layer_1" data-name="Layer 1" xmlns="http://www.w3.org/2000/svg" xmlns:xlink="http://www.w3.org/1999/xlink" viewBox="0 0 131.901 150.366"><defs><style>.cls-1{fill:url(#linear-gradient);}.cls-2{fill:url(#radial-gradient);}.cls-3{fill:url(#radial-gradient-2);}.cls-4{fill:url(#radial-gradient-3);}.cls-5{fill:url(#radial-gradient-4);}.cls-6{fill:url(#linear-gradient-2);}.cls-7{fill:url(#linear-gradient-3);}.cls-8{fill:url(#linear-gradient-4);}.cls-9{fill:url(#radial-gradient-5);}.cls-10{fill:url(#radial-gradient-6);}.cls-11{fill:url(#radial-gradient-7);}.cls-12{fill:url(#radial-gradient-8);}</style><linearGradient id="linear-gradient" x1="60.129" y1="33.599" x2="60.129" y2="176.536" gradientUnits="userSpaceOnUse"><stop offset="0" stop-color="#b38c4c"/><stop offset="1" stop-color="#291c0d"/></linearGradient><radialGradient id="radial-gradient" cx="60.674" cy="62.99" r="16.442" gradientTransform="matrix(0.011, 1, -0.298, 0.003, 76.702, -1.572)" xlink:href="#linear-gradient"/><radialGradient id="radial-gradient-2" cx="66.176" cy="53.462" r="16.442" gradientTransform="matrix(0.011, 1, -0.298, 0.003, 79.3, -16.572)" xlink:href="#linear-gradient"/><radialGradient id="radial-gradient-3" cx="71.677" cy="43.933" r="16.442" gradientTransform="matrix(0.011, 1, -0.298, 0.003, 81.898, -31.571)" xlink:href="#linear-gradient"/><radialGradient id="radial-gradient-4" cx="77.178" cy="34.404" r="16.442" gradientTransform="matrix(0.011, 1, -0.298, 0.003, 84.497, -46.57)" xlink:href="#linear-gradient"/><linearGradient id="linear-gradient-2" x1="12.221" y1="50.354" x2="12.221" y2="62.574" gradientUnits="userSpaceOnUse"><stop offset="0" stop-color="#b38c4c"/><stop offset="1" stop-color="#6f4d24"/></linearGradient><linearGradient id="linear-gradient-3" x1="141.646" y1="33.599" x2="141.646" y2="176.536" xlink:href="#linear-gradient"/><linearGradient id="linear-gradient-4" x1="154.618" y1="76.524" x2="154.618" y2="88.745" gradientTransform="translate(309.235 165.269) rotate(-180)" xlink:href="#linear-gradient-2"/><radialGradient id="radial-gradient-5" cx="379.773" cy="-273.661" r="16.442" gradientTransform="matrix(1, -0.011, 0.003, 0.298, -233.896, 148.907)" xlink:href="#linear-gradient"/><radialGradient id="radial-gradient-6" cx="385.274" cy="-283.19" r="16.442" gradientTransform="matrix(1, -0.011, 0.003, 0.298, -244.868, 142.281)" xlink:href="#linear-gradient"/><radialGradient id="radial-gradient-7" cx="390.776" cy="-292.719" r="16.442" gradientTransform="translate(-255.84 135.655) rotate(-0.613) scale(1 0.299)" xlink:href="#linear-gradient"/><radialGradient id="radial-gradient-8" cx="396.277" cy="-302.248" r="16.442" gradientTransform="matrix(1, -0.011, 0.003, 0.298, -266.812, 129.03)" xlink:href="#linear-gradient"/></defs><title>RET</title><path class="cls-1" d="M75.153,34.146a4.072,4.072,0,0,0-5.564,1.491L43.611,80.631c-.042.074-.065.152-.1.227a3.448,3.448,0,0,0-.3.788c-.028.109-.056.218-.075.331a4.011,4.011,0,0,0-.051.5c0,.063-.019.121-.019.185v89.8a4.074,4.074,0,1,0,8.147,0V83.753L76.644,39.71A4.073,4.073,0,0,0,75.153,34.146Z" transform="translate(-34.937 -26.17)"/><ellipse class="cls-2" cx="57.864" cy="64.248" rx="5.501" ry="16.414" transform="translate(-61.645 56.066) rotate(-60)"/><ellipse class="cls-3" cx="63.366" cy="54.719" rx="5.501" ry="16.414" transform="translate(-50.642 56.066) rotate(-60)"/><ellipse class="cls-4" cx="68.867" cy="45.19" rx="5.501" ry="16.414" transform="translate(-39.639 56.066) rotate(-60)"/><ellipse class="cls-5" cx="74.369" cy="35.662" rx="5.501" ry="16.414" transform="translate(-28.636 56.066) rotate(-60)"/><rect class="cls-6" y="50.354" width="24.441" height="12.221" rx="3.094" ry="3.094"/><path class="cls-7" d="M126.622,34.146a4.072,4.072,0,0,1,5.564,1.491l25.977,44.994c.042.074.065.152.1.227a3.448,3.448,0,0,1,.3.788c.028.109.056.218.075.331a4.011,4.011,0,0,1,.051.5c0,.063.019.121.019.185v89.8a4.074,4.074,0,1,1-8.147,0V83.753L125.131,39.71A4.073,4.073,0,0,1,126.622,34.146Z" transform="translate(-34.937 -26.17)"/><rect class="cls-8" x="142.397" y="76.524" width="24.441" height="12.221" rx="3.094" ry="3.094" transform="translate(274.298 139.099) rotate(180)"/><ellipse class="cls-9" cx="144.226" cy="64.248" rx="16.414" ry="5.501" transform="translate(-47.738 54.55) rotate(-30)"/><ellipse class="cls-10" cx="138.724" cy="54.719" rx="16.414" ry="5.501" transform="translate(-43.711 50.523) rotate(-30)"/><ellipse class="cls-11" cx="133.223" cy="45.19" rx="16.414" ry="5.501" transform="translate(-39.684 46.495) rotate(-30)"/><ellipse class="cls-12" cx="127.721" cy="35.662" rx="16.414" ry="5.501" transform="translate(-35.656 42.468) rotate(-30)"/></svg>