<svg id="Layer_1" data-name="Layer 1" xmlns="http://www.w3.org/2000/svg" xmlns:xlink="http://www.w3.org/1999/xlink" viewBox="0 0 57.321 22.907"><defs><style>.cls-1{fill:url(#linear-gradient);}.cls-2{fill:#9ba138;}.cls-3{font-size:12px;fill:#fff;font-family:Arial-BoldMT, Arial;font-weight:700;}</style><linearGradient id="linear-gradient" x1="28.909" y1="1.3" x2="28.909" y2="21.3" gradientUnits="userSpaceOnUse"><stop offset="0" stop-color="#ba6e1c"/><stop offset="1" stop-color="#9ba138"/></linearGradient></defs><title>IGF2BP1</title><g id="IGF2BP1"><rect class="cls-1" x="1.409" y="1.3" width="55" height="20" rx="9.91" ry="9.91"/><path class="cls-2" d="M117.59,110.15c-5.539-.009-11.078.43-16.616.837-5.539.458-11.078.546-16.616.613-.7.013-1.364.008-2.1,0a11.97,11.97,0,0,1-2.392-.291,11.052,11.052,0,0,1-4.322-2.046,11.312,11.312,0,0,1-4.412-8.162,11.087,11.087,0,0,1,3.026-8.6,10.8,10.8,0,0,1,8.252-3.321c5.539.282,11.078.437,16.616.335,5.539-.084,11.078-.574,16.616-.762l2.094-.051a10.263,10.263,0,0,1,2.337.25,10.671,10.671,0,0,1,4.238,1.979,10.53,10.53,0,0,1,4.095,8.013,10.864,10.864,0,0,1-.767,4.39,10.95,10.95,0,0,1-10.05,6.817Zm0-.3A9.092,9.092,0,0,0,126.5,99.113a9.448,9.448,0,0,0-7.022-7.557,11.1,11.1,0,0,0-1.778-.243l-2.06-.064c-5.539-.188-11.078-.678-16.616-.762-5.539-.1-11.078.053-16.616.335a9.035,9.035,0,0,0-6.462,3.288,8.814,8.814,0,0,0-1.992,6.737,8.477,8.477,0,0,0,3.47,5.908A8.42,8.42,0,0,0,82.3,108.39l2.056.01c5.539.066,11.078.155,16.616.613C106.512,109.42,112.051,109.859,117.59,109.85Z" transform="translate(-71.091 -88.7)"/><text class="cls-3" transform="translate(3.902 14.613)">IGF2BP1</text></g></svg>