<svg id="Layer_1" data-name="Layer 1" xmlns="http://www.w3.org/2000/svg" xmlns:xlink="http://www.w3.org/1999/xlink" viewBox="0 0 74.041 22.949"><defs><style>.cls-1{fill:url(#linear-gradient);}.cls-2{fill:url(#linear-gradient-2);}.cls-3{font-size:12px;fill:#fff;font-family:Arial-BoldMT, Arial;font-weight:700;}.cls-4{letter-spacing:-0.037em;}.cls-5{letter-spacing:-0.018em;}</style><linearGradient id="linear-gradient" x1="37.337" y1="21.375" x2="37.337" y2="1.441" gradientUnits="userSpaceOnUse"><stop offset="0" stop-color="#042224"/><stop offset="1" stop-color="#0e98a2"/></linearGradient><linearGradient id="linear-gradient-2" x1="97.332" y1="109.532" x2="97.332" y2="86.532" gradientUnits="userSpaceOnUse"><stop offset="0" stop-color="#a2317b"/><stop offset="1" stop-color="#b78520"/></linearGradient></defs><title>RNA_POL_II</title><g id="RNA_POL_II"><rect class="cls-1" x="1.337" y="1.347" width="72" height="20" rx="8" ry="8"/><path class="cls-2" d="M125.647,108.182c-7.093-.009-14.185.43-21.278.837-7.093.458-14.185.547-21.278.613-3.546,0-7.093.019-10.639-.037l-2.66-.038a10.188,10.188,0,0,1-3.08-.51,9.616,9.616,0,0,1-4.873-3.776,9.558,9.558,0,0,1-1.5-4.384l-.026-.777.013-.676.067-2.66.017-.665.05-.754a8.3,8.3,0,0,1,.273-1.505,8.971,8.971,0,0,1,8.918-6.641c7.092.261,14.185.449,21.278.335,3.546-.049,7.093-.194,10.639-.349l10.639-.413c3.546-.085,7.093-.131,10.639-.07l2.66.039a9.9,9.9,0,0,1,2.988.547,8.942,8.942,0,0,1,4.576,3.757,9.085,9.085,0,0,1,1.239,5.574l-.149,2.66a10.62,10.62,0,0,1-.373,2.732A8.549,8.549,0,0,1,125.647,108.182Zm0-.3a7.742,7.742,0,0,0,4.8-1.73,7.47,7.47,0,0,0,2.586-4.315,9.531,9.531,0,0,0,.1-2.548l-.149-2.66a7.516,7.516,0,0,0-1.487-4.522,7.1,7.1,0,0,0-6-2.795l-2.66.039c-3.546.061-7.093.015-10.639-.071l-10.639-.413c-3.546-.155-7.093-.3-10.639-.349-7.093-.114-14.185.074-21.278.335a7.093,7.093,0,0,0-6.606,5.566,5.913,5.913,0,0,0-.144,1.116l-.01.575.017.665.067,2.66.02.654.042.552a6.6,6.6,0,0,0,4.606,5.581,7.13,7.13,0,0,0,2.155.286l2.66-.038c3.546-.056,7.093-.036,10.639-.037,7.093.066,14.185.155,21.278.613C111.462,107.452,118.555,107.891,125.647,107.882Z" transform="translate(-60.311 -86.685)"/><text class="cls-3" transform="translate(5.667 14.235)">RN<tspan class="cls-4" x="17.332" y="0">A</tspan><tspan x="25.553" y="0" xml:space="preserve"> PO</tspan><tspan class="cls-5" x="46.225" y="0">L</tspan><tspan x="53.338" y="0" xml:space="preserve"> II</tspan></text></g></svg>