<svg id="Layer_1" data-name="Layer 1" xmlns="http://www.w3.org/2000/svg" xmlns:xlink="http://www.w3.org/1999/xlink" viewBox="0 0 89.156 94.959"><defs><style>.cls-1{fill:url(#radial-gradient);}.cls-2{fill:#272e87;}.cls-3{fill:url(#radial-gradient-2);}.cls-4{fill:#935491;}</style><radialGradient id="radial-gradient" cx="93.824" cy="217.528" r="44.837" gradientTransform="matrix(0.901, 0.762, -0.613, 0.977, 128.189, -204.594)" gradientUnits="userSpaceOnUse"><stop offset="0.001" stop-color="#c6cce0"/><stop offset="1" stop-color="#b873bb"/></radialGradient><radialGradient id="radial-gradient-2" cx="108.156" cy="5.633" r="12.012" gradientTransform="translate(-55.422 15.184) scale(1 1.386)" gradientUnits="userSpaceOnUse"><stop offset="0.001" stop-color="#c6cce0"/><stop offset="0.05" stop-color="#c7c4d8"/><stop offset="0.22" stop-color="#c9b0c4"/><stop offset="0.411" stop-color="#caa1b5"/><stop offset="0.639" stop-color="#cb99ad"/><stop offset="1" stop-color="#cb96aa"/></radialGradient></defs><title>T_cell</title><g id="T_cell"><g id="BG"><path class="cls-1" d="M137.516,121.229c-2.738,5.231-9.323,12.1-13.348,15.858-7.152,6.7-12.39,4.809-22.092,8.19-8.367,2.91-17.179-.02-25.1-4.167-8.614-4.509-13.226-11.856-16.936-20.4a43.647,43.647,0,0,1-2.835-26.3c.9-4.848.692-10.692,3.121-15.332,3.883-7.419,10.031-13.429,16.963-14.623,4.779-.815,10.936-7.317,16.109-8.71,9.966-2.682,18.784-4.875,27.375,1.656,4.444,3.383,10.6,4.844,14.247,9.956a53.618,53.618,0,0,1,8.5,20.291c.816,4.929-1.373,11.441-2.164,16.585C140.537,109.594,140.194,116.111,137.516,121.229Z" transform="translate(-55.422 -52.521)"/><path id="MEMBRANE" class="cls-2" d="M137.917,121.439c.2-.377.364-.771.541-1.159l.02-.038c.02-.038.036-.093.056-.131.062-.144.128-.27.18-.419a32.088,32.088,0,0,0,2.13-6.751c.529-2.463.829-4.917,1.206-7.315.333-2.389.86-4.724,1.409-7.176a46.631,46.631,0,0,0,1.1-7.448,17.6,17.6,0,0,0-.235-3.76,32.163,32.163,0,0,0-.83-3.4,45.212,45.212,0,0,0-2.328-6.073,53.806,53.806,0,0,0-5.755-10.8c-.042-.07-.108-.12-.15-.19a16.325,16.325,0,0,0-3.579-3.908c-2.8-2.236-6.049-3.6-8.879-5.432a49.77,49.77,0,0,0-4.4-2.834,18.765,18.765,0,0,0-5.072-1.757,19.693,19.693,0,0,0-4.962-.29,42.093,42.093,0,0,0-10.456,1.464c-1.363.2-2.722.466-4.073.768a15.316,15.316,0,0,0-4.374,1.668c-1.394.76-2.708,1.642-4.005,2.517-1.283.9-2.553,1.772-3.817,2.584A16.746,16.746,0,0,1,77.823,63.5l-.484.147-.542.133c-.365.1-.737.207-1.1.34A18.034,18.034,0,0,0,73.67,65,27.155,27.155,0,0,0,62.2,75.1a40.89,40.89,0,0,0-2.43,3.791,20.129,20.129,0,0,0-1.8,4.9c-.8,3.33-.95,6.6-1.487,9.731a52.437,52.437,0,0,0-1.054,9.829,42.55,42.55,0,0,0,1.072,9.5,43.754,43.754,0,0,0,3,8.571,55,55,0,0,0,4.005,7.254,33.719,33.719,0,0,0,12.372,12.435l.031.016a52.3,52.3,0,0,0,7.751,3.929,33.557,33.557,0,0,0,8.538,2.274,22.992,22.992,0,0,0,9.308-.8c.812-.248,1.515-.489,2.245-.732.734-.225,1.478-.444,2.209-.638,1.479-.4,2.969-.689,4.474-1.007,2.984-.617,6.163-1.18,9.194-2.862a20.173,20.173,0,0,0,4.214-3.065c1.228-1.119,2.333-2.3,3.455-3.494C130.513,131.453,135.528,126,137.917,121.439Zm-18.774,18.385a31.518,31.518,0,0,1-8.774,2.36c-1.515.264-3.04.572-4.576.953-.768.191-1.54.412-2.3.638-.757.244-1.548.5-2.242.7a21.912,21.912,0,0,1-8.648.841,36.184,36.184,0,0,1-8.33-1.845,68.231,68.231,0,0,1-7.557-3.122,32.847,32.847,0,0,1-12.359-12.235,80.272,80.272,0,0,1-3.541-7.588,45.367,45.367,0,0,1-3.522-17.495,53.573,53.573,0,0,1,.928-9.463c.453-3.32.568-6.495,1.153-9.617A18.719,18.719,0,0,1,60.8,79.457a36.032,36.032,0,0,1,2.339-4.143A25.7,25.7,0,0,1,73.94,65.991a14.6,14.6,0,0,1,1.854-.487l1.02-.171c.322-.04.695-.1,1.092-.182,3.122-.7,5.76-2.688,8.332-4.37,1.276-.886,2.547-1.759,3.822-2.517a17.3,17.3,0,0,1,3.892-1.824l4.141-1.373a41.571,41.571,0,0,1,9.736-1.392,24.186,24.186,0,0,1,4.975.841,21.177,21.177,0,0,1,4.61,1.964c1.479.806,2.735,1.864,4.259,2.886,3.018,1.9,6.232,3.149,9.071,4.988a18.22,18.22,0,0,1,3.744,3.193c.042.07.107.12.149.19a51.75,51.75,0,0,1,5.632,10.557,64.923,64.923,0,0,1,1.8,6.26c.247,1.106.456,2.209.622,3.321a14.818,14.818,0,0,1,.075,3.339A49.333,49.333,0,0,1,141.6,98.3c-.5,2.382-1.054,4.9-1.345,7.354s-.542,4.843-.874,7.232a32.679,32.679,0,0,1-1.68,6.842c-.186.431-.379.875-.6,1.29-2.027,3.873-6.317,8.837-10.39,12.937C124.3,136.241,121.878,138.532,119.143,139.824Z" transform="translate(-55.422 -52.521)"/></g><g id="Nucleus"><circle id="NUCLEUS-2" data-name="NUCLEUS" class="cls-3" cx="56.696" cy="25.915" r="12.131"/><path class="cls-4" d="M112.118,90.964a12.529,12.529,0,1,1,12.529-12.529A12.54,12.54,0,0,1,112.118,90.964Zm0-24.276a11.746,11.746,0,1,0,11.746,11.746A11.76,11.76,0,0,0,112.118,66.688Z" transform="translate(-55.422 -52.521)"/></g></g></svg>