<svg id="Layer_1" data-name="Layer 1" xmlns="http://www.w3.org/2000/svg" xmlns:xlink="http://www.w3.org/1999/xlink" viewBox="0 0 67.107 22.945"><defs><style>.cls-1{fill:url(#linear-gradient);}.cls-2{fill:#ff9914;}.cls-3{font-size:12px;fill:#fff;font-family:Arial-BoldMT, Arial;font-weight:700;}</style><linearGradient id="linear-gradient" x1="33.852" y1="21.345" x2="33.852" y2="1.345" gradientUnits="userSpaceOnUse"><stop offset="0" stop-color="#ff9914"/><stop offset="1" stop-color="#17bae2"/></linearGradient></defs><title>G-alpha-12</title><g id="G-alpha-12"><rect class="cls-1" x="1.352" y="1.345" width="65" height="20" rx="10" ry="10"/><path class="cls-2" d="M122.5,110.15c-6.366-.009-12.731.43-19.1.837-6.366.458-12.731.546-19.1.613H79.532c-.821-.01-1.535.016-2.443-.024a8.108,8.108,0,0,1-1.375-.145,9.645,9.645,0,0,1-1.346-.312,11.545,11.545,0,0,1-7.609-7.311,11.076,11.076,0,0,1,1.618-10.256A10.913,10.913,0,0,1,77.5,89.179c6.366.261,12.731.449,19.1.335,3.183-.049,6.366-.194,9.548-.349l9.548-.413c1.591-.033,3.183-.093,4.774-.087.817,0,1.544-.027,2.435.007a7.483,7.483,0,0,1,1.346.139,9.408,9.408,0,0,1,1.318.306,10.71,10.71,0,0,1,5.4,16.866A10.82,10.82,0,0,1,122.5,110.15Zm0-.3a9.8,9.8,0,0,0,4.5-1.164,9.359,9.359,0,0,0,3.343-3.15,9.185,9.185,0,0,0,.687-8.554,9.464,9.464,0,0,0-6.179-5.328,8.938,8.938,0,0,0-2.04-.289c-.7-.038-1.565-.017-2.339-.029-1.591.006-3.183-.055-4.774-.087l-9.548-.413c-3.183-.155-6.366-.3-9.548-.349-6.366-.114-12.731.074-19.1.335a9.252,9.252,0,0,0-4.118,1.218,9.525,9.525,0,0,0-3.064,2.891,8.793,8.793,0,0,0-.9,7.93,8.57,8.57,0,0,0,5.8,5.251,8.407,8.407,0,0,0,1.982.277c.682.033,1.56.006,2.33.012h4.774c6.366.066,12.731.155,19.1.613C109.769,109.42,116.134,109.859,122.5,109.85Z" transform="translate(-66.148 -88.655)"/><text class="cls-3" transform="translate(2.844 14.658)">G-alpha-12</text></g></svg>