<svg id="Layer_1" data-name="Layer 1" xmlns="http://www.w3.org/2000/svg" xmlns:xlink="http://www.w3.org/1999/xlink" viewBox="0 0 43.293 56.322"><defs><style>.cls-1{fill:url(#linear-gradient);}.cls-2{fill:#84840f;}</style><linearGradient id="linear-gradient" x1="271.754" y1="652.365" x2="271.754" y2="602.424" gradientTransform="matrix(-1, -0.004, 0.004, -1, 369.581, 728.425)" gradientUnits="userSpaceOnUse"><stop offset="0" stop-color="#d2d1b5"/><stop offset="0.083" stop-color="#ddc387"/><stop offset="0.183" stop-color="#e9b457"/><stop offset="0.277" stop-color="#f3a931"/><stop offset="0.364" stop-color="#f9a116"/><stop offset="0.441" stop-color="#fe9c06"/><stop offset="0.5" stop-color="#ff9a00"/><stop offset="0.559" stop-color="#fe9c06"/><stop offset="0.636" stop-color="#f9a116"/><stop offset="0.723" stop-color="#f3a931"/><stop offset="0.817" stop-color="#e9b457"/><stop offset="0.917" stop-color="#ddc387"/><stop offset="1" stop-color="#d2d1b5"/></linearGradient></defs><title>R-ICO-013764</title><g id="R-ICO-013764"><path class="cls-1" d="M100.036,125.011c-6.78-.025-19.286,3.15-19.286,3.15,14.425.053,14.528-28.09,14.528-28.09s.1-28.147-14.32-28.2c0,0,12.3,3.244,19.041,3.269,6.745-.034,19.037-3.3,19.037-3.3-14.424.075-14.279,28.222-14.279,28.222s.146,28.143,14.57,28.069C119.327,128.133,106.816,124.976,100.036,125.011Z" transform="translate(-78.354 -71.839)"/><path class="cls-2" d="M108.045,100.043c.113,21.862,9.845,18.967,11.233,18.96s2.326,1.478,2.345,5.007c.014,2.819-.486,4.11-2.3,4.119-14.424.075-14.569-28.069-14.569-28.069s-.146-28.147,14.279-28.221c1.809-.009,2.6,1.341,2.611,4.09s-1.176,5.032-2.564,5.039S107.932,78.182,108.045,100.043Z" transform="translate(-78.354 -71.839)"/><path class="cls-2" d="M91.991,100.055c-.081,21.862-9.817,18.982-11.206,18.976s-2.324,1.482-2.337,5.011c-.01,2.818.492,4.109,2.3,4.116,14.424.053,14.528-28.091,14.528-28.091s.1-28.147-14.321-28.2c-1.81-.007-2.595,1.345-2.605,4.094s1.183,5.03,2.572,5.036S92.071,78.194,91.991,100.055Z" transform="translate(-78.354 -71.839)"/></g></svg>