<svg id="Layer_1" data-name="Layer 1" xmlns="http://www.w3.org/2000/svg" xmlns:xlink="http://www.w3.org/1999/xlink" viewBox="0 0 49.312 19.836"><defs><style>.cls-1{fill:url(#linear-gradient);}.cls-2{fill:#f0a551;}.cls-3{font-size:12px;fill:#fff;font-family:Arial-BoldMT, Arial;font-weight:700;}</style><linearGradient id="linear-gradient" x1="24.902" y1="18.229" x2="24.902" y2="1.306" gradientUnits="userSpaceOnUse"><stop offset="0" stop-color="#ac2106"/><stop offset="1" stop-color="#f0a551"/></linearGradient></defs><title>TGFB1</title><g id="TGFB1"><rect class="cls-1" x="1.402" y="1.306" width="47" height="16.923" rx="8.462" ry="8.462"/><path class="cls-2" d="M115.038,108.612c-4.72-.009-9.439.43-14.159.837-4.72.458-9.439.546-14.159.613-.591.015-1.178,0-1.772,0l-1.051-.06c-.347-.055-.7-.1-1.04-.17a9.592,9.592,0,0,1-3.791-1.743,9.934,9.934,0,0,1-3.931-7.066,9.561,9.561,0,0,1,2.66-7.482,9.35,9.35,0,0,1,7.166-2.826c4.72.282,9.439.437,14.159.335,4.72-.084,9.439-.574,14.159-.762l1.772-.057c.34.009.682.005,1.022.032.338.051.678.091,1.013.158a9.085,9.085,0,0,1,4.509,15.486A9.445,9.445,0,0,1,115.038,108.612Zm0-.3a7.618,7.618,0,0,0,7.465-9.091,7.951,7.951,0,0,0-3.28-4.974,7.8,7.8,0,0,0-2.7-1.212c-.242-.051-.489-.08-.733-.125l-.745-.065-1.768-.058c-4.72-.188-9.439-.678-14.159-.762-4.72-.1-9.439.053-14.159.335a7.58,7.58,0,0,0-5.378,2.8,7.3,7.3,0,0,0-1.627,5.575,7.1,7.1,0,0,0,2.961,4.83,7.374,7.374,0,0,0,2.613,1.146l.707.112.716.037c.586,0,1.179-.011,1.768,0,4.72.066,9.439.155,14.159.613C105.6,107.882,110.319,108.32,115.038,108.312Z" transform="translate(-75.098 -90.233)"/><text class="cls-3" transform="translate(5.351 12.652)">TGFB1</text></g></svg>