<svg id="Layer_1" data-name="Layer 1" xmlns="http://www.w3.org/2000/svg" xmlns:xlink="http://www.w3.org/1999/xlink" viewBox="0 0 46.927 32.261"><defs><style>.cls-1{fill:url(#linear-gradient);}.cls-2{fill:#52c477;}.cls-3{font-size:12px;fill:#fff;font-family:Arial-BoldMT, Arial;font-weight:700;}</style><linearGradient id="linear-gradient" x1="23.584" y1="30.834" x2="23.584" y2="0.834" gradientUnits="userSpaceOnUse"><stop offset="0" stop-color="#1f2b53"/><stop offset="1" stop-color="#52c477"/></linearGradient></defs><title>RXR-alpha</title><g id="RXR-alpha"><rect class="cls-1" x="1.584" y="0.834" width="44" height="30" rx="10" ry="10"/><path class="cls-2" d="M112,113.182c-5.449-.009-10.9.43-16.347.837-1.362.1-2.724.214-4.087.276l-2.043.111-1.022.035-.512.017-.584-.011a11.357,11.357,0,0,1-8.259-3.947,11.218,11.218,0,0,1-2.249-4.134,12.34,12.34,0,0,1-.441-2.327c-.02-.384-.044-.813-.039-1.159l.017-1.022.149-8.174a15.2,15.2,0,0,1,.164-2.229,10.064,10.064,0,0,1,.6-2.238A10.926,10.926,0,0,1,88,82.211c5.449.282,10.9.437,16.347.335l4.087-.129c1.381-.056,2.682-.156,4.129-.185a10.808,10.808,0,0,1,8.023,3.558,10.506,10.506,0,0,1,2.265,3.984,12.085,12.085,0,0,1,.447,2.272c.022.377.047.792.044,1.138l-.013,1.022c-.043,2.724-.195,5.449-.374,8.174a14.39,14.39,0,0,1-.264,2.15,9.868,9.868,0,0,1-.671,2.089,11.093,11.093,0,0,1-2.457,3.5A10.977,10.977,0,0,1,112,113.182Zm0-.3a9.127,9.127,0,0,0,8.784-6.709,8.251,8.251,0,0,0,.308-1.868,14.041,14.041,0,0,0-.048-1.926c-.18-2.725-.331-5.449-.374-8.174l-.013-1.022-.044-.9a9.425,9.425,0,0,0-.319-1.734,9.364,9.364,0,0,0-7.817-6.661c-2.637-.214-5.425-.3-8.13-.367-5.449-.1-10.9.053-16.347.335a9.186,9.186,0,0,0-8.153,6.266,8.089,8.089,0,0,0-.377,1.719,12.327,12.327,0,0,0-.052,1.847l.149,8.174.017,1.022.049.882a9.168,9.168,0,0,0,.325,1.679,8.474,8.474,0,0,0,1.631,2.994,8.7,8.7,0,0,0,5.966,3.128l.436.041.509.018,1.022.035,2.043.111c1.362.063,2.724.18,4.087.276C101.1,112.452,106.551,112.891,112,112.882Z" transform="translate(-76.415 -82.198)"/><text class="cls-3" transform="translate(10.916 11.523)">RXR<tspan x="-3.003" y="14.4">alpha</tspan></text></g></svg>