<svg id="Layer_1" data-name="Layer 1" xmlns="http://www.w3.org/2000/svg" xmlns:xlink="http://www.w3.org/1999/xlink" viewBox="0 0 59.244 24.232"><defs><style>.cls-1{stroke:#73babf;fill:url(#linear-gradient);}.cls-1,.cls-3,.cls-5{stroke-linecap:round;stroke-linejoin:round;stroke-width:2px;}.cls-2,.cls-4{isolation:isolate;font-size:12px;fill:#fff;font-family:Arial-BoldMT, Arial;font-weight:700;}.cls-2{letter-spacing:-0.037em;}.cls-3{stroke:#a2bf73;fill:url(#linear-gradient-2);}.cls-5{stroke:#bf728e;fill:url(#linear-gradient-3);}</style><linearGradient id="linear-gradient" x1="-365.192" y1="105.444" x2="-342.96" y2="105.444" gradientTransform="translate(-94.904 -341.96) rotate(-90)" gradientUnits="userSpaceOnUse"><stop offset="0" stop-color="#041330"/><stop offset="1" stop-color="#73babf"/></linearGradient><linearGradient id="linear-gradient-2" x1="-365.192" y1="124.525" x2="-342.96" y2="124.525" gradientTransform="translate(-94.904 -341.96) rotate(-90)" gradientUnits="userSpaceOnUse"><stop offset="0" stop-color="#1f3004"/><stop offset="1" stop-color="#a2bf73"/></linearGradient><linearGradient id="linear-gradient-3" x1="-365.192" y1="143.607" x2="-342.96" y2="143.607" gradientTransform="translate(-94.904 -341.96) rotate(-90)" gradientUnits="userSpaceOnUse"><stop offset="0" stop-color="#300414"/><stop offset="1" stop-color="#bf728e"/></linearGradient></defs><title>AUG start codon</title><g id="AUG_codon" data-name="AUG codon"><g id="A"><polygon class="cls-1" points="1 6.218 1 18.025 10.555 23.232 20.081 18.025 20.081 6.218 10.577 1 1 6.218"/><text class="cls-2" transform="translate(6.079 16.252)">A</text></g><g id="U"><polygon class="cls-3" points="20.081 6.218 20.081 18.025 29.637 23.232 39.163 18.025 39.163 6.218 29.658 1 20.081 6.218"/><text class="cls-4" transform="translate(24.938 16.252)">U</text></g><g id="G"><polygon class="cls-5" points="39.163 6.218 39.163 18.025 48.718 23.232 58.244 18.025 58.244 6.218 48.739 1 39.163 6.218"/><text class="cls-4" transform="translate(43.685 16.252)">G</text></g></g></svg>