<svg id="Layer_1" data-name="Layer 1" xmlns="http://www.w3.org/2000/svg" xmlns:xlink="http://www.w3.org/1999/xlink" viewBox="0 0 114.012 32.949"><defs><style>.cls-1{fill:url(#linear-gradient);}.cls-2{fill:#0052af;}.cls-3{font-size:12px;fill:#fff;font-family:Arial-BoldMT, Arial;font-weight:700;}.cls-4{letter-spacing:-0.018em;}.cls-5{letter-spacing:-0.02em;}</style><linearGradient id="linear-gradient" x1="57.329" y1="31.347" x2="57.329" y2="1.347" gradientUnits="userSpaceOnUse"><stop offset="0" stop-color="#06a2b2"/><stop offset="1" stop-color="#ad342d"/></linearGradient></defs><title>R-ICO-013626</title><g id="MITOCHONDRIAL_FISSION_PROTEIN" data-name="MITOCHONDRIAL FISSION PROTEIN"><rect class="cls-1" x="1.329" y="1.347" width="112" height="30" rx="10" ry="10"/><path class="cls-2" d="M146,115.15c-11.116-.011-22.231.447-33.347.837-11.116.458-22.231.546-33.347.613-5.558,0-11.116.019-16.673-.037l-8.337-.076a11.9,11.9,0,0,1-4.622-.9A11.309,11.309,0,0,1,45.79,112.9a11.485,11.485,0,0,1-2.464-4.014,7.863,7.863,0,0,1-.339-1.135,8.265,8.265,0,0,1-.218-1.164,14.2,14.2,0,0,1-.093-2.268l.133-8.337.02-1.049c.027-.387.041-.776.085-1.16a11.779,11.779,0,0,1,.532-2.258,11.1,11.1,0,0,1,2.4-3.9A10.93,10.93,0,0,1,54,84.179c11.116.261,22.231.449,33.347.335,5.558-.049,11.116-.194,16.673-.349l16.673-.413c5.558-.085,11.116-.131,16.673-.071q4.168.022,8.337.128a10.968,10.968,0,0,1,10.432,7.5,11.712,11.712,0,0,1,.526,4.37l-.27,8.337a12.528,12.528,0,0,1-.637,4.2A10.468,10.468,0,0,1,146,115.15Zm0-.3a9.718,9.718,0,0,0,9.608-10.83l-.27-8.337a10.081,10.081,0,0,0-.705-3.819,9.121,9.121,0,0,0-8.928-5.674q-4.168.108-8.337.128c-5.558.061-11.116.015-16.673-.071l-16.673-.413c-5.558-.155-11.116-.3-16.673-.349-11.116-.114-22.231.074-33.347.335a9.093,9.093,0,0,0-8.421,6.4,9.513,9.513,0,0,0-.365,1.8c-.025.306-.022.614-.038.92l.014,1.035.133,8.337a12.464,12.464,0,0,0,.127,1.889,5.78,5.78,0,0,0,.182.879,5.427,5.427,0,0,0,.273.854,8.7,8.7,0,0,0,1.919,3,8.571,8.571,0,0,0,6.472,2.572l8.337-.076c5.558-.056,11.116-.036,16.673-.037,11.116.066,22.231.155,33.347.613C123.769,114.4,134.884,114.861,146,114.85Z" transform="translate(-42.671 -83.653)"/><text class="cls-3" transform="translate(5.96 11.832)">MI<tspan class="cls-4" x="13.33" y="0">T</tspan><tspan x="20.443" y="0">OCHONDRIA</tspan><tspan class="cls-4" x="94.441" y="0">L</tspan><tspan x="-1.441" y="14.4">FISSION PROTEI</tspan><tspan class="cls-5" x="94.57" y="14.4">N</tspan></text></g></svg>