<svg id="Layer_1" data-name="Layer 1" xmlns="http://www.w3.org/2000/svg" xmlns:xlink="http://www.w3.org/1999/xlink" viewBox="0 0 104.105 32.949"><defs><style>.cls-1{fill:url(#linear-gradient);}.cls-2{fill:#002c47;}.cls-3{font-size:12px;fill:#fff;font-family:Arial-BoldMT, Arial;font-weight:700;}.cls-4{letter-spacing:-0.037em;}.cls-5{letter-spacing:-0.092em;}</style><linearGradient id="linear-gradient" x1="52.357" y1="31.347" x2="52.357" y2="1.347" gradientUnits="userSpaceOnUse"><stop offset="0" stop-color="#1c89d1"/><stop offset="1" stop-color="#002c4a"/></linearGradient></defs><title>DNA_GLYCOSYLASE</title><g id="DNA_GLYCOSYLASE"><rect class="cls-1" x="1.357" y="1.347" width="102" height="30" rx="10" ry="10"/><path class="cls-2" d="M141,115.15c-10.282-.009-20.565.43-30.847.837-10.282.458-20.565.546-30.847.613-5.141,0-10.282.019-15.423-.037l-3.856-.038-.964-.01-1.1-.061a12.151,12.151,0,0,1-2.173-.433,11.534,11.534,0,0,1-6.7-5.4,11.279,11.279,0,0,1-1.355-4.152,33.977,33.977,0,0,1-.056-4.029l.147-7.744A10.985,10.985,0,0,1,59,84.179c10.282.261,20.565.449,30.847.335,5.141-.049,10.282-.194,15.423-.349l15.423-.413c5.141-.085,10.282-.131,15.423-.071l3.856.039.964.022,1.074.073a11.867,11.867,0,0,1,2.114.449,10.941,10.941,0,0,1,6.38,5.347,10.752,10.752,0,0,1,1.2,3.993,35.607,35.607,0,0,1-.043,3.955l-.286,7.722a10.424,10.424,0,0,1-3.265,7.02A10.271,10.271,0,0,1,141,115.15Zm0-.3a9.763,9.763,0,0,0,6.819-2.844,9.493,9.493,0,0,0,2.782-6.747c-.048-2.549-.161-5.135-.258-7.7a37.341,37.341,0,0,0-.231-3.748,9.008,9.008,0,0,0-1.243-3.268,9.229,9.229,0,0,0-5.413-3.994,9.451,9.451,0,0,0-1.667-.272l-.852-.018-.964.022-3.856.039c-5.141.061-10.282.015-15.423-.071l-15.423-.413c-5.141-.155-10.282-.3-15.423-.349-10.282-.114-20.565.074-30.847.335a9.065,9.065,0,0,0-8.8,8.941l.12,7.679c.041,1.265-.009,2.651.132,3.673a8.492,8.492,0,0,0,1.083,3.109,8.636,8.636,0,0,0,5.089,3.942,9.175,9.175,0,0,0,1.608.288l.827.03.964-.01,3.856-.038c5.141-.056,10.282-.036,15.423-.037,10.282.066,20.565.155,30.847.613C120.435,114.42,130.718,114.859,141,114.85Z" transform="translate(-47.643 -83.653)"/><text class="cls-3" transform="translate(38.989 11.832)">DN<tspan class="cls-4" x="17.332" y="0">A</tspan><tspan x="-32.013" y="14.4">G</tspan><tspan class="cls-5" x="-22.679" y="14.4">L</tspan><tspan x="-16.45" y="14.4">YCOSYLASE</tspan></text></g></svg>