<svg id="Layer_1" data-name="Layer 1" xmlns="http://www.w3.org/2000/svg" xmlns:xlink="http://www.w3.org/1999/xlink" viewBox="0 0 160.846 20.278"><defs><style>.cls-1{fill:url(#radial-gradient);}.cls-2{fill:url(#radial-gradient-2);}.cls-3{fill:url(#radial-gradient-3);}.cls-4{fill:url(#radial-gradient-4);}.cls-5{fill:url(#radial-gradient-5);}.cls-6{fill:url(#radial-gradient-6);}.cls-7{fill:url(#radial-gradient-7);}.cls-8{fill:url(#radial-gradient-8);}.cls-9{fill:url(#radial-gradient-9);}.cls-10{fill:url(#radial-gradient-10);}.cls-11{fill:url(#radial-gradient-11);}.cls-12{fill:url(#radial-gradient-12);}.cls-13{fill:url(#radial-gradient-13);}.cls-14{fill:url(#radial-gradient-14);}.cls-15{fill:url(#radial-gradient-15);}.cls-16{fill:url(#radial-gradient-16);}.cls-17{fill:url(#radial-gradient-17);}.cls-18{fill:url(#radial-gradient-18);}.cls-19{fill:url(#radial-gradient-19);}.cls-20{fill:url(#radial-gradient-20);}.cls-21{fill:url(#radial-gradient-21);}.cls-22{fill:url(#radial-gradient-22);}.cls-23{fill:url(#radial-gradient-23);}.cls-24{fill:url(#radial-gradient-24);}.cls-25{fill:url(#radial-gradient-25);}.cls-26{fill:url(#radial-gradient-26);}.cls-27{fill:url(#radial-gradient-27);}.cls-28{fill:url(#radial-gradient-28);}.cls-29{fill:url(#radial-gradient-29);}.cls-30{fill:url(#radial-gradient-30);}.cls-31{fill:url(#radial-gradient-31);}.cls-32{fill:url(#radial-gradient-32);}.cls-33{fill:url(#radial-gradient-33);}.cls-34{fill:url(#radial-gradient-34);}.cls-35{fill:url(#radial-gradient-35);}.cls-36{fill:url(#radial-gradient-36);}.cls-37{fill:url(#radial-gradient-37);}.cls-38{fill:url(#radial-gradient-38);}.cls-39{fill:url(#radial-gradient-39);}.cls-40{fill:url(#radial-gradient-40);}.cls-41{fill:url(#radial-gradient-41);}.cls-42{fill:url(#radial-gradient-42);}.cls-43{fill:url(#radial-gradient-43);}.cls-44{fill:url(#radial-gradient-44);}.cls-45{fill:url(#radial-gradient-45);}</style><radialGradient id="radial-gradient" cx="64.045" cy="102.229" r="5.321" gradientTransform="translate(-54.516 -90.426) scale(0.979 1)" gradientUnits="userSpaceOnUse"><stop offset="0" stop-color="#c677b5"/><stop offset="1" stop-color="#0e212e"/></radialGradient><radialGradient id="radial-gradient-2" cx="74.688" cy="103.025" r="5.321" xlink:href="#radial-gradient"/><radialGradient id="radial-gradient-3" cx="59.396" cy="40.933" r="5.321" gradientTransform="matrix(0.979, 0, 0, -1, -54.516, 44.742)" xlink:href="#radial-gradient"/><radialGradient id="radial-gradient-4" cx="70.148" cy="41.524" r="5.321" gradientTransform="matrix(0.979, 0, 0, -1, -54.516, 44.742)" xlink:href="#radial-gradient"/><radialGradient id="radial-gradient-5" cx="134.68" cy="33.151" r="5.321" gradientTransform="matrix(0.979, 0, 0, -1, -54.516, 44.742)" xlink:href="#radial-gradient"/><radialGradient id="radial-gradient-6" cx="-587.784" cy="100.643" r="5.321" gradientTransform="matrix(-0.979, 0, 0, 1, -508.619, -90.426)" xlink:href="#radial-gradient"/><radialGradient id="radial-gradient-7" cx="-576.996" cy="36.38" r="5.321" gradientTransform="translate(-508.619 44.742) rotate(180) scale(0.979 1)" xlink:href="#radial-gradient"/><radialGradient id="radial-gradient-8" cx="-566.425" cy="38.116" r="5.321" gradientTransform="translate(-508.619 44.742) rotate(180) scale(0.979 1)" xlink:href="#radial-gradient"/><radialGradient id="radial-gradient-9" cx="-554.986" cy="40.39" r="5.321" gradientTransform="translate(-508.619 44.742) rotate(180) scale(0.979 1)" xlink:href="#radial-gradient"/><radialGradient id="radial-gradient-10" cx="-544.85" cy="40.873" r="5.321" gradientTransform="translate(-508.619 44.742) rotate(180) scale(0.979 1)" xlink:href="#radial-gradient"/><radialGradient id="radial-gradient-11" cx="149.682" cy="94.839" r="5.321" xlink:href="#radial-gradient"/><radialGradient id="radial-gradient-12" cx="122.852" cy="121.496" r="1.619" gradientTransform="matrix(1.024, 0, 0.002, 1.007, -12.569, -21.389)" xlink:href="#radial-gradient"/><radialGradient id="radial-gradient-13" cx="160.325" cy="95.375" r="5.321" xlink:href="#radial-gradient"/><radialGradient id="radial-gradient-14" cx="170.968" cy="97.569" r="5.321" xlink:href="#radial-gradient"/><radialGradient id="radial-gradient-15" cx="181.61" cy="99.097" r="5.321" xlink:href="#radial-gradient"/><radialGradient id="radial-gradient-16" cx="192.253" cy="100.482" r="5.321" xlink:href="#radial-gradient"/><radialGradient id="radial-gradient-17" cx="202.896" cy="102.229" r="5.321" xlink:href="#radial-gradient"/><radialGradient id="radial-gradient-18" cx="213.539" cy="103.754" r="5.321" xlink:href="#radial-gradient"/><radialGradient id="radial-gradient-19" cx="-548.847" cy="102.907" r="5.321" gradientTransform="matrix(-0.979, 0, 0, 1, -508.619, -90.426)" xlink:href="#radial-gradient"/><radialGradient id="radial-gradient-20" cx="114.252" cy="63.588" r="1.619" gradientTransform="matrix(0.936, -0.319, 0.332, 0.897, -76.947, 88.467)" xlink:href="#radial-gradient"/><radialGradient id="radial-gradient-21" cx="-559.707" cy="101.686" r="5.321" gradientTransform="matrix(-0.979, 0, 0, 1, -508.619, -90.426)" xlink:href="#radial-gradient"/><radialGradient id="radial-gradient-22" cx="124.604" cy="65.784" r="1.619" gradientTransform="matrix(0.936, -0.319, 0.332, 0.897, -76.947, 88.467)" xlink:href="#radial-gradient"/><radialGradient id="radial-gradient-23" cx="-570.133" cy="99.621" r="5.321" gradientTransform="matrix(-0.979, 0, 0, 1, -508.619, -90.426)" xlink:href="#radial-gradient"/><radialGradient id="radial-gradient-24" cx="117.587" cy="86.809" r="1.619" gradientTransform="matrix(0.94, -0.251, 0.23, 1.029, -58.972, 46.176)" xlink:href="#radial-gradient"/><radialGradient id="radial-gradient-25" cx="-581.536" cy="97.151" r="5.321" gradientTransform="matrix(-0.979, 0, 0, 1, -508.619, -90.426)" xlink:href="#radial-gradient"/><radialGradient id="radial-gradient-26" cx="98.173" cy="100.807" r="1.619" gradientTransform="matrix(0.995, -0.26, 0.259, 0.941, -41.909, 34.738)" xlink:href="#radial-gradient"/><radialGradient id="radial-gradient-27" cx="-591.962" cy="38.587" r="5.321" gradientTransform="translate(-508.619 44.742) rotate(180) scale(0.979 1)" xlink:href="#radial-gradient"/><radialGradient id="radial-gradient-28" cx="109.725" cy="98.787" r="1.619" gradientTransform="matrix(1.002, -0.233, 0.233, 0.947, -40.523, 34.556)" xlink:href="#radial-gradient"/><radialGradient id="radial-gradient-29" cx="138.795" cy="95.375" r="5.321" xlink:href="#radial-gradient"/><radialGradient id="radial-gradient-30" cx="121.792" cy="108.316" r="1.619" gradientTransform="matrix(0.966, -0.354, 0.348, 0.911, -51.796, 45.847)" xlink:href="#radial-gradient"/><radialGradient id="radial-gradient-31" cx="198.247" cy="40.933" r="5.321" gradientTransform="matrix(0.979, 0, 0, -1, -54.516, 44.742)" xlink:href="#radial-gradient"/><radialGradient id="radial-gradient-32" cx="208.999" cy="42.245" r="5.321" gradientTransform="matrix(0.979, 0, 0, -1, -54.516, 44.742)" xlink:href="#radial-gradient"/><radialGradient id="radial-gradient-33" cx="187.496" cy="38.225" r="5.321" gradientTransform="matrix(0.979, 0, 0, -1, -54.516, 44.742)" xlink:href="#radial-gradient"/><radialGradient id="radial-gradient-34" cx="177.07" cy="36.272" r="5.326" gradientTransform="matrix(0.979, 0, 0, -1, -54.516, 44.742)" xlink:href="#radial-gradient"/><radialGradient id="radial-gradient-35" cx="166.825" cy="34.851" r="5.321" gradientTransform="matrix(0.979, 0, 0, -1, -54.516, 44.742)" xlink:href="#radial-gradient"/><radialGradient id="radial-gradient-36" cx="155.603" cy="33.477" r="5.321" gradientTransform="matrix(0.979, 0, 0, -1, -54.516, 44.742)" xlink:href="#radial-gradient"/><radialGradient id="radial-gradient-37" cx="145.25" cy="32.226" r="5.326" gradientTransform="matrix(0.979, 0, 0, -1, -54.516, 44.742)" xlink:href="#radial-gradient"/><radialGradient id="radial-gradient-38" cx="176.354" cy="102.05" r="1.619" gradientTransform="matrix(0.94, -0.251, 0.23, 1.029, -58.972, 46.176)" xlink:href="#radial-gradient"/><radialGradient id="radial-gradient-39" cx="180.07" cy="86.338" r="1.619" gradientTransform="matrix(0.936, -0.319, 0.332, 0.897, -76.947, 88.467)" xlink:href="#radial-gradient"/><radialGradient id="radial-gradient-40" cx="144.924" cy="32.986" r="5.321" gradientTransform="matrix(0.979, 0, 0, -1, -54.516, 44.742)" xlink:href="#radial-gradient"/><radialGradient id="radial-gradient-41" cx="169.978" cy="83.3" r="1.619" gradientTransform="matrix(0.936, -0.319, 0.332, 0.897, -76.947, 88.467)" xlink:href="#radial-gradient"/><radialGradient id="radial-gradient-42" cx="152.568" cy="98.44" r="1.619" gradientTransform="matrix(1.022, -0.116, 0.123, 0.968, -27.556, 27.717)" xlink:href="#radial-gradient"/><radialGradient id="radial-gradient-43" cx="176.033" cy="110.764" r="1.619" gradientTransform="matrix(1.024, 0, 0.002, 1.007, -9.193, -11.307)" xlink:href="#radial-gradient"/><radialGradient id="radial-gradient-44" cx="174.795" cy="97.217" r="1.619" gradientTransform="matrix(1.022, -0.116, 0.123, 0.968, -29.644, 27.555)" xlink:href="#radial-gradient"/><radialGradient id="radial-gradient-45" cx="164.002" cy="98.109" r="1.619" gradientTransform="matrix(1.022, -0.116, 0.123, 0.968, -29.102, 27.683)" xlink:href="#radial-gradient"/></defs><title>actin_filament</title><g id="actin_filament"><g id="actin"><ellipse class="cls-1" cx="9.332" cy="13.432" rx="5.208" ry="5.321"/><ellipse class="cls-2" cx="19.748" cy="14.228" rx="5.208" ry="5.321"/></g><g id="actin-2" data-name="actin"><ellipse class="cls-3" cx="5.208" cy="6.633" rx="5.208" ry="5.321"/><ellipse class="cls-4" cx="15.73" cy="6.042" rx="5.208" ry="5.321"/></g><g id="actin-3" data-name="actin"><ellipse class="cls-5" cx="78.46" cy="13.763" rx="5.208" ry="5.321"/><ellipse class="cls-6" cx="68.009" cy="11.955" rx="5.208" ry="5.321"/><ellipse class="cls-7" cx="57.558" cy="10.643" rx="5.208" ry="5.321"/><ellipse class="cls-8" cx="47.107" cy="8.907" rx="5.208" ry="5.321"/><ellipse class="cls-9" cx="36.655" cy="6.633" rx="5.208" ry="5.321"/><ellipse class="cls-10" cx="26.204" cy="6.042" rx="5.208" ry="5.321"/></g><g id="actin-4" data-name="actin"><ellipse class="cls-11" cx="93.143" cy="6.042" rx="5.208" ry="5.321"/><ellipse class="cls-12" cx="113.848" cy="100.634" rx="1.826" ry="0.697" transform="translate(-39.566 -61.954) rotate(-13.121)"/><ellipse class="cls-13" cx="103.558" cy="6.578" rx="5.208" ry="5.321"/><ellipse class="cls-14" cx="113.974" cy="8.772" rx="5.208" ry="5.321"/><ellipse class="cls-15" cx="124.39" cy="10.3" rx="5.208" ry="5.321"/><ellipse class="cls-16" cx="134.806" cy="11.685" rx="5.208" ry="5.321"/><ellipse class="cls-17" cx="145.222" cy="13.432" rx="5.208" ry="5.321"/><ellipse class="cls-18" cx="155.638" cy="14.957" rx="5.208" ry="5.321"/><ellipse class="cls-19" cx="30.222" cy="14.327" rx="5.208" ry="5.321"/><path class="cls-20" d="M53,108.187c.127.343-.517.875-1.437,1.189s-1.77.29-1.9-.053.517-.875,1.437-1.189S52.872,107.843,53,108.187Z" transform="translate(-19.693 -90.426)"/><ellipse class="cls-21" cx="40.638" cy="12.997" rx="5.208" ry="5.321"/><path class="cls-22" d="M63.415,106.857c.127.343-.517.875-1.437,1.189s-1.77.29-1.9-.053.517-.875,1.437-1.189S63.288,106.514,63.415,106.857Z" transform="translate(-19.693 -90.426)"/><ellipse class="cls-23" cx="51.054" cy="11.042" rx="5.208" ry="5.321"/><path class="cls-24" d="M73.489,105.146c.088.393-.591.913-1.517,1.161s-1.747.129-1.835-.264.591-.913,1.517-1.161S73.4,104.752,73.489,105.146Z" transform="translate(-19.693 -90.426)"/><ellipse class="cls-25" cx="61.47" cy="9.005" rx="5.208" ry="5.321"/><path class="cls-26" d="M83.985,103.182c.1.36-.615.859-1.594,1.115s-1.854.173-1.953-.187.615-.859,1.594-1.115S83.886,102.823,83.985,103.182Z" transform="translate(-19.693 -90.426)"/><ellipse class="cls-27" cx="71.886" cy="7.676" rx="5.208" ry="5.321"/><path class="cls-28" d="M94.548,101.829c.089.362-.638.842-1.624,1.071s-1.858.122-1.947-.241.638-.842,1.624-1.071S94.458,101.466,94.548,101.829Z" transform="translate(-19.693 -90.426)"/><ellipse class="cls-29" cx="82.488" cy="6.578" rx="5.208" ry="5.321"/><path class="cls-30" d="M105.493,100.4c.133.348-.53.914-1.48,1.263s-1.829.349-1.962,0,.53-.914,1.48-1.263S105.36,100.056,105.493,100.4Z" transform="translate(-19.693 -90.426)"/></g><g id="actin-5" data-name="actin"><ellipse class="cls-31" cx="141.097" cy="6.633" rx="5.208" ry="5.321"/><ellipse class="cls-32" cx="151.619" cy="5.321" rx="5.208" ry="5.321"/><ellipse class="cls-33" cx="130.681" cy="8.907" rx="5.208" ry="5.321"/><ellipse class="cls-34" cx="120.266" cy="10.643" rx="5.208" ry="5.321"/><ellipse class="cls-35" cx="109.814" cy="11.955" rx="5.208" ry="5.321"/><ellipse class="cls-36" cx="99.363" cy="13.763" rx="5.208" ry="5.321"/><ellipse class="cls-37" cx="88.912" cy="14.254" rx="5.208" ry="5.321"/><path class="cls-38" d="M132.249,106.059c.088.393-.591.913-1.517,1.161s-1.747.129-1.835-.264.591-.913,1.517-1.161S132.162,105.666,132.249,106.059Z" transform="translate(-19.693 -90.426)"/><path class="cls-39" d="M122.14,107.623c.127.343-.517.875-1.437,1.189s-1.77.29-1.9-.053.517-.875,1.437-1.189S122.013,107.28,122.14,107.623Z" transform="translate(-19.693 -90.426)"/><ellipse class="cls-40" cx="88.912" cy="14.254" rx="5.208" ry="5.321"/><path class="cls-41" d="M111.689,108.114c.127.343-.517.875-1.437,1.189s-1.77.29-1.9-.053.517-.875,1.437-1.189S111.562,107.771,111.689,108.114Z" transform="translate(-19.693 -90.426)"/><path class="cls-42" d="M142.637,104.757c.047.37-.731.763-1.737.877s-1.86-.093-1.907-.463.731-.763,1.737-.877S142.59,104.387,142.637,104.757Z" transform="translate(-19.693 -90.426)"/><ellipse class="cls-43" cx="171.679" cy="99.914" rx="1.826" ry="0.697" transform="translate(-24.27 -82.11) rotate(-2.738)"/><path class="cls-44" d="M163.119,100.829c.047.37-.731.763-1.737.877s-1.86-.093-1.907-.463.731-.763,1.737-.877S163.072,100.459,163.119,100.829Z" transform="translate(-19.693 -90.426)"/><path class="cls-45" d="M152.738,103.073c.047.37-.731.763-1.737.877s-1.86-.093-1.907-.463.731-.763,1.737-.877S152.691,102.7,152.738,103.073Z" transform="translate(-19.693 -90.426)"/></g></g></svg>