<svg id="Layer_1" data-name="Layer 1" xmlns="http://www.w3.org/2000/svg" xmlns:xlink="http://www.w3.org/1999/xlink" viewBox="0 0 92.751 23.65"><defs><style>.cls-1{fill:url(#linear-gradient);}.cls-2{fill:url(#linear-gradient-2);}.cls-3{fill:url(#linear-gradient-3);}.cls-4{fill:url(#linear-gradient-4);}.cls-5{fill:url(#linear-gradient-5);}.cls-6{fill:url(#linear-gradient-6);}</style><linearGradient id="linear-gradient" x1="1110.3" y1="252.203" x2="1107.846" y2="252.02" gradientTransform="matrix(0.142, 0.99, -0.99, 0.142, 218.715, -1029.89)" gradientUnits="userSpaceOnUse"><stop offset="0" stop-color="#252613"/><stop offset="0.094" stop-color="#9ba138"/><stop offset="0.118" stop-color="#9ea33f"/><stop offset="0.152" stop-color="#a5aa51"/><stop offset="0.192" stop-color="#b1b570"/><stop offset="0.235" stop-color="#c2c49a"/><stop offset="0.273" stop-color="#d3d3c3"/><stop offset="0.31" stop-color="#d2d2c0"/><stop offset="0.336" stop-color="#cecfb7"/><stop offset="0.359" stop-color="#c8c9a8"/><stop offset="0.379" stop-color="#bfc192"/><stop offset="0.398" stop-color="#b4b776"/><stop offset="0.416" stop-color="#a6ab54"/><stop offset="0.428" stop-color="#9ba138"/><stop offset="0.542" stop-color="#777c2d"/><stop offset="0.677" stop-color="#545722"/><stop offset="0.803" stop-color="#3a3c1a"/><stop offset="0.914" stop-color="#2a2c15"/><stop offset="1" stop-color="#252613"/></linearGradient><linearGradient id="linear-gradient-2" x1="1176.32" y1="-209.088" x2="1173.804" y2="-209.275" gradientTransform="matrix(-0.142, 0.99, 0.99, 0.142, 488.911, -1029.89)" xlink:href="#linear-gradient"/><linearGradient id="linear-gradient-3" x1="1093.745" y1="-326.464" x2="1109.46" y2="-323.662" gradientTransform="translate(441.236 1196.572) rotate(-90)" xlink:href="#linear-gradient"/><linearGradient id="linear-gradient-4" x1="1110.23" y1="-316.385" x2="1093.176" y2="-317.658" gradientTransform="translate(441.236 1196.572) rotate(-90)" xlink:href="#linear-gradient"/><linearGradient id="linear-gradient-5" x1="1518.294" y1="-227.456" x2="1450.264" y2="-232.531" gradientTransform="translate(1567.64 -123.031) rotate(180)" xlink:href="#linear-gradient"/><linearGradient id="linear-gradient-6" x1="1005.524" y1="33.084" x2="1023.809" y2="36.345" gradientTransform="translate(-878.367 70.168)" xlink:href="#linear-gradient"/></defs><title>histone pre-mRNA</title><g id="histone_pre-mRNA" data-name="histone pre-mRNA"><path class="cls-1" d="M127.293,104.6c-4.022.983-1.569-1.882-1.569-1.882l.074-.1s-1.382,2.579,1.589,1.911Z" transform="translate(-53.005 -87.129)"/><path class="cls-2" d="M114.386,104.6c3.809,1.16,1.569-1.882,1.569-1.882l-.074-.1s1.382,2.579-1.589,1.911Z" transform="translate(-53.005 -87.129)"/><path class="cls-3" d="M122.134,87.129c-11.132,0-6.183,15.584-6.183,15.584l-.074-.1s-11.07-15.485,4.63-15.485Z" transform="translate(-53.005 -87.129)"/><path class="cls-4" d="M119.541,87.129c11.132,0,6.183,15.584,6.183,15.584l.074-.1s11.07-15.485-4.63-15.485Z" transform="translate(-53.005 -87.129)"/><path class="cls-5" d="M53,110.779c0-11.132,61.377-6.183,61.377-6.183l-.1-.074S53,93.451,53,109.151Z" transform="translate(-53.005 -87.129)"/><path class="cls-6" d="M145.756,109.947c0-11.132-18.462-5.351-18.462-5.351l.1-.074s18.363-7.427,18.363,3.8Z" transform="translate(-53.005 -87.129)"/></g></svg>