<svg id="Layer_1" data-name="Layer 1" xmlns="http://www.w3.org/2000/svg" viewBox="0 0 37.128 153.714"><defs><style>.cls-1{fill:#fff;}.cls-2,.cls-3{fill:none;stroke:#0f82bc;stroke-linecap:round;stroke-linejoin:round;}.cls-3{stroke-width:0.5px;}</style></defs><title>girl</title><g id="GIRL"><path class="cls-1" d="M116.42,102.023c.086-2.2,1.967-12.771,1.6-16.619s.1-5.526,0-8.4-1.3-11.37-1.4-17.793-4.059-6.834-5.241-6.937a11.893,11.893,0,0,1-5.075-2.158c-2.053-1.5-1.512-6.5-1.512-6.5,1.425-2.052,1.767-1.767,1.767-3.193a2.285,2.285,0,0,0,1.425-2.281c0-1.824.285-3.079-.741-2.908,0,0,2.473-11.232-6.842-11.232s-6.749,11.232-6.749,11.232c-1.026-.171-.741,1.083-.741,2.908a2.285,2.285,0,0,0,1.425,2.281c0,1.425.342,1.14,1.767,3.193,0,0,.828,5.131-1.291,6.537-2.092,1.387-2.945,2.018-4.127,2.121s-5.823.514-5.925,6.937S82.09,74.122,81.987,77s.366,4.556,0,8.4,1.515,14.424,1.6,16.619-1.2,4.846-.6,5.872,1.454,2.167,1.454,2.167l1.625.4s.6-1.454.171-1.71,1.089-1.162.886-2.078-1.228-3.6-1.228-4.65.832-11.061.844-13.284-.525-7.782,0-10.6,1.43-11.687,1.43-11.687h0c.088.55.161,1.139.2,1.752.091,1.49.811,13.412.811,14.9a44.859,44.859,0,0,1-.684,6.712,116.1,116.1,0,0,0-.925,14.869c.1,4.984.77,22.044.7,24.357s-.685,6.834-.222,7.605-.1,10.02.222,14.336.682,11.241.682,11.241a16.081,16.081,0,0,1-.346,5.461c-.069.553.553,2.281-.553,3.871s-2.242,2.13-2.364,2.985-.264,1.647.59,1.444a.574.574,0,0,0,.874.163s.569.557,1.078.146c0,0,.483.606,1.279-.045,0,0,.145.468,1.182.468a1.391,1.391,0,0,0,1.342-.752s1.566-.346,1.18-2.583c0,0,.854-.163.813-1.424s-.488-1.037-.488-2.237.671-1.79.671-2.44-.817-1.321-.732-3.071,2.365-8.421,2.38-15.23c.011-4.964-.514-9.763-.463-11.664S98.293,125,99.012,119.7a83.932,83.932,0,0,0,.755-13.171l.238-2.971.238,2.971A83.923,83.923,0,0,0,101,119.7c.719,5.293,3.562,15.708,3.613,17.609s-.473,6.7-.462,11.664c.015,6.809,2.3,13.48,2.38,15.23s-.732,2.42-.732,3.071.671,1.241.671,2.44-.447.976-.488,2.237.814,1.424.814,1.424c-.386,2.237,1.18,2.583,1.18,2.583a1.391,1.391,0,0,0,1.342.752c1.037,0,1.182-.468,1.182-.468.8.651,1.278.045,1.278.045.508.411,1.078-.146,1.078-.146a.574.574,0,0,0,.875-.163c.854.2.712-.59.59-1.444s-1.259-1.395-2.364-2.985-.484-3.318-.553-3.871a16.081,16.081,0,0,1-.346-5.461s.358-6.925.682-11.241-.24-13.566.223-14.336-.154-5.293-.223-7.605.6-19.372.7-24.357a127.933,127.933,0,0,0-.925-14.869,61.885,61.885,0,0,1-.684-6.712c0-1.49.719-13.412.811-14.9.038-.613.111-1.2.2-1.752h0s.9,8.865,1.43,11.687-.012,8.381,0,10.6.844,12.229.844,13.284-1.026,3.734-1.229,4.65,1.314,1.821.886,2.078.171,1.71.171,1.71l1.625-.4s.855-1.14,1.454-2.167S116.335,104.218,116.42,102.023Z" transform="translate(-81.44 -23.5)"/><path class="cls-2" d="M104.79,43.613s-.484,4.923,1.512,6.5a10.519,10.519,0,0,0,5.075,2.158c1.182.1,5.139.514,5.241,6.937s1.3,14.915,1.4,17.793-.366,4.556,0,8.4-1.515,14.424-1.6,16.619,1.2,4.846.6,5.872-1.454,2.167-1.454,2.167l-1.625.4s-.6-1.454-.171-1.71-1.089-1.162-.886-2.078,1.228-3.6,1.228-4.65-.832-11.061-.844-13.284.525-7.782,0-10.6-1.43-11.687-1.43-11.687" transform="translate(-81.44 -23.5)"/><path class="cls-2" d="M106.558,99.258a9.216,9.216,0,0,0-3.392,1.254c-.728.448-2.441,3.046-3.161,3.05-1.278.007-2.491-2.469-2.74-2.708a11.862,11.862,0,0,0-3.049-1.6" transform="translate(-81.44 -23.5)"/><path class="cls-2" d="M99.217,87.263c0,.822,1.436.719,1.025,0" transform="translate(-81.44 -23.5)"/><path class="cls-2" d="M96.1,43.613s.791,5.077-1.291,6.537c-1.938,1.36-2.945,2.018-4.127,2.121s-5.823.514-5.925,6.937S82.09,74.122,81.987,77s.366,4.556,0,8.4,1.515,14.424,1.6,16.619-1.2,4.846-.6,5.872,1.454,2.167,1.454,2.167l1.625.4s.6-1.454.171-1.71,1.089-1.162.886-2.078-1.228-3.6-1.228-4.65.832-11.061.844-13.284-.525-7.782,0-10.6,1.43-11.687,1.43-11.687" transform="translate(-81.44 -23.5)"/><path class="cls-2" d="M87.77,64.38a25.684,25.684,0,0,1,.6,3.82c.091,1.49.811,13.412.811,14.9a30.746,30.746,0,0,1-.684,6.712,98.624,98.624,0,0,0-.925,14.869c.1,4.984.77,22.044.7,24.357s-.685,6.834-.223,7.6-.1,10.02.223,14.336.682,11.241.682,11.241a16.081,16.081,0,0,1-.346,5.461c-.069.553.553,2.281-.553,3.871s-2.242,2.13-2.364,2.985-.264,1.647.59,1.444a.574.574,0,0,0,.875.163s.569.557,1.078.146c0,0,.483.606,1.279-.045,0,0,.145.468,1.182.468a1.391,1.391,0,0,0,1.342-.752s1.566-.346,1.18-2.583c0,0,.854-.163.813-1.424s-.488-1.037-.488-2.237.671-1.79.671-2.44-.817-1.321-.732-3.071,2.365-8.421,2.38-15.23c.011-4.964-.514-9.763-.462-11.664S98.293,125,99.012,119.7a83.924,83.924,0,0,0,.755-13.171l.238-2.971.238,2.971A83.924,83.924,0,0,0,101,119.7c.719,5.293,3.562,15.708,3.613,17.609s-.473,6.7-.462,11.664c.015,6.809,2.3,13.48,2.38,15.23s-.732,2.42-.732,3.071.671,1.241.671,2.44-.447.976-.488,2.237.813,1.424.813,1.424c-.386,2.237,1.18,2.583,1.18,2.583a1.391,1.391,0,0,0,1.342.752c1.037,0,1.182-.468,1.182-.468.8.651,1.279.045,1.279.045.508.411,1.078-.146,1.078-.146a.574.574,0,0,0,.875-.163c.854.2.712-.59.59-1.444s-1.258-1.395-2.364-2.985-.484-3.318-.553-3.871a16.081,16.081,0,0,1-.346-5.461s.358-6.925.682-11.241-.24-13.566.223-14.336-.154-5.293-.223-7.6.6-19.372.7-24.357a117.382,117.382,0,0,0-.925-14.869,53.11,53.11,0,0,1-.684-6.712c0-1.49.719-13.412.811-14.9a25.684,25.684,0,0,1,.6-3.82" transform="translate(-81.44 -23.5)"/><path class="cls-2" d="M100.492,45.893c-1.994,0-2.965-.228-4.39-2.281s-1.767-1.767-1.767-3.193a2.285,2.285,0,0,1-1.425-2.281c0-1.824-.285-3.079.741-2.908,0,0-2.566-11.232,6.749-11.232s6.842,11.232,6.842,11.232c1.026-.171.741,1.083.741,2.908a2.285,2.285,0,0,1-1.425,2.281c0,1.425-.342,1.14-1.767,3.193S102.486,45.893,100.492,45.893Z" transform="translate(-81.44 -23.5)"/><path class="cls-3" d="M99.562,39.53c.122-.122.334.061.456.213a.855.855,0,0,0,.881,0c.122-.123.347-.385.608-.163" transform="translate(-81.44 -23.5)"/><path class="cls-3" d="M103.981,36.325a1.576,1.576,0,0,1-.814.162c-.785-.057-1.014-.21-1.206-.191" transform="translate(-81.44 -23.5)"/><path class="cls-3" d="M96.911,36.323a1.343,1.343,0,0,0,.769.163c.785-.057,1.014-.21,1.206-.191" transform="translate(-81.44 -23.5)"/><path class="cls-3" d="M102.127,41.859a6.393,6.393,0,0,0-1.018-.013c-.312.062-.134.125-.575.125s-.394-.161-.675-.143c-.2.013-.65.079-.973.117" transform="translate(-81.44 -23.5)"/><path class="cls-2" d="M99.617,101.407a4.782,4.782,0,0,0,.388,2.155" transform="translate(-81.44 -23.5)"/></g></svg>