<svg id="Layer_1" data-name="Layer 1" xmlns="http://www.w3.org/2000/svg" xmlns:xlink="http://www.w3.org/1999/xlink" viewBox="0 0 103.678 103.171"><defs><style>.cls-1{fill:#2c52f7;}.cls-2{fill:none;stroke:#a6b8ff;stroke-linecap:round;stroke-linejoin:round;stroke-width:2px;}.cls-3{fill:url(#radial-gradient);}.cls-4{fill:url(#radial-gradient-2);}.cls-5{fill:url(#radial-gradient-3);}.cls-6{fill:url(#radial-gradient-4);}.cls-7{fill:url(#radial-gradient-5);}.cls-8{fill:url(#radial-gradient-6);}.cls-9{fill:url(#radial-gradient-7);}.cls-10{fill:url(#radial-gradient-8);}.cls-11{fill:url(#radial-gradient-9);}.cls-12{fill:url(#radial-gradient-10);}.cls-13{fill:url(#radial-gradient-11);}.cls-14{fill:url(#radial-gradient-12);}.cls-15{fill:url(#radial-gradient-13);}.cls-16{fill:url(#radial-gradient-14);}.cls-17{fill:url(#radial-gradient-15);}.cls-18{fill:url(#radial-gradient-16);}.cls-19{fill:url(#radial-gradient-17);}.cls-20{fill:url(#radial-gradient-18);}.cls-21{fill:url(#radial-gradient-19);}.cls-22{fill:url(#radial-gradient-20);}.cls-23{fill:url(#radial-gradient-21);}</style><radialGradient id="radial-gradient" cx="55.931" cy="3.53" r="4.934" gradientUnits="userSpaceOnUse"><stop offset="0" stop-color="#acf7de"/><stop offset="1" stop-color="#1da075"/></radialGradient><radialGradient id="radial-gradient-2" cx="47.34" cy="8.297" r="8.093" gradientUnits="userSpaceOnUse"><stop offset="0" stop-color="#d8ba5d"/><stop offset="1" stop-color="#756532"/></radialGradient><radialGradient id="radial-gradient-3" cx="126.135" cy="147.892" r="9.018" gradientTransform="matrix(0.754, 0.008, -0.008, 0.517, -43.328, -39.963)" gradientUnits="userSpaceOnUse"><stop offset="0" stop-color="#d8707f"/><stop offset="1" stop-color="#75323c"/></radialGradient><radialGradient id="radial-gradient-4" cx="-23.431" cy="69.136" r="4.934" gradientTransform="translate(88.773 -2.99)" xlink:href="#radial-gradient"/><radialGradient id="radial-gradient-5" cx="-32.022" cy="73.902" r="8.093" gradientTransform="translate(96.183 0.576)" xlink:href="#radial-gradient-2"/><radialGradient id="radial-gradient-6" cx="-43.357" cy="175.029" r="9.018" gradientTransform="matrix(0.754, 0.008, -0.008, 0.517, 122.61, 0.602)" xlink:href="#radial-gradient-3"/><radialGradient id="radial-gradient-7" cx="-117.462" cy="-19.438" r="4.934" gradientTransform="translate(71.39 -9.342) rotate(-90)" xlink:href="#radial-gradient"/><radialGradient id="radial-gradient-8" cx="-126.053" cy="-14.671" r="8.093" gradientTransform="translate(72.867 -10.817) rotate(-90)" xlink:href="#radial-gradient-2"/><radialGradient id="radial-gradient-9" cx="-168.081" cy="41.47" r="9.018" gradientTransform="matrix(0.008, -0.754, 0.517, 0.008, 66.065, -21.25)" xlink:href="#radial-gradient-3"/><radialGradient id="radial-gradient-10" cx="-107.171" cy="-147.992" r="4.934" gradientTransform="translate(223.08 35.727) rotate(-90)" xlink:href="#radial-gradient"/><radialGradient id="radial-gradient-11" cx="-115.762" cy="-143.225" r="8.093" gradientTransform="translate(226.421 26.247) rotate(-90)" xlink:href="#radial-gradient-2"/><radialGradient id="radial-gradient-12" cx="-154.431" cy="-152.373" r="9.018" gradientTransform="matrix(0.008, -0.754, 0.517, 0.008, 173.774, -0.511)" xlink:href="#radial-gradient-3"/><radialGradient id="radial-gradient-13" cx="0.219" cy="-220.548" r="4.934" gradientTransform="translate(119.232 -73.299) rotate(180)" xlink:href="#radial-gradient"/><radialGradient id="radial-gradient-14" cx="-8.371" cy="-215.781" r="8.093" gradientTransform="translate(115.973 -75.906) rotate(180)" xlink:href="#radial-gradient-2"/><radialGradient id="radial-gradient-15" cx="-11.987" cy="-261.779" r="9.018" gradientTransform="matrix(-0.754, -0.008, 0.008, -0.517, 102.028, -20.64)" xlink:href="#radial-gradient-3"/><radialGradient id="radial-gradient-16" cx="123.641" cy="-181.827" r="4.934" gradientTransform="translate(271.507 -64.958) rotate(180)" xlink:href="#radial-gradient"/><radialGradient id="radial-gradient-17" cx="115.051" cy="-177.06" r="8.093" gradientTransform="translate(260.004 -67.603) rotate(180)" xlink:href="#radial-gradient-2"/><radialGradient id="radial-gradient-18" cx="151.722" cy="-203.393" r="9.018" gradientTransform="matrix(-0.754, -0.008, 0.008, -0.517, 232.084, 1.395)" xlink:href="#radial-gradient-3"/><radialGradient id="radial-gradient-19" cx="170.355" cy="-61.114" r="4.934" gradientTransform="translate(81.689 -97.117) rotate(90)" xlink:href="#radial-gradient"/><radialGradient id="radial-gradient-20" cx="161.765" cy="-56.348" r="8.093" gradientTransform="translate(78.37 -91.854) rotate(90)" xlink:href="#radial-gradient-2"/><radialGradient id="radial-gradient-21" cx="213.685" cy="-21.372" r="9.018" gradientTransform="matrix(-0.008, 0.754, -0.517, -0.008, 104.255, -71.014)" xlink:href="#radial-gradient-3"/></defs><title>apoptosome</title><g id="apoptosome"><path class="cls-1" d="M101.648,86.673A2.6,2.6,0,0,1,99.669,82.4c5.566-6.56.8-17.235-1.47-19.73a2.6,2.6,0,0,1,3.838-3.5c3.56,3.906,9.262,17.55,1.592,26.59A2.593,2.593,0,0,1,101.648,86.673Z" transform="translate(-48.42 -47.608)"/><path class="cls-2" d="M99.377,60.916c3.106,3.408,8.081,15.44,1.531,23.16" transform="translate(-48.42 -47.608)"/><circle class="cls-3" cx="56.633" cy="4.934" r="4.934"/><circle class="cls-4" cx="49.212" cy="10.87" r="8.093"/><ellipse class="cls-5" cx="52.22" cy="39.412" rx="6.798" ry="5.98"/><path class="cls-1" d="M90.542,91.556a2.6,2.6,0,0,1-4.575-1.132c-1.636-8.446-12.944-11.409-16.312-11.2a2.6,2.6,0,1,1-.329-5.184C74.6,73.71,88.812,77.8,91.066,89.436A2.593,2.593,0,0,1,90.542,91.556Z" transform="translate(-48.42 -47.608)"/><path class="cls-2" d="M69.026,77.215c4.6-.292,17.1,3.354,19.026,13.293" transform="translate(-48.42 -47.608)"/><circle class="cls-6" cx="66.043" cy="67.549" r="4.934" transform="translate(-76.391 29.21) rotate(-51.277)"/><circle class="cls-7" cx="66.033" cy="77.052" r="8.093" transform="matrix(0.626, -0.78, 0.78, 0.626, -83.809, 32.76)"/><ellipse class="cls-8" cx="90.182" cy="92.56" rx="6.798" ry="5.98" transform="translate(-86.865 57.408) rotate(-51.277)"/><path class="cls-1" d="M87.406,103.289a2.6,2.6,0,0,1-3.742,2.865c-7.617-4-17,2.978-18.933,5.742a2.6,2.6,0,1,1-4.253-2.982c3.034-4.327,15.1-12.87,25.6-7.359A2.593,2.593,0,0,1,87.406,103.289Z" transform="translate(-48.42 -47.608)"/><path class="cls-2" d="M62.766,111.129c2.647-3.776,13.3-11.257,22.267-6.55" transform="translate(-48.42 -47.608)"/><circle class="cls-9" cx="53.355" cy="107.419" r="4.934" transform="translate(-70.585 -33.368) rotate(-12.611)"/><circle class="cls-10" cx="60.768" cy="113.364" r="8.093" transform="translate(-71.704 -31.606) rotate(-12.611)"/><ellipse class="cls-11" cx="87.965" cy="104.197" rx="5.98" ry="6.798" transform="translate(-69.047 -25.89) rotate(-12.611)"/><path class="cls-1" d="M94.588,113.058a2.6,2.6,0,0,1-.108,4.712c-7.887,3.436-8.317,15.117-7.375,18.358a2.6,2.6,0,0,1-4.988,1.45c-1.475-5.075-.58-19.836,10.288-24.57A2.593,2.593,0,0,1,94.588,113.058Z" transform="translate(-48.42 -47.608)"/><path class="cls-2" d="M85.277,137.18c-1.287-4.428-.45-17.421,8.831-21.464" transform="translate(-48.42 -47.608)"/><circle class="cls-12" cx="76.492" cy="142.196" r="4.934" transform="translate(-133.281 100.592) rotate(-63.854)"/><circle class="cls-13" cx="85.77" cy="140.137" r="8.093" transform="translate(-126.244 107.768) rotate(-63.854)"/><ellipse class="cls-14" cx="95.647" cy="113.19" rx="5.98" ry="6.798" transform="translate(-96.53 101.562) rotate(-63.854)"/><path class="cls-1" d="M106.764,113.546a2.6,2.6,0,0,1,3.621,3.017c-2.219,8.312,6.658,15.918,9.781,17.2a2.6,2.6,0,1,1-1.969,4.806c-4.891-2-15.888-11.89-12.831-23.344A2.593,2.593,0,0,1,106.764,113.546Z" transform="translate(-48.42 -47.608)"/><path class="cls-2" d="M119.852,135.846c-4.267-1.748-13.917-10.489-11.306-20.271" transform="translate(-48.42 -47.608)"/><circle class="cls-15" cx="118.311" cy="145.844" r="4.934" transform="translate(-99.497 17.145) rotate(-25.369)"/><circle class="cls-16" cx="122.473" cy="137.301" r="8.093" transform="translate(-95.436 18.105) rotate(-25.369)"/><ellipse class="cls-17" cx="107.526" cy="112.8" rx="6.798" ry="5.98" transform="translate(-86.38 9.338) rotate(-25.369)"/><path class="cls-1" d="M114.716,104.344a2.6,2.6,0,0,1,4.617-.948c5.113,6.919,16.595,4.725,19.543,3.082a2.6,2.6,0,1,1,2.529,4.537c-4.617,2.573-19.2,5-26.249-4.532A2.593,2.593,0,0,1,114.716,104.344Z" transform="translate(-48.42 -47.608)"/><path class="cls-2" d="M140.31,108.025c-4.028,2.245-16.879,4.335-22.9-3.807" transform="translate(-48.42 -47.608)"/><circle class="cls-18" cx="147.164" cy="115.465" r="4.934" transform="translate(-47.322 184.709) rotate(-76.777)"/><circle class="cls-19" cx="143.082" cy="106.884" r="8.093" transform="translate(-42.116 174.116) rotate(-76.777)"/><ellipse class="cls-20" cx="114.608" cy="103.284" rx="6.798" ry="5.98" transform="translate(-60.572 143.621) rotate(-76.777)"/><path class="cls-1" d="M112.479,92.382a2.6,2.6,0,0,1,2.136-4.2c8.6.314,14.038-10.032,14.591-13.361a2.6,2.6,0,0,1,5.124.851c-.866,5.214-8.058,18.134-19.9,17.7A2.593,2.593,0,0,1,112.479,92.382Z" transform="translate(-48.42 -47.608)"/><path class="cls-2" d="M131.309,74.662c-.755,4.549-7.13,15.9-17.248,15.532" transform="translate(-48.42 -47.608)"/><circle class="cls-21" cx="141.399" cy="73.94" r="4.934" transform="translate(-63.854 55.727) rotate(-38.221)"/><circle class="cls-22" cx="132.144" cy="71.783" r="8.093" transform="translate(-64.504 49.538) rotate(-38.221)"/><ellipse class="cls-23" cx="111.582" cy="91.805" rx="5.98" ry="6.798" transform="translate(-81.3 41.109) rotate(-38.221)"/></g></svg>