<svg id="Layer_1" data-name="Layer 1" xmlns="http://www.w3.org/2000/svg" xmlns:xlink="http://www.w3.org/1999/xlink" viewBox="0 0 21 148.048"><defs><style>.cls-1{fill:url(#linear-gradient);}.cls-2{fill:url(#linear-gradient-2);}.cls-3{fill:url(#linear-gradient-3);}</style><linearGradient id="linear-gradient" x1="-128.784" y1="641.429" x2="-120.784" y2="641.429" gradientTransform="translate(218.987 -540.929)" gradientUnits="userSpaceOnUse"><stop offset="0" stop-color="#dabf68"/><stop offset="1" stop-color="#da593d"/></linearGradient><linearGradient id="linear-gradient-2" x1="-115.784" y1="641.429" x2="-107.784" y2="641.429" xlink:href="#linear-gradient"/><linearGradient id="linear-gradient-3" x1="-120.91" y1="-519.758" x2="-112.91" y2="-519.758" gradientTransform="translate(620.581 -53.356) rotate(-90)" gradientUnits="userSpaceOnUse"><stop offset="0" stop-color="#da593d"/><stop offset="1" stop-color="#dabf68"/></linearGradient></defs><title>DAP12</title><g id="DAP12"><path class="cls-1" d="M94.2,174.524a4,4,0,0,1-4-4V30.476a4,4,0,1,1,8,0V170.524A4,4,0,0,1,94.2,174.524Z" transform="translate(-90.203 -26.476)"/><path class="cls-2" d="M107.2,174.524a4,4,0,0,1-4-4V30.476a4,4,0,1,1,8,0V170.524A4,4,0,0,1,107.2,174.524Z" transform="translate(-90.203 -26.476)"/><path class="cls-3" d="M108.2,63.554a4,4,0,0,1-4,4h-6.76a4,4,0,1,1,0-8h6.76A4,4,0,0,1,108.2,63.554Z" transform="translate(-90.203 -26.476)"/></g></svg>