<svg id="Layer_1" data-name="Layer 1" xmlns="http://www.w3.org/2000/svg" xmlns:xlink="http://www.w3.org/1999/xlink" viewBox="0 0 109.7 24"><defs><style>.cls-1{fill:url(#linear-gradient);}.cls-2{fill:url(#linear-gradient-2);}.cls-3{fill:url(#linear-gradient-3);}.cls-4{fill:url(#linear-gradient-4);}.cls-5{fill:url(#linear-gradient-5);}.cls-6{fill:url(#linear-gradient-6);}</style><linearGradient id="linear-gradient" x1="-810.885" y1="37.292" x2="-810.885" y2="13.575" gradientTransform="translate(-737.585 125.258) rotate(180)" gradientUnits="userSpaceOnUse"><stop offset="0" stop-color="#403005"/><stop offset="0.094" stop-color="#edb128"/><stop offset="0.117" stop-color="#ecb22f"/><stop offset="0.149" stop-color="#e9b641"/><stop offset="0.186" stop-color="#e5bc60"/><stop offset="0.228" stop-color="#dec58a"/><stop offset="0.273" stop-color="#d6d0bf"/><stop offset="0.309" stop-color="#d6cfbc"/><stop offset="0.334" stop-color="#d8ceb3"/><stop offset="0.356" stop-color="#dacaa4"/><stop offset="0.376" stop-color="#ddc68e"/><stop offset="0.394" stop-color="#e2c072"/><stop offset="0.411" stop-color="#e7b950"/><stop offset="0.428" stop-color="#edb128"/><stop offset="1" stop-color="#403005"/></linearGradient><linearGradient id="linear-gradient-2" x1="273.596" y1="-18.125" x2="273.596" y2="-42.046" gradientTransform="translate(-218.096 130.159)" gradientUnits="userSpaceOnUse"><stop offset="0" stop-color="#71530d"/><stop offset="0.092" stop-color="#edb128"/><stop offset="0.25" stop-color="#d6d0bf"/><stop offset="0.587" stop-color="#edb128"/><stop offset="0.636" stop-color="#e1a826"/><stop offset="0.723" stop-color="#c2911f"/><stop offset="0.839" stop-color="#906c15"/><stop offset="0.978" stop-color="#4c3907"/><stop offset="1" stop-color="#403005"/></linearGradient><linearGradient id="linear-gradient-3" x1="-846.485" y1="37.292" x2="-846.485" y2="13.575" xlink:href="#linear-gradient"/><linearGradient id="linear-gradient-4" x1="309.196" y1="-18.125" x2="309.196" y2="-42.046" xlink:href="#linear-gradient-2"/><linearGradient id="linear-gradient-5" x1="-882.085" y1="37.292" x2="-882.085" y2="13.575" xlink:href="#linear-gradient"/><linearGradient id="linear-gradient-6" x1="344.796" y1="-18.125" x2="344.796" y2="-42.046" xlink:href="#linear-gradient-2"/></defs><title>gRNA</title><g id="gRNA"><path class="cls-1" d="M62.95,112c10.35,0,2.677-24,18.167-24l2.533.017c-9.828,0-3.3,23.983-17.8,23.983Z" transform="translate(-45.15 -88)"/><path class="cls-2" d="M65.85,112c-10.35,0-3.576-24-17.8-24h-2.9c9.828,0,2.9,24,17.8,24Z" transform="translate(-45.15 -88)"/><path class="cls-3" d="M98.55,112c10.35,0,2.677-24,18.167-24l2.533.017c-9.828,0-3.3,23.983-17.8,23.983Z" transform="translate(-45.15 -88)"/><path class="cls-4" d="M101.45,112c-10.35,0-3.576-24-17.8-24h-2.9c9.828,0,2.9,24,17.8,24Z" transform="translate(-45.15 -88)"/><path class="cls-5" d="M134.15,112c10.35,0,2.677-24,18.167-24l2.533.017c-9.828,0-3.3,23.983-17.8,23.983Z" transform="translate(-45.15 -88)"/><path class="cls-6" d="M137.05,112c-10.35,0-3.576-24-17.8-24h-2.9c9.828,0,2.9,24,17.8,24Z" transform="translate(-45.15 -88)"/></g></svg>