<svg id="Layer_1" data-name="Layer 1" xmlns="http://www.w3.org/2000/svg" viewBox="0 0 129.488 22.95"><defs><style>.cls-1{fill:#5fa6c2;}.cls-2{fill:#de4e8d;}.cls-3{font-size:12px;fill:#fff;font-family:Arial-BoldMT, Arial;font-weight:700;}</style></defs><title>PREPROGLUCAGON</title><g id="PREPROGLUCAGON"><rect class="cls-1" x="1.157" y="1.342" width="128" height="20" rx="10" ry="10"/><path class="cls-2" d="M151.249,113.491c-11.616-.011-23.231.447-34.847.837-11.616.458-23.231.547-34.847.613-11.616.041-23.231-.085-34.847-.189l-2.178-.019-1.089-.01c-.36,0-.811-.039-1.211-.061a10.88,10.88,0,0,1-4.657-1.544,11.28,11.28,0,0,1-5.337-7.852A10.985,10.985,0,0,1,43.249,92.52c11.616.261,23.231.449,34.847.335,5.808-.049,11.616-.194,17.423-.349l17.423-.413c11.616-.182,23.231-.109,34.847.307l2.178.07c.719.021,1.444.039,2.249.119A10.524,10.524,0,0,1,159.05,109.9,10.33,10.33,0,0,1,151.249,113.491Zm0-.3a9.855,9.855,0,0,0,7.487-3.559,9.462,9.462,0,0,0-2.813-14.354,8.956,8.956,0,0,0-3.851-1.094c-.645-.023-1.372,0-2.105.028l-2.178.07c-11.616.416-23.231.489-34.847.307l-17.423-.413c-5.808-.155-11.616-.3-17.423-.349-11.616-.114-23.231.074-34.847.335a9.165,9.165,0,0,0-6.861,3.416,9.026,9.026,0,0,0-1.807,7.278,8.765,8.765,0,0,0,4.327,5.978,8.591,8.591,0,0,0,3.569,1.095c.325.006.6.034.965.031l1.089-.01,2.178-.019c11.616-.1,23.231-.23,34.847-.189,11.616.066,23.231.155,34.847.613C128.018,112.744,139.633,113.2,151.249,113.191Z" transform="translate(-32.092 -91.999)"/><text class="cls-3" transform="translate(4.82 14.164)">PREPROGLUCAGON</text></g></svg>