<svg id="Layer_1" data-name="Layer 1" xmlns="http://www.w3.org/2000/svg" xmlns:xlink="http://www.w3.org/1999/xlink" viewBox="0 0 121.829 109.252"><defs><style>.cls-1,.cls-22,.cls-23,.cls-24,.cls-3{opacity:0.8;}.cls-1{fill:url(#radial-gradient);}.cls-2,.cls-32{opacity:0.6;}.cls-2{fill:url(#radial-gradient-2);}.cls-3{fill:url(#radial-gradient-3);}.cls-4{opacity:0.85;fill:url(#radial-gradient-4);}.cls-5{opacity:0.9;fill:url(#radial-gradient-5);}.cls-6{fill:url(#radial-gradient-6);}.cls-7{fill:url(#radial-gradient-7);}.cls-8{fill:url(#radial-gradient-8);}.cls-9{fill:url(#radial-gradient-9);}.cls-10{fill:url(#radial-gradient-10);}.cls-11{fill:url(#radial-gradient-11);}.cls-12{fill:url(#radial-gradient-12);}.cls-13{fill:url(#radial-gradient-13);}.cls-14{fill:url(#radial-gradient-14);}.cls-15{fill:url(#radial-gradient-15);}.cls-16{fill:url(#radial-gradient-16);}.cls-17{fill:url(#radial-gradient-17);}.cls-18{fill:url(#radial-gradient-18);}.cls-19{fill:url(#radial-gradient-19);}.cls-20{fill:url(#radial-gradient-20);}.cls-21{fill:url(#radial-gradient-21);}.cls-22{fill:url(#radial-gradient-22);}.cls-23{fill:url(#radial-gradient-23);}.cls-25{fill:url(#radial-gradient-24);}.cls-26{fill:#df9e7e;}.cls-27{fill:#b26044;}.cls-28{fill:url(#radial-gradient-25);}.cls-29{fill:url(#radial-gradient-26);}.cls-30,.cls-31{stroke:#4f1512;stroke-linecap:round;stroke-linejoin:round;stroke-width:1.091px;}.cls-30{fill:url(#radial-gradient-27);}.cls-31{fill:none;}.cls-32{fill:url(#radial-gradient-28);}</style><radialGradient id="radial-gradient" cx="216.308" cy="-111.543" r="49.065" gradientTransform="matrix(-0.133, -0.991, 1.203, -0.162, 250.391, 297.124)" gradientUnits="userSpaceOnUse"><stop offset="0" stop-color="#984d32"/><stop offset="0.02" stop-color="#a15b42"/><stop offset="0.08" stop-color="#ba7e6e"/><stop offset="0.142" stop-color="#cf9d93"/><stop offset="0.207" stop-color="#e1b6b1"/><stop offset="0.275" stop-color="#eecac8"/><stop offset="0.348" stop-color="#f8d7d9"/><stop offset="0.428" stop-color="#fddfe3"/><stop offset="0.53" stop-color="#ffe2e6"/><stop offset="0.627" stop-color="#f3d3d1"/><stop offset="0.824" stop-color="#d5ad9d"/><stop offset="0.999" stop-color="#b88769"/></radialGradient><radialGradient id="radial-gradient-2" cx="249.556" cy="-82.726" r="17.385" gradientTransform="matrix(0.769, -0.639, 0.639, 0.769, -7.708, 324.835)" gradientUnits="userSpaceOnUse"><stop offset="0" stop-color="#ffe2e6"/><stop offset="0.546" stop-color="#fde0e4"/><stop offset="0.743" stop-color="#f6dade"/><stop offset="0.883" stop-color="#ebd0d3"/><stop offset="0.995" stop-color="#dac2c4"/><stop offset="1" stop-color="#d9c1c3"/></radialGradient><radialGradient id="radial-gradient-3" cx="208.622" cy="-151.341" r="2.757" gradientTransform="matrix(0.769, -0.639, 1.714, 2.063, 154.974, 520.609)" gradientUnits="userSpaceOnUse"><stop offset="0" stop-color="#b85854"/><stop offset="0.238" stop-color="#bb655d"/><stop offset="0.673" stop-color="#c38675"/><stop offset="0.899" stop-color="#c89a83"/></radialGradient><radialGradient id="radial-gradient-4" cx="192.473" cy="-164.83" r="2.888" gradientTransform="translate(162.506 520.594) rotate(-36.429) scale(0.955 2.56)" xlink:href="#radial-gradient-3"/><radialGradient id="radial-gradient-5" cx="172.955" cy="-176.815" r="2.888" gradientTransform="translate(165.504 518.591) rotate(-32.816) scale(0.913 2.447)" xlink:href="#radial-gradient-3"/><radialGradient id="radial-gradient-6" cx="149.664" cy="-186.896" r="2.888" gradientTransform="matrix(0.766, -0.422, 1.133, 2.054, 164.232, 514.096)" xlink:href="#radial-gradient-3"/><radialGradient id="radial-gradient-7" cx="123.077" cy="-193.689" r="2.888" gradientTransform="matrix(0.765, -0.35, 0.939, 2.051, 158.565, 505.339)" xlink:href="#radial-gradient-3"/><radialGradient id="radial-gradient-8" cx="94.086" cy="-195.798" r="2.888" gradientTransform="matrix(0.764, -0.278, 0.745, 2.048, 149.043, 490.548)" xlink:href="#radial-gradient-3"/><radialGradient id="radial-gradient-9" cx="62.573" cy="-192.592" r="2.888" gradientTransform="translate(137.133 468.942) rotate(-15.079) scale(0.79 2.118)" xlink:href="#radial-gradient-3"/><radialGradient id="radial-gradient-10" cx="30.569" cy="-183.099" r="2.888" gradientTransform="translate(124.211 439.333) rotate(-9.921) scale(0.773 2.073)" xlink:href="#radial-gradient-3"/><radialGradient id="radial-gradient-11" cx="0.691" cy="-167.054" r="2.888" gradientTransform="translate(112.448 401.429) rotate(-4.58) scale(0.763 2.046)" xlink:href="#radial-gradient-3"/><radialGradient id="radial-gradient-12" cx="-26.895" cy="-145.349" r="2.888" gradientTransform="matrix(0.759, 0.011, -0.03, 2.037, 104.646, 356.386)" xlink:href="#radial-gradient-3"/><radialGradient id="radial-gradient-13" cx="-49.286" cy="-118.464" r="2.888" gradientTransform="matrix(0.758, 0.084, -0.224, 2.034, 103.341, 304.855)" xlink:href="#radial-gradient-3"/><radialGradient id="radial-gradient-14" cx="-66.805" cy="-87.993" r="2.888" gradientTransform="matrix(0.757, 0.156, -0.418, 2.031, 109.91, 248.959)" xlink:href="#radial-gradient-3"/><radialGradient id="radial-gradient-15" cx="-77.907" cy="-54.844" r="2.888" gradientTransform="matrix(0.756, 0.228, -0.612, 2.028, 124.977, 189.774)" xlink:href="#radial-gradient-3"/><radialGradient id="radial-gradient-16" cx="-82.727" cy="-21.669" r="2.888" gradientTransform="translate(148.142 130.678) rotate(21.697) scale(0.813 2.179)" xlink:href="#radial-gradient-3"/><radialGradient id="radial-gradient-17" cx="-82.256" cy="9.742" r="2.888" gradientTransform="translate(178.279 73.942) rotate(26.304) scale(0.841 2.256)" xlink:href="#radial-gradient-3"/><radialGradient id="radial-gradient-18" cx="-76.451" cy="38.493" r="2.888" gradientTransform="matrix(0.753, 0.445, -1.193, 2.019, 214.068, 20.69)" xlink:href="#radial-gradient-3"/><radialGradient id="radial-gradient-19" cx="-67.286" cy="63.851" r="2.761" gradientTransform="matrix(0.752, 0.517, -1.387, 2.016, 253.899, -28.166)" xlink:href="#radial-gradient-3"/><radialGradient id="radial-gradient-20" cx="-55.301" cy="85.696" r="2.706" gradientTransform="translate(296.414 -72.493) rotate(38.141) scale(0.955 2.56)" xlink:href="#radial-gradient-3"/><radialGradient id="radial-gradient-21" cx="-41.237" cy="105.28" r="2.581" gradientTransform="matrix(0.75, 0.662, -1.775, 2.011, 341.723, -113.888)" xlink:href="#radial-gradient-3"/><radialGradient id="radial-gradient-22" cx="373.241" cy="-139.189" r="64.977" gradientTransform="translate(288.027 475.315) rotate(-97.291)" gradientUnits="userSpaceOnUse"><stop offset="0" stop-color="#f3b79d"/><stop offset="0.999" stop-color="#d5572b"/></radialGradient><radialGradient id="radial-gradient-23" cx="369.206" cy="-152.415" r="17.383" gradientTransform="matrix(-0.127, -0.992, 1.124, -0.144, 308.156, 472.739)" gradientUnits="userSpaceOnUse"><stop offset="0" stop-color="#f9e1db"/><stop offset="0.244" stop-color="#f9ded7"/><stop offset="0.488" stop-color="#f8d6cb"/><stop offset="0.734" stop-color="#f6c8b7"/><stop offset="0.978" stop-color="#f3b59b"/><stop offset="0.999" stop-color="#f3b398"/></radialGradient><radialGradient id="radial-gradient-24" cx="374.641" cy="-162.036" r="4.059" gradientTransform="translate(288.027 475.315) rotate(-97.291)" gradientUnits="userSpaceOnUse"><stop offset="0" stop-color="#eaa888"/><stop offset="0.525" stop-color="#e4a280"/><stop offset="0.999" stop-color="#dc9875"/></radialGradient><radialGradient id="radial-gradient-25" cx="413.904" cy="-139.146" r="16.27" gradientTransform="matrix(-0.031, -1, 1.733, -0.054, 351.591, 488.539)" gradientUnits="userSpaceOnUse"><stop offset="0" stop-color="#71190f"/><stop offset="0.43" stop-color="#741a10"/><stop offset="0.715" stop-color="#7d1e12"/><stop offset="0.958" stop-color="#8c2416"/><stop offset="1" stop-color="#8f2517"/></radialGradient><radialGradient id="radial-gradient-26" cx="409.669" cy="-143.885" r="10.315" gradientTransform="matrix(-0.299, -0.954, 1.638, -0.514, 451.726, 404.093)" gradientUnits="userSpaceOnUse"><stop offset="0" stop-color="#220001"/><stop offset="0.238" stop-color="#260102"/><stop offset="0.478" stop-color="#320303"/><stop offset="0.719" stop-color="#460706"/><stop offset="0.958" stop-color="#620c09"/><stop offset="1" stop-color="#680d0a"/></radialGradient><radialGradient id="radial-gradient-27" cx="420.1" cy="-146.744" r="8.748" gradientTransform="matrix(0, -1, 1.569, 0, 319.394, 497.353)" gradientUnits="userSpaceOnUse"><stop offset="0" stop-color="#6b2a26"/><stop offset="0.408" stop-color="#672725"/><stop offset="0.818" stop-color="#5b1f21"/><stop offset="1" stop-color="#531a1e"/></radialGradient><radialGradient id="radial-gradient-28" cx="213.792" cy="-112.802" r="74.67" xlink:href="#radial-gradient-2"/></defs><title>embryo</title><g id="EMBRYO"><path class="cls-1" d="M100.276,110.5c4.454,2.3,5.074,8.17,5.649,10.865s1.1,11.407-5.074,15.427-6.438,6.148-7.509,8.593-6.825,5.967-8.211,7.76-12.763,7.142-18.531,5.342-9.369-3.908-11.708-7.762-4-8.157-7.037-10.243-6.75-10.812-7.3-13.28-2.674-11.886-3.826-17.276S32.78,98.525,32.416,90.266s2.468-18.639,10.579-23.359c8.766-5.1,20.182-9.966,26.673-13.334s25.864-7.515,48.457,1.361,33.921,21.824,35.764,33.358c2.186,13.675-6.936,28.656-19.542,28.991-3.1.082-7.779,3.016-6.736,6.861.866,3.195-3.782.691-2.587-2.726a6.4,6.4,0,0,1-2.069,1.465c-1.02.362-1.205,1.695-1.633,1.749-1.135.145-6-.992-8.889-7.314s-4.306-6.6-3.717-9.215c0,0-2.107-2.038-1.373-3.516l-1.541-.436a9.968,9.968,0,0,1-1.952,3.32A19.106,19.106,0,0,1,100.276,110.5Z" transform="translate(-32.385 -49.605)"/><path class="cls-2" d="M133.875,111.017c5.148,7.552,8.886-8.132,8.752-17.739-.121-8.707-8.838-10.314-9.572-9.573s-4.32,2.819-2.676,6.849S131.41,107.4,133.875,111.017Z" transform="translate(-32.385 -49.605)"/><path class="cls-3" d="M54.927,77.51c-2.587-2.474-5.551-4.661-4.273-6.2s2.14-2.5,3.027-2.515c1.549-.03,3.774,3.58,5.423,6.526.825,1.473,2,3.153,2.8,4.591s.775,1.939.143,2.449-1.525.328-3-.932S55.989,78.525,54.927,77.51Z" transform="translate(-32.385 -49.605)"/><path class="cls-4" d="M65.319,79.641c-.63.451-1.887-.462-3.226-1.744s-2.758-2.933-3.714-3.959c-2.33-2.5-5.034-4.747-3.732-6.145s2.177-2.263,3.022-2.231c1.477.056,3.4,3.618,4.81,6.517.7,1.449,1.73,3.114,2.421,4.529S65.95,79.19,65.319,79.641Z" transform="translate(-32.385 -49.605)"/><path class="cls-5" d="M68.476,77.012c-.629.393-1.773-.554-2.973-1.858s-2.455-2.965-3.305-4c-2.072-2.525-4.517-4.832-3.191-6.088s2.213-2.028,3.018-1.946c1.406.143,3.026,3.657,4.2,6.508.585,1.425,1.463,3.076,2.037,4.468S69.1,76.619,68.476,77.012Z" transform="translate(-32.385 -49.605)"/><path class="cls-6" d="M71.318,74.641c-.627.334-1.659-.647-2.72-1.972s-2.151-3-2.9-4.043c-1.815-2.551-4-4.918-2.649-6.031s2.25-1.793,3.014-1.662c1.335.229,2.652,3.7,3.583,6.5.466,1.4,1.2,3.037,1.653,4.406S71.944,74.307,71.318,74.641Z" transform="translate(-32.385 -49.605)"/><path class="cls-7" d="M74.288,72.6c-.625.275-1.544-.739-2.467-2.087s-1.848-3.028-2.487-4.086c-1.557-2.577-3.483-5-2.108-5.974s2.286-1.558,3.01-1.377c1.264.316,2.278,3.735,2.97,6.49.346,1.377.929,3,1.269,4.344S74.913,72.324,74.288,72.6Z" transform="translate(-32.385 -49.605)"/><path class="cls-8" d="M77.746,70.98c-.623.217-1.43-.832-2.213-2.2s-1.545-3.06-2.078-4.128c-1.3-2.6-2.966-5.089-1.566-5.917s2.323-1.323,3.005-1.093c1.193.4,1.9,3.774,2.357,6.48.226,1.353.662,2.96.885,4.282S78.369,70.763,77.746,70.98Z" transform="translate(-32.385 -49.605)"/><path class="cls-9" d="M80.7,69.757c-.622.158-1.315-.924-1.96-2.315s-1.242-3.091-1.669-4.17c-1.042-2.628-2.45-5.175-1.025-5.86s2.359-1.088,3-.809c1.122.488,1.53,3.813,1.744,6.471.107,1.329.4,2.921.5,4.22S81.325,69.6,80.7,69.757Z" transform="translate(-32.385 -49.605)"/><path class="cls-10" d="M83.345,68.863c-.62.1-1.2-1.017-1.707-2.43s-.938-3.123-1.261-4.212c-.785-2.654-1.933-5.26-.483-5.8s2.4-.853,3-.524c1.05.575,1.156,3.852,1.13,6.462-.013,1.305.128,2.882.117,4.158S83.965,68.764,83.345,68.863Z" transform="translate(-32.385 -49.605)"/><path class="cls-11" d="M86.222,68.226c-.618.041-1.087-1.109-1.454-2.544s-.635-3.155-.852-4.254c-.528-2.679-1.416-5.346.058-5.746s2.432-.618,2.993-.24c.979.661.782,3.89.517,6.453-.133,1.281-.139,2.844-.267,4.1S86.841,68.185,86.222,68.226Z" transform="translate(-32.385 -49.605)"/><path class="cls-12" d="M88.473,67.594c-.617-.018-.972-1.2-1.2-2.658s-.332-3.186-.443-4.3c-.27-2.705-.9-5.431.6-5.689s2.468-.383,2.988.045c.908.748.408,3.929-.1,6.444-.252,1.257-.406,2.805-.651,4.034S89.09,67.612,88.473,67.594Z" transform="translate(-32.385 -49.605)"/><path class="cls-13" d="M91.645,67.328c-.615-.077-.858-1.294-.948-2.773s-.029-3.218-.034-4.338c-.013-2.731-.382-5.517,1.141-5.632s2.5-.148,2.984.329c.837.834.034,3.968-.71,6.435-.372,1.233-.673,2.767-1.034,3.972S92.26,67.4,91.645,67.328Z" transform="translate(-32.385 -49.605)"/><path class="cls-14" d="M94.506,67.348c-.613-.136-.743-1.387-.7-2.887s.274-3.249.375-4.381c.245-2.757.135-5.6,1.682-5.575s2.541.086,2.98.613c.766.921-.34,4.007-1.323,6.425-.492,1.209-.94,2.728-1.418,3.91S95.119,67.483,94.506,67.348Z" transform="translate(-32.385 -49.605)"/><path class="cls-15" d="M97.3,68.263c-.611-.194-.629-1.479-.442-3s.578-3.281.784-4.423c.5-2.782.652-5.688,2.224-5.518s2.578.321,2.976.9c.695,1.007-.714,4.046-1.936,6.416-.611,1.185-1.207,2.689-1.8,3.848S97.915,68.457,97.3,68.263Z" transform="translate(-32.385 -49.605)"/><path class="cls-16" d="M100.1,69.412c-.61-.253-.515-1.572-.189-3.116s.881-3.313,1.193-4.465c.76-2.808,1.169-5.773,2.765-5.461s2.614.556,2.971,1.182c.624,1.093-1.088,4.085-2.549,6.407-.731,1.161-1.474,2.651-2.186,3.787S100.7,69.665,100.1,69.412Z" transform="translate(-32.385 -49.605)"/><path class="cls-17" d="M102.762,70.437c-.608-.312-.4-1.664.064-3.23s1.184-3.344,1.6-4.507c1.017-2.834,1.686-5.859,3.307-5.4s2.651.791,2.967,1.467c.552,1.18-1.461,4.124-3.163,6.4-.851,1.137-1.741,2.612-2.57,3.725S103.37,70.749,102.762,70.437Z" transform="translate(-32.385 -49.605)"/><path class="cls-18" d="M106.094,71.835c-.606-.37-.286-1.757.317-3.345s1.487-3.376,2.01-4.549c1.275-2.859,2.2-5.944,3.848-5.347s2.687,1.026,2.963,1.751c.481,1.266-1.835,4.162-3.776,6.389-.97,1.113-2.008,2.573-2.954,3.663S106.7,72.2,106.094,71.835Z" transform="translate(-32.385 -49.605)"/><path class="cls-19" d="M109.961,72.957c-.6-.429-.172-1.85.57-3.459s1.195-2.912,1.823-4.1c1.532-2.885,2.719-6.03,4.39-5.29s2.724,1.261,2.959,2.036c.41,1.353-2.209,4.2-4.389,6.38-1.09,1.089-1.679,2.04-2.742,3.106S110.566,73.386,109.961,72.957Z" transform="translate(-32.385 -49.605)"/><path class="cls-20" d="M114,74.425c-.6-.488-.057-1.942.823-3.573s1.3-2.642,2.032-3.836c1.789-2.911,3.236-6.116,4.931-5.233s2.76,1.5,2.954,2.32c.339,1.439-2.583,4.24-5,6.371-1.21,1.065-1.745,1.7-2.926,2.742S114.606,74.912,114,74.425Z" transform="translate(-32.385 -49.605)"/><path class="cls-21" d="M121.089,70.133c2.047-2.936,3.753-6.2,5.472-5.175s2.8,1.731,2.95,2.6c.268,1.526-2.957,4.279-5.616,6.361-1.329,1.041-1.573.913-2.871,1.932s-2.413,1.642-3.014,1.1.057-2.035,1.076-3.688S120.249,71.337,121.089,70.133Z" transform="translate(-32.385 -49.605)"/><path class="cls-22" d="M80.4,110.568a6.657,6.657,0,0,0,3.927-1.635,8.9,8.9,0,0,1,2.557-1.711s3.9,6.924,12.384,3.448c0,0,5.864,4.534,5.745,11.468s-1.23,11.731-5.836,14.711-4.838,3.009-8.127,2.927-8.446-3.184-11.9-4.629-5.46,1.547-7.912-.907-1.008-4.225-.418-7.943c.5-3.18-.735-7.368-4.88-8.846-2.438-.869-3.681-3.052-4.8-8.822s-4.581-5.7-5-7.286-.329-3.858-1.367-4.1-.425-2.336,1.4-3.827,2.48-4.217,3.343-5.334.344-4.2,3.53-4.855,5.081-2.391,5.321-6.594c.147-2.565,8.066-10.085,12.969-13.423,4.33-2.948,4.016-3.05,17.253-1.4,8.857,1.1,23.75,7.165,32.419,14.475C139.9,83.772,145,94.11,140.848,89.337c-.661-.76-2.065.408-2.565,2.505-1.052,4.415-3.227,6.443-3.46,11.609-.357,7.9-2.875,9.015-3.382-2.881-.056-1.325-2.294-13.62-8.116-15.231-2.516-.7,3.2,4.355,2.8,12.079s-4.764,1.113-5.229-4.489-4.636-2.8-7.024,1.15-7.549,6.386-9.352,6.8-2.343,2.748-3.935,5.216-9.512,4.181-12.7.59c0,0-6.684.264-8.326-2.613A7.664,7.664,0,0,1,80.4,110.568Z" transform="translate(-32.385 -49.605)"/><path class="cls-23" d="M96.871,138.308c4.435-1.085,9.154-3.706,8.139-16.17s-11.921-7.16-15.1-6.893-6.723,3.094-9.111,2.98-6.595-.268-7.3,2.96,2.164,7.471,3.556,9.244c3.782,4.82,2.084,3.928,7.3,5.593C90.135,137.866,88.383,140.383,96.871,138.308Z" transform="translate(-32.385 -49.605)"/><g id="EYE" class="cls-24"><path class="cls-25" d="M75.591,123.314a4.551,4.551,0,0,0,1.611,4,4.1,4.1,0,0,0,3.313.844,4.174,4.174,0,0,0,2.765-1.728,4.706,4.706,0,0,0,.581-2.838,3.249,3.249,0,0,0-.833-1.83,4.989,4.989,0,0,0-4.39-1.342A3.91,3.91,0,0,0,75.591,123.314Z" transform="translate(-32.385 -49.605)"/><path class="cls-26" d="M75.6,123.419a4.551,4.551,0,0,0,1.611,4,4.1,4.1,0,0,0,3.313.844,4.174,4.174,0,0,0,2.765-1.728,4.706,4.706,0,0,0,.581-2.838,3.249,3.249,0,0,0-.833-1.83,4.989,4.989,0,0,0-4.39-1.342A3.91,3.91,0,0,0,75.6,123.419Zm6.933-1.084c1.035,1.116.523,2.779-.03,3.705a3.434,3.434,0,0,1-2.272,1.355,3.092,3.092,0,0,1-3.08-3.7A2.177,2.177,0,0,1,79.075,122C80.175,121.685,81.687,121.475,82.537,122.335Z" transform="translate(-32.385 -49.605)"/><path class="cls-27" d="M83.874,123.7a4.706,4.706,0,0,1-.581,2.838,4.174,4.174,0,0,1-2.765,1.728,4.1,4.1,0,0,1-3.313-.844,4.551,4.551,0,0,1-1.611-4,4.111,4.111,0,0,1,3.046-2.893.747.747,0,0,1,.809.583c.027.2.188.762-.384.894a2.177,2.177,0,0,0-1.921,1.694,3.092,3.092,0,0,0,3.08,3.7,3.434,3.434,0,0,0,2.272-1.355c.554-.926,1.065-2.589.03-3.705a.343.343,0,0,1,.5-.467A3.249,3.249,0,0,1,83.874,123.7Z" transform="translate(-32.385 -49.605)"/></g><path class="cls-28" d="M130.409,87.519c.988-2.193,1.188-8.054-13.162-16.2s-22.665-7.358-27.287-6.49-11.2.463-14.694,5.623-2.6,6.682-4.66,9.038-1.118,3.178-2.257,4.031-4.006.111-.45,2.983,4.6,2.391,5.656,5.2,2.285,7.117,5.708,9.992,8.061,2.282,9.7,2.072-.861,3.021,5.123,2.117,6.177-2.454,6.747-4.052.176-3.6,1.761-3.123,6.528-.988,9-5.463,5.75-4.894,6.88-3.653,2.7,2.7,4.388,1.8-.237-5.1-.237-5.1a4.6,4.6,0,0,0,3,.725C128.789,86.2,129.657,89.188,130.409,87.519Z" transform="translate(-32.385 -49.605)"/><path class="cls-29" d="M100.786,77.5c2.546.248,12.524,5.421,7.687,13.117S97.1,96.283,96.011,95.437s-2.566,4.449-7.061,5.024-6.886.791-9.565-3.345-.874-12.16,5.35-15.107S100.786,77.5,100.786,77.5Z" transform="translate(-32.385 -49.605)"/><path class="cls-30" d="M83.094,69.178c5.505-1.094,16.955-4.626,17.909,4.2s-6.622,12.15-10.795,11.116c-4.1-1.017-5.546-3.059-5.546-3.059s-1.9,1.12-6.228-.256-5.576-3.673-4.9-5.515S74.713,70.844,83.094,69.178Z" transform="translate(-32.385 -49.605)"/><path class="cls-31" d="M83.128,77.89a7.326,7.326,0,0,0,1.534,3.546" transform="translate(-32.385 -49.605)"/><path class="cls-32" d="M100.276,110.5c4.454,2.3,5.074,8.17,5.649,10.865s1.1,11.407-5.074,15.427-6.438,6.148-7.509,8.593-6.825,5.967-8.211,7.76-12.763,7.142-18.531,5.342-9.369-3.908-11.708-7.762-4-8.157-7.037-10.243-6.75-10.812-7.3-13.28-2.674-11.886-3.826-17.276S32.78,98.525,32.416,90.266s2.468-18.639,10.579-23.359c8.766-5.1,20.182-9.966,26.673-13.334s25.864-7.515,48.457,1.361,33.921,21.824,35.764,33.358c2.186,13.675-6.936,28.656-19.542,28.991-3.1.082-7.779,3.016-6.736,6.861.866,3.195-3.782.691-2.587-2.726a6.4,6.4,0,0,1-2.069,1.465c-1.02.362-1.205,1.695-1.633,1.749-1.135.145-6-.992-8.889-7.314s-4.306-6.6-3.717-9.215c0,0-2.107-2.038-1.373-3.516l-1.541-.436a9.968,9.968,0,0,1-1.952,3.32A19.106,19.106,0,0,1,100.276,110.5Z" transform="translate(-32.385 -49.605)"/></g></svg>