<svg id="Layer_1" data-name="Layer 1" xmlns="http://www.w3.org/2000/svg" viewBox="0 0 48.741 171.468"><defs><style>.cls-1{fill:#fff;}.cls-1,.cls-2,.cls-3{stroke:#0f82bc;stroke-linecap:round;stroke-linejoin:round;}.cls-2,.cls-3{fill:none;}.cls-3{stroke-width:0.5px;}</style></defs><title>woman</title><g id="BODY"><path class="cls-1" d="M103.621,34.783a9.046,9.046,0,0,0,2.036-4.589c1.095.482,1.927-4.2,1.751-4.948s-1.051-.219-1.051-.219C107.54,17.583,102.811,15,98.914,15s-8.05,3.434-6.743,10.377c0,0-.919-1.4-1.4-.394s.744,6.524,2.1,4.948c0,0,.876,3.678,1.97,4.466l.235.171h0c-.023,2.111.428,4.882-3.183,5.583-4.007.778-4.8.293-6.37,1.017a6.966,6.966,0,0,0-3.649,6.34c.06,2.931.329,8.762.179,11.424s-.807,6.49-.9,8.912a32.858,32.858,0,0,1-1.406,7.716,62.5,62.5,0,0,0-1.5,13.757c0,4.755-.09,6.52-.628,7.955s-1.136,3.2-1.525,4.247-.748,1.2-.478,2.392.12,2.183.508,2.991.389,1.735.927,2.243,1.944,1.735,2.333,1.7.419-.568.419-.568a.686.686,0,0,0,.018-1.189s.461-.486-.406-1.712l-.09-.568s.457.655.913.538c.54-.139.762-.627.672-2.452s-.239-2.153.09-2.871.478-.807.449-3.349a20.688,20.688,0,0,1,.837-6.878c.748-2.482,3.5-8.7,4.426-14.8a34.922,34.922,0,0,0,.449-8.613,21.575,21.575,0,0,1,.819-3.967c.137,1.247.293,2.941.377,4.753.169,3.654.594,7.268,0,8.833s-2.521,4.216-3.525,9.8-2.369,11.443-1.847,16.181,1.686,8.151,3.132,17.346,2.24,13.973,2.545,15.94-.819,5.059-.3,10.44A111.656,111.656,0,0,0,91.5,165.613c1.767,6.786,1.405,9.877,1.365,10.8s.763,1.686.562,2.53a37.908,37.908,0,0,1-1.566,4.7c-.4.763-.562,1.727.522,1.445,0,0,.868.341,1.076.05,0,0,.931.526,1.373.117a1.3,1.3,0,0,0,1.646-.208,1.48,1.48,0,0,0,1.164.42c.8-.018,1.2-.179,1.325-.781,0,0,.964-.562,0-3.172a4.433,4.433,0,0,0,.241-1.606c0-1.044-.6-2.088-.6-2.931s.321-.964.321-1.646-.723-2.208-1-3.614.2-11.082.482-15.218.723-7.749-.321-11.564-.04-7.428.12-9.195-.281-16.021-.482-19.153.6-8.914.642-10.319a25.882,25.882,0,0,0-.562-4.256s-.015-.522,1.593-.522,1.593.522,1.593.522a25.882,25.882,0,0,0-.562,4.256c.04,1.405.843,7.187.642,10.319s-.642,17.386-.482,19.153,1.164,5.38.12,9.195-.6,7.428-.321,11.564.763,13.812.482,15.218-1,2.931-1,3.614.321.8.321,1.646-.6,1.887-.6,2.931a4.433,4.433,0,0,0,.241,1.606c-.964,2.61,0,3.172,0,3.172.12.6.522.763,1.325.781a1.48,1.48,0,0,0,1.164-.42,1.3,1.3,0,0,0,1.646.208c.442.408,1.373-.117,1.373-.117.209.291,1.076-.05,1.076-.05,1.084.281.924-.683.522-1.445a37.908,37.908,0,0,1-1.566-4.7c-.2-.843.6-1.606.562-2.53s-.4-4.015,1.365-10.8a111.656,111.656,0,0,0,3.132-17.908c.522-5.38-.6-8.472-.3-10.44s1.1-6.746,2.545-15.94,2.61-12.608,3.132-17.346-.843-10.6-1.847-16.181-2.931-8.231-3.525-9.8-.169-5.18,0-8.833c.084-1.812.241-3.505.377-4.752h0a21.575,21.575,0,0,1,.819,3.967,34.922,34.922,0,0,0,.449,8.613c.927,6.1,3.678,12.321,4.426,14.8a20.688,20.688,0,0,1,.837,6.878c-.03,2.542.12,2.632.449,3.349s.179,1.047.09,2.871.131,2.312.672,2.452c.456.118.913-.538.913-.538l-.09.568c-.867,1.226-.406,1.712-.406,1.712a.686.686,0,0,0,.018,1.189s.03.538.419.568,1.794-1.2,2.333-1.7.538-1.435.927-2.243.239-1.794.508-2.991-.09-1.346-.478-2.392-.987-2.811-1.525-4.247-.628-3.2-.628-7.955a62.5,62.5,0,0,0-1.5-13.757,32.858,32.858,0,0,1-1.406-7.716c-.09-2.422-.748-6.25-.9-8.912s.12-8.493.179-11.424a6.966,6.966,0,0,0-3.649-6.34c-1.569-.724-2.363-.239-6.37-1.017-3.506-.68-3.249-3.314-3.29-5.369Z" transform="translate(-75.031 -14.5)"/><path class="cls-2" d="M92.872,29.931s.876,3.678,1.97,4.466,2.977,2.321,4.641,2.321c.525,0,1.62.088,3.69-1.532s2.484-4.991,2.484-4.991c1.095.482,1.927-4.2,1.751-4.948s-1.051-.219-1.051-.219C107.54,17.583,102.811,15,98.914,15s-8.05,3.434-6.743,10.377c0,0-.919-1.4-1.4-.394S91.515,31.507,92.872,29.931Z" transform="translate(-75.031 -14.5)"/><path class="cls-3" d="M95.458,26.233a2.349,2.349,0,0,0,2.176.1" transform="translate(-75.031 -14.5)"/><path class="cls-3" d="M103.486,26.233a2.349,2.349,0,0,1-2.176.1" transform="translate(-75.031 -14.5)"/><path class="cls-3" d="M98.6,30.182c.125-.09.5-.24.716,0a.691.691,0,0,0,.7.041c.241-.285.658-.187.676-.015" transform="translate(-75.031 -14.5)"/><path class="cls-3" d="M103.62,34.781c.041,2.055-.217,4.689,3.29,5.369,4.007.778,4.8.293,6.37,1.017a6.966,6.966,0,0,1,3.649,6.34c-.06,2.931-.329,8.762-.179,11.424s.807,6.49.9,8.912a32.858,32.858,0,0,0,1.406,7.716,62.5,62.5,0,0,1,1.5,13.757c0,4.755.09,6.52.628,7.955s1.136,3.2,1.525,4.247.748,1.2.478,2.392-.12,2.183-.508,2.991-.389,1.735-.927,2.243-1.944,1.735-2.333,1.7-.419-.568-.419-.568a.686.686,0,0,1-.018-1.189s-.461-.486.406-1.712l.09-.568s-.457.655-.913.538c-.54-.139-.762-.627-.672-2.452s.239-2.153-.09-2.871-.478-.807-.449-3.349a20.688,20.688,0,0,0-.837-6.878c-.748-2.482-3.5-8.7-4.426-14.8a34.922,34.922,0,0,1-.449-8.613,21.575,21.575,0,0,0-.819-3.967" transform="translate(-75.031 -14.5)"/><path class="cls-2" d="M111.273,46.442c0,1.526-1.124,3.895-.763,5.5s3.08,6.533.562,10.4c-2.781,4.27-9.523-1.287-9.523-1.287" transform="translate(-75.031 -14.5)"/><path class="cls-3" d="M95.077,34.567c-.023,2.111.428,4.882-3.183,5.583-4.007.778-4.8.293-6.37,1.017a6.966,6.966,0,0,0-3.649,6.34c.06,2.931.329,8.762.179,11.424s-.807,6.49-.9,8.912a32.858,32.858,0,0,1-1.406,7.716,62.5,62.5,0,0,0-1.5,13.757c0,4.755-.09,6.52-.628,7.955s-1.136,3.2-1.525,4.247-.748,1.2-.478,2.392.12,2.183.508,2.991.389,1.735.927,2.243,1.944,1.735,2.333,1.7.419-.568.419-.568a.686.686,0,0,0,.018-1.189s.461-.486-.406-1.712l-.09-.568s.457.655.913.538c.54-.139.762-.627.672-2.452s-.239-2.153.09-2.871.478-.807.449-3.349a20.688,20.688,0,0,1,.837-6.878c.748-2.482,3.5-8.7,4.426-14.8a34.922,34.922,0,0,0,.449-8.613,21.575,21.575,0,0,1,.819-3.967" transform="translate(-75.031 -14.5)"/><path class="cls-2" d="M87.731,62.342s.464,3.172.634,6.826.594,7.268,0,8.833-2.521,4.216-3.525,9.8-2.369,11.443-1.847,16.181,1.686,8.151,3.132,17.346,2.24,13.973,2.545,15.94-.819,5.059-.3,10.44A111.656,111.656,0,0,0,91.5,165.613c1.767,6.786,1.405,9.877,1.365,10.8s.763,1.686.562,2.53a37.908,37.908,0,0,1-1.566,4.7c-.4.763-.562,1.727.522,1.445,0,0,.868.341,1.076.05,0,0,.931.526,1.373.117a1.3,1.3,0,0,0,1.646-.208,1.48,1.48,0,0,0,1.164.42c.8-.018,1.2-.179,1.325-.781,0,0,.964-.562,0-3.172a4.433,4.433,0,0,0,.241-1.606c0-1.044-.6-2.088-.6-2.931s.321-.964.321-1.646-.723-2.208-1-3.614.2-11.082.482-15.218.723-7.749-.321-11.564-.04-7.428.12-9.195-.281-16.021-.482-19.153.6-8.914.642-10.319a25.882,25.882,0,0,0-.562-4.256s-.015-.522,1.593-.522,1.593.522,1.593.522a25.882,25.882,0,0,0-.562,4.256c.04,1.405.843,7.187.642,10.319s-.642,17.386-.482,19.153,1.164,5.38.12,9.195-.6,7.428-.321,11.564.763,13.812.482,15.218-1,2.931-1,3.614.321.8.321,1.646-.6,1.887-.6,2.931a4.433,4.433,0,0,0,.241,1.606c-.964,2.61,0,3.172,0,3.172.12.6.522.763,1.325.781a1.48,1.48,0,0,0,1.164-.42,1.3,1.3,0,0,0,1.646.208c.442.408,1.373-.117,1.373-.117.209.291,1.076-.05,1.076-.05,1.084.281.924-.683.522-1.445a37.908,37.908,0,0,1-1.566-4.7c-.2-.843.6-1.606.562-2.53s-.4-4.015,1.365-10.8a111.656,111.656,0,0,0,3.132-17.908c.522-5.38-.6-8.472-.3-10.44s1.1-6.746,2.545-15.94,2.61-12.608,3.132-17.346-.843-10.6-1.847-16.181-2.931-8.231-3.525-9.8-.169-5.18,0-8.833.634-6.826.634-6.826" transform="translate(-75.031 -14.5)"/><path class="cls-2" d="M87.53,46.442c0,1.526,1.124,3.895.763,5.5s-3.08,6.533-.562,10.4c2.781,4.27,9.523-1.287,9.523-1.287" transform="translate(-75.031 -14.5)"/><path class="cls-3" d="M99.4,79.651a.411.411,0,0,0,.174.726c.414,0,.628-.726.227-.726" transform="translate(-75.031 -14.5)"/><path class="cls-3" d="M97.919,32.629a5.836,5.836,0,0,1,1.206-.124,3.167,3.167,0,0,0,1.1.02,6.171,6.171,0,0,1,1.211.037" transform="translate(-75.031 -14.5)"/></g></svg>