<svg id="Layer_1" data-name="Layer 1" xmlns="http://www.w3.org/2000/svg" xmlns:xlink="http://www.w3.org/1999/xlink" viewBox="0 0 56.587 57"><defs><style>.cls-1{fill:url(#linear-gradient);}.cls-2,.cls-3,.cls-4,.cls-5,.cls-6,.cls-7,.cls-8{fill:none;stroke-linecap:round;stroke-linejoin:round;stroke-width:2px;}.cls-2{stroke:url(#linear-gradient-2);}.cls-3{stroke:url(#linear-gradient-4);}.cls-4{stroke:url(#linear-gradient-5);}.cls-5{stroke:url(#linear-gradient-6);}.cls-6{stroke:url(#linear-gradient-7);}.cls-7{stroke:url(#linear-gradient-8);}.cls-8{stroke:url(#linear-gradient-9);}</style><linearGradient id="linear-gradient" x1="100" y1="128.5" x2="100" y2="71.5" gradientUnits="userSpaceOnUse"><stop offset="0" stop-color="#133348"/><stop offset="1" stop-color="#138448"/></linearGradient><linearGradient id="linear-gradient-2" x1="2.087" y1="48.802" x2="2.087" y2="7.028" gradientUnits="userSpaceOnUse"><stop offset="0" stop-color="#fff" stop-opacity="0"/><stop offset="0.087" stop-color="#fdfffe" stop-opacity="0.021"/><stop offset="0.191" stop-color="#f8fdfb" stop-opacity="0.083"/><stop offset="0.303" stop-color="#f0fbf5" stop-opacity="0.185"/><stop offset="0.421" stop-color="#e4f8ed" stop-opacity="0.327"/><stop offset="0.543" stop-color="#d5f5e3" stop-opacity="0.51"/><stop offset="0.67" stop-color="#c2f0d7" stop-opacity="0.734"/><stop offset="0.797" stop-color="#adebc9" stop-opacity="0.994"/><stop offset="0.8" stop-color="#acebc9"/><stop offset="1" stop-color="#fff" stop-opacity="0"/></linearGradient><linearGradient id="linear-gradient-4" x1="10.352" y1="48.802" x2="10.352" y2="7.028" xlink:href="#linear-gradient-2"/><linearGradient id="linear-gradient-5" x1="18.617" y1="48.802" x2="18.617" y2="7.028" xlink:href="#linear-gradient-2"/><linearGradient id="linear-gradient-6" x1="26.882" y1="48.802" x2="26.882" y2="7.028" xlink:href="#linear-gradient-2"/><linearGradient id="linear-gradient-7" x1="35.147" y1="48.802" x2="35.147" y2="7.028" xlink:href="#linear-gradient-2"/><linearGradient id="linear-gradient-8" x1="43.412" y1="48.802" x2="43.412" y2="7.028" xlink:href="#linear-gradient-2"/><linearGradient id="linear-gradient-9" x1="51.677" y1="48.802" x2="51.677" y2="7.028" xlink:href="#linear-gradient-2"/></defs><title>WLS</title><g id="Wntless"><g id="BG"><path class="cls-1" d="M124.793,128.5a3.5,3.5,0,0,1-3.5-3.5V79.167a1.475,1.475,0,0,0-.208-.62,1.265,1.265,0,0,0-.424-.046,1.1,1.1,0,0,0-.441.059,1.613,1.613,0,0,0-.192.684v41.59a7.632,7.632,0,1,1-15.265,0V79.167a1.475,1.475,0,0,0-.208-.62,1.287,1.287,0,0,0-.424-.046.923.923,0,0,0-.335.041,2.324,2.324,0,0,0-.3.994v41.3a7.633,7.633,0,1,1-15.265,0V79.167a1.482,1.482,0,0,0-.208-.62A1.59,1.59,0,0,0,87.6,78.5a1.115,1.115,0,0,0-.441.059,1.641,1.641,0,0,0-.192.684v41.59a7.632,7.632,0,1,1-15.265,0V75a3.5,3.5,0,0,1,7,0v45.833a1.482,1.482,0,0,0,.208.62h0a1.521,1.521,0,0,0,.424.047,1.131,1.131,0,0,0,.441-.059,1.938,1.938,0,0,0,.191-.608V79.167a7.632,7.632,0,1,1,15.264,0v41.667a1.482,1.482,0,0,0,.208.62h0a1.521,1.521,0,0,0,.424.047,1.131,1.131,0,0,0,.441-.059,1.938,1.938,0,0,0,.191-.608v-41.3c0-3.229,2.033-8.035,7.632-8.035a7.493,7.493,0,0,1,7.632,7.667v41.667a1.475,1.475,0,0,0,.208.62,1.265,1.265,0,0,0,.425.047,1.125,1.125,0,0,0,.44-.059,1.635,1.635,0,0,0,.192-.685V79.167a7.632,7.632,0,1,1,15.265,0V125A3.5,3.5,0,0,1,124.793,128.5Zm-45.877-7.045h0Z" transform="translate(-71.707 -71.5)"/></g><line class="cls-2" x1="2.087" y1="8.028" x2="2.087" y2="47.802"/><line class="cls-2" x1="2.087" y1="8.028" x2="2.087" y2="47.802"/><line class="cls-3" x1="10.352" y1="8.028" x2="10.352" y2="47.802"/><line class="cls-4" x1="18.617" y1="8.028" x2="18.617" y2="47.802"/><line class="cls-5" x1="26.882" y1="8.028" x2="26.882" y2="47.802"/><line class="cls-6" x1="35.147" y1="8.028" x2="35.147" y2="47.802"/><line class="cls-7" x1="43.412" y1="8.028" x2="43.412" y2="47.802"/><line class="cls-8" x1="51.677" y1="8.028" x2="51.677" y2="47.802"/></g></svg>