<svg id="Layer_1" data-name="Layer 1" xmlns="http://www.w3.org/2000/svg" xmlns:xlink="http://www.w3.org/1999/xlink" viewBox="0 0 128.748 122.34"><defs><style>.cls-1{fill:url(#radial-gradient);}.cls-2{fill:#272e87;}.cls-3{fill:url(#radial-gradient-2);}.cls-4{fill:#c67d92;}</style><radialGradient id="radial-gradient" cx="79.334" cy="114.586" r="60.942" gradientTransform="matrix(1, 0, 0, -1.386, 0, 244.341)" gradientUnits="userSpaceOnUse"><stop offset="0.001" stop-color="#ffd1dc"/><stop offset="0.043" stop-color="#ebc7d8"/><stop offset="0.137" stop-color="#c5b2cf"/><stop offset="0.238" stop-color="#a4a1c7"/><stop offset="0.347" stop-color="#8993c1"/><stop offset="0.464" stop-color="#7488bd"/><stop offset="0.595" stop-color="#6580ba"/><stop offset="0.752" stop-color="#5d7bb8"/><stop offset="1" stop-color="#5a7ab7"/></radialGradient><radialGradient id="radial-gradient-2" cx="111.706" cy="85.842" r="14.24" gradientTransform="matrix(1, 0, 0, -1.386, -35.626, 207.356)" gradientUnits="userSpaceOnUse"><stop offset="0.001" stop-color="#ffd1dc"/><stop offset="0.049" stop-color="#f4c0cc"/><stop offset="0.159" stop-color="#dea0ad"/><stop offset="0.279" stop-color="#cb8594"/><stop offset="0.408" stop-color="#bd7080"/><stop offset="0.553" stop-color="#b46173"/><stop offset="0.726" stop-color="#ae596a"/><stop offset="1" stop-color="#ac5668"/></radialGradient></defs><title>Immature_T_cell</title><g id="Immature_T_cell"><path class="cls-1" d="M162.909,98.29c0,5.09-1.56,14.7-1.74,19.58-.58,15.06-7.58,15.03-15.5,23.06-6.92,7-13.41,9.68-22.98,12.84-6.22,2.06-18.17,5.09-25.09,5.09-7.49,0-16.84,2.4-23.5,0-8.78-3.16-12.18-9.68-18.66-16.14-7.42-7.39-10.01-6.62-13.02-16.95-1.64-5.61-5.51-19.54-5.51-25.67,0-13.35,5.16-21.4,12.24-31.59,4.34-6.24,8.77-12.98,15.02-17.3,5.16-3.56,11.8-4.17,17.92-6.07,5.92-1.84,11.29-5.03,17.81-5.03,9.16,0,17.86,4.95,25.71,8.47,5.87,2.63,11.26,3.13,16.02,7.33,8.29,7.33,11.06,11.54,14.58,22.29C158.249,84.36,162.909,91.44,162.909,98.29Z" transform="translate(-35.626 -38.83)"/><path id="MEMBRANE" class="cls-2" d="M164.249,95.43A20.128,20.128,0,0,0,163,90.97a24.694,24.694,0,0,0-2-4.06,26.794,26.794,0,0,1-1.93-3.83,22.805,22.805,0,0,1-.84-2.85c-.11-.43-.21-.86-.33-1.28a27.48,27.48,0,0,0-1.5-4.17,19.7,19.7,0,0,0-2.21-3.82,14.741,14.741,0,0,0-1.95-5.73,16.579,16.579,0,0,0-1.87-2.44,14.288,14.288,0,0,0-2.28-2.09,13.864,13.864,0,0,1-2.11-1.89,11.317,11.317,0,0,1-.89-1.2c-.27-.39-.54-.8-.87-1.19a9.933,9.933,0,0,0-5.15-3.18,11.245,11.245,0,0,0-4.33-3.02,16.973,16.973,0,0,0-2.5-.74,16.2,16.2,0,0,0-2.58-.44,6.544,6.544,0,0,1-2.26-.62,6.877,6.877,0,0,1-1.21-.83c-.26-.21-.53-.42-.81-.61a9.955,9.955,0,0,0-2.44-1.07,10.111,10.111,0,0,0-2.52-.46,28.644,28.644,0,0,0-6.67-3.94,27.033,27.033,0,0,0-3.79-1.2,19.442,19.442,0,0,0-3.97-.62c-1.26-.08-2.56-.17-3.84-.33-.43-.06-.86-.13-1.3-.21a16.781,16.781,0,0,0-2.68-.32,12.4,12.4,0,0,0-4.07.74,13.88,13.88,0,0,0-3.65,1.85.573.573,0,0,0-.11.11l-17.4,5.44a.8.8,0,0,0-.15-.03,15.014,15.014,0,0,0-6.43,1.22,13.426,13.426,0,0,0-2.84,1.75,13.727,13.727,0,0,0-2.35,2.3,19.443,19.443,0,0,1-2.08,2.21,14.041,14.041,0,0,1-1.18.9,15.4,15.4,0,0,0-1.32,1.01,12.424,12.424,0,0,0-2.05,2.54A12.572,12.572,0,0,0,53.2,61.7a25.825,25.825,0,0,0-4.35,4.54,29.022,29.022,0,0,0-1.72,2.67,23.1,23.1,0,0,0-1.47,2.87,13.819,13.819,0,0,1-1.47,2.65,13.038,13.038,0,0,1-1.05,1.24,14.38,14.38,0,0,0-1.01,1.17,12.926,12.926,0,0,0-1.55,2.92,11.7,11.7,0,0,0-.76,3.12,23.5,23.5,0,0,0-3.66,8.52,26.823,26.823,0,0,0-.51,4.68,24.318,24.318,0,0,0,.26,4.71c.09.55.18,1.1.28,1.64.17.98.34,1.9.44,2.86.09.72.13,1.48.17,2.21.04.77.08,1.57.18,2.35a26.533,26.533,0,0,0,1.09,4.5,25.407,25.407,0,0,0,1.75,4.21c.16,1.69.42,3.46.8,5.4a36.562,36.562,0,0,0,1.39,5.46,18.065,18.065,0,0,0,2.8,5.18,18.685,18.685,0,0,0,4.36,3.83,27.181,27.181,0,0,1,4.17,3.36,32.54,32.54,0,0,1,2.61,3.13c.26.35.53.7.8,1.04a52.64,52.64,0,0,0,3.69,4.1,24.7,24.7,0,0,0,4.25,3.54,15.027,15.027,0,0,0,5.18,5.02,15.942,15.942,0,0,0,3.4,1.43,11.965,11.965,0,0,0,3.72.56h.75c.94,0,1.82,0,2.72.08.52.04,1.03.13,1.58.22a17.36,17.36,0,0,0,1.92.24c.19.01.37.02.56.02a17.57,17.57,0,0,0,3.03-.33,16.437,16.437,0,0,0,3.35-.98c1.57.17,3.14.25,4.53.31l2.27.12c.84.05,1.66.02,2.45-.01a31.232,31.232,0,0,0,4.71-.7,33.839,33.839,0,0,0,4.57-1.25,36.688,36.688,0,0,1,4.41-1.23c.76-.16,1.56-.26,2.34-.35.75-.09,1.52-.19,2.28-.34a28.143,28.143,0,0,0,8.67-3.54,28.694,28.694,0,0,0,8.77-2.72,26.717,26.717,0,0,0,3.96-2.5,24.5,24.5,0,0,0,3.48-3.14l.58-.63c.85-.92,1.66-1.79,2.55-2.6a18.762,18.762,0,0,1,2.54-1.85c.35-.23.7-.45,1.05-.69a36.839,36.839,0,0,0,3.55-2.83,16.27,16.27,0,0,0,3.03-3.48,11.729,11.729,0,0,0,4.78-6.07,16.549,16.549,0,0,0,.78-3.81,17.469,17.469,0,0,0,0-3.83,14.132,14.132,0,0,1,.01-3.5,14.822,14.822,0,0,1,.49-2.05c.14-.48.28-.97.38-1.46a19.622,19.622,0,0,0,.36-3.71,17.318,17.318,0,0,0-.27-3.66,36.519,36.519,0,0,0,.94-4.26A14.567,14.567,0,0,0,164.249,95.43Zm-12.23,38.51a25.847,25.847,0,0,0-3.67,2.78c-.68.65-1.29,1.38-1.89,2.08-.39.46-.78.92-1.19,1.36a17.027,17.027,0,0,1-3.31,2.79l-3.74,2.34c-1.09.65-2.22,1.26-3.32,1.86l-.5.27c-.93.53-1.87,1.04-2.82,1.56-1.6.87-3.26,1.76-4.88,2.77a29.806,29.806,0,0,0-4.58.87,45.68,45.68,0,0,0-4.41,1.27c-.53.2-1.05.42-1.58.64a24.419,24.419,0,0,1-2.7,1.01,22.4,22.4,0,0,1-4.44.78c-1.72.13-3.23.28-4.59.44-1.07.12-2.14.21-3.21.31l-1.32.12c-.47.06-.94.1-1.4.13-.27.02-.54.04-.79.06-.89.06-1.67.14-2.38.25a29.433,29.433,0,0,0-4.52,1.03,17.451,17.451,0,0,0-3.46-.33,21.2,21.2,0,0,0-3.49.2c-.38.06-.75.14-1.13.22a12.36,12.36,0,0,1-2.19.33,9.023,9.023,0,0,1-3.17-.49c-1.1-.38-2.11-.81-3.03-1.21-.76-.34-1.51-.74-2.23-1.11l-.7-.37c-1.13-.55-2.21-1.16-3.36-1.8-.8-.45-1.62-.91-2.48-1.36-1.08-1.56-2.21-3.05-3.19-4.33a38.38,38.38,0,0,0-3.63-4.2c-.79-.76-1.65-1.46-2.49-2.13-.6-.48-1.19-.95-1.76-1.46-1.47-1.29-2.76-2.52-3.95-3.75a33.944,33.944,0,0,1-3.38-3.94,23.836,23.836,0,0,1-2.2-4.58c-.4-.97-.74-1.95-1.11-2.99-.24-.69-.48-1.37-.74-2.06-.68-1.84-1.36-3.49-2.09-5.02a31.646,31.646,0,0,0-.46-4.5,36.828,36.828,0,0,0-.96-4.46c-.16-.52-.33-1.03-.51-1.54a20.323,20.323,0,0,1-.81-2.73,15.031,15.031,0,0,1-.27-4.29l.54-4.41c.21-1.52.48-3.03.71-4.34.33-2.09.77-4.13,1.22-6.3.16-.76.32-1.53.48-2.3a18.769,18.769,0,0,0,1.9-2.46l.09-.13a17.491,17.491,0,0,0,1.49-2.61c.16-.37.29-.75.43-1.13a11.81,11.81,0,0,1,.72-1.73,11.5,11.5,0,0,1,1.81-2.37A26.465,26.465,0,0,0,49.5,70.6l.28-.35c.55-.69,1.12-1.4,1.63-2.17a25.991,25.991,0,0,0,2.8-5.6,16.707,16.707,0,0,0,2.33-1.99l.12-.12a16.553,16.553,0,0,0,1.92-2.23c.2-.3.39-.61.57-.92a10.343,10.343,0,0,1,1.09-1.59,8.609,8.609,0,0,1,2.27-1.79c.9-.49,1.78-.98,2.61-1.49.56-.32,1.13-.6,1.71-.88.29-.14.58-.29.88-.44.51-.28,1.04-.54,1.57-.81,1.25-.64,2.53-1.3,3.82-2.12a.426.426,0,0,0,.12-.11c1.13-.3,2.27-.58,3.41-.85,1.86-.45,3.78-.91,5.63-1.49,1.79-.56,3.56-1.25,5.27-1.91,1.05-.41,2.09-.82,3.14-1.2a.525.525,0,0,0,.18.02,28.78,28.78,0,0,0,3.04-.35l2.65-.39c.64-.07,1.27-.18,1.86-.29l.59-.11a13.086,13.086,0,0,1,3.04-.36,10.788,10.788,0,0,1,3.54.74l3.54,1.33c.53.2,1.05.41,1.58.62.64.26,1.28.52,1.94.75l.19.07a54.482,54.482,0,0,0,7.08,2.08,11.355,11.355,0,0,0,4.39,2.81,11.492,11.492,0,0,0,1.27.27,10.353,10.353,0,0,1,1.24.27,9.719,9.719,0,0,1,2.18,1.04,15.5,15.5,0,0,0,2.33,1.23l.33.14a20.631,20.631,0,0,0,2.04.81,37.946,37.946,0,0,0,4.75,1.17c.45.57.92,1.07,1.38,1.56l.56.6a14.164,14.164,0,0,0,2.08,1.91c.31.21.64.41.96.61a9.46,9.46,0,0,1,1.43.98,8.6,8.6,0,0,1,1.72,2.1c.52.9,1.02,1.71,1.53,2.47.22.33.43.67.64,1.01.29.46.57.92.89,1.37l.3.43a41.633,41.633,0,0,0,3.15,4.1c.23,1.42.56,2.74.94,4.18.19.7.39,1.4.6,2.08a15.213,15.213,0,0,0,.79,2.15,23.1,23.1,0,0,0,1.15,2.08c.37.61.71,1.19,1.01,1.8a23.062,23.062,0,0,1,1.51,3.98l1.17,4.14c.33,1.21.61,2.5.89,4.03l.06.41c.08.53.17,1.06.22,1.62a6.374,6.374,0,0,1,.05.99l.04,1.08a37.006,37.006,0,0,0,.39,4.27,20.258,20.258,0,0,0-1.03,3.48v.01a18.274,18.274,0,0,0-.47,3.69c0,.57.03,1.14.07,1.71a15.958,15.958,0,0,1,.06,1.94,22.282,22.282,0,0,1-.45,3.53l-.77,3.48c-.25,1.11-.58,2.2-.91,3.31a27.46,27.46,0,0,1-2.68,6.18C154.319,132.46,153.009,133.29,152.019,133.94Z" transform="translate(-35.626 -38.83)"/><g id="_Group_" data-name="&lt;Group&gt;"><circle class="cls-3" cx="80.779" cy="91.864" r="14.391"/><path class="cls-4" d="M116.4,145.706a15.018,15.018,0,1,1,15.018-15.018A15.037,15.037,0,0,1,116.4,145.706Zm0-28.776a13.765,13.765,0,1,0,13.765,13.765A13.78,13.78,0,0,0,116.4,116.929Z" transform="translate(-35.626 -38.83)"/></g></g></svg>