<svg id="Layer_1" data-name="Layer 1" xmlns="http://www.w3.org/2000/svg" xmlns:xlink="http://www.w3.org/1999/xlink" viewBox="0 0 65.147 22.943"><defs><style>.cls-1{fill:url(#linear-gradient);}.cls-2{fill:#ff9914;}.cls-3{font-size:12px;fill:#fff;font-family:Arial-BoldMT, Arial;font-weight:700;}</style><linearGradient id="linear-gradient" x1="32.864" y1="21.343" x2="32.864" y2="1.343" gradientUnits="userSpaceOnUse"><stop offset="0" stop-color="#ff9914"/><stop offset="1" stop-color="#8c5b00"/></linearGradient></defs><title>G-alpha-q</title><g id="G-alpha-q"><rect class="cls-1" x="1.364" y="1.343" width="63" height="20" rx="9.697" ry="9.697"/><path class="cls-2" d="M121.8,110.15c-6.221-.009-12.441.43-18.662.837-6.221.458-12.441.546-18.662.613H79.813c-.8-.01-1.487.022-2.45-.045a10.763,10.763,0,0,1-2.653-.548,11.192,11.192,0,0,1-7.15-7.494,11.065,11.065,0,0,1-.409-2.633c-.022-.468-.019-.849,0-1.245a13.028,13.028,0,0,1,.119-1.322,10.681,10.681,0,0,1,5.968-8.105A10.817,10.817,0,0,1,78.2,89.179c6.221.282,12.441.437,18.662.335,6.221-.084,12.441-.574,18.662-.762,1.555-.033,3.11-.093,4.666-.087.8,0,1.5-.033,2.431.028a10.4,10.4,0,0,1,2.6.527,10.566,10.566,0,0,1,6.781,7.4,10.285,10.285,0,0,1,.284,2.528c0,.435-.018.819-.052,1.212-.056.416-.068.834-.163,1.241a10.577,10.577,0,0,1-2,4.447,10.507,10.507,0,0,1-8.264,4.1Zm0-.3a8.995,8.995,0,0,0,7.634-4.241,8.814,8.814,0,0,0,1.326-4.171c.039-.36,0-.726,0-1.084-.016-.385-.048-.779-.1-1.119a9.027,9.027,0,0,0-.5-2.057,9.018,9.018,0,0,0-5.781-5.431,13.026,13.026,0,0,0-4.2-.411c-1.555.006-3.11-.055-4.666-.087-6.221-.188-12.441-.678-18.662-.762-6.221-.1-12.441.053-18.662.335a8.968,8.968,0,0,0-4.008,1.2,9.108,9.108,0,0,0-2.954,2.841A8.7,8.7,0,0,0,69.9,98.646c-.051.331-.023.67-.046,1,0,.382.012.778.042,1.086a8.272,8.272,0,0,0,.375,1.953,8.38,8.38,0,0,0,5.413,5.339,12.612,12.612,0,0,0,4.126.373h4.666c6.221.066,12.441.155,18.662.613C109.362,109.42,115.582,109.859,121.8,109.85Z" transform="translate(-67.136 -88.657)"/><text class="cls-3" transform="translate(4.864 14.656)">G-alpha-q</text></g></svg>