<svg id="Layer_1" data-name="Layer 1" xmlns="http://www.w3.org/2000/svg" xmlns:xlink="http://www.w3.org/1999/xlink" viewBox="0 0 69.064 22.951"><defs><style>.cls-1{fill:url(#linear-gradient);}.cls-2{fill:#ad84bc;}.cls-3{font-size:12px;fill:#fff;font-family:Arial-BoldMT, Arial;font-weight:700;}</style><linearGradient id="linear-gradient" x1="34.842" y1="21.351" x2="34.842" y2="1.351" gradientUnits="userSpaceOnUse"><stop offset="0" stop-color="#244765"/><stop offset="1" stop-color="#ad84bc"/></linearGradient></defs><title>CSNK1D,E</title><g id="CSNK1D_E" data-name="CSNK1D,E"><rect class="cls-1" x="1.342" y="1.351" width="67" height="20" rx="10" ry="10"/><path class="cls-2" d="M123.5,110.15c-6.532-.009-13.065.43-19.6.837-6.532.458-13.065.546-19.6.613h-4.9l-2.45,0c-.381.01-.874-.023-1.345-.056a14.039,14.039,0,0,1-1.4-.206,11.534,11.534,0,0,1-8.253-6.988,11.416,11.416,0,0,1-.723-5.471,11.536,11.536,0,0,1,1.978-5.1,11.045,11.045,0,0,1,4.1-3.494A11.189,11.189,0,0,1,76.5,89.179c6.532.261,13.065.449,19.6.335,3.266-.049,6.532-.194,9.8-.349l9.8-.413c1.633-.033,3.266-.093,4.9-.087l2.45-.012c.385-.014.865.02,1.326.052a13.806,13.806,0,0,1,1.373.2A10.767,10.767,0,0,1,134.1,101.06a11.167,11.167,0,0,1-1.983,4.712A10.819,10.819,0,0,1,123.5,110.15Zm0-.3a9.893,9.893,0,0,0,4.607-1.217,9.654,9.654,0,0,0,3.375-3.291,9.388,9.388,0,0,0,1.314-4.413,9.513,9.513,0,0,0-.925-4.372,9.395,9.395,0,0,0-6.653-5.065c-.353-.034-.7-.118-1.054-.119s-.69-.029-1.121-.026l-2.45-.012c-1.633.006-3.266-.055-4.9-.087l-9.8-.413c-3.266-.155-6.532-.3-9.8-.349-6.532-.114-13.065.074-19.6.335a9.34,9.34,0,0,0-4.219,1.266,9.833,9.833,0,0,0-3.094,3.02,9.02,9.02,0,0,0-1.319,4.029,9.138,9.138,0,0,0,.7,4.126,8.934,8.934,0,0,0,2.529,3.3,8.814,8.814,0,0,0,3.739,1.709c.343.032.679.115,1.024.115s.667.029,1.1.022l2.45,0h4.9c6.532.066,13.065.155,19.6.613C110.435,109.42,116.968,109.859,123.5,109.85Z" transform="translate(-65.158 -88.649)"/><text class="cls-3" transform="translate(4.501 14.206)">CSNK1D,E</text></g></svg>