<svg id="Layer_1" data-name="Layer 1" xmlns="http://www.w3.org/2000/svg" xmlns:xlink="http://www.w3.org/1999/xlink" viewBox="0 0 136.122 149.573"><defs><style>.cls-1{fill:url(#linear-gradient);}.cls-2,.cls-5,.cls-6{stroke:#ff9343;stroke-linecap:round;stroke-linejoin:round;stroke-width:2px;}.cls-2{fill:url(#linear-gradient-2);}.cls-3{mask:url(#mask);}.cls-4{fill:url(#radial-gradient);}.cls-5{fill:url(#linear-gradient-3);}.cls-6{fill:url(#linear-gradient-4);}</style><linearGradient id="linear-gradient" x1="99.312" y1="83.03" x2="99.312" y2="23.204" gradientUnits="userSpaceOnUse"><stop offset="0.262" stop-color="#0a0a0a"/><stop offset="1" stop-color="#fff"/></linearGradient><linearGradient id="linear-gradient-2" x1="99.697" y1="170.81" x2="99.697" y2="24.787" gradientUnits="userSpaceOnUse"><stop offset="0" stop-color="#fff4a9"/><stop offset="0.774" stop-color="#ff9343"/></linearGradient><mask id="mask" x="5.362" y="-0.482" width="127.782" height="59.826" maskUnits="userSpaceOnUse"><g transform="translate(-30.054 -23.686)"><rect class="cls-1" x="36.6" y="23.204" width="125.426" height="59.826"/></g></mask><radialGradient id="radial-gradient" cx="56.899" cy="41.475" r="51.298" gradientTransform="translate(30.163 29.481) scale(1.22 0.556)" gradientUnits="userSpaceOnUse"><stop offset="0" stop-color="#ff9343"/><stop offset="0.595" stop-color="#fff4a9"/><stop offset="1" stop-color="#ff9343"/></radialGradient><linearGradient id="linear-gradient-3" x1="55.123" y1="170.629" x2="55.123" y2="31.388" gradientUnits="userSpaceOnUse"><stop offset="0" stop-color="#fff4a9"/><stop offset="1" stop-color="#ff9343"/></linearGradient><linearGradient id="linear-gradient-4" x1="-321.823" y1="171.968" x2="-321.823" y2="28.746" gradientTransform="matrix(-1, 0, 0, 1, -178.505, 0)" xlink:href="#linear-gradient-3"/></defs><title>AQUAPORINS</title><g id="AQUAPORINS"><path class="cls-2" d="M162.649,50.126c-.012-.024-.03-.049-.043-.074C158.283,35.741,130.1,24.686,99.445,24.686c-33.323,0-64.029,13.061-64.029,29.172,0,0-2.708,115.631,16.895,116.614s22.931-17.759,48.625-17.759c34.528,0,28.175,19.563,48.616,19.545C161.8,172.248,166.851,58.7,162.649,50.126Z" transform="translate(-30.054 -23.686)"/><g class="cls-3"><path class="cls-4" d="M163.2,53.858c0-16.111-30.431-29.172-63.754-29.172S35.416,37.747,35.416,53.858,66.122,83.03,99.445,83.03,163.2,69.97,163.2,53.858Z" transform="translate(-30.054 -23.686)"/></g><path class="cls-5" d="M66.585,84.316c7-7,12.232-8.8,12.232-27.025s-20.4-16.969-24.174-16.969c-7.042,0-15.783-.607-19.354,11.665-3.358,11.537-4.235,23.462-4.235,50.705,0,61.626,4.735,67.938,28.408,67.938,17.578,0,20.415-11.223,19.606-21.876-.931-12.255-7.338-13.111-14.251-20.024s-9.755-8.906-9.755-21.737S60.213,90.688,66.585,84.316Z" transform="translate(-30.054 -23.686)"/><path class="cls-6" d="M129.186,150.22c5.226-6.015,9.576-12.691,4.016-21.49-4.853-7.679-9.563-8.906-9.563-21.737s3.125-14.629,8.235-21c5.767-7.192-.666-21.578-7.728-32.472s-.051-14.736,19.192-14.736c8.042,0,17.756,1.519,19.86,13.328,2.183,12.25,1.973,25.4,1.973,53.068,0,61.626-2.722,66.788-18.513,66.788C128.379,171.968,122.634,157.762,129.186,150.22Z" transform="translate(-30.054 -23.686)"/></g></svg>