<svg id="Layer_1" data-name="Layer 1" xmlns="http://www.w3.org/2000/svg" xmlns:xlink="http://www.w3.org/1999/xlink" viewBox="0 0 37.038 40.422"><defs><style>.cls-1{fill:url(#radial-gradient);}.cls-2{fill:url(#radial-gradient-2);}</style><radialGradient id="radial-gradient" cx="32.851" cy="709.402" r="16.223" gradientTransform="matrix(0.468, 0.884, 0.884, -0.468, -533.623, 390.036)" gradientUnits="userSpaceOnUse"><stop offset="0" stop-color="#e5ffcc"/><stop offset="0.044" stop-color="#e0efb0"/><stop offset="0.113" stop-color="#dada89"/><stop offset="0.182" stop-color="#d5c96b"/><stop offset="0.249" stop-color="#d2bd55"/><stop offset="0.314" stop-color="#d0b548"/><stop offset="0.374" stop-color="#cfb344"/><stop offset="0.39" stop-color="#c7ac42"/><stop offset="0.443" stop-color="#b1993b"/><stop offset="0.507" stop-color="#a08b35"/><stop offset="0.585" stop-color="#958032"/><stop offset="0.695" stop-color="#8e7b30"/><stop offset="1" stop-color="#8c792f"/></radialGradient><radialGradient id="radial-gradient-2" cx="31.942" cy="698.142" r="16.901" gradientTransform="matrix(0.468, 0.884, 0.884, -0.468, -533.623, 390.036)" gradientUnits="userSpaceOnUse"><stop offset="0" stop-color="#e5ffcc"/><stop offset="0.033" stop-color="#e5f6b8"/><stop offset="0.104" stop-color="#e5e591"/><stop offset="0.175" stop-color="#e5d873"/><stop offset="0.245" stop-color="#e5cf5d"/><stop offset="0.312" stop-color="#e5c950"/><stop offset="0.374" stop-color="#e5c74c"/><stop offset="0.427" stop-color="#d0b545"/><stop offset="0.492" stop-color="#bfa640"/><stop offset="0.573" stop-color="#b49c3c"/><stop offset="0.686" stop-color="#ad963a"/><stop offset="1" stop-color="#ab9439"/></radialGradient></defs><title>integrins_resting</title><g id="RESTING_INTEGRINS"><path class="cls-1" d="M95.9,90.7l6.3.4a6.96,6.96,0,0,0,5.8,4.6,6.926,6.926,0,0,0,1.2-13.8,7.1,7.1,0,0,0-6.3,2.9l-13.7-.7,6.4,31.7,4.4,1Z" transform="translate(-78.5 -81.878)"/><path class="cls-2" d="M85.2,96.3l6.6.3a6.892,6.892,0,1,0,6.8-9.8,7.3,7.3,0,0,0-6.7,3.4l-13.4-.6,6.4,31.7,4.4,1Z" transform="translate(-78.5 -81.878)"/></g></svg>