<svg id="Layer_1" data-name="Layer 1" xmlns="http://www.w3.org/2000/svg" viewBox="0 0 46.785 12.949"><defs><style>.cls-1{fill:#ed2b7c;}.cls-2{fill:#b2205d;}</style></defs><title>Mitochondrial_protein</title><g id="Mitochondrial_protein" data-name="Mitochondrial protein"><rect class="cls-1" x="1.269" y="1.347" width="45" height="10" rx="5" ry="5"/><path class="cls-2" d="M117.176,103.122c-4.224-.009-8.449.43-12.673.837-4.224.458-8.449.546-12.673.613-2.112,0-4.224.015-6.337-.033l-3.168-.066a6.85,6.85,0,0,1-1.981-.31,6.685,6.685,0,0,1-1.813-.918,6.361,6.361,0,0,1-2.33-3.211,6.135,6.135,0,0,1,.055-3.91,6.013,6.013,0,0,1,5.921-3.973c4.224.282,8.449.437,12.673.335,4.224-.084,8.449-.574,12.674-.762q3.168-.135,6.337-.081c1.056.02,2.112.072,3.168.139a5.919,5.919,0,0,1,3.531,1.3,5.811,5.811,0,0,1,1.959,3.051,5.737,5.737,0,0,1-.2,3.445A5.6,5.6,0,0,1,117.176,103.122Zm0-.3a4.528,4.528,0,0,0,4.405-3.478,4.236,4.236,0,0,0-4.553-5.182c-1.056.067-2.112.119-3.168.139q-3.168.059-6.337-.081c-4.225-.188-8.449-.678-12.674-.762-4.224-.1-8.449.053-12.673.335a4.085,4.085,0,0,0-3.624,3.052,3.78,3.78,0,0,0,1.595,4.07,3.618,3.618,0,0,0,2.177.556l3.168-.066c2.112-.048,4.224-.033,6.337-.033,4.224.066,8.449.155,12.673.613C108.727,102.392,112.951,102.831,117.176,102.822Z" transform="translate(-75.907 -91.626)"/></g></svg>