<svg id="Layer_1" data-name="Layer 1" xmlns="http://www.w3.org/2000/svg" xmlns:xlink="http://www.w3.org/1999/xlink" viewBox="0 0 56.199 108.161"><defs><style>.cls-1{fill:url(#linear-gradient);}.cls-2{fill:url(#linear-gradient-2);}.cls-3{fill:url(#linear-gradient-3);}.cls-4{fill:url(#linear-gradient-4);}.cls-5{mask:url(#mask);}.cls-6{fill:url(#radial-gradient);}.cls-7{fill:#6e6ec7;}.cls-8{fill:url(#linear-gradient-5);}.cls-9{fill:url(#linear-gradient-6);}.cls-10{mask:url(#mask-2);}.cls-11{fill:url(#radial-gradient-2);}</style><linearGradient id="linear-gradient" x1="-55.605" y1="-188.158" x2="-55.605" y2="-180.92" gradientTransform="matrix(-1, 0, 0, 1, 37.772, 334.576)" gradientUnits="userSpaceOnUse"><stop offset="0"/><stop offset="0.217" stop-color="#4a4a4a"/><stop offset="0.427" stop-color="#8b8b8b"/><stop offset="0.617" stop-color="#bdbdbd"/><stop offset="0.781" stop-color="#e1e1e1"/><stop offset="0.914" stop-color="#f7f7f7"/><stop offset="1" stop-color="#fff"/></linearGradient><linearGradient id="linear-gradient-2" x1="1087.54" y1="-188.158" x2="1087.54" y2="-180.92" gradientTransform="translate(-980.917 334.576)" xlink:href="#linear-gradient"/><linearGradient id="linear-gradient-3" x1="-59.716" y1="-219.115" x2="-51.493" y2="-219.115" gradientTransform="matrix(-1, 0, 0, 1, 37.772, 334.576)" gradientUnits="userSpaceOnUse"><stop offset="0" stop-color="#d2d2d2"/><stop offset="1" stop-color="#5b5b5b"/></linearGradient><linearGradient id="linear-gradient-4" x1="764.648" y1="-552.057" x2="772.899" y2="-552.057" gradientTransform="matrix(0.959, -0.553, -0.512, -0.887, -935.468, -0.95)" gradientUnits="userSpaceOnUse"><stop offset="0" stop-color="#5b5b5b"/><stop offset="1" stop-color="#d2d2d2"/></linearGradient><mask id="mask" x="17.365" y="100.479" width="8.223" height="7.181" maskUnits="userSpaceOnUse"><g transform="translate(-71.9 -45.92)"><path class="cls-1" d="M89.265,146.4v3.172a4.113,4.113,0,0,0,8.223,0V146.4"/></g></mask><radialGradient id="radial-gradient" cx="-55.817" cy="-193.091" r="5.631" gradientTransform="matrix(-1, 0, 0, 2.266, 37.772, 579.125)" gradientUnits="userSpaceOnUse"><stop offset="0" stop-color="#d2d2d2"/><stop offset="0.469" stop-color="#939393"/><stop offset="0.819" stop-color="#6a6a6a"/><stop offset="1" stop-color="#5b5b5b"/></radialGradient><linearGradient id="linear-gradient-5" x1="1083.428" y1="-219.115" x2="1091.652" y2="-219.115" gradientTransform="translate(-980.917 334.576)" xlink:href="#linear-gradient-3"/><linearGradient id="linear-gradient-6" x1="-129.788" y1="5.906" x2="-121.537" y2="5.906" gradientTransform="matrix(-0.959, -0.553, 0.512, -0.887, -7.677, -0.95)" xlink:href="#linear-gradient-4"/><mask id="mask-2" x="30.611" y="100.479" width="8.223" height="7.181" maskUnits="userSpaceOnUse"><g transform="translate(-71.9 -45.92)"><path class="cls-2" d="M110.735,146.4v3.172a4.113,4.113,0,0,1-8.223,0V146.4"/></g></mask><radialGradient id="radial-gradient-2" cx="1087.327" cy="-193.091" r="5.631" gradientTransform="translate(-980.917 579.125) scale(1 2.266)" xlink:href="#radial-gradient"/></defs><title>generic_receptor</title><g id="generic_receptor"><path class="cls-3" d="M93.377,153.58a4.112,4.112,0,0,1-4.112-4.112V81.282l8.223-3.939v72.126A4.112,4.112,0,0,1,93.377,153.58Z" transform="translate(-71.9 -45.92)"/><path class="cls-4" d="M74.767,47.073a4.391,4.391,0,0,1,6.047,1.372L96.837,76.152l.651,1.191-8.223,3.939L72.93,52.994A4.391,4.391,0,0,1,74.767,47.073Z" transform="translate(-71.9 -45.92)"/><g class="cls-5"><path class="cls-6" d="M89.265,146.4v3.172a4.113,4.113,0,0,0,8.223,0V146.4" transform="translate(-71.9 -45.92)"/></g><path class="cls-7" d="M93.384,154.08c-.152,0-.305-.007-.459-.022a4.744,4.744,0,0,1-4.16-4.767V81.866a1.681,1.681,0,0,0-.225-.839L72.5,53.244a4.523,4.523,0,0,1-.378-3.643,5.317,5.317,0,0,1,6.163-3.557,4.523,4.523,0,0,1,2.965,2.15L97.255,75.9a4.589,4.589,0,0,1,.733,2.471v71.1a4.624,4.624,0,0,1-1.511,3.414A4.559,4.559,0,0,1,93.384,154.08ZM77.165,46.92a4.3,4.3,0,0,0-2.147.586A4.213,4.213,0,0,0,73.074,49.9a3.536,3.536,0,0,0,.289,2.847L89.407,80.526a2.686,2.686,0,0,1,.358,1.339v67.426a3.737,3.737,0,0,0,3.255,3.771,3.613,3.613,0,0,0,3.969-3.595V78.37a3.6,3.6,0,0,0-.582-1.941l-.012-.02L80.381,48.695a3.536,3.536,0,0,0-2.32-1.675A4.047,4.047,0,0,0,77.165,46.92Z" transform="translate(-71.9 -45.92)"/><path class="cls-8" d="M106.623,153.58a4.112,4.112,0,0,0,4.112-4.112V81.282l-8.223-3.939v72.126A4.112,4.112,0,0,0,106.623,153.58Z" transform="translate(-71.9 -45.92)"/><path class="cls-9" d="M125.233,47.073a4.391,4.391,0,0,0-6.047,1.372L103.163,76.152l-.651,1.191,8.223,3.939L127.07,52.994A4.391,4.391,0,0,0,125.233,47.073Z" transform="translate(-71.9 -45.92)"/><g class="cls-10"><path class="cls-11" d="M110.735,146.4v3.172a4.113,4.113,0,0,1-8.223,0V146.4" transform="translate(-71.9 -45.92)"/></g><path class="cls-7" d="M103.522,152.882a4.624,4.624,0,0,1-1.511-3.414V78.37a4.589,4.589,0,0,1,.733-2.471l16.008-27.7a4.523,4.523,0,0,1,2.965-2.15,5.317,5.317,0,0,1,6.163,3.557,4.523,4.523,0,0,1-.378,3.643L111.46,81.026a1.681,1.681,0,0,0-.225.839v67.426a4.744,4.744,0,0,1-4.16,4.767c-.154.015-.307.022-.459.022A4.559,4.559,0,0,1,103.522,152.882ZM121.94,47.02a3.536,3.536,0,0,0-2.32,1.675L103.605,76.409l-.012.02a3.6,3.6,0,0,0-.582,1.941v71.1a3.613,3.613,0,0,0,3.969,3.595,3.737,3.737,0,0,0,3.255-3.771V81.866a2.686,2.686,0,0,1,.358-1.339l16.044-27.782a3.536,3.536,0,0,0,.289-2.847,4.213,4.213,0,0,0-1.944-2.392,4.3,4.3,0,0,0-2.147-.586A4.047,4.047,0,0,0,121.94,47.02Z" transform="translate(-71.9 -45.92)"/></g></svg>