<svg id="Layer_1" data-name="Layer 1" xmlns="http://www.w3.org/2000/svg" xmlns:xlink="http://www.w3.org/1999/xlink" viewBox="0 0 109.456 110.263"><defs><style>.cls-1{fill:#7a7ac1;stroke:#444463;stroke-miterlimit:10;stroke-width:2px;}.cls-2{fill:url(#radial-gradient);}.cls-3{fill:url(#radial-gradient-2);}.cls-4{fill:url(#radial-gradient-3);}.cls-5{fill:url(#radial-gradient-4);}.cls-6{fill:url(#radial-gradient-5);}.cls-7{fill:url(#radial-gradient-6);}.cls-8{fill:url(#radial-gradient-7);}</style><radialGradient id="radial-gradient" cx="-80.062" cy="948.536" r="5.374" gradientTransform="translate(168.769 -891.731)" gradientUnits="userSpaceOnUse"><stop offset="0" stop-color="#d8ba5d"/><stop offset="1" stop-color="#533be8"/></radialGradient><radialGradient id="radial-gradient-2" cx="-45.358" cy="958.362" r="5.374" gradientTransform="translate(169.107 -893.016)" xlink:href="#radial-gradient"/><radialGradient id="radial-gradient-3" cx="-27.17" cy="993.022" r="5.374" gradientTransform="translate(170.372 -893.71)" xlink:href="#radial-gradient"/><radialGradient id="radial-gradient-4" cx="-62.17" cy="1030.574" r="5.374" gradientTransform="translate(171.779 -892.446)" xlink:href="#radial-gradient"/><radialGradient id="radial-gradient-5" cx="-60.328" cy="980.602" r="5.374" gradientTransform="translate(169.937 -892.48)" xlink:href="#radial-gradient"/><radialGradient id="radial-gradient-6" cx="-47.101" cy="1005.651" r="5.374" gradientTransform="translate(170.85 -892.984)" xlink:href="#radial-gradient"/><radialGradient id="radial-gradient-7" cx="100.694" cy="106.823" r="34.699" gradientTransform="matrix(0.115, 0.993, -0.687, 0.08, 148.775, -4.592)" gradientUnits="userSpaceOnUse"><stop offset="0.248" stop-color="#261da0"/><stop offset="0.47" stop-color="#3628b9"/><stop offset="0.813" stop-color="#4b36db"/><stop offset="1" stop-color="#533be8"/></radialGradient></defs><title>monocyte</title><g id="monocyte"><path class="cls-1" d="M94.228,154.131c-8.117,0-12.16-2.712-19.048-6a53.393,53.393,0,0,1-12.952-8.257c-5.874-5.307-10.391-13.873-13.5-21.333-2.7-6.476-2.45-11.064-2.45-18.538a54.93,54.93,0,0,1,1.959-14.588c.881-3.2,3.24-6.608,4.657-9.541,1.323-2.737,1.67-5.018,3.411-7.471,6.813-9.6,12.811-16.411,24.256-19.862,4.823-1.454,15.545-2.669,20.833-2.669,6.779,0,12.2,3.162,18.167,5.5,7.813,3.065,13.967,4.484,19.5,10.667a67.352,67.352,0,0,1,11.5,18.333c2.386,6.143,3.167,17.33,3.167,24.333,0,10.113-3.909,17.235-8.667,25.333-3.886,6.615-8.712,9.958-14.913,14.357-5.844,4.146-9.02,7.141-16.254,8.643C110.422,153.759,97.91,154.131,94.228,154.131Z" transform="translate(-45.272 -44.869)"/><circle id="VACUOLE" class="cls-2" cx="89.713" cy="58.324" r="4.27" transform="translate(-47.359 -41.525) rotate(-2.111)"/><circle id="VACUOLE-2" data-name="VACUOLE" class="cls-3" cx="124.755" cy="66.865" r="4.27" transform="translate(-47.65 -40.228) rotate(-2.111)"/><circle id="VACUOLE-3" data-name="VACUOLE" class="cls-4" cx="144.207" cy="100.831" r="4.27" transform="translate(-48.888 -39.489) rotate(-2.111)"/><circle id="VACUOLE-4" data-name="VACUOLE" class="cls-5" cx="110.615" cy="139.647" r="4.27" transform="translate(-50.34 -40.7) rotate(-2.111)"/><circle id="VACUOLE-5" data-name="VACUOLE" class="cls-6" cx="110.615" cy="89.641" r="4.27" transform="translate(-48.499 -40.734) rotate(-2.111)"/><circle id="VACUOLE-6" data-name="VACUOLE" class="cls-7" cx="124.755" cy="114.186" r="4.27" transform="translate(-49.393 -40.196) rotate(-2.111)"/><path class="cls-8" d="M70.425,76.159c8.216-7.684,30.455-10.455,30.455,2.273S97.47,94.674,91.788,94.394s-10.227-.508-8.182,10.629,7.955,5.682,11.591,5.455,13.524,5,10.621,14.318c-1.232,3.955-12.254,16.626-23.348,12.045-18.717-7.727-16.363-20.037-17.126-35.27C64.867,92.037,62.163,83.886,70.425,76.159Z" transform="translate(-45.272 -44.869)"/></g></svg>