<svg id="Layer_1" data-name="Layer 1" xmlns="http://www.w3.org/2000/svg" xmlns:xlink="http://www.w3.org/1999/xlink" viewBox="0 0 96.452 184.861"><defs><style>.cls-1{fill:url(#radial-gradient);}.cls-2{fill:url(#linear-gradient);}.cls-3{fill:#0c3315;}.cls-4{fill:url(#radial-gradient-2);}.cls-5{fill:url(#linear-gradient-2);}.cls-6{fill:url(#radial-gradient-3);}.cls-7{fill:url(#linear-gradient-3);}.cls-8{fill:url(#radial-gradient-4);}.cls-9{fill:url(#linear-gradient-4);}</style><radialGradient id="radial-gradient" cx="42.413" cy="-511.69" r="35.934" gradientTransform="translate(154.537 -471.191) rotate(180)" gradientUnits="userSpaceOnUse"><stop offset="0.593" stop-color="#68da88"/><stop offset="1" stop-color="#164d25"/></radialGradient><linearGradient id="linear-gradient" x1="145.879" y1="799.862" x2="134.794" y2="799.862" gradientTransform="translate(-16.75 -673.191)" gradientUnits="userSpaceOnUse"><stop offset="0" stop-color="#164d25"/><stop offset="1" stop-color="#68da88"/></linearGradient><radialGradient id="radial-gradient-2" cx="92.643" cy="-515.655" r="28.631" gradientTransform="matrix(1, 0, 0, -1, 23.104, -471.191)" gradientUnits="userSpaceOnUse"><stop offset="0.698" stop-color="#243d4d"/><stop offset="0.999" stop-color="#3e9eda"/></radialGradient><linearGradient id="linear-gradient-2" x1="92.971" y1="784.861" x2="81.886" y2="784.861" gradientTransform="matrix(-1, 0, 0, 1, 194.391, -673.191)" gradientUnits="userSpaceOnUse"><stop offset="0" stop-color="#3e9eda"/><stop offset="1" stop-color="#243d4d"/></linearGradient><radialGradient id="radial-gradient-3" cx="42.361" cy="-495.787" r="27.825" gradientTransform="translate(128.609 -471.191) rotate(180)" gradientUnits="userSpaceOnUse"><stop offset="0.698" stop-color="#3e9eda"/><stop offset="1" stop-color="#243d4d"/></radialGradient><linearGradient id="linear-gradient-3" x1="137.732" y1="764.846" x2="126.648" y2="764.846" gradientTransform="translate(-42.679 -673.191)" gradientUnits="userSpaceOnUse"><stop offset="0" stop-color="#243d4d"/><stop offset="1" stop-color="#3e9eda"/></linearGradient><radialGradient id="radial-gradient-4" cx="87.795" cy="-491.765" r="35.865" gradientTransform="matrix(1, 0, 0, -1, -2.825, -471.191)" gradientUnits="userSpaceOnUse"><stop offset="0.661" stop-color="#164d25"/><stop offset="0.72" stop-color="#2a6f3d"/><stop offset="0.809" stop-color="#459d5d"/><stop offset="0.889" stop-color="#58be75"/><stop offset="0.955" stop-color="#64d383"/><stop offset="0.999" stop-color="#68da88"/></radialGradient><linearGradient id="linear-gradient-4" x1="101.118" y1="779.847" x2="90.033" y2="779.847" gradientTransform="matrix(-1, 0, 0, 1, 168.462, -673.191)" gradientUnits="userSpaceOnUse"><stop offset="0" stop-color="#68da88"/><stop offset="1" stop-color="#164d25"/></linearGradient></defs><title>IL6R</title><g id="IL6R"><g id="RIGHT"><path class="cls-1" d="M123.66,190.249a5.155,5.155,0,0,0,5.155-5.155V71.836a27.362,27.362,0,0,0,15.09-15.111,33.643,33.643,0,0,0-1.842-27.986,5.155,5.155,0,1,0-9.009,5.016c2.606,4.681,4.018,12.4,1.3,19.088-2.087,5.136-6.183,8.648-12.172,10.438a5.155,5.155,0,0,0-3.678,4.94V185.092A5.155,5.155,0,0,0,123.66,190.249Z" transform="translate(-50.011 -5.731)"/><path class="cls-2" d="M123.66,190.249a5.433,5.433,0,0,1-5.5-5.365V68.457a5.5,5.5,0,0,1,11,0V184.884A5.433,5.433,0,0,1,123.66,190.249Z" transform="translate(-50.011 -5.731)"/><path class="cls-3" d="M118.161,185.093V68.221a5.533,5.533,0,0,1,3.923-5.268c5.884-1.76,9.9-5.2,11.951-10.239,2.676-6.584,1.285-14.181-1.282-18.792a5.5,5.5,0,0,1,9.609-5.35,33.992,33.992,0,0,1,1.861,28.282,27.744,27.744,0,0,1-15.065,15.208V185.093a5.5,5.5,0,0,1-11,0ZM135.218,27.044a4.81,4.81,0,0,0-1.863,6.544c2.646,4.753,4.08,12.591,1.318,19.385-2.129,5.237-6.3,8.816-12.392,10.638a4.841,4.841,0,0,0-3.433,4.61V185.093a4.812,4.812,0,1,0,9.623,0V71.836a.344.344,0,0,1,.209-.316A27.09,27.09,0,0,0,143.587,56.6a33.278,33.278,0,0,0-1.824-27.689,4.8,4.8,0,0,0-6.545-1.862Z" transform="translate(-50.011 -5.731)"/></g><g id="LEFT"><path class="cls-4" d="M106.889,160.247a5.155,5.155,0,0,1-5.155-5.155V71.836a27.362,27.362,0,0,1-15.09-15.111,33.643,33.643,0,0,1,1.842-27.986,5.155,5.155,0,1,1,9.009,5.016c-2.606,4.681-4.018,12.4-1.3,19.088,2.087,5.136,6.183,8.648,12.172,10.438a5.155,5.155,0,0,1,3.678,4.94V155.09A5.155,5.155,0,0,1,106.889,160.247Z" transform="translate(-50.011 -5.731)"/><path class="cls-5" d="M106.889,160.247a5.433,5.433,0,0,0,5.5-5.365V68.457a5.5,5.5,0,0,0-11,0v86.425A5.433,5.433,0,0,0,106.889,160.247Z" transform="translate(-50.011 -5.731)"/><path class="cls-3" d="M106.889,160.59a5.506,5.506,0,0,1-5.5-5.5V72.063A27.744,27.744,0,0,1,86.325,56.855a33.992,33.992,0,0,1,1.861-28.282,5.5,5.5,0,0,1,9.609,5.35c-2.567,4.611-3.958,12.208-1.282,18.792,2.046,5.035,6.067,8.479,11.951,10.239a5.533,5.533,0,0,1,3.923,5.268v86.871A5.5,5.5,0,0,1,106.889,160.59ZM93,26.433a4.825,4.825,0,0,0-4.21,2.473A33.278,33.278,0,0,0,86.962,56.6,27.09,27.09,0,0,0,101.868,71.52a.344.344,0,0,1,.209.316v83.255a4.812,4.812,0,0,0,9.623,0V68.221a4.841,4.841,0,0,0-3.433-4.61c-6.093-1.822-10.263-5.4-12.392-10.638-2.762-6.793-1.328-14.631,1.318-19.385A4.817,4.817,0,0,0,93,26.433Z" transform="translate(-50.011 -5.731)"/></g></g><g id="IL6R-2" data-name="IL6R"><g id="RIGHT-2" data-name="RIGHT"><path class="cls-6" d="M89.585,140.232a5.155,5.155,0,0,0,5.155-5.155V51.821A27.362,27.362,0,0,0,109.83,36.71a33.643,33.643,0,0,0-1.842-27.986,5.155,5.155,0,1,0-9.009,5.016c2.606,4.681,4.018,12.4,1.3,19.088-2.087,5.136-6.183,8.648-12.172,10.438A5.155,5.155,0,0,0,84.43,48.2v86.871A5.155,5.155,0,0,0,89.585,140.232Z" transform="translate(-50.011 -5.731)"/><path class="cls-7" d="M89.585,140.232a5.433,5.433,0,0,1-5.5-5.365V48.442a5.5,5.5,0,0,1,11,0v86.425A5.433,5.433,0,0,1,89.585,140.232Z" transform="translate(-50.011 -5.731)"/><path class="cls-3" d="M84.086,135.077V48.206a5.533,5.533,0,0,1,3.923-5.268c5.884-1.76,9.9-5.2,11.951-10.239,2.676-6.584,1.285-14.181-1.282-18.792a5.5,5.5,0,0,1,9.609-5.35,33.992,33.992,0,0,1,1.861,28.282A27.744,27.744,0,0,1,95.084,52.048v83.029a5.5,5.5,0,0,1-11,0ZM101.143,7.03a4.81,4.81,0,0,0-1.863,6.544c2.646,4.753,4.08,12.591,1.318,19.385-2.129,5.237-6.3,8.816-12.392,10.638a4.841,4.841,0,0,0-3.433,4.61v86.871a4.812,4.812,0,0,0,9.623,0V51.821a.344.344,0,0,1,.209-.316,27.09,27.09,0,0,0,14.906-14.924,33.278,33.278,0,0,0-1.824-27.689,4.8,4.8,0,0,0-6.545-1.862Z" transform="translate(-50.011 -5.731)"/></g><g id="LEFT-2" data-name="LEFT"><path class="cls-8" d="M72.814,170.234a5.155,5.155,0,0,1-5.155-5.155V51.821A27.362,27.362,0,0,1,52.568,36.71,33.643,33.643,0,0,1,54.41,8.724a5.155,5.155,0,1,1,9.009,5.016c-2.606,4.681-4.018,12.4-1.3,19.088,2.087,5.136,6.183,8.648,12.172,10.438a5.155,5.155,0,0,1,3.678,4.94V165.077A5.155,5.155,0,0,1,72.814,170.234Z" transform="translate(-50.011 -5.731)"/><path class="cls-9" d="M72.814,170.234a5.433,5.433,0,0,0,5.5-5.365V48.442a5.5,5.5,0,0,0-11,0V164.869A5.433,5.433,0,0,0,72.814,170.234Z" transform="translate(-50.011 -5.731)"/><path class="cls-3" d="M72.814,170.577a5.506,5.506,0,0,1-5.5-5.5V52.048A27.744,27.744,0,0,1,52.25,36.84,33.992,33.992,0,0,1,54.111,8.558a5.5,5.5,0,0,1,9.609,5.35c-2.567,4.611-3.958,12.208-1.282,18.792,2.046,5.035,6.067,8.479,11.951,10.239a5.533,5.533,0,0,1,3.923,5.268V165.079A5.5,5.5,0,0,1,72.814,170.577ZM58.92,6.418a4.825,4.825,0,0,0-4.21,2.473,33.278,33.278,0,0,0-1.824,27.689A27.09,27.09,0,0,0,67.793,51.505a.344.344,0,0,1,.209.316V165.079a4.812,4.812,0,1,0,9.623,0V48.206a4.841,4.841,0,0,0-3.433-4.61C68.1,41.774,63.93,38.195,61.8,32.958c-2.762-6.793-1.328-14.631,1.318-19.385a4.817,4.817,0,0,0-4.2-7.155Z" transform="translate(-50.011 -5.731)"/></g></g></svg>