<svg id="Layer_1" data-name="Layer 1" xmlns="http://www.w3.org/2000/svg" xmlns:xlink="http://www.w3.org/1999/xlink" viewBox="0 0 57.202 82.621"><defs><style>.cls-1{fill:url(#linear-gradient);}.cls-2{fill:url(#radial-gradient);}.cls-3{fill:url(#radial-gradient-2);}.cls-4{fill:url(#radial-gradient-3);}.cls-5{fill:url(#linear-gradient-2);}.cls-6{fill:url(#radial-gradient-4);}.cls-7{fill:url(#radial-gradient-5);}.cls-8{fill:url(#radial-gradient-6);}</style><linearGradient id="linear-gradient" x1="78.793" y1="91.497" x2="78.793" y2="141.347" gradientUnits="userSpaceOnUse"><stop offset="0" stop-color="#b5a69f"/><stop offset="1" stop-color="#b55c33"/></linearGradient><radialGradient id="radial-gradient" cx="4.828" cy="34.758" r="7.332" xlink:href="#linear-gradient"/><radialGradient id="radial-gradient-2" cx="4.828" cy="20.093" r="7.332" xlink:href="#linear-gradient"/><radialGradient id="radial-gradient-3" cx="4.828" cy="5.429" r="7.332" xlink:href="#linear-gradient"/><linearGradient id="linear-gradient-2" x1="121.33" y1="91.314" x2="121.33" y2="141.163" xlink:href="#linear-gradient"/><radialGradient id="radial-gradient-4" cx="47.365" cy="34.575" r="7.332" xlink:href="#linear-gradient"/><radialGradient id="radial-gradient-5" cx="47.365" cy="19.91" r="7.332" xlink:href="#linear-gradient"/><radialGradient id="radial-gradient-6" cx="47.365" cy="5.246" r="7.332" xlink:href="#linear-gradient"/></defs><title>GFR</title><g id="GFR"><path class="cls-1" d="M78.793,141.347a4.073,4.073,0,0,1-4.074-4.074v-41.7a4.074,4.074,0,0,1,8.147,0v41.7A4.073,4.073,0,0,1,78.793,141.347Z" transform="translate(-71.46 -58.726)"/><circle class="cls-2" cx="7.332" cy="36.845" r="7.332"/><circle class="cls-3" cx="7.332" cy="22.18" r="7.332"/><circle class="cls-4" cx="7.332" cy="7.515" r="7.332"/></g><g id="GFR-2" data-name="GFR"><path class="cls-5" d="M121.33,141.163a4.073,4.073,0,0,1-4.074-4.074v-41.7a4.074,4.074,0,0,1,8.147,0v41.7A4.073,4.073,0,0,1,121.33,141.163Z" transform="translate(-71.46 -58.726)"/><circle class="cls-6" cx="49.87" cy="36.662" r="7.332"/><circle class="cls-7" cx="49.87" cy="21.997" r="7.332"/><circle class="cls-8" cx="49.87" cy="7.332" r="7.332"/></g></svg>