<svg id="Layer_1" data-name="Layer 1" xmlns="http://www.w3.org/2000/svg" xmlns:xlink="http://www.w3.org/1999/xlink" viewBox="0 0 50.478 22.74"><defs><style>.cls-1{fill:url(#linear-gradient);}.cls-2{fill:#82a54f;}.cls-3{font-size:12px;fill:#fff;font-family:Arial-BoldMT, Arial;font-weight:700;}</style><linearGradient id="linear-gradient" x1="25.441" y1="21.171" x2="25.441" y2="1.171" gradientUnits="userSpaceOnUse"><stop offset="0" stop-color="#c33857"/><stop offset="1" stop-color="#82a54f"/></linearGradient></defs><title>PLAUR</title><g id="PLAUR"><rect class="cls-1" x="1.441" y="1.171" width="48" height="20" rx="10" ry="10"/><path class="cls-2" d="M111.28,108.123c-4.949-.009-9.9.43-14.847.837-2.474.205-4.949.388-7.423.457-1.237.057-2.474.074-3.712.093l-1.856.031a13,13,0,0,1-2.117-.146A11.371,11.371,0,0,1,71.91,97.007a11.1,11.1,0,0,1,3.805-7.268,10.864,10.864,0,0,1,7.564-2.588c4.949.282,9.9.437,14.847.335,2.474-.059,4.949-.178,7.423-.341l3.712-.235,1.856-.1a11.163,11.163,0,0,1,2.058.086,10.713,10.713,0,0,1,7.049,4.157,10.4,10.4,0,0,1,1.964,7.846,10.876,10.876,0,0,1-3.9,6.7A11.216,11.216,0,0,1,111.28,108.123Zm0-.3a8.986,8.986,0,0,0,6.489-2.786,9.128,9.128,0,0,0,2.516-6.3,9.637,9.637,0,0,0-7.531-9.38,11.745,11.745,0,0,0-1.635-.222l-1.856-.1L105.55,88.8c-2.474-.164-4.949-.282-7.423-.341-4.949-.1-9.9.053-14.847.335a9.173,9.173,0,0,0-5.934,2.717,8.956,8.956,0,0,0-2.61,5.735,8.5,8.5,0,0,0,1.888,5.869,8.722,8.722,0,0,0,5.242,3.126,9.675,9.675,0,0,0,1.576.162l1.856.031c1.237.019,2.474.036,3.712.093,2.474.069,4.949.252,7.423.457C101.382,107.393,106.331,107.832,111.28,107.823Z" transform="translate(-71.839 -86.802)"/><text class="cls-3" transform="translate(4.775 14.485)">PLAUR</text></g></svg>