<svg id="Layer_1" data-name="Layer 1" xmlns="http://www.w3.org/2000/svg" xmlns:xlink="http://www.w3.org/1999/xlink" viewBox="0 0 34.799 131.499"><defs><style>.cls-1{fill:url(#linear-gradient);}.cls-2{fill:url(#linear-gradient-2);}</style><linearGradient id="linear-gradient" x1="82.601" y1="100" x2="117.399" y2="100" gradientUnits="userSpaceOnUse"><stop offset="0.15" stop-color="#174a43"/><stop offset="0.5" stop-color="#22c664"/><stop offset="0.85" stop-color="#174a43"/></linearGradient><linearGradient id="linear-gradient-2" x1="100" y1="34.25" x2="100" y2="165.75" gradientUnits="userSpaceOnUse"><stop offset="0" stop-color="#0f302c"/><stop offset="0.003" stop-color="#0f322d" stop-opacity="0.988"/><stop offset="0.127" stop-color="#187446" stop-opacity="0.567"/><stop offset="0.279" stop-color="#1ea357" stop-opacity="0.27"/><stop offset="0.487" stop-color="#21be61" stop-opacity="0.098"/><stop offset="1" stop-color="#22c664" stop-opacity="0.05"/></linearGradient></defs><title>NRP1</title><g id="NRP1"><path class="cls-1" d="M117.4,51.65A17.4,17.4,0,1,0,90.345,66.119,10.2,10.2,0,0,1,95,74.568v85.994a5.121,5.121,0,0,0,3.966,5.084,5.005,5.005,0,0,0,6.034-4.9V74.563a10.008,10.008,0,0,1,4.535-8.364A17.371,17.371,0,0,0,117.4,51.65Z" transform="translate(-82.601 -34.25)"/><path class="cls-2" d="M117.4,51.65A17.4,17.4,0,1,0,90.345,66.119,10.2,10.2,0,0,1,95,74.568v85.994a5.121,5.121,0,0,0,3.966,5.084,5.005,5.005,0,0,0,6.034-4.9V74.563a10.008,10.008,0,0,1,4.535-8.364A17.371,17.371,0,0,0,117.4,51.65Z" transform="translate(-82.601 -34.25)"/></g></svg>